%TF.GenerationSoftware,KiCad,Pcbnew,7.0.6*%
%TF.CreationDate,2023-08-31T10:18:15-07:00*%
%TF.ProjectId,keyjoy,6b65796a-6f79-42e6-9b69-6361645f7063,rev?*%
%TF.SameCoordinates,Original*%
%TF.FileFunction,Drillmap*%
%TF.FilePolarity,Positive*%
%FSLAX45Y45*%
G04 Gerber Fmt 4.5, Leading zero omitted, Abs format (unit mm)*
G04 Created by KiCad (PCBNEW 7.0.6) date 2023-08-31 10:18:15*
%MOMM*%
%LPD*%
G01*
G04 APERTURE LIST*
%ADD10C,0.100000*%
%ADD11C,0.200000*%
%ADD12C,0.040000*%
%ADD13C,0.070000*%
%ADD14C,0.088900*%
%ADD15C,0.090000*%
%ADD16C,0.102000*%
%ADD17C,0.139700*%
%ADD18C,0.150000*%
G04 APERTURE END LIST*
D10*
X14925005Y-26136365D02*
G75*
G03*
X15425009Y-26636365I500005J5D01*
G01*
X48310008Y-15669852D02*
G75*
G03*
X47810009Y-15169852I-499998J2D01*
G01*
D11*
X14925009Y-15479733D02*
G75*
G03*
X14925009Y-15479733I0J0D01*
G01*
D10*
X15425009Y-15169852D02*
X47810009Y-15169852D01*
X47810009Y-26636365D02*
X15425009Y-26636365D01*
X48310009Y-15669852D02*
X48310009Y-26136365D01*
X14925009Y-26136365D02*
X14925009Y-15669852D01*
X47810009Y-26636369D02*
G75*
G03*
X48310009Y-26136365I-9J500009D01*
G01*
D11*
X14925009Y-26004733D02*
G75*
G03*
X14925009Y-26004733I0J0D01*
G01*
D10*
X15425009Y-15169849D02*
G75*
G03*
X14925009Y-15669852I1J-500001D01*
G01*
D11*
X48310009Y-26004733D02*
G75*
G03*
X48310009Y-26004733I0J0D01*
G01*
X48310009Y-15479733D02*
G75*
G03*
X48310009Y-15479733I0J0D01*
G01*
D12*
X35152299Y-26022087D02*
X35192299Y-26062087D01*
X35192299Y-26022087D02*
X35152299Y-26062087D01*
X35631087Y-26013681D02*
X35671087Y-26053681D01*
X35671087Y-26013681D02*
X35631087Y-26053681D01*
X39963359Y-25507727D02*
X40003359Y-25547727D01*
X40003359Y-25507727D02*
X39963359Y-25547727D01*
X39965949Y-25352007D02*
X40005949Y-25392007D01*
X40005949Y-25352007D02*
X39965949Y-25392007D01*
X40743660Y-25505691D02*
X40783660Y-25545691D01*
X40783660Y-25505691D02*
X40743660Y-25545691D01*
X42216957Y-25914940D02*
X42256957Y-25954940D01*
X42256957Y-25914940D02*
X42216957Y-25954940D01*
X42221902Y-23738362D02*
X42261902Y-23778362D01*
X42261902Y-23738362D02*
X42221902Y-23778362D01*
X42224567Y-23858222D02*
X42264567Y-23898222D01*
X42264567Y-23858222D02*
X42224567Y-23898222D01*
X42338610Y-26042489D02*
X42378610Y-26082489D01*
X42378610Y-26042489D02*
X42338610Y-26082489D01*
X43364949Y-22909344D02*
X43404949Y-22949344D01*
X43404949Y-22909344D02*
X43364949Y-22949344D01*
X43495976Y-22913412D02*
X43535976Y-22953412D01*
X43535976Y-22913412D02*
X43495976Y-22953412D01*
X43496494Y-23112401D02*
X43536494Y-23152401D01*
X43536494Y-23112401D02*
X43496494Y-23152401D01*
X43581735Y-22710386D02*
X43621735Y-22750386D01*
X43621735Y-22710386D02*
X43581735Y-22750386D01*
X43609563Y-22909137D02*
X43649563Y-22949137D01*
X43649563Y-22909137D02*
X43609563Y-22949137D01*
X43692967Y-23126456D02*
X43732967Y-23166456D01*
X43732967Y-23126456D02*
X43692967Y-23166456D01*
X44228979Y-26035769D02*
X44268979Y-26075769D01*
X44268979Y-26035769D02*
X44228979Y-26075769D01*
X44278647Y-20651934D02*
X44318647Y-20691934D01*
X44318647Y-20651934D02*
X44278647Y-20691934D01*
X45114992Y-19792901D02*
X45154992Y-19832901D01*
X45154992Y-19792901D02*
X45114992Y-19832901D01*
X45877128Y-23776013D02*
X45917128Y-23816013D01*
X45917128Y-23776013D02*
X45877128Y-23816013D01*
X45877158Y-25649115D02*
X45917158Y-25689115D01*
X45917158Y-25649115D02*
X45877158Y-25689115D01*
X47763159Y-23891529D02*
X47803159Y-23931529D01*
X47803159Y-23891529D02*
X47763159Y-23931529D01*
D13*
X17173509Y-16540233D02*
G75*
G03*
X17173509Y-16540233I-35000J0D01*
G01*
X17173509Y-17320233D02*
G75*
G03*
X17173509Y-17320233I-35000J0D01*
G01*
X17408471Y-24168723D02*
G75*
G03*
X17408471Y-24168723I-35000J0D01*
G01*
X17408471Y-24948723D02*
G75*
G03*
X17408471Y-24948723I-35000J0D01*
G01*
X17662494Y-18437688D02*
G75*
G03*
X17662494Y-18437688I-35000J0D01*
G01*
X17662494Y-19217688D02*
G75*
G03*
X17662494Y-19217688I-35000J0D01*
G01*
X17898250Y-20329329D02*
G75*
G03*
X17898250Y-20329329I-35000J0D01*
G01*
X17898250Y-21109329D02*
G75*
G03*
X17898250Y-21109329I-35000J0D01*
G01*
X18364864Y-22267141D02*
G75*
G03*
X18364864Y-22267141I-35000J0D01*
G01*
X18364864Y-23047141D02*
G75*
G03*
X18364864Y-23047141I-35000J0D01*
G01*
X19078509Y-16540233D02*
G75*
G03*
X19078509Y-16540233I-35000J0D01*
G01*
X19078509Y-17320233D02*
G75*
G03*
X19078509Y-17320233I-35000J0D01*
G01*
X19788412Y-24158929D02*
G75*
G03*
X19788412Y-24158929I-35000J0D01*
G01*
X19788412Y-24938929D02*
G75*
G03*
X19788412Y-24938929I-35000J0D01*
G01*
X20031009Y-18445233D02*
G75*
G03*
X20031009Y-18445233I-35000J0D01*
G01*
X20031009Y-19225233D02*
G75*
G03*
X20031009Y-19225233I-35000J0D01*
G01*
X20507259Y-20350233D02*
G75*
G03*
X20507259Y-20350233I-35000J0D01*
G01*
X20507259Y-21130233D02*
G75*
G03*
X20507259Y-21130233I-35000J0D01*
G01*
X20983509Y-16540233D02*
G75*
G03*
X20983509Y-16540233I-35000J0D01*
G01*
X20983509Y-17320233D02*
G75*
G03*
X20983509Y-17320233I-35000J0D01*
G01*
X21459759Y-22255233D02*
G75*
G03*
X21459759Y-22255233I-35000J0D01*
G01*
X21459759Y-23035233D02*
G75*
G03*
X21459759Y-23035233I-35000J0D01*
G01*
X21936009Y-18445233D02*
G75*
G03*
X21936009Y-18445233I-35000J0D01*
G01*
X21936009Y-19225233D02*
G75*
G03*
X21936009Y-19225233I-35000J0D01*
G01*
X22168354Y-24177817D02*
G75*
G03*
X22168354Y-24177817I-35000J0D01*
G01*
X22168354Y-24957817D02*
G75*
G03*
X22168354Y-24957817I-35000J0D01*
G01*
X22412259Y-20350233D02*
G75*
G03*
X22412259Y-20350233I-35000J0D01*
G01*
X22412259Y-21130233D02*
G75*
G03*
X22412259Y-21130233I-35000J0D01*
G01*
X22888509Y-16540233D02*
G75*
G03*
X22888509Y-16540233I-35000J0D01*
G01*
X22888509Y-17320233D02*
G75*
G03*
X22888509Y-17320233I-35000J0D01*
G01*
X23364759Y-22255233D02*
G75*
G03*
X23364759Y-22255233I-35000J0D01*
G01*
X23364759Y-23035233D02*
G75*
G03*
X23364759Y-23035233I-35000J0D01*
G01*
X23841009Y-18445233D02*
G75*
G03*
X23841009Y-18445233I-35000J0D01*
G01*
X23841009Y-19225233D02*
G75*
G03*
X23841009Y-19225233I-35000J0D01*
G01*
X24317259Y-20350233D02*
G75*
G03*
X24317259Y-20350233I-35000J0D01*
G01*
X24317259Y-21130233D02*
G75*
G03*
X24317259Y-21130233I-35000J0D01*
G01*
X24793509Y-16540233D02*
G75*
G03*
X24793509Y-16540233I-35000J0D01*
G01*
X24793509Y-17320233D02*
G75*
G03*
X24793509Y-17320233I-35000J0D01*
G01*
X25269759Y-22255233D02*
G75*
G03*
X25269759Y-22255233I-35000J0D01*
G01*
X25269759Y-23035233D02*
G75*
G03*
X25269759Y-23035233I-35000J0D01*
G01*
X25746009Y-18445233D02*
G75*
G03*
X25746009Y-18445233I-35000J0D01*
G01*
X25746009Y-19225233D02*
G75*
G03*
X25746009Y-19225233I-35000J0D01*
G01*
X26222259Y-20350233D02*
G75*
G03*
X26222259Y-20350233I-35000J0D01*
G01*
X26222259Y-21130233D02*
G75*
G03*
X26222259Y-21130233I-35000J0D01*
G01*
X26698509Y-16540233D02*
G75*
G03*
X26698509Y-16540233I-35000J0D01*
G01*
X26698509Y-17320233D02*
G75*
G03*
X26698509Y-17320233I-35000J0D01*
G01*
X27174759Y-22255233D02*
G75*
G03*
X27174759Y-22255233I-35000J0D01*
G01*
X27174759Y-23035233D02*
G75*
G03*
X27174759Y-23035233I-35000J0D01*
G01*
X27651009Y-18445233D02*
G75*
G03*
X27651009Y-18445233I-35000J0D01*
G01*
X27651009Y-19225233D02*
G75*
G03*
X27651009Y-19225233I-35000J0D01*
G01*
X28127259Y-20350233D02*
G75*
G03*
X28127259Y-20350233I-35000J0D01*
G01*
X28127259Y-21130233D02*
G75*
G03*
X28127259Y-21130233I-35000J0D01*
G01*
X28603509Y-16540233D02*
G75*
G03*
X28603509Y-16540233I-35000J0D01*
G01*
X28603509Y-17320233D02*
G75*
G03*
X28603509Y-17320233I-35000J0D01*
G01*
X29079759Y-22255233D02*
G75*
G03*
X29079759Y-22255233I-35000J0D01*
G01*
X29079759Y-23035233D02*
G75*
G03*
X29079759Y-23035233I-35000J0D01*
G01*
X29310933Y-24171127D02*
G75*
G03*
X29310933Y-24171127I-35000J0D01*
G01*
X29310933Y-24951127D02*
G75*
G03*
X29310933Y-24951127I-35000J0D01*
G01*
X29556009Y-18445233D02*
G75*
G03*
X29556009Y-18445233I-35000J0D01*
G01*
X29556009Y-19225233D02*
G75*
G03*
X29556009Y-19225233I-35000J0D01*
G01*
X30032259Y-20350233D02*
G75*
G03*
X30032259Y-20350233I-35000J0D01*
G01*
X30032259Y-21130233D02*
G75*
G03*
X30032259Y-21130233I-35000J0D01*
G01*
X30508509Y-16540233D02*
G75*
G03*
X30508509Y-16540233I-35000J0D01*
G01*
X30508509Y-17320233D02*
G75*
G03*
X30508509Y-17320233I-35000J0D01*
G01*
X30984759Y-22255233D02*
G75*
G03*
X30984759Y-22255233I-35000J0D01*
G01*
X30984759Y-23035233D02*
G75*
G03*
X30984759Y-23035233I-35000J0D01*
G01*
X31461009Y-18445233D02*
G75*
G03*
X31461009Y-18445233I-35000J0D01*
G01*
X31461009Y-19225233D02*
G75*
G03*
X31461009Y-19225233I-35000J0D01*
G01*
X31937259Y-20350233D02*
G75*
G03*
X31937259Y-20350233I-35000J0D01*
G01*
X31937259Y-21130233D02*
G75*
G03*
X31937259Y-21130233I-35000J0D01*
G01*
X32413509Y-16540233D02*
G75*
G03*
X32413509Y-16540233I-35000J0D01*
G01*
X32413509Y-17320233D02*
G75*
G03*
X32413509Y-17320233I-35000J0D01*
G01*
X32889759Y-22255233D02*
G75*
G03*
X32889759Y-22255233I-35000J0D01*
G01*
X32889759Y-23035233D02*
G75*
G03*
X32889759Y-23035233I-35000J0D01*
G01*
X33366009Y-18445233D02*
G75*
G03*
X33366009Y-18445233I-35000J0D01*
G01*
X33366009Y-19225233D02*
G75*
G03*
X33366009Y-19225233I-35000J0D01*
G01*
X33842259Y-20350233D02*
G75*
G03*
X33842259Y-20350233I-35000J0D01*
G01*
X33842259Y-21130233D02*
G75*
G03*
X33842259Y-21130233I-35000J0D01*
G01*
X34318509Y-16540233D02*
G75*
G03*
X34318509Y-16540233I-35000J0D01*
G01*
X34318509Y-17320233D02*
G75*
G03*
X34318509Y-17320233I-35000J0D01*
G01*
X34794759Y-22255233D02*
G75*
G03*
X34794759Y-22255233I-35000J0D01*
G01*
X34794759Y-23035233D02*
G75*
G03*
X34794759Y-23035233I-35000J0D01*
G01*
X35271009Y-18445233D02*
G75*
G03*
X35271009Y-18445233I-35000J0D01*
G01*
X35271009Y-19225233D02*
G75*
G03*
X35271009Y-19225233I-35000J0D01*
G01*
X35747259Y-20350233D02*
G75*
G03*
X35747259Y-20350233I-35000J0D01*
G01*
X35747259Y-21130233D02*
G75*
G03*
X35747259Y-21130233I-35000J0D01*
G01*
X36223509Y-16540233D02*
G75*
G03*
X36223509Y-16540233I-35000J0D01*
G01*
X36223509Y-17320233D02*
G75*
G03*
X36223509Y-17320233I-35000J0D01*
G01*
X36699759Y-22255233D02*
G75*
G03*
X36699759Y-22255233I-35000J0D01*
G01*
X36699759Y-23035233D02*
G75*
G03*
X36699759Y-23035233I-35000J0D01*
G01*
X37176009Y-18445233D02*
G75*
G03*
X37176009Y-18445233I-35000J0D01*
G01*
X37176009Y-19225233D02*
G75*
G03*
X37176009Y-19225233I-35000J0D01*
G01*
X37176009Y-24160233D02*
G75*
G03*
X37176009Y-24160233I-35000J0D01*
G01*
X37176009Y-24940233D02*
G75*
G03*
X37176009Y-24940233I-35000J0D01*
G01*
X37652259Y-20350233D02*
G75*
G03*
X37652259Y-20350233I-35000J0D01*
G01*
X37652259Y-21130233D02*
G75*
G03*
X37652259Y-21130233I-35000J0D01*
G01*
X38128509Y-16540233D02*
G75*
G03*
X38128509Y-16540233I-35000J0D01*
G01*
X38128509Y-17320233D02*
G75*
G03*
X38128509Y-17320233I-35000J0D01*
G01*
X38604759Y-22255233D02*
G75*
G03*
X38604759Y-22255233I-35000J0D01*
G01*
X38604759Y-23035233D02*
G75*
G03*
X38604759Y-23035233I-35000J0D01*
G01*
X39081009Y-18445233D02*
G75*
G03*
X39081009Y-18445233I-35000J0D01*
G01*
X39081009Y-19225233D02*
G75*
G03*
X39081009Y-19225233I-35000J0D01*
G01*
X39557259Y-20350233D02*
G75*
G03*
X39557259Y-20350233I-35000J0D01*
G01*
X39557259Y-21130233D02*
G75*
G03*
X39557259Y-21130233I-35000J0D01*
G01*
X40033509Y-16540233D02*
G75*
G03*
X40033509Y-16540233I-35000J0D01*
G01*
X40033509Y-17320233D02*
G75*
G03*
X40033509Y-17320233I-35000J0D01*
G01*
X40986009Y-18445233D02*
G75*
G03*
X40986009Y-18445233I-35000J0D01*
G01*
X40986009Y-19225233D02*
G75*
G03*
X40986009Y-19225233I-35000J0D01*
G01*
X42157947Y-22265757D02*
G75*
G03*
X42157947Y-22265757I-35000J0D01*
G01*
X42157947Y-23045757D02*
G75*
G03*
X42157947Y-23045757I-35000J0D01*
G01*
X42659889Y-20344268D02*
G75*
G03*
X42659889Y-20344268I-35000J0D01*
G01*
X42659889Y-21124268D02*
G75*
G03*
X42659889Y-21124268I-35000J0D01*
G01*
X42897276Y-16543963D02*
G75*
G03*
X42897276Y-16543963I-35000J0D01*
G01*
X42897276Y-17323964D02*
G75*
G03*
X42897276Y-17323964I-35000J0D01*
G01*
X43377882Y-18441900D02*
G75*
G03*
X43377882Y-18441900I-35000J0D01*
G01*
X43377882Y-19221900D02*
G75*
G03*
X43377882Y-19221900I-35000J0D01*
G01*
X43843509Y-24160233D02*
G75*
G03*
X43843509Y-24160233I-35000J0D01*
G01*
X43843509Y-24940233D02*
G75*
G03*
X43843509Y-24940233I-35000J0D01*
G01*
X45748509Y-22255233D02*
G75*
G03*
X45748509Y-22255233I-35000J0D01*
G01*
X45748509Y-23035233D02*
G75*
G03*
X45748509Y-23035233I-35000J0D01*
G01*
X45748509Y-24160233D02*
G75*
G03*
X45748509Y-24160233I-35000J0D01*
G01*
X45748509Y-24940233D02*
G75*
G03*
X45748509Y-24940233I-35000J0D01*
G01*
X47653509Y-24160233D02*
G75*
G03*
X47653509Y-24160233I-35000J0D01*
G01*
X47653509Y-24940233D02*
G75*
G03*
X47653509Y-24940233I-35000J0D01*
G01*
D14*
X38766124Y-25118002D02*
X38766124Y-25206902D01*
X38721674Y-25162452D02*
X38810574Y-25162452D01*
X38766124Y-25372002D02*
X38766124Y-25460902D01*
X38721674Y-25416452D02*
X38810574Y-25416452D01*
X38767624Y-24865482D02*
X38767624Y-24954382D01*
X38723174Y-24909932D02*
X38812074Y-24909932D01*
X39404124Y-26007002D02*
X39404124Y-26095902D01*
X39359674Y-26051452D02*
X39448574Y-26051452D01*
X39658124Y-26009002D02*
X39658124Y-26097902D01*
X39613674Y-26053452D02*
X39702574Y-26053452D01*
X39912124Y-26007002D02*
X39912124Y-26095902D01*
X39867674Y-26051452D02*
X39956574Y-26051452D01*
D15*
X39370944Y-24114272D02*
X39370944Y-24050632D01*
X39307303Y-24050632D01*
X39307303Y-24114272D01*
X39370944Y-24114272D01*
X39370944Y-24608272D02*
X39370944Y-24544632D01*
X39307303Y-24544632D01*
X39307303Y-24608272D01*
X39370944Y-24608272D01*
X40005944Y-24116252D02*
X40005944Y-24052612D01*
X39942303Y-24052612D01*
X39942303Y-24116252D01*
X40005944Y-24116252D01*
X40006944Y-24610272D02*
X40006944Y-24546632D01*
X39943303Y-24546632D01*
X39943303Y-24610272D01*
X40006944Y-24610272D01*
D10*
X45496135Y-18650086D02*
X45546135Y-18600086D01*
X45496135Y-18550086D01*
X45446135Y-18600086D01*
X45496135Y-18650086D01*
X45496135Y-18900086D02*
X45546135Y-18850086D01*
X45496135Y-18800086D01*
X45446135Y-18850086D01*
X45496135Y-18900086D01*
X45496135Y-19150086D02*
X45546135Y-19100086D01*
X45496135Y-19050086D01*
X45446135Y-19100086D01*
X45496135Y-19150086D01*
X46946135Y-18650086D02*
X46996135Y-18600086D01*
X46946135Y-18550086D01*
X46896135Y-18600086D01*
X46946135Y-18650086D01*
X46946135Y-19150086D02*
X46996135Y-19100086D01*
X46946135Y-19050086D01*
X46896135Y-19100086D01*
X46946135Y-19150086D01*
D16*
X44706542Y-16455205D02*
X44808542Y-16557205D01*
X44808542Y-16455205D02*
X44706542Y-16557205D01*
X44808542Y-16506205D02*
G75*
G03*
X44808542Y-16506205I-51000J0D01*
G01*
X44706542Y-16709205D02*
X44808542Y-16811205D01*
X44808542Y-16709205D02*
X44706542Y-16811205D01*
X44808542Y-16760205D02*
G75*
G03*
X44808542Y-16760205I-51000J0D01*
G01*
X44706542Y-16963205D02*
X44808542Y-17065205D01*
X44808542Y-16963205D02*
X44706542Y-17065205D01*
X44808542Y-17014205D02*
G75*
G03*
X44808542Y-17014205I-51000J0D01*
G01*
X44706542Y-17217205D02*
X44808542Y-17319205D01*
X44808542Y-17217205D02*
X44706542Y-17319205D01*
X44808542Y-17268205D02*
G75*
G03*
X44808542Y-17268205I-51000J0D01*
G01*
X44706542Y-17471205D02*
X44808542Y-17573205D01*
X44808542Y-17471205D02*
X44706542Y-17573205D01*
X44808542Y-17522205D02*
G75*
G03*
X44808542Y-17522205I-51000J0D01*
G01*
X44706542Y-17725205D02*
X44808542Y-17827205D01*
X44808542Y-17725205D02*
X44706542Y-17827205D01*
X44808542Y-17776205D02*
G75*
G03*
X44808542Y-17776205I-51000J0D01*
G01*
X44706542Y-17979205D02*
X44808542Y-18081205D01*
X44808542Y-17979205D02*
X44706542Y-18081205D01*
X44808542Y-18030205D02*
G75*
G03*
X44808542Y-18030205I-51000J0D01*
G01*
X44706542Y-18233205D02*
X44808542Y-18335205D01*
X44808542Y-18233205D02*
X44706542Y-18335205D01*
X44808542Y-18284205D02*
G75*
G03*
X44808542Y-18284205I-51000J0D01*
G01*
X44706542Y-18487205D02*
X44808542Y-18589205D01*
X44808542Y-18487205D02*
X44706542Y-18589205D01*
X44808542Y-18538205D02*
G75*
G03*
X44808542Y-18538205I-51000J0D01*
G01*
X44706542Y-18741205D02*
X44808542Y-18843205D01*
X44808542Y-18741205D02*
X44706542Y-18843205D01*
X44808542Y-18792205D02*
G75*
G03*
X44808542Y-18792205I-51000J0D01*
G01*
X44706542Y-18995205D02*
X44808542Y-19097205D01*
X44808542Y-18995205D02*
X44706542Y-19097205D01*
X44808542Y-19046205D02*
G75*
G03*
X44808542Y-19046205I-51000J0D01*
G01*
X44706542Y-19249205D02*
X44808542Y-19351205D01*
X44808542Y-19249205D02*
X44706542Y-19351205D01*
X44808542Y-19300205D02*
G75*
G03*
X44808542Y-19300205I-51000J0D01*
G01*
X44706542Y-19503205D02*
X44808542Y-19605205D01*
X44808542Y-19503205D02*
X44706542Y-19605205D01*
X44808542Y-19554205D02*
G75*
G03*
X44808542Y-19554205I-51000J0D01*
G01*
X44706542Y-19757205D02*
X44808542Y-19859205D01*
X44808542Y-19757205D02*
X44706542Y-19859205D01*
X44808542Y-19808205D02*
G75*
G03*
X44808542Y-19808205I-51000J0D01*
G01*
X44706542Y-20011205D02*
X44808542Y-20113205D01*
X44808542Y-20011205D02*
X44706542Y-20113205D01*
X44808542Y-20062205D02*
G75*
G03*
X44808542Y-20062205I-51000J0D01*
G01*
X44706542Y-20265205D02*
X44808542Y-20367205D01*
X44808542Y-20265205D02*
X44706542Y-20367205D01*
X44808542Y-20316205D02*
G75*
G03*
X44808542Y-20316205I-51000J0D01*
G01*
X44706542Y-20519205D02*
X44808542Y-20621205D01*
X44808542Y-20519205D02*
X44706542Y-20621205D01*
X44808542Y-20570205D02*
G75*
G03*
X44808542Y-20570205I-51000J0D01*
G01*
X44706542Y-20773205D02*
X44808542Y-20875205D01*
X44808542Y-20773205D02*
X44706542Y-20875205D01*
X44808542Y-20824205D02*
G75*
G03*
X44808542Y-20824205I-51000J0D01*
G01*
X44706542Y-21027205D02*
X44808542Y-21129205D01*
X44808542Y-21027205D02*
X44706542Y-21129205D01*
X44808542Y-21078205D02*
G75*
G03*
X44808542Y-21078205I-51000J0D01*
G01*
X44706542Y-21281205D02*
X44808542Y-21383205D01*
X44808542Y-21281205D02*
X44706542Y-21383205D01*
X44808542Y-21332205D02*
G75*
G03*
X44808542Y-21332205I-51000J0D01*
G01*
X45341542Y-21258205D02*
X45443542Y-21360205D01*
X45443542Y-21258205D02*
X45341542Y-21360205D01*
X45443542Y-21309205D02*
G75*
G03*
X45443542Y-21309205I-51000J0D01*
G01*
X45595542Y-21258205D02*
X45697542Y-21360205D01*
X45697542Y-21258205D02*
X45595542Y-21360205D01*
X45697542Y-21309205D02*
G75*
G03*
X45697542Y-21309205I-51000J0D01*
G01*
X45849542Y-21258205D02*
X45951542Y-21360205D01*
X45951542Y-21258205D02*
X45849542Y-21360205D01*
X45951542Y-21309205D02*
G75*
G03*
X45951542Y-21309205I-51000J0D01*
G01*
X46484542Y-16455205D02*
X46586542Y-16557205D01*
X46586542Y-16455205D02*
X46484542Y-16557205D01*
X46586542Y-16506205D02*
G75*
G03*
X46586542Y-16506205I-51000J0D01*
G01*
X46484542Y-16709205D02*
X46586542Y-16811205D01*
X46586542Y-16709205D02*
X46484542Y-16811205D01*
X46586542Y-16760205D02*
G75*
G03*
X46586542Y-16760205I-51000J0D01*
G01*
X46484542Y-16963205D02*
X46586542Y-17065205D01*
X46586542Y-16963205D02*
X46484542Y-17065205D01*
X46586542Y-17014205D02*
G75*
G03*
X46586542Y-17014205I-51000J0D01*
G01*
X46484542Y-17217205D02*
X46586542Y-17319205D01*
X46586542Y-17217205D02*
X46484542Y-17319205D01*
X46586542Y-17268205D02*
G75*
G03*
X46586542Y-17268205I-51000J0D01*
G01*
X46484542Y-17471205D02*
X46586542Y-17573205D01*
X46586542Y-17471205D02*
X46484542Y-17573205D01*
X46586542Y-17522205D02*
G75*
G03*
X46586542Y-17522205I-51000J0D01*
G01*
X46484542Y-17725205D02*
X46586542Y-17827205D01*
X46586542Y-17725205D02*
X46484542Y-17827205D01*
X46586542Y-17776205D02*
G75*
G03*
X46586542Y-17776205I-51000J0D01*
G01*
X46484542Y-17979205D02*
X46586542Y-18081205D01*
X46586542Y-17979205D02*
X46484542Y-18081205D01*
X46586542Y-18030205D02*
G75*
G03*
X46586542Y-18030205I-51000J0D01*
G01*
X46484542Y-18233205D02*
X46586542Y-18335205D01*
X46586542Y-18233205D02*
X46484542Y-18335205D01*
X46586542Y-18284205D02*
G75*
G03*
X46586542Y-18284205I-51000J0D01*
G01*
X46484542Y-18487205D02*
X46586542Y-18589205D01*
X46586542Y-18487205D02*
X46484542Y-18589205D01*
X46586542Y-18538205D02*
G75*
G03*
X46586542Y-18538205I-51000J0D01*
G01*
X46484542Y-18741205D02*
X46586542Y-18843205D01*
X46586542Y-18741205D02*
X46484542Y-18843205D01*
X46586542Y-18792205D02*
G75*
G03*
X46586542Y-18792205I-51000J0D01*
G01*
X46484542Y-18995205D02*
X46586542Y-19097205D01*
X46586542Y-18995205D02*
X46484542Y-19097205D01*
X46586542Y-19046205D02*
G75*
G03*
X46586542Y-19046205I-51000J0D01*
G01*
X46484542Y-19249205D02*
X46586542Y-19351205D01*
X46586542Y-19249205D02*
X46484542Y-19351205D01*
X46586542Y-19300205D02*
G75*
G03*
X46586542Y-19300205I-51000J0D01*
G01*
X46484542Y-19503205D02*
X46586542Y-19605205D01*
X46586542Y-19503205D02*
X46484542Y-19605205D01*
X46586542Y-19554205D02*
G75*
G03*
X46586542Y-19554205I-51000J0D01*
G01*
X46484542Y-19757205D02*
X46586542Y-19859205D01*
X46586542Y-19757205D02*
X46484542Y-19859205D01*
X46586542Y-19808205D02*
G75*
G03*
X46586542Y-19808205I-51000J0D01*
G01*
X46484542Y-20011205D02*
X46586542Y-20113205D01*
X46586542Y-20011205D02*
X46484542Y-20113205D01*
X46586542Y-20062205D02*
G75*
G03*
X46586542Y-20062205I-51000J0D01*
G01*
X46484542Y-20265205D02*
X46586542Y-20367205D01*
X46586542Y-20265205D02*
X46484542Y-20367205D01*
X46586542Y-20316205D02*
G75*
G03*
X46586542Y-20316205I-51000J0D01*
G01*
X46484542Y-20519205D02*
X46586542Y-20621205D01*
X46586542Y-20519205D02*
X46484542Y-20621205D01*
X46586542Y-20570205D02*
G75*
G03*
X46586542Y-20570205I-51000J0D01*
G01*
X46484542Y-20773205D02*
X46586542Y-20875205D01*
X46586542Y-20773205D02*
X46484542Y-20875205D01*
X46586542Y-20824205D02*
G75*
G03*
X46586542Y-20824205I-51000J0D01*
G01*
X46484542Y-21027205D02*
X46586542Y-21129205D01*
X46586542Y-21027205D02*
X46484542Y-21129205D01*
X46586542Y-21078205D02*
G75*
G03*
X46586542Y-21078205I-51000J0D01*
G01*
X46484542Y-21281205D02*
X46586542Y-21383205D01*
X46586542Y-21281205D02*
X46484542Y-21383205D01*
X46586542Y-21332205D02*
G75*
G03*
X46586542Y-21332205I-51000J0D01*
G01*
D17*
X38951774Y-24587602D02*
X39091474Y-24727302D01*
X39091474Y-24587602D02*
X38951774Y-24727302D01*
X39021624Y-24587602D02*
X39021624Y-24727302D01*
X38951774Y-24657452D02*
X39091474Y-24657452D01*
X38951774Y-25600602D02*
X39091474Y-25740302D01*
X39091474Y-25600602D02*
X38951774Y-25740302D01*
X39021624Y-25600602D02*
X39021624Y-25740302D01*
X38951774Y-25670452D02*
X39091474Y-25670452D01*
X40221774Y-24586082D02*
X40361474Y-24725782D01*
X40361474Y-24586082D02*
X40221774Y-24725782D01*
X40291624Y-24586082D02*
X40291624Y-24725782D01*
X40221774Y-24655932D02*
X40361474Y-24655932D01*
X40221774Y-25602082D02*
X40361474Y-25741782D01*
X40361474Y-25602082D02*
X40221774Y-25741782D01*
X40291624Y-25602082D02*
X40291624Y-25741782D01*
X40221774Y-25671932D02*
X40361474Y-25671932D01*
D18*
X46171135Y-18215086D02*
X46321135Y-18365086D01*
X46321135Y-18215086D02*
X46171135Y-18365086D01*
X46299168Y-18343120D02*
X46299168Y-18237053D01*
X46193101Y-18237053D01*
X46193101Y-18343120D01*
X46299168Y-18343120D01*
D11*
X46181135Y-18365086D02*
X46311135Y-18365086D01*
X46311135Y-18365086D02*
G75*
G03*
X46311135Y-18215086I0J75000D01*
G01*
X46311135Y-18215086D02*
X46181135Y-18215086D01*
X46181135Y-18215086D02*
G75*
G03*
X46181135Y-18365086I0J-75000D01*
G01*
D18*
X46171135Y-19335086D02*
X46321135Y-19485086D01*
X46321135Y-19335086D02*
X46171135Y-19485086D01*
X46299168Y-19463120D02*
X46299168Y-19357053D01*
X46193101Y-19357053D01*
X46193101Y-19463120D01*
X46299168Y-19463120D01*
D11*
X46181135Y-19485086D02*
X46311135Y-19485086D01*
X46311135Y-19485086D02*
G75*
G03*
X46311135Y-19335086I0J75000D01*
G01*
X46311135Y-19335086D02*
X46181135Y-19335086D01*
X46181135Y-19335086D02*
G75*
G03*
X46181135Y-19485086I0J-75000D01*
G01*
X15175786Y-26952849D02*
X15175786Y-26752849D01*
X15175786Y-26752849D02*
X15223405Y-26752849D01*
X15223405Y-26752849D02*
X15251976Y-26762372D01*
X15251976Y-26762372D02*
X15271024Y-26781420D01*
X15271024Y-26781420D02*
X15280548Y-26800468D01*
X15280548Y-26800468D02*
X15290071Y-26838563D01*
X15290071Y-26838563D02*
X15290071Y-26867134D01*
X15290071Y-26867134D02*
X15280548Y-26905230D01*
X15280548Y-26905230D02*
X15271024Y-26924277D01*
X15271024Y-26924277D02*
X15251976Y-26943325D01*
X15251976Y-26943325D02*
X15223405Y-26952849D01*
X15223405Y-26952849D02*
X15175786Y-26952849D01*
X15375786Y-26952849D02*
X15375786Y-26819515D01*
X15375786Y-26857611D02*
X15385309Y-26838563D01*
X15385309Y-26838563D02*
X15394833Y-26829039D01*
X15394833Y-26829039D02*
X15413881Y-26819515D01*
X15413881Y-26819515D02*
X15432929Y-26819515D01*
X15499595Y-26952849D02*
X15499595Y-26819515D01*
X15499595Y-26752849D02*
X15490071Y-26762372D01*
X15490071Y-26762372D02*
X15499595Y-26771896D01*
X15499595Y-26771896D02*
X15509119Y-26762372D01*
X15509119Y-26762372D02*
X15499595Y-26752849D01*
X15499595Y-26752849D02*
X15499595Y-26771896D01*
X15623405Y-26952849D02*
X15604357Y-26943325D01*
X15604357Y-26943325D02*
X15594833Y-26924277D01*
X15594833Y-26924277D02*
X15594833Y-26752849D01*
X15728167Y-26952849D02*
X15709119Y-26943325D01*
X15709119Y-26943325D02*
X15699595Y-26924277D01*
X15699595Y-26924277D02*
X15699595Y-26752849D01*
X15956738Y-26952849D02*
X15956738Y-26752849D01*
X15956738Y-26752849D02*
X16023405Y-26895706D01*
X16023405Y-26895706D02*
X16090071Y-26752849D01*
X16090071Y-26752849D02*
X16090071Y-26952849D01*
X16271024Y-26952849D02*
X16271024Y-26848087D01*
X16271024Y-26848087D02*
X16261500Y-26829039D01*
X16261500Y-26829039D02*
X16242452Y-26819515D01*
X16242452Y-26819515D02*
X16204357Y-26819515D01*
X16204357Y-26819515D02*
X16185309Y-26829039D01*
X16271024Y-26943325D02*
X16251976Y-26952849D01*
X16251976Y-26952849D02*
X16204357Y-26952849D01*
X16204357Y-26952849D02*
X16185309Y-26943325D01*
X16185309Y-26943325D02*
X16175786Y-26924277D01*
X16175786Y-26924277D02*
X16175786Y-26905230D01*
X16175786Y-26905230D02*
X16185309Y-26886182D01*
X16185309Y-26886182D02*
X16204357Y-26876658D01*
X16204357Y-26876658D02*
X16251976Y-26876658D01*
X16251976Y-26876658D02*
X16271024Y-26867134D01*
X16366262Y-26819515D02*
X16366262Y-27019515D01*
X16366262Y-26829039D02*
X16385309Y-26819515D01*
X16385309Y-26819515D02*
X16423405Y-26819515D01*
X16423405Y-26819515D02*
X16442452Y-26829039D01*
X16442452Y-26829039D02*
X16451976Y-26838563D01*
X16451976Y-26838563D02*
X16461500Y-26857611D01*
X16461500Y-26857611D02*
X16461500Y-26914753D01*
X16461500Y-26914753D02*
X16451976Y-26933801D01*
X16451976Y-26933801D02*
X16442452Y-26943325D01*
X16442452Y-26943325D02*
X16423405Y-26952849D01*
X16423405Y-26952849D02*
X16385309Y-26952849D01*
X16385309Y-26952849D02*
X16366262Y-26943325D01*
X16547214Y-26933801D02*
X16556738Y-26943325D01*
X16556738Y-26943325D02*
X16547214Y-26952849D01*
X16547214Y-26952849D02*
X16537690Y-26943325D01*
X16537690Y-26943325D02*
X16547214Y-26933801D01*
X16547214Y-26933801D02*
X16547214Y-26952849D01*
X16547214Y-26829039D02*
X16556738Y-26838563D01*
X16556738Y-26838563D02*
X16547214Y-26848087D01*
X16547214Y-26848087D02*
X16537690Y-26838563D01*
X16537690Y-26838563D02*
X16547214Y-26829039D01*
X16547214Y-26829039D02*
X16547214Y-26848087D01*
D12*
X14875009Y-27261365D02*
X14915009Y-27301365D01*
X14915009Y-27261365D02*
X14875009Y-27301365D01*
D11*
X15213881Y-27172849D02*
X15232929Y-27172849D01*
X15232929Y-27172849D02*
X15251976Y-27182372D01*
X15251976Y-27182372D02*
X15261500Y-27191896D01*
X15261500Y-27191896D02*
X15271024Y-27210944D01*
X15271024Y-27210944D02*
X15280548Y-27249039D01*
X15280548Y-27249039D02*
X15280548Y-27296658D01*
X15280548Y-27296658D02*
X15271024Y-27334753D01*
X15271024Y-27334753D02*
X15261500Y-27353801D01*
X15261500Y-27353801D02*
X15251976Y-27363325D01*
X15251976Y-27363325D02*
X15232929Y-27372849D01*
X15232929Y-27372849D02*
X15213881Y-27372849D01*
X15213881Y-27372849D02*
X15194833Y-27363325D01*
X15194833Y-27363325D02*
X15185309Y-27353801D01*
X15185309Y-27353801D02*
X15175786Y-27334753D01*
X15175786Y-27334753D02*
X15166262Y-27296658D01*
X15166262Y-27296658D02*
X15166262Y-27249039D01*
X15166262Y-27249039D02*
X15175786Y-27210944D01*
X15175786Y-27210944D02*
X15185309Y-27191896D01*
X15185309Y-27191896D02*
X15194833Y-27182372D01*
X15194833Y-27182372D02*
X15213881Y-27172849D01*
X15366262Y-27353801D02*
X15375786Y-27363325D01*
X15375786Y-27363325D02*
X15366262Y-27372849D01*
X15366262Y-27372849D02*
X15356738Y-27363325D01*
X15356738Y-27363325D02*
X15366262Y-27353801D01*
X15366262Y-27353801D02*
X15366262Y-27372849D01*
X15547214Y-27239515D02*
X15547214Y-27372849D01*
X15499595Y-27163325D02*
X15451976Y-27306182D01*
X15451976Y-27306182D02*
X15575786Y-27306182D01*
X15690071Y-27172849D02*
X15709119Y-27172849D01*
X15709119Y-27172849D02*
X15728167Y-27182372D01*
X15728167Y-27182372D02*
X15737690Y-27191896D01*
X15737690Y-27191896D02*
X15747214Y-27210944D01*
X15747214Y-27210944D02*
X15756738Y-27249039D01*
X15756738Y-27249039D02*
X15756738Y-27296658D01*
X15756738Y-27296658D02*
X15747214Y-27334753D01*
X15747214Y-27334753D02*
X15737690Y-27353801D01*
X15737690Y-27353801D02*
X15728167Y-27363325D01*
X15728167Y-27363325D02*
X15709119Y-27372849D01*
X15709119Y-27372849D02*
X15690071Y-27372849D01*
X15690071Y-27372849D02*
X15671024Y-27363325D01*
X15671024Y-27363325D02*
X15661500Y-27353801D01*
X15661500Y-27353801D02*
X15651976Y-27334753D01*
X15651976Y-27334753D02*
X15642452Y-27296658D01*
X15642452Y-27296658D02*
X15642452Y-27249039D01*
X15642452Y-27249039D02*
X15651976Y-27210944D01*
X15651976Y-27210944D02*
X15661500Y-27191896D01*
X15661500Y-27191896D02*
X15671024Y-27182372D01*
X15671024Y-27182372D02*
X15690071Y-27172849D01*
X15880548Y-27172849D02*
X15899595Y-27172849D01*
X15899595Y-27172849D02*
X15918643Y-27182372D01*
X15918643Y-27182372D02*
X15928167Y-27191896D01*
X15928167Y-27191896D02*
X15937690Y-27210944D01*
X15937690Y-27210944D02*
X15947214Y-27249039D01*
X15947214Y-27249039D02*
X15947214Y-27296658D01*
X15947214Y-27296658D02*
X15937690Y-27334753D01*
X15937690Y-27334753D02*
X15928167Y-27353801D01*
X15928167Y-27353801D02*
X15918643Y-27363325D01*
X15918643Y-27363325D02*
X15899595Y-27372849D01*
X15899595Y-27372849D02*
X15880548Y-27372849D01*
X15880548Y-27372849D02*
X15861500Y-27363325D01*
X15861500Y-27363325D02*
X15851976Y-27353801D01*
X15851976Y-27353801D02*
X15842452Y-27334753D01*
X15842452Y-27334753D02*
X15832929Y-27296658D01*
X15832929Y-27296658D02*
X15832929Y-27249039D01*
X15832929Y-27249039D02*
X15842452Y-27210944D01*
X15842452Y-27210944D02*
X15851976Y-27191896D01*
X15851976Y-27191896D02*
X15861500Y-27182372D01*
X15861500Y-27182372D02*
X15880548Y-27172849D01*
X16032929Y-27372849D02*
X16032929Y-27239515D01*
X16032929Y-27258563D02*
X16042452Y-27249039D01*
X16042452Y-27249039D02*
X16061500Y-27239515D01*
X16061500Y-27239515D02*
X16090071Y-27239515D01*
X16090071Y-27239515D02*
X16109119Y-27249039D01*
X16109119Y-27249039D02*
X16118643Y-27268087D01*
X16118643Y-27268087D02*
X16118643Y-27372849D01*
X16118643Y-27268087D02*
X16128167Y-27249039D01*
X16128167Y-27249039D02*
X16147214Y-27239515D01*
X16147214Y-27239515D02*
X16175786Y-27239515D01*
X16175786Y-27239515D02*
X16194833Y-27249039D01*
X16194833Y-27249039D02*
X16204357Y-27268087D01*
X16204357Y-27268087D02*
X16204357Y-27372849D01*
X16299595Y-27372849D02*
X16299595Y-27239515D01*
X16299595Y-27258563D02*
X16309119Y-27249039D01*
X16309119Y-27249039D02*
X16328167Y-27239515D01*
X16328167Y-27239515D02*
X16356738Y-27239515D01*
X16356738Y-27239515D02*
X16375786Y-27249039D01*
X16375786Y-27249039D02*
X16385310Y-27268087D01*
X16385310Y-27268087D02*
X16385310Y-27372849D01*
X16385310Y-27268087D02*
X16394833Y-27249039D01*
X16394833Y-27249039D02*
X16413881Y-27239515D01*
X16413881Y-27239515D02*
X16442452Y-27239515D01*
X16442452Y-27239515D02*
X16461500Y-27249039D01*
X16461500Y-27249039D02*
X16471024Y-27268087D01*
X16471024Y-27268087D02*
X16471024Y-27372849D01*
X16861500Y-27163325D02*
X16690072Y-27420468D01*
X17118643Y-27172849D02*
X17137691Y-27172849D01*
X17137691Y-27172849D02*
X17156738Y-27182372D01*
X17156738Y-27182372D02*
X17166262Y-27191896D01*
X17166262Y-27191896D02*
X17175786Y-27210944D01*
X17175786Y-27210944D02*
X17185310Y-27249039D01*
X17185310Y-27249039D02*
X17185310Y-27296658D01*
X17185310Y-27296658D02*
X17175786Y-27334753D01*
X17175786Y-27334753D02*
X17166262Y-27353801D01*
X17166262Y-27353801D02*
X17156738Y-27363325D01*
X17156738Y-27363325D02*
X17137691Y-27372849D01*
X17137691Y-27372849D02*
X17118643Y-27372849D01*
X17118643Y-27372849D02*
X17099595Y-27363325D01*
X17099595Y-27363325D02*
X17090072Y-27353801D01*
X17090072Y-27353801D02*
X17080548Y-27334753D01*
X17080548Y-27334753D02*
X17071024Y-27296658D01*
X17071024Y-27296658D02*
X17071024Y-27249039D01*
X17071024Y-27249039D02*
X17080548Y-27210944D01*
X17080548Y-27210944D02*
X17090072Y-27191896D01*
X17090072Y-27191896D02*
X17099595Y-27182372D01*
X17099595Y-27182372D02*
X17118643Y-27172849D01*
X17271024Y-27353801D02*
X17280548Y-27363325D01*
X17280548Y-27363325D02*
X17271024Y-27372849D01*
X17271024Y-27372849D02*
X17261500Y-27363325D01*
X17261500Y-27363325D02*
X17271024Y-27353801D01*
X17271024Y-27353801D02*
X17271024Y-27372849D01*
X17404357Y-27172849D02*
X17423405Y-27172849D01*
X17423405Y-27172849D02*
X17442453Y-27182372D01*
X17442453Y-27182372D02*
X17451976Y-27191896D01*
X17451976Y-27191896D02*
X17461500Y-27210944D01*
X17461500Y-27210944D02*
X17471024Y-27249039D01*
X17471024Y-27249039D02*
X17471024Y-27296658D01*
X17471024Y-27296658D02*
X17461500Y-27334753D01*
X17461500Y-27334753D02*
X17451976Y-27353801D01*
X17451976Y-27353801D02*
X17442453Y-27363325D01*
X17442453Y-27363325D02*
X17423405Y-27372849D01*
X17423405Y-27372849D02*
X17404357Y-27372849D01*
X17404357Y-27372849D02*
X17385310Y-27363325D01*
X17385310Y-27363325D02*
X17375786Y-27353801D01*
X17375786Y-27353801D02*
X17366262Y-27334753D01*
X17366262Y-27334753D02*
X17356738Y-27296658D01*
X17356738Y-27296658D02*
X17356738Y-27249039D01*
X17356738Y-27249039D02*
X17366262Y-27210944D01*
X17366262Y-27210944D02*
X17375786Y-27191896D01*
X17375786Y-27191896D02*
X17385310Y-27182372D01*
X17385310Y-27182372D02*
X17404357Y-27172849D01*
X17661500Y-27372849D02*
X17547215Y-27372849D01*
X17604357Y-27372849D02*
X17604357Y-27172849D01*
X17604357Y-27172849D02*
X17585310Y-27201420D01*
X17585310Y-27201420D02*
X17566262Y-27220468D01*
X17566262Y-27220468D02*
X17547215Y-27229991D01*
X17842453Y-27172849D02*
X17747215Y-27172849D01*
X17747215Y-27172849D02*
X17737691Y-27268087D01*
X17737691Y-27268087D02*
X17747215Y-27258563D01*
X17747215Y-27258563D02*
X17766262Y-27249039D01*
X17766262Y-27249039D02*
X17813881Y-27249039D01*
X17813881Y-27249039D02*
X17832929Y-27258563D01*
X17832929Y-27258563D02*
X17842453Y-27268087D01*
X17842453Y-27268087D02*
X17851976Y-27287134D01*
X17851976Y-27287134D02*
X17851976Y-27334753D01*
X17851976Y-27334753D02*
X17842453Y-27353801D01*
X17842453Y-27353801D02*
X17832929Y-27363325D01*
X17832929Y-27363325D02*
X17813881Y-27372849D01*
X17813881Y-27372849D02*
X17766262Y-27372849D01*
X17766262Y-27372849D02*
X17747215Y-27363325D01*
X17747215Y-27363325D02*
X17737691Y-27353801D01*
X17918643Y-27172849D02*
X18051976Y-27172849D01*
X18051976Y-27172849D02*
X17966262Y-27372849D01*
X18118643Y-27172849D02*
X18118643Y-27210944D01*
X18194834Y-27172849D02*
X18194834Y-27210944D01*
X18490072Y-27449039D02*
X18480548Y-27439515D01*
X18480548Y-27439515D02*
X18461500Y-27410944D01*
X18461500Y-27410944D02*
X18451977Y-27391896D01*
X18451977Y-27391896D02*
X18442453Y-27363325D01*
X18442453Y-27363325D02*
X18432929Y-27315706D01*
X18432929Y-27315706D02*
X18432929Y-27277611D01*
X18432929Y-27277611D02*
X18442453Y-27229991D01*
X18442453Y-27229991D02*
X18451977Y-27201420D01*
X18451977Y-27201420D02*
X18461500Y-27182372D01*
X18461500Y-27182372D02*
X18480548Y-27153801D01*
X18480548Y-27153801D02*
X18490072Y-27144277D01*
X18556738Y-27191896D02*
X18566262Y-27182372D01*
X18566262Y-27182372D02*
X18585310Y-27172849D01*
X18585310Y-27172849D02*
X18632929Y-27172849D01*
X18632929Y-27172849D02*
X18651977Y-27182372D01*
X18651977Y-27182372D02*
X18661500Y-27191896D01*
X18661500Y-27191896D02*
X18671024Y-27210944D01*
X18671024Y-27210944D02*
X18671024Y-27229991D01*
X18671024Y-27229991D02*
X18661500Y-27258563D01*
X18661500Y-27258563D02*
X18547215Y-27372849D01*
X18547215Y-27372849D02*
X18671024Y-27372849D01*
X18861500Y-27372849D02*
X18747215Y-27372849D01*
X18804357Y-27372849D02*
X18804357Y-27172849D01*
X18804357Y-27172849D02*
X18785310Y-27201420D01*
X18785310Y-27201420D02*
X18766262Y-27220468D01*
X18766262Y-27220468D02*
X18747215Y-27229991D01*
X19099596Y-27372849D02*
X19099596Y-27172849D01*
X19185310Y-27372849D02*
X19185310Y-27268087D01*
X19185310Y-27268087D02*
X19175786Y-27249039D01*
X19175786Y-27249039D02*
X19156739Y-27239515D01*
X19156739Y-27239515D02*
X19128167Y-27239515D01*
X19128167Y-27239515D02*
X19109119Y-27249039D01*
X19109119Y-27249039D02*
X19099596Y-27258563D01*
X19309119Y-27372849D02*
X19290072Y-27363325D01*
X19290072Y-27363325D02*
X19280548Y-27353801D01*
X19280548Y-27353801D02*
X19271024Y-27334753D01*
X19271024Y-27334753D02*
X19271024Y-27277611D01*
X19271024Y-27277611D02*
X19280548Y-27258563D01*
X19280548Y-27258563D02*
X19290072Y-27249039D01*
X19290072Y-27249039D02*
X19309119Y-27239515D01*
X19309119Y-27239515D02*
X19337691Y-27239515D01*
X19337691Y-27239515D02*
X19356739Y-27249039D01*
X19356739Y-27249039D02*
X19366262Y-27258563D01*
X19366262Y-27258563D02*
X19375786Y-27277611D01*
X19375786Y-27277611D02*
X19375786Y-27334753D01*
X19375786Y-27334753D02*
X19366262Y-27353801D01*
X19366262Y-27353801D02*
X19356739Y-27363325D01*
X19356739Y-27363325D02*
X19337691Y-27372849D01*
X19337691Y-27372849D02*
X19309119Y-27372849D01*
X19490072Y-27372849D02*
X19471024Y-27363325D01*
X19471024Y-27363325D02*
X19461500Y-27344277D01*
X19461500Y-27344277D02*
X19461500Y-27172849D01*
X19642453Y-27363325D02*
X19623405Y-27372849D01*
X19623405Y-27372849D02*
X19585310Y-27372849D01*
X19585310Y-27372849D02*
X19566262Y-27363325D01*
X19566262Y-27363325D02*
X19556739Y-27344277D01*
X19556739Y-27344277D02*
X19556739Y-27268087D01*
X19556739Y-27268087D02*
X19566262Y-27249039D01*
X19566262Y-27249039D02*
X19585310Y-27239515D01*
X19585310Y-27239515D02*
X19623405Y-27239515D01*
X19623405Y-27239515D02*
X19642453Y-27249039D01*
X19642453Y-27249039D02*
X19651977Y-27268087D01*
X19651977Y-27268087D02*
X19651977Y-27287134D01*
X19651977Y-27287134D02*
X19556739Y-27306182D01*
X19728167Y-27363325D02*
X19747215Y-27372849D01*
X19747215Y-27372849D02*
X19785310Y-27372849D01*
X19785310Y-27372849D02*
X19804358Y-27363325D01*
X19804358Y-27363325D02*
X19813881Y-27344277D01*
X19813881Y-27344277D02*
X19813881Y-27334753D01*
X19813881Y-27334753D02*
X19804358Y-27315706D01*
X19804358Y-27315706D02*
X19785310Y-27306182D01*
X19785310Y-27306182D02*
X19756739Y-27306182D01*
X19756739Y-27306182D02*
X19737691Y-27296658D01*
X19737691Y-27296658D02*
X19728167Y-27277611D01*
X19728167Y-27277611D02*
X19728167Y-27268087D01*
X19728167Y-27268087D02*
X19737691Y-27249039D01*
X19737691Y-27249039D02*
X19756739Y-27239515D01*
X19756739Y-27239515D02*
X19785310Y-27239515D01*
X19785310Y-27239515D02*
X19804358Y-27249039D01*
X19880548Y-27449039D02*
X19890072Y-27439515D01*
X19890072Y-27439515D02*
X19909120Y-27410944D01*
X19909120Y-27410944D02*
X19918643Y-27391896D01*
X19918643Y-27391896D02*
X19928167Y-27363325D01*
X19928167Y-27363325D02*
X19937691Y-27315706D01*
X19937691Y-27315706D02*
X19937691Y-27277611D01*
X19937691Y-27277611D02*
X19928167Y-27229991D01*
X19928167Y-27229991D02*
X19918643Y-27201420D01*
X19918643Y-27201420D02*
X19909120Y-27182372D01*
X19909120Y-27182372D02*
X19890072Y-27153801D01*
X19890072Y-27153801D02*
X19880548Y-27144277D01*
D13*
X14915009Y-27545365D02*
G75*
G03*
X14915009Y-27545365I-35000J0D01*
G01*
D11*
X15213881Y-27436849D02*
X15232929Y-27436849D01*
X15232929Y-27436849D02*
X15251976Y-27446372D01*
X15251976Y-27446372D02*
X15261500Y-27455896D01*
X15261500Y-27455896D02*
X15271024Y-27474944D01*
X15271024Y-27474944D02*
X15280548Y-27513039D01*
X15280548Y-27513039D02*
X15280548Y-27560658D01*
X15280548Y-27560658D02*
X15271024Y-27598753D01*
X15271024Y-27598753D02*
X15261500Y-27617801D01*
X15261500Y-27617801D02*
X15251976Y-27627325D01*
X15251976Y-27627325D02*
X15232929Y-27636849D01*
X15232929Y-27636849D02*
X15213881Y-27636849D01*
X15213881Y-27636849D02*
X15194833Y-27627325D01*
X15194833Y-27627325D02*
X15185309Y-27617801D01*
X15185309Y-27617801D02*
X15175786Y-27598753D01*
X15175786Y-27598753D02*
X15166262Y-27560658D01*
X15166262Y-27560658D02*
X15166262Y-27513039D01*
X15166262Y-27513039D02*
X15175786Y-27474944D01*
X15175786Y-27474944D02*
X15185309Y-27455896D01*
X15185309Y-27455896D02*
X15194833Y-27446372D01*
X15194833Y-27446372D02*
X15213881Y-27436849D01*
X15366262Y-27617801D02*
X15375786Y-27627325D01*
X15375786Y-27627325D02*
X15366262Y-27636849D01*
X15366262Y-27636849D02*
X15356738Y-27627325D01*
X15356738Y-27627325D02*
X15366262Y-27617801D01*
X15366262Y-27617801D02*
X15366262Y-27636849D01*
X15442452Y-27436849D02*
X15575786Y-27436849D01*
X15575786Y-27436849D02*
X15490071Y-27636849D01*
X15690071Y-27436849D02*
X15709119Y-27436849D01*
X15709119Y-27436849D02*
X15728167Y-27446372D01*
X15728167Y-27446372D02*
X15737690Y-27455896D01*
X15737690Y-27455896D02*
X15747214Y-27474944D01*
X15747214Y-27474944D02*
X15756738Y-27513039D01*
X15756738Y-27513039D02*
X15756738Y-27560658D01*
X15756738Y-27560658D02*
X15747214Y-27598753D01*
X15747214Y-27598753D02*
X15737690Y-27617801D01*
X15737690Y-27617801D02*
X15728167Y-27627325D01*
X15728167Y-27627325D02*
X15709119Y-27636849D01*
X15709119Y-27636849D02*
X15690071Y-27636849D01*
X15690071Y-27636849D02*
X15671024Y-27627325D01*
X15671024Y-27627325D02*
X15661500Y-27617801D01*
X15661500Y-27617801D02*
X15651976Y-27598753D01*
X15651976Y-27598753D02*
X15642452Y-27560658D01*
X15642452Y-27560658D02*
X15642452Y-27513039D01*
X15642452Y-27513039D02*
X15651976Y-27474944D01*
X15651976Y-27474944D02*
X15661500Y-27455896D01*
X15661500Y-27455896D02*
X15671024Y-27446372D01*
X15671024Y-27446372D02*
X15690071Y-27436849D01*
X15880548Y-27436849D02*
X15899595Y-27436849D01*
X15899595Y-27436849D02*
X15918643Y-27446372D01*
X15918643Y-27446372D02*
X15928167Y-27455896D01*
X15928167Y-27455896D02*
X15937690Y-27474944D01*
X15937690Y-27474944D02*
X15947214Y-27513039D01*
X15947214Y-27513039D02*
X15947214Y-27560658D01*
X15947214Y-27560658D02*
X15937690Y-27598753D01*
X15937690Y-27598753D02*
X15928167Y-27617801D01*
X15928167Y-27617801D02*
X15918643Y-27627325D01*
X15918643Y-27627325D02*
X15899595Y-27636849D01*
X15899595Y-27636849D02*
X15880548Y-27636849D01*
X15880548Y-27636849D02*
X15861500Y-27627325D01*
X15861500Y-27627325D02*
X15851976Y-27617801D01*
X15851976Y-27617801D02*
X15842452Y-27598753D01*
X15842452Y-27598753D02*
X15832929Y-27560658D01*
X15832929Y-27560658D02*
X15832929Y-27513039D01*
X15832929Y-27513039D02*
X15842452Y-27474944D01*
X15842452Y-27474944D02*
X15851976Y-27455896D01*
X15851976Y-27455896D02*
X15861500Y-27446372D01*
X15861500Y-27446372D02*
X15880548Y-27436849D01*
X16032929Y-27636849D02*
X16032929Y-27503515D01*
X16032929Y-27522563D02*
X16042452Y-27513039D01*
X16042452Y-27513039D02*
X16061500Y-27503515D01*
X16061500Y-27503515D02*
X16090071Y-27503515D01*
X16090071Y-27503515D02*
X16109119Y-27513039D01*
X16109119Y-27513039D02*
X16118643Y-27532087D01*
X16118643Y-27532087D02*
X16118643Y-27636849D01*
X16118643Y-27532087D02*
X16128167Y-27513039D01*
X16128167Y-27513039D02*
X16147214Y-27503515D01*
X16147214Y-27503515D02*
X16175786Y-27503515D01*
X16175786Y-27503515D02*
X16194833Y-27513039D01*
X16194833Y-27513039D02*
X16204357Y-27532087D01*
X16204357Y-27532087D02*
X16204357Y-27636849D01*
X16299595Y-27636849D02*
X16299595Y-27503515D01*
X16299595Y-27522563D02*
X16309119Y-27513039D01*
X16309119Y-27513039D02*
X16328167Y-27503515D01*
X16328167Y-27503515D02*
X16356738Y-27503515D01*
X16356738Y-27503515D02*
X16375786Y-27513039D01*
X16375786Y-27513039D02*
X16385310Y-27532087D01*
X16385310Y-27532087D02*
X16385310Y-27636849D01*
X16385310Y-27532087D02*
X16394833Y-27513039D01*
X16394833Y-27513039D02*
X16413881Y-27503515D01*
X16413881Y-27503515D02*
X16442452Y-27503515D01*
X16442452Y-27503515D02*
X16461500Y-27513039D01*
X16461500Y-27513039D02*
X16471024Y-27532087D01*
X16471024Y-27532087D02*
X16471024Y-27636849D01*
X16861500Y-27427325D02*
X16690072Y-27684468D01*
X17118643Y-27436849D02*
X17137691Y-27436849D01*
X17137691Y-27436849D02*
X17156738Y-27446372D01*
X17156738Y-27446372D02*
X17166262Y-27455896D01*
X17166262Y-27455896D02*
X17175786Y-27474944D01*
X17175786Y-27474944D02*
X17185310Y-27513039D01*
X17185310Y-27513039D02*
X17185310Y-27560658D01*
X17185310Y-27560658D02*
X17175786Y-27598753D01*
X17175786Y-27598753D02*
X17166262Y-27617801D01*
X17166262Y-27617801D02*
X17156738Y-27627325D01*
X17156738Y-27627325D02*
X17137691Y-27636849D01*
X17137691Y-27636849D02*
X17118643Y-27636849D01*
X17118643Y-27636849D02*
X17099595Y-27627325D01*
X17099595Y-27627325D02*
X17090072Y-27617801D01*
X17090072Y-27617801D02*
X17080548Y-27598753D01*
X17080548Y-27598753D02*
X17071024Y-27560658D01*
X17071024Y-27560658D02*
X17071024Y-27513039D01*
X17071024Y-27513039D02*
X17080548Y-27474944D01*
X17080548Y-27474944D02*
X17090072Y-27455896D01*
X17090072Y-27455896D02*
X17099595Y-27446372D01*
X17099595Y-27446372D02*
X17118643Y-27436849D01*
X17271024Y-27617801D02*
X17280548Y-27627325D01*
X17280548Y-27627325D02*
X17271024Y-27636849D01*
X17271024Y-27636849D02*
X17261500Y-27627325D01*
X17261500Y-27627325D02*
X17271024Y-27617801D01*
X17271024Y-27617801D02*
X17271024Y-27636849D01*
X17404357Y-27436849D02*
X17423405Y-27436849D01*
X17423405Y-27436849D02*
X17442453Y-27446372D01*
X17442453Y-27446372D02*
X17451976Y-27455896D01*
X17451976Y-27455896D02*
X17461500Y-27474944D01*
X17461500Y-27474944D02*
X17471024Y-27513039D01*
X17471024Y-27513039D02*
X17471024Y-27560658D01*
X17471024Y-27560658D02*
X17461500Y-27598753D01*
X17461500Y-27598753D02*
X17451976Y-27617801D01*
X17451976Y-27617801D02*
X17442453Y-27627325D01*
X17442453Y-27627325D02*
X17423405Y-27636849D01*
X17423405Y-27636849D02*
X17404357Y-27636849D01*
X17404357Y-27636849D02*
X17385310Y-27627325D01*
X17385310Y-27627325D02*
X17375786Y-27617801D01*
X17375786Y-27617801D02*
X17366262Y-27598753D01*
X17366262Y-27598753D02*
X17356738Y-27560658D01*
X17356738Y-27560658D02*
X17356738Y-27513039D01*
X17356738Y-27513039D02*
X17366262Y-27474944D01*
X17366262Y-27474944D02*
X17375786Y-27455896D01*
X17375786Y-27455896D02*
X17385310Y-27446372D01*
X17385310Y-27446372D02*
X17404357Y-27436849D01*
X17547215Y-27455896D02*
X17556738Y-27446372D01*
X17556738Y-27446372D02*
X17575786Y-27436849D01*
X17575786Y-27436849D02*
X17623405Y-27436849D01*
X17623405Y-27436849D02*
X17642453Y-27446372D01*
X17642453Y-27446372D02*
X17651976Y-27455896D01*
X17651976Y-27455896D02*
X17661500Y-27474944D01*
X17661500Y-27474944D02*
X17661500Y-27493991D01*
X17661500Y-27493991D02*
X17651976Y-27522563D01*
X17651976Y-27522563D02*
X17537691Y-27636849D01*
X17537691Y-27636849D02*
X17661500Y-27636849D01*
X17728167Y-27436849D02*
X17861500Y-27436849D01*
X17861500Y-27436849D02*
X17775786Y-27636849D01*
X18023405Y-27436849D02*
X17985310Y-27436849D01*
X17985310Y-27436849D02*
X17966262Y-27446372D01*
X17966262Y-27446372D02*
X17956738Y-27455896D01*
X17956738Y-27455896D02*
X17937691Y-27484468D01*
X17937691Y-27484468D02*
X17928167Y-27522563D01*
X17928167Y-27522563D02*
X17928167Y-27598753D01*
X17928167Y-27598753D02*
X17937691Y-27617801D01*
X17937691Y-27617801D02*
X17947215Y-27627325D01*
X17947215Y-27627325D02*
X17966262Y-27636849D01*
X17966262Y-27636849D02*
X18004357Y-27636849D01*
X18004357Y-27636849D02*
X18023405Y-27627325D01*
X18023405Y-27627325D02*
X18032929Y-27617801D01*
X18032929Y-27617801D02*
X18042453Y-27598753D01*
X18042453Y-27598753D02*
X18042453Y-27551134D01*
X18042453Y-27551134D02*
X18032929Y-27532087D01*
X18032929Y-27532087D02*
X18023405Y-27522563D01*
X18023405Y-27522563D02*
X18004357Y-27513039D01*
X18004357Y-27513039D02*
X17966262Y-27513039D01*
X17966262Y-27513039D02*
X17947215Y-27522563D01*
X17947215Y-27522563D02*
X17937691Y-27532087D01*
X17937691Y-27532087D02*
X17928167Y-27551134D01*
X18118643Y-27436849D02*
X18118643Y-27474944D01*
X18194834Y-27436849D02*
X18194834Y-27474944D01*
X18490072Y-27713039D02*
X18480548Y-27703515D01*
X18480548Y-27703515D02*
X18461500Y-27674944D01*
X18461500Y-27674944D02*
X18451977Y-27655896D01*
X18451977Y-27655896D02*
X18442453Y-27627325D01*
X18442453Y-27627325D02*
X18432929Y-27579706D01*
X18432929Y-27579706D02*
X18432929Y-27541611D01*
X18432929Y-27541611D02*
X18442453Y-27493991D01*
X18442453Y-27493991D02*
X18451977Y-27465420D01*
X18451977Y-27465420D02*
X18461500Y-27446372D01*
X18461500Y-27446372D02*
X18480548Y-27417801D01*
X18480548Y-27417801D02*
X18490072Y-27408277D01*
X18671024Y-27636849D02*
X18556738Y-27636849D01*
X18613881Y-27636849D02*
X18613881Y-27436849D01*
X18613881Y-27436849D02*
X18594834Y-27465420D01*
X18594834Y-27465420D02*
X18575786Y-27484468D01*
X18575786Y-27484468D02*
X18556738Y-27493991D01*
X18747215Y-27455896D02*
X18756738Y-27446372D01*
X18756738Y-27446372D02*
X18775786Y-27436849D01*
X18775786Y-27436849D02*
X18823405Y-27436849D01*
X18823405Y-27436849D02*
X18842453Y-27446372D01*
X18842453Y-27446372D02*
X18851977Y-27455896D01*
X18851977Y-27455896D02*
X18861500Y-27474944D01*
X18861500Y-27474944D02*
X18861500Y-27493991D01*
X18861500Y-27493991D02*
X18851977Y-27522563D01*
X18851977Y-27522563D02*
X18737691Y-27636849D01*
X18737691Y-27636849D02*
X18861500Y-27636849D01*
X19032929Y-27503515D02*
X19032929Y-27636849D01*
X18985310Y-27427325D02*
X18937691Y-27570182D01*
X18937691Y-27570182D02*
X19061500Y-27570182D01*
X19290072Y-27636849D02*
X19290072Y-27436849D01*
X19375786Y-27636849D02*
X19375786Y-27532087D01*
X19375786Y-27532087D02*
X19366262Y-27513039D01*
X19366262Y-27513039D02*
X19347215Y-27503515D01*
X19347215Y-27503515D02*
X19318643Y-27503515D01*
X19318643Y-27503515D02*
X19299596Y-27513039D01*
X19299596Y-27513039D02*
X19290072Y-27522563D01*
X19499596Y-27636849D02*
X19480548Y-27627325D01*
X19480548Y-27627325D02*
X19471024Y-27617801D01*
X19471024Y-27617801D02*
X19461500Y-27598753D01*
X19461500Y-27598753D02*
X19461500Y-27541611D01*
X19461500Y-27541611D02*
X19471024Y-27522563D01*
X19471024Y-27522563D02*
X19480548Y-27513039D01*
X19480548Y-27513039D02*
X19499596Y-27503515D01*
X19499596Y-27503515D02*
X19528167Y-27503515D01*
X19528167Y-27503515D02*
X19547215Y-27513039D01*
X19547215Y-27513039D02*
X19556739Y-27522563D01*
X19556739Y-27522563D02*
X19566262Y-27541611D01*
X19566262Y-27541611D02*
X19566262Y-27598753D01*
X19566262Y-27598753D02*
X19556739Y-27617801D01*
X19556739Y-27617801D02*
X19547215Y-27627325D01*
X19547215Y-27627325D02*
X19528167Y-27636849D01*
X19528167Y-27636849D02*
X19499596Y-27636849D01*
X19680548Y-27636849D02*
X19661500Y-27627325D01*
X19661500Y-27627325D02*
X19651977Y-27608277D01*
X19651977Y-27608277D02*
X19651977Y-27436849D01*
X19832929Y-27627325D02*
X19813881Y-27636849D01*
X19813881Y-27636849D02*
X19775786Y-27636849D01*
X19775786Y-27636849D02*
X19756739Y-27627325D01*
X19756739Y-27627325D02*
X19747215Y-27608277D01*
X19747215Y-27608277D02*
X19747215Y-27532087D01*
X19747215Y-27532087D02*
X19756739Y-27513039D01*
X19756739Y-27513039D02*
X19775786Y-27503515D01*
X19775786Y-27503515D02*
X19813881Y-27503515D01*
X19813881Y-27503515D02*
X19832929Y-27513039D01*
X19832929Y-27513039D02*
X19842453Y-27532087D01*
X19842453Y-27532087D02*
X19842453Y-27551134D01*
X19842453Y-27551134D02*
X19747215Y-27570182D01*
X19918643Y-27627325D02*
X19937691Y-27636849D01*
X19937691Y-27636849D02*
X19975786Y-27636849D01*
X19975786Y-27636849D02*
X19994834Y-27627325D01*
X19994834Y-27627325D02*
X20004358Y-27608277D01*
X20004358Y-27608277D02*
X20004358Y-27598753D01*
X20004358Y-27598753D02*
X19994834Y-27579706D01*
X19994834Y-27579706D02*
X19975786Y-27570182D01*
X19975786Y-27570182D02*
X19947215Y-27570182D01*
X19947215Y-27570182D02*
X19928167Y-27560658D01*
X19928167Y-27560658D02*
X19918643Y-27541611D01*
X19918643Y-27541611D02*
X19918643Y-27532087D01*
X19918643Y-27532087D02*
X19928167Y-27513039D01*
X19928167Y-27513039D02*
X19947215Y-27503515D01*
X19947215Y-27503515D02*
X19975786Y-27503515D01*
X19975786Y-27503515D02*
X19994834Y-27513039D01*
X20071024Y-27713039D02*
X20080548Y-27703515D01*
X20080548Y-27703515D02*
X20099596Y-27674944D01*
X20099596Y-27674944D02*
X20109120Y-27655896D01*
X20109120Y-27655896D02*
X20118643Y-27627325D01*
X20118643Y-27627325D02*
X20128167Y-27579706D01*
X20128167Y-27579706D02*
X20128167Y-27541611D01*
X20128167Y-27541611D02*
X20118643Y-27493991D01*
X20118643Y-27493991D02*
X20109120Y-27465420D01*
X20109120Y-27465420D02*
X20099596Y-27446372D01*
X20099596Y-27446372D02*
X20080548Y-27417801D01*
X20080548Y-27417801D02*
X20071024Y-27408277D01*
D14*
X14870559Y-27764915D02*
X14870559Y-27853815D01*
X14826109Y-27809365D02*
X14915009Y-27809365D01*
D11*
X15213881Y-27700849D02*
X15232929Y-27700849D01*
X15232929Y-27700849D02*
X15251976Y-27710372D01*
X15251976Y-27710372D02*
X15261500Y-27719896D01*
X15261500Y-27719896D02*
X15271024Y-27738944D01*
X15271024Y-27738944D02*
X15280548Y-27777039D01*
X15280548Y-27777039D02*
X15280548Y-27824658D01*
X15280548Y-27824658D02*
X15271024Y-27862753D01*
X15271024Y-27862753D02*
X15261500Y-27881801D01*
X15261500Y-27881801D02*
X15251976Y-27891325D01*
X15251976Y-27891325D02*
X15232929Y-27900849D01*
X15232929Y-27900849D02*
X15213881Y-27900849D01*
X15213881Y-27900849D02*
X15194833Y-27891325D01*
X15194833Y-27891325D02*
X15185309Y-27881801D01*
X15185309Y-27881801D02*
X15175786Y-27862753D01*
X15175786Y-27862753D02*
X15166262Y-27824658D01*
X15166262Y-27824658D02*
X15166262Y-27777039D01*
X15166262Y-27777039D02*
X15175786Y-27738944D01*
X15175786Y-27738944D02*
X15185309Y-27719896D01*
X15185309Y-27719896D02*
X15194833Y-27710372D01*
X15194833Y-27710372D02*
X15213881Y-27700849D01*
X15366262Y-27881801D02*
X15375786Y-27891325D01*
X15375786Y-27891325D02*
X15366262Y-27900849D01*
X15366262Y-27900849D02*
X15356738Y-27891325D01*
X15356738Y-27891325D02*
X15366262Y-27881801D01*
X15366262Y-27881801D02*
X15366262Y-27900849D01*
X15490071Y-27786563D02*
X15471024Y-27777039D01*
X15471024Y-27777039D02*
X15461500Y-27767515D01*
X15461500Y-27767515D02*
X15451976Y-27748468D01*
X15451976Y-27748468D02*
X15451976Y-27738944D01*
X15451976Y-27738944D02*
X15461500Y-27719896D01*
X15461500Y-27719896D02*
X15471024Y-27710372D01*
X15471024Y-27710372D02*
X15490071Y-27700849D01*
X15490071Y-27700849D02*
X15528167Y-27700849D01*
X15528167Y-27700849D02*
X15547214Y-27710372D01*
X15547214Y-27710372D02*
X15556738Y-27719896D01*
X15556738Y-27719896D02*
X15566262Y-27738944D01*
X15566262Y-27738944D02*
X15566262Y-27748468D01*
X15566262Y-27748468D02*
X15556738Y-27767515D01*
X15556738Y-27767515D02*
X15547214Y-27777039D01*
X15547214Y-27777039D02*
X15528167Y-27786563D01*
X15528167Y-27786563D02*
X15490071Y-27786563D01*
X15490071Y-27786563D02*
X15471024Y-27796087D01*
X15471024Y-27796087D02*
X15461500Y-27805611D01*
X15461500Y-27805611D02*
X15451976Y-27824658D01*
X15451976Y-27824658D02*
X15451976Y-27862753D01*
X15451976Y-27862753D02*
X15461500Y-27881801D01*
X15461500Y-27881801D02*
X15471024Y-27891325D01*
X15471024Y-27891325D02*
X15490071Y-27900849D01*
X15490071Y-27900849D02*
X15528167Y-27900849D01*
X15528167Y-27900849D02*
X15547214Y-27891325D01*
X15547214Y-27891325D02*
X15556738Y-27881801D01*
X15556738Y-27881801D02*
X15566262Y-27862753D01*
X15566262Y-27862753D02*
X15566262Y-27824658D01*
X15566262Y-27824658D02*
X15556738Y-27805611D01*
X15556738Y-27805611D02*
X15547214Y-27796087D01*
X15547214Y-27796087D02*
X15528167Y-27786563D01*
X15680548Y-27786563D02*
X15661500Y-27777039D01*
X15661500Y-27777039D02*
X15651976Y-27767515D01*
X15651976Y-27767515D02*
X15642452Y-27748468D01*
X15642452Y-27748468D02*
X15642452Y-27738944D01*
X15642452Y-27738944D02*
X15651976Y-27719896D01*
X15651976Y-27719896D02*
X15661500Y-27710372D01*
X15661500Y-27710372D02*
X15680548Y-27700849D01*
X15680548Y-27700849D02*
X15718643Y-27700849D01*
X15718643Y-27700849D02*
X15737690Y-27710372D01*
X15737690Y-27710372D02*
X15747214Y-27719896D01*
X15747214Y-27719896D02*
X15756738Y-27738944D01*
X15756738Y-27738944D02*
X15756738Y-27748468D01*
X15756738Y-27748468D02*
X15747214Y-27767515D01*
X15747214Y-27767515D02*
X15737690Y-27777039D01*
X15737690Y-27777039D02*
X15718643Y-27786563D01*
X15718643Y-27786563D02*
X15680548Y-27786563D01*
X15680548Y-27786563D02*
X15661500Y-27796087D01*
X15661500Y-27796087D02*
X15651976Y-27805611D01*
X15651976Y-27805611D02*
X15642452Y-27824658D01*
X15642452Y-27824658D02*
X15642452Y-27862753D01*
X15642452Y-27862753D02*
X15651976Y-27881801D01*
X15651976Y-27881801D02*
X15661500Y-27891325D01*
X15661500Y-27891325D02*
X15680548Y-27900849D01*
X15680548Y-27900849D02*
X15718643Y-27900849D01*
X15718643Y-27900849D02*
X15737690Y-27891325D01*
X15737690Y-27891325D02*
X15747214Y-27881801D01*
X15747214Y-27881801D02*
X15756738Y-27862753D01*
X15756738Y-27862753D02*
X15756738Y-27824658D01*
X15756738Y-27824658D02*
X15747214Y-27805611D01*
X15747214Y-27805611D02*
X15737690Y-27796087D01*
X15737690Y-27796087D02*
X15718643Y-27786563D01*
X15851976Y-27900849D02*
X15890071Y-27900849D01*
X15890071Y-27900849D02*
X15909119Y-27891325D01*
X15909119Y-27891325D02*
X15918643Y-27881801D01*
X15918643Y-27881801D02*
X15937690Y-27853230D01*
X15937690Y-27853230D02*
X15947214Y-27815134D01*
X15947214Y-27815134D02*
X15947214Y-27738944D01*
X15947214Y-27738944D02*
X15937690Y-27719896D01*
X15937690Y-27719896D02*
X15928167Y-27710372D01*
X15928167Y-27710372D02*
X15909119Y-27700849D01*
X15909119Y-27700849D02*
X15871024Y-27700849D01*
X15871024Y-27700849D02*
X15851976Y-27710372D01*
X15851976Y-27710372D02*
X15842452Y-27719896D01*
X15842452Y-27719896D02*
X15832929Y-27738944D01*
X15832929Y-27738944D02*
X15832929Y-27786563D01*
X15832929Y-27786563D02*
X15842452Y-27805611D01*
X15842452Y-27805611D02*
X15851976Y-27815134D01*
X15851976Y-27815134D02*
X15871024Y-27824658D01*
X15871024Y-27824658D02*
X15909119Y-27824658D01*
X15909119Y-27824658D02*
X15928167Y-27815134D01*
X15928167Y-27815134D02*
X15937690Y-27805611D01*
X15937690Y-27805611D02*
X15947214Y-27786563D01*
X16032929Y-27900849D02*
X16032929Y-27767515D01*
X16032929Y-27786563D02*
X16042452Y-27777039D01*
X16042452Y-27777039D02*
X16061500Y-27767515D01*
X16061500Y-27767515D02*
X16090071Y-27767515D01*
X16090071Y-27767515D02*
X16109119Y-27777039D01*
X16109119Y-27777039D02*
X16118643Y-27796087D01*
X16118643Y-27796087D02*
X16118643Y-27900849D01*
X16118643Y-27796087D02*
X16128167Y-27777039D01*
X16128167Y-27777039D02*
X16147214Y-27767515D01*
X16147214Y-27767515D02*
X16175786Y-27767515D01*
X16175786Y-27767515D02*
X16194833Y-27777039D01*
X16194833Y-27777039D02*
X16204357Y-27796087D01*
X16204357Y-27796087D02*
X16204357Y-27900849D01*
X16299595Y-27900849D02*
X16299595Y-27767515D01*
X16299595Y-27786563D02*
X16309119Y-27777039D01*
X16309119Y-27777039D02*
X16328167Y-27767515D01*
X16328167Y-27767515D02*
X16356738Y-27767515D01*
X16356738Y-27767515D02*
X16375786Y-27777039D01*
X16375786Y-27777039D02*
X16385310Y-27796087D01*
X16385310Y-27796087D02*
X16385310Y-27900849D01*
X16385310Y-27796087D02*
X16394833Y-27777039D01*
X16394833Y-27777039D02*
X16413881Y-27767515D01*
X16413881Y-27767515D02*
X16442452Y-27767515D01*
X16442452Y-27767515D02*
X16461500Y-27777039D01*
X16461500Y-27777039D02*
X16471024Y-27796087D01*
X16471024Y-27796087D02*
X16471024Y-27900849D01*
X16861500Y-27691325D02*
X16690072Y-27948468D01*
X17118643Y-27700849D02*
X17137691Y-27700849D01*
X17137691Y-27700849D02*
X17156738Y-27710372D01*
X17156738Y-27710372D02*
X17166262Y-27719896D01*
X17166262Y-27719896D02*
X17175786Y-27738944D01*
X17175786Y-27738944D02*
X17185310Y-27777039D01*
X17185310Y-27777039D02*
X17185310Y-27824658D01*
X17185310Y-27824658D02*
X17175786Y-27862753D01*
X17175786Y-27862753D02*
X17166262Y-27881801D01*
X17166262Y-27881801D02*
X17156738Y-27891325D01*
X17156738Y-27891325D02*
X17137691Y-27900849D01*
X17137691Y-27900849D02*
X17118643Y-27900849D01*
X17118643Y-27900849D02*
X17099595Y-27891325D01*
X17099595Y-27891325D02*
X17090072Y-27881801D01*
X17090072Y-27881801D02*
X17080548Y-27862753D01*
X17080548Y-27862753D02*
X17071024Y-27824658D01*
X17071024Y-27824658D02*
X17071024Y-27777039D01*
X17071024Y-27777039D02*
X17080548Y-27738944D01*
X17080548Y-27738944D02*
X17090072Y-27719896D01*
X17090072Y-27719896D02*
X17099595Y-27710372D01*
X17099595Y-27710372D02*
X17118643Y-27700849D01*
X17271024Y-27881801D02*
X17280548Y-27891325D01*
X17280548Y-27891325D02*
X17271024Y-27900849D01*
X17271024Y-27900849D02*
X17261500Y-27891325D01*
X17261500Y-27891325D02*
X17271024Y-27881801D01*
X17271024Y-27881801D02*
X17271024Y-27900849D01*
X17404357Y-27700849D02*
X17423405Y-27700849D01*
X17423405Y-27700849D02*
X17442453Y-27710372D01*
X17442453Y-27710372D02*
X17451976Y-27719896D01*
X17451976Y-27719896D02*
X17461500Y-27738944D01*
X17461500Y-27738944D02*
X17471024Y-27777039D01*
X17471024Y-27777039D02*
X17471024Y-27824658D01*
X17471024Y-27824658D02*
X17461500Y-27862753D01*
X17461500Y-27862753D02*
X17451976Y-27881801D01*
X17451976Y-27881801D02*
X17442453Y-27891325D01*
X17442453Y-27891325D02*
X17423405Y-27900849D01*
X17423405Y-27900849D02*
X17404357Y-27900849D01*
X17404357Y-27900849D02*
X17385310Y-27891325D01*
X17385310Y-27891325D02*
X17375786Y-27881801D01*
X17375786Y-27881801D02*
X17366262Y-27862753D01*
X17366262Y-27862753D02*
X17356738Y-27824658D01*
X17356738Y-27824658D02*
X17356738Y-27777039D01*
X17356738Y-27777039D02*
X17366262Y-27738944D01*
X17366262Y-27738944D02*
X17375786Y-27719896D01*
X17375786Y-27719896D02*
X17385310Y-27710372D01*
X17385310Y-27710372D02*
X17404357Y-27700849D01*
X17537691Y-27700849D02*
X17661500Y-27700849D01*
X17661500Y-27700849D02*
X17594834Y-27777039D01*
X17594834Y-27777039D02*
X17623405Y-27777039D01*
X17623405Y-27777039D02*
X17642453Y-27786563D01*
X17642453Y-27786563D02*
X17651976Y-27796087D01*
X17651976Y-27796087D02*
X17661500Y-27815134D01*
X17661500Y-27815134D02*
X17661500Y-27862753D01*
X17661500Y-27862753D02*
X17651976Y-27881801D01*
X17651976Y-27881801D02*
X17642453Y-27891325D01*
X17642453Y-27891325D02*
X17623405Y-27900849D01*
X17623405Y-27900849D02*
X17566262Y-27900849D01*
X17566262Y-27900849D02*
X17547215Y-27891325D01*
X17547215Y-27891325D02*
X17537691Y-27881801D01*
X17842453Y-27700849D02*
X17747215Y-27700849D01*
X17747215Y-27700849D02*
X17737691Y-27796087D01*
X17737691Y-27796087D02*
X17747215Y-27786563D01*
X17747215Y-27786563D02*
X17766262Y-27777039D01*
X17766262Y-27777039D02*
X17813881Y-27777039D01*
X17813881Y-27777039D02*
X17832929Y-27786563D01*
X17832929Y-27786563D02*
X17842453Y-27796087D01*
X17842453Y-27796087D02*
X17851976Y-27815134D01*
X17851976Y-27815134D02*
X17851976Y-27862753D01*
X17851976Y-27862753D02*
X17842453Y-27881801D01*
X17842453Y-27881801D02*
X17832929Y-27891325D01*
X17832929Y-27891325D02*
X17813881Y-27900849D01*
X17813881Y-27900849D02*
X17766262Y-27900849D01*
X17766262Y-27900849D02*
X17747215Y-27891325D01*
X17747215Y-27891325D02*
X17737691Y-27881801D01*
X17975786Y-27700849D02*
X17994834Y-27700849D01*
X17994834Y-27700849D02*
X18013881Y-27710372D01*
X18013881Y-27710372D02*
X18023405Y-27719896D01*
X18023405Y-27719896D02*
X18032929Y-27738944D01*
X18032929Y-27738944D02*
X18042453Y-27777039D01*
X18042453Y-27777039D02*
X18042453Y-27824658D01*
X18042453Y-27824658D02*
X18032929Y-27862753D01*
X18032929Y-27862753D02*
X18023405Y-27881801D01*
X18023405Y-27881801D02*
X18013881Y-27891325D01*
X18013881Y-27891325D02*
X17994834Y-27900849D01*
X17994834Y-27900849D02*
X17975786Y-27900849D01*
X17975786Y-27900849D02*
X17956738Y-27891325D01*
X17956738Y-27891325D02*
X17947215Y-27881801D01*
X17947215Y-27881801D02*
X17937691Y-27862753D01*
X17937691Y-27862753D02*
X17928167Y-27824658D01*
X17928167Y-27824658D02*
X17928167Y-27777039D01*
X17928167Y-27777039D02*
X17937691Y-27738944D01*
X17937691Y-27738944D02*
X17947215Y-27719896D01*
X17947215Y-27719896D02*
X17956738Y-27710372D01*
X17956738Y-27710372D02*
X17975786Y-27700849D01*
X18118643Y-27700849D02*
X18118643Y-27738944D01*
X18194834Y-27700849D02*
X18194834Y-27738944D01*
X18490072Y-27977039D02*
X18480548Y-27967515D01*
X18480548Y-27967515D02*
X18461500Y-27938944D01*
X18461500Y-27938944D02*
X18451977Y-27919896D01*
X18451977Y-27919896D02*
X18442453Y-27891325D01*
X18442453Y-27891325D02*
X18432929Y-27843706D01*
X18432929Y-27843706D02*
X18432929Y-27805611D01*
X18432929Y-27805611D02*
X18442453Y-27757991D01*
X18442453Y-27757991D02*
X18451977Y-27729420D01*
X18451977Y-27729420D02*
X18461500Y-27710372D01*
X18461500Y-27710372D02*
X18480548Y-27681801D01*
X18480548Y-27681801D02*
X18490072Y-27672277D01*
X18651977Y-27700849D02*
X18613881Y-27700849D01*
X18613881Y-27700849D02*
X18594834Y-27710372D01*
X18594834Y-27710372D02*
X18585310Y-27719896D01*
X18585310Y-27719896D02*
X18566262Y-27748468D01*
X18566262Y-27748468D02*
X18556738Y-27786563D01*
X18556738Y-27786563D02*
X18556738Y-27862753D01*
X18556738Y-27862753D02*
X18566262Y-27881801D01*
X18566262Y-27881801D02*
X18575786Y-27891325D01*
X18575786Y-27891325D02*
X18594834Y-27900849D01*
X18594834Y-27900849D02*
X18632929Y-27900849D01*
X18632929Y-27900849D02*
X18651977Y-27891325D01*
X18651977Y-27891325D02*
X18661500Y-27881801D01*
X18661500Y-27881801D02*
X18671024Y-27862753D01*
X18671024Y-27862753D02*
X18671024Y-27815134D01*
X18671024Y-27815134D02*
X18661500Y-27796087D01*
X18661500Y-27796087D02*
X18651977Y-27786563D01*
X18651977Y-27786563D02*
X18632929Y-27777039D01*
X18632929Y-27777039D02*
X18594834Y-27777039D01*
X18594834Y-27777039D02*
X18575786Y-27786563D01*
X18575786Y-27786563D02*
X18566262Y-27796087D01*
X18566262Y-27796087D02*
X18556738Y-27815134D01*
X18909119Y-27900849D02*
X18909119Y-27700849D01*
X18994834Y-27900849D02*
X18994834Y-27796087D01*
X18994834Y-27796087D02*
X18985310Y-27777039D01*
X18985310Y-27777039D02*
X18966262Y-27767515D01*
X18966262Y-27767515D02*
X18937691Y-27767515D01*
X18937691Y-27767515D02*
X18918643Y-27777039D01*
X18918643Y-27777039D02*
X18909119Y-27786563D01*
X19118643Y-27900849D02*
X19099596Y-27891325D01*
X19099596Y-27891325D02*
X19090072Y-27881801D01*
X19090072Y-27881801D02*
X19080548Y-27862753D01*
X19080548Y-27862753D02*
X19080548Y-27805611D01*
X19080548Y-27805611D02*
X19090072Y-27786563D01*
X19090072Y-27786563D02*
X19099596Y-27777039D01*
X19099596Y-27777039D02*
X19118643Y-27767515D01*
X19118643Y-27767515D02*
X19147215Y-27767515D01*
X19147215Y-27767515D02*
X19166262Y-27777039D01*
X19166262Y-27777039D02*
X19175786Y-27786563D01*
X19175786Y-27786563D02*
X19185310Y-27805611D01*
X19185310Y-27805611D02*
X19185310Y-27862753D01*
X19185310Y-27862753D02*
X19175786Y-27881801D01*
X19175786Y-27881801D02*
X19166262Y-27891325D01*
X19166262Y-27891325D02*
X19147215Y-27900849D01*
X19147215Y-27900849D02*
X19118643Y-27900849D01*
X19299596Y-27900849D02*
X19280548Y-27891325D01*
X19280548Y-27891325D02*
X19271024Y-27872277D01*
X19271024Y-27872277D02*
X19271024Y-27700849D01*
X19451977Y-27891325D02*
X19432929Y-27900849D01*
X19432929Y-27900849D02*
X19394834Y-27900849D01*
X19394834Y-27900849D02*
X19375786Y-27891325D01*
X19375786Y-27891325D02*
X19366262Y-27872277D01*
X19366262Y-27872277D02*
X19366262Y-27796087D01*
X19366262Y-27796087D02*
X19375786Y-27777039D01*
X19375786Y-27777039D02*
X19394834Y-27767515D01*
X19394834Y-27767515D02*
X19432929Y-27767515D01*
X19432929Y-27767515D02*
X19451977Y-27777039D01*
X19451977Y-27777039D02*
X19461500Y-27796087D01*
X19461500Y-27796087D02*
X19461500Y-27815134D01*
X19461500Y-27815134D02*
X19366262Y-27834182D01*
X19537691Y-27891325D02*
X19556739Y-27900849D01*
X19556739Y-27900849D02*
X19594834Y-27900849D01*
X19594834Y-27900849D02*
X19613881Y-27891325D01*
X19613881Y-27891325D02*
X19623405Y-27872277D01*
X19623405Y-27872277D02*
X19623405Y-27862753D01*
X19623405Y-27862753D02*
X19613881Y-27843706D01*
X19613881Y-27843706D02*
X19594834Y-27834182D01*
X19594834Y-27834182D02*
X19566262Y-27834182D01*
X19566262Y-27834182D02*
X19547215Y-27824658D01*
X19547215Y-27824658D02*
X19537691Y-27805611D01*
X19537691Y-27805611D02*
X19537691Y-27796087D01*
X19537691Y-27796087D02*
X19547215Y-27777039D01*
X19547215Y-27777039D02*
X19566262Y-27767515D01*
X19566262Y-27767515D02*
X19594834Y-27767515D01*
X19594834Y-27767515D02*
X19613881Y-27777039D01*
X19690072Y-27977039D02*
X19699596Y-27967515D01*
X19699596Y-27967515D02*
X19718643Y-27938944D01*
X19718643Y-27938944D02*
X19728167Y-27919896D01*
X19728167Y-27919896D02*
X19737691Y-27891325D01*
X19737691Y-27891325D02*
X19747215Y-27843706D01*
X19747215Y-27843706D02*
X19747215Y-27805611D01*
X19747215Y-27805611D02*
X19737691Y-27757991D01*
X19737691Y-27757991D02*
X19728167Y-27729420D01*
X19728167Y-27729420D02*
X19718643Y-27710372D01*
X19718643Y-27710372D02*
X19699596Y-27681801D01*
X19699596Y-27681801D02*
X19690072Y-27672277D01*
D15*
X14901829Y-28105185D02*
X14901829Y-28041545D01*
X14838189Y-28041545D01*
X14838189Y-28105185D01*
X14901829Y-28105185D01*
D11*
X15213881Y-27964849D02*
X15232929Y-27964849D01*
X15232929Y-27964849D02*
X15251976Y-27974372D01*
X15251976Y-27974372D02*
X15261500Y-27983896D01*
X15261500Y-27983896D02*
X15271024Y-28002944D01*
X15271024Y-28002944D02*
X15280548Y-28041039D01*
X15280548Y-28041039D02*
X15280548Y-28088658D01*
X15280548Y-28088658D02*
X15271024Y-28126753D01*
X15271024Y-28126753D02*
X15261500Y-28145801D01*
X15261500Y-28145801D02*
X15251976Y-28155325D01*
X15251976Y-28155325D02*
X15232929Y-28164849D01*
X15232929Y-28164849D02*
X15213881Y-28164849D01*
X15213881Y-28164849D02*
X15194833Y-28155325D01*
X15194833Y-28155325D02*
X15185309Y-28145801D01*
X15185309Y-28145801D02*
X15175786Y-28126753D01*
X15175786Y-28126753D02*
X15166262Y-28088658D01*
X15166262Y-28088658D02*
X15166262Y-28041039D01*
X15166262Y-28041039D02*
X15175786Y-28002944D01*
X15175786Y-28002944D02*
X15185309Y-27983896D01*
X15185309Y-27983896D02*
X15194833Y-27974372D01*
X15194833Y-27974372D02*
X15213881Y-27964849D01*
X15366262Y-28145801D02*
X15375786Y-28155325D01*
X15375786Y-28155325D02*
X15366262Y-28164849D01*
X15366262Y-28164849D02*
X15356738Y-28155325D01*
X15356738Y-28155325D02*
X15366262Y-28145801D01*
X15366262Y-28145801D02*
X15366262Y-28164849D01*
X15471024Y-28164849D02*
X15509119Y-28164849D01*
X15509119Y-28164849D02*
X15528167Y-28155325D01*
X15528167Y-28155325D02*
X15537690Y-28145801D01*
X15537690Y-28145801D02*
X15556738Y-28117230D01*
X15556738Y-28117230D02*
X15566262Y-28079134D01*
X15566262Y-28079134D02*
X15566262Y-28002944D01*
X15566262Y-28002944D02*
X15556738Y-27983896D01*
X15556738Y-27983896D02*
X15547214Y-27974372D01*
X15547214Y-27974372D02*
X15528167Y-27964849D01*
X15528167Y-27964849D02*
X15490071Y-27964849D01*
X15490071Y-27964849D02*
X15471024Y-27974372D01*
X15471024Y-27974372D02*
X15461500Y-27983896D01*
X15461500Y-27983896D02*
X15451976Y-28002944D01*
X15451976Y-28002944D02*
X15451976Y-28050563D01*
X15451976Y-28050563D02*
X15461500Y-28069611D01*
X15461500Y-28069611D02*
X15471024Y-28079134D01*
X15471024Y-28079134D02*
X15490071Y-28088658D01*
X15490071Y-28088658D02*
X15528167Y-28088658D01*
X15528167Y-28088658D02*
X15547214Y-28079134D01*
X15547214Y-28079134D02*
X15556738Y-28069611D01*
X15556738Y-28069611D02*
X15566262Y-28050563D01*
X15690071Y-27964849D02*
X15709119Y-27964849D01*
X15709119Y-27964849D02*
X15728167Y-27974372D01*
X15728167Y-27974372D02*
X15737690Y-27983896D01*
X15737690Y-27983896D02*
X15747214Y-28002944D01*
X15747214Y-28002944D02*
X15756738Y-28041039D01*
X15756738Y-28041039D02*
X15756738Y-28088658D01*
X15756738Y-28088658D02*
X15747214Y-28126753D01*
X15747214Y-28126753D02*
X15737690Y-28145801D01*
X15737690Y-28145801D02*
X15728167Y-28155325D01*
X15728167Y-28155325D02*
X15709119Y-28164849D01*
X15709119Y-28164849D02*
X15690071Y-28164849D01*
X15690071Y-28164849D02*
X15671024Y-28155325D01*
X15671024Y-28155325D02*
X15661500Y-28145801D01*
X15661500Y-28145801D02*
X15651976Y-28126753D01*
X15651976Y-28126753D02*
X15642452Y-28088658D01*
X15642452Y-28088658D02*
X15642452Y-28041039D01*
X15642452Y-28041039D02*
X15651976Y-28002944D01*
X15651976Y-28002944D02*
X15661500Y-27983896D01*
X15661500Y-27983896D02*
X15671024Y-27974372D01*
X15671024Y-27974372D02*
X15690071Y-27964849D01*
X15880548Y-27964849D02*
X15899595Y-27964849D01*
X15899595Y-27964849D02*
X15918643Y-27974372D01*
X15918643Y-27974372D02*
X15928167Y-27983896D01*
X15928167Y-27983896D02*
X15937690Y-28002944D01*
X15937690Y-28002944D02*
X15947214Y-28041039D01*
X15947214Y-28041039D02*
X15947214Y-28088658D01*
X15947214Y-28088658D02*
X15937690Y-28126753D01*
X15937690Y-28126753D02*
X15928167Y-28145801D01*
X15928167Y-28145801D02*
X15918643Y-28155325D01*
X15918643Y-28155325D02*
X15899595Y-28164849D01*
X15899595Y-28164849D02*
X15880548Y-28164849D01*
X15880548Y-28164849D02*
X15861500Y-28155325D01*
X15861500Y-28155325D02*
X15851976Y-28145801D01*
X15851976Y-28145801D02*
X15842452Y-28126753D01*
X15842452Y-28126753D02*
X15832929Y-28088658D01*
X15832929Y-28088658D02*
X15832929Y-28041039D01*
X15832929Y-28041039D02*
X15842452Y-28002944D01*
X15842452Y-28002944D02*
X15851976Y-27983896D01*
X15851976Y-27983896D02*
X15861500Y-27974372D01*
X15861500Y-27974372D02*
X15880548Y-27964849D01*
X16032929Y-28164849D02*
X16032929Y-28031515D01*
X16032929Y-28050563D02*
X16042452Y-28041039D01*
X16042452Y-28041039D02*
X16061500Y-28031515D01*
X16061500Y-28031515D02*
X16090071Y-28031515D01*
X16090071Y-28031515D02*
X16109119Y-28041039D01*
X16109119Y-28041039D02*
X16118643Y-28060087D01*
X16118643Y-28060087D02*
X16118643Y-28164849D01*
X16118643Y-28060087D02*
X16128167Y-28041039D01*
X16128167Y-28041039D02*
X16147214Y-28031515D01*
X16147214Y-28031515D02*
X16175786Y-28031515D01*
X16175786Y-28031515D02*
X16194833Y-28041039D01*
X16194833Y-28041039D02*
X16204357Y-28060087D01*
X16204357Y-28060087D02*
X16204357Y-28164849D01*
X16299595Y-28164849D02*
X16299595Y-28031515D01*
X16299595Y-28050563D02*
X16309119Y-28041039D01*
X16309119Y-28041039D02*
X16328167Y-28031515D01*
X16328167Y-28031515D02*
X16356738Y-28031515D01*
X16356738Y-28031515D02*
X16375786Y-28041039D01*
X16375786Y-28041039D02*
X16385310Y-28060087D01*
X16385310Y-28060087D02*
X16385310Y-28164849D01*
X16385310Y-28060087D02*
X16394833Y-28041039D01*
X16394833Y-28041039D02*
X16413881Y-28031515D01*
X16413881Y-28031515D02*
X16442452Y-28031515D01*
X16442452Y-28031515D02*
X16461500Y-28041039D01*
X16461500Y-28041039D02*
X16471024Y-28060087D01*
X16471024Y-28060087D02*
X16471024Y-28164849D01*
X16861500Y-27955325D02*
X16690072Y-28212468D01*
X17118643Y-27964849D02*
X17137691Y-27964849D01*
X17137691Y-27964849D02*
X17156738Y-27974372D01*
X17156738Y-27974372D02*
X17166262Y-27983896D01*
X17166262Y-27983896D02*
X17175786Y-28002944D01*
X17175786Y-28002944D02*
X17185310Y-28041039D01*
X17185310Y-28041039D02*
X17185310Y-28088658D01*
X17185310Y-28088658D02*
X17175786Y-28126753D01*
X17175786Y-28126753D02*
X17166262Y-28145801D01*
X17166262Y-28145801D02*
X17156738Y-28155325D01*
X17156738Y-28155325D02*
X17137691Y-28164849D01*
X17137691Y-28164849D02*
X17118643Y-28164849D01*
X17118643Y-28164849D02*
X17099595Y-28155325D01*
X17099595Y-28155325D02*
X17090072Y-28145801D01*
X17090072Y-28145801D02*
X17080548Y-28126753D01*
X17080548Y-28126753D02*
X17071024Y-28088658D01*
X17071024Y-28088658D02*
X17071024Y-28041039D01*
X17071024Y-28041039D02*
X17080548Y-28002944D01*
X17080548Y-28002944D02*
X17090072Y-27983896D01*
X17090072Y-27983896D02*
X17099595Y-27974372D01*
X17099595Y-27974372D02*
X17118643Y-27964849D01*
X17271024Y-28145801D02*
X17280548Y-28155325D01*
X17280548Y-28155325D02*
X17271024Y-28164849D01*
X17271024Y-28164849D02*
X17261500Y-28155325D01*
X17261500Y-28155325D02*
X17271024Y-28145801D01*
X17271024Y-28145801D02*
X17271024Y-28164849D01*
X17404357Y-27964849D02*
X17423405Y-27964849D01*
X17423405Y-27964849D02*
X17442453Y-27974372D01*
X17442453Y-27974372D02*
X17451976Y-27983896D01*
X17451976Y-27983896D02*
X17461500Y-28002944D01*
X17461500Y-28002944D02*
X17471024Y-28041039D01*
X17471024Y-28041039D02*
X17471024Y-28088658D01*
X17471024Y-28088658D02*
X17461500Y-28126753D01*
X17461500Y-28126753D02*
X17451976Y-28145801D01*
X17451976Y-28145801D02*
X17442453Y-28155325D01*
X17442453Y-28155325D02*
X17423405Y-28164849D01*
X17423405Y-28164849D02*
X17404357Y-28164849D01*
X17404357Y-28164849D02*
X17385310Y-28155325D01*
X17385310Y-28155325D02*
X17375786Y-28145801D01*
X17375786Y-28145801D02*
X17366262Y-28126753D01*
X17366262Y-28126753D02*
X17356738Y-28088658D01*
X17356738Y-28088658D02*
X17356738Y-28041039D01*
X17356738Y-28041039D02*
X17366262Y-28002944D01*
X17366262Y-28002944D02*
X17375786Y-27983896D01*
X17375786Y-27983896D02*
X17385310Y-27974372D01*
X17385310Y-27974372D02*
X17404357Y-27964849D01*
X17537691Y-27964849D02*
X17661500Y-27964849D01*
X17661500Y-27964849D02*
X17594834Y-28041039D01*
X17594834Y-28041039D02*
X17623405Y-28041039D01*
X17623405Y-28041039D02*
X17642453Y-28050563D01*
X17642453Y-28050563D02*
X17651976Y-28060087D01*
X17651976Y-28060087D02*
X17661500Y-28079134D01*
X17661500Y-28079134D02*
X17661500Y-28126753D01*
X17661500Y-28126753D02*
X17651976Y-28145801D01*
X17651976Y-28145801D02*
X17642453Y-28155325D01*
X17642453Y-28155325D02*
X17623405Y-28164849D01*
X17623405Y-28164849D02*
X17566262Y-28164849D01*
X17566262Y-28164849D02*
X17547215Y-28155325D01*
X17547215Y-28155325D02*
X17537691Y-28145801D01*
X17842453Y-27964849D02*
X17747215Y-27964849D01*
X17747215Y-27964849D02*
X17737691Y-28060087D01*
X17737691Y-28060087D02*
X17747215Y-28050563D01*
X17747215Y-28050563D02*
X17766262Y-28041039D01*
X17766262Y-28041039D02*
X17813881Y-28041039D01*
X17813881Y-28041039D02*
X17832929Y-28050563D01*
X17832929Y-28050563D02*
X17842453Y-28060087D01*
X17842453Y-28060087D02*
X17851976Y-28079134D01*
X17851976Y-28079134D02*
X17851976Y-28126753D01*
X17851976Y-28126753D02*
X17842453Y-28145801D01*
X17842453Y-28145801D02*
X17832929Y-28155325D01*
X17832929Y-28155325D02*
X17813881Y-28164849D01*
X17813881Y-28164849D02*
X17766262Y-28164849D01*
X17766262Y-28164849D02*
X17747215Y-28155325D01*
X17747215Y-28155325D02*
X17737691Y-28145801D01*
X18023405Y-28031515D02*
X18023405Y-28164849D01*
X17975786Y-27955325D02*
X17928167Y-28098182D01*
X17928167Y-28098182D02*
X18051976Y-28098182D01*
X18118643Y-27964849D02*
X18118643Y-28002944D01*
X18194834Y-27964849D02*
X18194834Y-28002944D01*
X18490072Y-28241039D02*
X18480548Y-28231515D01*
X18480548Y-28231515D02*
X18461500Y-28202944D01*
X18461500Y-28202944D02*
X18451977Y-28183896D01*
X18451977Y-28183896D02*
X18442453Y-28155325D01*
X18442453Y-28155325D02*
X18432929Y-28107706D01*
X18432929Y-28107706D02*
X18432929Y-28069611D01*
X18432929Y-28069611D02*
X18442453Y-28021991D01*
X18442453Y-28021991D02*
X18451977Y-27993420D01*
X18451977Y-27993420D02*
X18461500Y-27974372D01*
X18461500Y-27974372D02*
X18480548Y-27945801D01*
X18480548Y-27945801D02*
X18490072Y-27936277D01*
X18651977Y-28031515D02*
X18651977Y-28164849D01*
X18604357Y-27955325D02*
X18556738Y-28098182D01*
X18556738Y-28098182D02*
X18680548Y-28098182D01*
X18909119Y-28164849D02*
X18909119Y-27964849D01*
X18994834Y-28164849D02*
X18994834Y-28060087D01*
X18994834Y-28060087D02*
X18985310Y-28041039D01*
X18985310Y-28041039D02*
X18966262Y-28031515D01*
X18966262Y-28031515D02*
X18937691Y-28031515D01*
X18937691Y-28031515D02*
X18918643Y-28041039D01*
X18918643Y-28041039D02*
X18909119Y-28050563D01*
X19118643Y-28164849D02*
X19099596Y-28155325D01*
X19099596Y-28155325D02*
X19090072Y-28145801D01*
X19090072Y-28145801D02*
X19080548Y-28126753D01*
X19080548Y-28126753D02*
X19080548Y-28069611D01*
X19080548Y-28069611D02*
X19090072Y-28050563D01*
X19090072Y-28050563D02*
X19099596Y-28041039D01*
X19099596Y-28041039D02*
X19118643Y-28031515D01*
X19118643Y-28031515D02*
X19147215Y-28031515D01*
X19147215Y-28031515D02*
X19166262Y-28041039D01*
X19166262Y-28041039D02*
X19175786Y-28050563D01*
X19175786Y-28050563D02*
X19185310Y-28069611D01*
X19185310Y-28069611D02*
X19185310Y-28126753D01*
X19185310Y-28126753D02*
X19175786Y-28145801D01*
X19175786Y-28145801D02*
X19166262Y-28155325D01*
X19166262Y-28155325D02*
X19147215Y-28164849D01*
X19147215Y-28164849D02*
X19118643Y-28164849D01*
X19299596Y-28164849D02*
X19280548Y-28155325D01*
X19280548Y-28155325D02*
X19271024Y-28136277D01*
X19271024Y-28136277D02*
X19271024Y-27964849D01*
X19451977Y-28155325D02*
X19432929Y-28164849D01*
X19432929Y-28164849D02*
X19394834Y-28164849D01*
X19394834Y-28164849D02*
X19375786Y-28155325D01*
X19375786Y-28155325D02*
X19366262Y-28136277D01*
X19366262Y-28136277D02*
X19366262Y-28060087D01*
X19366262Y-28060087D02*
X19375786Y-28041039D01*
X19375786Y-28041039D02*
X19394834Y-28031515D01*
X19394834Y-28031515D02*
X19432929Y-28031515D01*
X19432929Y-28031515D02*
X19451977Y-28041039D01*
X19451977Y-28041039D02*
X19461500Y-28060087D01*
X19461500Y-28060087D02*
X19461500Y-28079134D01*
X19461500Y-28079134D02*
X19366262Y-28098182D01*
X19537691Y-28155325D02*
X19556739Y-28164849D01*
X19556739Y-28164849D02*
X19594834Y-28164849D01*
X19594834Y-28164849D02*
X19613881Y-28155325D01*
X19613881Y-28155325D02*
X19623405Y-28136277D01*
X19623405Y-28136277D02*
X19623405Y-28126753D01*
X19623405Y-28126753D02*
X19613881Y-28107706D01*
X19613881Y-28107706D02*
X19594834Y-28098182D01*
X19594834Y-28098182D02*
X19566262Y-28098182D01*
X19566262Y-28098182D02*
X19547215Y-28088658D01*
X19547215Y-28088658D02*
X19537691Y-28069611D01*
X19537691Y-28069611D02*
X19537691Y-28060087D01*
X19537691Y-28060087D02*
X19547215Y-28041039D01*
X19547215Y-28041039D02*
X19566262Y-28031515D01*
X19566262Y-28031515D02*
X19594834Y-28031515D01*
X19594834Y-28031515D02*
X19613881Y-28041039D01*
X19690072Y-28241039D02*
X19699596Y-28231515D01*
X19699596Y-28231515D02*
X19718643Y-28202944D01*
X19718643Y-28202944D02*
X19728167Y-28183896D01*
X19728167Y-28183896D02*
X19737691Y-28155325D01*
X19737691Y-28155325D02*
X19747215Y-28107706D01*
X19747215Y-28107706D02*
X19747215Y-28069611D01*
X19747215Y-28069611D02*
X19737691Y-28021991D01*
X19737691Y-28021991D02*
X19728167Y-27993420D01*
X19728167Y-27993420D02*
X19718643Y-27974372D01*
X19718643Y-27974372D02*
X19699596Y-27945801D01*
X19699596Y-27945801D02*
X19690072Y-27936277D01*
D10*
X14865009Y-28387365D02*
X14915009Y-28337365D01*
X14865009Y-28287365D01*
X14815009Y-28337365D01*
X14865009Y-28387365D01*
D11*
X15280548Y-28428849D02*
X15166262Y-28428849D01*
X15223405Y-28428849D02*
X15223405Y-28228849D01*
X15223405Y-28228849D02*
X15204357Y-28257420D01*
X15204357Y-28257420D02*
X15185309Y-28276468D01*
X15185309Y-28276468D02*
X15166262Y-28285991D01*
X15366262Y-28409801D02*
X15375786Y-28419325D01*
X15375786Y-28419325D02*
X15366262Y-28428849D01*
X15366262Y-28428849D02*
X15356738Y-28419325D01*
X15356738Y-28419325D02*
X15366262Y-28409801D01*
X15366262Y-28409801D02*
X15366262Y-28428849D01*
X15499595Y-28228849D02*
X15518643Y-28228849D01*
X15518643Y-28228849D02*
X15537690Y-28238372D01*
X15537690Y-28238372D02*
X15547214Y-28247896D01*
X15547214Y-28247896D02*
X15556738Y-28266944D01*
X15556738Y-28266944D02*
X15566262Y-28305039D01*
X15566262Y-28305039D02*
X15566262Y-28352658D01*
X15566262Y-28352658D02*
X15556738Y-28390753D01*
X15556738Y-28390753D02*
X15547214Y-28409801D01*
X15547214Y-28409801D02*
X15537690Y-28419325D01*
X15537690Y-28419325D02*
X15518643Y-28428849D01*
X15518643Y-28428849D02*
X15499595Y-28428849D01*
X15499595Y-28428849D02*
X15480548Y-28419325D01*
X15480548Y-28419325D02*
X15471024Y-28409801D01*
X15471024Y-28409801D02*
X15461500Y-28390753D01*
X15461500Y-28390753D02*
X15451976Y-28352658D01*
X15451976Y-28352658D02*
X15451976Y-28305039D01*
X15451976Y-28305039D02*
X15461500Y-28266944D01*
X15461500Y-28266944D02*
X15471024Y-28247896D01*
X15471024Y-28247896D02*
X15480548Y-28238372D01*
X15480548Y-28238372D02*
X15499595Y-28228849D01*
X15690071Y-28228849D02*
X15709119Y-28228849D01*
X15709119Y-28228849D02*
X15728167Y-28238372D01*
X15728167Y-28238372D02*
X15737690Y-28247896D01*
X15737690Y-28247896D02*
X15747214Y-28266944D01*
X15747214Y-28266944D02*
X15756738Y-28305039D01*
X15756738Y-28305039D02*
X15756738Y-28352658D01*
X15756738Y-28352658D02*
X15747214Y-28390753D01*
X15747214Y-28390753D02*
X15737690Y-28409801D01*
X15737690Y-28409801D02*
X15728167Y-28419325D01*
X15728167Y-28419325D02*
X15709119Y-28428849D01*
X15709119Y-28428849D02*
X15690071Y-28428849D01*
X15690071Y-28428849D02*
X15671024Y-28419325D01*
X15671024Y-28419325D02*
X15661500Y-28409801D01*
X15661500Y-28409801D02*
X15651976Y-28390753D01*
X15651976Y-28390753D02*
X15642452Y-28352658D01*
X15642452Y-28352658D02*
X15642452Y-28305039D01*
X15642452Y-28305039D02*
X15651976Y-28266944D01*
X15651976Y-28266944D02*
X15661500Y-28247896D01*
X15661500Y-28247896D02*
X15671024Y-28238372D01*
X15671024Y-28238372D02*
X15690071Y-28228849D01*
X15880548Y-28228849D02*
X15899595Y-28228849D01*
X15899595Y-28228849D02*
X15918643Y-28238372D01*
X15918643Y-28238372D02*
X15928167Y-28247896D01*
X15928167Y-28247896D02*
X15937690Y-28266944D01*
X15937690Y-28266944D02*
X15947214Y-28305039D01*
X15947214Y-28305039D02*
X15947214Y-28352658D01*
X15947214Y-28352658D02*
X15937690Y-28390753D01*
X15937690Y-28390753D02*
X15928167Y-28409801D01*
X15928167Y-28409801D02*
X15918643Y-28419325D01*
X15918643Y-28419325D02*
X15899595Y-28428849D01*
X15899595Y-28428849D02*
X15880548Y-28428849D01*
X15880548Y-28428849D02*
X15861500Y-28419325D01*
X15861500Y-28419325D02*
X15851976Y-28409801D01*
X15851976Y-28409801D02*
X15842452Y-28390753D01*
X15842452Y-28390753D02*
X15832929Y-28352658D01*
X15832929Y-28352658D02*
X15832929Y-28305039D01*
X15832929Y-28305039D02*
X15842452Y-28266944D01*
X15842452Y-28266944D02*
X15851976Y-28247896D01*
X15851976Y-28247896D02*
X15861500Y-28238372D01*
X15861500Y-28238372D02*
X15880548Y-28228849D01*
X16032929Y-28428849D02*
X16032929Y-28295515D01*
X16032929Y-28314563D02*
X16042452Y-28305039D01*
X16042452Y-28305039D02*
X16061500Y-28295515D01*
X16061500Y-28295515D02*
X16090071Y-28295515D01*
X16090071Y-28295515D02*
X16109119Y-28305039D01*
X16109119Y-28305039D02*
X16118643Y-28324087D01*
X16118643Y-28324087D02*
X16118643Y-28428849D01*
X16118643Y-28324087D02*
X16128167Y-28305039D01*
X16128167Y-28305039D02*
X16147214Y-28295515D01*
X16147214Y-28295515D02*
X16175786Y-28295515D01*
X16175786Y-28295515D02*
X16194833Y-28305039D01*
X16194833Y-28305039D02*
X16204357Y-28324087D01*
X16204357Y-28324087D02*
X16204357Y-28428849D01*
X16299595Y-28428849D02*
X16299595Y-28295515D01*
X16299595Y-28314563D02*
X16309119Y-28305039D01*
X16309119Y-28305039D02*
X16328167Y-28295515D01*
X16328167Y-28295515D02*
X16356738Y-28295515D01*
X16356738Y-28295515D02*
X16375786Y-28305039D01*
X16375786Y-28305039D02*
X16385310Y-28324087D01*
X16385310Y-28324087D02*
X16385310Y-28428849D01*
X16385310Y-28324087D02*
X16394833Y-28305039D01*
X16394833Y-28305039D02*
X16413881Y-28295515D01*
X16413881Y-28295515D02*
X16442452Y-28295515D01*
X16442452Y-28295515D02*
X16461500Y-28305039D01*
X16461500Y-28305039D02*
X16471024Y-28324087D01*
X16471024Y-28324087D02*
X16471024Y-28428849D01*
X16861500Y-28219325D02*
X16690072Y-28476468D01*
X17118643Y-28228849D02*
X17137691Y-28228849D01*
X17137691Y-28228849D02*
X17156738Y-28238372D01*
X17156738Y-28238372D02*
X17166262Y-28247896D01*
X17166262Y-28247896D02*
X17175786Y-28266944D01*
X17175786Y-28266944D02*
X17185310Y-28305039D01*
X17185310Y-28305039D02*
X17185310Y-28352658D01*
X17185310Y-28352658D02*
X17175786Y-28390753D01*
X17175786Y-28390753D02*
X17166262Y-28409801D01*
X17166262Y-28409801D02*
X17156738Y-28419325D01*
X17156738Y-28419325D02*
X17137691Y-28428849D01*
X17137691Y-28428849D02*
X17118643Y-28428849D01*
X17118643Y-28428849D02*
X17099595Y-28419325D01*
X17099595Y-28419325D02*
X17090072Y-28409801D01*
X17090072Y-28409801D02*
X17080548Y-28390753D01*
X17080548Y-28390753D02*
X17071024Y-28352658D01*
X17071024Y-28352658D02*
X17071024Y-28305039D01*
X17071024Y-28305039D02*
X17080548Y-28266944D01*
X17080548Y-28266944D02*
X17090072Y-28247896D01*
X17090072Y-28247896D02*
X17099595Y-28238372D01*
X17099595Y-28238372D02*
X17118643Y-28228849D01*
X17271024Y-28409801D02*
X17280548Y-28419325D01*
X17280548Y-28419325D02*
X17271024Y-28428849D01*
X17271024Y-28428849D02*
X17261500Y-28419325D01*
X17261500Y-28419325D02*
X17271024Y-28409801D01*
X17271024Y-28409801D02*
X17271024Y-28428849D01*
X17404357Y-28228849D02*
X17423405Y-28228849D01*
X17423405Y-28228849D02*
X17442453Y-28238372D01*
X17442453Y-28238372D02*
X17451976Y-28247896D01*
X17451976Y-28247896D02*
X17461500Y-28266944D01*
X17461500Y-28266944D02*
X17471024Y-28305039D01*
X17471024Y-28305039D02*
X17471024Y-28352658D01*
X17471024Y-28352658D02*
X17461500Y-28390753D01*
X17461500Y-28390753D02*
X17451976Y-28409801D01*
X17451976Y-28409801D02*
X17442453Y-28419325D01*
X17442453Y-28419325D02*
X17423405Y-28428849D01*
X17423405Y-28428849D02*
X17404357Y-28428849D01*
X17404357Y-28428849D02*
X17385310Y-28419325D01*
X17385310Y-28419325D02*
X17375786Y-28409801D01*
X17375786Y-28409801D02*
X17366262Y-28390753D01*
X17366262Y-28390753D02*
X17356738Y-28352658D01*
X17356738Y-28352658D02*
X17356738Y-28305039D01*
X17356738Y-28305039D02*
X17366262Y-28266944D01*
X17366262Y-28266944D02*
X17375786Y-28247896D01*
X17375786Y-28247896D02*
X17385310Y-28238372D01*
X17385310Y-28238372D02*
X17404357Y-28228849D01*
X17537691Y-28228849D02*
X17661500Y-28228849D01*
X17661500Y-28228849D02*
X17594834Y-28305039D01*
X17594834Y-28305039D02*
X17623405Y-28305039D01*
X17623405Y-28305039D02*
X17642453Y-28314563D01*
X17642453Y-28314563D02*
X17651976Y-28324087D01*
X17651976Y-28324087D02*
X17661500Y-28343134D01*
X17661500Y-28343134D02*
X17661500Y-28390753D01*
X17661500Y-28390753D02*
X17651976Y-28409801D01*
X17651976Y-28409801D02*
X17642453Y-28419325D01*
X17642453Y-28419325D02*
X17623405Y-28428849D01*
X17623405Y-28428849D02*
X17566262Y-28428849D01*
X17566262Y-28428849D02*
X17547215Y-28419325D01*
X17547215Y-28419325D02*
X17537691Y-28409801D01*
X17756738Y-28428849D02*
X17794834Y-28428849D01*
X17794834Y-28428849D02*
X17813881Y-28419325D01*
X17813881Y-28419325D02*
X17823405Y-28409801D01*
X17823405Y-28409801D02*
X17842453Y-28381230D01*
X17842453Y-28381230D02*
X17851976Y-28343134D01*
X17851976Y-28343134D02*
X17851976Y-28266944D01*
X17851976Y-28266944D02*
X17842453Y-28247896D01*
X17842453Y-28247896D02*
X17832929Y-28238372D01*
X17832929Y-28238372D02*
X17813881Y-28228849D01*
X17813881Y-28228849D02*
X17775786Y-28228849D01*
X17775786Y-28228849D02*
X17756738Y-28238372D01*
X17756738Y-28238372D02*
X17747215Y-28247896D01*
X17747215Y-28247896D02*
X17737691Y-28266944D01*
X17737691Y-28266944D02*
X17737691Y-28314563D01*
X17737691Y-28314563D02*
X17747215Y-28333611D01*
X17747215Y-28333611D02*
X17756738Y-28343134D01*
X17756738Y-28343134D02*
X17775786Y-28352658D01*
X17775786Y-28352658D02*
X17813881Y-28352658D01*
X17813881Y-28352658D02*
X17832929Y-28343134D01*
X17832929Y-28343134D02*
X17842453Y-28333611D01*
X17842453Y-28333611D02*
X17851976Y-28314563D01*
X18023405Y-28295515D02*
X18023405Y-28428849D01*
X17975786Y-28219325D02*
X17928167Y-28362182D01*
X17928167Y-28362182D02*
X18051976Y-28362182D01*
X18118643Y-28228849D02*
X18118643Y-28266944D01*
X18194834Y-28228849D02*
X18194834Y-28266944D01*
X18490072Y-28505039D02*
X18480548Y-28495515D01*
X18480548Y-28495515D02*
X18461500Y-28466944D01*
X18461500Y-28466944D02*
X18451977Y-28447896D01*
X18451977Y-28447896D02*
X18442453Y-28419325D01*
X18442453Y-28419325D02*
X18432929Y-28371706D01*
X18432929Y-28371706D02*
X18432929Y-28333611D01*
X18432929Y-28333611D02*
X18442453Y-28285991D01*
X18442453Y-28285991D02*
X18451977Y-28257420D01*
X18451977Y-28257420D02*
X18461500Y-28238372D01*
X18461500Y-28238372D02*
X18480548Y-28209801D01*
X18480548Y-28209801D02*
X18490072Y-28200277D01*
X18661500Y-28228849D02*
X18566262Y-28228849D01*
X18566262Y-28228849D02*
X18556738Y-28324087D01*
X18556738Y-28324087D02*
X18566262Y-28314563D01*
X18566262Y-28314563D02*
X18585310Y-28305039D01*
X18585310Y-28305039D02*
X18632929Y-28305039D01*
X18632929Y-28305039D02*
X18651977Y-28314563D01*
X18651977Y-28314563D02*
X18661500Y-28324087D01*
X18661500Y-28324087D02*
X18671024Y-28343134D01*
X18671024Y-28343134D02*
X18671024Y-28390753D01*
X18671024Y-28390753D02*
X18661500Y-28409801D01*
X18661500Y-28409801D02*
X18651977Y-28419325D01*
X18651977Y-28419325D02*
X18632929Y-28428849D01*
X18632929Y-28428849D02*
X18585310Y-28428849D01*
X18585310Y-28428849D02*
X18566262Y-28419325D01*
X18566262Y-28419325D02*
X18556738Y-28409801D01*
X18909119Y-28428849D02*
X18909119Y-28228849D01*
X18994834Y-28428849D02*
X18994834Y-28324087D01*
X18994834Y-28324087D02*
X18985310Y-28305039D01*
X18985310Y-28305039D02*
X18966262Y-28295515D01*
X18966262Y-28295515D02*
X18937691Y-28295515D01*
X18937691Y-28295515D02*
X18918643Y-28305039D01*
X18918643Y-28305039D02*
X18909119Y-28314563D01*
X19118643Y-28428849D02*
X19099596Y-28419325D01*
X19099596Y-28419325D02*
X19090072Y-28409801D01*
X19090072Y-28409801D02*
X19080548Y-28390753D01*
X19080548Y-28390753D02*
X19080548Y-28333611D01*
X19080548Y-28333611D02*
X19090072Y-28314563D01*
X19090072Y-28314563D02*
X19099596Y-28305039D01*
X19099596Y-28305039D02*
X19118643Y-28295515D01*
X19118643Y-28295515D02*
X19147215Y-28295515D01*
X19147215Y-28295515D02*
X19166262Y-28305039D01*
X19166262Y-28305039D02*
X19175786Y-28314563D01*
X19175786Y-28314563D02*
X19185310Y-28333611D01*
X19185310Y-28333611D02*
X19185310Y-28390753D01*
X19185310Y-28390753D02*
X19175786Y-28409801D01*
X19175786Y-28409801D02*
X19166262Y-28419325D01*
X19166262Y-28419325D02*
X19147215Y-28428849D01*
X19147215Y-28428849D02*
X19118643Y-28428849D01*
X19299596Y-28428849D02*
X19280548Y-28419325D01*
X19280548Y-28419325D02*
X19271024Y-28400277D01*
X19271024Y-28400277D02*
X19271024Y-28228849D01*
X19451977Y-28419325D02*
X19432929Y-28428849D01*
X19432929Y-28428849D02*
X19394834Y-28428849D01*
X19394834Y-28428849D02*
X19375786Y-28419325D01*
X19375786Y-28419325D02*
X19366262Y-28400277D01*
X19366262Y-28400277D02*
X19366262Y-28324087D01*
X19366262Y-28324087D02*
X19375786Y-28305039D01*
X19375786Y-28305039D02*
X19394834Y-28295515D01*
X19394834Y-28295515D02*
X19432929Y-28295515D01*
X19432929Y-28295515D02*
X19451977Y-28305039D01*
X19451977Y-28305039D02*
X19461500Y-28324087D01*
X19461500Y-28324087D02*
X19461500Y-28343134D01*
X19461500Y-28343134D02*
X19366262Y-28362182D01*
X19537691Y-28419325D02*
X19556739Y-28428849D01*
X19556739Y-28428849D02*
X19594834Y-28428849D01*
X19594834Y-28428849D02*
X19613881Y-28419325D01*
X19613881Y-28419325D02*
X19623405Y-28400277D01*
X19623405Y-28400277D02*
X19623405Y-28390753D01*
X19623405Y-28390753D02*
X19613881Y-28371706D01*
X19613881Y-28371706D02*
X19594834Y-28362182D01*
X19594834Y-28362182D02*
X19566262Y-28362182D01*
X19566262Y-28362182D02*
X19547215Y-28352658D01*
X19547215Y-28352658D02*
X19537691Y-28333611D01*
X19537691Y-28333611D02*
X19537691Y-28324087D01*
X19537691Y-28324087D02*
X19547215Y-28305039D01*
X19547215Y-28305039D02*
X19566262Y-28295515D01*
X19566262Y-28295515D02*
X19594834Y-28295515D01*
X19594834Y-28295515D02*
X19613881Y-28305039D01*
X19690072Y-28505039D02*
X19699596Y-28495515D01*
X19699596Y-28495515D02*
X19718643Y-28466944D01*
X19718643Y-28466944D02*
X19728167Y-28447896D01*
X19728167Y-28447896D02*
X19737691Y-28419325D01*
X19737691Y-28419325D02*
X19747215Y-28371706D01*
X19747215Y-28371706D02*
X19747215Y-28333611D01*
X19747215Y-28333611D02*
X19737691Y-28285991D01*
X19737691Y-28285991D02*
X19728167Y-28257420D01*
X19728167Y-28257420D02*
X19718643Y-28238372D01*
X19718643Y-28238372D02*
X19699596Y-28209801D01*
X19699596Y-28209801D02*
X19690072Y-28200277D01*
D16*
X14813009Y-28550365D02*
X14915009Y-28652365D01*
X14915009Y-28550365D02*
X14813009Y-28652365D01*
X14915009Y-28601365D02*
G75*
G03*
X14915009Y-28601365I-51000J0D01*
G01*
D11*
X15280548Y-28692849D02*
X15166262Y-28692849D01*
X15223405Y-28692849D02*
X15223405Y-28492849D01*
X15223405Y-28492849D02*
X15204357Y-28521420D01*
X15204357Y-28521420D02*
X15185309Y-28540468D01*
X15185309Y-28540468D02*
X15166262Y-28549991D01*
X15366262Y-28673801D02*
X15375786Y-28683325D01*
X15375786Y-28683325D02*
X15366262Y-28692849D01*
X15366262Y-28692849D02*
X15356738Y-28683325D01*
X15356738Y-28683325D02*
X15366262Y-28673801D01*
X15366262Y-28673801D02*
X15366262Y-28692849D01*
X15499595Y-28492849D02*
X15518643Y-28492849D01*
X15518643Y-28492849D02*
X15537690Y-28502372D01*
X15537690Y-28502372D02*
X15547214Y-28511896D01*
X15547214Y-28511896D02*
X15556738Y-28530944D01*
X15556738Y-28530944D02*
X15566262Y-28569039D01*
X15566262Y-28569039D02*
X15566262Y-28616658D01*
X15566262Y-28616658D02*
X15556738Y-28654753D01*
X15556738Y-28654753D02*
X15547214Y-28673801D01*
X15547214Y-28673801D02*
X15537690Y-28683325D01*
X15537690Y-28683325D02*
X15518643Y-28692849D01*
X15518643Y-28692849D02*
X15499595Y-28692849D01*
X15499595Y-28692849D02*
X15480548Y-28683325D01*
X15480548Y-28683325D02*
X15471024Y-28673801D01*
X15471024Y-28673801D02*
X15461500Y-28654753D01*
X15461500Y-28654753D02*
X15451976Y-28616658D01*
X15451976Y-28616658D02*
X15451976Y-28569039D01*
X15451976Y-28569039D02*
X15461500Y-28530944D01*
X15461500Y-28530944D02*
X15471024Y-28511896D01*
X15471024Y-28511896D02*
X15480548Y-28502372D01*
X15480548Y-28502372D02*
X15499595Y-28492849D01*
X15642452Y-28511896D02*
X15651976Y-28502372D01*
X15651976Y-28502372D02*
X15671024Y-28492849D01*
X15671024Y-28492849D02*
X15718643Y-28492849D01*
X15718643Y-28492849D02*
X15737690Y-28502372D01*
X15737690Y-28502372D02*
X15747214Y-28511896D01*
X15747214Y-28511896D02*
X15756738Y-28530944D01*
X15756738Y-28530944D02*
X15756738Y-28549991D01*
X15756738Y-28549991D02*
X15747214Y-28578563D01*
X15747214Y-28578563D02*
X15632929Y-28692849D01*
X15632929Y-28692849D02*
X15756738Y-28692849D01*
X15880548Y-28492849D02*
X15899595Y-28492849D01*
X15899595Y-28492849D02*
X15918643Y-28502372D01*
X15918643Y-28502372D02*
X15928167Y-28511896D01*
X15928167Y-28511896D02*
X15937690Y-28530944D01*
X15937690Y-28530944D02*
X15947214Y-28569039D01*
X15947214Y-28569039D02*
X15947214Y-28616658D01*
X15947214Y-28616658D02*
X15937690Y-28654753D01*
X15937690Y-28654753D02*
X15928167Y-28673801D01*
X15928167Y-28673801D02*
X15918643Y-28683325D01*
X15918643Y-28683325D02*
X15899595Y-28692849D01*
X15899595Y-28692849D02*
X15880548Y-28692849D01*
X15880548Y-28692849D02*
X15861500Y-28683325D01*
X15861500Y-28683325D02*
X15851976Y-28673801D01*
X15851976Y-28673801D02*
X15842452Y-28654753D01*
X15842452Y-28654753D02*
X15832929Y-28616658D01*
X15832929Y-28616658D02*
X15832929Y-28569039D01*
X15832929Y-28569039D02*
X15842452Y-28530944D01*
X15842452Y-28530944D02*
X15851976Y-28511896D01*
X15851976Y-28511896D02*
X15861500Y-28502372D01*
X15861500Y-28502372D02*
X15880548Y-28492849D01*
X16032929Y-28692849D02*
X16032929Y-28559515D01*
X16032929Y-28578563D02*
X16042452Y-28569039D01*
X16042452Y-28569039D02*
X16061500Y-28559515D01*
X16061500Y-28559515D02*
X16090071Y-28559515D01*
X16090071Y-28559515D02*
X16109119Y-28569039D01*
X16109119Y-28569039D02*
X16118643Y-28588087D01*
X16118643Y-28588087D02*
X16118643Y-28692849D01*
X16118643Y-28588087D02*
X16128167Y-28569039D01*
X16128167Y-28569039D02*
X16147214Y-28559515D01*
X16147214Y-28559515D02*
X16175786Y-28559515D01*
X16175786Y-28559515D02*
X16194833Y-28569039D01*
X16194833Y-28569039D02*
X16204357Y-28588087D01*
X16204357Y-28588087D02*
X16204357Y-28692849D01*
X16299595Y-28692849D02*
X16299595Y-28559515D01*
X16299595Y-28578563D02*
X16309119Y-28569039D01*
X16309119Y-28569039D02*
X16328167Y-28559515D01*
X16328167Y-28559515D02*
X16356738Y-28559515D01*
X16356738Y-28559515D02*
X16375786Y-28569039D01*
X16375786Y-28569039D02*
X16385310Y-28588087D01*
X16385310Y-28588087D02*
X16385310Y-28692849D01*
X16385310Y-28588087D02*
X16394833Y-28569039D01*
X16394833Y-28569039D02*
X16413881Y-28559515D01*
X16413881Y-28559515D02*
X16442452Y-28559515D01*
X16442452Y-28559515D02*
X16461500Y-28569039D01*
X16461500Y-28569039D02*
X16471024Y-28588087D01*
X16471024Y-28588087D02*
X16471024Y-28692849D01*
X16861500Y-28483325D02*
X16690072Y-28740468D01*
X17118643Y-28492849D02*
X17137691Y-28492849D01*
X17137691Y-28492849D02*
X17156738Y-28502372D01*
X17156738Y-28502372D02*
X17166262Y-28511896D01*
X17166262Y-28511896D02*
X17175786Y-28530944D01*
X17175786Y-28530944D02*
X17185310Y-28569039D01*
X17185310Y-28569039D02*
X17185310Y-28616658D01*
X17185310Y-28616658D02*
X17175786Y-28654753D01*
X17175786Y-28654753D02*
X17166262Y-28673801D01*
X17166262Y-28673801D02*
X17156738Y-28683325D01*
X17156738Y-28683325D02*
X17137691Y-28692849D01*
X17137691Y-28692849D02*
X17118643Y-28692849D01*
X17118643Y-28692849D02*
X17099595Y-28683325D01*
X17099595Y-28683325D02*
X17090072Y-28673801D01*
X17090072Y-28673801D02*
X17080548Y-28654753D01*
X17080548Y-28654753D02*
X17071024Y-28616658D01*
X17071024Y-28616658D02*
X17071024Y-28569039D01*
X17071024Y-28569039D02*
X17080548Y-28530944D01*
X17080548Y-28530944D02*
X17090072Y-28511896D01*
X17090072Y-28511896D02*
X17099595Y-28502372D01*
X17099595Y-28502372D02*
X17118643Y-28492849D01*
X17271024Y-28673801D02*
X17280548Y-28683325D01*
X17280548Y-28683325D02*
X17271024Y-28692849D01*
X17271024Y-28692849D02*
X17261500Y-28683325D01*
X17261500Y-28683325D02*
X17271024Y-28673801D01*
X17271024Y-28673801D02*
X17271024Y-28692849D01*
X17404357Y-28492849D02*
X17423405Y-28492849D01*
X17423405Y-28492849D02*
X17442453Y-28502372D01*
X17442453Y-28502372D02*
X17451976Y-28511896D01*
X17451976Y-28511896D02*
X17461500Y-28530944D01*
X17461500Y-28530944D02*
X17471024Y-28569039D01*
X17471024Y-28569039D02*
X17471024Y-28616658D01*
X17471024Y-28616658D02*
X17461500Y-28654753D01*
X17461500Y-28654753D02*
X17451976Y-28673801D01*
X17451976Y-28673801D02*
X17442453Y-28683325D01*
X17442453Y-28683325D02*
X17423405Y-28692849D01*
X17423405Y-28692849D02*
X17404357Y-28692849D01*
X17404357Y-28692849D02*
X17385310Y-28683325D01*
X17385310Y-28683325D02*
X17375786Y-28673801D01*
X17375786Y-28673801D02*
X17366262Y-28654753D01*
X17366262Y-28654753D02*
X17356738Y-28616658D01*
X17356738Y-28616658D02*
X17356738Y-28569039D01*
X17356738Y-28569039D02*
X17366262Y-28530944D01*
X17366262Y-28530944D02*
X17375786Y-28511896D01*
X17375786Y-28511896D02*
X17385310Y-28502372D01*
X17385310Y-28502372D02*
X17404357Y-28492849D01*
X17642453Y-28559515D02*
X17642453Y-28692849D01*
X17594834Y-28483325D02*
X17547215Y-28626182D01*
X17547215Y-28626182D02*
X17671024Y-28626182D01*
X17785310Y-28492849D02*
X17804357Y-28492849D01*
X17804357Y-28492849D02*
X17823405Y-28502372D01*
X17823405Y-28502372D02*
X17832929Y-28511896D01*
X17832929Y-28511896D02*
X17842453Y-28530944D01*
X17842453Y-28530944D02*
X17851976Y-28569039D01*
X17851976Y-28569039D02*
X17851976Y-28616658D01*
X17851976Y-28616658D02*
X17842453Y-28654753D01*
X17842453Y-28654753D02*
X17832929Y-28673801D01*
X17832929Y-28673801D02*
X17823405Y-28683325D01*
X17823405Y-28683325D02*
X17804357Y-28692849D01*
X17804357Y-28692849D02*
X17785310Y-28692849D01*
X17785310Y-28692849D02*
X17766262Y-28683325D01*
X17766262Y-28683325D02*
X17756738Y-28673801D01*
X17756738Y-28673801D02*
X17747215Y-28654753D01*
X17747215Y-28654753D02*
X17737691Y-28616658D01*
X17737691Y-28616658D02*
X17737691Y-28569039D01*
X17737691Y-28569039D02*
X17747215Y-28530944D01*
X17747215Y-28530944D02*
X17756738Y-28511896D01*
X17756738Y-28511896D02*
X17766262Y-28502372D01*
X17766262Y-28502372D02*
X17785310Y-28492849D01*
X17928167Y-28511896D02*
X17937691Y-28502372D01*
X17937691Y-28502372D02*
X17956738Y-28492849D01*
X17956738Y-28492849D02*
X18004357Y-28492849D01*
X18004357Y-28492849D02*
X18023405Y-28502372D01*
X18023405Y-28502372D02*
X18032929Y-28511896D01*
X18032929Y-28511896D02*
X18042453Y-28530944D01*
X18042453Y-28530944D02*
X18042453Y-28549991D01*
X18042453Y-28549991D02*
X18032929Y-28578563D01*
X18032929Y-28578563D02*
X17918643Y-28692849D01*
X17918643Y-28692849D02*
X18042453Y-28692849D01*
X18118643Y-28492849D02*
X18118643Y-28530944D01*
X18194834Y-28492849D02*
X18194834Y-28530944D01*
X18490072Y-28769039D02*
X18480548Y-28759515D01*
X18480548Y-28759515D02*
X18461500Y-28730944D01*
X18461500Y-28730944D02*
X18451977Y-28711896D01*
X18451977Y-28711896D02*
X18442453Y-28683325D01*
X18442453Y-28683325D02*
X18432929Y-28635706D01*
X18432929Y-28635706D02*
X18432929Y-28597611D01*
X18432929Y-28597611D02*
X18442453Y-28549991D01*
X18442453Y-28549991D02*
X18451977Y-28521420D01*
X18451977Y-28521420D02*
X18461500Y-28502372D01*
X18461500Y-28502372D02*
X18480548Y-28473801D01*
X18480548Y-28473801D02*
X18490072Y-28464277D01*
X18651977Y-28559515D02*
X18651977Y-28692849D01*
X18604357Y-28483325D02*
X18556738Y-28626182D01*
X18556738Y-28626182D02*
X18680548Y-28626182D01*
X18737691Y-28492849D02*
X18861500Y-28492849D01*
X18861500Y-28492849D02*
X18794834Y-28569039D01*
X18794834Y-28569039D02*
X18823405Y-28569039D01*
X18823405Y-28569039D02*
X18842453Y-28578563D01*
X18842453Y-28578563D02*
X18851977Y-28588087D01*
X18851977Y-28588087D02*
X18861500Y-28607134D01*
X18861500Y-28607134D02*
X18861500Y-28654753D01*
X18861500Y-28654753D02*
X18851977Y-28673801D01*
X18851977Y-28673801D02*
X18842453Y-28683325D01*
X18842453Y-28683325D02*
X18823405Y-28692849D01*
X18823405Y-28692849D02*
X18766262Y-28692849D01*
X18766262Y-28692849D02*
X18747215Y-28683325D01*
X18747215Y-28683325D02*
X18737691Y-28673801D01*
X19099596Y-28692849D02*
X19099596Y-28492849D01*
X19185310Y-28692849D02*
X19185310Y-28588087D01*
X19185310Y-28588087D02*
X19175786Y-28569039D01*
X19175786Y-28569039D02*
X19156739Y-28559515D01*
X19156739Y-28559515D02*
X19128167Y-28559515D01*
X19128167Y-28559515D02*
X19109119Y-28569039D01*
X19109119Y-28569039D02*
X19099596Y-28578563D01*
X19309119Y-28692849D02*
X19290072Y-28683325D01*
X19290072Y-28683325D02*
X19280548Y-28673801D01*
X19280548Y-28673801D02*
X19271024Y-28654753D01*
X19271024Y-28654753D02*
X19271024Y-28597611D01*
X19271024Y-28597611D02*
X19280548Y-28578563D01*
X19280548Y-28578563D02*
X19290072Y-28569039D01*
X19290072Y-28569039D02*
X19309119Y-28559515D01*
X19309119Y-28559515D02*
X19337691Y-28559515D01*
X19337691Y-28559515D02*
X19356739Y-28569039D01*
X19356739Y-28569039D02*
X19366262Y-28578563D01*
X19366262Y-28578563D02*
X19375786Y-28597611D01*
X19375786Y-28597611D02*
X19375786Y-28654753D01*
X19375786Y-28654753D02*
X19366262Y-28673801D01*
X19366262Y-28673801D02*
X19356739Y-28683325D01*
X19356739Y-28683325D02*
X19337691Y-28692849D01*
X19337691Y-28692849D02*
X19309119Y-28692849D01*
X19490072Y-28692849D02*
X19471024Y-28683325D01*
X19471024Y-28683325D02*
X19461500Y-28664277D01*
X19461500Y-28664277D02*
X19461500Y-28492849D01*
X19642453Y-28683325D02*
X19623405Y-28692849D01*
X19623405Y-28692849D02*
X19585310Y-28692849D01*
X19585310Y-28692849D02*
X19566262Y-28683325D01*
X19566262Y-28683325D02*
X19556739Y-28664277D01*
X19556739Y-28664277D02*
X19556739Y-28588087D01*
X19556739Y-28588087D02*
X19566262Y-28569039D01*
X19566262Y-28569039D02*
X19585310Y-28559515D01*
X19585310Y-28559515D02*
X19623405Y-28559515D01*
X19623405Y-28559515D02*
X19642453Y-28569039D01*
X19642453Y-28569039D02*
X19651977Y-28588087D01*
X19651977Y-28588087D02*
X19651977Y-28607134D01*
X19651977Y-28607134D02*
X19556739Y-28626182D01*
X19728167Y-28683325D02*
X19747215Y-28692849D01*
X19747215Y-28692849D02*
X19785310Y-28692849D01*
X19785310Y-28692849D02*
X19804358Y-28683325D01*
X19804358Y-28683325D02*
X19813881Y-28664277D01*
X19813881Y-28664277D02*
X19813881Y-28654753D01*
X19813881Y-28654753D02*
X19804358Y-28635706D01*
X19804358Y-28635706D02*
X19785310Y-28626182D01*
X19785310Y-28626182D02*
X19756739Y-28626182D01*
X19756739Y-28626182D02*
X19737691Y-28616658D01*
X19737691Y-28616658D02*
X19728167Y-28597611D01*
X19728167Y-28597611D02*
X19728167Y-28588087D01*
X19728167Y-28588087D02*
X19737691Y-28569039D01*
X19737691Y-28569039D02*
X19756739Y-28559515D01*
X19756739Y-28559515D02*
X19785310Y-28559515D01*
X19785310Y-28559515D02*
X19804358Y-28569039D01*
X19880548Y-28769039D02*
X19890072Y-28759515D01*
X19890072Y-28759515D02*
X19909120Y-28730944D01*
X19909120Y-28730944D02*
X19918643Y-28711896D01*
X19918643Y-28711896D02*
X19928167Y-28683325D01*
X19928167Y-28683325D02*
X19937691Y-28635706D01*
X19937691Y-28635706D02*
X19937691Y-28597611D01*
X19937691Y-28597611D02*
X19928167Y-28549991D01*
X19928167Y-28549991D02*
X19918643Y-28521420D01*
X19918643Y-28521420D02*
X19909120Y-28502372D01*
X19909120Y-28502372D02*
X19890072Y-28473801D01*
X19890072Y-28473801D02*
X19880548Y-28464277D01*
D17*
X14775309Y-28795515D02*
X14915009Y-28935215D01*
X14915009Y-28795515D02*
X14775309Y-28935215D01*
X14845159Y-28795515D02*
X14845159Y-28935215D01*
X14775309Y-28865365D02*
X14915009Y-28865365D01*
D11*
X15280548Y-28956849D02*
X15166262Y-28956849D01*
X15223405Y-28956849D02*
X15223405Y-28756849D01*
X15223405Y-28756849D02*
X15204357Y-28785420D01*
X15204357Y-28785420D02*
X15185309Y-28804468D01*
X15185309Y-28804468D02*
X15166262Y-28813991D01*
X15366262Y-28937801D02*
X15375786Y-28947325D01*
X15375786Y-28947325D02*
X15366262Y-28956849D01*
X15366262Y-28956849D02*
X15356738Y-28947325D01*
X15356738Y-28947325D02*
X15366262Y-28937801D01*
X15366262Y-28937801D02*
X15366262Y-28956849D01*
X15442452Y-28756849D02*
X15566262Y-28756849D01*
X15566262Y-28756849D02*
X15499595Y-28833039D01*
X15499595Y-28833039D02*
X15528167Y-28833039D01*
X15528167Y-28833039D02*
X15547214Y-28842563D01*
X15547214Y-28842563D02*
X15556738Y-28852087D01*
X15556738Y-28852087D02*
X15566262Y-28871134D01*
X15566262Y-28871134D02*
X15566262Y-28918753D01*
X15566262Y-28918753D02*
X15556738Y-28937801D01*
X15556738Y-28937801D02*
X15547214Y-28947325D01*
X15547214Y-28947325D02*
X15528167Y-28956849D01*
X15528167Y-28956849D02*
X15471024Y-28956849D01*
X15471024Y-28956849D02*
X15451976Y-28947325D01*
X15451976Y-28947325D02*
X15442452Y-28937801D01*
X15661500Y-28956849D02*
X15699595Y-28956849D01*
X15699595Y-28956849D02*
X15718643Y-28947325D01*
X15718643Y-28947325D02*
X15728167Y-28937801D01*
X15728167Y-28937801D02*
X15747214Y-28909230D01*
X15747214Y-28909230D02*
X15756738Y-28871134D01*
X15756738Y-28871134D02*
X15756738Y-28794944D01*
X15756738Y-28794944D02*
X15747214Y-28775896D01*
X15747214Y-28775896D02*
X15737690Y-28766372D01*
X15737690Y-28766372D02*
X15718643Y-28756849D01*
X15718643Y-28756849D02*
X15680548Y-28756849D01*
X15680548Y-28756849D02*
X15661500Y-28766372D01*
X15661500Y-28766372D02*
X15651976Y-28775896D01*
X15651976Y-28775896D02*
X15642452Y-28794944D01*
X15642452Y-28794944D02*
X15642452Y-28842563D01*
X15642452Y-28842563D02*
X15651976Y-28861611D01*
X15651976Y-28861611D02*
X15661500Y-28871134D01*
X15661500Y-28871134D02*
X15680548Y-28880658D01*
X15680548Y-28880658D02*
X15718643Y-28880658D01*
X15718643Y-28880658D02*
X15737690Y-28871134D01*
X15737690Y-28871134D02*
X15747214Y-28861611D01*
X15747214Y-28861611D02*
X15756738Y-28842563D01*
X15823405Y-28756849D02*
X15956738Y-28756849D01*
X15956738Y-28756849D02*
X15871024Y-28956849D01*
X16032929Y-28956849D02*
X16032929Y-28823515D01*
X16032929Y-28842563D02*
X16042452Y-28833039D01*
X16042452Y-28833039D02*
X16061500Y-28823515D01*
X16061500Y-28823515D02*
X16090071Y-28823515D01*
X16090071Y-28823515D02*
X16109119Y-28833039D01*
X16109119Y-28833039D02*
X16118643Y-28852087D01*
X16118643Y-28852087D02*
X16118643Y-28956849D01*
X16118643Y-28852087D02*
X16128167Y-28833039D01*
X16128167Y-28833039D02*
X16147214Y-28823515D01*
X16147214Y-28823515D02*
X16175786Y-28823515D01*
X16175786Y-28823515D02*
X16194833Y-28833039D01*
X16194833Y-28833039D02*
X16204357Y-28852087D01*
X16204357Y-28852087D02*
X16204357Y-28956849D01*
X16299595Y-28956849D02*
X16299595Y-28823515D01*
X16299595Y-28842563D02*
X16309119Y-28833039D01*
X16309119Y-28833039D02*
X16328167Y-28823515D01*
X16328167Y-28823515D02*
X16356738Y-28823515D01*
X16356738Y-28823515D02*
X16375786Y-28833039D01*
X16375786Y-28833039D02*
X16385310Y-28852087D01*
X16385310Y-28852087D02*
X16385310Y-28956849D01*
X16385310Y-28852087D02*
X16394833Y-28833039D01*
X16394833Y-28833039D02*
X16413881Y-28823515D01*
X16413881Y-28823515D02*
X16442452Y-28823515D01*
X16442452Y-28823515D02*
X16461500Y-28833039D01*
X16461500Y-28833039D02*
X16471024Y-28852087D01*
X16471024Y-28852087D02*
X16471024Y-28956849D01*
X16861500Y-28747325D02*
X16690072Y-29004468D01*
X17118643Y-28756849D02*
X17137691Y-28756849D01*
X17137691Y-28756849D02*
X17156738Y-28766372D01*
X17156738Y-28766372D02*
X17166262Y-28775896D01*
X17166262Y-28775896D02*
X17175786Y-28794944D01*
X17175786Y-28794944D02*
X17185310Y-28833039D01*
X17185310Y-28833039D02*
X17185310Y-28880658D01*
X17185310Y-28880658D02*
X17175786Y-28918753D01*
X17175786Y-28918753D02*
X17166262Y-28937801D01*
X17166262Y-28937801D02*
X17156738Y-28947325D01*
X17156738Y-28947325D02*
X17137691Y-28956849D01*
X17137691Y-28956849D02*
X17118643Y-28956849D01*
X17118643Y-28956849D02*
X17099595Y-28947325D01*
X17099595Y-28947325D02*
X17090072Y-28937801D01*
X17090072Y-28937801D02*
X17080548Y-28918753D01*
X17080548Y-28918753D02*
X17071024Y-28880658D01*
X17071024Y-28880658D02*
X17071024Y-28833039D01*
X17071024Y-28833039D02*
X17080548Y-28794944D01*
X17080548Y-28794944D02*
X17090072Y-28775896D01*
X17090072Y-28775896D02*
X17099595Y-28766372D01*
X17099595Y-28766372D02*
X17118643Y-28756849D01*
X17271024Y-28937801D02*
X17280548Y-28947325D01*
X17280548Y-28947325D02*
X17271024Y-28956849D01*
X17271024Y-28956849D02*
X17261500Y-28947325D01*
X17261500Y-28947325D02*
X17271024Y-28937801D01*
X17271024Y-28937801D02*
X17271024Y-28956849D01*
X17404357Y-28756849D02*
X17423405Y-28756849D01*
X17423405Y-28756849D02*
X17442453Y-28766372D01*
X17442453Y-28766372D02*
X17451976Y-28775896D01*
X17451976Y-28775896D02*
X17461500Y-28794944D01*
X17461500Y-28794944D02*
X17471024Y-28833039D01*
X17471024Y-28833039D02*
X17471024Y-28880658D01*
X17471024Y-28880658D02*
X17461500Y-28918753D01*
X17461500Y-28918753D02*
X17451976Y-28937801D01*
X17451976Y-28937801D02*
X17442453Y-28947325D01*
X17442453Y-28947325D02*
X17423405Y-28956849D01*
X17423405Y-28956849D02*
X17404357Y-28956849D01*
X17404357Y-28956849D02*
X17385310Y-28947325D01*
X17385310Y-28947325D02*
X17375786Y-28937801D01*
X17375786Y-28937801D02*
X17366262Y-28918753D01*
X17366262Y-28918753D02*
X17356738Y-28880658D01*
X17356738Y-28880658D02*
X17356738Y-28833039D01*
X17356738Y-28833039D02*
X17366262Y-28794944D01*
X17366262Y-28794944D02*
X17375786Y-28775896D01*
X17375786Y-28775896D02*
X17385310Y-28766372D01*
X17385310Y-28766372D02*
X17404357Y-28756849D01*
X17651976Y-28756849D02*
X17556738Y-28756849D01*
X17556738Y-28756849D02*
X17547215Y-28852087D01*
X17547215Y-28852087D02*
X17556738Y-28842563D01*
X17556738Y-28842563D02*
X17575786Y-28833039D01*
X17575786Y-28833039D02*
X17623405Y-28833039D01*
X17623405Y-28833039D02*
X17642453Y-28842563D01*
X17642453Y-28842563D02*
X17651976Y-28852087D01*
X17651976Y-28852087D02*
X17661500Y-28871134D01*
X17661500Y-28871134D02*
X17661500Y-28918753D01*
X17661500Y-28918753D02*
X17651976Y-28937801D01*
X17651976Y-28937801D02*
X17642453Y-28947325D01*
X17642453Y-28947325D02*
X17623405Y-28956849D01*
X17623405Y-28956849D02*
X17575786Y-28956849D01*
X17575786Y-28956849D02*
X17556738Y-28947325D01*
X17556738Y-28947325D02*
X17547215Y-28937801D01*
X17842453Y-28756849D02*
X17747215Y-28756849D01*
X17747215Y-28756849D02*
X17737691Y-28852087D01*
X17737691Y-28852087D02*
X17747215Y-28842563D01*
X17747215Y-28842563D02*
X17766262Y-28833039D01*
X17766262Y-28833039D02*
X17813881Y-28833039D01*
X17813881Y-28833039D02*
X17832929Y-28842563D01*
X17832929Y-28842563D02*
X17842453Y-28852087D01*
X17842453Y-28852087D02*
X17851976Y-28871134D01*
X17851976Y-28871134D02*
X17851976Y-28918753D01*
X17851976Y-28918753D02*
X17842453Y-28937801D01*
X17842453Y-28937801D02*
X17832929Y-28947325D01*
X17832929Y-28947325D02*
X17813881Y-28956849D01*
X17813881Y-28956849D02*
X17766262Y-28956849D01*
X17766262Y-28956849D02*
X17747215Y-28947325D01*
X17747215Y-28947325D02*
X17737691Y-28937801D01*
X17975786Y-28756849D02*
X17994834Y-28756849D01*
X17994834Y-28756849D02*
X18013881Y-28766372D01*
X18013881Y-28766372D02*
X18023405Y-28775896D01*
X18023405Y-28775896D02*
X18032929Y-28794944D01*
X18032929Y-28794944D02*
X18042453Y-28833039D01*
X18042453Y-28833039D02*
X18042453Y-28880658D01*
X18042453Y-28880658D02*
X18032929Y-28918753D01*
X18032929Y-28918753D02*
X18023405Y-28937801D01*
X18023405Y-28937801D02*
X18013881Y-28947325D01*
X18013881Y-28947325D02*
X17994834Y-28956849D01*
X17994834Y-28956849D02*
X17975786Y-28956849D01*
X17975786Y-28956849D02*
X17956738Y-28947325D01*
X17956738Y-28947325D02*
X17947215Y-28937801D01*
X17947215Y-28937801D02*
X17937691Y-28918753D01*
X17937691Y-28918753D02*
X17928167Y-28880658D01*
X17928167Y-28880658D02*
X17928167Y-28833039D01*
X17928167Y-28833039D02*
X17937691Y-28794944D01*
X17937691Y-28794944D02*
X17947215Y-28775896D01*
X17947215Y-28775896D02*
X17956738Y-28766372D01*
X17956738Y-28766372D02*
X17975786Y-28756849D01*
X18118643Y-28756849D02*
X18118643Y-28794944D01*
X18194834Y-28756849D02*
X18194834Y-28794944D01*
X18490072Y-29033039D02*
X18480548Y-29023515D01*
X18480548Y-29023515D02*
X18461500Y-28994944D01*
X18461500Y-28994944D02*
X18451977Y-28975896D01*
X18451977Y-28975896D02*
X18442453Y-28947325D01*
X18442453Y-28947325D02*
X18432929Y-28899706D01*
X18432929Y-28899706D02*
X18432929Y-28861611D01*
X18432929Y-28861611D02*
X18442453Y-28813991D01*
X18442453Y-28813991D02*
X18451977Y-28785420D01*
X18451977Y-28785420D02*
X18461500Y-28766372D01*
X18461500Y-28766372D02*
X18480548Y-28737801D01*
X18480548Y-28737801D02*
X18490072Y-28728277D01*
X18651977Y-28823515D02*
X18651977Y-28956849D01*
X18604357Y-28747325D02*
X18556738Y-28890182D01*
X18556738Y-28890182D02*
X18680548Y-28890182D01*
X18909119Y-28956849D02*
X18909119Y-28756849D01*
X18994834Y-28956849D02*
X18994834Y-28852087D01*
X18994834Y-28852087D02*
X18985310Y-28833039D01*
X18985310Y-28833039D02*
X18966262Y-28823515D01*
X18966262Y-28823515D02*
X18937691Y-28823515D01*
X18937691Y-28823515D02*
X18918643Y-28833039D01*
X18918643Y-28833039D02*
X18909119Y-28842563D01*
X19118643Y-28956849D02*
X19099596Y-28947325D01*
X19099596Y-28947325D02*
X19090072Y-28937801D01*
X19090072Y-28937801D02*
X19080548Y-28918753D01*
X19080548Y-28918753D02*
X19080548Y-28861611D01*
X19080548Y-28861611D02*
X19090072Y-28842563D01*
X19090072Y-28842563D02*
X19099596Y-28833039D01*
X19099596Y-28833039D02*
X19118643Y-28823515D01*
X19118643Y-28823515D02*
X19147215Y-28823515D01*
X19147215Y-28823515D02*
X19166262Y-28833039D01*
X19166262Y-28833039D02*
X19175786Y-28842563D01*
X19175786Y-28842563D02*
X19185310Y-28861611D01*
X19185310Y-28861611D02*
X19185310Y-28918753D01*
X19185310Y-28918753D02*
X19175786Y-28937801D01*
X19175786Y-28937801D02*
X19166262Y-28947325D01*
X19166262Y-28947325D02*
X19147215Y-28956849D01*
X19147215Y-28956849D02*
X19118643Y-28956849D01*
X19299596Y-28956849D02*
X19280548Y-28947325D01*
X19280548Y-28947325D02*
X19271024Y-28928277D01*
X19271024Y-28928277D02*
X19271024Y-28756849D01*
X19451977Y-28947325D02*
X19432929Y-28956849D01*
X19432929Y-28956849D02*
X19394834Y-28956849D01*
X19394834Y-28956849D02*
X19375786Y-28947325D01*
X19375786Y-28947325D02*
X19366262Y-28928277D01*
X19366262Y-28928277D02*
X19366262Y-28852087D01*
X19366262Y-28852087D02*
X19375786Y-28833039D01*
X19375786Y-28833039D02*
X19394834Y-28823515D01*
X19394834Y-28823515D02*
X19432929Y-28823515D01*
X19432929Y-28823515D02*
X19451977Y-28833039D01*
X19451977Y-28833039D02*
X19461500Y-28852087D01*
X19461500Y-28852087D02*
X19461500Y-28871134D01*
X19461500Y-28871134D02*
X19366262Y-28890182D01*
X19537691Y-28947325D02*
X19556739Y-28956849D01*
X19556739Y-28956849D02*
X19594834Y-28956849D01*
X19594834Y-28956849D02*
X19613881Y-28947325D01*
X19613881Y-28947325D02*
X19623405Y-28928277D01*
X19623405Y-28928277D02*
X19623405Y-28918753D01*
X19623405Y-28918753D02*
X19613881Y-28899706D01*
X19613881Y-28899706D02*
X19594834Y-28890182D01*
X19594834Y-28890182D02*
X19566262Y-28890182D01*
X19566262Y-28890182D02*
X19547215Y-28880658D01*
X19547215Y-28880658D02*
X19537691Y-28861611D01*
X19537691Y-28861611D02*
X19537691Y-28852087D01*
X19537691Y-28852087D02*
X19547215Y-28833039D01*
X19547215Y-28833039D02*
X19566262Y-28823515D01*
X19566262Y-28823515D02*
X19594834Y-28823515D01*
X19594834Y-28823515D02*
X19613881Y-28833039D01*
X19690072Y-29033039D02*
X19699596Y-29023515D01*
X19699596Y-29023515D02*
X19718643Y-28994944D01*
X19718643Y-28994944D02*
X19728167Y-28975896D01*
X19728167Y-28975896D02*
X19737691Y-28947325D01*
X19737691Y-28947325D02*
X19747215Y-28899706D01*
X19747215Y-28899706D02*
X19747215Y-28861611D01*
X19747215Y-28861611D02*
X19737691Y-28813991D01*
X19737691Y-28813991D02*
X19728167Y-28785420D01*
X19728167Y-28785420D02*
X19718643Y-28766372D01*
X19718643Y-28766372D02*
X19699596Y-28737801D01*
X19699596Y-28737801D02*
X19690072Y-28728277D01*
D18*
X14765009Y-29054365D02*
X14915009Y-29204365D01*
X14915009Y-29054365D02*
X14765009Y-29204365D01*
X14893042Y-29182398D02*
X14893042Y-29076331D01*
X14786975Y-29076331D01*
X14786975Y-29182398D01*
X14893042Y-29182398D01*
D11*
X15280548Y-29220849D02*
X15166262Y-29220849D01*
X15223405Y-29220849D02*
X15223405Y-29020849D01*
X15223405Y-29020849D02*
X15204357Y-29049420D01*
X15204357Y-29049420D02*
X15185309Y-29068468D01*
X15185309Y-29068468D02*
X15166262Y-29077991D01*
X15366262Y-29201801D02*
X15375786Y-29211325D01*
X15375786Y-29211325D02*
X15366262Y-29220849D01*
X15366262Y-29220849D02*
X15356738Y-29211325D01*
X15356738Y-29211325D02*
X15366262Y-29201801D01*
X15366262Y-29201801D02*
X15366262Y-29220849D01*
X15556738Y-29020849D02*
X15461500Y-29020849D01*
X15461500Y-29020849D02*
X15451976Y-29116087D01*
X15451976Y-29116087D02*
X15461500Y-29106563D01*
X15461500Y-29106563D02*
X15480548Y-29097039D01*
X15480548Y-29097039D02*
X15528167Y-29097039D01*
X15528167Y-29097039D02*
X15547214Y-29106563D01*
X15547214Y-29106563D02*
X15556738Y-29116087D01*
X15556738Y-29116087D02*
X15566262Y-29135134D01*
X15566262Y-29135134D02*
X15566262Y-29182753D01*
X15566262Y-29182753D02*
X15556738Y-29201801D01*
X15556738Y-29201801D02*
X15547214Y-29211325D01*
X15547214Y-29211325D02*
X15528167Y-29220849D01*
X15528167Y-29220849D02*
X15480548Y-29220849D01*
X15480548Y-29220849D02*
X15461500Y-29211325D01*
X15461500Y-29211325D02*
X15451976Y-29201801D01*
X15690071Y-29020849D02*
X15709119Y-29020849D01*
X15709119Y-29020849D02*
X15728167Y-29030372D01*
X15728167Y-29030372D02*
X15737690Y-29039896D01*
X15737690Y-29039896D02*
X15747214Y-29058944D01*
X15747214Y-29058944D02*
X15756738Y-29097039D01*
X15756738Y-29097039D02*
X15756738Y-29144658D01*
X15756738Y-29144658D02*
X15747214Y-29182753D01*
X15747214Y-29182753D02*
X15737690Y-29201801D01*
X15737690Y-29201801D02*
X15728167Y-29211325D01*
X15728167Y-29211325D02*
X15709119Y-29220849D01*
X15709119Y-29220849D02*
X15690071Y-29220849D01*
X15690071Y-29220849D02*
X15671024Y-29211325D01*
X15671024Y-29211325D02*
X15661500Y-29201801D01*
X15661500Y-29201801D02*
X15651976Y-29182753D01*
X15651976Y-29182753D02*
X15642452Y-29144658D01*
X15642452Y-29144658D02*
X15642452Y-29097039D01*
X15642452Y-29097039D02*
X15651976Y-29058944D01*
X15651976Y-29058944D02*
X15661500Y-29039896D01*
X15661500Y-29039896D02*
X15671024Y-29030372D01*
X15671024Y-29030372D02*
X15690071Y-29020849D01*
X15880548Y-29020849D02*
X15899595Y-29020849D01*
X15899595Y-29020849D02*
X15918643Y-29030372D01*
X15918643Y-29030372D02*
X15928167Y-29039896D01*
X15928167Y-29039896D02*
X15937690Y-29058944D01*
X15937690Y-29058944D02*
X15947214Y-29097039D01*
X15947214Y-29097039D02*
X15947214Y-29144658D01*
X15947214Y-29144658D02*
X15937690Y-29182753D01*
X15937690Y-29182753D02*
X15928167Y-29201801D01*
X15928167Y-29201801D02*
X15918643Y-29211325D01*
X15918643Y-29211325D02*
X15899595Y-29220849D01*
X15899595Y-29220849D02*
X15880548Y-29220849D01*
X15880548Y-29220849D02*
X15861500Y-29211325D01*
X15861500Y-29211325D02*
X15851976Y-29201801D01*
X15851976Y-29201801D02*
X15842452Y-29182753D01*
X15842452Y-29182753D02*
X15832929Y-29144658D01*
X15832929Y-29144658D02*
X15832929Y-29097039D01*
X15832929Y-29097039D02*
X15842452Y-29058944D01*
X15842452Y-29058944D02*
X15851976Y-29039896D01*
X15851976Y-29039896D02*
X15861500Y-29030372D01*
X15861500Y-29030372D02*
X15880548Y-29020849D01*
X16032929Y-29220849D02*
X16032929Y-29087515D01*
X16032929Y-29106563D02*
X16042452Y-29097039D01*
X16042452Y-29097039D02*
X16061500Y-29087515D01*
X16061500Y-29087515D02*
X16090071Y-29087515D01*
X16090071Y-29087515D02*
X16109119Y-29097039D01*
X16109119Y-29097039D02*
X16118643Y-29116087D01*
X16118643Y-29116087D02*
X16118643Y-29220849D01*
X16118643Y-29116087D02*
X16128167Y-29097039D01*
X16128167Y-29097039D02*
X16147214Y-29087515D01*
X16147214Y-29087515D02*
X16175786Y-29087515D01*
X16175786Y-29087515D02*
X16194833Y-29097039D01*
X16194833Y-29097039D02*
X16204357Y-29116087D01*
X16204357Y-29116087D02*
X16204357Y-29220849D01*
X16299595Y-29220849D02*
X16299595Y-29087515D01*
X16299595Y-29106563D02*
X16309119Y-29097039D01*
X16309119Y-29097039D02*
X16328167Y-29087515D01*
X16328167Y-29087515D02*
X16356738Y-29087515D01*
X16356738Y-29087515D02*
X16375786Y-29097039D01*
X16375786Y-29097039D02*
X16385310Y-29116087D01*
X16385310Y-29116087D02*
X16385310Y-29220849D01*
X16385310Y-29116087D02*
X16394833Y-29097039D01*
X16394833Y-29097039D02*
X16413881Y-29087515D01*
X16413881Y-29087515D02*
X16442452Y-29087515D01*
X16442452Y-29087515D02*
X16461500Y-29097039D01*
X16461500Y-29097039D02*
X16471024Y-29116087D01*
X16471024Y-29116087D02*
X16471024Y-29220849D01*
X16861500Y-29011325D02*
X16690072Y-29268468D01*
X17118643Y-29020849D02*
X17137691Y-29020849D01*
X17137691Y-29020849D02*
X17156738Y-29030372D01*
X17156738Y-29030372D02*
X17166262Y-29039896D01*
X17166262Y-29039896D02*
X17175786Y-29058944D01*
X17175786Y-29058944D02*
X17185310Y-29097039D01*
X17185310Y-29097039D02*
X17185310Y-29144658D01*
X17185310Y-29144658D02*
X17175786Y-29182753D01*
X17175786Y-29182753D02*
X17166262Y-29201801D01*
X17166262Y-29201801D02*
X17156738Y-29211325D01*
X17156738Y-29211325D02*
X17137691Y-29220849D01*
X17137691Y-29220849D02*
X17118643Y-29220849D01*
X17118643Y-29220849D02*
X17099595Y-29211325D01*
X17099595Y-29211325D02*
X17090072Y-29201801D01*
X17090072Y-29201801D02*
X17080548Y-29182753D01*
X17080548Y-29182753D02*
X17071024Y-29144658D01*
X17071024Y-29144658D02*
X17071024Y-29097039D01*
X17071024Y-29097039D02*
X17080548Y-29058944D01*
X17080548Y-29058944D02*
X17090072Y-29039896D01*
X17090072Y-29039896D02*
X17099595Y-29030372D01*
X17099595Y-29030372D02*
X17118643Y-29020849D01*
X17271024Y-29201801D02*
X17280548Y-29211325D01*
X17280548Y-29211325D02*
X17271024Y-29220849D01*
X17271024Y-29220849D02*
X17261500Y-29211325D01*
X17261500Y-29211325D02*
X17271024Y-29201801D01*
X17271024Y-29201801D02*
X17271024Y-29220849D01*
X17404357Y-29020849D02*
X17423405Y-29020849D01*
X17423405Y-29020849D02*
X17442453Y-29030372D01*
X17442453Y-29030372D02*
X17451976Y-29039896D01*
X17451976Y-29039896D02*
X17461500Y-29058944D01*
X17461500Y-29058944D02*
X17471024Y-29097039D01*
X17471024Y-29097039D02*
X17471024Y-29144658D01*
X17471024Y-29144658D02*
X17461500Y-29182753D01*
X17461500Y-29182753D02*
X17451976Y-29201801D01*
X17451976Y-29201801D02*
X17442453Y-29211325D01*
X17442453Y-29211325D02*
X17423405Y-29220849D01*
X17423405Y-29220849D02*
X17404357Y-29220849D01*
X17404357Y-29220849D02*
X17385310Y-29211325D01*
X17385310Y-29211325D02*
X17375786Y-29201801D01*
X17375786Y-29201801D02*
X17366262Y-29182753D01*
X17366262Y-29182753D02*
X17356738Y-29144658D01*
X17356738Y-29144658D02*
X17356738Y-29097039D01*
X17356738Y-29097039D02*
X17366262Y-29058944D01*
X17366262Y-29058944D02*
X17375786Y-29039896D01*
X17375786Y-29039896D02*
X17385310Y-29030372D01*
X17385310Y-29030372D02*
X17404357Y-29020849D01*
X17651976Y-29020849D02*
X17556738Y-29020849D01*
X17556738Y-29020849D02*
X17547215Y-29116087D01*
X17547215Y-29116087D02*
X17556738Y-29106563D01*
X17556738Y-29106563D02*
X17575786Y-29097039D01*
X17575786Y-29097039D02*
X17623405Y-29097039D01*
X17623405Y-29097039D02*
X17642453Y-29106563D01*
X17642453Y-29106563D02*
X17651976Y-29116087D01*
X17651976Y-29116087D02*
X17661500Y-29135134D01*
X17661500Y-29135134D02*
X17661500Y-29182753D01*
X17661500Y-29182753D02*
X17651976Y-29201801D01*
X17651976Y-29201801D02*
X17642453Y-29211325D01*
X17642453Y-29211325D02*
X17623405Y-29220849D01*
X17623405Y-29220849D02*
X17575786Y-29220849D01*
X17575786Y-29220849D02*
X17556738Y-29211325D01*
X17556738Y-29211325D02*
X17547215Y-29201801D01*
X17756738Y-29220849D02*
X17794834Y-29220849D01*
X17794834Y-29220849D02*
X17813881Y-29211325D01*
X17813881Y-29211325D02*
X17823405Y-29201801D01*
X17823405Y-29201801D02*
X17842453Y-29173230D01*
X17842453Y-29173230D02*
X17851976Y-29135134D01*
X17851976Y-29135134D02*
X17851976Y-29058944D01*
X17851976Y-29058944D02*
X17842453Y-29039896D01*
X17842453Y-29039896D02*
X17832929Y-29030372D01*
X17832929Y-29030372D02*
X17813881Y-29020849D01*
X17813881Y-29020849D02*
X17775786Y-29020849D01*
X17775786Y-29020849D02*
X17756738Y-29030372D01*
X17756738Y-29030372D02*
X17747215Y-29039896D01*
X17747215Y-29039896D02*
X17737691Y-29058944D01*
X17737691Y-29058944D02*
X17737691Y-29106563D01*
X17737691Y-29106563D02*
X17747215Y-29125611D01*
X17747215Y-29125611D02*
X17756738Y-29135134D01*
X17756738Y-29135134D02*
X17775786Y-29144658D01*
X17775786Y-29144658D02*
X17813881Y-29144658D01*
X17813881Y-29144658D02*
X17832929Y-29135134D01*
X17832929Y-29135134D02*
X17842453Y-29125611D01*
X17842453Y-29125611D02*
X17851976Y-29106563D01*
X18042453Y-29220849D02*
X17928167Y-29220849D01*
X17985310Y-29220849D02*
X17985310Y-29020849D01*
X17985310Y-29020849D02*
X17966262Y-29049420D01*
X17966262Y-29049420D02*
X17947215Y-29068468D01*
X17947215Y-29068468D02*
X17928167Y-29077991D01*
X18118643Y-29020849D02*
X18118643Y-29058944D01*
X18194834Y-29020849D02*
X18194834Y-29058944D01*
X18490072Y-29297039D02*
X18480548Y-29287515D01*
X18480548Y-29287515D02*
X18461500Y-29258944D01*
X18461500Y-29258944D02*
X18451977Y-29239896D01*
X18451977Y-29239896D02*
X18442453Y-29211325D01*
X18442453Y-29211325D02*
X18432929Y-29163706D01*
X18432929Y-29163706D02*
X18432929Y-29125611D01*
X18432929Y-29125611D02*
X18442453Y-29077991D01*
X18442453Y-29077991D02*
X18451977Y-29049420D01*
X18451977Y-29049420D02*
X18461500Y-29030372D01*
X18461500Y-29030372D02*
X18480548Y-29001801D01*
X18480548Y-29001801D02*
X18490072Y-28992277D01*
X18604357Y-29020849D02*
X18623405Y-29020849D01*
X18623405Y-29020849D02*
X18642453Y-29030372D01*
X18642453Y-29030372D02*
X18651977Y-29039896D01*
X18651977Y-29039896D02*
X18661500Y-29058944D01*
X18661500Y-29058944D02*
X18671024Y-29097039D01*
X18671024Y-29097039D02*
X18671024Y-29144658D01*
X18671024Y-29144658D02*
X18661500Y-29182753D01*
X18661500Y-29182753D02*
X18651977Y-29201801D01*
X18651977Y-29201801D02*
X18642453Y-29211325D01*
X18642453Y-29211325D02*
X18623405Y-29220849D01*
X18623405Y-29220849D02*
X18604357Y-29220849D01*
X18604357Y-29220849D02*
X18585310Y-29211325D01*
X18585310Y-29211325D02*
X18575786Y-29201801D01*
X18575786Y-29201801D02*
X18566262Y-29182753D01*
X18566262Y-29182753D02*
X18556738Y-29144658D01*
X18556738Y-29144658D02*
X18556738Y-29097039D01*
X18556738Y-29097039D02*
X18566262Y-29058944D01*
X18566262Y-29058944D02*
X18575786Y-29039896D01*
X18575786Y-29039896D02*
X18585310Y-29030372D01*
X18585310Y-29030372D02*
X18604357Y-29020849D01*
X18909119Y-29220849D02*
X18909119Y-29020849D01*
X18994834Y-29220849D02*
X18994834Y-29116087D01*
X18994834Y-29116087D02*
X18985310Y-29097039D01*
X18985310Y-29097039D02*
X18966262Y-29087515D01*
X18966262Y-29087515D02*
X18937691Y-29087515D01*
X18937691Y-29087515D02*
X18918643Y-29097039D01*
X18918643Y-29097039D02*
X18909119Y-29106563D01*
X19118643Y-29220849D02*
X19099596Y-29211325D01*
X19099596Y-29211325D02*
X19090072Y-29201801D01*
X19090072Y-29201801D02*
X19080548Y-29182753D01*
X19080548Y-29182753D02*
X19080548Y-29125611D01*
X19080548Y-29125611D02*
X19090072Y-29106563D01*
X19090072Y-29106563D02*
X19099596Y-29097039D01*
X19099596Y-29097039D02*
X19118643Y-29087515D01*
X19118643Y-29087515D02*
X19147215Y-29087515D01*
X19147215Y-29087515D02*
X19166262Y-29097039D01*
X19166262Y-29097039D02*
X19175786Y-29106563D01*
X19175786Y-29106563D02*
X19185310Y-29125611D01*
X19185310Y-29125611D02*
X19185310Y-29182753D01*
X19185310Y-29182753D02*
X19175786Y-29201801D01*
X19175786Y-29201801D02*
X19166262Y-29211325D01*
X19166262Y-29211325D02*
X19147215Y-29220849D01*
X19147215Y-29220849D02*
X19118643Y-29220849D01*
X19299596Y-29220849D02*
X19280548Y-29211325D01*
X19280548Y-29211325D02*
X19271024Y-29192277D01*
X19271024Y-29192277D02*
X19271024Y-29020849D01*
X19451977Y-29211325D02*
X19432929Y-29220849D01*
X19432929Y-29220849D02*
X19394834Y-29220849D01*
X19394834Y-29220849D02*
X19375786Y-29211325D01*
X19375786Y-29211325D02*
X19366262Y-29192277D01*
X19366262Y-29192277D02*
X19366262Y-29116087D01*
X19366262Y-29116087D02*
X19375786Y-29097039D01*
X19375786Y-29097039D02*
X19394834Y-29087515D01*
X19394834Y-29087515D02*
X19432929Y-29087515D01*
X19432929Y-29087515D02*
X19451977Y-29097039D01*
X19451977Y-29097039D02*
X19461500Y-29116087D01*
X19461500Y-29116087D02*
X19461500Y-29135134D01*
X19461500Y-29135134D02*
X19366262Y-29154182D01*
X19537691Y-29211325D02*
X19556739Y-29220849D01*
X19556739Y-29220849D02*
X19594834Y-29220849D01*
X19594834Y-29220849D02*
X19613881Y-29211325D01*
X19613881Y-29211325D02*
X19623405Y-29192277D01*
X19623405Y-29192277D02*
X19623405Y-29182753D01*
X19623405Y-29182753D02*
X19613881Y-29163706D01*
X19613881Y-29163706D02*
X19594834Y-29154182D01*
X19594834Y-29154182D02*
X19566262Y-29154182D01*
X19566262Y-29154182D02*
X19547215Y-29144658D01*
X19547215Y-29144658D02*
X19537691Y-29125611D01*
X19537691Y-29125611D02*
X19537691Y-29116087D01*
X19537691Y-29116087D02*
X19547215Y-29097039D01*
X19547215Y-29097039D02*
X19566262Y-29087515D01*
X19566262Y-29087515D02*
X19594834Y-29087515D01*
X19594834Y-29087515D02*
X19613881Y-29097039D01*
X19861501Y-29144658D02*
X20013882Y-29144658D01*
X19937691Y-29220849D02*
X19937691Y-29068468D01*
X20251977Y-29039896D02*
X20261501Y-29030372D01*
X20261501Y-29030372D02*
X20280548Y-29020849D01*
X20280548Y-29020849D02*
X20328167Y-29020849D01*
X20328167Y-29020849D02*
X20347215Y-29030372D01*
X20347215Y-29030372D02*
X20356739Y-29039896D01*
X20356739Y-29039896D02*
X20366262Y-29058944D01*
X20366262Y-29058944D02*
X20366262Y-29077991D01*
X20366262Y-29077991D02*
X20356739Y-29106563D01*
X20356739Y-29106563D02*
X20242453Y-29220849D01*
X20242453Y-29220849D02*
X20366262Y-29220849D01*
X20594834Y-29211325D02*
X20613882Y-29220849D01*
X20613882Y-29220849D02*
X20651977Y-29220849D01*
X20651977Y-29220849D02*
X20671024Y-29211325D01*
X20671024Y-29211325D02*
X20680548Y-29192277D01*
X20680548Y-29192277D02*
X20680548Y-29182753D01*
X20680548Y-29182753D02*
X20671024Y-29163706D01*
X20671024Y-29163706D02*
X20651977Y-29154182D01*
X20651977Y-29154182D02*
X20623405Y-29154182D01*
X20623405Y-29154182D02*
X20604358Y-29144658D01*
X20604358Y-29144658D02*
X20594834Y-29125611D01*
X20594834Y-29125611D02*
X20594834Y-29116087D01*
X20594834Y-29116087D02*
X20604358Y-29097039D01*
X20604358Y-29097039D02*
X20623405Y-29087515D01*
X20623405Y-29087515D02*
X20651977Y-29087515D01*
X20651977Y-29087515D02*
X20671024Y-29097039D01*
X20794834Y-29220849D02*
X20775786Y-29211325D01*
X20775786Y-29211325D02*
X20766263Y-29192277D01*
X20766263Y-29192277D02*
X20766263Y-29020849D01*
X20899596Y-29220849D02*
X20880548Y-29211325D01*
X20880548Y-29211325D02*
X20871024Y-29201801D01*
X20871024Y-29201801D02*
X20861501Y-29182753D01*
X20861501Y-29182753D02*
X20861501Y-29125611D01*
X20861501Y-29125611D02*
X20871024Y-29106563D01*
X20871024Y-29106563D02*
X20880548Y-29097039D01*
X20880548Y-29097039D02*
X20899596Y-29087515D01*
X20899596Y-29087515D02*
X20928167Y-29087515D01*
X20928167Y-29087515D02*
X20947215Y-29097039D01*
X20947215Y-29097039D02*
X20956739Y-29106563D01*
X20956739Y-29106563D02*
X20966263Y-29125611D01*
X20966263Y-29125611D02*
X20966263Y-29182753D01*
X20966263Y-29182753D02*
X20956739Y-29201801D01*
X20956739Y-29201801D02*
X20947215Y-29211325D01*
X20947215Y-29211325D02*
X20928167Y-29220849D01*
X20928167Y-29220849D02*
X20899596Y-29220849D01*
X21023405Y-29087515D02*
X21099596Y-29087515D01*
X21051977Y-29020849D02*
X21051977Y-29192277D01*
X21051977Y-29192277D02*
X21061501Y-29211325D01*
X21061501Y-29211325D02*
X21080548Y-29220849D01*
X21080548Y-29220849D02*
X21099596Y-29220849D01*
X21156739Y-29211325D02*
X21175786Y-29220849D01*
X21175786Y-29220849D02*
X21213882Y-29220849D01*
X21213882Y-29220849D02*
X21232929Y-29211325D01*
X21232929Y-29211325D02*
X21242453Y-29192277D01*
X21242453Y-29192277D02*
X21242453Y-29182753D01*
X21242453Y-29182753D02*
X21232929Y-29163706D01*
X21232929Y-29163706D02*
X21213882Y-29154182D01*
X21213882Y-29154182D02*
X21185310Y-29154182D01*
X21185310Y-29154182D02*
X21166263Y-29144658D01*
X21166263Y-29144658D02*
X21156739Y-29125611D01*
X21156739Y-29125611D02*
X21156739Y-29116087D01*
X21156739Y-29116087D02*
X21166263Y-29097039D01*
X21166263Y-29097039D02*
X21185310Y-29087515D01*
X21185310Y-29087515D02*
X21213882Y-29087515D01*
X21213882Y-29087515D02*
X21232929Y-29097039D01*
X21309120Y-29297039D02*
X21318644Y-29287515D01*
X21318644Y-29287515D02*
X21337691Y-29258944D01*
X21337691Y-29258944D02*
X21347215Y-29239896D01*
X21347215Y-29239896D02*
X21356739Y-29211325D01*
X21356739Y-29211325D02*
X21366263Y-29163706D01*
X21366263Y-29163706D02*
X21366263Y-29125611D01*
X21366263Y-29125611D02*
X21356739Y-29077991D01*
X21356739Y-29077991D02*
X21347215Y-29049420D01*
X21347215Y-29049420D02*
X21337691Y-29030372D01*
X21337691Y-29030372D02*
X21318644Y-29001801D01*
X21318644Y-29001801D02*
X21309120Y-28992277D01*
M02*
