<svg xmlns="http://www.w3.org/2000/svg" viewBox="0 0 1041.27 252.99"><defs><style>.cls-1{fill:none;stroke:#000;stroke-linecap:round;stroke-linejoin:round;stroke-width:0.71px;}</style></defs><g id="Layer_2" data-name="Layer 2"><g id="Top_3" data-name="Top 3"><path class="cls-1" d="M1035.25.35H728.76L495,48.55H436L202.26.35H6A5.67,5.67,0,0,0,.35,6V235.63a17,17,0,0,0,17,17H1023.91a17,17,0,0,0,17-17V6A5.67,5.67,0,0,0,1035.25.35Z"/><g id="SPLINE"><path class="cls-1" d="M34.05,226.42a.68.68,0,0,0-.35.1l-3.39-5.88a.69.69,0,0,0,.36-.6.71.71,0,0,0-1.42,0H22.48a.71.71,0,1,0-1.41,0,.67.67,0,0,0,.36.6L18,226.52a.68.68,0,0,0-.35-.1.71.71,0,1,0,0,1.41.68.68,0,0,0,.35-.1l3.4,5.88a.67.67,0,0,0-.36.6.71.71,0,1,0,1.41,0h6.77a.71.71,0,0,0,1.42,0,.69.69,0,0,0-.36-.6l3.39-5.88a.68.68,0,0,0,.35.1.71.71,0,1,0,0-1.41Z"/></g><g id="SPLINE-2" data-name="SPLINE"><path class="cls-1" d="M289.44,226.42a.71.71,0,0,0-.35.1l-3.39-5.88a.69.69,0,0,0,.36-.6.71.71,0,0,0-1.42,0h-6.76a.71.71,0,1,0-1.42,0,.69.69,0,0,0,.36.6l-3.39,5.88a.71.71,0,1,0,0,1.21l3.39,5.88a.69.69,0,0,0-.36.6.71.71,0,1,0,1.42,0h6.76a.71.71,0,0,0,1.42,0,.69.69,0,0,0-.36-.6l3.39-5.88a.7.7,0,1,0,.35-1.31Z"/></g><g id="SPLINE-3" data-name="SPLINE"><path class="cls-1" d="M658,226.42a.68.68,0,0,0-.35.1l-3.4-5.88a.67.67,0,0,0,.36-.6.71.71,0,1,0-1.41,0h-6.77a.71.71,0,1,0-1.42,0,.69.69,0,0,0,.36.6l-3.39,5.88a.68.68,0,0,0-.35-.1.71.71,0,1,0,0,1.41.68.68,0,0,0,.35-.1l3.39,5.88a.69.69,0,0,0-.36.6.71.71,0,1,0,1.42,0h6.77a.71.71,0,1,0,1.41,0,.67.67,0,0,0-.36-.6l3.4-5.88a.68.68,0,0,0,.35.1.71.71,0,1,0,0-1.41Z"/></g><g id="SPLINE-4" data-name="SPLINE"><path class="cls-1" d="M1023.59,226.42a.68.68,0,0,0-.35.1l-3.39-5.88a.69.69,0,0,0,.36-.6.71.71,0,0,0-1.42,0H1012a.71.71,0,0,0-1.42,0,.68.68,0,0,0,.37.6l-3.4,5.88a.68.68,0,0,0-.35-.1.71.71,0,1,0,0,1.41.68.68,0,0,0,.35-.1l3.4,5.88a.68.68,0,0,0-.37.6.71.71,0,0,0,1.42,0h6.77a.71.71,0,1,0,1.42,0,.69.69,0,0,0-.36-.6l3.39-5.88a.68.68,0,0,0,.35.1.71.71,0,1,0,0-1.41Z"/></g><g id="SPLINE-5" data-name="SPLINE"><path class="cls-1" d="M34.05,19.49a.68.68,0,0,0-.35.1l-3.39-5.88a.69.69,0,0,0,.36-.6.71.71,0,0,0-1.42,0H22.48a.71.71,0,1,0-1.41,0,.67.67,0,0,0,.36.6L18,19.59a.68.68,0,0,0-.35-.1.71.71,0,1,0,0,1.41.68.68,0,0,0,.35-.1l3.4,5.88a.67.67,0,0,0-.36.6.71.71,0,1,0,1.41,0h6.77a.71.71,0,0,0,1.42,0,.69.69,0,0,0-.36-.6L33.7,20.8a.68.68,0,0,0,.35.1.71.71,0,1,0,0-1.41Z"/></g><g id="SPLINE-6" data-name="SPLINE"><path class="cls-1" d="M1023.59,19.49a.68.68,0,0,0-.35.1l-3.39-5.88a.69.69,0,0,0,.36-.6.71.71,0,0,0-1.42,0H1012a.71.71,0,0,0-1.42,0,.68.68,0,0,0,.37.6l-3.4,5.88a.68.68,0,0,0-.35-.1.71.71,0,1,0,0,1.41.68.68,0,0,0,.35-.1l3.4,5.88a.68.68,0,0,0-.37.6.71.71,0,0,0,1.42,0h6.77a.71.71,0,0,0,1.42,0,.69.69,0,0,0-.36-.6l3.39-5.88a.68.68,0,0,0,.35.1.71.71,0,1,0,0-1.41Z"/></g><g id="SPLINE-7" data-name="SPLINE"><path class="cls-1" d="M289.41,40.77a.85.85,0,0,0-.36,0L287,34.35a.72.72,0,0,0,.48-.52.71.71,0,0,0-1.39-.29l-6.62-1.41a.71.71,0,1,0-1.38-.29.68.68,0,0,0,.22.66l-4.54,5a.72.72,0,0,0-.32-.18.71.71,0,0,0-.84.55.69.69,0,0,0,.91.81l2.1,6.45a.72.72,0,0,0-.48.52.71.71,0,1,0,1.39.29l6.62,1.41a.7.7,0,0,0,.54.84.71.71,0,0,0,.84-.54.69.69,0,0,0-.22-.67l4.54-5a.7.7,0,0,0,1.16-.38A.72.72,0,0,0,289.41,40.77Z"/></g><g id="SPLINE-8" data-name="SPLINE"><path class="cls-1" d="M657.62,37.39a.72.72,0,0,0-.32.18l-4.54-5a.71.71,0,0,0,.23-.66.72.72,0,0,0-.84-.55.71.71,0,0,0-.55.84L645,33.56a.71.71,0,0,0-.84-.55.71.71,0,0,0-.54.84.69.69,0,0,0,.47.52L642,40.83a.66.66,0,0,0-.37,0,.71.71,0,1,0,.3,1.38.67.67,0,0,0,.32-.17l4.54,5a.72.72,0,0,0-.23.67.71.71,0,0,0,1.39-.3l6.62-1.4a.71.71,0,0,0,1.38-.3.67.67,0,0,0-.48-.51l2.1-6.46a.66.66,0,0,0,.37,0,.71.71,0,0,0-.3-1.39Z"/></g></g></g></svg>