<svg xmlns="http://www.w3.org/2000/svg" viewBox="0 0 1052.61 252.99"><defs><style>.cls-1{fill:none;stroke:#000;stroke-linecap:round;stroke-linejoin:round;stroke-width:0.71px;}</style></defs><g id="Layer_2" data-name="Layer 2"><g id="Middle"><path class="cls-1" d="M1046.59.35H735L501.26,48.55H441.1L207.35.35H6A5.67,5.67,0,0,0,.35,6V230A22.68,22.68,0,0,0,23,252.64H1029.58A22.68,22.68,0,0,0,1052.26,230V6A5.67,5.67,0,0,0,1046.59.35Z"/><g id="SPLINE"><circle class="cls-1" cx="655.43" cy="221.46" r="3.83"/></g><g id="SPLINE-2" data-name="SPLINE"><circle class="cls-1" cx="286.93" cy="221.46" r="3.83"/></g><g id="SPLINE-3" data-name="SPLINE"><circle class="cls-1" cx="31.54" cy="221.46" r="3.83"/></g><g id="SPLINE-4" data-name="SPLINE"><circle class="cls-1" cx="1021.07" cy="221.46" r="3.83"/></g><g id="SPLINE-5" data-name="SPLINE"><circle class="cls-1" cx="286.93" cy="34.1" r="3.83"/></g><g id="SPLINE-6" data-name="SPLINE"><circle class="cls-1" cx="655.43" cy="34.12" r="3.83"/></g><g id="SPLINE-7" data-name="SPLINE"><circle class="cls-1" cx="1021.07" cy="14.53" r="3.83"/></g><g id="SPLINE-8" data-name="SPLINE"><circle class="cls-1" cx="31.54" cy="14.53" r="3.83"/></g></g></g></svg>