%TF.GenerationSoftware,KiCad,Pcbnew,(6.0.10)*%
%TF.CreationDate,2023-01-18T21:24:14-08:00*%
%TF.ProjectId,OOTstag rev2,4f4f5473-7461-4672-9072-6576322e6b69,rev?*%
%TF.SameCoordinates,Original*%
%TF.FileFunction,Paste,Bot*%
%TF.FilePolarity,Positive*%
%FSLAX46Y46*%
G04 Gerber Fmt 4.6, Leading zero omitted, Abs format (unit mm)*
G04 Created by KiCad (PCBNEW (6.0.10)) date 2023-01-18 21:24:14*
%MOMM*%
%LPD*%
G01*
G04 APERTURE LIST*
G04 Aperture macros list*
%AMRoundRect*
0 Rectangle with rounded corners*
0 $1 Rounding radius*
0 $2 $3 $4 $5 $6 $7 $8 $9 X,Y pos of 4 corners*
0 Add a 4 corners polygon primitive as box body*
4,1,4,$2,$3,$4,$5,$6,$7,$8,$9,$2,$3,0*
0 Add four circle primitives for the rounded corners*
1,1,$1+$1,$2,$3*
1,1,$1+$1,$4,$5*
1,1,$1+$1,$6,$7*
1,1,$1+$1,$8,$9*
0 Add four rect primitives between the rounded corners*
20,1,$1+$1,$2,$3,$4,$5,0*
20,1,$1+$1,$4,$5,$6,$7,0*
20,1,$1+$1,$6,$7,$8,$9,0*
20,1,$1+$1,$8,$9,$2,$3,0*%
G04 Aperture macros list end*
%ADD10R,2.550000X2.500000*%
%ADD11R,1.200000X0.900000*%
%ADD12RoundRect,0.250001X-0.462499X-0.624999X0.462499X-0.624999X0.462499X0.624999X-0.462499X0.624999X0*%
%ADD13RoundRect,0.250001X-0.624999X0.462499X-0.624999X-0.462499X0.624999X-0.462499X0.624999X0.462499X0*%
%ADD14R,1.970000X0.600000*%
%ADD15RoundRect,0.250001X0.462499X0.624999X-0.462499X0.624999X-0.462499X-0.624999X0.462499X-0.624999X0*%
%ADD16R,1.800000X0.600000*%
%ADD17R,2.000000X0.650000*%
%ADD18RoundRect,0.250001X0.624999X-0.462499X0.624999X0.462499X-0.624999X0.462499X-0.624999X-0.462499X0*%
G04 APERTURE END LIST*
D10*
%TO.C,K67*%
X248952500Y-233342500D03*
X235102500Y-235882500D03*
%TD*%
%TO.C,K19*%
X148940000Y-176192500D03*
X135090000Y-178732500D03*
%TD*%
D11*
%TO.C,D24*%
X232100000Y-191812500D03*
X232100000Y-188512500D03*
%TD*%
%TO.C,D57*%
X303537500Y-229912500D03*
X303537500Y-226612500D03*
%TD*%
%TO.C,D4*%
X155900000Y-168000000D03*
X155900000Y-164700000D03*
%TD*%
%TO.C,D76*%
X201143750Y-268012500D03*
X201143750Y-264712500D03*
%TD*%
%TO.C,D45*%
X370212500Y-210862500D03*
X370212500Y-207562500D03*
%TD*%
%TO.C,D86*%
X392697500Y-267906250D03*
X392697500Y-264606250D03*
%TD*%
%TO.C,D18*%
X117800000Y-191812500D03*
X117800000Y-188512500D03*
%TD*%
%TO.C,D60*%
X91606250Y-248962500D03*
X91606250Y-245662500D03*
%TD*%
%TO.C,D74*%
X105893750Y-268012500D03*
X105893750Y-264712500D03*
%TD*%
%TO.C,D65*%
X198762500Y-248962500D03*
X198762500Y-245662500D03*
%TD*%
%TO.C,D39*%
X241625000Y-210862500D03*
X241625000Y-207562500D03*
%TD*%
%TO.C,D86*%
X412442900Y-272244600D03*
X412442900Y-268944600D03*
%TD*%
%TO.C,D48*%
X132087500Y-229912500D03*
X132087500Y-226612500D03*
%TD*%
%TO.C,D64*%
X179712500Y-248962500D03*
X179712500Y-245662500D03*
%TD*%
%TO.C,D9*%
X251150000Y-168000000D03*
X251150000Y-164700000D03*
%TD*%
%TO.C,D86*%
X452200000Y-275750000D03*
X452200000Y-272450000D03*
%TD*%
%TO.C,D80*%
X351162500Y-272775000D03*
X351162500Y-269475000D03*
%TD*%
%TO.C,D43*%
X317825000Y-210862500D03*
X317825000Y-207562500D03*
%TD*%
%TO.C,D68*%
X255912500Y-248962500D03*
X255912500Y-245662500D03*
%TD*%
%TO.C,D37*%
X203525000Y-210862500D03*
X203525000Y-207562500D03*
%TD*%
%TO.C,D32*%
X108275000Y-210862500D03*
X108275000Y-207562500D03*
%TD*%
%TO.C,D41*%
X279725000Y-210862500D03*
X279725000Y-207562500D03*
%TD*%
%TO.C,D28*%
X308300000Y-191812500D03*
X308300000Y-188512500D03*
%TD*%
%TO.C,D62*%
X141612500Y-248962500D03*
X141612500Y-245662500D03*
%TD*%
D12*
%TO.C,R1*%
X440856500Y-209596000D03*
X443831500Y-209596000D03*
%TD*%
D13*
%TO.C,R3*%
X438484000Y-193364500D03*
X438484000Y-196339500D03*
%TD*%
D14*
%TO.C,U4*%
X422109000Y-202342000D03*
X422109000Y-203612000D03*
X422109000Y-204882000D03*
X422109000Y-206152000D03*
X422109000Y-207422000D03*
X422109000Y-208692000D03*
X422109000Y-209962000D03*
X417159000Y-209962000D03*
X417159000Y-208692000D03*
X417159000Y-207422000D03*
X417159000Y-206152000D03*
X417159000Y-204882000D03*
X417159000Y-203612000D03*
X417159000Y-202342000D03*
%TD*%
D11*
%TO.C,D7*%
X213050000Y-168000000D03*
X213050000Y-164700000D03*
%TD*%
%TO.C,D29*%
X339000000Y-191650000D03*
X339000000Y-188350000D03*
%TD*%
D15*
%TO.C,C1*%
X443831500Y-223566000D03*
X440856500Y-223566000D03*
%TD*%
D11*
%TO.C,D23*%
X213050000Y-191812500D03*
X213050000Y-188512500D03*
%TD*%
%TO.C,D61*%
X122562500Y-248962500D03*
X122562500Y-245662500D03*
%TD*%
%TO.C,D25*%
X251150000Y-191812500D03*
X251150000Y-188512500D03*
%TD*%
D16*
%TO.C,IC1*%
X443584000Y-199952000D03*
X443584000Y-200902000D03*
X443584000Y-201852000D03*
X440984000Y-201852000D03*
X440984000Y-199952000D03*
%TD*%
D15*
%TO.C,C4*%
X443831500Y-205532000D03*
X440856500Y-205532000D03*
%TD*%
D11*
%TO.C,D40*%
X260675000Y-210862500D03*
X260675000Y-207562500D03*
%TD*%
%TO.C,D70*%
X294012500Y-248962500D03*
X294012500Y-245662500D03*
%TD*%
%TO.C,D58*%
X334493750Y-229912500D03*
X334493750Y-226612500D03*
%TD*%
%TO.C,D47*%
X113037500Y-229912500D03*
X113037500Y-226612500D03*
%TD*%
%TO.C,D69*%
X274962500Y-248962500D03*
X274962500Y-245662500D03*
%TD*%
%TO.C,D38*%
X222575000Y-210862500D03*
X222575000Y-207562500D03*
%TD*%
%TO.C,D46*%
X84400000Y-228050000D03*
X84400000Y-224750000D03*
%TD*%
%TO.C,D73*%
X82081250Y-268012500D03*
X82081250Y-264712500D03*
%TD*%
%TO.C,D59*%
X370212500Y-229912500D03*
X370212500Y-226612500D03*
%TD*%
%TO.C,D35*%
X165425000Y-210862500D03*
X165425000Y-207562500D03*
%TD*%
D17*
%TO.C,U1*%
X445274000Y-219702000D03*
X445274000Y-217802000D03*
X448694000Y-218752000D03*
%TD*%
D11*
%TO.C,D6*%
X194000000Y-168000000D03*
X194000000Y-164700000D03*
%TD*%
%TO.C,D8*%
X232100000Y-168000000D03*
X232100000Y-164700000D03*
%TD*%
%TO.C,D66*%
X217812500Y-248962500D03*
X217812500Y-245662500D03*
%TD*%
%TO.C,D63*%
X160662500Y-248962500D03*
X160662500Y-245662500D03*
%TD*%
%TO.C,D78*%
X303537500Y-268012500D03*
X303537500Y-264712500D03*
%TD*%
%TO.C,D3*%
X136850000Y-168000000D03*
X136850000Y-164700000D03*
%TD*%
%TO.C,D13*%
X327350000Y-168000000D03*
X327350000Y-164700000D03*
%TD*%
%TO.C,D12*%
X308300000Y-168000000D03*
X308300000Y-164700000D03*
%TD*%
%TO.C,D55*%
X265437500Y-229912500D03*
X265437500Y-226612500D03*
%TD*%
D15*
%TO.C,C2*%
X443831500Y-213914000D03*
X440856500Y-213914000D03*
%TD*%
D11*
%TO.C,D79*%
X332112500Y-272775000D03*
X332112500Y-269475000D03*
%TD*%
%TO.C,D50*%
X170187500Y-229912500D03*
X170187500Y-226612500D03*
%TD*%
%TO.C,D53*%
X227337500Y-229912500D03*
X227337500Y-226612500D03*
%TD*%
%TO.C,D51*%
X189237500Y-229912500D03*
X189237500Y-226612500D03*
%TD*%
%TO.C,D36*%
X184475000Y-210862500D03*
X184475000Y-207562500D03*
%TD*%
%TO.C,D54*%
X246387500Y-229912500D03*
X246387500Y-226612500D03*
%TD*%
%TO.C,D86*%
X431935400Y-275750000D03*
X431935400Y-272450000D03*
%TD*%
D12*
%TO.C,R4*%
X432746500Y-219952000D03*
X435721500Y-219952000D03*
%TD*%
D11*
%TO.C,D71*%
X320206250Y-248962500D03*
X320206250Y-245662500D03*
%TD*%
%TO.C,D77*%
X274962500Y-268012500D03*
X274962500Y-264712500D03*
%TD*%
%TO.C,D5*%
X174950000Y-168000000D03*
X174950000Y-164700000D03*
%TD*%
%TO.C,D14*%
X346400000Y-168000000D03*
X346400000Y-164700000D03*
%TD*%
%TO.C,D15*%
X370212500Y-168000000D03*
X370212500Y-164700000D03*
%TD*%
%TO.C,D42*%
X298775000Y-210862500D03*
X298775000Y-207562500D03*
%TD*%
%TO.C,D30*%
X370212500Y-191812500D03*
X370212500Y-188512500D03*
%TD*%
D18*
%TO.C,R2*%
X435834000Y-196339500D03*
X435834000Y-193364500D03*
%TD*%
D11*
%TO.C,D75*%
X129706250Y-268012500D03*
X129706250Y-264712500D03*
%TD*%
%TO.C,D31*%
X84462500Y-210862500D03*
X84462500Y-207562500D03*
%TD*%
%TO.C,D44*%
X341637500Y-210862500D03*
X341637500Y-207562500D03*
%TD*%
%TO.C,D52*%
X208287500Y-229912500D03*
X208287500Y-226612500D03*
%TD*%
%TO.C,D10*%
X270200000Y-168000000D03*
X270200000Y-164700000D03*
%TD*%
%TO.C,D34*%
X146375000Y-210862500D03*
X146375000Y-207562500D03*
%TD*%
%TO.C,D22*%
X194000000Y-191812500D03*
X194000000Y-188512500D03*
%TD*%
%TO.C,D56*%
X284487500Y-229912500D03*
X284487500Y-226612500D03*
%TD*%
%TO.C,D81*%
X370212500Y-272775000D03*
X370212500Y-269475000D03*
%TD*%
%TO.C,D26*%
X270200000Y-191812500D03*
X270200000Y-188512500D03*
%TD*%
%TO.C,D21*%
X174950000Y-191812500D03*
X174950000Y-188512500D03*
%TD*%
%TO.C,D20*%
X155900000Y-191812500D03*
X155900000Y-188512500D03*
%TD*%
%TO.C,D17*%
X98750000Y-191812500D03*
X98750000Y-188512500D03*
%TD*%
%TO.C,D27*%
X289250000Y-191812500D03*
X289250000Y-188512500D03*
%TD*%
%TO.C,D16*%
X76800000Y-188850000D03*
X76800000Y-185550000D03*
%TD*%
D10*
%TO.C,K21*%
X187040000Y-176192500D03*
X173190000Y-178732500D03*
%TD*%
%TO.C,K36*%
X196565000Y-195242500D03*
X182715000Y-197782500D03*
%TD*%
%TO.C,K59*%
X382302500Y-214292500D03*
X368452500Y-216832500D03*
%TD*%
D11*
%TO.C,D67*%
X236862500Y-248962500D03*
X236862500Y-245662500D03*
%TD*%
%TO.C,D33*%
X127325000Y-210862500D03*
X127325000Y-207562500D03*
%TD*%
%TO.C,D2*%
X117800000Y-168000000D03*
X117800000Y-164700000D03*
%TD*%
%TO.C,D19*%
X136850000Y-191812500D03*
X136850000Y-188512500D03*
%TD*%
%TO.C,D49*%
X151137500Y-229912500D03*
X151137500Y-226612500D03*
%TD*%
%TO.C,D1*%
X98750000Y-168000000D03*
X98750000Y-164700000D03*
%TD*%
D10*
%TO.C,K30*%
X382302500Y-176192500D03*
X368452500Y-178732500D03*
%TD*%
D11*
%TO.C,D72*%
X351162500Y-253725000D03*
X351162500Y-250425000D03*
%TD*%
D15*
%TO.C,C3*%
X422749500Y-215438000D03*
X419774500Y-215438000D03*
%TD*%
D11*
%TO.C,D11*%
X289250000Y-168000000D03*
X289250000Y-164700000D03*
%TD*%
%TO.C,D0*%
X79700000Y-168000000D03*
X79700000Y-164700000D03*
%TD*%
D10*
%TO.C,K28*%
X320390000Y-176192500D03*
X306540000Y-178732500D03*
%TD*%
D18*
%TO.C,C5*%
X442284000Y-196389500D03*
X442284000Y-193414500D03*
%TD*%
D10*
%TO.C,K54*%
X258477500Y-214292500D03*
X244627500Y-216832500D03*
%TD*%
%TO.C,K71*%
X332296250Y-233342500D03*
X318446250Y-235882500D03*
%TD*%
%TO.C,K78*%
X315627500Y-252392500D03*
X301777500Y-254932500D03*
%TD*%
%TO.C,K74*%
X117983750Y-252392500D03*
X104133750Y-254932500D03*
%TD*%
%TO.C,K53*%
X239427500Y-214292500D03*
X225577500Y-216832500D03*
%TD*%
%TO.C,K9*%
X263240000Y-152380000D03*
X249390000Y-154920000D03*
%TD*%
%TO.C,K76*%
X346590300Y-214288200D03*
X332740300Y-216828200D03*
%TD*%
%TO.C,MX_NUM6*%
X444220000Y-261060000D03*
X430370000Y-263600000D03*
%TD*%
%TO.C,K76*%
X98990300Y-214288200D03*
X85140300Y-216828200D03*
%TD*%
%TO.C,K72*%
X363252500Y-238105000D03*
X349402500Y-240645000D03*
%TD*%
%TO.C,K65*%
X210852500Y-233342500D03*
X197002500Y-235882500D03*
%TD*%
%TO.C,K57*%
X315627500Y-214292500D03*
X301777500Y-216832500D03*
%TD*%
%TO.C,K52*%
X220377500Y-214292500D03*
X206527500Y-216832500D03*
%TD*%
%TO.C,K70*%
X306102500Y-233342500D03*
X292252500Y-235882500D03*
%TD*%
%TO.C,K12*%
X320390000Y-152380000D03*
X306540000Y-154920000D03*
%TD*%
%TO.C,K43*%
X329915000Y-195242500D03*
X316065000Y-197782500D03*
%TD*%
%TO.C,K40*%
X272765000Y-195242500D03*
X258915000Y-197782500D03*
%TD*%
%TO.C,K27*%
X301340000Y-176192500D03*
X287490000Y-178732500D03*
%TD*%
%TO.C,K42*%
X310865000Y-195242500D03*
X297015000Y-197782500D03*
%TD*%
%TO.C,K22*%
X206090000Y-176192500D03*
X192240000Y-178732500D03*
%TD*%
%TO.C,K10*%
X282290000Y-152380000D03*
X268440000Y-154920000D03*
%TD*%
%TO.C,K35*%
X177515000Y-195242500D03*
X163665000Y-197782500D03*
%TD*%
%TO.C,K14*%
X358490000Y-152380000D03*
X344640000Y-154920000D03*
%TD*%
%TO.C,K2*%
X129890000Y-152380000D03*
X116040000Y-154920000D03*
%TD*%
%TO.C,K80*%
X363252500Y-257155000D03*
X349402500Y-259695000D03*
%TD*%
%TO.C,K32*%
X120365000Y-195242500D03*
X106515000Y-197782500D03*
%TD*%
%TO.C,MX_NUM5*%
X424720000Y-257914600D03*
X410870000Y-260454600D03*
%TD*%
%TO.C,K68*%
X268002500Y-233342500D03*
X254152500Y-235882500D03*
%TD*%
%TO.C,MX_NUM4*%
X404924600Y-253520000D03*
X391074600Y-256060000D03*
%TD*%
%TO.C,K6*%
X206090000Y-152380000D03*
X192240000Y-154920000D03*
%TD*%
%TO.C,K13*%
X339440000Y-152380000D03*
X325590000Y-154920000D03*
%TD*%
%TO.C,K47*%
X125127500Y-214292500D03*
X111277500Y-216832500D03*
%TD*%
%TO.C,K77*%
X287052500Y-252392500D03*
X273202500Y-254932500D03*
%TD*%
%TO.C,K33*%
X139415000Y-195242500D03*
X125565000Y-197782500D03*
%TD*%
%TO.C,K24*%
X244190000Y-176192500D03*
X230340000Y-178732500D03*
%TD*%
%TO.C,K63*%
X172752500Y-233342500D03*
X158902500Y-235882500D03*
%TD*%
%TO.C,K11*%
X301340000Y-152380000D03*
X287490000Y-154920000D03*
%TD*%
%TO.C,K20*%
X167990000Y-176192500D03*
X154140000Y-178732500D03*
%TD*%
%TO.C,K1*%
X110840000Y-152380000D03*
X96990000Y-154920000D03*
%TD*%
%TO.C,K69*%
X287052500Y-233342500D03*
X273202500Y-235882500D03*
%TD*%
%TO.C,K62*%
X153702500Y-233342500D03*
X139852500Y-235882500D03*
%TD*%
%TO.C,K3*%
X148940000Y-152380000D03*
X135090000Y-154920000D03*
%TD*%
%TO.C,K41*%
X291815000Y-195242500D03*
X277965000Y-197782500D03*
%TD*%
%TO.C,K56*%
X296577500Y-214292500D03*
X282727500Y-216832500D03*
%TD*%
%TO.C,K7*%
X225140000Y-152380000D03*
X211290000Y-154920000D03*
%TD*%
%TO.C,K76*%
X353790300Y-195288200D03*
X339940300Y-197828200D03*
%TD*%
%TO.C,K46*%
X98933750Y-214292500D03*
X85083750Y-216832500D03*
%TD*%
%TO.C,K50*%
X182277500Y-214292500D03*
X168427500Y-216832500D03*
%TD*%
%TO.C,K79*%
X344202500Y-257155000D03*
X330352500Y-259695000D03*
%TD*%
%TO.C,K76*%
X348990300Y-176188200D03*
X335140300Y-178728200D03*
%TD*%
%TO.C,K18*%
X129890000Y-176192500D03*
X116040000Y-178732500D03*
%TD*%
%TO.C,K61*%
X134652500Y-233342500D03*
X120802500Y-235882500D03*
%TD*%
%TO.C,K25*%
X263240000Y-176192500D03*
X249390000Y-178732500D03*
%TD*%
%TO.C,K76*%
X213233750Y-252392500D03*
X199383750Y-254932500D03*
%TD*%
%TO.C,K51*%
X201327500Y-214292500D03*
X187477500Y-216832500D03*
%TD*%
%TO.C,K15*%
X382302500Y-152380000D03*
X368452500Y-154920000D03*
%TD*%
%TO.C,K16*%
X91790000Y-176192500D03*
X77940000Y-178732500D03*
%TD*%
%TO.C,K45*%
X382302500Y-195242500D03*
X368452500Y-197782500D03*
%TD*%
%TO.C,K26*%
X282290000Y-176192500D03*
X268440000Y-178732500D03*
%TD*%
%TO.C,K48*%
X144177500Y-214292500D03*
X130327500Y-216832500D03*
%TD*%
%TO.C,K76*%
X96590300Y-195288200D03*
X82740300Y-197828200D03*
%TD*%
%TO.C,K17*%
X110840000Y-176192500D03*
X96990000Y-178732500D03*
%TD*%
%TO.C,K73*%
X94171250Y-252392500D03*
X80321250Y-254932500D03*
%TD*%
%TO.C,K8*%
X244190000Y-152380000D03*
X230340000Y-154920000D03*
%TD*%
%TO.C,MX_NUM7*%
X464284600Y-261060000D03*
X450434600Y-263600000D03*
%TD*%
%TO.C,K38*%
X234665000Y-195242500D03*
X220815000Y-197782500D03*
%TD*%
%TO.C,K49*%
X163227500Y-214292500D03*
X149377500Y-216832500D03*
%TD*%
%TO.C,K37*%
X215615000Y-195242500D03*
X201765000Y-197782500D03*
%TD*%
%TO.C,K0*%
X91790000Y-152380000D03*
X77940000Y-154920000D03*
%TD*%
%TO.C,K64*%
X191802500Y-233342500D03*
X177952500Y-235882500D03*
%TD*%
%TO.C,K5*%
X187040000Y-152380000D03*
X173190000Y-154920000D03*
%TD*%
%TO.C,K81*%
X382302500Y-257155000D03*
X368452500Y-259695000D03*
%TD*%
%TO.C,K4*%
X167990000Y-152380000D03*
X154140000Y-154920000D03*
%TD*%
%TO.C,K66*%
X229902500Y-233342500D03*
X216052500Y-235882500D03*
%TD*%
%TO.C,K76*%
X103690300Y-233288200D03*
X89840300Y-235828200D03*
%TD*%
%TO.C,K39*%
X253715000Y-195242500D03*
X239865000Y-197782500D03*
%TD*%
%TO.C,K34*%
X158465000Y-195242500D03*
X144615000Y-197782500D03*
%TD*%
%TO.C,K55*%
X277527500Y-214292500D03*
X263677500Y-216832500D03*
%TD*%
%TO.C,K23*%
X225140000Y-176192500D03*
X211290000Y-178732500D03*
%TD*%
%TO.C,K75*%
X141796250Y-252392500D03*
X127946250Y-254932500D03*
%TD*%
M02*
