%TF.GenerationSoftware,KiCad,Pcbnew,(6.0.10)*%
%TF.CreationDate,2023-01-18T21:24:45-08:00*%
%TF.ProjectId,OOTstag rev2,4f4f5473-7461-4672-9072-6576322e6b69,rev?*%
%TF.SameCoordinates,Original*%
%TF.FileFunction,Soldermask,Bot*%
%TF.FilePolarity,Negative*%
%FSLAX46Y46*%
G04 Gerber Fmt 4.6, Leading zero omitted, Abs format (unit mm)*
G04 Created by KiCad (PCBNEW (6.0.10)) date 2023-01-18 21:24:45*
%MOMM*%
%LPD*%
G01*
G04 APERTURE LIST*
G04 Aperture macros list*
%AMRoundRect*
0 Rectangle with rounded corners*
0 $1 Rounding radius*
0 $2 $3 $4 $5 $6 $7 $8 $9 X,Y pos of 4 corners*
0 Add a 4 corners polygon primitive as box body*
4,1,4,$2,$3,$4,$5,$6,$7,$8,$9,$2,$3,0*
0 Add four circle primitives for the rounded corners*
1,1,$1+$1,$2,$3*
1,1,$1+$1,$4,$5*
1,1,$1+$1,$6,$7*
1,1,$1+$1,$8,$9*
0 Add four rect primitives between the rounded corners*
20,1,$1+$1,$2,$3,$4,$5,0*
20,1,$1+$1,$4,$5,$6,$7,0*
20,1,$1+$1,$6,$7,$8,$9,0*
20,1,$1+$1,$8,$9,$2,$3,0*%
G04 Aperture macros list end*
%ADD10C,1.701800*%
%ADD11C,3.000000*%
%ADD12C,3.987800*%
%ADD13R,2.550000X2.500000*%
%ADD14C,2.200000*%
%ADD15R,2.200000X2.200000*%
%ADD16R,1.200000X0.900000*%
%ADD17RoundRect,0.250001X-0.462499X-0.624999X0.462499X-0.624999X0.462499X0.624999X-0.462499X0.624999X0*%
%ADD18RoundRect,0.250001X-0.624999X0.462499X-0.624999X-0.462499X0.624999X-0.462499X0.624999X0.462499X0*%
%ADD19R,1.970000X0.600000*%
%ADD20RoundRect,0.250001X0.462499X0.624999X-0.462499X0.624999X-0.462499X-0.624999X0.462499X-0.624999X0*%
%ADD21R,1.800000X0.600000*%
%ADD22R,2.000000X0.650000*%
%ADD23RoundRect,0.250001X0.624999X-0.462499X0.624999X0.462499X-0.624999X0.462499X-0.624999X-0.462499X0*%
%ADD24R,1.200000X1.200000*%
%ADD25C,1.200000*%
%ADD26C,3.050000*%
%ADD27C,4.000000*%
%ADD28R,1.350000X1.350000*%
%ADD29O,1.350000X1.350000*%
%ADD30O,1.700000X1.700000*%
%ADD31R,1.700000X1.700000*%
%ADD32O,1.500000X1.500000*%
%ADD33O,1.800000X1.800000*%
%ADD34C,3.200000*%
G04 APERTURE END LIST*
D10*
%TO.C,K67*%
X237582500Y-238422500D03*
D11*
X238852500Y-235882500D03*
X245202500Y-233342500D03*
D10*
X247742500Y-238422500D03*
D12*
X242662500Y-238422500D03*
D13*
X248952500Y-233342500D03*
X235102500Y-235882500D03*
D14*
X241367100Y-243527900D03*
D15*
X243932500Y-243527900D03*
%TD*%
D11*
%TO.C,K19*%
X145190000Y-176192500D03*
X138840000Y-178732500D03*
D10*
X137570000Y-181272500D03*
X147730000Y-181272500D03*
D12*
X142650000Y-181272500D03*
D13*
X148940000Y-176192500D03*
X135090000Y-178732500D03*
D14*
X141354600Y-186377900D03*
D15*
X143920000Y-186377900D03*
%TD*%
D16*
%TO.C,D24*%
X232100000Y-191812500D03*
X232100000Y-188512500D03*
%TD*%
%TO.C,D57*%
X303537500Y-229912500D03*
X303537500Y-226612500D03*
%TD*%
%TO.C,D4*%
X155900000Y-168000000D03*
X155900000Y-164700000D03*
%TD*%
%TO.C,D76*%
X201143750Y-268012500D03*
X201143750Y-264712500D03*
%TD*%
%TO.C,D45*%
X370212500Y-210862500D03*
X370212500Y-207562500D03*
%TD*%
%TO.C,D86*%
X392697500Y-267906250D03*
X392697500Y-264606250D03*
%TD*%
%TO.C,D18*%
X117800000Y-191812500D03*
X117800000Y-188512500D03*
%TD*%
%TO.C,D60*%
X91606250Y-248962500D03*
X91606250Y-245662500D03*
%TD*%
%TO.C,D74*%
X105893750Y-268012500D03*
X105893750Y-264712500D03*
%TD*%
%TO.C,D65*%
X198762500Y-248962500D03*
X198762500Y-245662500D03*
%TD*%
%TO.C,D39*%
X241625000Y-210862500D03*
X241625000Y-207562500D03*
%TD*%
%TO.C,D86*%
X412442900Y-272244600D03*
X412442900Y-268944600D03*
%TD*%
%TO.C,D48*%
X132087500Y-229912500D03*
X132087500Y-226612500D03*
%TD*%
%TO.C,D64*%
X179712500Y-248962500D03*
X179712500Y-245662500D03*
%TD*%
%TO.C,D9*%
X251150000Y-168000000D03*
X251150000Y-164700000D03*
%TD*%
%TO.C,D86*%
X452200000Y-275750000D03*
X452200000Y-272450000D03*
%TD*%
%TO.C,D80*%
X351162500Y-272775000D03*
X351162500Y-269475000D03*
%TD*%
%TO.C,D43*%
X317825000Y-210862500D03*
X317825000Y-207562500D03*
%TD*%
%TO.C,D68*%
X255912500Y-248962500D03*
X255912500Y-245662500D03*
%TD*%
%TO.C,D37*%
X203525000Y-210862500D03*
X203525000Y-207562500D03*
%TD*%
%TO.C,D32*%
X108275000Y-210862500D03*
X108275000Y-207562500D03*
%TD*%
%TO.C,D41*%
X279725000Y-210862500D03*
X279725000Y-207562500D03*
%TD*%
%TO.C,D28*%
X308300000Y-191812500D03*
X308300000Y-188512500D03*
%TD*%
%TO.C,D62*%
X141612500Y-248962500D03*
X141612500Y-245662500D03*
%TD*%
D17*
%TO.C,R1*%
X440856500Y-209596000D03*
X443831500Y-209596000D03*
%TD*%
D18*
%TO.C,R3*%
X438484000Y-193364500D03*
X438484000Y-196339500D03*
%TD*%
D19*
%TO.C,U4*%
X422109000Y-202342000D03*
X422109000Y-203612000D03*
X422109000Y-204882000D03*
X422109000Y-206152000D03*
X422109000Y-207422000D03*
X422109000Y-208692000D03*
X422109000Y-209962000D03*
X417159000Y-209962000D03*
X417159000Y-208692000D03*
X417159000Y-207422000D03*
X417159000Y-206152000D03*
X417159000Y-204882000D03*
X417159000Y-203612000D03*
X417159000Y-202342000D03*
%TD*%
D16*
%TO.C,D7*%
X213050000Y-168000000D03*
X213050000Y-164700000D03*
%TD*%
%TO.C,D29*%
X339000000Y-191650000D03*
X339000000Y-188350000D03*
%TD*%
D20*
%TO.C,C1*%
X443831500Y-223566000D03*
X440856500Y-223566000D03*
%TD*%
D16*
%TO.C,D23*%
X213050000Y-191812500D03*
X213050000Y-188512500D03*
%TD*%
%TO.C,D61*%
X122562500Y-248962500D03*
X122562500Y-245662500D03*
%TD*%
%TO.C,D25*%
X251150000Y-191812500D03*
X251150000Y-188512500D03*
%TD*%
D21*
%TO.C,IC1*%
X443584000Y-199952000D03*
X443584000Y-200902000D03*
X443584000Y-201852000D03*
X440984000Y-201852000D03*
X440984000Y-199952000D03*
%TD*%
D20*
%TO.C,C4*%
X443831500Y-205532000D03*
X440856500Y-205532000D03*
%TD*%
D16*
%TO.C,D40*%
X260675000Y-210862500D03*
X260675000Y-207562500D03*
%TD*%
%TO.C,D70*%
X294012500Y-248962500D03*
X294012500Y-245662500D03*
%TD*%
%TO.C,D58*%
X334493750Y-229912500D03*
X334493750Y-226612500D03*
%TD*%
%TO.C,D47*%
X113037500Y-229912500D03*
X113037500Y-226612500D03*
%TD*%
%TO.C,D69*%
X274962500Y-248962500D03*
X274962500Y-245662500D03*
%TD*%
%TO.C,D38*%
X222575000Y-210862500D03*
X222575000Y-207562500D03*
%TD*%
%TO.C,D46*%
X84400000Y-228050000D03*
X84400000Y-224750000D03*
%TD*%
%TO.C,D73*%
X82081250Y-268012500D03*
X82081250Y-264712500D03*
%TD*%
%TO.C,D59*%
X370212500Y-229912500D03*
X370212500Y-226612500D03*
%TD*%
%TO.C,D35*%
X165425000Y-210862500D03*
X165425000Y-207562500D03*
%TD*%
D22*
%TO.C,U1*%
X445274000Y-219702000D03*
X445274000Y-217802000D03*
X448694000Y-218752000D03*
%TD*%
D16*
%TO.C,D6*%
X194000000Y-168000000D03*
X194000000Y-164700000D03*
%TD*%
%TO.C,D8*%
X232100000Y-168000000D03*
X232100000Y-164700000D03*
%TD*%
%TO.C,D66*%
X217812500Y-248962500D03*
X217812500Y-245662500D03*
%TD*%
%TO.C,D63*%
X160662500Y-248962500D03*
X160662500Y-245662500D03*
%TD*%
%TO.C,D78*%
X303537500Y-268012500D03*
X303537500Y-264712500D03*
%TD*%
%TO.C,D3*%
X136850000Y-168000000D03*
X136850000Y-164700000D03*
%TD*%
%TO.C,D13*%
X327350000Y-168000000D03*
X327350000Y-164700000D03*
%TD*%
%TO.C,D12*%
X308300000Y-168000000D03*
X308300000Y-164700000D03*
%TD*%
%TO.C,D55*%
X265437500Y-229912500D03*
X265437500Y-226612500D03*
%TD*%
D20*
%TO.C,C2*%
X443831500Y-213914000D03*
X440856500Y-213914000D03*
%TD*%
D16*
%TO.C,D79*%
X332112500Y-272775000D03*
X332112500Y-269475000D03*
%TD*%
%TO.C,D50*%
X170187500Y-229912500D03*
X170187500Y-226612500D03*
%TD*%
%TO.C,D53*%
X227337500Y-229912500D03*
X227337500Y-226612500D03*
%TD*%
%TO.C,D51*%
X189237500Y-229912500D03*
X189237500Y-226612500D03*
%TD*%
%TO.C,D36*%
X184475000Y-210862500D03*
X184475000Y-207562500D03*
%TD*%
%TO.C,D54*%
X246387500Y-229912500D03*
X246387500Y-226612500D03*
%TD*%
%TO.C,D86*%
X431935400Y-275750000D03*
X431935400Y-272450000D03*
%TD*%
D17*
%TO.C,R4*%
X432746500Y-219952000D03*
X435721500Y-219952000D03*
%TD*%
D16*
%TO.C,D71*%
X320206250Y-248962500D03*
X320206250Y-245662500D03*
%TD*%
%TO.C,D77*%
X274962500Y-268012500D03*
X274962500Y-264712500D03*
%TD*%
%TO.C,D5*%
X174950000Y-168000000D03*
X174950000Y-164700000D03*
%TD*%
%TO.C,D14*%
X346400000Y-168000000D03*
X346400000Y-164700000D03*
%TD*%
%TO.C,D15*%
X370212500Y-168000000D03*
X370212500Y-164700000D03*
%TD*%
%TO.C,D42*%
X298775000Y-210862500D03*
X298775000Y-207562500D03*
%TD*%
%TO.C,D30*%
X370212500Y-191812500D03*
X370212500Y-188512500D03*
%TD*%
D23*
%TO.C,R2*%
X435834000Y-196339500D03*
X435834000Y-193364500D03*
%TD*%
D16*
%TO.C,D75*%
X129706250Y-268012500D03*
X129706250Y-264712500D03*
%TD*%
%TO.C,D31*%
X84462500Y-210862500D03*
X84462500Y-207562500D03*
%TD*%
%TO.C,D44*%
X341637500Y-210862500D03*
X341637500Y-207562500D03*
%TD*%
%TO.C,D52*%
X208287500Y-229912500D03*
X208287500Y-226612500D03*
%TD*%
%TO.C,D10*%
X270200000Y-168000000D03*
X270200000Y-164700000D03*
%TD*%
%TO.C,D34*%
X146375000Y-210862500D03*
X146375000Y-207562500D03*
%TD*%
%TO.C,D22*%
X194000000Y-191812500D03*
X194000000Y-188512500D03*
%TD*%
%TO.C,D56*%
X284487500Y-229912500D03*
X284487500Y-226612500D03*
%TD*%
%TO.C,D81*%
X370212500Y-272775000D03*
X370212500Y-269475000D03*
%TD*%
%TO.C,D26*%
X270200000Y-191812500D03*
X270200000Y-188512500D03*
%TD*%
%TO.C,D21*%
X174950000Y-191812500D03*
X174950000Y-188512500D03*
%TD*%
%TO.C,D20*%
X155900000Y-191812500D03*
X155900000Y-188512500D03*
%TD*%
%TO.C,D17*%
X98750000Y-191812500D03*
X98750000Y-188512500D03*
%TD*%
D24*
%TO.C,U2*%
X425845000Y-215620000D03*
D25*
X425845000Y-213840000D03*
X425845000Y-212060000D03*
X425845000Y-210280000D03*
X425845000Y-208500000D03*
X425845000Y-206720000D03*
X425845000Y-204940000D03*
X425845000Y-203160000D03*
X436545000Y-202270000D03*
X436545000Y-204050000D03*
X436545000Y-205830000D03*
X436545000Y-207610000D03*
X436545000Y-209390000D03*
X436545000Y-211170000D03*
X436545000Y-212950000D03*
X436545000Y-214730000D03*
%TD*%
D16*
%TO.C,D27*%
X289250000Y-191812500D03*
X289250000Y-188512500D03*
%TD*%
%TO.C,D16*%
X76800000Y-188850000D03*
X76800000Y-185550000D03*
%TD*%
D10*
%TO.C,K21*%
X185830000Y-181272500D03*
X175670000Y-181272500D03*
D12*
X180750000Y-181272500D03*
D11*
X176940000Y-178732500D03*
X183290000Y-176192500D03*
D13*
X187040000Y-176192500D03*
X173190000Y-178732500D03*
D14*
X179454600Y-186377900D03*
D15*
X182020000Y-186377900D03*
%TD*%
D11*
%TO.C,K36*%
X192815000Y-195242500D03*
D12*
X190275000Y-200322500D03*
D11*
X186465000Y-197782500D03*
D10*
X195355000Y-200322500D03*
X185195000Y-200322500D03*
D13*
X196565000Y-195242500D03*
X182715000Y-197782500D03*
D14*
X188979600Y-205427900D03*
D15*
X191545000Y-205427900D03*
%TD*%
D11*
%TO.C,K59*%
X372202500Y-216832500D03*
D10*
X370932500Y-219372500D03*
X381092500Y-219372500D03*
D12*
X376012500Y-219372500D03*
D11*
X378552500Y-214292500D03*
D13*
X382302500Y-214292500D03*
X368452500Y-216832500D03*
D14*
X374717100Y-224477900D03*
D15*
X377282500Y-224477900D03*
%TD*%
D16*
%TO.C,D67*%
X236862500Y-248962500D03*
X236862500Y-245662500D03*
%TD*%
%TO.C,D33*%
X127325000Y-210862500D03*
X127325000Y-207562500D03*
%TD*%
%TO.C,D2*%
X117800000Y-168000000D03*
X117800000Y-164700000D03*
%TD*%
%TO.C,D19*%
X136850000Y-191812500D03*
X136850000Y-188512500D03*
%TD*%
%TO.C,D49*%
X151137500Y-229912500D03*
X151137500Y-226612500D03*
%TD*%
%TO.C,D1*%
X98750000Y-168000000D03*
X98750000Y-164700000D03*
%TD*%
D10*
%TO.C,K30*%
X381092500Y-181272500D03*
D11*
X378552500Y-176192500D03*
D12*
X376012500Y-181272500D03*
D11*
X372202500Y-178732500D03*
D10*
X370932500Y-181272500D03*
D13*
X382302500Y-176192500D03*
X368452500Y-178732500D03*
D14*
X374717100Y-186377900D03*
D15*
X377282500Y-186377900D03*
%TD*%
D16*
%TO.C,D72*%
X351162500Y-253725000D03*
X351162500Y-250425000D03*
%TD*%
D20*
%TO.C,C3*%
X422749500Y-215438000D03*
X419774500Y-215438000D03*
%TD*%
D16*
%TO.C,D11*%
X289250000Y-168000000D03*
X289250000Y-164700000D03*
%TD*%
%TO.C,D0*%
X79700000Y-168000000D03*
X79700000Y-164700000D03*
%TD*%
D12*
%TO.C,K28*%
X314100000Y-181272500D03*
D11*
X310290000Y-178732500D03*
D10*
X319180000Y-181272500D03*
X309020000Y-181272500D03*
D11*
X316640000Y-176192500D03*
D13*
X320390000Y-176192500D03*
X306540000Y-178732500D03*
D14*
X312804600Y-186377900D03*
D15*
X315370000Y-186377900D03*
%TD*%
D23*
%TO.C,C5*%
X442284000Y-196389500D03*
X442284000Y-193414500D03*
%TD*%
D10*
%TO.C,K54*%
X257267500Y-219372500D03*
D11*
X254727500Y-214292500D03*
D10*
X247107500Y-219372500D03*
D11*
X248377500Y-216832500D03*
D12*
X252187500Y-219372500D03*
D13*
X258477500Y-214292500D03*
X244627500Y-216832500D03*
D14*
X250892100Y-224477900D03*
D15*
X253457500Y-224477900D03*
%TD*%
D11*
%TO.C,K71*%
X328546250Y-233342500D03*
X322196250Y-235882500D03*
D12*
X326006250Y-238422500D03*
D10*
X331086250Y-238422500D03*
X320926250Y-238422500D03*
D13*
X332296250Y-233342500D03*
X318446250Y-235882500D03*
D14*
X324710850Y-243527900D03*
D15*
X327276250Y-243527900D03*
%TD*%
D12*
%TO.C,K78*%
X309337500Y-257472500D03*
D10*
X314417500Y-257472500D03*
D11*
X305527500Y-254932500D03*
X311877500Y-252392500D03*
D10*
X304257500Y-257472500D03*
D13*
X315627500Y-252392500D03*
X301777500Y-254932500D03*
D14*
X308042100Y-262577900D03*
D15*
X310607500Y-262577900D03*
%TD*%
D10*
%TO.C,K74*%
X116773750Y-257472500D03*
D11*
X114233750Y-252392500D03*
X107883750Y-254932500D03*
D12*
X111693750Y-257472500D03*
D10*
X106613750Y-257472500D03*
D13*
X117983750Y-252392500D03*
X104133750Y-254932500D03*
D14*
X110398350Y-262577900D03*
D15*
X112963750Y-262577900D03*
%TD*%
D11*
%TO.C,K53*%
X235677500Y-214292500D03*
X229327500Y-216832500D03*
D10*
X238217500Y-219372500D03*
X228057500Y-219372500D03*
D12*
X233137500Y-219372500D03*
D13*
X239427500Y-214292500D03*
X225577500Y-216832500D03*
D14*
X231842100Y-224477900D03*
D15*
X234407500Y-224477900D03*
%TD*%
D11*
%TO.C,K9*%
X253140000Y-154920000D03*
X259490000Y-152380000D03*
D10*
X251870000Y-157460000D03*
X262030000Y-157460000D03*
D12*
X256950000Y-157460000D03*
D13*
X263240000Y-152380000D03*
X249390000Y-154920000D03*
D14*
X255654600Y-162565400D03*
D15*
X258220000Y-162565400D03*
%TD*%
D12*
%TO.C,K76*%
X340300300Y-219368200D03*
D11*
X342840300Y-214288200D03*
D10*
X335220300Y-219368200D03*
D26*
X328387500Y-212180000D03*
X352187500Y-212180000D03*
D10*
X345380300Y-219368200D03*
D27*
X352187500Y-227420000D03*
X328387500Y-227420000D03*
D11*
X336490300Y-216828200D03*
D13*
X346590300Y-214288200D03*
X332740300Y-216828200D03*
D14*
X339004900Y-224473600D03*
D15*
X341570300Y-224473600D03*
%TD*%
D10*
%TO.C,MX_NUM6*%
X432850000Y-266140000D03*
D11*
X434120000Y-263600000D03*
D12*
X437930000Y-266140000D03*
D11*
X440470000Y-261060000D03*
D10*
X443010000Y-266140000D03*
D13*
X444220000Y-261060000D03*
X430370000Y-263600000D03*
D14*
X436634600Y-271245400D03*
D15*
X439200000Y-271245400D03*
%TD*%
D10*
%TO.C,K76*%
X97780300Y-219368200D03*
D11*
X88890300Y-216828200D03*
D27*
X80787500Y-227420000D03*
D26*
X104587500Y-212180000D03*
D12*
X92700300Y-219368200D03*
D26*
X80787500Y-212180000D03*
D27*
X104587500Y-227420000D03*
D11*
X95240300Y-214288200D03*
D10*
X87620300Y-219368200D03*
D13*
X98990300Y-214288200D03*
X85140300Y-216828200D03*
D14*
X91404900Y-224473600D03*
D15*
X93970300Y-224473600D03*
%TD*%
D11*
%TO.C,K72*%
X353152500Y-240645000D03*
D10*
X351882500Y-243185000D03*
X362042500Y-243185000D03*
D11*
X359502500Y-238105000D03*
D12*
X356962500Y-243185000D03*
D13*
X363252500Y-238105000D03*
X349402500Y-240645000D03*
D14*
X355667100Y-248290400D03*
D15*
X358232500Y-248290400D03*
%TD*%
D10*
%TO.C,K65*%
X209642500Y-238422500D03*
D11*
X200752500Y-235882500D03*
D10*
X199482500Y-238422500D03*
D11*
X207102500Y-233342500D03*
D12*
X204562500Y-238422500D03*
D13*
X210852500Y-233342500D03*
X197002500Y-235882500D03*
D14*
X203267100Y-243527900D03*
D15*
X205832500Y-243527900D03*
%TD*%
D11*
%TO.C,K57*%
X305527500Y-216832500D03*
X311877500Y-214292500D03*
D10*
X314417500Y-219372500D03*
D12*
X309337500Y-219372500D03*
D10*
X304257500Y-219372500D03*
D13*
X315627500Y-214292500D03*
X301777500Y-216832500D03*
D14*
X308042100Y-224477900D03*
D15*
X310607500Y-224477900D03*
%TD*%
D11*
%TO.C,K52*%
X210277500Y-216832500D03*
D10*
X209007500Y-219372500D03*
X219167500Y-219372500D03*
D12*
X214087500Y-219372500D03*
D11*
X216627500Y-214292500D03*
D13*
X220377500Y-214292500D03*
X206527500Y-216832500D03*
D14*
X212792100Y-224477900D03*
D15*
X215357500Y-224477900D03*
%TD*%
D11*
%TO.C,K70*%
X302352500Y-233342500D03*
D10*
X304892500Y-238422500D03*
X294732500Y-238422500D03*
D11*
X296002500Y-235882500D03*
D12*
X299812500Y-238422500D03*
D13*
X306102500Y-233342500D03*
X292252500Y-235882500D03*
D14*
X298517100Y-243527900D03*
D15*
X301082500Y-243527900D03*
%TD*%
D11*
%TO.C,K12*%
X316640000Y-152380000D03*
D10*
X309020000Y-157460000D03*
X319180000Y-157460000D03*
D12*
X314100000Y-157460000D03*
D11*
X310290000Y-154920000D03*
D13*
X320390000Y-152380000D03*
X306540000Y-154920000D03*
D14*
X312804600Y-162565400D03*
D15*
X315370000Y-162565400D03*
%TD*%
D28*
%TO.C,REF\u002A\u002A*%
X409200000Y-172100000D03*
D29*
X411200000Y-172100000D03*
X413200000Y-172100000D03*
%TD*%
D10*
%TO.C,K43*%
X318545000Y-200322500D03*
D11*
X326165000Y-195242500D03*
X319815000Y-197782500D03*
D10*
X328705000Y-200322500D03*
D12*
X323625000Y-200322500D03*
D13*
X329915000Y-195242500D03*
X316065000Y-197782500D03*
D14*
X322329600Y-205427900D03*
D15*
X324895000Y-205427900D03*
%TD*%
D11*
%TO.C,K40*%
X262665000Y-197782500D03*
D10*
X261395000Y-200322500D03*
D11*
X269015000Y-195242500D03*
D12*
X266475000Y-200322500D03*
D10*
X271555000Y-200322500D03*
D13*
X272765000Y-195242500D03*
X258915000Y-197782500D03*
D14*
X265179600Y-205427900D03*
D15*
X267745000Y-205427900D03*
%TD*%
D11*
%TO.C,K27*%
X291240000Y-178732500D03*
D10*
X300130000Y-181272500D03*
X289970000Y-181272500D03*
D12*
X295050000Y-181272500D03*
D11*
X297590000Y-176192500D03*
D13*
X301340000Y-176192500D03*
X287490000Y-178732500D03*
D14*
X293754600Y-186377900D03*
D15*
X296320000Y-186377900D03*
%TD*%
D11*
%TO.C,K42*%
X300765000Y-197782500D03*
D10*
X299495000Y-200322500D03*
D12*
X304575000Y-200322500D03*
D10*
X309655000Y-200322500D03*
D11*
X307115000Y-195242500D03*
D13*
X310865000Y-195242500D03*
X297015000Y-197782500D03*
D14*
X303279600Y-205427900D03*
D15*
X305845000Y-205427900D03*
%TD*%
D30*
%TO.C,J1*%
X449109000Y-203002000D03*
X449109000Y-205542000D03*
X449109000Y-208082000D03*
X449109000Y-210622000D03*
X449109000Y-213162000D03*
D31*
X449109000Y-215702000D03*
%TD*%
D10*
%TO.C,K22*%
X204880000Y-181272500D03*
D11*
X195990000Y-178732500D03*
X202340000Y-176192500D03*
D10*
X194720000Y-181272500D03*
D12*
X199800000Y-181272500D03*
D13*
X206090000Y-176192500D03*
X192240000Y-178732500D03*
D14*
X198504600Y-186377900D03*
D15*
X201070000Y-186377900D03*
%TD*%
D11*
%TO.C,K10*%
X272190000Y-154920000D03*
D10*
X281080000Y-157460000D03*
D12*
X276000000Y-157460000D03*
D11*
X278540000Y-152380000D03*
D10*
X270920000Y-157460000D03*
D13*
X282290000Y-152380000D03*
X268440000Y-154920000D03*
D14*
X274704600Y-162565400D03*
D15*
X277270000Y-162565400D03*
%TD*%
D11*
%TO.C,K35*%
X167415000Y-197782500D03*
D10*
X176305000Y-200322500D03*
D11*
X173765000Y-195242500D03*
D12*
X171225000Y-200322500D03*
D10*
X166145000Y-200322500D03*
D13*
X177515000Y-195242500D03*
X163665000Y-197782500D03*
D14*
X169929600Y-205427900D03*
D15*
X172495000Y-205427900D03*
%TD*%
D11*
%TO.C,K14*%
X354740000Y-152380000D03*
D12*
X352200000Y-157460000D03*
D11*
X348390000Y-154920000D03*
D10*
X357280000Y-157460000D03*
X347120000Y-157460000D03*
D13*
X358490000Y-152380000D03*
X344640000Y-154920000D03*
D14*
X350904600Y-162565400D03*
D15*
X353470000Y-162565400D03*
%TD*%
D11*
%TO.C,K2*%
X119790000Y-154920000D03*
D10*
X118520000Y-157460000D03*
D12*
X123600000Y-157460000D03*
D11*
X126140000Y-152380000D03*
D10*
X128680000Y-157460000D03*
D13*
X129890000Y-152380000D03*
X116040000Y-154920000D03*
D14*
X122304600Y-162565400D03*
D15*
X124870000Y-162565400D03*
%TD*%
D10*
%TO.C,K80*%
X351882500Y-262235000D03*
D11*
X353152500Y-259695000D03*
D10*
X362042500Y-262235000D03*
D11*
X359502500Y-257155000D03*
D12*
X356962500Y-262235000D03*
D13*
X363252500Y-257155000D03*
X349402500Y-259695000D03*
D14*
X355667100Y-267340400D03*
D15*
X358232500Y-267340400D03*
%TD*%
D11*
%TO.C,K32*%
X116615000Y-195242500D03*
D10*
X108995000Y-200322500D03*
D11*
X110265000Y-197782500D03*
D12*
X114075000Y-200322500D03*
D10*
X119155000Y-200322500D03*
D13*
X120365000Y-195242500D03*
X106515000Y-197782500D03*
D14*
X112779600Y-205427900D03*
D15*
X115345000Y-205427900D03*
%TD*%
D12*
%TO.C,MX_NUM5*%
X418430000Y-262994600D03*
D10*
X413350000Y-262994600D03*
X423510000Y-262994600D03*
D11*
X414620000Y-260454600D03*
X420970000Y-257914600D03*
D13*
X424720000Y-257914600D03*
X410870000Y-260454600D03*
D14*
X417134600Y-268100000D03*
D15*
X419700000Y-268100000D03*
%TD*%
D11*
%TO.C,K68*%
X264252500Y-233342500D03*
X257902500Y-235882500D03*
D10*
X256632500Y-238422500D03*
X266792500Y-238422500D03*
D12*
X261712500Y-238422500D03*
D13*
X268002500Y-233342500D03*
X254152500Y-235882500D03*
D14*
X260417100Y-243527900D03*
D15*
X262982500Y-243527900D03*
%TD*%
D10*
%TO.C,MX_NUM4*%
X393554600Y-258600000D03*
D12*
X398634600Y-258600000D03*
D11*
X394824600Y-256060000D03*
X401174600Y-253520000D03*
D10*
X403714600Y-258600000D03*
D13*
X404924600Y-253520000D03*
X391074600Y-256060000D03*
D14*
X397339200Y-263705400D03*
D15*
X399904600Y-263705400D03*
%TD*%
D10*
%TO.C,K6*%
X204880000Y-157460000D03*
D12*
X199800000Y-157460000D03*
D11*
X195990000Y-154920000D03*
D10*
X194720000Y-157460000D03*
D11*
X202340000Y-152380000D03*
D13*
X206090000Y-152380000D03*
X192240000Y-154920000D03*
D14*
X198504600Y-162565400D03*
D15*
X201070000Y-162565400D03*
%TD*%
D12*
%TO.C,K13*%
X333150000Y-157460000D03*
D11*
X335690000Y-152380000D03*
D10*
X338230000Y-157460000D03*
D11*
X329340000Y-154920000D03*
D10*
X328070000Y-157460000D03*
D13*
X339440000Y-152380000D03*
X325590000Y-154920000D03*
D14*
X331854600Y-162565400D03*
D15*
X334420000Y-162565400D03*
%TD*%
D11*
%TO.C,K47*%
X121377500Y-214292500D03*
D10*
X123917500Y-219372500D03*
X113757500Y-219372500D03*
D11*
X115027500Y-216832500D03*
D12*
X118837500Y-219372500D03*
D13*
X125127500Y-214292500D03*
X111277500Y-216832500D03*
D14*
X117542100Y-224477900D03*
D15*
X120107500Y-224477900D03*
%TD*%
D10*
%TO.C,K77*%
X275682500Y-257472500D03*
D11*
X283302500Y-252392500D03*
D12*
X280762500Y-257472500D03*
D10*
X285842500Y-257472500D03*
D11*
X276952500Y-254932500D03*
D13*
X287052500Y-252392500D03*
X273202500Y-254932500D03*
D14*
X279467100Y-262577900D03*
D15*
X282032500Y-262577900D03*
%TD*%
D12*
%TO.C,K33*%
X133125000Y-200322500D03*
D11*
X135665000Y-195242500D03*
D10*
X138205000Y-200322500D03*
D11*
X129315000Y-197782500D03*
D10*
X128045000Y-200322500D03*
D13*
X139415000Y-195242500D03*
X125565000Y-197782500D03*
D14*
X131829600Y-205427900D03*
D15*
X134395000Y-205427900D03*
%TD*%
D11*
%TO.C,K24*%
X234090000Y-178732500D03*
D12*
X237900000Y-181272500D03*
D10*
X242980000Y-181272500D03*
D11*
X240440000Y-176192500D03*
D10*
X232820000Y-181272500D03*
D13*
X244190000Y-176192500D03*
X230340000Y-178732500D03*
D14*
X236604600Y-186377900D03*
D15*
X239170000Y-186377900D03*
%TD*%
D11*
%TO.C,K63*%
X162652500Y-235882500D03*
D10*
X161382500Y-238422500D03*
D12*
X166462500Y-238422500D03*
D11*
X169002500Y-233342500D03*
D10*
X171542500Y-238422500D03*
D13*
X172752500Y-233342500D03*
X158902500Y-235882500D03*
D14*
X165167100Y-243527900D03*
D15*
X167732500Y-243527900D03*
%TD*%
D10*
%TO.C,K11*%
X289970000Y-157460000D03*
D11*
X297590000Y-152380000D03*
X291240000Y-154920000D03*
D12*
X295050000Y-157460000D03*
D10*
X300130000Y-157460000D03*
D13*
X301340000Y-152380000D03*
X287490000Y-154920000D03*
D14*
X293754600Y-162565400D03*
D15*
X296320000Y-162565400D03*
%TD*%
D10*
%TO.C,K20*%
X156620000Y-181272500D03*
D12*
X161700000Y-181272500D03*
D11*
X157890000Y-178732500D03*
X164240000Y-176192500D03*
D10*
X166780000Y-181272500D03*
D13*
X167990000Y-176192500D03*
X154140000Y-178732500D03*
D14*
X160404600Y-186377900D03*
D15*
X162970000Y-186377900D03*
%TD*%
D11*
%TO.C,K1*%
X100740000Y-154920000D03*
D10*
X99470000Y-157460000D03*
D12*
X104550000Y-157460000D03*
D11*
X107090000Y-152380000D03*
D10*
X109630000Y-157460000D03*
D13*
X110840000Y-152380000D03*
X96990000Y-154920000D03*
D14*
X103254600Y-162565400D03*
D15*
X105820000Y-162565400D03*
%TD*%
D10*
%TO.C,K69*%
X275682500Y-238422500D03*
D12*
X280762500Y-238422500D03*
D11*
X276952500Y-235882500D03*
X283302500Y-233342500D03*
D10*
X285842500Y-238422500D03*
D13*
X287052500Y-233342500D03*
X273202500Y-235882500D03*
D14*
X279467100Y-243527900D03*
D15*
X282032500Y-243527900D03*
%TD*%
D11*
%TO.C,K62*%
X149952500Y-233342500D03*
X143602500Y-235882500D03*
D10*
X142332500Y-238422500D03*
X152492500Y-238422500D03*
D12*
X147412500Y-238422500D03*
D13*
X153702500Y-233342500D03*
X139852500Y-235882500D03*
D14*
X146117100Y-243527900D03*
D15*
X148682500Y-243527900D03*
%TD*%
D11*
%TO.C,K3*%
X138840000Y-154920000D03*
D10*
X137570000Y-157460000D03*
D11*
X145190000Y-152380000D03*
D10*
X147730000Y-157460000D03*
D12*
X142650000Y-157460000D03*
D13*
X148940000Y-152380000D03*
X135090000Y-154920000D03*
D14*
X141354600Y-162565400D03*
D15*
X143920000Y-162565400D03*
%TD*%
D11*
%TO.C,K41*%
X281715000Y-197782500D03*
D12*
X285525000Y-200322500D03*
D10*
X290605000Y-200322500D03*
D11*
X288065000Y-195242500D03*
D10*
X280445000Y-200322500D03*
D13*
X291815000Y-195242500D03*
X277965000Y-197782500D03*
D14*
X284229600Y-205427900D03*
D15*
X286795000Y-205427900D03*
%TD*%
D11*
%TO.C,K56*%
X292827500Y-214292500D03*
X286477500Y-216832500D03*
D10*
X285207500Y-219372500D03*
X295367500Y-219372500D03*
D12*
X290287500Y-219372500D03*
D13*
X296577500Y-214292500D03*
X282727500Y-216832500D03*
D14*
X288992100Y-224477900D03*
D15*
X291557500Y-224477900D03*
%TD*%
D12*
%TO.C,K7*%
X218850000Y-157460000D03*
D11*
X221390000Y-152380000D03*
X215040000Y-154920000D03*
D10*
X213770000Y-157460000D03*
X223930000Y-157460000D03*
D13*
X225140000Y-152380000D03*
X211290000Y-154920000D03*
D14*
X217554600Y-162565400D03*
D15*
X220120000Y-162565400D03*
%TD*%
D12*
%TO.C,K76*%
X347500300Y-200368200D03*
D27*
X335587500Y-208420000D03*
D10*
X352580300Y-200368200D03*
D11*
X343690300Y-197828200D03*
D26*
X359387500Y-193180000D03*
D10*
X342420300Y-200368200D03*
D27*
X359387500Y-208420000D03*
D26*
X335587500Y-193180000D03*
D11*
X350040300Y-195288200D03*
D13*
X353790300Y-195288200D03*
X339940300Y-197828200D03*
D14*
X346204900Y-205473600D03*
D15*
X348770300Y-205473600D03*
%TD*%
D11*
%TO.C,K46*%
X88833750Y-216832500D03*
D12*
X92643750Y-219372500D03*
D11*
X95183750Y-214292500D03*
D10*
X97723750Y-219372500D03*
X87563750Y-219372500D03*
D13*
X98933750Y-214292500D03*
X85083750Y-216832500D03*
D14*
X91348350Y-224477900D03*
D15*
X93913750Y-224477900D03*
%TD*%
D10*
%TO.C,K50*%
X181067500Y-219372500D03*
D11*
X172177500Y-216832500D03*
X178527500Y-214292500D03*
D12*
X175987500Y-219372500D03*
D10*
X170907500Y-219372500D03*
D13*
X182277500Y-214292500D03*
X168427500Y-216832500D03*
D14*
X174692100Y-224477900D03*
D15*
X177257500Y-224477900D03*
%TD*%
D10*
%TO.C,K79*%
X342992500Y-262235000D03*
D11*
X340452500Y-257155000D03*
D10*
X332832500Y-262235000D03*
D11*
X334102500Y-259695000D03*
D12*
X337912500Y-262235000D03*
D13*
X344202500Y-257155000D03*
X330352500Y-259695000D03*
D14*
X336617100Y-267340400D03*
D15*
X339182500Y-267340400D03*
%TD*%
D27*
%TO.C,K76*%
X354587500Y-189320000D03*
D10*
X347780300Y-181268200D03*
D26*
X354587500Y-174080000D03*
X330787500Y-174080000D03*
D11*
X345240300Y-176188200D03*
D27*
X330787500Y-189320000D03*
D11*
X338890300Y-178728200D03*
D10*
X337620300Y-181268200D03*
D12*
X342700300Y-181268200D03*
D13*
X348990300Y-176188200D03*
X335140300Y-178728200D03*
D14*
X341404900Y-186373600D03*
D15*
X343970300Y-186373600D03*
%TD*%
D11*
%TO.C,K18*%
X126140000Y-176192500D03*
X119790000Y-178732500D03*
D12*
X123600000Y-181272500D03*
D10*
X118520000Y-181272500D03*
X128680000Y-181272500D03*
D13*
X129890000Y-176192500D03*
X116040000Y-178732500D03*
D14*
X122304600Y-186377900D03*
D15*
X124870000Y-186377900D03*
%TD*%
D11*
%TO.C,K61*%
X130902500Y-233342500D03*
D12*
X128362500Y-238422500D03*
D10*
X133442500Y-238422500D03*
X123282500Y-238422500D03*
D11*
X124552500Y-235882500D03*
D13*
X134652500Y-233342500D03*
X120802500Y-235882500D03*
D14*
X127067100Y-243527900D03*
D15*
X129632500Y-243527900D03*
%TD*%
D10*
%TO.C,K25*%
X262030000Y-181272500D03*
X251870000Y-181272500D03*
D12*
X256950000Y-181272500D03*
D11*
X259490000Y-176192500D03*
X253140000Y-178732500D03*
D13*
X263240000Y-176192500D03*
X249390000Y-178732500D03*
D14*
X255654600Y-186377900D03*
D15*
X258220000Y-186377900D03*
%TD*%
D27*
%TO.C,K76*%
X195030950Y-265524300D03*
D10*
X201863750Y-257472500D03*
D26*
X195030950Y-250284300D03*
D12*
X206943750Y-257472500D03*
D11*
X203133750Y-254932500D03*
D27*
X218830950Y-265524300D03*
D11*
X209483750Y-252392500D03*
D10*
X212023750Y-257472500D03*
D26*
X218830950Y-250284300D03*
D13*
X213233750Y-252392500D03*
X199383750Y-254932500D03*
D14*
X205648350Y-262577900D03*
D15*
X208213750Y-262577900D03*
%TD*%
D11*
%TO.C,K51*%
X191227500Y-216832500D03*
D12*
X195037500Y-219372500D03*
D10*
X200117500Y-219372500D03*
X189957500Y-219372500D03*
D11*
X197577500Y-214292500D03*
D13*
X201327500Y-214292500D03*
X187477500Y-216832500D03*
D14*
X193742100Y-224477900D03*
D15*
X196307500Y-224477900D03*
%TD*%
D11*
%TO.C,K15*%
X378552500Y-152380000D03*
X372202500Y-154920000D03*
D10*
X381092500Y-157460000D03*
D12*
X376012500Y-157460000D03*
D10*
X370932500Y-157460000D03*
D13*
X382302500Y-152380000D03*
X368452500Y-154920000D03*
D14*
X374717100Y-162565400D03*
D15*
X377282500Y-162565400D03*
%TD*%
D11*
%TO.C,K16*%
X88040000Y-176192500D03*
X81690000Y-178732500D03*
D10*
X90580000Y-181272500D03*
D12*
X85500000Y-181272500D03*
D10*
X80420000Y-181272500D03*
D13*
X91790000Y-176192500D03*
X77940000Y-178732500D03*
D14*
X84204600Y-186377900D03*
D15*
X86770000Y-186377900D03*
%TD*%
D11*
%TO.C,K45*%
X372202500Y-197782500D03*
X378552500Y-195242500D03*
D10*
X370932500Y-200322500D03*
D12*
X376012500Y-200322500D03*
D10*
X381092500Y-200322500D03*
D13*
X382302500Y-195242500D03*
X368452500Y-197782500D03*
D14*
X374717100Y-205427900D03*
D15*
X377282500Y-205427900D03*
%TD*%
D10*
%TO.C,K26*%
X281080000Y-181272500D03*
D12*
X276000000Y-181272500D03*
D11*
X278540000Y-176192500D03*
D10*
X270920000Y-181272500D03*
D11*
X272190000Y-178732500D03*
D13*
X282290000Y-176192500D03*
X268440000Y-178732500D03*
D14*
X274704600Y-186377900D03*
D15*
X277270000Y-186377900D03*
%TD*%
D10*
%TO.C,K48*%
X142967500Y-219372500D03*
D12*
X137887500Y-219372500D03*
D11*
X134077500Y-216832500D03*
X140427500Y-214292500D03*
D10*
X132807500Y-219372500D03*
D13*
X144177500Y-214292500D03*
X130327500Y-216832500D03*
D14*
X136592100Y-224477900D03*
D15*
X139157500Y-224477900D03*
%TD*%
D27*
%TO.C,K76*%
X78387500Y-208420000D03*
D12*
X90300300Y-200368200D03*
D10*
X95380300Y-200368200D03*
D11*
X86490300Y-197828200D03*
D27*
X102187500Y-208420000D03*
D26*
X102187500Y-193180000D03*
D10*
X85220300Y-200368200D03*
D11*
X92840300Y-195288200D03*
D26*
X78387500Y-193180000D03*
D13*
X96590300Y-195288200D03*
X82740300Y-197828200D03*
D14*
X89004900Y-205473600D03*
D15*
X91570300Y-205473600D03*
%TD*%
D31*
%TO.C,REF\u002A\u002A*%
X461457011Y-244983012D03*
D30*
X463997011Y-244983012D03*
X466537011Y-244983012D03*
%TD*%
D10*
%TO.C,K17*%
X99470000Y-181272500D03*
X109630000Y-181272500D03*
D12*
X104550000Y-181272500D03*
D11*
X100740000Y-178732500D03*
X107090000Y-176192500D03*
D13*
X110840000Y-176192500D03*
X96990000Y-178732500D03*
D14*
X103254600Y-186377900D03*
D15*
X105820000Y-186377900D03*
%TD*%
D10*
%TO.C,K73*%
X82801250Y-257472500D03*
D12*
X87881250Y-257472500D03*
D11*
X90421250Y-252392500D03*
X84071250Y-254932500D03*
D10*
X92961250Y-257472500D03*
D13*
X94171250Y-252392500D03*
X80321250Y-254932500D03*
D14*
X86585850Y-262577900D03*
D15*
X89151250Y-262577900D03*
%TD*%
D12*
%TO.C,K8*%
X237900000Y-157460000D03*
D11*
X240440000Y-152380000D03*
X234090000Y-154920000D03*
D10*
X232820000Y-157460000D03*
X242980000Y-157460000D03*
D13*
X244190000Y-152380000D03*
X230340000Y-154920000D03*
D14*
X236604600Y-162565400D03*
D15*
X239170000Y-162565400D03*
%TD*%
D10*
%TO.C,MX_NUM7*%
X452914600Y-266140000D03*
X463074600Y-266140000D03*
D12*
X457994600Y-266140000D03*
D11*
X460534600Y-261060000D03*
X454184600Y-263600000D03*
D13*
X464284600Y-261060000D03*
X450434600Y-263600000D03*
D14*
X456699200Y-271245400D03*
D15*
X459264600Y-271245400D03*
%TD*%
D11*
%TO.C,K38*%
X224565000Y-197782500D03*
D10*
X233455000Y-200322500D03*
D12*
X228375000Y-200322500D03*
D11*
X230915000Y-195242500D03*
D10*
X223295000Y-200322500D03*
D13*
X234665000Y-195242500D03*
X220815000Y-197782500D03*
D14*
X227079600Y-205427900D03*
D15*
X229645000Y-205427900D03*
%TD*%
D32*
%TO.C,REF\u002A\u002A*%
X405525000Y-145380000D03*
D33*
X410675000Y-142350000D03*
D32*
X410375000Y-145380000D03*
D33*
X405225000Y-142350000D03*
D30*
X399060000Y-142220000D03*
X399060000Y-144760000D03*
D31*
X399060000Y-147300000D03*
D30*
X399060000Y-149840000D03*
X399060000Y-152380000D03*
X399060000Y-154920000D03*
X399060000Y-157460000D03*
D31*
X399060000Y-160000000D03*
D30*
X399060000Y-162540000D03*
X399060000Y-165080000D03*
X399060000Y-167620000D03*
X399060000Y-170160000D03*
D31*
X399060000Y-172700000D03*
D30*
X399060000Y-175240000D03*
X399060000Y-177780000D03*
X399060000Y-180320000D03*
X399060000Y-182860000D03*
D31*
X399060000Y-185400000D03*
D30*
X399060000Y-187940000D03*
X399060000Y-190480000D03*
X416840000Y-190480000D03*
X416840000Y-187940000D03*
D31*
X416840000Y-185400000D03*
D30*
X416840000Y-182860000D03*
X416840000Y-180320000D03*
X416840000Y-177780000D03*
X416840000Y-175240000D03*
D31*
X416840000Y-172700000D03*
D30*
X416840000Y-170160000D03*
X416840000Y-167620000D03*
X416840000Y-165080000D03*
X416840000Y-162540000D03*
D31*
X416840000Y-160000000D03*
D30*
X416840000Y-157460000D03*
X416840000Y-154920000D03*
X416840000Y-152380000D03*
X416840000Y-149840000D03*
D31*
X416840000Y-147300000D03*
D30*
X416840000Y-144760000D03*
X416840000Y-142220000D03*
X405410000Y-190250000D03*
D31*
X407950000Y-190250000D03*
D30*
X410490000Y-190250000D03*
%TD*%
D11*
%TO.C,K49*%
X153127500Y-216832500D03*
D12*
X156937500Y-219372500D03*
D11*
X159477500Y-214292500D03*
D10*
X162017500Y-219372500D03*
X151857500Y-219372500D03*
D13*
X163227500Y-214292500D03*
X149377500Y-216832500D03*
D14*
X155642100Y-224477900D03*
D15*
X158207500Y-224477900D03*
%TD*%
D10*
%TO.C,K37*%
X204245000Y-200322500D03*
X214405000Y-200322500D03*
D11*
X205515000Y-197782500D03*
D12*
X209325000Y-200322500D03*
D11*
X211865000Y-195242500D03*
D13*
X215615000Y-195242500D03*
X201765000Y-197782500D03*
D14*
X208029600Y-205427900D03*
D15*
X210595000Y-205427900D03*
%TD*%
D11*
%TO.C,K0*%
X88040000Y-152380000D03*
D10*
X90580000Y-157460000D03*
X80420000Y-157460000D03*
D11*
X81690000Y-154920000D03*
D12*
X85500000Y-157460000D03*
D13*
X91790000Y-152380000D03*
X77940000Y-154920000D03*
D14*
X84204600Y-162565400D03*
D15*
X86770000Y-162565400D03*
%TD*%
D11*
%TO.C,K64*%
X181702500Y-235882500D03*
D10*
X180432500Y-238422500D03*
D11*
X188052500Y-233342500D03*
D12*
X185512500Y-238422500D03*
D10*
X190592500Y-238422500D03*
D13*
X191802500Y-233342500D03*
X177952500Y-235882500D03*
D14*
X184217100Y-243527900D03*
D15*
X186782500Y-243527900D03*
%TD*%
D10*
%TO.C,K5*%
X185830000Y-157460000D03*
D11*
X183290000Y-152380000D03*
X176940000Y-154920000D03*
D10*
X175670000Y-157460000D03*
D12*
X180750000Y-157460000D03*
D13*
X187040000Y-152380000D03*
X173190000Y-154920000D03*
D14*
X179454600Y-162565400D03*
D15*
X182020000Y-162565400D03*
%TD*%
D11*
%TO.C,K81*%
X372202500Y-259695000D03*
D10*
X370932500Y-262235000D03*
D12*
X376012500Y-262235000D03*
D11*
X378552500Y-257155000D03*
D10*
X381092500Y-262235000D03*
D13*
X382302500Y-257155000D03*
X368452500Y-259695000D03*
D14*
X374717100Y-267340400D03*
D15*
X377282500Y-267340400D03*
%TD*%
D11*
%TO.C,K4*%
X157890000Y-154920000D03*
X164240000Y-152380000D03*
D12*
X161700000Y-157460000D03*
D10*
X166780000Y-157460000D03*
X156620000Y-157460000D03*
D13*
X167990000Y-152380000D03*
X154140000Y-154920000D03*
D14*
X160404600Y-162565400D03*
D15*
X162970000Y-162565400D03*
%TD*%
D34*
%TO.C,H1*%
X72200000Y-145100000D03*
%TD*%
%TO.C,H4*%
X472700000Y-272100000D03*
%TD*%
%TO.C,H3*%
X72700000Y-272600000D03*
%TD*%
%TO.C,H2*%
X471200000Y-145100000D03*
%TD*%
D12*
%TO.C,K66*%
X223612500Y-238422500D03*
D10*
X228692500Y-238422500D03*
D11*
X219802500Y-235882500D03*
D10*
X218532500Y-238422500D03*
D11*
X226152500Y-233342500D03*
D13*
X229902500Y-233342500D03*
X216052500Y-235882500D03*
D14*
X222317100Y-243527900D03*
D15*
X224882500Y-243527900D03*
%TD*%
D11*
%TO.C,K76*%
X93590300Y-235828200D03*
D10*
X92320300Y-238368200D03*
X102480300Y-238368200D03*
D26*
X109287500Y-231180000D03*
D27*
X109287500Y-246420000D03*
D12*
X97400300Y-238368200D03*
D27*
X85487500Y-246420000D03*
D26*
X85487500Y-231180000D03*
D11*
X99940300Y-233288200D03*
D13*
X103690300Y-233288200D03*
X89840300Y-235828200D03*
D14*
X96104900Y-243473600D03*
D15*
X98670300Y-243473600D03*
%TD*%
D11*
%TO.C,K39*%
X243615000Y-197782500D03*
X249965000Y-195242500D03*
D10*
X252505000Y-200322500D03*
X242345000Y-200322500D03*
D12*
X247425000Y-200322500D03*
D13*
X253715000Y-195242500D03*
X239865000Y-197782500D03*
D14*
X246129600Y-205427900D03*
D15*
X248695000Y-205427900D03*
%TD*%
D11*
%TO.C,K34*%
X148365000Y-197782500D03*
X154715000Y-195242500D03*
D10*
X147095000Y-200322500D03*
D12*
X152175000Y-200322500D03*
D10*
X157255000Y-200322500D03*
D13*
X158465000Y-195242500D03*
X144615000Y-197782500D03*
D14*
X150879600Y-205427900D03*
D15*
X153445000Y-205427900D03*
%TD*%
D11*
%TO.C,K55*%
X267427500Y-216832500D03*
D10*
X266157500Y-219372500D03*
X276317500Y-219372500D03*
D12*
X271237500Y-219372500D03*
D11*
X273777500Y-214292500D03*
D13*
X277527500Y-214292500D03*
X263677500Y-216832500D03*
D14*
X269942100Y-224477900D03*
D15*
X272507500Y-224477900D03*
%TD*%
D10*
%TO.C,K23*%
X223930000Y-181272500D03*
D12*
X218850000Y-181272500D03*
D11*
X221390000Y-176192500D03*
D10*
X213770000Y-181272500D03*
D11*
X215040000Y-178732500D03*
D13*
X225140000Y-176192500D03*
X211290000Y-178732500D03*
D14*
X217554600Y-186377900D03*
D15*
X220120000Y-186377900D03*
%TD*%
D11*
%TO.C,K75*%
X131696250Y-254932500D03*
D10*
X140586250Y-257472500D03*
D11*
X138046250Y-252392500D03*
D12*
X135506250Y-257472500D03*
D10*
X130426250Y-257472500D03*
D13*
X141796250Y-252392500D03*
X127946250Y-254932500D03*
D14*
X134210850Y-262577900D03*
D15*
X136776250Y-262577900D03*
%TD*%
M02*
