M48
; DRILL file {KiCad (6.0.10)} date Wed Jan 18 21:24:08 2023
; FORMAT={-:-/ absolute / metric / decimal}
; #@! TF.CreationDate,2023-01-18T21:24:08-08:00
; #@! TF.GenerationSoftware,Kicad,Pcbnew,(6.0.10)
; #@! TF.FileFunction,NonPlated,1,2,NPTH
FMAT,2
METRIC
; #@! TA.AperFunction,NonPlated,NPTH,ComponentDrill
T1C1.500
; #@! TA.AperFunction,NonPlated,NPTH,ComponentDrill
T2C1.702
; #@! TA.AperFunction,NonPlated,NPTH,ComponentDrill
T3C1.800
; #@! TA.AperFunction,NonPlated,NPTH,ComponentDrill
T4C3.000
; #@! TA.AperFunction,NonPlated,NPTH,ComponentDrill
T5C3.050
; #@! TA.AperFunction,NonPlated,NPTH,ComponentDrill
T6C3.200
; #@! TA.AperFunction,NonPlated,NPTH,ComponentDrill
T7C3.988
; #@! TA.AperFunction,NonPlated,NPTH,ComponentDrill
T8C4.000
%
G90
G05
T1
X405.525Y-145.38
X410.375Y-145.38
T2
X80.42Y-157.46
X80.42Y-181.272
X82.801Y-257.472
X85.22Y-200.368
X87.564Y-219.373
X87.62Y-219.368
X90.58Y-157.46
X90.58Y-181.272
X92.32Y-238.368
X92.961Y-257.472
X95.38Y-200.368
X97.724Y-219.373
X97.78Y-219.368
X99.47Y-157.46
X99.47Y-181.272
X102.48Y-238.368
X106.614Y-257.472
X108.995Y-200.322
X109.63Y-157.46
X109.63Y-181.272
X113.757Y-219.373
X116.774Y-257.472
X118.52Y-157.46
X118.52Y-181.272
X119.155Y-200.322
X123.282Y-238.422
X123.917Y-219.373
X128.045Y-200.322
X128.68Y-157.46
X128.68Y-181.272
X130.426Y-257.472
X132.808Y-219.373
X133.442Y-238.422
X137.57Y-157.46
X137.57Y-181.272
X138.205Y-200.322
X140.586Y-257.472
X142.332Y-238.422
X142.968Y-219.373
X147.095Y-200.322
X147.73Y-157.46
X147.73Y-181.272
X151.857Y-219.373
X152.493Y-238.422
X156.62Y-157.46
X156.62Y-181.272
X157.255Y-200.322
X161.382Y-238.422
X162.017Y-219.373
X166.145Y-200.322
X166.78Y-157.46
X166.78Y-181.272
X170.907Y-219.373
X171.542Y-238.422
X175.67Y-157.46
X175.67Y-181.272
X176.305Y-200.322
X180.433Y-238.422
X181.067Y-219.373
X185.195Y-200.322
X185.83Y-157.46
X185.83Y-181.272
X189.957Y-219.373
X190.593Y-238.422
X194.72Y-157.46
X194.72Y-181.272
X195.355Y-200.322
X199.482Y-238.422
X200.117Y-219.373
X201.864Y-257.472
X204.245Y-200.322
X204.88Y-157.46
X204.88Y-181.272
X209.007Y-219.373
X209.642Y-238.422
X212.024Y-257.472
X213.77Y-157.46
X213.77Y-181.272
X214.405Y-200.322
X218.532Y-238.422
X219.167Y-219.373
X223.295Y-200.322
X223.93Y-157.46
X223.93Y-181.272
X228.057Y-219.373
X228.692Y-238.422
X232.82Y-157.46
X232.82Y-181.272
X233.455Y-200.322
X237.582Y-238.422
X238.218Y-219.373
X242.345Y-200.322
X242.98Y-157.46
X242.98Y-181.272
X247.107Y-219.373
X247.742Y-238.422
X251.87Y-157.46
X251.87Y-181.272
X252.505Y-200.322
X256.632Y-238.422
X257.267Y-219.373
X261.395Y-200.322
X262.03Y-157.46
X262.03Y-181.272
X266.157Y-219.373
X266.792Y-238.422
X270.92Y-157.46
X270.92Y-181.272
X271.555Y-200.322
X275.683Y-238.422
X275.683Y-257.472
X276.317Y-219.373
X280.445Y-200.322
X281.08Y-157.46
X281.08Y-181.272
X285.207Y-219.373
X285.842Y-238.422
X285.842Y-257.472
X289.97Y-157.46
X289.97Y-181.272
X290.605Y-200.322
X294.732Y-238.422
X295.368Y-219.373
X299.495Y-200.322
X300.13Y-157.46
X300.13Y-181.272
X304.257Y-219.373
X304.257Y-257.472
X304.892Y-238.422
X309.02Y-157.46
X309.02Y-181.272
X309.655Y-200.322
X314.417Y-219.373
X314.417Y-257.472
X318.545Y-200.322
X319.18Y-157.46
X319.18Y-181.272
X320.926Y-238.422
X328.07Y-157.46
X328.705Y-200.322
X331.086Y-238.422
X332.832Y-262.235
X335.22Y-219.368
X337.62Y-181.268
X338.23Y-157.46
X342.42Y-200.368
X342.993Y-262.235
X345.38Y-219.368
X347.12Y-157.46
X347.78Y-181.268
X351.882Y-243.185
X351.882Y-262.235
X352.58Y-200.368
X357.28Y-157.46
X362.042Y-243.185
X362.042Y-262.235
X370.933Y-157.46
X370.933Y-181.272
X370.933Y-200.322
X370.933Y-219.373
X370.933Y-262.235
X381.092Y-157.46
X381.092Y-181.272
X381.092Y-200.322
X381.092Y-219.373
X381.092Y-262.235
X393.555Y-258.6
X403.715Y-258.6
X413.35Y-262.995
X423.51Y-262.995
X432.85Y-266.14
X443.01Y-266.14
X452.915Y-266.14
X463.075Y-266.14
T3
X405.225Y-142.35
X410.675Y-142.35
T4
X81.69Y-154.92
X81.69Y-178.732
X84.071Y-254.932
X86.49Y-197.828
X88.04Y-152.38
X88.04Y-176.192
X88.834Y-216.832
X88.89Y-216.828
X90.421Y-252.392
X92.84Y-195.288
X93.59Y-235.828
X95.184Y-214.292
X95.24Y-214.288
X99.94Y-233.288
X100.74Y-154.92
X100.74Y-178.732
X107.09Y-152.38
X107.09Y-176.192
X107.884Y-254.932
X110.265Y-197.782
X114.234Y-252.392
X115.027Y-216.832
X116.615Y-195.242
X119.79Y-154.92
X119.79Y-178.732
X121.377Y-214.292
X124.552Y-235.882
X126.14Y-152.38
X126.14Y-176.192
X129.315Y-197.782
X130.903Y-233.343
X131.696Y-254.932
X134.077Y-216.832
X135.665Y-195.242
X138.046Y-252.392
X138.84Y-154.92
X138.84Y-178.732
X140.427Y-214.292
X143.602Y-235.882
X145.19Y-152.38
X145.19Y-176.192
X148.365Y-197.782
X149.952Y-233.343
X153.127Y-216.832
X154.715Y-195.242
X157.89Y-154.92
X157.89Y-178.732
X159.477Y-214.292
X162.653Y-235.882
X164.24Y-152.38
X164.24Y-176.192
X167.415Y-197.782
X169.002Y-233.343
X172.177Y-216.832
X173.765Y-195.242
X176.94Y-154.92
X176.94Y-178.732
X178.528Y-214.292
X181.702Y-235.882
X183.29Y-152.38
X183.29Y-176.192
X186.465Y-197.782
X188.052Y-233.343
X191.227Y-216.832
X192.815Y-195.242
X195.99Y-154.92
X195.99Y-178.732
X197.577Y-214.292
X200.752Y-235.882
X202.34Y-152.38
X202.34Y-176.192
X203.134Y-254.932
X205.515Y-197.782
X207.102Y-233.343
X209.484Y-252.392
X210.278Y-216.832
X211.865Y-195.242
X215.04Y-154.92
X215.04Y-178.732
X216.627Y-214.292
X219.802Y-235.882
X221.39Y-152.38
X221.39Y-176.192
X224.565Y-197.782
X226.153Y-233.343
X229.327Y-216.832
X230.915Y-195.242
X234.09Y-154.92
X234.09Y-178.732
X235.677Y-214.292
X238.852Y-235.882
X240.44Y-152.38
X240.44Y-176.192
X243.615Y-197.782
X245.202Y-233.343
X248.377Y-216.832
X249.965Y-195.242
X253.14Y-154.92
X253.14Y-178.732
X254.727Y-214.292
X257.902Y-235.882
X259.49Y-152.38
X259.49Y-176.192
X262.665Y-197.782
X264.252Y-233.343
X267.428Y-216.832
X269.015Y-195.242
X272.19Y-154.92
X272.19Y-178.732
X273.777Y-214.292
X276.952Y-235.882
X276.952Y-254.932
X278.54Y-152.38
X278.54Y-176.192
X281.715Y-197.782
X283.303Y-233.343
X283.303Y-252.392
X286.477Y-216.832
X288.065Y-195.242
X291.24Y-154.92
X291.24Y-178.732
X292.827Y-214.292
X296.002Y-235.882
X297.59Y-152.38
X297.59Y-176.192
X300.765Y-197.782
X302.352Y-233.343
X305.527Y-216.832
X305.527Y-254.932
X307.115Y-195.242
X310.29Y-154.92
X310.29Y-178.732
X311.877Y-214.292
X311.877Y-252.392
X316.64Y-152.38
X316.64Y-176.192
X319.815Y-197.782
X322.196Y-235.882
X326.165Y-195.242
X328.546Y-233.343
X329.34Y-154.92
X334.102Y-259.695
X335.69Y-152.38
X336.49Y-216.828
X338.89Y-178.728
X340.452Y-257.155
X342.84Y-214.288
X343.69Y-197.828
X345.24Y-176.188
X348.39Y-154.92
X350.04Y-195.288
X353.152Y-240.645
X353.152Y-259.695
X354.74Y-152.38
X359.502Y-238.105
X359.502Y-257.155
X372.202Y-154.92
X372.202Y-178.732
X372.202Y-197.782
X372.202Y-216.832
X372.202Y-259.695
X378.553Y-152.38
X378.553Y-176.192
X378.553Y-195.242
X378.553Y-214.292
X378.553Y-257.155
X394.825Y-256.06
X401.175Y-253.52
X414.62Y-260.455
X420.97Y-257.915
X434.12Y-263.6
X440.47Y-261.06
X454.185Y-263.6
X460.535Y-261.06
T5
X78.388Y-193.18
X80.787Y-212.18
X85.487Y-231.18
X102.188Y-193.18
X104.587Y-212.18
X109.287Y-231.18
X195.031Y-250.284
X218.831Y-250.284
X328.387Y-212.18
X330.787Y-174.08
X335.587Y-193.18
X352.188Y-212.18
X354.587Y-174.08
X359.387Y-193.18
T6
X72.2Y-145.1
X72.7Y-272.6
X471.2Y-145.1
X472.7Y-272.1
T7
X85.5Y-157.46
X85.5Y-181.272
X87.881Y-257.472
X90.3Y-200.368
X92.644Y-219.373
X92.7Y-219.368
X97.4Y-238.368
X104.55Y-157.46
X104.55Y-181.272
X111.694Y-257.472
X114.075Y-200.322
X118.837Y-219.373
X123.6Y-157.46
X123.6Y-181.272
X128.362Y-238.422
X133.125Y-200.322
X135.506Y-257.472
X137.887Y-219.373
X142.65Y-157.46
X142.65Y-181.272
X147.412Y-238.422
X152.175Y-200.322
X156.938Y-219.373
X161.7Y-157.46
X161.7Y-181.272
X166.463Y-238.422
X171.225Y-200.322
X175.987Y-219.373
X180.75Y-157.46
X180.75Y-181.272
X185.512Y-238.422
X190.275Y-200.322
X195.037Y-219.373
X199.8Y-157.46
X199.8Y-181.272
X204.562Y-238.422
X206.944Y-257.472
X209.325Y-200.322
X214.087Y-219.373
X218.85Y-157.46
X218.85Y-181.272
X223.612Y-238.422
X228.375Y-200.322
X233.137Y-219.373
X237.9Y-157.46
X237.9Y-181.272
X242.662Y-238.422
X247.425Y-200.322
X252.188Y-219.373
X256.95Y-157.46
X256.95Y-181.272
X261.712Y-238.422
X266.475Y-200.322
X271.238Y-219.373
X276.0Y-157.46
X276.0Y-181.272
X280.762Y-238.422
X280.762Y-257.472
X285.525Y-200.322
X290.287Y-219.373
X295.05Y-157.46
X295.05Y-181.272
X299.812Y-238.422
X304.575Y-200.322
X309.337Y-219.373
X309.337Y-257.472
X314.1Y-157.46
X314.1Y-181.272
X323.625Y-200.322
X326.006Y-238.422
X333.15Y-157.46
X337.912Y-262.235
X340.3Y-219.368
X342.7Y-181.268
X347.5Y-200.368
X352.2Y-157.46
X356.962Y-243.185
X356.962Y-262.235
X376.012Y-157.46
X376.012Y-181.272
X376.012Y-200.322
X376.012Y-219.373
X376.012Y-262.235
X398.635Y-258.6
X418.43Y-262.995
X437.93Y-266.14
X457.995Y-266.14
T8
X78.388Y-208.42
X80.787Y-227.42
X85.487Y-246.42
X102.188Y-208.42
X104.587Y-227.42
X109.287Y-246.42
X195.031Y-265.524
X218.831Y-265.524
X328.387Y-227.42
X330.787Y-189.32
X335.587Y-208.42
X352.188Y-227.42
X354.587Y-189.32
X359.387Y-208.42
T0
M30
