<svg width="259" height="118" xmlns="http://www.w3.org/2000/svg" xmlns:xlink="http://www.w3.org/1999/xlink" overflow="hidden"><defs><clipPath id="clip0"><rect x="405" y="300" width="259" height="118"/></clipPath></defs><g clip-path="url(#clip0)" transform="translate(-405 -300)"><path d="M593.709 340.166 626.709 340.166 626.709 343.684 600.925 343.684 600.133 365.024 602.949 365.024C606.293 365.024 608.347 365.024 609.109 365.024 614.741 365.024 619.669 366.264 623.893 368.742 628.117 371.221 630.229 375.628 630.229 381.964 630.229 386.599 629.1 390.251 626.841 392.92 624.583 395.59 621.899 397.438 618.789 398.464 615.68 399.491 612.6 400.004 609.549 400.004 605.384 400.004 601.835 399.242 598.901 397.716 595.968 396.191 593.211 393.874 590.629 390.766L592.301 389.27C594.531 391.733 596.936 393.551 599.517 394.725 602.099 395.899 605.003 396.486 608.229 396.486 612.043 396.486 615.196 395.268 617.689 392.833 620.183 390.398 621.429 386.775 621.429 381.964 621.429 377.447 620.212 374.044 617.777 371.756 615.343 369.468 611.867 368.324 607.349 368.324 604.709 368.324 602.216 368.471 599.869 368.764L596.349 369.206 592.829 365.684ZM555.701 340.164 586.501 340.164 586.501 343.684 564.501 398.244 556.581 398.244 578.581 343.684 560.981 343.684C557.403 343.684 554.675 344.447 552.797 345.972 550.92 347.498 549.981 349.815 549.981 352.924L548.221 352.924 548.221 347.204C548.221 342.511 550.715 340.164 555.701 340.164ZM487.733 340.164 495.653 340.164C498.587 340.164 501.051 341.03 503.045 342.76 505.04 344.491 506.976 346.852 508.853 349.844L521.613 369.644 540.005 340.164 543.965 340.164 523.373 373.604 523.373 398.244 515.453 398.244 515.453 374.22 500.493 351.604C498.968 349.434 497.677 347.732 496.621 346.5 495.565 345.268 494.319 344.212 492.881 343.332 491.444 342.452 489.728 342.012 487.733 342.012ZM422.501 340.164 430.861 340.164 451.981 385.924 472.661 340.164 480.581 340.164 480.581 383.284C480.581 388.74 481.271 392.964 482.649 395.956 484.028 398.948 486.125 400.444 488.941 400.444L488.941 402.204C484.717 402.204 481.432 401.559 479.085 400.268 476.739 398.978 475.081 396.968 474.113 394.24 473.145 391.512 472.661 387.86 472.661 383.284L472.661 349.404 450.661 398.244 448.901 398.244 426.021 348.524 426.021 398.244 422.501 398.244Z" stroke="#000000" stroke-linejoin="round" stroke-miterlimit="10" fill="none" fill-rule="evenodd"/><text fill="#000000" fill-opacity="0" font-family="Arial,Arial_MSFontService,sans-serif" font-size="62.04" x="422.501" y="394.449">MY75</text></g></svg>