%TF.GenerationSoftware,KiCad,Pcbnew,8.0.4*%
%TF.CreationDate,2024-08-19T19:21:19-07:00*%
%TF.ProjectId,LED flashlight,4c454420-666c-4617-9368-6c696768742e,rev?*%
%TF.SameCoordinates,Original*%
%TF.FileFunction,Copper,L1,Top*%
%TF.FilePolarity,Positive*%
%FSLAX46Y46*%
G04 Gerber Fmt 4.6, Leading zero omitted, Abs format (unit mm)*
G04 Created by KiCad (PCBNEW 8.0.4) date 2024-08-19 19:21:19*
%MOMM*%
%LPD*%
G01*
G04 APERTURE LIST*
G04 Aperture macros list*
%AMRoundRect*
0 Rectangle with rounded corners*
0 $1 Rounding radius*
0 $2 $3 $4 $5 $6 $7 $8 $9 X,Y pos of 4 corners*
0 Add a 4 corners polygon primitive as box body*
4,1,4,$2,$3,$4,$5,$6,$7,$8,$9,$2,$3,0*
0 Add four circle primitives for the rounded corners*
1,1,$1+$1,$2,$3*
1,1,$1+$1,$4,$5*
1,1,$1+$1,$6,$7*
1,1,$1+$1,$8,$9*
0 Add four rect primitives between the rounded corners*
20,1,$1+$1,$2,$3,$4,$5,0*
20,1,$1+$1,$4,$5,$6,$7,0*
20,1,$1+$1,$6,$7,$8,$9,0*
20,1,$1+$1,$8,$9,$2,$3,0*%
G04 Aperture macros list end*
%TA.AperFunction,ComponentPad*%
%ADD10R,1.700000X1.700000*%
%TD*%
%TA.AperFunction,ComponentPad*%
%ADD11O,1.700000X1.700000*%
%TD*%
%TA.AperFunction,SMDPad,CuDef*%
%ADD12RoundRect,0.250000X-0.312500X-0.625000X0.312500X-0.625000X0.312500X0.625000X-0.312500X0.625000X0*%
%TD*%
%TA.AperFunction,SMDPad,CuDef*%
%ADD13RoundRect,0.250000X0.375000X0.625000X-0.375000X0.625000X-0.375000X-0.625000X0.375000X-0.625000X0*%
%TD*%
%TA.AperFunction,SMDPad,CuDef*%
%ADD14RoundRect,0.250000X-0.625000X0.312500X-0.625000X-0.312500X0.625000X-0.312500X0.625000X0.312500X0*%
%TD*%
%TA.AperFunction,SMDPad,CuDef*%
%ADD15RoundRect,0.250000X-0.325000X-0.650000X0.325000X-0.650000X0.325000X0.650000X-0.325000X0.650000X0*%
%TD*%
%TA.AperFunction,SMDPad,CuDef*%
%ADD16RoundRect,0.250000X0.325000X0.650000X-0.325000X0.650000X-0.325000X-0.650000X0.325000X-0.650000X0*%
%TD*%
%TA.AperFunction,SMDPad,CuDef*%
%ADD17R,2.000000X2.000000*%
%TD*%
%TA.AperFunction,SMDPad,CuDef*%
%ADD18RoundRect,0.150000X-0.425000X0.150000X-0.425000X-0.150000X0.425000X-0.150000X0.425000X0.150000X0*%
%TD*%
%TA.AperFunction,SMDPad,CuDef*%
%ADD19RoundRect,0.075000X-0.500000X0.075000X-0.500000X-0.075000X0.500000X-0.075000X0.500000X0.075000X0*%
%TD*%
%TA.AperFunction,ComponentPad*%
%ADD20O,2.100000X1.000000*%
%TD*%
%TA.AperFunction,ComponentPad*%
%ADD21O,1.800000X1.000000*%
%TD*%
%TA.AperFunction,SMDPad,CuDef*%
%ADD22RoundRect,0.075000X-0.910000X-0.225000X0.910000X-0.225000X0.910000X0.225000X-0.910000X0.225000X0*%
%TD*%
%TA.AperFunction,SMDPad,CuDef*%
%ADD23R,2.413000X3.302000*%
%TD*%
%TA.AperFunction,SMDPad,CuDef*%
%ADD24RoundRect,0.250000X0.312500X0.625000X-0.312500X0.625000X-0.312500X-0.625000X0.312500X-0.625000X0*%
%TD*%
%TA.AperFunction,ViaPad*%
%ADD25C,0.600000*%
%TD*%
%TA.AperFunction,Conductor*%
%ADD26C,0.200000*%
%TD*%
G04 APERTURE END LIST*
D10*
%TO.P,LED,1,+*%
%TO.N,Net-(BT1-+)*%
X159706606Y-88262710D03*
D11*
%TO.P,LED,2,-*%
%TO.N,Net-(D3-A)*%
X159706606Y-90802710D03*
%TD*%
D12*
%TO.P,R1,1*%
%TO.N,Net-(P1-VBUS-PadA4)*%
X132007500Y-86890000D03*
%TO.P,R1,2*%
%TO.N,Net-(D2-A)*%
X134932500Y-86890000D03*
%TD*%
D13*
%TO.P,D4,1,K*%
%TO.N,Net-(D4-K)*%
X140880000Y-90280000D03*
%TO.P,D4,2,A*%
%TO.N,Net-(D2-A)*%
X138080000Y-90280000D03*
%TD*%
D14*
%TO.P,R5,1*%
%TO.N,Net-(D3-A)*%
X159655000Y-93682500D03*
%TO.P,R5,2*%
%TO.N,Net-(R5-Pad2)*%
X159655000Y-96607500D03*
%TD*%
D10*
%TO.P,BT1,1,+*%
%TO.N,Net-(BT1-+)*%
X149520000Y-90425000D03*
D11*
%TO.P,BT1,2,-*%
%TO.N,Earth*%
X149520000Y-92965000D03*
%TD*%
D15*
%TO.P,D2,1,K*%
%TO.N,Earth*%
X131985000Y-89790000D03*
%TO.P,D2,2,A*%
%TO.N,Net-(D2-A)*%
X134935000Y-89790000D03*
%TD*%
D16*
%TO.P,D1,1,K*%
%TO.N,Net-(BT1-+)*%
X135035000Y-93150000D03*
%TO.P,D1,2,A*%
%TO.N,Earth*%
X132085000Y-93150000D03*
%TD*%
D17*
%TO.P,SW1,1,1*%
%TO.N,Net-(R5-Pad2)*%
X154820000Y-84180000D03*
%TO.P,SW1,2,2*%
%TO.N,Earth*%
X154820000Y-99180000D03*
%TD*%
D12*
%TO.P,R2,1*%
%TO.N,Net-(D4-K)*%
X143077500Y-90270000D03*
%TO.P,R2,2*%
%TO.N,Net-(U1-~{STDBY})*%
X146002500Y-90270000D03*
%TD*%
%TO.P,R3,1*%
%TO.N,Net-(D5-K)*%
X143045000Y-86940000D03*
%TO.P,R3,2*%
%TO.N,Net-(U1-~{CHRG})*%
X145970000Y-86940000D03*
%TD*%
D18*
%TO.P,P1,A1,GND*%
%TO.N,Earth*%
X129742221Y-88339014D03*
%TO.P,P1,A4,VBUS*%
%TO.N,Net-(P1-VBUS-PadA4)*%
X129742221Y-89139014D03*
D19*
%TO.P,P1,A5,CC*%
%TO.N,unconnected-(P1-CC-PadA5)*%
X129742221Y-90289014D03*
%TO.P,P1,A6,D+*%
%TO.N,unconnected-(P1-D+-PadA6)*%
X129742221Y-91289014D03*
%TO.P,P1,A7,D-*%
%TO.N,unconnected-(P1-D--PadA7)*%
X129742221Y-91789014D03*
%TO.P,P1,A8*%
%TO.N,N/C*%
X129742221Y-92789014D03*
D18*
%TO.P,P1,A9,VBUS*%
%TO.N,Net-(P1-VBUS-PadA4)*%
X129742221Y-93939014D03*
%TO.P,P1,A12,GND*%
%TO.N,Earth*%
X129742221Y-94739014D03*
%TO.P,P1,B1,GND*%
X129742221Y-94739014D03*
%TO.P,P1,B4,VBUS*%
%TO.N,Net-(P1-VBUS-PadA4)*%
X129742221Y-93939014D03*
D19*
%TO.P,P1,B5,VCONN*%
%TO.N,unconnected-(P1-VCONN-PadB5)*%
X129742221Y-93289014D03*
%TO.P,P1,B6*%
%TO.N,N/C*%
X129742221Y-92289014D03*
%TO.P,P1,B7*%
X129742221Y-90789014D03*
%TO.P,P1,B8*%
X129742221Y-89789014D03*
D18*
%TO.P,P1,B9,VBUS*%
%TO.N,Net-(P1-VBUS-PadA4)*%
X129742221Y-89139014D03*
%TO.P,P1,B12,GND*%
%TO.N,Earth*%
X129742221Y-88339014D03*
D20*
%TO.P,P1,S1,SHIELD*%
%TO.N,unconnected-(P1-SHIELD-PadS1)*%
X129167221Y-87219014D03*
D21*
X124987221Y-87219014D03*
D20*
X129167221Y-95859014D03*
D21*
X124987221Y-95859014D03*
%TD*%
D13*
%TO.P,D5,1,K*%
%TO.N,Net-(D5-K)*%
X140950000Y-86990000D03*
%TO.P,D5,2,A*%
%TO.N,Net-(D2-A)*%
X138150000Y-86990000D03*
%TD*%
D22*
%TO.P,U1,1,TEMP*%
%TO.N,Earth*%
X139460000Y-93080000D03*
%TO.P,U1,2,PROG*%
%TO.N,Net-(U1-PROG)*%
X139460000Y-94350000D03*
%TO.P,U1,3,GND*%
%TO.N,Earth*%
X139460000Y-95620000D03*
%TO.P,U1,4,VCC*%
%TO.N,Net-(D2-A)*%
X139460000Y-96890000D03*
%TO.P,U1,5,BAT*%
%TO.N,Net-(BT1-+)*%
X144410000Y-96890000D03*
%TO.P,U1,6,~{STDBY}*%
%TO.N,Net-(U1-~{STDBY})*%
X144410000Y-95620000D03*
%TO.P,U1,7,~{CHRG}*%
%TO.N,Net-(U1-~{CHRG})*%
X144410000Y-94350000D03*
%TO.P,U1,8,CE*%
%TO.N,Net-(D2-A)*%
X144410000Y-93080000D03*
D23*
%TO.P,U1,9,EP*%
%TO.N,unconnected-(U1-EP-Pad9)*%
X141935000Y-94985000D03*
%TD*%
D24*
%TO.P,R4,1*%
%TO.N,Net-(U1-PROG)*%
X134872500Y-95990000D03*
%TO.P,R4,2*%
%TO.N,Earth*%
X131947500Y-95990000D03*
%TD*%
D25*
%TO.N,unconnected-(P1-SHIELD-PadS1)*%
X129725000Y-95470000D03*
%TO.N,Earth*%
X132085000Y-93150000D03*
X139430000Y-93030000D03*
X139460000Y-95620000D03*
X131947500Y-95990000D03*
%TO.N,Net-(D2-A)*%
X144410000Y-93080000D03*
X138080000Y-90280000D03*
X139520000Y-96860000D03*
%TO.N,Net-(U1-PROG)*%
X136220000Y-95730000D03*
X139460000Y-94350000D03*
%TD*%
D26*
%TO.N,Earth*%
X130696514Y-94739014D02*
X131947500Y-95990000D01*
X129742221Y-94739014D02*
X130696514Y-94739014D01*
%TO.N,Net-(P1-VBUS-PadA4)*%
X128738730Y-93484954D02*
X128738730Y-89592646D01*
X128738730Y-89592646D02*
X128759350Y-89572026D01*
X129192790Y-93939014D02*
X128738730Y-93484954D01*
X129742221Y-93939014D02*
X129192790Y-93939014D01*
X131153254Y-86035754D02*
X132007500Y-86890000D01*
X127687128Y-86850231D02*
X128501605Y-86035754D01*
X127687128Y-89145887D02*
X127687128Y-86850231D01*
X128113267Y-89572026D02*
X127687128Y-89145887D01*
X128759350Y-89572026D02*
X128113267Y-89572026D01*
X129192362Y-89139014D02*
X128759350Y-89572026D01*
X129742221Y-89139014D02*
X129192362Y-89139014D01*
X128501605Y-86035754D02*
X131153254Y-86035754D01*
%TO.N,Earth*%
X130534014Y-88339014D02*
X131985000Y-89790000D01*
X129742221Y-88339014D02*
X130534014Y-88339014D01*
X131985000Y-93050000D02*
X132085000Y-93150000D01*
X139460000Y-93060000D02*
X139430000Y-93030000D01*
X132085000Y-93150000D02*
X132085000Y-95852500D01*
X132085000Y-95852500D02*
X131947500Y-95990000D01*
X154820000Y-98265000D02*
X154820000Y-99180000D01*
X139460000Y-93080000D02*
X139460000Y-93060000D01*
X149520000Y-92965000D02*
X154820000Y-98265000D01*
X131985000Y-89790000D02*
X131985000Y-93050000D01*
%TO.N,Net-(BT1-+)*%
X144410000Y-96890000D02*
X145870000Y-96890000D01*
X135035000Y-93150000D02*
X136830000Y-93150000D01*
X137270000Y-93590000D02*
X137270000Y-97750000D01*
X137270000Y-97750000D02*
X137530000Y-98010000D01*
X145870000Y-96890000D02*
X147330000Y-95430000D01*
X147330000Y-91580000D02*
X148485000Y-90425000D01*
X136830000Y-93150000D02*
X137270000Y-93590000D01*
X143290000Y-98010000D02*
X144410000Y-96890000D01*
X147330000Y-95430000D02*
X147330000Y-91580000D01*
X137530000Y-98010000D02*
X143290000Y-98010000D01*
X148485000Y-90425000D02*
X149520000Y-90425000D01*
%TO.N,Net-(D2-A)*%
X138150000Y-90210000D02*
X138080000Y-90280000D01*
X139490000Y-96890000D02*
X139520000Y-96860000D01*
X134932500Y-89787500D02*
X134935000Y-89790000D01*
X137590000Y-89790000D02*
X138080000Y-90280000D01*
X134935000Y-89790000D02*
X137590000Y-89790000D01*
X134932500Y-86890000D02*
X134932500Y-89787500D01*
X139460000Y-96890000D02*
X139490000Y-96890000D01*
X138150000Y-86990000D02*
X138150000Y-90210000D01*
%TO.N,Net-(D4-K)*%
X143067500Y-90280000D02*
X143077500Y-90270000D01*
X140880000Y-90280000D02*
X143067500Y-90280000D01*
%TO.N,Net-(D5-K)*%
X142995000Y-86990000D02*
X143045000Y-86940000D01*
X140950000Y-86990000D02*
X142995000Y-86990000D01*
%TO.N,Net-(U1-~{STDBY})*%
X144807410Y-95620000D02*
X146830000Y-93597410D01*
X144410000Y-95620000D02*
X144807410Y-95620000D01*
X146830000Y-93597410D02*
X146830000Y-91097500D01*
X146830000Y-91097500D02*
X146002500Y-90270000D01*
%TO.N,Net-(U1-~{CHRG})*%
X144830000Y-87720000D02*
X145190000Y-87720000D01*
X144410000Y-94350000D02*
X145394999Y-94350000D01*
X144680000Y-87870000D02*
X144830000Y-87720000D01*
X144680000Y-91050000D02*
X144680000Y-87870000D01*
X145190000Y-87720000D02*
X145970000Y-86940000D01*
X145394999Y-94350000D02*
X146300000Y-93444999D01*
X146300000Y-92670000D02*
X144680000Y-91050000D01*
X146300000Y-93444999D02*
X146300000Y-92670000D01*
%TO.N,Net-(U1-PROG)*%
X135960000Y-95990000D02*
X136220000Y-95730000D01*
X134872500Y-95990000D02*
X135960000Y-95990000D01*
%TO.N,Net-(D3-A)*%
X159655000Y-90705000D02*
X159755000Y-90605000D01*
X159655000Y-93682500D02*
X159655000Y-90705000D01*
%TO.N,Net-(R5-Pad2)*%
X154820000Y-91772500D02*
X159655000Y-96607500D01*
X154820000Y-84180000D02*
X154820000Y-91772500D01*
%TD*%
%TA.AperFunction,NonConductor*%
G36*
X148262905Y-91598843D02*
G01*
X148307252Y-91627344D01*
X148312455Y-91632547D01*
X148427664Y-91718793D01*
X148427671Y-91718797D01*
X148559081Y-91767810D01*
X148615015Y-91809681D01*
X148639432Y-91875145D01*
X148624580Y-91943418D01*
X148603430Y-91971673D01*
X148481503Y-92093600D01*
X148345965Y-92287169D01*
X148345964Y-92287171D01*
X148246098Y-92501335D01*
X148246094Y-92501344D01*
X148184938Y-92729586D01*
X148184936Y-92729596D01*
X148178028Y-92808561D01*
X148152575Y-92873629D01*
X148095984Y-92914608D01*
X148026222Y-92918486D01*
X147965438Y-92884032D01*
X147932931Y-92822185D01*
X147930500Y-92797753D01*
X147930500Y-91880096D01*
X147950185Y-91813057D01*
X147966815Y-91792419D01*
X148131890Y-91627343D01*
X148193213Y-91593859D01*
X148262905Y-91598843D01*
G37*
%TD.AperFunction*%
%TA.AperFunction,NonConductor*%
G36*
X157893736Y-83410726D02*
G01*
X158183796Y-83428271D01*
X158198657Y-83430075D01*
X158402662Y-83467461D01*
X158480798Y-83481780D01*
X158495335Y-83485363D01*
X158769172Y-83570695D01*
X158783163Y-83576000D01*
X159044743Y-83693727D01*
X159057989Y-83700680D01*
X159303465Y-83849075D01*
X159315776Y-83857573D01*
X159541573Y-84034473D01*
X159552781Y-84044403D01*
X159755596Y-84247218D01*
X159765526Y-84258426D01*
X159885481Y-84411538D01*
X159942422Y-84484217D01*
X159950928Y-84496540D01*
X160099316Y-84742004D01*
X160106275Y-84755263D01*
X160223997Y-85016831D01*
X160229306Y-85030832D01*
X160314635Y-85304663D01*
X160318219Y-85319201D01*
X160369923Y-85601340D01*
X160371728Y-85616205D01*
X160389274Y-85906263D01*
X160389500Y-85913750D01*
X160389500Y-86788210D01*
X160369815Y-86855249D01*
X160317011Y-86901004D01*
X160265500Y-86912210D01*
X158808735Y-86912210D01*
X158808729Y-86912211D01*
X158749122Y-86918618D01*
X158614277Y-86968912D01*
X158614270Y-86968916D01*
X158499061Y-87055162D01*
X158499058Y-87055165D01*
X158412812Y-87170374D01*
X158412808Y-87170381D01*
X158362514Y-87305227D01*
X158356107Y-87364826D01*
X158356106Y-87364845D01*
X158356106Y-89160580D01*
X158356107Y-89160586D01*
X158362514Y-89220193D01*
X158412808Y-89355038D01*
X158412812Y-89355045D01*
X158499058Y-89470254D01*
X158499061Y-89470257D01*
X158614270Y-89556503D01*
X158614277Y-89556507D01*
X158745687Y-89605520D01*
X158801621Y-89647391D01*
X158826038Y-89712855D01*
X158811186Y-89781128D01*
X158790036Y-89809383D01*
X158668109Y-89931310D01*
X158532571Y-90124879D01*
X158532570Y-90124881D01*
X158432704Y-90339045D01*
X158432700Y-90339054D01*
X158371544Y-90567296D01*
X158371542Y-90567306D01*
X158350947Y-90802709D01*
X158350947Y-90802710D01*
X158371542Y-91038113D01*
X158371544Y-91038123D01*
X158432700Y-91266365D01*
X158432702Y-91266369D01*
X158432703Y-91266373D01*
X158482901Y-91374022D01*
X158532571Y-91480540D01*
X158532573Y-91480544D01*
X158611918Y-91593859D01*
X158668111Y-91674111D01*
X158835205Y-91841205D01*
X159001625Y-91957733D01*
X159045248Y-92012307D01*
X159054500Y-92059306D01*
X159054500Y-92499911D01*
X159034815Y-92566950D01*
X158982011Y-92612705D01*
X158943102Y-92623269D01*
X158877202Y-92630001D01*
X158877200Y-92630001D01*
X158710668Y-92685185D01*
X158710663Y-92685187D01*
X158561342Y-92777289D01*
X158437289Y-92901342D01*
X158345187Y-93050663D01*
X158345185Y-93050668D01*
X158325697Y-93109480D01*
X158290001Y-93217203D01*
X158290001Y-93217204D01*
X158290000Y-93217204D01*
X158279500Y-93319983D01*
X158279500Y-94045001D01*
X158279502Y-94045022D01*
X158282508Y-94074452D01*
X158269737Y-94143145D01*
X158221856Y-94194028D01*
X158154066Y-94210948D01*
X158087890Y-94188531D01*
X158071469Y-94174733D01*
X155456819Y-91560083D01*
X155423334Y-91498760D01*
X155420500Y-91472402D01*
X155420500Y-85804499D01*
X155440185Y-85737460D01*
X155492989Y-85691705D01*
X155544500Y-85680499D01*
X155867871Y-85680499D01*
X155867872Y-85680499D01*
X155927483Y-85674091D01*
X156062331Y-85623796D01*
X156177546Y-85537546D01*
X156263796Y-85422331D01*
X156314091Y-85287483D01*
X156320500Y-85227873D01*
X156320499Y-83534499D01*
X156340184Y-83467461D01*
X156392987Y-83421706D01*
X156444499Y-83410500D01*
X157824108Y-83410500D01*
X157886249Y-83410500D01*
X157893736Y-83410726D01*
G37*
%TD.AperFunction*%
%TA.AperFunction,NonConductor*%
G36*
X136596942Y-93770185D02*
G01*
X136617584Y-93786819D01*
X136633181Y-93802416D01*
X136666666Y-93863739D01*
X136669500Y-93890097D01*
X136669500Y-94864432D01*
X136649815Y-94931471D01*
X136597011Y-94977226D01*
X136527853Y-94987170D01*
X136504546Y-94981474D01*
X136399257Y-94944632D01*
X136399249Y-94944630D01*
X136220004Y-94924435D01*
X136219996Y-94924435D01*
X136040750Y-94944630D01*
X136040742Y-94944632D01*
X135943036Y-94978821D01*
X135873257Y-94982382D01*
X135812630Y-94947653D01*
X135796543Y-94926875D01*
X135778094Y-94896964D01*
X135777712Y-94896344D01*
X135653656Y-94772288D01*
X135585769Y-94730415D01*
X135539046Y-94678468D01*
X135527823Y-94609505D01*
X135555667Y-94545423D01*
X135611860Y-94507172D01*
X135679334Y-94484814D01*
X135828656Y-94392712D01*
X135952712Y-94268656D01*
X136044814Y-94119334D01*
X136099999Y-93952797D01*
X136106405Y-93890097D01*
X136109286Y-93861897D01*
X136135683Y-93797205D01*
X136192864Y-93757054D01*
X136232644Y-93750500D01*
X136529903Y-93750500D01*
X136596942Y-93770185D01*
G37*
%TD.AperFunction*%
%TA.AperFunction,NonConductor*%
G36*
X158950546Y-94742491D02*
G01*
X158979991Y-94745500D01*
X160265500Y-94745499D01*
X160332539Y-94765184D01*
X160378294Y-94817987D01*
X160389500Y-94869499D01*
X160389500Y-95420500D01*
X160369815Y-95487539D01*
X160317011Y-95533294D01*
X160265500Y-95544500D01*
X159492598Y-95544500D01*
X159425559Y-95524815D01*
X159404917Y-95508181D01*
X158850267Y-94953531D01*
X158816782Y-94892208D01*
X158821766Y-94822516D01*
X158863638Y-94766583D01*
X158929102Y-94742166D01*
X158950546Y-94742491D01*
G37*
%TD.AperFunction*%
%TA.AperFunction,NonConductor*%
G36*
X146648834Y-94730325D02*
G01*
X146704767Y-94772197D01*
X146729184Y-94837661D01*
X146729500Y-94846507D01*
X146729500Y-95129901D01*
X146709815Y-95196940D01*
X146693181Y-95217582D01*
X146107181Y-95803582D01*
X146045858Y-95837067D01*
X145976166Y-95832083D01*
X145920233Y-95790211D01*
X145895816Y-95724747D01*
X145895500Y-95715901D01*
X145895500Y-95432507D01*
X145915185Y-95365468D01*
X145931819Y-95344826D01*
X146517819Y-94758826D01*
X146579142Y-94725341D01*
X146648834Y-94730325D01*
G37*
%TD.AperFunction*%
%TA.AperFunction,NonConductor*%
G36*
X142880659Y-97156184D02*
G01*
X142926414Y-97208988D01*
X142936559Y-97244316D01*
X142939850Y-97269317D01*
X142929083Y-97338352D01*
X142882703Y-97390607D01*
X142816911Y-97409500D01*
X141053089Y-97409500D01*
X140986050Y-97389815D01*
X140940295Y-97337011D01*
X140930150Y-97269317D01*
X140933441Y-97244316D01*
X140961706Y-97180419D01*
X141020030Y-97141947D01*
X141056380Y-97136499D01*
X142813620Y-97136499D01*
X142880659Y-97156184D01*
G37*
%TD.AperFunction*%
%TA.AperFunction,NonConductor*%
G36*
X153262539Y-83430185D02*
G01*
X153308294Y-83482989D01*
X153319500Y-83534500D01*
X153319500Y-85227870D01*
X153319501Y-85227876D01*
X153325908Y-85287483D01*
X153376202Y-85422328D01*
X153376206Y-85422335D01*
X153462452Y-85537544D01*
X153462455Y-85537547D01*
X153577664Y-85623793D01*
X153577671Y-85623797D01*
X153594801Y-85630186D01*
X153712517Y-85674091D01*
X153772127Y-85680500D01*
X154095500Y-85680499D01*
X154162539Y-85700183D01*
X154208294Y-85752987D01*
X154219500Y-85804499D01*
X154219500Y-91685830D01*
X154219499Y-91685848D01*
X154219499Y-91851554D01*
X154219498Y-91851554D01*
X154260423Y-92004286D01*
X154276044Y-92031340D01*
X154276045Y-92031345D01*
X154276047Y-92031345D01*
X154289886Y-92055315D01*
X154339479Y-92141214D01*
X154339481Y-92141217D01*
X154458349Y-92260085D01*
X154458355Y-92260090D01*
X158253013Y-96054749D01*
X158286498Y-96116072D01*
X158288690Y-96155032D01*
X158279500Y-96244981D01*
X158279500Y-96970001D01*
X158279501Y-96970019D01*
X158290000Y-97072796D01*
X158290001Y-97072799D01*
X158345185Y-97239331D01*
X158345187Y-97239336D01*
X158380069Y-97295888D01*
X158437288Y-97388656D01*
X158561344Y-97512712D01*
X158710666Y-97604814D01*
X158877203Y-97659999D01*
X158979991Y-97670500D01*
X160228127Y-97670499D01*
X160295166Y-97690184D01*
X160340921Y-97742987D01*
X160350865Y-97812146D01*
X160350096Y-97816851D01*
X160318219Y-97990798D01*
X160314635Y-98005336D01*
X160229306Y-98279167D01*
X160223997Y-98293168D01*
X160106275Y-98554736D01*
X160099316Y-98567995D01*
X159950928Y-98813459D01*
X159942422Y-98825782D01*
X159765526Y-99051573D01*
X159755596Y-99062781D01*
X159552781Y-99265596D01*
X159541573Y-99275526D01*
X159315782Y-99452422D01*
X159303459Y-99460928D01*
X159057995Y-99609316D01*
X159044736Y-99616275D01*
X158783168Y-99733997D01*
X158769167Y-99739306D01*
X158495336Y-99824635D01*
X158480798Y-99828219D01*
X158198659Y-99879923D01*
X158183794Y-99881728D01*
X157893736Y-99899274D01*
X157886249Y-99899500D01*
X156444500Y-99899500D01*
X156377461Y-99879815D01*
X156331706Y-99827011D01*
X156320500Y-99775500D01*
X156320499Y-98132129D01*
X156320498Y-98132123D01*
X156320497Y-98132116D01*
X156314091Y-98072517D01*
X156286361Y-97998170D01*
X156263797Y-97937671D01*
X156263793Y-97937664D01*
X156177547Y-97822455D01*
X156177544Y-97822452D01*
X156062335Y-97736206D01*
X156062328Y-97736202D01*
X155927482Y-97685908D01*
X155927483Y-97685908D01*
X155867883Y-97679501D01*
X155867881Y-97679500D01*
X155867873Y-97679500D01*
X155867865Y-97679500D01*
X155135097Y-97679500D01*
X155068058Y-97659815D01*
X155047416Y-97643181D01*
X150852766Y-93448531D01*
X150819281Y-93387208D01*
X150820672Y-93328757D01*
X150836248Y-93270626D01*
X150855063Y-93200408D01*
X150875659Y-92965000D01*
X150855063Y-92729592D01*
X150793903Y-92501337D01*
X150694035Y-92287171D01*
X150692983Y-92285669D01*
X150558496Y-92093600D01*
X150501765Y-92036869D01*
X150436567Y-91971671D01*
X150403084Y-91910351D01*
X150408068Y-91840659D01*
X150449939Y-91784725D01*
X150480915Y-91767810D01*
X150612331Y-91718796D01*
X150727546Y-91632546D01*
X150813796Y-91517331D01*
X150864091Y-91382483D01*
X150870500Y-91322873D01*
X150870499Y-89527128D01*
X150864386Y-89470257D01*
X150864091Y-89467516D01*
X150813797Y-89332671D01*
X150813793Y-89332664D01*
X150727547Y-89217455D01*
X150727544Y-89217452D01*
X150612335Y-89131206D01*
X150612328Y-89131202D01*
X150477482Y-89080908D01*
X150477483Y-89080908D01*
X150417883Y-89074501D01*
X150417881Y-89074500D01*
X150417873Y-89074500D01*
X150417864Y-89074500D01*
X148622129Y-89074500D01*
X148622123Y-89074501D01*
X148562516Y-89080908D01*
X148427671Y-89131202D01*
X148427664Y-89131206D01*
X148312455Y-89217452D01*
X148312452Y-89217455D01*
X148226206Y-89332664D01*
X148226202Y-89332671D01*
X148175908Y-89467517D01*
X148170846Y-89514604D01*
X148169501Y-89527123D01*
X148169500Y-89527135D01*
X148169500Y-89842495D01*
X148149815Y-89909534D01*
X148120989Y-89940869D01*
X148116281Y-89944481D01*
X147408930Y-90651832D01*
X147347607Y-90685317D01*
X147277915Y-90680333D01*
X147233568Y-90651832D01*
X147101818Y-90520082D01*
X147068333Y-90458759D01*
X147065499Y-90432401D01*
X147065499Y-89594998D01*
X147065498Y-89594981D01*
X147054999Y-89492203D01*
X147054998Y-89492200D01*
X147046819Y-89467517D01*
X146999814Y-89325666D01*
X146907712Y-89176344D01*
X146783656Y-89052288D01*
X146678131Y-88987200D01*
X146634336Y-88960187D01*
X146634331Y-88960185D01*
X146632862Y-88959698D01*
X146467797Y-88905001D01*
X146467795Y-88905000D01*
X146365010Y-88894500D01*
X145639998Y-88894500D01*
X145639980Y-88894501D01*
X145537203Y-88905000D01*
X145537197Y-88905002D01*
X145443503Y-88936049D01*
X145373675Y-88938451D01*
X145313633Y-88902719D01*
X145282441Y-88840198D01*
X145280500Y-88818343D01*
X145280500Y-88412582D01*
X145300185Y-88345543D01*
X145352989Y-88299788D01*
X145372403Y-88292808D01*
X145389356Y-88288266D01*
X145459206Y-88289929D01*
X145460335Y-88290296D01*
X145504703Y-88304999D01*
X145607491Y-88315500D01*
X146332508Y-88315499D01*
X146332516Y-88315498D01*
X146332519Y-88315498D01*
X146409306Y-88307654D01*
X146435297Y-88304999D01*
X146601834Y-88249814D01*
X146751156Y-88157712D01*
X146875212Y-88033656D01*
X146967314Y-87884334D01*
X147022499Y-87717797D01*
X147033000Y-87615009D01*
X147032999Y-86264992D01*
X147027891Y-86214992D01*
X147022499Y-86162203D01*
X147022498Y-86162200D01*
X147005931Y-86112204D01*
X146967314Y-85995666D01*
X146875212Y-85846344D01*
X146751156Y-85722288D01*
X146601834Y-85630186D01*
X146435297Y-85575001D01*
X146435295Y-85575000D01*
X146332510Y-85564500D01*
X145607498Y-85564500D01*
X145607480Y-85564501D01*
X145504703Y-85575000D01*
X145504700Y-85575001D01*
X145338168Y-85630185D01*
X145338163Y-85630187D01*
X145188842Y-85722289D01*
X145064789Y-85846342D01*
X144972687Y-85995663D01*
X144972685Y-85995668D01*
X144956117Y-86045668D01*
X144917501Y-86162203D01*
X144917501Y-86162204D01*
X144917500Y-86162204D01*
X144907000Y-86264983D01*
X144907000Y-86264991D01*
X144907000Y-86676235D01*
X144907001Y-86995499D01*
X144887317Y-87062538D01*
X144834513Y-87108293D01*
X144783001Y-87119499D01*
X144750943Y-87119499D01*
X144643587Y-87148265D01*
X144598210Y-87160424D01*
X144598209Y-87160425D01*
X144548096Y-87189359D01*
X144548095Y-87189360D01*
X144504689Y-87214420D01*
X144461285Y-87239479D01*
X144461282Y-87239481D01*
X144398518Y-87302246D01*
X144349480Y-87351284D01*
X144349478Y-87351286D01*
X144333053Y-87367711D01*
X144319679Y-87381085D01*
X144258355Y-87414569D01*
X144188663Y-87409583D01*
X144132731Y-87367711D01*
X144108315Y-87302246D01*
X144107999Y-87293423D01*
X144107999Y-86264992D01*
X144102891Y-86214992D01*
X144097499Y-86162203D01*
X144097498Y-86162200D01*
X144080931Y-86112204D01*
X144042314Y-85995666D01*
X143950212Y-85846344D01*
X143826156Y-85722288D01*
X143676834Y-85630186D01*
X143510297Y-85575001D01*
X143510295Y-85575000D01*
X143407510Y-85564500D01*
X142682498Y-85564500D01*
X142682480Y-85564501D01*
X142579703Y-85575000D01*
X142579700Y-85575001D01*
X142413168Y-85630185D01*
X142413163Y-85630187D01*
X142263842Y-85722289D01*
X142139787Y-85846344D01*
X142118110Y-85881489D01*
X142066162Y-85928213D01*
X141997199Y-85939434D01*
X141933117Y-85911590D01*
X141923034Y-85901235D01*
X141922819Y-85901451D01*
X141793657Y-85772289D01*
X141793656Y-85772288D01*
X141700888Y-85715069D01*
X141644336Y-85680187D01*
X141644331Y-85680185D01*
X141642862Y-85679698D01*
X141477797Y-85625001D01*
X141477795Y-85625000D01*
X141375010Y-85614500D01*
X140524998Y-85614500D01*
X140524980Y-85614501D01*
X140422203Y-85625000D01*
X140422200Y-85625001D01*
X140255668Y-85680185D01*
X140255663Y-85680187D01*
X140106342Y-85772289D01*
X139982289Y-85896342D01*
X139890187Y-86045663D01*
X139890185Y-86045668D01*
X139862349Y-86129670D01*
X139835001Y-86212203D01*
X139835001Y-86212204D01*
X139835000Y-86212204D01*
X139824500Y-86314983D01*
X139824500Y-87665001D01*
X139824501Y-87665018D01*
X139835000Y-87767796D01*
X139835001Y-87767799D01*
X139873618Y-87884336D01*
X139890186Y-87934334D01*
X139982288Y-88083656D01*
X140106344Y-88207712D01*
X140255666Y-88299814D01*
X140422203Y-88354999D01*
X140524991Y-88365500D01*
X141375008Y-88365499D01*
X141375016Y-88365498D01*
X141375019Y-88365498D01*
X141431302Y-88359748D01*
X141477797Y-88354999D01*
X141644334Y-88299814D01*
X141793656Y-88207712D01*
X141917712Y-88083656D01*
X141939389Y-88048510D01*
X141991334Y-88001788D01*
X142060296Y-87990564D01*
X142124379Y-88018406D01*
X142134465Y-88028764D01*
X142134681Y-88028549D01*
X142139788Y-88033656D01*
X142263844Y-88157712D01*
X142413166Y-88249814D01*
X142579703Y-88304999D01*
X142682491Y-88315500D01*
X143407508Y-88315499D01*
X143407516Y-88315498D01*
X143407519Y-88315498D01*
X143484306Y-88307654D01*
X143510297Y-88304999D01*
X143676834Y-88249814D01*
X143826156Y-88157712D01*
X143867819Y-88116049D01*
X143929142Y-88082564D01*
X143998834Y-88087548D01*
X144054767Y-88129420D01*
X144079184Y-88194884D01*
X144079500Y-88203730D01*
X144079500Y-88973770D01*
X144059815Y-89040809D01*
X144007011Y-89086564D01*
X143937853Y-89096508D01*
X143874297Y-89067483D01*
X143867819Y-89061451D01*
X143858657Y-89052289D01*
X143858656Y-89052288D01*
X143753131Y-88987200D01*
X143709336Y-88960187D01*
X143709331Y-88960185D01*
X143707862Y-88959698D01*
X143542797Y-88905001D01*
X143542795Y-88905000D01*
X143440010Y-88894500D01*
X142714998Y-88894500D01*
X142714980Y-88894501D01*
X142612203Y-88905000D01*
X142612200Y-88905001D01*
X142445668Y-88960185D01*
X142445663Y-88960187D01*
X142296342Y-89052289D01*
X142172288Y-89176343D01*
X142172285Y-89176347D01*
X142112453Y-89273350D01*
X142060505Y-89320075D01*
X141991543Y-89331296D01*
X141927461Y-89303453D01*
X141901377Y-89273350D01*
X141847712Y-89186344D01*
X141723656Y-89062288D01*
X141601923Y-88987203D01*
X141574336Y-88970187D01*
X141574331Y-88970185D01*
X141544153Y-88960185D01*
X141407797Y-88915001D01*
X141407795Y-88915000D01*
X141305010Y-88904500D01*
X140454998Y-88904500D01*
X140454980Y-88904501D01*
X140352203Y-88915000D01*
X140352200Y-88915001D01*
X140185668Y-88970185D01*
X140185663Y-88970187D01*
X140036342Y-89062289D01*
X139912289Y-89186342D01*
X139820187Y-89335663D01*
X139820185Y-89335668D01*
X139801656Y-89391586D01*
X139765001Y-89502203D01*
X139765001Y-89502204D01*
X139765000Y-89502204D01*
X139754500Y-89604983D01*
X139754500Y-90955001D01*
X139754501Y-90955018D01*
X139765000Y-91057796D01*
X139765001Y-91057799D01*
X139820185Y-91224331D01*
X139820187Y-91224336D01*
X139833886Y-91246545D01*
X139912288Y-91373656D01*
X140036344Y-91497712D01*
X140185666Y-91589814D01*
X140352203Y-91644999D01*
X140454991Y-91655500D01*
X141305008Y-91655499D01*
X141305016Y-91655498D01*
X141305019Y-91655498D01*
X141402892Y-91645500D01*
X141407797Y-91644999D01*
X141574334Y-91589814D01*
X141723656Y-91497712D01*
X141847712Y-91373656D01*
X141907545Y-91276649D01*
X141959492Y-91229925D01*
X142028455Y-91218702D01*
X142092537Y-91246545D01*
X142118623Y-91276650D01*
X142149781Y-91327167D01*
X142172288Y-91363656D01*
X142296344Y-91487712D01*
X142445666Y-91579814D01*
X142612203Y-91634999D01*
X142714991Y-91645500D01*
X143440008Y-91645499D01*
X143440016Y-91645498D01*
X143440019Y-91645498D01*
X143496302Y-91639748D01*
X143542797Y-91634999D01*
X143709334Y-91579814D01*
X143858656Y-91487712D01*
X143982712Y-91363656D01*
X143982715Y-91363650D01*
X143985714Y-91360652D01*
X144047037Y-91327167D01*
X144116729Y-91332151D01*
X144172663Y-91374022D01*
X144180782Y-91386332D01*
X144199475Y-91418709D01*
X144199482Y-91418718D01*
X144318349Y-91537585D01*
X144318355Y-91537590D01*
X144848584Y-92067819D01*
X144882069Y-92129142D01*
X144877085Y-92198834D01*
X144835213Y-92254767D01*
X144769749Y-92279184D01*
X144760903Y-92279500D01*
X144461915Y-92279500D01*
X144448031Y-92278720D01*
X144410002Y-92274435D01*
X144409998Y-92274435D01*
X144371969Y-92278720D01*
X144358085Y-92279500D01*
X143462272Y-92279500D01*
X143349764Y-92294313D01*
X143349763Y-92294313D01*
X143209770Y-92352300D01*
X143209767Y-92352301D01*
X143209767Y-92352302D01*
X143089549Y-92444549D01*
X143045969Y-92501344D01*
X142997300Y-92564770D01*
X142939313Y-92704763D01*
X142939313Y-92704765D01*
X142936559Y-92725685D01*
X142908293Y-92789581D01*
X142849969Y-92828053D01*
X142813620Y-92833500D01*
X141056380Y-92833500D01*
X140989341Y-92813815D01*
X140943586Y-92761011D01*
X140933441Y-92725685D01*
X140930687Y-92704764D01*
X140872698Y-92564767D01*
X140780451Y-92444549D01*
X140660233Y-92352302D01*
X140660229Y-92352300D01*
X140596801Y-92326027D01*
X140520236Y-92294313D01*
X140506171Y-92292461D01*
X140407727Y-92279500D01*
X140407720Y-92279500D01*
X139729972Y-92279500D01*
X139689017Y-92272542D01*
X139609254Y-92244631D01*
X139609249Y-92244630D01*
X139430004Y-92224435D01*
X139429996Y-92224435D01*
X139250750Y-92244630D01*
X139250745Y-92244631D01*
X139170983Y-92272542D01*
X139130028Y-92279500D01*
X138512272Y-92279500D01*
X138399764Y-92294313D01*
X138399763Y-92294313D01*
X138259770Y-92352300D01*
X138259767Y-92352301D01*
X138259767Y-92352302D01*
X138139549Y-92444549D01*
X138095969Y-92501344D01*
X138047300Y-92564770D01*
X137989313Y-92704763D01*
X137989313Y-92704764D01*
X137974500Y-92817272D01*
X137974500Y-93147888D01*
X137954815Y-93214927D01*
X137902011Y-93260682D01*
X137832853Y-93270626D01*
X137769297Y-93241601D01*
X137752127Y-93223378D01*
X137750523Y-93221288D01*
X137750521Y-93221286D01*
X137750520Y-93221284D01*
X137638716Y-93109480D01*
X137638715Y-93109479D01*
X137634385Y-93105149D01*
X137634374Y-93105139D01*
X137317590Y-92788355D01*
X137317588Y-92788352D01*
X137198717Y-92669481D01*
X137198712Y-92669477D01*
X137071938Y-92596285D01*
X137071937Y-92596284D01*
X137061787Y-92590423D01*
X137000693Y-92574053D01*
X136909057Y-92549499D01*
X136750943Y-92549499D01*
X136743347Y-92549499D01*
X136743331Y-92549500D01*
X136232643Y-92549500D01*
X136165604Y-92529815D01*
X136119849Y-92477011D01*
X136109285Y-92438102D01*
X136105569Y-92401734D01*
X136099999Y-92347203D01*
X136044814Y-92180666D01*
X135952712Y-92031344D01*
X135828656Y-91907288D01*
X135679334Y-91815186D01*
X135512797Y-91760001D01*
X135512795Y-91760000D01*
X135410010Y-91749500D01*
X134659998Y-91749500D01*
X134659980Y-91749501D01*
X134557203Y-91760000D01*
X134557200Y-91760001D01*
X134390668Y-91815185D01*
X134390663Y-91815187D01*
X134241342Y-91907289D01*
X134117289Y-92031342D01*
X134025187Y-92180663D01*
X134025185Y-92180668D01*
X134010682Y-92224435D01*
X133970001Y-92347203D01*
X133970001Y-92347204D01*
X133970000Y-92347204D01*
X133959500Y-92449983D01*
X133959500Y-93850001D01*
X133959501Y-93850018D01*
X133970000Y-93952796D01*
X133970001Y-93952799D01*
X134025185Y-94119331D01*
X134025187Y-94119336D01*
X134039873Y-94143145D01*
X134116473Y-94267335D01*
X134117289Y-94268657D01*
X134241344Y-94392712D01*
X134317965Y-94439972D01*
X134364690Y-94491920D01*
X134375913Y-94560882D01*
X134348069Y-94624965D01*
X134291875Y-94663216D01*
X134240672Y-94680183D01*
X134240663Y-94680187D01*
X134091342Y-94772289D01*
X133967289Y-94896342D01*
X133875187Y-95045663D01*
X133875185Y-95045668D01*
X133863187Y-95081877D01*
X133820001Y-95212203D01*
X133820001Y-95212204D01*
X133820000Y-95212204D01*
X133809500Y-95314983D01*
X133809500Y-96665001D01*
X133809501Y-96665018D01*
X133820000Y-96767796D01*
X133820001Y-96767799D01*
X133875185Y-96934331D01*
X133875187Y-96934336D01*
X133910069Y-96990888D01*
X133967288Y-97083656D01*
X134091344Y-97207712D01*
X134240666Y-97299814D01*
X134407203Y-97354999D01*
X134509991Y-97365500D01*
X135235008Y-97365499D01*
X135235016Y-97365498D01*
X135235019Y-97365498D01*
X135291302Y-97359748D01*
X135337797Y-97354999D01*
X135504334Y-97299814D01*
X135653656Y-97207712D01*
X135777712Y-97083656D01*
X135869814Y-96934334D01*
X135924999Y-96767797D01*
X135931839Y-96700842D01*
X135958235Y-96636151D01*
X136015416Y-96596000D01*
X136039023Y-96590504D01*
X136039043Y-96590501D01*
X136039057Y-96590501D01*
X136191785Y-96549577D01*
X136192678Y-96549061D01*
X136194391Y-96548497D01*
X136199293Y-96546467D01*
X136199445Y-96546834D01*
X136240805Y-96533220D01*
X136338664Y-96522194D01*
X136399249Y-96515369D01*
X136399251Y-96515368D01*
X136399255Y-96515368D01*
X136399258Y-96515366D01*
X136399262Y-96515366D01*
X136504545Y-96478526D01*
X136574324Y-96474964D01*
X136634951Y-96509692D01*
X136667179Y-96571686D01*
X136669500Y-96595567D01*
X136669500Y-97663330D01*
X136669499Y-97663348D01*
X136669499Y-97829054D01*
X136669498Y-97829054D01*
X136710423Y-97981785D01*
X136719883Y-97998170D01*
X136789477Y-98118712D01*
X136789481Y-98118717D01*
X136918720Y-98247956D01*
X136918725Y-98247960D01*
X137161284Y-98490520D01*
X137161286Y-98490521D01*
X137161290Y-98490524D01*
X137272510Y-98554736D01*
X137298216Y-98569577D01*
X137450943Y-98610501D01*
X137450945Y-98610501D01*
X137616654Y-98610501D01*
X137616670Y-98610500D01*
X143203331Y-98610500D01*
X143203347Y-98610501D01*
X143210943Y-98610501D01*
X143369054Y-98610501D01*
X143369057Y-98610501D01*
X143521785Y-98569577D01*
X143571904Y-98540639D01*
X143658716Y-98490520D01*
X143770520Y-98378716D01*
X143770520Y-98378714D01*
X143780728Y-98368507D01*
X143780729Y-98368504D01*
X144422416Y-97726819D01*
X144483739Y-97693334D01*
X144510097Y-97690500D01*
X145357713Y-97690500D01*
X145357720Y-97690500D01*
X145470236Y-97675687D01*
X145610233Y-97617698D01*
X145730451Y-97525451D01*
X145730452Y-97525448D01*
X145736898Y-97520503D01*
X145738006Y-97521947D01*
X145790405Y-97493335D01*
X145816763Y-97490501D01*
X145949054Y-97490501D01*
X145949057Y-97490501D01*
X146101785Y-97449577D01*
X146171200Y-97409500D01*
X146238716Y-97370520D01*
X146350520Y-97258716D01*
X146350520Y-97258714D01*
X146360724Y-97248511D01*
X146360727Y-97248506D01*
X147810520Y-95798716D01*
X147889577Y-95661785D01*
X147930501Y-95509057D01*
X147930501Y-95350942D01*
X147930501Y-95343347D01*
X147930500Y-95343329D01*
X147930500Y-93132246D01*
X147950185Y-93065207D01*
X148002989Y-93019452D01*
X148072147Y-93009508D01*
X148135703Y-93038533D01*
X148173477Y-93097311D01*
X148178027Y-93121436D01*
X148179380Y-93136901D01*
X148184936Y-93200403D01*
X148184938Y-93200413D01*
X148246094Y-93428655D01*
X148246096Y-93428659D01*
X148246097Y-93428663D01*
X148284465Y-93510943D01*
X148345965Y-93642830D01*
X148345967Y-93642834D01*
X148435140Y-93770185D01*
X148481505Y-93836401D01*
X148648599Y-94003495D01*
X148681578Y-94026587D01*
X148842165Y-94139032D01*
X148842167Y-94139033D01*
X148842170Y-94139035D01*
X149056337Y-94238903D01*
X149284592Y-94300063D01*
X149447707Y-94314334D01*
X149519999Y-94320659D01*
X149520000Y-94320659D01*
X149520001Y-94320659D01*
X149592293Y-94314334D01*
X149755408Y-94300063D01*
X149883757Y-94265672D01*
X149953606Y-94267335D01*
X150003531Y-94297766D01*
X153414632Y-97708867D01*
X153448117Y-97770190D01*
X153443133Y-97839882D01*
X153426218Y-97870859D01*
X153376204Y-97937669D01*
X153376202Y-97937671D01*
X153325908Y-98072517D01*
X153319501Y-98132116D01*
X153319501Y-98132123D01*
X153319500Y-98132135D01*
X153319501Y-99775500D01*
X153299816Y-99842539D01*
X153247013Y-99888294D01*
X153195501Y-99899500D01*
X126783751Y-99899500D01*
X126776264Y-99899274D01*
X126486205Y-99881728D01*
X126471340Y-99879923D01*
X126189201Y-99828219D01*
X126174663Y-99824635D01*
X125900832Y-99739306D01*
X125886831Y-99733997D01*
X125625263Y-99616275D01*
X125612004Y-99609316D01*
X125366540Y-99460928D01*
X125354217Y-99452422D01*
X125128426Y-99275526D01*
X125117218Y-99265596D01*
X124914403Y-99062781D01*
X124904473Y-99051573D01*
X124727573Y-98825776D01*
X124719075Y-98813465D01*
X124570680Y-98567989D01*
X124563727Y-98554743D01*
X124446000Y-98293163D01*
X124440693Y-98279167D01*
X124430967Y-98247956D01*
X124355363Y-98005335D01*
X124351780Y-97990798D01*
X124305124Y-97736204D01*
X124300075Y-97708657D01*
X124298271Y-97693794D01*
X124297406Y-97679501D01*
X124280726Y-97403736D01*
X124280500Y-97396249D01*
X124280500Y-96969198D01*
X124300185Y-96902159D01*
X124352989Y-96856404D01*
X124422147Y-96846460D01*
X124428667Y-96847576D01*
X124473045Y-96856404D01*
X124488679Y-96859514D01*
X124488680Y-96859514D01*
X125485764Y-96859514D01*
X125615803Y-96833646D01*
X125679056Y-96821065D01*
X125861135Y-96745646D01*
X126025003Y-96636153D01*
X126025002Y-96636153D01*
X126025006Y-96636151D01*
X126025006Y-96636150D01*
X126164357Y-96496799D01*
X126164360Y-96496796D01*
X126273853Y-96332928D01*
X126349272Y-96150849D01*
X126387721Y-95957555D01*
X126387721Y-95760473D01*
X126387721Y-95760470D01*
X126349273Y-95567184D01*
X126349272Y-95567183D01*
X126349272Y-95567179D01*
X126339878Y-95544500D01*
X126273856Y-95385106D01*
X126273849Y-95385093D01*
X126164360Y-95221232D01*
X126164357Y-95221228D01*
X126025006Y-95081877D01*
X126025002Y-95081874D01*
X125861141Y-94972385D01*
X125861128Y-94972378D01*
X125679060Y-94896964D01*
X125679050Y-94896961D01*
X125485764Y-94858514D01*
X125485762Y-94858514D01*
X124488680Y-94858514D01*
X124488677Y-94858514D01*
X124428691Y-94870446D01*
X124359100Y-94864219D01*
X124303922Y-94821356D01*
X124280678Y-94755466D01*
X124280500Y-94748829D01*
X124280500Y-89224941D01*
X127086626Y-89224941D01*
X127127551Y-89377674D01*
X127135583Y-89391584D01*
X127135582Y-89391584D01*
X127135584Y-89391586D01*
X127206603Y-89514596D01*
X127206607Y-89514601D01*
X127206608Y-89514603D01*
X127318412Y-89626407D01*
X127318413Y-89626408D01*
X127744551Y-90052546D01*
X127744553Y-90052547D01*
X127744557Y-90052550D01*
X127869840Y-90124881D01*
X127881483Y-90131603D01*
X128034210Y-90172527D01*
X128034212Y-90172527D01*
X128042060Y-90174630D01*
X128041449Y-90176909D01*
X128094304Y-90200287D01*
X128132780Y-90258608D01*
X128138230Y-90294966D01*
X128138230Y-93398284D01*
X128138229Y-93398302D01*
X128138229Y-93564008D01*
X128138228Y-93564008D01*
X128146595Y-93595233D01*
X128179153Y-93716739D01*
X128179154Y-93716740D01*
X128193817Y-93742139D01*
X128193818Y-93742140D01*
X128258205Y-93853663D01*
X128263156Y-93860115D01*
X128261368Y-93861486D01*
X128289251Y-93912549D01*
X128284267Y-93982241D01*
X128255767Y-94026587D01*
X128206709Y-94075645D01*
X128206706Y-94075649D01*
X128130940Y-94206877D01*
X128114741Y-94267335D01*
X128091721Y-94353248D01*
X128091721Y-94504780D01*
X128106753Y-94560882D01*
X128130940Y-94651150D01*
X128147705Y-94680187D01*
X128206706Y-94782379D01*
X128206707Y-94782380D01*
X128210770Y-94789417D01*
X128208441Y-94790761D01*
X128228866Y-94843598D01*
X128214824Y-94912043D01*
X128166008Y-94962030D01*
X128152749Y-94968470D01*
X128143315Y-94972377D01*
X128143300Y-94972385D01*
X127979439Y-95081874D01*
X127979435Y-95081877D01*
X127840084Y-95221228D01*
X127840081Y-95221232D01*
X127730592Y-95385093D01*
X127730585Y-95385106D01*
X127655171Y-95567174D01*
X127655168Y-95567184D01*
X127616721Y-95760470D01*
X127616721Y-95760473D01*
X127616721Y-95957555D01*
X127616721Y-95957557D01*
X127616720Y-95957557D01*
X127655168Y-96150843D01*
X127655171Y-96150853D01*
X127730585Y-96332921D01*
X127730592Y-96332934D01*
X127840081Y-96496795D01*
X127840084Y-96496799D01*
X127979436Y-96636151D01*
X128143300Y-96745642D01*
X128143313Y-96745649D01*
X128196789Y-96767799D01*
X128325386Y-96821065D01*
X128325390Y-96821065D01*
X128325391Y-96821066D01*
X128518677Y-96859514D01*
X128518680Y-96859514D01*
X129815764Y-96859514D01*
X129945803Y-96833646D01*
X130009056Y-96821065D01*
X130191135Y-96745646D01*
X130355003Y-96636153D01*
X130355002Y-96636153D01*
X130355006Y-96636151D01*
X130355006Y-96636150D01*
X130494357Y-96496799D01*
X130494360Y-96496796D01*
X130603853Y-96332928D01*
X130645940Y-96231318D01*
X130689779Y-96176918D01*
X130756073Y-96154853D01*
X130823772Y-96172132D01*
X130871383Y-96223268D01*
X130884500Y-96278774D01*
X130884500Y-96665001D01*
X130884501Y-96665019D01*
X130895000Y-96767796D01*
X130895001Y-96767799D01*
X130950185Y-96934331D01*
X130950187Y-96934336D01*
X130985069Y-96990888D01*
X131042288Y-97083656D01*
X131166344Y-97207712D01*
X131315666Y-97299814D01*
X131482203Y-97354999D01*
X131584991Y-97365500D01*
X132310008Y-97365499D01*
X132310016Y-97365498D01*
X132310019Y-97365498D01*
X132366302Y-97359748D01*
X132412797Y-97354999D01*
X132579334Y-97299814D01*
X132728656Y-97207712D01*
X132852712Y-97083656D01*
X132944814Y-96934334D01*
X132999999Y-96767797D01*
X133010500Y-96665009D01*
X133010499Y-95314992D01*
X132999999Y-95212203D01*
X132944814Y-95045666D01*
X132852712Y-94896344D01*
X132728656Y-94772288D01*
X132723549Y-94767181D01*
X132725435Y-94765294D01*
X132692212Y-94718375D01*
X132685500Y-94678132D01*
X132685500Y-94581057D01*
X132705185Y-94514018D01*
X132744401Y-94475520D01*
X132878656Y-94392712D01*
X133002712Y-94268656D01*
X133094814Y-94119334D01*
X133149999Y-93952797D01*
X133160500Y-93850009D01*
X133160499Y-92449992D01*
X133159284Y-92438102D01*
X133149999Y-92347203D01*
X133149998Y-92347200D01*
X133130106Y-92287171D01*
X133094814Y-92180666D01*
X133002712Y-92031344D01*
X132878656Y-91907288D01*
X132729334Y-91815186D01*
X132670493Y-91795688D01*
X132613051Y-91755916D01*
X132586228Y-91691400D01*
X132585500Y-91677983D01*
X132585500Y-91221057D01*
X132605185Y-91154018D01*
X132644401Y-91115520D01*
X132778656Y-91032712D01*
X132902712Y-90908656D01*
X132994814Y-90759334D01*
X133049999Y-90592797D01*
X133060500Y-90490009D01*
X133060499Y-89089992D01*
X133060498Y-89089983D01*
X133859500Y-89089983D01*
X133859500Y-90490001D01*
X133859501Y-90490018D01*
X133870000Y-90592796D01*
X133870001Y-90592799D01*
X133900659Y-90685317D01*
X133925186Y-90759334D01*
X134017288Y-90908656D01*
X134141344Y-91032712D01*
X134290666Y-91124814D01*
X134457203Y-91179999D01*
X134559991Y-91190500D01*
X135310008Y-91190499D01*
X135310016Y-91190498D01*
X135310019Y-91190498D01*
X135366302Y-91184748D01*
X135412797Y-91179999D01*
X135579334Y-91124814D01*
X135728656Y-91032712D01*
X135852712Y-90908656D01*
X135944814Y-90759334D01*
X135999999Y-90592797D01*
X136007998Y-90514500D01*
X136009286Y-90501897D01*
X136035683Y-90437205D01*
X136092864Y-90397054D01*
X136132644Y-90390500D01*
X136830501Y-90390500D01*
X136897540Y-90410185D01*
X136943295Y-90462989D01*
X136954501Y-90514500D01*
X136954501Y-90955018D01*
X136965000Y-91057796D01*
X136965001Y-91057799D01*
X137020185Y-91224331D01*
X137020187Y-91224336D01*
X137033886Y-91246545D01*
X137112288Y-91373656D01*
X137236344Y-91497712D01*
X137385666Y-91589814D01*
X137552203Y-91644999D01*
X137654991Y-91655500D01*
X138505008Y-91655499D01*
X138505016Y-91655498D01*
X138505019Y-91655498D01*
X138602892Y-91645500D01*
X138607797Y-91644999D01*
X138774334Y-91589814D01*
X138923656Y-91497712D01*
X139047712Y-91373656D01*
X139139814Y-91224334D01*
X139194999Y-91057797D01*
X139205500Y-90955009D01*
X139205499Y-89604992D01*
X139204477Y-89594992D01*
X139194999Y-89502203D01*
X139194998Y-89502200D01*
X139153733Y-89377672D01*
X139139814Y-89335666D01*
X139047712Y-89186344D01*
X138923656Y-89062288D01*
X138809402Y-88991816D01*
X138762679Y-88939869D01*
X138750500Y-88886278D01*
X138750500Y-88420448D01*
X138770185Y-88353409D01*
X138822989Y-88307654D01*
X138835488Y-88302744D01*
X138844334Y-88299814D01*
X138993656Y-88207712D01*
X139117712Y-88083656D01*
X139209814Y-87934334D01*
X139264999Y-87767797D01*
X139275500Y-87665009D01*
X139275499Y-86314992D01*
X139270391Y-86264992D01*
X139264999Y-86212203D01*
X139264998Y-86212200D01*
X139248431Y-86162204D01*
X139209814Y-86045666D01*
X139117712Y-85896344D01*
X138993656Y-85772288D01*
X138900888Y-85715069D01*
X138844336Y-85680187D01*
X138844331Y-85680185D01*
X138842862Y-85679698D01*
X138677797Y-85625001D01*
X138677795Y-85625000D01*
X138575010Y-85614500D01*
X137724998Y-85614500D01*
X137724980Y-85614501D01*
X137622203Y-85625000D01*
X137622200Y-85625001D01*
X137455668Y-85680185D01*
X137455663Y-85680187D01*
X137306342Y-85772289D01*
X137182289Y-85896342D01*
X137090187Y-86045663D01*
X137090185Y-86045668D01*
X137062349Y-86129670D01*
X137035001Y-86212203D01*
X137035001Y-86212204D01*
X137035000Y-86212204D01*
X137024500Y-86314983D01*
X137024500Y-87665001D01*
X137024501Y-87665018D01*
X137035000Y-87767796D01*
X137035001Y-87767799D01*
X137073618Y-87884336D01*
X137090186Y-87934334D01*
X137182288Y-88083656D01*
X137306344Y-88207712D01*
X137455666Y-88299814D01*
X137464498Y-88302740D01*
X137521944Y-88342508D01*
X137548771Y-88407022D01*
X137549500Y-88420448D01*
X137549500Y-88826355D01*
X137529815Y-88893394D01*
X137477011Y-88939149D01*
X137464505Y-88944061D01*
X137385666Y-88970186D01*
X137236342Y-89062289D01*
X137145451Y-89153181D01*
X137084128Y-89186666D01*
X137057770Y-89189500D01*
X136132643Y-89189500D01*
X136065604Y-89169815D01*
X136019849Y-89117011D01*
X136009285Y-89078102D01*
X136000470Y-88991817D01*
X135999999Y-88987203D01*
X135944814Y-88820666D01*
X135852712Y-88671344D01*
X135728656Y-88547288D01*
X135591902Y-88462938D01*
X135545179Y-88410991D01*
X135533000Y-88357400D01*
X135533000Y-88288347D01*
X135552685Y-88221308D01*
X135591901Y-88182810D01*
X135713656Y-88107712D01*
X135837712Y-87983656D01*
X135929814Y-87834334D01*
X135984999Y-87667797D01*
X135995500Y-87565009D01*
X135995499Y-86214992D01*
X135984999Y-86112203D01*
X135929814Y-85945666D01*
X135837712Y-85796344D01*
X135713656Y-85672288D01*
X135564334Y-85580186D01*
X135397797Y-85525001D01*
X135397795Y-85525000D01*
X135295010Y-85514500D01*
X134569998Y-85514500D01*
X134569980Y-85514501D01*
X134467203Y-85525000D01*
X134467200Y-85525001D01*
X134300668Y-85580185D01*
X134300663Y-85580187D01*
X134151342Y-85672289D01*
X134027289Y-85796342D01*
X133935187Y-85945663D01*
X133935185Y-85945668D01*
X133918617Y-85995668D01*
X133880001Y-86112203D01*
X133880001Y-86112204D01*
X133880000Y-86112204D01*
X133869500Y-86214983D01*
X133869500Y-87565001D01*
X133869501Y-87565018D01*
X133880000Y-87667796D01*
X133880001Y-87667799D01*
X133935185Y-87834331D01*
X133935187Y-87834336D01*
X133949042Y-87856799D01*
X134027288Y-87983656D01*
X134151344Y-88107712D01*
X134273097Y-88182809D01*
X134319821Y-88234755D01*
X134332000Y-88288347D01*
X134332000Y-88360484D01*
X134312315Y-88427523D01*
X134273098Y-88466021D01*
X134188547Y-88518172D01*
X134141342Y-88547289D01*
X134017289Y-88671342D01*
X133925187Y-88820663D01*
X133925185Y-88820668D01*
X133903444Y-88886278D01*
X133870001Y-88987203D01*
X133870001Y-88987204D01*
X133870000Y-88987204D01*
X133859500Y-89089983D01*
X133060498Y-89089983D01*
X133059284Y-89078102D01*
X133049999Y-88987203D01*
X133049998Y-88987200D01*
X133026370Y-88915896D01*
X132994814Y-88820666D01*
X132902712Y-88671344D01*
X132778656Y-88547288D01*
X132629334Y-88455186D01*
X132629332Y-88455185D01*
X132629329Y-88455184D01*
X132604212Y-88446861D01*
X132546768Y-88407087D01*
X132519947Y-88342571D01*
X132532263Y-88273795D01*
X132579807Y-88222596D01*
X132604203Y-88211454D01*
X132639334Y-88199814D01*
X132788656Y-88107712D01*
X132912712Y-87983656D01*
X133004814Y-87834334D01*
X133059999Y-87667797D01*
X133070500Y-87565009D01*
X133070499Y-86214992D01*
X133059999Y-86112203D01*
X133004814Y-85945666D01*
X132912712Y-85796344D01*
X132788656Y-85672288D01*
X132639334Y-85580186D01*
X132472797Y-85525001D01*
X132472795Y-85525000D01*
X132370010Y-85514500D01*
X131644998Y-85514500D01*
X131644980Y-85514501D01*
X131542200Y-85525001D01*
X131535880Y-85526354D01*
X131466205Y-85521136D01*
X131447931Y-85512488D01*
X131435158Y-85505114D01*
X131435156Y-85505112D01*
X131435155Y-85505112D01*
X131385039Y-85476177D01*
X131232311Y-85435253D01*
X131074197Y-85435253D01*
X131066601Y-85435253D01*
X131066585Y-85435254D01*
X128422546Y-85435254D01*
X128391369Y-85443607D01*
X128391370Y-85443608D01*
X128269819Y-85476177D01*
X128269814Y-85476180D01*
X128132895Y-85555229D01*
X128132887Y-85555235D01*
X127206609Y-86481513D01*
X127206605Y-86481518D01*
X127183649Y-86521282D01*
X127183648Y-86521284D01*
X127127551Y-86618446D01*
X127086627Y-86771174D01*
X127086627Y-86771176D01*
X127086627Y-86939277D01*
X127086628Y-86939290D01*
X127086628Y-89059217D01*
X127086627Y-89059235D01*
X127086627Y-89224941D01*
X127086626Y-89224941D01*
X124280500Y-89224941D01*
X124280500Y-88329198D01*
X124300185Y-88262159D01*
X124352989Y-88216404D01*
X124422147Y-88206460D01*
X124428667Y-88207576D01*
X124473045Y-88216404D01*
X124488679Y-88219514D01*
X124488680Y-88219514D01*
X125485764Y-88219514D01*
X125670293Y-88182808D01*
X125679056Y-88181065D01*
X125861135Y-88105646D01*
X126025003Y-87996153D01*
X126164360Y-87856796D01*
X126273853Y-87692928D01*
X126349272Y-87510849D01*
X126361853Y-87447596D01*
X126387721Y-87317557D01*
X126387721Y-87120470D01*
X126349273Y-86927184D01*
X126349272Y-86927183D01*
X126349272Y-86927179D01*
X126284654Y-86771176D01*
X126273856Y-86745106D01*
X126273849Y-86745093D01*
X126164360Y-86581232D01*
X126164357Y-86581228D01*
X126025006Y-86441877D01*
X126025002Y-86441874D01*
X125861141Y-86332385D01*
X125861128Y-86332378D01*
X125679060Y-86256964D01*
X125679050Y-86256961D01*
X125485764Y-86218514D01*
X125485762Y-86218514D01*
X124488680Y-86218514D01*
X124488677Y-86218514D01*
X124428691Y-86230446D01*
X124359100Y-86224219D01*
X124303922Y-86181356D01*
X124280678Y-86115466D01*
X124280500Y-86108829D01*
X124280500Y-85913750D01*
X124280726Y-85906263D01*
X124284350Y-85846344D01*
X124298271Y-85616201D01*
X124300076Y-85601340D01*
X124303953Y-85580187D01*
X124351780Y-85319197D01*
X124355364Y-85304663D01*
X124440696Y-85030822D01*
X124445998Y-85016841D01*
X124563731Y-84755249D01*
X124570676Y-84742016D01*
X124719080Y-84496526D01*
X124727567Y-84484230D01*
X124904480Y-84258417D01*
X124914395Y-84247226D01*
X125117226Y-84044395D01*
X125128417Y-84034480D01*
X125354230Y-83857567D01*
X125366526Y-83849080D01*
X125612016Y-83700676D01*
X125625249Y-83693731D01*
X125886841Y-83575998D01*
X125900822Y-83570696D01*
X126174668Y-83485362D01*
X126189197Y-83481780D01*
X126471344Y-83430075D01*
X126486201Y-83428271D01*
X126776264Y-83410726D01*
X126783751Y-83410500D01*
X126845892Y-83410500D01*
X153195500Y-83410500D01*
X153262539Y-83430185D01*
G37*
%TD.AperFunction*%
%TA.AperFunction,NonConductor*%
G36*
X131031052Y-90853442D02*
G01*
X131043851Y-90870658D01*
X131063018Y-90901734D01*
X131067288Y-90908656D01*
X131191344Y-91032712D01*
X131325597Y-91115519D01*
X131372321Y-91167465D01*
X131384500Y-91221057D01*
X131384500Y-91780621D01*
X131364815Y-91847660D01*
X131325599Y-91886158D01*
X131291346Y-91907285D01*
X131167289Y-92031342D01*
X131075187Y-92180663D01*
X131075186Y-92180666D01*
X131059426Y-92228226D01*
X131019654Y-92285669D01*
X130955138Y-92312492D01*
X130886362Y-92300177D01*
X130835162Y-92252634D01*
X130817721Y-92189220D01*
X130817721Y-92176300D01*
X130817721Y-92176294D01*
X130802908Y-92063778D01*
X130802907Y-92063777D01*
X130801847Y-92055719D01*
X130804910Y-92055315D01*
X130804910Y-92022712D01*
X130801847Y-92022309D01*
X130806266Y-91988740D01*
X130817721Y-91901734D01*
X130817721Y-91676294D01*
X130802908Y-91563778D01*
X130802907Y-91563777D01*
X130801847Y-91555719D01*
X130804910Y-91555315D01*
X130804910Y-91522712D01*
X130801847Y-91522309D01*
X130805085Y-91497712D01*
X130817721Y-91401734D01*
X130817721Y-91176294D01*
X130802908Y-91063778D01*
X130802907Y-91063777D01*
X130801847Y-91055719D01*
X130804910Y-91055315D01*
X130804910Y-91022712D01*
X130801847Y-91022309D01*
X130815373Y-90919569D01*
X130843639Y-90855672D01*
X130901964Y-90817201D01*
X130971829Y-90816370D01*
X131031052Y-90853442D01*
G37*
%TD.AperFunction*%
M02*
