%TF.GenerationSoftware,KiCad,Pcbnew,8.0.4*%
%TF.CreationDate,2024-08-19T16:14:03-07:00*%
%TF.ProjectId,LED flashlight,4c454420-666c-4617-9368-6c696768742e,rev?*%
%TF.SameCoordinates,Original*%
%TF.FileFunction,Copper,L1,Top*%
%TF.FilePolarity,Positive*%
%FSLAX46Y46*%
G04 Gerber Fmt 4.6, Leading zero omitted, Abs format (unit mm)*
G04 Created by KiCad (PCBNEW 8.0.4) date 2024-08-19 16:14:03*
%MOMM*%
%LPD*%
G01*
G04 APERTURE LIST*
G04 Aperture macros list*
%AMRoundRect*
0 Rectangle with rounded corners*
0 $1 Rounding radius*
0 $2 $3 $4 $5 $6 $7 $8 $9 X,Y pos of 4 corners*
0 Add a 4 corners polygon primitive as box body*
4,1,4,$2,$3,$4,$5,$6,$7,$8,$9,$2,$3,0*
0 Add four circle primitives for the rounded corners*
1,1,$1+$1,$2,$3*
1,1,$1+$1,$4,$5*
1,1,$1+$1,$6,$7*
1,1,$1+$1,$8,$9*
0 Add four rect primitives between the rounded corners*
20,1,$1+$1,$2,$3,$4,$5,0*
20,1,$1+$1,$4,$5,$6,$7,0*
20,1,$1+$1,$6,$7,$8,$9,0*
20,1,$1+$1,$8,$9,$2,$3,0*%
G04 Aperture macros list end*
%TA.AperFunction,SMDPad,CuDef*%
%ADD10RoundRect,0.150000X-0.425000X0.150000X-0.425000X-0.150000X0.425000X-0.150000X0.425000X0.150000X0*%
%TD*%
%TA.AperFunction,SMDPad,CuDef*%
%ADD11RoundRect,0.075000X-0.500000X0.075000X-0.500000X-0.075000X0.500000X-0.075000X0.500000X0.075000X0*%
%TD*%
%TA.AperFunction,ComponentPad*%
%ADD12O,2.100000X1.000000*%
%TD*%
%TA.AperFunction,ComponentPad*%
%ADD13O,1.800000X1.000000*%
%TD*%
%TA.AperFunction,SMDPad,CuDef*%
%ADD14RoundRect,0.250000X-0.625000X0.312500X-0.625000X-0.312500X0.625000X-0.312500X0.625000X0.312500X0*%
%TD*%
%TA.AperFunction,ComponentPad*%
%ADD15R,1.800000X1.800000*%
%TD*%
%TA.AperFunction,ComponentPad*%
%ADD16C,1.800000*%
%TD*%
%TA.AperFunction,SMDPad,CuDef*%
%ADD17RoundRect,0.075000X-0.910000X-0.225000X0.910000X-0.225000X0.910000X0.225000X-0.910000X0.225000X0*%
%TD*%
%TA.AperFunction,SMDPad,CuDef*%
%ADD18R,2.413000X3.302000*%
%TD*%
%TA.AperFunction,SMDPad,CuDef*%
%ADD19RoundRect,0.250000X0.312500X0.625000X-0.312500X0.625000X-0.312500X-0.625000X0.312500X-0.625000X0*%
%TD*%
%TA.AperFunction,SMDPad,CuDef*%
%ADD20RoundRect,0.250000X-0.312500X-0.625000X0.312500X-0.625000X0.312500X0.625000X-0.312500X0.625000X0*%
%TD*%
%TA.AperFunction,SMDPad,CuDef*%
%ADD21RoundRect,0.250000X0.375000X0.625000X-0.375000X0.625000X-0.375000X-0.625000X0.375000X-0.625000X0*%
%TD*%
%TA.AperFunction,SMDPad,CuDef*%
%ADD22RoundRect,0.250000X-0.325000X-0.650000X0.325000X-0.650000X0.325000X0.650000X-0.325000X0.650000X0*%
%TD*%
%TA.AperFunction,SMDPad,CuDef*%
%ADD23RoundRect,0.250000X0.325000X0.650000X-0.325000X0.650000X-0.325000X-0.650000X0.325000X-0.650000X0*%
%TD*%
%TA.AperFunction,ComponentPad*%
%ADD24R,1.700000X1.700000*%
%TD*%
%TA.AperFunction,ComponentPad*%
%ADD25O,1.700000X1.700000*%
%TD*%
%TA.AperFunction,SMDPad,CuDef*%
%ADD26R,2.000000X2.000000*%
%TD*%
%TA.AperFunction,ViaPad*%
%ADD27C,0.600000*%
%TD*%
%TA.AperFunction,Conductor*%
%ADD28C,0.200000*%
%TD*%
G04 APERTURE END LIST*
D10*
%TO.P,P1,A1,GND*%
%TO.N,Earth*%
X129680000Y-89070000D03*
%TO.P,P1,A4,VBUS*%
%TO.N,Net-(P1-VBUS-PadA4)*%
X129680000Y-89870000D03*
D11*
%TO.P,P1,A5,CC*%
%TO.N,unconnected-(P1-CC-PadA5)*%
X129680000Y-91020000D03*
%TO.P,P1,A6,D+*%
%TO.N,unconnected-(P1-D+-PadA6)*%
X129680000Y-92020000D03*
%TO.P,P1,A7,D-*%
%TO.N,unconnected-(P1-D--PadA7)*%
X129680000Y-92520000D03*
%TO.P,P1,A8*%
%TO.N,N/C*%
X129680000Y-93520000D03*
D10*
%TO.P,P1,A9,VBUS*%
%TO.N,Net-(P1-VBUS-PadA4)*%
X129680000Y-94670000D03*
%TO.P,P1,A12,GND*%
%TO.N,Earth*%
X129680000Y-95470000D03*
%TO.P,P1,B1,GND*%
X129680000Y-95470000D03*
%TO.P,P1,B4,VBUS*%
%TO.N,Net-(P1-VBUS-PadA4)*%
X129680000Y-94670000D03*
D11*
%TO.P,P1,B5,VCONN*%
%TO.N,unconnected-(P1-VCONN-PadB5)*%
X129680000Y-94020000D03*
%TO.P,P1,B6*%
%TO.N,N/C*%
X129680000Y-93020000D03*
%TO.P,P1,B7*%
X129680000Y-91520000D03*
%TO.P,P1,B8*%
X129680000Y-90520000D03*
D10*
%TO.P,P1,B9,VBUS*%
%TO.N,Net-(P1-VBUS-PadA4)*%
X129680000Y-89870000D03*
%TO.P,P1,B12,GND*%
%TO.N,Earth*%
X129680000Y-89070000D03*
D12*
%TO.P,P1,S1,SHIELD*%
%TO.N,unconnected-(P1-SHIELD-PadS1)*%
X129105000Y-87950000D03*
D13*
X124925000Y-87950000D03*
D12*
X129105000Y-96590000D03*
D13*
X124925000Y-96590000D03*
%TD*%
D14*
%TO.P,R5,1*%
%TO.N,Net-(D3-A)*%
X159655000Y-93682500D03*
%TO.P,R5,2*%
%TO.N,Net-(R5-Pad2)*%
X159655000Y-96607500D03*
%TD*%
D15*
%TO.P,D3,1,K*%
%TO.N,Net-(BT1-+)*%
X159755000Y-88065000D03*
D16*
%TO.P,D3,2,A*%
%TO.N,Net-(D3-A)*%
X159755000Y-90605000D03*
%TD*%
D17*
%TO.P,U1,1,TEMP*%
%TO.N,Earth*%
X139460000Y-93080000D03*
%TO.P,U1,2,PROG*%
%TO.N,Net-(U1-PROG)*%
X139460000Y-94350000D03*
%TO.P,U1,3,GND*%
%TO.N,Earth*%
X139460000Y-95620000D03*
%TO.P,U1,4,VCC*%
%TO.N,Net-(D2-A)*%
X139460000Y-96890000D03*
%TO.P,U1,5,BAT*%
%TO.N,Net-(BT1-+)*%
X144410000Y-96890000D03*
%TO.P,U1,6,~{STDBY}*%
%TO.N,Net-(U1-~{STDBY})*%
X144410000Y-95620000D03*
%TO.P,U1,7,~{CHRG}*%
%TO.N,Net-(U1-~{CHRG})*%
X144410000Y-94350000D03*
%TO.P,U1,8,CE*%
%TO.N,Net-(D2-A)*%
X144410000Y-93080000D03*
D18*
%TO.P,U1,9,EP*%
%TO.N,unconnected-(U1-EP-Pad9)*%
X141935000Y-94985000D03*
%TD*%
D19*
%TO.P,R4,1*%
%TO.N,Net-(U1-PROG)*%
X134872500Y-95990000D03*
%TO.P,R4,2*%
%TO.N,Earth*%
X131947500Y-95990000D03*
%TD*%
D20*
%TO.P,R3,1*%
%TO.N,Net-(D5-K)*%
X143045000Y-86940000D03*
%TO.P,R3,2*%
%TO.N,Net-(U1-~{CHRG})*%
X145970000Y-86940000D03*
%TD*%
%TO.P,R1,1*%
%TO.N,Net-(P1-VBUS-PadA4)*%
X132007500Y-86890000D03*
%TO.P,R1,2*%
%TO.N,Net-(D2-A)*%
X134932500Y-86890000D03*
%TD*%
D21*
%TO.P,D5,1,K*%
%TO.N,Net-(D5-K)*%
X140950000Y-86990000D03*
%TO.P,D5,2,A*%
%TO.N,Net-(D2-A)*%
X138150000Y-86990000D03*
%TD*%
%TO.P,D4,1,K*%
%TO.N,Net-(D4-K)*%
X140880000Y-90280000D03*
%TO.P,D4,2,A*%
%TO.N,Net-(D2-A)*%
X138080000Y-90280000D03*
%TD*%
D22*
%TO.P,D2,1,K*%
%TO.N,Earth*%
X131985000Y-89790000D03*
%TO.P,D2,2,A*%
%TO.N,Net-(D2-A)*%
X134935000Y-89790000D03*
%TD*%
D23*
%TO.P,D1,1,K*%
%TO.N,Net-(BT1-+)*%
X135035000Y-93150000D03*
%TO.P,D1,2,A*%
%TO.N,Earth*%
X132085000Y-93150000D03*
%TD*%
D24*
%TO.P,BT1,1,+*%
%TO.N,Net-(BT1-+)*%
X149520000Y-90425000D03*
D25*
%TO.P,BT1,2,-*%
%TO.N,Earth*%
X149520000Y-92965000D03*
%TD*%
D20*
%TO.P,R2,1*%
%TO.N,Net-(D4-K)*%
X143077500Y-90270000D03*
%TO.P,R2,2*%
%TO.N,Net-(U1-~{STDBY})*%
X146002500Y-90270000D03*
%TD*%
D26*
%TO.P,SW1,1,1*%
%TO.N,Net-(R5-Pad2)*%
X154820000Y-84180000D03*
%TO.P,SW1,2,2*%
%TO.N,Earth*%
X154820000Y-99180000D03*
%TD*%
D27*
%TO.N,Earth*%
X129725000Y-95470000D03*
X129725000Y-89070000D03*
X131947500Y-95990000D03*
X132085000Y-93150000D03*
X139460000Y-95620000D03*
X139430000Y-93030000D03*
%TO.N,Net-(D2-A)*%
X138080000Y-90280000D03*
X144410000Y-93080000D03*
X139520000Y-96860000D03*
%TO.N,Net-(U1-PROG)*%
X139460000Y-94350000D03*
X136220000Y-95730000D03*
%TD*%
D28*
%TO.N,Net-(P1-VBUS-PadA4)*%
X127090000Y-88980000D02*
X128180000Y-90070000D01*
X127090000Y-87150000D02*
X127090000Y-88980000D01*
X127850000Y-86390000D02*
X127090000Y-87150000D01*
X131507500Y-86390000D02*
X127850000Y-86390000D01*
X128180000Y-90070000D02*
X128380000Y-90070000D01*
X132007500Y-86890000D02*
X131507500Y-86390000D01*
%TO.N,Net-(D3-A)*%
X159655000Y-90705000D02*
X159755000Y-90605000D01*
X159655000Y-93682500D02*
X159655000Y-90705000D01*
%TO.N,Net-(R5-Pad2)*%
X154820000Y-91772500D02*
X159655000Y-96607500D01*
X154820000Y-84180000D02*
X154820000Y-91772500D01*
%TO.N,Earth*%
X149520000Y-92965000D02*
X154820000Y-98265000D01*
X154820000Y-98265000D02*
X154820000Y-99180000D01*
X139460000Y-93060000D02*
X139430000Y-93030000D01*
X139460000Y-93080000D02*
X139460000Y-93060000D01*
%TO.N,Net-(D2-A)*%
X139490000Y-96890000D02*
X139520000Y-96860000D01*
X139460000Y-96890000D02*
X139490000Y-96890000D01*
%TO.N,Net-(U1-PROG)*%
X135960000Y-95990000D02*
X136220000Y-95730000D01*
X134872500Y-95990000D02*
X135960000Y-95990000D01*
%TO.N,Net-(U1-~{CHRG})*%
X145190000Y-87720000D02*
X145970000Y-86940000D01*
X144680000Y-87870000D02*
X144830000Y-87720000D01*
X144680000Y-91050000D02*
X144680000Y-87870000D01*
X146300000Y-92670000D02*
X144680000Y-91050000D01*
X146300000Y-93444999D02*
X146300000Y-92670000D01*
X144830000Y-87720000D02*
X145190000Y-87720000D01*
X145394999Y-94350000D02*
X146300000Y-93444999D01*
X144410000Y-94350000D02*
X145394999Y-94350000D01*
%TO.N,Net-(U1-~{STDBY})*%
X146830000Y-91097500D02*
X146002500Y-90270000D01*
X146830000Y-93597410D02*
X146830000Y-91097500D01*
X144807410Y-95620000D02*
X146830000Y-93597410D01*
X144410000Y-95620000D02*
X144807410Y-95620000D01*
%TO.N,Net-(D4-K)*%
X143067500Y-90280000D02*
X143077500Y-90270000D01*
X140880000Y-90280000D02*
X143067500Y-90280000D01*
%TO.N,Net-(D5-K)*%
X142995000Y-86990000D02*
X143045000Y-86940000D01*
X140950000Y-86990000D02*
X142995000Y-86990000D01*
%TO.N,Net-(D2-A)*%
X138150000Y-90210000D02*
X138080000Y-90280000D01*
X138150000Y-86990000D02*
X138150000Y-90210000D01*
%TO.N,Net-(BT1-+)*%
X148485000Y-90425000D02*
X149520000Y-90425000D01*
X147330000Y-91580000D02*
X148485000Y-90425000D01*
X147330000Y-95430000D02*
X147330000Y-91580000D01*
X145870000Y-96890000D02*
X147330000Y-95430000D01*
X144410000Y-96890000D02*
X145870000Y-96890000D01*
X143290000Y-98010000D02*
X144410000Y-96890000D01*
X137530000Y-98010000D02*
X143290000Y-98010000D01*
X137270000Y-97750000D02*
X137530000Y-98010000D01*
X137270000Y-93590000D02*
X137270000Y-97750000D01*
X136830000Y-93150000D02*
X137270000Y-93590000D01*
X135035000Y-93150000D02*
X136830000Y-93150000D01*
%TO.N,Net-(P1-VBUS-PadA4)*%
X128380000Y-94045000D02*
X128380000Y-90070000D01*
X129725000Y-94670000D02*
X129540000Y-94485000D01*
X128820000Y-94485000D02*
X128380000Y-94045000D01*
X128380000Y-90070000D02*
X129525000Y-90070000D01*
X129540000Y-94485000D02*
X128820000Y-94485000D01*
X129525000Y-90070000D02*
X129725000Y-89870000D01*
%TO.N,Net-(D2-A)*%
X134932500Y-86890000D02*
X134932500Y-89787500D01*
X134932500Y-89787500D02*
X134935000Y-89790000D01*
X137590000Y-89790000D02*
X138080000Y-90280000D01*
X134935000Y-89790000D02*
X137590000Y-89790000D01*
%TO.N,Earth*%
X130245000Y-95990000D02*
X129725000Y-95470000D01*
X131947500Y-95990000D02*
X130245000Y-95990000D01*
X132085000Y-95852500D02*
X131947500Y-95990000D01*
X132085000Y-93150000D02*
X132085000Y-95852500D01*
X131985000Y-93050000D02*
X132085000Y-93150000D01*
X131985000Y-89790000D02*
X131985000Y-93050000D01*
X131265000Y-89070000D02*
X131985000Y-89790000D01*
X129725000Y-89070000D02*
X131265000Y-89070000D01*
%TD*%
%TA.AperFunction,NonConductor*%
G36*
X130887540Y-87010185D02*
G01*
X130933295Y-87062989D01*
X130944501Y-87114500D01*
X130944501Y-87565018D01*
X130955000Y-87667796D01*
X130955001Y-87667799D01*
X131010185Y-87834331D01*
X131010186Y-87834334D01*
X131102288Y-87983656D01*
X131226344Y-88107712D01*
X131375666Y-88199814D01*
X131388282Y-88203994D01*
X131445726Y-88243763D01*
X131472551Y-88308278D01*
X131460239Y-88377055D01*
X131412698Y-88428256D01*
X131388287Y-88439405D01*
X131340666Y-88455186D01*
X131334885Y-88457882D01*
X131282482Y-88469499D01*
X131178347Y-88469499D01*
X131178331Y-88469500D01*
X130708328Y-88469500D01*
X130641289Y-88449815D01*
X130595534Y-88397011D01*
X130585590Y-88327853D01*
X130593767Y-88298047D01*
X130617051Y-88241835D01*
X130643730Y-88107712D01*
X130655500Y-88048543D01*
X130655500Y-87851456D01*
X130617052Y-87658170D01*
X130617051Y-87658169D01*
X130617051Y-87658165D01*
X130599178Y-87615016D01*
X130541635Y-87476092D01*
X130541628Y-87476079D01*
X130432139Y-87312218D01*
X130432136Y-87312214D01*
X130322103Y-87202181D01*
X130288618Y-87140858D01*
X130293602Y-87071166D01*
X130335474Y-87015233D01*
X130400938Y-86990816D01*
X130409784Y-86990500D01*
X130820501Y-86990500D01*
X130887540Y-87010185D01*
G37*
%TD.AperFunction*%
%TA.AperFunction,NonConductor*%
G36*
X148262905Y-91598843D02*
G01*
X148307252Y-91627344D01*
X148312455Y-91632547D01*
X148427664Y-91718793D01*
X148427671Y-91718797D01*
X148559081Y-91767810D01*
X148615015Y-91809681D01*
X148639432Y-91875145D01*
X148624580Y-91943418D01*
X148603430Y-91971673D01*
X148481503Y-92093600D01*
X148345965Y-92287169D01*
X148345964Y-92287171D01*
X148246098Y-92501335D01*
X148246094Y-92501344D01*
X148184938Y-92729586D01*
X148184936Y-92729596D01*
X148178028Y-92808561D01*
X148152575Y-92873629D01*
X148095984Y-92914608D01*
X148026222Y-92918486D01*
X147965438Y-92884032D01*
X147932931Y-92822185D01*
X147930500Y-92797753D01*
X147930500Y-91880096D01*
X147950185Y-91813057D01*
X147966815Y-91792419D01*
X148131890Y-91627343D01*
X148193213Y-91593859D01*
X148262905Y-91598843D01*
G37*
%TD.AperFunction*%
%TA.AperFunction,NonConductor*%
G36*
X157893736Y-83410726D02*
G01*
X158183796Y-83428271D01*
X158198657Y-83430075D01*
X158402662Y-83467461D01*
X158480798Y-83481780D01*
X158495335Y-83485363D01*
X158769172Y-83570695D01*
X158783163Y-83576000D01*
X159044743Y-83693727D01*
X159057989Y-83700680D01*
X159303465Y-83849075D01*
X159315776Y-83857573D01*
X159541573Y-84034473D01*
X159552781Y-84044403D01*
X159755596Y-84247218D01*
X159765526Y-84258426D01*
X159885481Y-84411538D01*
X159942422Y-84484217D01*
X159950928Y-84496540D01*
X160099316Y-84742004D01*
X160106275Y-84755263D01*
X160223997Y-85016831D01*
X160229306Y-85030832D01*
X160314635Y-85304663D01*
X160318219Y-85319201D01*
X160369923Y-85601340D01*
X160371728Y-85616205D01*
X160389274Y-85906263D01*
X160389500Y-85913750D01*
X160389500Y-86540500D01*
X160369815Y-86607539D01*
X160317011Y-86653294D01*
X160265500Y-86664500D01*
X158807129Y-86664500D01*
X158807123Y-86664501D01*
X158747516Y-86670908D01*
X158612671Y-86721202D01*
X158612664Y-86721206D01*
X158497455Y-86807452D01*
X158497452Y-86807455D01*
X158411206Y-86922664D01*
X158411202Y-86922671D01*
X158360908Y-87057517D01*
X158354501Y-87117116D01*
X158354500Y-87117135D01*
X158354500Y-89012870D01*
X158354501Y-89012876D01*
X158360908Y-89072483D01*
X158411202Y-89207328D01*
X158411206Y-89207335D01*
X158497452Y-89322544D01*
X158497455Y-89322547D01*
X158612664Y-89408793D01*
X158612673Y-89408798D01*
X158692904Y-89438722D01*
X158748838Y-89480593D01*
X158773256Y-89546057D01*
X158758405Y-89614330D01*
X158740802Y-89638886D01*
X158646019Y-89741849D01*
X158519075Y-89936151D01*
X158425842Y-90148699D01*
X158368866Y-90373691D01*
X158368864Y-90373702D01*
X158349700Y-90604993D01*
X158349700Y-90605006D01*
X158368864Y-90836297D01*
X158368866Y-90836308D01*
X158425842Y-91061300D01*
X158519075Y-91273848D01*
X158646016Y-91468147D01*
X158646019Y-91468151D01*
X158646021Y-91468153D01*
X158803216Y-91638913D01*
X158803219Y-91638915D01*
X158803222Y-91638918D01*
X158986364Y-91781463D01*
X158986367Y-91781465D01*
X158986374Y-91781470D01*
X158989512Y-91783168D01*
X158990549Y-91784197D01*
X158990662Y-91784271D01*
X158990646Y-91784294D01*
X159039104Y-91832383D01*
X159054500Y-91892225D01*
X159054500Y-92499911D01*
X159034815Y-92566950D01*
X158982011Y-92612705D01*
X158943102Y-92623269D01*
X158877202Y-92630001D01*
X158877200Y-92630001D01*
X158710668Y-92685185D01*
X158710663Y-92685187D01*
X158561342Y-92777289D01*
X158437289Y-92901342D01*
X158345187Y-93050663D01*
X158345185Y-93050668D01*
X158325697Y-93109480D01*
X158290001Y-93217203D01*
X158290001Y-93217204D01*
X158290000Y-93217204D01*
X158279500Y-93319983D01*
X158279500Y-94045001D01*
X158279502Y-94045022D01*
X158282508Y-94074452D01*
X158269737Y-94143145D01*
X158221856Y-94194028D01*
X158154066Y-94210948D01*
X158087890Y-94188531D01*
X158071469Y-94174733D01*
X155456819Y-91560083D01*
X155423334Y-91498760D01*
X155420500Y-91472402D01*
X155420500Y-85804499D01*
X155440185Y-85737460D01*
X155492989Y-85691705D01*
X155544500Y-85680499D01*
X155867871Y-85680499D01*
X155867872Y-85680499D01*
X155927483Y-85674091D01*
X156062331Y-85623796D01*
X156177546Y-85537546D01*
X156263796Y-85422331D01*
X156314091Y-85287483D01*
X156320500Y-85227873D01*
X156320499Y-83534499D01*
X156340184Y-83467461D01*
X156392987Y-83421706D01*
X156444499Y-83410500D01*
X157824108Y-83410500D01*
X157886249Y-83410500D01*
X157893736Y-83410726D01*
G37*
%TD.AperFunction*%
%TA.AperFunction,NonConductor*%
G36*
X136596942Y-93770185D02*
G01*
X136617584Y-93786819D01*
X136633181Y-93802416D01*
X136666666Y-93863739D01*
X136669500Y-93890097D01*
X136669500Y-94864432D01*
X136649815Y-94931471D01*
X136597011Y-94977226D01*
X136527853Y-94987170D01*
X136504546Y-94981474D01*
X136399257Y-94944632D01*
X136399249Y-94944630D01*
X136220004Y-94924435D01*
X136219996Y-94924435D01*
X136040750Y-94944630D01*
X136040742Y-94944632D01*
X135943036Y-94978821D01*
X135873257Y-94982382D01*
X135812630Y-94947653D01*
X135796543Y-94926875D01*
X135795038Y-94924435D01*
X135777712Y-94896344D01*
X135653656Y-94772288D01*
X135585769Y-94730415D01*
X135539046Y-94678468D01*
X135527823Y-94609505D01*
X135555667Y-94545423D01*
X135611860Y-94507172D01*
X135679334Y-94484814D01*
X135828656Y-94392712D01*
X135952712Y-94268656D01*
X136044814Y-94119334D01*
X136099999Y-93952797D01*
X136103534Y-93918193D01*
X136109286Y-93861897D01*
X136135683Y-93797205D01*
X136192864Y-93757054D01*
X136232644Y-93750500D01*
X136529903Y-93750500D01*
X136596942Y-93770185D01*
G37*
%TD.AperFunction*%
%TA.AperFunction,NonConductor*%
G36*
X130937941Y-90720951D02*
G01*
X130975205Y-90759365D01*
X131067288Y-90908656D01*
X131191344Y-91032712D01*
X131325597Y-91115519D01*
X131372321Y-91167465D01*
X131384500Y-91221057D01*
X131384500Y-91780621D01*
X131364815Y-91847660D01*
X131325599Y-91886158D01*
X131291346Y-91907285D01*
X131167289Y-92031342D01*
X131075187Y-92180663D01*
X131075185Y-92180668D01*
X131060682Y-92224435D01*
X131020001Y-92347203D01*
X131020001Y-92347204D01*
X131020000Y-92347204D01*
X131009500Y-92449983D01*
X131009500Y-93850001D01*
X131009501Y-93850018D01*
X131020000Y-93952796D01*
X131020001Y-93952799D01*
X131075185Y-94119331D01*
X131075187Y-94119336D01*
X131089873Y-94143145D01*
X131167288Y-94268656D01*
X131291344Y-94392712D01*
X131376704Y-94445362D01*
X131423428Y-94497308D01*
X131434651Y-94566271D01*
X131406808Y-94630353D01*
X131350613Y-94668605D01*
X131315672Y-94680183D01*
X131315663Y-94680187D01*
X131166342Y-94772289D01*
X131042288Y-94896343D01*
X131042285Y-94896347D01*
X130982016Y-94994059D01*
X130930068Y-95040784D01*
X130861106Y-95052005D01*
X130797024Y-95024162D01*
X130758168Y-94966093D01*
X130752860Y-94919235D01*
X130755500Y-94885694D01*
X130755500Y-94454306D01*
X130752598Y-94417431D01*
X130730432Y-94341137D01*
X130730631Y-94271272D01*
X130734946Y-94259094D01*
X130740687Y-94245236D01*
X130755500Y-94132720D01*
X130755500Y-93907280D01*
X130740687Y-93794764D01*
X130740686Y-93794763D01*
X130739626Y-93786705D01*
X130742689Y-93786301D01*
X130742689Y-93753698D01*
X130739626Y-93753295D01*
X130740687Y-93745236D01*
X130755500Y-93632720D01*
X130755500Y-93407280D01*
X130740687Y-93294764D01*
X130740686Y-93294763D01*
X130739626Y-93286705D01*
X130742689Y-93286301D01*
X130742689Y-93253698D01*
X130739626Y-93253295D01*
X130740687Y-93245236D01*
X130755500Y-93132720D01*
X130755500Y-92907280D01*
X130740687Y-92794764D01*
X130740686Y-92794763D01*
X130739626Y-92786705D01*
X130742689Y-92786301D01*
X130742689Y-92753698D01*
X130739626Y-92753295D01*
X130742746Y-92729596D01*
X130755500Y-92632720D01*
X130755500Y-92407280D01*
X130740687Y-92294764D01*
X130740686Y-92294763D01*
X130739626Y-92286705D01*
X130742689Y-92286301D01*
X130742689Y-92253698D01*
X130739626Y-92253295D01*
X130740687Y-92245236D01*
X130755500Y-92132720D01*
X130755500Y-91907280D01*
X130740687Y-91794764D01*
X130740686Y-91794763D01*
X130739626Y-91786705D01*
X130742689Y-91786301D01*
X130742689Y-91753698D01*
X130739626Y-91753295D01*
X130744168Y-91718793D01*
X130755500Y-91632720D01*
X130755500Y-91407280D01*
X130740687Y-91294764D01*
X130740686Y-91294763D01*
X130739626Y-91286705D01*
X130742689Y-91286301D01*
X130742689Y-91253698D01*
X130739626Y-91253295D01*
X130742703Y-91229925D01*
X130755500Y-91132720D01*
X130755500Y-90907280D01*
X130746727Y-90840645D01*
X130757492Y-90771613D01*
X130803871Y-90719357D01*
X130871140Y-90700471D01*
X130937941Y-90720951D01*
G37*
%TD.AperFunction*%
%TA.AperFunction,NonConductor*%
G36*
X158950546Y-94742491D02*
G01*
X158979991Y-94745500D01*
X160265500Y-94745499D01*
X160332539Y-94765184D01*
X160378294Y-94817987D01*
X160389500Y-94869499D01*
X160389500Y-95420500D01*
X160369815Y-95487539D01*
X160317011Y-95533294D01*
X160265500Y-95544500D01*
X159492598Y-95544500D01*
X159425559Y-95524815D01*
X159404917Y-95508181D01*
X158850267Y-94953531D01*
X158816782Y-94892208D01*
X158821766Y-94822516D01*
X158863638Y-94766583D01*
X158929102Y-94742166D01*
X158950546Y-94742491D01*
G37*
%TD.AperFunction*%
%TA.AperFunction,NonConductor*%
G36*
X146648834Y-94730325D02*
G01*
X146704767Y-94772197D01*
X146729184Y-94837661D01*
X146729500Y-94846507D01*
X146729500Y-95129901D01*
X146709815Y-95196940D01*
X146693181Y-95217582D01*
X146107181Y-95803582D01*
X146045858Y-95837067D01*
X145976166Y-95832083D01*
X145920233Y-95790211D01*
X145895816Y-95724747D01*
X145895500Y-95715901D01*
X145895500Y-95432507D01*
X145915185Y-95365468D01*
X145931819Y-95344826D01*
X146517819Y-94758826D01*
X146579142Y-94725341D01*
X146648834Y-94730325D01*
G37*
%TD.AperFunction*%
%TA.AperFunction,NonConductor*%
G36*
X142880659Y-97156184D02*
G01*
X142926414Y-97208988D01*
X142936559Y-97244316D01*
X142939850Y-97269317D01*
X142929083Y-97338352D01*
X142882703Y-97390607D01*
X142816911Y-97409500D01*
X141053089Y-97409500D01*
X140986050Y-97389815D01*
X140940295Y-97337011D01*
X140930150Y-97269317D01*
X140933441Y-97244316D01*
X140961706Y-97180419D01*
X141020030Y-97141947D01*
X141056380Y-97136499D01*
X142813620Y-97136499D01*
X142880659Y-97156184D01*
G37*
%TD.AperFunction*%
%TA.AperFunction,NonConductor*%
G36*
X153262539Y-83430185D02*
G01*
X153308294Y-83482989D01*
X153319500Y-83534500D01*
X153319500Y-85227870D01*
X153319501Y-85227876D01*
X153325908Y-85287483D01*
X153376202Y-85422328D01*
X153376206Y-85422335D01*
X153462452Y-85537544D01*
X153462455Y-85537547D01*
X153577664Y-85623793D01*
X153577671Y-85623797D01*
X153594801Y-85630186D01*
X153712517Y-85674091D01*
X153772127Y-85680500D01*
X154095500Y-85680499D01*
X154162539Y-85700183D01*
X154208294Y-85752987D01*
X154219500Y-85804499D01*
X154219500Y-91685830D01*
X154219499Y-91685848D01*
X154219499Y-91851554D01*
X154219498Y-91851554D01*
X154260423Y-92004286D01*
X154276044Y-92031340D01*
X154276045Y-92031345D01*
X154276047Y-92031345D01*
X154339479Y-92141214D01*
X154339481Y-92141217D01*
X154458349Y-92260085D01*
X154458355Y-92260090D01*
X158253013Y-96054749D01*
X158286498Y-96116072D01*
X158288690Y-96155032D01*
X158279500Y-96244981D01*
X158279500Y-96970001D01*
X158279501Y-96970019D01*
X158290000Y-97072796D01*
X158290001Y-97072799D01*
X158345185Y-97239331D01*
X158345187Y-97239336D01*
X158380069Y-97295888D01*
X158437288Y-97388656D01*
X158561344Y-97512712D01*
X158710666Y-97604814D01*
X158877203Y-97659999D01*
X158979991Y-97670500D01*
X160228127Y-97670499D01*
X160295166Y-97690184D01*
X160340921Y-97742987D01*
X160350865Y-97812146D01*
X160350096Y-97816851D01*
X160318219Y-97990798D01*
X160314635Y-98005336D01*
X160229306Y-98279167D01*
X160223997Y-98293168D01*
X160106275Y-98554736D01*
X160099316Y-98567995D01*
X159950928Y-98813459D01*
X159942422Y-98825782D01*
X159765526Y-99051573D01*
X159755596Y-99062781D01*
X159552781Y-99265596D01*
X159541573Y-99275526D01*
X159315782Y-99452422D01*
X159303459Y-99460928D01*
X159057995Y-99609316D01*
X159044736Y-99616275D01*
X158783168Y-99733997D01*
X158769167Y-99739306D01*
X158495336Y-99824635D01*
X158480798Y-99828219D01*
X158198659Y-99879923D01*
X158183794Y-99881728D01*
X157893736Y-99899274D01*
X157886249Y-99899500D01*
X156444500Y-99899500D01*
X156377461Y-99879815D01*
X156331706Y-99827011D01*
X156320500Y-99775500D01*
X156320499Y-98132129D01*
X156320498Y-98132123D01*
X156320497Y-98132116D01*
X156314091Y-98072517D01*
X156286361Y-97998170D01*
X156263797Y-97937671D01*
X156263793Y-97937664D01*
X156177547Y-97822455D01*
X156177544Y-97822452D01*
X156062335Y-97736206D01*
X156062328Y-97736202D01*
X155927482Y-97685908D01*
X155927483Y-97685908D01*
X155867883Y-97679501D01*
X155867881Y-97679500D01*
X155867873Y-97679500D01*
X155867865Y-97679500D01*
X155135097Y-97679500D01*
X155068058Y-97659815D01*
X155047416Y-97643181D01*
X150852766Y-93448531D01*
X150819281Y-93387208D01*
X150820672Y-93328757D01*
X150829780Y-93294764D01*
X150855063Y-93200408D01*
X150875659Y-92965000D01*
X150855063Y-92729592D01*
X150793903Y-92501337D01*
X150694035Y-92287171D01*
X150688442Y-92279184D01*
X150558496Y-92093600D01*
X150532715Y-92067819D01*
X150436567Y-91971671D01*
X150403084Y-91910351D01*
X150408068Y-91840659D01*
X150449939Y-91784725D01*
X150480915Y-91767810D01*
X150612331Y-91718796D01*
X150727546Y-91632546D01*
X150813796Y-91517331D01*
X150864091Y-91382483D01*
X150870500Y-91322873D01*
X150870499Y-89527128D01*
X150864091Y-89467517D01*
X150863338Y-89465499D01*
X150813797Y-89332671D01*
X150813793Y-89332664D01*
X150727547Y-89217455D01*
X150727544Y-89217452D01*
X150612335Y-89131206D01*
X150612328Y-89131202D01*
X150477482Y-89080908D01*
X150477483Y-89080908D01*
X150417883Y-89074501D01*
X150417881Y-89074500D01*
X150417873Y-89074500D01*
X150417864Y-89074500D01*
X148622129Y-89074500D01*
X148622123Y-89074501D01*
X148562516Y-89080908D01*
X148427671Y-89131202D01*
X148427664Y-89131206D01*
X148312455Y-89217452D01*
X148312452Y-89217455D01*
X148226206Y-89332664D01*
X148226202Y-89332671D01*
X148175908Y-89467517D01*
X148169501Y-89527116D01*
X148169501Y-89527123D01*
X148169500Y-89527135D01*
X148169500Y-89842495D01*
X148149815Y-89909534D01*
X148120989Y-89940869D01*
X148116281Y-89944481D01*
X147408930Y-90651832D01*
X147347607Y-90685317D01*
X147277915Y-90680333D01*
X147233568Y-90651832D01*
X147101818Y-90520082D01*
X147068333Y-90458759D01*
X147065499Y-90432401D01*
X147065499Y-89594998D01*
X147065498Y-89594981D01*
X147054999Y-89492203D01*
X147054998Y-89492200D01*
X147046819Y-89467517D01*
X146999814Y-89325666D01*
X146907712Y-89176344D01*
X146783656Y-89052288D01*
X146678131Y-88987200D01*
X146634336Y-88960187D01*
X146634331Y-88960185D01*
X146632862Y-88959698D01*
X146467797Y-88905001D01*
X146467795Y-88905000D01*
X146365010Y-88894500D01*
X145639998Y-88894500D01*
X145639980Y-88894501D01*
X145537203Y-88905000D01*
X145537197Y-88905002D01*
X145443503Y-88936049D01*
X145373675Y-88938451D01*
X145313633Y-88902719D01*
X145282441Y-88840198D01*
X145280500Y-88818343D01*
X145280500Y-88412582D01*
X145300185Y-88345543D01*
X145352989Y-88299788D01*
X145372403Y-88292808D01*
X145389356Y-88288266D01*
X145459206Y-88289929D01*
X145460335Y-88290296D01*
X145504703Y-88304999D01*
X145607491Y-88315500D01*
X146332508Y-88315499D01*
X146332516Y-88315498D01*
X146332519Y-88315498D01*
X146409306Y-88307654D01*
X146435297Y-88304999D01*
X146601834Y-88249814D01*
X146751156Y-88157712D01*
X146875212Y-88033656D01*
X146967314Y-87884334D01*
X147022499Y-87717797D01*
X147033000Y-87615009D01*
X147032999Y-86264992D01*
X147027891Y-86214992D01*
X147022499Y-86162203D01*
X147022498Y-86162200D01*
X147005931Y-86112204D01*
X146967314Y-85995666D01*
X146875212Y-85846344D01*
X146751156Y-85722288D01*
X146601834Y-85630186D01*
X146435297Y-85575001D01*
X146435295Y-85575000D01*
X146332510Y-85564500D01*
X145607498Y-85564500D01*
X145607480Y-85564501D01*
X145504703Y-85575000D01*
X145504700Y-85575001D01*
X145338168Y-85630185D01*
X145338163Y-85630187D01*
X145188842Y-85722289D01*
X145064789Y-85846342D01*
X144972687Y-85995663D01*
X144972685Y-85995668D01*
X144956117Y-86045668D01*
X144917501Y-86162203D01*
X144917501Y-86162204D01*
X144917500Y-86162204D01*
X144907000Y-86264983D01*
X144907000Y-86264991D01*
X144907000Y-86670909D01*
X144907001Y-86995499D01*
X144887317Y-87062538D01*
X144834513Y-87108293D01*
X144783001Y-87119499D01*
X144750943Y-87119499D01*
X144643587Y-87148265D01*
X144598210Y-87160424D01*
X144598209Y-87160425D01*
X144548096Y-87189359D01*
X144548095Y-87189360D01*
X144504689Y-87214420D01*
X144461285Y-87239479D01*
X144461282Y-87239481D01*
X144398518Y-87302246D01*
X144349480Y-87351284D01*
X144349478Y-87351286D01*
X144333053Y-87367711D01*
X144319679Y-87381085D01*
X144258355Y-87414569D01*
X144188663Y-87409583D01*
X144132731Y-87367711D01*
X144108315Y-87302246D01*
X144107999Y-87293423D01*
X144107999Y-86264992D01*
X144102891Y-86214992D01*
X144097499Y-86162203D01*
X144097498Y-86162200D01*
X144080931Y-86112204D01*
X144042314Y-85995666D01*
X143950212Y-85846344D01*
X143826156Y-85722288D01*
X143676834Y-85630186D01*
X143510297Y-85575001D01*
X143510295Y-85575000D01*
X143407510Y-85564500D01*
X142682498Y-85564500D01*
X142682480Y-85564501D01*
X142579703Y-85575000D01*
X142579700Y-85575001D01*
X142413168Y-85630185D01*
X142413163Y-85630187D01*
X142263842Y-85722289D01*
X142139787Y-85846344D01*
X142118110Y-85881489D01*
X142066162Y-85928213D01*
X141997199Y-85939434D01*
X141933117Y-85911590D01*
X141923034Y-85901235D01*
X141922819Y-85901451D01*
X141793657Y-85772289D01*
X141793656Y-85772288D01*
X141700888Y-85715069D01*
X141644336Y-85680187D01*
X141644331Y-85680185D01*
X141642862Y-85679698D01*
X141477797Y-85625001D01*
X141477795Y-85625000D01*
X141375010Y-85614500D01*
X140524998Y-85614500D01*
X140524980Y-85614501D01*
X140422203Y-85625000D01*
X140422200Y-85625001D01*
X140255668Y-85680185D01*
X140255663Y-85680187D01*
X140106342Y-85772289D01*
X139982289Y-85896342D01*
X139890187Y-86045663D01*
X139890185Y-86045668D01*
X139868139Y-86112200D01*
X139835001Y-86212203D01*
X139835001Y-86212204D01*
X139835000Y-86212204D01*
X139824500Y-86314983D01*
X139824500Y-87665001D01*
X139824501Y-87665018D01*
X139835000Y-87767796D01*
X139835001Y-87767799D01*
X139873618Y-87884336D01*
X139890186Y-87934334D01*
X139982288Y-88083656D01*
X140106344Y-88207712D01*
X140255666Y-88299814D01*
X140422203Y-88354999D01*
X140524991Y-88365500D01*
X141375008Y-88365499D01*
X141375016Y-88365498D01*
X141375019Y-88365498D01*
X141431302Y-88359748D01*
X141477797Y-88354999D01*
X141644334Y-88299814D01*
X141793656Y-88207712D01*
X141917712Y-88083656D01*
X141939389Y-88048510D01*
X141991334Y-88001788D01*
X142060296Y-87990564D01*
X142124379Y-88018406D01*
X142134465Y-88028764D01*
X142134681Y-88028549D01*
X142139788Y-88033656D01*
X142263844Y-88157712D01*
X142413166Y-88249814D01*
X142579703Y-88304999D01*
X142682491Y-88315500D01*
X143407508Y-88315499D01*
X143407516Y-88315498D01*
X143407519Y-88315498D01*
X143484306Y-88307654D01*
X143510297Y-88304999D01*
X143676834Y-88249814D01*
X143826156Y-88157712D01*
X143867819Y-88116049D01*
X143929142Y-88082564D01*
X143998834Y-88087548D01*
X144054767Y-88129420D01*
X144079184Y-88194884D01*
X144079500Y-88203730D01*
X144079500Y-88973770D01*
X144059815Y-89040809D01*
X144007011Y-89086564D01*
X143937853Y-89096508D01*
X143874297Y-89067483D01*
X143867819Y-89061451D01*
X143858657Y-89052289D01*
X143858656Y-89052288D01*
X143753131Y-88987200D01*
X143709336Y-88960187D01*
X143709331Y-88960185D01*
X143707862Y-88959698D01*
X143542797Y-88905001D01*
X143542795Y-88905000D01*
X143440010Y-88894500D01*
X142714998Y-88894500D01*
X142714980Y-88894501D01*
X142612203Y-88905000D01*
X142612200Y-88905001D01*
X142445668Y-88960185D01*
X142445663Y-88960187D01*
X142296342Y-89052289D01*
X142172288Y-89176343D01*
X142172285Y-89176347D01*
X142112453Y-89273350D01*
X142060505Y-89320075D01*
X141991543Y-89331296D01*
X141927461Y-89303453D01*
X141901377Y-89273350D01*
X141847712Y-89186344D01*
X141723656Y-89062288D01*
X141601923Y-88987203D01*
X141574336Y-88970187D01*
X141574331Y-88970185D01*
X141544153Y-88960185D01*
X141407797Y-88915001D01*
X141407795Y-88915000D01*
X141305010Y-88904500D01*
X140454998Y-88904500D01*
X140454980Y-88904501D01*
X140352203Y-88915000D01*
X140352200Y-88915001D01*
X140185668Y-88970185D01*
X140185663Y-88970187D01*
X140036342Y-89062289D01*
X139912289Y-89186342D01*
X139820187Y-89335663D01*
X139820185Y-89335668D01*
X139815861Y-89348717D01*
X139765001Y-89502203D01*
X139765001Y-89502204D01*
X139765000Y-89502204D01*
X139754500Y-89604983D01*
X139754500Y-90955001D01*
X139754501Y-90955018D01*
X139765000Y-91057796D01*
X139765001Y-91057799D01*
X139820185Y-91224331D01*
X139820187Y-91224336D01*
X139833078Y-91245236D01*
X139912288Y-91373656D01*
X140036344Y-91497712D01*
X140185666Y-91589814D01*
X140352203Y-91644999D01*
X140454991Y-91655500D01*
X141305008Y-91655499D01*
X141305016Y-91655498D01*
X141305019Y-91655498D01*
X141402892Y-91645500D01*
X141407797Y-91644999D01*
X141574334Y-91589814D01*
X141723656Y-91497712D01*
X141847712Y-91373656D01*
X141907545Y-91276649D01*
X141959492Y-91229925D01*
X142028455Y-91218702D01*
X142092537Y-91246545D01*
X142118621Y-91276648D01*
X142146418Y-91321714D01*
X142149781Y-91327167D01*
X142172288Y-91363656D01*
X142296344Y-91487712D01*
X142445666Y-91579814D01*
X142612203Y-91634999D01*
X142714991Y-91645500D01*
X143440008Y-91645499D01*
X143440016Y-91645498D01*
X143440019Y-91645498D01*
X143504432Y-91638918D01*
X143542797Y-91634999D01*
X143709334Y-91579814D01*
X143858656Y-91487712D01*
X143982712Y-91363656D01*
X143982715Y-91363650D01*
X143985714Y-91360652D01*
X144047037Y-91327167D01*
X144116729Y-91332151D01*
X144172663Y-91374022D01*
X144180782Y-91386332D01*
X144199475Y-91418709D01*
X144199482Y-91418718D01*
X144318349Y-91537585D01*
X144318355Y-91537590D01*
X144848584Y-92067819D01*
X144882069Y-92129142D01*
X144877085Y-92198834D01*
X144835213Y-92254767D01*
X144769749Y-92279184D01*
X144760903Y-92279500D01*
X144461915Y-92279500D01*
X144448031Y-92278720D01*
X144410002Y-92274435D01*
X144409998Y-92274435D01*
X144371969Y-92278720D01*
X144358085Y-92279500D01*
X143462272Y-92279500D01*
X143349764Y-92294313D01*
X143349763Y-92294313D01*
X143209770Y-92352300D01*
X143209767Y-92352301D01*
X143209767Y-92352302D01*
X143089549Y-92444549D01*
X143045969Y-92501344D01*
X142997300Y-92564770D01*
X142939313Y-92704763D01*
X142939313Y-92704765D01*
X142936559Y-92725685D01*
X142908293Y-92789581D01*
X142849969Y-92828053D01*
X142813620Y-92833500D01*
X141056380Y-92833500D01*
X140989341Y-92813815D01*
X140943586Y-92761011D01*
X140933441Y-92725685D01*
X140930687Y-92704764D01*
X140872698Y-92564767D01*
X140780451Y-92444549D01*
X140660233Y-92352302D01*
X140660229Y-92352300D01*
X140596801Y-92326027D01*
X140520236Y-92294313D01*
X140506171Y-92292461D01*
X140407727Y-92279500D01*
X140407720Y-92279500D01*
X139729972Y-92279500D01*
X139689017Y-92272542D01*
X139609254Y-92244631D01*
X139609249Y-92244630D01*
X139430004Y-92224435D01*
X139429996Y-92224435D01*
X139250750Y-92244630D01*
X139250745Y-92244631D01*
X139170983Y-92272542D01*
X139130028Y-92279500D01*
X138512272Y-92279500D01*
X138399764Y-92294313D01*
X138399763Y-92294313D01*
X138259770Y-92352300D01*
X138259767Y-92352301D01*
X138259767Y-92352302D01*
X138139549Y-92444549D01*
X138095969Y-92501344D01*
X138047300Y-92564770D01*
X137989313Y-92704763D01*
X137989313Y-92704764D01*
X137974500Y-92817272D01*
X137974500Y-93147888D01*
X137954815Y-93214927D01*
X137902011Y-93260682D01*
X137832853Y-93270626D01*
X137769297Y-93241601D01*
X137752127Y-93223378D01*
X137750523Y-93221288D01*
X137750521Y-93221286D01*
X137750520Y-93221284D01*
X137638716Y-93109480D01*
X137638715Y-93109479D01*
X137634385Y-93105149D01*
X137634374Y-93105139D01*
X137317590Y-92788355D01*
X137317588Y-92788352D01*
X137198717Y-92669481D01*
X137198709Y-92669475D01*
X137096936Y-92610717D01*
X137096934Y-92610716D01*
X137061790Y-92590425D01*
X137061789Y-92590424D01*
X137049263Y-92587067D01*
X136909057Y-92549499D01*
X136750943Y-92549499D01*
X136743347Y-92549499D01*
X136743331Y-92549500D01*
X136232643Y-92549500D01*
X136165604Y-92529815D01*
X136119849Y-92477011D01*
X136109285Y-92438102D01*
X136105657Y-92402596D01*
X136099999Y-92347203D01*
X136044814Y-92180666D01*
X135952712Y-92031344D01*
X135828656Y-91907288D01*
X135679334Y-91815186D01*
X135512797Y-91760001D01*
X135512795Y-91760000D01*
X135410010Y-91749500D01*
X134659998Y-91749500D01*
X134659980Y-91749501D01*
X134557203Y-91760000D01*
X134557200Y-91760001D01*
X134390668Y-91815185D01*
X134390663Y-91815187D01*
X134241342Y-91907289D01*
X134117289Y-92031342D01*
X134025187Y-92180663D01*
X134025185Y-92180668D01*
X134010682Y-92224435D01*
X133970001Y-92347203D01*
X133970001Y-92347204D01*
X133970000Y-92347204D01*
X133959500Y-92449983D01*
X133959500Y-93850001D01*
X133959501Y-93850018D01*
X133970000Y-93952796D01*
X133970001Y-93952799D01*
X134025185Y-94119331D01*
X134025187Y-94119336D01*
X134039873Y-94143145D01*
X134116473Y-94267335D01*
X134117289Y-94268657D01*
X134241344Y-94392712D01*
X134317965Y-94439972D01*
X134364690Y-94491920D01*
X134375913Y-94560882D01*
X134348069Y-94624965D01*
X134291875Y-94663216D01*
X134240672Y-94680183D01*
X134240663Y-94680187D01*
X134091342Y-94772289D01*
X133967289Y-94896342D01*
X133875187Y-95045663D01*
X133875186Y-95045666D01*
X133820001Y-95212203D01*
X133820001Y-95212204D01*
X133820000Y-95212204D01*
X133809500Y-95314983D01*
X133809500Y-96665001D01*
X133809501Y-96665018D01*
X133820000Y-96767796D01*
X133820001Y-96767799D01*
X133875185Y-96934331D01*
X133875187Y-96934336D01*
X133910069Y-96990888D01*
X133967288Y-97083656D01*
X134091344Y-97207712D01*
X134240666Y-97299814D01*
X134407203Y-97354999D01*
X134509991Y-97365500D01*
X135235008Y-97365499D01*
X135235016Y-97365498D01*
X135235019Y-97365498D01*
X135291302Y-97359748D01*
X135337797Y-97354999D01*
X135504334Y-97299814D01*
X135653656Y-97207712D01*
X135777712Y-97083656D01*
X135869814Y-96934334D01*
X135924999Y-96767797D01*
X135931839Y-96700842D01*
X135958235Y-96636151D01*
X136015416Y-96596000D01*
X136039023Y-96590504D01*
X136039043Y-96590501D01*
X136039057Y-96590501D01*
X136191785Y-96549577D01*
X136192678Y-96549061D01*
X136194391Y-96548497D01*
X136199293Y-96546467D01*
X136199445Y-96546834D01*
X136240805Y-96533220D01*
X136338664Y-96522194D01*
X136399249Y-96515369D01*
X136399251Y-96515368D01*
X136399255Y-96515368D01*
X136399258Y-96515366D01*
X136399262Y-96515366D01*
X136504545Y-96478526D01*
X136574324Y-96474964D01*
X136634951Y-96509692D01*
X136667179Y-96571686D01*
X136669500Y-96595567D01*
X136669500Y-97663330D01*
X136669499Y-97663348D01*
X136669499Y-97829054D01*
X136669498Y-97829054D01*
X136710423Y-97981785D01*
X136719883Y-97998170D01*
X136789477Y-98118712D01*
X136789481Y-98118717D01*
X136918720Y-98247956D01*
X136918725Y-98247960D01*
X137161284Y-98490520D01*
X137161286Y-98490521D01*
X137161290Y-98490524D01*
X137272510Y-98554736D01*
X137298216Y-98569577D01*
X137450943Y-98610501D01*
X137450945Y-98610501D01*
X137616654Y-98610501D01*
X137616670Y-98610500D01*
X143203331Y-98610500D01*
X143203347Y-98610501D01*
X143210943Y-98610501D01*
X143369054Y-98610501D01*
X143369057Y-98610501D01*
X143521785Y-98569577D01*
X143571904Y-98540639D01*
X143658716Y-98490520D01*
X143770520Y-98378716D01*
X143770520Y-98378714D01*
X143780728Y-98368507D01*
X143780729Y-98368504D01*
X144422416Y-97726819D01*
X144483739Y-97693334D01*
X144510097Y-97690500D01*
X145357713Y-97690500D01*
X145357720Y-97690500D01*
X145470236Y-97675687D01*
X145610233Y-97617698D01*
X145730451Y-97525451D01*
X145730452Y-97525448D01*
X145736898Y-97520503D01*
X145738006Y-97521947D01*
X145790405Y-97493335D01*
X145816763Y-97490501D01*
X145949054Y-97490501D01*
X145949057Y-97490501D01*
X146101785Y-97449577D01*
X146171200Y-97409500D01*
X146238716Y-97370520D01*
X146350520Y-97258716D01*
X146350520Y-97258714D01*
X146360724Y-97248511D01*
X146360727Y-97248506D01*
X147810520Y-95798716D01*
X147889577Y-95661785D01*
X147930501Y-95509057D01*
X147930501Y-95350942D01*
X147930501Y-95343347D01*
X147930500Y-95343329D01*
X147930500Y-93132246D01*
X147950185Y-93065207D01*
X148002989Y-93019452D01*
X148072147Y-93009508D01*
X148135703Y-93038533D01*
X148173477Y-93097311D01*
X148178027Y-93121436D01*
X148179014Y-93132713D01*
X148184936Y-93200403D01*
X148184938Y-93200413D01*
X148246094Y-93428655D01*
X148246096Y-93428659D01*
X148246097Y-93428663D01*
X148284465Y-93510943D01*
X148345965Y-93642830D01*
X148345967Y-93642834D01*
X148435010Y-93770000D01*
X148481505Y-93836401D01*
X148648599Y-94003495D01*
X148707876Y-94045001D01*
X148842165Y-94139032D01*
X148842167Y-94139033D01*
X148842170Y-94139035D01*
X149056337Y-94238903D01*
X149284592Y-94300063D01*
X149447707Y-94314334D01*
X149519999Y-94320659D01*
X149520000Y-94320659D01*
X149520001Y-94320659D01*
X149592293Y-94314334D01*
X149755408Y-94300063D01*
X149883757Y-94265672D01*
X149953606Y-94267335D01*
X150003531Y-94297766D01*
X153414632Y-97708867D01*
X153448117Y-97770190D01*
X153443133Y-97839882D01*
X153426218Y-97870859D01*
X153376204Y-97937669D01*
X153376202Y-97937671D01*
X153325908Y-98072517D01*
X153319501Y-98132116D01*
X153319501Y-98132123D01*
X153319500Y-98132135D01*
X153319501Y-99775500D01*
X153299816Y-99842539D01*
X153247013Y-99888294D01*
X153195501Y-99899500D01*
X126783751Y-99899500D01*
X126776264Y-99899274D01*
X126486205Y-99881728D01*
X126471340Y-99879923D01*
X126189201Y-99828219D01*
X126174663Y-99824635D01*
X125900832Y-99739306D01*
X125886831Y-99733997D01*
X125625263Y-99616275D01*
X125612004Y-99609316D01*
X125366540Y-99460928D01*
X125354217Y-99452422D01*
X125128426Y-99275526D01*
X125117218Y-99265596D01*
X124914403Y-99062781D01*
X124904473Y-99051573D01*
X124727573Y-98825776D01*
X124719075Y-98813465D01*
X124570680Y-98567989D01*
X124563727Y-98554743D01*
X124446000Y-98293163D01*
X124440693Y-98279167D01*
X124430967Y-98247956D01*
X124355363Y-98005335D01*
X124351780Y-97990797D01*
X124305243Y-97736851D01*
X124312521Y-97667362D01*
X124356213Y-97612838D01*
X124422446Y-97590592D01*
X124427212Y-97590500D01*
X125423543Y-97590500D01*
X125559614Y-97563433D01*
X125616835Y-97552051D01*
X125798914Y-97476632D01*
X125962782Y-97367139D01*
X126102139Y-97227782D01*
X126211632Y-97063914D01*
X126287051Y-96881835D01*
X126299632Y-96818582D01*
X126325500Y-96688543D01*
X126325500Y-96491456D01*
X126287052Y-96298170D01*
X126287051Y-96298169D01*
X126287051Y-96298165D01*
X126219563Y-96135233D01*
X126211635Y-96116092D01*
X126211628Y-96116079D01*
X126102139Y-95952218D01*
X126102136Y-95952214D01*
X125962785Y-95812863D01*
X125962781Y-95812860D01*
X125798920Y-95703371D01*
X125798907Y-95703364D01*
X125616839Y-95627950D01*
X125616829Y-95627947D01*
X125423543Y-95589500D01*
X125423541Y-95589500D01*
X124426459Y-95589500D01*
X124426458Y-95589500D01*
X124420396Y-95590097D01*
X124420219Y-95588301D01*
X124359084Y-95582822D01*
X124303912Y-95539951D01*
X124280677Y-95474058D01*
X124280500Y-95467438D01*
X124280500Y-89072561D01*
X124300185Y-89005522D01*
X124352989Y-88959767D01*
X124420376Y-88950077D01*
X124420394Y-88949903D01*
X124421104Y-88949972D01*
X124422147Y-88949823D01*
X124425612Y-88950416D01*
X124426457Y-88950500D01*
X124426459Y-88950500D01*
X125423543Y-88950500D01*
X125579462Y-88919485D01*
X125616835Y-88912051D01*
X125798914Y-88836632D01*
X125962782Y-88727139D01*
X126102139Y-88587782D01*
X126211632Y-88423914D01*
X126231042Y-88377055D01*
X126250939Y-88329018D01*
X126294779Y-88274614D01*
X126361073Y-88252549D01*
X126428773Y-88269828D01*
X126476384Y-88320965D01*
X126489500Y-88376470D01*
X126489500Y-88893330D01*
X126489499Y-88893348D01*
X126489499Y-89059054D01*
X126489498Y-89059054D01*
X126530423Y-89211786D01*
X126541182Y-89230419D01*
X126541183Y-89230424D01*
X126541184Y-89230424D01*
X126609475Y-89348709D01*
X126609481Y-89348717D01*
X126728349Y-89467585D01*
X126728355Y-89467590D01*
X127743181Y-90482416D01*
X127776666Y-90543739D01*
X127779500Y-90570097D01*
X127779500Y-93958330D01*
X127779499Y-93958348D01*
X127779499Y-94124054D01*
X127779498Y-94124054D01*
X127783512Y-94139034D01*
X127820423Y-94276785D01*
X127820424Y-94276787D01*
X127820423Y-94276787D01*
X127833863Y-94300064D01*
X127833864Y-94300066D01*
X127899475Y-94413709D01*
X127899481Y-94413717D01*
X128018349Y-94532585D01*
X128018355Y-94532590D01*
X128131811Y-94646046D01*
X128165296Y-94707369D01*
X128160312Y-94777061D01*
X128148007Y-94799285D01*
X128148549Y-94799598D01*
X128144487Y-94806632D01*
X128144485Y-94806635D01*
X128121465Y-94846507D01*
X128068719Y-94937863D01*
X128029500Y-95084234D01*
X128029500Y-95235765D01*
X128068719Y-95382136D01*
X128072971Y-95389500D01*
X128144485Y-95513365D01*
X128144486Y-95513366D01*
X128148549Y-95520403D01*
X128146220Y-95521747D01*
X128166645Y-95574584D01*
X128152603Y-95643029D01*
X128103787Y-95693016D01*
X128090528Y-95699456D01*
X128081094Y-95703363D01*
X128081079Y-95703371D01*
X127917218Y-95812860D01*
X127917214Y-95812863D01*
X127777863Y-95952214D01*
X127777860Y-95952218D01*
X127668371Y-96116079D01*
X127668364Y-96116092D01*
X127592950Y-96298160D01*
X127592947Y-96298170D01*
X127554500Y-96491456D01*
X127554500Y-96491459D01*
X127554500Y-96688541D01*
X127554500Y-96688543D01*
X127554499Y-96688543D01*
X127592947Y-96881829D01*
X127592950Y-96881839D01*
X127668364Y-97063907D01*
X127668371Y-97063920D01*
X127777860Y-97227781D01*
X127777863Y-97227785D01*
X127917214Y-97367136D01*
X127917218Y-97367139D01*
X128081079Y-97476628D01*
X128081092Y-97476635D01*
X128198946Y-97525451D01*
X128263165Y-97552051D01*
X128263169Y-97552051D01*
X128263170Y-97552052D01*
X128456456Y-97590500D01*
X128456459Y-97590500D01*
X129753543Y-97590500D01*
X129889614Y-97563433D01*
X129946835Y-97552051D01*
X130128914Y-97476632D01*
X130292782Y-97367139D01*
X130432139Y-97227782D01*
X130541632Y-97063914D01*
X130617051Y-96881835D01*
X130647316Y-96729683D01*
X130679701Y-96667773D01*
X130740416Y-96633199D01*
X130810186Y-96636938D01*
X130866858Y-96677804D01*
X130892291Y-96741271D01*
X130895001Y-96767798D01*
X130895001Y-96767799D01*
X130950185Y-96934331D01*
X130950187Y-96934336D01*
X130985069Y-96990888D01*
X131042288Y-97083656D01*
X131166344Y-97207712D01*
X131315666Y-97299814D01*
X131482203Y-97354999D01*
X131584991Y-97365500D01*
X132310008Y-97365499D01*
X132310016Y-97365498D01*
X132310019Y-97365498D01*
X132366302Y-97359748D01*
X132412797Y-97354999D01*
X132579334Y-97299814D01*
X132728656Y-97207712D01*
X132852712Y-97083656D01*
X132944814Y-96934334D01*
X132999999Y-96767797D01*
X133010500Y-96665009D01*
X133010499Y-95314992D01*
X132999999Y-95212203D01*
X132944814Y-95045666D01*
X132852712Y-94896344D01*
X132728656Y-94772288D01*
X132723549Y-94767181D01*
X132725435Y-94765294D01*
X132692212Y-94718375D01*
X132685500Y-94678132D01*
X132685500Y-94581057D01*
X132705185Y-94514018D01*
X132744401Y-94475520D01*
X132878656Y-94392712D01*
X133002712Y-94268656D01*
X133094814Y-94119334D01*
X133149999Y-93952797D01*
X133160500Y-93850009D01*
X133160499Y-92449992D01*
X133159284Y-92438102D01*
X133149999Y-92347203D01*
X133149998Y-92347200D01*
X133130106Y-92287171D01*
X133094814Y-92180666D01*
X133002712Y-92031344D01*
X132878656Y-91907288D01*
X132729334Y-91815186D01*
X132670493Y-91795688D01*
X132613051Y-91755916D01*
X132586228Y-91691400D01*
X132585500Y-91677983D01*
X132585500Y-91221057D01*
X132605185Y-91154018D01*
X132644401Y-91115520D01*
X132778656Y-91032712D01*
X132902712Y-90908656D01*
X132994814Y-90759334D01*
X133049999Y-90592797D01*
X133060500Y-90490009D01*
X133060499Y-89089992D01*
X133060498Y-89089983D01*
X133859500Y-89089983D01*
X133859500Y-90490001D01*
X133859501Y-90490018D01*
X133870000Y-90592796D01*
X133870001Y-90592799D01*
X133911939Y-90719357D01*
X133925186Y-90759334D01*
X134017288Y-90908656D01*
X134141344Y-91032712D01*
X134290666Y-91124814D01*
X134457203Y-91179999D01*
X134559991Y-91190500D01*
X135310008Y-91190499D01*
X135310016Y-91190498D01*
X135310019Y-91190498D01*
X135366302Y-91184748D01*
X135412797Y-91179999D01*
X135579334Y-91124814D01*
X135728656Y-91032712D01*
X135852712Y-90908656D01*
X135944814Y-90759334D01*
X135999999Y-90592797D01*
X136007428Y-90520082D01*
X136009286Y-90501897D01*
X136035683Y-90437205D01*
X136092864Y-90397054D01*
X136132644Y-90390500D01*
X136830501Y-90390500D01*
X136897540Y-90410185D01*
X136943295Y-90462989D01*
X136954501Y-90514500D01*
X136954501Y-90955018D01*
X136965000Y-91057796D01*
X136965001Y-91057799D01*
X137020185Y-91224331D01*
X137020187Y-91224336D01*
X137033078Y-91245236D01*
X137112288Y-91373656D01*
X137236344Y-91497712D01*
X137385666Y-91589814D01*
X137552203Y-91644999D01*
X137654991Y-91655500D01*
X138505008Y-91655499D01*
X138505016Y-91655498D01*
X138505019Y-91655498D01*
X138602892Y-91645500D01*
X138607797Y-91644999D01*
X138774334Y-91589814D01*
X138923656Y-91497712D01*
X139047712Y-91373656D01*
X139139814Y-91224334D01*
X139194999Y-91057797D01*
X139205500Y-90955009D01*
X139205499Y-89604992D01*
X139204477Y-89594992D01*
X139194999Y-89502203D01*
X139194998Y-89502200D01*
X139181187Y-89460521D01*
X139139814Y-89335666D01*
X139047712Y-89186344D01*
X138923656Y-89062288D01*
X138809402Y-88991816D01*
X138762679Y-88939869D01*
X138750500Y-88886278D01*
X138750500Y-88420448D01*
X138770185Y-88353409D01*
X138822989Y-88307654D01*
X138835488Y-88302744D01*
X138844334Y-88299814D01*
X138993656Y-88207712D01*
X139117712Y-88083656D01*
X139209814Y-87934334D01*
X139264999Y-87767797D01*
X139275500Y-87665009D01*
X139275499Y-86314992D01*
X139270391Y-86264992D01*
X139264999Y-86212203D01*
X139264998Y-86212200D01*
X139248431Y-86162204D01*
X139209814Y-86045666D01*
X139117712Y-85896344D01*
X138993656Y-85772288D01*
X138900888Y-85715069D01*
X138844336Y-85680187D01*
X138844331Y-85680185D01*
X138842862Y-85679698D01*
X138677797Y-85625001D01*
X138677795Y-85625000D01*
X138575010Y-85614500D01*
X137724998Y-85614500D01*
X137724980Y-85614501D01*
X137622203Y-85625000D01*
X137622200Y-85625001D01*
X137455668Y-85680185D01*
X137455663Y-85680187D01*
X137306342Y-85772289D01*
X137182289Y-85896342D01*
X137090187Y-86045663D01*
X137090185Y-86045668D01*
X137068139Y-86112200D01*
X137035001Y-86212203D01*
X137035001Y-86212204D01*
X137035000Y-86212204D01*
X137024500Y-86314983D01*
X137024500Y-87665001D01*
X137024501Y-87665018D01*
X137035000Y-87767796D01*
X137035001Y-87767799D01*
X137073618Y-87884336D01*
X137090186Y-87934334D01*
X137182288Y-88083656D01*
X137306344Y-88207712D01*
X137455666Y-88299814D01*
X137464498Y-88302740D01*
X137521944Y-88342508D01*
X137548771Y-88407022D01*
X137549500Y-88420448D01*
X137549500Y-88826355D01*
X137529815Y-88893394D01*
X137477011Y-88939149D01*
X137464505Y-88944061D01*
X137385666Y-88970186D01*
X137236342Y-89062289D01*
X137145451Y-89153181D01*
X137084128Y-89186666D01*
X137057770Y-89189500D01*
X136132643Y-89189500D01*
X136065604Y-89169815D01*
X136019849Y-89117011D01*
X136009285Y-89078102D01*
X136002920Y-89015800D01*
X135999999Y-88987203D01*
X135944814Y-88820666D01*
X135852712Y-88671344D01*
X135728656Y-88547288D01*
X135591902Y-88462938D01*
X135545179Y-88410991D01*
X135533000Y-88357400D01*
X135533000Y-88288347D01*
X135552685Y-88221308D01*
X135591901Y-88182810D01*
X135713656Y-88107712D01*
X135837712Y-87983656D01*
X135929814Y-87834334D01*
X135984999Y-87667797D01*
X135995500Y-87565009D01*
X135995499Y-86214992D01*
X135984999Y-86112203D01*
X135929814Y-85945666D01*
X135837712Y-85796344D01*
X135713656Y-85672288D01*
X135564334Y-85580186D01*
X135397797Y-85525001D01*
X135397795Y-85525000D01*
X135295010Y-85514500D01*
X134569998Y-85514500D01*
X134569980Y-85514501D01*
X134467203Y-85525000D01*
X134467200Y-85525001D01*
X134300668Y-85580185D01*
X134300663Y-85580187D01*
X134151342Y-85672289D01*
X134027289Y-85796342D01*
X133935187Y-85945663D01*
X133935185Y-85945668D01*
X133918617Y-85995668D01*
X133880001Y-86112203D01*
X133880001Y-86112204D01*
X133880000Y-86112204D01*
X133869500Y-86214983D01*
X133869500Y-87565001D01*
X133869501Y-87565018D01*
X133880000Y-87667796D01*
X133880001Y-87667799D01*
X133935185Y-87834331D01*
X133935186Y-87834334D01*
X134027288Y-87983656D01*
X134151344Y-88107712D01*
X134273097Y-88182809D01*
X134319821Y-88234755D01*
X134332000Y-88288347D01*
X134332000Y-88360484D01*
X134312315Y-88427523D01*
X134273098Y-88466021D01*
X134188547Y-88518172D01*
X134141342Y-88547289D01*
X134017289Y-88671342D01*
X133925187Y-88820663D01*
X133925185Y-88820668D01*
X133901086Y-88893394D01*
X133870001Y-88987203D01*
X133870001Y-88987204D01*
X133870000Y-88987204D01*
X133859500Y-89089983D01*
X133060498Y-89089983D01*
X133059284Y-89078102D01*
X133049999Y-88987203D01*
X133049998Y-88987200D01*
X133041046Y-88960185D01*
X132994814Y-88820666D01*
X132902712Y-88671344D01*
X132778656Y-88547288D01*
X132633705Y-88457882D01*
X132629336Y-88455187D01*
X132629329Y-88455184D01*
X132604212Y-88446861D01*
X132546768Y-88407087D01*
X132519947Y-88342571D01*
X132532263Y-88273795D01*
X132579807Y-88222596D01*
X132604203Y-88211454D01*
X132639334Y-88199814D01*
X132788656Y-88107712D01*
X132912712Y-87983656D01*
X133004814Y-87834334D01*
X133059999Y-87667797D01*
X133070500Y-87565009D01*
X133070499Y-86214992D01*
X133059999Y-86112203D01*
X133004814Y-85945666D01*
X132912712Y-85796344D01*
X132788656Y-85672288D01*
X132639334Y-85580186D01*
X132472797Y-85525001D01*
X132472795Y-85525000D01*
X132370010Y-85514500D01*
X131644998Y-85514500D01*
X131644980Y-85514501D01*
X131542203Y-85525000D01*
X131542200Y-85525001D01*
X131375668Y-85580185D01*
X131375663Y-85580187D01*
X131226342Y-85672289D01*
X131145451Y-85753181D01*
X131084128Y-85786666D01*
X131057770Y-85789500D01*
X127929057Y-85789500D01*
X127770942Y-85789500D01*
X127618215Y-85830423D01*
X127618214Y-85830423D01*
X127618212Y-85830424D01*
X127618209Y-85830425D01*
X127568096Y-85859359D01*
X127568095Y-85859360D01*
X127529766Y-85881489D01*
X127481285Y-85909479D01*
X127481282Y-85909481D01*
X127075783Y-86314981D01*
X126721286Y-86669478D01*
X126721284Y-86669480D01*
X126669562Y-86721202D01*
X126609481Y-86781282D01*
X126609480Y-86781284D01*
X126592357Y-86810943D01*
X126530423Y-86918215D01*
X126489499Y-87070943D01*
X126489499Y-87070945D01*
X126489499Y-87239046D01*
X126489500Y-87239059D01*
X126489500Y-87523529D01*
X126469815Y-87590568D01*
X126417011Y-87636323D01*
X126347853Y-87646267D01*
X126284297Y-87617242D01*
X126250939Y-87570981D01*
X126211635Y-87476092D01*
X126211628Y-87476079D01*
X126102139Y-87312218D01*
X126102136Y-87312214D01*
X125962785Y-87172863D01*
X125962781Y-87172860D01*
X125798920Y-87063371D01*
X125798907Y-87063364D01*
X125616839Y-86987950D01*
X125616829Y-86987947D01*
X125423543Y-86949500D01*
X125423541Y-86949500D01*
X124426459Y-86949500D01*
X124426458Y-86949500D01*
X124420396Y-86950097D01*
X124420219Y-86948301D01*
X124359084Y-86942822D01*
X124303912Y-86899951D01*
X124280677Y-86834058D01*
X124280500Y-86827438D01*
X124280500Y-85913750D01*
X124280726Y-85906263D01*
X124284350Y-85846344D01*
X124298271Y-85616201D01*
X124300076Y-85601340D01*
X124303953Y-85580187D01*
X124351780Y-85319197D01*
X124355364Y-85304663D01*
X124440696Y-85030822D01*
X124445998Y-85016841D01*
X124563731Y-84755249D01*
X124570676Y-84742016D01*
X124719080Y-84496526D01*
X124727567Y-84484230D01*
X124904480Y-84258417D01*
X124914395Y-84247226D01*
X125117226Y-84044395D01*
X125128417Y-84034480D01*
X125354230Y-83857567D01*
X125366526Y-83849080D01*
X125612016Y-83700676D01*
X125625249Y-83693731D01*
X125886841Y-83575998D01*
X125900822Y-83570696D01*
X126174668Y-83485362D01*
X126189197Y-83481780D01*
X126471344Y-83430075D01*
X126486201Y-83428271D01*
X126776264Y-83410726D01*
X126783751Y-83410500D01*
X126845892Y-83410500D01*
X153195500Y-83410500D01*
X153262539Y-83430185D01*
G37*
%TD.AperFunction*%
M02*
