M48
; DRILL file {KiCad 8.0.4} date 2024-08-19T16:14:01-0700
; FORMAT={-:-/ absolute / inch / decimal}
; #@! TF.CreationDate,2024-08-19T16:14:01-07:00
; #@! TF.GenerationSoftware,Kicad,Pcbnew,8.0.4
; #@! TF.FileFunction,Plated,1,2,PTH
FMAT,2
INCH
; #@! TA.AperFunction,Plated,PTH,ViaDrill
T1C0.0118
; #@! TA.AperFunction,Plated,PTH,ComponentDrill
T2C0.0236
; #@! TA.AperFunction,Plated,PTH,ComponentDrill
T3C0.0354
; #@! TA.AperFunction,Plated,PTH,ComponentDrill
T4C0.0394
%
G90
G05
T1
X5.1073Y-3.5067
X5.1073Y-3.7587
X5.1948Y-3.7791
X5.2002Y-3.6673
X5.363Y-3.7689
X5.4362Y-3.5543
X5.4894Y-3.6626
X5.4906Y-3.7146
X5.4906Y-3.7646
X5.4929Y-3.8134
X5.6854Y-3.6646
T3
X6.2896Y-3.4671
X6.2896Y-3.5671
T4
X5.8866Y-3.56
X5.8866Y-3.66
T2
G00X4.9341Y-3.4626
M15
G01X4.9026Y-3.4626
M16
G05
G00X4.9341Y-3.8028
M15
G01X4.9026Y-3.8028
M16
G05
G00X5.1045Y-3.4626
M15
G01X5.0612Y-3.4626
M16
G05
G00X5.1045Y-3.8028
M15
G01X5.0612Y-3.8028
M16
G05
M30
