%TF.GenerationSoftware,KiCad,Pcbnew,8.0.4*%
%TF.CreationDate,2024-08-19T16:14:01-07:00*%
%TF.ProjectId,LED flashlight,4c454420-666c-4617-9368-6c696768742e,rev?*%
%TF.SameCoordinates,Original*%
%TF.FileFunction,Drillmap*%
%TF.FilePolarity,Positive*%
%FSLAX45Y45*%
G04 Gerber Fmt 4.5, Leading zero omitted, Abs format (unit mm)*
G04 Created by KiCad (PCBNEW 8.0.4) date 2024-08-19 16:14:01*
%MOMM*%
%LPD*%
G01*
G04 APERTURE LIST*
%ADD10C,0.050000*%
%ADD11C,0.200000*%
%ADD12C,0.100000*%
G04 APERTURE END LIST*
D10*
X15789000Y-8291000D02*
G75*
G02*
X16089000Y-8591000I0J-300000D01*
G01*
X12378000Y-8591000D02*
G75*
G02*
X12678000Y-8291000I300000J0D01*
G01*
X16089000Y-9740000D02*
G75*
G02*
X15789000Y-10040000I-300000J0D01*
G01*
X12678000Y-10040000D02*
G75*
G02*
X12378000Y-9740000I0J300000D01*
G01*
X16089000Y-8591000D02*
X16089000Y-9740000D01*
X12678000Y-8291000D02*
X15789000Y-8291000D01*
X12378000Y-9740000D02*
X12378000Y-8591000D01*
X15789000Y-10040000D02*
X12678000Y-10040000D01*
D11*
D12*
X12828000Y-8905500D02*
X12893000Y-8970500D01*
X12893000Y-8905500D02*
X12828000Y-8970500D01*
X12828000Y-9483500D02*
X12893000Y-9548500D01*
X12893000Y-9483500D02*
X12828000Y-9548500D01*
D11*
X12636277Y-10353984D02*
X12636277Y-10153984D01*
X12636277Y-10153984D02*
X12683896Y-10153984D01*
X12683896Y-10153984D02*
X12712467Y-10163508D01*
X12712467Y-10163508D02*
X12731515Y-10182555D01*
X12731515Y-10182555D02*
X12741039Y-10201603D01*
X12741039Y-10201603D02*
X12750562Y-10239698D01*
X12750562Y-10239698D02*
X12750562Y-10268270D01*
X12750562Y-10268270D02*
X12741039Y-10306365D01*
X12741039Y-10306365D02*
X12731515Y-10325412D01*
X12731515Y-10325412D02*
X12712467Y-10344460D01*
X12712467Y-10344460D02*
X12683896Y-10353984D01*
X12683896Y-10353984D02*
X12636277Y-10353984D01*
X12836277Y-10353984D02*
X12836277Y-10220650D01*
X12836277Y-10258746D02*
X12845801Y-10239698D01*
X12845801Y-10239698D02*
X12855324Y-10230174D01*
X12855324Y-10230174D02*
X12874372Y-10220650D01*
X12874372Y-10220650D02*
X12893420Y-10220650D01*
X12960086Y-10353984D02*
X12960086Y-10220650D01*
X12960086Y-10153984D02*
X12950562Y-10163508D01*
X12950562Y-10163508D02*
X12960086Y-10173031D01*
X12960086Y-10173031D02*
X12969610Y-10163508D01*
X12969610Y-10163508D02*
X12960086Y-10153984D01*
X12960086Y-10153984D02*
X12960086Y-10173031D01*
X13083896Y-10353984D02*
X13064848Y-10344460D01*
X13064848Y-10344460D02*
X13055324Y-10325412D01*
X13055324Y-10325412D02*
X13055324Y-10153984D01*
X13188658Y-10353984D02*
X13169610Y-10344460D01*
X13169610Y-10344460D02*
X13160086Y-10325412D01*
X13160086Y-10325412D02*
X13160086Y-10153984D01*
X13417229Y-10353984D02*
X13417229Y-10153984D01*
X13417229Y-10153984D02*
X13483896Y-10296841D01*
X13483896Y-10296841D02*
X13550562Y-10153984D01*
X13550562Y-10153984D02*
X13550562Y-10353984D01*
X13731515Y-10353984D02*
X13731515Y-10249222D01*
X13731515Y-10249222D02*
X13721991Y-10230174D01*
X13721991Y-10230174D02*
X13702943Y-10220650D01*
X13702943Y-10220650D02*
X13664848Y-10220650D01*
X13664848Y-10220650D02*
X13645801Y-10230174D01*
X13731515Y-10344460D02*
X13712467Y-10353984D01*
X13712467Y-10353984D02*
X13664848Y-10353984D01*
X13664848Y-10353984D02*
X13645801Y-10344460D01*
X13645801Y-10344460D02*
X13636277Y-10325412D01*
X13636277Y-10325412D02*
X13636277Y-10306365D01*
X13636277Y-10306365D02*
X13645801Y-10287317D01*
X13645801Y-10287317D02*
X13664848Y-10277793D01*
X13664848Y-10277793D02*
X13712467Y-10277793D01*
X13712467Y-10277793D02*
X13731515Y-10268270D01*
X13826753Y-10220650D02*
X13826753Y-10420650D01*
X13826753Y-10230174D02*
X13845801Y-10220650D01*
X13845801Y-10220650D02*
X13883896Y-10220650D01*
X13883896Y-10220650D02*
X13902943Y-10230174D01*
X13902943Y-10230174D02*
X13912467Y-10239698D01*
X13912467Y-10239698D02*
X13921991Y-10258746D01*
X13921991Y-10258746D02*
X13921991Y-10315889D01*
X13921991Y-10315889D02*
X13912467Y-10334936D01*
X13912467Y-10334936D02*
X13902943Y-10344460D01*
X13902943Y-10344460D02*
X13883896Y-10353984D01*
X13883896Y-10353984D02*
X13845801Y-10353984D01*
X13845801Y-10353984D02*
X13826753Y-10344460D01*
X14007705Y-10334936D02*
X14017229Y-10344460D01*
X14017229Y-10344460D02*
X14007705Y-10353984D01*
X14007705Y-10353984D02*
X13998182Y-10344460D01*
X13998182Y-10344460D02*
X14007705Y-10334936D01*
X14007705Y-10334936D02*
X14007705Y-10353984D01*
X14007705Y-10230174D02*
X14017229Y-10239698D01*
X14017229Y-10239698D02*
X14007705Y-10249222D01*
X14007705Y-10249222D02*
X13998182Y-10239698D01*
X13998182Y-10239698D02*
X14007705Y-10230174D01*
X14007705Y-10230174D02*
X14007705Y-10249222D01*
D12*
X12310500Y-10650000D02*
X12375500Y-10715000D01*
X12375500Y-10650000D02*
X12310500Y-10715000D01*
D11*
X12674372Y-10573984D02*
X12693420Y-10573984D01*
X12693420Y-10573984D02*
X12712467Y-10583508D01*
X12712467Y-10583508D02*
X12721991Y-10593031D01*
X12721991Y-10593031D02*
X12731515Y-10612079D01*
X12731515Y-10612079D02*
X12741039Y-10650174D01*
X12741039Y-10650174D02*
X12741039Y-10697793D01*
X12741039Y-10697793D02*
X12731515Y-10735889D01*
X12731515Y-10735889D02*
X12721991Y-10754936D01*
X12721991Y-10754936D02*
X12712467Y-10764460D01*
X12712467Y-10764460D02*
X12693420Y-10773984D01*
X12693420Y-10773984D02*
X12674372Y-10773984D01*
X12674372Y-10773984D02*
X12655324Y-10764460D01*
X12655324Y-10764460D02*
X12645801Y-10754936D01*
X12645801Y-10754936D02*
X12636277Y-10735889D01*
X12636277Y-10735889D02*
X12626753Y-10697793D01*
X12626753Y-10697793D02*
X12626753Y-10650174D01*
X12626753Y-10650174D02*
X12636277Y-10612079D01*
X12636277Y-10612079D02*
X12645801Y-10593031D01*
X12645801Y-10593031D02*
X12655324Y-10583508D01*
X12655324Y-10583508D02*
X12674372Y-10573984D01*
X12826753Y-10754936D02*
X12836277Y-10764460D01*
X12836277Y-10764460D02*
X12826753Y-10773984D01*
X12826753Y-10773984D02*
X12817229Y-10764460D01*
X12817229Y-10764460D02*
X12826753Y-10754936D01*
X12826753Y-10754936D02*
X12826753Y-10773984D01*
X13007705Y-10573984D02*
X12969610Y-10573984D01*
X12969610Y-10573984D02*
X12950562Y-10583508D01*
X12950562Y-10583508D02*
X12941039Y-10593031D01*
X12941039Y-10593031D02*
X12921991Y-10621603D01*
X12921991Y-10621603D02*
X12912467Y-10659698D01*
X12912467Y-10659698D02*
X12912467Y-10735889D01*
X12912467Y-10735889D02*
X12921991Y-10754936D01*
X12921991Y-10754936D02*
X12931515Y-10764460D01*
X12931515Y-10764460D02*
X12950562Y-10773984D01*
X12950562Y-10773984D02*
X12988658Y-10773984D01*
X12988658Y-10773984D02*
X13007705Y-10764460D01*
X13007705Y-10764460D02*
X13017229Y-10754936D01*
X13017229Y-10754936D02*
X13026753Y-10735889D01*
X13026753Y-10735889D02*
X13026753Y-10688270D01*
X13026753Y-10688270D02*
X13017229Y-10669222D01*
X13017229Y-10669222D02*
X13007705Y-10659698D01*
X13007705Y-10659698D02*
X12988658Y-10650174D01*
X12988658Y-10650174D02*
X12950562Y-10650174D01*
X12950562Y-10650174D02*
X12931515Y-10659698D01*
X12931515Y-10659698D02*
X12921991Y-10669222D01*
X12921991Y-10669222D02*
X12912467Y-10688270D01*
X13207705Y-10573984D02*
X13112467Y-10573984D01*
X13112467Y-10573984D02*
X13102943Y-10669222D01*
X13102943Y-10669222D02*
X13112467Y-10659698D01*
X13112467Y-10659698D02*
X13131515Y-10650174D01*
X13131515Y-10650174D02*
X13179134Y-10650174D01*
X13179134Y-10650174D02*
X13198182Y-10659698D01*
X13198182Y-10659698D02*
X13207705Y-10669222D01*
X13207705Y-10669222D02*
X13217229Y-10688270D01*
X13217229Y-10688270D02*
X13217229Y-10735889D01*
X13217229Y-10735889D02*
X13207705Y-10754936D01*
X13207705Y-10754936D02*
X13198182Y-10764460D01*
X13198182Y-10764460D02*
X13179134Y-10773984D01*
X13179134Y-10773984D02*
X13131515Y-10773984D01*
X13131515Y-10773984D02*
X13112467Y-10764460D01*
X13112467Y-10764460D02*
X13102943Y-10754936D01*
X13341039Y-10573984D02*
X13360086Y-10573984D01*
X13360086Y-10573984D02*
X13379134Y-10583508D01*
X13379134Y-10583508D02*
X13388658Y-10593031D01*
X13388658Y-10593031D02*
X13398182Y-10612079D01*
X13398182Y-10612079D02*
X13407705Y-10650174D01*
X13407705Y-10650174D02*
X13407705Y-10697793D01*
X13407705Y-10697793D02*
X13398182Y-10735889D01*
X13398182Y-10735889D02*
X13388658Y-10754936D01*
X13388658Y-10754936D02*
X13379134Y-10764460D01*
X13379134Y-10764460D02*
X13360086Y-10773984D01*
X13360086Y-10773984D02*
X13341039Y-10773984D01*
X13341039Y-10773984D02*
X13321991Y-10764460D01*
X13321991Y-10764460D02*
X13312467Y-10754936D01*
X13312467Y-10754936D02*
X13302943Y-10735889D01*
X13302943Y-10735889D02*
X13293420Y-10697793D01*
X13293420Y-10697793D02*
X13293420Y-10650174D01*
X13293420Y-10650174D02*
X13302943Y-10612079D01*
X13302943Y-10612079D02*
X13312467Y-10593031D01*
X13312467Y-10593031D02*
X13321991Y-10583508D01*
X13321991Y-10583508D02*
X13341039Y-10573984D01*
X13493420Y-10773984D02*
X13493420Y-10640650D01*
X13493420Y-10659698D02*
X13502943Y-10650174D01*
X13502943Y-10650174D02*
X13521991Y-10640650D01*
X13521991Y-10640650D02*
X13550563Y-10640650D01*
X13550563Y-10640650D02*
X13569610Y-10650174D01*
X13569610Y-10650174D02*
X13579134Y-10669222D01*
X13579134Y-10669222D02*
X13579134Y-10773984D01*
X13579134Y-10669222D02*
X13588658Y-10650174D01*
X13588658Y-10650174D02*
X13607705Y-10640650D01*
X13607705Y-10640650D02*
X13636277Y-10640650D01*
X13636277Y-10640650D02*
X13655324Y-10650174D01*
X13655324Y-10650174D02*
X13664848Y-10669222D01*
X13664848Y-10669222D02*
X13664848Y-10773984D01*
X13760086Y-10773984D02*
X13760086Y-10640650D01*
X13760086Y-10659698D02*
X13769610Y-10650174D01*
X13769610Y-10650174D02*
X13788658Y-10640650D01*
X13788658Y-10640650D02*
X13817229Y-10640650D01*
X13817229Y-10640650D02*
X13836277Y-10650174D01*
X13836277Y-10650174D02*
X13845801Y-10669222D01*
X13845801Y-10669222D02*
X13845801Y-10773984D01*
X13845801Y-10669222D02*
X13855324Y-10650174D01*
X13855324Y-10650174D02*
X13874372Y-10640650D01*
X13874372Y-10640650D02*
X13902943Y-10640650D01*
X13902943Y-10640650D02*
X13921991Y-10650174D01*
X13921991Y-10650174D02*
X13931515Y-10669222D01*
X13931515Y-10669222D02*
X13931515Y-10773984D01*
X14321991Y-10564460D02*
X14150563Y-10821603D01*
X14579134Y-10573984D02*
X14598182Y-10573984D01*
X14598182Y-10573984D02*
X14617229Y-10583508D01*
X14617229Y-10583508D02*
X14626753Y-10593031D01*
X14626753Y-10593031D02*
X14636277Y-10612079D01*
X14636277Y-10612079D02*
X14645801Y-10650174D01*
X14645801Y-10650174D02*
X14645801Y-10697793D01*
X14645801Y-10697793D02*
X14636277Y-10735889D01*
X14636277Y-10735889D02*
X14626753Y-10754936D01*
X14626753Y-10754936D02*
X14617229Y-10764460D01*
X14617229Y-10764460D02*
X14598182Y-10773984D01*
X14598182Y-10773984D02*
X14579134Y-10773984D01*
X14579134Y-10773984D02*
X14560086Y-10764460D01*
X14560086Y-10764460D02*
X14550563Y-10754936D01*
X14550563Y-10754936D02*
X14541039Y-10735889D01*
X14541039Y-10735889D02*
X14531515Y-10697793D01*
X14531515Y-10697793D02*
X14531515Y-10650174D01*
X14531515Y-10650174D02*
X14541039Y-10612079D01*
X14541039Y-10612079D02*
X14550563Y-10593031D01*
X14550563Y-10593031D02*
X14560086Y-10583508D01*
X14560086Y-10583508D02*
X14579134Y-10573984D01*
X14731515Y-10754936D02*
X14741039Y-10764460D01*
X14741039Y-10764460D02*
X14731515Y-10773984D01*
X14731515Y-10773984D02*
X14721991Y-10764460D01*
X14721991Y-10764460D02*
X14731515Y-10754936D01*
X14731515Y-10754936D02*
X14731515Y-10773984D01*
X14864848Y-10573984D02*
X14883896Y-10573984D01*
X14883896Y-10573984D02*
X14902944Y-10583508D01*
X14902944Y-10583508D02*
X14912467Y-10593031D01*
X14912467Y-10593031D02*
X14921991Y-10612079D01*
X14921991Y-10612079D02*
X14931515Y-10650174D01*
X14931515Y-10650174D02*
X14931515Y-10697793D01*
X14931515Y-10697793D02*
X14921991Y-10735889D01*
X14921991Y-10735889D02*
X14912467Y-10754936D01*
X14912467Y-10754936D02*
X14902944Y-10764460D01*
X14902944Y-10764460D02*
X14883896Y-10773984D01*
X14883896Y-10773984D02*
X14864848Y-10773984D01*
X14864848Y-10773984D02*
X14845801Y-10764460D01*
X14845801Y-10764460D02*
X14836277Y-10754936D01*
X14836277Y-10754936D02*
X14826753Y-10735889D01*
X14826753Y-10735889D02*
X14817229Y-10697793D01*
X14817229Y-10697793D02*
X14817229Y-10650174D01*
X14817229Y-10650174D02*
X14826753Y-10612079D01*
X14826753Y-10612079D02*
X14836277Y-10593031D01*
X14836277Y-10593031D02*
X14845801Y-10583508D01*
X14845801Y-10583508D02*
X14864848Y-10573984D01*
X15007706Y-10593031D02*
X15017229Y-10583508D01*
X15017229Y-10583508D02*
X15036277Y-10573984D01*
X15036277Y-10573984D02*
X15083896Y-10573984D01*
X15083896Y-10573984D02*
X15102944Y-10583508D01*
X15102944Y-10583508D02*
X15112467Y-10593031D01*
X15112467Y-10593031D02*
X15121991Y-10612079D01*
X15121991Y-10612079D02*
X15121991Y-10631127D01*
X15121991Y-10631127D02*
X15112467Y-10659698D01*
X15112467Y-10659698D02*
X14998182Y-10773984D01*
X14998182Y-10773984D02*
X15121991Y-10773984D01*
X15302944Y-10573984D02*
X15207706Y-10573984D01*
X15207706Y-10573984D02*
X15198182Y-10669222D01*
X15198182Y-10669222D02*
X15207706Y-10659698D01*
X15207706Y-10659698D02*
X15226753Y-10650174D01*
X15226753Y-10650174D02*
X15274372Y-10650174D01*
X15274372Y-10650174D02*
X15293420Y-10659698D01*
X15293420Y-10659698D02*
X15302944Y-10669222D01*
X15302944Y-10669222D02*
X15312467Y-10688270D01*
X15312467Y-10688270D02*
X15312467Y-10735889D01*
X15312467Y-10735889D02*
X15302944Y-10754936D01*
X15302944Y-10754936D02*
X15293420Y-10764460D01*
X15293420Y-10764460D02*
X15274372Y-10773984D01*
X15274372Y-10773984D02*
X15226753Y-10773984D01*
X15226753Y-10773984D02*
X15207706Y-10764460D01*
X15207706Y-10764460D02*
X15198182Y-10754936D01*
X15483896Y-10573984D02*
X15445801Y-10573984D01*
X15445801Y-10573984D02*
X15426753Y-10583508D01*
X15426753Y-10583508D02*
X15417229Y-10593031D01*
X15417229Y-10593031D02*
X15398182Y-10621603D01*
X15398182Y-10621603D02*
X15388658Y-10659698D01*
X15388658Y-10659698D02*
X15388658Y-10735889D01*
X15388658Y-10735889D02*
X15398182Y-10754936D01*
X15398182Y-10754936D02*
X15407706Y-10764460D01*
X15407706Y-10764460D02*
X15426753Y-10773984D01*
X15426753Y-10773984D02*
X15464848Y-10773984D01*
X15464848Y-10773984D02*
X15483896Y-10764460D01*
X15483896Y-10764460D02*
X15493420Y-10754936D01*
X15493420Y-10754936D02*
X15502944Y-10735889D01*
X15502944Y-10735889D02*
X15502944Y-10688270D01*
X15502944Y-10688270D02*
X15493420Y-10669222D01*
X15493420Y-10669222D02*
X15483896Y-10659698D01*
X15483896Y-10659698D02*
X15464848Y-10650174D01*
X15464848Y-10650174D02*
X15426753Y-10650174D01*
X15426753Y-10650174D02*
X15407706Y-10659698D01*
X15407706Y-10659698D02*
X15398182Y-10669222D01*
X15398182Y-10669222D02*
X15388658Y-10688270D01*
X15579134Y-10573984D02*
X15579134Y-10612079D01*
X15655325Y-10573984D02*
X15655325Y-10612079D01*
X15950563Y-10850174D02*
X15941039Y-10840650D01*
X15941039Y-10840650D02*
X15921991Y-10812079D01*
X15921991Y-10812079D02*
X15912468Y-10793031D01*
X15912468Y-10793031D02*
X15902944Y-10764460D01*
X15902944Y-10764460D02*
X15893420Y-10716841D01*
X15893420Y-10716841D02*
X15893420Y-10678746D01*
X15893420Y-10678746D02*
X15902944Y-10631127D01*
X15902944Y-10631127D02*
X15912468Y-10602555D01*
X15912468Y-10602555D02*
X15921991Y-10583508D01*
X15921991Y-10583508D02*
X15941039Y-10554936D01*
X15941039Y-10554936D02*
X15950563Y-10545412D01*
X16017229Y-10593031D02*
X16026753Y-10583508D01*
X16026753Y-10583508D02*
X16045801Y-10573984D01*
X16045801Y-10573984D02*
X16093420Y-10573984D01*
X16093420Y-10573984D02*
X16112468Y-10583508D01*
X16112468Y-10583508D02*
X16121991Y-10593031D01*
X16121991Y-10593031D02*
X16131515Y-10612079D01*
X16131515Y-10612079D02*
X16131515Y-10631127D01*
X16131515Y-10631127D02*
X16121991Y-10659698D01*
X16121991Y-10659698D02*
X16007706Y-10773984D01*
X16007706Y-10773984D02*
X16131515Y-10773984D01*
X16369610Y-10773984D02*
X16369610Y-10573984D01*
X16455325Y-10773984D02*
X16455325Y-10669222D01*
X16455325Y-10669222D02*
X16445801Y-10650174D01*
X16445801Y-10650174D02*
X16426753Y-10640650D01*
X16426753Y-10640650D02*
X16398182Y-10640650D01*
X16398182Y-10640650D02*
X16379134Y-10650174D01*
X16379134Y-10650174D02*
X16369610Y-10659698D01*
X16579134Y-10773984D02*
X16560087Y-10764460D01*
X16560087Y-10764460D02*
X16550563Y-10754936D01*
X16550563Y-10754936D02*
X16541039Y-10735889D01*
X16541039Y-10735889D02*
X16541039Y-10678746D01*
X16541039Y-10678746D02*
X16550563Y-10659698D01*
X16550563Y-10659698D02*
X16560087Y-10650174D01*
X16560087Y-10650174D02*
X16579134Y-10640650D01*
X16579134Y-10640650D02*
X16607706Y-10640650D01*
X16607706Y-10640650D02*
X16626753Y-10650174D01*
X16626753Y-10650174D02*
X16636277Y-10659698D01*
X16636277Y-10659698D02*
X16645801Y-10678746D01*
X16645801Y-10678746D02*
X16645801Y-10735889D01*
X16645801Y-10735889D02*
X16636277Y-10754936D01*
X16636277Y-10754936D02*
X16626753Y-10764460D01*
X16626753Y-10764460D02*
X16607706Y-10773984D01*
X16607706Y-10773984D02*
X16579134Y-10773984D01*
X16760087Y-10773984D02*
X16741039Y-10764460D01*
X16741039Y-10764460D02*
X16731515Y-10745412D01*
X16731515Y-10745412D02*
X16731515Y-10573984D01*
X16912468Y-10764460D02*
X16893420Y-10773984D01*
X16893420Y-10773984D02*
X16855325Y-10773984D01*
X16855325Y-10773984D02*
X16836277Y-10764460D01*
X16836277Y-10764460D02*
X16826753Y-10745412D01*
X16826753Y-10745412D02*
X16826753Y-10669222D01*
X16826753Y-10669222D02*
X16836277Y-10650174D01*
X16836277Y-10650174D02*
X16855325Y-10640650D01*
X16855325Y-10640650D02*
X16893420Y-10640650D01*
X16893420Y-10640650D02*
X16912468Y-10650174D01*
X16912468Y-10650174D02*
X16921992Y-10669222D01*
X16921992Y-10669222D02*
X16921992Y-10688270D01*
X16921992Y-10688270D02*
X16826753Y-10707317D01*
X16998182Y-10764460D02*
X17017230Y-10773984D01*
X17017230Y-10773984D02*
X17055325Y-10773984D01*
X17055325Y-10773984D02*
X17074373Y-10764460D01*
X17074373Y-10764460D02*
X17083896Y-10745412D01*
X17083896Y-10745412D02*
X17083896Y-10735889D01*
X17083896Y-10735889D02*
X17074373Y-10716841D01*
X17074373Y-10716841D02*
X17055325Y-10707317D01*
X17055325Y-10707317D02*
X17026753Y-10707317D01*
X17026753Y-10707317D02*
X17007706Y-10697793D01*
X17007706Y-10697793D02*
X16998182Y-10678746D01*
X16998182Y-10678746D02*
X16998182Y-10669222D01*
X16998182Y-10669222D02*
X17007706Y-10650174D01*
X17007706Y-10650174D02*
X17026753Y-10640650D01*
X17026753Y-10640650D02*
X17055325Y-10640650D01*
X17055325Y-10640650D02*
X17074373Y-10650174D01*
X17150563Y-10850174D02*
X17160087Y-10840650D01*
X17160087Y-10840650D02*
X17179134Y-10812079D01*
X17179134Y-10812079D02*
X17188658Y-10793031D01*
X17188658Y-10793031D02*
X17198182Y-10764460D01*
X17198182Y-10764460D02*
X17207706Y-10716841D01*
X17207706Y-10716841D02*
X17207706Y-10678746D01*
X17207706Y-10678746D02*
X17198182Y-10631127D01*
X17198182Y-10631127D02*
X17188658Y-10602555D01*
X17188658Y-10602555D02*
X17179134Y-10583508D01*
X17179134Y-10583508D02*
X17160087Y-10554936D01*
X17160087Y-10554936D02*
X17150563Y-10545412D01*
X17512468Y-10850174D02*
X17502944Y-10840650D01*
X17502944Y-10840650D02*
X17483896Y-10812079D01*
X17483896Y-10812079D02*
X17474373Y-10793031D01*
X17474373Y-10793031D02*
X17464849Y-10764460D01*
X17464849Y-10764460D02*
X17455325Y-10716841D01*
X17455325Y-10716841D02*
X17455325Y-10678746D01*
X17455325Y-10678746D02*
X17464849Y-10631127D01*
X17464849Y-10631127D02*
X17474373Y-10602555D01*
X17474373Y-10602555D02*
X17483896Y-10583508D01*
X17483896Y-10583508D02*
X17502944Y-10554936D01*
X17502944Y-10554936D02*
X17512468Y-10545412D01*
X17588658Y-10640650D02*
X17588658Y-10773984D01*
X17588658Y-10659698D02*
X17598182Y-10650174D01*
X17598182Y-10650174D02*
X17617230Y-10640650D01*
X17617230Y-10640650D02*
X17645801Y-10640650D01*
X17645801Y-10640650D02*
X17664849Y-10650174D01*
X17664849Y-10650174D02*
X17674373Y-10669222D01*
X17674373Y-10669222D02*
X17674373Y-10773984D01*
X17798182Y-10773984D02*
X17779134Y-10764460D01*
X17779134Y-10764460D02*
X17769611Y-10754936D01*
X17769611Y-10754936D02*
X17760087Y-10735889D01*
X17760087Y-10735889D02*
X17760087Y-10678746D01*
X17760087Y-10678746D02*
X17769611Y-10659698D01*
X17769611Y-10659698D02*
X17779134Y-10650174D01*
X17779134Y-10650174D02*
X17798182Y-10640650D01*
X17798182Y-10640650D02*
X17826754Y-10640650D01*
X17826754Y-10640650D02*
X17845801Y-10650174D01*
X17845801Y-10650174D02*
X17855325Y-10659698D01*
X17855325Y-10659698D02*
X17864849Y-10678746D01*
X17864849Y-10678746D02*
X17864849Y-10735889D01*
X17864849Y-10735889D02*
X17855325Y-10754936D01*
X17855325Y-10754936D02*
X17845801Y-10764460D01*
X17845801Y-10764460D02*
X17826754Y-10773984D01*
X17826754Y-10773984D02*
X17798182Y-10773984D01*
X17921992Y-10640650D02*
X17998182Y-10640650D01*
X17950563Y-10573984D02*
X17950563Y-10745412D01*
X17950563Y-10745412D02*
X17960087Y-10764460D01*
X17960087Y-10764460D02*
X17979134Y-10773984D01*
X17979134Y-10773984D02*
X17998182Y-10773984D01*
X18217230Y-10640650D02*
X18217230Y-10840650D01*
X18217230Y-10650174D02*
X18236277Y-10640650D01*
X18236277Y-10640650D02*
X18274373Y-10640650D01*
X18274373Y-10640650D02*
X18293420Y-10650174D01*
X18293420Y-10650174D02*
X18302944Y-10659698D01*
X18302944Y-10659698D02*
X18312468Y-10678746D01*
X18312468Y-10678746D02*
X18312468Y-10735889D01*
X18312468Y-10735889D02*
X18302944Y-10754936D01*
X18302944Y-10754936D02*
X18293420Y-10764460D01*
X18293420Y-10764460D02*
X18274373Y-10773984D01*
X18274373Y-10773984D02*
X18236277Y-10773984D01*
X18236277Y-10773984D02*
X18217230Y-10764460D01*
X18426754Y-10773984D02*
X18407706Y-10764460D01*
X18407706Y-10764460D02*
X18398182Y-10745412D01*
X18398182Y-10745412D02*
X18398182Y-10573984D01*
X18588658Y-10773984D02*
X18588658Y-10669222D01*
X18588658Y-10669222D02*
X18579135Y-10650174D01*
X18579135Y-10650174D02*
X18560087Y-10640650D01*
X18560087Y-10640650D02*
X18521992Y-10640650D01*
X18521992Y-10640650D02*
X18502944Y-10650174D01*
X18588658Y-10764460D02*
X18569611Y-10773984D01*
X18569611Y-10773984D02*
X18521992Y-10773984D01*
X18521992Y-10773984D02*
X18502944Y-10764460D01*
X18502944Y-10764460D02*
X18493420Y-10745412D01*
X18493420Y-10745412D02*
X18493420Y-10726365D01*
X18493420Y-10726365D02*
X18502944Y-10707317D01*
X18502944Y-10707317D02*
X18521992Y-10697793D01*
X18521992Y-10697793D02*
X18569611Y-10697793D01*
X18569611Y-10697793D02*
X18588658Y-10688270D01*
X18655325Y-10640650D02*
X18731515Y-10640650D01*
X18683896Y-10573984D02*
X18683896Y-10745412D01*
X18683896Y-10745412D02*
X18693420Y-10764460D01*
X18693420Y-10764460D02*
X18712468Y-10773984D01*
X18712468Y-10773984D02*
X18731515Y-10773984D01*
X18874373Y-10764460D02*
X18855325Y-10773984D01*
X18855325Y-10773984D02*
X18817230Y-10773984D01*
X18817230Y-10773984D02*
X18798182Y-10764460D01*
X18798182Y-10764460D02*
X18788658Y-10745412D01*
X18788658Y-10745412D02*
X18788658Y-10669222D01*
X18788658Y-10669222D02*
X18798182Y-10650174D01*
X18798182Y-10650174D02*
X18817230Y-10640650D01*
X18817230Y-10640650D02*
X18855325Y-10640650D01*
X18855325Y-10640650D02*
X18874373Y-10650174D01*
X18874373Y-10650174D02*
X18883896Y-10669222D01*
X18883896Y-10669222D02*
X18883896Y-10688270D01*
X18883896Y-10688270D02*
X18788658Y-10707317D01*
X19055325Y-10773984D02*
X19055325Y-10573984D01*
X19055325Y-10764460D02*
X19036277Y-10773984D01*
X19036277Y-10773984D02*
X18998182Y-10773984D01*
X18998182Y-10773984D02*
X18979135Y-10764460D01*
X18979135Y-10764460D02*
X18969611Y-10754936D01*
X18969611Y-10754936D02*
X18960087Y-10735889D01*
X18960087Y-10735889D02*
X18960087Y-10678746D01*
X18960087Y-10678746D02*
X18969611Y-10659698D01*
X18969611Y-10659698D02*
X18979135Y-10650174D01*
X18979135Y-10650174D02*
X18998182Y-10640650D01*
X18998182Y-10640650D02*
X19036277Y-10640650D01*
X19036277Y-10640650D02*
X19055325Y-10650174D01*
X19131516Y-10850174D02*
X19141039Y-10840650D01*
X19141039Y-10840650D02*
X19160087Y-10812079D01*
X19160087Y-10812079D02*
X19169611Y-10793031D01*
X19169611Y-10793031D02*
X19179135Y-10764460D01*
X19179135Y-10764460D02*
X19188658Y-10716841D01*
X19188658Y-10716841D02*
X19188658Y-10678746D01*
X19188658Y-10678746D02*
X19179135Y-10631127D01*
X19179135Y-10631127D02*
X19169611Y-10602555D01*
X19169611Y-10602555D02*
X19160087Y-10583508D01*
X19160087Y-10583508D02*
X19141039Y-10554936D01*
X19141039Y-10554936D02*
X19131516Y-10545412D01*
M02*
