M48
; DRILL file {KiCad 8.0.4} date 2024-08-20T10:28:01-0700
; FORMAT={-:-/ absolute / inch / decimal}
; #@! TF.CreationDate,2024-08-20T10:28:01-07:00
; #@! TF.GenerationSoftware,Kicad,Pcbnew,8.0.4
; #@! TF.FileFunction,Plated,1,2,PTH
FMAT,2
INCH
; #@! TA.AperFunction,Plated,PTH,ViaDrill
T1C0.0118
; #@! TA.AperFunction,Plated,PTH,ComponentDrill
T2C0.0236
; #@! TA.AperFunction,Plated,PTH,ComponentDrill
T3C0.0394
%
G90
G05
T1
X5.1073Y-3.7587
X5.1457Y-3.5535
X5.152Y-3.6736
X5.1936Y-3.8787
X5.1948Y-3.7791
X5.1971Y-3.3295
X5.2002Y-3.6673
X5.363Y-3.7689
X5.4362Y-3.5543
X5.4894Y-3.6626
X5.4906Y-3.7146
X5.4906Y-3.7646
X5.4929Y-3.8134
X5.6854Y-3.6646
T3
X5.8866Y-3.56
X5.8866Y-3.66
X6.2877Y-3.4749
X6.2877Y-3.5749
T2
G00X4.9365Y-3.4338
M15
G01X4.905Y-3.4338
M16
G05
G00X4.9365Y-3.774
M15
G01X4.905Y-3.774
M16
G05
G00X5.107Y-3.4338
M15
G01X5.0637Y-3.4338
M16
G05
G00X5.107Y-3.774
M15
G01X5.0637Y-3.774
M16
G05
M30
