%TF.GenerationSoftware,KiCad,Pcbnew,8.0.4*%
%TF.CreationDate,2024-08-19T19:21:19-07:00*%
%TF.ProjectId,LED flashlight,4c454420-666c-4617-9368-6c696768742e,rev?*%
%TF.SameCoordinates,Original*%
%TF.FileFunction,Legend,Top*%
%TF.FilePolarity,Positive*%
%FSLAX46Y46*%
G04 Gerber Fmt 4.6, Leading zero omitted, Abs format (unit mm)*
G04 Created by KiCad (PCBNEW 8.0.4) date 2024-08-19 19:21:19*
%MOMM*%
%LPD*%
G01*
G04 APERTURE LIST*
%ADD10C,0.150000*%
%ADD11C,0.120000*%
%ADD12C,0.127000*%
%ADD13C,0.200000*%
G04 APERTURE END LIST*
D10*
X158078676Y-85143848D02*
X157602486Y-85143848D01*
X157602486Y-85143848D02*
X157602486Y-84143848D01*
X158412010Y-84620038D02*
X158745343Y-84620038D01*
X158888200Y-85143848D02*
X158412010Y-85143848D01*
X158412010Y-85143848D02*
X158412010Y-84143848D01*
X158412010Y-84143848D02*
X158888200Y-84143848D01*
X159316772Y-85143848D02*
X159316772Y-84143848D01*
X159316772Y-84143848D02*
X159554867Y-84143848D01*
X159554867Y-84143848D02*
X159697724Y-84191467D01*
X159697724Y-84191467D02*
X159792962Y-84286705D01*
X159792962Y-84286705D02*
X159840581Y-84381943D01*
X159840581Y-84381943D02*
X159888200Y-84572419D01*
X159888200Y-84572419D02*
X159888200Y-84715276D01*
X159888200Y-84715276D02*
X159840581Y-84905752D01*
X159840581Y-84905752D02*
X159792962Y-85000990D01*
X159792962Y-85000990D02*
X159697724Y-85096229D01*
X159697724Y-85096229D02*
X159554867Y-85143848D01*
X159554867Y-85143848D02*
X159316772Y-85143848D01*
X133373333Y-87404819D02*
X133040000Y-86928628D01*
X132801905Y-87404819D02*
X132801905Y-86404819D01*
X132801905Y-86404819D02*
X133182857Y-86404819D01*
X133182857Y-86404819D02*
X133278095Y-86452438D01*
X133278095Y-86452438D02*
X133325714Y-86500057D01*
X133325714Y-86500057D02*
X133373333Y-86595295D01*
X133373333Y-86595295D02*
X133373333Y-86738152D01*
X133373333Y-86738152D02*
X133325714Y-86833390D01*
X133325714Y-86833390D02*
X133278095Y-86881009D01*
X133278095Y-86881009D02*
X133182857Y-86928628D01*
X133182857Y-86928628D02*
X132801905Y-86928628D01*
X134325714Y-87404819D02*
X133754286Y-87404819D01*
X134040000Y-87404819D02*
X134040000Y-86404819D01*
X134040000Y-86404819D02*
X133944762Y-86547676D01*
X133944762Y-86547676D02*
X133849524Y-86642914D01*
X133849524Y-86642914D02*
X133754286Y-86690533D01*
X138821905Y-90944819D02*
X138821905Y-89944819D01*
X138821905Y-89944819D02*
X139060000Y-89944819D01*
X139060000Y-89944819D02*
X139202857Y-89992438D01*
X139202857Y-89992438D02*
X139298095Y-90087676D01*
X139298095Y-90087676D02*
X139345714Y-90182914D01*
X139345714Y-90182914D02*
X139393333Y-90373390D01*
X139393333Y-90373390D02*
X139393333Y-90516247D01*
X139393333Y-90516247D02*
X139345714Y-90706723D01*
X139345714Y-90706723D02*
X139298095Y-90801961D01*
X139298095Y-90801961D02*
X139202857Y-90897200D01*
X139202857Y-90897200D02*
X139060000Y-90944819D01*
X139060000Y-90944819D02*
X138821905Y-90944819D01*
X140250476Y-90278152D02*
X140250476Y-90944819D01*
X140012381Y-89897200D02*
X139774286Y-90611485D01*
X139774286Y-90611485D02*
X140393333Y-90611485D01*
X159443333Y-95644819D02*
X159110000Y-95168628D01*
X158871905Y-95644819D02*
X158871905Y-94644819D01*
X158871905Y-94644819D02*
X159252857Y-94644819D01*
X159252857Y-94644819D02*
X159348095Y-94692438D01*
X159348095Y-94692438D02*
X159395714Y-94740057D01*
X159395714Y-94740057D02*
X159443333Y-94835295D01*
X159443333Y-94835295D02*
X159443333Y-94978152D01*
X159443333Y-94978152D02*
X159395714Y-95073390D01*
X159395714Y-95073390D02*
X159348095Y-95121009D01*
X159348095Y-95121009D02*
X159252857Y-95168628D01*
X159252857Y-95168628D02*
X158871905Y-95168628D01*
X160348095Y-94644819D02*
X159871905Y-94644819D01*
X159871905Y-94644819D02*
X159824286Y-95121009D01*
X159824286Y-95121009D02*
X159871905Y-95073390D01*
X159871905Y-95073390D02*
X159967143Y-95025771D01*
X159967143Y-95025771D02*
X160205238Y-95025771D01*
X160205238Y-95025771D02*
X160300476Y-95073390D01*
X160300476Y-95073390D02*
X160348095Y-95121009D01*
X160348095Y-95121009D02*
X160395714Y-95216247D01*
X160395714Y-95216247D02*
X160395714Y-95454342D01*
X160395714Y-95454342D02*
X160348095Y-95549580D01*
X160348095Y-95549580D02*
X160300476Y-95597200D01*
X160300476Y-95597200D02*
X160205238Y-95644819D01*
X160205238Y-95644819D02*
X159967143Y-95644819D01*
X159967143Y-95644819D02*
X159871905Y-95597200D01*
X159871905Y-95597200D02*
X159824286Y-95549580D01*
X148734285Y-88026009D02*
X148877142Y-88073628D01*
X148877142Y-88073628D02*
X148924761Y-88121247D01*
X148924761Y-88121247D02*
X148972380Y-88216485D01*
X148972380Y-88216485D02*
X148972380Y-88359342D01*
X148972380Y-88359342D02*
X148924761Y-88454580D01*
X148924761Y-88454580D02*
X148877142Y-88502200D01*
X148877142Y-88502200D02*
X148781904Y-88549819D01*
X148781904Y-88549819D02*
X148400952Y-88549819D01*
X148400952Y-88549819D02*
X148400952Y-87549819D01*
X148400952Y-87549819D02*
X148734285Y-87549819D01*
X148734285Y-87549819D02*
X148829523Y-87597438D01*
X148829523Y-87597438D02*
X148877142Y-87645057D01*
X148877142Y-87645057D02*
X148924761Y-87740295D01*
X148924761Y-87740295D02*
X148924761Y-87835533D01*
X148924761Y-87835533D02*
X148877142Y-87930771D01*
X148877142Y-87930771D02*
X148829523Y-87978390D01*
X148829523Y-87978390D02*
X148734285Y-88026009D01*
X148734285Y-88026009D02*
X148400952Y-88026009D01*
X149258095Y-87549819D02*
X149829523Y-87549819D01*
X149543809Y-88549819D02*
X149543809Y-87549819D01*
X150686666Y-88549819D02*
X150115238Y-88549819D01*
X150400952Y-88549819D02*
X150400952Y-87549819D01*
X150400952Y-87549819D02*
X150305714Y-87692676D01*
X150305714Y-87692676D02*
X150210476Y-87787914D01*
X150210476Y-87787914D02*
X150115238Y-87835533D01*
X132671905Y-90254819D02*
X132671905Y-89254819D01*
X132671905Y-89254819D02*
X132910000Y-89254819D01*
X132910000Y-89254819D02*
X133052857Y-89302438D01*
X133052857Y-89302438D02*
X133148095Y-89397676D01*
X133148095Y-89397676D02*
X133195714Y-89492914D01*
X133195714Y-89492914D02*
X133243333Y-89683390D01*
X133243333Y-89683390D02*
X133243333Y-89826247D01*
X133243333Y-89826247D02*
X133195714Y-90016723D01*
X133195714Y-90016723D02*
X133148095Y-90111961D01*
X133148095Y-90111961D02*
X133052857Y-90207200D01*
X133052857Y-90207200D02*
X132910000Y-90254819D01*
X132910000Y-90254819D02*
X132671905Y-90254819D01*
X133624286Y-89350057D02*
X133671905Y-89302438D01*
X133671905Y-89302438D02*
X133767143Y-89254819D01*
X133767143Y-89254819D02*
X134005238Y-89254819D01*
X134005238Y-89254819D02*
X134100476Y-89302438D01*
X134100476Y-89302438D02*
X134148095Y-89350057D01*
X134148095Y-89350057D02*
X134195714Y-89445295D01*
X134195714Y-89445295D02*
X134195714Y-89540533D01*
X134195714Y-89540533D02*
X134148095Y-89683390D01*
X134148095Y-89683390D02*
X133576667Y-90254819D01*
X133576667Y-90254819D02*
X134195714Y-90254819D01*
X132911905Y-93624819D02*
X132911905Y-92624819D01*
X132911905Y-92624819D02*
X133150000Y-92624819D01*
X133150000Y-92624819D02*
X133292857Y-92672438D01*
X133292857Y-92672438D02*
X133388095Y-92767676D01*
X133388095Y-92767676D02*
X133435714Y-92862914D01*
X133435714Y-92862914D02*
X133483333Y-93053390D01*
X133483333Y-93053390D02*
X133483333Y-93196247D01*
X133483333Y-93196247D02*
X133435714Y-93386723D01*
X133435714Y-93386723D02*
X133388095Y-93481961D01*
X133388095Y-93481961D02*
X133292857Y-93577200D01*
X133292857Y-93577200D02*
X133150000Y-93624819D01*
X133150000Y-93624819D02*
X132911905Y-93624819D01*
X134435714Y-93624819D02*
X133864286Y-93624819D01*
X134150000Y-93624819D02*
X134150000Y-92624819D01*
X134150000Y-92624819D02*
X134054762Y-92767676D01*
X134054762Y-92767676D02*
X133959524Y-92862914D01*
X133959524Y-92862914D02*
X133864286Y-92910533D01*
X153426667Y-92097200D02*
X153569524Y-92144819D01*
X153569524Y-92144819D02*
X153807619Y-92144819D01*
X153807619Y-92144819D02*
X153902857Y-92097200D01*
X153902857Y-92097200D02*
X153950476Y-92049580D01*
X153950476Y-92049580D02*
X153998095Y-91954342D01*
X153998095Y-91954342D02*
X153998095Y-91859104D01*
X153998095Y-91859104D02*
X153950476Y-91763866D01*
X153950476Y-91763866D02*
X153902857Y-91716247D01*
X153902857Y-91716247D02*
X153807619Y-91668628D01*
X153807619Y-91668628D02*
X153617143Y-91621009D01*
X153617143Y-91621009D02*
X153521905Y-91573390D01*
X153521905Y-91573390D02*
X153474286Y-91525771D01*
X153474286Y-91525771D02*
X153426667Y-91430533D01*
X153426667Y-91430533D02*
X153426667Y-91335295D01*
X153426667Y-91335295D02*
X153474286Y-91240057D01*
X153474286Y-91240057D02*
X153521905Y-91192438D01*
X153521905Y-91192438D02*
X153617143Y-91144819D01*
X153617143Y-91144819D02*
X153855238Y-91144819D01*
X153855238Y-91144819D02*
X153998095Y-91192438D01*
X154331429Y-91144819D02*
X154569524Y-92144819D01*
X154569524Y-92144819D02*
X154760000Y-91430533D01*
X154760000Y-91430533D02*
X154950476Y-92144819D01*
X154950476Y-92144819D02*
X155188572Y-91144819D01*
X156093333Y-92144819D02*
X155521905Y-92144819D01*
X155807619Y-92144819D02*
X155807619Y-91144819D01*
X155807619Y-91144819D02*
X155712381Y-91287676D01*
X155712381Y-91287676D02*
X155617143Y-91382914D01*
X155617143Y-91382914D02*
X155521905Y-91430533D01*
X144373333Y-90704819D02*
X144040000Y-90228628D01*
X143801905Y-90704819D02*
X143801905Y-89704819D01*
X143801905Y-89704819D02*
X144182857Y-89704819D01*
X144182857Y-89704819D02*
X144278095Y-89752438D01*
X144278095Y-89752438D02*
X144325714Y-89800057D01*
X144325714Y-89800057D02*
X144373333Y-89895295D01*
X144373333Y-89895295D02*
X144373333Y-90038152D01*
X144373333Y-90038152D02*
X144325714Y-90133390D01*
X144325714Y-90133390D02*
X144278095Y-90181009D01*
X144278095Y-90181009D02*
X144182857Y-90228628D01*
X144182857Y-90228628D02*
X143801905Y-90228628D01*
X144754286Y-89800057D02*
X144801905Y-89752438D01*
X144801905Y-89752438D02*
X144897143Y-89704819D01*
X144897143Y-89704819D02*
X145135238Y-89704819D01*
X145135238Y-89704819D02*
X145230476Y-89752438D01*
X145230476Y-89752438D02*
X145278095Y-89800057D01*
X145278095Y-89800057D02*
X145325714Y-89895295D01*
X145325714Y-89895295D02*
X145325714Y-89990533D01*
X145325714Y-89990533D02*
X145278095Y-90133390D01*
X145278095Y-90133390D02*
X144706667Y-90704819D01*
X144706667Y-90704819D02*
X145325714Y-90704819D01*
X144313333Y-87464819D02*
X143980000Y-86988628D01*
X143741905Y-87464819D02*
X143741905Y-86464819D01*
X143741905Y-86464819D02*
X144122857Y-86464819D01*
X144122857Y-86464819D02*
X144218095Y-86512438D01*
X144218095Y-86512438D02*
X144265714Y-86560057D01*
X144265714Y-86560057D02*
X144313333Y-86655295D01*
X144313333Y-86655295D02*
X144313333Y-86798152D01*
X144313333Y-86798152D02*
X144265714Y-86893390D01*
X144265714Y-86893390D02*
X144218095Y-86941009D01*
X144218095Y-86941009D02*
X144122857Y-86988628D01*
X144122857Y-86988628D02*
X143741905Y-86988628D01*
X144646667Y-86464819D02*
X145265714Y-86464819D01*
X145265714Y-86464819D02*
X144932381Y-86845771D01*
X144932381Y-86845771D02*
X145075238Y-86845771D01*
X145075238Y-86845771D02*
X145170476Y-86893390D01*
X145170476Y-86893390D02*
X145218095Y-86941009D01*
X145218095Y-86941009D02*
X145265714Y-87036247D01*
X145265714Y-87036247D02*
X145265714Y-87274342D01*
X145265714Y-87274342D02*
X145218095Y-87369580D01*
X145218095Y-87369580D02*
X145170476Y-87417200D01*
X145170476Y-87417200D02*
X145075238Y-87464819D01*
X145075238Y-87464819D02*
X144789524Y-87464819D01*
X144789524Y-87464819D02*
X144694286Y-87417200D01*
X144694286Y-87417200D02*
X144646667Y-87369580D01*
X131107401Y-90800919D02*
X132107401Y-90800919D01*
X132107401Y-90800919D02*
X132107401Y-91181871D01*
X132107401Y-91181871D02*
X132059782Y-91277109D01*
X132059782Y-91277109D02*
X132012163Y-91324728D01*
X132012163Y-91324728D02*
X131916925Y-91372347D01*
X131916925Y-91372347D02*
X131774068Y-91372347D01*
X131774068Y-91372347D02*
X131678830Y-91324728D01*
X131678830Y-91324728D02*
X131631211Y-91277109D01*
X131631211Y-91277109D02*
X131583592Y-91181871D01*
X131583592Y-91181871D02*
X131583592Y-90800919D01*
X131107401Y-92324728D02*
X131107401Y-91753300D01*
X131107401Y-92039014D02*
X132107401Y-92039014D01*
X132107401Y-92039014D02*
X131964544Y-91943776D01*
X131964544Y-91943776D02*
X131869306Y-91848538D01*
X131869306Y-91848538D02*
X131821687Y-91753300D01*
X138781905Y-87514819D02*
X138781905Y-86514819D01*
X138781905Y-86514819D02*
X139020000Y-86514819D01*
X139020000Y-86514819D02*
X139162857Y-86562438D01*
X139162857Y-86562438D02*
X139258095Y-86657676D01*
X139258095Y-86657676D02*
X139305714Y-86752914D01*
X139305714Y-86752914D02*
X139353333Y-86943390D01*
X139353333Y-86943390D02*
X139353333Y-87086247D01*
X139353333Y-87086247D02*
X139305714Y-87276723D01*
X139305714Y-87276723D02*
X139258095Y-87371961D01*
X139258095Y-87371961D02*
X139162857Y-87467200D01*
X139162857Y-87467200D02*
X139020000Y-87514819D01*
X139020000Y-87514819D02*
X138781905Y-87514819D01*
X140258095Y-86514819D02*
X139781905Y-86514819D01*
X139781905Y-86514819D02*
X139734286Y-86991009D01*
X139734286Y-86991009D02*
X139781905Y-86943390D01*
X139781905Y-86943390D02*
X139877143Y-86895771D01*
X139877143Y-86895771D02*
X140115238Y-86895771D01*
X140115238Y-86895771D02*
X140210476Y-86943390D01*
X140210476Y-86943390D02*
X140258095Y-86991009D01*
X140258095Y-86991009D02*
X140305714Y-87086247D01*
X140305714Y-87086247D02*
X140305714Y-87324342D01*
X140305714Y-87324342D02*
X140258095Y-87419580D01*
X140258095Y-87419580D02*
X140210476Y-87467200D01*
X140210476Y-87467200D02*
X140115238Y-87514819D01*
X140115238Y-87514819D02*
X139877143Y-87514819D01*
X139877143Y-87514819D02*
X139781905Y-87467200D01*
X139781905Y-87467200D02*
X139734286Y-87419580D01*
X144178095Y-97734819D02*
X144178095Y-98544342D01*
X144178095Y-98544342D02*
X144225714Y-98639580D01*
X144225714Y-98639580D02*
X144273333Y-98687200D01*
X144273333Y-98687200D02*
X144368571Y-98734819D01*
X144368571Y-98734819D02*
X144559047Y-98734819D01*
X144559047Y-98734819D02*
X144654285Y-98687200D01*
X144654285Y-98687200D02*
X144701904Y-98639580D01*
X144701904Y-98639580D02*
X144749523Y-98544342D01*
X144749523Y-98544342D02*
X144749523Y-97734819D01*
X145749523Y-98734819D02*
X145178095Y-98734819D01*
X145463809Y-98734819D02*
X145463809Y-97734819D01*
X145463809Y-97734819D02*
X145368571Y-97877676D01*
X145368571Y-97877676D02*
X145273333Y-97972914D01*
X145273333Y-97972914D02*
X145178095Y-98020533D01*
X133243333Y-96544819D02*
X132910000Y-96068628D01*
X132671905Y-96544819D02*
X132671905Y-95544819D01*
X132671905Y-95544819D02*
X133052857Y-95544819D01*
X133052857Y-95544819D02*
X133148095Y-95592438D01*
X133148095Y-95592438D02*
X133195714Y-95640057D01*
X133195714Y-95640057D02*
X133243333Y-95735295D01*
X133243333Y-95735295D02*
X133243333Y-95878152D01*
X133243333Y-95878152D02*
X133195714Y-95973390D01*
X133195714Y-95973390D02*
X133148095Y-96021009D01*
X133148095Y-96021009D02*
X133052857Y-96068628D01*
X133052857Y-96068628D02*
X132671905Y-96068628D01*
X134100476Y-95878152D02*
X134100476Y-96544819D01*
X133862381Y-95497200D02*
X133624286Y-96211485D01*
X133624286Y-96211485D02*
X134243333Y-96211485D01*
D11*
%TO.C,LED*%
X158376606Y-86932710D02*
X159706606Y-86932710D01*
X158376606Y-88262710D02*
X158376606Y-86932710D01*
X158376606Y-89532710D02*
X158376606Y-92132710D01*
X158376606Y-89532710D02*
X161036606Y-89532710D01*
X158376606Y-92132710D02*
X161036606Y-92132710D01*
X161036606Y-89532710D02*
X161036606Y-92132710D01*
%TO.C,R1*%
X132742936Y-85980000D02*
X134197064Y-85980000D01*
X132742936Y-87800000D02*
X134197064Y-87800000D01*
%TO.C,D4*%
X137880000Y-91415000D02*
X141765000Y-91415000D01*
X141765000Y-89145000D02*
X137880000Y-89145000D01*
X141765000Y-91415000D02*
X141765000Y-89145000D01*
%TO.C,R5*%
X158745000Y-94417936D02*
X158745000Y-95872064D01*
X160565000Y-94417936D02*
X160565000Y-95872064D01*
%TO.C,BT1*%
X148190000Y-89095000D02*
X149520000Y-89095000D01*
X148190000Y-90425000D02*
X148190000Y-89095000D01*
X148190000Y-91695000D02*
X148190000Y-94295000D01*
X148190000Y-91695000D02*
X150850000Y-91695000D01*
X148190000Y-94295000D02*
X150850000Y-94295000D01*
X150850000Y-91695000D02*
X150850000Y-94295000D01*
%TO.C,D2*%
X132748748Y-88880000D02*
X134171252Y-88880000D01*
X132748748Y-90700000D02*
X134171252Y-90700000D01*
%TO.C,D1*%
X134271252Y-92240000D02*
X132848748Y-92240000D01*
X134271252Y-94060000D02*
X132848748Y-94060000D01*
%TO.C,SW1*%
X151450000Y-85560000D02*
X151450000Y-97800000D01*
X151450000Y-97800000D02*
X158190000Y-97800000D01*
X154820000Y-85220000D02*
X154820000Y-85560000D01*
X154820000Y-98140000D02*
X154820000Y-97800000D01*
X158190000Y-85560000D02*
X151450000Y-85560000D01*
X158190000Y-97800000D02*
X158190000Y-85560000D01*
%TO.C,R2*%
X143812936Y-89360000D02*
X145267064Y-89360000D01*
X143812936Y-91180000D02*
X145267064Y-91180000D01*
%TO.C,R3*%
X143780436Y-86030000D02*
X145234564Y-86030000D01*
X143780436Y-87850000D02*
X145234564Y-87850000D01*
%TO.C,P1*%
X126162221Y-86869014D02*
X127862221Y-86869014D01*
X126162221Y-96209014D02*
X127862221Y-96209014D01*
%TO.C,D5*%
X137950000Y-88125000D02*
X141835000Y-88125000D01*
X141835000Y-85855000D02*
X137950000Y-85855000D01*
X141835000Y-88125000D02*
X141835000Y-85855000D01*
D12*
%TO.C,U1*%
X139935000Y-92435000D02*
X143935000Y-92435000D01*
X139935000Y-97535000D02*
X143935000Y-97535000D01*
D13*
X137590000Y-92480000D02*
G75*
G02*
X137390000Y-92480000I-100000J0D01*
G01*
X137390000Y-92480000D02*
G75*
G02*
X137590000Y-92480000I100000J0D01*
G01*
D11*
%TO.C,R4*%
X134137064Y-95080000D02*
X132682936Y-95080000D01*
X134137064Y-96900000D02*
X132682936Y-96900000D01*
%TD*%
M02*
