%TF.GenerationSoftware,KiCad,Pcbnew,8.0.4*%
%TF.CreationDate,2024-08-20T22:35:33-07:00*%
%TF.ProjectId,LED flashlight,4c454420-666c-4617-9368-6c696768742e,rev?*%
%TF.SameCoordinates,Original*%
%TF.FileFunction,Drillmap*%
%TF.FilePolarity,Positive*%
%FSLAX45Y45*%
G04 Gerber Fmt 4.5, Leading zero omitted, Abs format (unit mm)*
G04 Created by KiCad (PCBNEW 8.0.4) date 2024-08-20 22:35:33*
%MOMM*%
%LPD*%
G01*
G04 APERTURE LIST*
%ADD10C,0.050000*%
%ADD11C,0.200000*%
%ADD12C,0.100000*%
G04 APERTURE END LIST*
D10*
X12378000Y-9740000D02*
X12378000Y-8591000D01*
X15789000Y-8291000D02*
G75*
G02*
X16089000Y-8591000I0J-300000D01*
G01*
X12678000Y-8291000D02*
X15789000Y-8291000D01*
X12678000Y-10040000D02*
G75*
G02*
X12378000Y-9740000I0J300000D01*
G01*
X12378000Y-8591000D02*
G75*
G02*
X12678000Y-8291000I300000J0D01*
G01*
X16089000Y-9740000D02*
G75*
G02*
X15789000Y-10040000I-300000J0D01*
G01*
X15789000Y-10040000D02*
X12678000Y-10040000D01*
X16089000Y-8591000D02*
X16089000Y-9740000D01*
D11*
D12*
X13055000Y-9011000D02*
X13085000Y-9041000D01*
X13085000Y-9011000D02*
X13055000Y-9041000D01*
X13071000Y-9316000D02*
X13101000Y-9346000D01*
X13101000Y-9316000D02*
X13071000Y-9346000D01*
X13176750Y-9837000D02*
X13206750Y-9867000D01*
X13206750Y-9837000D02*
X13176750Y-9867000D01*
X13179750Y-9584000D02*
X13209750Y-9614000D01*
X13209750Y-9584000D02*
X13179750Y-9614000D01*
X13185750Y-8442000D02*
X13215750Y-8472000D01*
X13215750Y-8442000D02*
X13185750Y-8472000D01*
X13193500Y-9300000D02*
X13223500Y-9330000D01*
X13223500Y-9300000D02*
X13193500Y-9330000D01*
X13607000Y-9558000D02*
X13637000Y-9588000D01*
X13637000Y-9558000D02*
X13607000Y-9588000D01*
X13793000Y-9013000D02*
X13823000Y-9043000D01*
X13823000Y-9013000D02*
X13793000Y-9043000D01*
X13928000Y-9288000D02*
X13958000Y-9318000D01*
X13958000Y-9288000D02*
X13928000Y-9318000D01*
X13931000Y-9420000D02*
X13961000Y-9450000D01*
X13961000Y-9420000D02*
X13931000Y-9450000D01*
X13931000Y-9547000D02*
X13961000Y-9577000D01*
X13961000Y-9547000D02*
X13931000Y-9577000D01*
X13937000Y-9671000D02*
X13967000Y-9701000D01*
X13967000Y-9671000D02*
X13937000Y-9701000D01*
X14426000Y-9293000D02*
X14456000Y-9323000D01*
X14456000Y-9293000D02*
X14426000Y-9323000D01*
X12528722Y-8721901D02*
G75*
G02*
X12468722Y-8721901I-30000J0D01*
G01*
X12468722Y-8721901D02*
G75*
G02*
X12528722Y-8721901I30000J0D01*
G01*
X12538722Y-8691901D02*
X12458722Y-8691901D01*
X12458722Y-8751901D02*
G75*
G02*
X12458722Y-8691901I0J30000D01*
G01*
X12458722Y-8751901D02*
X12538722Y-8751901D01*
X12538722Y-8751901D02*
G75*
G03*
X12538722Y-8691901I0J30000D01*
G01*
X12528722Y-9585901D02*
G75*
G02*
X12468722Y-9585901I-30000J0D01*
G01*
X12468722Y-9585901D02*
G75*
G02*
X12528722Y-9585901I30000J0D01*
G01*
X12538722Y-9555901D02*
X12458722Y-9555901D01*
X12458722Y-9615901D02*
G75*
G02*
X12458722Y-9555901I0J30000D01*
G01*
X12458722Y-9615901D02*
X12538722Y-9615901D01*
X12538722Y-9615901D02*
G75*
G03*
X12538722Y-9555901I0J30000D01*
G01*
X12946722Y-8721901D02*
G75*
G02*
X12886722Y-8721901I-30000J0D01*
G01*
X12886722Y-8721901D02*
G75*
G02*
X12946722Y-8721901I30000J0D01*
G01*
X12971722Y-8691901D02*
X12861722Y-8691901D01*
X12861722Y-8751901D02*
G75*
G02*
X12861722Y-8691901I0J30000D01*
G01*
X12861722Y-8751901D02*
X12971722Y-8751901D01*
X12971722Y-8751901D02*
G75*
G03*
X12971722Y-8691901I0J30000D01*
G01*
X12946722Y-9585901D02*
G75*
G02*
X12886722Y-9585901I-30000J0D01*
G01*
X12886722Y-9585901D02*
G75*
G02*
X12946722Y-9585901I30000J0D01*
G01*
X12971722Y-9555901D02*
X12861722Y-9555901D01*
X12861722Y-9615901D02*
G75*
G02*
X12861722Y-9555901I0J30000D01*
G01*
X12861722Y-9615901D02*
X12971722Y-9615901D01*
X12971722Y-9615901D02*
G75*
G03*
X12971722Y-9555901I0J30000D01*
G01*
X14952000Y-8992500D02*
X14952000Y-9092500D01*
X14902000Y-9042500D02*
X15002000Y-9042500D01*
X14952000Y-9246500D02*
X14952000Y-9346500D01*
X14902000Y-9296500D02*
X15002000Y-9296500D01*
X15970661Y-8776271D02*
X15970661Y-8876271D01*
X15920661Y-8826271D02*
X16020661Y-8826271D01*
X15970661Y-9030271D02*
X15970661Y-9130271D01*
X15920661Y-9080271D02*
X16020661Y-9080271D01*
D11*
X12636277Y-10353984D02*
X12636277Y-10153984D01*
X12636277Y-10153984D02*
X12683896Y-10153984D01*
X12683896Y-10153984D02*
X12712467Y-10163508D01*
X12712467Y-10163508D02*
X12731515Y-10182555D01*
X12731515Y-10182555D02*
X12741039Y-10201603D01*
X12741039Y-10201603D02*
X12750562Y-10239698D01*
X12750562Y-10239698D02*
X12750562Y-10268270D01*
X12750562Y-10268270D02*
X12741039Y-10306365D01*
X12741039Y-10306365D02*
X12731515Y-10325412D01*
X12731515Y-10325412D02*
X12712467Y-10344460D01*
X12712467Y-10344460D02*
X12683896Y-10353984D01*
X12683896Y-10353984D02*
X12636277Y-10353984D01*
X12836277Y-10353984D02*
X12836277Y-10220650D01*
X12836277Y-10258746D02*
X12845801Y-10239698D01*
X12845801Y-10239698D02*
X12855324Y-10230174D01*
X12855324Y-10230174D02*
X12874372Y-10220650D01*
X12874372Y-10220650D02*
X12893420Y-10220650D01*
X12960086Y-10353984D02*
X12960086Y-10220650D01*
X12960086Y-10153984D02*
X12950562Y-10163508D01*
X12950562Y-10163508D02*
X12960086Y-10173031D01*
X12960086Y-10173031D02*
X12969610Y-10163508D01*
X12969610Y-10163508D02*
X12960086Y-10153984D01*
X12960086Y-10153984D02*
X12960086Y-10173031D01*
X13083896Y-10353984D02*
X13064848Y-10344460D01*
X13064848Y-10344460D02*
X13055324Y-10325412D01*
X13055324Y-10325412D02*
X13055324Y-10153984D01*
X13188658Y-10353984D02*
X13169610Y-10344460D01*
X13169610Y-10344460D02*
X13160086Y-10325412D01*
X13160086Y-10325412D02*
X13160086Y-10153984D01*
X13417229Y-10353984D02*
X13417229Y-10153984D01*
X13417229Y-10153984D02*
X13483896Y-10296841D01*
X13483896Y-10296841D02*
X13550562Y-10153984D01*
X13550562Y-10153984D02*
X13550562Y-10353984D01*
X13731515Y-10353984D02*
X13731515Y-10249222D01*
X13731515Y-10249222D02*
X13721991Y-10230174D01*
X13721991Y-10230174D02*
X13702943Y-10220650D01*
X13702943Y-10220650D02*
X13664848Y-10220650D01*
X13664848Y-10220650D02*
X13645801Y-10230174D01*
X13731515Y-10344460D02*
X13712467Y-10353984D01*
X13712467Y-10353984D02*
X13664848Y-10353984D01*
X13664848Y-10353984D02*
X13645801Y-10344460D01*
X13645801Y-10344460D02*
X13636277Y-10325412D01*
X13636277Y-10325412D02*
X13636277Y-10306365D01*
X13636277Y-10306365D02*
X13645801Y-10287317D01*
X13645801Y-10287317D02*
X13664848Y-10277793D01*
X13664848Y-10277793D02*
X13712467Y-10277793D01*
X13712467Y-10277793D02*
X13731515Y-10268270D01*
X13826753Y-10220650D02*
X13826753Y-10420650D01*
X13826753Y-10230174D02*
X13845801Y-10220650D01*
X13845801Y-10220650D02*
X13883896Y-10220650D01*
X13883896Y-10220650D02*
X13902943Y-10230174D01*
X13902943Y-10230174D02*
X13912467Y-10239698D01*
X13912467Y-10239698D02*
X13921991Y-10258746D01*
X13921991Y-10258746D02*
X13921991Y-10315889D01*
X13921991Y-10315889D02*
X13912467Y-10334936D01*
X13912467Y-10334936D02*
X13902943Y-10344460D01*
X13902943Y-10344460D02*
X13883896Y-10353984D01*
X13883896Y-10353984D02*
X13845801Y-10353984D01*
X13845801Y-10353984D02*
X13826753Y-10344460D01*
X14007705Y-10334936D02*
X14017229Y-10344460D01*
X14017229Y-10344460D02*
X14007705Y-10353984D01*
X14007705Y-10353984D02*
X13998182Y-10344460D01*
X13998182Y-10344460D02*
X14007705Y-10334936D01*
X14007705Y-10334936D02*
X14007705Y-10353984D01*
X14007705Y-10230174D02*
X14017229Y-10239698D01*
X14017229Y-10239698D02*
X14007705Y-10249222D01*
X14007705Y-10249222D02*
X13998182Y-10239698D01*
X13998182Y-10239698D02*
X14007705Y-10230174D01*
X14007705Y-10230174D02*
X14007705Y-10249222D01*
D12*
X12345500Y-10667500D02*
X12375500Y-10697500D01*
X12375500Y-10667500D02*
X12345500Y-10697500D01*
D11*
X12674372Y-10573984D02*
X12693420Y-10573984D01*
X12693420Y-10573984D02*
X12712467Y-10583508D01*
X12712467Y-10583508D02*
X12721991Y-10593031D01*
X12721991Y-10593031D02*
X12731515Y-10612079D01*
X12731515Y-10612079D02*
X12741039Y-10650174D01*
X12741039Y-10650174D02*
X12741039Y-10697793D01*
X12741039Y-10697793D02*
X12731515Y-10735889D01*
X12731515Y-10735889D02*
X12721991Y-10754936D01*
X12721991Y-10754936D02*
X12712467Y-10764460D01*
X12712467Y-10764460D02*
X12693420Y-10773984D01*
X12693420Y-10773984D02*
X12674372Y-10773984D01*
X12674372Y-10773984D02*
X12655324Y-10764460D01*
X12655324Y-10764460D02*
X12645801Y-10754936D01*
X12645801Y-10754936D02*
X12636277Y-10735889D01*
X12636277Y-10735889D02*
X12626753Y-10697793D01*
X12626753Y-10697793D02*
X12626753Y-10650174D01*
X12626753Y-10650174D02*
X12636277Y-10612079D01*
X12636277Y-10612079D02*
X12645801Y-10593031D01*
X12645801Y-10593031D02*
X12655324Y-10583508D01*
X12655324Y-10583508D02*
X12674372Y-10573984D01*
X12826753Y-10754936D02*
X12836277Y-10764460D01*
X12836277Y-10764460D02*
X12826753Y-10773984D01*
X12826753Y-10773984D02*
X12817229Y-10764460D01*
X12817229Y-10764460D02*
X12826753Y-10754936D01*
X12826753Y-10754936D02*
X12826753Y-10773984D01*
X12902943Y-10573984D02*
X13026753Y-10573984D01*
X13026753Y-10573984D02*
X12960086Y-10650174D01*
X12960086Y-10650174D02*
X12988658Y-10650174D01*
X12988658Y-10650174D02*
X13007705Y-10659698D01*
X13007705Y-10659698D02*
X13017229Y-10669222D01*
X13017229Y-10669222D02*
X13026753Y-10688270D01*
X13026753Y-10688270D02*
X13026753Y-10735889D01*
X13026753Y-10735889D02*
X13017229Y-10754936D01*
X13017229Y-10754936D02*
X13007705Y-10764460D01*
X13007705Y-10764460D02*
X12988658Y-10773984D01*
X12988658Y-10773984D02*
X12931515Y-10773984D01*
X12931515Y-10773984D02*
X12912467Y-10764460D01*
X12912467Y-10764460D02*
X12902943Y-10754936D01*
X13150562Y-10573984D02*
X13169610Y-10573984D01*
X13169610Y-10573984D02*
X13188658Y-10583508D01*
X13188658Y-10583508D02*
X13198182Y-10593031D01*
X13198182Y-10593031D02*
X13207705Y-10612079D01*
X13207705Y-10612079D02*
X13217229Y-10650174D01*
X13217229Y-10650174D02*
X13217229Y-10697793D01*
X13217229Y-10697793D02*
X13207705Y-10735889D01*
X13207705Y-10735889D02*
X13198182Y-10754936D01*
X13198182Y-10754936D02*
X13188658Y-10764460D01*
X13188658Y-10764460D02*
X13169610Y-10773984D01*
X13169610Y-10773984D02*
X13150562Y-10773984D01*
X13150562Y-10773984D02*
X13131515Y-10764460D01*
X13131515Y-10764460D02*
X13121991Y-10754936D01*
X13121991Y-10754936D02*
X13112467Y-10735889D01*
X13112467Y-10735889D02*
X13102943Y-10697793D01*
X13102943Y-10697793D02*
X13102943Y-10650174D01*
X13102943Y-10650174D02*
X13112467Y-10612079D01*
X13112467Y-10612079D02*
X13121991Y-10593031D01*
X13121991Y-10593031D02*
X13131515Y-10583508D01*
X13131515Y-10583508D02*
X13150562Y-10573984D01*
X13341039Y-10573984D02*
X13360086Y-10573984D01*
X13360086Y-10573984D02*
X13379134Y-10583508D01*
X13379134Y-10583508D02*
X13388658Y-10593031D01*
X13388658Y-10593031D02*
X13398182Y-10612079D01*
X13398182Y-10612079D02*
X13407705Y-10650174D01*
X13407705Y-10650174D02*
X13407705Y-10697793D01*
X13407705Y-10697793D02*
X13398182Y-10735889D01*
X13398182Y-10735889D02*
X13388658Y-10754936D01*
X13388658Y-10754936D02*
X13379134Y-10764460D01*
X13379134Y-10764460D02*
X13360086Y-10773984D01*
X13360086Y-10773984D02*
X13341039Y-10773984D01*
X13341039Y-10773984D02*
X13321991Y-10764460D01*
X13321991Y-10764460D02*
X13312467Y-10754936D01*
X13312467Y-10754936D02*
X13302943Y-10735889D01*
X13302943Y-10735889D02*
X13293420Y-10697793D01*
X13293420Y-10697793D02*
X13293420Y-10650174D01*
X13293420Y-10650174D02*
X13302943Y-10612079D01*
X13302943Y-10612079D02*
X13312467Y-10593031D01*
X13312467Y-10593031D02*
X13321991Y-10583508D01*
X13321991Y-10583508D02*
X13341039Y-10573984D01*
X13493420Y-10773984D02*
X13493420Y-10640650D01*
X13493420Y-10659698D02*
X13502943Y-10650174D01*
X13502943Y-10650174D02*
X13521991Y-10640650D01*
X13521991Y-10640650D02*
X13550563Y-10640650D01*
X13550563Y-10640650D02*
X13569610Y-10650174D01*
X13569610Y-10650174D02*
X13579134Y-10669222D01*
X13579134Y-10669222D02*
X13579134Y-10773984D01*
X13579134Y-10669222D02*
X13588658Y-10650174D01*
X13588658Y-10650174D02*
X13607705Y-10640650D01*
X13607705Y-10640650D02*
X13636277Y-10640650D01*
X13636277Y-10640650D02*
X13655324Y-10650174D01*
X13655324Y-10650174D02*
X13664848Y-10669222D01*
X13664848Y-10669222D02*
X13664848Y-10773984D01*
X13760086Y-10773984D02*
X13760086Y-10640650D01*
X13760086Y-10659698D02*
X13769610Y-10650174D01*
X13769610Y-10650174D02*
X13788658Y-10640650D01*
X13788658Y-10640650D02*
X13817229Y-10640650D01*
X13817229Y-10640650D02*
X13836277Y-10650174D01*
X13836277Y-10650174D02*
X13845801Y-10669222D01*
X13845801Y-10669222D02*
X13845801Y-10773984D01*
X13845801Y-10669222D02*
X13855324Y-10650174D01*
X13855324Y-10650174D02*
X13874372Y-10640650D01*
X13874372Y-10640650D02*
X13902943Y-10640650D01*
X13902943Y-10640650D02*
X13921991Y-10650174D01*
X13921991Y-10650174D02*
X13931515Y-10669222D01*
X13931515Y-10669222D02*
X13931515Y-10773984D01*
X14321991Y-10564460D02*
X14150563Y-10821603D01*
X14579134Y-10573984D02*
X14598182Y-10573984D01*
X14598182Y-10573984D02*
X14617229Y-10583508D01*
X14617229Y-10583508D02*
X14626753Y-10593031D01*
X14626753Y-10593031D02*
X14636277Y-10612079D01*
X14636277Y-10612079D02*
X14645801Y-10650174D01*
X14645801Y-10650174D02*
X14645801Y-10697793D01*
X14645801Y-10697793D02*
X14636277Y-10735889D01*
X14636277Y-10735889D02*
X14626753Y-10754936D01*
X14626753Y-10754936D02*
X14617229Y-10764460D01*
X14617229Y-10764460D02*
X14598182Y-10773984D01*
X14598182Y-10773984D02*
X14579134Y-10773984D01*
X14579134Y-10773984D02*
X14560086Y-10764460D01*
X14560086Y-10764460D02*
X14550563Y-10754936D01*
X14550563Y-10754936D02*
X14541039Y-10735889D01*
X14541039Y-10735889D02*
X14531515Y-10697793D01*
X14531515Y-10697793D02*
X14531515Y-10650174D01*
X14531515Y-10650174D02*
X14541039Y-10612079D01*
X14541039Y-10612079D02*
X14550563Y-10593031D01*
X14550563Y-10593031D02*
X14560086Y-10583508D01*
X14560086Y-10583508D02*
X14579134Y-10573984D01*
X14731515Y-10754936D02*
X14741039Y-10764460D01*
X14741039Y-10764460D02*
X14731515Y-10773984D01*
X14731515Y-10773984D02*
X14721991Y-10764460D01*
X14721991Y-10764460D02*
X14731515Y-10754936D01*
X14731515Y-10754936D02*
X14731515Y-10773984D01*
X14864848Y-10573984D02*
X14883896Y-10573984D01*
X14883896Y-10573984D02*
X14902944Y-10583508D01*
X14902944Y-10583508D02*
X14912467Y-10593031D01*
X14912467Y-10593031D02*
X14921991Y-10612079D01*
X14921991Y-10612079D02*
X14931515Y-10650174D01*
X14931515Y-10650174D02*
X14931515Y-10697793D01*
X14931515Y-10697793D02*
X14921991Y-10735889D01*
X14921991Y-10735889D02*
X14912467Y-10754936D01*
X14912467Y-10754936D02*
X14902944Y-10764460D01*
X14902944Y-10764460D02*
X14883896Y-10773984D01*
X14883896Y-10773984D02*
X14864848Y-10773984D01*
X14864848Y-10773984D02*
X14845801Y-10764460D01*
X14845801Y-10764460D02*
X14836277Y-10754936D01*
X14836277Y-10754936D02*
X14826753Y-10735889D01*
X14826753Y-10735889D02*
X14817229Y-10697793D01*
X14817229Y-10697793D02*
X14817229Y-10650174D01*
X14817229Y-10650174D02*
X14826753Y-10612079D01*
X14826753Y-10612079D02*
X14836277Y-10593031D01*
X14836277Y-10593031D02*
X14845801Y-10583508D01*
X14845801Y-10583508D02*
X14864848Y-10573984D01*
X15121991Y-10773984D02*
X15007706Y-10773984D01*
X15064848Y-10773984D02*
X15064848Y-10573984D01*
X15064848Y-10573984D02*
X15045801Y-10602555D01*
X15045801Y-10602555D02*
X15026753Y-10621603D01*
X15026753Y-10621603D02*
X15007706Y-10631127D01*
X15312467Y-10773984D02*
X15198182Y-10773984D01*
X15255325Y-10773984D02*
X15255325Y-10573984D01*
X15255325Y-10573984D02*
X15236277Y-10602555D01*
X15236277Y-10602555D02*
X15217229Y-10621603D01*
X15217229Y-10621603D02*
X15198182Y-10631127D01*
X15426753Y-10659698D02*
X15407706Y-10650174D01*
X15407706Y-10650174D02*
X15398182Y-10640650D01*
X15398182Y-10640650D02*
X15388658Y-10621603D01*
X15388658Y-10621603D02*
X15388658Y-10612079D01*
X15388658Y-10612079D02*
X15398182Y-10593031D01*
X15398182Y-10593031D02*
X15407706Y-10583508D01*
X15407706Y-10583508D02*
X15426753Y-10573984D01*
X15426753Y-10573984D02*
X15464848Y-10573984D01*
X15464848Y-10573984D02*
X15483896Y-10583508D01*
X15483896Y-10583508D02*
X15493420Y-10593031D01*
X15493420Y-10593031D02*
X15502944Y-10612079D01*
X15502944Y-10612079D02*
X15502944Y-10621603D01*
X15502944Y-10621603D02*
X15493420Y-10640650D01*
X15493420Y-10640650D02*
X15483896Y-10650174D01*
X15483896Y-10650174D02*
X15464848Y-10659698D01*
X15464848Y-10659698D02*
X15426753Y-10659698D01*
X15426753Y-10659698D02*
X15407706Y-10669222D01*
X15407706Y-10669222D02*
X15398182Y-10678746D01*
X15398182Y-10678746D02*
X15388658Y-10697793D01*
X15388658Y-10697793D02*
X15388658Y-10735889D01*
X15388658Y-10735889D02*
X15398182Y-10754936D01*
X15398182Y-10754936D02*
X15407706Y-10764460D01*
X15407706Y-10764460D02*
X15426753Y-10773984D01*
X15426753Y-10773984D02*
X15464848Y-10773984D01*
X15464848Y-10773984D02*
X15483896Y-10764460D01*
X15483896Y-10764460D02*
X15493420Y-10754936D01*
X15493420Y-10754936D02*
X15502944Y-10735889D01*
X15502944Y-10735889D02*
X15502944Y-10697793D01*
X15502944Y-10697793D02*
X15493420Y-10678746D01*
X15493420Y-10678746D02*
X15483896Y-10669222D01*
X15483896Y-10669222D02*
X15464848Y-10659698D01*
X15579134Y-10573984D02*
X15579134Y-10612079D01*
X15655325Y-10573984D02*
X15655325Y-10612079D01*
X15950563Y-10850174D02*
X15941039Y-10840650D01*
X15941039Y-10840650D02*
X15921991Y-10812079D01*
X15921991Y-10812079D02*
X15912468Y-10793031D01*
X15912468Y-10793031D02*
X15902944Y-10764460D01*
X15902944Y-10764460D02*
X15893420Y-10716841D01*
X15893420Y-10716841D02*
X15893420Y-10678746D01*
X15893420Y-10678746D02*
X15902944Y-10631127D01*
X15902944Y-10631127D02*
X15912468Y-10602555D01*
X15912468Y-10602555D02*
X15921991Y-10583508D01*
X15921991Y-10583508D02*
X15941039Y-10554936D01*
X15941039Y-10554936D02*
X15950563Y-10545412D01*
X16131515Y-10773984D02*
X16017229Y-10773984D01*
X16074372Y-10773984D02*
X16074372Y-10573984D01*
X16074372Y-10573984D02*
X16055325Y-10602555D01*
X16055325Y-10602555D02*
X16036277Y-10621603D01*
X16036277Y-10621603D02*
X16017229Y-10631127D01*
X16198182Y-10573984D02*
X16321991Y-10573984D01*
X16321991Y-10573984D02*
X16255325Y-10650174D01*
X16255325Y-10650174D02*
X16283896Y-10650174D01*
X16283896Y-10650174D02*
X16302944Y-10659698D01*
X16302944Y-10659698D02*
X16312468Y-10669222D01*
X16312468Y-10669222D02*
X16321991Y-10688270D01*
X16321991Y-10688270D02*
X16321991Y-10735889D01*
X16321991Y-10735889D02*
X16312468Y-10754936D01*
X16312468Y-10754936D02*
X16302944Y-10764460D01*
X16302944Y-10764460D02*
X16283896Y-10773984D01*
X16283896Y-10773984D02*
X16226753Y-10773984D01*
X16226753Y-10773984D02*
X16207706Y-10764460D01*
X16207706Y-10764460D02*
X16198182Y-10754936D01*
X16560087Y-10773984D02*
X16560087Y-10573984D01*
X16645801Y-10773984D02*
X16645801Y-10669222D01*
X16645801Y-10669222D02*
X16636277Y-10650174D01*
X16636277Y-10650174D02*
X16617230Y-10640650D01*
X16617230Y-10640650D02*
X16588658Y-10640650D01*
X16588658Y-10640650D02*
X16569610Y-10650174D01*
X16569610Y-10650174D02*
X16560087Y-10659698D01*
X16769610Y-10773984D02*
X16750563Y-10764460D01*
X16750563Y-10764460D02*
X16741039Y-10754936D01*
X16741039Y-10754936D02*
X16731515Y-10735889D01*
X16731515Y-10735889D02*
X16731515Y-10678746D01*
X16731515Y-10678746D02*
X16741039Y-10659698D01*
X16741039Y-10659698D02*
X16750563Y-10650174D01*
X16750563Y-10650174D02*
X16769610Y-10640650D01*
X16769610Y-10640650D02*
X16798182Y-10640650D01*
X16798182Y-10640650D02*
X16817230Y-10650174D01*
X16817230Y-10650174D02*
X16826753Y-10659698D01*
X16826753Y-10659698D02*
X16836277Y-10678746D01*
X16836277Y-10678746D02*
X16836277Y-10735889D01*
X16836277Y-10735889D02*
X16826753Y-10754936D01*
X16826753Y-10754936D02*
X16817230Y-10764460D01*
X16817230Y-10764460D02*
X16798182Y-10773984D01*
X16798182Y-10773984D02*
X16769610Y-10773984D01*
X16950563Y-10773984D02*
X16931515Y-10764460D01*
X16931515Y-10764460D02*
X16921992Y-10745412D01*
X16921992Y-10745412D02*
X16921992Y-10573984D01*
X17102944Y-10764460D02*
X17083896Y-10773984D01*
X17083896Y-10773984D02*
X17045801Y-10773984D01*
X17045801Y-10773984D02*
X17026753Y-10764460D01*
X17026753Y-10764460D02*
X17017230Y-10745412D01*
X17017230Y-10745412D02*
X17017230Y-10669222D01*
X17017230Y-10669222D02*
X17026753Y-10650174D01*
X17026753Y-10650174D02*
X17045801Y-10640650D01*
X17045801Y-10640650D02*
X17083896Y-10640650D01*
X17083896Y-10640650D02*
X17102944Y-10650174D01*
X17102944Y-10650174D02*
X17112468Y-10669222D01*
X17112468Y-10669222D02*
X17112468Y-10688270D01*
X17112468Y-10688270D02*
X17017230Y-10707317D01*
X17188658Y-10764460D02*
X17207706Y-10773984D01*
X17207706Y-10773984D02*
X17245801Y-10773984D01*
X17245801Y-10773984D02*
X17264849Y-10764460D01*
X17264849Y-10764460D02*
X17274373Y-10745412D01*
X17274373Y-10745412D02*
X17274373Y-10735889D01*
X17274373Y-10735889D02*
X17264849Y-10716841D01*
X17264849Y-10716841D02*
X17245801Y-10707317D01*
X17245801Y-10707317D02*
X17217230Y-10707317D01*
X17217230Y-10707317D02*
X17198182Y-10697793D01*
X17198182Y-10697793D02*
X17188658Y-10678746D01*
X17188658Y-10678746D02*
X17188658Y-10669222D01*
X17188658Y-10669222D02*
X17198182Y-10650174D01*
X17198182Y-10650174D02*
X17217230Y-10640650D01*
X17217230Y-10640650D02*
X17245801Y-10640650D01*
X17245801Y-10640650D02*
X17264849Y-10650174D01*
X17341039Y-10850174D02*
X17350563Y-10840650D01*
X17350563Y-10840650D02*
X17369611Y-10812079D01*
X17369611Y-10812079D02*
X17379134Y-10793031D01*
X17379134Y-10793031D02*
X17388658Y-10764460D01*
X17388658Y-10764460D02*
X17398182Y-10716841D01*
X17398182Y-10716841D02*
X17398182Y-10678746D01*
X17398182Y-10678746D02*
X17388658Y-10631127D01*
X17388658Y-10631127D02*
X17379134Y-10602555D01*
X17379134Y-10602555D02*
X17369611Y-10583508D01*
X17369611Y-10583508D02*
X17350563Y-10554936D01*
X17350563Y-10554936D02*
X17341039Y-10545412D01*
D12*
X12375500Y-10946500D02*
G75*
G02*
X12315500Y-10946500I-30000J0D01*
G01*
X12315500Y-10946500D02*
G75*
G02*
X12375500Y-10946500I30000J0D01*
G01*
D11*
X12674372Y-10837984D02*
X12693420Y-10837984D01*
X12693420Y-10837984D02*
X12712467Y-10847508D01*
X12712467Y-10847508D02*
X12721991Y-10857031D01*
X12721991Y-10857031D02*
X12731515Y-10876079D01*
X12731515Y-10876079D02*
X12741039Y-10914174D01*
X12741039Y-10914174D02*
X12741039Y-10961793D01*
X12741039Y-10961793D02*
X12731515Y-10999889D01*
X12731515Y-10999889D02*
X12721991Y-11018936D01*
X12721991Y-11018936D02*
X12712467Y-11028460D01*
X12712467Y-11028460D02*
X12693420Y-11037984D01*
X12693420Y-11037984D02*
X12674372Y-11037984D01*
X12674372Y-11037984D02*
X12655324Y-11028460D01*
X12655324Y-11028460D02*
X12645801Y-11018936D01*
X12645801Y-11018936D02*
X12636277Y-10999889D01*
X12636277Y-10999889D02*
X12626753Y-10961793D01*
X12626753Y-10961793D02*
X12626753Y-10914174D01*
X12626753Y-10914174D02*
X12636277Y-10876079D01*
X12636277Y-10876079D02*
X12645801Y-10857031D01*
X12645801Y-10857031D02*
X12655324Y-10847508D01*
X12655324Y-10847508D02*
X12674372Y-10837984D01*
X12826753Y-11018936D02*
X12836277Y-11028460D01*
X12836277Y-11028460D02*
X12826753Y-11037984D01*
X12826753Y-11037984D02*
X12817229Y-11028460D01*
X12817229Y-11028460D02*
X12826753Y-11018936D01*
X12826753Y-11018936D02*
X12826753Y-11037984D01*
X13007705Y-10837984D02*
X12969610Y-10837984D01*
X12969610Y-10837984D02*
X12950562Y-10847508D01*
X12950562Y-10847508D02*
X12941039Y-10857031D01*
X12941039Y-10857031D02*
X12921991Y-10885603D01*
X12921991Y-10885603D02*
X12912467Y-10923698D01*
X12912467Y-10923698D02*
X12912467Y-10999889D01*
X12912467Y-10999889D02*
X12921991Y-11018936D01*
X12921991Y-11018936D02*
X12931515Y-11028460D01*
X12931515Y-11028460D02*
X12950562Y-11037984D01*
X12950562Y-11037984D02*
X12988658Y-11037984D01*
X12988658Y-11037984D02*
X13007705Y-11028460D01*
X13007705Y-11028460D02*
X13017229Y-11018936D01*
X13017229Y-11018936D02*
X13026753Y-10999889D01*
X13026753Y-10999889D02*
X13026753Y-10952270D01*
X13026753Y-10952270D02*
X13017229Y-10933222D01*
X13017229Y-10933222D02*
X13007705Y-10923698D01*
X13007705Y-10923698D02*
X12988658Y-10914174D01*
X12988658Y-10914174D02*
X12950562Y-10914174D01*
X12950562Y-10914174D02*
X12931515Y-10923698D01*
X12931515Y-10923698D02*
X12921991Y-10933222D01*
X12921991Y-10933222D02*
X12912467Y-10952270D01*
X13150562Y-10837984D02*
X13169610Y-10837984D01*
X13169610Y-10837984D02*
X13188658Y-10847508D01*
X13188658Y-10847508D02*
X13198182Y-10857031D01*
X13198182Y-10857031D02*
X13207705Y-10876079D01*
X13207705Y-10876079D02*
X13217229Y-10914174D01*
X13217229Y-10914174D02*
X13217229Y-10961793D01*
X13217229Y-10961793D02*
X13207705Y-10999889D01*
X13207705Y-10999889D02*
X13198182Y-11018936D01*
X13198182Y-11018936D02*
X13188658Y-11028460D01*
X13188658Y-11028460D02*
X13169610Y-11037984D01*
X13169610Y-11037984D02*
X13150562Y-11037984D01*
X13150562Y-11037984D02*
X13131515Y-11028460D01*
X13131515Y-11028460D02*
X13121991Y-11018936D01*
X13121991Y-11018936D02*
X13112467Y-10999889D01*
X13112467Y-10999889D02*
X13102943Y-10961793D01*
X13102943Y-10961793D02*
X13102943Y-10914174D01*
X13102943Y-10914174D02*
X13112467Y-10876079D01*
X13112467Y-10876079D02*
X13121991Y-10857031D01*
X13121991Y-10857031D02*
X13131515Y-10847508D01*
X13131515Y-10847508D02*
X13150562Y-10837984D01*
X13341039Y-10837984D02*
X13360086Y-10837984D01*
X13360086Y-10837984D02*
X13379134Y-10847508D01*
X13379134Y-10847508D02*
X13388658Y-10857031D01*
X13388658Y-10857031D02*
X13398182Y-10876079D01*
X13398182Y-10876079D02*
X13407705Y-10914174D01*
X13407705Y-10914174D02*
X13407705Y-10961793D01*
X13407705Y-10961793D02*
X13398182Y-10999889D01*
X13398182Y-10999889D02*
X13388658Y-11018936D01*
X13388658Y-11018936D02*
X13379134Y-11028460D01*
X13379134Y-11028460D02*
X13360086Y-11037984D01*
X13360086Y-11037984D02*
X13341039Y-11037984D01*
X13341039Y-11037984D02*
X13321991Y-11028460D01*
X13321991Y-11028460D02*
X13312467Y-11018936D01*
X13312467Y-11018936D02*
X13302943Y-10999889D01*
X13302943Y-10999889D02*
X13293420Y-10961793D01*
X13293420Y-10961793D02*
X13293420Y-10914174D01*
X13293420Y-10914174D02*
X13302943Y-10876079D01*
X13302943Y-10876079D02*
X13312467Y-10857031D01*
X13312467Y-10857031D02*
X13321991Y-10847508D01*
X13321991Y-10847508D02*
X13341039Y-10837984D01*
X13493420Y-11037984D02*
X13493420Y-10904650D01*
X13493420Y-10923698D02*
X13502943Y-10914174D01*
X13502943Y-10914174D02*
X13521991Y-10904650D01*
X13521991Y-10904650D02*
X13550563Y-10904650D01*
X13550563Y-10904650D02*
X13569610Y-10914174D01*
X13569610Y-10914174D02*
X13579134Y-10933222D01*
X13579134Y-10933222D02*
X13579134Y-11037984D01*
X13579134Y-10933222D02*
X13588658Y-10914174D01*
X13588658Y-10914174D02*
X13607705Y-10904650D01*
X13607705Y-10904650D02*
X13636277Y-10904650D01*
X13636277Y-10904650D02*
X13655324Y-10914174D01*
X13655324Y-10914174D02*
X13664848Y-10933222D01*
X13664848Y-10933222D02*
X13664848Y-11037984D01*
X13760086Y-11037984D02*
X13760086Y-10904650D01*
X13760086Y-10923698D02*
X13769610Y-10914174D01*
X13769610Y-10914174D02*
X13788658Y-10904650D01*
X13788658Y-10904650D02*
X13817229Y-10904650D01*
X13817229Y-10904650D02*
X13836277Y-10914174D01*
X13836277Y-10914174D02*
X13845801Y-10933222D01*
X13845801Y-10933222D02*
X13845801Y-11037984D01*
X13845801Y-10933222D02*
X13855324Y-10914174D01*
X13855324Y-10914174D02*
X13874372Y-10904650D01*
X13874372Y-10904650D02*
X13902943Y-10904650D01*
X13902943Y-10904650D02*
X13921991Y-10914174D01*
X13921991Y-10914174D02*
X13931515Y-10933222D01*
X13931515Y-10933222D02*
X13931515Y-11037984D01*
X14321991Y-10828460D02*
X14150563Y-11085603D01*
X14579134Y-10837984D02*
X14598182Y-10837984D01*
X14598182Y-10837984D02*
X14617229Y-10847508D01*
X14617229Y-10847508D02*
X14626753Y-10857031D01*
X14626753Y-10857031D02*
X14636277Y-10876079D01*
X14636277Y-10876079D02*
X14645801Y-10914174D01*
X14645801Y-10914174D02*
X14645801Y-10961793D01*
X14645801Y-10961793D02*
X14636277Y-10999889D01*
X14636277Y-10999889D02*
X14626753Y-11018936D01*
X14626753Y-11018936D02*
X14617229Y-11028460D01*
X14617229Y-11028460D02*
X14598182Y-11037984D01*
X14598182Y-11037984D02*
X14579134Y-11037984D01*
X14579134Y-11037984D02*
X14560086Y-11028460D01*
X14560086Y-11028460D02*
X14550563Y-11018936D01*
X14550563Y-11018936D02*
X14541039Y-10999889D01*
X14541039Y-10999889D02*
X14531515Y-10961793D01*
X14531515Y-10961793D02*
X14531515Y-10914174D01*
X14531515Y-10914174D02*
X14541039Y-10876079D01*
X14541039Y-10876079D02*
X14550563Y-10857031D01*
X14550563Y-10857031D02*
X14560086Y-10847508D01*
X14560086Y-10847508D02*
X14579134Y-10837984D01*
X14731515Y-11018936D02*
X14741039Y-11028460D01*
X14741039Y-11028460D02*
X14731515Y-11037984D01*
X14731515Y-11037984D02*
X14721991Y-11028460D01*
X14721991Y-11028460D02*
X14731515Y-11018936D01*
X14731515Y-11018936D02*
X14731515Y-11037984D01*
X14864848Y-10837984D02*
X14883896Y-10837984D01*
X14883896Y-10837984D02*
X14902944Y-10847508D01*
X14902944Y-10847508D02*
X14912467Y-10857031D01*
X14912467Y-10857031D02*
X14921991Y-10876079D01*
X14921991Y-10876079D02*
X14931515Y-10914174D01*
X14931515Y-10914174D02*
X14931515Y-10961793D01*
X14931515Y-10961793D02*
X14921991Y-10999889D01*
X14921991Y-10999889D02*
X14912467Y-11018936D01*
X14912467Y-11018936D02*
X14902944Y-11028460D01*
X14902944Y-11028460D02*
X14883896Y-11037984D01*
X14883896Y-11037984D02*
X14864848Y-11037984D01*
X14864848Y-11037984D02*
X14845801Y-11028460D01*
X14845801Y-11028460D02*
X14836277Y-11018936D01*
X14836277Y-11018936D02*
X14826753Y-10999889D01*
X14826753Y-10999889D02*
X14817229Y-10961793D01*
X14817229Y-10961793D02*
X14817229Y-10914174D01*
X14817229Y-10914174D02*
X14826753Y-10876079D01*
X14826753Y-10876079D02*
X14836277Y-10857031D01*
X14836277Y-10857031D02*
X14845801Y-10847508D01*
X14845801Y-10847508D02*
X14864848Y-10837984D01*
X15007706Y-10857031D02*
X15017229Y-10847508D01*
X15017229Y-10847508D02*
X15036277Y-10837984D01*
X15036277Y-10837984D02*
X15083896Y-10837984D01*
X15083896Y-10837984D02*
X15102944Y-10847508D01*
X15102944Y-10847508D02*
X15112467Y-10857031D01*
X15112467Y-10857031D02*
X15121991Y-10876079D01*
X15121991Y-10876079D02*
X15121991Y-10895127D01*
X15121991Y-10895127D02*
X15112467Y-10923698D01*
X15112467Y-10923698D02*
X14998182Y-11037984D01*
X14998182Y-11037984D02*
X15121991Y-11037984D01*
X15188658Y-10837984D02*
X15312467Y-10837984D01*
X15312467Y-10837984D02*
X15245801Y-10914174D01*
X15245801Y-10914174D02*
X15274372Y-10914174D01*
X15274372Y-10914174D02*
X15293420Y-10923698D01*
X15293420Y-10923698D02*
X15302944Y-10933222D01*
X15302944Y-10933222D02*
X15312467Y-10952270D01*
X15312467Y-10952270D02*
X15312467Y-10999889D01*
X15312467Y-10999889D02*
X15302944Y-11018936D01*
X15302944Y-11018936D02*
X15293420Y-11028460D01*
X15293420Y-11028460D02*
X15274372Y-11037984D01*
X15274372Y-11037984D02*
X15217229Y-11037984D01*
X15217229Y-11037984D02*
X15198182Y-11028460D01*
X15198182Y-11028460D02*
X15188658Y-11018936D01*
X15483896Y-10837984D02*
X15445801Y-10837984D01*
X15445801Y-10837984D02*
X15426753Y-10847508D01*
X15426753Y-10847508D02*
X15417229Y-10857031D01*
X15417229Y-10857031D02*
X15398182Y-10885603D01*
X15398182Y-10885603D02*
X15388658Y-10923698D01*
X15388658Y-10923698D02*
X15388658Y-10999889D01*
X15388658Y-10999889D02*
X15398182Y-11018936D01*
X15398182Y-11018936D02*
X15407706Y-11028460D01*
X15407706Y-11028460D02*
X15426753Y-11037984D01*
X15426753Y-11037984D02*
X15464848Y-11037984D01*
X15464848Y-11037984D02*
X15483896Y-11028460D01*
X15483896Y-11028460D02*
X15493420Y-11018936D01*
X15493420Y-11018936D02*
X15502944Y-10999889D01*
X15502944Y-10999889D02*
X15502944Y-10952270D01*
X15502944Y-10952270D02*
X15493420Y-10933222D01*
X15493420Y-10933222D02*
X15483896Y-10923698D01*
X15483896Y-10923698D02*
X15464848Y-10914174D01*
X15464848Y-10914174D02*
X15426753Y-10914174D01*
X15426753Y-10914174D02*
X15407706Y-10923698D01*
X15407706Y-10923698D02*
X15398182Y-10933222D01*
X15398182Y-10933222D02*
X15388658Y-10952270D01*
X15579134Y-10837984D02*
X15579134Y-10876079D01*
X15655325Y-10837984D02*
X15655325Y-10876079D01*
X15950563Y-11114174D02*
X15941039Y-11104650D01*
X15941039Y-11104650D02*
X15921991Y-11076079D01*
X15921991Y-11076079D02*
X15912468Y-11057031D01*
X15912468Y-11057031D02*
X15902944Y-11028460D01*
X15902944Y-11028460D02*
X15893420Y-10980841D01*
X15893420Y-10980841D02*
X15893420Y-10942746D01*
X15893420Y-10942746D02*
X15902944Y-10895127D01*
X15902944Y-10895127D02*
X15912468Y-10866555D01*
X15912468Y-10866555D02*
X15921991Y-10847508D01*
X15921991Y-10847508D02*
X15941039Y-10818936D01*
X15941039Y-10818936D02*
X15950563Y-10809412D01*
X16064848Y-10837984D02*
X16083896Y-10837984D01*
X16083896Y-10837984D02*
X16102944Y-10847508D01*
X16102944Y-10847508D02*
X16112468Y-10857031D01*
X16112468Y-10857031D02*
X16121991Y-10876079D01*
X16121991Y-10876079D02*
X16131515Y-10914174D01*
X16131515Y-10914174D02*
X16131515Y-10961793D01*
X16131515Y-10961793D02*
X16121991Y-10999889D01*
X16121991Y-10999889D02*
X16112468Y-11018936D01*
X16112468Y-11018936D02*
X16102944Y-11028460D01*
X16102944Y-11028460D02*
X16083896Y-11037984D01*
X16083896Y-11037984D02*
X16064848Y-11037984D01*
X16064848Y-11037984D02*
X16045801Y-11028460D01*
X16045801Y-11028460D02*
X16036277Y-11018936D01*
X16036277Y-11018936D02*
X16026753Y-10999889D01*
X16026753Y-10999889D02*
X16017229Y-10961793D01*
X16017229Y-10961793D02*
X16017229Y-10914174D01*
X16017229Y-10914174D02*
X16026753Y-10876079D01*
X16026753Y-10876079D02*
X16036277Y-10857031D01*
X16036277Y-10857031D02*
X16045801Y-10847508D01*
X16045801Y-10847508D02*
X16064848Y-10837984D01*
X16369610Y-11037984D02*
X16369610Y-10837984D01*
X16455325Y-11037984D02*
X16455325Y-10933222D01*
X16455325Y-10933222D02*
X16445801Y-10914174D01*
X16445801Y-10914174D02*
X16426753Y-10904650D01*
X16426753Y-10904650D02*
X16398182Y-10904650D01*
X16398182Y-10904650D02*
X16379134Y-10914174D01*
X16379134Y-10914174D02*
X16369610Y-10923698D01*
X16579134Y-11037984D02*
X16560087Y-11028460D01*
X16560087Y-11028460D02*
X16550563Y-11018936D01*
X16550563Y-11018936D02*
X16541039Y-10999889D01*
X16541039Y-10999889D02*
X16541039Y-10942746D01*
X16541039Y-10942746D02*
X16550563Y-10923698D01*
X16550563Y-10923698D02*
X16560087Y-10914174D01*
X16560087Y-10914174D02*
X16579134Y-10904650D01*
X16579134Y-10904650D02*
X16607706Y-10904650D01*
X16607706Y-10904650D02*
X16626753Y-10914174D01*
X16626753Y-10914174D02*
X16636277Y-10923698D01*
X16636277Y-10923698D02*
X16645801Y-10942746D01*
X16645801Y-10942746D02*
X16645801Y-10999889D01*
X16645801Y-10999889D02*
X16636277Y-11018936D01*
X16636277Y-11018936D02*
X16626753Y-11028460D01*
X16626753Y-11028460D02*
X16607706Y-11037984D01*
X16607706Y-11037984D02*
X16579134Y-11037984D01*
X16760087Y-11037984D02*
X16741039Y-11028460D01*
X16741039Y-11028460D02*
X16731515Y-11009412D01*
X16731515Y-11009412D02*
X16731515Y-10837984D01*
X16912468Y-11028460D02*
X16893420Y-11037984D01*
X16893420Y-11037984D02*
X16855325Y-11037984D01*
X16855325Y-11037984D02*
X16836277Y-11028460D01*
X16836277Y-11028460D02*
X16826753Y-11009412D01*
X16826753Y-11009412D02*
X16826753Y-10933222D01*
X16826753Y-10933222D02*
X16836277Y-10914174D01*
X16836277Y-10914174D02*
X16855325Y-10904650D01*
X16855325Y-10904650D02*
X16893420Y-10904650D01*
X16893420Y-10904650D02*
X16912468Y-10914174D01*
X16912468Y-10914174D02*
X16921992Y-10933222D01*
X16921992Y-10933222D02*
X16921992Y-10952270D01*
X16921992Y-10952270D02*
X16826753Y-10971317D01*
X16998182Y-11028460D02*
X17017230Y-11037984D01*
X17017230Y-11037984D02*
X17055325Y-11037984D01*
X17055325Y-11037984D02*
X17074373Y-11028460D01*
X17074373Y-11028460D02*
X17083896Y-11009412D01*
X17083896Y-11009412D02*
X17083896Y-10999889D01*
X17083896Y-10999889D02*
X17074373Y-10980841D01*
X17074373Y-10980841D02*
X17055325Y-10971317D01*
X17055325Y-10971317D02*
X17026753Y-10971317D01*
X17026753Y-10971317D02*
X17007706Y-10961793D01*
X17007706Y-10961793D02*
X16998182Y-10942746D01*
X16998182Y-10942746D02*
X16998182Y-10933222D01*
X16998182Y-10933222D02*
X17007706Y-10914174D01*
X17007706Y-10914174D02*
X17026753Y-10904650D01*
X17026753Y-10904650D02*
X17055325Y-10904650D01*
X17055325Y-10904650D02*
X17074373Y-10914174D01*
X17321992Y-10961793D02*
X17474373Y-10961793D01*
X17398182Y-11037984D02*
X17398182Y-10885603D01*
X17807706Y-10904650D02*
X17807706Y-11037984D01*
X17760087Y-10828460D02*
X17712468Y-10971317D01*
X17712468Y-10971317D02*
X17836277Y-10971317D01*
X18055325Y-11028460D02*
X18074373Y-11037984D01*
X18074373Y-11037984D02*
X18112468Y-11037984D01*
X18112468Y-11037984D02*
X18131516Y-11028460D01*
X18131516Y-11028460D02*
X18141039Y-11009412D01*
X18141039Y-11009412D02*
X18141039Y-10999889D01*
X18141039Y-10999889D02*
X18131516Y-10980841D01*
X18131516Y-10980841D02*
X18112468Y-10971317D01*
X18112468Y-10971317D02*
X18083896Y-10971317D01*
X18083896Y-10971317D02*
X18064849Y-10961793D01*
X18064849Y-10961793D02*
X18055325Y-10942746D01*
X18055325Y-10942746D02*
X18055325Y-10933222D01*
X18055325Y-10933222D02*
X18064849Y-10914174D01*
X18064849Y-10914174D02*
X18083896Y-10904650D01*
X18083896Y-10904650D02*
X18112468Y-10904650D01*
X18112468Y-10904650D02*
X18131516Y-10914174D01*
X18255325Y-11037984D02*
X18236277Y-11028460D01*
X18236277Y-11028460D02*
X18226754Y-11009412D01*
X18226754Y-11009412D02*
X18226754Y-10837984D01*
X18360087Y-11037984D02*
X18341039Y-11028460D01*
X18341039Y-11028460D02*
X18331516Y-11018936D01*
X18331516Y-11018936D02*
X18321992Y-10999889D01*
X18321992Y-10999889D02*
X18321992Y-10942746D01*
X18321992Y-10942746D02*
X18331516Y-10923698D01*
X18331516Y-10923698D02*
X18341039Y-10914174D01*
X18341039Y-10914174D02*
X18360087Y-10904650D01*
X18360087Y-10904650D02*
X18388658Y-10904650D01*
X18388658Y-10904650D02*
X18407706Y-10914174D01*
X18407706Y-10914174D02*
X18417230Y-10923698D01*
X18417230Y-10923698D02*
X18426754Y-10942746D01*
X18426754Y-10942746D02*
X18426754Y-10999889D01*
X18426754Y-10999889D02*
X18417230Y-11018936D01*
X18417230Y-11018936D02*
X18407706Y-11028460D01*
X18407706Y-11028460D02*
X18388658Y-11037984D01*
X18388658Y-11037984D02*
X18360087Y-11037984D01*
X18483897Y-10904650D02*
X18560087Y-10904650D01*
X18512468Y-10837984D02*
X18512468Y-11009412D01*
X18512468Y-11009412D02*
X18521992Y-11028460D01*
X18521992Y-11028460D02*
X18541039Y-11037984D01*
X18541039Y-11037984D02*
X18560087Y-11037984D01*
X18617230Y-11028460D02*
X18636277Y-11037984D01*
X18636277Y-11037984D02*
X18674373Y-11037984D01*
X18674373Y-11037984D02*
X18693420Y-11028460D01*
X18693420Y-11028460D02*
X18702944Y-11009412D01*
X18702944Y-11009412D02*
X18702944Y-10999889D01*
X18702944Y-10999889D02*
X18693420Y-10980841D01*
X18693420Y-10980841D02*
X18674373Y-10971317D01*
X18674373Y-10971317D02*
X18645801Y-10971317D01*
X18645801Y-10971317D02*
X18626754Y-10961793D01*
X18626754Y-10961793D02*
X18617230Y-10942746D01*
X18617230Y-10942746D02*
X18617230Y-10933222D01*
X18617230Y-10933222D02*
X18626754Y-10914174D01*
X18626754Y-10914174D02*
X18645801Y-10904650D01*
X18645801Y-10904650D02*
X18674373Y-10904650D01*
X18674373Y-10904650D02*
X18693420Y-10914174D01*
X18769611Y-11114174D02*
X18779135Y-11104650D01*
X18779135Y-11104650D02*
X18798182Y-11076079D01*
X18798182Y-11076079D02*
X18807706Y-11057031D01*
X18807706Y-11057031D02*
X18817230Y-11028460D01*
X18817230Y-11028460D02*
X18826754Y-10980841D01*
X18826754Y-10980841D02*
X18826754Y-10942746D01*
X18826754Y-10942746D02*
X18817230Y-10895127D01*
X18817230Y-10895127D02*
X18807706Y-10866555D01*
X18807706Y-10866555D02*
X18798182Y-10847508D01*
X18798182Y-10847508D02*
X18779135Y-10818936D01*
X18779135Y-10818936D02*
X18769611Y-10809412D01*
D12*
X12325500Y-11160500D02*
X12325500Y-11260500D01*
X12275500Y-11210500D02*
X12375500Y-11210500D01*
D11*
X12741039Y-11301984D02*
X12626753Y-11301984D01*
X12683896Y-11301984D02*
X12683896Y-11101984D01*
X12683896Y-11101984D02*
X12664848Y-11130555D01*
X12664848Y-11130555D02*
X12645801Y-11149603D01*
X12645801Y-11149603D02*
X12626753Y-11159127D01*
X12826753Y-11282936D02*
X12836277Y-11292460D01*
X12836277Y-11292460D02*
X12826753Y-11301984D01*
X12826753Y-11301984D02*
X12817229Y-11292460D01*
X12817229Y-11292460D02*
X12826753Y-11282936D01*
X12826753Y-11282936D02*
X12826753Y-11301984D01*
X12960086Y-11101984D02*
X12979134Y-11101984D01*
X12979134Y-11101984D02*
X12998182Y-11111508D01*
X12998182Y-11111508D02*
X13007705Y-11121031D01*
X13007705Y-11121031D02*
X13017229Y-11140079D01*
X13017229Y-11140079D02*
X13026753Y-11178174D01*
X13026753Y-11178174D02*
X13026753Y-11225793D01*
X13026753Y-11225793D02*
X13017229Y-11263888D01*
X13017229Y-11263888D02*
X13007705Y-11282936D01*
X13007705Y-11282936D02*
X12998182Y-11292460D01*
X12998182Y-11292460D02*
X12979134Y-11301984D01*
X12979134Y-11301984D02*
X12960086Y-11301984D01*
X12960086Y-11301984D02*
X12941039Y-11292460D01*
X12941039Y-11292460D02*
X12931515Y-11282936D01*
X12931515Y-11282936D02*
X12921991Y-11263888D01*
X12921991Y-11263888D02*
X12912467Y-11225793D01*
X12912467Y-11225793D02*
X12912467Y-11178174D01*
X12912467Y-11178174D02*
X12921991Y-11140079D01*
X12921991Y-11140079D02*
X12931515Y-11121031D01*
X12931515Y-11121031D02*
X12941039Y-11111508D01*
X12941039Y-11111508D02*
X12960086Y-11101984D01*
X13150562Y-11101984D02*
X13169610Y-11101984D01*
X13169610Y-11101984D02*
X13188658Y-11111508D01*
X13188658Y-11111508D02*
X13198182Y-11121031D01*
X13198182Y-11121031D02*
X13207705Y-11140079D01*
X13207705Y-11140079D02*
X13217229Y-11178174D01*
X13217229Y-11178174D02*
X13217229Y-11225793D01*
X13217229Y-11225793D02*
X13207705Y-11263888D01*
X13207705Y-11263888D02*
X13198182Y-11282936D01*
X13198182Y-11282936D02*
X13188658Y-11292460D01*
X13188658Y-11292460D02*
X13169610Y-11301984D01*
X13169610Y-11301984D02*
X13150562Y-11301984D01*
X13150562Y-11301984D02*
X13131515Y-11292460D01*
X13131515Y-11292460D02*
X13121991Y-11282936D01*
X13121991Y-11282936D02*
X13112467Y-11263888D01*
X13112467Y-11263888D02*
X13102943Y-11225793D01*
X13102943Y-11225793D02*
X13102943Y-11178174D01*
X13102943Y-11178174D02*
X13112467Y-11140079D01*
X13112467Y-11140079D02*
X13121991Y-11121031D01*
X13121991Y-11121031D02*
X13131515Y-11111508D01*
X13131515Y-11111508D02*
X13150562Y-11101984D01*
X13341039Y-11101984D02*
X13360086Y-11101984D01*
X13360086Y-11101984D02*
X13379134Y-11111508D01*
X13379134Y-11111508D02*
X13388658Y-11121031D01*
X13388658Y-11121031D02*
X13398182Y-11140079D01*
X13398182Y-11140079D02*
X13407705Y-11178174D01*
X13407705Y-11178174D02*
X13407705Y-11225793D01*
X13407705Y-11225793D02*
X13398182Y-11263888D01*
X13398182Y-11263888D02*
X13388658Y-11282936D01*
X13388658Y-11282936D02*
X13379134Y-11292460D01*
X13379134Y-11292460D02*
X13360086Y-11301984D01*
X13360086Y-11301984D02*
X13341039Y-11301984D01*
X13341039Y-11301984D02*
X13321991Y-11292460D01*
X13321991Y-11292460D02*
X13312467Y-11282936D01*
X13312467Y-11282936D02*
X13302943Y-11263888D01*
X13302943Y-11263888D02*
X13293420Y-11225793D01*
X13293420Y-11225793D02*
X13293420Y-11178174D01*
X13293420Y-11178174D02*
X13302943Y-11140079D01*
X13302943Y-11140079D02*
X13312467Y-11121031D01*
X13312467Y-11121031D02*
X13321991Y-11111508D01*
X13321991Y-11111508D02*
X13341039Y-11101984D01*
X13493420Y-11301984D02*
X13493420Y-11168650D01*
X13493420Y-11187698D02*
X13502943Y-11178174D01*
X13502943Y-11178174D02*
X13521991Y-11168650D01*
X13521991Y-11168650D02*
X13550563Y-11168650D01*
X13550563Y-11168650D02*
X13569610Y-11178174D01*
X13569610Y-11178174D02*
X13579134Y-11197222D01*
X13579134Y-11197222D02*
X13579134Y-11301984D01*
X13579134Y-11197222D02*
X13588658Y-11178174D01*
X13588658Y-11178174D02*
X13607705Y-11168650D01*
X13607705Y-11168650D02*
X13636277Y-11168650D01*
X13636277Y-11168650D02*
X13655324Y-11178174D01*
X13655324Y-11178174D02*
X13664848Y-11197222D01*
X13664848Y-11197222D02*
X13664848Y-11301984D01*
X13760086Y-11301984D02*
X13760086Y-11168650D01*
X13760086Y-11187698D02*
X13769610Y-11178174D01*
X13769610Y-11178174D02*
X13788658Y-11168650D01*
X13788658Y-11168650D02*
X13817229Y-11168650D01*
X13817229Y-11168650D02*
X13836277Y-11178174D01*
X13836277Y-11178174D02*
X13845801Y-11197222D01*
X13845801Y-11197222D02*
X13845801Y-11301984D01*
X13845801Y-11197222D02*
X13855324Y-11178174D01*
X13855324Y-11178174D02*
X13874372Y-11168650D01*
X13874372Y-11168650D02*
X13902943Y-11168650D01*
X13902943Y-11168650D02*
X13921991Y-11178174D01*
X13921991Y-11178174D02*
X13931515Y-11197222D01*
X13931515Y-11197222D02*
X13931515Y-11301984D01*
X14321991Y-11092460D02*
X14150563Y-11349603D01*
X14579134Y-11101984D02*
X14598182Y-11101984D01*
X14598182Y-11101984D02*
X14617229Y-11111508D01*
X14617229Y-11111508D02*
X14626753Y-11121031D01*
X14626753Y-11121031D02*
X14636277Y-11140079D01*
X14636277Y-11140079D02*
X14645801Y-11178174D01*
X14645801Y-11178174D02*
X14645801Y-11225793D01*
X14645801Y-11225793D02*
X14636277Y-11263888D01*
X14636277Y-11263888D02*
X14626753Y-11282936D01*
X14626753Y-11282936D02*
X14617229Y-11292460D01*
X14617229Y-11292460D02*
X14598182Y-11301984D01*
X14598182Y-11301984D02*
X14579134Y-11301984D01*
X14579134Y-11301984D02*
X14560086Y-11292460D01*
X14560086Y-11292460D02*
X14550563Y-11282936D01*
X14550563Y-11282936D02*
X14541039Y-11263888D01*
X14541039Y-11263888D02*
X14531515Y-11225793D01*
X14531515Y-11225793D02*
X14531515Y-11178174D01*
X14531515Y-11178174D02*
X14541039Y-11140079D01*
X14541039Y-11140079D02*
X14550563Y-11121031D01*
X14550563Y-11121031D02*
X14560086Y-11111508D01*
X14560086Y-11111508D02*
X14579134Y-11101984D01*
X14731515Y-11282936D02*
X14741039Y-11292460D01*
X14741039Y-11292460D02*
X14731515Y-11301984D01*
X14731515Y-11301984D02*
X14721991Y-11292460D01*
X14721991Y-11292460D02*
X14731515Y-11282936D01*
X14731515Y-11282936D02*
X14731515Y-11301984D01*
X14864848Y-11101984D02*
X14883896Y-11101984D01*
X14883896Y-11101984D02*
X14902944Y-11111508D01*
X14902944Y-11111508D02*
X14912467Y-11121031D01*
X14912467Y-11121031D02*
X14921991Y-11140079D01*
X14921991Y-11140079D02*
X14931515Y-11178174D01*
X14931515Y-11178174D02*
X14931515Y-11225793D01*
X14931515Y-11225793D02*
X14921991Y-11263888D01*
X14921991Y-11263888D02*
X14912467Y-11282936D01*
X14912467Y-11282936D02*
X14902944Y-11292460D01*
X14902944Y-11292460D02*
X14883896Y-11301984D01*
X14883896Y-11301984D02*
X14864848Y-11301984D01*
X14864848Y-11301984D02*
X14845801Y-11292460D01*
X14845801Y-11292460D02*
X14836277Y-11282936D01*
X14836277Y-11282936D02*
X14826753Y-11263888D01*
X14826753Y-11263888D02*
X14817229Y-11225793D01*
X14817229Y-11225793D02*
X14817229Y-11178174D01*
X14817229Y-11178174D02*
X14826753Y-11140079D01*
X14826753Y-11140079D02*
X14836277Y-11121031D01*
X14836277Y-11121031D02*
X14845801Y-11111508D01*
X14845801Y-11111508D02*
X14864848Y-11101984D01*
X14998182Y-11101984D02*
X15121991Y-11101984D01*
X15121991Y-11101984D02*
X15055325Y-11178174D01*
X15055325Y-11178174D02*
X15083896Y-11178174D01*
X15083896Y-11178174D02*
X15102944Y-11187698D01*
X15102944Y-11187698D02*
X15112467Y-11197222D01*
X15112467Y-11197222D02*
X15121991Y-11216269D01*
X15121991Y-11216269D02*
X15121991Y-11263888D01*
X15121991Y-11263888D02*
X15112467Y-11282936D01*
X15112467Y-11282936D02*
X15102944Y-11292460D01*
X15102944Y-11292460D02*
X15083896Y-11301984D01*
X15083896Y-11301984D02*
X15026753Y-11301984D01*
X15026753Y-11301984D02*
X15007706Y-11292460D01*
X15007706Y-11292460D02*
X14998182Y-11282936D01*
X15217229Y-11301984D02*
X15255325Y-11301984D01*
X15255325Y-11301984D02*
X15274372Y-11292460D01*
X15274372Y-11292460D02*
X15283896Y-11282936D01*
X15283896Y-11282936D02*
X15302944Y-11254365D01*
X15302944Y-11254365D02*
X15312467Y-11216269D01*
X15312467Y-11216269D02*
X15312467Y-11140079D01*
X15312467Y-11140079D02*
X15302944Y-11121031D01*
X15302944Y-11121031D02*
X15293420Y-11111508D01*
X15293420Y-11111508D02*
X15274372Y-11101984D01*
X15274372Y-11101984D02*
X15236277Y-11101984D01*
X15236277Y-11101984D02*
X15217229Y-11111508D01*
X15217229Y-11111508D02*
X15207706Y-11121031D01*
X15207706Y-11121031D02*
X15198182Y-11140079D01*
X15198182Y-11140079D02*
X15198182Y-11187698D01*
X15198182Y-11187698D02*
X15207706Y-11206746D01*
X15207706Y-11206746D02*
X15217229Y-11216269D01*
X15217229Y-11216269D02*
X15236277Y-11225793D01*
X15236277Y-11225793D02*
X15274372Y-11225793D01*
X15274372Y-11225793D02*
X15293420Y-11216269D01*
X15293420Y-11216269D02*
X15302944Y-11206746D01*
X15302944Y-11206746D02*
X15312467Y-11187698D01*
X15483896Y-11168650D02*
X15483896Y-11301984D01*
X15436277Y-11092460D02*
X15388658Y-11235317D01*
X15388658Y-11235317D02*
X15512467Y-11235317D01*
X15579134Y-11101984D02*
X15579134Y-11140079D01*
X15655325Y-11101984D02*
X15655325Y-11140079D01*
X15950563Y-11378174D02*
X15941039Y-11368650D01*
X15941039Y-11368650D02*
X15921991Y-11340079D01*
X15921991Y-11340079D02*
X15912468Y-11321031D01*
X15912468Y-11321031D02*
X15902944Y-11292460D01*
X15902944Y-11292460D02*
X15893420Y-11244841D01*
X15893420Y-11244841D02*
X15893420Y-11206746D01*
X15893420Y-11206746D02*
X15902944Y-11159127D01*
X15902944Y-11159127D02*
X15912468Y-11130555D01*
X15912468Y-11130555D02*
X15921991Y-11111508D01*
X15921991Y-11111508D02*
X15941039Y-11082936D01*
X15941039Y-11082936D02*
X15950563Y-11073412D01*
X16112468Y-11168650D02*
X16112468Y-11301984D01*
X16064848Y-11092460D02*
X16017229Y-11235317D01*
X16017229Y-11235317D02*
X16141039Y-11235317D01*
X16369610Y-11301984D02*
X16369610Y-11101984D01*
X16455325Y-11301984D02*
X16455325Y-11197222D01*
X16455325Y-11197222D02*
X16445801Y-11178174D01*
X16445801Y-11178174D02*
X16426753Y-11168650D01*
X16426753Y-11168650D02*
X16398182Y-11168650D01*
X16398182Y-11168650D02*
X16379134Y-11178174D01*
X16379134Y-11178174D02*
X16369610Y-11187698D01*
X16579134Y-11301984D02*
X16560087Y-11292460D01*
X16560087Y-11292460D02*
X16550563Y-11282936D01*
X16550563Y-11282936D02*
X16541039Y-11263888D01*
X16541039Y-11263888D02*
X16541039Y-11206746D01*
X16541039Y-11206746D02*
X16550563Y-11187698D01*
X16550563Y-11187698D02*
X16560087Y-11178174D01*
X16560087Y-11178174D02*
X16579134Y-11168650D01*
X16579134Y-11168650D02*
X16607706Y-11168650D01*
X16607706Y-11168650D02*
X16626753Y-11178174D01*
X16626753Y-11178174D02*
X16636277Y-11187698D01*
X16636277Y-11187698D02*
X16645801Y-11206746D01*
X16645801Y-11206746D02*
X16645801Y-11263888D01*
X16645801Y-11263888D02*
X16636277Y-11282936D01*
X16636277Y-11282936D02*
X16626753Y-11292460D01*
X16626753Y-11292460D02*
X16607706Y-11301984D01*
X16607706Y-11301984D02*
X16579134Y-11301984D01*
X16760087Y-11301984D02*
X16741039Y-11292460D01*
X16741039Y-11292460D02*
X16731515Y-11273412D01*
X16731515Y-11273412D02*
X16731515Y-11101984D01*
X16912468Y-11292460D02*
X16893420Y-11301984D01*
X16893420Y-11301984D02*
X16855325Y-11301984D01*
X16855325Y-11301984D02*
X16836277Y-11292460D01*
X16836277Y-11292460D02*
X16826753Y-11273412D01*
X16826753Y-11273412D02*
X16826753Y-11197222D01*
X16826753Y-11197222D02*
X16836277Y-11178174D01*
X16836277Y-11178174D02*
X16855325Y-11168650D01*
X16855325Y-11168650D02*
X16893420Y-11168650D01*
X16893420Y-11168650D02*
X16912468Y-11178174D01*
X16912468Y-11178174D02*
X16921992Y-11197222D01*
X16921992Y-11197222D02*
X16921992Y-11216269D01*
X16921992Y-11216269D02*
X16826753Y-11235317D01*
X16998182Y-11292460D02*
X17017230Y-11301984D01*
X17017230Y-11301984D02*
X17055325Y-11301984D01*
X17055325Y-11301984D02*
X17074373Y-11292460D01*
X17074373Y-11292460D02*
X17083896Y-11273412D01*
X17083896Y-11273412D02*
X17083896Y-11263888D01*
X17083896Y-11263888D02*
X17074373Y-11244841D01*
X17074373Y-11244841D02*
X17055325Y-11235317D01*
X17055325Y-11235317D02*
X17026753Y-11235317D01*
X17026753Y-11235317D02*
X17007706Y-11225793D01*
X17007706Y-11225793D02*
X16998182Y-11206746D01*
X16998182Y-11206746D02*
X16998182Y-11197222D01*
X16998182Y-11197222D02*
X17007706Y-11178174D01*
X17007706Y-11178174D02*
X17026753Y-11168650D01*
X17026753Y-11168650D02*
X17055325Y-11168650D01*
X17055325Y-11168650D02*
X17074373Y-11178174D01*
X17150563Y-11378174D02*
X17160087Y-11368650D01*
X17160087Y-11368650D02*
X17179134Y-11340079D01*
X17179134Y-11340079D02*
X17188658Y-11321031D01*
X17188658Y-11321031D02*
X17198182Y-11292460D01*
X17198182Y-11292460D02*
X17207706Y-11244841D01*
X17207706Y-11244841D02*
X17207706Y-11206746D01*
X17207706Y-11206746D02*
X17198182Y-11159127D01*
X17198182Y-11159127D02*
X17188658Y-11130555D01*
X17188658Y-11130555D02*
X17179134Y-11111508D01*
X17179134Y-11111508D02*
X17160087Y-11082936D01*
X17160087Y-11082936D02*
X17150563Y-11073412D01*
M02*
