%TF.GenerationSoftware,KiCad,Pcbnew,8.0.4*%
%TF.CreationDate,2024-08-20T22:35:38-07:00*%
%TF.ProjectId,LED flashlight,4c454420-666c-4617-9368-6c696768742e,rev?*%
%TF.SameCoordinates,Original*%
%TF.FileFunction,Copper,L2,Bot*%
%TF.FilePolarity,Positive*%
%FSLAX46Y46*%
G04 Gerber Fmt 4.6, Leading zero omitted, Abs format (unit mm)*
G04 Created by KiCad (PCBNEW 8.0.4) date 2024-08-20 22:35:38*
%MOMM*%
%LPD*%
G01*
G04 APERTURE LIST*
%TA.AperFunction,ComponentPad*%
%ADD10R,1.700000X1.700000*%
%TD*%
%TA.AperFunction,ComponentPad*%
%ADD11O,1.700000X1.700000*%
%TD*%
%TA.AperFunction,ComponentPad*%
%ADD12O,2.100000X1.000000*%
%TD*%
%TA.AperFunction,ComponentPad*%
%ADD13O,1.800000X1.000000*%
%TD*%
%TA.AperFunction,ViaPad*%
%ADD14C,0.600000*%
%TD*%
%TA.AperFunction,Conductor*%
%ADD15C,0.200000*%
%TD*%
G04 APERTURE END LIST*
D10*
%TO.P,BT1,1,+*%
%TO.N,Net-(BT1-+)*%
X149520000Y-90425000D03*
D11*
%TO.P,BT1,2,-*%
%TO.N,Earth*%
X149520000Y-92965000D03*
%TD*%
D12*
%TO.P,P1,S1,SHIELD*%
%TO.N,unconnected-(P1-SHIELD-PadS1)*%
X129167221Y-87219014D03*
D13*
X124987221Y-87219014D03*
D12*
X129167221Y-95859014D03*
D13*
X124987221Y-95859014D03*
%TD*%
D10*
%TO.P,LED,1,+*%
%TO.N,Net-(BT1-+)*%
X159706606Y-88262710D03*
D11*
%TO.P,LED,2,-*%
%TO.N,Net-(D3-A)*%
X159706606Y-90802710D03*
%TD*%
D14*
%TO.N,Earth*%
X132085000Y-93150000D03*
X139430000Y-93030000D03*
X139460000Y-95620000D03*
X131947500Y-95990000D03*
%TO.N,Net-(D2-A)*%
X144410000Y-93080000D03*
X138080000Y-90280000D03*
X139520000Y-96860000D03*
%TO.N,unconnected-(P1-VCONN-PadB5)*%
X131917500Y-98520000D03*
X130860000Y-93310000D03*
%TO.N,unconnected-(P1-CC-PadA5)*%
X132007500Y-84570000D03*
X130700000Y-90260000D03*
%TO.N,Net-(U1-PROG)*%
X136220000Y-95730000D03*
X139460000Y-94350000D03*
%TD*%
D15*
%TO.N,Earth*%
X133837500Y-97880000D02*
X131947500Y-95990000D01*
X139430000Y-93030000D02*
X140320000Y-93920000D01*
X132205000Y-93030000D02*
X132085000Y-93150000D01*
X149520000Y-92965000D02*
X149520000Y-94460000D01*
X140320000Y-94760000D02*
X139460000Y-95620000D01*
X149520000Y-94460000D02*
X146100000Y-97880000D01*
X140320000Y-93920000D02*
X140320000Y-94760000D01*
X139430000Y-93030000D02*
X132205000Y-93030000D01*
X146100000Y-97880000D02*
X133837500Y-97880000D01*
%TO.N,Net-(BT1-+)*%
X151880000Y-88065000D02*
X149520000Y-90425000D01*
X159755000Y-88065000D02*
X151880000Y-88065000D01*
%TO.N,Net-(D2-A)*%
X139520000Y-96860000D02*
X143300000Y-93080000D01*
X144410000Y-93080000D02*
X140880000Y-93080000D01*
X143300000Y-93080000D02*
X144410000Y-93080000D01*
X140880000Y-93080000D02*
X138080000Y-90280000D01*
%TO.N,unconnected-(P1-VCONN-PadB5)*%
X131090000Y-93540000D02*
X131090000Y-97692500D01*
X131090000Y-97692500D02*
X131917500Y-98520000D01*
X130860000Y-93310000D02*
X131090000Y-93540000D01*
%TO.N,unconnected-(P1-SHIELD-PadS1)*%
X129167221Y-95859014D02*
X124987221Y-95859014D01*
X124987221Y-95859014D02*
X124987221Y-87219014D01*
X124987221Y-87219014D02*
X129167221Y-87219014D01*
%TO.N,unconnected-(P1-CC-PadA5)*%
X132007500Y-88952500D02*
X132007500Y-84570000D01*
X130700000Y-90260000D02*
X132007500Y-88952500D01*
%TO.N,Net-(U1-PROG)*%
X136290000Y-95660000D02*
X138150000Y-95660000D01*
X136220000Y-95730000D02*
X136290000Y-95660000D01*
X138150000Y-95660000D02*
X139460000Y-94350000D01*
%TD*%
%TA.AperFunction,Conductor*%
%TO.N,Earth*%
G36*
X157893736Y-83410726D02*
G01*
X158183796Y-83428271D01*
X158198659Y-83430076D01*
X158480798Y-83481780D01*
X158495335Y-83485363D01*
X158769172Y-83570695D01*
X158783163Y-83576000D01*
X159044743Y-83693727D01*
X159057989Y-83700680D01*
X159303465Y-83849075D01*
X159315776Y-83857573D01*
X159421222Y-83940184D01*
X159541573Y-84034473D01*
X159552781Y-84044403D01*
X159755596Y-84247218D01*
X159765526Y-84258426D01*
X159885481Y-84411538D01*
X159942422Y-84484217D01*
X159950928Y-84496540D01*
X160099316Y-84742004D01*
X160106275Y-84755263D01*
X160223997Y-85016831D01*
X160229306Y-85030832D01*
X160314635Y-85304663D01*
X160318219Y-85319201D01*
X160369923Y-85601340D01*
X160371728Y-85616205D01*
X160389274Y-85906263D01*
X160389500Y-85913750D01*
X160389500Y-86788210D01*
X160369815Y-86855249D01*
X160317011Y-86901004D01*
X160265500Y-86912210D01*
X158808735Y-86912210D01*
X158808729Y-86912211D01*
X158749122Y-86918618D01*
X158614277Y-86968912D01*
X158614270Y-86968916D01*
X158499061Y-87055162D01*
X158499058Y-87055165D01*
X158412812Y-87170374D01*
X158412808Y-87170381D01*
X158362514Y-87305226D01*
X158357297Y-87353756D01*
X158330559Y-87418307D01*
X158273166Y-87458155D01*
X158234008Y-87464500D01*
X151966669Y-87464500D01*
X151966653Y-87464499D01*
X151959057Y-87464499D01*
X151800943Y-87464499D01*
X151693587Y-87493265D01*
X151648210Y-87505424D01*
X151648209Y-87505425D01*
X151598096Y-87534359D01*
X151598095Y-87534360D01*
X151554689Y-87559420D01*
X151511285Y-87584479D01*
X151511282Y-87584481D01*
X151399478Y-87696286D01*
X150057582Y-89038181D01*
X149996259Y-89071666D01*
X149969901Y-89074500D01*
X148622129Y-89074500D01*
X148622123Y-89074501D01*
X148562516Y-89080908D01*
X148427671Y-89131202D01*
X148427664Y-89131206D01*
X148312455Y-89217452D01*
X148312452Y-89217455D01*
X148226206Y-89332664D01*
X148226202Y-89332671D01*
X148175908Y-89467517D01*
X148169501Y-89527116D01*
X148169500Y-89527135D01*
X148169500Y-91322870D01*
X148169501Y-91322876D01*
X148175908Y-91382483D01*
X148226202Y-91517328D01*
X148226206Y-91517335D01*
X148312452Y-91632544D01*
X148312455Y-91632547D01*
X148427664Y-91718793D01*
X148427671Y-91718797D01*
X148427674Y-91718798D01*
X148559598Y-91768002D01*
X148615531Y-91809873D01*
X148639949Y-91875337D01*
X148625098Y-91943610D01*
X148603947Y-91971865D01*
X148481886Y-92093926D01*
X148346400Y-92287420D01*
X148346399Y-92287422D01*
X148246570Y-92501507D01*
X148246567Y-92501513D01*
X148189364Y-92714999D01*
X148189364Y-92715000D01*
X149086988Y-92715000D01*
X149054075Y-92772007D01*
X149020000Y-92899174D01*
X149020000Y-93030826D01*
X149054075Y-93157993D01*
X149086988Y-93215000D01*
X148189364Y-93215000D01*
X148246567Y-93428486D01*
X148246570Y-93428492D01*
X148346399Y-93642578D01*
X148481894Y-93836082D01*
X148648917Y-94003105D01*
X148842421Y-94138600D01*
X149056507Y-94238429D01*
X149056516Y-94238433D01*
X149270000Y-94295634D01*
X149270000Y-93398012D01*
X149327007Y-93430925D01*
X149454174Y-93465000D01*
X149585826Y-93465000D01*
X149712993Y-93430925D01*
X149770000Y-93398012D01*
X149770000Y-94295633D01*
X149983483Y-94238433D01*
X149983492Y-94238429D01*
X150197578Y-94138600D01*
X150391082Y-94003105D01*
X150558105Y-93836082D01*
X150693600Y-93642578D01*
X150793429Y-93428492D01*
X150793432Y-93428486D01*
X150850636Y-93215000D01*
X149953012Y-93215000D01*
X149985925Y-93157993D01*
X150020000Y-93030826D01*
X150020000Y-92899174D01*
X149985925Y-92772007D01*
X149953012Y-92715000D01*
X150850636Y-92715000D01*
X150850635Y-92714999D01*
X150793432Y-92501513D01*
X150793429Y-92501507D01*
X150693600Y-92287422D01*
X150693599Y-92287420D01*
X150558113Y-92093926D01*
X150558108Y-92093920D01*
X150436053Y-91971865D01*
X150402568Y-91910542D01*
X150407552Y-91840850D01*
X150449424Y-91784917D01*
X150480400Y-91768002D01*
X150612331Y-91718796D01*
X150727546Y-91632546D01*
X150813796Y-91517331D01*
X150864091Y-91382483D01*
X150870500Y-91322873D01*
X150870499Y-89975095D01*
X150890184Y-89908057D01*
X150906813Y-89887420D01*
X152092416Y-88701819D01*
X152153739Y-88668334D01*
X152180097Y-88665500D01*
X158232107Y-88665500D01*
X158299146Y-88685185D01*
X158344901Y-88737989D01*
X158356107Y-88789500D01*
X158356107Y-89160586D01*
X158362514Y-89220193D01*
X158412808Y-89355038D01*
X158412812Y-89355045D01*
X158499058Y-89470254D01*
X158499061Y-89470257D01*
X158614270Y-89556503D01*
X158614277Y-89556507D01*
X158745687Y-89605520D01*
X158801621Y-89647391D01*
X158826038Y-89712855D01*
X158811186Y-89781128D01*
X158790036Y-89809383D01*
X158668109Y-89931310D01*
X158532571Y-90124879D01*
X158532570Y-90124881D01*
X158432704Y-90339045D01*
X158432700Y-90339054D01*
X158371544Y-90567296D01*
X158371542Y-90567306D01*
X158350947Y-90802709D01*
X158350947Y-90802710D01*
X158371542Y-91038113D01*
X158371544Y-91038123D01*
X158432700Y-91266365D01*
X158432702Y-91266369D01*
X158432703Y-91266373D01*
X158486846Y-91382482D01*
X158532571Y-91480540D01*
X158532573Y-91480544D01*
X158558330Y-91517328D01*
X158668111Y-91674111D01*
X158835205Y-91841205D01*
X158883951Y-91875337D01*
X159028771Y-91976742D01*
X159028773Y-91976743D01*
X159028776Y-91976745D01*
X159242943Y-92076613D01*
X159471198Y-92137773D01*
X159659524Y-92154249D01*
X159706605Y-92158369D01*
X159706606Y-92158369D01*
X159706607Y-92158369D01*
X159745840Y-92154936D01*
X159942014Y-92137773D01*
X160170269Y-92076613D01*
X160213098Y-92056641D01*
X160282171Y-92046150D01*
X160345956Y-92074669D01*
X160384196Y-92133145D01*
X160389500Y-92169024D01*
X160389500Y-97396249D01*
X160389274Y-97403736D01*
X160371728Y-97693794D01*
X160369923Y-97708659D01*
X160318219Y-97990798D01*
X160314635Y-98005336D01*
X160229306Y-98279167D01*
X160223997Y-98293168D01*
X160106275Y-98554736D01*
X160099316Y-98567995D01*
X159950928Y-98813459D01*
X159942422Y-98825782D01*
X159765526Y-99051573D01*
X159755596Y-99062781D01*
X159552781Y-99265596D01*
X159541573Y-99275526D01*
X159315782Y-99452422D01*
X159303459Y-99460928D01*
X159057995Y-99609316D01*
X159044736Y-99616275D01*
X158783168Y-99733997D01*
X158769167Y-99739306D01*
X158495336Y-99824635D01*
X158480798Y-99828219D01*
X158198659Y-99879923D01*
X158183794Y-99881728D01*
X157893736Y-99899274D01*
X157886249Y-99899500D01*
X126783751Y-99899500D01*
X126776264Y-99899274D01*
X126486205Y-99881728D01*
X126471340Y-99879923D01*
X126189201Y-99828219D01*
X126174663Y-99824635D01*
X125900832Y-99739306D01*
X125886831Y-99733997D01*
X125625263Y-99616275D01*
X125612004Y-99609316D01*
X125366540Y-99460928D01*
X125354217Y-99452422D01*
X125128426Y-99275526D01*
X125117218Y-99265596D01*
X124914403Y-99062781D01*
X124904473Y-99051573D01*
X124881509Y-99022262D01*
X124727573Y-98825776D01*
X124719075Y-98813465D01*
X124570680Y-98567989D01*
X124563727Y-98554743D01*
X124446000Y-98293163D01*
X124440693Y-98279167D01*
X124409819Y-98180090D01*
X124355363Y-98005335D01*
X124351780Y-97990798D01*
X124300076Y-97708659D01*
X124298271Y-97693794D01*
X124296563Y-97665565D01*
X124280726Y-97403736D01*
X124280500Y-97396249D01*
X124280500Y-96969198D01*
X124300185Y-96902159D01*
X124352989Y-96856404D01*
X124422147Y-96846460D01*
X124428667Y-96847576D01*
X124473045Y-96856404D01*
X124488679Y-96859514D01*
X124488680Y-96859514D01*
X125485764Y-96859514D01*
X125615803Y-96833646D01*
X125679056Y-96821065D01*
X125861135Y-96745646D01*
X126025003Y-96636153D01*
X126025006Y-96636150D01*
X126165324Y-96495833D01*
X126226647Y-96462348D01*
X126253005Y-96459514D01*
X127751437Y-96459514D01*
X127818476Y-96479199D01*
X127839118Y-96495833D01*
X127979435Y-96636150D01*
X127979439Y-96636153D01*
X128143300Y-96745642D01*
X128143313Y-96745649D01*
X128310500Y-96814899D01*
X128325386Y-96821065D01*
X128325390Y-96821065D01*
X128325391Y-96821066D01*
X128518677Y-96859514D01*
X128518680Y-96859514D01*
X129815764Y-96859514D01*
X129945803Y-96833646D01*
X130009056Y-96821065D01*
X130191135Y-96745646D01*
X130288259Y-96680750D01*
X130296609Y-96675171D01*
X130363287Y-96654293D01*
X130430667Y-96672778D01*
X130477357Y-96724756D01*
X130489500Y-96778273D01*
X130489500Y-97605830D01*
X130489499Y-97605848D01*
X130489499Y-97771554D01*
X130489498Y-97771554D01*
X130530423Y-97924285D01*
X130559358Y-97974400D01*
X130559359Y-97974404D01*
X130559360Y-97974404D01*
X130584378Y-98017738D01*
X130609479Y-98061214D01*
X130609481Y-98061217D01*
X130728349Y-98180085D01*
X130728355Y-98180090D01*
X131086798Y-98538533D01*
X131120283Y-98599856D01*
X131122337Y-98612330D01*
X131132130Y-98699249D01*
X131191710Y-98869521D01*
X131209895Y-98898462D01*
X131287684Y-99022262D01*
X131415238Y-99149816D01*
X131567978Y-99245789D01*
X131738245Y-99305368D01*
X131738250Y-99305369D01*
X131917496Y-99325565D01*
X131917500Y-99325565D01*
X131917504Y-99325565D01*
X132096749Y-99305369D01*
X132096752Y-99305368D01*
X132096755Y-99305368D01*
X132267022Y-99245789D01*
X132419762Y-99149816D01*
X132547316Y-99022262D01*
X132643289Y-98869522D01*
X132702868Y-98699255D01*
X132712662Y-98612330D01*
X132723065Y-98520003D01*
X132723065Y-98519996D01*
X132702869Y-98340750D01*
X132702868Y-98340745D01*
X132646652Y-98180090D01*
X132643289Y-98170478D01*
X132547316Y-98017738D01*
X132419762Y-97890184D01*
X132267021Y-97794210D01*
X132096749Y-97734630D01*
X132009830Y-97724837D01*
X131945416Y-97697770D01*
X131936033Y-97689298D01*
X131726819Y-97480083D01*
X131693334Y-97418760D01*
X131690500Y-97392402D01*
X131690500Y-95729996D01*
X135414435Y-95729996D01*
X135414435Y-95730003D01*
X135434630Y-95909249D01*
X135434631Y-95909254D01*
X135494211Y-96079523D01*
X135564032Y-96190642D01*
X135590184Y-96232262D01*
X135717738Y-96359816D01*
X135870478Y-96455789D01*
X136026770Y-96510478D01*
X136040745Y-96515368D01*
X136040750Y-96515369D01*
X136219996Y-96535565D01*
X136220000Y-96535565D01*
X136220004Y-96535565D01*
X136399249Y-96515369D01*
X136399252Y-96515368D01*
X136399255Y-96515368D01*
X136569522Y-96455789D01*
X136722262Y-96359816D01*
X136785259Y-96296819D01*
X136846582Y-96263334D01*
X136872940Y-96260500D01*
X138063331Y-96260500D01*
X138063347Y-96260501D01*
X138070943Y-96260501D01*
X138229054Y-96260501D01*
X138229057Y-96260501D01*
X138381785Y-96219577D01*
X138431904Y-96190639D01*
X138518716Y-96140520D01*
X138630520Y-96028716D01*
X138630520Y-96028714D01*
X138640728Y-96018507D01*
X138640730Y-96018504D01*
X139478535Y-95180698D01*
X139539856Y-95147215D01*
X139552311Y-95145163D01*
X139639255Y-95135368D01*
X139809522Y-95075789D01*
X139962262Y-94979816D01*
X140089816Y-94852262D01*
X140185789Y-94699522D01*
X140245368Y-94529255D01*
X140265565Y-94350000D01*
X140262419Y-94322082D01*
X140245369Y-94170750D01*
X140245368Y-94170745D01*
X140185788Y-94000476D01*
X140100894Y-93865369D01*
X140089816Y-93847738D01*
X139962262Y-93720184D01*
X139956907Y-93716819D01*
X139809523Y-93624211D01*
X139639254Y-93564631D01*
X139639249Y-93564630D01*
X139460004Y-93544435D01*
X139459996Y-93544435D01*
X139280750Y-93564630D01*
X139280745Y-93564631D01*
X139110476Y-93624211D01*
X138957737Y-93720184D01*
X138830184Y-93847737D01*
X138734210Y-94000478D01*
X138674630Y-94170750D01*
X138664837Y-94257668D01*
X138637770Y-94322082D01*
X138629298Y-94331465D01*
X137937584Y-95023181D01*
X137876261Y-95056666D01*
X137849903Y-95059500D01*
X136693238Y-95059500D01*
X136627266Y-95040494D01*
X136569522Y-95004211D01*
X136399254Y-94944631D01*
X136399249Y-94944630D01*
X136220004Y-94924435D01*
X136219996Y-94924435D01*
X136040750Y-94944630D01*
X136040745Y-94944631D01*
X135870476Y-95004211D01*
X135717737Y-95100184D01*
X135590184Y-95227737D01*
X135494211Y-95380476D01*
X135434631Y-95550745D01*
X135434630Y-95550750D01*
X135414435Y-95729996D01*
X131690500Y-95729996D01*
X131690500Y-93460945D01*
X131690500Y-93460943D01*
X131670023Y-93384523D01*
X131670023Y-93384522D01*
X131670023Y-93384521D01*
X131667047Y-93373416D01*
X131663600Y-93327432D01*
X131665565Y-93310000D01*
X131645368Y-93130745D01*
X131585789Y-92960478D01*
X131489816Y-92807738D01*
X131362262Y-92680184D01*
X131326945Y-92657993D01*
X131209523Y-92584211D01*
X131039254Y-92524631D01*
X131039249Y-92524630D01*
X130860004Y-92504435D01*
X130859996Y-92504435D01*
X130680750Y-92524630D01*
X130680745Y-92524631D01*
X130510476Y-92584211D01*
X130357737Y-92680184D01*
X130230184Y-92807737D01*
X130134211Y-92960476D01*
X130074631Y-93130745D01*
X130074630Y-93130750D01*
X130054435Y-93309996D01*
X130054435Y-93310003D01*
X130074630Y-93489249D01*
X130074631Y-93489254D01*
X130134211Y-93659523D01*
X130170213Y-93716819D01*
X130230184Y-93812262D01*
X130357738Y-93939816D01*
X130431471Y-93986145D01*
X130477763Y-94038479D01*
X130489500Y-94091139D01*
X130489500Y-94939754D01*
X130469815Y-95006793D01*
X130417011Y-95052548D01*
X130347853Y-95062492D01*
X130296610Y-95042857D01*
X130191139Y-94972384D01*
X130191128Y-94972378D01*
X130009060Y-94896964D01*
X130009050Y-94896961D01*
X129815764Y-94858514D01*
X129815762Y-94858514D01*
X129298554Y-94858514D01*
X129231515Y-94838829D01*
X129185760Y-94786025D01*
X129175816Y-94716867D01*
X129191168Y-94672513D01*
X129203499Y-94651154D01*
X129203498Y-94651154D01*
X129203502Y-94651149D01*
X129242721Y-94504780D01*
X129242721Y-94353248D01*
X129203502Y-94206879D01*
X129127736Y-94075649D01*
X129020586Y-93968499D01*
X128954971Y-93930616D01*
X128889357Y-93892733D01*
X128787227Y-93865368D01*
X128742987Y-93853514D01*
X128591455Y-93853514D01*
X128445084Y-93892733D01*
X128313856Y-93968499D01*
X128313853Y-93968501D01*
X128206708Y-94075646D01*
X128206706Y-94075649D01*
X128130940Y-94206877D01*
X128100072Y-94322082D01*
X128091721Y-94353248D01*
X128091721Y-94504780D01*
X128098279Y-94529254D01*
X128130940Y-94651150D01*
X128158868Y-94699522D01*
X128206706Y-94782379D01*
X128206707Y-94782380D01*
X128210770Y-94789417D01*
X128208441Y-94790761D01*
X128228866Y-94843598D01*
X128214824Y-94912043D01*
X128166008Y-94962030D01*
X128152749Y-94968470D01*
X128143315Y-94972377D01*
X128143300Y-94972385D01*
X127979439Y-95081874D01*
X127979435Y-95081877D01*
X127839118Y-95222195D01*
X127777795Y-95255680D01*
X127751437Y-95258514D01*
X126253005Y-95258514D01*
X126185966Y-95238829D01*
X126165324Y-95222195D01*
X126025006Y-95081877D01*
X126025002Y-95081874D01*
X125861141Y-94972385D01*
X125861128Y-94972378D01*
X125679053Y-94896961D01*
X125675722Y-94895951D01*
X125674191Y-94894947D01*
X125673429Y-94894632D01*
X125673488Y-94894487D01*
X125617284Y-94857652D01*
X125588830Y-94793839D01*
X125587721Y-94777292D01*
X125587721Y-90259996D01*
X129894435Y-90259996D01*
X129894435Y-90260003D01*
X129914630Y-90439249D01*
X129914631Y-90439254D01*
X129974211Y-90609523D01*
X129986778Y-90629523D01*
X130070184Y-90762262D01*
X130197738Y-90889816D01*
X130350478Y-90985789D01*
X130500026Y-91038118D01*
X130520745Y-91045368D01*
X130520750Y-91045369D01*
X130699996Y-91065565D01*
X130700000Y-91065565D01*
X130700004Y-91065565D01*
X130879249Y-91045369D01*
X130879252Y-91045368D01*
X130879255Y-91045368D01*
X131049522Y-90985789D01*
X131202262Y-90889816D01*
X131329816Y-90762262D01*
X131425789Y-90609522D01*
X131485368Y-90439255D01*
X131495161Y-90352329D01*
X131522226Y-90287918D01*
X131529378Y-90279996D01*
X137274435Y-90279996D01*
X137274435Y-90280003D01*
X137294630Y-90459249D01*
X137294631Y-90459254D01*
X137354211Y-90629523D01*
X137437617Y-90762262D01*
X137450184Y-90782262D01*
X137577738Y-90909816D01*
X137730478Y-91005789D01*
X137900745Y-91065368D01*
X137987669Y-91075161D01*
X138052080Y-91102226D01*
X138061465Y-91110700D01*
X140395139Y-93444374D01*
X140395149Y-93444385D01*
X140399479Y-93448715D01*
X140399480Y-93448716D01*
X140511284Y-93560520D01*
X140598095Y-93610639D01*
X140598097Y-93610641D01*
X140621601Y-93624211D01*
X140648215Y-93639577D01*
X140800943Y-93680501D01*
X140800946Y-93680501D01*
X140966653Y-93680501D01*
X140966669Y-93680500D01*
X141550903Y-93680500D01*
X141617942Y-93700185D01*
X141663697Y-93752989D01*
X141673641Y-93822147D01*
X141644616Y-93885703D01*
X141638584Y-93892181D01*
X139501465Y-96029298D01*
X139440142Y-96062783D01*
X139427668Y-96064837D01*
X139340750Y-96074630D01*
X139170478Y-96134210D01*
X139017737Y-96230184D01*
X138890184Y-96357737D01*
X138794211Y-96510476D01*
X138734631Y-96680745D01*
X138734630Y-96680750D01*
X138714435Y-96859996D01*
X138714435Y-96860003D01*
X138734630Y-97039249D01*
X138734631Y-97039254D01*
X138794211Y-97209523D01*
X138872494Y-97334108D01*
X138890184Y-97362262D01*
X139017738Y-97489816D01*
X139108080Y-97546582D01*
X139148483Y-97571969D01*
X139170478Y-97585789D01*
X139249509Y-97613443D01*
X139340745Y-97645368D01*
X139340750Y-97645369D01*
X139519996Y-97665565D01*
X139520000Y-97665565D01*
X139520004Y-97665565D01*
X139699249Y-97645369D01*
X139699252Y-97645368D01*
X139699255Y-97645368D01*
X139869522Y-97585789D01*
X140022262Y-97489816D01*
X140149816Y-97362262D01*
X140245789Y-97209522D01*
X140305368Y-97039255D01*
X140315161Y-96952329D01*
X140342226Y-96887918D01*
X140350690Y-96878543D01*
X143512416Y-93716819D01*
X143573739Y-93683334D01*
X143600097Y-93680500D01*
X143827588Y-93680500D01*
X143894627Y-93700185D01*
X143904903Y-93707555D01*
X143907736Y-93709814D01*
X143907738Y-93709816D01*
X144060478Y-93805789D01*
X144196868Y-93853514D01*
X144230745Y-93865368D01*
X144230750Y-93865369D01*
X144409996Y-93885565D01*
X144410000Y-93885565D01*
X144410004Y-93885565D01*
X144589249Y-93865369D01*
X144589252Y-93865368D01*
X144589255Y-93865368D01*
X144759522Y-93805789D01*
X144912262Y-93709816D01*
X145039816Y-93582262D01*
X145135789Y-93429522D01*
X145195368Y-93259255D01*
X145195369Y-93259249D01*
X145215565Y-93080003D01*
X145215565Y-93079996D01*
X145195369Y-92900750D01*
X145195368Y-92900745D01*
X145162823Y-92807737D01*
X145135789Y-92730478D01*
X145039816Y-92577738D01*
X144912262Y-92450184D01*
X144901117Y-92443181D01*
X144759523Y-92354211D01*
X144589254Y-92294631D01*
X144589249Y-92294630D01*
X144410004Y-92274435D01*
X144409996Y-92274435D01*
X144230750Y-92294630D01*
X144230745Y-92294631D01*
X144060476Y-92354211D01*
X143907736Y-92450185D01*
X143904903Y-92452445D01*
X143902724Y-92453334D01*
X143901842Y-92453889D01*
X143901744Y-92453734D01*
X143840217Y-92478855D01*
X143827588Y-92479500D01*
X141180097Y-92479500D01*
X141113058Y-92459815D01*
X141092416Y-92443181D01*
X138910700Y-90261465D01*
X138877215Y-90200142D01*
X138875163Y-90187686D01*
X138865368Y-90100745D01*
X138805789Y-89930478D01*
X138709816Y-89777738D01*
X138582262Y-89650184D01*
X138577817Y-89647391D01*
X138429523Y-89554211D01*
X138259254Y-89494631D01*
X138259249Y-89494630D01*
X138080004Y-89474435D01*
X138079996Y-89474435D01*
X137900750Y-89494630D01*
X137900745Y-89494631D01*
X137730476Y-89554211D01*
X137577737Y-89650184D01*
X137450184Y-89777737D01*
X137354211Y-89930476D01*
X137294631Y-90100745D01*
X137294630Y-90100750D01*
X137274435Y-90279996D01*
X131529378Y-90279996D01*
X131530690Y-90278543D01*
X132366006Y-89443228D01*
X132366011Y-89443224D01*
X132376214Y-89433020D01*
X132376216Y-89433020D01*
X132488020Y-89321216D01*
X132491752Y-89314751D01*
X132543708Y-89224762D01*
X132543709Y-89224760D01*
X132567074Y-89184290D01*
X132567073Y-89184290D01*
X132567077Y-89184285D01*
X132608000Y-89031558D01*
X132608000Y-88873443D01*
X132608000Y-85152412D01*
X132627685Y-85085373D01*
X132635055Y-85075097D01*
X132637310Y-85072267D01*
X132637316Y-85072262D01*
X132733289Y-84919522D01*
X132792868Y-84749255D01*
X132813065Y-84570000D01*
X132804788Y-84496540D01*
X132792869Y-84390750D01*
X132792868Y-84390745D01*
X132733289Y-84220478D01*
X132637316Y-84067738D01*
X132509762Y-83940184D01*
X132357023Y-83844211D01*
X132186754Y-83784631D01*
X132186749Y-83784630D01*
X132007504Y-83764435D01*
X132007496Y-83764435D01*
X131828250Y-83784630D01*
X131828245Y-83784631D01*
X131657976Y-83844211D01*
X131505237Y-83940184D01*
X131377684Y-84067737D01*
X131281711Y-84220476D01*
X131222131Y-84390745D01*
X131222130Y-84390750D01*
X131201935Y-84569996D01*
X131201935Y-84570003D01*
X131222130Y-84749249D01*
X131222131Y-84749254D01*
X131281711Y-84919523D01*
X131342015Y-85015496D01*
X131347148Y-85023665D01*
X131377685Y-85072263D01*
X131379945Y-85075097D01*
X131380834Y-85077275D01*
X131381389Y-85078158D01*
X131381234Y-85078255D01*
X131406355Y-85139783D01*
X131407000Y-85152412D01*
X131407000Y-88652402D01*
X131387315Y-88719441D01*
X131370681Y-88740083D01*
X130681465Y-89429298D01*
X130620142Y-89462783D01*
X130607668Y-89464837D01*
X130520750Y-89474630D01*
X130350478Y-89534210D01*
X130197737Y-89630184D01*
X130070184Y-89757737D01*
X129974211Y-89910476D01*
X129914631Y-90080745D01*
X129914630Y-90080750D01*
X129894435Y-90259996D01*
X125587721Y-90259996D01*
X125587721Y-88300735D01*
X125607406Y-88233696D01*
X125660210Y-88187941D01*
X125675730Y-88182073D01*
X125679041Y-88181067D01*
X125679056Y-88181065D01*
X125861135Y-88105646D01*
X126025003Y-87996153D01*
X126025006Y-87996150D01*
X126165324Y-87855833D01*
X126226647Y-87822348D01*
X126253005Y-87819514D01*
X127751437Y-87819514D01*
X127818476Y-87839199D01*
X127839118Y-87855833D01*
X127979435Y-87996150D01*
X127979439Y-87996153D01*
X128143300Y-88105642D01*
X128143304Y-88105644D01*
X128143307Y-88105646D01*
X128152744Y-88109555D01*
X128207148Y-88153392D01*
X128229216Y-88219686D01*
X128211940Y-88287386D01*
X128208786Y-88292046D01*
X128130940Y-88426877D01*
X128091721Y-88573248D01*
X128091721Y-88724780D01*
X128111330Y-88797964D01*
X128130940Y-88871150D01*
X128132264Y-88873443D01*
X128206706Y-89002379D01*
X128313856Y-89109529D01*
X128402282Y-89160582D01*
X128443336Y-89184285D01*
X128445086Y-89185295D01*
X128591455Y-89224514D01*
X128591457Y-89224514D01*
X128742985Y-89224514D01*
X128742987Y-89224514D01*
X128889356Y-89185295D01*
X129020586Y-89109529D01*
X129127736Y-89002379D01*
X129203502Y-88871149D01*
X129242721Y-88724780D01*
X129242721Y-88573248D01*
X129203502Y-88426879D01*
X129203499Y-88426873D01*
X129191168Y-88405515D01*
X129174694Y-88337616D01*
X129197546Y-88271588D01*
X129252466Y-88228397D01*
X129298554Y-88219514D01*
X129815764Y-88219514D01*
X130003988Y-88182073D01*
X130009056Y-88181065D01*
X130191135Y-88105646D01*
X130355003Y-87996153D01*
X130494360Y-87856796D01*
X130603853Y-87692928D01*
X130679272Y-87510849D01*
X130717721Y-87317555D01*
X130717721Y-87120473D01*
X130717721Y-87120470D01*
X130679273Y-86927184D01*
X130679272Y-86927183D01*
X130679272Y-86927179D01*
X130621710Y-86788210D01*
X130603856Y-86745106D01*
X130603849Y-86745093D01*
X130494360Y-86581232D01*
X130494357Y-86581228D01*
X130355006Y-86441877D01*
X130355002Y-86441874D01*
X130191141Y-86332385D01*
X130191128Y-86332378D01*
X130009060Y-86256964D01*
X130009050Y-86256961D01*
X129815764Y-86218514D01*
X129815762Y-86218514D01*
X128518680Y-86218514D01*
X128518678Y-86218514D01*
X128325391Y-86256961D01*
X128325381Y-86256964D01*
X128143313Y-86332378D01*
X128143300Y-86332385D01*
X127979439Y-86441874D01*
X127979435Y-86441877D01*
X127839118Y-86582195D01*
X127777795Y-86615680D01*
X127751437Y-86618514D01*
X126253005Y-86618514D01*
X126185966Y-86598829D01*
X126165324Y-86582195D01*
X126025006Y-86441877D01*
X126025002Y-86441874D01*
X125861141Y-86332385D01*
X125861128Y-86332378D01*
X125679060Y-86256964D01*
X125679050Y-86256961D01*
X125485764Y-86218514D01*
X125485762Y-86218514D01*
X124488680Y-86218514D01*
X124488677Y-86218514D01*
X124428691Y-86230446D01*
X124359100Y-86224219D01*
X124303922Y-86181356D01*
X124280678Y-86115466D01*
X124280500Y-86108829D01*
X124280500Y-85913750D01*
X124280726Y-85906263D01*
X124298271Y-85616205D01*
X124300076Y-85601340D01*
X124351780Y-85319201D01*
X124355364Y-85304663D01*
X124440696Y-85030822D01*
X124445998Y-85016841D01*
X124563731Y-84755249D01*
X124570676Y-84742016D01*
X124719080Y-84496526D01*
X124727567Y-84484230D01*
X124904480Y-84258417D01*
X124914395Y-84247226D01*
X125117226Y-84044395D01*
X125128417Y-84034480D01*
X125354230Y-83857567D01*
X125366526Y-83849080D01*
X125612016Y-83700676D01*
X125625249Y-83693731D01*
X125886841Y-83575998D01*
X125900822Y-83570696D01*
X126174668Y-83485362D01*
X126189197Y-83481780D01*
X126471344Y-83430075D01*
X126486201Y-83428271D01*
X126776264Y-83410726D01*
X126783751Y-83410500D01*
X126845892Y-83410500D01*
X157824108Y-83410500D01*
X157886249Y-83410500D01*
X157893736Y-83410726D01*
G37*
%TD.AperFunction*%
%TD*%
M02*
