%TF.GenerationSoftware,KiCad,Pcbnew,(6.0.7)*%
%TF.CreationDate,2022-12-19T11:26:11-08:00*%
%TF.ProjectId,openot rev2,6f70656e-6f74-4207-9265-76322e6b6963,rev?*%
%TF.SameCoordinates,Original*%
%TF.FileFunction,Drillmap*%
%TF.FilePolarity,Positive*%
%FSLAX45Y45*%
G04 Gerber Fmt 4.5, Leading zero omitted, Abs format (unit mm)*
G04 Created by KiCad (PCBNEW (6.0.7)) date 2022-12-19 11:26:11*
%MOMM*%
%LPD*%
G01*
G04 APERTURE LIST*
%ADD10C,0.050000*%
%ADD11C,0.100000*%
%ADD12C,0.200000*%
%ADD13C,0.220000*%
%ADD14C,0.320000*%
G04 APERTURE END LIST*
D10*
X36415000Y-16750000D02*
X32665000Y-16750000D01*
X36440000Y-12975000D02*
X36415000Y-16750000D01*
D11*
X6099568Y-7738563D02*
X37478728Y-7738563D01*
X37478728Y-7738563D02*
X37478728Y-18818043D01*
X37478728Y-18818043D02*
X6099568Y-18818043D01*
X6099568Y-18818043D02*
X6099568Y-7738563D01*
D10*
X36440000Y-12975000D02*
G75*
G03*
X32665000Y-16750000I-3775000J0D01*
G01*
D12*
D13*
X14791347Y-17826453D02*
X15011347Y-18046453D01*
X15011347Y-17826453D02*
X14791347Y-18046453D01*
X19675767Y-17823913D02*
X19895767Y-18043913D01*
X19895767Y-17823913D02*
X19675767Y-18043913D01*
D14*
X6617708Y-13451023D02*
G75*
G03*
X6617708Y-13451023I-160000J0D01*
G01*
X6663428Y-8147503D02*
G75*
G03*
X6663428Y-8147503I-160000J0D01*
G01*
X6698988Y-18287183D02*
G75*
G03*
X6698988Y-18287183I-160000J0D01*
G01*
X37265348Y-8117023D02*
G75*
G03*
X37265348Y-8117023I-160000J0D01*
G01*
X37280588Y-18388783D02*
G75*
G03*
X37280588Y-18388783I-160000J0D01*
G01*
X37285668Y-13522143D02*
G75*
G03*
X37285668Y-13522143I-160000J0D01*
G01*
D12*
X6352187Y-19133520D02*
X6352187Y-18933520D01*
X6399806Y-18933520D01*
X6428378Y-18943043D01*
X6447425Y-18962091D01*
X6456949Y-18981139D01*
X6466473Y-19019234D01*
X6466473Y-19047805D01*
X6456949Y-19085901D01*
X6447425Y-19104948D01*
X6428378Y-19123996D01*
X6399806Y-19133520D01*
X6352187Y-19133520D01*
X6552187Y-19133520D02*
X6552187Y-19000186D01*
X6552187Y-19038281D02*
X6561711Y-19019234D01*
X6571235Y-19009710D01*
X6590282Y-19000186D01*
X6609330Y-19000186D01*
X6675997Y-19133520D02*
X6675997Y-19000186D01*
X6675997Y-18933520D02*
X6666473Y-18943043D01*
X6675997Y-18952567D01*
X6685521Y-18943043D01*
X6675997Y-18933520D01*
X6675997Y-18952567D01*
X6799806Y-19133520D02*
X6780759Y-19123996D01*
X6771235Y-19104948D01*
X6771235Y-18933520D01*
X6904568Y-19133520D02*
X6885521Y-19123996D01*
X6875997Y-19104948D01*
X6875997Y-18933520D01*
X7133140Y-19133520D02*
X7133140Y-18933520D01*
X7199806Y-19076377D01*
X7266473Y-18933520D01*
X7266473Y-19133520D01*
X7447425Y-19133520D02*
X7447425Y-19028758D01*
X7437902Y-19009710D01*
X7418854Y-19000186D01*
X7380759Y-19000186D01*
X7361711Y-19009710D01*
X7447425Y-19123996D02*
X7428378Y-19133520D01*
X7380759Y-19133520D01*
X7361711Y-19123996D01*
X7352187Y-19104948D01*
X7352187Y-19085901D01*
X7361711Y-19066853D01*
X7380759Y-19057329D01*
X7428378Y-19057329D01*
X7447425Y-19047805D01*
X7542663Y-19000186D02*
X7542663Y-19200186D01*
X7542663Y-19009710D02*
X7561711Y-19000186D01*
X7599806Y-19000186D01*
X7618854Y-19009710D01*
X7628378Y-19019234D01*
X7637902Y-19038281D01*
X7637902Y-19095424D01*
X7628378Y-19114472D01*
X7618854Y-19123996D01*
X7599806Y-19133520D01*
X7561711Y-19133520D01*
X7542663Y-19123996D01*
X7723616Y-19114472D02*
X7733140Y-19123996D01*
X7723616Y-19133520D01*
X7714092Y-19123996D01*
X7723616Y-19114472D01*
X7723616Y-19133520D01*
X7723616Y-19009710D02*
X7733140Y-19019234D01*
X7723616Y-19028758D01*
X7714092Y-19019234D01*
X7723616Y-19009710D01*
X7723616Y-19028758D01*
X5894568Y-19363043D02*
X6094568Y-19563043D01*
X6094568Y-19363043D02*
X5894568Y-19563043D01*
X6342663Y-19372567D02*
X6352187Y-19363043D01*
X6371235Y-19353520D01*
X6418854Y-19353520D01*
X6437902Y-19363043D01*
X6447425Y-19372567D01*
X6456949Y-19391615D01*
X6456949Y-19410662D01*
X6447425Y-19439234D01*
X6333140Y-19553520D01*
X6456949Y-19553520D01*
X6542663Y-19534472D02*
X6552187Y-19543996D01*
X6542663Y-19553520D01*
X6533140Y-19543996D01*
X6542663Y-19534472D01*
X6542663Y-19553520D01*
X6628378Y-19372567D02*
X6637902Y-19363043D01*
X6656949Y-19353520D01*
X6704568Y-19353520D01*
X6723616Y-19363043D01*
X6733140Y-19372567D01*
X6742663Y-19391615D01*
X6742663Y-19410662D01*
X6733140Y-19439234D01*
X6618854Y-19553520D01*
X6742663Y-19553520D01*
X6866473Y-19353520D02*
X6885521Y-19353520D01*
X6904568Y-19363043D01*
X6914092Y-19372567D01*
X6923616Y-19391615D01*
X6933140Y-19429710D01*
X6933140Y-19477329D01*
X6923616Y-19515424D01*
X6914092Y-19534472D01*
X6904568Y-19543996D01*
X6885521Y-19553520D01*
X6866473Y-19553520D01*
X6847425Y-19543996D01*
X6837902Y-19534472D01*
X6828378Y-19515424D01*
X6818854Y-19477329D01*
X6818854Y-19429710D01*
X6828378Y-19391615D01*
X6837902Y-19372567D01*
X6847425Y-19363043D01*
X6866473Y-19353520D01*
X7056949Y-19353520D02*
X7075997Y-19353520D01*
X7095044Y-19363043D01*
X7104568Y-19372567D01*
X7114092Y-19391615D01*
X7123616Y-19429710D01*
X7123616Y-19477329D01*
X7114092Y-19515424D01*
X7104568Y-19534472D01*
X7095044Y-19543996D01*
X7075997Y-19553520D01*
X7056949Y-19553520D01*
X7037902Y-19543996D01*
X7028378Y-19534472D01*
X7018854Y-19515424D01*
X7009330Y-19477329D01*
X7009330Y-19429710D01*
X7018854Y-19391615D01*
X7028378Y-19372567D01*
X7037902Y-19363043D01*
X7056949Y-19353520D01*
X7209330Y-19553520D02*
X7209330Y-19420186D01*
X7209330Y-19439234D02*
X7218854Y-19429710D01*
X7237902Y-19420186D01*
X7266473Y-19420186D01*
X7285521Y-19429710D01*
X7295044Y-19448758D01*
X7295044Y-19553520D01*
X7295044Y-19448758D02*
X7304568Y-19429710D01*
X7323616Y-19420186D01*
X7352187Y-19420186D01*
X7371235Y-19429710D01*
X7380759Y-19448758D01*
X7380759Y-19553520D01*
X7475997Y-19553520D02*
X7475997Y-19420186D01*
X7475997Y-19439234D02*
X7485521Y-19429710D01*
X7504568Y-19420186D01*
X7533140Y-19420186D01*
X7552187Y-19429710D01*
X7561711Y-19448758D01*
X7561711Y-19553520D01*
X7561711Y-19448758D02*
X7571235Y-19429710D01*
X7590282Y-19420186D01*
X7618854Y-19420186D01*
X7637902Y-19429710D01*
X7647425Y-19448758D01*
X7647425Y-19553520D01*
X8037902Y-19343996D02*
X7866473Y-19601139D01*
X8295044Y-19353520D02*
X8314092Y-19353520D01*
X8333140Y-19363043D01*
X8342663Y-19372567D01*
X8352187Y-19391615D01*
X8361711Y-19429710D01*
X8361711Y-19477329D01*
X8352187Y-19515424D01*
X8342663Y-19534472D01*
X8333140Y-19543996D01*
X8314092Y-19553520D01*
X8295044Y-19553520D01*
X8275997Y-19543996D01*
X8266473Y-19534472D01*
X8256949Y-19515424D01*
X8247425Y-19477329D01*
X8247425Y-19429710D01*
X8256949Y-19391615D01*
X8266473Y-19372567D01*
X8275997Y-19363043D01*
X8295044Y-19353520D01*
X8447425Y-19534472D02*
X8456949Y-19543996D01*
X8447425Y-19553520D01*
X8437902Y-19543996D01*
X8447425Y-19534472D01*
X8447425Y-19553520D01*
X8580759Y-19353520D02*
X8599806Y-19353520D01*
X8618854Y-19363043D01*
X8628378Y-19372567D01*
X8637902Y-19391615D01*
X8647425Y-19429710D01*
X8647425Y-19477329D01*
X8637902Y-19515424D01*
X8628378Y-19534472D01*
X8618854Y-19543996D01*
X8599806Y-19553520D01*
X8580759Y-19553520D01*
X8561711Y-19543996D01*
X8552187Y-19534472D01*
X8542664Y-19515424D01*
X8533140Y-19477329D01*
X8533140Y-19429710D01*
X8542664Y-19391615D01*
X8552187Y-19372567D01*
X8561711Y-19363043D01*
X8580759Y-19353520D01*
X8761711Y-19439234D02*
X8742664Y-19429710D01*
X8733140Y-19420186D01*
X8723616Y-19401139D01*
X8723616Y-19391615D01*
X8733140Y-19372567D01*
X8742664Y-19363043D01*
X8761711Y-19353520D01*
X8799806Y-19353520D01*
X8818854Y-19363043D01*
X8828378Y-19372567D01*
X8837902Y-19391615D01*
X8837902Y-19401139D01*
X8828378Y-19420186D01*
X8818854Y-19429710D01*
X8799806Y-19439234D01*
X8761711Y-19439234D01*
X8742664Y-19448758D01*
X8733140Y-19458281D01*
X8723616Y-19477329D01*
X8723616Y-19515424D01*
X8733140Y-19534472D01*
X8742664Y-19543996D01*
X8761711Y-19553520D01*
X8799806Y-19553520D01*
X8818854Y-19543996D01*
X8828378Y-19534472D01*
X8837902Y-19515424D01*
X8837902Y-19477329D01*
X8828378Y-19458281D01*
X8818854Y-19448758D01*
X8799806Y-19439234D01*
X9009330Y-19353520D02*
X8971235Y-19353520D01*
X8952187Y-19363043D01*
X8942664Y-19372567D01*
X8923616Y-19401139D01*
X8914092Y-19439234D01*
X8914092Y-19515424D01*
X8923616Y-19534472D01*
X8933140Y-19543996D01*
X8952187Y-19553520D01*
X8990283Y-19553520D01*
X9009330Y-19543996D01*
X9018854Y-19534472D01*
X9028378Y-19515424D01*
X9028378Y-19467805D01*
X9018854Y-19448758D01*
X9009330Y-19439234D01*
X8990283Y-19429710D01*
X8952187Y-19429710D01*
X8933140Y-19439234D01*
X8923616Y-19448758D01*
X8914092Y-19467805D01*
X9199806Y-19353520D02*
X9161711Y-19353520D01*
X9142664Y-19363043D01*
X9133140Y-19372567D01*
X9114092Y-19401139D01*
X9104568Y-19439234D01*
X9104568Y-19515424D01*
X9114092Y-19534472D01*
X9123616Y-19543996D01*
X9142664Y-19553520D01*
X9180759Y-19553520D01*
X9199806Y-19543996D01*
X9209330Y-19534472D01*
X9218854Y-19515424D01*
X9218854Y-19467805D01*
X9209330Y-19448758D01*
X9199806Y-19439234D01*
X9180759Y-19429710D01*
X9142664Y-19429710D01*
X9123616Y-19439234D01*
X9114092Y-19448758D01*
X9104568Y-19467805D01*
X9295044Y-19353520D02*
X9295044Y-19391615D01*
X9371235Y-19353520D02*
X9371235Y-19391615D01*
X9666473Y-19629710D02*
X9656949Y-19620186D01*
X9637902Y-19591615D01*
X9628378Y-19572567D01*
X9618854Y-19543996D01*
X9609330Y-19496377D01*
X9609330Y-19458281D01*
X9618854Y-19410662D01*
X9628378Y-19382091D01*
X9637902Y-19363043D01*
X9656949Y-19334472D01*
X9666473Y-19324948D01*
X9733140Y-19372567D02*
X9742664Y-19363043D01*
X9761711Y-19353520D01*
X9809330Y-19353520D01*
X9828378Y-19363043D01*
X9837902Y-19372567D01*
X9847425Y-19391615D01*
X9847425Y-19410662D01*
X9837902Y-19439234D01*
X9723616Y-19553520D01*
X9847425Y-19553520D01*
X10085521Y-19553520D02*
X10085521Y-19353520D01*
X10171235Y-19553520D02*
X10171235Y-19448758D01*
X10161711Y-19429710D01*
X10142664Y-19420186D01*
X10114092Y-19420186D01*
X10095044Y-19429710D01*
X10085521Y-19439234D01*
X10295044Y-19553520D02*
X10275997Y-19543996D01*
X10266473Y-19534472D01*
X10256949Y-19515424D01*
X10256949Y-19458281D01*
X10266473Y-19439234D01*
X10275997Y-19429710D01*
X10295044Y-19420186D01*
X10323616Y-19420186D01*
X10342664Y-19429710D01*
X10352187Y-19439234D01*
X10361711Y-19458281D01*
X10361711Y-19515424D01*
X10352187Y-19534472D01*
X10342664Y-19543996D01*
X10323616Y-19553520D01*
X10295044Y-19553520D01*
X10475997Y-19553520D02*
X10456949Y-19543996D01*
X10447425Y-19524948D01*
X10447425Y-19353520D01*
X10628378Y-19543996D02*
X10609330Y-19553520D01*
X10571235Y-19553520D01*
X10552187Y-19543996D01*
X10542664Y-19524948D01*
X10542664Y-19448758D01*
X10552187Y-19429710D01*
X10571235Y-19420186D01*
X10609330Y-19420186D01*
X10628378Y-19429710D01*
X10637902Y-19448758D01*
X10637902Y-19467805D01*
X10542664Y-19486853D01*
X10714092Y-19543996D02*
X10733140Y-19553520D01*
X10771235Y-19553520D01*
X10790283Y-19543996D01*
X10799806Y-19524948D01*
X10799806Y-19515424D01*
X10790283Y-19496377D01*
X10771235Y-19486853D01*
X10742664Y-19486853D01*
X10723616Y-19477329D01*
X10714092Y-19458281D01*
X10714092Y-19448758D01*
X10723616Y-19429710D01*
X10742664Y-19420186D01*
X10771235Y-19420186D01*
X10790283Y-19429710D01*
X10866473Y-19629710D02*
X10875997Y-19620186D01*
X10895044Y-19591615D01*
X10904568Y-19572567D01*
X10914092Y-19543996D01*
X10923616Y-19496377D01*
X10923616Y-19458281D01*
X10914092Y-19410662D01*
X10904568Y-19382091D01*
X10895044Y-19363043D01*
X10875997Y-19334472D01*
X10866473Y-19324948D01*
X11228378Y-19629710D02*
X11218854Y-19620186D01*
X11199806Y-19591615D01*
X11190282Y-19572567D01*
X11180759Y-19543996D01*
X11171235Y-19496377D01*
X11171235Y-19458281D01*
X11180759Y-19410662D01*
X11190282Y-19382091D01*
X11199806Y-19363043D01*
X11218854Y-19334472D01*
X11228378Y-19324948D01*
X11304568Y-19420186D02*
X11304568Y-19553520D01*
X11304568Y-19439234D02*
X11314092Y-19429710D01*
X11333140Y-19420186D01*
X11361711Y-19420186D01*
X11380759Y-19429710D01*
X11390282Y-19448758D01*
X11390282Y-19553520D01*
X11514092Y-19553520D02*
X11495044Y-19543996D01*
X11485521Y-19534472D01*
X11475997Y-19515424D01*
X11475997Y-19458281D01*
X11485521Y-19439234D01*
X11495044Y-19429710D01*
X11514092Y-19420186D01*
X11542663Y-19420186D01*
X11561711Y-19429710D01*
X11571235Y-19439234D01*
X11580759Y-19458281D01*
X11580759Y-19515424D01*
X11571235Y-19534472D01*
X11561711Y-19543996D01*
X11542663Y-19553520D01*
X11514092Y-19553520D01*
X11637902Y-19420186D02*
X11714092Y-19420186D01*
X11666473Y-19353520D02*
X11666473Y-19524948D01*
X11675997Y-19543996D01*
X11695044Y-19553520D01*
X11714092Y-19553520D01*
X11933140Y-19420186D02*
X11933140Y-19620186D01*
X11933140Y-19429710D02*
X11952187Y-19420186D01*
X11990282Y-19420186D01*
X12009330Y-19429710D01*
X12018854Y-19439234D01*
X12028378Y-19458281D01*
X12028378Y-19515424D01*
X12018854Y-19534472D01*
X12009330Y-19543996D01*
X11990282Y-19553520D01*
X11952187Y-19553520D01*
X11933140Y-19543996D01*
X12142663Y-19553520D02*
X12123616Y-19543996D01*
X12114092Y-19524948D01*
X12114092Y-19353520D01*
X12304568Y-19553520D02*
X12304568Y-19448758D01*
X12295044Y-19429710D01*
X12275997Y-19420186D01*
X12237902Y-19420186D01*
X12218854Y-19429710D01*
X12304568Y-19543996D02*
X12285521Y-19553520D01*
X12237902Y-19553520D01*
X12218854Y-19543996D01*
X12209330Y-19524948D01*
X12209330Y-19505901D01*
X12218854Y-19486853D01*
X12237902Y-19477329D01*
X12285521Y-19477329D01*
X12304568Y-19467805D01*
X12371235Y-19420186D02*
X12447425Y-19420186D01*
X12399806Y-19353520D02*
X12399806Y-19524948D01*
X12409330Y-19543996D01*
X12428378Y-19553520D01*
X12447425Y-19553520D01*
X12590282Y-19543996D02*
X12571235Y-19553520D01*
X12533140Y-19553520D01*
X12514092Y-19543996D01*
X12504568Y-19524948D01*
X12504568Y-19448758D01*
X12514092Y-19429710D01*
X12533140Y-19420186D01*
X12571235Y-19420186D01*
X12590282Y-19429710D01*
X12599806Y-19448758D01*
X12599806Y-19467805D01*
X12504568Y-19486853D01*
X12771235Y-19553520D02*
X12771235Y-19353520D01*
X12771235Y-19543996D02*
X12752187Y-19553520D01*
X12714092Y-19553520D01*
X12695044Y-19543996D01*
X12685521Y-19534472D01*
X12675997Y-19515424D01*
X12675997Y-19458281D01*
X12685521Y-19439234D01*
X12695044Y-19429710D01*
X12714092Y-19420186D01*
X12752187Y-19420186D01*
X12771235Y-19429710D01*
X12847425Y-19629710D02*
X12856949Y-19620186D01*
X12875997Y-19591615D01*
X12885521Y-19572567D01*
X12895044Y-19543996D01*
X12904568Y-19496377D01*
X12904568Y-19458281D01*
X12895044Y-19410662D01*
X12885521Y-19382091D01*
X12875997Y-19363043D01*
X12856949Y-19334472D01*
X12847425Y-19324948D01*
X6094568Y-19783043D02*
G75*
G03*
X6094568Y-19783043I-100000J0D01*
G01*
X6333140Y-19673520D02*
X6456949Y-19673520D01*
X6390282Y-19749710D01*
X6418854Y-19749710D01*
X6437902Y-19759234D01*
X6447425Y-19768758D01*
X6456949Y-19787805D01*
X6456949Y-19835424D01*
X6447425Y-19854472D01*
X6437902Y-19863996D01*
X6418854Y-19873520D01*
X6361711Y-19873520D01*
X6342663Y-19863996D01*
X6333140Y-19854472D01*
X6542663Y-19854472D02*
X6552187Y-19863996D01*
X6542663Y-19873520D01*
X6533140Y-19863996D01*
X6542663Y-19854472D01*
X6542663Y-19873520D01*
X6628378Y-19692567D02*
X6637902Y-19683043D01*
X6656949Y-19673520D01*
X6704568Y-19673520D01*
X6723616Y-19683043D01*
X6733140Y-19692567D01*
X6742663Y-19711615D01*
X6742663Y-19730662D01*
X6733140Y-19759234D01*
X6618854Y-19873520D01*
X6742663Y-19873520D01*
X6866473Y-19673520D02*
X6885521Y-19673520D01*
X6904568Y-19683043D01*
X6914092Y-19692567D01*
X6923616Y-19711615D01*
X6933140Y-19749710D01*
X6933140Y-19797329D01*
X6923616Y-19835424D01*
X6914092Y-19854472D01*
X6904568Y-19863996D01*
X6885521Y-19873520D01*
X6866473Y-19873520D01*
X6847425Y-19863996D01*
X6837902Y-19854472D01*
X6828378Y-19835424D01*
X6818854Y-19797329D01*
X6818854Y-19749710D01*
X6828378Y-19711615D01*
X6837902Y-19692567D01*
X6847425Y-19683043D01*
X6866473Y-19673520D01*
X7056949Y-19673520D02*
X7075997Y-19673520D01*
X7095044Y-19683043D01*
X7104568Y-19692567D01*
X7114092Y-19711615D01*
X7123616Y-19749710D01*
X7123616Y-19797329D01*
X7114092Y-19835424D01*
X7104568Y-19854472D01*
X7095044Y-19863996D01*
X7075997Y-19873520D01*
X7056949Y-19873520D01*
X7037902Y-19863996D01*
X7028378Y-19854472D01*
X7018854Y-19835424D01*
X7009330Y-19797329D01*
X7009330Y-19749710D01*
X7018854Y-19711615D01*
X7028378Y-19692567D01*
X7037902Y-19683043D01*
X7056949Y-19673520D01*
X7209330Y-19873520D02*
X7209330Y-19740186D01*
X7209330Y-19759234D02*
X7218854Y-19749710D01*
X7237902Y-19740186D01*
X7266473Y-19740186D01*
X7285521Y-19749710D01*
X7295044Y-19768758D01*
X7295044Y-19873520D01*
X7295044Y-19768758D02*
X7304568Y-19749710D01*
X7323616Y-19740186D01*
X7352187Y-19740186D01*
X7371235Y-19749710D01*
X7380759Y-19768758D01*
X7380759Y-19873520D01*
X7475997Y-19873520D02*
X7475997Y-19740186D01*
X7475997Y-19759234D02*
X7485521Y-19749710D01*
X7504568Y-19740186D01*
X7533140Y-19740186D01*
X7552187Y-19749710D01*
X7561711Y-19768758D01*
X7561711Y-19873520D01*
X7561711Y-19768758D02*
X7571235Y-19749710D01*
X7590282Y-19740186D01*
X7618854Y-19740186D01*
X7637902Y-19749710D01*
X7647425Y-19768758D01*
X7647425Y-19873520D01*
X8037902Y-19663996D02*
X7866473Y-19921139D01*
X8295044Y-19673520D02*
X8314092Y-19673520D01*
X8333140Y-19683043D01*
X8342663Y-19692567D01*
X8352187Y-19711615D01*
X8361711Y-19749710D01*
X8361711Y-19797329D01*
X8352187Y-19835424D01*
X8342663Y-19854472D01*
X8333140Y-19863996D01*
X8314092Y-19873520D01*
X8295044Y-19873520D01*
X8275997Y-19863996D01*
X8266473Y-19854472D01*
X8256949Y-19835424D01*
X8247425Y-19797329D01*
X8247425Y-19749710D01*
X8256949Y-19711615D01*
X8266473Y-19692567D01*
X8275997Y-19683043D01*
X8295044Y-19673520D01*
X8447425Y-19854472D02*
X8456949Y-19863996D01*
X8447425Y-19873520D01*
X8437902Y-19863996D01*
X8447425Y-19854472D01*
X8447425Y-19873520D01*
X8647425Y-19873520D02*
X8533140Y-19873520D01*
X8590283Y-19873520D02*
X8590283Y-19673520D01*
X8571235Y-19702091D01*
X8552187Y-19721139D01*
X8533140Y-19730662D01*
X8723616Y-19692567D02*
X8733140Y-19683043D01*
X8752187Y-19673520D01*
X8799806Y-19673520D01*
X8818854Y-19683043D01*
X8828378Y-19692567D01*
X8837902Y-19711615D01*
X8837902Y-19730662D01*
X8828378Y-19759234D01*
X8714092Y-19873520D01*
X8837902Y-19873520D01*
X9009330Y-19673520D02*
X8971235Y-19673520D01*
X8952187Y-19683043D01*
X8942664Y-19692567D01*
X8923616Y-19721139D01*
X8914092Y-19759234D01*
X8914092Y-19835424D01*
X8923616Y-19854472D01*
X8933140Y-19863996D01*
X8952187Y-19873520D01*
X8990283Y-19873520D01*
X9009330Y-19863996D01*
X9018854Y-19854472D01*
X9028378Y-19835424D01*
X9028378Y-19787805D01*
X9018854Y-19768758D01*
X9009330Y-19759234D01*
X8990283Y-19749710D01*
X8952187Y-19749710D01*
X8933140Y-19759234D01*
X8923616Y-19768758D01*
X8914092Y-19787805D01*
X9152187Y-19673520D02*
X9171235Y-19673520D01*
X9190283Y-19683043D01*
X9199806Y-19692567D01*
X9209330Y-19711615D01*
X9218854Y-19749710D01*
X9218854Y-19797329D01*
X9209330Y-19835424D01*
X9199806Y-19854472D01*
X9190283Y-19863996D01*
X9171235Y-19873520D01*
X9152187Y-19873520D01*
X9133140Y-19863996D01*
X9123616Y-19854472D01*
X9114092Y-19835424D01*
X9104568Y-19797329D01*
X9104568Y-19749710D01*
X9114092Y-19711615D01*
X9123616Y-19692567D01*
X9133140Y-19683043D01*
X9152187Y-19673520D01*
X9295044Y-19673520D02*
X9295044Y-19711615D01*
X9371235Y-19673520D02*
X9371235Y-19711615D01*
X9666473Y-19949710D02*
X9656949Y-19940186D01*
X9637902Y-19911615D01*
X9628378Y-19892567D01*
X9618854Y-19863996D01*
X9609330Y-19816377D01*
X9609330Y-19778281D01*
X9618854Y-19730662D01*
X9628378Y-19702091D01*
X9637902Y-19683043D01*
X9656949Y-19654472D01*
X9666473Y-19644948D01*
X9828378Y-19673520D02*
X9790283Y-19673520D01*
X9771235Y-19683043D01*
X9761711Y-19692567D01*
X9742664Y-19721139D01*
X9733140Y-19759234D01*
X9733140Y-19835424D01*
X9742664Y-19854472D01*
X9752187Y-19863996D01*
X9771235Y-19873520D01*
X9809330Y-19873520D01*
X9828378Y-19863996D01*
X9837902Y-19854472D01*
X9847425Y-19835424D01*
X9847425Y-19787805D01*
X9837902Y-19768758D01*
X9828378Y-19759234D01*
X9809330Y-19749710D01*
X9771235Y-19749710D01*
X9752187Y-19759234D01*
X9742664Y-19768758D01*
X9733140Y-19787805D01*
X10085521Y-19873520D02*
X10085521Y-19673520D01*
X10171235Y-19873520D02*
X10171235Y-19768758D01*
X10161711Y-19749710D01*
X10142664Y-19740186D01*
X10114092Y-19740186D01*
X10095044Y-19749710D01*
X10085521Y-19759234D01*
X10295044Y-19873520D02*
X10275997Y-19863996D01*
X10266473Y-19854472D01*
X10256949Y-19835424D01*
X10256949Y-19778281D01*
X10266473Y-19759234D01*
X10275997Y-19749710D01*
X10295044Y-19740186D01*
X10323616Y-19740186D01*
X10342664Y-19749710D01*
X10352187Y-19759234D01*
X10361711Y-19778281D01*
X10361711Y-19835424D01*
X10352187Y-19854472D01*
X10342664Y-19863996D01*
X10323616Y-19873520D01*
X10295044Y-19873520D01*
X10475997Y-19873520D02*
X10456949Y-19863996D01*
X10447425Y-19844948D01*
X10447425Y-19673520D01*
X10628378Y-19863996D02*
X10609330Y-19873520D01*
X10571235Y-19873520D01*
X10552187Y-19863996D01*
X10542664Y-19844948D01*
X10542664Y-19768758D01*
X10552187Y-19749710D01*
X10571235Y-19740186D01*
X10609330Y-19740186D01*
X10628378Y-19749710D01*
X10637902Y-19768758D01*
X10637902Y-19787805D01*
X10542664Y-19806853D01*
X10714092Y-19863996D02*
X10733140Y-19873520D01*
X10771235Y-19873520D01*
X10790283Y-19863996D01*
X10799806Y-19844948D01*
X10799806Y-19835424D01*
X10790283Y-19816377D01*
X10771235Y-19806853D01*
X10742664Y-19806853D01*
X10723616Y-19797329D01*
X10714092Y-19778281D01*
X10714092Y-19768758D01*
X10723616Y-19749710D01*
X10742664Y-19740186D01*
X10771235Y-19740186D01*
X10790283Y-19749710D01*
X10866473Y-19949710D02*
X10875997Y-19940186D01*
X10895044Y-19911615D01*
X10904568Y-19892567D01*
X10914092Y-19863996D01*
X10923616Y-19816377D01*
X10923616Y-19778281D01*
X10914092Y-19730662D01*
X10904568Y-19702091D01*
X10895044Y-19683043D01*
X10875997Y-19654472D01*
X10866473Y-19644948D01*
X11228378Y-19949710D02*
X11218854Y-19940186D01*
X11199806Y-19911615D01*
X11190282Y-19892567D01*
X11180759Y-19863996D01*
X11171235Y-19816377D01*
X11171235Y-19778281D01*
X11180759Y-19730662D01*
X11190282Y-19702091D01*
X11199806Y-19683043D01*
X11218854Y-19654472D01*
X11228378Y-19644948D01*
X11304568Y-19740186D02*
X11304568Y-19873520D01*
X11304568Y-19759234D02*
X11314092Y-19749710D01*
X11333140Y-19740186D01*
X11361711Y-19740186D01*
X11380759Y-19749710D01*
X11390282Y-19768758D01*
X11390282Y-19873520D01*
X11514092Y-19873520D02*
X11495044Y-19863996D01*
X11485521Y-19854472D01*
X11475997Y-19835424D01*
X11475997Y-19778281D01*
X11485521Y-19759234D01*
X11495044Y-19749710D01*
X11514092Y-19740186D01*
X11542663Y-19740186D01*
X11561711Y-19749710D01*
X11571235Y-19759234D01*
X11580759Y-19778281D01*
X11580759Y-19835424D01*
X11571235Y-19854472D01*
X11561711Y-19863996D01*
X11542663Y-19873520D01*
X11514092Y-19873520D01*
X11637902Y-19740186D02*
X11714092Y-19740186D01*
X11666473Y-19673520D02*
X11666473Y-19844948D01*
X11675997Y-19863996D01*
X11695044Y-19873520D01*
X11714092Y-19873520D01*
X11933140Y-19740186D02*
X11933140Y-19940186D01*
X11933140Y-19749710D02*
X11952187Y-19740186D01*
X11990282Y-19740186D01*
X12009330Y-19749710D01*
X12018854Y-19759234D01*
X12028378Y-19778281D01*
X12028378Y-19835424D01*
X12018854Y-19854472D01*
X12009330Y-19863996D01*
X11990282Y-19873520D01*
X11952187Y-19873520D01*
X11933140Y-19863996D01*
X12142663Y-19873520D02*
X12123616Y-19863996D01*
X12114092Y-19844948D01*
X12114092Y-19673520D01*
X12304568Y-19873520D02*
X12304568Y-19768758D01*
X12295044Y-19749710D01*
X12275997Y-19740186D01*
X12237902Y-19740186D01*
X12218854Y-19749710D01*
X12304568Y-19863996D02*
X12285521Y-19873520D01*
X12237902Y-19873520D01*
X12218854Y-19863996D01*
X12209330Y-19844948D01*
X12209330Y-19825901D01*
X12218854Y-19806853D01*
X12237902Y-19797329D01*
X12285521Y-19797329D01*
X12304568Y-19787805D01*
X12371235Y-19740186D02*
X12447425Y-19740186D01*
X12399806Y-19673520D02*
X12399806Y-19844948D01*
X12409330Y-19863996D01*
X12428378Y-19873520D01*
X12447425Y-19873520D01*
X12590282Y-19863996D02*
X12571235Y-19873520D01*
X12533140Y-19873520D01*
X12514092Y-19863996D01*
X12504568Y-19844948D01*
X12504568Y-19768758D01*
X12514092Y-19749710D01*
X12533140Y-19740186D01*
X12571235Y-19740186D01*
X12590282Y-19749710D01*
X12599806Y-19768758D01*
X12599806Y-19787805D01*
X12504568Y-19806853D01*
X12771235Y-19873520D02*
X12771235Y-19673520D01*
X12771235Y-19863996D02*
X12752187Y-19873520D01*
X12714092Y-19873520D01*
X12695044Y-19863996D01*
X12685521Y-19854472D01*
X12675997Y-19835424D01*
X12675997Y-19778281D01*
X12685521Y-19759234D01*
X12695044Y-19749710D01*
X12714092Y-19740186D01*
X12752187Y-19740186D01*
X12771235Y-19749710D01*
X12847425Y-19949710D02*
X12856949Y-19940186D01*
X12875997Y-19911615D01*
X12885521Y-19892567D01*
X12895044Y-19863996D01*
X12904568Y-19816377D01*
X12904568Y-19778281D01*
X12895044Y-19730662D01*
X12885521Y-19702091D01*
X12875997Y-19683043D01*
X12856949Y-19654472D01*
X12847425Y-19644948D01*
M02*
