G04 #@! TF.GenerationSoftware,KiCad,Pcbnew,(6.0.7)*
G04 #@! TF.CreationDate,2022-12-19T11:26:14-08:00*
G04 #@! TF.ProjectId,openot rev2,6f70656e-6f74-4207-9265-76322e6b6963,rev?*
G04 #@! TF.SameCoordinates,Original*
G04 #@! TF.FileFunction,Soldermask,Top*
G04 #@! TF.FilePolarity,Negative*
%FSLAX46Y46*%
G04 Gerber Fmt 4.6, Leading zero omitted, Abs format (unit mm)*
G04 Created by KiCad (PCBNEW (6.0.7)) date 2022-12-19 11:26:14*
%MOMM*%
%LPD*%
G01*
G04 APERTURE LIST*
G04 Aperture macros list*
%AMRoundRect*
0 Rectangle with rounded corners*
0 $1 Rounding radius*
0 $2 $3 $4 $5 $6 $7 $8 $9 X,Y pos of 4 corners*
0 Add a 4 corners polygon primitive as box body*
4,1,4,$2,$3,$4,$5,$6,$7,$8,$9,$2,$3,0*
0 Add four circle primitives for the rounded corners*
1,1,$1+$1,$2,$3*
1,1,$1+$1,$4,$5*
1,1,$1+$1,$6,$7*
1,1,$1+$1,$8,$9*
0 Add four rect primitives between the rounded corners*
20,1,$1+$1,$2,$3,$4,$5,0*
20,1,$1+$1,$4,$5,$6,$7,0*
20,1,$1+$1,$6,$7,$8,$9,0*
20,1,$1+$1,$8,$9,$2,$3,0*%
G04 Aperture macros list end*
%ADD10RoundRect,1.059000X6.992000X6.992000X-6.992000X6.992000X-6.992000X-6.992000X6.992000X-6.992000X0*%
%ADD11C,3.302000*%
%ADD12C,2.302000*%
G04 APERTURE END LIST*
D10*
X213092800Y-133693600D03*
X251797533Y-95022285D03*
X77710800Y-133693600D03*
X155053800Y-152794400D03*
X213092800Y-114389600D03*
X271131800Y-133693600D03*
X97014800Y-114389600D03*
X174357800Y-133693600D03*
X251827800Y-133693600D03*
X297370000Y-177330800D03*
X77660000Y-172200000D03*
X96984533Y-95022285D03*
X251777000Y-172200000D03*
X213062533Y-95022285D03*
X213097667Y-152756115D03*
X316597800Y-177330801D03*
X135749800Y-133693600D03*
X335901801Y-177330801D03*
X174327533Y-95022285D03*
X155053800Y-114389600D03*
X116318800Y-133693600D03*
X271131800Y-152794400D03*
X232528667Y-152756115D03*
X232366533Y-95022285D03*
X271101533Y-95022285D03*
X271131800Y-114389600D03*
X116318800Y-114389600D03*
X251827800Y-114389600D03*
X135749800Y-152794400D03*
X135719533Y-95022285D03*
X193788800Y-133693600D03*
X193788800Y-114389600D03*
X232396800Y-114389600D03*
X155023533Y-95022285D03*
X193758533Y-95022285D03*
X355205801Y-177330801D03*
X174489667Y-152756115D03*
X97014800Y-152794400D03*
X251827800Y-152794400D03*
X77710800Y-152794400D03*
X116318800Y-152794400D03*
X97014800Y-133693600D03*
X96964000Y-172200000D03*
X135749800Y-114389600D03*
X77680533Y-95022285D03*
X271081000Y-172200000D03*
X174357800Y-114389600D03*
X77710800Y-114389600D03*
X193793667Y-152756115D03*
X232574600Y-172200000D03*
X232396800Y-133693600D03*
X116268000Y-172200000D03*
X116288533Y-95022285D03*
X155053800Y-133693600D03*
D11*
X371053483Y-81170234D03*
D12*
X197857667Y-179339132D03*
D11*
X371256683Y-135221434D03*
X64577083Y-134510234D03*
X65034283Y-81475034D03*
X65389883Y-182871834D03*
D12*
X149013467Y-179364532D03*
D11*
X371205883Y-183887834D03*
M02*
