G04 #@! TF.GenerationSoftware,KiCad,Pcbnew,7.0.1*
G04 #@! TF.CreationDate,2023-03-23T13:52:39-07:00*
G04 #@! TF.ProjectId,mcu daughterboard,6d637520-6461-4756-9768-746572626f61,rev?*
G04 #@! TF.SameCoordinates,Original*
G04 #@! TF.FileFunction,Paste,Bot*
G04 #@! TF.FilePolarity,Positive*
%FSLAX46Y46*%
G04 Gerber Fmt 4.6, Leading zero omitted, Abs format (unit mm)*
G04 Created by KiCad (PCBNEW 7.0.1) date 2023-03-23 13:52:39*
%MOMM*%
%LPD*%
G01*
G04 APERTURE LIST*
G04 Aperture macros list*
%AMRoundRect*
0 Rectangle with rounded corners*
0 $1 Rounding radius*
0 $2 $3 $4 $5 $6 $7 $8 $9 X,Y pos of 4 corners*
0 Add a 4 corners polygon primitive as box body*
4,1,4,$2,$3,$4,$5,$6,$7,$8,$9,$2,$3,0*
0 Add four circle primitives for the rounded corners*
1,1,$1+$1,$2,$3*
1,1,$1+$1,$4,$5*
1,1,$1+$1,$6,$7*
1,1,$1+$1,$8,$9*
0 Add four rect primitives between the rounded corners*
20,1,$1+$1,$2,$3,$4,$5,0*
20,1,$1+$1,$4,$5,$6,$7,0*
20,1,$1+$1,$6,$7,$8,$9,0*
20,1,$1+$1,$8,$9,$2,$3,0*%
G04 Aperture macros list end*
%ADD10RoundRect,0.250000X-0.088388X0.548008X-0.548008X0.088388X0.088388X-0.548008X0.548008X-0.088388X0*%
%ADD11RoundRect,0.250000X0.450000X-0.325000X0.450000X0.325000X-0.450000X0.325000X-0.450000X-0.325000X0*%
%ADD12RoundRect,0.250000X-0.325000X-0.450000X0.325000X-0.450000X0.325000X0.450000X-0.325000X0.450000X0*%
%ADD13RoundRect,0.250000X-0.450000X0.325000X-0.450000X-0.325000X0.450000X-0.325000X0.450000X0.325000X0*%
%ADD14R,1.500000X0.550000*%
%ADD15R,0.550000X1.500000*%
%ADD16RoundRect,0.250000X0.325000X0.450000X-0.325000X0.450000X-0.325000X-0.450000X0.325000X-0.450000X0*%
%ADD17R,1.300000X1.600000*%
G04 APERTURE END LIST*
D10*
X131018126Y-116364132D03*
X129568558Y-117813700D03*
D11*
X151448558Y-117059804D03*
X151448558Y-115009804D03*
X154038558Y-106538700D03*
X154038558Y-104488700D03*
D12*
X147275000Y-89960000D03*
X149325000Y-89960000D03*
D13*
X130998558Y-106149804D03*
X130998558Y-108199804D03*
D12*
X151253558Y-95264804D03*
X153303558Y-95264804D03*
X151253558Y-102264804D03*
X153303558Y-102264804D03*
D14*
X146618558Y-95004804D03*
X146618558Y-95804804D03*
X146618558Y-96604804D03*
X146618558Y-97404804D03*
X146618558Y-98204804D03*
X146618558Y-99004804D03*
X146618558Y-99804804D03*
X146618558Y-100604804D03*
X146618558Y-101404804D03*
X146618558Y-102204804D03*
X146618558Y-103004804D03*
D15*
X144918558Y-104704804D03*
X144118558Y-104704804D03*
X143318558Y-104704804D03*
X142518558Y-104704804D03*
X141718558Y-104704804D03*
X140918558Y-104704804D03*
X140118558Y-104704804D03*
X139318558Y-104704804D03*
X138518558Y-104704804D03*
X137718558Y-104704804D03*
X136918558Y-104704804D03*
D14*
X135218558Y-103004804D03*
X135218558Y-102204804D03*
X135218558Y-101404804D03*
X135218558Y-100604804D03*
X135218558Y-99804804D03*
X135218558Y-99004804D03*
X135218558Y-98204804D03*
X135218558Y-97404804D03*
X135218558Y-96604804D03*
X135218558Y-95804804D03*
X135218558Y-95004804D03*
D15*
X136918558Y-93304804D03*
X137718558Y-93304804D03*
X138518558Y-93304804D03*
X139318558Y-93304804D03*
X140118558Y-93304804D03*
X140918558Y-93304804D03*
X141718558Y-93304804D03*
X142518558Y-93304804D03*
X143318558Y-93304804D03*
X144118558Y-93304804D03*
X144918558Y-93304804D03*
D12*
X144023558Y-112871054D03*
X146073558Y-112871054D03*
D16*
X132915000Y-92990000D03*
X130865000Y-92990000D03*
D12*
X151253558Y-98264804D03*
X153303558Y-98264804D03*
D17*
X150448558Y-112684804D03*
X150448558Y-109384804D03*
X152448558Y-109384804D03*
X152448558Y-112684804D03*
M02*
