M48
; DRILL file {KiCad 7.0.1} date Thu Mar 23 13:52:37 2023
; FORMAT={-:-/ absolute / inch / decimal}
; #@! TF.CreationDate,2023-03-23T13:52:37-07:00
; #@! TF.GenerationSoftware,Kicad,Pcbnew,7.0.1
; #@! TF.FileFunction,Plated,1,2,PTH
FMAT,2
INCH
; #@! TA.AperFunction,Plated,PTH,ViaDrill
T1C0.0079
; #@! TA.AperFunction,Plated,PTH,ViaDrill
T2C0.0157
; #@! TA.AperFunction,Plated,PTH,ComponentDrill
T3C0.0394
%
G90
G05
T1
X5.4531Y-3.6578
X5.6121Y-4.1172
X5.6747Y-4.1172
X5.7724Y-3.9608
T2
X5.0425Y-3.5826
X5.0779Y-3.6219
X5.0779Y-3.9487
X5.1251Y-3.9999
X5.1251Y-4.0432
X5.1251Y-4.0904
X5.1446Y-3.7836
X5.1724Y-3.7558
X5.1842Y-4.3857
X5.1852Y-3.8345
X5.2039Y-3.9369
X5.211Y-4.5285
X5.2157Y-3.7952
X5.2358Y-4.273
X5.2539Y-4.1554
X5.259Y-3.8149
X5.2885Y-4.1269
X5.317Y-4.0984
X5.4086Y-3.807
X5.4161Y-3.477
X5.4629Y-3.807
X5.4677Y-3.7322
X5.4913Y-3.7715
X5.5303Y-3.9519
X5.5346Y-3.8109
X5.5425Y-4.2125
X5.5842Y-3.812
X5.5897Y-4.1876
X5.5936Y-4.0686
X5.6212Y-3.9999
X5.6312Y-3.8106
X5.6527Y-3.9645
X5.6842Y-4.227
X5.6999Y-4.0471
X5.7118Y-3.9487
X5.7413Y-4.2273
X5.7744Y-4.1849
X5.8259Y-3.8333
X5.8301Y-4.1431
X5.8331Y-3.782
X5.8968Y-4.0065
X5.8969Y-4.1837
X5.9007Y-3.8136
X6.0326Y-3.9278
T3
X4.9456Y-3.4065
X4.946Y-3.5506
X4.946Y-3.6506
X4.946Y-3.7506
X4.946Y-3.8506
X4.946Y-3.9506
X4.946Y-4.0506
X4.946Y-4.1506
X4.946Y-4.2506
X4.946Y-4.3506
X4.946Y-4.4506
X4.946Y-4.5506
X4.946Y-4.6506
X5.0456Y-3.4065
X5.1456Y-3.4065
X5.2456Y-3.4065
X5.2905Y-4.4463
X5.3169Y-3.4908
X5.3456Y-3.4065
X5.3905Y-4.4463
X5.4456Y-3.4065
X5.4905Y-4.4463
X5.5456Y-3.4065
X5.5905Y-4.4463
X5.6456Y-3.4065
X5.7456Y-3.4065
X5.8456Y-3.4065
X5.9456Y-3.4065
X6.0452Y-3.5393
X6.0452Y-3.6393
X6.0456Y-3.4065
T0
M30
