<?xml version="1.0" encoding="UTF-8" standalone="no"?>
<svg
   xmlns:dc="http://purl.org/dc/elements/1.1/"
   xmlns:cc="http://creativecommons.org/ns#"
   xmlns:rdf="http://www.w3.org/1999/02/22-rdf-syntax-ns#"
   xmlns:svg="http://www.w3.org/2000/svg"
   xmlns="http://www.w3.org/2000/svg"
   xmlns:xlink="http://www.w3.org/1999/xlink"
   style="shape-rendering:crispEdges"
   width="512"
   height="512.00073"
   viewBox="0 0 135.46666 135.46686"
   version="1.1"
   id="svg8">
  <title
     id="title3000">Abstract Pattern 48</title>
  <defs
     id="defs2" />
  <metadata
     id="metadata5">
    <rdf:RDF>
      <cc:Work
         rdf:about="">
        <dc:format>image/svg+xml</dc:format>
        <dc:type
           rdf:resource="http://purl.org/dc/dcmitype/StillImage" />
        <dc:title>Abstract Pattern 48</dc:title>
        <cc:license
           rdf:resource="http://creativecommons.org/publicdomain/zero/1.0/" />
        <dc:creator>
          <cc:Agent>
            <dc:title>Arvin61r58</dc:title>
          </cc:Agent>
        </dc:creator>
        <dc:publisher>
          <cc:Agent>
            <dc:title>Openclipart.org</dc:title>
          </cc:Agent>
        </dc:publisher>
        <dc:identifier>https://openclipart.org/</dc:identifier>
        <dc:source>https://openclipart.org/user-detail/Arvin61r58</dc:source>
        <dc:subject>
          <rdf:Bag>
            <rdf:li>abstract</rdf:li>
            <rdf:li>germetric</rdf:li>
            <rdf:li>pattern</rdf:li>
            <rdf:li>seamless</rdf:li>
            <rdf:li>tileable</rdf:li>
          </rdf:Bag>
        </dc:subject>
        <dc:description>Seamless/tileable pattern</dc:description>
      </cc:Work>
      <cc:License
         rdf:about="http://creativecommons.org/publicdomain/zero/1.0/">
        <cc:permits
           rdf:resource="http://creativecommons.org/ns#Reproduction" />
        <cc:permits
           rdf:resource="http://creativecommons.org/ns#Distribution" />
        <cc:permits
           rdf:resource="http://creativecommons.org/ns#DerivativeWorks" />
      </cc:License>
    </rdf:RDF>
  </metadata>
  <g
     transform="translate(-31.580664,-96.067422)"
     id="g2977">
    <title
       id="title2998">Abstract Pattern 48  --  by Arvin61r58</title>
    <g
       id="g864"
       transform="matrix(0.50000007,0,0,0.50000007,10.120976,38.539414)"
       style="stroke-width:1.99999976">
      <path
         id="path839"
         d="m 42.919369,115.056 v 2.91042 h 2.910416 V 115.056 Z m 5.556249,0 v 3.43959 h -1.058333 -1.058333 v 1.05833 1.05833 h -3.439583 v 1.5875 h 5.027083 v -1.05833 -1.05833 h 1.058333 1.058333 V 115.056 Z m 4.233334,0 v 5.02709 h 1.058333 1.058333 v 1.05833 1.05833 h 5.027084 v -1.5875 h -3.439584 v -1.05833 -1.05833 H 55.354785 54.296452 V 115.056 Z m 4.233333,0 v 2.91042 h 2.910417 V 115.056 Z m -6.35,5.55625 v 0.79375 0.79375 h 0.79375 0.79375 v -0.79375 -0.79375 h -0.79375 z m -2.116667,2.11667 v 0.79375 0.79375 h 0.79375 0.79375 v -0.79375 -0.79375 h -0.79375 z m 4.233334,0 v 0.79375 0.79375 h 0.79375 0.79375 v -0.79375 -0.79375 h -0.79375 z m -9.789583,2.11667 v 1.5875 h 3.439583 v 1.05833 1.05833 h 1.058333 1.058333 v 3.43959 h 1.5875 v -5.02709 h -1.058333 -1.058333 v -1.05833 -1.05833 z m 7.672916,0 v 0.79375 0.79375 h 0.79375 0.79375 v -0.79375 -0.79375 h -0.79375 z m 4.233333,0 v 1.05833 1.05833 h -1.058333 -1.058333 v 5.02709 h 1.5875 v -3.43959 h 1.058333 1.058333 v -1.05833 -1.05833 h 3.439584 v -1.5875 z m -11.906249,4.23333 v 2.91042 h 2.910416 v -2.91042 z m 14.022916,0 v 2.91042 h 2.910417 v -2.91042 z"
         style="fill:#000000;stroke-width:1.99999976" />
      <path
         style="fill:#000000;stroke-width:1.99999976"
         d="m 59.852702,115.056 v 2.91042 h 2.910417 V 115.056 Z m 5.55625,0 v 3.43958 h -1.058333 -1.058334 v 1.05835 1.05832 h -3.439583 v 1.58751 h 5.027083 v -1.05833 -1.05834 h 1.058334 1.058333 v -5.02708 z m 4.233333,0 v 5.02708 h 1.058334 1.058333 v 1.05834 1.05833 h 5.027079 v -1.5875 h -3.439579 v -1.05833 -1.05834 H 72.288119 71.229785 V 115.056 Z m 4.233336,0 v 2.91042 h 2.91041 V 115.056 Z m -6.350002,5.55625 v 0.79376 0.79375 h 0.79375 0.79375 v -0.79375 -0.79376 h -0.79375 z m -2.116667,2.11667 v 0.79376 0.79375 h 0.79375 0.79375 v -0.79375 -0.79376 h -0.79375 z m 4.233333,0 v 0.79376 0.79375 h 0.79375 0.79375 v -0.79375 -0.79376 h -0.79375 z m -9.789583,2.11666 v 1.5875 h 3.439583 v 1.05834 1.05833 h 1.058334 1.058333 v 3.43958 h 1.5875 v -5.02708 h -1.058333 -1.058334 v -1.05833 -1.05834 z m 7.672917,0 v 0.79375 0.79375 h 0.79375 0.79375 v -0.79375 -0.79375 h -0.79375 z m 4.233333,0 v 1.05834 1.05834 h -1.058333 -1.058334 v 5.02708 h 1.5875 v -3.43958 h 1.058334 1.058333 v -1.05833 -1.05834 h 3.439579 v -1.5875 z m -11.90625,4.23335 v 2.91041 h 2.910417 v -2.91041 z m 14.022919,0 v 2.91041 h 2.91041 v -2.91041 z"
         id="path844" />
      <path
         style="fill:#000000;stroke-width:1.99999976"
         d="m 42.919369,131.98937 v 2.91042 h 2.910416 v -2.91042 z m 5.556249,0 v 3.43959 h -1.058333 -1.058333 v 1.05833 1.05833 h -3.439583 v 1.5875 h 5.027083 v -1.05833 -1.05833 h 1.058333 1.058333 v -5.02709 z m 4.233334,0 v 5.02709 h 1.058333 1.058333 v 1.05833 1.05833 h 5.027084 v -1.5875 h -3.439584 v -1.05833 -1.05833 h -1.058333 -1.058333 v -3.43959 z m 4.233333,0 v 2.91042 h 2.910417 v -2.91042 z m -6.35,5.55625 v 0.79375 0.79375 h 0.79375 0.79375 v -0.79375 -0.79375 h -0.79375 z m -2.116667,2.11667 v 0.79375 0.79375 h 0.79375 0.79375 v -0.79375 -0.79375 h -0.79375 z m 4.233334,0 v 0.79375 0.79375 h 0.79375 0.79375 v -0.79375 -0.79375 h -0.79375 z m -9.789583,2.11667 v 1.5875 h 3.439583 v 1.05833 1.05833 h 1.058333 1.058333 v 3.43959 h 1.5875 v -5.02709 h -1.058333 -1.058333 v -1.05833 -1.05833 z m 7.672916,0 v 0.79375 0.79375 h 0.79375 0.79375 v -0.79375 -0.79375 h -0.79375 z m 4.233333,0 v 1.05833 1.05833 h -1.058333 -1.058333 v 5.02709 h 1.5875 v -3.43959 h 1.058333 1.058333 v -1.05833 -1.05833 h 3.439584 v -1.5875 z m -11.906249,4.23333 v 2.91042 h 2.910416 v -2.91042 z m 14.022916,0 v 2.91042 h 2.910417 v -2.91042 z"
         id="path850" />
      <path
         id="path852"
         d="m 59.852702,131.98937 v 2.91042 h 2.910417 v -2.91042 z m 5.55625,0 v 3.43958 h -1.058333 -1.058334 v 1.05835 1.05832 h -3.439583 v 1.58751 h 5.027083 v -1.05833 -1.05834 h 1.058334 1.058333 v -5.02708 z m 4.233333,0 v 5.02708 h 1.058334 1.058333 v 1.05834 1.05833 h 5.027079 v -1.5875 h -3.439579 v -1.05833 -1.05834 h -1.058333 -1.058334 v -3.43958 z m 4.233336,0 v 2.91042 h 2.91041 v -2.91042 z m -6.350002,5.55625 v 0.79376 0.79375 h 0.79375 0.79375 v -0.79375 -0.79376 h -0.79375 z m -2.116667,2.11667 v 0.79376 0.79375 h 0.79375 0.79375 v -0.79375 -0.79376 h -0.79375 z m 4.233333,0 v 0.79376 0.79375 h 0.79375 0.79375 v -0.79375 -0.79376 h -0.79375 z m -9.789583,2.11666 v 1.5875 h 3.439583 v 1.05834 1.05833 h 1.058334 1.058333 v 3.43958 h 1.5875 v -5.02708 h -1.058333 -1.058334 v -1.05833 -1.05834 z m 7.672917,0 v 0.79375 0.79375 h 0.79375 0.79375 v -0.79375 -0.79375 h -0.79375 z m 4.233333,0 v 1.05834 1.05834 h -1.058333 -1.058334 v 5.02708 h 1.5875 v -3.43958 h 1.058334 1.058333 v -1.05833 -1.05834 h 3.439579 v -1.5875 z m -11.90625,4.23335 v 2.91041 h 2.910417 v -2.91041 z m 14.022919,0 v 2.91041 h 2.91041 v -2.91041 z"
         style="fill:#000000;stroke-width:1.99999976" />
    </g>
    <use
       height="100%"
       width="100%"
       x="0"
       y="0"
       xlink:href="#g864"
       transform="translate(0,16.933357)"
       id="use2783" />
    <use
       height="100%"
       width="100%"
       x="0"
       y="0"
       xlink:href="#g864"
       transform="translate(0,33.866714)"
       id="use2785" />
    <use
       height="100%"
       width="100%"
       x="0"
       y="0"
       xlink:href="#g864"
       transform="translate(0,50.800071)"
       id="use2787" />
    <use
       height="100%"
       width="100%"
       x="0"
       y="0"
       xlink:href="#g864"
       transform="translate(0,67.733428)"
       id="use2789" />
    <use
       height="100%"
       width="100%"
       x="0"
       y="0"
       xlink:href="#g864"
       transform="translate(0,84.666785)"
       id="use2791" />
    <use
       height="100%"
       width="100%"
       x="0"
       y="0"
       xlink:href="#g864"
       transform="translate(0,101.60014)"
       id="use2793" />
    <use
       height="100%"
       width="100%"
       x="0"
       y="0"
       xlink:href="#g864"
       transform="translate(0,118.5335)"
       id="use2795" />
    <use
       height="100%"
       width="100%"
       x="0"
       y="0"
       xlink:href="#g864"
       transform="translate(16.933333)"
       id="use2797" />
    <use
       height="100%"
       width="100%"
       x="0"
       y="0"
       xlink:href="#g864"
       transform="translate(16.933333,16.933357)"
       id="use2799" />
    <use
       height="100%"
       width="100%"
       x="0"
       y="0"
       xlink:href="#g864"
       transform="translate(16.933333,33.866714)"
       id="use2801" />
    <use
       height="100%"
       width="100%"
       x="0"
       y="0"
       xlink:href="#g864"
       transform="translate(16.933333,50.800071)"
       id="use2803" />
    <use
       height="100%"
       width="100%"
       x="0"
       y="0"
       xlink:href="#g864"
       transform="translate(16.933333,67.733428)"
       id="use2805" />
    <use
       height="100%"
       width="100%"
       x="0"
       y="0"
       xlink:href="#g864"
       transform="translate(16.933333,84.666785)"
       id="use2807" />
    <use
       height="100%"
       width="100%"
       x="0"
       y="0"
       xlink:href="#g864"
       transform="translate(16.933333,101.60014)"
       id="use2809" />
    <use
       height="100%"
       width="100%"
       x="0"
       y="0"
       xlink:href="#g864"
       transform="translate(16.933333,118.5335)"
       id="use2811" />
    <use
       height="100%"
       width="100%"
       x="0"
       y="0"
       xlink:href="#g864"
       transform="translate(33.866666)"
       id="use2813" />
    <use
       height="100%"
       width="100%"
       x="0"
       y="0"
       xlink:href="#g864"
       transform="translate(33.866666,16.933357)"
       id="use2815" />
    <use
       height="100%"
       width="100%"
       x="0"
       y="0"
       xlink:href="#g864"
       transform="translate(33.866666,33.866714)"
       id="use2817" />
    <use
       height="100%"
       width="100%"
       x="0"
       y="0"
       xlink:href="#g864"
       transform="translate(33.866666,50.800071)"
       id="use2819" />
    <use
       height="100%"
       width="100%"
       x="0"
       y="0"
       xlink:href="#g864"
       transform="translate(33.866666,67.733428)"
       id="use2821" />
    <use
       height="100%"
       width="100%"
       x="0"
       y="0"
       xlink:href="#g864"
       transform="translate(33.866666,84.666785)"
       id="use2823" />
    <use
       height="100%"
       width="100%"
       x="0"
       y="0"
       xlink:href="#g864"
       transform="translate(33.866666,101.60014)"
       id="use2825" />
    <use
       height="100%"
       width="100%"
       x="0"
       y="0"
       xlink:href="#g864"
       transform="translate(33.866666,118.5335)"
       id="use2827" />
    <use
       height="100%"
       width="100%"
       x="0"
       y="0"
       xlink:href="#g864"
       transform="translate(50.799999)"
       id="use2829" />
    <use
       height="100%"
       width="100%"
       x="0"
       y="0"
       xlink:href="#g864"
       transform="translate(50.799999,16.933357)"
       id="use2831" />
    <use
       height="100%"
       width="100%"
       x="0"
       y="0"
       xlink:href="#g864"
       transform="translate(50.799999,33.866714)"
       id="use2833" />
    <use
       height="100%"
       width="100%"
       x="0"
       y="0"
       xlink:href="#g864"
       transform="translate(50.799999,50.800071)"
       id="use2835" />
    <use
       height="100%"
       width="100%"
       x="0"
       y="0"
       xlink:href="#g864"
       transform="translate(50.799999,67.733428)"
       id="use2837" />
    <use
       height="100%"
       width="100%"
       x="0"
       y="0"
       xlink:href="#g864"
       transform="translate(50.799999,84.666785)"
       id="use2839" />
    <use
       height="100%"
       width="100%"
       x="0"
       y="0"
       xlink:href="#g864"
       transform="translate(50.799999,101.60014)"
       id="use2841" />
    <use
       height="100%"
       width="100%"
       x="0"
       y="0"
       xlink:href="#g864"
       transform="translate(50.799999,118.5335)"
       id="use2843" />
    <use
       height="100%"
       width="100%"
       x="0"
       y="0"
       xlink:href="#g864"
       transform="translate(67.733332)"
       id="use2845" />
    <use
       height="100%"
       width="100%"
       x="0"
       y="0"
       xlink:href="#g864"
       transform="translate(67.733332,16.933357)"
       id="use2847" />
    <use
       height="100%"
       width="100%"
       x="0"
       y="0"
       xlink:href="#g864"
       transform="translate(67.733332,33.866714)"
       id="use2849" />
    <use
       height="100%"
       width="100%"
       x="0"
       y="0"
       xlink:href="#g864"
       transform="translate(67.733332,50.800071)"
       id="use2851" />
    <use
       height="100%"
       width="100%"
       x="0"
       y="0"
       xlink:href="#g864"
       transform="translate(67.733332,67.733428)"
       id="use2853" />
    <use
       height="100%"
       width="100%"
       x="0"
       y="0"
       xlink:href="#g864"
       transform="translate(67.733332,84.666785)"
       id="use2855" />
    <use
       height="100%"
       width="100%"
       x="0"
       y="0"
       xlink:href="#g864"
       transform="translate(67.733332,101.60014)"
       id="use2857" />
    <use
       height="100%"
       width="100%"
       x="0"
       y="0"
       xlink:href="#g864"
       transform="translate(67.733332,118.5335)"
       id="use2859" />
    <use
       height="100%"
       width="100%"
       x="0"
       y="0"
       xlink:href="#g864"
       transform="translate(84.666665)"
       id="use2861" />
    <use
       height="100%"
       width="100%"
       x="0"
       y="0"
       xlink:href="#g864"
       transform="translate(84.666665,16.933357)"
       id="use2863" />
    <use
       height="100%"
       width="100%"
       x="0"
       y="0"
       xlink:href="#g864"
       transform="translate(84.666665,33.866714)"
       id="use2865" />
    <use
       height="100%"
       width="100%"
       x="0"
       y="0"
       xlink:href="#g864"
       transform="translate(84.666665,50.800071)"
       id="use2867" />
    <use
       height="100%"
       width="100%"
       x="0"
       y="0"
       xlink:href="#g864"
       transform="translate(84.666665,67.733428)"
       id="use2869" />
    <use
       height="100%"
       width="100%"
       x="0"
       y="0"
       xlink:href="#g864"
       transform="translate(84.666665,84.666785)"
       id="use2871" />
    <use
       height="100%"
       width="100%"
       x="0"
       y="0"
       xlink:href="#g864"
       transform="translate(84.666665,101.60014)"
       id="use2873" />
    <use
       height="100%"
       width="100%"
       x="0"
       y="0"
       xlink:href="#g864"
       transform="translate(84.666665,118.5335)"
       id="use2875" />
    <use
       height="100%"
       width="100%"
       x="0"
       y="0"
       xlink:href="#g864"
       transform="translate(101.6)"
       id="use2877" />
    <use
       height="100%"
       width="100%"
       x="0"
       y="0"
       xlink:href="#g864"
       transform="translate(101.6,16.933357)"
       id="use2879" />
    <use
       height="100%"
       width="100%"
       x="0"
       y="0"
       xlink:href="#g864"
       transform="translate(101.6,33.866714)"
       id="use2881" />
    <use
       height="100%"
       width="100%"
       x="0"
       y="0"
       xlink:href="#g864"
       transform="translate(101.6,50.800071)"
       id="use2883" />
    <use
       height="100%"
       width="100%"
       x="0"
       y="0"
       xlink:href="#g864"
       transform="translate(101.6,67.733428)"
       id="use2885" />
    <use
       height="100%"
       width="100%"
       x="0"
       y="0"
       xlink:href="#g864"
       transform="translate(101.6,84.666785)"
       id="use2887" />
    <use
       height="100%"
       width="100%"
       x="0"
       y="0"
       xlink:href="#g864"
       transform="translate(101.6,101.60014)"
       id="use2889" />
    <use
       height="100%"
       width="100%"
       x="0"
       y="0"
       xlink:href="#g864"
       transform="translate(101.6,118.5335)"
       id="use2891" />
    <use
       height="100%"
       width="100%"
       x="0"
       y="0"
       xlink:href="#g864"
       transform="translate(118.53333)"
       id="use2893" />
    <use
       height="100%"
       width="100%"
       x="0"
       y="0"
       xlink:href="#g864"
       transform="translate(118.53333,16.933357)"
       id="use2895" />
    <use
       height="100%"
       width="100%"
       x="0"
       y="0"
       xlink:href="#g864"
       transform="translate(118.53333,33.866714)"
       id="use2897" />
    <use
       height="100%"
       width="100%"
       x="0"
       y="0"
       xlink:href="#g864"
       transform="translate(118.53333,50.800071)"
       id="use2899" />
    <use
       height="100%"
       width="100%"
       x="0"
       y="0"
       xlink:href="#g864"
       transform="translate(118.53333,67.733428)"
       id="use2901" />
    <use
       height="100%"
       width="100%"
       x="0"
       y="0"
       xlink:href="#g864"
       transform="translate(118.53333,84.666785)"
       id="use2903" />
    <use
       height="100%"
       width="100%"
       x="0"
       y="0"
       xlink:href="#g864"
       transform="translate(118.53333,101.60014)"
       id="use2905" />
    <use
       height="100%"
       width="100%"
       x="0"
       y="0"
       xlink:href="#g864"
       transform="translate(118.53333,118.5335)"
       id="use2907" />
  </g>
</svg>
