<?xml version="1.0" encoding="utf-8"?>

<!DOCTYPE svg PUBLIC "-//W3C//DTD SVG 1.1//EN" "http://www.w3.org/Graphics/SVG/1.1/DTD/svg11.dtd">
<svg version="1.1" id="Layer_1" xmlns="http://www.w3.org/2000/svg" xmlns:xlink="http://www.w3.org/1999/xlink" x="0px" y="0px"
	 viewBox="0 0 2560 1600" enable-background="new 0 0 2560 1600" xml:space="preserve">
<pattern  width="374.302" height="643.5" patternUnits="userSpaceOnUse" id="New_Pattern" viewBox="0 -715.651 374.302 643.5" overflow="visible">
	<g>
		<rect y="-715.651" fill="none" width="374.302" height="643.5"/>
		<g>
			<g>
				<polygon fill="none" points="221.69,-167.182 221.935,-166.111 242.444,-156.234 238.138,-175.103 				"/>
				<polygon fill="none" points="306.738,-224.212 326.012,-224.212 311.027,-243.002 				"/>
				<polygon points="221.69,-167.182 215.154,-164.035 244.536,-147.071 242.444,-156.234 221.935,-166.111 				"/>
				<polygon points="359.066,-80.947 368.413,-92.669 352.247,-84.884 				"/>
				<polygon points="371.426,-94.12 370.085,-94.766 368.413,-92.669 				"/>
				<polygon points="311.027,-243.002 326.012,-224.212 374.302,-224.212 374.302,-264.255 332.735,-264.255 313.32,-253.046 				
					"/>
				<polygon points="302.617,-206.155 238.138,-175.103 242.444,-156.234 370.085,-94.766 374.302,-100.054 374.302,-163.657 
					326.012,-224.212 306.738,-224.212 				"/>
				<polygon points="374.302,-95.505 371.426,-94.12 374.302,-92.735 				"/>
				<polygon points="231.173,-205.618 215.043,-196.306 221.69,-167.182 238.138,-175.103 				"/>
				<polygon points="306.265,-248.973 263.377,-224.212 306.738,-224.212 311.027,-243.002 				"/>
			</g>
			<g>
				<polygon fill="none" points="208.832,-89.669 218.468,-106.36 194.703,-102.778 				"/>
				<polygon points="359.066,-63.354 353.588,-77.31 352.247,-59.417 				"/>
				<polygon points="353.838,-80.644 352.608,-79.806 353.588,-77.31 				"/>
				<polygon points="194.703,-102.778 218.468,-106.36 242.614,-148.181 207.935,-168.203 187.151,-132.205 187.151,-109.786 				
					"/>
				<polygon points="222.409,-77.072 217.06,-5.705 235.555,0 352.608,-79.806 350.137,-86.102 295.055,-117.904 218.468,-106.36 
					208.832,-89.669 				"/>
				<polygon points="354.076,-83.828 353.838,-80.644 356.476,-82.443 				"/>
				<polygon points="187.151,-101.64 187.151,-52.117 208.832,-89.669 194.703,-102.778 				"/>
			</g>
		</g>
		<g>
			<g>
				<polygon fill="none" points="158.606,-156.8 157.556,-157.124 138.748,-144.301 157.242,-138.596 				"/>
				<polygon points="158.606,-156.8 159.148,-164.035 129.767,-147.071 138.748,-144.301 157.556,-157.124 				"/>
				<polygon points="15.237,-80.947 20.714,-66.991 22.055,-84.884 				"/>
				<polygon points="151.894,-67.229 157.242,-138.596 138.748,-144.301 21.694,-64.495 24.165,-58.199 79.247,-26.397 
					155.834,-37.941 165.471,-54.632 				"/>
				<polygon points="187.151,-129.371 187.151,-147.995 158.606,-156.8 157.242,-138.596 				"/>
				<polygon points="187.151,-42.661 187.151,-92.184 165.471,-54.632 179.599,-41.523 				"/>
			</g>
			<g>
				<polygon fill="none" points="5.994,-251.832 5.189,-251.085 6.89,-228.385 21.077,-241.549 				"/>
				<polygon fill="none" points="97.907,-206.693 107.544,-190.002 116.324,-212.374 				"/>
				<polygon points="5.994,-251.832 0,-255.919 0,-221.992 6.89,-228.385 5.189,-251.085 				"/>
				<polygon points="0,-89.744 14.826,-87.51 0,-97.618 				"/>
				<polygon points="17.588,-85.626 17.477,-87.11 14.826,-87.51 				"/>
				<polygon points="116.324,-212.374 107.544,-190.002 131.689,-148.181 166.368,-168.203 145.584,-204.201 126.169,-215.41 				
					"/>
				<polygon points="80.209,-201.234 21.077,-241.549 6.89,-228.385 17.477,-87.11 24.165,-86.102 79.247,-117.904 
					107.544,-190.002 97.907,-206.693 				"/>
				<polygon points="20.226,-83.828 17.588,-85.626 17.827,-82.443 				"/>
				<polygon points="44.022,-262.838 27.892,-272.151 5.994,-251.832 21.077,-241.549 				"/>
				<polygon points="119.114,-219.483 76.226,-244.245 97.907,-206.693 116.324,-212.374 				"/>
			</g>
		</g>
		<g>
			<g>
				<polygon fill="none" points="339.763,-298.869 339.518,-299.94 319.009,-309.817 323.316,-290.948 				"/>
				<polygon fill="none" points="254.715,-241.84 235.442,-241.84 250.426,-223.049 				"/>
				<polygon points="339.763,-298.869 346.299,-302.016 316.918,-318.98 319.009,-309.817 339.518,-299.94 				"/>
				<polygon points="202.388,-385.104 193.04,-373.382 209.206,-381.167 				"/>
				<polygon points="190.028,-371.931 191.368,-371.285 193.04,-373.382 				"/>
				<polygon points="250.426,-223.049 235.442,-241.84 187.151,-241.84 187.151,-201.796 228.718,-201.796 248.134,-213.005 				"/>
				<polygon points="258.836,-259.896 323.316,-290.948 319.009,-309.817 191.368,-371.285 187.151,-365.997 187.151,-302.394 
					235.442,-241.84 254.715,-241.84 				"/>
				<polygon points="187.151,-370.546 190.028,-371.931 187.151,-373.316 				"/>
				<polygon points="330.281,-260.433 346.41,-269.745 339.763,-298.869 323.316,-290.948 				"/>
				<polygon points="255.188,-217.078 298.076,-241.84 254.715,-241.84 250.426,-223.049 				"/>
			</g>
			<g>
				<polygon fill="none" points="345.757,-478.55 344.707,-478.874 325.899,-466.051 344.393,-460.346 				"/>
				<polygon fill="none" points="352.622,-376.382 342.985,-359.691 366.75,-363.273 				"/>
				<polygon points="345.757,-478.55 346.299,-485.785 316.918,-468.821 325.899,-466.051 344.707,-478.874 				"/>
				<polygon points="202.388,-402.697 207.865,-388.741 209.206,-406.634 				"/>
				<polygon points="207.615,-385.407 208.845,-386.245 207.865,-388.741 				"/>
				<polygon points="366.75,-363.273 342.985,-359.691 318.84,-317.87 353.519,-297.848 374.302,-333.846 374.302,-356.265 				"/>
				<polygon points="339.045,-388.979 344.393,-460.346 325.899,-466.051 208.845,-386.245 211.316,-379.949 266.398,-348.147 
					342.985,-359.691 352.622,-376.382 				"/>
				<polygon points="207.377,-382.223 207.615,-385.407 204.978,-383.608 				"/>
				<polygon points="374.302,-451.121 374.302,-469.745 345.757,-478.55 344.393,-460.346 				"/>
				<polygon points="374.302,-364.411 374.302,-413.934 352.622,-376.382 366.75,-363.273 				"/>
			</g>
			<g>
				<polygon fill="none" points="193.145,-573.582 192.34,-572.835 194.041,-550.135 208.228,-563.299 				"/>
				<polygon fill="none" points="285.058,-528.443 294.695,-511.752 303.475,-534.124 				"/>
				<polygon points="193.145,-573.582 187.151,-577.669 187.151,-543.742 194.041,-550.135 192.34,-572.835 				"/>
				<polygon points="187.151,-411.494 201.977,-409.26 187.151,-419.368 				"/>
				<polygon points="204.739,-407.376 204.628,-408.86 201.977,-409.26 				"/>
				<polygon points="303.475,-534.124 294.695,-511.752 318.84,-469.931 353.519,-489.953 332.735,-525.951 313.32,-537.16 				"/>
				<polygon points="267.36,-522.984 208.228,-563.299 194.041,-550.135 204.628,-408.86 211.316,-407.852 266.398,-439.654 
					294.695,-511.752 285.058,-528.443 				"/>
				<polygon points="207.377,-405.578 204.739,-407.376 204.978,-404.193 				"/>
				<polygon points="231.173,-584.588 215.043,-593.901 193.145,-573.582 208.228,-563.299 				"/>
				<polygon points="306.265,-541.233 263.377,-565.995 285.058,-528.443 303.475,-534.124 				"/>
			</g>
			<g>
				<polygon fill="none" points="34.539,-488.932 34.784,-487.861 55.293,-477.984 50.986,-496.853 				"/>
				<polygon fill="none" points="119.587,-545.961 138.861,-545.961 123.876,-564.752 				"/>
				<polygon points="34.539,-488.932 28.003,-485.785 57.385,-468.821 55.293,-477.984 34.784,-487.861 				"/>
				<polygon points="171.914,-402.697 181.262,-414.419 165.096,-406.634 				"/>
				<polygon points="184.275,-415.87 182.934,-416.516 181.262,-414.419 				"/>
				<polygon points="123.876,-564.752 138.861,-545.961 187.151,-545.961 187.151,-586.005 145.584,-586.005 126.169,-574.796 				
					"/>
				<polygon points="115.466,-527.905 50.986,-496.853 55.293,-477.984 182.934,-416.516 187.151,-421.804 187.151,-485.407 
					138.861,-545.961 119.587,-545.961 				"/>
				<polygon points="187.151,-417.255 184.275,-415.87 187.151,-414.485 				"/>
				<polygon points="44.022,-527.368 27.892,-518.056 34.539,-488.932 50.986,-496.853 				"/>
				<polygon points="119.114,-570.723 76.226,-545.961 119.587,-545.961 123.876,-564.752 				"/>
			</g>
			<g>
				<polygon fill="none" points="28.545,-309.251 29.595,-308.927 48.403,-321.75 29.909,-327.455 				"/>
				<polygon fill="none" points="21.681,-411.419 31.317,-428.11 7.552,-424.528 				"/>
				<polygon points="28.545,-309.251 28.003,-302.016 57.385,-318.98 48.403,-321.75 29.595,-308.927 				"/>
				<polygon points="171.914,-385.104 166.437,-399.06 165.096,-381.167 				"/>
				<polygon points="166.687,-402.394 165.457,-401.556 166.437,-399.06 				"/>
				<polygon points="7.552,-424.528 31.317,-428.11 55.462,-469.931 20.784,-489.953 0,-453.955 0,-431.536 				"/>
				<polygon points="35.258,-398.822 29.909,-327.455 48.403,-321.75 165.457,-401.556 162.986,-407.852 107.904,-439.654 
					31.317,-428.11 21.681,-411.419 				"/>
				<polygon points="166.925,-405.578 166.687,-402.394 169.325,-404.193 				"/>
				<polygon points="0,-336.68 0,-318.056 28.545,-309.251 29.909,-327.455 				"/>
				<polygon points="0,-423.39 0,-373.867 21.681,-411.419 7.552,-424.528 				"/>
			</g>
			<g>
				<polygon fill="none" points="181.157,-214.219 181.963,-214.966 180.261,-237.666 166.074,-224.502 				"/>
				<polygon fill="none" points="89.244,-259.358 79.608,-276.049 70.827,-253.677 				"/>
				<polygon points="181.157,-214.219 187.151,-210.132 187.151,-244.059 180.261,-237.666 181.963,-214.966 				"/>
				<polygon points="187.151,-376.307 172.326,-378.541 187.151,-368.433 				"/>
				<polygon points="169.563,-380.425 169.674,-378.941 172.326,-378.541 				"/>
				<polygon points="70.827,-253.677 79.608,-276.049 55.462,-317.87 20.784,-297.848 41.567,-261.85 60.983,-250.641 				"/>
				<polygon points="106.943,-264.817 166.074,-224.502 180.261,-237.666 169.674,-378.941 162.986,-379.949 107.904,-348.147 
					79.608,-276.049 89.244,-259.358 				"/>
				<polygon points="166.925,-382.223 169.563,-380.425 169.325,-383.608 				"/>
				<polygon points="143.13,-203.213 159.259,-193.901 181.157,-214.219 166.074,-224.502 				"/>
				<polygon points="68.037,-246.568 110.925,-221.806 89.244,-259.358 70.827,-253.677 				"/>
			</g>
		</g>
		<g>
			<g>
				<polygon fill="none" points="215.696,-631.001 216.746,-630.677 235.555,-643.5 217.06,-649.205 				"/>
				<polygon points="215.696,-631.001 215.154,-623.766 244.536,-640.73 235.555,-643.5 216.746,-630.677 				"/>
				<polygon points="359.066,-706.854 353.588,-720.81 352.247,-702.917 				"/>
				<polygon points="222.409,-720.572 217.06,-649.205 235.555,-643.5 352.608,-723.306 350.137,-729.602 295.055,-761.404 
					218.468,-749.86 208.832,-733.169 				"/>
				<polygon points="187.151,-658.43 187.151,-639.806 215.696,-631.001 217.06,-649.205 				"/>
				<polygon points="187.151,-745.14 187.151,-695.617 208.832,-733.169 194.703,-746.278 				"/>
			</g>
			<g>
				<polygon fill="none" points="368.308,-535.969 369.114,-536.716 367.413,-559.416 353.225,-546.252 				"/>
				<polygon fill="none" points="276.395,-581.108 266.759,-597.799 257.978,-575.427 				"/>
				<polygon points="368.308,-535.969 374.302,-531.882 374.302,-565.809 367.413,-559.416 369.114,-536.716 				"/>
				<polygon points="374.302,-698.057 359.477,-700.291 374.302,-690.183 				"/>
				<polygon points="356.714,-702.175 356.825,-700.691 359.477,-700.291 				"/>
				<polygon points="257.978,-575.427 266.759,-597.799 242.614,-639.62 207.935,-619.598 228.718,-583.6 248.134,-572.391 				"/>
				<polygon points="294.094,-586.567 353.225,-546.252 367.413,-559.416 356.825,-700.691 350.137,-701.699 295.055,-669.897 
					266.759,-597.799 276.395,-581.108 				"/>
				<polygon points="354.076,-703.973 356.714,-702.175 356.476,-705.358 				"/>
				<polygon points="330.281,-524.963 346.41,-515.651 368.308,-535.969 353.225,-546.252 				"/>
				<polygon points="255.188,-568.318 298.076,-543.556 276.395,-581.108 257.978,-575.427 				"/>
			</g>
		</g>
		<g>
			<g>
				<polygon fill="none" points="152.612,-620.619 152.367,-621.69 131.858,-631.567 136.165,-612.698 				"/>
				<polygon fill="none" points="67.564,-563.59 48.29,-563.59 63.275,-544.799 				"/>
				<polygon points="152.612,-620.619 159.148,-623.766 129.767,-640.73 131.858,-631.567 152.367,-621.69 				"/>
				<polygon points="15.237,-706.854 5.889,-695.132 22.055,-702.917 				"/>
				<polygon points="2.876,-693.681 4.217,-693.035 5.889,-695.132 				"/>
				<polygon points="63.275,-544.799 48.29,-563.59 0,-563.59 0,-523.546 41.567,-523.546 60.983,-534.755 				"/>
				<polygon points="71.685,-581.646 136.165,-612.698 131.858,-631.567 4.217,-693.035 0,-687.747 0,-624.144 48.29,-563.59 
					67.564,-563.59 				"/>
				<polygon points="0,-692.296 2.876,-693.681 0,-695.066 				"/>
				<polygon points="143.13,-582.183 159.259,-591.495 152.612,-620.619 136.165,-612.698 				"/>
				<polygon points="68.037,-538.828 110.925,-563.59 67.564,-563.59 63.275,-544.799 				"/>
			</g>
			<g>
				<polygon fill="none" points="165.471,-698.132 155.834,-681.441 179.599,-685.023 				"/>
				<polygon points="15.237,-724.447 20.714,-710.491 22.055,-728.384 				"/>
				<polygon points="20.464,-707.157 21.694,-707.995 20.714,-710.491 				"/>
				<polygon points="179.599,-685.023 155.834,-681.441 131.689,-639.62 166.368,-619.598 187.151,-655.596 187.151,-678.015 				
					"/>
				<polygon points="151.894,-710.729 157.242,-782.096 138.748,-787.801 21.694,-707.995 24.165,-701.699 79.247,-669.897 
					155.834,-681.441 165.471,-698.132 				"/>
				<polygon points="20.226,-703.973 20.464,-707.157 17.827,-705.358 				"/>
				<polygon points="187.151,-686.161 187.151,-735.684 165.471,-698.132 179.599,-685.023 				"/>
			</g>
		</g>
	</g>
</pattern>
<rect fill="url(#New_Pattern)" width="2560" height="1600"/>
</svg>
