%FSLAX45Y45*%
G04 Gerber Fmt 4.5, Leading zero omitted, Abs format (unit mm)*
G04 Created by KiCad (PCBNEW (5.1.9-0-10_14)) date 2021-10-06 08:57:35*
%MOMM*%
%LPD*%
G01*
G04 APERTURE LIST*
%TA.AperFunction,Profile*%
%ADD10C,0.150000*%
%TD*%
%ADD11C,0.200000*%
%ADD12C,0.300000*%
G04 APERTURE END LIST*
D10*
X36249995Y-15370750D02*
G75*
G03*
X36449995Y-15170750I0J200000D01*
G01*
X36249995Y-2443251D02*
G75*
G02*
X36449995Y-2643251I0J-200000D01*
G01*
X2741250Y-2443251D02*
G75*
G03*
X2541250Y-2643251I0J-200000D01*
G01*
X2741250Y-15370750D02*
G75*
G02*
X2541250Y-15170750I0J200000D01*
G01*
X18263000Y-16762523D02*
X24811000Y-15370750D01*
X16860000Y-16762523D02*
X18263000Y-16762523D01*
X10312670Y-15370750D02*
X16860000Y-16762523D01*
X24811000Y-15370750D02*
X36249995Y-15370750D01*
X2741250Y-15370750D02*
X10312670Y-15370750D01*
X2741250Y-2443251D02*
X36249995Y-2443251D01*
X36449995Y-2643251D02*
X36449995Y-15170750D01*
X2541250Y-2643251D02*
X2541250Y-15170750D01*
D11*
X30990540Y-3854380D02*
X31140540Y-4004380D01*
X31140540Y-3854380D02*
X30990540Y-4004380D01*
X31130540Y-3994380D02*
X31130540Y-3864380D01*
X31000540Y-3994380D02*
X31000540Y-3864380D01*
X31130540Y-3864380D02*
G75*
G03*
X31000540Y-3864380I-65000J0D01*
G01*
X31000540Y-3994380D02*
G75*
G03*
X31130540Y-3994380I65000J0D01*
G01*
X32110540Y-3854380D02*
X32260540Y-4004380D01*
X32260540Y-3854380D02*
X32110540Y-4004380D01*
X32250540Y-3994380D02*
X32250540Y-3864380D01*
X32120540Y-3994380D02*
X32120540Y-3864380D01*
X32250540Y-3864380D02*
G75*
G03*
X32120540Y-3864380I-65000J0D01*
G01*
X32120540Y-3994380D02*
G75*
G03*
X32250540Y-3994380I65000J0D01*
G01*
X3322190Y-3929380D02*
G75*
G03*
X3322190Y-3929380I-87500J0D01*
G01*
X3557140Y-13929360D02*
G75*
G03*
X3557140Y-13929360I-87500J0D01*
G01*
X3731130Y-10118090D02*
G75*
G03*
X3731130Y-10118090I-87500J0D01*
G01*
X4207380Y-10118090D02*
G75*
G03*
X4207380Y-10118090I-87500J0D01*
G01*
X4270880Y-12024360D02*
G75*
G03*
X4270880Y-12024360I-87500J0D01*
G01*
X4317870Y-6309360D02*
G75*
G03*
X4317870Y-6309360I-87500J0D01*
G01*
X4338190Y-3929380D02*
G75*
G03*
X4338190Y-3929380I-87500J0D01*
G01*
X4377560Y-8214360D02*
G75*
G03*
X4377560Y-8214360I-87500J0D01*
G01*
X4573140Y-13929360D02*
G75*
G03*
X4573140Y-13929360I-87500J0D01*
G01*
X4747130Y-10118090D02*
G75*
G03*
X4747130Y-10118090I-87500J0D01*
G01*
X5223380Y-10118090D02*
G75*
G03*
X5223380Y-10118090I-87500J0D01*
G01*
X5286880Y-12024360D02*
G75*
G03*
X5286880Y-12024360I-87500J0D01*
G01*
X5333870Y-6309360D02*
G75*
G03*
X5333870Y-6309360I-87500J0D01*
G01*
X5393560Y-8214360D02*
G75*
G03*
X5393560Y-8214360I-87500J0D01*
G01*
X5716140Y-3778250D02*
G75*
G03*
X5716140Y-3778250I-87500J0D01*
G01*
X6223337Y-6309360D02*
G75*
G03*
X6223337Y-6309360I-87500J0D01*
G01*
X6732140Y-3778250D02*
G75*
G03*
X6732140Y-3778250I-87500J0D01*
G01*
X6758810Y-8214360D02*
G75*
G03*
X6758810Y-8214360I-87500J0D01*
G01*
X6826120Y-10119360D02*
G75*
G03*
X6826120Y-10119360I-87500J0D01*
G01*
X7239337Y-6309360D02*
G75*
G03*
X7239337Y-6309360I-87500J0D01*
G01*
X7363330Y-12023090D02*
G75*
G03*
X7363330Y-12023090I-87500J0D01*
G01*
X7622410Y-3776980D02*
G75*
G03*
X7622410Y-3776980I-87500J0D01*
G01*
X7774810Y-8214360D02*
G75*
G03*
X7774810Y-8214360I-87500J0D01*
G01*
X7842120Y-10119360D02*
G75*
G03*
X7842120Y-10119360I-87500J0D01*
G01*
X8127870Y-6160770D02*
G75*
G03*
X8127870Y-6160770I-87500J0D01*
G01*
X8379330Y-12023090D02*
G75*
G03*
X8379330Y-12023090I-87500J0D01*
G01*
X8638410Y-3776980D02*
G75*
G03*
X8638410Y-3776980I-87500J0D01*
G01*
X8819691Y-8141761D02*
G75*
G03*
X8819691Y-8141761I-87500J0D01*
G01*
X8889541Y-10105181D02*
G75*
G03*
X8889541Y-10105181I-87500J0D01*
G01*
X9143870Y-6160770D02*
G75*
G03*
X9143870Y-6160770I-87500J0D01*
G01*
X9260381Y-14077233D02*
G75*
G03*
X9260381Y-14077233I-87500J0D01*
G01*
X9422941Y-12165121D02*
G75*
G03*
X9422941Y-12165121I-87500J0D01*
G01*
X9494061Y-14127271D02*
G75*
G03*
X9494061Y-14127271I-87500J0D01*
G01*
X9713771Y-3949491D02*
G75*
G03*
X9713771Y-3949491I-87500J0D01*
G01*
X9813489Y-8352999D02*
G75*
G03*
X9813489Y-8352999I-87500J0D01*
G01*
X9883339Y-10316419D02*
G75*
G03*
X9883339Y-10316419I-87500J0D01*
G01*
X10148111Y-6475521D02*
G75*
G03*
X10148111Y-6475521I-87500J0D01*
G01*
X10254179Y-14288471D02*
G75*
G03*
X10254179Y-14288471I-87500J0D01*
G01*
X10416739Y-12376359D02*
G75*
G03*
X10416739Y-12376359I-87500J0D01*
G01*
X10487859Y-14338509D02*
G75*
G03*
X10487859Y-14338509I-87500J0D01*
G01*
X10682781Y-8538001D02*
G75*
G03*
X10682781Y-8538001I-87500J0D01*
G01*
X10707569Y-4160729D02*
G75*
G03*
X10707569Y-4160729I-87500J0D01*
G01*
X10752631Y-10501421D02*
G75*
G03*
X10752631Y-10501421I-87500J0D01*
G01*
X11141909Y-6686759D02*
G75*
G03*
X11141909Y-6686759I-87500J0D01*
G01*
X11284761Y-12560091D02*
G75*
G03*
X11284761Y-12560091I-87500J0D01*
G01*
X11575591Y-4344461D02*
G75*
G03*
X11575591Y-4344461I-87500J0D01*
G01*
X11676579Y-8749239D02*
G75*
G03*
X11676579Y-8749239I-87500J0D01*
G01*
X11746429Y-10712659D02*
G75*
G03*
X11746429Y-10712659I-87500J0D01*
G01*
X12011201Y-6873031D02*
G75*
G03*
X12011201Y-6873031I-87500J0D01*
G01*
X12278559Y-12771329D02*
G75*
G03*
X12278559Y-12771329I-87500J0D01*
G01*
X12521995Y-14771161D02*
G75*
G03*
X12521995Y-14771161I-87500J0D01*
G01*
X12544601Y-8935511D02*
G75*
G03*
X12544601Y-8935511I-87500J0D01*
G01*
X12569389Y-4555699D02*
G75*
G03*
X12569389Y-4555699I-87500J0D01*
G01*
X12611911Y-10893851D02*
G75*
G03*
X12611911Y-10893851I-87500J0D01*
G01*
X12754151Y-14820691D02*
G75*
G03*
X12754151Y-14820691I-87500J0D01*
G01*
X13004999Y-7084269D02*
G75*
G03*
X13004999Y-7084269I-87500J0D01*
G01*
X13149121Y-12956331D02*
G75*
G03*
X13149121Y-12956331I-87500J0D01*
G01*
X13515793Y-14982399D02*
G75*
G03*
X13515793Y-14982399I-87500J0D01*
G01*
X13538399Y-9146749D02*
G75*
G03*
X13538399Y-9146749I-87500J0D01*
G01*
X13605709Y-11105089D02*
G75*
G03*
X13605709Y-11105089I-87500J0D01*
G01*
X13747949Y-15031929D02*
G75*
G03*
X13747949Y-15031929I-87500J0D01*
G01*
X13875561Y-7269271D02*
G75*
G03*
X13875561Y-7269271I-87500J0D01*
G01*
X13902231Y-4841031D02*
G75*
G03*
X13902231Y-4841031I-87500J0D01*
G01*
X14142919Y-13167569D02*
G75*
G03*
X14142919Y-13167569I-87500J0D01*
G01*
X14408961Y-9326671D02*
G75*
G03*
X14408961Y-9326671I-87500J0D01*
G01*
X14476271Y-11290091D02*
G75*
G03*
X14476271Y-11290091I-87500J0D01*
G01*
X14869359Y-7480509D02*
G75*
G03*
X14869359Y-7480509I-87500J0D01*
G01*
X14896029Y-5052269D02*
G75*
G03*
X14896029Y-5052269I-87500J0D01*
G01*
X15012211Y-13351301D02*
G75*
G03*
X15012211Y-13351301I-87500J0D01*
G01*
X15402759Y-9537909D02*
G75*
G03*
X15402759Y-9537909I-87500J0D01*
G01*
X15470069Y-11501329D02*
G75*
G03*
X15470069Y-11501329I-87500J0D01*
G01*
X15549421Y-15413781D02*
G75*
G03*
X15549421Y-15413781I-87500J0D01*
G01*
X15739921Y-7662971D02*
G75*
G03*
X15739921Y-7662971I-87500J0D01*
G01*
X15764051Y-5237271D02*
G75*
G03*
X15764051Y-5237271I-87500J0D01*
G01*
X16006009Y-13562539D02*
G75*
G03*
X16006009Y-13562539I-87500J0D01*
G01*
X16543219Y-15625019D02*
G75*
G03*
X16543219Y-15625019I-87500J0D01*
G01*
X16733719Y-7874209D02*
G75*
G03*
X16733719Y-7874209I-87500J0D01*
G01*
X16757849Y-5448509D02*
G75*
G03*
X16757849Y-5448509I-87500J0D01*
G01*
X17875724Y-13860164D02*
G75*
G03*
X17875724Y-13860164I-87500J0D01*
G01*
X18017031Y-9935419D02*
G75*
G03*
X18017031Y-9935419I-87500J0D01*
G01*
X18522491Y-5447239D02*
G75*
G03*
X18522491Y-5447239I-87500J0D01*
G01*
X18551701Y-7874209D02*
G75*
G03*
X18551701Y-7874209I-87500J0D01*
G01*
X18869522Y-13648926D02*
G75*
G03*
X18869522Y-13648926I-87500J0D01*
G01*
X18878091Y-11699449D02*
G75*
G03*
X18878091Y-11699449I-87500J0D01*
G01*
X19010829Y-9724181D02*
G75*
G03*
X19010829Y-9724181I-87500J0D01*
G01*
X19516289Y-5236001D02*
G75*
G03*
X19516289Y-5236001I-87500J0D01*
G01*
X19545499Y-7662971D02*
G75*
G03*
X19545499Y-7662971I-87500J0D01*
G01*
X19739151Y-13464749D02*
G75*
G03*
X19739151Y-13464749I-87500J0D01*
G01*
X19871889Y-11488211D02*
G75*
G03*
X19871889Y-11488211I-87500J0D01*
G01*
X19878851Y-9537909D02*
G75*
G03*
X19878851Y-9537909I-87500J0D01*
G01*
X20385581Y-5050999D02*
G75*
G03*
X20385581Y-5050999I-87500J0D01*
G01*
X20416061Y-7479239D02*
G75*
G03*
X20416061Y-7479239I-87500J0D01*
G01*
X20732949Y-13253511D02*
G75*
G03*
X20732949Y-13253511I-87500J0D01*
G01*
X20741181Y-11301939D02*
G75*
G03*
X20741181Y-11301939I-87500J0D01*
G01*
X20835161Y-15176709D02*
G75*
G03*
X20835161Y-15176709I-87500J0D01*
G01*
X20872649Y-9326671D02*
G75*
G03*
X20872649Y-9326671I-87500J0D01*
G01*
X21379379Y-4839761D02*
G75*
G03*
X21379379Y-4839761I-87500J0D01*
G01*
X21409859Y-7268001D02*
G75*
G03*
X21409859Y-7268001I-87500J0D01*
G01*
X21603511Y-13067239D02*
G75*
G03*
X21603511Y-13067239I-87500J0D01*
G01*
X21734979Y-11090701D02*
G75*
G03*
X21734979Y-11090701I-87500J0D01*
G01*
X21740671Y-9142939D02*
G75*
G03*
X21740671Y-9142939I-87500J0D01*
G01*
X21828959Y-14965471D02*
G75*
G03*
X21828959Y-14965471I-87500J0D01*
G01*
X22276611Y-7081729D02*
G75*
G03*
X22276611Y-7081729I-87500J0D01*
G01*
X22597309Y-12856001D02*
G75*
G03*
X22597309Y-12856001I-87500J0D01*
G01*
X22604271Y-10904429D02*
G75*
G03*
X22604271Y-10904429I-87500J0D01*
G01*
X22713491Y-4555699D02*
G75*
G03*
X22713491Y-4555699I-87500J0D01*
G01*
X22734469Y-8931701D02*
G75*
G03*
X22734469Y-8931701I-87500J0D01*
G01*
X23270409Y-6870491D02*
G75*
G03*
X23270409Y-6870491I-87500J0D01*
G01*
X23465331Y-12670999D02*
G75*
G03*
X23465331Y-12670999I-87500J0D01*
G01*
X23598069Y-10693191D02*
G75*
G03*
X23598069Y-10693191I-87500J0D01*
G01*
X23603761Y-8746699D02*
G75*
G03*
X23603761Y-8746699I-87500J0D01*
G01*
X23707289Y-4344461D02*
G75*
G03*
X23707289Y-4344461I-87500J0D01*
G01*
X24142241Y-6688029D02*
G75*
G03*
X24142241Y-6688029I-87500J0D01*
G01*
X24459129Y-12459761D02*
G75*
G03*
X24459129Y-12459761I-87500J0D01*
G01*
X24464821Y-10510729D02*
G75*
G03*
X24464821Y-10510729I-87500J0D01*
G01*
X24576581Y-4159459D02*
G75*
G03*
X24576581Y-4159459I-87500J0D01*
G01*
X24597559Y-8535461D02*
G75*
G03*
X24597559Y-8535461I-87500J0D01*
G01*
X24793751Y-14335969D02*
G75*
G03*
X24793751Y-14335969I-87500J0D01*
G01*
X25136039Y-6476791D02*
G75*
G03*
X25136039Y-6476791I-87500J0D01*
G01*
X25329691Y-12274759D02*
G75*
G03*
X25329691Y-12274759I-87500J0D01*
G01*
X25458619Y-10299491D02*
G75*
G03*
X25458619Y-10299491I-87500J0D01*
G01*
X25466851Y-8351729D02*
G75*
G03*
X25466851Y-8351729I-87500J0D01*
G01*
X25570379Y-3948221D02*
G75*
G03*
X25570379Y-3948221I-87500J0D01*
G01*
X25787549Y-14124731D02*
G75*
G03*
X25787549Y-14124731I-87500J0D01*
G01*
X26136470Y-6159500D02*
G75*
G03*
X26136470Y-6159500I-87500J0D01*
G01*
X26323489Y-12063521D02*
G75*
G03*
X26323489Y-12063521I-87500J0D01*
G01*
X26460649Y-8140491D02*
G75*
G03*
X26460649Y-8140491I-87500J0D01*
G01*
X26503500Y-10120630D02*
G75*
G03*
X26503500Y-10120630I-87500J0D01*
G01*
X26641930Y-3779520D02*
G75*
G03*
X26641930Y-3779520I-87500J0D01*
G01*
X27152470Y-6159500D02*
G75*
G03*
X27152470Y-6159500I-87500J0D01*
G01*
X27456000Y-12023090D02*
G75*
G03*
X27456000Y-12023090I-87500J0D01*
G01*
X27505530Y-8213090D02*
G75*
G03*
X27505530Y-8213090I-87500J0D01*
G01*
X27519500Y-10120630D02*
G75*
G03*
X27519500Y-10120630I-87500J0D01*
G01*
X27657930Y-3779520D02*
G75*
G03*
X27657930Y-3779520I-87500J0D01*
G01*
X28040200Y-6309360D02*
G75*
G03*
X28040200Y-6309360I-87500J0D01*
G01*
X28408500Y-10120630D02*
G75*
G03*
X28408500Y-10120630I-87500J0D01*
G01*
X28472000Y-12023090D02*
G75*
G03*
X28472000Y-12023090I-87500J0D01*
G01*
X28521530Y-8213090D02*
G75*
G03*
X28521530Y-8213090I-87500J0D01*
G01*
X28548200Y-3779520D02*
G75*
G03*
X28548200Y-3779520I-87500J0D01*
G01*
X29056200Y-6309360D02*
G75*
G03*
X29056200Y-6309360I-87500J0D01*
G01*
X29409260Y-8213090D02*
G75*
G03*
X29409260Y-8213090I-87500J0D01*
G01*
X29424500Y-10120630D02*
G75*
G03*
X29424500Y-10120630I-87500J0D01*
G01*
X29564200Y-3779520D02*
G75*
G03*
X29564200Y-3779520I-87500J0D01*
G01*
X29946470Y-6309360D02*
G75*
G03*
X29946470Y-6309360I-87500J0D01*
G01*
X30077280Y-12024360D02*
G75*
G03*
X30077280Y-12024360I-87500J0D01*
G01*
X30425260Y-8213090D02*
G75*
G03*
X30425260Y-8213090I-87500J0D01*
G01*
X30897700Y-6308090D02*
G75*
G03*
X30897700Y-6308090I-87500J0D01*
G01*
X30962470Y-6309360D02*
G75*
G03*
X30962470Y-6309360I-87500J0D01*
G01*
X31093280Y-12024360D02*
G75*
G03*
X31093280Y-12024360I-87500J0D01*
G01*
X31205040Y-3929380D02*
G75*
G03*
X31205040Y-3929380I-87500J0D01*
G01*
X31264730Y-14404340D02*
G75*
G03*
X31264730Y-14404340I-87500J0D01*
G01*
X31503490Y-10118090D02*
G75*
G03*
X31503490Y-10118090I-87500J0D01*
G01*
X31790510Y-8214360D02*
G75*
G03*
X31790510Y-8214360I-87500J0D01*
G01*
X31850200Y-6308090D02*
G75*
G03*
X31850200Y-6308090I-87500J0D01*
G01*
X31913700Y-6308090D02*
G75*
G03*
X31913700Y-6308090I-87500J0D01*
G01*
X32221040Y-3929380D02*
G75*
G03*
X32221040Y-3929380I-87500J0D01*
G01*
X32280730Y-14404340D02*
G75*
G03*
X32280730Y-14404340I-87500J0D01*
G01*
X32519490Y-10118090D02*
G75*
G03*
X32519490Y-10118090I-87500J0D01*
G01*
X32806510Y-8214360D02*
G75*
G03*
X32806510Y-8214360I-87500J0D01*
G01*
X32866200Y-6308090D02*
G75*
G03*
X32866200Y-6308090I-87500J0D01*
G01*
X33171000Y-12499340D02*
G75*
G03*
X33171000Y-12499340I-87500J0D01*
G01*
X33171000Y-14404340D02*
G75*
G03*
X33171000Y-14404340I-87500J0D01*
G01*
X33811080Y-3928110D02*
G75*
G03*
X33811080Y-3928110I-87500J0D01*
G01*
X34187000Y-12499340D02*
G75*
G03*
X34187000Y-12499340I-87500J0D01*
G01*
X34187000Y-14404340D02*
G75*
G03*
X34187000Y-14404340I-87500J0D01*
G01*
X34232720Y-5833110D02*
G75*
G03*
X34232720Y-5833110I-87500J0D01*
G01*
X34648010Y-7736840D02*
G75*
G03*
X34648010Y-7736840I-87500J0D01*
G01*
X34827080Y-3928110D02*
G75*
G03*
X34827080Y-3928110I-87500J0D01*
G01*
X35074730Y-9641840D02*
G75*
G03*
X35074730Y-9641840I-87500J0D01*
G01*
X35076000Y-14404340D02*
G75*
G03*
X35076000Y-14404340I-87500J0D01*
G01*
X35248720Y-5833110D02*
G75*
G03*
X35248720Y-5833110I-87500J0D01*
G01*
X35664010Y-7736840D02*
G75*
G03*
X35664010Y-7736840I-87500J0D01*
G01*
X36090730Y-9641840D02*
G75*
G03*
X36090730Y-9641840I-87500J0D01*
G01*
X36092000Y-14404340D02*
G75*
G03*
X36092000Y-14404340I-87500J0D01*
G01*
X3497580Y-11173460D02*
X3497580Y-11478260D01*
X3345180Y-11325860D02*
X3649980Y-11325860D01*
X5885180Y-11173460D02*
X5885180Y-11478260D01*
X5732780Y-11325860D02*
X6037580Y-11325860D01*
X11618455Y-15159411D02*
X11618455Y-15464211D01*
X11466055Y-15311811D02*
X11770855Y-15311811D01*
X11850611Y-15208941D02*
X11850611Y-15513741D01*
X11698211Y-15361341D02*
X12003011Y-15361341D01*
X13953880Y-15655821D02*
X13953880Y-15960621D01*
X13801480Y-15808221D02*
X14106280Y-15808221D01*
X14186036Y-15705351D02*
X14186036Y-16010151D01*
X14033636Y-15857751D02*
X14338436Y-15857751D01*
X20222074Y-15850131D02*
X20222074Y-16154931D01*
X20069674Y-16002531D02*
X20374474Y-16002531D01*
X22557499Y-15353721D02*
X22557499Y-15658521D01*
X22405099Y-15506121D02*
X22709899Y-15506121D01*
X30124400Y-5457190D02*
X30124400Y-5761990D01*
X29972000Y-5609590D02*
X30276800Y-5609590D01*
X30730190Y-10664190D02*
X30730190Y-10968990D01*
X30577790Y-10816590D02*
X30882590Y-10816590D01*
X32512000Y-5457190D02*
X32512000Y-5761990D01*
X32359600Y-5609590D02*
X32664400Y-5609590D01*
X33117790Y-10664190D02*
X33117790Y-10968990D01*
X32965390Y-10816590D02*
X33270190Y-10816590D01*
X3638571Y-12990851D02*
X3638571Y-12708869D01*
X3356589Y-12708869D01*
X3356589Y-12990851D01*
X3638571Y-12990851D01*
X3883681Y-4070371D02*
X3883681Y-3788389D01*
X3601699Y-3788389D01*
X3601699Y-4070371D01*
X3883681Y-4070371D01*
X4118631Y-14070351D02*
X4118631Y-13788369D01*
X3836649Y-13788369D01*
X3836649Y-14070351D01*
X4118631Y-14070351D01*
X4292621Y-10259081D02*
X4292621Y-9977099D01*
X4010639Y-9977099D01*
X4010639Y-10259081D01*
X4292621Y-10259081D01*
X4768871Y-10259081D02*
X4768871Y-9977099D01*
X4486889Y-9977099D01*
X4486889Y-10259081D01*
X4768871Y-10259081D01*
X4832371Y-12165351D02*
X4832371Y-11883369D01*
X4550389Y-11883369D01*
X4550389Y-12165351D01*
X4832371Y-12165351D01*
X4879361Y-6450351D02*
X4879361Y-6168369D01*
X4597379Y-6168369D01*
X4597379Y-6450351D01*
X4879361Y-6450351D01*
X4939051Y-8355351D02*
X4939051Y-8073369D01*
X4657069Y-8073369D01*
X4657069Y-8355351D01*
X4939051Y-8355351D01*
X6026171Y-12990851D02*
X6026171Y-12708869D01*
X5744189Y-12708869D01*
X5744189Y-12990851D01*
X6026171Y-12990851D01*
X6277631Y-3919241D02*
X6277631Y-3637259D01*
X5995649Y-3637259D01*
X5995649Y-3919241D01*
X6277631Y-3919241D01*
X6784828Y-6450351D02*
X6784828Y-6168369D01*
X6502845Y-6168369D01*
X6502845Y-6450351D01*
X6784828Y-6450351D01*
X7320301Y-8355351D02*
X7320301Y-8073369D01*
X7038319Y-8073369D01*
X7038319Y-8355351D01*
X7320301Y-8355351D01*
X7387611Y-10260351D02*
X7387611Y-9978369D01*
X7105629Y-9978369D01*
X7105629Y-10260351D01*
X7387611Y-10260351D01*
X7924821Y-12164081D02*
X7924821Y-11882099D01*
X7642839Y-11882099D01*
X7642839Y-12164081D01*
X7924821Y-12164081D01*
X8183901Y-3917971D02*
X8183901Y-3635989D01*
X7901919Y-3635989D01*
X7901919Y-3917971D01*
X8183901Y-3917971D01*
X8689361Y-6301761D02*
X8689361Y-6019779D01*
X8407379Y-6019779D01*
X8407379Y-6301761D01*
X8689361Y-6301761D01*
X9370081Y-8388371D02*
X9370081Y-8106389D01*
X9088099Y-8106389D01*
X9088099Y-8388371D01*
X9370081Y-8388371D01*
X9439931Y-10351791D02*
X9439931Y-10069809D01*
X9157949Y-10069809D01*
X9157949Y-10351791D01*
X9439931Y-10351791D01*
X9810771Y-14323843D02*
X9810771Y-14041861D01*
X9528789Y-14041861D01*
X9528789Y-14323843D01*
X9810771Y-14323843D01*
X9973331Y-12411731D02*
X9973331Y-12129749D01*
X9691349Y-12129749D01*
X9691349Y-12411731D01*
X9973331Y-12411731D01*
X10044451Y-14373881D02*
X10044451Y-14091899D01*
X9762469Y-14091899D01*
X9762469Y-14373881D01*
X10044451Y-14373881D01*
X10264161Y-4196101D02*
X10264161Y-3914119D01*
X9982179Y-3914119D01*
X9982179Y-4196101D01*
X10264161Y-4196101D01*
X10698501Y-6722131D02*
X10698501Y-6440149D01*
X10416519Y-6440149D01*
X10416519Y-6722131D01*
X10698501Y-6722131D01*
X11233171Y-8784611D02*
X11233171Y-8502629D01*
X10951189Y-8502629D01*
X10951189Y-8784611D01*
X11233171Y-8784611D01*
X11303021Y-10748031D02*
X11303021Y-10466049D01*
X11021039Y-10466049D01*
X11021039Y-10748031D01*
X11303021Y-10748031D01*
X11835151Y-12806701D02*
X11835151Y-12524719D01*
X11553169Y-12524719D01*
X11553169Y-12806701D01*
X11835151Y-12806701D01*
X12076304Y-13962106D02*
X12076304Y-13680123D01*
X11794321Y-13680123D01*
X11794321Y-13962106D01*
X12076304Y-13962106D01*
X12125981Y-4591071D02*
X12125981Y-4309089D01*
X11843999Y-4309089D01*
X11843999Y-4591071D01*
X12125981Y-4591071D01*
X12308460Y-14011636D02*
X12308460Y-13729653D01*
X12026477Y-13729653D01*
X12026477Y-14011636D01*
X12308460Y-14011636D01*
X12561591Y-7119641D02*
X12561591Y-6837659D01*
X12279609Y-6837659D01*
X12279609Y-7119641D01*
X12561591Y-7119641D01*
X13072385Y-15017771D02*
X13072385Y-14735789D01*
X12790403Y-14735789D01*
X12790403Y-15017771D01*
X13072385Y-15017771D01*
X13094991Y-9182121D02*
X13094991Y-8900139D01*
X12813009Y-8900139D01*
X12813009Y-9182121D01*
X13094991Y-9182121D01*
X13162301Y-11140461D02*
X13162301Y-10858479D01*
X12880319Y-10858479D01*
X12880319Y-11140461D01*
X13162301Y-11140461D01*
X13304541Y-15067301D02*
X13304541Y-14785319D01*
X13022559Y-14785319D01*
X13022559Y-15067301D01*
X13304541Y-15067301D01*
X13699511Y-13202941D02*
X13699511Y-12920959D01*
X13417529Y-12920959D01*
X13417529Y-13202941D01*
X13699511Y-13202941D01*
X14411729Y-14458515D02*
X14411729Y-14176533D01*
X14129746Y-14176533D01*
X14129746Y-14458515D01*
X14411729Y-14458515D01*
X14425951Y-7515881D02*
X14425951Y-7233899D01*
X14143969Y-7233899D01*
X14143969Y-7515881D01*
X14425951Y-7515881D01*
X14452621Y-5087641D02*
X14452621Y-4805659D01*
X14170639Y-4805659D01*
X14170639Y-5087641D01*
X14452621Y-5087641D01*
X14643885Y-14508045D02*
X14643885Y-14226063D01*
X14361902Y-14226063D01*
X14361902Y-14508045D01*
X14643885Y-14508045D01*
X14959351Y-9573281D02*
X14959351Y-9291299D01*
X14677369Y-9291299D01*
X14677369Y-9573281D01*
X14959351Y-9573281D01*
X15026661Y-11536701D02*
X15026661Y-11254719D01*
X14744679Y-11254719D01*
X14744679Y-11536701D01*
X15026661Y-11536701D01*
X15562601Y-13597911D02*
X15562601Y-13315929D01*
X15280619Y-13315929D01*
X15280619Y-13597911D01*
X15562601Y-13597911D01*
X16099811Y-15660391D02*
X16099811Y-15378409D01*
X15817829Y-15378409D01*
X15817829Y-15660391D01*
X16099811Y-15660391D01*
X16290311Y-7909581D02*
X16290311Y-7627599D01*
X16008329Y-7627599D01*
X16008329Y-7909581D01*
X16290311Y-7909581D01*
X16314441Y-5483881D02*
X16314441Y-5201899D01*
X16032459Y-5201899D01*
X16032459Y-5483881D01*
X16314441Y-5483881D01*
X18426114Y-13895536D02*
X18426114Y-13613553D01*
X18144132Y-13613553D01*
X18144132Y-13895536D01*
X18426114Y-13895536D01*
X18567421Y-9970791D02*
X18567421Y-9688809D01*
X18285439Y-9688809D01*
X18285439Y-9970791D01*
X18567421Y-9970791D01*
X19072881Y-5482611D02*
X19072881Y-5200629D01*
X18790899Y-5200629D01*
X18790899Y-5482611D01*
X19072881Y-5482611D01*
X19102091Y-7909581D02*
X19102091Y-7627599D01*
X18820109Y-7627599D01*
X18820109Y-7909581D01*
X19102091Y-7909581D01*
X19428481Y-11734821D02*
X19428481Y-11452839D01*
X19146499Y-11452839D01*
X19146499Y-11734821D01*
X19428481Y-11734821D01*
X20046208Y-14652825D02*
X20046208Y-14370843D01*
X19764225Y-14370843D01*
X19764225Y-14652825D01*
X20046208Y-14652825D01*
X20289541Y-13500121D02*
X20289541Y-13218139D01*
X20007559Y-13218139D01*
X20007559Y-13500121D01*
X20289541Y-13500121D01*
X20429241Y-9573281D02*
X20429241Y-9291299D01*
X20147259Y-9291299D01*
X20147259Y-9573281D01*
X20429241Y-9573281D01*
X20935971Y-5086371D02*
X20935971Y-4804389D01*
X20653989Y-4804389D01*
X20653989Y-5086371D01*
X20935971Y-5086371D01*
X20966451Y-7514611D02*
X20966451Y-7232629D01*
X20684469Y-7232629D01*
X20684469Y-7514611D01*
X20966451Y-7514611D01*
X21291571Y-11337311D02*
X21291571Y-11055329D01*
X21009589Y-11055329D01*
X21009589Y-11337311D01*
X21291571Y-11337311D01*
X21385551Y-15212081D02*
X21385551Y-14930099D01*
X21103569Y-14930099D01*
X21103569Y-15212081D01*
X21385551Y-15212081D01*
X22153901Y-13102611D02*
X22153901Y-12820629D01*
X21871919Y-12820629D01*
X21871919Y-13102611D01*
X22153901Y-13102611D01*
X22291061Y-9178311D02*
X22291061Y-8896329D01*
X22009079Y-8896329D01*
X22009079Y-9178311D01*
X22291061Y-9178311D01*
X22381633Y-14156416D02*
X22381633Y-13874433D01*
X22099650Y-13874433D01*
X22099650Y-14156416D01*
X22381633Y-14156416D01*
X22827001Y-7117101D02*
X22827001Y-6835119D01*
X22545019Y-6835119D01*
X22545019Y-7117101D01*
X22827001Y-7117101D01*
X23154661Y-10939801D02*
X23154661Y-10657819D01*
X22872679Y-10657819D01*
X22872679Y-10939801D01*
X23154661Y-10939801D01*
X23263881Y-4591071D02*
X23263881Y-4309089D01*
X22981899Y-4309089D01*
X22981899Y-4591071D01*
X23263881Y-4591071D01*
X24015721Y-12706371D02*
X24015721Y-12424389D01*
X23733739Y-12424389D01*
X23733739Y-12706371D01*
X24015721Y-12706371D01*
X24154151Y-8782071D02*
X24154151Y-8500089D01*
X23872169Y-8500089D01*
X23872169Y-8782071D01*
X24154151Y-8782071D01*
X24692631Y-6723401D02*
X24692631Y-6441419D01*
X24410649Y-6441419D01*
X24410649Y-6723401D01*
X24692631Y-6723401D01*
X25015211Y-10546101D02*
X25015211Y-10264119D01*
X24733229Y-10264119D01*
X24733229Y-10546101D01*
X25015211Y-10546101D01*
X25126971Y-4194831D02*
X25126971Y-3912849D01*
X24844989Y-3912849D01*
X24844989Y-4194831D01*
X25126971Y-4194831D01*
X25344141Y-14371341D02*
X25344141Y-14089359D01*
X25062159Y-14089359D01*
X25062159Y-14371341D01*
X25344141Y-14371341D01*
X25880081Y-12310131D02*
X25880081Y-12028149D01*
X25598099Y-12028149D01*
X25598099Y-12310131D01*
X25880081Y-12310131D01*
X26017241Y-8387101D02*
X26017241Y-8105119D01*
X25735259Y-8105119D01*
X25735259Y-8387101D01*
X26017241Y-8387101D01*
X26697961Y-6300491D02*
X26697961Y-6018509D01*
X26415979Y-6018509D01*
X26415979Y-6300491D01*
X26697961Y-6300491D01*
X27064991Y-10261621D02*
X27064991Y-9979639D01*
X26783009Y-9979639D01*
X26783009Y-10261621D01*
X27064991Y-10261621D01*
X27203421Y-3920511D02*
X27203421Y-3638529D01*
X26921439Y-3638529D01*
X26921439Y-3920511D01*
X27203421Y-3920511D01*
X28017491Y-12164081D02*
X28017491Y-11882099D01*
X27735509Y-11882099D01*
X27735509Y-12164081D01*
X28017491Y-12164081D01*
X28067021Y-8354081D02*
X28067021Y-8072099D01*
X27785039Y-8072099D01*
X27785039Y-8354081D01*
X28067021Y-8354081D01*
X28601691Y-6450351D02*
X28601691Y-6168369D01*
X28319709Y-6168369D01*
X28319709Y-6450351D01*
X28601691Y-6450351D01*
X28969991Y-10261621D02*
X28969991Y-9979639D01*
X28688009Y-9979639D01*
X28688009Y-10261621D01*
X28969991Y-10261621D01*
X29109691Y-3920511D02*
X29109691Y-3638529D01*
X28827709Y-3638529D01*
X28827709Y-3920511D01*
X29109691Y-3920511D01*
X29970751Y-8354081D02*
X29970751Y-8072099D01*
X29688769Y-8072099D01*
X29688769Y-8354081D01*
X29970751Y-8354081D01*
X30265391Y-7274581D02*
X30265391Y-6992599D01*
X29983409Y-6992599D01*
X29983409Y-7274581D01*
X30265391Y-7274581D01*
X30507961Y-6450351D02*
X30507961Y-6168369D01*
X30225979Y-6168369D01*
X30225979Y-6450351D01*
X30507961Y-6450351D01*
X30638771Y-12165351D02*
X30638771Y-11883369D01*
X30356789Y-11883369D01*
X30356789Y-12165351D01*
X30638771Y-12165351D01*
X30871181Y-9433581D02*
X30871181Y-9151599D01*
X30589199Y-9151599D01*
X30589199Y-9433581D01*
X30871181Y-9433581D01*
X31459191Y-6449081D02*
X31459191Y-6167099D01*
X31177209Y-6167099D01*
X31177209Y-6449081D01*
X31459191Y-6449081D01*
X31766531Y-4070371D02*
X31766531Y-3788389D01*
X31484549Y-3788389D01*
X31484549Y-4070371D01*
X31766531Y-4070371D01*
X31826221Y-14545331D02*
X31826221Y-14263349D01*
X31544239Y-14263349D01*
X31544239Y-14545331D01*
X31826221Y-14545331D01*
X32064981Y-10259081D02*
X32064981Y-9977099D01*
X31782999Y-9977099D01*
X31782999Y-10259081D01*
X32064981Y-10259081D01*
X32352001Y-8355351D02*
X32352001Y-8073369D01*
X32070019Y-8073369D01*
X32070019Y-8355351D01*
X32352001Y-8355351D01*
X32411691Y-6449081D02*
X32411691Y-6167099D01*
X32129709Y-6167099D01*
X32129709Y-6449081D01*
X32411691Y-6449081D01*
X32652991Y-7274581D02*
X32652991Y-6992599D01*
X32371009Y-6992599D01*
X32371009Y-7274581D01*
X32652991Y-7274581D01*
X33258781Y-9433581D02*
X33258781Y-9151599D01*
X32976799Y-9151599D01*
X32976799Y-9433581D01*
X33258781Y-9433581D01*
X33732491Y-12640331D02*
X33732491Y-12358349D01*
X33450509Y-12358349D01*
X33450509Y-12640331D01*
X33732491Y-12640331D01*
X33732491Y-14545331D02*
X33732491Y-14263349D01*
X33450509Y-14263349D01*
X33450509Y-14545331D01*
X33732491Y-14545331D01*
X34372571Y-4069101D02*
X34372571Y-3787119D01*
X34090589Y-3787119D01*
X34090589Y-4069101D01*
X34372571Y-4069101D01*
X34794211Y-5974101D02*
X34794211Y-5692119D01*
X34512229Y-5692119D01*
X34512229Y-5974101D01*
X34794211Y-5974101D01*
X35209501Y-7877831D02*
X35209501Y-7595849D01*
X34927519Y-7595849D01*
X34927519Y-7877831D01*
X35209501Y-7877831D01*
X35636221Y-9782831D02*
X35636221Y-9500849D01*
X35354239Y-9500849D01*
X35354239Y-9782831D01*
X35636221Y-9782831D01*
X35637491Y-14545331D02*
X35637491Y-14263349D01*
X35355509Y-14263349D01*
X35355509Y-14545331D01*
X35637491Y-14545331D01*
D12*
X2820178Y-17235738D02*
X2820178Y-16935738D01*
X2891607Y-16935738D01*
X2934464Y-16950023D01*
X2963036Y-16978595D01*
X2977321Y-17007166D01*
X2991607Y-17064309D01*
X2991607Y-17107166D01*
X2977321Y-17164309D01*
X2963036Y-17192880D01*
X2934464Y-17221452D01*
X2891607Y-17235738D01*
X2820178Y-17235738D01*
X3120178Y-17235738D02*
X3120178Y-17035738D01*
X3120178Y-17092880D02*
X3134464Y-17064309D01*
X3148750Y-17050023D01*
X3177321Y-17035738D01*
X3205893Y-17035738D01*
X3305893Y-17235738D02*
X3305893Y-17035738D01*
X3305893Y-16935738D02*
X3291607Y-16950023D01*
X3305893Y-16964309D01*
X3320178Y-16950023D01*
X3305893Y-16935738D01*
X3305893Y-16964309D01*
X3491607Y-17235738D02*
X3463036Y-17221452D01*
X3448750Y-17192880D01*
X3448750Y-16935738D01*
X3648750Y-17235738D02*
X3620178Y-17221452D01*
X3605893Y-17192880D01*
X3605893Y-16935738D01*
X3991607Y-17235738D02*
X3991607Y-16935738D01*
X4091607Y-17150023D01*
X4191607Y-16935738D01*
X4191607Y-17235738D01*
X4463036Y-17235738D02*
X4463036Y-17078595D01*
X4448750Y-17050023D01*
X4420178Y-17035738D01*
X4363036Y-17035738D01*
X4334464Y-17050023D01*
X4463036Y-17221452D02*
X4434464Y-17235738D01*
X4363036Y-17235738D01*
X4334464Y-17221452D01*
X4320178Y-17192880D01*
X4320178Y-17164309D01*
X4334464Y-17135738D01*
X4363036Y-17121452D01*
X4434464Y-17121452D01*
X4463036Y-17107166D01*
X4605893Y-17035738D02*
X4605893Y-17335738D01*
X4605893Y-17050023D02*
X4634464Y-17035738D01*
X4691607Y-17035738D01*
X4720178Y-17050023D01*
X4734464Y-17064309D01*
X4748750Y-17092880D01*
X4748750Y-17178595D01*
X4734464Y-17207166D01*
X4720178Y-17221452D01*
X4691607Y-17235738D01*
X4634464Y-17235738D01*
X4605893Y-17221452D01*
X4877321Y-17207166D02*
X4891607Y-17221452D01*
X4877321Y-17235738D01*
X4863036Y-17221452D01*
X4877321Y-17207166D01*
X4877321Y-17235738D01*
X4877321Y-17050023D02*
X4891607Y-17064309D01*
X4877321Y-17078595D01*
X4863036Y-17064309D01*
X4877321Y-17050023D01*
X4877321Y-17078595D01*
X2383750Y-17655023D02*
X2533750Y-17805023D01*
X2533750Y-17655023D02*
X2383750Y-17805023D01*
X2977321Y-17865738D02*
X2805893Y-17865738D01*
X2891607Y-17865738D02*
X2891607Y-17565738D01*
X2863036Y-17608595D01*
X2834464Y-17637166D01*
X2805893Y-17651452D01*
X3105893Y-17837166D02*
X3120178Y-17851452D01*
X3105893Y-17865738D01*
X3091607Y-17851452D01*
X3105893Y-17837166D01*
X3105893Y-17865738D01*
X3391607Y-17565738D02*
X3248750Y-17565738D01*
X3234464Y-17708595D01*
X3248750Y-17694309D01*
X3277321Y-17680023D01*
X3348750Y-17680023D01*
X3377321Y-17694309D01*
X3391607Y-17708595D01*
X3405893Y-17737166D01*
X3405893Y-17808595D01*
X3391607Y-17837166D01*
X3377321Y-17851452D01*
X3348750Y-17865738D01*
X3277321Y-17865738D01*
X3248750Y-17851452D01*
X3234464Y-17837166D01*
X3591607Y-17565738D02*
X3620178Y-17565738D01*
X3648750Y-17580023D01*
X3663036Y-17594309D01*
X3677321Y-17622880D01*
X3691607Y-17680023D01*
X3691607Y-17751452D01*
X3677321Y-17808595D01*
X3663036Y-17837166D01*
X3648750Y-17851452D01*
X3620178Y-17865738D01*
X3591607Y-17865738D01*
X3563036Y-17851452D01*
X3548750Y-17837166D01*
X3534464Y-17808595D01*
X3520178Y-17751452D01*
X3520178Y-17680023D01*
X3534464Y-17622880D01*
X3548750Y-17594309D01*
X3563036Y-17580023D01*
X3591607Y-17565738D01*
X3820178Y-17865738D02*
X3820178Y-17665738D01*
X3820178Y-17694309D02*
X3834464Y-17680023D01*
X3863036Y-17665738D01*
X3905893Y-17665738D01*
X3934464Y-17680023D01*
X3948750Y-17708595D01*
X3948750Y-17865738D01*
X3948750Y-17708595D02*
X3963036Y-17680023D01*
X3991607Y-17665738D01*
X4034464Y-17665738D01*
X4063036Y-17680023D01*
X4077321Y-17708595D01*
X4077321Y-17865738D01*
X4220178Y-17865738D02*
X4220178Y-17665738D01*
X4220178Y-17694309D02*
X4234464Y-17680023D01*
X4263036Y-17665738D01*
X4305893Y-17665738D01*
X4334464Y-17680023D01*
X4348750Y-17708595D01*
X4348750Y-17865738D01*
X4348750Y-17708595D02*
X4363036Y-17680023D01*
X4391607Y-17665738D01*
X4434464Y-17665738D01*
X4463036Y-17680023D01*
X4477321Y-17708595D01*
X4477321Y-17865738D01*
X5063036Y-17551452D02*
X4805893Y-17937166D01*
X5448750Y-17565738D02*
X5477321Y-17565738D01*
X5505893Y-17580023D01*
X5520178Y-17594309D01*
X5534464Y-17622880D01*
X5548750Y-17680023D01*
X5548750Y-17751452D01*
X5534464Y-17808595D01*
X5520178Y-17837166D01*
X5505893Y-17851452D01*
X5477321Y-17865738D01*
X5448750Y-17865738D01*
X5420178Y-17851452D01*
X5405893Y-17837166D01*
X5391607Y-17808595D01*
X5377321Y-17751452D01*
X5377321Y-17680023D01*
X5391607Y-17622880D01*
X5405893Y-17594309D01*
X5420178Y-17580023D01*
X5448750Y-17565738D01*
X5677321Y-17837166D02*
X5691607Y-17851452D01*
X5677321Y-17865738D01*
X5663036Y-17851452D01*
X5677321Y-17837166D01*
X5677321Y-17865738D01*
X5877321Y-17565738D02*
X5905893Y-17565738D01*
X5934464Y-17580023D01*
X5948750Y-17594309D01*
X5963036Y-17622880D01*
X5977321Y-17680023D01*
X5977321Y-17751452D01*
X5963036Y-17808595D01*
X5948750Y-17837166D01*
X5934464Y-17851452D01*
X5905893Y-17865738D01*
X5877321Y-17865738D01*
X5848750Y-17851452D01*
X5834464Y-17837166D01*
X5820178Y-17808595D01*
X5805893Y-17751452D01*
X5805893Y-17680023D01*
X5820178Y-17622880D01*
X5834464Y-17594309D01*
X5848750Y-17580023D01*
X5877321Y-17565738D01*
X6248750Y-17565738D02*
X6105893Y-17565738D01*
X6091607Y-17708595D01*
X6105893Y-17694309D01*
X6134464Y-17680023D01*
X6205893Y-17680023D01*
X6234464Y-17694309D01*
X6248750Y-17708595D01*
X6263036Y-17737166D01*
X6263036Y-17808595D01*
X6248750Y-17837166D01*
X6234464Y-17851452D01*
X6205893Y-17865738D01*
X6134464Y-17865738D01*
X6105893Y-17851452D01*
X6091607Y-17837166D01*
X6405893Y-17865738D02*
X6463036Y-17865738D01*
X6491607Y-17851452D01*
X6505893Y-17837166D01*
X6534464Y-17794309D01*
X6548750Y-17737166D01*
X6548750Y-17622880D01*
X6534464Y-17594309D01*
X6520178Y-17580023D01*
X6491607Y-17565738D01*
X6434464Y-17565738D01*
X6405893Y-17580023D01*
X6391607Y-17594309D01*
X6377321Y-17622880D01*
X6377321Y-17694309D01*
X6391607Y-17722880D01*
X6405893Y-17737166D01*
X6434464Y-17751452D01*
X6491607Y-17751452D01*
X6520178Y-17737166D01*
X6534464Y-17722880D01*
X6548750Y-17694309D01*
X6663036Y-17565738D02*
X6663036Y-17622880D01*
X6777321Y-17565738D02*
X6777321Y-17622880D01*
X7220178Y-17980023D02*
X7205893Y-17965738D01*
X7177321Y-17922880D01*
X7163036Y-17894309D01*
X7148750Y-17851452D01*
X7134464Y-17780023D01*
X7134464Y-17722880D01*
X7148750Y-17651452D01*
X7163036Y-17608595D01*
X7177321Y-17580023D01*
X7205893Y-17537166D01*
X7220178Y-17522880D01*
X7391607Y-17565738D02*
X7420178Y-17565738D01*
X7448750Y-17580023D01*
X7463036Y-17594309D01*
X7477321Y-17622880D01*
X7491607Y-17680023D01*
X7491607Y-17751452D01*
X7477321Y-17808595D01*
X7463036Y-17837166D01*
X7448750Y-17851452D01*
X7420178Y-17865738D01*
X7391607Y-17865738D01*
X7363036Y-17851452D01*
X7348750Y-17837166D01*
X7334464Y-17808595D01*
X7320178Y-17751452D01*
X7320178Y-17680023D01*
X7334464Y-17622880D01*
X7348750Y-17594309D01*
X7363036Y-17580023D01*
X7391607Y-17565738D01*
X7848750Y-17865738D02*
X7848750Y-17565738D01*
X7977321Y-17865738D02*
X7977321Y-17708595D01*
X7963036Y-17680023D01*
X7934464Y-17665738D01*
X7891607Y-17665738D01*
X7863036Y-17680023D01*
X7848750Y-17694309D01*
X8163036Y-17865738D02*
X8134464Y-17851452D01*
X8120178Y-17837166D01*
X8105893Y-17808595D01*
X8105893Y-17722880D01*
X8120178Y-17694309D01*
X8134464Y-17680023D01*
X8163036Y-17665738D01*
X8205893Y-17665738D01*
X8234464Y-17680023D01*
X8248750Y-17694309D01*
X8263036Y-17722880D01*
X8263036Y-17808595D01*
X8248750Y-17837166D01*
X8234464Y-17851452D01*
X8205893Y-17865738D01*
X8163036Y-17865738D01*
X8434464Y-17865738D02*
X8405893Y-17851452D01*
X8391607Y-17822880D01*
X8391607Y-17565738D01*
X8663036Y-17851452D02*
X8634464Y-17865738D01*
X8577321Y-17865738D01*
X8548750Y-17851452D01*
X8534464Y-17822880D01*
X8534464Y-17708595D01*
X8548750Y-17680023D01*
X8577321Y-17665738D01*
X8634464Y-17665738D01*
X8663036Y-17680023D01*
X8677321Y-17708595D01*
X8677321Y-17737166D01*
X8534464Y-17765738D01*
X8791607Y-17851452D02*
X8820178Y-17865738D01*
X8877321Y-17865738D01*
X8905893Y-17851452D01*
X8920178Y-17822880D01*
X8920178Y-17808595D01*
X8905893Y-17780023D01*
X8877321Y-17765738D01*
X8834464Y-17765738D01*
X8805893Y-17751452D01*
X8791607Y-17722880D01*
X8791607Y-17708595D01*
X8805893Y-17680023D01*
X8834464Y-17665738D01*
X8877321Y-17665738D01*
X8905893Y-17680023D01*
X9277321Y-17751452D02*
X9505893Y-17751452D01*
X9391607Y-17865738D02*
X9391607Y-17637166D01*
X9863036Y-17594309D02*
X9877321Y-17580023D01*
X9905893Y-17565738D01*
X9977321Y-17565738D01*
X10005893Y-17580023D01*
X10020178Y-17594309D01*
X10034464Y-17622880D01*
X10034464Y-17651452D01*
X10020178Y-17694309D01*
X9848750Y-17865738D01*
X10034464Y-17865738D01*
X10377321Y-17851452D02*
X10405893Y-17865738D01*
X10463036Y-17865738D01*
X10491607Y-17851452D01*
X10505893Y-17822880D01*
X10505893Y-17808595D01*
X10491607Y-17780023D01*
X10463036Y-17765738D01*
X10420178Y-17765738D01*
X10391607Y-17751452D01*
X10377321Y-17722880D01*
X10377321Y-17708595D01*
X10391607Y-17680023D01*
X10420178Y-17665738D01*
X10463036Y-17665738D01*
X10491607Y-17680023D01*
X10677321Y-17865738D02*
X10648750Y-17851452D01*
X10634464Y-17822880D01*
X10634464Y-17565738D01*
X10834464Y-17865738D02*
X10805893Y-17851452D01*
X10791607Y-17837166D01*
X10777321Y-17808595D01*
X10777321Y-17722880D01*
X10791607Y-17694309D01*
X10805893Y-17680023D01*
X10834464Y-17665738D01*
X10877321Y-17665738D01*
X10905893Y-17680023D01*
X10920178Y-17694309D01*
X10934464Y-17722880D01*
X10934464Y-17808595D01*
X10920178Y-17837166D01*
X10905893Y-17851452D01*
X10877321Y-17865738D01*
X10834464Y-17865738D01*
X11020178Y-17665738D02*
X11134464Y-17665738D01*
X11063036Y-17565738D02*
X11063036Y-17822880D01*
X11077321Y-17851452D01*
X11105893Y-17865738D01*
X11134464Y-17865738D01*
X11220178Y-17851452D02*
X11248750Y-17865738D01*
X11305893Y-17865738D01*
X11334464Y-17851452D01*
X11348750Y-17822880D01*
X11348750Y-17808595D01*
X11334464Y-17780023D01*
X11305893Y-17765738D01*
X11263036Y-17765738D01*
X11234464Y-17751452D01*
X11220178Y-17722880D01*
X11220178Y-17708595D01*
X11234464Y-17680023D01*
X11263036Y-17665738D01*
X11305893Y-17665738D01*
X11334464Y-17680023D01*
X11448750Y-17980023D02*
X11463036Y-17965738D01*
X11491607Y-17922880D01*
X11505893Y-17894309D01*
X11520178Y-17851452D01*
X11534464Y-17780023D01*
X11534464Y-17722880D01*
X11520178Y-17651452D01*
X11505893Y-17608595D01*
X11491607Y-17580023D01*
X11463036Y-17537166D01*
X11448750Y-17522880D01*
X11991607Y-17980023D02*
X11977321Y-17965738D01*
X11948750Y-17922880D01*
X11934464Y-17894309D01*
X11920178Y-17851452D01*
X11905893Y-17780023D01*
X11905893Y-17722880D01*
X11920178Y-17651452D01*
X11934464Y-17608595D01*
X11948750Y-17580023D01*
X11977321Y-17537166D01*
X11991607Y-17522880D01*
X12105893Y-17665738D02*
X12105893Y-17865738D01*
X12105893Y-17694309D02*
X12120178Y-17680023D01*
X12148750Y-17665738D01*
X12191607Y-17665738D01*
X12220178Y-17680023D01*
X12234464Y-17708595D01*
X12234464Y-17865738D01*
X12420178Y-17865738D02*
X12391607Y-17851452D01*
X12377321Y-17837166D01*
X12363036Y-17808595D01*
X12363036Y-17722880D01*
X12377321Y-17694309D01*
X12391607Y-17680023D01*
X12420178Y-17665738D01*
X12463036Y-17665738D01*
X12491607Y-17680023D01*
X12505893Y-17694309D01*
X12520178Y-17722880D01*
X12520178Y-17808595D01*
X12505893Y-17837166D01*
X12491607Y-17851452D01*
X12463036Y-17865738D01*
X12420178Y-17865738D01*
X12605893Y-17665738D02*
X12720178Y-17665738D01*
X12648750Y-17565738D02*
X12648750Y-17822880D01*
X12663036Y-17851452D01*
X12691607Y-17865738D01*
X12720178Y-17865738D01*
X13048750Y-17665738D02*
X13048750Y-17965738D01*
X13048750Y-17680023D02*
X13077321Y-17665738D01*
X13134464Y-17665738D01*
X13163036Y-17680023D01*
X13177321Y-17694309D01*
X13191607Y-17722880D01*
X13191607Y-17808595D01*
X13177321Y-17837166D01*
X13163036Y-17851452D01*
X13134464Y-17865738D01*
X13077321Y-17865738D01*
X13048750Y-17851452D01*
X13363036Y-17865738D02*
X13334464Y-17851452D01*
X13320178Y-17822880D01*
X13320178Y-17565738D01*
X13605893Y-17865738D02*
X13605893Y-17708595D01*
X13591607Y-17680023D01*
X13563036Y-17665738D01*
X13505893Y-17665738D01*
X13477321Y-17680023D01*
X13605893Y-17851452D02*
X13577321Y-17865738D01*
X13505893Y-17865738D01*
X13477321Y-17851452D01*
X13463036Y-17822880D01*
X13463036Y-17794309D01*
X13477321Y-17765738D01*
X13505893Y-17751452D01*
X13577321Y-17751452D01*
X13605893Y-17737166D01*
X13705893Y-17665738D02*
X13820178Y-17665738D01*
X13748750Y-17565738D02*
X13748750Y-17822880D01*
X13763036Y-17851452D01*
X13791607Y-17865738D01*
X13820178Y-17865738D01*
X14034464Y-17851452D02*
X14005893Y-17865738D01*
X13948750Y-17865738D01*
X13920178Y-17851452D01*
X13905893Y-17822880D01*
X13905893Y-17708595D01*
X13920178Y-17680023D01*
X13948750Y-17665738D01*
X14005893Y-17665738D01*
X14034464Y-17680023D01*
X14048750Y-17708595D01*
X14048750Y-17737166D01*
X13905893Y-17765738D01*
X14305893Y-17865738D02*
X14305893Y-17565738D01*
X14305893Y-17851452D02*
X14277321Y-17865738D01*
X14220178Y-17865738D01*
X14191607Y-17851452D01*
X14177321Y-17837166D01*
X14163036Y-17808595D01*
X14163036Y-17722880D01*
X14177321Y-17694309D01*
X14191607Y-17680023D01*
X14220178Y-17665738D01*
X14277321Y-17665738D01*
X14305893Y-17680023D01*
X14420178Y-17980023D02*
X14434464Y-17965738D01*
X14463036Y-17922880D01*
X14477321Y-17894309D01*
X14491607Y-17851452D01*
X14505893Y-17780023D01*
X14505893Y-17722880D01*
X14491607Y-17651452D01*
X14477321Y-17608595D01*
X14463036Y-17580023D01*
X14434464Y-17537166D01*
X14420178Y-17522880D01*
X2533750Y-18126023D02*
G75*
G03*
X2533750Y-18126023I-87500J0D01*
G01*
X2977321Y-18261738D02*
X2805893Y-18261738D01*
X2891607Y-18261738D02*
X2891607Y-17961738D01*
X2863036Y-18004595D01*
X2834464Y-18033166D01*
X2805893Y-18047452D01*
X3105893Y-18233166D02*
X3120178Y-18247452D01*
X3105893Y-18261738D01*
X3091607Y-18247452D01*
X3105893Y-18233166D01*
X3105893Y-18261738D01*
X3220178Y-17961738D02*
X3420178Y-17961738D01*
X3291607Y-18261738D01*
X3677321Y-17961738D02*
X3534464Y-17961738D01*
X3520178Y-18104595D01*
X3534464Y-18090309D01*
X3563036Y-18076023D01*
X3634464Y-18076023D01*
X3663036Y-18090309D01*
X3677321Y-18104595D01*
X3691607Y-18133166D01*
X3691607Y-18204595D01*
X3677321Y-18233166D01*
X3663036Y-18247452D01*
X3634464Y-18261738D01*
X3563036Y-18261738D01*
X3534464Y-18247452D01*
X3520178Y-18233166D01*
X3820178Y-18261738D02*
X3820178Y-18061738D01*
X3820178Y-18090309D02*
X3834464Y-18076023D01*
X3863036Y-18061738D01*
X3905893Y-18061738D01*
X3934464Y-18076023D01*
X3948750Y-18104595D01*
X3948750Y-18261738D01*
X3948750Y-18104595D02*
X3963036Y-18076023D01*
X3991607Y-18061738D01*
X4034464Y-18061738D01*
X4063036Y-18076023D01*
X4077321Y-18104595D01*
X4077321Y-18261738D01*
X4220178Y-18261738D02*
X4220178Y-18061738D01*
X4220178Y-18090309D02*
X4234464Y-18076023D01*
X4263036Y-18061738D01*
X4305893Y-18061738D01*
X4334464Y-18076023D01*
X4348750Y-18104595D01*
X4348750Y-18261738D01*
X4348750Y-18104595D02*
X4363036Y-18076023D01*
X4391607Y-18061738D01*
X4434464Y-18061738D01*
X4463036Y-18076023D01*
X4477321Y-18104595D01*
X4477321Y-18261738D01*
X5063036Y-17947452D02*
X4805893Y-18333166D01*
X5448750Y-17961738D02*
X5477321Y-17961738D01*
X5505893Y-17976023D01*
X5520178Y-17990309D01*
X5534464Y-18018880D01*
X5548750Y-18076023D01*
X5548750Y-18147452D01*
X5534464Y-18204595D01*
X5520178Y-18233166D01*
X5505893Y-18247452D01*
X5477321Y-18261738D01*
X5448750Y-18261738D01*
X5420178Y-18247452D01*
X5405893Y-18233166D01*
X5391607Y-18204595D01*
X5377321Y-18147452D01*
X5377321Y-18076023D01*
X5391607Y-18018880D01*
X5405893Y-17990309D01*
X5420178Y-17976023D01*
X5448750Y-17961738D01*
X5677321Y-18233166D02*
X5691607Y-18247452D01*
X5677321Y-18261738D01*
X5663036Y-18247452D01*
X5677321Y-18233166D01*
X5677321Y-18261738D01*
X5877321Y-17961738D02*
X5905893Y-17961738D01*
X5934464Y-17976023D01*
X5948750Y-17990309D01*
X5963036Y-18018880D01*
X5977321Y-18076023D01*
X5977321Y-18147452D01*
X5963036Y-18204595D01*
X5948750Y-18233166D01*
X5934464Y-18247452D01*
X5905893Y-18261738D01*
X5877321Y-18261738D01*
X5848750Y-18247452D01*
X5834464Y-18233166D01*
X5820178Y-18204595D01*
X5805893Y-18147452D01*
X5805893Y-18076023D01*
X5820178Y-18018880D01*
X5834464Y-17990309D01*
X5848750Y-17976023D01*
X5877321Y-17961738D01*
X6234464Y-17961738D02*
X6177321Y-17961738D01*
X6148750Y-17976023D01*
X6134464Y-17990309D01*
X6105893Y-18033166D01*
X6091607Y-18090309D01*
X6091607Y-18204595D01*
X6105893Y-18233166D01*
X6120178Y-18247452D01*
X6148750Y-18261738D01*
X6205893Y-18261738D01*
X6234464Y-18247452D01*
X6248750Y-18233166D01*
X6263036Y-18204595D01*
X6263036Y-18133166D01*
X6248750Y-18104595D01*
X6234464Y-18090309D01*
X6205893Y-18076023D01*
X6148750Y-18076023D01*
X6120178Y-18090309D01*
X6105893Y-18104595D01*
X6091607Y-18133166D01*
X6405893Y-18261738D02*
X6463036Y-18261738D01*
X6491607Y-18247452D01*
X6505893Y-18233166D01*
X6534464Y-18190309D01*
X6548750Y-18133166D01*
X6548750Y-18018880D01*
X6534464Y-17990309D01*
X6520178Y-17976023D01*
X6491607Y-17961738D01*
X6434464Y-17961738D01*
X6405893Y-17976023D01*
X6391607Y-17990309D01*
X6377321Y-18018880D01*
X6377321Y-18090309D01*
X6391607Y-18118880D01*
X6405893Y-18133166D01*
X6434464Y-18147452D01*
X6491607Y-18147452D01*
X6520178Y-18133166D01*
X6534464Y-18118880D01*
X6548750Y-18090309D01*
X6663036Y-17961738D02*
X6663036Y-18018880D01*
X6777321Y-17961738D02*
X6777321Y-18018880D01*
X7220178Y-18376023D02*
X7205893Y-18361738D01*
X7177321Y-18318880D01*
X7163036Y-18290309D01*
X7148750Y-18247452D01*
X7134464Y-18176023D01*
X7134464Y-18118880D01*
X7148750Y-18047452D01*
X7163036Y-18004595D01*
X7177321Y-17976023D01*
X7205893Y-17933166D01*
X7220178Y-17918880D01*
X7491607Y-18261738D02*
X7320178Y-18261738D01*
X7405893Y-18261738D02*
X7405893Y-17961738D01*
X7377321Y-18004595D01*
X7348750Y-18033166D01*
X7320178Y-18047452D01*
X7591607Y-17961738D02*
X7791607Y-17961738D01*
X7663036Y-18261738D01*
X8034464Y-18061738D02*
X8034464Y-18261738D01*
X7963036Y-17947452D02*
X7891607Y-18161738D01*
X8077321Y-18161738D01*
X8420178Y-18261738D02*
X8420178Y-17961738D01*
X8548750Y-18261738D02*
X8548750Y-18104595D01*
X8534464Y-18076023D01*
X8505893Y-18061738D01*
X8463036Y-18061738D01*
X8434464Y-18076023D01*
X8420178Y-18090309D01*
X8734464Y-18261738D02*
X8705893Y-18247452D01*
X8691607Y-18233166D01*
X8677321Y-18204595D01*
X8677321Y-18118880D01*
X8691607Y-18090309D01*
X8705893Y-18076023D01*
X8734464Y-18061738D01*
X8777321Y-18061738D01*
X8805893Y-18076023D01*
X8820178Y-18090309D01*
X8834464Y-18118880D01*
X8834464Y-18204595D01*
X8820178Y-18233166D01*
X8805893Y-18247452D01*
X8777321Y-18261738D01*
X8734464Y-18261738D01*
X9005893Y-18261738D02*
X8977321Y-18247452D01*
X8963036Y-18218880D01*
X8963036Y-17961738D01*
X9234464Y-18247452D02*
X9205893Y-18261738D01*
X9148750Y-18261738D01*
X9120178Y-18247452D01*
X9105893Y-18218880D01*
X9105893Y-18104595D01*
X9120178Y-18076023D01*
X9148750Y-18061738D01*
X9205893Y-18061738D01*
X9234464Y-18076023D01*
X9248750Y-18104595D01*
X9248750Y-18133166D01*
X9105893Y-18161738D01*
X9363036Y-18247452D02*
X9391607Y-18261738D01*
X9448750Y-18261738D01*
X9477321Y-18247452D01*
X9491607Y-18218880D01*
X9491607Y-18204595D01*
X9477321Y-18176023D01*
X9448750Y-18161738D01*
X9405893Y-18161738D01*
X9377321Y-18147452D01*
X9363036Y-18118880D01*
X9363036Y-18104595D01*
X9377321Y-18076023D01*
X9405893Y-18061738D01*
X9448750Y-18061738D01*
X9477321Y-18076023D01*
X9591607Y-18376023D02*
X9605893Y-18361738D01*
X9634464Y-18318880D01*
X9648750Y-18290309D01*
X9663036Y-18247452D01*
X9677321Y-18176023D01*
X9677321Y-18118880D01*
X9663036Y-18047452D01*
X9648750Y-18004595D01*
X9634464Y-17976023D01*
X9605893Y-17933166D01*
X9591607Y-17918880D01*
X10134464Y-18376023D02*
X10120178Y-18361738D01*
X10091607Y-18318880D01*
X10077321Y-18290309D01*
X10063036Y-18247452D01*
X10048750Y-18176023D01*
X10048750Y-18118880D01*
X10063036Y-18047452D01*
X10077321Y-18004595D01*
X10091607Y-17976023D01*
X10120178Y-17933166D01*
X10134464Y-17918880D01*
X10248750Y-18061738D02*
X10248750Y-18261738D01*
X10248750Y-18090309D02*
X10263036Y-18076023D01*
X10291607Y-18061738D01*
X10334464Y-18061738D01*
X10363036Y-18076023D01*
X10377321Y-18104595D01*
X10377321Y-18261738D01*
X10563036Y-18261738D02*
X10534464Y-18247452D01*
X10520178Y-18233166D01*
X10505893Y-18204595D01*
X10505893Y-18118880D01*
X10520178Y-18090309D01*
X10534464Y-18076023D01*
X10563036Y-18061738D01*
X10605893Y-18061738D01*
X10634464Y-18076023D01*
X10648750Y-18090309D01*
X10663036Y-18118880D01*
X10663036Y-18204595D01*
X10648750Y-18233166D01*
X10634464Y-18247452D01*
X10605893Y-18261738D01*
X10563036Y-18261738D01*
X10748750Y-18061738D02*
X10863036Y-18061738D01*
X10791607Y-17961738D02*
X10791607Y-18218880D01*
X10805893Y-18247452D01*
X10834464Y-18261738D01*
X10863036Y-18261738D01*
X11191607Y-18061738D02*
X11191607Y-18361738D01*
X11191607Y-18076023D02*
X11220178Y-18061738D01*
X11277321Y-18061738D01*
X11305893Y-18076023D01*
X11320178Y-18090309D01*
X11334464Y-18118880D01*
X11334464Y-18204595D01*
X11320178Y-18233166D01*
X11305893Y-18247452D01*
X11277321Y-18261738D01*
X11220178Y-18261738D01*
X11191607Y-18247452D01*
X11505893Y-18261738D02*
X11477321Y-18247452D01*
X11463036Y-18218880D01*
X11463036Y-17961738D01*
X11748750Y-18261738D02*
X11748750Y-18104595D01*
X11734464Y-18076023D01*
X11705893Y-18061738D01*
X11648750Y-18061738D01*
X11620178Y-18076023D01*
X11748750Y-18247452D02*
X11720178Y-18261738D01*
X11648750Y-18261738D01*
X11620178Y-18247452D01*
X11605893Y-18218880D01*
X11605893Y-18190309D01*
X11620178Y-18161738D01*
X11648750Y-18147452D01*
X11720178Y-18147452D01*
X11748750Y-18133166D01*
X11848750Y-18061738D02*
X11963036Y-18061738D01*
X11891607Y-17961738D02*
X11891607Y-18218880D01*
X11905893Y-18247452D01*
X11934464Y-18261738D01*
X11963036Y-18261738D01*
X12177321Y-18247452D02*
X12148750Y-18261738D01*
X12091607Y-18261738D01*
X12063036Y-18247452D01*
X12048750Y-18218880D01*
X12048750Y-18104595D01*
X12063036Y-18076023D01*
X12091607Y-18061738D01*
X12148750Y-18061738D01*
X12177321Y-18076023D01*
X12191607Y-18104595D01*
X12191607Y-18133166D01*
X12048750Y-18161738D01*
X12448750Y-18261738D02*
X12448750Y-17961738D01*
X12448750Y-18247452D02*
X12420178Y-18261738D01*
X12363036Y-18261738D01*
X12334464Y-18247452D01*
X12320178Y-18233166D01*
X12305893Y-18204595D01*
X12305893Y-18118880D01*
X12320178Y-18090309D01*
X12334464Y-18076023D01*
X12363036Y-18061738D01*
X12420178Y-18061738D01*
X12448750Y-18076023D01*
X12563036Y-18376023D02*
X12577321Y-18361738D01*
X12605893Y-18318880D01*
X12620178Y-18290309D01*
X12634464Y-18247452D01*
X12648750Y-18176023D01*
X12648750Y-18118880D01*
X12634464Y-18047452D01*
X12620178Y-18004595D01*
X12605893Y-17976023D01*
X12577321Y-17933166D01*
X12563036Y-17918880D01*
X2381350Y-18369623D02*
X2381350Y-18674423D01*
X2228950Y-18522023D02*
X2533750Y-18522023D01*
X2791607Y-18357738D02*
X2977321Y-18357738D01*
X2877321Y-18472023D01*
X2920178Y-18472023D01*
X2948750Y-18486309D01*
X2963036Y-18500595D01*
X2977321Y-18529166D01*
X2977321Y-18600595D01*
X2963036Y-18629166D01*
X2948750Y-18643452D01*
X2920178Y-18657738D01*
X2834464Y-18657738D01*
X2805893Y-18643452D01*
X2791607Y-18629166D01*
X3105893Y-18629166D02*
X3120178Y-18643452D01*
X3105893Y-18657738D01*
X3091607Y-18643452D01*
X3105893Y-18629166D01*
X3105893Y-18657738D01*
X3305893Y-18357738D02*
X3334464Y-18357738D01*
X3363036Y-18372023D01*
X3377321Y-18386309D01*
X3391607Y-18414880D01*
X3405893Y-18472023D01*
X3405893Y-18543452D01*
X3391607Y-18600595D01*
X3377321Y-18629166D01*
X3363036Y-18643452D01*
X3334464Y-18657738D01*
X3305893Y-18657738D01*
X3277321Y-18643452D01*
X3263036Y-18629166D01*
X3248750Y-18600595D01*
X3234464Y-18543452D01*
X3234464Y-18472023D01*
X3248750Y-18414880D01*
X3263036Y-18386309D01*
X3277321Y-18372023D01*
X3305893Y-18357738D01*
X3677321Y-18357738D02*
X3534464Y-18357738D01*
X3520178Y-18500595D01*
X3534464Y-18486309D01*
X3563036Y-18472023D01*
X3634464Y-18472023D01*
X3663036Y-18486309D01*
X3677321Y-18500595D01*
X3691607Y-18529166D01*
X3691607Y-18600595D01*
X3677321Y-18629166D01*
X3663036Y-18643452D01*
X3634464Y-18657738D01*
X3563036Y-18657738D01*
X3534464Y-18643452D01*
X3520178Y-18629166D01*
X3820178Y-18657738D02*
X3820178Y-18457738D01*
X3820178Y-18486309D02*
X3834464Y-18472023D01*
X3863036Y-18457738D01*
X3905893Y-18457738D01*
X3934464Y-18472023D01*
X3948750Y-18500595D01*
X3948750Y-18657738D01*
X3948750Y-18500595D02*
X3963036Y-18472023D01*
X3991607Y-18457738D01*
X4034464Y-18457738D01*
X4063036Y-18472023D01*
X4077321Y-18500595D01*
X4077321Y-18657738D01*
X4220178Y-18657738D02*
X4220178Y-18457738D01*
X4220178Y-18486309D02*
X4234464Y-18472023D01*
X4263036Y-18457738D01*
X4305893Y-18457738D01*
X4334464Y-18472023D01*
X4348750Y-18500595D01*
X4348750Y-18657738D01*
X4348750Y-18500595D02*
X4363036Y-18472023D01*
X4391607Y-18457738D01*
X4434464Y-18457738D01*
X4463036Y-18472023D01*
X4477321Y-18500595D01*
X4477321Y-18657738D01*
X5063036Y-18343452D02*
X4805893Y-18729166D01*
X5448750Y-18357738D02*
X5477321Y-18357738D01*
X5505893Y-18372023D01*
X5520178Y-18386309D01*
X5534464Y-18414880D01*
X5548750Y-18472023D01*
X5548750Y-18543452D01*
X5534464Y-18600595D01*
X5520178Y-18629166D01*
X5505893Y-18643452D01*
X5477321Y-18657738D01*
X5448750Y-18657738D01*
X5420178Y-18643452D01*
X5405893Y-18629166D01*
X5391607Y-18600595D01*
X5377321Y-18543452D01*
X5377321Y-18472023D01*
X5391607Y-18414880D01*
X5405893Y-18386309D01*
X5420178Y-18372023D01*
X5448750Y-18357738D01*
X5677321Y-18629166D02*
X5691607Y-18643452D01*
X5677321Y-18657738D01*
X5663036Y-18643452D01*
X5677321Y-18629166D01*
X5677321Y-18657738D01*
X5977321Y-18657738D02*
X5805893Y-18657738D01*
X5891607Y-18657738D02*
X5891607Y-18357738D01*
X5863036Y-18400595D01*
X5834464Y-18429166D01*
X5805893Y-18443452D01*
X6091607Y-18386309D02*
X6105893Y-18372023D01*
X6134464Y-18357738D01*
X6205893Y-18357738D01*
X6234464Y-18372023D01*
X6248750Y-18386309D01*
X6263036Y-18414880D01*
X6263036Y-18443452D01*
X6248750Y-18486309D01*
X6077321Y-18657738D01*
X6263036Y-18657738D01*
X6448750Y-18357738D02*
X6477321Y-18357738D01*
X6505893Y-18372023D01*
X6520178Y-18386309D01*
X6534464Y-18414880D01*
X6548750Y-18472023D01*
X6548750Y-18543452D01*
X6534464Y-18600595D01*
X6520178Y-18629166D01*
X6505893Y-18643452D01*
X6477321Y-18657738D01*
X6448750Y-18657738D01*
X6420178Y-18643452D01*
X6405893Y-18629166D01*
X6391607Y-18600595D01*
X6377321Y-18543452D01*
X6377321Y-18472023D01*
X6391607Y-18414880D01*
X6405893Y-18386309D01*
X6420178Y-18372023D01*
X6448750Y-18357738D01*
X6663036Y-18357738D02*
X6663036Y-18414880D01*
X6777321Y-18357738D02*
X6777321Y-18414880D01*
X7220178Y-18772023D02*
X7205893Y-18757738D01*
X7177321Y-18714880D01*
X7163036Y-18686309D01*
X7148750Y-18643452D01*
X7134464Y-18572023D01*
X7134464Y-18514880D01*
X7148750Y-18443452D01*
X7163036Y-18400595D01*
X7177321Y-18372023D01*
X7205893Y-18329166D01*
X7220178Y-18314880D01*
X7491607Y-18657738D02*
X7320178Y-18657738D01*
X7405893Y-18657738D02*
X7405893Y-18357738D01*
X7377321Y-18400595D01*
X7348750Y-18429166D01*
X7320178Y-18443452D01*
X7605893Y-18386309D02*
X7620178Y-18372023D01*
X7648750Y-18357738D01*
X7720178Y-18357738D01*
X7748750Y-18372023D01*
X7763036Y-18386309D01*
X7777321Y-18414880D01*
X7777321Y-18443452D01*
X7763036Y-18486309D01*
X7591607Y-18657738D01*
X7777321Y-18657738D01*
X8134464Y-18657738D02*
X8134464Y-18357738D01*
X8263036Y-18657738D02*
X8263036Y-18500595D01*
X8248750Y-18472023D01*
X8220178Y-18457738D01*
X8177321Y-18457738D01*
X8148750Y-18472023D01*
X8134464Y-18486309D01*
X8448750Y-18657738D02*
X8420178Y-18643452D01*
X8405893Y-18629166D01*
X8391607Y-18600595D01*
X8391607Y-18514880D01*
X8405893Y-18486309D01*
X8420178Y-18472023D01*
X8448750Y-18457738D01*
X8491607Y-18457738D01*
X8520178Y-18472023D01*
X8534464Y-18486309D01*
X8548750Y-18514880D01*
X8548750Y-18600595D01*
X8534464Y-18629166D01*
X8520178Y-18643452D01*
X8491607Y-18657738D01*
X8448750Y-18657738D01*
X8720178Y-18657738D02*
X8691607Y-18643452D01*
X8677321Y-18614880D01*
X8677321Y-18357738D01*
X8948750Y-18643452D02*
X8920178Y-18657738D01*
X8863036Y-18657738D01*
X8834464Y-18643452D01*
X8820178Y-18614880D01*
X8820178Y-18500595D01*
X8834464Y-18472023D01*
X8863036Y-18457738D01*
X8920178Y-18457738D01*
X8948750Y-18472023D01*
X8963036Y-18500595D01*
X8963036Y-18529166D01*
X8820178Y-18557738D01*
X9077321Y-18643452D02*
X9105893Y-18657738D01*
X9163036Y-18657738D01*
X9191607Y-18643452D01*
X9205893Y-18614880D01*
X9205893Y-18600595D01*
X9191607Y-18572023D01*
X9163036Y-18557738D01*
X9120178Y-18557738D01*
X9091607Y-18543452D01*
X9077321Y-18514880D01*
X9077321Y-18500595D01*
X9091607Y-18472023D01*
X9120178Y-18457738D01*
X9163036Y-18457738D01*
X9191607Y-18472023D01*
X9305893Y-18772023D02*
X9320178Y-18757738D01*
X9348750Y-18714880D01*
X9363036Y-18686309D01*
X9377321Y-18643452D01*
X9391607Y-18572023D01*
X9391607Y-18514880D01*
X9377321Y-18443452D01*
X9363036Y-18400595D01*
X9348750Y-18372023D01*
X9320178Y-18329166D01*
X9305893Y-18314880D01*
X9848750Y-18772023D02*
X9834464Y-18757738D01*
X9805893Y-18714880D01*
X9791607Y-18686309D01*
X9777321Y-18643452D01*
X9763036Y-18572023D01*
X9763036Y-18514880D01*
X9777321Y-18443452D01*
X9791607Y-18400595D01*
X9805893Y-18372023D01*
X9834464Y-18329166D01*
X9848750Y-18314880D01*
X9963036Y-18457738D02*
X9963036Y-18657738D01*
X9963036Y-18486309D02*
X9977321Y-18472023D01*
X10005893Y-18457738D01*
X10048750Y-18457738D01*
X10077321Y-18472023D01*
X10091607Y-18500595D01*
X10091607Y-18657738D01*
X10277321Y-18657738D02*
X10248750Y-18643452D01*
X10234464Y-18629166D01*
X10220178Y-18600595D01*
X10220178Y-18514880D01*
X10234464Y-18486309D01*
X10248750Y-18472023D01*
X10277321Y-18457738D01*
X10320178Y-18457738D01*
X10348750Y-18472023D01*
X10363036Y-18486309D01*
X10377321Y-18514880D01*
X10377321Y-18600595D01*
X10363036Y-18629166D01*
X10348750Y-18643452D01*
X10320178Y-18657738D01*
X10277321Y-18657738D01*
X10463036Y-18457738D02*
X10577321Y-18457738D01*
X10505893Y-18357738D02*
X10505893Y-18614880D01*
X10520178Y-18643452D01*
X10548750Y-18657738D01*
X10577321Y-18657738D01*
X10905893Y-18457738D02*
X10905893Y-18757738D01*
X10905893Y-18472023D02*
X10934464Y-18457738D01*
X10991607Y-18457738D01*
X11020178Y-18472023D01*
X11034464Y-18486309D01*
X11048750Y-18514880D01*
X11048750Y-18600595D01*
X11034464Y-18629166D01*
X11020178Y-18643452D01*
X10991607Y-18657738D01*
X10934464Y-18657738D01*
X10905893Y-18643452D01*
X11220178Y-18657738D02*
X11191607Y-18643452D01*
X11177321Y-18614880D01*
X11177321Y-18357738D01*
X11463036Y-18657738D02*
X11463036Y-18500595D01*
X11448750Y-18472023D01*
X11420178Y-18457738D01*
X11363036Y-18457738D01*
X11334464Y-18472023D01*
X11463036Y-18643452D02*
X11434464Y-18657738D01*
X11363036Y-18657738D01*
X11334464Y-18643452D01*
X11320178Y-18614880D01*
X11320178Y-18586309D01*
X11334464Y-18557738D01*
X11363036Y-18543452D01*
X11434464Y-18543452D01*
X11463036Y-18529166D01*
X11563036Y-18457738D02*
X11677321Y-18457738D01*
X11605893Y-18357738D02*
X11605893Y-18614880D01*
X11620178Y-18643452D01*
X11648750Y-18657738D01*
X11677321Y-18657738D01*
X11891607Y-18643452D02*
X11863036Y-18657738D01*
X11805893Y-18657738D01*
X11777321Y-18643452D01*
X11763036Y-18614880D01*
X11763036Y-18500595D01*
X11777321Y-18472023D01*
X11805893Y-18457738D01*
X11863036Y-18457738D01*
X11891607Y-18472023D01*
X11905893Y-18500595D01*
X11905893Y-18529166D01*
X11763036Y-18557738D01*
X12163036Y-18657738D02*
X12163036Y-18357738D01*
X12163036Y-18643452D02*
X12134464Y-18657738D01*
X12077321Y-18657738D01*
X12048750Y-18643452D01*
X12034464Y-18629166D01*
X12020178Y-18600595D01*
X12020178Y-18514880D01*
X12034464Y-18486309D01*
X12048750Y-18472023D01*
X12077321Y-18457738D01*
X12134464Y-18457738D01*
X12163036Y-18472023D01*
X12277321Y-18772023D02*
X12291607Y-18757738D01*
X12320178Y-18714880D01*
X12334464Y-18686309D01*
X12348750Y-18643452D01*
X12363036Y-18572023D01*
X12363036Y-18514880D01*
X12348750Y-18443452D01*
X12334464Y-18400595D01*
X12320178Y-18372023D01*
X12291607Y-18329166D01*
X12277321Y-18314880D01*
X2475351Y-19097815D02*
X2475351Y-18815832D01*
X2193369Y-18815832D01*
X2193369Y-19097815D01*
X2475351Y-19097815D01*
X2791607Y-18792538D02*
X2977321Y-18792538D01*
X2877321Y-18906823D01*
X2920178Y-18906823D01*
X2948750Y-18921109D01*
X2963036Y-18935395D01*
X2977321Y-18963966D01*
X2977321Y-19035395D01*
X2963036Y-19063966D01*
X2948750Y-19078252D01*
X2920178Y-19092538D01*
X2834464Y-19092538D01*
X2805893Y-19078252D01*
X2791607Y-19063966D01*
X3105893Y-19063966D02*
X3120178Y-19078252D01*
X3105893Y-19092538D01*
X3091607Y-19078252D01*
X3105893Y-19063966D01*
X3105893Y-19092538D01*
X3263036Y-19092538D02*
X3320178Y-19092538D01*
X3348750Y-19078252D01*
X3363036Y-19063966D01*
X3391607Y-19021109D01*
X3405893Y-18963966D01*
X3405893Y-18849680D01*
X3391607Y-18821109D01*
X3377321Y-18806823D01*
X3348750Y-18792538D01*
X3291607Y-18792538D01*
X3263036Y-18806823D01*
X3248750Y-18821109D01*
X3234464Y-18849680D01*
X3234464Y-18921109D01*
X3248750Y-18949680D01*
X3263036Y-18963966D01*
X3291607Y-18978252D01*
X3348750Y-18978252D01*
X3377321Y-18963966D01*
X3391607Y-18949680D01*
X3405893Y-18921109D01*
X3548750Y-19092538D02*
X3605893Y-19092538D01*
X3634464Y-19078252D01*
X3648750Y-19063966D01*
X3677321Y-19021109D01*
X3691607Y-18963966D01*
X3691607Y-18849680D01*
X3677321Y-18821109D01*
X3663036Y-18806823D01*
X3634464Y-18792538D01*
X3577321Y-18792538D01*
X3548750Y-18806823D01*
X3534464Y-18821109D01*
X3520178Y-18849680D01*
X3520178Y-18921109D01*
X3534464Y-18949680D01*
X3548750Y-18963966D01*
X3577321Y-18978252D01*
X3634464Y-18978252D01*
X3663036Y-18963966D01*
X3677321Y-18949680D01*
X3691607Y-18921109D01*
X3820178Y-19092538D02*
X3820178Y-18892538D01*
X3820178Y-18921109D02*
X3834464Y-18906823D01*
X3863036Y-18892538D01*
X3905893Y-18892538D01*
X3934464Y-18906823D01*
X3948750Y-18935395D01*
X3948750Y-19092538D01*
X3948750Y-18935395D02*
X3963036Y-18906823D01*
X3991607Y-18892538D01*
X4034464Y-18892538D01*
X4063036Y-18906823D01*
X4077321Y-18935395D01*
X4077321Y-19092538D01*
X4220178Y-19092538D02*
X4220178Y-18892538D01*
X4220178Y-18921109D02*
X4234464Y-18906823D01*
X4263036Y-18892538D01*
X4305893Y-18892538D01*
X4334464Y-18906823D01*
X4348750Y-18935395D01*
X4348750Y-19092538D01*
X4348750Y-18935395D02*
X4363036Y-18906823D01*
X4391607Y-18892538D01*
X4434464Y-18892538D01*
X4463036Y-18906823D01*
X4477321Y-18935395D01*
X4477321Y-19092538D01*
X5063036Y-18778252D02*
X4805893Y-19163966D01*
X5448750Y-18792538D02*
X5477321Y-18792538D01*
X5505893Y-18806823D01*
X5520178Y-18821109D01*
X5534464Y-18849680D01*
X5548750Y-18906823D01*
X5548750Y-18978252D01*
X5534464Y-19035395D01*
X5520178Y-19063966D01*
X5505893Y-19078252D01*
X5477321Y-19092538D01*
X5448750Y-19092538D01*
X5420178Y-19078252D01*
X5405893Y-19063966D01*
X5391607Y-19035395D01*
X5377321Y-18978252D01*
X5377321Y-18906823D01*
X5391607Y-18849680D01*
X5405893Y-18821109D01*
X5420178Y-18806823D01*
X5448750Y-18792538D01*
X5677321Y-19063966D02*
X5691607Y-19078252D01*
X5677321Y-19092538D01*
X5663036Y-19078252D01*
X5677321Y-19063966D01*
X5677321Y-19092538D01*
X5977321Y-19092538D02*
X5805893Y-19092538D01*
X5891607Y-19092538D02*
X5891607Y-18792538D01*
X5863036Y-18835395D01*
X5834464Y-18863966D01*
X5805893Y-18878252D01*
X6248750Y-18792538D02*
X6105893Y-18792538D01*
X6091607Y-18935395D01*
X6105893Y-18921109D01*
X6134464Y-18906823D01*
X6205893Y-18906823D01*
X6234464Y-18921109D01*
X6248750Y-18935395D01*
X6263036Y-18963966D01*
X6263036Y-19035395D01*
X6248750Y-19063966D01*
X6234464Y-19078252D01*
X6205893Y-19092538D01*
X6134464Y-19092538D01*
X6105893Y-19078252D01*
X6091607Y-19063966D01*
X6363036Y-18792538D02*
X6563036Y-18792538D01*
X6434464Y-19092538D01*
X6663036Y-18792538D02*
X6663036Y-18849680D01*
X6777321Y-18792538D02*
X6777321Y-18849680D01*
X7220178Y-19206823D02*
X7205893Y-19192538D01*
X7177321Y-19149680D01*
X7163036Y-19121109D01*
X7148750Y-19078252D01*
X7134464Y-19006823D01*
X7134464Y-18949680D01*
X7148750Y-18878252D01*
X7163036Y-18835395D01*
X7177321Y-18806823D01*
X7205893Y-18763966D01*
X7220178Y-18749680D01*
X7348750Y-19092538D02*
X7405893Y-19092538D01*
X7434464Y-19078252D01*
X7448750Y-19063966D01*
X7477321Y-19021109D01*
X7491607Y-18963966D01*
X7491607Y-18849680D01*
X7477321Y-18821109D01*
X7463036Y-18806823D01*
X7434464Y-18792538D01*
X7377321Y-18792538D01*
X7348750Y-18806823D01*
X7334464Y-18821109D01*
X7320178Y-18849680D01*
X7320178Y-18921109D01*
X7334464Y-18949680D01*
X7348750Y-18963966D01*
X7377321Y-18978252D01*
X7434464Y-18978252D01*
X7463036Y-18963966D01*
X7477321Y-18949680D01*
X7491607Y-18921109D01*
X7634464Y-19092538D02*
X7691607Y-19092538D01*
X7720178Y-19078252D01*
X7734464Y-19063966D01*
X7763036Y-19021109D01*
X7777321Y-18963966D01*
X7777321Y-18849680D01*
X7763036Y-18821109D01*
X7748750Y-18806823D01*
X7720178Y-18792538D01*
X7663036Y-18792538D01*
X7634464Y-18806823D01*
X7620178Y-18821109D01*
X7605893Y-18849680D01*
X7605893Y-18921109D01*
X7620178Y-18949680D01*
X7634464Y-18963966D01*
X7663036Y-18978252D01*
X7720178Y-18978252D01*
X7748750Y-18963966D01*
X7763036Y-18949680D01*
X7777321Y-18921109D01*
X8134464Y-19092538D02*
X8134464Y-18792538D01*
X8263036Y-19092538D02*
X8263036Y-18935395D01*
X8248750Y-18906823D01*
X8220178Y-18892538D01*
X8177321Y-18892538D01*
X8148750Y-18906823D01*
X8134464Y-18921109D01*
X8448750Y-19092538D02*
X8420178Y-19078252D01*
X8405893Y-19063966D01*
X8391607Y-19035395D01*
X8391607Y-18949680D01*
X8405893Y-18921109D01*
X8420178Y-18906823D01*
X8448750Y-18892538D01*
X8491607Y-18892538D01*
X8520178Y-18906823D01*
X8534464Y-18921109D01*
X8548750Y-18949680D01*
X8548750Y-19035395D01*
X8534464Y-19063966D01*
X8520178Y-19078252D01*
X8491607Y-19092538D01*
X8448750Y-19092538D01*
X8720178Y-19092538D02*
X8691607Y-19078252D01*
X8677321Y-19049680D01*
X8677321Y-18792538D01*
X8948750Y-19078252D02*
X8920178Y-19092538D01*
X8863036Y-19092538D01*
X8834464Y-19078252D01*
X8820178Y-19049680D01*
X8820178Y-18935395D01*
X8834464Y-18906823D01*
X8863036Y-18892538D01*
X8920178Y-18892538D01*
X8948750Y-18906823D01*
X8963036Y-18935395D01*
X8963036Y-18963966D01*
X8820178Y-18992538D01*
X9077321Y-19078252D02*
X9105893Y-19092538D01*
X9163036Y-19092538D01*
X9191607Y-19078252D01*
X9205893Y-19049680D01*
X9205893Y-19035395D01*
X9191607Y-19006823D01*
X9163036Y-18992538D01*
X9120178Y-18992538D01*
X9091607Y-18978252D01*
X9077321Y-18949680D01*
X9077321Y-18935395D01*
X9091607Y-18906823D01*
X9120178Y-18892538D01*
X9163036Y-18892538D01*
X9191607Y-18906823D01*
X9305893Y-19206823D02*
X9320178Y-19192538D01*
X9348750Y-19149680D01*
X9363036Y-19121109D01*
X9377321Y-19078252D01*
X9391607Y-19006823D01*
X9391607Y-18949680D01*
X9377321Y-18878252D01*
X9363036Y-18835395D01*
X9348750Y-18806823D01*
X9320178Y-18763966D01*
X9305893Y-18749680D01*
X9848750Y-19206823D02*
X9834464Y-19192538D01*
X9805893Y-19149680D01*
X9791607Y-19121109D01*
X9777321Y-19078252D01*
X9763036Y-19006823D01*
X9763036Y-18949680D01*
X9777321Y-18878252D01*
X9791607Y-18835395D01*
X9805893Y-18806823D01*
X9834464Y-18763966D01*
X9848750Y-18749680D01*
X9963036Y-18892538D02*
X9963036Y-19092538D01*
X9963036Y-18921109D02*
X9977321Y-18906823D01*
X10005893Y-18892538D01*
X10048750Y-18892538D01*
X10077321Y-18906823D01*
X10091607Y-18935395D01*
X10091607Y-19092538D01*
X10277321Y-19092538D02*
X10248750Y-19078252D01*
X10234464Y-19063966D01*
X10220178Y-19035395D01*
X10220178Y-18949680D01*
X10234464Y-18921109D01*
X10248750Y-18906823D01*
X10277321Y-18892538D01*
X10320178Y-18892538D01*
X10348750Y-18906823D01*
X10363036Y-18921109D01*
X10377321Y-18949680D01*
X10377321Y-19035395D01*
X10363036Y-19063966D01*
X10348750Y-19078252D01*
X10320178Y-19092538D01*
X10277321Y-19092538D01*
X10463036Y-18892538D02*
X10577321Y-18892538D01*
X10505893Y-18792538D02*
X10505893Y-19049680D01*
X10520178Y-19078252D01*
X10548750Y-19092538D01*
X10577321Y-19092538D01*
X10905893Y-18892538D02*
X10905893Y-19192538D01*
X10905893Y-18906823D02*
X10934464Y-18892538D01*
X10991607Y-18892538D01*
X11020178Y-18906823D01*
X11034464Y-18921109D01*
X11048750Y-18949680D01*
X11048750Y-19035395D01*
X11034464Y-19063966D01*
X11020178Y-19078252D01*
X10991607Y-19092538D01*
X10934464Y-19092538D01*
X10905893Y-19078252D01*
X11220178Y-19092538D02*
X11191607Y-19078252D01*
X11177321Y-19049680D01*
X11177321Y-18792538D01*
X11463036Y-19092538D02*
X11463036Y-18935395D01*
X11448750Y-18906823D01*
X11420178Y-18892538D01*
X11363036Y-18892538D01*
X11334464Y-18906823D01*
X11463036Y-19078252D02*
X11434464Y-19092538D01*
X11363036Y-19092538D01*
X11334464Y-19078252D01*
X11320178Y-19049680D01*
X11320178Y-19021109D01*
X11334464Y-18992538D01*
X11363036Y-18978252D01*
X11434464Y-18978252D01*
X11463036Y-18963966D01*
X11563036Y-18892538D02*
X11677321Y-18892538D01*
X11605893Y-18792538D02*
X11605893Y-19049680D01*
X11620178Y-19078252D01*
X11648750Y-19092538D01*
X11677321Y-19092538D01*
X11891607Y-19078252D02*
X11863036Y-19092538D01*
X11805893Y-19092538D01*
X11777321Y-19078252D01*
X11763036Y-19049680D01*
X11763036Y-18935395D01*
X11777321Y-18906823D01*
X11805893Y-18892538D01*
X11863036Y-18892538D01*
X11891607Y-18906823D01*
X11905893Y-18935395D01*
X11905893Y-18963966D01*
X11763036Y-18992538D01*
X12163036Y-19092538D02*
X12163036Y-18792538D01*
X12163036Y-19078252D02*
X12134464Y-19092538D01*
X12077321Y-19092538D01*
X12048750Y-19078252D01*
X12034464Y-19063966D01*
X12020178Y-19035395D01*
X12020178Y-18949680D01*
X12034464Y-18921109D01*
X12048750Y-18906823D01*
X12077321Y-18892538D01*
X12134464Y-18892538D01*
X12163036Y-18906823D01*
X12277321Y-19206823D02*
X12291607Y-19192538D01*
X12320178Y-19149680D01*
X12334464Y-19121109D01*
X12348750Y-19078252D01*
X12363036Y-19006823D01*
X12363036Y-18949680D01*
X12348750Y-18878252D01*
X12334464Y-18835395D01*
X12320178Y-18806823D01*
X12291607Y-18763966D01*
X12277321Y-18749680D01*
M02*
