M48
; DRILL file {KiCad (6.0.7)} date Thu Dec  1 23:22:54 2022
; FORMAT={-:-/ absolute / metric / decimal}
; #@! TF.CreationDate,2022-12-01T23:22:54-08:00
; #@! TF.GenerationSoftware,Kicad,Pcbnew,(6.0.7)
; #@! TF.FileFunction,Plated,1,2,PTH
FMAT,2
METRIC
; #@! TA.AperFunction,Plated,PTH,ComponentDrill
T1C0.500
%
G90
G05
T1
X85.153Y-184.392
X85.28Y-103.62
X85.31Y-143.089
X85.437Y-162.19
X85.564Y-122.769
X104.457Y-184.519
X104.584Y-103.747
X104.614Y-143.216
X104.741Y-162.317
X104.868Y-122.896
X123.888Y-184.392
X124.015Y-103.62
X124.045Y-143.089
X124.172Y-162.19
X124.299Y-122.769
X143.319Y-103.747
X143.349Y-143.216
X143.476Y-162.317
X143.603Y-122.896
X162.623Y-103.965
X162.653Y-143.434
X162.907Y-123.114
X164.02Y-159.5
X180.581Y-185.029
X181.927Y-104.092
X181.957Y-143.561
X182.211Y-123.241
X183.4Y-159.572
X200.9Y-143.322
X201.231Y-103.747
X201.393Y-162.497
X201.515Y-122.896
X220.535Y-103.874
X220.565Y-143.343
X220.819Y-123.023
X220.824Y-162.37
X239.814Y-184.991
X239.839Y-104.092
X239.869Y-143.561
X240.123Y-123.241
X240.128Y-162.497
X259.016Y-184.991
X259.143Y-104.219
X259.173Y-143.688
X259.3Y-162.789
X259.427Y-123.368
X278.32Y-184.9
X278.447Y-104.128
X278.477Y-143.597
X278.604Y-162.698
X278.731Y-123.277
X306.26Y-183.63
X325.488Y-183.63
X344.792Y-183.539
X364.096Y-183.539
T0
M30
