G04 #@! TF.GenerationSoftware,KiCad,Pcbnew,(6.0.7)*
G04 #@! TF.CreationDate,2022-12-01T23:22:57-08:00*
G04 #@! TF.ProjectId,openot rev2,6f70656e-6f74-4207-9265-76322e6b6963,rev?*
G04 #@! TF.SameCoordinates,Original*
G04 #@! TF.FileFunction,Legend,Top*
G04 #@! TF.FilePolarity,Positive*
%FSLAX46Y46*%
G04 Gerber Fmt 4.6, Leading zero omitted, Abs format (unit mm)*
G04 Created by KiCad (PCBNEW (6.0.7)) date 2022-12-01 23:22:57*
%MOMM*%
%LPD*%
G01*
G04 APERTURE LIST*
%ADD10C,0.150000*%
%ADD11C,0.120000*%
G04 APERTURE END LIST*
D10*
X182292380Y-160905516D02*
X181816190Y-161238849D01*
X182292380Y-161476944D02*
X181292380Y-161476944D01*
X181292380Y-161095992D01*
X181340000Y-161000754D01*
X181387619Y-160953135D01*
X181482857Y-160905516D01*
X181625714Y-160905516D01*
X181720952Y-160953135D01*
X181768571Y-161000754D01*
X181816190Y-161095992D01*
X181816190Y-161476944D01*
X181768571Y-160476944D02*
X181768571Y-160143611D01*
X182292380Y-160000754D02*
X182292380Y-160476944D01*
X181292380Y-160476944D01*
X181292380Y-160000754D01*
X181768571Y-159238849D02*
X181768571Y-159572183D01*
X182292380Y-159572183D02*
X181292380Y-159572183D01*
X181292380Y-159095992D01*
X181292380Y-158572183D02*
X181530476Y-158572183D01*
X181435238Y-158810278D02*
X181530476Y-158572183D01*
X181435238Y-158334087D01*
X181720952Y-158715040D02*
X181530476Y-158572183D01*
X181720952Y-158429325D01*
X181292380Y-157810278D02*
X181530476Y-157810278D01*
X181435238Y-158048373D02*
X181530476Y-157810278D01*
X181435238Y-157572183D01*
X181720952Y-157953135D02*
X181530476Y-157810278D01*
X181720952Y-157667421D01*
X184666666Y-156530278D02*
X184666666Y-156054087D01*
X184952380Y-156625516D02*
X183952380Y-156292183D01*
X184952380Y-155958849D01*
X84329647Y-163523631D02*
X83853457Y-163856964D01*
X84329647Y-164095059D02*
X83329647Y-164095059D01*
X83329647Y-163714107D01*
X83377267Y-163618869D01*
X83424886Y-163571250D01*
X83520124Y-163523631D01*
X83662981Y-163523631D01*
X83758219Y-163571250D01*
X83805838Y-163618869D01*
X83853457Y-163714107D01*
X83853457Y-164095059D01*
X83805838Y-163095059D02*
X83805838Y-162761726D01*
X84329647Y-162618869D02*
X84329647Y-163095059D01*
X83329647Y-163095059D01*
X83329647Y-162618869D01*
X83805838Y-161856964D02*
X83805838Y-162190298D01*
X84329647Y-162190298D02*
X83329647Y-162190298D01*
X83329647Y-161714107D01*
X83329647Y-161190298D02*
X83567743Y-161190298D01*
X83472505Y-161428393D02*
X83567743Y-161190298D01*
X83472505Y-160952202D01*
X83758219Y-161333155D02*
X83567743Y-161190298D01*
X83758219Y-161047440D01*
X83329647Y-160428393D02*
X83567743Y-160428393D01*
X83472505Y-160666488D02*
X83567743Y-160428393D01*
X83472505Y-160190298D01*
X83758219Y-160571250D02*
X83567743Y-160428393D01*
X83758219Y-160285536D01*
X86703933Y-159148393D02*
X86703933Y-158672202D01*
X86989647Y-159243631D02*
X85989647Y-158910298D01*
X86989647Y-158576964D01*
X238761647Y-144894648D02*
X238285457Y-145227981D01*
X238761647Y-145466076D02*
X237761647Y-145466076D01*
X237761647Y-145085124D01*
X237809267Y-144989886D01*
X237856886Y-144942267D01*
X237952124Y-144894648D01*
X238094981Y-144894648D01*
X238190219Y-144942267D01*
X238237838Y-144989886D01*
X238285457Y-145085124D01*
X238285457Y-145466076D01*
X238237838Y-144466076D02*
X238237838Y-144132743D01*
X238761647Y-143989886D02*
X238761647Y-144466076D01*
X237761647Y-144466076D01*
X237761647Y-143989886D01*
X238237838Y-143227981D02*
X238237838Y-143561315D01*
X238761647Y-143561315D02*
X237761647Y-143561315D01*
X237761647Y-143085124D01*
X237761647Y-142561315D02*
X237999743Y-142561315D01*
X237904505Y-142799410D02*
X237999743Y-142561315D01*
X237904505Y-142323219D01*
X238190219Y-142704172D02*
X237999743Y-142561315D01*
X238190219Y-142418457D01*
X237761647Y-141799410D02*
X237999743Y-141799410D01*
X237904505Y-142037505D02*
X237999743Y-141799410D01*
X237904505Y-141561315D01*
X238190219Y-141942267D02*
X237999743Y-141799410D01*
X238190219Y-141656553D01*
X241135933Y-140519410D02*
X241135933Y-140043219D01*
X241421647Y-140614648D02*
X240421647Y-140281315D01*
X241421647Y-139947981D01*
X161515380Y-105298150D02*
X161039190Y-105631483D01*
X161515380Y-105869578D02*
X160515380Y-105869578D01*
X160515380Y-105488626D01*
X160563000Y-105393388D01*
X160610619Y-105345769D01*
X160705857Y-105298150D01*
X160848714Y-105298150D01*
X160943952Y-105345769D01*
X160991571Y-105393388D01*
X161039190Y-105488626D01*
X161039190Y-105869578D01*
X160991571Y-104869578D02*
X160991571Y-104536245D01*
X161515380Y-104393388D02*
X161515380Y-104869578D01*
X160515380Y-104869578D01*
X160515380Y-104393388D01*
X160991571Y-103631483D02*
X160991571Y-103964817D01*
X161515380Y-103964817D02*
X160515380Y-103964817D01*
X160515380Y-103488626D01*
X160515380Y-102964817D02*
X160753476Y-102964817D01*
X160658238Y-103202912D02*
X160753476Y-102964817D01*
X160658238Y-102726721D01*
X160943952Y-103107674D02*
X160753476Y-102964817D01*
X160943952Y-102821959D01*
X160515380Y-102202912D02*
X160753476Y-102202912D01*
X160658238Y-102441007D02*
X160753476Y-102202912D01*
X160658238Y-101964817D01*
X160943952Y-102345769D02*
X160753476Y-102202912D01*
X160943952Y-102060055D01*
X163889666Y-100922912D02*
X163889666Y-100446721D01*
X164175380Y-101018150D02*
X163175380Y-100684817D01*
X164175380Y-100351483D01*
X84456647Y-124102831D02*
X83980457Y-124436164D01*
X84456647Y-124674259D02*
X83456647Y-124674259D01*
X83456647Y-124293307D01*
X83504267Y-124198069D01*
X83551886Y-124150450D01*
X83647124Y-124102831D01*
X83789981Y-124102831D01*
X83885219Y-124150450D01*
X83932838Y-124198069D01*
X83980457Y-124293307D01*
X83980457Y-124674259D01*
X83932838Y-123674259D02*
X83932838Y-123340926D01*
X84456647Y-123198069D02*
X84456647Y-123674259D01*
X83456647Y-123674259D01*
X83456647Y-123198069D01*
X83932838Y-122436164D02*
X83932838Y-122769498D01*
X84456647Y-122769498D02*
X83456647Y-122769498D01*
X83456647Y-122293307D01*
X83456647Y-121769498D02*
X83694743Y-121769498D01*
X83599505Y-122007593D02*
X83694743Y-121769498D01*
X83599505Y-121531402D01*
X83885219Y-121912355D02*
X83694743Y-121769498D01*
X83885219Y-121626640D01*
X83456647Y-121007593D02*
X83694743Y-121007593D01*
X83599505Y-121245688D02*
X83694743Y-121007593D01*
X83599505Y-120769498D01*
X83885219Y-121150450D02*
X83694743Y-121007593D01*
X83885219Y-120864736D01*
X86830933Y-119727593D02*
X86830933Y-119251402D01*
X87116647Y-119822831D02*
X86116647Y-119489498D01*
X87116647Y-119156164D01*
X238705980Y-186324150D02*
X238229790Y-186657483D01*
X238705980Y-186895578D02*
X237705980Y-186895578D01*
X237705980Y-186514626D01*
X237753600Y-186419388D01*
X237801219Y-186371769D01*
X237896457Y-186324150D01*
X238039314Y-186324150D01*
X238134552Y-186371769D01*
X238182171Y-186419388D01*
X238229790Y-186514626D01*
X238229790Y-186895578D01*
X238182171Y-185895578D02*
X238182171Y-185562245D01*
X238705980Y-185419388D02*
X238705980Y-185895578D01*
X237705980Y-185895578D01*
X237705980Y-185419388D01*
X238182171Y-184657483D02*
X238182171Y-184990817D01*
X238705980Y-184990817D02*
X237705980Y-184990817D01*
X237705980Y-184514626D01*
X237705980Y-183990817D02*
X237944076Y-183990817D01*
X237848838Y-184228912D02*
X237944076Y-183990817D01*
X237848838Y-183752721D01*
X238134552Y-184133674D02*
X237944076Y-183990817D01*
X238134552Y-183847959D01*
X237705980Y-183228912D02*
X237944076Y-183228912D01*
X237848838Y-183467007D02*
X237944076Y-183228912D01*
X237848838Y-182990817D01*
X238134552Y-183371769D02*
X237944076Y-183228912D01*
X238134552Y-183086055D01*
X241080266Y-181948912D02*
X241080266Y-181472721D01*
X241365980Y-182044150D02*
X240365980Y-181710817D01*
X241365980Y-181377483D01*
X180849647Y-144894648D02*
X180373457Y-145227981D01*
X180849647Y-145466076D02*
X179849647Y-145466076D01*
X179849647Y-145085124D01*
X179897267Y-144989886D01*
X179944886Y-144942267D01*
X180040124Y-144894648D01*
X180182981Y-144894648D01*
X180278219Y-144942267D01*
X180325838Y-144989886D01*
X180373457Y-145085124D01*
X180373457Y-145466076D01*
X180325838Y-144466076D02*
X180325838Y-144132743D01*
X180849647Y-143989886D02*
X180849647Y-144466076D01*
X179849647Y-144466076D01*
X179849647Y-143989886D01*
X180325838Y-143227981D02*
X180325838Y-143561315D01*
X180849647Y-143561315D02*
X179849647Y-143561315D01*
X179849647Y-143085124D01*
X179849647Y-142561315D02*
X180087743Y-142561315D01*
X179992505Y-142799410D02*
X180087743Y-142561315D01*
X179992505Y-142323219D01*
X180278219Y-142704172D02*
X180087743Y-142561315D01*
X180278219Y-142418457D01*
X179849647Y-141799410D02*
X180087743Y-141799410D01*
X179992505Y-142037505D02*
X180087743Y-141799410D01*
X179992505Y-141561315D01*
X180278219Y-141942267D02*
X180087743Y-141799410D01*
X180278219Y-141656553D01*
X183223933Y-140519410D02*
X183223933Y-140043219D01*
X183509647Y-140614648D02*
X182509647Y-140281315D01*
X183509647Y-139947981D01*
X277496647Y-164031631D02*
X277020457Y-164364964D01*
X277496647Y-164603059D02*
X276496647Y-164603059D01*
X276496647Y-164222107D01*
X276544267Y-164126869D01*
X276591886Y-164079250D01*
X276687124Y-164031631D01*
X276829981Y-164031631D01*
X276925219Y-164079250D01*
X276972838Y-164126869D01*
X277020457Y-164222107D01*
X277020457Y-164603059D01*
X276972838Y-163603059D02*
X276972838Y-163269726D01*
X277496647Y-163126869D02*
X277496647Y-163603059D01*
X276496647Y-163603059D01*
X276496647Y-163126869D01*
X276972838Y-162364964D02*
X276972838Y-162698298D01*
X277496647Y-162698298D02*
X276496647Y-162698298D01*
X276496647Y-162222107D01*
X276496647Y-161698298D02*
X276734743Y-161698298D01*
X276639505Y-161936393D02*
X276734743Y-161698298D01*
X276639505Y-161460202D01*
X276925219Y-161841155D02*
X276734743Y-161698298D01*
X276925219Y-161555440D01*
X276496647Y-160936393D02*
X276734743Y-160936393D01*
X276639505Y-161174488D02*
X276734743Y-160936393D01*
X276639505Y-160698298D01*
X276925219Y-161079250D02*
X276734743Y-160936393D01*
X276925219Y-160793536D01*
X279870933Y-159656393D02*
X279870933Y-159180202D01*
X280156647Y-159751631D02*
X279156647Y-159418298D01*
X280156647Y-159084964D01*
X142241647Y-144549831D02*
X141765457Y-144883164D01*
X142241647Y-145121259D02*
X141241647Y-145121259D01*
X141241647Y-144740307D01*
X141289267Y-144645069D01*
X141336886Y-144597450D01*
X141432124Y-144549831D01*
X141574981Y-144549831D01*
X141670219Y-144597450D01*
X141717838Y-144645069D01*
X141765457Y-144740307D01*
X141765457Y-145121259D01*
X141717838Y-144121259D02*
X141717838Y-143787926D01*
X142241647Y-143645069D02*
X142241647Y-144121259D01*
X141241647Y-144121259D01*
X141241647Y-143645069D01*
X141717838Y-142883164D02*
X141717838Y-143216498D01*
X142241647Y-143216498D02*
X141241647Y-143216498D01*
X141241647Y-142740307D01*
X141241647Y-142216498D02*
X141479743Y-142216498D01*
X141384505Y-142454593D02*
X141479743Y-142216498D01*
X141384505Y-141978402D01*
X141670219Y-142359355D02*
X141479743Y-142216498D01*
X141670219Y-142073640D01*
X141241647Y-141454593D02*
X141479743Y-141454593D01*
X141384505Y-141692688D02*
X141479743Y-141454593D01*
X141384505Y-141216498D01*
X141670219Y-141597450D02*
X141479743Y-141454593D01*
X141670219Y-141311736D01*
X144615933Y-140174593D02*
X144615933Y-139698402D01*
X144901647Y-140269831D02*
X143901647Y-139936498D01*
X144901647Y-139603164D01*
X103760647Y-124229831D02*
X103284457Y-124563164D01*
X103760647Y-124801259D02*
X102760647Y-124801259D01*
X102760647Y-124420307D01*
X102808267Y-124325069D01*
X102855886Y-124277450D01*
X102951124Y-124229831D01*
X103093981Y-124229831D01*
X103189219Y-124277450D01*
X103236838Y-124325069D01*
X103284457Y-124420307D01*
X103284457Y-124801259D01*
X103236838Y-123801259D02*
X103236838Y-123467926D01*
X103760647Y-123325069D02*
X103760647Y-123801259D01*
X102760647Y-123801259D01*
X102760647Y-123325069D01*
X103236838Y-122563164D02*
X103236838Y-122896498D01*
X103760647Y-122896498D02*
X102760647Y-122896498D01*
X102760647Y-122420307D01*
X102760647Y-121896498D02*
X102998743Y-121896498D01*
X102903505Y-122134593D02*
X102998743Y-121896498D01*
X102903505Y-121658402D01*
X103189219Y-122039355D02*
X102998743Y-121896498D01*
X103189219Y-121753640D01*
X102760647Y-121134593D02*
X102998743Y-121134593D01*
X102903505Y-121372688D02*
X102998743Y-121134593D01*
X102903505Y-120896498D01*
X103189219Y-121277450D02*
X102998743Y-121134593D01*
X103189219Y-120991736D01*
X106134933Y-119854593D02*
X106134933Y-119378402D01*
X106420647Y-119949831D02*
X105420647Y-119616498D01*
X106420647Y-119283164D01*
X162912380Y-160833333D02*
X162436190Y-161166666D01*
X162912380Y-161404761D02*
X161912380Y-161404761D01*
X161912380Y-161023809D01*
X161960000Y-160928571D01*
X162007619Y-160880952D01*
X162102857Y-160833333D01*
X162245714Y-160833333D01*
X162340952Y-160880952D01*
X162388571Y-160928571D01*
X162436190Y-161023809D01*
X162436190Y-161404761D01*
X162388571Y-160404761D02*
X162388571Y-160071428D01*
X162912380Y-159928571D02*
X162912380Y-160404761D01*
X161912380Y-160404761D01*
X161912380Y-159928571D01*
X162388571Y-159166666D02*
X162388571Y-159500000D01*
X162912380Y-159500000D02*
X161912380Y-159500000D01*
X161912380Y-159023809D01*
X161912380Y-158500000D02*
X162150476Y-158500000D01*
X162055238Y-158738095D02*
X162150476Y-158500000D01*
X162055238Y-158261904D01*
X162340952Y-158642857D02*
X162150476Y-158500000D01*
X162340952Y-158357142D01*
X161912380Y-157738095D02*
X162150476Y-157738095D01*
X162055238Y-157976190D02*
X162150476Y-157738095D01*
X162055238Y-157500000D01*
X162340952Y-157880952D02*
X162150476Y-157738095D01*
X162340952Y-157595238D01*
X165286666Y-156458095D02*
X165286666Y-155981904D01*
X165572380Y-156553333D02*
X164572380Y-156220000D01*
X165572380Y-155886666D01*
X200285514Y-163830163D02*
X199809324Y-164163496D01*
X200285514Y-164401591D02*
X199285514Y-164401591D01*
X199285514Y-164020639D01*
X199333134Y-163925401D01*
X199380753Y-163877782D01*
X199475991Y-163830163D01*
X199618848Y-163830163D01*
X199714086Y-163877782D01*
X199761705Y-163925401D01*
X199809324Y-164020639D01*
X199809324Y-164401591D01*
X199761705Y-163401591D02*
X199761705Y-163068258D01*
X200285514Y-162925401D02*
X200285514Y-163401591D01*
X199285514Y-163401591D01*
X199285514Y-162925401D01*
X199761705Y-162163496D02*
X199761705Y-162496830D01*
X200285514Y-162496830D02*
X199285514Y-162496830D01*
X199285514Y-162020639D01*
X199285514Y-161496830D02*
X199523610Y-161496830D01*
X199428372Y-161734925D02*
X199523610Y-161496830D01*
X199428372Y-161258734D01*
X199714086Y-161639687D02*
X199523610Y-161496830D01*
X199714086Y-161353972D01*
X199285514Y-160734925D02*
X199523610Y-160734925D01*
X199428372Y-160973020D02*
X199523610Y-160734925D01*
X199428372Y-160496830D01*
X199714086Y-160877782D02*
X199523610Y-160734925D01*
X199714086Y-160592068D01*
X202659800Y-159454925D02*
X202659800Y-158978734D01*
X202945514Y-159550163D02*
X201945514Y-159216830D01*
X202945514Y-158883496D01*
X84202647Y-144422831D02*
X83726457Y-144756164D01*
X84202647Y-144994259D02*
X83202647Y-144994259D01*
X83202647Y-144613307D01*
X83250267Y-144518069D01*
X83297886Y-144470450D01*
X83393124Y-144422831D01*
X83535981Y-144422831D01*
X83631219Y-144470450D01*
X83678838Y-144518069D01*
X83726457Y-144613307D01*
X83726457Y-144994259D01*
X83678838Y-143994259D02*
X83678838Y-143660926D01*
X84202647Y-143518069D02*
X84202647Y-143994259D01*
X83202647Y-143994259D01*
X83202647Y-143518069D01*
X83678838Y-142756164D02*
X83678838Y-143089498D01*
X84202647Y-143089498D02*
X83202647Y-143089498D01*
X83202647Y-142613307D01*
X83202647Y-142089498D02*
X83440743Y-142089498D01*
X83345505Y-142327593D02*
X83440743Y-142089498D01*
X83345505Y-141851402D01*
X83631219Y-142232355D02*
X83440743Y-142089498D01*
X83631219Y-141946640D01*
X83202647Y-141327593D02*
X83440743Y-141327593D01*
X83345505Y-141565688D02*
X83440743Y-141327593D01*
X83345505Y-141089498D01*
X83631219Y-141470450D02*
X83440743Y-141327593D01*
X83631219Y-141184736D01*
X86576933Y-140047593D02*
X86576933Y-139571402D01*
X86862647Y-140142831D02*
X85862647Y-139809498D01*
X86862647Y-139476164D01*
X122780380Y-185725333D02*
X122304190Y-186058666D01*
X122780380Y-186296761D02*
X121780380Y-186296761D01*
X121780380Y-185915809D01*
X121828000Y-185820571D01*
X121875619Y-185772952D01*
X121970857Y-185725333D01*
X122113714Y-185725333D01*
X122208952Y-185772952D01*
X122256571Y-185820571D01*
X122304190Y-185915809D01*
X122304190Y-186296761D01*
X122256571Y-185296761D02*
X122256571Y-184963428D01*
X122780380Y-184820571D02*
X122780380Y-185296761D01*
X121780380Y-185296761D01*
X121780380Y-184820571D01*
X122256571Y-184058666D02*
X122256571Y-184392000D01*
X122780380Y-184392000D02*
X121780380Y-184392000D01*
X121780380Y-183915809D01*
X121780380Y-183392000D02*
X122018476Y-183392000D01*
X121923238Y-183630095D02*
X122018476Y-183392000D01*
X121923238Y-183153904D01*
X122208952Y-183534857D02*
X122018476Y-183392000D01*
X122208952Y-183249142D01*
X121780380Y-182630095D02*
X122018476Y-182630095D01*
X121923238Y-182868190D02*
X122018476Y-182630095D01*
X121923238Y-182392000D01*
X122208952Y-182772952D02*
X122018476Y-182630095D01*
X122208952Y-182487238D01*
X125154666Y-181350095D02*
X125154666Y-180873904D01*
X125440380Y-181445333D02*
X124440380Y-181112000D01*
X125440380Y-180778666D01*
X219427380Y-105207333D02*
X218951190Y-105540666D01*
X219427380Y-105778761D02*
X218427380Y-105778761D01*
X218427380Y-105397809D01*
X218475000Y-105302571D01*
X218522619Y-105254952D01*
X218617857Y-105207333D01*
X218760714Y-105207333D01*
X218855952Y-105254952D01*
X218903571Y-105302571D01*
X218951190Y-105397809D01*
X218951190Y-105778761D01*
X218903571Y-104778761D02*
X218903571Y-104445428D01*
X219427380Y-104302571D02*
X219427380Y-104778761D01*
X218427380Y-104778761D01*
X218427380Y-104302571D01*
X218903571Y-103540666D02*
X218903571Y-103874000D01*
X219427380Y-103874000D02*
X218427380Y-103874000D01*
X218427380Y-103397809D01*
X218427380Y-102874000D02*
X218665476Y-102874000D01*
X218570238Y-103112095D02*
X218665476Y-102874000D01*
X218570238Y-102635904D01*
X218855952Y-103016857D02*
X218665476Y-102874000D01*
X218855952Y-102731142D01*
X218427380Y-102112095D02*
X218665476Y-102112095D01*
X218570238Y-102350190D02*
X218665476Y-102112095D01*
X218570238Y-101874000D01*
X218855952Y-102254952D02*
X218665476Y-102112095D01*
X218855952Y-101969238D01*
X221801666Y-100832095D02*
X221801666Y-100355904D01*
X222087380Y-100927333D02*
X221087380Y-100594000D01*
X222087380Y-100260666D01*
X362988180Y-184872515D02*
X362511990Y-185205848D01*
X362988180Y-185443943D02*
X361988180Y-185443943D01*
X361988180Y-185062991D01*
X362035800Y-184967753D01*
X362083419Y-184920134D01*
X362178657Y-184872515D01*
X362321514Y-184872515D01*
X362416752Y-184920134D01*
X362464371Y-184967753D01*
X362511990Y-185062991D01*
X362511990Y-185443943D01*
X362464371Y-184443943D02*
X362464371Y-184110610D01*
X362988180Y-183967753D02*
X362988180Y-184443943D01*
X361988180Y-184443943D01*
X361988180Y-183967753D01*
X362464371Y-183205848D02*
X362464371Y-183539182D01*
X362988180Y-183539182D02*
X361988180Y-183539182D01*
X361988180Y-183062991D01*
X361988180Y-182539182D02*
X362226276Y-182539182D01*
X362131038Y-182777277D02*
X362226276Y-182539182D01*
X362131038Y-182301086D01*
X362416752Y-182682039D02*
X362226276Y-182539182D01*
X362416752Y-182396324D01*
X361988180Y-181777277D02*
X362226276Y-181777277D01*
X362131038Y-182015372D02*
X362226276Y-181777277D01*
X362131038Y-181539182D01*
X362416752Y-181920134D02*
X362226276Y-181777277D01*
X362416752Y-181634420D01*
X365362466Y-180497277D02*
X365362466Y-180021086D01*
X365648180Y-180592515D02*
X364648180Y-180259182D01*
X365648180Y-179925848D01*
X219711647Y-124356831D02*
X219235457Y-124690164D01*
X219711647Y-124928259D02*
X218711647Y-124928259D01*
X218711647Y-124547307D01*
X218759267Y-124452069D01*
X218806886Y-124404450D01*
X218902124Y-124356831D01*
X219044981Y-124356831D01*
X219140219Y-124404450D01*
X219187838Y-124452069D01*
X219235457Y-124547307D01*
X219235457Y-124928259D01*
X219187838Y-123928259D02*
X219187838Y-123594926D01*
X219711647Y-123452069D02*
X219711647Y-123928259D01*
X218711647Y-123928259D01*
X218711647Y-123452069D01*
X219187838Y-122690164D02*
X219187838Y-123023498D01*
X219711647Y-123023498D02*
X218711647Y-123023498D01*
X218711647Y-122547307D01*
X218711647Y-122023498D02*
X218949743Y-122023498D01*
X218854505Y-122261593D02*
X218949743Y-122023498D01*
X218854505Y-121785402D01*
X219140219Y-122166355D02*
X218949743Y-122023498D01*
X219140219Y-121880640D01*
X218711647Y-121261593D02*
X218949743Y-121261593D01*
X218854505Y-121499688D02*
X218949743Y-121261593D01*
X218854505Y-121023498D01*
X219140219Y-121404450D02*
X218949743Y-121261593D01*
X219140219Y-121118736D01*
X222085933Y-119981593D02*
X222085933Y-119505402D01*
X222371647Y-120076831D02*
X221371647Y-119743498D01*
X222371647Y-119410164D01*
X103349380Y-185852333D02*
X102873190Y-186185666D01*
X103349380Y-186423761D02*
X102349380Y-186423761D01*
X102349380Y-186042809D01*
X102397000Y-185947571D01*
X102444619Y-185899952D01*
X102539857Y-185852333D01*
X102682714Y-185852333D01*
X102777952Y-185899952D01*
X102825571Y-185947571D01*
X102873190Y-186042809D01*
X102873190Y-186423761D01*
X102825571Y-185423761D02*
X102825571Y-185090428D01*
X103349380Y-184947571D02*
X103349380Y-185423761D01*
X102349380Y-185423761D01*
X102349380Y-184947571D01*
X102825571Y-184185666D02*
X102825571Y-184519000D01*
X103349380Y-184519000D02*
X102349380Y-184519000D01*
X102349380Y-184042809D01*
X102349380Y-183519000D02*
X102587476Y-183519000D01*
X102492238Y-183757095D02*
X102587476Y-183519000D01*
X102492238Y-183280904D01*
X102777952Y-183661857D02*
X102587476Y-183519000D01*
X102777952Y-183376142D01*
X102349380Y-182757095D02*
X102587476Y-182757095D01*
X102492238Y-182995190D02*
X102587476Y-182757095D01*
X102492238Y-182519000D01*
X102777952Y-182899952D02*
X102587476Y-182757095D01*
X102777952Y-182614238D01*
X105723666Y-181477095D02*
X105723666Y-181000904D01*
X106009380Y-181572333D02*
X105009380Y-181239000D01*
X106009380Y-180905666D01*
X161545647Y-144767648D02*
X161069457Y-145100981D01*
X161545647Y-145339076D02*
X160545647Y-145339076D01*
X160545647Y-144958124D01*
X160593267Y-144862886D01*
X160640886Y-144815267D01*
X160736124Y-144767648D01*
X160878981Y-144767648D01*
X160974219Y-144815267D01*
X161021838Y-144862886D01*
X161069457Y-144958124D01*
X161069457Y-145339076D01*
X161021838Y-144339076D02*
X161021838Y-144005743D01*
X161545647Y-143862886D02*
X161545647Y-144339076D01*
X160545647Y-144339076D01*
X160545647Y-143862886D01*
X161021838Y-143100981D02*
X161021838Y-143434315D01*
X161545647Y-143434315D02*
X160545647Y-143434315D01*
X160545647Y-142958124D01*
X160545647Y-142434315D02*
X160783743Y-142434315D01*
X160688505Y-142672410D02*
X160783743Y-142434315D01*
X160688505Y-142196219D01*
X160974219Y-142577172D02*
X160783743Y-142434315D01*
X160974219Y-142291457D01*
X160545647Y-141672410D02*
X160783743Y-141672410D01*
X160688505Y-141910505D02*
X160783743Y-141672410D01*
X160688505Y-141434315D01*
X160974219Y-141815267D02*
X160783743Y-141672410D01*
X160974219Y-141529553D01*
X163919933Y-140392410D02*
X163919933Y-139916219D01*
X164205647Y-140487648D02*
X163205647Y-140154315D01*
X164205647Y-139820981D01*
X84045380Y-185725333D02*
X83569190Y-186058666D01*
X84045380Y-186296761D02*
X83045380Y-186296761D01*
X83045380Y-185915809D01*
X83093000Y-185820571D01*
X83140619Y-185772952D01*
X83235857Y-185725333D01*
X83378714Y-185725333D01*
X83473952Y-185772952D01*
X83521571Y-185820571D01*
X83569190Y-185915809D01*
X83569190Y-186296761D01*
X83521571Y-185296761D02*
X83521571Y-184963428D01*
X84045380Y-184820571D02*
X84045380Y-185296761D01*
X83045380Y-185296761D01*
X83045380Y-184820571D01*
X83521571Y-184058666D02*
X83521571Y-184392000D01*
X84045380Y-184392000D02*
X83045380Y-184392000D01*
X83045380Y-183915809D01*
X83045380Y-183392000D02*
X83283476Y-183392000D01*
X83188238Y-183630095D02*
X83283476Y-183392000D01*
X83188238Y-183153904D01*
X83473952Y-183534857D02*
X83283476Y-183392000D01*
X83473952Y-183249142D01*
X83045380Y-182630095D02*
X83283476Y-182630095D01*
X83188238Y-182868190D02*
X83283476Y-182630095D01*
X83188238Y-182392000D01*
X83473952Y-182772952D02*
X83283476Y-182630095D01*
X83473952Y-182487238D01*
X86419666Y-181350095D02*
X86419666Y-180873904D01*
X86705380Y-181445333D02*
X85705380Y-181112000D01*
X86705380Y-180778666D01*
X343684180Y-184872515D02*
X343207990Y-185205848D01*
X343684180Y-185443943D02*
X342684180Y-185443943D01*
X342684180Y-185062991D01*
X342731800Y-184967753D01*
X342779419Y-184920134D01*
X342874657Y-184872515D01*
X343017514Y-184872515D01*
X343112752Y-184920134D01*
X343160371Y-184967753D01*
X343207990Y-185062991D01*
X343207990Y-185443943D01*
X343160371Y-184443943D02*
X343160371Y-184110610D01*
X343684180Y-183967753D02*
X343684180Y-184443943D01*
X342684180Y-184443943D01*
X342684180Y-183967753D01*
X343160371Y-183205848D02*
X343160371Y-183539182D01*
X343684180Y-183539182D02*
X342684180Y-183539182D01*
X342684180Y-183062991D01*
X342684180Y-182539182D02*
X342922276Y-182539182D01*
X342827038Y-182777277D02*
X342922276Y-182539182D01*
X342827038Y-182301086D01*
X343112752Y-182682039D02*
X342922276Y-182539182D01*
X343112752Y-182396324D01*
X342684180Y-181777277D02*
X342922276Y-181777277D01*
X342827038Y-182015372D02*
X342922276Y-181777277D01*
X342827038Y-181539182D01*
X343112752Y-181920134D02*
X342922276Y-181777277D01*
X343112752Y-181634420D01*
X346058466Y-180497277D02*
X346058466Y-180021086D01*
X346344180Y-180592515D02*
X345344180Y-180259182D01*
X346344180Y-179925848D01*
X305152380Y-184963333D02*
X304676190Y-185296666D01*
X305152380Y-185534761D02*
X304152380Y-185534761D01*
X304152380Y-185153809D01*
X304200000Y-185058571D01*
X304247619Y-185010952D01*
X304342857Y-184963333D01*
X304485714Y-184963333D01*
X304580952Y-185010952D01*
X304628571Y-185058571D01*
X304676190Y-185153809D01*
X304676190Y-185534761D01*
X304628571Y-184534761D02*
X304628571Y-184201428D01*
X305152380Y-184058571D02*
X305152380Y-184534761D01*
X304152380Y-184534761D01*
X304152380Y-184058571D01*
X304628571Y-183296666D02*
X304628571Y-183630000D01*
X305152380Y-183630000D02*
X304152380Y-183630000D01*
X304152380Y-183153809D01*
X304152380Y-182630000D02*
X304390476Y-182630000D01*
X304295238Y-182868095D02*
X304390476Y-182630000D01*
X304295238Y-182391904D01*
X304580952Y-182772857D02*
X304390476Y-182630000D01*
X304580952Y-182487142D01*
X304152380Y-181868095D02*
X304390476Y-181868095D01*
X304295238Y-182106190D02*
X304390476Y-181868095D01*
X304295238Y-181630000D01*
X304580952Y-182010952D02*
X304390476Y-181868095D01*
X304580952Y-181725238D01*
X307526666Y-180588095D02*
X307526666Y-180111904D01*
X307812380Y-180683333D02*
X306812380Y-180350000D01*
X307812380Y-180016666D01*
X277339380Y-105461333D02*
X276863190Y-105794666D01*
X277339380Y-106032761D02*
X276339380Y-106032761D01*
X276339380Y-105651809D01*
X276387000Y-105556571D01*
X276434619Y-105508952D01*
X276529857Y-105461333D01*
X276672714Y-105461333D01*
X276767952Y-105508952D01*
X276815571Y-105556571D01*
X276863190Y-105651809D01*
X276863190Y-106032761D01*
X276815571Y-105032761D02*
X276815571Y-104699428D01*
X277339380Y-104556571D02*
X277339380Y-105032761D01*
X276339380Y-105032761D01*
X276339380Y-104556571D01*
X276815571Y-103794666D02*
X276815571Y-104128000D01*
X277339380Y-104128000D02*
X276339380Y-104128000D01*
X276339380Y-103651809D01*
X276339380Y-103128000D02*
X276577476Y-103128000D01*
X276482238Y-103366095D02*
X276577476Y-103128000D01*
X276482238Y-102889904D01*
X276767952Y-103270857D02*
X276577476Y-103128000D01*
X276767952Y-102985142D01*
X276339380Y-102366095D02*
X276577476Y-102366095D01*
X276482238Y-102604190D02*
X276577476Y-102366095D01*
X276482238Y-102128000D01*
X276767952Y-102508952D02*
X276577476Y-102366095D01*
X276767952Y-102223238D01*
X279713666Y-101086095D02*
X279713666Y-100609904D01*
X279999380Y-101181333D02*
X278999380Y-100848000D01*
X279999380Y-100514666D01*
X277623647Y-124610831D02*
X277147457Y-124944164D01*
X277623647Y-125182259D02*
X276623647Y-125182259D01*
X276623647Y-124801307D01*
X276671267Y-124706069D01*
X276718886Y-124658450D01*
X276814124Y-124610831D01*
X276956981Y-124610831D01*
X277052219Y-124658450D01*
X277099838Y-124706069D01*
X277147457Y-124801307D01*
X277147457Y-125182259D01*
X277099838Y-124182259D02*
X277099838Y-123848926D01*
X277623647Y-123706069D02*
X277623647Y-124182259D01*
X276623647Y-124182259D01*
X276623647Y-123706069D01*
X277099838Y-122944164D02*
X277099838Y-123277498D01*
X277623647Y-123277498D02*
X276623647Y-123277498D01*
X276623647Y-122801307D01*
X276623647Y-122277498D02*
X276861743Y-122277498D01*
X276766505Y-122515593D02*
X276861743Y-122277498D01*
X276766505Y-122039402D01*
X277052219Y-122420355D02*
X276861743Y-122277498D01*
X277052219Y-122134640D01*
X276623647Y-121515593D02*
X276861743Y-121515593D01*
X276766505Y-121753688D02*
X276861743Y-121515593D01*
X276766505Y-121277498D01*
X277052219Y-121658450D02*
X276861743Y-121515593D01*
X277052219Y-121372736D01*
X279997933Y-120235593D02*
X279997933Y-119759402D01*
X280283647Y-120330831D02*
X279283647Y-119997498D01*
X280283647Y-119664164D01*
X219457647Y-144676831D02*
X218981457Y-145010164D01*
X219457647Y-145248259D02*
X218457647Y-145248259D01*
X218457647Y-144867307D01*
X218505267Y-144772069D01*
X218552886Y-144724450D01*
X218648124Y-144676831D01*
X218790981Y-144676831D01*
X218886219Y-144724450D01*
X218933838Y-144772069D01*
X218981457Y-144867307D01*
X218981457Y-145248259D01*
X218933838Y-144248259D02*
X218933838Y-143914926D01*
X219457647Y-143772069D02*
X219457647Y-144248259D01*
X218457647Y-144248259D01*
X218457647Y-143772069D01*
X218933838Y-143010164D02*
X218933838Y-143343498D01*
X219457647Y-143343498D02*
X218457647Y-143343498D01*
X218457647Y-142867307D01*
X218457647Y-142343498D02*
X218695743Y-142343498D01*
X218600505Y-142581593D02*
X218695743Y-142343498D01*
X218600505Y-142105402D01*
X218886219Y-142486355D02*
X218695743Y-142343498D01*
X218886219Y-142200640D01*
X218457647Y-141581593D02*
X218695743Y-141581593D01*
X218600505Y-141819688D02*
X218695743Y-141581593D01*
X218600505Y-141343498D01*
X218886219Y-141724450D02*
X218695743Y-141581593D01*
X218886219Y-141438736D01*
X221831933Y-140301593D02*
X221831933Y-139825402D01*
X222117647Y-140396831D02*
X221117647Y-140063498D01*
X222117647Y-139730164D01*
X123064647Y-163523631D02*
X122588457Y-163856964D01*
X123064647Y-164095059D02*
X122064647Y-164095059D01*
X122064647Y-163714107D01*
X122112267Y-163618869D01*
X122159886Y-163571250D01*
X122255124Y-163523631D01*
X122397981Y-163523631D01*
X122493219Y-163571250D01*
X122540838Y-163618869D01*
X122588457Y-163714107D01*
X122588457Y-164095059D01*
X122540838Y-163095059D02*
X122540838Y-162761726D01*
X123064647Y-162618869D02*
X123064647Y-163095059D01*
X122064647Y-163095059D01*
X122064647Y-162618869D01*
X122540838Y-161856964D02*
X122540838Y-162190298D01*
X123064647Y-162190298D02*
X122064647Y-162190298D01*
X122064647Y-161714107D01*
X122064647Y-161190298D02*
X122302743Y-161190298D01*
X122207505Y-161428393D02*
X122302743Y-161190298D01*
X122207505Y-160952202D01*
X122493219Y-161333155D02*
X122302743Y-161190298D01*
X122493219Y-161047440D01*
X122064647Y-160428393D02*
X122302743Y-160428393D01*
X122207505Y-160666488D02*
X122302743Y-160428393D01*
X122207505Y-160190298D01*
X122493219Y-160571250D02*
X122302743Y-160428393D01*
X122493219Y-160285536D01*
X125438933Y-159148393D02*
X125438933Y-158672202D01*
X125724647Y-159243631D02*
X124724647Y-158910298D01*
X125724647Y-158576964D01*
X122907380Y-104953333D02*
X122431190Y-105286666D01*
X122907380Y-105524761D02*
X121907380Y-105524761D01*
X121907380Y-105143809D01*
X121955000Y-105048571D01*
X122002619Y-105000952D01*
X122097857Y-104953333D01*
X122240714Y-104953333D01*
X122335952Y-105000952D01*
X122383571Y-105048571D01*
X122431190Y-105143809D01*
X122431190Y-105524761D01*
X122383571Y-104524761D02*
X122383571Y-104191428D01*
X122907380Y-104048571D02*
X122907380Y-104524761D01*
X121907380Y-104524761D01*
X121907380Y-104048571D01*
X122383571Y-103286666D02*
X122383571Y-103620000D01*
X122907380Y-103620000D02*
X121907380Y-103620000D01*
X121907380Y-103143809D01*
X121907380Y-102620000D02*
X122145476Y-102620000D01*
X122050238Y-102858095D02*
X122145476Y-102620000D01*
X122050238Y-102381904D01*
X122335952Y-102762857D02*
X122145476Y-102620000D01*
X122335952Y-102477142D01*
X121907380Y-101858095D02*
X122145476Y-101858095D01*
X122050238Y-102096190D02*
X122145476Y-101858095D01*
X122050238Y-101620000D01*
X122335952Y-102000952D02*
X122145476Y-101858095D01*
X122335952Y-101715238D01*
X125281666Y-100578095D02*
X125281666Y-100101904D01*
X125567380Y-100673333D02*
X124567380Y-100340000D01*
X125567380Y-100006666D01*
X239015647Y-124574648D02*
X238539457Y-124907981D01*
X239015647Y-125146076D02*
X238015647Y-125146076D01*
X238015647Y-124765124D01*
X238063267Y-124669886D01*
X238110886Y-124622267D01*
X238206124Y-124574648D01*
X238348981Y-124574648D01*
X238444219Y-124622267D01*
X238491838Y-124669886D01*
X238539457Y-124765124D01*
X238539457Y-125146076D01*
X238491838Y-124146076D02*
X238491838Y-123812743D01*
X239015647Y-123669886D02*
X239015647Y-124146076D01*
X238015647Y-124146076D01*
X238015647Y-123669886D01*
X238491838Y-122907981D02*
X238491838Y-123241315D01*
X239015647Y-123241315D02*
X238015647Y-123241315D01*
X238015647Y-122765124D01*
X238015647Y-122241315D02*
X238253743Y-122241315D01*
X238158505Y-122479410D02*
X238253743Y-122241315D01*
X238158505Y-122003219D01*
X238444219Y-122384172D02*
X238253743Y-122241315D01*
X238444219Y-122098457D01*
X238015647Y-121479410D02*
X238253743Y-121479410D01*
X238158505Y-121717505D02*
X238253743Y-121479410D01*
X238158505Y-121241315D01*
X238444219Y-121622267D02*
X238253743Y-121479410D01*
X238444219Y-121336553D01*
X241389933Y-120199410D02*
X241389933Y-119723219D01*
X241675647Y-120294648D02*
X240675647Y-119961315D01*
X241675647Y-119627981D01*
X324380181Y-184963332D02*
X323903991Y-185296665D01*
X324380181Y-185534760D02*
X323380181Y-185534760D01*
X323380181Y-185153808D01*
X323427801Y-185058570D01*
X323475420Y-185010951D01*
X323570658Y-184963332D01*
X323713515Y-184963332D01*
X323808753Y-185010951D01*
X323856372Y-185058570D01*
X323903991Y-185153808D01*
X323903991Y-185534760D01*
X323856372Y-184534760D02*
X323856372Y-184201427D01*
X324380181Y-184058570D02*
X324380181Y-184534760D01*
X323380181Y-184534760D01*
X323380181Y-184058570D01*
X323856372Y-183296665D02*
X323856372Y-183629999D01*
X324380181Y-183629999D02*
X323380181Y-183629999D01*
X323380181Y-183153808D01*
X323380181Y-182629999D02*
X323618277Y-182629999D01*
X323523039Y-182868094D02*
X323618277Y-182629999D01*
X323523039Y-182391903D01*
X323808753Y-182772856D02*
X323618277Y-182629999D01*
X323808753Y-182487141D01*
X323380181Y-181868094D02*
X323618277Y-181868094D01*
X323523039Y-182106189D02*
X323618277Y-181868094D01*
X323523039Y-181629999D01*
X323808753Y-182010951D02*
X323618277Y-181868094D01*
X323808753Y-181725237D01*
X326754467Y-180588094D02*
X326754467Y-180111903D01*
X327040181Y-180683332D02*
X326040181Y-180349999D01*
X327040181Y-180016665D01*
X142495647Y-124229831D02*
X142019457Y-124563164D01*
X142495647Y-124801259D02*
X141495647Y-124801259D01*
X141495647Y-124420307D01*
X141543267Y-124325069D01*
X141590886Y-124277450D01*
X141686124Y-124229831D01*
X141828981Y-124229831D01*
X141924219Y-124277450D01*
X141971838Y-124325069D01*
X142019457Y-124420307D01*
X142019457Y-124801259D01*
X141971838Y-123801259D02*
X141971838Y-123467926D01*
X142495647Y-123325069D02*
X142495647Y-123801259D01*
X141495647Y-123801259D01*
X141495647Y-123325069D01*
X141971838Y-122563164D02*
X141971838Y-122896498D01*
X142495647Y-122896498D02*
X141495647Y-122896498D01*
X141495647Y-122420307D01*
X141495647Y-121896498D02*
X141733743Y-121896498D01*
X141638505Y-122134593D02*
X141733743Y-121896498D01*
X141638505Y-121658402D01*
X141924219Y-122039355D02*
X141733743Y-121896498D01*
X141924219Y-121753640D01*
X141495647Y-121134593D02*
X141733743Y-121134593D01*
X141638505Y-121372688D02*
X141733743Y-121134593D01*
X141638505Y-120896498D01*
X141924219Y-121277450D02*
X141733743Y-121134593D01*
X141924219Y-120991736D01*
X144869933Y-119854593D02*
X144869933Y-119378402D01*
X145155647Y-119949831D02*
X144155647Y-119616498D01*
X145155647Y-119283164D01*
X258035380Y-105552150D02*
X257559190Y-105885483D01*
X258035380Y-106123578D02*
X257035380Y-106123578D01*
X257035380Y-105742626D01*
X257083000Y-105647388D01*
X257130619Y-105599769D01*
X257225857Y-105552150D01*
X257368714Y-105552150D01*
X257463952Y-105599769D01*
X257511571Y-105647388D01*
X257559190Y-105742626D01*
X257559190Y-106123578D01*
X257511571Y-105123578D02*
X257511571Y-104790245D01*
X258035380Y-104647388D02*
X258035380Y-105123578D01*
X257035380Y-105123578D01*
X257035380Y-104647388D01*
X257511571Y-103885483D02*
X257511571Y-104218817D01*
X258035380Y-104218817D02*
X257035380Y-104218817D01*
X257035380Y-103742626D01*
X257035380Y-103218817D02*
X257273476Y-103218817D01*
X257178238Y-103456912D02*
X257273476Y-103218817D01*
X257178238Y-102980721D01*
X257463952Y-103361674D02*
X257273476Y-103218817D01*
X257463952Y-103075959D01*
X257035380Y-102456912D02*
X257273476Y-102456912D01*
X257178238Y-102695007D02*
X257273476Y-102456912D01*
X257178238Y-102218817D01*
X257463952Y-102599769D02*
X257273476Y-102456912D01*
X257463952Y-102314055D01*
X260409666Y-101176912D02*
X260409666Y-100700721D01*
X260695380Y-101272150D02*
X259695380Y-100938817D01*
X260695380Y-100605483D01*
X142211380Y-105080333D02*
X141735190Y-105413666D01*
X142211380Y-105651761D02*
X141211380Y-105651761D01*
X141211380Y-105270809D01*
X141259000Y-105175571D01*
X141306619Y-105127952D01*
X141401857Y-105080333D01*
X141544714Y-105080333D01*
X141639952Y-105127952D01*
X141687571Y-105175571D01*
X141735190Y-105270809D01*
X141735190Y-105651761D01*
X141687571Y-104651761D02*
X141687571Y-104318428D01*
X142211380Y-104175571D02*
X142211380Y-104651761D01*
X141211380Y-104651761D01*
X141211380Y-104175571D01*
X141687571Y-103413666D02*
X141687571Y-103747000D01*
X142211380Y-103747000D02*
X141211380Y-103747000D01*
X141211380Y-103270809D01*
X141211380Y-102747000D02*
X141449476Y-102747000D01*
X141354238Y-102985095D02*
X141449476Y-102747000D01*
X141354238Y-102508904D01*
X141639952Y-102889857D02*
X141449476Y-102747000D01*
X141639952Y-102604142D01*
X141211380Y-101985095D02*
X141449476Y-101985095D01*
X141354238Y-102223190D02*
X141449476Y-101985095D01*
X141354238Y-101747000D01*
X141639952Y-102127952D02*
X141449476Y-101985095D01*
X141639952Y-101842238D01*
X144585666Y-100705095D02*
X144585666Y-100228904D01*
X144871380Y-100800333D02*
X143871380Y-100467000D01*
X144871380Y-100133666D01*
X238731380Y-105425150D02*
X238255190Y-105758483D01*
X238731380Y-105996578D02*
X237731380Y-105996578D01*
X237731380Y-105615626D01*
X237779000Y-105520388D01*
X237826619Y-105472769D01*
X237921857Y-105425150D01*
X238064714Y-105425150D01*
X238159952Y-105472769D01*
X238207571Y-105520388D01*
X238255190Y-105615626D01*
X238255190Y-105996578D01*
X238207571Y-104996578D02*
X238207571Y-104663245D01*
X238731380Y-104520388D02*
X238731380Y-104996578D01*
X237731380Y-104996578D01*
X237731380Y-104520388D01*
X238207571Y-103758483D02*
X238207571Y-104091817D01*
X238731380Y-104091817D02*
X237731380Y-104091817D01*
X237731380Y-103615626D01*
X237731380Y-103091817D02*
X237969476Y-103091817D01*
X237874238Y-103329912D02*
X237969476Y-103091817D01*
X237874238Y-102853721D01*
X238159952Y-103234674D02*
X237969476Y-103091817D01*
X238159952Y-102948959D01*
X237731380Y-102329912D02*
X237969476Y-102329912D01*
X237874238Y-102568007D02*
X237969476Y-102329912D01*
X237874238Y-102091817D01*
X238159952Y-102472769D02*
X237969476Y-102329912D01*
X238159952Y-102187055D01*
X241105666Y-101049912D02*
X241105666Y-100573721D01*
X241391380Y-101145150D02*
X240391380Y-100811817D01*
X241391380Y-100478483D01*
X103506647Y-144549831D02*
X103030457Y-144883164D01*
X103506647Y-145121259D02*
X102506647Y-145121259D01*
X102506647Y-144740307D01*
X102554267Y-144645069D01*
X102601886Y-144597450D01*
X102697124Y-144549831D01*
X102839981Y-144549831D01*
X102935219Y-144597450D01*
X102982838Y-144645069D01*
X103030457Y-144740307D01*
X103030457Y-145121259D01*
X102982838Y-144121259D02*
X102982838Y-143787926D01*
X103506647Y-143645069D02*
X103506647Y-144121259D01*
X102506647Y-144121259D01*
X102506647Y-143645069D01*
X102982838Y-142883164D02*
X102982838Y-143216498D01*
X103506647Y-143216498D02*
X102506647Y-143216498D01*
X102506647Y-142740307D01*
X102506647Y-142216498D02*
X102744743Y-142216498D01*
X102649505Y-142454593D02*
X102744743Y-142216498D01*
X102649505Y-141978402D01*
X102935219Y-142359355D02*
X102744743Y-142216498D01*
X102935219Y-142073640D01*
X102506647Y-141454593D02*
X102744743Y-141454593D01*
X102649505Y-141692688D02*
X102744743Y-141454593D01*
X102649505Y-141216498D01*
X102935219Y-141597450D02*
X102744743Y-141454593D01*
X102935219Y-141311736D01*
X105880933Y-140174593D02*
X105880933Y-139698402D01*
X106166647Y-140269831D02*
X105166647Y-139936498D01*
X106166647Y-139603164D01*
X258192647Y-164122448D02*
X257716457Y-164455781D01*
X258192647Y-164693876D02*
X257192647Y-164693876D01*
X257192647Y-164312924D01*
X257240267Y-164217686D01*
X257287886Y-164170067D01*
X257383124Y-164122448D01*
X257525981Y-164122448D01*
X257621219Y-164170067D01*
X257668838Y-164217686D01*
X257716457Y-164312924D01*
X257716457Y-164693876D01*
X257668838Y-163693876D02*
X257668838Y-163360543D01*
X258192647Y-163217686D02*
X258192647Y-163693876D01*
X257192647Y-163693876D01*
X257192647Y-163217686D01*
X257668838Y-162455781D02*
X257668838Y-162789115D01*
X258192647Y-162789115D02*
X257192647Y-162789115D01*
X257192647Y-162312924D01*
X257192647Y-161789115D02*
X257430743Y-161789115D01*
X257335505Y-162027210D02*
X257430743Y-161789115D01*
X257335505Y-161551019D01*
X257621219Y-161931972D02*
X257430743Y-161789115D01*
X257621219Y-161646257D01*
X257192647Y-161027210D02*
X257430743Y-161027210D01*
X257335505Y-161265305D02*
X257430743Y-161027210D01*
X257335505Y-160789115D01*
X257621219Y-161170067D02*
X257430743Y-161027210D01*
X257621219Y-160884353D01*
X260566933Y-159747210D02*
X260566933Y-159271019D01*
X260852647Y-159842448D02*
X259852647Y-159509115D01*
X260852647Y-159175781D01*
X103476380Y-105080333D02*
X103000190Y-105413666D01*
X103476380Y-105651761D02*
X102476380Y-105651761D01*
X102476380Y-105270809D01*
X102524000Y-105175571D01*
X102571619Y-105127952D01*
X102666857Y-105080333D01*
X102809714Y-105080333D01*
X102904952Y-105127952D01*
X102952571Y-105175571D01*
X103000190Y-105270809D01*
X103000190Y-105651761D01*
X102952571Y-104651761D02*
X102952571Y-104318428D01*
X103476380Y-104175571D02*
X103476380Y-104651761D01*
X102476380Y-104651761D01*
X102476380Y-104175571D01*
X102952571Y-103413666D02*
X102952571Y-103747000D01*
X103476380Y-103747000D02*
X102476380Y-103747000D01*
X102476380Y-103270809D01*
X102476380Y-102747000D02*
X102714476Y-102747000D01*
X102619238Y-102985095D02*
X102714476Y-102747000D01*
X102619238Y-102508904D01*
X102904952Y-102889857D02*
X102714476Y-102747000D01*
X102904952Y-102604142D01*
X102476380Y-101985095D02*
X102714476Y-101985095D01*
X102619238Y-102223190D02*
X102714476Y-101985095D01*
X102619238Y-101747000D01*
X102904952Y-102127952D02*
X102714476Y-101985095D01*
X102904952Y-101842238D01*
X105850666Y-100705095D02*
X105850666Y-100228904D01*
X106136380Y-100800333D02*
X105136380Y-100467000D01*
X106136380Y-100133666D01*
X200123380Y-105080333D02*
X199647190Y-105413666D01*
X200123380Y-105651761D02*
X199123380Y-105651761D01*
X199123380Y-105270809D01*
X199171000Y-105175571D01*
X199218619Y-105127952D01*
X199313857Y-105080333D01*
X199456714Y-105080333D01*
X199551952Y-105127952D01*
X199599571Y-105175571D01*
X199647190Y-105270809D01*
X199647190Y-105651761D01*
X199599571Y-104651761D02*
X199599571Y-104318428D01*
X200123380Y-104175571D02*
X200123380Y-104651761D01*
X199123380Y-104651761D01*
X199123380Y-104175571D01*
X199599571Y-103413666D02*
X199599571Y-103747000D01*
X200123380Y-103747000D02*
X199123380Y-103747000D01*
X199123380Y-103270809D01*
X199123380Y-102747000D02*
X199361476Y-102747000D01*
X199266238Y-102985095D02*
X199361476Y-102747000D01*
X199266238Y-102508904D01*
X199551952Y-102889857D02*
X199361476Y-102747000D01*
X199551952Y-102604142D01*
X199123380Y-101985095D02*
X199361476Y-101985095D01*
X199266238Y-102223190D02*
X199361476Y-101985095D01*
X199266238Y-101747000D01*
X199551952Y-102127952D02*
X199361476Y-101985095D01*
X199551952Y-101842238D01*
X202497666Y-100705095D02*
X202497666Y-100228904D01*
X202783380Y-100800333D02*
X201783380Y-100467000D01*
X202783380Y-100133666D01*
X181103647Y-124574648D02*
X180627457Y-124907981D01*
X181103647Y-125146076D02*
X180103647Y-125146076D01*
X180103647Y-124765124D01*
X180151267Y-124669886D01*
X180198886Y-124622267D01*
X180294124Y-124574648D01*
X180436981Y-124574648D01*
X180532219Y-124622267D01*
X180579838Y-124669886D01*
X180627457Y-124765124D01*
X180627457Y-125146076D01*
X180579838Y-124146076D02*
X180579838Y-123812743D01*
X181103647Y-123669886D02*
X181103647Y-124146076D01*
X180103647Y-124146076D01*
X180103647Y-123669886D01*
X180579838Y-122907981D02*
X180579838Y-123241315D01*
X181103647Y-123241315D02*
X180103647Y-123241315D01*
X180103647Y-122765124D01*
X180103647Y-122241315D02*
X180341743Y-122241315D01*
X180246505Y-122479410D02*
X180341743Y-122241315D01*
X180246505Y-122003219D01*
X180532219Y-122384172D02*
X180341743Y-122241315D01*
X180532219Y-122098457D01*
X180103647Y-121479410D02*
X180341743Y-121479410D01*
X180246505Y-121717505D02*
X180341743Y-121479410D01*
X180246505Y-121241315D01*
X180532219Y-121622267D02*
X180341743Y-121479410D01*
X180532219Y-121336553D01*
X183477933Y-120199410D02*
X183477933Y-119723219D01*
X183763647Y-120294648D02*
X182763647Y-119961315D01*
X183763647Y-119627981D01*
X277369647Y-144930831D02*
X276893457Y-145264164D01*
X277369647Y-145502259D02*
X276369647Y-145502259D01*
X276369647Y-145121307D01*
X276417267Y-145026069D01*
X276464886Y-144978450D01*
X276560124Y-144930831D01*
X276702981Y-144930831D01*
X276798219Y-144978450D01*
X276845838Y-145026069D01*
X276893457Y-145121307D01*
X276893457Y-145502259D01*
X276845838Y-144502259D02*
X276845838Y-144168926D01*
X277369647Y-144026069D02*
X277369647Y-144502259D01*
X276369647Y-144502259D01*
X276369647Y-144026069D01*
X276845838Y-143264164D02*
X276845838Y-143597498D01*
X277369647Y-143597498D02*
X276369647Y-143597498D01*
X276369647Y-143121307D01*
X276369647Y-142597498D02*
X276607743Y-142597498D01*
X276512505Y-142835593D02*
X276607743Y-142597498D01*
X276512505Y-142359402D01*
X276798219Y-142740355D02*
X276607743Y-142597498D01*
X276798219Y-142454640D01*
X276369647Y-141835593D02*
X276607743Y-141835593D01*
X276512505Y-142073688D02*
X276607743Y-141835593D01*
X276512505Y-141597498D01*
X276798219Y-141978450D02*
X276607743Y-141835593D01*
X276798219Y-141692736D01*
X279743933Y-140555593D02*
X279743933Y-140079402D01*
X280029647Y-140650831D02*
X279029647Y-140317498D01*
X280029647Y-139984164D01*
X200407647Y-124229831D02*
X199931457Y-124563164D01*
X200407647Y-124801259D02*
X199407647Y-124801259D01*
X199407647Y-124420307D01*
X199455267Y-124325069D01*
X199502886Y-124277450D01*
X199598124Y-124229831D01*
X199740981Y-124229831D01*
X199836219Y-124277450D01*
X199883838Y-124325069D01*
X199931457Y-124420307D01*
X199931457Y-124801259D01*
X199883838Y-123801259D02*
X199883838Y-123467926D01*
X200407647Y-123325069D02*
X200407647Y-123801259D01*
X199407647Y-123801259D01*
X199407647Y-123325069D01*
X199883838Y-122563164D02*
X199883838Y-122896498D01*
X200407647Y-122896498D02*
X199407647Y-122896498D01*
X199407647Y-122420307D01*
X199407647Y-121896498D02*
X199645743Y-121896498D01*
X199550505Y-122134593D02*
X199645743Y-121896498D01*
X199550505Y-121658402D01*
X199836219Y-122039355D02*
X199645743Y-121896498D01*
X199836219Y-121753640D01*
X199407647Y-121134593D02*
X199645743Y-121134593D01*
X199550505Y-121372688D02*
X199645743Y-121134593D01*
X199550505Y-120896498D01*
X199836219Y-121277450D02*
X199645743Y-121134593D01*
X199836219Y-120991736D01*
X202781933Y-119854593D02*
X202781933Y-119378402D01*
X203067647Y-119949831D02*
X202067647Y-119616498D01*
X203067647Y-119283164D01*
X239020514Y-163830163D02*
X238544324Y-164163496D01*
X239020514Y-164401591D02*
X238020514Y-164401591D01*
X238020514Y-164020639D01*
X238068134Y-163925401D01*
X238115753Y-163877782D01*
X238210991Y-163830163D01*
X238353848Y-163830163D01*
X238449086Y-163877782D01*
X238496705Y-163925401D01*
X238544324Y-164020639D01*
X238544324Y-164401591D01*
X238496705Y-163401591D02*
X238496705Y-163068258D01*
X239020514Y-162925401D02*
X239020514Y-163401591D01*
X238020514Y-163401591D01*
X238020514Y-162925401D01*
X238496705Y-162163496D02*
X238496705Y-162496830D01*
X239020514Y-162496830D02*
X238020514Y-162496830D01*
X238020514Y-162020639D01*
X238020514Y-161496830D02*
X238258610Y-161496830D01*
X238163372Y-161734925D02*
X238258610Y-161496830D01*
X238163372Y-161258734D01*
X238449086Y-161639687D02*
X238258610Y-161496830D01*
X238449086Y-161353972D01*
X238020514Y-160734925D02*
X238258610Y-160734925D01*
X238163372Y-160973020D02*
X238258610Y-160734925D01*
X238163372Y-160496830D01*
X238449086Y-160877782D02*
X238258610Y-160734925D01*
X238449086Y-160592068D01*
X241394800Y-159454925D02*
X241394800Y-158978734D01*
X241680514Y-159550163D02*
X240680514Y-159216830D01*
X241680514Y-158883496D01*
X122937647Y-144422831D02*
X122461457Y-144756164D01*
X122937647Y-144994259D02*
X121937647Y-144994259D01*
X121937647Y-144613307D01*
X121985267Y-144518069D01*
X122032886Y-144470450D01*
X122128124Y-144422831D01*
X122270981Y-144422831D01*
X122366219Y-144470450D01*
X122413838Y-144518069D01*
X122461457Y-144613307D01*
X122461457Y-144994259D01*
X122413838Y-143994259D02*
X122413838Y-143660926D01*
X122937647Y-143518069D02*
X122937647Y-143994259D01*
X121937647Y-143994259D01*
X121937647Y-143518069D01*
X122413838Y-142756164D02*
X122413838Y-143089498D01*
X122937647Y-143089498D02*
X121937647Y-143089498D01*
X121937647Y-142613307D01*
X121937647Y-142089498D02*
X122175743Y-142089498D01*
X122080505Y-142327593D02*
X122175743Y-142089498D01*
X122080505Y-141851402D01*
X122366219Y-142232355D02*
X122175743Y-142089498D01*
X122366219Y-141946640D01*
X121937647Y-141327593D02*
X122175743Y-141327593D01*
X122080505Y-141565688D02*
X122175743Y-141327593D01*
X122080505Y-141089498D01*
X122366219Y-141470450D02*
X122175743Y-141327593D01*
X122366219Y-141184736D01*
X125311933Y-140047593D02*
X125311933Y-139571402D01*
X125597647Y-140142831D02*
X124597647Y-139809498D01*
X125597647Y-139476164D01*
X142368647Y-163650631D02*
X141892457Y-163983964D01*
X142368647Y-164222059D02*
X141368647Y-164222059D01*
X141368647Y-163841107D01*
X141416267Y-163745869D01*
X141463886Y-163698250D01*
X141559124Y-163650631D01*
X141701981Y-163650631D01*
X141797219Y-163698250D01*
X141844838Y-163745869D01*
X141892457Y-163841107D01*
X141892457Y-164222059D01*
X141844838Y-163222059D02*
X141844838Y-162888726D01*
X142368647Y-162745869D02*
X142368647Y-163222059D01*
X141368647Y-163222059D01*
X141368647Y-162745869D01*
X141844838Y-161983964D02*
X141844838Y-162317298D01*
X142368647Y-162317298D02*
X141368647Y-162317298D01*
X141368647Y-161841107D01*
X141368647Y-161317298D02*
X141606743Y-161317298D01*
X141511505Y-161555393D02*
X141606743Y-161317298D01*
X141511505Y-161079202D01*
X141797219Y-161460155D02*
X141606743Y-161317298D01*
X141797219Y-161174440D01*
X141368647Y-160555393D02*
X141606743Y-160555393D01*
X141511505Y-160793488D02*
X141606743Y-160555393D01*
X141511505Y-160317298D01*
X141797219Y-160698250D02*
X141606743Y-160555393D01*
X141797219Y-160412536D01*
X144742933Y-159275393D02*
X144742933Y-158799202D01*
X145028647Y-159370631D02*
X144028647Y-159037298D01*
X145028647Y-158703964D01*
X123191647Y-124102831D02*
X122715457Y-124436164D01*
X123191647Y-124674259D02*
X122191647Y-124674259D01*
X122191647Y-124293307D01*
X122239267Y-124198069D01*
X122286886Y-124150450D01*
X122382124Y-124102831D01*
X122524981Y-124102831D01*
X122620219Y-124150450D01*
X122667838Y-124198069D01*
X122715457Y-124293307D01*
X122715457Y-124674259D01*
X122667838Y-123674259D02*
X122667838Y-123340926D01*
X123191647Y-123198069D02*
X123191647Y-123674259D01*
X122191647Y-123674259D01*
X122191647Y-123198069D01*
X122667838Y-122436164D02*
X122667838Y-122769498D01*
X123191647Y-122769498D02*
X122191647Y-122769498D01*
X122191647Y-122293307D01*
X122191647Y-121769498D02*
X122429743Y-121769498D01*
X122334505Y-122007593D02*
X122429743Y-121769498D01*
X122334505Y-121531402D01*
X122620219Y-121912355D02*
X122429743Y-121769498D01*
X122620219Y-121626640D01*
X122191647Y-121007593D02*
X122429743Y-121007593D01*
X122334505Y-121245688D02*
X122429743Y-121007593D01*
X122334505Y-120769498D01*
X122620219Y-121150450D02*
X122429743Y-121007593D01*
X122620219Y-120864736D01*
X125565933Y-119727593D02*
X125565933Y-119251402D01*
X125851647Y-119822831D02*
X124851647Y-119489498D01*
X125851647Y-119156164D01*
X180819380Y-105425150D02*
X180343190Y-105758483D01*
X180819380Y-105996578D02*
X179819380Y-105996578D01*
X179819380Y-105615626D01*
X179867000Y-105520388D01*
X179914619Y-105472769D01*
X180009857Y-105425150D01*
X180152714Y-105425150D01*
X180247952Y-105472769D01*
X180295571Y-105520388D01*
X180343190Y-105615626D01*
X180343190Y-105996578D01*
X180295571Y-104996578D02*
X180295571Y-104663245D01*
X180819380Y-104520388D02*
X180819380Y-104996578D01*
X179819380Y-104996578D01*
X179819380Y-104520388D01*
X180295571Y-103758483D02*
X180295571Y-104091817D01*
X180819380Y-104091817D02*
X179819380Y-104091817D01*
X179819380Y-103615626D01*
X179819380Y-103091817D02*
X180057476Y-103091817D01*
X179962238Y-103329912D02*
X180057476Y-103091817D01*
X179962238Y-102853721D01*
X180247952Y-103234674D02*
X180057476Y-103091817D01*
X180247952Y-102948959D01*
X179819380Y-102329912D02*
X180057476Y-102329912D01*
X179962238Y-102568007D02*
X180057476Y-102329912D01*
X179962238Y-102091817D01*
X180247952Y-102472769D02*
X180057476Y-102329912D01*
X180247952Y-102187055D01*
X183193666Y-101049912D02*
X183193666Y-100573721D01*
X183479380Y-101145150D02*
X182479380Y-100811817D01*
X183479380Y-100478483D01*
X277212380Y-186233333D02*
X276736190Y-186566666D01*
X277212380Y-186804761D02*
X276212380Y-186804761D01*
X276212380Y-186423809D01*
X276260000Y-186328571D01*
X276307619Y-186280952D01*
X276402857Y-186233333D01*
X276545714Y-186233333D01*
X276640952Y-186280952D01*
X276688571Y-186328571D01*
X276736190Y-186423809D01*
X276736190Y-186804761D01*
X276688571Y-185804761D02*
X276688571Y-185471428D01*
X277212380Y-185328571D02*
X277212380Y-185804761D01*
X276212380Y-185804761D01*
X276212380Y-185328571D01*
X276688571Y-184566666D02*
X276688571Y-184900000D01*
X277212380Y-184900000D02*
X276212380Y-184900000D01*
X276212380Y-184423809D01*
X276212380Y-183900000D02*
X276450476Y-183900000D01*
X276355238Y-184138095D02*
X276450476Y-183900000D01*
X276355238Y-183661904D01*
X276640952Y-184042857D02*
X276450476Y-183900000D01*
X276640952Y-183757142D01*
X276212380Y-183138095D02*
X276450476Y-183138095D01*
X276355238Y-183376190D02*
X276450476Y-183138095D01*
X276355238Y-182900000D01*
X276640952Y-183280952D02*
X276450476Y-183138095D01*
X276640952Y-182995238D01*
X279586666Y-181858095D02*
X279586666Y-181381904D01*
X279872380Y-181953333D02*
X278872380Y-181620000D01*
X279872380Y-181286666D01*
X219716514Y-163703163D02*
X219240324Y-164036496D01*
X219716514Y-164274591D02*
X218716514Y-164274591D01*
X218716514Y-163893639D01*
X218764134Y-163798401D01*
X218811753Y-163750782D01*
X218906991Y-163703163D01*
X219049848Y-163703163D01*
X219145086Y-163750782D01*
X219192705Y-163798401D01*
X219240324Y-163893639D01*
X219240324Y-164274591D01*
X219192705Y-163274591D02*
X219192705Y-162941258D01*
X219716514Y-162798401D02*
X219716514Y-163274591D01*
X218716514Y-163274591D01*
X218716514Y-162798401D01*
X219192705Y-162036496D02*
X219192705Y-162369830D01*
X219716514Y-162369830D02*
X218716514Y-162369830D01*
X218716514Y-161893639D01*
X218716514Y-161369830D02*
X218954610Y-161369830D01*
X218859372Y-161607925D02*
X218954610Y-161369830D01*
X218859372Y-161131734D01*
X219145086Y-161512687D02*
X218954610Y-161369830D01*
X219145086Y-161226972D01*
X218716514Y-160607925D02*
X218954610Y-160607925D01*
X218859372Y-160846020D02*
X218954610Y-160607925D01*
X218859372Y-160369830D01*
X219145086Y-160750782D02*
X218954610Y-160607925D01*
X219145086Y-160465068D01*
X222090800Y-159327925D02*
X222090800Y-158851734D01*
X222376514Y-159423163D02*
X221376514Y-159089830D01*
X222376514Y-158756496D01*
X199792380Y-144655516D02*
X199316190Y-144988849D01*
X199792380Y-145226944D02*
X198792380Y-145226944D01*
X198792380Y-144845992D01*
X198840000Y-144750754D01*
X198887619Y-144703135D01*
X198982857Y-144655516D01*
X199125714Y-144655516D01*
X199220952Y-144703135D01*
X199268571Y-144750754D01*
X199316190Y-144845992D01*
X199316190Y-145226944D01*
X199268571Y-144226944D02*
X199268571Y-143893611D01*
X199792380Y-143750754D02*
X199792380Y-144226944D01*
X198792380Y-144226944D01*
X198792380Y-143750754D01*
X199268571Y-142988849D02*
X199268571Y-143322183D01*
X199792380Y-143322183D02*
X198792380Y-143322183D01*
X198792380Y-142845992D01*
X198792380Y-142322183D02*
X199030476Y-142322183D01*
X198935238Y-142560278D02*
X199030476Y-142322183D01*
X198935238Y-142084087D01*
X199220952Y-142465040D02*
X199030476Y-142322183D01*
X199220952Y-142179325D01*
X198792380Y-141560278D02*
X199030476Y-141560278D01*
X198935238Y-141798373D02*
X199030476Y-141560278D01*
X198935238Y-141322183D01*
X199220952Y-141703135D02*
X199030476Y-141560278D01*
X199220952Y-141417421D01*
X202166666Y-140280278D02*
X202166666Y-139804087D01*
X202452380Y-140375516D02*
X201452380Y-140042183D01*
X202452380Y-139708849D01*
X257908380Y-186324150D02*
X257432190Y-186657483D01*
X257908380Y-186895578D02*
X256908380Y-186895578D01*
X256908380Y-186514626D01*
X256956000Y-186419388D01*
X257003619Y-186371769D01*
X257098857Y-186324150D01*
X257241714Y-186324150D01*
X257336952Y-186371769D01*
X257384571Y-186419388D01*
X257432190Y-186514626D01*
X257432190Y-186895578D01*
X257384571Y-185895578D02*
X257384571Y-185562245D01*
X257908380Y-185419388D02*
X257908380Y-185895578D01*
X256908380Y-185895578D01*
X256908380Y-185419388D01*
X257384571Y-184657483D02*
X257384571Y-184990817D01*
X257908380Y-184990817D02*
X256908380Y-184990817D01*
X256908380Y-184514626D01*
X256908380Y-183990817D02*
X257146476Y-183990817D01*
X257051238Y-184228912D02*
X257146476Y-183990817D01*
X257051238Y-183752721D01*
X257336952Y-184133674D02*
X257146476Y-183990817D01*
X257336952Y-183847959D01*
X256908380Y-183228912D02*
X257146476Y-183228912D01*
X257051238Y-183467007D02*
X257146476Y-183228912D01*
X257051238Y-182990817D01*
X257336952Y-183371769D02*
X257146476Y-183228912D01*
X257336952Y-183086055D01*
X260282666Y-181948912D02*
X260282666Y-181472721D01*
X260568380Y-182044150D02*
X259568380Y-181710817D01*
X260568380Y-181377483D01*
X258319647Y-124701648D02*
X257843457Y-125034981D01*
X258319647Y-125273076D02*
X257319647Y-125273076D01*
X257319647Y-124892124D01*
X257367267Y-124796886D01*
X257414886Y-124749267D01*
X257510124Y-124701648D01*
X257652981Y-124701648D01*
X257748219Y-124749267D01*
X257795838Y-124796886D01*
X257843457Y-124892124D01*
X257843457Y-125273076D01*
X257795838Y-124273076D02*
X257795838Y-123939743D01*
X258319647Y-123796886D02*
X258319647Y-124273076D01*
X257319647Y-124273076D01*
X257319647Y-123796886D01*
X257795838Y-123034981D02*
X257795838Y-123368315D01*
X258319647Y-123368315D02*
X257319647Y-123368315D01*
X257319647Y-122892124D01*
X257319647Y-122368315D02*
X257557743Y-122368315D01*
X257462505Y-122606410D02*
X257557743Y-122368315D01*
X257462505Y-122130219D01*
X257748219Y-122511172D02*
X257557743Y-122368315D01*
X257748219Y-122225457D01*
X257319647Y-121606410D02*
X257557743Y-121606410D01*
X257462505Y-121844505D02*
X257557743Y-121606410D01*
X257462505Y-121368315D01*
X257748219Y-121749267D02*
X257557743Y-121606410D01*
X257748219Y-121463553D01*
X260693933Y-120326410D02*
X260693933Y-119850219D01*
X260979647Y-120421648D02*
X259979647Y-120088315D01*
X260979647Y-119754981D01*
X103633647Y-163650631D02*
X103157457Y-163983964D01*
X103633647Y-164222059D02*
X102633647Y-164222059D01*
X102633647Y-163841107D01*
X102681267Y-163745869D01*
X102728886Y-163698250D01*
X102824124Y-163650631D01*
X102966981Y-163650631D01*
X103062219Y-163698250D01*
X103109838Y-163745869D01*
X103157457Y-163841107D01*
X103157457Y-164222059D01*
X103109838Y-163222059D02*
X103109838Y-162888726D01*
X103633647Y-162745869D02*
X103633647Y-163222059D01*
X102633647Y-163222059D01*
X102633647Y-162745869D01*
X103109838Y-161983964D02*
X103109838Y-162317298D01*
X103633647Y-162317298D02*
X102633647Y-162317298D01*
X102633647Y-161841107D01*
X102633647Y-161317298D02*
X102871743Y-161317298D01*
X102776505Y-161555393D02*
X102871743Y-161317298D01*
X102776505Y-161079202D01*
X103062219Y-161460155D02*
X102871743Y-161317298D01*
X103062219Y-161174440D01*
X102633647Y-160555393D02*
X102871743Y-160555393D01*
X102776505Y-160793488D02*
X102871743Y-160555393D01*
X102776505Y-160317298D01*
X103062219Y-160698250D02*
X102871743Y-160555393D01*
X103062219Y-160412536D01*
X106007933Y-159275393D02*
X106007933Y-158799202D01*
X106293647Y-159370631D02*
X105293647Y-159037298D01*
X106293647Y-158703964D01*
X161799647Y-124447648D02*
X161323457Y-124780981D01*
X161799647Y-125019076D02*
X160799647Y-125019076D01*
X160799647Y-124638124D01*
X160847267Y-124542886D01*
X160894886Y-124495267D01*
X160990124Y-124447648D01*
X161132981Y-124447648D01*
X161228219Y-124495267D01*
X161275838Y-124542886D01*
X161323457Y-124638124D01*
X161323457Y-125019076D01*
X161275838Y-124019076D02*
X161275838Y-123685743D01*
X161799647Y-123542886D02*
X161799647Y-124019076D01*
X160799647Y-124019076D01*
X160799647Y-123542886D01*
X161275838Y-122780981D02*
X161275838Y-123114315D01*
X161799647Y-123114315D02*
X160799647Y-123114315D01*
X160799647Y-122638124D01*
X160799647Y-122114315D02*
X161037743Y-122114315D01*
X160942505Y-122352410D02*
X161037743Y-122114315D01*
X160942505Y-121876219D01*
X161228219Y-122257172D02*
X161037743Y-122114315D01*
X161228219Y-121971457D01*
X160799647Y-121352410D02*
X161037743Y-121352410D01*
X160942505Y-121590505D02*
X161037743Y-121352410D01*
X160942505Y-121114315D01*
X161228219Y-121495267D02*
X161037743Y-121352410D01*
X161228219Y-121209553D01*
X164173933Y-120072410D02*
X164173933Y-119596219D01*
X164459647Y-120167648D02*
X163459647Y-119834315D01*
X164459647Y-119500981D01*
X258065647Y-145021648D02*
X257589457Y-145354981D01*
X258065647Y-145593076D02*
X257065647Y-145593076D01*
X257065647Y-145212124D01*
X257113267Y-145116886D01*
X257160886Y-145069267D01*
X257256124Y-145021648D01*
X257398981Y-145021648D01*
X257494219Y-145069267D01*
X257541838Y-145116886D01*
X257589457Y-145212124D01*
X257589457Y-145593076D01*
X257541838Y-144593076D02*
X257541838Y-144259743D01*
X258065647Y-144116886D02*
X258065647Y-144593076D01*
X257065647Y-144593076D01*
X257065647Y-144116886D01*
X257541838Y-143354981D02*
X257541838Y-143688315D01*
X258065647Y-143688315D02*
X257065647Y-143688315D01*
X257065647Y-143212124D01*
X257065647Y-142688315D02*
X257303743Y-142688315D01*
X257208505Y-142926410D02*
X257303743Y-142688315D01*
X257208505Y-142450219D01*
X257494219Y-142831172D02*
X257303743Y-142688315D01*
X257494219Y-142545457D01*
X257065647Y-141926410D02*
X257303743Y-141926410D01*
X257208505Y-142164505D02*
X257303743Y-141926410D01*
X257208505Y-141688315D01*
X257494219Y-142069267D02*
X257303743Y-141926410D01*
X257494219Y-141783553D01*
X260439933Y-140646410D02*
X260439933Y-140170219D01*
X260725647Y-140741648D02*
X259725647Y-140408315D01*
X260725647Y-140074981D01*
X179473180Y-186362435D02*
X178996990Y-186695768D01*
X179473180Y-186933863D02*
X178473180Y-186933863D01*
X178473180Y-186552911D01*
X178520800Y-186457673D01*
X178568419Y-186410054D01*
X178663657Y-186362435D01*
X178806514Y-186362435D01*
X178901752Y-186410054D01*
X178949371Y-186457673D01*
X178996990Y-186552911D01*
X178996990Y-186933863D01*
X178949371Y-185933863D02*
X178949371Y-185600530D01*
X179473180Y-185457673D02*
X179473180Y-185933863D01*
X178473180Y-185933863D01*
X178473180Y-185457673D01*
X178949371Y-184695768D02*
X178949371Y-185029102D01*
X179473180Y-185029102D02*
X178473180Y-185029102D01*
X178473180Y-184552911D01*
X178473180Y-184029102D02*
X178711276Y-184029102D01*
X178616038Y-184267197D02*
X178711276Y-184029102D01*
X178616038Y-183791006D01*
X178901752Y-184171959D02*
X178711276Y-184029102D01*
X178901752Y-183886244D01*
X178473180Y-183267197D02*
X178711276Y-183267197D01*
X178616038Y-183505292D02*
X178711276Y-183267197D01*
X178616038Y-183029102D01*
X178901752Y-183410054D02*
X178711276Y-183267197D01*
X178901752Y-183124340D01*
X181847466Y-181987197D02*
X181847466Y-181511006D01*
X182133180Y-182082435D02*
X181133180Y-181749102D01*
X182133180Y-181415768D01*
X84172380Y-104953333D02*
X83696190Y-105286666D01*
X84172380Y-105524761D02*
X83172380Y-105524761D01*
X83172380Y-105143809D01*
X83220000Y-105048571D01*
X83267619Y-105000952D01*
X83362857Y-104953333D01*
X83505714Y-104953333D01*
X83600952Y-105000952D01*
X83648571Y-105048571D01*
X83696190Y-105143809D01*
X83696190Y-105524761D01*
X83648571Y-104524761D02*
X83648571Y-104191428D01*
X84172380Y-104048571D02*
X84172380Y-104524761D01*
X83172380Y-104524761D01*
X83172380Y-104048571D01*
X83648571Y-103286666D02*
X83648571Y-103620000D01*
X84172380Y-103620000D02*
X83172380Y-103620000D01*
X83172380Y-103143809D01*
X83172380Y-102620000D02*
X83410476Y-102620000D01*
X83315238Y-102858095D02*
X83410476Y-102620000D01*
X83315238Y-102381904D01*
X83600952Y-102762857D02*
X83410476Y-102620000D01*
X83600952Y-102477142D01*
X83172380Y-101858095D02*
X83410476Y-101858095D01*
X83315238Y-102096190D02*
X83410476Y-101858095D01*
X83315238Y-101620000D01*
X83600952Y-102000952D02*
X83410476Y-101858095D01*
X83600952Y-101715238D01*
X86546666Y-100578095D02*
X86546666Y-100101904D01*
X86832380Y-100673333D02*
X85832380Y-100340000D01*
X86832380Y-100006666D01*
X369720149Y-77422614D02*
X369386816Y-76946424D01*
X369148721Y-77422614D02*
X369148721Y-76422614D01*
X369529673Y-76422614D01*
X369624911Y-76470234D01*
X369672530Y-76517853D01*
X369720149Y-76613091D01*
X369720149Y-76755948D01*
X369672530Y-76851186D01*
X369624911Y-76898805D01*
X369529673Y-76946424D01*
X369148721Y-76946424D01*
X370148721Y-76898805D02*
X370482054Y-76898805D01*
X370624911Y-77422614D02*
X370148721Y-77422614D01*
X370148721Y-76422614D01*
X370624911Y-76422614D01*
X371386816Y-76898805D02*
X371053483Y-76898805D01*
X371053483Y-77422614D02*
X371053483Y-76422614D01*
X371529673Y-76422614D01*
X372053483Y-76422614D02*
X372053483Y-76660710D01*
X371815387Y-76565472D02*
X372053483Y-76660710D01*
X372291578Y-76565472D01*
X371910625Y-76851186D02*
X372053483Y-76660710D01*
X372196340Y-76851186D01*
X372815387Y-76422614D02*
X372815387Y-76660710D01*
X372577292Y-76565472D02*
X372815387Y-76660710D01*
X373053483Y-76565472D01*
X372672530Y-76851186D02*
X372815387Y-76660710D01*
X372958244Y-76851186D01*
X196524333Y-176591512D02*
X196191000Y-176115322D01*
X195952905Y-176591512D02*
X195952905Y-175591512D01*
X196333857Y-175591512D01*
X196429095Y-175639132D01*
X196476714Y-175686751D01*
X196524333Y-175781989D01*
X196524333Y-175924846D01*
X196476714Y-176020084D01*
X196429095Y-176067703D01*
X196333857Y-176115322D01*
X195952905Y-176115322D01*
X196952905Y-176067703D02*
X197286238Y-176067703D01*
X197429095Y-176591512D02*
X196952905Y-176591512D01*
X196952905Y-175591512D01*
X197429095Y-175591512D01*
X198191000Y-176067703D02*
X197857667Y-176067703D01*
X197857667Y-176591512D02*
X197857667Y-175591512D01*
X198333857Y-175591512D01*
X198857667Y-175591512D02*
X198857667Y-175829608D01*
X198619571Y-175734370D02*
X198857667Y-175829608D01*
X199095762Y-175734370D01*
X198714809Y-176020084D02*
X198857667Y-175829608D01*
X199000524Y-176020084D01*
X199619571Y-175591512D02*
X199619571Y-175829608D01*
X199381476Y-175734370D02*
X199619571Y-175829608D01*
X199857667Y-175734370D01*
X199476714Y-176020084D02*
X199619571Y-175829608D01*
X199762428Y-176020084D01*
X369923349Y-131473814D02*
X369590016Y-130997624D01*
X369351921Y-131473814D02*
X369351921Y-130473814D01*
X369732873Y-130473814D01*
X369828111Y-130521434D01*
X369875730Y-130569053D01*
X369923349Y-130664291D01*
X369923349Y-130807148D01*
X369875730Y-130902386D01*
X369828111Y-130950005D01*
X369732873Y-130997624D01*
X369351921Y-130997624D01*
X370351921Y-130950005D02*
X370685254Y-130950005D01*
X370828111Y-131473814D02*
X370351921Y-131473814D01*
X370351921Y-130473814D01*
X370828111Y-130473814D01*
X371590016Y-130950005D02*
X371256683Y-130950005D01*
X371256683Y-131473814D02*
X371256683Y-130473814D01*
X371732873Y-130473814D01*
X372256683Y-130473814D02*
X372256683Y-130711910D01*
X372018587Y-130616672D02*
X372256683Y-130711910D01*
X372494778Y-130616672D01*
X372113825Y-130902386D02*
X372256683Y-130711910D01*
X372399540Y-130902386D01*
X373018587Y-130473814D02*
X373018587Y-130711910D01*
X372780492Y-130616672D02*
X373018587Y-130711910D01*
X373256683Y-130616672D01*
X372875730Y-130902386D02*
X373018587Y-130711910D01*
X373161444Y-130902386D01*
X63243749Y-130762614D02*
X62910416Y-130286424D01*
X62672321Y-130762614D02*
X62672321Y-129762614D01*
X63053273Y-129762614D01*
X63148511Y-129810234D01*
X63196130Y-129857853D01*
X63243749Y-129953091D01*
X63243749Y-130095948D01*
X63196130Y-130191186D01*
X63148511Y-130238805D01*
X63053273Y-130286424D01*
X62672321Y-130286424D01*
X63672321Y-130238805D02*
X64005654Y-130238805D01*
X64148511Y-130762614D02*
X63672321Y-130762614D01*
X63672321Y-129762614D01*
X64148511Y-129762614D01*
X64910416Y-130238805D02*
X64577083Y-130238805D01*
X64577083Y-130762614D02*
X64577083Y-129762614D01*
X65053273Y-129762614D01*
X65577083Y-129762614D02*
X65577083Y-130000710D01*
X65338987Y-129905472D02*
X65577083Y-130000710D01*
X65815178Y-129905472D01*
X65434225Y-130191186D02*
X65577083Y-130000710D01*
X65719940Y-130191186D01*
X66338987Y-129762614D02*
X66338987Y-130000710D01*
X66100892Y-129905472D02*
X66338987Y-130000710D01*
X66577083Y-129905472D01*
X66196130Y-130191186D02*
X66338987Y-130000710D01*
X66481844Y-130191186D01*
X63700949Y-77727414D02*
X63367616Y-77251224D01*
X63129521Y-77727414D02*
X63129521Y-76727414D01*
X63510473Y-76727414D01*
X63605711Y-76775034D01*
X63653330Y-76822653D01*
X63700949Y-76917891D01*
X63700949Y-77060748D01*
X63653330Y-77155986D01*
X63605711Y-77203605D01*
X63510473Y-77251224D01*
X63129521Y-77251224D01*
X64129521Y-77203605D02*
X64462854Y-77203605D01*
X64605711Y-77727414D02*
X64129521Y-77727414D01*
X64129521Y-76727414D01*
X64605711Y-76727414D01*
X65367616Y-77203605D02*
X65034283Y-77203605D01*
X65034283Y-77727414D02*
X65034283Y-76727414D01*
X65510473Y-76727414D01*
X66034283Y-76727414D02*
X66034283Y-76965510D01*
X65796187Y-76870272D02*
X66034283Y-76965510D01*
X66272378Y-76870272D01*
X65891425Y-77155986D02*
X66034283Y-76965510D01*
X66177140Y-77155986D01*
X66796187Y-76727414D02*
X66796187Y-76965510D01*
X66558092Y-76870272D02*
X66796187Y-76965510D01*
X67034283Y-76870272D01*
X66653330Y-77155986D02*
X66796187Y-76965510D01*
X66939044Y-77155986D01*
X290316666Y-131502380D02*
X289983333Y-131026190D01*
X289745238Y-131502380D02*
X289745238Y-130502380D01*
X290126190Y-130502380D01*
X290221428Y-130550000D01*
X290269047Y-130597619D01*
X290316666Y-130692857D01*
X290316666Y-130835714D01*
X290269047Y-130930952D01*
X290221428Y-130978571D01*
X290126190Y-131026190D01*
X289745238Y-131026190D01*
X290745238Y-130978571D02*
X291078571Y-130978571D01*
X291221428Y-131502380D02*
X290745238Y-131502380D01*
X290745238Y-130502380D01*
X291221428Y-130502380D01*
X291983333Y-130978571D02*
X291650000Y-130978571D01*
X291650000Y-131502380D02*
X291650000Y-130502380D01*
X292126190Y-130502380D01*
X292650000Y-130502380D02*
X292650000Y-130740476D01*
X292411904Y-130645238D02*
X292650000Y-130740476D01*
X292888095Y-130645238D01*
X292507142Y-130930952D02*
X292650000Y-130740476D01*
X292792857Y-130930952D01*
X293411904Y-130502380D02*
X293411904Y-130740476D01*
X293173809Y-130645238D02*
X293411904Y-130740476D01*
X293650000Y-130645238D01*
X293269047Y-130930952D02*
X293411904Y-130740476D01*
X293554761Y-130930952D01*
X64056549Y-179124214D02*
X63723216Y-178648024D01*
X63485121Y-179124214D02*
X63485121Y-178124214D01*
X63866073Y-178124214D01*
X63961311Y-178171834D01*
X64008930Y-178219453D01*
X64056549Y-178314691D01*
X64056549Y-178457548D01*
X64008930Y-178552786D01*
X63961311Y-178600405D01*
X63866073Y-178648024D01*
X63485121Y-178648024D01*
X64485121Y-178600405D02*
X64818454Y-178600405D01*
X64961311Y-179124214D02*
X64485121Y-179124214D01*
X64485121Y-178124214D01*
X64961311Y-178124214D01*
X65723216Y-178600405D02*
X65389883Y-178600405D01*
X65389883Y-179124214D02*
X65389883Y-178124214D01*
X65866073Y-178124214D01*
X66389883Y-178124214D02*
X66389883Y-178362310D01*
X66151787Y-178267072D02*
X66389883Y-178362310D01*
X66627978Y-178267072D01*
X66247025Y-178552786D02*
X66389883Y-178362310D01*
X66532740Y-178552786D01*
X67151787Y-178124214D02*
X67151787Y-178362310D01*
X66913692Y-178267072D02*
X67151787Y-178362310D01*
X67389883Y-178267072D01*
X67008930Y-178552786D02*
X67151787Y-178362310D01*
X67294644Y-178552786D01*
X147680133Y-176616912D02*
X147346800Y-176140722D01*
X147108705Y-176616912D02*
X147108705Y-175616912D01*
X147489657Y-175616912D01*
X147584895Y-175664532D01*
X147632514Y-175712151D01*
X147680133Y-175807389D01*
X147680133Y-175950246D01*
X147632514Y-176045484D01*
X147584895Y-176093103D01*
X147489657Y-176140722D01*
X147108705Y-176140722D01*
X148108705Y-176093103D02*
X148442038Y-176093103D01*
X148584895Y-176616912D02*
X148108705Y-176616912D01*
X148108705Y-175616912D01*
X148584895Y-175616912D01*
X149346800Y-176093103D02*
X149013467Y-176093103D01*
X149013467Y-176616912D02*
X149013467Y-175616912D01*
X149489657Y-175616912D01*
X150013467Y-175616912D02*
X150013467Y-175855008D01*
X149775371Y-175759770D02*
X150013467Y-175855008D01*
X150251562Y-175759770D01*
X149870609Y-176045484D02*
X150013467Y-175855008D01*
X150156324Y-176045484D01*
X150775371Y-175616912D02*
X150775371Y-175855008D01*
X150537276Y-175759770D02*
X150775371Y-175855008D01*
X151013467Y-175759770D01*
X150632514Y-176045484D02*
X150775371Y-175855008D01*
X150918228Y-176045484D01*
X369872549Y-180140214D02*
X369539216Y-179664024D01*
X369301121Y-180140214D02*
X369301121Y-179140214D01*
X369682073Y-179140214D01*
X369777311Y-179187834D01*
X369824930Y-179235453D01*
X369872549Y-179330691D01*
X369872549Y-179473548D01*
X369824930Y-179568786D01*
X369777311Y-179616405D01*
X369682073Y-179664024D01*
X369301121Y-179664024D01*
X370301121Y-179616405D02*
X370634454Y-179616405D01*
X370777311Y-180140214D02*
X370301121Y-180140214D01*
X370301121Y-179140214D01*
X370777311Y-179140214D01*
X371539216Y-179616405D02*
X371205883Y-179616405D01*
X371205883Y-180140214D02*
X371205883Y-179140214D01*
X371682073Y-179140214D01*
X372205883Y-179140214D02*
X372205883Y-179378310D01*
X371967787Y-179283072D02*
X372205883Y-179378310D01*
X372443978Y-179283072D01*
X372063025Y-179568786D02*
X372205883Y-179378310D01*
X372348740Y-179568786D01*
X372967787Y-179140214D02*
X372967787Y-179378310D01*
X372729692Y-179283072D02*
X372967787Y-179378310D01*
X373205883Y-179283072D01*
X372824930Y-179568786D02*
X372967787Y-179378310D01*
X373110644Y-179568786D01*
D11*
X184085000Y-158877183D02*
X183960000Y-158877183D01*
X184085000Y-160267183D02*
X184085000Y-160180459D01*
X182715000Y-160267183D02*
X182715000Y-159572183D01*
X184085000Y-160267183D02*
X183960000Y-160267183D01*
X184085000Y-158963907D02*
X184085000Y-158877183D01*
X184085000Y-160267183D02*
X184085000Y-158877183D01*
X183400000Y-160267183D02*
X182715000Y-160267183D01*
X86122267Y-161495298D02*
X85997267Y-161495298D01*
X86122267Y-162885298D02*
X86122267Y-162798574D01*
X84752267Y-162885298D02*
X84752267Y-162190298D01*
X86122267Y-162885298D02*
X85997267Y-162885298D01*
X86122267Y-161582022D02*
X86122267Y-161495298D01*
X86122267Y-162885298D02*
X86122267Y-161495298D01*
X85437267Y-162885298D02*
X84752267Y-162885298D01*
X240554267Y-142866315D02*
X240429267Y-142866315D01*
X240554267Y-144256315D02*
X240554267Y-144169591D01*
X239184267Y-144256315D02*
X239184267Y-143561315D01*
X240554267Y-144256315D02*
X240429267Y-144256315D01*
X240554267Y-142953039D02*
X240554267Y-142866315D01*
X240554267Y-144256315D02*
X240554267Y-142866315D01*
X239869267Y-144256315D02*
X239184267Y-144256315D01*
X163308000Y-103269817D02*
X163183000Y-103269817D01*
X163308000Y-104659817D02*
X163308000Y-104573093D01*
X161938000Y-104659817D02*
X161938000Y-103964817D01*
X163308000Y-104659817D02*
X163183000Y-104659817D01*
X163308000Y-103356541D02*
X163308000Y-103269817D01*
X163308000Y-104659817D02*
X163308000Y-103269817D01*
X162623000Y-104659817D02*
X161938000Y-104659817D01*
X86249267Y-122074498D02*
X86124267Y-122074498D01*
X86249267Y-123464498D02*
X86249267Y-123377774D01*
X84879267Y-123464498D02*
X84879267Y-122769498D01*
X86249267Y-123464498D02*
X86124267Y-123464498D01*
X86249267Y-122161222D02*
X86249267Y-122074498D01*
X86249267Y-123464498D02*
X86249267Y-122074498D01*
X85564267Y-123464498D02*
X84879267Y-123464498D01*
X240498600Y-184295817D02*
X240373600Y-184295817D01*
X240498600Y-185685817D02*
X240498600Y-185599093D01*
X239128600Y-185685817D02*
X239128600Y-184990817D01*
X240498600Y-185685817D02*
X240373600Y-185685817D01*
X240498600Y-184382541D02*
X240498600Y-184295817D01*
X240498600Y-185685817D02*
X240498600Y-184295817D01*
X239813600Y-185685817D02*
X239128600Y-185685817D01*
X182642267Y-142866315D02*
X182517267Y-142866315D01*
X182642267Y-144256315D02*
X182642267Y-144169591D01*
X181272267Y-144256315D02*
X181272267Y-143561315D01*
X182642267Y-144256315D02*
X182517267Y-144256315D01*
X182642267Y-142953039D02*
X182642267Y-142866315D01*
X182642267Y-144256315D02*
X182642267Y-142866315D01*
X181957267Y-144256315D02*
X181272267Y-144256315D01*
X279289267Y-162003298D02*
X279164267Y-162003298D01*
X279289267Y-163393298D02*
X279289267Y-163306574D01*
X277919267Y-163393298D02*
X277919267Y-162698298D01*
X279289267Y-163393298D02*
X279164267Y-163393298D01*
X279289267Y-162090022D02*
X279289267Y-162003298D01*
X279289267Y-163393298D02*
X279289267Y-162003298D01*
X278604267Y-163393298D02*
X277919267Y-163393298D01*
X144034267Y-142521498D02*
X143909267Y-142521498D01*
X144034267Y-143911498D02*
X144034267Y-143824774D01*
X142664267Y-143911498D02*
X142664267Y-143216498D01*
X144034267Y-143911498D02*
X143909267Y-143911498D01*
X144034267Y-142608222D02*
X144034267Y-142521498D01*
X144034267Y-143911498D02*
X144034267Y-142521498D01*
X143349267Y-143911498D02*
X142664267Y-143911498D01*
X105553267Y-122201498D02*
X105428267Y-122201498D01*
X105553267Y-123591498D02*
X105553267Y-123504774D01*
X104183267Y-123591498D02*
X104183267Y-122896498D01*
X105553267Y-123591498D02*
X105428267Y-123591498D01*
X105553267Y-122288222D02*
X105553267Y-122201498D01*
X105553267Y-123591498D02*
X105553267Y-122201498D01*
X104868267Y-123591498D02*
X104183267Y-123591498D01*
X164705000Y-158805000D02*
X164580000Y-158805000D01*
X164705000Y-160195000D02*
X164705000Y-160108276D01*
X163335000Y-160195000D02*
X163335000Y-159500000D01*
X164705000Y-160195000D02*
X164580000Y-160195000D01*
X164705000Y-158891724D02*
X164705000Y-158805000D01*
X164705000Y-160195000D02*
X164705000Y-158805000D01*
X164020000Y-160195000D02*
X163335000Y-160195000D01*
X202078134Y-161801830D02*
X201953134Y-161801830D01*
X202078134Y-163191830D02*
X202078134Y-163105106D01*
X200708134Y-163191830D02*
X200708134Y-162496830D01*
X202078134Y-163191830D02*
X201953134Y-163191830D01*
X202078134Y-161888554D02*
X202078134Y-161801830D01*
X202078134Y-163191830D02*
X202078134Y-161801830D01*
X201393134Y-163191830D02*
X200708134Y-163191830D01*
X85995267Y-142394498D02*
X85870267Y-142394498D01*
X85995267Y-143784498D02*
X85995267Y-143697774D01*
X84625267Y-143784498D02*
X84625267Y-143089498D01*
X85995267Y-143784498D02*
X85870267Y-143784498D01*
X85995267Y-142481222D02*
X85995267Y-142394498D01*
X85995267Y-143784498D02*
X85995267Y-142394498D01*
X85310267Y-143784498D02*
X84625267Y-143784498D01*
X124573000Y-183697000D02*
X124448000Y-183697000D01*
X124573000Y-185087000D02*
X124573000Y-185000276D01*
X123203000Y-185087000D02*
X123203000Y-184392000D01*
X124573000Y-185087000D02*
X124448000Y-185087000D01*
X124573000Y-183783724D02*
X124573000Y-183697000D01*
X124573000Y-185087000D02*
X124573000Y-183697000D01*
X123888000Y-185087000D02*
X123203000Y-185087000D01*
X221220000Y-103179000D02*
X221095000Y-103179000D01*
X221220000Y-104569000D02*
X221220000Y-104482276D01*
X219850000Y-104569000D02*
X219850000Y-103874000D01*
X221220000Y-104569000D02*
X221095000Y-104569000D01*
X221220000Y-103265724D02*
X221220000Y-103179000D01*
X221220000Y-104569000D02*
X221220000Y-103179000D01*
X220535000Y-104569000D02*
X219850000Y-104569000D01*
X364780800Y-182844182D02*
X364655800Y-182844182D01*
X364780800Y-184234182D02*
X364780800Y-184147458D01*
X363410800Y-184234182D02*
X363410800Y-183539182D01*
X364780800Y-184234182D02*
X364655800Y-184234182D01*
X364780800Y-182930906D02*
X364780800Y-182844182D01*
X364780800Y-184234182D02*
X364780800Y-182844182D01*
X364095800Y-184234182D02*
X363410800Y-184234182D01*
X221504267Y-122328498D02*
X221379267Y-122328498D01*
X221504267Y-123718498D02*
X221504267Y-123631774D01*
X220134267Y-123718498D02*
X220134267Y-123023498D01*
X221504267Y-123718498D02*
X221379267Y-123718498D01*
X221504267Y-122415222D02*
X221504267Y-122328498D01*
X221504267Y-123718498D02*
X221504267Y-122328498D01*
X220819267Y-123718498D02*
X220134267Y-123718498D01*
X105142000Y-183824000D02*
X105017000Y-183824000D01*
X105142000Y-185214000D02*
X105142000Y-185127276D01*
X103772000Y-185214000D02*
X103772000Y-184519000D01*
X105142000Y-185214000D02*
X105017000Y-185214000D01*
X105142000Y-183910724D02*
X105142000Y-183824000D01*
X105142000Y-185214000D02*
X105142000Y-183824000D01*
X104457000Y-185214000D02*
X103772000Y-185214000D01*
X163338267Y-142739315D02*
X163213267Y-142739315D01*
X163338267Y-144129315D02*
X163338267Y-144042591D01*
X161968267Y-144129315D02*
X161968267Y-143434315D01*
X163338267Y-144129315D02*
X163213267Y-144129315D01*
X163338267Y-142826039D02*
X163338267Y-142739315D01*
X163338267Y-144129315D02*
X163338267Y-142739315D01*
X162653267Y-144129315D02*
X161968267Y-144129315D01*
X85838000Y-183697000D02*
X85713000Y-183697000D01*
X85838000Y-185087000D02*
X85838000Y-185000276D01*
X84468000Y-185087000D02*
X84468000Y-184392000D01*
X85838000Y-185087000D02*
X85713000Y-185087000D01*
X85838000Y-183783724D02*
X85838000Y-183697000D01*
X85838000Y-185087000D02*
X85838000Y-183697000D01*
X85153000Y-185087000D02*
X84468000Y-185087000D01*
X345476800Y-182844182D02*
X345351800Y-182844182D01*
X345476800Y-184234182D02*
X345476800Y-184147458D01*
X344106800Y-184234182D02*
X344106800Y-183539182D01*
X345476800Y-184234182D02*
X345351800Y-184234182D01*
X345476800Y-182930906D02*
X345476800Y-182844182D01*
X345476800Y-184234182D02*
X345476800Y-182844182D01*
X344791800Y-184234182D02*
X344106800Y-184234182D01*
X306945000Y-182935000D02*
X306820000Y-182935000D01*
X306945000Y-184325000D02*
X306945000Y-184238276D01*
X305575000Y-184325000D02*
X305575000Y-183630000D01*
X306945000Y-184325000D02*
X306820000Y-184325000D01*
X306945000Y-183021724D02*
X306945000Y-182935000D01*
X306945000Y-184325000D02*
X306945000Y-182935000D01*
X306260000Y-184325000D02*
X305575000Y-184325000D01*
X279132000Y-103433000D02*
X279007000Y-103433000D01*
X279132000Y-104823000D02*
X279132000Y-104736276D01*
X277762000Y-104823000D02*
X277762000Y-104128000D01*
X279132000Y-104823000D02*
X279007000Y-104823000D01*
X279132000Y-103519724D02*
X279132000Y-103433000D01*
X279132000Y-104823000D02*
X279132000Y-103433000D01*
X278447000Y-104823000D02*
X277762000Y-104823000D01*
X279416267Y-122582498D02*
X279291267Y-122582498D01*
X279416267Y-123972498D02*
X279416267Y-123885774D01*
X278046267Y-123972498D02*
X278046267Y-123277498D01*
X279416267Y-123972498D02*
X279291267Y-123972498D01*
X279416267Y-122669222D02*
X279416267Y-122582498D01*
X279416267Y-123972498D02*
X279416267Y-122582498D01*
X278731267Y-123972498D02*
X278046267Y-123972498D01*
X221250267Y-142648498D02*
X221125267Y-142648498D01*
X221250267Y-144038498D02*
X221250267Y-143951774D01*
X219880267Y-144038498D02*
X219880267Y-143343498D01*
X221250267Y-144038498D02*
X221125267Y-144038498D01*
X221250267Y-142735222D02*
X221250267Y-142648498D01*
X221250267Y-144038498D02*
X221250267Y-142648498D01*
X220565267Y-144038498D02*
X219880267Y-144038498D01*
X124857267Y-161495298D02*
X124732267Y-161495298D01*
X124857267Y-162885298D02*
X124857267Y-162798574D01*
X123487267Y-162885298D02*
X123487267Y-162190298D01*
X124857267Y-162885298D02*
X124732267Y-162885298D01*
X124857267Y-161582022D02*
X124857267Y-161495298D01*
X124857267Y-162885298D02*
X124857267Y-161495298D01*
X124172267Y-162885298D02*
X123487267Y-162885298D01*
X124700000Y-102925000D02*
X124575000Y-102925000D01*
X124700000Y-104315000D02*
X124700000Y-104228276D01*
X123330000Y-104315000D02*
X123330000Y-103620000D01*
X124700000Y-104315000D02*
X124575000Y-104315000D01*
X124700000Y-103011724D02*
X124700000Y-102925000D01*
X124700000Y-104315000D02*
X124700000Y-102925000D01*
X124015000Y-104315000D02*
X123330000Y-104315000D01*
X240808267Y-122546315D02*
X240683267Y-122546315D01*
X240808267Y-123936315D02*
X240808267Y-123849591D01*
X239438267Y-123936315D02*
X239438267Y-123241315D01*
X240808267Y-123936315D02*
X240683267Y-123936315D01*
X240808267Y-122633039D02*
X240808267Y-122546315D01*
X240808267Y-123936315D02*
X240808267Y-122546315D01*
X240123267Y-123936315D02*
X239438267Y-123936315D01*
X326172801Y-182934999D02*
X326047801Y-182934999D01*
X326172801Y-184324999D02*
X326172801Y-184238275D01*
X324802801Y-184324999D02*
X324802801Y-183629999D01*
X326172801Y-184324999D02*
X326047801Y-184324999D01*
X326172801Y-183021723D02*
X326172801Y-182934999D01*
X326172801Y-184324999D02*
X326172801Y-182934999D01*
X325487801Y-184324999D02*
X324802801Y-184324999D01*
X144288267Y-122201498D02*
X144163267Y-122201498D01*
X144288267Y-123591498D02*
X144288267Y-123504774D01*
X142918267Y-123591498D02*
X142918267Y-122896498D01*
X144288267Y-123591498D02*
X144163267Y-123591498D01*
X144288267Y-122288222D02*
X144288267Y-122201498D01*
X144288267Y-123591498D02*
X144288267Y-122201498D01*
X143603267Y-123591498D02*
X142918267Y-123591498D01*
X259828000Y-103523817D02*
X259703000Y-103523817D01*
X259828000Y-104913817D02*
X259828000Y-104827093D01*
X258458000Y-104913817D02*
X258458000Y-104218817D01*
X259828000Y-104913817D02*
X259703000Y-104913817D01*
X259828000Y-103610541D02*
X259828000Y-103523817D01*
X259828000Y-104913817D02*
X259828000Y-103523817D01*
X259143000Y-104913817D02*
X258458000Y-104913817D01*
X144004000Y-103052000D02*
X143879000Y-103052000D01*
X144004000Y-104442000D02*
X144004000Y-104355276D01*
X142634000Y-104442000D02*
X142634000Y-103747000D01*
X144004000Y-104442000D02*
X143879000Y-104442000D01*
X144004000Y-103138724D02*
X144004000Y-103052000D01*
X144004000Y-104442000D02*
X144004000Y-103052000D01*
X143319000Y-104442000D02*
X142634000Y-104442000D01*
X240524000Y-103396817D02*
X240399000Y-103396817D01*
X240524000Y-104786817D02*
X240524000Y-104700093D01*
X239154000Y-104786817D02*
X239154000Y-104091817D01*
X240524000Y-104786817D02*
X240399000Y-104786817D01*
X240524000Y-103483541D02*
X240524000Y-103396817D01*
X240524000Y-104786817D02*
X240524000Y-103396817D01*
X239839000Y-104786817D02*
X239154000Y-104786817D01*
X105299267Y-142521498D02*
X105174267Y-142521498D01*
X105299267Y-143911498D02*
X105299267Y-143824774D01*
X103929267Y-143911498D02*
X103929267Y-143216498D01*
X105299267Y-143911498D02*
X105174267Y-143911498D01*
X105299267Y-142608222D02*
X105299267Y-142521498D01*
X105299267Y-143911498D02*
X105299267Y-142521498D01*
X104614267Y-143911498D02*
X103929267Y-143911498D01*
X259985267Y-162094115D02*
X259860267Y-162094115D01*
X259985267Y-163484115D02*
X259985267Y-163397391D01*
X258615267Y-163484115D02*
X258615267Y-162789115D01*
X259985267Y-163484115D02*
X259860267Y-163484115D01*
X259985267Y-162180839D02*
X259985267Y-162094115D01*
X259985267Y-163484115D02*
X259985267Y-162094115D01*
X259300267Y-163484115D02*
X258615267Y-163484115D01*
X105269000Y-103052000D02*
X105144000Y-103052000D01*
X105269000Y-104442000D02*
X105269000Y-104355276D01*
X103899000Y-104442000D02*
X103899000Y-103747000D01*
X105269000Y-104442000D02*
X105144000Y-104442000D01*
X105269000Y-103138724D02*
X105269000Y-103052000D01*
X105269000Y-104442000D02*
X105269000Y-103052000D01*
X104584000Y-104442000D02*
X103899000Y-104442000D01*
X201916000Y-103052000D02*
X201791000Y-103052000D01*
X201916000Y-104442000D02*
X201916000Y-104355276D01*
X200546000Y-104442000D02*
X200546000Y-103747000D01*
X201916000Y-104442000D02*
X201791000Y-104442000D01*
X201916000Y-103138724D02*
X201916000Y-103052000D01*
X201916000Y-104442000D02*
X201916000Y-103052000D01*
X201231000Y-104442000D02*
X200546000Y-104442000D01*
X182896267Y-122546315D02*
X182771267Y-122546315D01*
X182896267Y-123936315D02*
X182896267Y-123849591D01*
X181526267Y-123936315D02*
X181526267Y-123241315D01*
X182896267Y-123936315D02*
X182771267Y-123936315D01*
X182896267Y-122633039D02*
X182896267Y-122546315D01*
X182896267Y-123936315D02*
X182896267Y-122546315D01*
X182211267Y-123936315D02*
X181526267Y-123936315D01*
X279162267Y-142902498D02*
X279037267Y-142902498D01*
X279162267Y-144292498D02*
X279162267Y-144205774D01*
X277792267Y-144292498D02*
X277792267Y-143597498D01*
X279162267Y-144292498D02*
X279037267Y-144292498D01*
X279162267Y-142989222D02*
X279162267Y-142902498D01*
X279162267Y-144292498D02*
X279162267Y-142902498D01*
X278477267Y-144292498D02*
X277792267Y-144292498D01*
X202200267Y-122201498D02*
X202075267Y-122201498D01*
X202200267Y-123591498D02*
X202200267Y-123504774D01*
X200830267Y-123591498D02*
X200830267Y-122896498D01*
X202200267Y-123591498D02*
X202075267Y-123591498D01*
X202200267Y-122288222D02*
X202200267Y-122201498D01*
X202200267Y-123591498D02*
X202200267Y-122201498D01*
X201515267Y-123591498D02*
X200830267Y-123591498D01*
X240813134Y-161801830D02*
X240688134Y-161801830D01*
X240813134Y-163191830D02*
X240813134Y-163105106D01*
X239443134Y-163191830D02*
X239443134Y-162496830D01*
X240813134Y-163191830D02*
X240688134Y-163191830D01*
X240813134Y-161888554D02*
X240813134Y-161801830D01*
X240813134Y-163191830D02*
X240813134Y-161801830D01*
X240128134Y-163191830D02*
X239443134Y-163191830D01*
X124730267Y-142394498D02*
X124605267Y-142394498D01*
X124730267Y-143784498D02*
X124730267Y-143697774D01*
X123360267Y-143784498D02*
X123360267Y-143089498D01*
X124730267Y-143784498D02*
X124605267Y-143784498D01*
X124730267Y-142481222D02*
X124730267Y-142394498D01*
X124730267Y-143784498D02*
X124730267Y-142394498D01*
X124045267Y-143784498D02*
X123360267Y-143784498D01*
X144161267Y-161622298D02*
X144036267Y-161622298D01*
X144161267Y-163012298D02*
X144161267Y-162925574D01*
X142791267Y-163012298D02*
X142791267Y-162317298D01*
X144161267Y-163012298D02*
X144036267Y-163012298D01*
X144161267Y-161709022D02*
X144161267Y-161622298D01*
X144161267Y-163012298D02*
X144161267Y-161622298D01*
X143476267Y-163012298D02*
X142791267Y-163012298D01*
X124984267Y-122074498D02*
X124859267Y-122074498D01*
X124984267Y-123464498D02*
X124984267Y-123377774D01*
X123614267Y-123464498D02*
X123614267Y-122769498D01*
X124984267Y-123464498D02*
X124859267Y-123464498D01*
X124984267Y-122161222D02*
X124984267Y-122074498D01*
X124984267Y-123464498D02*
X124984267Y-122074498D01*
X124299267Y-123464498D02*
X123614267Y-123464498D01*
X182612000Y-103396817D02*
X182487000Y-103396817D01*
X182612000Y-104786817D02*
X182612000Y-104700093D01*
X181242000Y-104786817D02*
X181242000Y-104091817D01*
X182612000Y-104786817D02*
X182487000Y-104786817D01*
X182612000Y-103483541D02*
X182612000Y-103396817D01*
X182612000Y-104786817D02*
X182612000Y-103396817D01*
X181927000Y-104786817D02*
X181242000Y-104786817D01*
X279005000Y-184205000D02*
X278880000Y-184205000D01*
X279005000Y-185595000D02*
X279005000Y-185508276D01*
X277635000Y-185595000D02*
X277635000Y-184900000D01*
X279005000Y-185595000D02*
X278880000Y-185595000D01*
X279005000Y-184291724D02*
X279005000Y-184205000D01*
X279005000Y-185595000D02*
X279005000Y-184205000D01*
X278320000Y-185595000D02*
X277635000Y-185595000D01*
X221509134Y-161674830D02*
X221384134Y-161674830D01*
X221509134Y-163064830D02*
X221509134Y-162978106D01*
X220139134Y-163064830D02*
X220139134Y-162369830D01*
X221509134Y-163064830D02*
X221384134Y-163064830D01*
X221509134Y-161761554D02*
X221509134Y-161674830D01*
X221509134Y-163064830D02*
X221509134Y-161674830D01*
X220824134Y-163064830D02*
X220139134Y-163064830D01*
X201585000Y-142627183D02*
X201460000Y-142627183D01*
X201585000Y-144017183D02*
X201585000Y-143930459D01*
X200215000Y-144017183D02*
X200215000Y-143322183D01*
X201585000Y-144017183D02*
X201460000Y-144017183D01*
X201585000Y-142713907D02*
X201585000Y-142627183D01*
X201585000Y-144017183D02*
X201585000Y-142627183D01*
X200900000Y-144017183D02*
X200215000Y-144017183D01*
X259701000Y-184295817D02*
X259576000Y-184295817D01*
X259701000Y-185685817D02*
X259701000Y-185599093D01*
X258331000Y-185685817D02*
X258331000Y-184990817D01*
X259701000Y-185685817D02*
X259576000Y-185685817D01*
X259701000Y-184382541D02*
X259701000Y-184295817D01*
X259701000Y-185685817D02*
X259701000Y-184295817D01*
X259016000Y-185685817D02*
X258331000Y-185685817D01*
X260112267Y-122673315D02*
X259987267Y-122673315D01*
X260112267Y-124063315D02*
X260112267Y-123976591D01*
X258742267Y-124063315D02*
X258742267Y-123368315D01*
X260112267Y-124063315D02*
X259987267Y-124063315D01*
X260112267Y-122760039D02*
X260112267Y-122673315D01*
X260112267Y-124063315D02*
X260112267Y-122673315D01*
X259427267Y-124063315D02*
X258742267Y-124063315D01*
X105426267Y-161622298D02*
X105301267Y-161622298D01*
X105426267Y-163012298D02*
X105426267Y-162925574D01*
X104056267Y-163012298D02*
X104056267Y-162317298D01*
X105426267Y-163012298D02*
X105301267Y-163012298D01*
X105426267Y-161709022D02*
X105426267Y-161622298D01*
X105426267Y-163012298D02*
X105426267Y-161622298D01*
X104741267Y-163012298D02*
X104056267Y-163012298D01*
X163592267Y-122419315D02*
X163467267Y-122419315D01*
X163592267Y-123809315D02*
X163592267Y-123722591D01*
X162222267Y-123809315D02*
X162222267Y-123114315D01*
X163592267Y-123809315D02*
X163467267Y-123809315D01*
X163592267Y-122506039D02*
X163592267Y-122419315D01*
X163592267Y-123809315D02*
X163592267Y-122419315D01*
X162907267Y-123809315D02*
X162222267Y-123809315D01*
X259858267Y-142993315D02*
X259733267Y-142993315D01*
X259858267Y-144383315D02*
X259858267Y-144296591D01*
X258488267Y-144383315D02*
X258488267Y-143688315D01*
X259858267Y-144383315D02*
X259733267Y-144383315D01*
X259858267Y-143080039D02*
X259858267Y-142993315D01*
X259858267Y-144383315D02*
X259858267Y-142993315D01*
X259173267Y-144383315D02*
X258488267Y-144383315D01*
X181265800Y-184334102D02*
X181140800Y-184334102D01*
X181265800Y-185724102D02*
X181265800Y-185637378D01*
X179895800Y-185724102D02*
X179895800Y-185029102D01*
X181265800Y-185724102D02*
X181140800Y-185724102D01*
X181265800Y-184420826D02*
X181265800Y-184334102D01*
X181265800Y-185724102D02*
X181265800Y-184334102D01*
X180580800Y-185724102D02*
X179895800Y-185724102D01*
X85965000Y-102925000D02*
X85840000Y-102925000D01*
X85965000Y-104315000D02*
X85965000Y-104228276D01*
X84595000Y-104315000D02*
X84595000Y-103620000D01*
X85965000Y-104315000D02*
X85840000Y-104315000D01*
X85965000Y-103011724D02*
X85965000Y-102925000D01*
X85965000Y-104315000D02*
X85965000Y-102925000D01*
X85280000Y-104315000D02*
X84595000Y-104315000D01*
M02*
