G04 #@! TF.GenerationSoftware,KiCad,Pcbnew,7.0.1*
G04 #@! TF.CreationDate,2023-04-16T01:42:19-07:00*
G04 #@! TF.ProjectId,switch plate,73776974-6368-4207-906c-6174652e6b69,rev?*
G04 #@! TF.SameCoordinates,Original*
G04 #@! TF.FileFunction,Profile,NP*
%FSLAX46Y46*%
G04 Gerber Fmt 4.6, Leading zero omitted, Abs format (unit mm)*
G04 Created by KiCad (PCBNEW 7.0.1) date 2023-04-16 01:42:19*
%MOMM*%
%LPD*%
G01*
G04 APERTURE LIST*
G04 #@! TA.AperFunction,Profile*
%ADD10C,0.188976*%
G04 #@! TD*
G04 APERTURE END LIST*
D10*
X280435003Y-156488000D02*
X280435003Y-142488003D01*
X266435003Y-199349996D02*
X280435003Y-199349996D01*
X152991005Y-228149999D02*
X152991005Y-224919996D01*
X419677999Y-218169996D02*
X419677999Y-211899999D01*
X278052999Y-251799993D02*
X317677999Y-251799993D01*
X419677999Y-205869993D02*
X417952993Y-205869993D01*
X158991005Y-242499997D02*
X144991005Y-242499997D01*
X380447012Y-156488000D02*
X380447012Y-142488003D01*
X166422004Y-156488000D02*
X180422006Y-156488000D01*
X447121999Y-180300000D02*
X447121999Y-166300000D01*
X412927999Y-213699994D02*
X412927999Y-218169996D01*
X242335004Y-199349996D02*
X242335004Y-185350000D01*
X323585012Y-185350000D02*
X323585012Y-199349996D01*
X390685003Y-170999997D02*
X390685003Y-173800000D01*
X389128011Y-205869993D02*
X389128011Y-209099996D01*
X158991005Y-256499997D02*
X158991005Y-242499997D01*
X166422004Y-142488003D02*
X166422004Y-156488000D01*
X170041006Y-228149999D02*
X168516004Y-228149999D01*
X411403005Y-218399999D02*
X411403005Y-213699994D01*
X171766004Y-224919996D02*
X170041006Y-224919996D01*
X397403005Y-218399999D02*
X411403005Y-218399999D01*
X280435003Y-185350000D02*
X266435003Y-185350000D01*
X149753005Y-218399999D02*
X163753006Y-218399999D01*
X414653005Y-219149999D02*
X417952993Y-219149999D01*
X371210012Y-166300000D02*
X371210012Y-180300000D01*
X366447012Y-142488003D02*
X366447012Y-156488000D01*
X289960012Y-180300000D02*
X289960012Y-166300000D01*
X142610005Y-156488000D02*
X156610004Y-156488000D01*
X156610004Y-180300000D02*
X156610004Y-166300000D01*
X271197012Y-204399999D02*
X271197012Y-218399999D01*
X275672002Y-237449994D02*
X275672002Y-223449994D01*
X161660005Y-180300000D02*
X175660005Y-180300000D01*
X219403005Y-243049993D02*
X219403005Y-243969999D01*
X333110006Y-166300000D02*
X333110006Y-180300000D01*
X285485006Y-185350000D02*
X285485006Y-199349996D01*
X417034994Y-180070001D02*
X417034994Y-181050000D01*
X154516004Y-228149999D02*
X152991005Y-228149999D01*
X309010000Y-166300000D02*
X295010000Y-166300000D01*
X323297002Y-218399999D02*
X323297002Y-204399999D01*
X322703008Y-257249997D02*
X322703008Y-256269994D01*
X163753006Y-218399999D02*
X163753006Y-204399999D01*
X223572004Y-156488000D02*
X237572004Y-156488000D01*
X264052007Y-242499997D02*
X264052007Y-247199994D01*
X280435003Y-199349996D02*
X280435003Y-185350000D01*
X163753006Y-204399999D02*
X149753005Y-204399999D01*
X204522009Y-142488003D02*
X204522009Y-156488000D01*
X328347005Y-142488003D02*
X328347005Y-156488000D01*
X422060018Y-167769998D02*
X420335012Y-167769998D01*
X216853002Y-247199994D02*
X216853002Y-249999997D01*
X342635000Y-185350000D02*
X342635000Y-199349996D01*
X383116003Y-223449994D02*
X383116003Y-237449994D01*
X447121999Y-218399999D02*
X447121999Y-204399999D01*
X447121999Y-142488003D02*
X433121999Y-142488003D01*
X380447012Y-142488003D02*
X366447012Y-142488003D01*
X333110006Y-256499997D02*
X347110006Y-256499997D01*
X380447012Y-218399999D02*
X380447012Y-204399999D01*
X209285001Y-185350000D02*
X209285001Y-199349996D01*
X347397009Y-204399999D02*
X347397009Y-218399999D01*
X318535009Y-142488003D02*
X304535009Y-142488003D01*
X393233999Y-181050000D02*
X396534994Y-181050000D01*
X393233999Y-167769998D02*
X391510000Y-167769998D01*
X396534994Y-181050000D02*
X396534994Y-180070001D01*
X366160009Y-256499997D02*
X366160009Y-242499997D01*
X417952993Y-218169996D02*
X419677999Y-218169996D01*
X294722005Y-223449994D02*
X280722005Y-223449994D01*
X318535009Y-199349996D02*
X318535009Y-185350000D01*
X151266004Y-224919996D02*
X151266004Y-223999997D01*
X397116018Y-237449994D02*
X397116018Y-223449994D01*
X347397009Y-156488000D02*
X361397009Y-156488000D01*
X361397009Y-142488003D02*
X347397009Y-142488003D01*
X182803007Y-256499997D02*
X182803007Y-242499997D01*
X192616006Y-256499997D02*
X206616003Y-256499997D01*
X270910009Y-180300000D02*
X270910009Y-166300000D01*
X180710004Y-180300000D02*
X194710004Y-180300000D01*
X422060018Y-170999997D02*
X422060018Y-167769998D01*
X419677999Y-211899999D02*
X420503011Y-211899999D01*
X328347005Y-156488000D02*
X342347005Y-156488000D01*
X404547018Y-199349996D02*
X418547018Y-199349996D01*
X242622007Y-237449994D02*
X256622007Y-237449994D01*
X433121999Y-247262998D02*
X433121999Y-261262998D01*
X299772009Y-237449994D02*
X313772009Y-237449994D01*
X396534994Y-167769998D02*
X396534994Y-166850002D01*
X388302999Y-211899999D02*
X389128011Y-211899999D01*
X233097005Y-204399999D02*
X233097005Y-218399999D01*
X418547018Y-185350000D02*
X404547018Y-185350000D01*
X411403005Y-204399999D02*
X397403005Y-204399999D01*
X217678007Y-247199994D02*
X216853002Y-247199994D01*
X412927999Y-218169996D02*
X414653005Y-218169996D01*
X285197012Y-218399999D02*
X285197012Y-204399999D01*
X168516004Y-237449994D02*
X168516004Y-232749997D01*
X199472005Y-223449994D02*
X185472005Y-223449994D01*
X168516004Y-223449994D02*
X154516004Y-223449994D01*
X447121999Y-166300000D02*
X433121999Y-166300000D01*
X189947004Y-218399999D02*
X189947004Y-204399999D01*
X324427999Y-249999997D02*
X325253011Y-249999997D01*
X396534994Y-180070001D02*
X398260000Y-180070001D01*
X266147009Y-204399999D02*
X252147009Y-204399999D01*
X337871999Y-223449994D02*
X337871999Y-237449994D01*
X192616006Y-242499997D02*
X192616006Y-256499997D01*
X422885000Y-173800000D02*
X422885000Y-170999997D01*
X216853002Y-249999997D02*
X217678007Y-249999997D01*
X232810003Y-180300000D02*
X232810003Y-166300000D01*
X176791006Y-224919996D02*
X175066003Y-224919996D01*
X314060003Y-180300000D02*
X328060003Y-180300000D01*
X394151998Y-204949994D02*
X390853002Y-204949994D01*
X433121999Y-199349996D02*
X447121999Y-199349996D01*
X324427999Y-247199994D02*
X324427999Y-243969999D01*
X145416005Y-228149999D02*
X145416005Y-230949994D01*
X223285001Y-199349996D02*
X223285001Y-185350000D01*
X420503011Y-211899999D02*
X420503011Y-209099996D01*
X395021993Y-247262998D02*
X395021993Y-261262998D01*
X422060018Y-180070001D02*
X422060018Y-173800000D01*
X328060003Y-166300000D02*
X314060003Y-166300000D01*
X251859007Y-180300000D02*
X251859007Y-166300000D01*
X152991005Y-232749997D02*
X154516004Y-232749997D01*
X313772009Y-223449994D02*
X299772009Y-223449994D01*
X322703008Y-256269994D02*
X324427999Y-256269994D01*
X422885000Y-170999997D02*
X422060018Y-170999997D01*
X393233999Y-180070001D02*
X393233999Y-181050000D01*
X318822012Y-237449994D02*
X332822012Y-237449994D01*
X417034994Y-181050000D02*
X420335012Y-181050000D01*
X428072012Y-228212995D02*
X414072012Y-228212995D01*
X199760008Y-166300000D02*
X199760008Y-180300000D01*
X347397009Y-142488003D02*
X347397009Y-156488000D01*
X224428007Y-243969999D02*
X222703008Y-243969999D01*
X261672002Y-237449994D02*
X275672002Y-237449994D01*
X413784994Y-166300000D02*
X399784994Y-166300000D01*
X415310018Y-175600000D02*
X415310018Y-180070001D01*
X146241005Y-230949994D02*
X146241005Y-237219999D01*
X411403005Y-209099996D02*
X411403005Y-204399999D01*
X396534994Y-166850002D02*
X393233999Y-166850002D01*
X247097005Y-204399999D02*
X233097005Y-204399999D01*
X185472005Y-237449994D02*
X199472005Y-237449994D01*
X171766004Y-223999997D02*
X171766004Y-224919996D01*
X433121999Y-204399999D02*
X433121999Y-218399999D01*
X261385008Y-142488003D02*
X247385008Y-142488003D01*
X175660005Y-180300000D02*
X175660005Y-166300000D01*
X304535009Y-199349996D02*
X318535009Y-199349996D01*
X411403005Y-213699994D02*
X412927999Y-213699994D01*
X171766004Y-237219999D02*
X171766004Y-238199994D01*
X317677999Y-251799993D02*
X317677999Y-256269994D01*
X185472005Y-223449994D02*
X185472005Y-237449994D01*
X322703008Y-243049993D02*
X319403005Y-243049993D01*
X323297002Y-204399999D02*
X309297002Y-204399999D01*
X147966005Y-238199994D02*
X151266004Y-238199994D01*
X152991005Y-237219999D02*
X152991005Y-232749997D01*
X142610005Y-166300000D02*
X142610005Y-180300000D01*
X390853002Y-219149999D02*
X394151998Y-219149999D01*
X171185007Y-185350000D02*
X171185007Y-199349996D01*
X394733999Y-199349996D02*
X394733999Y-185350000D01*
X423310018Y-156488000D02*
X423310018Y-142488003D01*
X447121999Y-185350000D02*
X433121999Y-185350000D01*
X333110006Y-180300000D02*
X347110006Y-180300000D01*
X380735006Y-185350000D02*
X380735006Y-199349996D01*
X199472005Y-237449994D02*
X199472005Y-223449994D01*
X325253011Y-247199994D02*
X324427999Y-247199994D01*
X304246999Y-204399999D02*
X290246999Y-204399999D01*
X278052999Y-256499997D02*
X278052999Y-251799993D01*
X449648000Y-140963002D02*
X449648000Y-262788984D01*
X433121999Y-261262998D02*
X447121999Y-261262998D01*
X154516004Y-232749997D02*
X154516004Y-237449994D01*
X299485006Y-156488000D02*
X299485006Y-142488003D01*
X213760008Y-180300000D02*
X213760008Y-166300000D01*
X304246999Y-218399999D02*
X304246999Y-204399999D01*
X194997003Y-204399999D02*
X194997003Y-218399999D01*
X356635000Y-199349996D02*
X356635000Y-185350000D01*
X151266004Y-223999997D02*
X147966005Y-223999997D01*
X428072012Y-261262998D02*
X428072012Y-247262998D01*
X285485006Y-142488003D02*
X285485006Y-156488000D01*
X280722005Y-237449994D02*
X294722005Y-237449994D01*
X413784994Y-180300000D02*
X413784994Y-175600000D01*
X218522009Y-142488003D02*
X204522009Y-142488003D01*
X224428007Y-256269994D02*
X224428007Y-251799993D01*
X261385008Y-199349996D02*
X261385008Y-185350000D01*
X149753005Y-204399999D02*
X149753005Y-218399999D01*
X380447012Y-204399999D02*
X366447012Y-204399999D01*
X414072012Y-242212995D02*
X428072012Y-242212995D01*
X275960012Y-180300000D02*
X289960012Y-180300000D01*
X395878011Y-218169996D02*
X395878011Y-213699994D01*
X141085005Y-139963002D02*
X448648000Y-139963002D01*
X199472005Y-142488003D02*
X185472005Y-142488003D01*
X228047002Y-218399999D02*
X228047002Y-204399999D01*
X333110006Y-242499997D02*
X333110006Y-256499997D01*
X352160009Y-166300000D02*
X352160009Y-180300000D01*
X304535009Y-142488003D02*
X304535009Y-156488000D01*
X356635000Y-185350000D02*
X342635000Y-185350000D01*
X147966005Y-237219999D02*
X147966005Y-238199994D01*
X223285001Y-185350000D02*
X209285001Y-185350000D01*
X447121999Y-199349996D02*
X447121999Y-185350000D01*
X397403005Y-209099996D02*
X395878011Y-209099996D01*
X324427999Y-243969999D02*
X322703008Y-243969999D01*
X337871999Y-237449994D02*
X351871999Y-237449994D01*
X409310018Y-142488003D02*
X409310018Y-156488000D01*
X332822012Y-223449994D02*
X318822012Y-223449994D01*
X237572004Y-142488003D02*
X223572004Y-142488003D01*
X289960012Y-166300000D02*
X275960012Y-166300000D01*
X222703008Y-243049993D02*
X219403005Y-243049993D01*
X285485006Y-156488000D02*
X299485006Y-156488000D01*
X420335012Y-167769998D02*
X420335012Y-166850002D01*
X206616003Y-242499997D02*
X192616006Y-242499997D01*
X420335012Y-180070001D02*
X422060018Y-180070001D01*
X266435003Y-185350000D02*
X266435003Y-199349996D01*
X304535009Y-156488000D02*
X318535009Y-156488000D01*
X389128011Y-209099996D02*
X388302999Y-209099996D01*
X361685003Y-185350000D02*
X361685003Y-199349996D01*
X256622007Y-223449994D02*
X242622007Y-223449994D01*
X140085016Y-262788984D02*
G75*
G03*
X141085005Y-263788984I999984J-16D01*
G01*
X399496999Y-156488000D02*
X399496999Y-142488003D01*
X397403005Y-213699994D02*
X397403005Y-218399999D01*
X247385008Y-199349996D02*
X261385008Y-199349996D01*
X233097005Y-218399999D02*
X247097005Y-218399999D01*
X185185007Y-199349996D02*
X185185007Y-185350000D01*
X180422006Y-156488000D02*
X180422006Y-142488003D01*
X218522009Y-237449994D02*
X218522009Y-223449994D01*
X180422006Y-142488003D02*
X166422004Y-142488003D01*
X385210012Y-166300000D02*
X371210012Y-166300000D01*
X414072012Y-228212995D02*
X414072012Y-242212995D01*
X447121999Y-247262998D02*
X433121999Y-247262998D01*
X356922002Y-223449994D02*
X356922002Y-237449994D01*
X414072012Y-261262998D02*
X428072012Y-261262998D01*
X224428007Y-251799993D02*
X264052007Y-251799993D01*
X204235006Y-185350000D02*
X190235006Y-185350000D01*
X375685003Y-199349996D02*
X375685003Y-185350000D01*
X366447012Y-204399999D02*
X366447012Y-218399999D01*
X319403005Y-243049993D02*
X319403005Y-243969999D01*
X247097005Y-218399999D02*
X247097005Y-204399999D01*
X324427999Y-256269994D02*
X324427999Y-249999997D01*
X342347005Y-156488000D02*
X342347005Y-142488003D01*
X261672002Y-223449994D02*
X261672002Y-237449994D01*
X177616006Y-228149999D02*
X176791006Y-228149999D01*
X356922002Y-237449994D02*
X370922002Y-237449994D01*
X319403005Y-243969999D02*
X317677999Y-243969999D01*
X144991005Y-256499997D02*
X158991005Y-256499997D01*
X414653005Y-204949994D02*
X414653005Y-205869993D01*
X218522009Y-223449994D02*
X204522009Y-223449994D01*
X151266004Y-237219999D02*
X152991005Y-237219999D01*
X161660005Y-166300000D02*
X161660005Y-180300000D01*
X154516004Y-223449994D02*
X154516004Y-228149999D01*
X414072012Y-247262998D02*
X414072012Y-261262998D01*
X190235006Y-185350000D02*
X190235006Y-199349996D01*
X394733999Y-185350000D02*
X380735006Y-185350000D01*
X325253011Y-249999997D02*
X325253011Y-247199994D01*
X409310018Y-156488000D02*
X423310018Y-156488000D01*
X232810003Y-166300000D02*
X218810003Y-166300000D01*
X142610005Y-180300000D02*
X156610004Y-180300000D01*
X264052007Y-256499997D02*
X278052999Y-256499997D01*
X380735006Y-199349996D02*
X394733999Y-199349996D01*
X391510000Y-167769998D02*
X391510000Y-170999997D01*
X219403005Y-257249997D02*
X222703008Y-257249997D01*
X280435003Y-142488003D02*
X266435003Y-142488003D01*
X433121999Y-142488003D02*
X433121999Y-156488000D01*
X228335004Y-185350000D02*
X228335004Y-199349996D01*
X390853002Y-204949994D02*
X390853002Y-205869993D01*
X423310018Y-142488003D02*
X409310018Y-142488003D01*
X295010000Y-166300000D02*
X295010000Y-180300000D01*
X347110006Y-166300000D02*
X333110006Y-166300000D01*
X447121999Y-261262998D02*
X447121999Y-247262998D01*
X351871999Y-223449994D02*
X337871999Y-223449994D01*
X237572004Y-156488000D02*
X237572004Y-142488003D01*
X170041006Y-224919996D02*
X170041006Y-228149999D01*
X420335012Y-166850002D02*
X417034994Y-166850002D01*
X170041006Y-237219999D02*
X171766004Y-237219999D01*
X175066003Y-224919996D02*
X175066003Y-223999997D01*
X366160009Y-180300000D02*
X366160009Y-166300000D01*
X204522009Y-237449994D02*
X218522009Y-237449994D01*
X347110006Y-180300000D02*
X347110006Y-166300000D01*
X161372005Y-185350000D02*
X147372005Y-185350000D01*
X218522009Y-156488000D02*
X218522009Y-142488003D01*
X146241005Y-228149999D02*
X145416005Y-228149999D01*
X228047002Y-204399999D02*
X214047002Y-204399999D01*
X256622007Y-237449994D02*
X256622007Y-223449994D01*
X223572004Y-142488003D02*
X223572004Y-156488000D01*
X399784994Y-166300000D02*
X399784994Y-170999997D01*
X415310018Y-180070001D02*
X417034994Y-180070001D01*
X389128011Y-218169996D02*
X390853002Y-218169996D01*
X185472005Y-142488003D02*
X185472005Y-156488000D01*
X399496999Y-142488003D02*
X385496999Y-142488003D01*
X404547018Y-185350000D02*
X404547018Y-199349996D01*
X395878011Y-209099996D02*
X395878011Y-205869993D01*
X385496999Y-156488000D02*
X399496999Y-156488000D01*
X370922002Y-223449994D02*
X356922002Y-223449994D01*
X309297002Y-218399999D02*
X323297002Y-218399999D01*
X175066003Y-223999997D02*
X171766004Y-223999997D01*
X141085005Y-139963005D02*
G75*
G03*
X140085005Y-140963002I-5J-999995D01*
G01*
X264052007Y-247199994D02*
X224428007Y-247199994D01*
X194997003Y-218399999D02*
X208997007Y-218399999D01*
X147966005Y-223999997D02*
X147966005Y-224919996D01*
X261385008Y-156488000D02*
X261385008Y-142488003D01*
X270910009Y-166300000D02*
X256909002Y-166300000D01*
X147372005Y-185350000D02*
X147372005Y-199349996D01*
X347397009Y-218399999D02*
X361397009Y-218399999D01*
X398260000Y-167769998D02*
X396534994Y-167769998D01*
X385210012Y-180300000D02*
X385210012Y-166300000D01*
X278052999Y-242499997D02*
X264052007Y-242499997D01*
X206616003Y-256499997D02*
X206616003Y-242499997D01*
X313772009Y-237449994D02*
X313772009Y-223449994D01*
X366447012Y-156488000D02*
X380447012Y-156488000D01*
X213760008Y-166300000D02*
X199760008Y-166300000D01*
X366160009Y-166300000D02*
X352160009Y-166300000D01*
X161372005Y-199349996D02*
X161372005Y-185350000D01*
X347110006Y-256499997D02*
X347110006Y-242499997D01*
X419677999Y-209099996D02*
X419677999Y-205869993D01*
X415310018Y-167769998D02*
X415310018Y-170999997D01*
X347110006Y-242499997D02*
X333110006Y-242499997D01*
X176791006Y-230949994D02*
X177616006Y-230949994D01*
X397403005Y-204399999D02*
X397403005Y-209099996D01*
X428072012Y-247262998D02*
X414072012Y-247262998D01*
X398260000Y-175600000D02*
X399784994Y-175600000D01*
X285197012Y-204399999D02*
X271197012Y-204399999D01*
X447121999Y-156488000D02*
X447121999Y-142488003D01*
X299485006Y-185350000D02*
X285485006Y-185350000D01*
X322703008Y-243969999D02*
X322703008Y-243049993D01*
X332822012Y-237449994D02*
X332822012Y-223449994D01*
X328347005Y-218399999D02*
X342347005Y-218399999D01*
X168803007Y-256499997D02*
X182803007Y-256499997D01*
X370922002Y-237449994D02*
X370922002Y-223449994D01*
X361397009Y-156488000D02*
X361397009Y-142488003D01*
X204235006Y-199349996D02*
X204235006Y-185350000D01*
X147966005Y-224919996D02*
X146241005Y-224919996D01*
X175066003Y-238199994D02*
X175066003Y-237219999D01*
X389128011Y-211899999D02*
X389128011Y-218169996D01*
X417952993Y-204949994D02*
X414653005Y-204949994D01*
X290246999Y-218399999D02*
X304246999Y-218399999D01*
X147372005Y-199349996D02*
X161372005Y-199349996D01*
X171766004Y-238199994D02*
X175066003Y-238199994D01*
X366447012Y-218399999D02*
X380447012Y-218399999D01*
X417034994Y-167769998D02*
X415310018Y-167769998D01*
X417952993Y-219149999D02*
X417952993Y-218169996D01*
X352160009Y-180300000D02*
X366160009Y-180300000D01*
X146241005Y-237219999D02*
X147966005Y-237219999D01*
X318535009Y-185350000D02*
X304535009Y-185350000D01*
X222703008Y-243969999D02*
X222703008Y-243049993D01*
X242335004Y-185350000D02*
X228335004Y-185350000D01*
X449647998Y-140963002D02*
G75*
G03*
X448648000Y-139963002I-999998J2D01*
G01*
X361685003Y-199349996D02*
X375685003Y-199349996D01*
X199472005Y-156488000D02*
X199472005Y-142488003D01*
X409021993Y-261262998D02*
X409021993Y-247262998D01*
X390685003Y-173800000D02*
X391510000Y-173800000D01*
X385210012Y-242499997D02*
X371210012Y-242499997D01*
X420335012Y-181050000D02*
X420335012Y-180070001D01*
X309297002Y-204399999D02*
X309297002Y-218399999D01*
X176791006Y-228149999D02*
X176791006Y-224919996D01*
X140085005Y-262788984D02*
X140085005Y-140963002D01*
X175947004Y-218399999D02*
X189947004Y-218399999D01*
X285485006Y-199349996D02*
X299485006Y-199349996D01*
X371210012Y-180300000D02*
X385210012Y-180300000D01*
X447121999Y-204399999D02*
X433121999Y-204399999D01*
X399784994Y-175600000D02*
X399784994Y-180300000D01*
X371210012Y-242499997D02*
X371210012Y-256499997D01*
X264052007Y-251799993D02*
X264052007Y-256499997D01*
X219403005Y-256269994D02*
X219403005Y-257249997D01*
X290246999Y-204399999D02*
X290246999Y-218399999D01*
X428072012Y-242212995D02*
X428072012Y-228212995D01*
X342347005Y-204399999D02*
X328347005Y-204399999D01*
X409021993Y-247262998D02*
X395021993Y-247262998D01*
X433121999Y-185350000D02*
X433121999Y-199349996D01*
X204522009Y-223449994D02*
X204522009Y-237449994D01*
X414653005Y-205869993D02*
X412927999Y-205869993D01*
X351871999Y-237449994D02*
X351871999Y-223449994D01*
X177616006Y-230949994D02*
X177616006Y-228149999D01*
X342635000Y-199349996D02*
X356635000Y-199349996D01*
X218810003Y-166300000D02*
X218810003Y-180300000D01*
X319403005Y-257249997D02*
X322703008Y-257249997D01*
X223572004Y-237449994D02*
X237572004Y-237449994D01*
X271197012Y-218399999D02*
X285197012Y-218399999D01*
X266435003Y-142488003D02*
X266435003Y-156488000D01*
X209285001Y-199349996D02*
X223285001Y-199349996D01*
X208997007Y-218399999D02*
X208997007Y-204399999D01*
X266147009Y-218399999D02*
X266147009Y-204399999D01*
X383116003Y-237449994D02*
X397116018Y-237449994D01*
X323585012Y-199349996D02*
X337585012Y-199349996D01*
X385496999Y-142488003D02*
X385496999Y-156488000D01*
X391510000Y-180070001D02*
X393233999Y-180070001D01*
X422060018Y-173800000D02*
X422885000Y-173800000D01*
X185472005Y-156488000D02*
X199472005Y-156488000D01*
X185185007Y-185350000D02*
X171185007Y-185350000D01*
X247385008Y-142488003D02*
X247385008Y-156488000D01*
X309010000Y-180300000D02*
X309010000Y-166300000D01*
X317677999Y-256269994D02*
X319403005Y-256269994D01*
X395878011Y-205869993D02*
X394151998Y-205869993D01*
X418547018Y-199349996D02*
X418547018Y-185350000D01*
X189947004Y-204399999D02*
X175947004Y-204399999D01*
X448648000Y-263788984D02*
X141085005Y-263788984D01*
X366160009Y-242499997D02*
X352160009Y-242499997D01*
X361397009Y-204399999D02*
X347397009Y-204399999D01*
X337585012Y-199349996D02*
X337585012Y-185350000D01*
X242622007Y-223449994D02*
X242622007Y-237449994D01*
X278052999Y-247199994D02*
X278052999Y-242499997D01*
X385210012Y-256499997D02*
X385210012Y-242499997D01*
X214047002Y-204399999D02*
X214047002Y-218399999D01*
X390853002Y-205869993D02*
X389128011Y-205869993D01*
X224428007Y-247199994D02*
X224428007Y-243969999D01*
X417034994Y-166850002D02*
X417034994Y-167769998D01*
X176791006Y-237219999D02*
X176791006Y-230949994D01*
X168516004Y-232749997D02*
X170041006Y-232749997D01*
X175947004Y-204399999D02*
X175947004Y-218399999D01*
X352160009Y-256499997D02*
X366160009Y-256499997D01*
X194710004Y-166300000D02*
X180710004Y-166300000D01*
X154516004Y-237449994D02*
X168516004Y-237449994D01*
X361397009Y-218399999D02*
X361397009Y-204399999D01*
X388302999Y-209099996D02*
X388302999Y-211899999D01*
X433121999Y-166300000D02*
X433121999Y-180300000D01*
X337585012Y-185350000D02*
X323585012Y-185350000D01*
X393233999Y-166850002D02*
X393233999Y-167769998D01*
X412927999Y-209099996D02*
X411403005Y-209099996D01*
X394151998Y-218169996D02*
X395878011Y-218169996D01*
X412927999Y-205869993D02*
X412927999Y-209099996D01*
X217678007Y-256269994D02*
X219403005Y-256269994D01*
X433121999Y-180300000D02*
X447121999Y-180300000D01*
X237572004Y-223449994D02*
X223572004Y-223449994D01*
X151266004Y-238199994D02*
X151266004Y-237219999D01*
X294722005Y-237449994D02*
X294722005Y-223449994D01*
X398260000Y-180070001D02*
X398260000Y-175600000D01*
X317677999Y-243969999D02*
X317677999Y-247199994D01*
X390853002Y-218169996D02*
X390853002Y-219149999D01*
X415310018Y-170999997D02*
X413784994Y-170999997D01*
X317677999Y-247199994D02*
X278052999Y-247199994D01*
X175660005Y-166300000D02*
X161660005Y-166300000D01*
X420503011Y-209099996D02*
X419677999Y-209099996D01*
X295010000Y-180300000D02*
X309010000Y-180300000D01*
X266435003Y-156488000D02*
X280435003Y-156488000D01*
X391510000Y-170999997D02*
X390685003Y-170999997D01*
X217678007Y-249999997D02*
X217678007Y-256269994D01*
X222703008Y-257249997D02*
X222703008Y-256269994D01*
X375685003Y-185350000D02*
X361685003Y-185350000D01*
X146241005Y-224919996D02*
X146241005Y-228149999D01*
X214047002Y-218399999D02*
X228047002Y-218399999D01*
X204522009Y-156488000D02*
X218522009Y-156488000D01*
X256909002Y-180300000D02*
X270910009Y-180300000D01*
X342347005Y-142488003D02*
X328347005Y-142488003D01*
X156610004Y-156488000D02*
X156610004Y-142488003D01*
X144991005Y-242499997D02*
X144991005Y-256499997D01*
X413784994Y-175600000D02*
X415310018Y-175600000D01*
X180710004Y-166300000D02*
X180710004Y-180300000D01*
X182803007Y-242499997D02*
X168803007Y-242499997D01*
X237859007Y-180300000D02*
X251859007Y-180300000D01*
X299485006Y-199349996D02*
X299485006Y-185350000D01*
X314060003Y-166300000D02*
X314060003Y-180300000D01*
X280722005Y-223449994D02*
X280722005Y-237449994D01*
X319403005Y-256269994D02*
X319403005Y-257249997D01*
X304535009Y-185350000D02*
X304535009Y-199349996D01*
X395878011Y-213699994D02*
X397403005Y-213699994D01*
X247385008Y-156488000D02*
X261385008Y-156488000D01*
X352160009Y-242499997D02*
X352160009Y-256499997D01*
X252147009Y-204399999D02*
X252147009Y-218399999D01*
X328347005Y-204399999D02*
X328347005Y-218399999D01*
X145416005Y-230949994D02*
X146241005Y-230949994D01*
X228335004Y-199349996D02*
X242335004Y-199349996D01*
X168516004Y-228149999D02*
X168516004Y-223449994D01*
X208997007Y-204399999D02*
X194997003Y-204399999D01*
X414653005Y-218169996D02*
X414653005Y-219149999D01*
X251859007Y-166300000D02*
X237859007Y-166300000D01*
X237859007Y-166300000D02*
X237859007Y-180300000D01*
X328060003Y-180300000D02*
X328060003Y-166300000D01*
X217678007Y-243969999D02*
X217678007Y-247199994D01*
X448648000Y-263789000D02*
G75*
G03*
X449648000Y-262788984I0J1000000D01*
G01*
X256909002Y-166300000D02*
X256909002Y-180300000D01*
X397116018Y-223449994D02*
X383116003Y-223449994D01*
X318822012Y-223449994D02*
X318822012Y-237449994D01*
X417952993Y-205869993D02*
X417952993Y-204949994D01*
X391510000Y-173800000D02*
X391510000Y-180070001D01*
X219403005Y-243969999D02*
X217678007Y-243969999D01*
X394151998Y-219149999D02*
X394151998Y-218169996D01*
X218810003Y-180300000D02*
X232810003Y-180300000D01*
X433121999Y-156488000D02*
X447121999Y-156488000D01*
X398260000Y-170999997D02*
X398260000Y-167769998D01*
X399784994Y-170999997D02*
X398260000Y-170999997D01*
X171185007Y-199349996D02*
X185185007Y-199349996D01*
X223572004Y-223449994D02*
X223572004Y-237449994D01*
X318535009Y-156488000D02*
X318535009Y-142488003D01*
X168803007Y-242499997D02*
X168803007Y-256499997D01*
X190235006Y-199349996D02*
X204235006Y-199349996D01*
X199760008Y-180300000D02*
X213760008Y-180300000D01*
X152991005Y-224919996D02*
X151266004Y-224919996D01*
X222703008Y-256269994D02*
X224428007Y-256269994D01*
X395021993Y-261262998D02*
X409021993Y-261262998D01*
X299772009Y-223449994D02*
X299772009Y-237449994D01*
X433121999Y-218399999D02*
X447121999Y-218399999D01*
X394151998Y-205869993D02*
X394151998Y-204949994D01*
X142610005Y-142488003D02*
X142610005Y-156488000D01*
X399784994Y-180300000D02*
X413784994Y-180300000D01*
X237572004Y-237449994D02*
X237572004Y-223449994D01*
X247385008Y-185350000D02*
X247385008Y-199349996D01*
X252147009Y-218399999D02*
X266147009Y-218399999D01*
X175066003Y-237219999D02*
X176791006Y-237219999D01*
X413784994Y-170999997D02*
X413784994Y-166300000D01*
X371210012Y-256499997D02*
X385210012Y-256499997D01*
X156610004Y-166300000D02*
X142610005Y-166300000D01*
X194710004Y-180300000D02*
X194710004Y-166300000D01*
X275960012Y-166300000D02*
X275960012Y-180300000D01*
X299485006Y-142488003D02*
X285485006Y-142488003D01*
X342347005Y-218399999D02*
X342347005Y-204399999D01*
X156610004Y-142488003D02*
X142610005Y-142488003D01*
X275672002Y-223449994D02*
X261672002Y-223449994D01*
X261385008Y-185350000D02*
X247385008Y-185350000D01*
X170041006Y-232749997D02*
X170041006Y-237219999D01*
M02*
