%TF.GenerationSoftware,KiCad,Pcbnew,7.0.1*%
%TF.CreationDate,2023-07-11T18:08:52-07:00*%
%TF.ProjectId,switchplate,73776974-6368-4706-9c61-74652e6b6963,rev?*%
%TF.SameCoordinates,Original*%
%TF.FileFunction,Drillmap*%
%TF.FilePolarity,Positive*%
%FSLAX45Y45*%
G04 Gerber Fmt 4.5, Leading zero omitted, Abs format (unit mm)*
G04 Created by KiCad (PCBNEW 7.0.1) date 2023-07-11 18:08:52*
%MOMM*%
%LPD*%
G01*
G04 APERTURE LIST*
%ADD10C,0.188976*%
%ADD11C,0.200000*%
%ADD12C,0.050000*%
G04 APERTURE END LIST*
D10*
X2247600Y-6058901D02*
X847600Y-6058901D01*
X29422598Y-11774001D02*
X29422598Y-13174001D01*
X29422598Y-13174001D02*
X30822598Y-13174001D01*
X31201498Y-5845201D02*
X31220696Y-5879501D01*
X2335100Y-11829000D02*
X2335100Y-11921001D01*
D11*
X20435000Y-13773000D02*
X20435000Y-14082752D01*
D12*
X28177500Y-5606000D02*
X28177500Y-5291000D01*
D10*
X9896299Y-11269001D02*
X11296299Y-11269001D01*
X2752600Y-7459001D02*
X4152600Y-7459001D01*
X11772599Y-7459001D02*
X11772599Y-6058901D01*
X13592599Y-12244000D02*
X8915098Y-12244000D01*
D12*
X-50500Y-14092000D02*
X-50500Y-13784000D01*
X28170000Y-13852000D02*
X28170000Y-14167000D01*
D11*
X-3412189Y-13282979D02*
G75*
G03*
X-2911979Y-13782790I500000J189D01*
G01*
D10*
X30822598Y-9869001D02*
X29422598Y-9869001D01*
X-2993200Y-5612601D02*
X-2954200Y-5608001D01*
X22755096Y-10821501D02*
X22755096Y-12221500D01*
X19183198Y-9364001D02*
X20583198Y-9364001D01*
X14182598Y-7459001D02*
X15582598Y-7459001D01*
X16563798Y-7964001D02*
X16563798Y-9364001D01*
X28917596Y-9869001D02*
X27517596Y-9869001D01*
X2335100Y-13151000D02*
X2335100Y-13249001D01*
X8943699Y-7964001D02*
X8943699Y-9364001D01*
X7991300Y-9869001D02*
X7991300Y-11269001D01*
X-3360500Y-5879501D02*
X-3341300Y-5845201D01*
X2665100Y-11829000D02*
X2335100Y-11829000D01*
X31268997Y-6028201D02*
X31273596Y-6067201D01*
X7486299Y-9869001D02*
X6086299Y-9869001D01*
X4181299Y-11269001D02*
X5581299Y-11269001D01*
X31128698Y-5752901D02*
X31155398Y-5781701D01*
X17754399Y-11774001D02*
X17754399Y-13174001D01*
X13706298Y-9869001D02*
X13706298Y-11269001D01*
D12*
X-1553000Y-5606000D02*
X-1553000Y-5298000D01*
D10*
X-1324300Y-7964001D02*
X-2724300Y-7964001D01*
D12*
X29686500Y-5291000D02*
X29686500Y-5606000D01*
D10*
X22249996Y-12726500D02*
X20850099Y-12726500D01*
X13201298Y-9869001D02*
X11801298Y-9869001D01*
X14658799Y-9364001D02*
X16058799Y-9364001D01*
X1323800Y-9364001D02*
X2723799Y-9364001D01*
X-3268500Y-5752901D02*
X-3239700Y-5726201D01*
X27012597Y-7459001D02*
X27012597Y-6058901D01*
X9896299Y-9869001D02*
X9896299Y-11269001D01*
X15582598Y-6058901D02*
X14182598Y-6058901D01*
X24155096Y-12221500D02*
X24155096Y-10821501D01*
X-3176200Y-5680101D02*
X-3141900Y-5660901D01*
X15106298Y-9869001D02*
X13706298Y-9869001D01*
X6533799Y-7964001D02*
X5133799Y-7964001D01*
X19183198Y-7964001D02*
X19183198Y-9364001D01*
X-343100Y-11774001D02*
X-343100Y-13174001D01*
X8915098Y-12244000D02*
X8915098Y-11774001D01*
X17992599Y-6058901D02*
X17992599Y-7459001D01*
X17516299Y-11269001D02*
X18916299Y-11269001D01*
X14095098Y-11829000D02*
X13765098Y-11829000D01*
X30822598Y-7459001D02*
X30822598Y-6058901D01*
X14095098Y-13151000D02*
X14267599Y-13151000D01*
X4152600Y-6058901D02*
X2752600Y-6058901D01*
X13592599Y-11921001D02*
X13592599Y-12244000D01*
D12*
X11600500Y-5087000D02*
X12709500Y-5087000D01*
D10*
X371300Y-11269001D02*
X1771300Y-11269001D01*
X11801298Y-9869001D02*
X11801298Y-11269001D01*
X19897599Y-7459001D02*
X21297599Y-7459001D01*
X6057599Y-6058901D02*
X4657599Y-6058901D01*
X4657599Y-6058901D02*
X4657599Y-7459001D01*
X26060098Y-12726500D02*
X24660098Y-12726500D01*
X2665100Y-11921001D02*
X2665100Y-11829000D01*
X5581299Y-9869001D02*
X4181299Y-9869001D01*
X20850099Y-14126500D02*
X22249996Y-14126500D01*
X22755096Y-12221500D02*
X24155096Y-12221500D01*
X16563798Y-9364001D02*
X17963798Y-9364001D01*
X7515100Y-12704000D02*
X7515100Y-13174001D01*
X847600Y-7459001D02*
X2247600Y-7459001D01*
X31250698Y-5951901D02*
X31261297Y-5989701D01*
X12753799Y-7964001D02*
X12753799Y-9364001D01*
X11772599Y-6058901D02*
X10372599Y-6058901D01*
X12248799Y-7964001D02*
X10848799Y-7964001D01*
X31237097Y-5915101D02*
X31250698Y-5951901D01*
X27517596Y-9869001D02*
X27517596Y-11269001D01*
X31220696Y-5879501D02*
X31237097Y-5915101D01*
X2335100Y-11921001D02*
X2162600Y-11921001D01*
X29422598Y-7459001D02*
X30822598Y-7459001D01*
D12*
X-1559500Y-13784000D02*
X-2911979Y-13782790D01*
D10*
X18916299Y-9869001D02*
X17516299Y-9869001D01*
X-1324300Y-13174001D02*
X-1324300Y-11774001D01*
D12*
X12902500Y-14096000D02*
X12902500Y-13777000D01*
D10*
X2080000Y-12524001D02*
X2162600Y-12524001D01*
X14153799Y-7964001D02*
X12753799Y-7964001D01*
X27517596Y-7459001D02*
X28917596Y-7459001D01*
X-3106300Y-5644501D02*
X-3069500Y-5630901D01*
D11*
X20935248Y-14582752D02*
X25987248Y-14580248D01*
D10*
X-2724300Y-11774001D02*
X-2724300Y-13174001D01*
X25612597Y-6058901D02*
X25612597Y-7459001D01*
X818800Y-7964001D02*
X-581200Y-7964001D01*
X6562499Y-6058901D02*
X6562499Y-7459001D01*
X28917596Y-7459001D02*
X28917596Y-6058901D01*
X1056900Y-13174001D02*
X1056900Y-11774001D01*
X2723799Y-7964001D02*
X1323800Y-7964001D01*
X-3208800Y-5701901D02*
X-3176200Y-5680101D01*
X14153799Y-9364001D02*
X14153799Y-7964001D01*
X30822598Y-11269001D02*
X30822598Y-9869001D01*
X14350099Y-12524001D02*
X14350099Y-12244000D01*
X-3295200Y-5781701D02*
X-3268500Y-5752901D01*
X-2248100Y-11269001D02*
X-848100Y-11269001D01*
X16058799Y-9364001D02*
X16058799Y-7964001D01*
X5581299Y-11269001D02*
X5581299Y-9869001D01*
X14267599Y-12524001D02*
X14350099Y-12524001D01*
X-343100Y-13174001D02*
X1056900Y-13174001D01*
D12*
X-2914900Y-5606401D02*
X-1553000Y-5606000D01*
D10*
X5133799Y-7964001D02*
X5133799Y-9364001D01*
D12*
X-1559500Y-13784000D02*
X-1559500Y-14092000D01*
D10*
X19659399Y-9869001D02*
X19659399Y-11269001D01*
X3228800Y-7964001D02*
X3228800Y-9364001D01*
D12*
X-1359500Y-14292000D02*
X-250500Y-14292000D01*
D10*
X4152600Y-7459001D02*
X4152600Y-6058901D01*
X30929696Y-5630901D02*
X30966497Y-5644501D01*
X13765098Y-11921001D02*
X13592599Y-11921001D01*
X3228800Y-9364001D02*
X4628800Y-9364001D01*
X-1324300Y-11774001D02*
X-2724300Y-11774001D01*
X31261297Y-5989701D02*
X31268997Y-6028201D01*
X14267599Y-11921001D02*
X14095098Y-11921001D01*
D11*
X31273603Y-13353894D02*
X31275097Y-6106501D01*
D10*
X9391299Y-9869001D02*
X7991300Y-9869001D01*
X31002096Y-5660901D02*
X31036398Y-5680101D01*
D11*
X25987248Y-14580250D02*
G75*
G03*
X26487000Y-14080248I-248J500000D01*
G01*
D10*
X-1562400Y-7459001D02*
X-1562400Y-6058901D01*
X-848100Y-9869001D02*
X-2248100Y-9869001D01*
X6086299Y-9869001D02*
X6086299Y-11269001D01*
D12*
X11393500Y-13777000D02*
X11393500Y-14096000D01*
D10*
X-3069500Y-5630901D02*
X-3031700Y-5620301D01*
X25612597Y-7459001D02*
X27012597Y-7459001D01*
X11296299Y-11269001D02*
X11296299Y-9869001D01*
X9867599Y-7459001D02*
X9867599Y-6058901D01*
X2837599Y-12244000D02*
X2837599Y-11921001D01*
X31099896Y-5726201D02*
X31128698Y-5752901D01*
X16087599Y-6058901D02*
X16087599Y-7459001D01*
X2162600Y-12524001D02*
X2162600Y-13151000D01*
X15611299Y-11269001D02*
X17011299Y-11269001D01*
D12*
X11593500Y-14296000D02*
X12702500Y-14296000D01*
D10*
X28917596Y-13174001D02*
X28917596Y-11774001D01*
X10848799Y-9364001D02*
X12248799Y-9364001D01*
X7962499Y-6058901D02*
X6562499Y-6058901D01*
X-3413400Y-6067201D02*
X-3408800Y-6028201D01*
X21059399Y-11269001D02*
X21059399Y-9869001D01*
X-2962500Y-7459001D02*
X-1562400Y-7459001D01*
X2335100Y-13249001D02*
X2665100Y-13249001D01*
X13706298Y-11269001D02*
X15106298Y-11269001D01*
X11801298Y-11269001D02*
X13201298Y-11269001D01*
D12*
X-1559500Y-14092000D02*
G75*
G03*
X-1359500Y-14292000I200000J0D01*
G01*
D10*
X818800Y-9364001D02*
X818800Y-7964001D01*
X27012597Y-6058901D02*
X25612597Y-6058901D01*
X28917596Y-6058901D02*
X27517596Y-6058901D01*
X5133799Y-9364001D02*
X6533799Y-9364001D01*
X19659399Y-11269001D02*
X21059399Y-11269001D01*
X30775198Y-5606501D02*
X30814398Y-5608001D01*
X4628800Y-7964001D02*
X3228800Y-7964001D01*
X4181299Y-9869001D02*
X4181299Y-11269001D01*
X17516299Y-9869001D02*
X17516299Y-11269001D01*
X29422598Y-11269001D02*
X30822598Y-11269001D01*
X15373199Y-13174001D02*
X16773199Y-13174001D01*
X2162600Y-11921001D02*
X2162600Y-12244000D01*
X22755096Y-12726500D02*
X22755096Y-14126500D01*
X27517596Y-11774001D02*
X27517596Y-13174001D01*
X16773199Y-13174001D02*
X16773199Y-11774001D01*
X22755096Y-14126500D02*
X24155096Y-14126500D01*
D12*
X29479000Y-14367000D02*
G75*
G03*
X29679000Y-14167000I0J200000D01*
G01*
D10*
X15582598Y-7459001D02*
X15582598Y-6058901D01*
X-1057400Y-6058901D02*
X-1057400Y-7459001D01*
X-2724300Y-7964001D02*
X-2724300Y-9364001D01*
X27012597Y-9364001D02*
X27012597Y-7964001D01*
X-3408800Y-6028201D02*
X-3401100Y-5989701D01*
X7515100Y-12244000D02*
X2837599Y-12244000D01*
X2665100Y-13151000D02*
X2837599Y-13151000D01*
D12*
X20435000Y-13773000D02*
X12902500Y-13777000D01*
D10*
X7962499Y-7459001D02*
X7962499Y-6058901D01*
X7991300Y-11269001D02*
X9391299Y-11269001D01*
X30822598Y-9364001D02*
X30822598Y-7964001D01*
X28917596Y-7964001D02*
X27517596Y-7964001D01*
X21297599Y-6058901D02*
X19897599Y-6058901D01*
X15373199Y-11774001D02*
X15373199Y-13174001D01*
X7486299Y-11269001D02*
X7486299Y-9869001D01*
X24155096Y-14126500D02*
X24155096Y-12726500D01*
D12*
X-1353000Y-5098000D02*
X-244000Y-5098000D01*
D10*
X12277598Y-6058901D02*
X12277598Y-7459001D01*
X7515100Y-11774001D02*
X7515100Y-12244000D01*
X342600Y-6058901D02*
X-1057400Y-6058901D01*
X-3341300Y-5845201D02*
X-3319500Y-5812601D01*
D12*
X28170000Y-14167000D02*
G75*
G03*
X28370000Y-14367000I200000J0D01*
G01*
D10*
X31036398Y-5680101D02*
X31068997Y-5701901D01*
X-2724300Y-13174001D02*
X-1324300Y-13174001D01*
X11296299Y-9869001D02*
X9896299Y-9869001D01*
X27517596Y-9364001D02*
X28917596Y-9364001D01*
X7038799Y-9364001D02*
X8438800Y-9364001D01*
X10848799Y-7964001D02*
X10848799Y-9364001D01*
X24155096Y-10821501D02*
X22755096Y-10821501D01*
X27517596Y-7964001D02*
X27517596Y-9364001D01*
X2837599Y-13151000D02*
X2837599Y-12704000D01*
D12*
X11600500Y-5087000D02*
G75*
G03*
X11400500Y-5287000I0J-200000D01*
G01*
D10*
X21059399Y-9869001D02*
X19659399Y-9869001D01*
X10372599Y-6058901D02*
X10372599Y-7459001D01*
X22249996Y-14126500D02*
X22249996Y-12726500D01*
X31155398Y-5781701D02*
X31179696Y-5812601D01*
X847600Y-6058901D02*
X847600Y-7459001D01*
X3676299Y-9869001D02*
X2276300Y-9869001D01*
X19897599Y-6058901D02*
X19897599Y-7459001D01*
X8438800Y-7964001D02*
X7038799Y-7964001D01*
D12*
X29686500Y-5606000D02*
X30775198Y-5606501D01*
D10*
X-1057400Y-7459001D02*
X342600Y-7459001D01*
X-2954200Y-5608001D02*
X-2914900Y-5606401D01*
X12277598Y-7459001D02*
X13677598Y-7459001D01*
X13201298Y-11269001D02*
X13201298Y-9869001D01*
D12*
X-250500Y-14292000D02*
G75*
G03*
X-50500Y-14092000I0J200000D01*
G01*
D10*
X-2724300Y-9364001D02*
X-1324300Y-9364001D01*
X27012597Y-11269001D02*
X27012597Y-9869001D01*
X2752600Y-6058901D02*
X2752600Y-7459001D01*
D12*
X-44000Y-5606000D02*
X11400500Y-5606000D01*
D11*
X26487000Y-13852000D02*
X28170000Y-13852000D01*
D10*
X17992599Y-7459001D02*
X19392599Y-7459001D01*
D12*
X11400500Y-5606000D02*
X11400500Y-5287000D01*
X12909500Y-5287000D02*
X12909500Y-5606000D01*
D10*
X13765098Y-13151000D02*
X13765098Y-13249001D01*
X27517596Y-6058901D02*
X27517596Y-7459001D01*
X342600Y-7459001D02*
X342600Y-6058901D01*
X19392599Y-6058901D02*
X17992599Y-6058901D01*
X17011299Y-11269001D02*
X17011299Y-9869001D01*
X2162600Y-12244000D02*
X2080000Y-12244000D01*
X10343798Y-9364001D02*
X10343798Y-7964001D01*
X4628800Y-9364001D02*
X4628800Y-7964001D01*
X-581200Y-7964001D02*
X-581200Y-9364001D01*
D11*
X-3412189Y-13282979D02*
X-3414900Y-6106501D01*
D12*
X28370000Y-14367000D02*
X29479000Y-14367000D01*
D10*
X13677598Y-6058901D02*
X12277598Y-6058901D01*
X17487599Y-7459001D02*
X17487599Y-6058901D01*
D12*
X-1353000Y-5098000D02*
G75*
G03*
X-1553000Y-5298000I0J-200000D01*
G01*
D10*
X-1324300Y-9364001D02*
X-1324300Y-7964001D01*
X13592599Y-12704000D02*
X13592599Y-13151000D01*
X16773199Y-11774001D02*
X15373199Y-11774001D01*
D11*
X30773394Y-13853793D02*
G75*
G03*
X31273603Y-13353894I206J500003D01*
G01*
D10*
X14658799Y-7964001D02*
X14658799Y-9364001D01*
X14267599Y-13151000D02*
X14267599Y-12524001D01*
X20583198Y-9364001D02*
X20583198Y-7964001D01*
X2665100Y-13249001D02*
X2665100Y-13151000D01*
X19154399Y-11774001D02*
X17754399Y-11774001D01*
X27517596Y-13174001D02*
X28917596Y-13174001D01*
D12*
X12909500Y-5606000D02*
X28177500Y-5606000D01*
D10*
X13592599Y-13151000D02*
X13765098Y-13151000D01*
X2276300Y-11269001D02*
X3676299Y-11269001D01*
X25612597Y-9869001D02*
X25612597Y-11269001D01*
X12753799Y-9364001D02*
X14153799Y-9364001D01*
X27012597Y-9869001D02*
X25612597Y-9869001D01*
X18916299Y-11269001D02*
X18916299Y-9869001D01*
X6562499Y-7459001D02*
X7962499Y-7459001D01*
X-2248100Y-9869001D02*
X-2248100Y-11269001D01*
X17487599Y-6058901D02*
X16087599Y-6058901D01*
X2837599Y-12704000D02*
X7515100Y-12704000D01*
X28917596Y-9364001D02*
X28917596Y-7964001D01*
X16058799Y-7964001D02*
X14658799Y-7964001D01*
X10372599Y-7459001D02*
X11772599Y-7459001D01*
D11*
X25034767Y-7753000D02*
G75*
G03*
X25034767Y-7753000I-1508767J0D01*
G01*
D10*
X-581200Y-9364001D02*
X818800Y-9364001D01*
X15106298Y-11269001D02*
X15106298Y-9869001D01*
X-3141900Y-5660901D02*
X-3106300Y-5644501D01*
X2162600Y-13151000D02*
X2335100Y-13151000D01*
X8438800Y-9364001D02*
X8438800Y-7964001D01*
X25612597Y-7964001D02*
X25612597Y-9364001D01*
X9867599Y-6058901D02*
X8467499Y-6058901D01*
X15611299Y-9869001D02*
X15611299Y-11269001D01*
X7038799Y-7964001D02*
X7038799Y-9364001D01*
X30822598Y-13174001D02*
X30822598Y-11774001D01*
X29422598Y-6058901D02*
X29422598Y-7459001D01*
X24155096Y-12726500D02*
X22755096Y-12726500D01*
D12*
X-44000Y-5606000D02*
X-44000Y-5298000D01*
D10*
X26060098Y-14126500D02*
X26060098Y-12726500D01*
X2247600Y-7459001D02*
X2247600Y-6058901D01*
X12248799Y-9364001D02*
X12248799Y-7964001D01*
X-3390500Y-5951901D02*
X-3376900Y-5915101D01*
X30966497Y-5644501D02*
X31002096Y-5660901D01*
D12*
X11393500Y-14096000D02*
G75*
G03*
X11593500Y-14296000I200000J0D01*
G01*
D10*
X31273596Y-6067201D02*
X31275097Y-6106501D01*
X21297599Y-7459001D02*
X21297599Y-6058901D01*
X-1562400Y-6058901D02*
X-2962500Y-6058901D01*
X371300Y-9869001D02*
X371300Y-11269001D01*
X6533799Y-9364001D02*
X6533799Y-7964001D01*
X28917596Y-11269001D02*
X28917596Y-9869001D01*
X27517596Y-11269001D02*
X28917596Y-11269001D01*
X8915098Y-13174001D02*
X8915098Y-12704000D01*
X29422598Y-7964001D02*
X29422598Y-9364001D01*
D11*
X26487000Y-14080248D02*
X26487000Y-13852000D01*
D10*
X8467499Y-7459001D02*
X9867599Y-7459001D01*
X14182598Y-6058901D02*
X14182598Y-7459001D01*
X2080000Y-12244000D02*
X2080000Y-12524001D01*
X30891897Y-5620301D02*
X30929696Y-5630901D01*
X17963798Y-7964001D02*
X16563798Y-7964001D01*
D12*
X12702500Y-14296000D02*
G75*
G03*
X12902500Y-14096000I0J200000D01*
G01*
D10*
X30822598Y-11774001D02*
X29422598Y-11774001D01*
X1323800Y-7964001D02*
X1323800Y-9364001D01*
X2837599Y-11921001D02*
X2665100Y-11921001D01*
D12*
X30773394Y-13853791D02*
X29679000Y-13852000D01*
X11393500Y-13777000D02*
X-50500Y-13784000D01*
D10*
X14350099Y-12244000D02*
X14267599Y-12244000D01*
X1056900Y-11774001D02*
X-343100Y-11774001D01*
X13765098Y-11829000D02*
X13765098Y-11921001D01*
D11*
X20434998Y-14082752D02*
G75*
G03*
X20935248Y-14582752I500002J2D01*
G01*
D10*
X8915098Y-11774001D02*
X7515100Y-11774001D01*
X30814398Y-5608001D02*
X30853396Y-5612601D01*
X17754399Y-13174001D02*
X19154399Y-13174001D01*
X2723799Y-9364001D02*
X2723799Y-7964001D01*
X17963798Y-9364001D02*
X17963798Y-7964001D01*
X20850099Y-12726500D02*
X20850099Y-14126500D01*
X19392599Y-7459001D02*
X19392599Y-6058901D01*
X30853396Y-5612601D02*
X30891897Y-5620301D01*
X25612597Y-9364001D02*
X27012597Y-9364001D01*
X8915098Y-12704000D02*
X13592599Y-12704000D01*
X14095098Y-11921001D02*
X14095098Y-11829000D01*
X19154399Y-13174001D02*
X19154399Y-11774001D01*
X31068997Y-5701901D02*
X31099896Y-5726201D01*
X-3031700Y-5620301D02*
X-2993200Y-5612601D01*
D12*
X29486500Y-5091000D02*
X28377500Y-5091000D01*
D10*
X30822598Y-6058901D02*
X29422598Y-6058901D01*
X4657599Y-7459001D02*
X6057599Y-7459001D01*
X-3376900Y-5915101D02*
X-3360500Y-5879501D01*
D12*
X29679000Y-14167000D02*
X29679000Y-13852000D01*
D10*
X-2962500Y-6058901D02*
X-2962500Y-7459001D01*
X14267599Y-12244000D02*
X14267599Y-11921001D01*
X6057599Y-7459001D02*
X6057599Y-6058901D01*
X9391299Y-11269001D02*
X9391299Y-9869001D01*
X-3239700Y-5726201D02*
X-3208800Y-5701901D01*
X-3414900Y-6106501D02*
X-3413400Y-6067201D01*
X27012597Y-7964001D02*
X25612597Y-7964001D01*
X16087599Y-7459001D02*
X17487599Y-7459001D01*
X29422598Y-9364001D02*
X30822598Y-9364001D01*
D12*
X-44000Y-5298000D02*
G75*
G03*
X-244000Y-5098000I-200000J0D01*
G01*
D10*
X14095098Y-13249001D02*
X14095098Y-13151000D01*
X8467499Y-6058901D02*
X8467499Y-7459001D01*
X7515100Y-13174001D02*
X8915098Y-13174001D01*
X29422598Y-9869001D02*
X29422598Y-11269001D01*
X-848100Y-11269001D02*
X-848100Y-9869001D01*
X2276300Y-9869001D02*
X2276300Y-11269001D01*
X10343798Y-7964001D02*
X8943699Y-7964001D01*
X13677598Y-7459001D02*
X13677598Y-6058901D01*
X25612597Y-11269001D02*
X27012597Y-11269001D01*
X24660098Y-14126500D02*
X26060098Y-14126500D01*
D12*
X28377500Y-5091000D02*
G75*
G03*
X28177500Y-5291000I0J-200000D01*
G01*
D10*
X13765098Y-13249001D02*
X14095098Y-13249001D01*
X1771300Y-11269001D02*
X1771300Y-9869001D01*
X-3319500Y-5812601D02*
X-3295200Y-5781701D01*
D12*
X29686500Y-5291000D02*
G75*
G03*
X29486500Y-5091000I-200000J0D01*
G01*
X12909500Y-5287000D02*
G75*
G03*
X12709500Y-5087000I-200000J0D01*
G01*
D10*
X17011299Y-9869001D02*
X15611299Y-9869001D01*
X20583198Y-7964001D02*
X19183198Y-7964001D01*
X1771300Y-9869001D02*
X371300Y-9869001D01*
X30822598Y-7964001D02*
X29422598Y-7964001D01*
X8943699Y-9364001D02*
X10343798Y-9364001D01*
X24660098Y-12726500D02*
X24660098Y-14126500D01*
X31179696Y-5812601D02*
X31201498Y-5845201D01*
X-3401100Y-5989701D02*
X-3390500Y-5951901D01*
X6086299Y-11269001D02*
X7486299Y-11269001D01*
X3676299Y-11269001D02*
X3676299Y-9869001D01*
X28917596Y-11774001D02*
X27517596Y-11774001D01*
D11*
X-3177281Y-14905276D02*
X-3177281Y-14705276D01*
X-3177281Y-14705276D02*
X-3129662Y-14705276D01*
X-3129662Y-14705276D02*
X-3101090Y-14714800D01*
X-3101090Y-14714800D02*
X-3082043Y-14733847D01*
X-3082043Y-14733847D02*
X-3072519Y-14752895D01*
X-3072519Y-14752895D02*
X-3062995Y-14790990D01*
X-3062995Y-14790990D02*
X-3062995Y-14819562D01*
X-3062995Y-14819562D02*
X-3072519Y-14857657D01*
X-3072519Y-14857657D02*
X-3082043Y-14876704D01*
X-3082043Y-14876704D02*
X-3101090Y-14895752D01*
X-3101090Y-14895752D02*
X-3129662Y-14905276D01*
X-3129662Y-14905276D02*
X-3177281Y-14905276D01*
X-2977281Y-14905276D02*
X-2977281Y-14771943D01*
X-2977281Y-14810038D02*
X-2967757Y-14790990D01*
X-2967757Y-14790990D02*
X-2958233Y-14781466D01*
X-2958233Y-14781466D02*
X-2939186Y-14771943D01*
X-2939186Y-14771943D02*
X-2920138Y-14771943D01*
X-2853471Y-14905276D02*
X-2853471Y-14771943D01*
X-2853471Y-14705276D02*
X-2862995Y-14714800D01*
X-2862995Y-14714800D02*
X-2853471Y-14724324D01*
X-2853471Y-14724324D02*
X-2843948Y-14714800D01*
X-2843948Y-14714800D02*
X-2853471Y-14705276D01*
X-2853471Y-14705276D02*
X-2853471Y-14724324D01*
X-2729662Y-14905276D02*
X-2748710Y-14895752D01*
X-2748710Y-14895752D02*
X-2758233Y-14876704D01*
X-2758233Y-14876704D02*
X-2758233Y-14705276D01*
X-2624900Y-14905276D02*
X-2643948Y-14895752D01*
X-2643948Y-14895752D02*
X-2653471Y-14876704D01*
X-2653471Y-14876704D02*
X-2653471Y-14705276D01*
X-2396329Y-14905276D02*
X-2396329Y-14705276D01*
X-2396329Y-14705276D02*
X-2329662Y-14848133D01*
X-2329662Y-14848133D02*
X-2262995Y-14705276D01*
X-2262995Y-14705276D02*
X-2262995Y-14905276D01*
X-2082043Y-14905276D02*
X-2082043Y-14800514D01*
X-2082043Y-14800514D02*
X-2091567Y-14781466D01*
X-2091567Y-14781466D02*
X-2110614Y-14771943D01*
X-2110614Y-14771943D02*
X-2148710Y-14771943D01*
X-2148710Y-14771943D02*
X-2167757Y-14781466D01*
X-2082043Y-14895752D02*
X-2101090Y-14905276D01*
X-2101090Y-14905276D02*
X-2148710Y-14905276D01*
X-2148710Y-14905276D02*
X-2167757Y-14895752D01*
X-2167757Y-14895752D02*
X-2177281Y-14876704D01*
X-2177281Y-14876704D02*
X-2177281Y-14857657D01*
X-2177281Y-14857657D02*
X-2167757Y-14838609D01*
X-2167757Y-14838609D02*
X-2148710Y-14829085D01*
X-2148710Y-14829085D02*
X-2101090Y-14829085D01*
X-2101090Y-14829085D02*
X-2082043Y-14819562D01*
X-1986805Y-14771943D02*
X-1986805Y-14971943D01*
X-1986805Y-14781466D02*
X-1967757Y-14771943D01*
X-1967757Y-14771943D02*
X-1929662Y-14771943D01*
X-1929662Y-14771943D02*
X-1910614Y-14781466D01*
X-1910614Y-14781466D02*
X-1901090Y-14790990D01*
X-1901090Y-14790990D02*
X-1891567Y-14810038D01*
X-1891567Y-14810038D02*
X-1891567Y-14867181D01*
X-1891567Y-14867181D02*
X-1901090Y-14886228D01*
X-1901090Y-14886228D02*
X-1910614Y-14895752D01*
X-1910614Y-14895752D02*
X-1929662Y-14905276D01*
X-1929662Y-14905276D02*
X-1967757Y-14905276D01*
X-1967757Y-14905276D02*
X-1986805Y-14895752D01*
X-1805852Y-14886228D02*
X-1796328Y-14895752D01*
X-1796328Y-14895752D02*
X-1805852Y-14905276D01*
X-1805852Y-14905276D02*
X-1815376Y-14895752D01*
X-1815376Y-14895752D02*
X-1805852Y-14886228D01*
X-1805852Y-14886228D02*
X-1805852Y-14905276D01*
X-1805852Y-14781466D02*
X-1796328Y-14790990D01*
X-1796328Y-14790990D02*
X-1805852Y-14800514D01*
X-1805852Y-14800514D02*
X-1815376Y-14790990D01*
X-1815376Y-14790990D02*
X-1805852Y-14781466D01*
X-1805852Y-14781466D02*
X-1805852Y-14800514D01*
M02*
