%TF.GenerationSoftware,KiCad,Pcbnew,7.0.1*%
%TF.CreationDate,2023-04-18T10:43:34-07:00*%
%TF.ProjectId,switchplate,73776974-6368-4706-9c61-74652e6b6963,rev?*%
%TF.SameCoordinates,Original*%
%TF.FileFunction,Profile,NP*%
%FSLAX46Y46*%
G04 Gerber Fmt 4.6, Leading zero omitted, Abs format (unit mm)*
G04 Created by KiCad (PCBNEW 7.0.1) date 2023-04-18 10:43:34*
%MOMM*%
%LPD*%
G01*
G04 APERTURE LIST*
%TA.AperFunction,Profile*%
%ADD10C,0.200000*%
%TD*%
%TA.AperFunction,Profile*%
%ADD11C,0.188976*%
%TD*%
G04 APERTURE END LIST*
D10*
X250477670Y-76860000D02*
G75*
G03*
X250477670Y-76860000I-15087670J0D01*
G01*
X307863942Y-137867931D02*
G75*
G03*
X312866031Y-132868942I2058J5000031D01*
G01*
X260002478Y-145132499D02*
G75*
G03*
X265000000Y-140132478I-2478J4999999D01*
G01*
X204479980Y-140157521D02*
G75*
G03*
X209482479Y-145157519I5000020J21D01*
G01*
X-33991889Y-132159793D02*
G75*
G03*
X-28989792Y-137157903I5000001J1891D01*
G01*
X-33991889Y-132159793D02*
X-34019001Y-60395009D01*
X312866031Y-132868942D02*
X312880970Y-60395009D01*
X209482479Y-145157520D02*
X260002478Y-145132477D01*
X265000000Y-137850000D02*
X307863942Y-137867910D01*
X265000000Y-140132478D02*
X265000000Y-137850000D01*
X204480000Y-137060000D02*
X204480000Y-140157521D01*
X-28989792Y-137157903D02*
X204480000Y-137060000D01*
D11*
X308355977Y-59919009D02*
X294355977Y-59919009D01*
X308355977Y-73920007D02*
X308355977Y-59919009D01*
X294355977Y-73920007D02*
X308355977Y-73920007D01*
X294355977Y-59919009D02*
X294355977Y-73920007D01*
X289305958Y-59919009D02*
X275305958Y-59919009D01*
X289305958Y-73920007D02*
X289305958Y-59919009D01*
X275305958Y-73920007D02*
X289305958Y-73920007D01*
X275305958Y-59919009D02*
X275305958Y-73920007D01*
X270255970Y-59919009D02*
X256255970Y-59919009D01*
X270255970Y-73920007D02*
X270255970Y-59919009D01*
X256255970Y-73920007D02*
X270255970Y-73920007D01*
X256255970Y-59919009D02*
X256255970Y-73920007D01*
X213105992Y-59919009D02*
X199105992Y-59919009D01*
X213105992Y-73920007D02*
X213105992Y-59919009D01*
X199105992Y-73920007D02*
X213105992Y-73920007D01*
X199105992Y-59919009D02*
X199105992Y-73920007D01*
X194055989Y-59919009D02*
X180055989Y-59919009D01*
X194055989Y-73920007D02*
X194055989Y-59919009D01*
X180055989Y-73920007D02*
X194055989Y-73920007D01*
X180055989Y-59919009D02*
X180055989Y-73920007D01*
X175005986Y-59919009D02*
X161005986Y-59919009D01*
X175005986Y-73920007D02*
X175005986Y-59919009D01*
X161005986Y-73920007D02*
X175005986Y-73920007D01*
X161005986Y-59919009D02*
X161005986Y-73920007D01*
X155955983Y-59919009D02*
X141955983Y-59919009D01*
X155955983Y-73920007D02*
X155955983Y-59919009D01*
X141955983Y-73920007D02*
X155955983Y-73920007D01*
X141955983Y-59919009D02*
X141955983Y-73920007D01*
X136905980Y-59919009D02*
X122905980Y-59919009D01*
X136905980Y-73920007D02*
X136905980Y-59919009D01*
X122905980Y-73920007D02*
X136905980Y-73920007D01*
X122905980Y-59919009D02*
X122905980Y-73920007D01*
X117855992Y-59919009D02*
X103855992Y-59919009D01*
X117855992Y-73920007D02*
X117855992Y-59919009D01*
X103855992Y-73920007D02*
X117855992Y-73920007D01*
X103855992Y-59919009D02*
X103855992Y-73920007D01*
X98805989Y-59919009D02*
X84804989Y-59919009D01*
X98805989Y-73920007D02*
X98805989Y-59919009D01*
X84804989Y-73920007D02*
X98805989Y-73920007D01*
X84804989Y-59919009D02*
X84804989Y-73920007D01*
X79754994Y-59919009D02*
X65754994Y-59919009D01*
X79754994Y-73920007D02*
X79754994Y-59919009D01*
X65754994Y-73920007D02*
X79754994Y-73920007D01*
X65754994Y-59919009D02*
X65754994Y-73920007D01*
X60705990Y-59919009D02*
X46705990Y-59919009D01*
X60705990Y-73920007D02*
X60705990Y-59919009D01*
X46705990Y-73920007D02*
X60705990Y-73920007D01*
X46705990Y-59919009D02*
X46705990Y-73920007D01*
X41655995Y-59919009D02*
X27655995Y-59919009D01*
X41655995Y-73920007D02*
X41655995Y-59919009D01*
X27655995Y-73920007D02*
X41655995Y-73920007D01*
X27655995Y-59919009D02*
X27655995Y-73920007D01*
X22605996Y-59919009D02*
X8605996Y-59919009D01*
X22605996Y-73920007D02*
X22605996Y-59919009D01*
X8605996Y-73920007D02*
X22605996Y-73920007D01*
X8605996Y-59919009D02*
X8605996Y-73920007D01*
X3555996Y-59919009D02*
X-10444002Y-59919009D01*
X3555996Y-73920007D02*
X3555996Y-59919009D01*
X-10444002Y-73920007D02*
X3555996Y-73920007D01*
X-10444002Y-59919009D02*
X-10444002Y-73920007D01*
X-15494003Y-59919009D02*
X-29495001Y-59919009D01*
X-15494003Y-73920007D02*
X-15494003Y-59919009D01*
X-29495001Y-73920007D02*
X-15494003Y-73920007D01*
X-29495001Y-59919009D02*
X-29495001Y-73920007D01*
X308355977Y-78970008D02*
X294355977Y-78970008D01*
X308355977Y-92970006D02*
X308355977Y-78970008D01*
X294355977Y-92970006D02*
X308355977Y-92970006D01*
X294355977Y-78970008D02*
X294355977Y-92970006D01*
X289305958Y-78970008D02*
X275305958Y-78970008D01*
X289305958Y-92970006D02*
X289305958Y-78970008D01*
X275305958Y-92970006D02*
X289305958Y-92970006D01*
X275305958Y-78970008D02*
X275305958Y-92970006D01*
X270255970Y-78970008D02*
X256255970Y-78970008D01*
X270255970Y-92970006D02*
X270255970Y-78970008D01*
X256255970Y-92970006D02*
X270255970Y-92970006D01*
X256255970Y-78970008D02*
X256255970Y-92970006D01*
X205961979Y-78970008D02*
X191961979Y-78970008D01*
X205961979Y-92970006D02*
X205961979Y-78970008D01*
X191961979Y-92970006D02*
X205961979Y-92970006D01*
X191961979Y-78970008D02*
X191961979Y-92970006D01*
X179767979Y-78970008D02*
X165767979Y-78970008D01*
X179767979Y-92970006D02*
X179767979Y-78970008D01*
X165767979Y-92970006D02*
X179767979Y-92970006D01*
X165767979Y-78970008D02*
X165767979Y-92970006D01*
X160717991Y-78970008D02*
X146717991Y-78970008D01*
X160717991Y-92970006D02*
X160717991Y-78970008D01*
X146717991Y-92970006D02*
X160717991Y-92970006D01*
X146717991Y-78970008D02*
X146717991Y-92970006D01*
X141667988Y-78970008D02*
X127667988Y-78970008D01*
X141667988Y-92970006D02*
X141667988Y-78970008D01*
X127667988Y-92970006D02*
X141667988Y-92970006D01*
X127667988Y-78970008D02*
X127667988Y-92970006D01*
X122617985Y-78970008D02*
X108617985Y-78970008D01*
X122617985Y-92970006D02*
X122617985Y-78970008D01*
X108617985Y-92970006D02*
X122617985Y-92970006D01*
X108617985Y-78970008D02*
X108617985Y-92970006D01*
X103567982Y-78970008D02*
X89566990Y-78970008D01*
X103567982Y-92970006D02*
X103567982Y-78970008D01*
X89566990Y-92970006D02*
X103567982Y-92970006D01*
X89566990Y-78970008D02*
X89566990Y-92970006D01*
X84517994Y-78970008D02*
X70517994Y-78970008D01*
X84517994Y-92970006D02*
X84517994Y-78970008D01*
X70517994Y-92970006D02*
X84517994Y-92970006D01*
X70517994Y-78970008D02*
X70517994Y-92970006D01*
X65467991Y-78970008D02*
X51467991Y-78970008D01*
X65467991Y-92970006D02*
X65467991Y-78970008D01*
X51467991Y-92970006D02*
X65467991Y-92970006D01*
X51467991Y-78970008D02*
X51467991Y-92970006D01*
X46417996Y-78970008D02*
X32417996Y-78970008D01*
X46417996Y-92970006D02*
X46417996Y-78970008D01*
X32417996Y-92970006D02*
X46417996Y-92970006D01*
X32417996Y-78970008D02*
X32417996Y-92970006D01*
X27367993Y-78970008D02*
X13367997Y-78970008D01*
X27367993Y-92970006D02*
X27367993Y-78970008D01*
X13367997Y-92970006D02*
X27367993Y-92970006D01*
X13367997Y-78970008D02*
X13367997Y-92970006D01*
X8317997Y-78970008D02*
X-5682003Y-78970008D01*
X8317997Y-92970006D02*
X8317997Y-78970008D01*
X-5682003Y-92970006D02*
X8317997Y-92970006D01*
X-5682003Y-78970008D02*
X-5682003Y-92970006D01*
X-13113002Y-78970008D02*
X-27113001Y-78970008D01*
X-13113002Y-92970006D02*
X-13113002Y-78970008D01*
X-27113001Y-92970006D02*
X-13113002Y-92970006D01*
X-27113001Y-78970008D02*
X-27113001Y-92970006D01*
X308355977Y-98020006D02*
X294355977Y-98020006D01*
X308355977Y-112020006D02*
X308355977Y-98020006D01*
X294355977Y-112020006D02*
X308355977Y-112020006D01*
X294355977Y-98020006D02*
X294355977Y-112020006D01*
X289305958Y-98020006D02*
X275305958Y-98020006D01*
X289305958Y-112020006D02*
X289305958Y-98020006D01*
X275305958Y-112020006D02*
X289305958Y-112020006D01*
X275305958Y-98020006D02*
X275305958Y-112020006D01*
X270255970Y-98020006D02*
X256255970Y-98020006D01*
X270255970Y-112020006D02*
X270255970Y-98020006D01*
X256255970Y-112020006D02*
X270255970Y-112020006D01*
X256255970Y-98020006D02*
X256255970Y-112020006D01*
X210723988Y-98020006D02*
X196723988Y-98020006D01*
X210723988Y-112020006D02*
X210723988Y-98020006D01*
X196723988Y-112020006D02*
X210723988Y-112020006D01*
X196723988Y-98020006D02*
X196723988Y-112020006D01*
X189292988Y-98020006D02*
X175292988Y-98020006D01*
X189292988Y-112020006D02*
X189292988Y-98020006D01*
X175292988Y-112020006D02*
X189292988Y-112020006D01*
X175292988Y-98020006D02*
X175292988Y-112020006D01*
X170242985Y-98020006D02*
X156242985Y-98020006D01*
X170242985Y-112020006D02*
X170242985Y-98020006D01*
X156242985Y-112020006D02*
X170242985Y-112020006D01*
X156242985Y-98020006D02*
X156242985Y-112020006D01*
X151192982Y-98020006D02*
X137192982Y-98020006D01*
X151192982Y-112020006D02*
X151192982Y-98020006D01*
X137192982Y-112020006D02*
X151192982Y-112020006D01*
X137192982Y-98020006D02*
X137192982Y-112020006D01*
X132142979Y-98020006D02*
X118142979Y-98020006D01*
X132142979Y-112020006D02*
X132142979Y-98020006D01*
X118142979Y-112020006D02*
X132142979Y-112020006D01*
X118142979Y-98020006D02*
X118142979Y-112020006D01*
X113092991Y-98020006D02*
X99092991Y-98020006D01*
X113092991Y-112020006D02*
X113092991Y-98020006D01*
X99092991Y-112020006D02*
X113092991Y-112020006D01*
X99092991Y-98020006D02*
X99092991Y-112020006D01*
X94042988Y-98020006D02*
X80042996Y-98020006D01*
X94042988Y-112020006D02*
X94042988Y-98020006D01*
X80042996Y-112020006D02*
X94042988Y-112020006D01*
X80042996Y-98020006D02*
X80042996Y-112020006D01*
X74992993Y-98020006D02*
X60992993Y-98020006D01*
X74992993Y-112020006D02*
X74992993Y-98020006D01*
X60992993Y-112020006D02*
X74992993Y-112020006D01*
X60992993Y-98020006D02*
X60992993Y-112020006D01*
X55942990Y-98020006D02*
X41942990Y-98020006D01*
X55942990Y-112020006D02*
X55942990Y-98020006D01*
X41942990Y-112020006D02*
X55942990Y-112020006D01*
X41942990Y-98020006D02*
X41942990Y-112020006D01*
X36892994Y-98020006D02*
X22892994Y-98020006D01*
X36892994Y-112020006D02*
X36892994Y-98020006D01*
X22892994Y-112020006D02*
X36892994Y-112020006D01*
X22892994Y-98020006D02*
X22892994Y-112020006D01*
X17842995Y-98020006D02*
X3842995Y-98020006D01*
X17842995Y-112020006D02*
X17842995Y-98020006D01*
X3842995Y-112020006D02*
X17842995Y-112020006D01*
X3842995Y-98020006D02*
X3842995Y-112020006D01*
X-8351001Y-98020006D02*
X-22351001Y-98020006D01*
X-8351001Y-112020006D02*
X-8351001Y-98020006D01*
X-22351001Y-112020006D02*
X-8351001Y-112020006D01*
X-22351001Y-98020006D02*
X-22351001Y-112020006D01*
X241680958Y-107545007D02*
X227680958Y-107545007D01*
X241680958Y-121545003D02*
X241680958Y-107545007D01*
X227680958Y-121545003D02*
X241680958Y-121545003D01*
X227680958Y-107545007D02*
X227680958Y-121545003D01*
X308355977Y-117070005D02*
X294355977Y-117070005D01*
X308355977Y-131070005D02*
X308355977Y-117070005D01*
X294355977Y-131070005D02*
X308355977Y-131070005D01*
X294355977Y-117070005D02*
X294355977Y-131070005D01*
X289305958Y-117070005D02*
X275305958Y-117070005D01*
X289305958Y-131070005D02*
X289305958Y-117070005D01*
X275305958Y-131070005D02*
X289305958Y-131070005D01*
X275305958Y-117070005D02*
X275305958Y-131070005D01*
X191673985Y-117070005D02*
X177673985Y-117070005D01*
X191673985Y-131070005D02*
X191673985Y-117070005D01*
X177673985Y-131070005D02*
X191673985Y-131070005D01*
X177673985Y-117070005D02*
X177673985Y-131070005D01*
X167861989Y-117070005D02*
X153861989Y-117070005D01*
X167861989Y-131070005D02*
X167861989Y-117070005D01*
X153861989Y-131070005D02*
X167861989Y-131070005D01*
X153861989Y-117070005D02*
X153861989Y-131070005D01*
X10698998Y-117070005D02*
X-3301002Y-117070005D01*
X10698998Y-131070005D02*
X10698998Y-117070005D01*
X-3301002Y-131070005D02*
X10698998Y-131070005D01*
X-3301002Y-117070005D02*
X-3301002Y-131070005D01*
X-13113002Y-117070005D02*
X-27113001Y-117070005D01*
X-13113002Y-131070005D02*
X-13113002Y-117070005D01*
X-27113001Y-131070005D02*
X-13113002Y-131070005D01*
X-27113001Y-117070005D02*
X-27113001Y-131070005D01*
X89280980Y-117070005D02*
X75280995Y-117070005D01*
X89280980Y-121770002D02*
X89280980Y-117070005D01*
X136055989Y-121770002D02*
X89280980Y-121770002D01*
X136055989Y-118540006D02*
X136055989Y-121770002D01*
X137780980Y-118540006D02*
X136055989Y-118540006D01*
X137780980Y-117620000D02*
X137780980Y-118540006D01*
X141080983Y-117620000D02*
X137780980Y-117620000D01*
X141080983Y-118540006D02*
X141080983Y-117620000D01*
X142805989Y-118540006D02*
X141080983Y-118540006D01*
X142805989Y-121770002D02*
X142805989Y-118540006D01*
X143630986Y-121770002D02*
X142805989Y-121770002D01*
X143630986Y-124570005D02*
X143630986Y-121770002D01*
X142805989Y-124570005D02*
X143630986Y-124570005D01*
X142805989Y-130840002D02*
X142805989Y-124570005D01*
X141080983Y-130840002D02*
X142805989Y-130840002D01*
X141080983Y-131820005D02*
X141080983Y-130840002D01*
X137780980Y-131820005D02*
X141080983Y-131820005D01*
X137780980Y-130840002D02*
X137780980Y-131820005D01*
X136055989Y-130840002D02*
X137780980Y-130840002D01*
X136055989Y-126370000D02*
X136055989Y-130840002D01*
X89280980Y-126370000D02*
X136055989Y-126370000D01*
X89280980Y-131070005D02*
X89280980Y-126370000D01*
X75280995Y-131070005D02*
X89280980Y-131070005D01*
X75280995Y-126370000D02*
X75280995Y-131070005D01*
X28505993Y-126370000D02*
X75280995Y-126370000D01*
X28505993Y-130840002D02*
X28505993Y-126370000D01*
X26780995Y-130840002D02*
X28505993Y-130840002D01*
X26780995Y-131820005D02*
X26780995Y-130840002D01*
X23480996Y-131820005D02*
X26780995Y-131820005D01*
X23480996Y-130840002D02*
X23480996Y-131820005D01*
X21755997Y-130840002D02*
X23480996Y-130840002D01*
X21755997Y-124570005D02*
X21755997Y-130840002D01*
X20929997Y-124570005D02*
X21755997Y-124570005D01*
X20929997Y-121770002D02*
X20929997Y-124570005D01*
X21755997Y-121770002D02*
X20929997Y-121770002D01*
X21755997Y-118540006D02*
X21755997Y-121770002D01*
X23480996Y-118540006D02*
X21755997Y-118540006D01*
X23480996Y-117620000D02*
X23480996Y-118540006D01*
X26780995Y-117620000D02*
X23480996Y-117620000D01*
X26780995Y-118540006D02*
X26780995Y-117620000D01*
X28505993Y-118540006D02*
X26780995Y-118540006D01*
X28505993Y-121770002D02*
X28505993Y-118540006D01*
X75280995Y-121770002D02*
X28505993Y-121770002D01*
X75280995Y-117070005D02*
X75280995Y-121770002D01*
X260730977Y-126594999D02*
X246730977Y-126594999D01*
X260730977Y-140594999D02*
X260730977Y-126594999D01*
X246730977Y-140594999D02*
X260730977Y-140594999D01*
X246730977Y-126594999D02*
X246730977Y-140594999D01*
X241680958Y-126594999D02*
X227680958Y-126594999D01*
X241680958Y-140594999D02*
X241680958Y-126594999D01*
X227680958Y-140594999D02*
X241680958Y-140594999D01*
X227680958Y-126594999D02*
X227680958Y-140594999D01*
X222629963Y-126594999D02*
X208630986Y-126594999D01*
X222629963Y-140594999D02*
X222629963Y-126594999D01*
X208630986Y-140594999D02*
X222629963Y-140594999D01*
X208630986Y-126594999D02*
X208630986Y-140594999D01*
X-29019001Y-55394010D02*
X307881978Y-55395009D01*
X-29412001Y-55410009D02*
X-29019001Y-55394010D01*
X-29802001Y-55456009D02*
X-29412001Y-55410009D01*
X-30187001Y-55533009D02*
X-29802001Y-55456009D01*
X-30565001Y-55639009D02*
X-30187001Y-55533009D01*
X-30933001Y-55775010D02*
X-30565001Y-55639009D01*
X-31289001Y-55939010D02*
X-30933001Y-55775010D01*
X-31632000Y-56131010D02*
X-31289001Y-55939010D01*
X-31958001Y-56349009D02*
X-31632000Y-56131010D01*
X-32267001Y-56592009D02*
X-31958001Y-56349009D01*
X-32555000Y-56859010D02*
X-32267001Y-56592009D01*
X-32822001Y-57147009D02*
X-32555000Y-56859010D01*
X-33065001Y-57456009D02*
X-32822001Y-57147009D01*
X-33283000Y-57782010D02*
X-33065001Y-57456009D01*
X-33475000Y-58125009D02*
X-33283000Y-57782010D01*
X-33639000Y-58481009D02*
X-33475000Y-58125009D01*
X-33775001Y-58849009D02*
X-33639000Y-58481009D01*
X-33881001Y-59227009D02*
X-33775001Y-58849009D01*
X-33958001Y-59612009D02*
X-33881001Y-59227009D01*
X-34004001Y-60002009D02*
X-33958001Y-59612009D01*
X-34019001Y-60395009D02*
X-34004001Y-60002009D01*
X312865956Y-60002009D02*
X312880970Y-60395009D01*
X312819966Y-59612009D02*
X312865956Y-60002009D01*
X312742970Y-59227009D02*
X312819966Y-59612009D01*
X312636982Y-58849009D02*
X312742970Y-59227009D01*
X312500966Y-58481009D02*
X312636982Y-58849009D01*
X312336964Y-58125009D02*
X312500966Y-58481009D01*
X312144978Y-57782010D02*
X312336964Y-58125009D01*
X311926960Y-57456009D02*
X312144978Y-57782010D01*
X311683979Y-57147009D02*
X311926960Y-57456009D01*
X311416981Y-56859010D02*
X311683979Y-57147009D01*
X311128956Y-56592009D02*
X311416981Y-56859010D01*
X310819966Y-56349009D02*
X311128956Y-56592009D01*
X310493977Y-56131010D02*
X310819966Y-56349009D01*
X310150959Y-55939010D02*
X310493977Y-56131010D01*
X309794972Y-55775010D02*
X310150959Y-55939010D01*
X309426960Y-55639009D02*
X309794972Y-55775010D01*
X309048970Y-55533009D02*
X309426960Y-55639009D01*
X308663960Y-55456009D02*
X309048970Y-55533009D01*
X308273976Y-55410009D02*
X308663960Y-55456009D01*
X307881978Y-55395009D02*
X308273976Y-55410009D01*
M02*
