%TF.GenerationSoftware,KiCad,Pcbnew,7.0.1*%
%TF.CreationDate,2023-04-18T10:43:31-07:00*%
%TF.ProjectId,switchplate,73776974-6368-4706-9c61-74652e6b6963,rev?*%
%TF.SameCoordinates,Original*%
%TF.FileFunction,Drillmap*%
%TF.FilePolarity,Positive*%
%FSLAX45Y45*%
G04 Gerber Fmt 4.5, Leading zero omitted, Abs format (unit mm)*
G04 Created by KiCad (PCBNEW 7.0.1) date 2023-04-18 10:43:31*
%MOMM*%
%LPD*%
G01*
G04 APERTURE LIST*
%ADD10C,0.200000*%
%ADD11C,0.188976*%
G04 APERTURE END LIST*
D10*
X25047767Y-7686000D02*
G75*
G03*
X25047767Y-7686000I-1508767J0D01*
G01*
X30786394Y-13786793D02*
G75*
G03*
X31286603Y-13286894I206J500003D01*
G01*
X26000248Y-14513250D02*
G75*
G03*
X26500000Y-14013248I-248J500000D01*
G01*
X20447998Y-14015752D02*
G75*
G03*
X20948248Y-14515752I500002J2D01*
G01*
X-3399189Y-13215979D02*
G75*
G03*
X-2898979Y-13715790I500000J189D01*
G01*
X-3399189Y-13215979D02*
X-3401900Y-6039501D01*
X31286603Y-13286894D02*
X31288097Y-6039501D01*
X20948248Y-14515752D02*
X26000248Y-14513248D01*
X26500000Y-13785000D02*
X30786394Y-13786791D01*
X26500000Y-14013248D02*
X26500000Y-13785000D01*
X20448000Y-13706000D02*
X20448000Y-14015752D01*
X-2898979Y-13715790D02*
X20448000Y-13706000D01*
D11*
X30835598Y-5991901D02*
X29435598Y-5991901D01*
X30835598Y-7392001D02*
X30835598Y-5991901D01*
X29435598Y-7392001D02*
X30835598Y-7392001D01*
X29435598Y-5991901D02*
X29435598Y-7392001D01*
X28930596Y-5991901D02*
X27530596Y-5991901D01*
X28930596Y-7392001D02*
X28930596Y-5991901D01*
X27530596Y-7392001D02*
X28930596Y-7392001D01*
X27530596Y-5991901D02*
X27530596Y-7392001D01*
X27025597Y-5991901D02*
X25625597Y-5991901D01*
X27025597Y-7392001D02*
X27025597Y-5991901D01*
X25625597Y-7392001D02*
X27025597Y-7392001D01*
X25625597Y-5991901D02*
X25625597Y-7392001D01*
X21310599Y-5991901D02*
X19910599Y-5991901D01*
X21310599Y-7392001D02*
X21310599Y-5991901D01*
X19910599Y-7392001D02*
X21310599Y-7392001D01*
X19910599Y-5991901D02*
X19910599Y-7392001D01*
X19405599Y-5991901D02*
X18005599Y-5991901D01*
X19405599Y-7392001D02*
X19405599Y-5991901D01*
X18005599Y-7392001D02*
X19405599Y-7392001D01*
X18005599Y-5991901D02*
X18005599Y-7392001D01*
X17500599Y-5991901D02*
X16100599Y-5991901D01*
X17500599Y-7392001D02*
X17500599Y-5991901D01*
X16100599Y-7392001D02*
X17500599Y-7392001D01*
X16100599Y-5991901D02*
X16100599Y-7392001D01*
X15595598Y-5991901D02*
X14195598Y-5991901D01*
X15595598Y-7392001D02*
X15595598Y-5991901D01*
X14195598Y-7392001D02*
X15595598Y-7392001D01*
X14195598Y-5991901D02*
X14195598Y-7392001D01*
X13690598Y-5991901D02*
X12290598Y-5991901D01*
X13690598Y-7392001D02*
X13690598Y-5991901D01*
X12290598Y-7392001D02*
X13690598Y-7392001D01*
X12290598Y-5991901D02*
X12290598Y-7392001D01*
X11785599Y-5991901D02*
X10385599Y-5991901D01*
X11785599Y-7392001D02*
X11785599Y-5991901D01*
X10385599Y-7392001D02*
X11785599Y-7392001D01*
X10385599Y-5991901D02*
X10385599Y-7392001D01*
X9880599Y-5991901D02*
X8480499Y-5991901D01*
X9880599Y-7392001D02*
X9880599Y-5991901D01*
X8480499Y-7392001D02*
X9880599Y-7392001D01*
X8480499Y-5991901D02*
X8480499Y-7392001D01*
X7975499Y-5991901D02*
X6575499Y-5991901D01*
X7975499Y-7392001D02*
X7975499Y-5991901D01*
X6575499Y-7392001D02*
X7975499Y-7392001D01*
X6575499Y-5991901D02*
X6575499Y-7392001D01*
X6070599Y-5991901D02*
X4670599Y-5991901D01*
X6070599Y-7392001D02*
X6070599Y-5991901D01*
X4670599Y-7392001D02*
X6070599Y-7392001D01*
X4670599Y-5991901D02*
X4670599Y-7392001D01*
X4165599Y-5991901D02*
X2765600Y-5991901D01*
X4165599Y-7392001D02*
X4165599Y-5991901D01*
X2765600Y-7392001D02*
X4165599Y-7392001D01*
X2765600Y-5991901D02*
X2765600Y-7392001D01*
X2260600Y-5991901D02*
X860600Y-5991901D01*
X2260600Y-7392001D02*
X2260600Y-5991901D01*
X860600Y-7392001D02*
X2260600Y-7392001D01*
X860600Y-5991901D02*
X860600Y-7392001D01*
X355600Y-5991901D02*
X-1044400Y-5991901D01*
X355600Y-7392001D02*
X355600Y-5991901D01*
X-1044400Y-7392001D02*
X355600Y-7392001D01*
X-1044400Y-5991901D02*
X-1044400Y-7392001D01*
X-1549400Y-5991901D02*
X-2949500Y-5991901D01*
X-1549400Y-7392001D02*
X-1549400Y-5991901D01*
X-2949500Y-7392001D02*
X-1549400Y-7392001D01*
X-2949500Y-5991901D02*
X-2949500Y-7392001D01*
X30835598Y-7897001D02*
X29435598Y-7897001D01*
X30835598Y-9297001D02*
X30835598Y-7897001D01*
X29435598Y-9297001D02*
X30835598Y-9297001D01*
X29435598Y-7897001D02*
X29435598Y-9297001D01*
X28930596Y-7897001D02*
X27530596Y-7897001D01*
X28930596Y-9297001D02*
X28930596Y-7897001D01*
X27530596Y-9297001D02*
X28930596Y-9297001D01*
X27530596Y-7897001D02*
X27530596Y-9297001D01*
X27025597Y-7897001D02*
X25625597Y-7897001D01*
X27025597Y-9297001D02*
X27025597Y-7897001D01*
X25625597Y-9297001D02*
X27025597Y-9297001D01*
X25625597Y-7897001D02*
X25625597Y-9297001D01*
X20596198Y-7897001D02*
X19196198Y-7897001D01*
X20596198Y-9297001D02*
X20596198Y-7897001D01*
X19196198Y-9297001D02*
X20596198Y-9297001D01*
X19196198Y-7897001D02*
X19196198Y-9297001D01*
X17976798Y-7897001D02*
X16576798Y-7897001D01*
X17976798Y-9297001D02*
X17976798Y-7897001D01*
X16576798Y-9297001D02*
X17976798Y-9297001D01*
X16576798Y-7897001D02*
X16576798Y-9297001D01*
X16071799Y-7897001D02*
X14671799Y-7897001D01*
X16071799Y-9297001D02*
X16071799Y-7897001D01*
X14671799Y-9297001D02*
X16071799Y-9297001D01*
X14671799Y-7897001D02*
X14671799Y-9297001D01*
X14166799Y-7897001D02*
X12766799Y-7897001D01*
X14166799Y-9297001D02*
X14166799Y-7897001D01*
X12766799Y-9297001D02*
X14166799Y-9297001D01*
X12766799Y-7897001D02*
X12766799Y-9297001D01*
X12261798Y-7897001D02*
X10861799Y-7897001D01*
X12261798Y-9297001D02*
X12261798Y-7897001D01*
X10861799Y-9297001D02*
X12261798Y-9297001D01*
X10861799Y-7897001D02*
X10861799Y-9297001D01*
X10356798Y-7897001D02*
X8956699Y-7897001D01*
X10356798Y-9297001D02*
X10356798Y-7897001D01*
X8956699Y-9297001D02*
X10356798Y-9297001D01*
X8956699Y-7897001D02*
X8956699Y-9297001D01*
X8451799Y-7897001D02*
X7051799Y-7897001D01*
X8451799Y-9297001D02*
X8451799Y-7897001D01*
X7051799Y-9297001D02*
X8451799Y-9297001D01*
X7051799Y-7897001D02*
X7051799Y-9297001D01*
X6546799Y-7897001D02*
X5146799Y-7897001D01*
X6546799Y-9297001D02*
X6546799Y-7897001D01*
X5146799Y-9297001D02*
X6546799Y-9297001D01*
X5146799Y-7897001D02*
X5146799Y-9297001D01*
X4641800Y-7897001D02*
X3241800Y-7897001D01*
X4641800Y-9297001D02*
X4641800Y-7897001D01*
X3241800Y-9297001D02*
X4641800Y-9297001D01*
X3241800Y-7897001D02*
X3241800Y-9297001D01*
X2736799Y-7897001D02*
X1336800Y-7897001D01*
X2736799Y-9297001D02*
X2736799Y-7897001D01*
X1336800Y-9297001D02*
X2736799Y-9297001D01*
X1336800Y-7897001D02*
X1336800Y-9297001D01*
X831800Y-7897001D02*
X-568200Y-7897001D01*
X831800Y-9297001D02*
X831800Y-7897001D01*
X-568200Y-9297001D02*
X831800Y-9297001D01*
X-568200Y-7897001D02*
X-568200Y-9297001D01*
X-1311300Y-7897001D02*
X-2711300Y-7897001D01*
X-1311300Y-9297001D02*
X-1311300Y-7897001D01*
X-2711300Y-9297001D02*
X-1311300Y-9297001D01*
X-2711300Y-7897001D02*
X-2711300Y-9297001D01*
X30835598Y-9802001D02*
X29435598Y-9802001D01*
X30835598Y-11202001D02*
X30835598Y-9802001D01*
X29435598Y-11202001D02*
X30835598Y-11202001D01*
X29435598Y-9802001D02*
X29435598Y-11202001D01*
X28930596Y-9802001D02*
X27530596Y-9802001D01*
X28930596Y-11202001D02*
X28930596Y-9802001D01*
X27530596Y-11202001D02*
X28930596Y-11202001D01*
X27530596Y-9802001D02*
X27530596Y-11202001D01*
X27025597Y-9802001D02*
X25625597Y-9802001D01*
X27025597Y-11202001D02*
X27025597Y-9802001D01*
X25625597Y-11202001D02*
X27025597Y-11202001D01*
X25625597Y-9802001D02*
X25625597Y-11202001D01*
X21072399Y-9802001D02*
X19672399Y-9802001D01*
X21072399Y-11202001D02*
X21072399Y-9802001D01*
X19672399Y-11202001D02*
X21072399Y-11202001D01*
X19672399Y-9802001D02*
X19672399Y-11202001D01*
X18929299Y-9802001D02*
X17529299Y-9802001D01*
X18929299Y-11202001D02*
X18929299Y-9802001D01*
X17529299Y-11202001D02*
X18929299Y-11202001D01*
X17529299Y-9802001D02*
X17529299Y-11202001D01*
X17024299Y-9802001D02*
X15624298Y-9802001D01*
X17024299Y-11202001D02*
X17024299Y-9802001D01*
X15624298Y-11202001D02*
X17024299Y-11202001D01*
X15624298Y-9802001D02*
X15624298Y-11202001D01*
X15119298Y-9802001D02*
X13719298Y-9802001D01*
X15119298Y-11202001D02*
X15119298Y-9802001D01*
X13719298Y-11202001D02*
X15119298Y-11202001D01*
X13719298Y-9802001D02*
X13719298Y-11202001D01*
X13214298Y-9802001D02*
X11814298Y-9802001D01*
X13214298Y-11202001D02*
X13214298Y-9802001D01*
X11814298Y-11202001D02*
X13214298Y-11202001D01*
X11814298Y-9802001D02*
X11814298Y-11202001D01*
X11309299Y-9802001D02*
X9909299Y-9802001D01*
X11309299Y-11202001D02*
X11309299Y-9802001D01*
X9909299Y-11202001D02*
X11309299Y-11202001D01*
X9909299Y-9802001D02*
X9909299Y-11202001D01*
X9404299Y-9802001D02*
X8004300Y-9802001D01*
X9404299Y-11202001D02*
X9404299Y-9802001D01*
X8004300Y-11202001D02*
X9404299Y-11202001D01*
X8004300Y-9802001D02*
X8004300Y-11202001D01*
X7499299Y-9802001D02*
X6099299Y-9802001D01*
X7499299Y-11202001D02*
X7499299Y-9802001D01*
X6099299Y-11202001D02*
X7499299Y-11202001D01*
X6099299Y-9802001D02*
X6099299Y-11202001D01*
X5594299Y-9802001D02*
X4194299Y-9802001D01*
X5594299Y-11202001D02*
X5594299Y-9802001D01*
X4194299Y-11202001D02*
X5594299Y-11202001D01*
X4194299Y-9802001D02*
X4194299Y-11202001D01*
X3689299Y-9802001D02*
X2289299Y-9802001D01*
X3689299Y-11202001D02*
X3689299Y-9802001D01*
X2289299Y-11202001D02*
X3689299Y-11202001D01*
X2289299Y-9802001D02*
X2289299Y-11202001D01*
X1784299Y-9802001D02*
X384299Y-9802001D01*
X1784299Y-11202001D02*
X1784299Y-9802001D01*
X384299Y-11202001D02*
X1784299Y-11202001D01*
X384299Y-9802001D02*
X384299Y-11202001D01*
X-835100Y-9802001D02*
X-2235100Y-9802001D01*
X-835100Y-11202001D02*
X-835100Y-9802001D01*
X-2235100Y-11202001D02*
X-835100Y-11202001D01*
X-2235100Y-9802001D02*
X-2235100Y-11202001D01*
X24168096Y-10754501D02*
X22768096Y-10754501D01*
X24168096Y-12154500D02*
X24168096Y-10754501D01*
X22768096Y-12154500D02*
X24168096Y-12154500D01*
X22768096Y-10754501D02*
X22768096Y-12154500D01*
X30835598Y-11707000D02*
X29435598Y-11707000D01*
X30835598Y-13107000D02*
X30835598Y-11707000D01*
X29435598Y-13107000D02*
X30835598Y-13107000D01*
X29435598Y-11707000D02*
X29435598Y-13107000D01*
X28930596Y-11707000D02*
X27530596Y-11707000D01*
X28930596Y-13107000D02*
X28930596Y-11707000D01*
X27530596Y-13107000D02*
X28930596Y-13107000D01*
X27530596Y-11707000D02*
X27530596Y-13107000D01*
X19167399Y-11707000D02*
X17767399Y-11707000D01*
X19167399Y-13107000D02*
X19167399Y-11707000D01*
X17767399Y-13107000D02*
X19167399Y-13107000D01*
X17767399Y-11707000D02*
X17767399Y-13107000D01*
X16786199Y-11707000D02*
X15386199Y-11707000D01*
X16786199Y-13107000D02*
X16786199Y-11707000D01*
X15386199Y-13107000D02*
X16786199Y-13107000D01*
X15386199Y-11707000D02*
X15386199Y-13107000D01*
X1069900Y-11707000D02*
X-330100Y-11707000D01*
X1069900Y-13107000D02*
X1069900Y-11707000D01*
X-330100Y-13107000D02*
X1069900Y-13107000D01*
X-330100Y-11707000D02*
X-330100Y-13107000D01*
X-1311300Y-11707000D02*
X-2711300Y-11707000D01*
X-1311300Y-13107000D02*
X-1311300Y-11707000D01*
X-2711300Y-13107000D02*
X-1311300Y-13107000D01*
X-2711300Y-11707000D02*
X-2711300Y-13107000D01*
X8928098Y-11707000D02*
X7528099Y-11707000D01*
X8928098Y-12177000D02*
X8928098Y-11707000D01*
X13605599Y-12177000D02*
X8928098Y-12177000D01*
X13605599Y-11854001D02*
X13605599Y-12177000D01*
X13778098Y-11854001D02*
X13605599Y-11854001D01*
X13778098Y-11762000D02*
X13778098Y-11854001D01*
X14108098Y-11762000D02*
X13778098Y-11762000D01*
X14108098Y-11854001D02*
X14108098Y-11762000D01*
X14280599Y-11854001D02*
X14108098Y-11854001D01*
X14280599Y-12177000D02*
X14280599Y-11854001D01*
X14363099Y-12177000D02*
X14280599Y-12177000D01*
X14363099Y-12457000D02*
X14363099Y-12177000D01*
X14280599Y-12457000D02*
X14363099Y-12457000D01*
X14280599Y-13084000D02*
X14280599Y-12457000D01*
X14108098Y-13084000D02*
X14280599Y-13084000D01*
X14108098Y-13182000D02*
X14108098Y-13084000D01*
X13778098Y-13182000D02*
X14108098Y-13182000D01*
X13778098Y-13084000D02*
X13778098Y-13182000D01*
X13605599Y-13084000D02*
X13778098Y-13084000D01*
X13605599Y-12637000D02*
X13605599Y-13084000D01*
X8928098Y-12637000D02*
X13605599Y-12637000D01*
X8928098Y-13107000D02*
X8928098Y-12637000D01*
X7528099Y-13107000D02*
X8928098Y-13107000D01*
X7528099Y-12637000D02*
X7528099Y-13107000D01*
X2850599Y-12637000D02*
X7528099Y-12637000D01*
X2850599Y-13084000D02*
X2850599Y-12637000D01*
X2678100Y-13084000D02*
X2850599Y-13084000D01*
X2678100Y-13182000D02*
X2678100Y-13084000D01*
X2348100Y-13182000D02*
X2678100Y-13182000D01*
X2348100Y-13084000D02*
X2348100Y-13182000D01*
X2175600Y-13084000D02*
X2348100Y-13084000D01*
X2175600Y-12457000D02*
X2175600Y-13084000D01*
X2093000Y-12457000D02*
X2175600Y-12457000D01*
X2093000Y-12177000D02*
X2093000Y-12457000D01*
X2175600Y-12177000D02*
X2093000Y-12177000D01*
X2175600Y-11854001D02*
X2175600Y-12177000D01*
X2348100Y-11854001D02*
X2175600Y-11854001D01*
X2348100Y-11762000D02*
X2348100Y-11854001D01*
X2678100Y-11762000D02*
X2348100Y-11762000D01*
X2678100Y-11854001D02*
X2678100Y-11762000D01*
X2850599Y-11854001D02*
X2678100Y-11854001D01*
X2850599Y-12177000D02*
X2850599Y-11854001D01*
X7528099Y-12177000D02*
X2850599Y-12177000D01*
X7528099Y-11707000D02*
X7528099Y-12177000D01*
X26073098Y-12659500D02*
X24673098Y-12659500D01*
X26073098Y-14059500D02*
X26073098Y-12659500D01*
X24673098Y-14059500D02*
X26073098Y-14059500D01*
X24673098Y-12659500D02*
X24673098Y-14059500D01*
X24168096Y-12659500D02*
X22768096Y-12659500D01*
X24168096Y-14059500D02*
X24168096Y-12659500D01*
X22768096Y-14059500D02*
X24168096Y-14059500D01*
X22768096Y-12659500D02*
X22768096Y-14059500D01*
X22262996Y-12659500D02*
X20863099Y-12659500D01*
X22262996Y-14059500D02*
X22262996Y-12659500D01*
X20863099Y-14059500D02*
X22262996Y-14059500D01*
X20863099Y-12659500D02*
X20863099Y-14059500D01*
X-2901900Y-5539401D02*
X30788198Y-5539501D01*
X-2941200Y-5541001D02*
X-2901900Y-5539401D01*
X-2980200Y-5545601D02*
X-2941200Y-5541001D01*
X-3018700Y-5553301D02*
X-2980200Y-5545601D01*
X-3056500Y-5563901D02*
X-3018700Y-5553301D01*
X-3093300Y-5577501D02*
X-3056500Y-5563901D01*
X-3128900Y-5593901D02*
X-3093300Y-5577501D01*
X-3163200Y-5613101D02*
X-3128900Y-5593901D01*
X-3195800Y-5634901D02*
X-3163200Y-5613101D01*
X-3226700Y-5659201D02*
X-3195800Y-5634901D01*
X-3255500Y-5685901D02*
X-3226700Y-5659201D01*
X-3282200Y-5714701D02*
X-3255500Y-5685901D01*
X-3306500Y-5745601D02*
X-3282200Y-5714701D01*
X-3328300Y-5778201D02*
X-3306500Y-5745601D01*
X-3347500Y-5812501D02*
X-3328300Y-5778201D01*
X-3363900Y-5848101D02*
X-3347500Y-5812501D01*
X-3377500Y-5884901D02*
X-3363900Y-5848101D01*
X-3388100Y-5922701D02*
X-3377500Y-5884901D01*
X-3395800Y-5961201D02*
X-3388100Y-5922701D01*
X-3400400Y-6000201D02*
X-3395800Y-5961201D01*
X-3401900Y-6039501D02*
X-3400400Y-6000201D01*
X31286596Y-6000201D02*
X31288097Y-6039501D01*
X31281997Y-5961201D02*
X31286596Y-6000201D01*
X31274297Y-5922701D02*
X31281997Y-5961201D01*
X31263698Y-5884901D02*
X31274297Y-5922701D01*
X31250097Y-5848101D02*
X31263698Y-5884901D01*
X31233696Y-5812501D02*
X31250097Y-5848101D01*
X31214498Y-5778201D02*
X31233696Y-5812501D01*
X31192696Y-5745601D02*
X31214498Y-5778201D01*
X31168398Y-5714701D02*
X31192696Y-5745601D01*
X31141698Y-5685901D02*
X31168398Y-5714701D01*
X31112896Y-5659201D02*
X31141698Y-5685901D01*
X31081997Y-5634901D02*
X31112896Y-5659201D01*
X31049398Y-5613101D02*
X31081997Y-5634901D01*
X31015096Y-5593901D02*
X31049398Y-5613101D01*
X30979497Y-5577501D02*
X31015096Y-5593901D01*
X30942696Y-5563901D02*
X30979497Y-5577501D01*
X30904897Y-5553301D02*
X30942696Y-5563901D01*
X30866396Y-5545601D02*
X30904897Y-5553301D01*
X30827398Y-5541001D02*
X30866396Y-5545601D01*
X30788198Y-5539501D02*
X30827398Y-5541001D01*
D10*
X-3164281Y-14838276D02*
X-3164281Y-14638276D01*
X-3164281Y-14638276D02*
X-3116662Y-14638276D01*
X-3116662Y-14638276D02*
X-3088090Y-14647800D01*
X-3088090Y-14647800D02*
X-3069043Y-14666847D01*
X-3069043Y-14666847D02*
X-3059519Y-14685895D01*
X-3059519Y-14685895D02*
X-3049995Y-14723990D01*
X-3049995Y-14723990D02*
X-3049995Y-14752562D01*
X-3049995Y-14752562D02*
X-3059519Y-14790657D01*
X-3059519Y-14790657D02*
X-3069043Y-14809704D01*
X-3069043Y-14809704D02*
X-3088090Y-14828752D01*
X-3088090Y-14828752D02*
X-3116662Y-14838276D01*
X-3116662Y-14838276D02*
X-3164281Y-14838276D01*
X-2964281Y-14838276D02*
X-2964281Y-14704942D01*
X-2964281Y-14743038D02*
X-2954757Y-14723990D01*
X-2954757Y-14723990D02*
X-2945233Y-14714466D01*
X-2945233Y-14714466D02*
X-2926186Y-14704942D01*
X-2926186Y-14704942D02*
X-2907138Y-14704942D01*
X-2840471Y-14838276D02*
X-2840471Y-14704942D01*
X-2840471Y-14638276D02*
X-2849995Y-14647800D01*
X-2849995Y-14647800D02*
X-2840471Y-14657323D01*
X-2840471Y-14657323D02*
X-2830948Y-14647800D01*
X-2830948Y-14647800D02*
X-2840471Y-14638276D01*
X-2840471Y-14638276D02*
X-2840471Y-14657323D01*
X-2716662Y-14838276D02*
X-2735710Y-14828752D01*
X-2735710Y-14828752D02*
X-2745233Y-14809704D01*
X-2745233Y-14809704D02*
X-2745233Y-14638276D01*
X-2611900Y-14838276D02*
X-2630948Y-14828752D01*
X-2630948Y-14828752D02*
X-2640472Y-14809704D01*
X-2640472Y-14809704D02*
X-2640472Y-14638276D01*
X-2383329Y-14838276D02*
X-2383329Y-14638276D01*
X-2383329Y-14638276D02*
X-2316662Y-14781133D01*
X-2316662Y-14781133D02*
X-2249995Y-14638276D01*
X-2249995Y-14638276D02*
X-2249995Y-14838276D01*
X-2069043Y-14838276D02*
X-2069043Y-14733514D01*
X-2069043Y-14733514D02*
X-2078567Y-14714466D01*
X-2078567Y-14714466D02*
X-2097614Y-14704942D01*
X-2097614Y-14704942D02*
X-2135710Y-14704942D01*
X-2135710Y-14704942D02*
X-2154757Y-14714466D01*
X-2069043Y-14828752D02*
X-2088090Y-14838276D01*
X-2088090Y-14838276D02*
X-2135710Y-14838276D01*
X-2135710Y-14838276D02*
X-2154757Y-14828752D01*
X-2154757Y-14828752D02*
X-2164281Y-14809704D01*
X-2164281Y-14809704D02*
X-2164281Y-14790657D01*
X-2164281Y-14790657D02*
X-2154757Y-14771609D01*
X-2154757Y-14771609D02*
X-2135710Y-14762085D01*
X-2135710Y-14762085D02*
X-2088090Y-14762085D01*
X-2088090Y-14762085D02*
X-2069043Y-14752562D01*
X-1973805Y-14704942D02*
X-1973805Y-14904942D01*
X-1973805Y-14714466D02*
X-1954757Y-14704942D01*
X-1954757Y-14704942D02*
X-1916662Y-14704942D01*
X-1916662Y-14704942D02*
X-1897614Y-14714466D01*
X-1897614Y-14714466D02*
X-1888090Y-14723990D01*
X-1888090Y-14723990D02*
X-1878567Y-14743038D01*
X-1878567Y-14743038D02*
X-1878567Y-14800181D01*
X-1878567Y-14800181D02*
X-1888090Y-14819228D01*
X-1888090Y-14819228D02*
X-1897614Y-14828752D01*
X-1897614Y-14828752D02*
X-1916662Y-14838276D01*
X-1916662Y-14838276D02*
X-1954757Y-14838276D01*
X-1954757Y-14838276D02*
X-1973805Y-14828752D01*
X-1792852Y-14819228D02*
X-1783329Y-14828752D01*
X-1783329Y-14828752D02*
X-1792852Y-14838276D01*
X-1792852Y-14838276D02*
X-1802376Y-14828752D01*
X-1802376Y-14828752D02*
X-1792852Y-14819228D01*
X-1792852Y-14819228D02*
X-1792852Y-14838276D01*
X-1792852Y-14714466D02*
X-1783329Y-14723990D01*
X-1783329Y-14723990D02*
X-1792852Y-14733514D01*
X-1792852Y-14733514D02*
X-1802376Y-14723990D01*
X-1802376Y-14723990D02*
X-1792852Y-14714466D01*
X-1792852Y-14714466D02*
X-1792852Y-14733514D01*
M02*
