M48
; DRILL file {KiCad 7.0.1} date Fri Apr 14 16:04:54 2023
; FORMAT={-:-/ absolute / inch / decimal}
; #@! TF.CreationDate,2023-04-14T16:04:54-07:00
; #@! TF.GenerationSoftware,Kicad,Pcbnew,7.0.1
; #@! TF.FileFunction,NonPlated,1,2,NPTH
FMAT,2
INCH
; #@! TA.AperFunction,NonPlated,NPTH,ComponentDrill
T1C0.0689
; #@! TA.AperFunction,NonPlated,NPTH,ComponentDrill
T2C0.0866
; #@! TA.AperFunction,NonPlated,NPTH,ComponentDrill
T3C0.1181
; #@! TA.AperFunction,NonPlated,NPTH,ComponentDrill
T4C0.1200
; #@! TA.AperFunction,NonPlated,NPTH,ComponentDrill
T5C0.1570
%
G90
G05
T1
X5.0816Y-7.0902
X5.1775Y-7.8406
X5.1775Y-9.3406
X5.365Y-8.5906
X5.4816Y-7.0902
X5.5775Y-7.8406
X5.5775Y-9.3406
X5.765Y-8.5906
X5.8316Y-7.0902
X6.0191Y-7.8402
X6.0191Y-9.3402
X6.2316Y-7.0902
X6.3941Y-8.5902
X6.4191Y-7.8402
X6.4191Y-9.3402
X6.5816Y-7.0902
X6.7691Y-7.8402
X6.7691Y-9.3402
X6.7941Y-8.5902
X6.9816Y-7.0902
X7.1441Y-8.5902
X7.1691Y-7.8402
X7.1691Y-9.3402
X7.3316Y-7.0902
X7.5191Y-7.8402
X7.5441Y-8.5902
X7.7316Y-7.0902
X7.8941Y-8.5902
X7.9191Y-7.8402
X8.0816Y-7.0902
X8.2691Y-7.8402
X8.2941Y-8.5902
X8.4816Y-7.0902
X8.6441Y-8.5902
X8.6691Y-7.8402
X8.8316Y-7.0902
X9.0191Y-7.8402
X9.0441Y-8.5902
X9.2316Y-7.0902
X9.3941Y-8.5902
X9.4191Y-7.8402
X9.49Y-9.3406
X9.5816Y-7.0902
X9.7691Y-7.8402
X9.7941Y-8.5902
X9.89Y-9.3406
X9.9816Y-7.0902
X10.1441Y-8.5902
X10.1691Y-7.8402
X10.3316Y-7.0902
X10.5191Y-7.8402
X10.5441Y-8.5902
X10.7316Y-7.0902
X10.8941Y-8.5902
X10.9191Y-7.8402
X11.0816Y-7.0902
X11.2691Y-7.8402
X11.2941Y-8.5902
X11.4816Y-7.0902
X11.6441Y-8.5902
X11.6691Y-7.8402
X11.8316Y-7.0902
X12.0191Y-7.8402
X12.0441Y-8.5902
X12.2316Y-7.0902
X12.2994Y-9.339
X12.3941Y-8.5902
X12.4191Y-7.8402
X12.5816Y-7.0902
X12.6994Y-9.339
X12.7691Y-7.8402
X12.7941Y-8.5902
X12.9816Y-7.0902
X13.1441Y-8.5902
X13.1691Y-7.8402
X13.2369Y-9.339
X13.3316Y-7.0902
X13.5441Y-8.5902
X13.6369Y-9.339
X13.7316Y-7.0902
X13.8932Y-7.839
X13.9846Y-8.5925
X14.1744Y-7.089
X14.2932Y-7.839
X14.3846Y-8.5925
X14.5744Y-7.089
X14.6441Y-9.7152
X15.0441Y-9.7152
X15.3941Y-8.9652
X15.3941Y-9.7152
X15.7941Y-8.9652
X15.7941Y-9.7152
X16.1441Y-9.7152
X16.5441Y-9.7152
X16.7066Y-7.0902
X16.7066Y-7.8402
X16.7066Y-8.5902
X17.1066Y-7.0902
X17.1066Y-7.8402
X17.1066Y-8.5902
X17.4566Y-7.0902
X17.4566Y-7.8402
X17.4566Y-8.5902
X17.4566Y-9.3402
X17.8566Y-7.0902
X17.8566Y-7.8402
X17.8566Y-8.5902
X17.8566Y-9.3402
X18.2066Y-7.0902
X18.2066Y-7.8402
X18.2066Y-8.5902
X18.2066Y-9.3402
X18.6066Y-7.0902
X18.6066Y-7.8402
X18.6066Y-8.5902
X18.6066Y-9.3402
T2
X4.8465Y-6.6756
X4.8496Y-9.7484
X18.8461Y-6.6705
X18.8492Y-9.7433
T3
X5.1316Y-6.9902
X5.2275Y-7.7406
X5.2275Y-9.2406
X5.3816Y-6.8902
X5.415Y-8.4906
X5.4775Y-7.6406
X5.4775Y-9.1406
X5.665Y-8.3906
X5.8816Y-6.9902
X6.0691Y-7.7402
X6.0691Y-9.2402
X6.1316Y-6.8902
X6.3191Y-7.6402
X6.3191Y-9.1402
X6.4441Y-8.4902
X6.6316Y-6.9902
X6.6941Y-8.3902
X6.8191Y-7.7402
X6.8191Y-9.2402
X6.8816Y-6.8902
X7.0691Y-7.6402
X7.0691Y-9.1402
X7.1941Y-8.4902
X7.3816Y-6.9902
X7.4441Y-8.3902
X7.5691Y-7.7402
X7.6316Y-6.8902
X7.8191Y-7.6402
X7.9441Y-8.4902
X8.1316Y-6.9902
X8.1941Y-8.3902
X8.3191Y-7.7402
X8.3816Y-6.8902
X8.5691Y-7.6402
X8.6941Y-8.4902
X8.8816Y-6.9902
X8.9441Y-8.3902
X9.0691Y-7.7402
X9.1316Y-6.8902
X9.3191Y-7.6402
X9.4441Y-8.4902
X9.54Y-9.2406
X9.6316Y-6.9902
X9.6941Y-8.3902
X9.79Y-9.1406
X9.8191Y-7.7402
X9.8816Y-6.8902
X10.0691Y-7.6402
X10.1941Y-8.4902
X10.3816Y-6.9902
X10.4441Y-8.3902
X10.5691Y-7.7402
X10.6316Y-6.8902
X10.8191Y-7.6402
X10.9441Y-8.4902
X11.1316Y-6.9902
X11.1941Y-8.3902
X11.3191Y-7.7402
X11.3816Y-6.8902
X11.5691Y-7.6402
X11.6941Y-8.4902
X11.8816Y-6.9902
X11.9441Y-8.3902
X12.0691Y-7.7402
X12.1316Y-6.8902
X12.3191Y-7.6402
X12.3494Y-9.239
X12.4441Y-8.4902
X12.5994Y-9.139
X12.6316Y-6.9902
X12.6941Y-8.3902
X12.8191Y-7.7402
X12.8816Y-6.8902
X13.0691Y-7.6402
X13.1941Y-8.4902
X13.2869Y-9.239
X13.3816Y-6.9902
X13.4441Y-8.3902
X13.5369Y-9.139
X13.6316Y-6.8902
X13.9432Y-7.739
X14.0346Y-8.4925
X14.1932Y-7.639
X14.2244Y-6.989
X14.2846Y-8.3925
X14.4744Y-6.889
X14.6941Y-9.6152
X14.9441Y-9.5152
X15.4441Y-8.8652
X15.4441Y-9.6152
X15.6941Y-8.7652
X15.6941Y-9.5152
X16.1941Y-9.6152
X16.4441Y-9.5152
X16.7566Y-6.9902
X16.7566Y-7.7402
X16.7566Y-8.4902
X17.0066Y-6.8902
X17.0066Y-7.6402
X17.0066Y-8.3902
X17.5066Y-6.9902
X17.5066Y-7.7402
X17.5066Y-8.4902
X17.5066Y-9.2402
X17.7566Y-6.8902
X17.7566Y-7.6402
X17.7566Y-8.3902
X17.7566Y-9.1402
X18.2566Y-6.9902
X18.2566Y-7.7402
X18.2566Y-8.4902
X18.2566Y-9.2402
X18.5066Y-6.8902
X18.5066Y-7.6402
X18.5066Y-8.3902
X18.5066Y-9.1402
T4
X7.7215Y-9.0656
X11.6585Y-9.0656
X13.6232Y-7.564
X14.5632Y-7.564
T5
X5.2816Y-7.0902
X5.3775Y-7.8406
X5.3775Y-9.3406
X5.565Y-8.5906
X6.0316Y-7.0902
X6.2191Y-7.8402
X6.2191Y-9.3402
X6.5941Y-8.5902
X6.7816Y-7.0902
X6.9691Y-7.8402
X6.9691Y-9.3402
X7.3441Y-8.5902
X7.5316Y-7.0902
X7.7191Y-7.8402
X7.7215Y-9.6656
X8.0941Y-8.5902
X8.2816Y-7.0902
X8.4691Y-7.8402
X8.8441Y-8.5902
X9.0316Y-7.0902
X9.2191Y-7.8402
X9.5941Y-8.5902
X9.69Y-9.3406
X9.7816Y-7.0902
X9.9691Y-7.8402
X10.3441Y-8.5902
X10.5316Y-7.0902
X10.7191Y-7.8402
X11.0941Y-8.5902
X11.2816Y-7.0902
X11.4691Y-7.8402
X11.6585Y-9.6656
X11.8441Y-8.5902
X12.0316Y-7.0902
X12.2191Y-7.8402
X12.4994Y-9.339
X12.5941Y-8.5902
X12.7816Y-7.0902
X12.9691Y-7.8402
X13.3441Y-8.5902
X13.4369Y-9.339
X13.5316Y-7.0902
X13.6232Y-8.164
X14.0932Y-7.839
X14.1846Y-8.5925
X14.3744Y-7.089
X14.5632Y-8.164
X14.8441Y-9.7152
X15.5941Y-8.9652
X15.5941Y-9.7152
X16.3441Y-9.7152
X16.9066Y-7.0902
X16.9066Y-7.8402
X16.9066Y-8.5902
X17.6566Y-7.0902
X17.6566Y-7.8402
X17.6566Y-8.5902
X17.6566Y-9.3402
X18.4066Y-7.0902
X18.4066Y-7.8402
X18.4066Y-8.5902
X18.4066Y-9.3402
T0
M30
