<?xml version="1.0" standalone="no"?>
<!DOCTYPE svg PUBLIC "-//W3C//DTD SVG 20010904//EN"
 "http://www.w3.org/TR/2001/REC-SVG-20010904/DTD/svg10.dtd">
<svg version="1.0" xmlns="http://www.w3.org/2000/svg"
 width="3899.000000pt" height="187.000000pt" viewBox="0 0 3899.000000 187.000000"
 preserveAspectRatio="xMidYMid meet">

<g transform="translate(0.000000,187.000000) scale(0.100000,-0.100000)"
fill="#000000" stroke="none">
<path d="M3324 1615 c-118 -26 -201 -85 -241 -173 -12 -26 -17 -65 -17 -132 0
-106 13 -145 66 -206 74 -84 210 -119 432 -112 155 6 240 28 311 82 77 59 115
181 94 301 -31 177 -171 256 -453 254 -72 0 -158 -7 -192 -14z m371 -170 c57
-24 70 -49 70 -135 0 -69 -3 -81 -24 -104 -37 -40 -83 -50 -226 -49 -201 0
-245 27 -245 152 0 103 31 137 140 152 72 10 247 0 285 -16z"/>
<path d="M50 1310 l0 -310 105 0 104 0 3 120 3 120 135 -120 135 -119 153 -1
153 0 -33 28 c-46 39 -218 177 -305 244 l-72 55 197 147 196 146 -148 0 -149
0 -56 -47 c-31 -27 -92 -80 -136 -119 l-80 -71 3 119 4 118 -106 0 -106 0 0
-310z"/>
<path d="M890 1310 l0 -310 304 0 304 0 61 80 62 80 -260 0 -261 0 0 40 0 40
188 0 188 0 52 68 51 67 -239 3 -240 2 0 40 0 40 198 0 198 0 57 75 c32 41 62
75 67 75 4 0 92 -92 194 -205 l186 -204 0 -101 0 -100 100 0 100 0 0 103 1
102 179 203 c99 112 180 205 180 208 0 2 -56 4 -124 4 l-124 0 -105 -130 -105
-129 -111 129 -112 130 -494 0 -495 0 0 -310z"/>
<path d="M2788 1425 c-3 -193 -3 -195 -28 -220 -29 -29 -103 -45 -210 -45
l-65 -1 -55 -71 c-30 -40 -56 -75 -58 -80 -2 -4 74 -8 168 -8 231 0 310 20
384 96 58 59 66 101 66 326 l0 198 -99 0 -99 0 -4 -195z"/>
<path d="M4101 1420 c99 -110 185 -203 190 -206 5 -3 9 -52 9 -110 l0 -104
100 0 100 0 0 103 1 102 179 203 c99 112 180 205 180 208 0 2 -56 4 -124 4
l-124 0 -105 -130 -105 -129 -111 129 -112 130 -130 0 -130 0 182 -200z"/>
</g>
</svg>
