<?xml version="1.0" encoding="utf-8"?>

<!DOCTYPE svg PUBLIC "-//W3C//DTD SVG 1.1//EN" "http://www.w3.org/Graphics/SVG/1.1/DTD/svg11.dtd">
<svg version="1.1" id="Layer_1" xmlns="http://www.w3.org/2000/svg" xmlns:xlink="http://www.w3.org/1999/xlink" x="0px" y="0px"
	 viewBox="0 0 1631.361 1631.361" enable-background="new 0 0 1631.361 1631.361" xml:space="preserve">
<g>
	<path opacity="0.01" fill="none" stroke="#000000" stroke-miterlimit="10" enable-background="new    " d="M798.717,826.278
		c13.415-10.916,4.126,11.51,2.359-5.695c17.205,1.767-5.221,11.056,5.695-2.359c10.916,13.415-11.51,4.126,5.695,2.359
		c-1.767,17.205-11.056-5.221,2.359,5.695c-13.415,10.916-4.126-11.51-2.359,5.695c-17.205-1.767,5.221-11.056-5.695,2.359
		c-10.916-13.415,11.51-4.126-5.695-2.359C802.843,814.768,812.132,837.194,798.717,826.278z"/>
	<path opacity="0.0165" fill="none" stroke="#000000" stroke-miterlimit="10" enable-background="new    " d="M793.345,825.929
		c22.457-17.887,6.648,19.177,4.014-9.412c28.527,3.232-8.859,18.261,9.494-3.816c17.887,22.457-19.177,6.648,9.412,4.014
		c-3.232,28.528-18.261-8.859,3.816,9.494c-22.457,17.887-6.648-19.177-4.014,9.412c-28.527-3.232,8.859-18.261-9.494,3.816
		c-17.887-22.457,19.177-6.648-9.412-4.014C800.393,806.895,815.423,844.282,793.345,825.929z"/>
	<path opacity="0.023" fill="none" stroke="#000000" stroke-miterlimit="10" enable-background="new    " d="M787.978,825.469
		c31.646-24.668,9.01,26.898,5.748-13.094c39.82,4.934-12.648,25.391,13.324-5.195c24.668,31.646-26.898,9.01,13.094,5.748
		c-4.934,39.82-25.391-12.648,5.195,13.324c-31.646,24.668-9.01-26.898-5.748,13.094c-39.82-4.934,12.648-25.391-13.323,5.195
		c-24.668-31.646,26.898-9.01-13.094-5.748C798.107,798.972,818.563,851.441,787.978,825.469z"/>
	<path opacity="0.0295" fill="none" stroke="#000000" stroke-miterlimit="10" enable-background="new    " d="M782.618,824.898
		c40.979-31.258,11.211,34.669,7.559-16.741c51.079,6.873-16.587,32.442,17.183-6.493c31.258,40.979-34.669,11.211,16.741,7.559
		c-6.873,51.079-32.442-16.587,6.493,17.183c-40.979,31.259-11.211-34.669-7.559,16.741c-51.079-6.873,16.587-32.442-17.183,6.493
		c-31.258-40.979,34.669-11.211-16.741-7.559C795.984,791.001,821.553,858.667,782.618,824.898z"/>
	<path opacity="0.036" fill="none" stroke="#000000" stroke-miterlimit="10" enable-background="new    " d="M777.267,824.216
		c50.451-37.655,13.25,42.488,9.447-20.351c62.301,9.048-20.675,39.413,21.07-7.711c37.655,50.451-42.488,13.25,20.351,9.447
		c-9.048,62.301-39.413-20.675,7.711,21.07c-50.451,37.655-13.25-42.488-9.447,20.351c-62.301-9.048,20.675-39.413-21.07,7.711
		c-37.655-50.451,42.488-13.25-20.351-9.447C794.026,782.985,824.39,865.96,777.267,824.216z"/>
	<path opacity="0.0426" fill="none" stroke="#000000" stroke-miterlimit="10" enable-background="new    " d="M771.926,823.423
		c60.062-43.856,15.126,50.353,11.411-23.923c73.481,11.459-24.91,46.301,24.985-8.848c43.856,60.062-50.353,15.126,23.923,11.411
		c-11.459,73.481-46.301-24.91,8.848,24.985c-60.062,43.856-15.126-50.353-11.411,23.923c-73.481-11.459,24.91-46.301-24.985,8.848
		c-43.856-60.062,50.353-15.126-23.923-11.411C792.233,774.926,827.075,873.317,771.926,823.423z"/>
	<path opacity="0.0491" fill="none" stroke="#000000" stroke-miterlimit="10" enable-background="new    " d="M766.598,822.519
		c69.806-49.859,16.838,58.262,13.45-27.456c84.617,14.105-29.291,53.104,28.925-9.903c49.859,69.806-58.262,16.838,27.456,13.45
		c-14.105,84.617-53.104-29.291,9.903,28.925c-69.806,49.859-16.838-58.262-13.45,27.456c-84.617-14.105,29.291-53.104-28.925,9.903
		c-49.859-69.806,58.262-16.838-27.456-13.45C790.606,766.828,829.605,880.735,766.598,822.519z"/>
	<path opacity="0.0556" fill="none" stroke="#000000" stroke-miterlimit="10" enable-background="new    " d="M761.284,821.506
		c79.682-55.663,18.387,66.21,15.565-30.948c95.703,16.984-33.816,59.819,32.889-10.877c55.663,79.682-66.21,18.387,30.948,15.565
		c-16.984,95.703-59.819-33.816,10.877,32.889c-79.682,55.663-18.387-66.21-15.565,30.948
		c-95.703-16.985,33.816-59.819-32.889,10.877c-55.663-79.682,66.21-18.387-30.948-15.565
		C789.145,758.692,831.98,888.212,761.284,821.506z"/>
	<path opacity="0.0621" fill="none" stroke="#000000" stroke-miterlimit="10" enable-background="new    " d="M755.985,820.382
		c89.687-61.264,19.77,74.197,17.754-34.398c106.738,20.098-38.486,66.445,36.877-11.769c61.264,89.687-74.197,19.77,34.398,17.754
		c-20.098,106.738-66.445-38.486,11.769,36.877c-89.687,61.264-19.77-74.197-17.754,34.398
		c-106.738-20.098,38.486-66.445-36.877,11.769c-61.264-89.687,74.197-19.77-34.398-17.754
		C787.852,750.521,834.199,895.745,755.985,820.382z"/>
	<path opacity="0.0686" fill="none" stroke="#000000" stroke-miterlimit="10" enable-background="new    " d="M750.704,819.148
		c99.816-66.661,20.988,82.219,20.017-37.806c117.717,23.444-43.297,72.978,40.887-12.578
		c66.661,99.816-82.219,20.988,37.806,20.017c-23.444,117.717-72.978-43.297,12.578,40.887
		c-99.816,66.661-20.988-82.219-20.017,37.806c-117.717-23.444,43.297-72.978-40.887,12.578
		c-66.661-99.816,82.219-20.988-37.806-20.017C786.727,742.318,836.261,903.332,750.704,819.148z"/>
	<path opacity="0.0751" fill="none" stroke="#000000" stroke-miterlimit="10" enable-background="new    " d="M745.442,817.805
		c110.067-71.852,22.04,90.274,22.353-41.169c128.636,27.022-48.249,79.418,44.917-13.305
		c71.852,110.067-90.274,22.04,41.169,22.353c-27.022,128.636-79.418-48.249,13.305,44.917
		c-110.067,71.852-22.04-90.274-22.353,41.169c-128.636-27.022,48.249-79.418-44.917,13.305
		c-71.852-110.067,90.274-22.04-41.169-22.353C785.77,734.086,838.165,910.971,745.442,817.805z"/>
	<path opacity="0.0816" fill="none" stroke="#000000" stroke-miterlimit="10" enable-background="new    " d="M740.202,816.352
		c120.436-76.834,22.925,98.359,24.761-44.487c139.491,30.831-53.34,85.761,48.966-13.948
		c76.834,120.436-98.359,22.925,44.487,24.761c-30.831,139.491-85.761-53.34,13.948,48.966
		c-120.436,76.834-22.925-98.359-24.761,44.487c-139.491-30.831,53.34-85.761-48.966,13.948
		c-76.834-120.436,98.359-22.925-44.487-24.761C784.981,725.827,839.911,918.658,740.202,816.352z"/>
	<path opacity="0.0881" fill="none" stroke="#000000" stroke-miterlimit="10" enable-background="new    " d="M734.984,814.79
		c130.921-81.607,23.643,106.471,27.242-47.76c150.28,34.871-58.568,92.005,53.034-14.508
		c81.607,130.921-106.471,23.643,47.759,27.242c-34.87,150.28-92.005-58.568,14.508,53.034
		c-130.921,81.607-23.643-106.471-27.242,47.759c-150.28-34.87,58.568-92.005-53.034,14.508
		c-81.607-130.921,106.471-23.643-47.759-27.242C784.362,717.544,841.497,926.393,734.984,814.79z"/>
	<path opacity="0.0946" fill="none" stroke="#000000" stroke-miterlimit="10" enable-background="new    " d="M729.79,813.12
		c141.519-86.168,24.194,114.609,29.793-50.984c160.999,39.139-63.933,98.148,57.118-14.985
		c86.168,141.519-114.609,24.194,50.984,29.793c-39.139,160.999-98.148-63.933,14.985,57.118
		c-141.519,86.168-24.194-114.609-29.793,50.984c-160.999-39.139,63.933-98.148-57.118,14.985
		c-86.168-141.518,114.609-24.194-50.984-29.793C783.913,709.239,842.923,934.171,729.79,813.12z"/>
	<path opacity="0.1011" fill="none" stroke="#000000" stroke-miterlimit="10" enable-background="new    " d="M724.622,811.341
		c152.224-90.515,24.576,122.769,32.414-54.16c171.643,43.635-69.433,104.189,61.217-15.377
		c90.515,152.224-122.769,24.576,54.16,32.414c-43.635,171.643-104.189-69.433,15.377,61.217
		c-152.224,90.515-24.576-122.769-32.414,54.16c-171.643-43.635,69.433-104.189-61.217,15.377
		c-90.515-152.224,122.769-24.576-54.16-32.414C783.634,700.915,844.188,941.991,724.622,811.341z"/>
	<path opacity="0.1077" fill="none" stroke="#000000" stroke-miterlimit="10" enable-background="new    " d="M719.482,809.454
		c163.036-94.647,24.79,130.949,35.105-57.286c182.209,48.358-75.065,110.124,65.331-15.684
		c94.647,163.036-130.949,24.79,57.286,35.105c-48.358,182.21-110.124-75.065,15.685,65.331
		c-163.036,94.647-24.79-130.949-35.105,57.286c-182.21-48.358,75.065-110.124-65.331,15.685
		c-94.647-163.036,130.949-24.79-57.286-35.105C783.525,692.575,845.291,949.85,719.482,809.454z"/>
	<path opacity="0.1142" fill="none" stroke="#000000" stroke-miterlimit="10" enable-background="new    " d="M714.372,807.459
		c173.949-98.562,24.836,139.145,37.865-60.362c192.695,53.307-80.829,115.952,69.457-15.908
		c98.562,173.949-139.145,24.836,60.362,37.865c-53.307,192.695-115.952-80.829,15.908,69.457
		c-173.949,98.562-24.836-139.145-37.865,60.362c-192.695-53.307,80.829-115.952-69.457,15.908
		c-98.562-173.949,139.145-24.836-60.362-37.865C783.586,684.221,846.232,957.745,714.372,807.459z"/>
	<path opacity="0.1207" fill="none" stroke="#000000" stroke-miterlimit="10" enable-background="new    " d="M709.293,805.358
		c184.962-102.258,24.712,147.356,40.693-63.386c203.095,58.48-86.723,121.671,73.594-16.046
		c102.258,184.962-147.356,24.712,63.385,40.693c-58.48,203.095-121.671-86.723,16.046,73.594
		C718.05,942.471,878.3,692.857,862.319,903.599c-203.095-58.48,86.723-121.671-73.594,16.046
		c-102.258-184.962,147.356-24.712-63.386-40.693C783.819,675.857,847.01,965.675,709.293,805.358z"/>
	<path opacity="0.1272" fill="none" stroke="#000000" stroke-miterlimit="10" enable-background="new    " d="M704.246,803.149
		c196.069-105.734,24.419,155.579,43.588-66.356c213.407,63.877-92.745,127.278,77.742-16.1
		c105.734,196.07-155.579,24.419,66.356,43.588c-63.877,213.407-127.278-92.745,16.1,77.742
		c-196.07,105.734-24.419-155.579-43.588,66.356c-213.407-63.877,92.745-127.278-77.742,16.1
		c-105.734-196.069,155.579-24.419-66.356-43.588C784.223,667.484,847.624,973.636,704.246,803.149z"/>
	<path opacity="0.1337" fill="none" stroke="#000000" stroke-miterlimit="10" enable-background="new    " d="M699.235,800.835
		c207.269-108.987,23.956,163.811,46.549-69.273c223.627,69.496-98.893,132.772,81.899-16.068
		c108.987,207.269-163.811,23.956,69.273,46.549c-69.496,223.627-132.772-98.893,16.068,81.899
		c-207.269,108.987-23.956-163.811-46.549,69.273c-223.627-69.496,98.893-132.772-81.899,16.068
		c-108.987-207.269,163.811-23.956-69.273-46.549C784.798,659.106,848.074,981.626,699.235,800.835z"/>
	<path opacity="0.1402" fill="none" stroke="#000000" stroke-miterlimit="10" enable-background="new    " d="M694.259,798.414
		c218.557-112.017,23.323,172.05,49.576-72.134c233.752,75.335-105.166,138.15,86.063-15.951
		c112.017,218.557-172.05,23.323,72.134,49.577c-75.335,233.751-138.15-105.166,15.951,86.062
		c-218.557,112.017-23.323-172.05-49.576,72.134c-233.752-75.335,105.166-138.15-86.063,15.951
		c-112.017-218.557,172.05-23.323-72.134-49.577C785.545,650.725,848.36,989.642,694.259,798.414z"/>
	<path opacity="0.1467" fill="none" stroke="#000000" stroke-miterlimit="10" enable-background="new    " d="M689.322,795.888
		c229.931-114.822,22.521,180.292,52.668-74.94c243.777,81.394-111.562,143.411,90.232-15.748
		c114.822,229.931-180.292,22.521,74.94,52.668c-81.394,243.777-143.411-111.562,15.748,90.232
		c-229.931,114.822-22.521-180.292-52.668,74.94c-243.777-81.394,111.561-143.411-90.232,15.748
		c-114.822-229.931,180.292-22.521-74.94-52.668C786.464,642.344,848.48,997.682,689.322,795.888z"/>
	<path opacity="0.1532" fill="none" stroke="#000000" stroke-miterlimit="10" enable-background="new    " d="M684.424,793.258
		c241.386-117.401,21.548,188.536,55.824-77.688c253.7,87.671-118.079,148.552,94.407-15.46
		c117.401,241.386-188.536,21.548,77.688,55.824c-87.671,253.7-148.552-118.079,15.46,94.407
		c-241.386,117.401-21.548-188.536-55.824,77.688c-253.7-87.671,118.079-148.552-94.407,15.46
		c-117.401-241.386,188.536-21.548-77.688-55.824C787.554,633.965,848.435,1005.744,684.424,793.258z"/>
	<path opacity="0.1597" fill="none" stroke="#000000" stroke-miterlimit="10" enable-background="new    " d="M679.567,790.523
		c252.919-119.751,20.405,196.778,59.043-80.377c263.517,94.164-124.715,153.571,98.585-15.086
		c119.751,252.919-196.778,20.405,80.377,59.043c-94.164,263.517-153.571-124.715,15.086,98.585
		c-252.919,119.751-20.405-196.778-59.043,80.377c-263.517-94.164,124.715-153.571-98.585,15.086
		c-119.751-252.919,196.778-20.405-80.377-59.043C788.817,625.591,848.224,1013.824,679.567,790.523z"/>
	<path opacity="0.1662" fill="none" stroke="#000000" stroke-miterlimit="10" enable-background="new    " d="M674.754,787.685
		c264.526-121.873,19.091,205.016,62.324-83.008c273.225,100.871-131.469,158.468,102.765-14.626
		c121.873,264.526-205.016,19.091,83.008,62.324C821.98,1025.6,764.383,620.906,937.477,855.14
		c-264.526,121.873-19.091-205.016-62.324,83.008c-273.225-100.871,131.469-158.468-102.765,14.626
		c-121.873-264.526,205.016-19.091-83.008-62.324C790.25,617.226,847.847,1021.92,674.754,787.685z"/>
	<path opacity="0.1728" fill="none" stroke="#000000" stroke-miterlimit="10" enable-background="new    " d="M669.984,784.744
		c276.205-123.763,17.607,213.247,65.667-85.578c282.82,107.792-138.338,163.239,106.946-14.08
		c123.763,276.205-213.247,17.607,85.578,65.667c-107.792,282.82-163.239-138.338,14.08,106.946
		c-276.205,123.763-17.607-213.247-65.667,85.578c-282.82-107.792,138.338-163.239-106.946,14.08
		c-123.763-276.205,213.247-17.607-85.578-65.667C791.856,608.871,847.303,1030.029,669.984,784.744z"/>
	<path opacity="0.1793" fill="none" stroke="#000000" stroke-miterlimit="10" enable-background="new    " d="M665.261,781.701
		c287.951-125.423,15.953,221.469,69.069-88.087c292.299,114.925-145.322,167.883,111.127-13.448
		c125.423,287.951-221.469,15.953,88.087,69.069c-114.925,292.299-167.883-145.322,13.448,111.127
		c-287.951,125.423-15.953-221.469-69.069,88.087c-292.299-114.925,145.322-167.883-111.127,13.448
		c-125.423-287.951,221.469-15.953-88.087-69.069C793.634,600.529,846.592,1038.15,665.261,781.701z"/>
	<path opacity="0.1858" fill="none" stroke="#000000" stroke-miterlimit="10" enable-background="new    " d="M660.586,778.556
		c299.761-126.849,14.128,229.678,72.532-90.534c301.659,122.267-152.417,172.397,115.305-12.73
		c126.849,299.761-229.678,14.128,90.534,72.532c-122.267,301.658-172.397-152.417,12.73,115.305
		c-299.761,126.849-14.128-229.678-72.532,90.534c-301.659-122.267,152.417-172.397-115.305,12.73
		c-126.849-299.761,229.678-14.128-90.534-72.532C795.583,592.203,845.713,1046.278,660.586,778.556z"/>
	<path opacity="0.1923" fill="none" stroke="#000000" stroke-miterlimit="10" enable-background="new    " d="M655.96,775.31
		c311.631-128.041,12.133,237.873,76.052-92.918c310.895,129.818-159.622,176.781,119.48-11.926
		c128.041,311.631-237.873,12.134,92.918,76.052C814.593,1057.414,767.629,586.897,956.336,866
		c-311.631,128.041-12.134-237.873-76.052,92.918c-310.895-129.818,159.622-176.781-119.48,11.926
		c-128.041-311.631,237.873-12.134-92.918-76.052C797.704,583.896,844.667,1054.413,655.96,775.31z"/>
	<path opacity="0.1988" fill="none" stroke="#000000" stroke-miterlimit="10" enable-background="new    " d="M651.385,771.964
		c323.558-128.998,9.969,246.05,79.631-95.237c320.005,137.575-166.935,181.033,123.651-11.036
		c128.998,323.558-246.05,9.969,95.237,79.631C812.33,1065.328,768.872,578.387,960.94,868.973
		c-323.558,128.998-9.969-246.05-79.631,95.237c-320.005-137.575,166.935-181.033-123.651,11.035
		c-128.998-323.558,246.05-9.969-95.237-79.631C799.996,575.61,843.454,1062.55,651.385,771.964z"/>
	<path opacity="0.2053" fill="none" stroke="#000000" stroke-miterlimit="10" enable-background="new    " d="M646.863,768.519
		c335.538-129.719,7.634,254.207,83.266-97.492c328.986,145.536-174.354,185.15,127.815-10.059
		c129.719,335.538-254.207,7.634,97.492,83.266C809.9,1073.22,770.286,569.88,965.495,872.049
		c-335.538,129.719-7.634-254.207-83.266,97.492c-328.986-145.536,174.354-185.15-127.815,10.059
		c-129.719-335.538,254.207-7.634-97.492-83.266C802.459,567.348,842.072,1070.688,646.863,768.519z"/>
	<path opacity="0.2118" fill="none" stroke="#000000" stroke-miterlimit="10" enable-background="new    " d="M642.395,764.975
		c347.567-130.202,5.129,262.342,86.957-99.68c337.834,153.7-181.877,189.13,131.972-8.997
		c130.202,347.567-262.342,5.129,99.68,86.957c-153.7,337.834-189.13-181.877,8.997,131.972
		c-347.567,130.202-5.129-262.342-86.957,99.68c-337.834-153.7,181.877-189.13-131.972,8.997
		c-130.202-347.567,262.342-5.129-99.68-86.957C805.092,559.113,840.523,1078.823,642.395,764.975z"/>
	<path opacity="0.2183" fill="none" stroke="#000000" stroke-miterlimit="10" enable-background="new    " d="M637.983,761.332
		c359.642-130.448,2.455,270.451,90.702-101.802c346.546,162.065-189.502,192.973,136.121-7.849
		c130.448,359.642-270.451,2.455,101.802,90.702c-162.065,346.546-192.973-189.502,7.849,136.121
		c-359.642,130.448-2.455-270.451-90.702,101.802c-346.546-162.065,189.502-192.973-136.121,7.849
		c-130.448-359.642,270.451-2.455-101.802-90.702C807.897,550.907,838.805,1086.954,637.983,761.332z"/>
	<path opacity="0.2248" fill="none" stroke="#000000" stroke-miterlimit="10" enable-background="new    " d="M633.628,757.593
		c371.76-130.454-0.389,278.531,94.501-103.855c355.119,170.629-197.226,196.677,140.259-6.614
		c130.454,371.76-278.531-0.389,103.855,94.501c-170.629,355.119-196.677-197.226,6.614,140.259
		c-371.76,130.454,0.389-278.531-94.501,103.855c-355.119-170.629,197.226-196.677-140.259,6.614
		c-130.454-371.76,278.531,0.389-103.855-94.501C810.871,542.733,836.919,1095.078,633.628,757.593z"/>
	<path opacity="0.2313" fill="none" stroke="#000000" stroke-miterlimit="10" enable-background="new    " d="M629.332,753.757
		c383.915-130.221-3.401,286.581,98.353-105.84c363.549,179.389-205.049,200.239,144.386-5.294
		c130.221,383.915-286.581-3.401,105.84,98.353c-179.389,363.549-200.239-205.049,5.294,144.386
		c-383.915,130.221,3.401-286.581-98.353,105.84c-363.549-179.389,205.049-200.238-144.386,5.294
		c-130.221-383.915,286.581,3.401-105.84-98.353C814.016,534.594,834.865,1103.191,629.332,753.757z"/>
	<path opacity="0.2379" fill="none" stroke="#000000" stroke-miterlimit="10" enable-background="new    " d="M625.097,749.825
		c396.105-129.746-6.582,294.598,102.256-107.755c371.833,188.344-212.966,203.658,148.5-3.889
		c129.746,396.105-294.598-6.582,107.755,102.256c-188.344,371.833-203.658-212.966,3.889,148.5
		c-396.105,129.746,6.582-294.598-102.256,107.755c-371.833-188.344,212.966-203.658-148.5,3.889
		c-129.746-396.105,294.598,6.582-107.755-102.256C817.33,526.492,832.643,1111.292,625.097,749.825z"/>
	<path opacity="0.2444" fill="none" stroke="#000000" stroke-miterlimit="10" enable-background="new    " d="M620.924,745.799
		c408.327-129.031-9.932,302.578,106.21-109.6c379.969,197.492-220.978,206.932,152.601-2.397
		c129.031,408.327-302.578-9.932,109.6,106.21c-197.492,379.969-206.932-220.978,2.397,152.601
		c-408.327,129.031,9.932-302.578-106.21,109.6c-379.969-197.492,220.978-206.932-152.601,2.397
		c-129.031-408.327,302.578,9.932-109.6-106.21C820.813,518.431,830.253,1119.378,620.924,745.799z"/>
	<path opacity="0.2509" fill="none" stroke="#000000" stroke-miterlimit="10" enable-background="new    " d="M616.814,741.679
		c420.575-128.073-13.449,310.52,110.213-111.373c387.953,206.83-229.08,210.061,156.686-0.82
		c128.073,420.575-310.52-13.449,111.373,110.213c-206.83,387.953-210.061-229.08,0.82,156.685
		c-420.575,128.073,13.449-310.52-110.213,111.374c-387.953-206.83,229.08-210.061-156.686,0.82
		c-128.073-420.575,310.52,13.449-111.373-110.213C824.464,510.412,827.695,1127.445,616.814,741.679z"/>
	<path opacity="0.2574" fill="none" stroke="#000000" stroke-miterlimit="10" enable-background="new    " d="M612.769,737.466
		c432.847-126.873-17.133,318.42,114.265-113.075c395.782,216.357-237.272,213.042,160.754,0.842
		c126.873,432.847-318.42-17.133,113.075,114.265c-216.357,395.782-213.042-237.272-0.842,160.754
		c-432.847,126.873,17.133-318.42-114.265,113.075c-395.782-216.357,237.272-213.042-160.754-0.842
		c-126.873-432.847,318.42,17.133-113.075-114.265C828.284,502.438,824.969,1135.492,612.769,737.466z"/>
	<path opacity="0.2639" fill="none" stroke="#000000" stroke-miterlimit="10" enable-background="new    " d="M608.79,733.162
		c445.139-125.429-20.985,326.276,118.365-114.703c403.452,226.069-245.551,215.874,164.804,2.589
		c125.429,445.139-326.276-20.985,114.703,118.365c-226.069,403.453-215.874-245.551-2.589,164.804
		c-445.139,125.429,20.985-326.276-118.365,114.703c-403.452-226.069,245.551-215.874-164.804-2.589
		c-125.429-445.139,326.276,20.985-114.703-118.365C832.271,494.513,822.075,1143.516,608.79,733.162z"/>
	<path opacity="0.2704" fill="none" stroke="#000000" stroke-miterlimit="10" enable-background="new    " d="M604.88,728.766
		c457.447-123.741-25.003,334.086,122.51-116.258c410.962,235.966-253.914,218.555,168.834,4.421
		c123.741,457.447-334.086-25.003,116.258,122.51c-235.966,410.962-218.555-253.914-4.421,168.834
		c-457.447,123.741,25.003-334.086-122.51,116.258c-410.962-235.966,253.914-218.555-168.834-4.421
		c-123.741-457.447,334.086,25.003-116.258-122.51C836.425,486.638,819.014,1151.514,604.88,728.766z"/>
	<path opacity="0.2769" fill="none" stroke="#000000" stroke-miterlimit="10" enable-background="new    " d="M601.039,724.28
		c469.767-121.809-29.186,341.847,126.701-117.738c418.308,246.043-262.36,221.084,172.844,6.338
		c121.809,469.767-341.847-29.186,117.738,126.701c-246.043,418.308-221.084-262.36-6.338,172.844
		c-469.767,121.809,29.186-341.847-126.701,117.738c-418.308-246.043,262.36-221.084-172.844-6.338
		c-121.809-469.767,341.847,29.186-117.738-126.701C840.745,478.817,815.786,1159.484,601.039,724.28z"/>
	<path opacity="0.2834" fill="none" stroke="#000000" stroke-miterlimit="10" enable-background="new    " d="M597.269,719.705
		c482.096-119.632-33.535,349.555,130.936-119.143c425.486,256.3-270.886,223.46,176.832,8.339
		c119.632,482.096-349.555-33.535,119.143,130.936c-256.3,425.486-223.46-270.886-8.339,176.832
		c-482.096,119.632,33.535-349.555-130.936,119.143c-425.486-256.3,270.886-223.46-176.832-8.339
		c-119.632-482.096,349.555,33.535-119.143-130.936C845.23,471.051,812.39,1167.423,597.269,719.705z"/>
	<path opacity="0.2899" fill="none" stroke="#000000" stroke-miterlimit="10" enable-background="new    " d="M593.572,715.042
		c494.429-117.211-38.048,357.209,135.214-120.471c432.494,266.734-279.489,225.681,180.797,10.425
		c117.211,494.429-357.209-38.048,120.471,135.214c-266.734,432.494-225.681-279.489-10.425,180.797
		c-494.429,117.211,38.048-357.209-135.214,120.471c-432.494-266.734,279.489-225.681-180.797-10.425
		c-117.211-494.429,357.209,38.048-120.471-135.214C849.881,463.344,808.828,1175.328,593.572,715.042z"/>
	<path opacity="0.2964" fill="none" stroke="#000000" stroke-miterlimit="10" enable-background="new    " d="M589.948,710.292
		c506.763-114.543-42.726,364.806,139.534-121.723c439.33,277.341-288.168,227.745,184.736,12.594
		c114.543,506.763-364.806-42.726,121.723,139.534c-277.342,439.33-227.745-288.169-12.594,184.736
		c-506.763,114.543,42.726-364.806-139.534,121.723c-439.33-277.341,288.168-227.745-184.736-12.594
		c-114.543-506.763,364.806,42.725-121.723-139.534C854.696,455.698,805.1,1183.197,589.948,710.292z"/>
	<path opacity="0.303" fill="none" stroke="#000000" stroke-miterlimit="10" enable-background="new    " d="M586.4,705.456
		c519.095-111.63-47.566,372.344,143.894-122.897c445.99,288.121-296.921,229.653,188.65,14.847
		C1030.574,1116.5,546.6,549.84,1041.841,741.3c-288.121,445.99-229.653-296.921-14.847,188.65
		C507.9,1041.58,1074.56,557.606,883.1,1052.847C437.11,764.726,1180.021,823.195,694.45,1038
		c-111.63-519.095,372.344,47.566-122.897-143.894C859.674,448.116,801.205,1191.027,586.4,705.456z"/>
	<path opacity="0.3095" fill="none" stroke="#000000" stroke-miterlimit="10" enable-background="new    " d="M582.928,700.535
		c531.419-108.471-52.569,379.819,148.294-123.993c452.471,299.07-305.744,231.401,192.536,17.183
		c108.471,531.419-379.819-52.569,123.993,148.294c-299.07,452.471-231.401-305.744-17.183,192.536
		c-531.419,108.471,52.569-379.819-148.294,123.993c-452.471-299.07,305.744-231.401-192.536-17.183
		c-108.471-531.419,379.819,52.569-123.993-148.294C864.814,440.6,797.145,1198.815,582.928,700.535z"/>
	<path opacity="0.316" fill="none" stroke="#000000" stroke-miterlimit="10" enable-background="new    " d="M579.535,695.53
		c543.734-105.066-57.733,387.229,152.733-125.01c458.77,310.185-314.636,232.989,196.394,19.603
		c105.066,543.734-387.229-57.733,125.01,152.733c-310.185,458.77-232.989-314.636-19.603,196.394
		c-543.734,105.066,57.733-387.229-152.733,125.01c-458.77-310.185,314.636-232.989-196.394-19.603
		c-105.066-543.734,387.229,57.733-125.01-152.733C870.117,433.154,792.92,1206.56,579.535,695.53z"/>
	<path opacity="0.3225" fill="none" stroke="#000000" stroke-miterlimit="10" enable-background="new    " d="M576.22,690.443
		c556.034-101.414-63.059,394.572,157.208-125.948C1198.315,885.959,409.835,798.91,933.65,586.6
		c101.414,556.034-394.572-63.059,125.948,157.208c-321.464,464.886-234.415-323.594-22.105,200.221
		c-556.034,101.414,63.059-394.572-157.208,125.948c-464.886-321.464,323.594-234.415-200.221-22.105
		c-101.414-556.034,394.572,63.059-125.948-157.208C875.58,425.778,788.531,1214.258,576.22,690.443z"/>
	<path opacity="0.329" fill="none" stroke="#000000" stroke-miterlimit="10" enable-background="new    " d="M572.987,685.274
		c568.315-97.516-68.544,401.845,161.72-126.805c470.814,332.905-332.615,235.679,204.018,24.689
		c97.516,568.315-401.845-68.544,126.805,161.72c-332.905,470.814-235.679-332.615-24.689,204.018
		c-568.315,97.516,68.544-401.845-161.72,126.805c-470.814-332.905,332.615-235.679-204.018-24.689
		c-97.516-568.315,401.845,68.544-126.805-161.72C881.203,418.477,783.977,1221.906,572.987,685.274z"/>
	<path opacity="0.3355" fill="none" stroke="#000000" stroke-miterlimit="10" enable-background="new    " d="M569.836,680.024
		c580.575-93.372-74.188,409.045,166.267-127.581c476.553,344.505-341.698,236.78,207.781,27.355
		c93.372,580.576-409.045-74.188,127.581,166.267c-344.505,476.553-236.78-341.698-27.355,207.781
		c-580.575,93.372,74.188-409.045-166.267,127.581c-476.553-344.505,341.698-236.78-207.781-27.355
		c-93.372-580.575,409.045,74.188-127.581-166.267C886.985,411.252,779.26,1229.503,569.836,680.024z"/>
	<path opacity="0.342" fill="none" stroke="#000000" stroke-miterlimit="10" enable-background="new    " d="M566.768,674.695
		c592.81-88.982-79.991,416.171,170.847-128.275c482.099,356.26-350.839,237.715,211.511,30.103
		c88.982,592.81-416.171-79.991,128.275,170.847c-356.26,482.099-237.715-350.839-30.103,211.511
		c-592.81,88.982,79.991-416.171-170.847,128.275c-482.099-356.26,350.839-237.715-211.511-30.103
		c-88.982-592.81,416.171,79.991-128.275-170.847C892.926,404.107,774.381,1237.046,566.768,674.695z"/>
	<path opacity="0.3485" fill="none" stroke="#000000" stroke-miterlimit="10" enable-background="new    " d="M563.785,669.288
		c605.015-84.345-85.951,423.219,175.459-128.888c487.451,368.169-360.037,238.485,215.206,32.931
		c84.345,605.015-423.219-85.951,128.888,175.459c-368.169,487.451-238.485-360.037-32.931,215.206
		c-605.015,84.345,85.951-423.219-175.459,128.888c-487.451-368.169,360.037-238.484-215.206-32.931
		c-84.345-605.015,423.219,85.951-128.888-175.459C899.023,397.043,769.339,1244.531,563.785,669.288z"/>
	<path opacity="0.355" fill="none" stroke="#000000" stroke-miterlimit="10" enable-background="new    " d="M560.888,663.805
		c617.186-79.463-92.067,430.187,180.103-129.417c492.605,380.228-369.289,239.087,218.864,35.84
		c79.463,617.186-430.187-92.067,129.417,180.103c-380.228,492.605-239.087-369.289-35.84,218.864
		c-617.186,79.463,92.067-430.187-180.103,129.417c-492.605-380.228,369.289-239.087-218.864-35.84
		c-79.463-617.186,430.187,92.067-129.417-180.103C905.276,390.063,764.135,1251.957,560.888,663.805z"/>
	<path opacity="0.3615" fill="none" stroke="#000000" stroke-miterlimit="10" enable-background="new    " d="M558.079,658.245
		c629.32-74.334-98.338,437.072,184.777-129.863c497.559,392.434-378.592,239.521,222.484,38.83
		c74.334,629.32-437.072-98.338,129.863,184.777c-392.434,497.559-239.521-378.592-38.83,222.484
		c-629.32,74.334,98.338-437.072-184.777,129.863c-497.559-392.434,378.592-239.521-222.484-38.83
		c-74.334-629.32,437.072,98.338-129.863-184.777C911.684,383.17,758.771,1259.321,558.079,658.245z"/>
	<path opacity="0.3681" fill="none" stroke="#000000" stroke-miterlimit="10" enable-background="new    " d="M555.358,652.611
		c641.414-68.96-104.763,443.872,189.479-130.225c502.31,404.785-387.944,239.786,226.065,41.899
		c68.961,641.414-443.872-104.763,130.226,189.479c-404.786,502.31-239.786-387.944-41.899,226.065
		c-641.414,68.96,104.763-443.872-189.479,130.225c-502.31-404.785,387.944-239.786-226.065-41.899
		c-68.96-641.414,443.872,104.763-130.225-189.479C918.245,376.367,753.246,1266.621,555.358,652.611z"/>
	<path opacity="0.3746" fill="none" stroke="#000000" stroke-miterlimit="10" enable-background="new    " d="M552.728,646.904
		c653.462-63.341-111.341,450.585,194.209-130.503c506.856,417.279-397.342,239.882,229.606,45.047
		c63.341,653.462-450.585-111.341,130.503,194.209C689.768,1262.514,867.165,358.316,1062,985.264
		c-653.462,63.341,111.341-450.585-194.209,130.503c-506.857-417.279,397.342-239.882-229.606-45.047
		c-63.341-653.462,450.585,111.341-130.503-194.209C924.959,369.654,747.562,1273.853,552.728,646.904z"/>
	<path opacity="0.3811" fill="none" stroke="#000000" stroke-miterlimit="10" enable-background="new    " d="M550.188,641.126
		c665.462-57.477-118.071,457.208,198.966-130.696c511.195,429.91-406.784,239.806,233.106,48.274
		c57.477,665.462-457.208-118.071,130.696,198.966c-429.91,511.195-239.806-406.784-48.274,233.106
		c-665.462,57.477,118.071-457.208-198.966,130.696c-511.195-429.91,406.784-239.806-233.106-48.274
		c-57.477-665.462,457.208,118.071-130.696-198.966C931.824,363.036,741.72,1281.016,550.188,641.126z"/>
	<path opacity="0.3876" fill="none" stroke="#000000" stroke-miterlimit="10" enable-background="new    " d="M547.741,635.276
		c677.41-51.369-124.952,463.738,203.747-130.803c515.324,442.678-416.267,239.558,236.562,51.579
		c51.369,677.41-463.738-124.952,130.803,203.747c-442.678,515.324-239.558-416.267-51.579,236.562
		c-677.41,51.368,124.952-463.738-203.747,130.803c-515.324-442.678,416.267-239.558-236.562-51.579
		c-51.368-677.41,463.738,124.952-130.803-203.747C938.84,356.515,735.72,1288.106,547.741,635.276z"/>
	<path opacity="0.3941" fill="none" stroke="#000000" stroke-miterlimit="10" enable-background="new    " d="M545.387,629.358
		c689.301-45.016-131.983,470.174,208.552-130.824c519.24,455.578-425.789,239.138,239.975,54.962
		c45.016,689.301-470.174-131.983,130.824,208.552c-455.578,519.24-239.138-425.789-54.962,239.975
		c-689.301,45.016,131.983-470.174-208.551,130.824c-519.24-455.578,425.789-239.138-239.975-54.962
		c-45.016-689.301,470.174,131.983-130.824-208.552C946.004,350.092,729.563,1295.121,545.387,629.358z"/>
	<path opacity="0.4006" fill="none" stroke="#000000" stroke-miterlimit="10" enable-background="new    " d="M543.129,623.371
		c701.132-38.42-139.161,476.512,213.379-130.759C1279.45,961.22,321.161,731.155,999.85,551.033
		c38.42,701.132-476.512-139.161,130.759,213.379C662,1287.354,892.066,329.065,1072.188,1007.754
		c-701.132,38.42,139.161-476.512-213.379,130.759c-522.942-468.608,435.347-238.543-243.342-58.421
		c-38.42-701.132,476.512,139.161-130.759-213.379C953.316,343.771,723.251,1302.06,543.129,623.371z"/>
	<path opacity="0.4071" fill="none" stroke="#000000" stroke-miterlimit="10" enable-background="new    " d="M540.966,617.318
		c712.9-31.581-146.487,482.751,218.227-130.606c526.427,481.765-444.938,237.775,246.662,61.957
		c31.581,712.9-482.751-146.487,130.606,218.227c-481.765,526.427-237.775-444.938-61.957,246.662
		c-712.9,31.581,146.487-482.751-218.227,130.606c-526.427-481.765,444.938-237.775-246.662-61.957
		c-31.581-712.9,482.751,146.487-130.606-218.227C960.774,337.553,716.783,1308.919,540.966,617.318z"/>
	<path opacity="0.4136" fill="none" stroke="#000000" stroke-miterlimit="10" enable-background="new    " d="M538.9,611.2
		c724.6-24.499-153.958,488.888,223.095-130.366c529.693,495.046-454.561,236.831,249.935,65.569
		c24.499,724.6-488.888-153.958,130.366,223.095c-495.046,529.693-236.831-454.561-65.569,249.935
		c-724.6,24.499,153.958-488.888-223.095,130.366c-529.693-495.046,454.561-236.831-249.935-65.569
		c-24.499-724.6,488.888,153.958-130.366-223.095C968.376,331.442,710.162,1315.695,538.9,611.2z"/>
	<path opacity="0.4201" fill="none" stroke="#000000" stroke-miterlimit="10" enable-background="new    " d="M536.932,605.017
		c736.228-17.176-161.573,494.92,227.982-130.039c532.737,508.446-464.211,235.712,253.159,69.256
		c17.176,736.228-494.92-161.573,130.039,227.982c-508.446,532.738-235.712-464.211-69.256,253.159
		c-736.228,17.176,161.573-494.92-227.982,130.039c-532.737-508.446,464.211-235.712-253.159-69.256
		c-17.176-736.228,494.92,161.573-130.039-227.982C976.122,325.439,703.388,1322.387,536.932,605.017z"/>
	<path opacity="0.4266" fill="none" stroke="#000000" stroke-miterlimit="10" enable-background="new    " d="M535.064,598.773
		c747.782-9.613-169.332,500.846,232.886-129.623c535.559,521.964-473.887,234.416,256.332,73.018
		c9.613,747.782-500.846-169.332,129.623,232.886c-521.964,535.559-234.416-473.887-73.018,256.332
		c-747.781,9.613,169.332-500.846-232.886,129.623c-535.558-521.964,473.887-234.416-256.332-73.018
		c-9.613-747.781,500.846,169.332-129.623-232.886C984.01,319.547,696.462,1328.992,535.064,598.773z"/>
	<path opacity="0.4332" fill="none" stroke="#000000" stroke-miterlimit="10" enable-background="new    " d="M533.296,592.467
		c759.256-1.809-177.232,506.663,237.806-129.118c538.154,535.596-483.586,232.943,259.454,76.854
		c1.809,759.256-506.662-177.232,129.118,237.806c-535.596,538.154-232.943-483.586-76.854,259.454
		c-759.256,1.809,177.232-506.662-237.806,129.118C306.86,630.985,1328.6,933.638,585.56,1089.727
		c-1.809-759.256,506.663,177.232-129.118-237.806C992.039,313.767,689.385,1335.508,533.296,592.467z"/>
	<path opacity="0.4397" fill="none" stroke="#000000" stroke-miterlimit="10" enable-background="new    " d="M531.63,586.102
		c770.648,6.235-185.272,512.368,242.74-128.524c540.522,549.339-493.306,231.292,262.524,80.763
		c-6.234,770.648-512.368-185.272,128.524,242.74c-549.339,540.522-231.292-493.306-80.763,262.524
		c-770.648-6.235,185.272-512.368-242.74,128.524c-540.522-549.339,493.306-231.292-262.524-80.763
		c6.235-770.648,512.368,185.272-128.524-242.74C1000.206,308.104,682.159,1341.931,531.63,586.102z"/>
	<path opacity="0.4462" fill="none" stroke="#000000" stroke-miterlimit="10" enable-background="new    " d="M530.067,579.679
		c781.953,14.516-193.451,517.959,247.688-127.841c542.66,563.189-503.043,229.462,265.539,84.744
		c-14.516,781.953-517.959-193.451,127.841,247.688c-563.189,542.66-229.462-503.043-84.744,265.539
		c-781.953-14.516,193.451-517.959-247.688,127.841c-542.66-563.189,503.043-229.462-265.539-84.744
		c14.516-781.953,517.959,193.451-127.841-247.688C1008.511,302.558,674.784,1348.26,530.067,579.679z"/>
	<path opacity="0.4527" fill="none" stroke="#000000" stroke-miterlimit="10" enable-background="new    " d="M528.607,573.199
		c793.168,23.035-201.766,523.435,252.647-127.068c544.566,577.143-512.795,227.454,268.5,88.798
		c-23.035,793.168-523.435-201.766,127.068,252.647c-577.143,544.566-227.454-512.795-88.798,268.5
		c-793.168-23.035,201.766-523.435-252.647,127.068c-544.566-577.143,512.795-227.454-268.5-88.798
		c23.035-793.168,523.435,201.766-127.068-252.647C1016.952,297.132,667.263,1354.493,528.607,573.199z"/>
	<path opacity="0.4592" fill="none" stroke="#000000" stroke-miterlimit="10" enable-background="new    " d="M527.251,566.664
		c804.289,31.791-210.218,528.792,257.617-126.205c546.239,591.198-522.559,225.266,271.404,92.922
		c-31.791,804.289-528.792-210.218,126.205,257.617c-591.198,546.239-225.266-522.559-92.922,271.404
		c-804.289-31.791,210.218-528.792-257.617,126.205c-546.239-591.198,522.559-225.266-271.404-92.922
		c31.791-804.289,528.792,210.218-126.205-257.617C1025.527,291.828,659.595,1360.627,527.251,566.664z"/>
	<path opacity="0.4657" fill="none" stroke="#000000" stroke-miterlimit="10" enable-background="new    " d="M526.001,560.075
		c815.313,40.781-218.803,534.029,262.597-125.252c547.676,605.35-532.333,222.899,274.251,97.117
		c-40.781,815.313-534.029-218.803,125.252,262.597c-605.35,547.676-222.899-532.333-97.117,274.251
		c-815.313-40.781,218.803-534.029-262.597,125.252c-547.676-605.35,532.333-222.899-274.251-97.117
		c40.781-815.313,534.029,218.803-125.252-262.597C1034.234,286.649,651.783,1366.659,526.001,560.075z"/>
	<path opacity="0.4722" fill="none" stroke="#000000" stroke-miterlimit="10" enable-background="new    " d="M524.858,553.434
		c826.235,50.007-227.521,539.144,267.584-124.208c548.876,619.597-542.114,220.35,277.039,101.382
		c-50.007,826.235-539.144-227.521,124.208,267.584c-619.596,548.876-220.351-542.114-101.382,277.039
		c-826.235-50.007,227.521-539.144-267.584,124.208c-548.876-619.597,542.114-220.351-277.039-101.382
		c50.007-826.235,539.144,227.521-124.208-267.584C1043.073,281.596,643.827,1372.587,524.858,553.434z"/>
	<path opacity="0.4787" fill="none" stroke="#000000" stroke-miterlimit="10" enable-background="new    " d="M523.823,546.742
		c837.052,59.465-236.37,544.133,272.578-123.074c549.837,633.933-551.899,217.622,279.768,105.716
		c-59.465,837.052-544.133-236.37,123.074,272.578c-633.933,549.837-217.622-551.899-105.715,279.768
		c-837.052-59.465,236.37-544.133-272.578,123.074c-549.837-633.933,551.899-217.622-279.768-105.716
		c59.465-837.052,544.133,236.37-123.074-272.578C1052.041,276.673,635.729,1378.409,523.823,546.742z"/>
	<path opacity="0.4852" fill="none" stroke="#000000" stroke-miterlimit="10" enable-background="new    " d="M522.896,540.001
		c847.761,69.155-245.347,548.996,277.577-121.848c550.557,648.357-561.685,214.712,282.436,110.117
		c-69.155,847.761-548.996-245.347,121.848,277.577C556.4,1356.404,990.045,244.162,1094.64,1088.283
		c-847.761-69.155,245.347-548.996-277.577,121.848c-550.557-648.357,561.685-214.712-282.436-110.117
		c69.155-847.761,548.996,245.347-121.848-277.577C1061.136,271.88,627.49,1384.122,522.896,540.001z"/>
	<path opacity="0.4917" fill="none" stroke="#000000" stroke-miterlimit="10" enable-background="new    " d="M522.078,533.213
		c858.357,79.076-254.452,553.729,282.58-120.53c551.035,662.865-571.471,211.621,285.042,114.586
		c-79.076,858.357-553.729-254.452,120.53,282.58c-662.865,551.035-211.621-571.471-114.586,285.042
		c-858.357-79.076,254.452-553.729-282.58,120.53c-551.035-662.865,571.471-211.621-285.042-114.586
		c79.076-858.357,553.729,254.452-120.53-282.58C1070.357,267.22,619.112,1389.725,522.078,533.213z"/>
	<path opacity="0.4983" fill="none" stroke="#000000" stroke-miterlimit="10" enable-background="new    " d="M521.371,526.379
		c868.837,89.226-263.683,558.331,287.585-119.122c551.268,677.453-581.252,208.348,287.585,119.122
		c-89.226,868.837-558.331-263.683,119.121,287.585c-677.453,551.268-208.348-581.252-119.122,287.585
		c-868.837-89.226,263.683-558.331-287.585,119.121c-551.268-677.453,581.252-208.348-287.585-119.122
		c89.226-868.837,558.331,263.683-119.122-287.585C1079.702,262.696,610.597,1395.215,521.371,526.379z"/>
	<path opacity="0.5048" fill="none" stroke="#000000" stroke-miterlimit="10" enable-background="new    " d="M520.775,519.5
		c879.197,99.605-273.038,562.8,292.591-117.621c551.255,692.117-591.026,204.893,290.064,123.723
		c-99.605,879.197-562.8-273.038,117.621,292.591c-692.117,551.255-204.893-591.026-123.723,290.064
		c-879.197-99.605,273.038-562.8-292.591,117.621c-551.255-692.117,591.026-204.893-290.064-123.723
		c99.605-879.197,562.8,273.038-117.621-292.591C1089.169,258.309,601.945,1400.59,520.775,519.5z"/>
	<path opacity="0.5113" fill="none" stroke="#000000" stroke-miterlimit="10" enable-background="new    " d="M520.29,512.578
		c889.434,110.21-282.514,567.133,297.597-116.028c550.995,706.855-600.792,201.256,292.477,128.389
		c-110.21,889.434-567.133-282.514,116.028,297.597c-706.855,550.995-201.256-600.792-128.389,292.477
		c-889.434-110.21,282.514-567.133-297.597,116.028c-550.995-706.855,600.792-201.256-292.477-128.389
		c110.21-889.434,567.133,282.514-116.028-297.597C1098.757,254.061,593.158,1405.847,520.29,512.578z"/>
	<path opacity="0.5178" fill="none" stroke="#000000" stroke-miterlimit="10" enable-background="new    " d="M519.919,505.615
		c899.544,121.04-292.112,571.329,302.601-114.344c550.485,721.662-610.544,197.436,294.825,133.118
		c-121.04,899.544-571.329-292.112,114.344,302.601c-721.662,550.486-197.436-610.544-133.119,294.825
		c-899.544-121.04,292.112-571.329-302.601,114.344c-550.485-721.662,610.544-197.436-294.825-133.119
		c121.04-899.544,571.329,292.112-114.343-302.601C1108.463,249.954,584.237,1410.984,519.919,505.615z"/>
	<path opacity="0.5243" fill="none" stroke="#000000" stroke-miterlimit="10" enable-background="new    " d="M519.662,498.613
		c909.523,132.094-301.827,575.385,307.603-112.567c549.726,736.535-620.282,193.435,297.104,137.911
		C992.275,1433.48,548.984,222.13,1236.936,831.56c-736.534,549.726-193.435-620.282-137.911,297.104
		c-909.523-132.094,301.827-575.385-307.603,112.567c-549.726-736.534,620.282-193.435-297.104-137.911
		c132.094-909.523,575.385,301.827-112.567-307.603C1118.285,245.991,575.185,1416,519.662,498.613z"/>
	<path opacity="0.5308" fill="none" stroke="#000000" stroke-miterlimit="10" enable-background="new    " d="M519.519,491.572
		c919.369,143.37-311.659,579.299,312.599-110.697c548.714,751.469-630.003,189.25,299.316,142.766
		c-143.37,919.369-579.299-311.659,110.697,312.599c-751.469,548.714-189.25-630.003-142.766,299.316
		c-919.369-143.37,311.659-579.299-312.599,110.697c-548.714-751.469,630.003-189.25-299.316-142.766
		c143.37-919.369,579.299,311.659-110.697-312.599C1128.222,242.174,566.003,1420.891,519.519,491.572z"/>
	<path opacity="0.5373" fill="none" stroke="#000000" stroke-miterlimit="10" enable-background="new    " d="M519.491,484.496
		c929.076,154.866-321.606,583.07,317.59-108.735c547.45,766.463-639.702,184.883,301.458,147.683
		c-154.866,929.076-583.07-321.606,108.735,317.59c-766.463,547.449-184.883-639.702-147.683,301.458
		c-929.076-154.866,321.606-583.07-317.59,108.735c-547.449-766.463,639.702-184.883-301.458-147.683
		c154.866-929.076,583.07,321.606-108.735-317.59C1138.272,238.504,556.692,1425.656,519.491,484.496z"/>
	<path opacity="0.5438" fill="none" stroke="#000000" stroke-miterlimit="10" enable-background="new    " d="M519.58,477.384
		c938.643,166.581-331.665,586.695,322.574-106.681c545.93,781.511-649.379,180.333,303.529,152.659
		c-166.581,938.643-586.695-331.665,106.681,322.574c-781.511,545.93-180.333-649.379-152.659,303.529
		C161.062,982.884,1431.37,562.77,777.131,1256.146c-545.93-781.511,649.379-180.333-303.529-152.659
		c166.581-938.643,586.695,331.665-106.681-322.574C1148.432,234.983,547.254,1430.292,519.58,477.384z"/>
	<path opacity="0.5503" fill="none" stroke="#000000" stroke-miterlimit="10" enable-background="new    " d="M519.785,470.24
		c948.065,178.514-341.836,590.173,327.549-104.534c544.155,796.611-659.03,175.601,305.529,157.695
		C974.349,1471.466,562.69,181.565,1257.397,850.95c-796.611,544.155-175.601-659.03-157.695,305.529
		c-948.065-178.513,341.835-590.173-327.549,104.534c-544.155-796.611,659.03-175.601-305.529-157.695
		c178.513-948.065,590.173,341.836-104.534-327.549C1158.701,231.614,537.69,1434.798,519.785,470.24z"/>
	<path opacity="0.5568" fill="none" stroke="#000000" stroke-miterlimit="10" enable-background="new    " d="M520.107,463.064
		c957.338,190.661-352.115,593.501,332.514-102.295c542.123,811.758-668.651,170.686,307.456,162.79
		c-190.661,957.338-593.501-352.115,102.295,332.514c-811.758,542.123-170.686-668.651-162.79,307.456
		c-957.339-190.661,352.115-593.501-332.514,102.295c-542.123-811.758,668.651-170.686-307.456-162.79
		c190.661-957.338,593.501,352.115-102.295-332.514C1169.076,228.398,528.004,1439.172,520.107,463.064z"/>
	<path opacity="0.5634" fill="none" stroke="#000000" stroke-miterlimit="10" enable-background="new    " d="M520.548,455.859
		c966.46,203.022-362.5,596.678,337.468-99.962c539.832,826.949-678.242,165.589,309.31,167.942
		c-203.022,966.46-596.678-362.5,99.963,337.468c-826.949,539.832-165.589-678.242-167.942,309.31
		c-966.46-203.023,362.5-596.678-337.468,99.962c-539.832-826.949,678.242-165.589-309.31-167.942
		c203.022-966.46,596.678,362.5-99.962-337.468C1179.556,225.336,518.195,1443.41,520.548,455.859z"/>
	<path opacity="0.5699" fill="none" stroke="#000000" stroke-miterlimit="10" enable-background="new    " d="M521.107,448.625
		c975.427,215.595-372.991,599.702,342.409-97.538c537.282,842.18-687.798,160.309,311.089,173.15
		c-215.595,975.427-599.702-372.991,97.538,342.409c-842.18,537.282-160.309-687.798-173.15,311.089
		c-975.427-215.595,372.991-599.702-342.409,97.538c-537.282-842.18,687.798-160.309-311.089-173.15
		c215.595-975.427,599.702,372.991-97.538-342.409C1190.138,222.432,508.267,1447.512,521.107,448.625z"/>
	<path opacity="0.5764" fill="none" stroke="#000000" stroke-miterlimit="10" enable-background="new    " d="M521.786,441.366
		c984.235,228.378-383.584,602.571,347.335-95.02c534.472,857.447-697.317,154.847,312.793,178.414
		c-228.378,984.235-602.571-383.584,95.02,347.335c-857.447,534.472-154.847-697.317-178.414,312.792
		c-984.235-228.378,383.584-602.571-347.335,95.02c-534.472-857.447,697.317-154.847-312.793-178.414
		c228.378-984.235,602.571,383.584-95.02-347.335C1200.82,219.686,498.22,1451.475,521.786,441.366z"/>
	<path opacity="0.5829" fill="none" stroke="#000000" stroke-miterlimit="10" enable-background="new    " d="M522.585,434.082
		c992.882,241.369-394.277,605.283,352.246-92.41c531.4,872.747-706.796,149.203,314.419,183.732
		c-241.369,992.882-605.283-394.277,92.41,352.246c-872.747,531.4-149.203-706.796-183.732,314.42
		c-992.882-241.369,394.277-605.283-352.246,92.41c-531.4-872.747,706.796-149.203-314.42-183.732
		c241.369-992.882,605.283,394.277-92.41-352.246C1211.6,217.101,488.057,1455.297,522.585,434.082z"/>
	<path opacity="0.5894" fill="none" stroke="#000000" stroke-miterlimit="10" enable-background="new    " d="M523.505,426.775
		c1001.363,254.565-405.069,607.836,357.14-89.707c528.066,888.075-716.232,143.378,315.969,189.104
		c-254.565,1001.363-607.836-405.069,89.707,357.14c-888.075,528.066-143.378-716.232-189.104,315.969
		c-1001.363-254.565,405.069-607.836-357.14,89.707c-528.066-888.075,716.232-143.378-315.969-189.104
		c254.565-1001.363,607.836,405.069-89.707-357.14C1222.476,214.678,477.779,1458.976,523.505,426.775z"/>
	<path opacity="0.5959" fill="none" stroke="#000000" stroke-miterlimit="10" enable-background="new    " d="M524.546,419.447
		c1009.675,267.965-415.957,610.229,362.016-86.912c524.468,903.428-725.623,137.371,317.44,194.528
		c-267.965,1009.675-610.229-415.957,86.912,362.016c-903.428,524.468-137.371-725.623-194.528,317.44
		c-1009.674-267.966,415.958-610.23-362.016,86.912c-524.468-903.428,725.623-137.371-317.44-194.528
		c267.965-1009.675,610.229,415.957-86.912-362.016C1233.446,212.419,467.389,1462.51,524.546,419.447z"/>
	<path opacity="0.6024" fill="none" stroke="#000000" stroke-miterlimit="10" enable-background="new    " d="M525.708,412.099
		c1017.815,281.567-426.94,612.46,366.872-84.025c520.606,918.802-734.966,131.183,318.832,200.003
		c-281.567,1017.815-612.46-426.94,84.025,366.872c-918.802,520.606-131.183-734.966-200.003,318.832
		c-1017.815-281.567,426.94-612.46-366.872,84.025c-520.606-918.802,734.966-131.183-318.832-200.003
		c281.567-1017.815,612.46,426.94-84.025-366.872C1244.507,210.326,456.888,1465.898,525.708,412.099z"/>
	<path opacity="0.6089" fill="none" stroke="#000000" stroke-miterlimit="10" enable-background="new    " d="M526.993,404.735
		c1025.78,295.369-438.014,614.527,371.706-81.045c516.479,934.193-744.259,124.814,320.144,205.529
		c-295.369,1025.78-614.527-438.014,81.045,371.706c-934.193,516.479-124.814-744.259-205.529,320.144
		C68.579,925.7,1532.373,606.541,722.653,1302.113C206.174,367.92,1466.911,1177.3,402.509,1096.585
		c295.369-1025.78,614.527,438.014-81.045-371.706C1255.657,208.4,446.278,1469.137,526.993,404.735z"/>
	<path opacity="0.6154" fill="none" stroke="#000000" stroke-miterlimit="10" enable-background="new    " d="M528.4,397.354
		c1033.566,309.367-449.177,616.428,376.518-77.973c512.086,949.597-753.497,118.265,321.374,211.103
		C916.925,1564.05,609.864,81.307,1304.266,907.003c-949.597,512.086-118.265-753.497-211.103,321.374
		C59.597,919.009,1542.34,611.948,716.644,1306.35c-512.086-949.597,753.497-118.265-321.374-211.103
		c309.367-1033.566,616.429,449.177-77.973-376.518C1266.894,206.642,435.562,1472.225,528.4,397.354z"/>
	<path opacity="0.6219" fill="none" stroke="#000000" stroke-miterlimit="10" enable-background="new    " d="M529.931,389.96
		c1041.17,323.561-460.428,618.163,381.306-74.809c507.426,965.011-762.679,111.535,322.523,216.726
		c-323.561,1041.17-618.163-460.428,74.809,381.306c-965.011,507.426-111.535-762.679-216.726,322.523
		c-1041.17-323.561,460.428-618.163-381.306,74.809c-507.426-965.011,762.679-111.535-322.522-216.726
		c323.561-1041.17,618.163,460.428-74.809-381.306C1278.216,205.056,424.74,1475.161,529.931,389.96z"/>
	<path opacity="0.6285" fill="none" stroke="#000000" stroke-miterlimit="10" enable-background="new    " d="M531.586,382.553
		c1048.589,337.948-471.764,619.729,386.069-71.554c502.499,980.43-771.802,104.627,323.588,222.396
		c-337.948,1048.589-619.729-471.764,71.554,386.069c-980.43,502.499-104.627-771.802-222.396,323.588
		c-1048.589-337.948,471.764-619.729-386.069,71.554c-502.499-980.43,771.802-104.627-323.588-222.396
		c337.947-1048.59,619.728,471.764-71.554-386.069C1289.62,203.641,413.816,1477.943,531.586,382.553z"/>
	<path opacity="0.635" fill="none" stroke="#000000" stroke-miterlimit="10" enable-background="new    " d="M533.364,375.136
		C1589.184,727.661,50.181,996.26,924.169,306.93c497.305,995.851-780.863,97.539,324.57,228.112
		c-352.525,1055.82-621.124-483.183,68.206,390.805c-995.851,497.305-97.539-780.863-228.112,324.57
		c-1055.82-352.525,483.183-621.124-390.805,68.206c-497.305-995.851,780.863-97.539-324.57-228.112
		c352.525-1055.82,621.124,483.183-68.206-390.805C1301.103,202.401,402.792,1480.568,533.364,375.136z"/>
	<path opacity="0.6415" fill="none" stroke="#000000" stroke-miterlimit="10" enable-background="new    " d="M535.267,367.71
		C1598.127,735,40.585,990.057,930.779,302.942c491.842,1011.269-789.859,90.273,325.467,233.872
		c-367.29,1062.86-622.347-494.682,64.768,395.512c-1011.269,491.842-90.273-789.859-233.872,325.467
		c-1062.86-367.29,494.682-622.347-395.512,64.768c-491.842-1011.269,789.859-90.273-325.467-233.872
		c367.29-1062.86,622.347,494.682-64.768-395.512C1312.664,201.335,391.668,1483.036,535.267,367.71z"/>
	<path opacity="0.648" fill="none" stroke="#000000" stroke-miterlimit="10" enable-background="new    " d="M537.295,360.277
		C1607,742.519,31.036,983.675,937.485,299.04c486.11,1026.681-798.788,82.829,326.279,239.676
		c-382.241,1069.704-623.397-506.259,61.238,400.19c-1026.681,486.11-82.829-798.788-239.676,326.279
		c-1069.704-382.241,506.259-623.397-400.19,61.238c-486.11-1026.681,798.788-82.829-326.279-239.676
		c382.241-1069.704,623.397,506.259-61.238-400.19C1324.3,200.446,380.449,1485.344,537.295,360.277z"/>
	<path opacity="0.6545" fill="none" stroke="#000000" stroke-miterlimit="10" enable-background="new    " d="M539.448,352.84
		C1615.8,750.215,21.536,977.112,944.286,295.223c480.109,1042.082-807.646,75.208,327.004,245.522
		c-397.375,1076.351-624.272-517.912,57.617,404.837c-1042.082,480.109-75.208-807.646-245.522,327.004
		C7.034,875.211,1601.297,648.314,678.548,1330.203c-480.108-1042.082,807.646-75.208-327.004-245.522
		C748.919,8.33,975.816,1602.594,293.927,679.844C1336.009,199.736,369.135,1487.491,539.448,352.84z"/>
	<path opacity="0.661" fill="none" stroke="#000000" stroke-miterlimit="10" enable-background="new    " d="M541.727,345.399
		c1082.797,412.69-529.638,624.971,409.452-53.905c473.837,1057.469-816.432,67.41,327.643,251.409
		C866.132,1625.7,653.851,13.265,1332.727,952.355c-1057.469,473.837-67.411-816.432-251.409,327.643
		c-1082.797-412.69,529.638-624.971-409.452,53.905c-473.837-1057.469,816.432-67.411-327.643-251.409
		c412.69-1082.797,624.971,529.638-53.905-409.452C1347.787,199.205,357.728,1489.474,541.727,345.399z"/>
	<path opacity="0.6675" fill="none" stroke="#000000" stroke-miterlimit="10" enable-background="new    " d="M544.132,337.957
		C1633.172,766.14,2.696,963.449,958.164,287.854c467.296,1072.839-825.142,59.437,328.194,257.337
		C858.175,1634.23,660.866,3.755,1336.461,959.223c-1072.839,467.296-59.437-825.142-257.337,328.194
		C-9.915,859.233,1620.56,661.924,665.092,1337.52c-467.296-1072.839,825.142-59.437-328.194-257.337
		C765.081-8.857,962.39,1621.618,286.795,666.15C1359.634,198.855,346.232,1491.293,544.132,337.957z"/>
	<path opacity="0.674" fill="none" stroke="#000000" stroke-miterlimit="10" enable-background="new    " d="M546.663,330.515
		C1641.738,774.367-6.638,956.349,965.241,284.304c460.484,1088.185-833.774,51.289,328.656,263.303
		C850.045,1642.682,668.063-5.694,1340.108,966.185c-1088.185,460.484-51.289-833.774-263.303,328.656
		c-1095.075-443.852,553.301-625.834-418.578,46.211c-460.484-1088.185,833.774-51.289-328.656-263.303
		C773.423-17.326,955.405,1631.05,283.36,659.171C1371.545,198.687,334.648,1492.945,546.663,330.515z"/>
	<path opacity="0.6805" fill="none" stroke="#000000" stroke-miterlimit="10" enable-background="new    " d="M549.32,323.076
		c1100.9,459.693-565.232,625.995,423.087-42.23c453.402,1103.506-842.325,42.966,329.029,269.307
		c-459.693,1100.9-625.995-565.232,42.23,423.087c-1103.506,453.402-42.966-842.325-269.307,329.029
		c-1100.9-459.693,565.232-625.995-423.087,42.23c-453.402-1103.506,842.325-42.966-329.029-269.307
		c459.693-1100.9,625.995,565.232-42.23-423.087C1383.519,198.703,322.979,1494.43,549.32,323.076z"/>
	<path opacity="0.687" fill="none" stroke="#000000" stroke-miterlimit="10" enable-background="new    " d="M552.104,315.641
		c1106.513,475.705-577.227,625.974,427.558-38.159c446.049,1118.797-850.792,34.469,329.311,275.347
		c-475.705,1106.513-625.974-577.227,38.159,427.558c-1118.797,446.049-34.469-850.792-275.347,329.311
		c-1106.513-475.705,577.227-625.974-427.558,38.159c-446.049-1118.797,850.792-34.469-329.312-275.347
		C790.62-34.002,940.889,1649.738,276.757,644.952C1395.553,198.904,311.226,1495.744,552.104,315.641z"/>
	<path opacity="0.6936" fill="none" stroke="#000000" stroke-miterlimit="10" enable-background="new    " d="M555.015,308.212
		c1111.91,491.884-589.283,625.77,431.99-33.998c438.425,1134.053-859.172,25.801,329.504,281.423
		c-491.884,1111.91-625.77-589.283,33.998,431.99c-1134.053,438.425-25.8-859.172-281.423,329.504
		c-1111.91-491.884,589.283-625.77-431.99,33.998c-438.425-1134.053,859.172-25.8-329.504-281.423
		c491.884-1111.91,625.77,589.283-33.998-431.99C1407.645,199.291,299.392,1496.888,555.015,308.212z"/>
	<path opacity="0.7001" fill="none" stroke="#000000" stroke-miterlimit="10" enable-background="new    " d="M558.052,300.79
		C1675.14,809.018-43.345,926.172,994.434,271.041c430.529,1149.272-867.464,16.96,329.604,287.532
		C815.81,1675.661,698.656-42.824,1353.787,994.954c-1149.271,430.529-16.96-867.464-287.532,329.604
		c-1117.088-508.227,601.397-625.382-436.381,29.749c-430.529-1149.271,867.464-16.96-329.604-287.532
		c508.227-1117.087,625.381,601.398-29.75-436.38C1419.792,199.865,287.48,1497.858,558.052,300.79z"/>
	<path opacity="0.7066" fill="none" stroke="#000000" stroke-miterlimit="10" enable-background="new    " d="M561.217,293.379
		c1122.045,524.733-613.567,624.808,440.73-25.412c422.363,1164.448-875.663,7.948,329.613,293.674
		c-524.733,1122.045-624.808-613.567,25.412,440.73c-1164.448,422.363-7.948-875.663-293.674,329.613
		c-1122.045-524.733,613.567-624.808-440.73,25.412c-422.363-1164.448,875.663-7.948-329.613-293.674
		c524.733-1122.045,624.808,613.567-25.412-440.73C1431.991,200.628,275.491,1498.655,561.217,293.379z"/>
	<path opacity="0.7131" fill="none" stroke="#000000" stroke-miterlimit="10" enable-background="new    " d="M564.51,285.979
		c1126.777,541.398-625.791,624.046,445.036-20.987c413.926,1179.578-883.768-1.233,329.528,299.848
		c-541.398,1126.777-624.047-625.791,20.987,445.036c-1179.578,413.926,1.233-883.768-299.848,329.528
		c-1126.777-541.398,625.791-624.046-445.036,20.987c-413.926-1179.578,883.768,1.233-329.528-299.848
		c541.398-1126.777,624.047,625.791-20.987-445.036C1444.24,201.581,263.429,1499.275,564.51,285.979z"/>
	<path opacity="0.7196" fill="none" stroke="#000000" stroke-miterlimit="10" enable-background="new    " d="M567.929,278.592
		c1131.282,558.218-638.065,623.097,449.297-16.475c405.217,1194.657-891.776-10.584,329.35,306.051
		c-558.218,1131.282-623.097-638.065,16.475,449.297c-1194.657,405.217,10.584-891.776-306.051,329.35
		c-1131.282-558.218,638.065-623.097-449.297,16.475c-405.217-1194.657,891.776,10.584-329.35-306.051
		C836.571-74.043,901.45,1695.304,261.878,607.943C1456.536,202.725,251.294,1499.719,567.929,278.592z"/>
	<path opacity="0.7261" fill="none" stroke="#000000" stroke-miterlimit="10" enable-background="new    " d="M571.477,271.221
		C1707.034,846.413-78.91,893.18,1024.988,259.346c396.238,1209.683-899.684-20.102,329.078,312.284
		c-575.192,1135.558-621.959-650.387,11.875,453.511c-1209.683,396.238,20.102-899.684-312.284,329.078
		C-81.9,779.027,1704.045,732.26,600.147,1366.095c-396.238-1209.683,899.684,20.102-329.078-312.284
		c575.192-1135.558,621.959,650.387-11.876-453.512C1468.876,204.061,239.091,1499.984,571.477,271.221z"/>
	<path opacity="0.7326" fill="none" stroke="#000000" stroke-miterlimit="10" enable-background="new    " d="M575.151,263.867
		c1139.601,592.316-662.755,620.63,457.679-7.19c386.988,1224.65-907.49-29.787,328.712,318.544
		c-592.316,1139.601-620.63-662.755,7.19,457.679c-1224.65,386.988,29.787-907.49-318.544,328.712
		c-1139.601-592.316,662.755-620.63-457.679,7.19c-386.988-1224.65,907.49,29.787-328.712-318.544
		c592.316-1139.601,620.63,662.755-7.19-457.679C1481.258,205.59,226.821,1500.069,575.151,263.867z"/>
	<path opacity="0.7391" fill="none" stroke="#000000" stroke-miterlimit="10" enable-background="new    " d="M578.954,256.532
		c1143.408,609.588-675.165,619.11,461.797-2.418c377.468,1239.555-915.19-39.637,328.25,324.83
		c-609.588,1143.408-619.11-675.165,2.418,461.797c-1239.555,377.468,39.637-915.191-324.83,328.25
		c-1143.408-609.588,675.165-619.11-461.797,2.418c-377.468-1239.555,915.19,39.637-328.25-324.83
		c609.588-1143.408,619.11,675.165-2.418-461.797C1493.679,207.314,214.486,1499.972,578.954,256.532z"/>
	<path opacity="0.7456" fill="none" stroke="#000000" stroke-miterlimit="10" enable-background="new    " d="M582.884,249.218
		c1146.978,627.003-687.616,617.397,465.865,2.439c367.678,1254.394-922.783-49.652,327.692,331.141
		c-627.003,1146.978-617.397-687.616-2.439,465.865c-1254.394,367.678,49.652-922.783-331.141,327.692
		c-1146.978-627.003,687.616-617.397-465.865-2.439c-367.678-1254.394,922.783,49.652-327.692-331.141
		C876.306-104.203,866.7,1730.391,251.743,576.91C1506.137,209.232,202.09,1499.693,582.884,249.218z"/>
	<path opacity="0.7521" fill="none" stroke="#000000" stroke-miterlimit="10" enable-background="new    " d="M586.941,241.927
		c1150.307,644.559-700.104,615.491,469.882,7.382c357.618,1269.162-930.266-59.831,327.037,337.476
		c-644.559,1150.307-615.491-700.104-7.381,469.882c-1269.163,357.618,59.831-930.266-337.476,327.037
		c-1150.307-644.56,700.104-615.491-469.882-7.382c-357.618-1269.162,930.266,59.831-327.037-337.476
		c644.559-1150.307,615.491,700.104,7.382-469.882C1518.628,211.346,189.634,1499.23,586.941,241.927z"/>
	<path opacity="0.7587" fill="none" stroke="#000000" stroke-miterlimit="10" enable-background="new    " d="M591.127,234.66
		c1153.394,662.254-712.627,613.39,473.846,12.408c347.288,1283.857-937.636-70.171,326.286,343.833
		c-662.254,1153.394-613.39-712.627-12.408,473.846c-1283.857,347.288,70.171-937.636-343.833,326.286
		c-1153.394-662.254,712.627-613.39-473.846-12.408c-347.288-1283.857,937.636,70.171-326.286-343.833
		c662.254-1153.394,613.39,712.627,12.408-473.846C1531.15,213.658,177.122,1498.582,591.127,234.66z"/>
	<path opacity="0.7652" fill="none" stroke="#000000" stroke-miterlimit="10" enable-background="new    " d="M595.439,227.42
		c1156.235,680.083-725.182,611.094,477.755,17.519c336.69,1298.472-944.89-80.673,325.436,350.211
		c-680.083,1156.235-611.094-725.182-17.518,477.755c-1298.472,336.69,80.673-944.89-350.211,325.436
		c-1156.234-680.083,725.182-611.094-477.755-17.518c-336.69-1298.472,944.89,80.673-325.436-350.211
		c680.083-1156.234,611.094,725.182,17.519-477.755C1543.7,216.167,164.555,1497.747,595.439,227.42z"/>
	<path opacity="0.7717" fill="none" stroke="#000000" stroke-miterlimit="10" enable-background="new    " d="M599.879,220.209
		c1158.827,698.043-737.767,608.602,481.609,22.712c325.824,1313.006-952.027-91.334,324.489,356.609
		c-698.043,1158.827-608.602-737.767-22.712,481.609c-1313.006,325.824,91.334-952.027-356.609,324.489
		c-1158.827-698.043,737.767-608.602-481.609-22.712c-325.824-1313.006,952.027,91.333-324.489-356.609
		C918.601-132.52,829.16,1764.074,243.27,544.698C1556.276,218.875,151.937,1496.725,599.879,220.209z"/>
	<path opacity="0.7782" fill="none" stroke="#000000" stroke-miterlimit="10" enable-background="new    " d="M604.446,213.028
		c1161.17,716.132-750.378,605.912,485.406,27.988c314.689,1327.453-959.042-102.153,323.443,363.025
		c-716.132,1161.17-605.913-750.378-27.988,485.406C57.854,1404.136,1487.46,130.405,1022.282,1412.89
		c-1161.17-716.132,750.378-605.912-485.406-27.988C222.187,57.45,1495.919,1487.055,213.433,1021.878
		c716.132-1161.17,605.912,750.378,27.988-485.406C1568.874,221.782,139.269,1495.514,604.446,213.028z"/>
	<path opacity="0.7847" fill="none" stroke="#000000" stroke-miterlimit="10" enable-background="new    " d="M609.141,205.879
		c1163.259,734.345-763.013,603.025,489.145,33.347c303.288,1341.809-965.935-113.129,322.298,369.458
		c-734.345,1163.259-603.025-763.013-33.347,489.145c-1341.809,303.288,113.129-965.935-369.458,322.298
		c-1163.259-734.345,763.013-603.025-489.145-33.347C225.347,44.971,1494.57,1499.909,206.336,1017.323
		c734.345-1163.259,603.025,763.013,33.347-489.145C1581.492,224.89,126.554,1494.113,609.141,205.879z"/>
	<path opacity="0.7912" fill="none" stroke="#000000" stroke-miterlimit="10" enable-background="new    " d="M613.962,198.764
		c1165.094,752.681-775.67,599.939,492.825,38.786c291.62,1356.071-972.702-124.26,321.054,375.906
		c-752.681,1165.094-599.939-775.67-38.786,492.825c-1356.071,291.62,124.26-972.702-375.906,321.054
		c-1165.094-752.681,775.67-599.939-492.825-38.786c-291.62-1356.071,972.702,124.26-321.054-375.906
		c752.681-1165.094,599.939,775.67,38.786-492.825C1594.127,228.198,113.796,1492.521,613.962,198.764z"/>
	<path opacity="0.7977" fill="none" stroke="#000000" stroke-miterlimit="10" enable-background="new    " d="M618.91,191.685
		c1166.671,771.134-788.344,596.654,496.444,44.306c279.686,1370.235-979.341-135.546,319.71,382.368
		c-771.134,1166.67-596.654-788.344-44.307,496.444c-1370.235,279.686,135.546-979.341-382.368,319.709
		c-1166.67-771.134,788.344-596.654-496.444-44.307c-279.686-1370.235,979.341,135.546-319.71-382.368
		c771.134-1166.671,596.654,788.344,44.306-496.444C1606.777,231.709,100.996,1490.736,618.91,191.685z"/>
	<path opacity="0.8042" fill="none" stroke="#000000" stroke-miterlimit="10" enable-background="new    " d="M623.985,184.645
		c1167.988,789.703-801.034,593.168,500.001,49.907c267.488,1384.296-985.85-146.984,318.265,388.843
		c-789.703,1167.988-593.168-801.034-49.907,500.001C8.047,1390.884,1539.327,137.546,1003.5,1441.66
		c-1167.988-789.703,801.034-593.168-500.001-49.907C236.011,7.458,1489.349,1538.737,185.234,1002.91
		c789.703-1167.988,593.168,801.034,49.907-500.001C1619.437,235.421,88.158,1488.759,623.985,184.645z"/>
	<path opacity="0.8107" fill="none" stroke="#000000" stroke-miterlimit="10" enable-background="new    " d="M629.185,177.643
		c1169.043,808.383-813.737,589.481,503.495,55.586c255.025,1398.251-992.225-158.573,316.719,395.33
		c-808.382,1169.043-589.481-813.737-55.586,503.495c-1398.251,255.025,158.573-992.225-395.33,316.719
		C-170.56,640.39,1812.22,859.291,494.988,1393.187C239.963-5.064,1487.213,1551.76,178.269,997.857
		c808.383-1169.043,589.481,813.737,55.586-503.495C1632.106,239.337,75.283,1486.588,629.185,177.643z"/>
	<path opacity="0.8172" fill="none" stroke="#000000" stroke-miterlimit="10" enable-background="new    " d="M634.512,170.684
		c1169.834,827.17-826.45,585.593,506.924,61.345c242.3,1412.095-998.465-170.311,315.072,401.826
		c-827.17,1169.834-585.593-826.45-61.344,506.924c-1412.095,242.3,170.311-998.465-401.826,315.072
		c-1169.834-827.17,826.45-585.593-506.924-61.344c-242.3-1412.095,998.465,170.311-315.072-401.826
		c827.17-1169.834,585.593,826.45,61.345-506.924C1644.781,243.456,62.375,1484.221,634.512,170.684z"/>
	<path opacity="0.8238" fill="none" stroke="#000000" stroke-miterlimit="10" enable-background="new    " d="M639.965,163.768
		c1170.358,846.063-839.17,581.503,510.287,67.181C1379.563,1656.774,145.684,48.751,1463.575,639.28
		c-846.063,1170.358-581.503-839.17-67.181,510.287C-29.431,1378.878,1578.592,144.999,988.063,1462.89
		c-1170.358-846.063,839.17-581.503-510.287-67.181C248.465-30.116,1482.344,1577.907,164.453,987.378
		c846.063-1170.358,581.503,839.17,67.181-510.287C1657.458,247.78,49.436,1481.659,639.965,163.768z"/>
	<path opacity="0.8303" fill="none" stroke="#000000" stroke-miterlimit="10" enable-background="new    " d="M645.542,156.898
		c1170.615,865.056-851.894,577.21,513.583,73.094c216.063,1439.436-1010.529-194.231,311.473,414.843
		c-865.056,1170.615-577.21-851.894-73.094,513.583C-41.932,1374.48,1591.735,147.888,982.662,1469.89
		c-1170.615-865.056,851.894-577.21-513.583-73.094C253.016-42.64,1479.608,1591.027,157.606,981.953
		c865.056-1170.615,577.21,851.894,73.094-513.583C1670.136,252.308,36.469,1478.9,645.542,156.898z"/>
	<path opacity="0.8368" fill="none" stroke="#000000" stroke-miterlimit="10" enable-background="new    " d="M651.245,150.074
		c1170.6,884.147-864.619,572.714,516.811,79.083c202.553,1452.926-1016.348-206.408,309.52,421.361
		c-884.147,1170.6-572.714-864.619-79.083,516.811c-1452.926,202.553,206.408-1016.348-421.361,309.52
		c-1170.6-884.147,864.619-572.714-516.811-79.083C257.768-55.16,1476.67,1604.174,150.802,976.405
		c884.147-1170.6,572.714,864.619,79.083-516.811C1682.81,257.041,23.477,1475.943,651.245,150.074z"/>
	<path opacity="0.8433" fill="none" stroke="#000000" stroke-miterlimit="10" enable-background="new    " d="M657.073,143.3
		c1170.314,903.331-877.343,568.014,519.969,85.148C1365.827,1694.737,155.02,9.72,1484.507,656.331
		c-903.331,1170.314-568.014-877.343-85.148,519.969C-66.93,1365.085,1618.087,154.278,971.476,1483.765
		c-1170.314-903.331,877.343-568.014-519.969-85.148C262.722-67.672,1473.529,1617.345,144.042,970.734
		c903.331-1170.314,568.014,877.343,85.148-519.969C1695.479,261.98,10.462,1472.787,657.073,143.3z"/>
	<path opacity="0.8498" fill="none" stroke="#000000" stroke-miterlimit="10" enable-background="new    " d="M663.025,136.577
		c1169.753,922.606-890.063,563.11,523.056,91.288C1360.84,1707.386,158.532-3.325,1491.387,662.273
		c-922.606,1169.753-563.11-890.063-91.288,523.056C-79.421,1360.088,1631.29,157.78,965.692,1490.635
		c-1169.753-922.606,890.063-563.11-523.056-91.288C267.877-80.173,1470.185,1630.538,137.329,964.94
		c922.606-1169.753,563.11,890.063,91.288-523.057C1708.138,267.125-2.573,1469.432,663.025,136.577z"/>
	<path opacity="0.8563" fill="none" stroke="#000000" stroke-miterlimit="10" enable-background="new    " d="M669.1,129.907
		c1168.915,941.967-902.775,558.002,526.072,97.502c160.477,1492.619-1032.925-243.792,303.045,440.933
		c-941.967,1168.915-558.002-902.775-97.502,526.072c-1492.619,160.477,243.792-1032.925-440.933,303.045
		c-1168.915-941.967,902.775-558.002-526.072-97.502C273.234-92.662,1466.636,1643.749,130.665,959.024
		c941.967-1168.915,558.002,902.775,97.502-526.072C1720.786,272.476-15.625,1465.878,669.1,129.907z"/>
	<path opacity="0.8628" fill="none" stroke="#000000" stroke-miterlimit="10" enable-background="new    " d="M675.299,123.292
		c1167.8,961.411-915.478,552.688,529.014,103.788c145.939,1505.58-1038.15-256.53,300.68,447.46
		c-961.411,1167.8-552.688-915.478-103.788,529.014c-1505.579,145.939,256.531-1038.15-447.459,300.68
		c-1167.8-961.411,915.478-552.688-529.014-103.788c-145.939-1505.579,1038.15,256.531-300.68-447.459
		c961.411-1167.8,552.688,915.478,103.788-529.014C1733.419,278.033-28.691,1462.122,675.299,123.292z"/>
	<path opacity="0.8693" fill="none" stroke="#000000" stroke-miterlimit="10" enable-background="new    " d="M681.621,116.733
		c1166.404,980.934-928.167,547.17,531.882,110.147c131.147,1518.397-1043.22-269.406,298.211,453.983
		c-980.934,1166.404-547.17-928.167-110.147,531.882c-1518.398,131.147,269.406-1043.22-453.983,298.211
		c-1166.404-980.934,928.167-547.17-531.882-110.148C284.554-117.587,1458.922,1670.216,117.49,946.827
		c980.934-1166.404,547.17,928.167,110.147-531.882C1746.035,283.798-41.768,1458.165,681.621,116.733z"/>
	<path opacity="0.8758" fill="none" stroke="#000000" stroke-miterlimit="10" enable-background="new    " d="M688.065,110.233
		c1164.727,1000.533-940.84,541.445,534.674,116.578c116.102,1531.07-1048.134-282.415,295.639,460.505
		C517.845,1852.042,976.933-253.524,1401.8,1221.99c-1531.07,116.102,282.415-1048.134-460.505,295.639
		c-1164.727-1000.533,940.84-541.445-534.674-116.578c-116.102-1531.07,1048.134,282.415-295.639-460.505
		C1111.515-224.18,652.427,1881.386,227.56,405.872C1758.63,289.769-54.855,1454.006,688.065,110.233z"/>
	<path opacity="0.8823" fill="none" stroke="#000000" stroke-miterlimit="10" enable-background="new    " d="M694.631,103.793
		c1162.766,1020.203-953.494,535.515,537.39,123.079c100.807,1543.592-1052.889-295.556,292.962,467.022
		C504.78,1856.66,989.468-259.6,1401.904,1231.284C-141.688,1332.09,1697.46,178.395,934.882,1524.245
		c-1162.766-1020.203,953.494-535.515-537.39-123.079C296.686-142.425,1450.381,1696.723,104.53,934.145
		c1020.203-1162.766,535.515,953.494,123.079-537.39C1771.201,295.948-67.947,1449.644,694.631,103.793z"/>
	<path opacity="0.8889" fill="none" stroke="#000000" stroke-miterlimit="10" enable-background="new    " d="M701.318,97.416
		c1160.52,1039.941-966.127,529.379,540.027,129.649c85.262,1555.961-1057.482-308.828,290.181,473.533
		c-1039.941,1160.52-529.379-966.127-129.649,540.027c-1555.961,85.262,308.828-1057.482-473.533,290.181
		c-1160.52-1039.941,966.127-529.379-540.027-129.649C303.056-154.804,1445.8,1709.984,98.136,927.624
		c1039.941-1160.52,529.379,966.127,129.649-540.027C1783.746,302.335-81.042,1445.079,701.318,97.416z"/>
	<path opacity="0.8954" fill="none" stroke="#000000" stroke-miterlimit="10" enable-background="new    " d="M708.126,91.102
		c1157.987,1059.743-978.735,523.036,542.586,136.288C1320.181,1795.562,188.8-94.838,1538.008,707.426
		c-1059.743,1157.987-523.036-978.735-136.288,542.586C-166.453,1319.48,1723.947,188.1,921.683,1537.307
		c-1157.987-1059.743,978.735-523.036-542.586-136.288C309.629-167.153,1441.01,1723.247,91.802,920.983
		C1151.545-237.004,614.838,1899.718,228.09,378.398C1796.262,308.929-94.138,1440.31,708.126,91.102z"/>
	<path opacity="0.9019" fill="none" stroke="#000000" stroke-miterlimit="10" enable-background="new    " d="M715.054,84.854
		C1870.22,1164.46-276.261,601.341,1260.118,227.849c53.429,1580.222-1066.177-335.754,284.306,486.531
		c-1079.606,1155.166-516.487-991.315-142.995,545.064c-1580.222,53.429,335.754-1066.177-486.531,284.306
		c-1155.166-1079.606,991.315-516.487-545.064-142.995C316.405-179.467,1436.011,1736.509,85.528,914.224
		C1165.134-240.942,602.015,1905.539,228.523,369.16C1808.745,315.731-107.231,1435.337,715.054,84.854z"/>
	<path opacity="0.9084" fill="none" stroke="#000000" stroke-miterlimit="10" enable-background="new    " d="M722.102,78.674
		c1152.054,1099.524-1003.865,509.731,547.46,149.768c37.145,1592.106-1070.274-349.405,281.211,493.015
		c-1099.524,1152.054-509.731-1003.865-149.768,547.46c-1592.106,37.145,349.405-1070.274-493.015,281.211
		C-244.064,450.604,1911.855,1040.397,360.53,1400.36C323.384-191.746,1430.803,1749.766,79.318,907.346
		C1178.842-244.709,589.049,1911.21,229.086,359.885C1821.193,322.741-120.319,1430.159,722.102,78.674z"/>
	<path opacity="0.9149" fill="none" stroke="#000000" stroke-miterlimit="10" enable-background="new    " d="M729.268,72.564
		C1877.92,1192.059-287.113,575.333,1279.042,229.171c20.617,1603.822-1074.201-363.178,278.011,499.488
		c-1119.495,1148.652-502.769-1016.381-156.607,549.775c-1603.822,20.617,363.178-1074.201-499.488,278.011
		c-1148.651-1119.495,1016.381-502.77-549.774-156.608C330.567-203.985,1425.385,1763.015,73.173,900.35
		C1192.668-248.302,575.942,1916.73,229.78,350.575C1833.602,329.958-133.398,1424.776,729.268,72.564z"/>
	<path opacity="0.9214" fill="none" stroke="#000000" stroke-miterlimit="10" enable-background="new    " d="M736.552,66.525
		c1144.956,1139.514-1028.86,495.6,552.005,163.511c3.848,1615.365-1077.956-377.072,274.707,505.947
		c-1139.514,1144.956-495.6-1028.86-163.511,552.005c-1615.365,3.848,377.072-1077.956-505.947,274.707
		c-1144.956-1139.514,1028.86-495.6-552.005-163.511c-3.848-1615.365,1077.956,377.072-274.707-505.947
		c1139.514-1144.956,495.6,1028.86,163.511-552.005C1845.97,337.383-146.466,1419.188,736.552,66.525z"/>
	<path opacity="0.9279" fill="none" stroke="#000000" stroke-miterlimit="10" enable-background="new    " d="M743.954,60.559
		c1140.967,1159.578-1041.3,488.225,554.151,170.479c-13.16,1626.731-1081.538-391.083,271.297,512.391
		c-1159.578,1140.967-488.225-1041.3-170.479,554.151c-1626.731-13.16,391.083-1081.537-512.391,271.297
		c-1140.967-1159.578,1041.3-488.225-554.151-170.479c13.16-1626.731,1081.537,391.083-271.297-512.391
		c1159.578-1140.967,488.225,1041.3,170.479-554.151C1858.294,345.016-159.52,1413.393,743.954,60.559z"/>
	<path opacity="0.9344" fill="none" stroke="#000000" stroke-miterlimit="10" enable-background="new    " d="M751.473,54.668
		c1136.682,1179.682-1053.698,480.643,556.211,177.51c-30.406,1637.917-1084.943-405.211,267.782,518.819
		c-1179.682,1136.682-480.643-1053.698-177.51,556.211c-1637.917-30.406,405.211-1084.943-518.819,267.782
		c-1136.682-1179.682,1053.698-480.643-556.211-177.51c30.406-1637.917,1084.943,405.211-267.782-518.819
		C1234.826-258.02,535.787,1932.359,232.654,322.45C1870.57,352.856-172.557,1407.393,751.473,54.668z"/>
	<path opacity="0.9409" fill="none" stroke="#000000" stroke-miterlimit="10" enable-background="new    " d="M759.107,48.854
		c1132.1,1199.823-1066.05,472.855,558.184,184.602c-47.888,1648.919-1088.17-419.452,264.163,525.229
		c-1199.823,1132.1-472.855-1066.05-184.602,558.184c-1648.918-47.888,419.452-1088.17-525.229,264.163
		c-1132.1-1199.823,1066.05-472.855-558.184-184.602c47.888-1648.918,1088.17,419.452-264.163-525.229
		c1199.823-1132.1,472.855,1066.05,184.602-558.184C1882.797,360.904-185.574,1401.186,759.107,48.854z"/>
	<path opacity="0.9474" fill="none" stroke="#000000" stroke-miterlimit="10" enable-background="new    " d="M766.857,43.118
		c1127.22,1219.996-1078.354,464.86,560.069,191.755c-65.603,1659.733-1091.217-433.806,260.438,531.62
		c-1219.996,1127.22-464.86-1078.354-191.755,560.069C-264.123,1260.959,1829.415,235.345,863.989,1587
		C-263.23,367.003,1942.343,1122.14,303.92,1395.245c65.603-1659.732,1091.217,433.806-260.438-531.62
		c1219.996-1127.22,464.86,1078.354,191.755-560.069C1894.969,369.159-198.569,1394.773,766.857,43.118z"/>
	<path opacity="0.954" fill="none" stroke="#000000" stroke-miterlimit="10" enable-background="new    " d="M774.721,37.463
		c1122.04,1240.198-1090.606,456.659,561.865,198.967c-83.55,1670.355-1094.081-448.268,256.608,537.99
		c-1240.198,1122.04-456.659-1090.606-198.967,561.865c-1670.355-83.55,448.268-1094.081-537.99,256.608
		c-1122.041-1240.198,1090.606-456.659-561.865-198.967c83.55-1670.355,1094.081,448.268-256.608-537.99
		c1240.198-1122.04,456.659,1090.606,198.967-561.865C1907.086,377.621-211.537,1388.152,774.721,37.463z"/>
	<path opacity="0.9605" fill="none" stroke="#000000" stroke-miterlimit="10" enable-background="new    " d="M782.698,31.89
		C1899.259,1292.314-320.106,480.142,1346.27,238.128C1244.543,1918.91,249.507-224.711,1598.943,782.465
		c-1260.424,1116.561-448.252-1102.804-206.238,563.572C-288.078,1244.31,1855.543,249.274,848.367,1598.71
		c-1116.561-1260.424,1102.804-448.252-563.572-206.238C386.522-288.311,1381.558,1855.31,32.123,848.134
		C1292.547-268.427,480.375,1950.938,238.361,284.563C1919.143,386.289-224.478,1381.325,782.698,31.89z"/>
	<path opacity="0.967" fill="none" stroke="#000000" stroke-miterlimit="10" enable-background="new    " d="M790.788,26.4
		c1110.78,1280.671-1114.945,439.639,565.187,213.566c-120.131,1691.011-1099.257-477.513,248.633,550.661
		c-1280.671,1110.78-439.639-1114.945-213.566,565.187c-1691.012-120.13,477.513-1099.256-550.662,248.634
		c-1110.78-1280.671,1114.945-439.64-565.186-213.567C395.324-300.13,1374.451,1868.395,26.561,840.22
		C1307.231-270.56,466.2,1955.165,240.127,275.034C1931.138,395.164-237.386,1374.291,790.788,26.4z"/>
	<path opacity="0.9735" fill="none" stroke="#000000" stroke-miterlimit="10" enable-background="new    " d="M798.99,20.997
		C1903.687,1321.93-328.035,451.818,1365.699,241.948c-138.76,1701.038-1101.564-492.291,244.488,556.96
		c-1300.933,1104.697-430.821-1127.025-220.951,566.709c-1701.038-138.76,492.291-1101.564-556.96,244.488
		C-272.42,309.172,1959.302,1179.284,265.568,1389.154c138.76-1701.038,1101.564,492.291-244.488-556.96
		C1322.013-272.502,451.9,1959.22,242.03,265.485C1943.068,404.245-250.261,1367.049,798.99,20.997z"/>
	<path opacity="0.98" fill="none" stroke="#000000" stroke-miterlimit="10" enable-background="new    " d="M807.303,15.681
		c1098.31,1321.208-1139.043,421.798,568.139,228.391c-157.612,1710.857-1103.681-507.17,240.239,563.231
		C294.473,1905.613,1193.883-331.74,1387.29,1375.442c-1710.858-157.612,507.169-1103.681-563.232,240.239
		c-1098.31-1321.208,1139.043-421.798-568.139-228.391C413.532-323.568,1359.6,1894.459,15.681,824.059
		C1336.889-274.251,437.479,1963.102,244.072,255.92C1954.929,413.532-263.098,1359.6,807.303,15.681z"/>
</g>
</svg>
