<?xml version="1.0"?>
<!-- Generated by SVGo -->
<svg width="319.565mm" height="133.827mm"
     viewBox="0.000 0.000 319.565 133.827"
     xmlns="http://www.w3.org/2000/svg" 
     xmlns:xlink="http://www.w3.org/1999/xlink">
<polygon points="314.564,128.827 5.001,128.827 5.001,5.001 314.564,5.001" style="fill:none;stroke-width:0.050000mm;stroke:black"/>
<polygon points="259.938,112.301 259.938,126.301 273.938,126.301 273.938,112.301" style="fill:none;stroke-width:0.050000mm;stroke:black"/>
<polygon points="278.988,112.301 278.988,126.301 292.988,126.301 292.988,112.301" style="fill:none;stroke-width:0.050000mm;stroke:black"/>
<polygon points="298.038,112.301 298.038,126.301 312.038,126.301 312.038,112.301" style="fill:none;stroke-width:0.050000mm;stroke:black"/>
<polygon points="128.968,107.538 128.968,112.238 89.344,112.238 89.344,109.008 87.619,109.008 87.619,108.088 84.319,108.088 84.319,109.008 82.594,109.008 82.594,112.238 81.769,112.238 81.769,115.038 82.594,115.038 82.594,121.308 84.319,121.308 84.319,122.288 87.619,122.288 87.619,121.308 89.344,121.308 89.344,116.838 128.968,116.838 128.968,121.538 142.969,121.538 142.969,116.838 182.594,116.838 182.594,121.308 184.319,121.308 184.319,122.288 187.619,122.288 187.619,121.308 189.344,121.308 189.344,115.038 190.169,115.038 190.169,112.238 189.344,112.238 189.344,109.008 187.619,109.008 187.619,108.088 184.319,108.088 184.319,109.008 182.594,109.008 182.594,112.238 142.969,112.238 142.969,107.538" style="fill:none;stroke-width:0.050000mm;stroke:black"/>
<polygon points="9.907,107.538 9.907,121.538 23.907,121.538 23.907,107.538" style="fill:none;stroke-width:0.050000mm;stroke:black"/>
<polygon points="33.719,107.538 33.719,121.538 47.719,121.538 47.719,107.538" style="fill:none;stroke-width:0.050000mm;stroke:black"/>
<polygon points="57.532,107.538 57.532,121.538 71.532,121.538 71.532,107.538" style="fill:none;stroke-width:0.050000mm;stroke:black"/>
<polygon points="198.026,107.538 198.026,121.538 212.026,121.538 212.026,107.538" style="fill:none;stroke-width:0.050000mm;stroke:black"/>
<polygon points="217.076,107.538 217.076,121.538 231.076,121.538 231.076,107.538" style="fill:none;stroke-width:0.050000mm;stroke:black"/>
<polygon points="236.126,107.538 236.126,121.538 250.126,121.538 250.126,107.538" style="fill:none;stroke-width:0.050000mm;stroke:black"/>
<polygon points="278.988,93.251 278.988,107.251 292.988,107.251 292.988,93.251" style="fill:none;stroke-width:0.050000mm;stroke:black"/>
<polygon points="19.432,88.488 19.432,93.188 17.907,93.188 17.907,89.958 16.182,89.958 16.182,89.038 12.882,89.038 12.882,89.958 11.157,89.958 11.157,93.188 10.332,93.188 10.332,95.988 11.157,95.988 11.157,102.258 12.882,102.258 12.882,103.238 16.182,103.238 16.182,102.258 17.907,102.258 17.907,97.788 19.432,97.788 19.432,102.488 33.432,102.488 33.432,97.788 34.957,97.788 34.957,102.258 36.682,102.258 36.682,103.238 39.982,103.238 39.982,102.258 41.707,102.258 41.707,95.988 42.532,95.988 42.532,93.188 41.707,93.188 41.707,89.958 39.982,89.958 39.982,89.038 36.682,89.038 36.682,89.958 34.957,89.958 34.957,93.188 33.432,93.188 33.432,88.488" style="fill:none;stroke-width:0.050000mm;stroke:black"/>
<polygon points="50.388,88.488 50.388,102.488 64.388,102.488 64.388,88.488" style="fill:none;stroke-width:0.050000mm;stroke:black"/>
<polygon points="69.438,88.488 69.438,102.488 83.438,102.488 83.438,88.488" style="fill:none;stroke-width:0.050000mm;stroke:black"/>
<polygon points="88.488,88.488 88.488,102.488 102.488,102.488 102.488,88.488" style="fill:none;stroke-width:0.050000mm;stroke:black"/>
<polygon points="107.538,88.488 107.538,102.488 121.538,102.488 121.538,88.488" style="fill:none;stroke-width:0.050000mm;stroke:black"/>
<polygon points="126.588,88.488 126.588,102.488 140.588,102.488 140.588,88.488" style="fill:none;stroke-width:0.050000mm;stroke:black"/>
<polygon points="145.638,88.488 145.638,102.488 159.638,102.488 159.638,88.488" style="fill:none;stroke-width:0.050000mm;stroke:black"/>
<polygon points="164.688,88.488 164.688,102.488 178.688,102.488 178.688,88.488" style="fill:none;stroke-width:0.050000mm;stroke:black"/>
<polygon points="183.738,88.488 183.738,102.488 197.738,102.488 197.738,88.488" style="fill:none;stroke-width:0.050000mm;stroke:black"/>
<polygon points="202.788,88.488 202.788,102.488 216.788,102.488 216.788,88.488" style="fill:none;stroke-width:0.050000mm;stroke:black"/>
<polygon points="221.838,88.488 221.838,102.488 235.838,102.488 235.838,88.488" style="fill:none;stroke-width:0.050000mm;stroke:black"/>
<polygon points="248.032,88.488 248.032,102.488 262.032,102.488 262.032,88.488" style="fill:none;stroke-width:0.050000mm;stroke:black"/>
<polygon points="262.319,69.438 262.319,74.138 260.794,74.138 260.794,70.908 259.068,70.908 259.068,69.988 255.769,69.988 255.769,70.908 254.044,70.908 254.044,74.138 253.219,74.138 253.219,76.938 254.044,76.938 254.044,83.208 255.769,83.208 255.769,84.188 259.068,84.188 259.068,83.208 260.794,83.208 260.794,78.738 262.319,78.738 262.319,83.438 276.319,83.438 276.319,78.738 277.844,78.738 277.844,83.208 279.569,83.208 279.569,84.188 282.869,84.188 282.869,83.208 284.594,83.208 284.594,76.938 285.419,76.938 285.419,74.138 284.594,74.138 284.594,70.908 282.869,70.908 282.869,69.988 279.569,69.988 279.569,70.908 277.844,70.908 277.844,74.138 276.319,74.138 276.319,69.438" style="fill:none;stroke-width:0.050000mm;stroke:black"/>
<polygon points="14.669,69.438 14.669,83.438 28.669,83.438 28.669,69.438" style="fill:none;stroke-width:0.050000mm;stroke:black"/>
<polygon points="40.863,69.438 40.863,83.438 54.863,83.438 54.863,69.438" style="fill:none;stroke-width:0.050000mm;stroke:black"/>
<polygon points="59.913,69.438 59.913,83.438 73.913,83.438 73.913,69.438" style="fill:none;stroke-width:0.050000mm;stroke:black"/>
<polygon points="78.963,69.438 78.963,83.438 92.963,83.438 92.963,69.438" style="fill:none;stroke-width:0.050000mm;stroke:black"/>
<polygon points="98.013,69.438 98.013,83.438 112.013,83.438 112.013,69.438" style="fill:none;stroke-width:0.050000mm;stroke:black"/>
<polygon points="117.063,69.438 117.063,83.438 131.063,83.438 131.063,69.438" style="fill:none;stroke-width:0.050000mm;stroke:black"/>
<polygon points="136.113,69.438 136.113,83.438 150.113,83.438 150.113,69.438" style="fill:none;stroke-width:0.050000mm;stroke:black"/>
<polygon points="155.163,69.438 155.163,83.438 169.163,83.438 169.163,69.438" style="fill:none;stroke-width:0.050000mm;stroke:black"/>
<polygon points="174.213,69.438 174.213,83.438 188.213,83.438 188.213,69.438" style="fill:none;stroke-width:0.050000mm;stroke:black"/>
<polygon points="193.263,69.438 193.263,83.438 207.263,83.438 207.263,69.438" style="fill:none;stroke-width:0.050000mm;stroke:black"/>
<polygon points="212.313,69.438 212.313,83.438 226.313,83.438 226.313,69.438" style="fill:none;stroke-width:0.050000mm;stroke:black"/>
<polygon points="231.363,69.438 231.363,83.438 245.363,83.438 245.363,69.438" style="fill:none;stroke-width:0.050000mm;stroke:black"/>
<polygon points="298.038,69.438 298.038,83.438 312.038,83.438 312.038,69.438" style="fill:none;stroke-width:0.050000mm;stroke:black"/>
<polygon points="12.288,50.388 12.288,64.388 26.288,64.388 26.288,50.388" style="fill:none;stroke-width:0.050000mm;stroke:black"/>
<polygon points="36.101,50.388 36.101,64.388 50.101,64.388 50.101,50.388" style="fill:none;stroke-width:0.050000mm;stroke:black"/>
<polygon points="55.151,50.388 55.151,64.388 69.151,64.388 69.151,50.388" style="fill:none;stroke-width:0.050000mm;stroke:black"/>
<polygon points="74.201,50.388 74.201,64.388 88.201,64.388 88.201,50.388" style="fill:none;stroke-width:0.050000mm;stroke:black"/>
<polygon points="93.251,50.388 93.251,64.388 107.251,64.388 107.251,50.388" style="fill:none;stroke-width:0.050000mm;stroke:black"/>
<polygon points="112.301,50.388 112.301,64.388 126.301,64.388 126.301,50.388" style="fill:none;stroke-width:0.050000mm;stroke:black"/>
<polygon points="131.351,50.388 131.351,64.388 145.351,64.388 145.351,50.388" style="fill:none;stroke-width:0.050000mm;stroke:black"/>
<polygon points="150.401,50.388 150.401,64.388 164.401,64.388 164.401,50.388" style="fill:none;stroke-width:0.050000mm;stroke:black"/>
<polygon points="169.451,50.388 169.451,64.388 183.451,64.388 183.451,50.388" style="fill:none;stroke-width:0.050000mm;stroke:black"/>
<polygon points="188.501,50.388 188.501,64.388 202.501,64.388 202.501,50.388" style="fill:none;stroke-width:0.050000mm;stroke:black"/>
<polygon points="207.551,50.388 207.551,64.388 221.551,64.388 221.551,50.388" style="fill:none;stroke-width:0.050000mm;stroke:black"/>
<polygon points="226.601,50.388 226.601,64.388 240.601,64.388 240.601,50.388" style="fill:none;stroke-width:0.050000mm;stroke:black"/>
<polygon points="245.651,50.388 245.651,64.388 259.650,64.388 259.650,50.388" style="fill:none;stroke-width:0.050000mm;stroke:black"/>
<polygon points="269.463,50.388 269.463,64.388 283.463,64.388 283.463,50.388" style="fill:none;stroke-width:0.050000mm;stroke:black"/>
<polygon points="298.038,50.388 298.038,64.388 312.038,64.388 312.038,50.388" style="fill:none;stroke-width:0.050000mm;stroke:black"/>
<polygon points="264.701,31.338 264.701,36.038 263.176,36.038 263.176,32.808 261.451,32.808 261.451,31.888 258.150,31.888 258.150,32.808 256.426,32.808 256.426,36.038 255.601,36.038 255.601,38.838 256.426,38.838 256.426,45.108 258.150,45.108 258.150,46.088 261.451,46.088 261.451,45.108 263.176,45.108 263.176,40.638 264.701,40.638 264.701,45.338 278.701,45.338 278.701,40.638 280.226,40.638 280.226,45.108 281.951,45.108 281.951,46.088 285.251,46.088 285.251,45.108 286.976,45.108 286.976,38.838 287.801,38.838 287.801,36.038 286.976,36.038 286.976,32.808 285.251,32.808 285.251,31.888 281.951,31.888 281.951,32.808 280.226,32.808 280.226,36.038 278.701,36.038 278.701,31.338" style="fill:none;stroke-width:0.050000mm;stroke:black"/>
<polygon points="7.526,31.338 7.526,45.338 21.526,45.338 21.526,31.338" style="fill:none;stroke-width:0.050000mm;stroke:black"/>
<polygon points="26.576,31.338 26.576,45.338 40.576,45.338 40.576,31.338" style="fill:none;stroke-width:0.050000mm;stroke:black"/>
<polygon points="45.626,31.338 45.626,45.338 59.626,45.338 59.626,31.338" style="fill:none;stroke-width:0.050000mm;stroke:black"/>
<polygon points="64.676,31.338 64.676,45.338 78.676,45.338 78.676,31.338" style="fill:none;stroke-width:0.050000mm;stroke:black"/>
<polygon points="83.726,31.338 83.726,45.338 97.726,45.338 97.726,31.338" style="fill:none;stroke-width:0.050000mm;stroke:black"/>
<polygon points="102.775,31.338 102.775,45.338 116.775,45.338 116.775,31.338" style="fill:none;stroke-width:0.050000mm;stroke:black"/>
<polygon points="121.825,31.338 121.825,45.338 135.826,45.338 135.826,31.338" style="fill:none;stroke-width:0.050000mm;stroke:black"/>
<polygon points="140.876,31.338 140.876,45.338 154.876,45.338 154.876,31.338" style="fill:none;stroke-width:0.050000mm;stroke:black"/>
<polygon points="159.926,31.338 159.926,45.338 173.926,45.338 173.926,31.338" style="fill:none;stroke-width:0.050000mm;stroke:black"/>
<polygon points="178.976,31.338 178.976,45.338 192.976,45.338 192.976,31.338" style="fill:none;stroke-width:0.050000mm;stroke:black"/>
<polygon points="198.026,31.338 198.026,45.338 212.026,45.338 212.026,31.338" style="fill:none;stroke-width:0.050000mm;stroke:black"/>
<polygon points="217.076,31.338 217.076,45.338 231.076,45.338 231.076,31.338" style="fill:none;stroke-width:0.050000mm;stroke:black"/>
<polygon points="236.126,31.338 236.126,45.338 250.126,45.338 250.126,31.338" style="fill:none;stroke-width:0.050000mm;stroke:black"/>
<polygon points="298.038,31.338 298.038,45.338 312.038,45.338 312.038,31.338" style="fill:none;stroke-width:0.050000mm;stroke:black"/>
<polygon points="7.526,7.526 7.526,21.526 21.526,21.526 21.526,7.526" style="fill:none;stroke-width:0.050000mm;stroke:black"/>
<polygon points="31.338,7.526 31.338,21.526 45.338,21.526 45.338,7.526" style="fill:none;stroke-width:0.050000mm;stroke:black"/>
<polygon points="50.388,7.526 50.388,21.526 64.388,21.526 64.388,7.526" style="fill:none;stroke-width:0.050000mm;stroke:black"/>
<polygon points="69.438,7.526 69.438,21.526 83.438,21.526 83.438,7.526" style="fill:none;stroke-width:0.050000mm;stroke:black"/>
<polygon points="88.488,7.526 88.488,21.526 102.488,21.526 102.488,7.526" style="fill:none;stroke-width:0.050000mm;stroke:black"/>
<polygon points="112.301,7.526 112.301,21.526 126.301,21.526 126.301,7.526" style="fill:none;stroke-width:0.050000mm;stroke:black"/>
<polygon points="131.351,7.526 131.351,21.526 145.351,21.526 145.351,7.526" style="fill:none;stroke-width:0.050000mm;stroke:black"/>
<polygon points="150.401,7.526 150.401,21.526 164.401,21.526 164.401,7.526" style="fill:none;stroke-width:0.050000mm;stroke:black"/>
<polygon points="169.451,7.526 169.451,21.526 183.451,21.526 183.451,7.526" style="fill:none;stroke-width:0.050000mm;stroke:black"/>
<polygon points="193.263,7.526 193.263,21.526 207.263,21.526 207.263,7.526" style="fill:none;stroke-width:0.050000mm;stroke:black"/>
<polygon points="212.313,7.526 212.313,21.526 226.313,21.526 226.313,7.526" style="fill:none;stroke-width:0.050000mm;stroke:black"/>
<polygon points="231.363,7.526 231.363,21.526 245.363,21.526 245.363,7.526" style="fill:none;stroke-width:0.050000mm;stroke:black"/>
<polygon points="250.413,7.526 250.413,21.526 264.413,21.526 264.413,7.526" style="fill:none;stroke-width:0.050000mm;stroke:black"/>
<polygon points="274.226,7.526 274.226,21.526 288.226,21.526 288.226,7.526" style="fill:none;stroke-width:0.050000mm;stroke:black"/>
<polygon points="298.038,7.526 298.038,21.526 312.038,21.526 312.038,7.526" style="fill:none;stroke-width:0.050000mm;stroke:black"/>
</svg>
