G04 #@! TF.GenerationSoftware,KiCad,Pcbnew,7.0.6*
G04 #@! TF.CreationDate,2023-09-01T00:51:29-07:00*
G04 #@! TF.ProjectId,top plate,746f7020-706c-4617-9465-2e6b69636164,rev?*
G04 #@! TF.SameCoordinates,Original*
G04 #@! TF.FileFunction,Profile,NP*
%FSLAX46Y46*%
G04 Gerber Fmt 4.6, Leading zero omitted, Abs format (unit mm)*
G04 Created by KiCad (PCBNEW 7.0.6) date 2023-09-01 00:51:29*
%MOMM*%
%LPD*%
G01*
G04 APERTURE LIST*
G04 #@! TA.AperFunction,Profile*
%ADD10C,0.100000*%
G04 #@! TD*
G04 #@! TA.AperFunction,Profile*
%ADD11C,0.200000*%
G04 #@! TD*
G04 #@! TA.AperFunction,Profile*
%ADD12C,0.050000*%
G04 #@! TD*
G04 APERTURE END LIST*
D10*
X303140668Y-133008309D02*
X322504130Y-133008309D01*
X178059355Y-136058745D02*
G75*
G03*
X175059430Y-133058745I-2999955J45D01*
G01*
D11*
X147695969Y-139955227D02*
G75*
G03*
X147695969Y-139955227I-1J0D01*
G01*
D10*
X325504091Y-136008309D02*
G75*
G03*
X322504130Y-133008309I-2999991J9D01*
G01*
X152695968Y-251521542D02*
X152695968Y-252319206D01*
X147696058Y-246521542D02*
G75*
G03*
X152695968Y-251521542I4999942J-58D01*
G01*
X303140668Y-133008268D02*
G75*
G03*
X300140668Y-136008309I32J-3000032D01*
G01*
X408205698Y-236794946D02*
G75*
G03*
X408205698Y-236794946I-13194929J0D01*
G01*
X299779909Y-251582337D02*
X178059430Y-251521542D01*
X300140668Y-136805973D02*
X178059430Y-136856409D01*
X325504130Y-136805973D02*
X451182506Y-136856409D01*
X175059430Y-255319230D02*
G75*
G03*
X178059430Y-252319206I-30J3000030D01*
G01*
X476545968Y-136058745D02*
X476545968Y-136856409D01*
X299779909Y-251582337D02*
X299779909Y-252380001D01*
X451182506Y-136856409D02*
X451182506Y-136058745D01*
X155695968Y-133058745D02*
X175059430Y-133058745D01*
X454182506Y-133058806D02*
G75*
G03*
X451182506Y-136058745I-106J-2999894D01*
G01*
X155695968Y-133058668D02*
G75*
G03*
X152695968Y-136058745I-68J-2999932D01*
G01*
X178059430Y-251521542D02*
X178059430Y-252319206D01*
X147695968Y-246521542D02*
X147695968Y-141856409D01*
X299779899Y-252380001D02*
G75*
G03*
X302779909Y-255380001I3000001J1D01*
G01*
X473545968Y-255319168D02*
G75*
G03*
X476545968Y-252319206I32J2999968D01*
G01*
X451182506Y-251521542D02*
X451182506Y-252319206D01*
X454182506Y-255319206D02*
X473545968Y-255319206D01*
D11*
X147695969Y-245205227D02*
G75*
G03*
X147695969Y-245205227I-1J0D01*
G01*
X481545969Y-139955227D02*
G75*
G03*
X481545969Y-139955227I-1J0D01*
G01*
D10*
X325504130Y-136008309D02*
X325504130Y-136805973D01*
X479786848Y-173674768D02*
G75*
G03*
X479786848Y-173674768I-18813556J0D01*
G01*
D11*
X481545969Y-245205227D02*
G75*
G03*
X481545969Y-245205227I-1J0D01*
G01*
D10*
X451182506Y-251521542D02*
X325143371Y-251582337D01*
X451182494Y-252319206D02*
G75*
G03*
X454182506Y-255319206I3000006J6D01*
G01*
X155695968Y-255319206D02*
X175059430Y-255319206D01*
X300140668Y-136805973D02*
X300140668Y-136008309D01*
X481545968Y-141856409D02*
X481545968Y-246521542D01*
X322143371Y-255379971D02*
G75*
G03*
X325143371Y-252380001I29J2999971D01*
G01*
X178059430Y-136058745D02*
X178059430Y-136856409D01*
X476545955Y-136058745D02*
G75*
G03*
X473545968Y-133058745I-2999955J45D01*
G01*
X476545968Y-252319206D02*
X476545968Y-251521542D01*
X476545968Y-251521568D02*
G75*
G03*
X481545968Y-246521542I-68J5000068D01*
G01*
X152695994Y-252319206D02*
G75*
G03*
X155695968Y-255319206I3000006J6D01*
G01*
X330332590Y-225153914D02*
X337083912Y-225153914D01*
X337083912Y-237445042D01*
X330332590Y-237445042D01*
X330332590Y-225153914D01*
X454182506Y-133058745D02*
X473545968Y-133058745D01*
X230331891Y-225171534D02*
X237065927Y-225171534D01*
X237065927Y-237445195D01*
X230331891Y-237445195D01*
X230331891Y-225171534D01*
X152695968Y-136856409D02*
X152695968Y-136058745D01*
X325143371Y-252380001D02*
X325143371Y-251582337D01*
X302779909Y-255380001D02*
X322143371Y-255380001D01*
X152695968Y-136856468D02*
G75*
G03*
X147695968Y-141856409I-68J-4999932D01*
G01*
X481545991Y-141856409D02*
G75*
G03*
X476545968Y-136856409I-4999991J9D01*
G01*
D12*
X226688468Y-185610227D02*
X240638468Y-185610227D01*
X240638468Y-185610227D02*
X240638468Y-199560227D01*
X240638468Y-199560227D02*
X226688468Y-199560227D01*
X226688468Y-199560227D02*
X226688468Y-185610227D01*
X379088468Y-185610227D02*
X393038468Y-185610227D01*
X393038468Y-185610227D02*
X393038468Y-199560227D01*
X393038468Y-199560227D02*
X379088468Y-199560227D01*
X379088468Y-199560227D02*
X379088468Y-185610227D01*
X417188468Y-166560227D02*
X431138468Y-166560227D01*
X431138468Y-166560227D02*
X431138468Y-180510227D01*
X431138468Y-180510227D02*
X417188468Y-180510227D01*
X417188468Y-180510227D02*
X417188468Y-166560227D01*
X412425968Y-147510227D02*
X426375968Y-147510227D01*
X426375968Y-147510227D02*
X426375968Y-161460227D01*
X426375968Y-161460227D02*
X412425968Y-161460227D01*
X412425968Y-161460227D02*
X412425968Y-147510227D01*
X360038468Y-185610227D02*
X373988468Y-185610227D01*
X373988468Y-185610227D02*
X373988468Y-199560227D01*
X373988468Y-199560227D02*
X360038468Y-199560227D01*
X360038468Y-199560227D02*
X360038468Y-185610227D01*
X383850968Y-147510227D02*
X397800968Y-147510227D01*
X397800968Y-147510227D02*
X397800968Y-161460227D01*
X397800968Y-161460227D02*
X383850968Y-161460227D01*
X383850968Y-161460227D02*
X383850968Y-147510227D01*
X236213468Y-204660227D02*
X250163468Y-204660227D01*
X250163468Y-204660227D02*
X250163468Y-218610227D01*
X250163468Y-218610227D02*
X236213468Y-218610227D01*
X236213468Y-218610227D02*
X236213468Y-204660227D01*
X174300968Y-147510227D02*
X188250968Y-147510227D01*
X188250968Y-147510227D02*
X188250968Y-161460227D01*
X188250968Y-161460227D02*
X174300968Y-161460227D01*
X174300968Y-161460227D02*
X174300968Y-147510227D01*
X183825968Y-166560227D02*
X197775968Y-166560227D01*
X197775968Y-166560227D02*
X197775968Y-180510227D01*
X197775968Y-180510227D02*
X183825968Y-180510227D01*
X183825968Y-180510227D02*
X183825968Y-166560227D01*
X160013468Y-166560227D02*
X173963468Y-166560227D01*
X173963468Y-166560227D02*
X173963468Y-180510227D01*
X173963468Y-180510227D02*
X160013468Y-180510227D01*
X160013468Y-180510227D02*
X160013468Y-166560227D01*
X364800968Y-147510227D02*
X378750968Y-147510227D01*
X378750968Y-147510227D02*
X378750968Y-161460227D01*
X378750968Y-161460227D02*
X364800968Y-161460227D01*
X364800968Y-161460227D02*
X364800968Y-147510227D01*
X250500968Y-147510227D02*
X264450968Y-147510227D01*
X264450968Y-147510227D02*
X264450968Y-161460227D01*
X264450968Y-161460227D02*
X250500968Y-161460227D01*
X250500968Y-161460227D02*
X250500968Y-147510227D01*
X276694718Y-223710227D02*
X290644718Y-223710227D01*
X290644718Y-223710227D02*
X290644718Y-237660227D01*
X290644718Y-237660227D02*
X276694718Y-237660227D01*
X276694718Y-237660227D02*
X276694718Y-223710227D01*
X369563468Y-204660227D02*
X383513468Y-204660227D01*
X383513468Y-204660227D02*
X383513468Y-218610227D01*
X383513468Y-218610227D02*
X369563468Y-218610227D01*
X369563468Y-218610227D02*
X369563468Y-204660227D01*
X231450968Y-147510227D02*
X245400968Y-147510227D01*
X245400968Y-147510227D02*
X245400968Y-161460227D01*
X245400968Y-161460227D02*
X231450968Y-161460227D01*
X231450968Y-161460227D02*
X231450968Y-147510227D01*
X193350968Y-147510227D02*
X207300968Y-147510227D01*
X207300968Y-147510227D02*
X207300968Y-161460227D01*
X207300968Y-161460227D02*
X193350968Y-161460227D01*
X193350968Y-161460227D02*
X193350968Y-147510227D01*
X405282218Y-204660227D02*
X419232218Y-204660227D01*
X419232218Y-204660227D02*
X419232218Y-218610227D01*
X419232218Y-218610227D02*
X405282218Y-218610227D01*
X405282218Y-218610227D02*
X405282218Y-204660227D01*
X221925968Y-166560227D02*
X235875968Y-166560227D01*
X235875968Y-166560227D02*
X235875968Y-180510227D01*
X235875968Y-180510227D02*
X221925968Y-180510227D01*
X221925968Y-180510227D02*
X221925968Y-166560227D01*
X396942218Y-206070227D02*
X403682218Y-206070227D01*
X403682218Y-206070227D02*
X403682218Y-218410227D01*
X403682218Y-218410227D02*
X396942218Y-218410227D01*
X396942218Y-218410227D02*
X396942218Y-206070227D01*
X420782218Y-206110227D02*
X427552218Y-206110227D01*
X427552218Y-206110227D02*
X427552218Y-218410227D01*
X427552218Y-218410227D02*
X420782218Y-218410227D01*
X420782218Y-218410227D02*
X420782218Y-206110227D01*
X181444718Y-223710227D02*
X195394718Y-223710227D01*
X195394718Y-223710227D02*
X195394718Y-237660227D01*
X195394718Y-237660227D02*
X181444718Y-237660227D01*
X181444718Y-237660227D02*
X181444718Y-223710227D01*
X404096536Y-148881245D02*
X410836536Y-148881245D01*
X410836536Y-148881245D02*
X410836536Y-161221245D01*
X410836536Y-161221245D02*
X404096536Y-161221245D01*
X404096536Y-161221245D02*
X404096536Y-148881245D01*
X427936536Y-148921245D02*
X434706536Y-148921245D01*
X434706536Y-148921245D02*
X434706536Y-161221245D01*
X434706536Y-161221245D02*
X427936536Y-161221245D01*
X427936536Y-161221245D02*
X427936536Y-148921245D01*
X421950968Y-223710227D02*
X435900968Y-223710227D01*
X435900968Y-223710227D02*
X435900968Y-237660227D01*
X435900968Y-237660227D02*
X421950968Y-237660227D01*
X421950968Y-237660227D02*
X421950968Y-223710227D01*
X331463468Y-204660227D02*
X345413468Y-204660227D01*
X345413468Y-204660227D02*
X345413468Y-218610227D01*
X345413468Y-218610227D02*
X331463468Y-218610227D01*
X331463468Y-218610227D02*
X331463468Y-204660227D01*
X157632218Y-223710227D02*
X171582218Y-223710227D01*
X171582218Y-223710227D02*
X171582218Y-237660227D01*
X171582218Y-237660227D02*
X157632218Y-237660227D01*
X157632218Y-237660227D02*
X157632218Y-223710227D01*
X240975968Y-166560227D02*
X254925968Y-166560227D01*
X254925968Y-166560227D02*
X254925968Y-180510227D01*
X254925968Y-180510227D02*
X240975968Y-180510227D01*
X240975968Y-180510227D02*
X240975968Y-166560227D01*
X202875968Y-166560227D02*
X216825968Y-166560227D01*
X216825968Y-166560227D02*
X216825968Y-180510227D01*
X216825968Y-180510227D02*
X202875968Y-180510227D01*
X202875968Y-180510227D02*
X202875968Y-166560227D01*
X460050968Y-223710227D02*
X474000968Y-223710227D01*
X474000968Y-223710227D02*
X474000968Y-237660227D01*
X474000968Y-237660227D02*
X460050968Y-237660227D01*
X460050968Y-237660227D02*
X460050968Y-223710227D01*
X198113468Y-204660227D02*
X212063468Y-204660227D01*
X212063468Y-204660227D02*
X212063468Y-218610227D01*
X212063468Y-218610227D02*
X198113468Y-218610227D01*
X198113468Y-218610227D02*
X198113468Y-204660227D01*
X441000968Y-204660227D02*
X454950968Y-204660227D01*
X454950968Y-204660227D02*
X454950968Y-218610227D01*
X454950968Y-218610227D02*
X441000968Y-218610227D01*
X441000968Y-218610227D02*
X441000968Y-204660227D01*
X255263468Y-204660227D02*
X269213468Y-204660227D01*
X269213468Y-204660227D02*
X269213468Y-218610227D01*
X269213468Y-218610227D02*
X255263468Y-218610227D01*
X255263468Y-218610227D02*
X255263468Y-204660227D01*
X264788468Y-185610227D02*
X278738468Y-185610227D01*
X278738468Y-185610227D02*
X278738468Y-199560227D01*
X278738468Y-199560227D02*
X264788468Y-199560227D01*
X264788468Y-199560227D02*
X264788468Y-185610227D01*
X283838468Y-185610227D02*
X297788468Y-185610227D01*
X297788468Y-185610227D02*
X297788468Y-199560227D01*
X297788468Y-199560227D02*
X283838468Y-199560227D01*
X283838468Y-199560227D02*
X283838468Y-185610227D01*
X212400968Y-147510227D02*
X226350968Y-147510227D01*
X226350968Y-147510227D02*
X226350968Y-161460227D01*
X226350968Y-161460227D02*
X212400968Y-161460227D01*
X212400968Y-161460227D02*
X212400968Y-147510227D01*
X321938468Y-185610227D02*
X335888468Y-185610227D01*
X335888468Y-185610227D02*
X335888468Y-199560227D01*
X335888468Y-199560227D02*
X321938468Y-199560227D01*
X321938468Y-199560227D02*
X321938468Y-185610227D01*
X298125968Y-166560227D02*
X312075968Y-166560227D01*
X312075968Y-166560227D02*
X312075968Y-180510227D01*
X312075968Y-180510227D02*
X298125968Y-180510227D01*
X298125968Y-180510227D02*
X298125968Y-166560227D01*
X374325968Y-166560227D02*
X388275968Y-166560227D01*
X388275968Y-166560227D02*
X388275968Y-180510227D01*
X388275968Y-180510227D02*
X374325968Y-180510227D01*
X374325968Y-180510227D02*
X374325968Y-166560227D01*
X317175968Y-166560227D02*
X331125968Y-166560227D01*
X331125968Y-166560227D02*
X331125968Y-180510227D01*
X331125968Y-180510227D02*
X317175968Y-180510227D01*
X317175968Y-180510227D02*
X317175968Y-166560227D01*
X288600968Y-147510227D02*
X302550968Y-147510227D01*
X302550968Y-147510227D02*
X302550968Y-161460227D01*
X302550968Y-161460227D02*
X288600968Y-161460227D01*
X288600968Y-161460227D02*
X288600968Y-147510227D01*
X302888468Y-185610227D02*
X316838468Y-185610227D01*
X316838468Y-185610227D02*
X316838468Y-199560227D01*
X316838468Y-199560227D02*
X302888468Y-199560227D01*
X302888468Y-199560227D02*
X302888468Y-185610227D01*
X245738468Y-185610227D02*
X259688468Y-185610227D01*
X259688468Y-185610227D02*
X259688468Y-199560227D01*
X259688468Y-199560227D02*
X245738468Y-199560227D01*
X245738468Y-199560227D02*
X245738468Y-185610227D01*
X312413468Y-204660227D02*
X326363468Y-204660227D01*
X326363468Y-204660227D02*
X326363468Y-218610227D01*
X326363468Y-218610227D02*
X312413468Y-218610227D01*
X312413468Y-218610227D02*
X312413468Y-204660227D01*
X441000968Y-223710227D02*
X454950968Y-223710227D01*
X454950968Y-223710227D02*
X454950968Y-237660227D01*
X454950968Y-237660227D02*
X441000968Y-237660227D01*
X441000968Y-237660227D02*
X441000968Y-223710227D01*
X167157218Y-204660227D02*
X181107218Y-204660227D01*
X181107218Y-204660227D02*
X181107218Y-218610227D01*
X181107218Y-218610227D02*
X167157218Y-218610227D01*
X167157218Y-218610227D02*
X167157218Y-204660227D01*
X345750968Y-147510227D02*
X359700968Y-147510227D01*
X359700968Y-147510227D02*
X359700968Y-161460227D01*
X359700968Y-161460227D02*
X345750968Y-161460227D01*
X345750968Y-161460227D02*
X345750968Y-147510227D01*
X350513468Y-204660227D02*
X364463468Y-204660227D01*
X364463468Y-204660227D02*
X364463468Y-218610227D01*
X364463468Y-218610227D02*
X350513468Y-218610227D01*
X350513468Y-218610227D02*
X350513468Y-204660227D01*
X326700968Y-147510227D02*
X340650968Y-147510227D01*
X340650968Y-147510227D02*
X340650968Y-161460227D01*
X340650968Y-161460227D02*
X326700968Y-161460227D01*
X326700968Y-161460227D02*
X326700968Y-147510227D01*
X410044718Y-185610227D02*
X423994718Y-185610227D01*
X423994718Y-185610227D02*
X423994718Y-199560227D01*
X423994718Y-199560227D02*
X410044718Y-199560227D01*
X410044718Y-199560227D02*
X410044718Y-185610227D01*
X217163468Y-204660227D02*
X231113468Y-204660227D01*
X231113468Y-204660227D02*
X231113468Y-218610227D01*
X231113468Y-218610227D02*
X217163468Y-218610227D01*
X217163468Y-218610227D02*
X217163468Y-204660227D01*
X355275968Y-223710227D02*
X369225968Y-223710227D01*
X369225968Y-223710227D02*
X369225968Y-237660227D01*
X369225968Y-237660227D02*
X355275968Y-237660227D01*
X355275968Y-237660227D02*
X355275968Y-223710227D01*
X307650968Y-147510227D02*
X321600968Y-147510227D01*
X321600968Y-147510227D02*
X321600968Y-161460227D01*
X321600968Y-161460227D02*
X307650968Y-161460227D01*
X307650968Y-161460227D02*
X307650968Y-147510227D01*
X162394718Y-185610227D02*
X176344718Y-185610227D01*
X176344718Y-185610227D02*
X176344718Y-199560227D01*
X176344718Y-199560227D02*
X162394718Y-199560227D01*
X162394718Y-199560227D02*
X162394718Y-185610227D01*
X188588468Y-185610227D02*
X202538468Y-185610227D01*
X202538468Y-185610227D02*
X202538468Y-199560227D01*
X202538468Y-199560227D02*
X188588468Y-199560227D01*
X188588468Y-199560227D02*
X188588468Y-185610227D01*
X155250968Y-147510227D02*
X169200968Y-147510227D01*
X169200968Y-147510227D02*
X169200968Y-161460227D01*
X169200968Y-161460227D02*
X155250968Y-161460227D01*
X155250968Y-161460227D02*
X155250968Y-147510227D01*
X260025968Y-166560227D02*
X273975968Y-166560227D01*
X273975968Y-166560227D02*
X273975968Y-180510227D01*
X273975968Y-180510227D02*
X260025968Y-180510227D01*
X260025968Y-180510227D02*
X260025968Y-166560227D01*
X279075968Y-166560227D02*
X293025968Y-166560227D01*
X293025968Y-166560227D02*
X293025968Y-180510227D01*
X293025968Y-180510227D02*
X279075968Y-180510227D01*
X279075968Y-180510227D02*
X279075968Y-166560227D01*
X205257218Y-223710227D02*
X219207218Y-223710227D01*
X219207218Y-223710227D02*
X219207218Y-237660227D01*
X219207218Y-237660227D02*
X205257218Y-237660227D01*
X205257218Y-237660227D02*
X205257218Y-223710227D01*
X336225968Y-166560227D02*
X350175968Y-166560227D01*
X350175968Y-166560227D02*
X350175968Y-180510227D01*
X350175968Y-180510227D02*
X336225968Y-180510227D01*
X336225968Y-180510227D02*
X336225968Y-166560227D01*
X355275968Y-166560227D02*
X369225968Y-166560227D01*
X369225968Y-166560227D02*
X369225968Y-180510227D01*
X369225968Y-180510227D02*
X355275968Y-180510227D01*
X355275968Y-180510227D02*
X355275968Y-166560227D01*
X293363468Y-204660227D02*
X307313468Y-204660227D01*
X307313468Y-204660227D02*
X307313468Y-218610227D01*
X307313468Y-218610227D02*
X293363468Y-218610227D01*
X293363468Y-218610227D02*
X293363468Y-204660227D01*
X158817218Y-206070227D02*
X165557218Y-206070227D01*
X165557218Y-206070227D02*
X165557218Y-218410227D01*
X165557218Y-218410227D02*
X158817218Y-218410227D01*
X158817218Y-218410227D02*
X158817218Y-206070227D01*
X182657218Y-206110227D02*
X189427218Y-206110227D01*
X189427218Y-206110227D02*
X189427218Y-218410227D01*
X189427218Y-218410227D02*
X182657218Y-218410227D01*
X182657218Y-218410227D02*
X182657218Y-206110227D01*
X340988468Y-185610227D02*
X354938468Y-185610227D01*
X354938468Y-185610227D02*
X354938468Y-199560227D01*
X354938468Y-199560227D02*
X340988468Y-199560227D01*
X340988468Y-199560227D02*
X340988468Y-185610227D01*
X393375968Y-166560227D02*
X407325968Y-166560227D01*
X407325968Y-166560227D02*
X407325968Y-180510227D01*
X407325968Y-180510227D02*
X393375968Y-180510227D01*
X393375968Y-180510227D02*
X393375968Y-166560227D01*
X207638468Y-185610227D02*
X221588468Y-185610227D01*
X221588468Y-185610227D02*
X221588468Y-199560227D01*
X221588468Y-199560227D02*
X207638468Y-199560227D01*
X207638468Y-199560227D02*
X207638468Y-185610227D01*
X269550968Y-147510227D02*
X283500968Y-147510227D01*
X283500968Y-147510227D02*
X283500968Y-161460227D01*
X283500968Y-161460227D02*
X269550968Y-161460227D01*
X269550968Y-161460227D02*
X269550968Y-147510227D01*
X274313468Y-204660227D02*
X288263468Y-204660227D01*
X288263468Y-204660227D02*
X288263468Y-218610227D01*
X288263468Y-218610227D02*
X274313468Y-218610227D01*
X274313468Y-218610227D02*
X274313468Y-204660227D01*
X401720439Y-187009951D02*
X408460439Y-187009951D01*
X408460439Y-187009951D02*
X408460439Y-199349951D01*
X408460439Y-199349951D02*
X401720439Y-199349951D01*
X401720439Y-199349951D02*
X401720439Y-187009951D01*
X425560439Y-187049951D02*
X432330439Y-187049951D01*
X432330439Y-187049951D02*
X432330439Y-199349951D01*
X432330439Y-199349951D02*
X425560439Y-199349951D01*
X425560439Y-199349951D02*
X425560439Y-187049951D01*
M02*
