<?xml version="1.0" standalone="no"?>
 <!DOCTYPE svg PUBLIC "-//W3C//DTD SVG 1.1//EN" 
 "http://www.w3.org/Graphics/SVG/1.1/DTD/svg11.dtd"> 
<svg
  xmlns:svg="http://www.w3.org/2000/svg"
  xmlns="http://www.w3.org/2000/svg"
  xmlns:xlink="http://www.w3.org/1999/xlink"
  version="1.1"
  width="0.025400cm" height="0.025400cm" viewBox="0 0 100 100">
<title>SVG Picture created as adelheid-brd.svg date 2021/10/05 19:57:57 </title>
  <desc>Picture generated by PCBNEW </desc>
<g style="fill:#000000; fill-opacity:1;stroke:#000000; stroke-opacity:1;
stroke-linecap:round; stroke-linejoin:round;"
 transform="translate(0 0) scale(1 1)">
</g>
<g style="fill:#000000; fill-opacity:0.0; 
stroke:#000000; stroke-width:-0.000393701; stroke-opacity:1; 
stroke-linecap:round; stroke-linejoin:round;">
</g>
<g style="fill:#848484; fill-opacity:0.0; 
stroke:#848484; stroke-width:-0.000393701; stroke-opacity:1; 
stroke-linecap:round; stroke-linejoin:round;">
</g>
<g style="fill:#848484; fill-opacity:0.0; 
stroke:#848484; stroke-width:19.685; stroke-opacity:1; 
stroke-linecap:round; stroke-linejoin:round;">
<path d="M72728 11125
L71271 11125
" />
<path d="M72728 11874
L72728 11125
" />
<path d="M71271 11874
L72728 11874
" />
<path d="M71271 11125
L71271 11874
" />
<path d="M72722 10225
L71265 10225
" />
<path d="M72722 10974
L72722 10225
" />
<path d="M71265 10974
L72722 10974
" />
<path d="M71265 10225
L71265 10974
" />
<path d="M75039 56403
L75771 56248
" />
<path d="M75771 56248
L75468 54823
" />
<path d="M75468 54823
L74736 54978
" />
<path d="M74736 54978
L75039 56403
" />
<path d="M75452 54370
L75067 52560
" />
<path d="M75067 52560
L74182 52748
" />
<path d="M74182 52748
L74566 54558
" />
<path d="M75452 54370
L74566 54558
" />
<path d="M24425 11731
L25174 11731
" />
<path d="M25174 11731
L25174 10275
" />
<path d="M25174 10275
L24425 10275
" />
<path d="M24425 10275
L24425 11731
" />
<path d="M49525 11728
L50274 11728
" />
<path d="M50274 11728
L50274 10271
" />
<path d="M50274 10271
L49525 10271
" />
<path d="M49525 10271
L49525 11728
" />
<path d="M128529 11828
L129277 11828
" />
<path d="M129277 11828
L129277 10371
" />
<path d="M129277 10371
L128529 10371
" />
<path d="M128529 10371
L128529 11828
" />
<path d="M108825 11728
L109574 11728
" />
<path d="M109574 11728
L109574 10271
" />
<path d="M109574 10271
L108825 10271
" />
<path d="M108825 10271
L108825 11728
" />
<path d="M91325 11728
L92074 11728
" />
<path d="M92074 11728
L92074 10271
" />
<path d="M92074 10271
L91325 10271
" />
<path d="M91325 10271
L91325 11728
" />
<path d="M141368 13325
L141368 14074
" />
<path d="M141368 14074
L142824 14074
" />
<path d="M142824 14074
L142824 13325
" />
<path d="M142824 13325
L141368 13325
" />
<path d="M141368 31925
L141368 32674
" />
<path d="M141368 32674
L142824 32674
" />
<path d="M142824 32674
L142824 31925
" />
<path d="M142824 31925
L141368 31925
" />
<path d="M141368 51925
L141368 52674
" />
<path d="M141368 52674
L142824 52674
" />
<path d="M142824 52674
L142824 51925
" />
<path d="M142824 51925
L141368 51925
" />
<path d="M131174 58368
L130425 58368
" />
<path d="M130425 58368
L130425 59824
" />
<path d="M130425 59824
L131174 59824
" />
<path d="M131174 59824
L131174 58368
" />
<path d="M109074 58371
L108325 58371
" />
<path d="M108325 58371
L108325 59828
" />
<path d="M108325 59828
L109074 59828
" />
<path d="M109074 59828
L109074 58371
" />
<path d="M85790 62414
L85634 61682
" />
<path d="M85634 61682
L84209 61985
" />
<path d="M84209 61985
L84365 62717
" />
<path d="M84365 62717
L85790 62414
" />
<path d="M68425 63325
L68425 64074
" />
<path d="M68425 64074
L69881 64074
" />
<path d="M69881 64074
L69881 63325
" />
<path d="M69881 63325
L68425 63325
" />
<path d="M52539 62441
L52695 61710
" />
<path d="M52695 61710
L51270 61407
" />
<path d="M51270 61407
L51115 62138
" />
<path d="M51115 62138
L52539 62441
" />
<path d="M24274 58368
L23525 58368
" />
<path d="M23525 58368
L23525 59824
" />
<path d="M23525 59824
L24274 59824
" />
<path d="M24274 59824
L24274 58368
" />
<path d="M12131 55474
L12131 54725
" />
<path d="M12131 54725
L10675 54725
" />
<path d="M10675 54725
L10675 55474
" />
<path d="M10675 55474
L12131 55474
" />
<path d="M12131 36074
L12131 35325
" />
<path d="M12131 35325
L10675 35325
" />
<path d="M10675 35325
L10675 36074
" />
<path d="M10675 36074
L12131 36074
" />
<path d="M12131 17474
L12131 16725
" />
<path d="M12131 16725
L10675 16725
" />
<path d="M10675 16725
L10675 17474
" />
<path d="M10675 17474
L12131 17474
" />
<path d="M25771 10225
L25771 10974
" />
<path d="M25771 10974
L27228 10974
" />
<path d="M27228 10974
L27228 10225
" />
<path d="M27228 10225
L25771 10225
" />
<path d="M50871 10222
L50871 10970
" />
<path d="M50871 10970
L52328 10970
" />
<path d="M52328 10970
L52328 10222
" />
<path d="M52328 10222
L50871 10222
" />
<path d="M129871 10325
L129871 11074
" />
<path d="M129871 11074
L131328 11074
" />
<path d="M131328 11074
L131328 10325
" />
<path d="M131328 10325
L129871 10325
" />
<path d="M110071 10225
L110071 10974
" />
<path d="M110071 10974
L111528 10974
" />
<path d="M111528 10974
L111528 10225
" />
<path d="M111528 10225
L110071 10225
" />
<path d="M92668 10225
L92668 10974
" />
<path d="M92668 10974
L94124 10974
" />
<path d="M94124 10974
L94124 10225
" />
<path d="M94124 10225
L92668 10225
" />
<path d="M142874 14671
L142125 14671
" />
<path d="M142125 14671
L142125 16128
" />
<path d="M142125 16128
L142874 16128
" />
<path d="M142874 16128
L142874 14671
" />
<path d="M142874 33275
L142125 33275
" />
<path d="M142125 33275
L142125 34731
" />
<path d="M142125 34731
L142874 34731
" />
<path d="M142874 34731
L142874 33275
" />
<path d="M142874 53275
L142125 53275
" />
<path d="M142125 53275
L142125 54731
" />
<path d="M142125 54731
L142874 54731
" />
<path d="M142874 54731
L142874 53275
" />
<path d="M129924 59874
L129924 59125
" />
<path d="M129924 59125
L128468 59125
" />
<path d="M128468 59125
L128468 59874
" />
<path d="M128468 59874
L129924 59874
" />
<path d="M107728 59874
L107728 59125
" />
<path d="M107728 59125
L106271 59125
" />
<path d="M106271 59125
L106271 59874
" />
<path d="M106271 59874
L107728 59874
" />
<path d="M84090 62814
L83934 62082
" />
<path d="M83934 62082
L82509 62385
" />
<path d="M82509 62385
L82665 63117
" />
<path d="M82665 63117
L84090 62814
" />
<path d="M69881 65374
L69881 64625
" />
<path d="M69881 64625
L68425 64625
" />
<path d="M68425 64625
L68425 65374
" />
<path d="M68425 65374
L69881 65374
" />
<path d="M50939 62133
L51095 61401
" />
<path d="M51095 61401
L49670 61098
" />
<path d="M49670 61098
L49515 61830
" />
<path d="M49515 61830
L50939 62133
" />
<path d="M22924 59874
L22924 59125
" />
<path d="M22924 59125
L21468 59125
" />
<path d="M21468 59125
L21468 59874
" />
<path d="M21468 59874
L22924 59874
" />
<path d="M10625 54131
L11374 54131
" />
<path d="M11374 54131
L11374 52675
" />
<path d="M11374 52675
L10625 52675
" />
<path d="M10625 52675
L10625 54131
" />
<path d="M10625 34731
L11374 34731
" />
<path d="M11374 34731
L11374 33275
" />
<path d="M11374 33275
L10625 33275
" />
<path d="M10625 33275
L10625 34731
" />
<path d="M10625 16131
L11374 16131
" />
<path d="M11374 16131
L11374 14675
" />
<path d="M11374 14675
L10625 14675
" />
<path d="M10625 14675
L10625 16131
" />
<path d="M137425 57675
L137425 59131
" />
<path d="M138174 57675
L137425 57675
" />
<path d="M138174 59131
L138174 57675
" />
<path d="M137425 59131
L138174 59131
" />
<path d="M141325 38825
L141325 40281
" />
<path d="M142074 38825
L141325 38825
" />
<path d="M142074 40281
L142074 38825
" />
<path d="M141325 40281
L142074 40281
" />
<path d="M140575 31868
L140575 33324
" />
<path d="M141324 31868
L140575 31868
" />
<path d="M141324 33324
L141324 31868
" />
<path d="M140575 33324
L141324 33324
" />
<path d="M138925 24368
L138925 25824
" />
<path d="M139674 24368
L138925 24368
" />
<path d="M139674 25824
L139674 24368
" />
<path d="M138925 25824
L139674 25824
" />
<path d="M129525 26268
L129525 27724
" />
<path d="M130274 26268
L129525 26268
" />
<path d="M130274 27724
L130274 26268
" />
<path d="M129525 27724
L130274 27724
" />
<path d="M137275 16875
L137275 18331
" />
<path d="M138024 16875
L137275 16875
" />
<path d="M138024 18331
L138024 16875
" />
<path d="M137275 18331
L138024 18331
" />
<path d="M134725 58118
L134725 59574
" />
<path d="M135474 58118
L134725 58118
" />
<path d="M135474 59574
L135474 58118
" />
<path d="M134725 59574
L135474 59574
" />
<path d="M134775 50618
L134775 52074
" />
<path d="M135524 50618
L134775 50618
" />
<path d="M135524 52074
L135524 50618
" />
<path d="M134775 52074
L135524 52074
" />
<path d="M129325 33718
L129325 35174
" />
<path d="M130074 33718
L129325 33718
" />
<path d="M130074 35174
L130074 33718
" />
<path d="M129325 35174
L130074 35174
" />
<path d="M121125 26175
L121125 27631
" />
<path d="M121874 26175
L121125 26175
" />
<path d="M121874 27631
L121874 26175
" />
<path d="M121125 27631
L121874 27631
" />
<path d="M127025 16868
L127025 18324
" />
<path d="M127774 16868
L127025 16868
" />
<path d="M127774 18324
L127774 16868
" />
<path d="M127025 18324
L127774 18324
" />
<path d="M127275 58118
L127275 59574
" />
<path d="M128024 58118
L127275 58118
" />
<path d="M128024 59574
L128024 58118
" />
<path d="M127275 59574
L128024 59574
" />
<path d="M128175 41218
L128175 42674
" />
<path d="M128924 41218
L128175 41218
" />
<path d="M128924 42674
L128924 41218
" />
<path d="M128175 42674
L128924 42674
" />
<path d="M119925 33718
L119925 35174
" />
<path d="M120674 33718
L119925 33718
" />
<path d="M120674 35174
L120674 33718
" />
<path d="M119925 35174
L120674 35174
" />
<path d="M114525 26218
L114525 27674
" />
<path d="M115274 26218
L114525 26218
" />
<path d="M115274 27674
L115274 26218
" />
<path d="M114525 27674
L115274 27674
" />
<path d="M116525 16275
L116525 17731
" />
<path d="M117274 16275
L116525 16275
" />
<path d="M117274 17731
L117274 16275
" />
<path d="M116525 17731
L117274 17731
" />
<path d="M122575 48718
L122575 50174
" />
<path d="M123324 48718
L122575 48718
" />
<path d="M123324 50174
L123324 48718
" />
<path d="M122575 50174
L123324 50174
" />
<path d="M116025 41221
L116025 42678
" />
<path d="M116774 41221
L116025 41221
" />
<path d="M116774 42678
L116774 41221
" />
<path d="M116025 42678
L116774 42678
" />
<path d="M112425 33725
L112425 35181
" />
<path d="M113174 33725
L112425 33725
" />
<path d="M113174 35181
L113174 33725
" />
<path d="M112425 35181
L113174 35181
" />
<path d="M107075 25618
L107075 27074
" />
<path d="M107824 25618
L107075 25618
" />
<path d="M107824 27074
L107824 25618
" />
<path d="M107075 27074
L107824 27074
" />
<path d="M109025 16271
L109025 17728
" />
<path d="M109774 16271
L109025 16271
" />
<path d="M109774 17728
L109774 16271
" />
<path d="M109025 17728
L109774 17728
" />
<path d="M112225 48718
L112225 50174
" />
<path d="M112974 48718
L112225 48718
" />
<path d="M112974 50174
L112974 48718
" />
<path d="M112225 50174
L112974 50174
" />
<path d="M108525 41218
L108525 42674
" />
<path d="M109274 41218
L108525 41218
" />
<path d="M109274 42674
L109274 41218
" />
<path d="M108525 42674
L109274 42674
" />
<path d="M104566 33310
L104869 34734
" />
<path d="M105298 33154
L104566 33310
" />
<path d="M105601 34579
L105298 33154
" />
<path d="M104869 34734
L105601 34579
" />
<path d="M99398 26770
L99701 28195
" />
<path d="M100130 26615
L99398 26770
" />
<path d="M100433 28039
L100130 26615
" />
<path d="M99701 28195
L100433 28039
" />
<path d="M101098 16865
L101401 18290
" />
<path d="M101830 16709
L101098 16865
" />
<path d="M102133 18134
L101830 16709
" />
<path d="M101401 18290
L102133 18134
" />
<path d="M101966 56860
L102269 58284
" />
<path d="M102698 56704
L101966 56860
" />
<path d="M103001 58129
L102698 56704
" />
<path d="M102269 58284
L103001 58129
" />
<path d="M104098 48720
L104401 50145
" />
<path d="M104830 48565
L104098 48720
" />
<path d="M105133 49989
L104830 48565
" />
<path d="M104401 50145
L105133 49989
" />
<path d="M100698 41820
L101001 43245
" />
<path d="M101430 41665
L100698 41820
" />
<path d="M101733 43089
L101430 41665
" />
<path d="M101001 43245
L101733 43089
" />
<path d="M97316 34860
L97619 36284
" />
<path d="M98048 34704
L97316 34860
" />
<path d="M98351 36129
L98048 34704
" />
<path d="M97619 36284
L98351 36129
" />
<path d="M91998 28320
L92301 29745
" />
<path d="M92730 28165
L91998 28320
" />
<path d="M93033 29589
L92730 28165
" />
<path d="M92301 29745
L93033 29589
" />
<path d="M93748 18420
L94051 19845
" />
<path d="M94480 18265
L93748 18420
" />
<path d="M94783 19689
L94480 18265
" />
<path d="M94051 19845
L94783 19689
" />
<path d="M96732 50315
L97035 51740
" />
<path d="M97464 50159
L96732 50315
" />
<path d="M97767 51584
L97464 50159
" />
<path d="M97035 51740
L97767 51584
" />
<path d="M93382 43365
L93685 44790
" />
<path d="M94114 43209
L93382 43365
" />
<path d="M94417 44634
L94114 43209
" />
<path d="M93685 44790
L94417 44634
" />
<path d="M89948 36420
L90251 37845
" />
<path d="M90680 36265
L89948 36420
" />
<path d="M90983 37689
L90680 36265
" />
<path d="M90251 37845
L90983 37689
" />
<path d="M84698 29870
L85001 31295
" />
<path d="M85430 29715
L84698 29870
" />
<path d="M85733 31139
L85430 29715
" />
<path d="M85001 31295
L85733 31139
" />
<path d="M84598 20320
L84901 21745
" />
<path d="M85330 20165
L84598 20320
" />
<path d="M85633 21589
L85330 20165
" />
<path d="M84901 21745
L85633 21589
" />
<path d="M86398 60220
L86701 61645
" />
<path d="M87130 60065
L86398 60220
" />
<path d="M87433 61489
L87130 60065
" />
<path d="M86701 61645
L87433 61489
" />
<path d="M89398 51870
L89701 53295
" />
<path d="M90130 51715
L89398 51870
" />
<path d="M90433 53139
L90130 51715
" />
<path d="M89701 53295
L90433 53139
" />
<path d="M85998 44970
L86301 46395
" />
<path d="M86730 44815
L85998 44970
" />
<path d="M87033 46239
L86730 44815
" />
<path d="M86301 46395
L87033 46239
" />
<path d="M82648 37970
L82951 39395
" />
<path d="M83380 37815
L82648 37970
" />
<path d="M83683 39239
L83380 37815
" />
<path d="M82951 39395
L83683 39239
" />
<path d="M77398 31420
L77701 32845
" />
<path d="M78130 31265
L77398 31420
" />
<path d="M78433 32689
L78130 31265
" />
<path d="M77701 32845
L78433 32689
" />
<path d="M77348 21870
L77651 23295
" />
<path d="M78080 21715
L77348 21870
" />
<path d="M78383 23139
L78080 21715
" />
<path d="M77651 23295
L78383 23139
" />
<path d="M82082 53415
L82385 54840
" />
<path d="M82814 53259
L82082 53415
" />
<path d="M83117 54684
L82814 53259
" />
<path d="M82385 54840
L83117 54684
" />
<path d="M78648 46520
L78951 47945
" />
<path d="M79380 46365
L78648 46520
" />
<path d="M79683 47789
L79380 46365
" />
<path d="M78951 47945
L79683 47789
" />
<path d="M75298 39520
L75601 40945
" />
<path d="M76030 39365
L75298 39520
" />
<path d="M76333 40789
L76030 39365
" />
<path d="M75601 40945
L76333 40789
" />
<path d="M65769 32415
L65466 33839
" />
<path d="M66501 32570
L65769 32415
" />
<path d="M66198 33995
L66501 32570
" />
<path d="M65466 33839
L66198 33995
" />
<path d="M64885 22109
L64582 23534
" />
<path d="M65617 22265
L64885 22109
" />
<path d="M65314 23690
L65617 22265
" />
<path d="M64582 23534
L65314 23690
" />
<path d="M64969 63015
L64666 64439
" />
<path d="M65701 63170
L64969 63015
" />
<path d="M65398 64595
L65701 63170
" />
<path d="M64666 64439
L65398 64595
" />
<path d="M62801 54904
L62498 56329
" />
<path d="M63533 55060
L62801 54904
" />
<path d="M63230 56484
L63533 55060
" />
<path d="M62498 56329
L63230 56484
" />
<path d="M60785 46809
L60482 48234
" />
<path d="M61517 46965
L60785 46809
" />
<path d="M61214 48390
L61517 46965
" />
<path d="M60482 48234
L61214 48390
" />
<path d="M60485 39109
L60182 40534
" />
<path d="M61217 39265
L60485 39109
" />
<path d="M60914 40690
L61217 39265
" />
<path d="M60182 40534
L60914 40690
" />
<path d="M58369 30915
L58066 32339
" />
<path d="M59101 31070
L58369 30915
" />
<path d="M58798 32495
L59101 31070
" />
<path d="M58066 32339
L58798 32495
" />
<path d="M58485 21409
L58182 22834
" />
<path d="M59217 21565
L58485 21409
" />
<path d="M58914 22990
L59217 21565
" />
<path d="M58182 22834
L58914 22990
" />
<path d="M53485 60409
L53182 61834
" />
<path d="M54217 60565
L53485 60409
" />
<path d="M53914 61990
L54217 60565
" />
<path d="M53182 61834
L53914 61990
" />
<path d="M55469 53315
L55166 54739
" />
<path d="M56201 53470
L55469 53315
" />
<path d="M55898 54895
L56201 53470
" />
<path d="M55166 54739
L55898 54895
" />
<path d="M53401 45204
L53098 46629
" />
<path d="M54133 45360
L53401 45204
" />
<path d="M53830 46784
L54133 45360
" />
<path d="M53098 46629
L53830 46784
" />
<path d="M53185 37509
L52882 38934
" />
<path d="M53917 37665
L53185 37509
" />
<path d="M53614 39090
L53917 37665
" />
<path d="M52882 38934
L53614 39090
" />
<path d="M51085 29409
L50782 30834
" />
<path d="M51817 29565
L51085 29409
" />
<path d="M51514 30990
L51817 29565
" />
<path d="M50782 30834
L51514 30990
" />
<path d="M49335 19459
L49032 20884
" />
<path d="M50067 19615
L49335 19459
" />
<path d="M49764 21040
L50067 19615
" />
<path d="M49032 20884
L49764 21040
" />
<path d="M48169 51715
L47866 53139
" />
<path d="M48901 51870
L48169 51715
" />
<path d="M48598 53295
L48901 51870
" />
<path d="M47866 53139
L48598 53295
" />
<path d="M46069 43615
L45766 45039
" />
<path d="M46801 43770
L46069 43615
" />
<path d="M46498 45195
L46801 43770
" />
<path d="M45766 45039
L46498 45195
" />
<path d="M45785 35909
L45482 37334
" />
<path d="M46517 36065
L45785 35909
" />
<path d="M46214 37490
L46517 36065
" />
<path d="M45482 37334
L46214 37490
" />
<path d="M43685 27809
L43382 29234
" />
<path d="M44417 27965
L43685 27809
" />
<path d="M44114 29390
L44417 27965
" />
<path d="M43382 29234
L44114 29390
" />
<path d="M42015 17899
L41712 19324
" />
<path d="M42747 18055
L42015 17899
" />
<path d="M42444 19480
L42747 18055
" />
<path d="M41712 19324
L42444 19480
" />
<path d="M41185 57909
L40882 59334
" />
<path d="M41917 58065
L41185 57909
" />
<path d="M41614 59490
L41917 58065
" />
<path d="M40882 59334
L41614 59490
" />
<path d="M40869 50215
L40566 51639
" />
<path d="M41601 50370
L40869 50215
" />
<path d="M41298 51795
L41601 50370
" />
<path d="M40566 51639
L41298 51795
" />
<path d="M38785 42109
L38482 43534
" />
<path d="M39517 42265
L38785 42109
" />
<path d="M39214 43690
L39517 42265
" />
<path d="M38482 43534
L39214 43690
" />
<path d="M38501 34404
L38198 35829
" />
<path d="M39233 34560
L38501 34404
" />
<path d="M38930 35984
L39233 34560
" />
<path d="M38198 35829
L38930 35984
" />
<path d="M36125 25668
L36125 27124
" />
<path d="M36874 25668
L36125 25668
" />
<path d="M36874 27124
L36874 25668
" />
<path d="M36125 27124
L36874 27124
" />
<path d="M34125 16268
L34125 17724
" />
<path d="M34874 16268
L34125 16268
" />
<path d="M34874 17724
L34874 16268
" />
<path d="M34125 17724
L34874 17724
" />
<path d="M33125 48768
L33125 50224
" />
<path d="M33874 48768
L33125 48768
" />
<path d="M33874 50224
L33874 48768
" />
<path d="M33125 50224
L33874 50224
" />
<path d="M31025 41268
L31025 42724
" />
<path d="M31774 41268
L31025 41268
" />
<path d="M31774 42724
L31774 41268
" />
<path d="M31025 42724
L31774 42724
" />
<path d="M30825 33775
L30825 35231
" />
<path d="M31574 33775
L30825 33775
" />
<path d="M31574 35231
L31574 33775
" />
<path d="M30825 35231
L31574 35231
" />
<path d="M28625 26271
L28625 27728
" />
<path d="M29374 26271
L28625 26271
" />
<path d="M29374 27728
L29374 26271
" />
<path d="M28625 27728
L29374 27728
" />
<path d="M26625 16268
L26625 17724
" />
<path d="M27374 16268
L26625 16268
" />
<path d="M27374 17724
L27374 16268
" />
<path d="M26625 17724
L27374 17724
" />
<path d="M18125 56268
L18125 57724
" />
<path d="M18874 56268
L18125 56268
" />
<path d="M18874 57724
L18874 56268
" />
<path d="M18125 57724
L18874 57724
" />
<path d="M21025 48768
L21025 50224
" />
<path d="M21774 48768
L21025 48768
" />
<path d="M21774 50224
L21774 48768
" />
<path d="M21025 50224
L21774 50224
" />
<path d="M20725 41271
L20725 42728
" />
<path d="M21474 41271
L20725 41271
" />
<path d="M21474 42728
L21474 41271
" />
<path d="M20725 42728
L21474 42728
" />
<path d="M21325 33768
L21325 35224
" />
<path d="M22074 33768
L21325 33768
" />
<path d="M22074 35224
L22074 33768
" />
<path d="M21325 35224
L22074 35224
" />
<path d="M21165 26271
L21165 27728
" />
<path d="M21914 26271
L21165 26271
" />
<path d="M21914 27728
L21914 26271
" />
<path d="M21165 27728
L21914 27728
" />
<path d="M17225 16871
L17225 18328
" />
<path d="M17974 16871
L17225 16871
" />
<path d="M17974 18328
L17974 16871
" />
<path d="M17225 18328
L17974 18328
" />
<path d="M62124 13525
L60668 13525
" />
<path d="M62124 14274
L62124 13525
" />
<path d="M60668 14274
L62124 14274
" />
<path d="M60668 13525
L60668 14274
" />
<path d="M67174 21096
L67174 19640
" />
<path d="M66425 21096
L67174 21096
" />
<path d="M66425 19640
L66425 21096
" />
<path d="M67174 19640
L66425 19640
" />
<path d="M76874 12128
L76874 10671
" />
<path d="M76125 12128
L76874 12128
" />
<path d="M76125 10671
L76125 12128
" />
<path d="M76874 10671
L76125 10671
" />
<path d="M64028 11225
L62571 11225
" />
<path d="M64028 11974
L64028 11225
" />
<path d="M62571 11974
L64028 11974
" />
<path d="M62571 11225
L62571 11974
" />
<path d="M64028 12025
L62571 12025
" />
<path d="M64028 12774
L64028 12025
" />
<path d="M62571 12774
L64028 12774
" />
<path d="M62571 12025
L62571 12774
" />
<path d="M63569 15388
L63569 14011
" />
<path d="M62230 15388
L63569 15388
" />
<path d="M62230 14011
L62230 15388
" />
<path d="M63569 14011
L62230 14011
" />
<path d="M142252 59124
L141347 59124
" />
<path d="M141347 57274
L141347 59124
" />
<path d="M142252 57274
L141347 57274
" />
<path d="M142252 59124
L142252 57274
" />
<path d="M142202 37425
L141297 37425
" />
<path d="M141297 35575
L141297 37425
" />
<path d="M142202 35575
L141297 35575
" />
<path d="M142202 37425
L142202 35575
" />
<path d="M141432 31450
L140527 31450
" />
<path d="M140527 29599
L140527 31450
" />
<path d="M141432 29599
L140527 29599
" />
<path d="M141432 31450
L141432 29599
" />
<path d="M139797 23895
L138892 23895
" />
<path d="M138892 22044
L138892 23895
" />
<path d="M139797 22044
L138892 22044
" />
<path d="M139797 23895
L139797 22044
" />
<path d="M130412 25755
L129507 25755
" />
<path d="M129507 23904
L129507 25755
" />
<path d="M130412 23904
L129507 23904
" />
<path d="M130412 25755
L130412 23904
" />
<path d="M138102 16375
L137197 16375
" />
<path d="M137197 14524
L137197 16375
" />
<path d="M138102 14524
L137197 14524
" />
<path d="M138102 16375
L138102 14524
" />
<path d="M135577 57570
L134672 57570
" />
<path d="M134672 55719
L134672 57570
" />
<path d="M135577 55719
L134672 55719
" />
<path d="M135577 57570
L135577 55719
" />
<path d="M135607 50115
L134702 50115
" />
<path d="M134702 48264
L134702 50115
" />
<path d="M135607 48264
L134702 48264
" />
<path d="M135607 50115
L135607 48264
" />
<path d="M130152 33305
L129247 33305
" />
<path d="M129247 31454
L129247 33305
" />
<path d="M130152 31454
L129247 31454
" />
<path d="M130152 33305
L130152 31454
" />
<path d="M123252 23225
L122347 23225
" />
<path d="M122347 21374
L122347 23225
" />
<path d="M123252 21374
L122347 21374
" />
<path d="M123252 23225
L123252 21374
" />
<path d="M128052 16395
L127147 16395
" />
<path d="M127147 14544
L127147 16395
" />
<path d="M128052 14544
L127147 14544
" />
<path d="M128052 16395
L128052 14544
" />
<path d="M128092 57565
L127187 57565
" />
<path d="M127187 55714
L127187 57565
" />
<path d="M128092 55714
L127187 55714
" />
<path d="M128092 57565
L128092 55714
" />
<path d="M129007 40790
L128102 40790
" />
<path d="M128102 38939
L128102 40790
" />
<path d="M129007 38939
L128102 38939
" />
<path d="M129007 40790
L129007 38939
" />
<path d="M120752 33235
L119847 33235
" />
<path d="M119847 31384
L119847 33235
" />
<path d="M120752 31384
L119847 31384
" />
<path d="M120752 33235
L120752 31384
" />
<path d="M115382 25745
L114477 25745
" />
<path d="M114477 23894
L114477 25745
" />
<path d="M115382 23894
L114477 23894
" />
<path d="M115382 25745
L115382 23894
" />
<path d="M117367 15790
L116462 15790
" />
<path d="M116462 13939
L116462 15790
" />
<path d="M117367 13939
L116462 13939
" />
<path d="M117367 15790
L117367 13939
" />
<path d="M123402 48224
L122497 48224
" />
<path d="M122497 46374
L122497 48224
" />
<path d="M123402 46374
L122497 46374
" />
<path d="M123402 48224
L123402 46374
" />
<path d="M116832 40738
L115927 40738
" />
<path d="M115927 38888
L115927 40738
" />
<path d="M116832 38888
L115927 38888
" />
<path d="M116832 40738
L116832 38888
" />
<path d="M113257 33240
L112352 33240
" />
<path d="M112352 31389
L112352 33240
" />
<path d="M113257 31389
L112352 31389
" />
<path d="M113257 33240
L113257 31389
" />
<path d="M107892 25160
L106987 25160
" />
<path d="M106987 23310
L106987 25160
" />
<path d="M107892 23310
L106987 23310
" />
<path d="M107892 25160
L107892 23310
" />
<path d="M109872 15815
L108967 15815
" />
<path d="M108967 13964
L108967 15815
" />
<path d="M109872 13964
L108967 13964
" />
<path d="M109872 15815
L109872 13964
" />
<path d="M113067 48255
L112162 48255
" />
<path d="M112162 46404
L112162 48255
" />
<path d="M113067 46404
L112162 46404
" />
<path d="M113067 48255
L113067 46404
" />
<path d="M109362 40790
L108457 40790
" />
<path d="M108457 38939
L108457 40790
" />
<path d="M109362 38939
L108457 38939
" />
<path d="M109362 40790
L109362 38939
" />
<path d="M105313 32646
L104427 32834
" />
<path d="M104043 31024
L104427 32834
" />
<path d="M104928 30836
L104043 31024
" />
<path d="M105313 32646
L104928 30836
" />
<path d="M100125 26157
L99239 26345
" />
<path d="M98854 24535
L99239 26345
" />
<path d="M99740 24347
L98854 24535
" />
<path d="M100125 26157
L99740 24347
" />
<path d="M101835 16210
L100949 16399
" />
<path d="M100564 14589
L100949 16399
" />
<path d="M101450 14400
L100564 14589
" />
<path d="M101835 16210
L101450 14400
" />
<path d="M102692 56205
L101806 56393
" />
<path d="M101421 54583
L101806 56393
" />
<path d="M102307 54395
L101421 54583
" />
<path d="M102692 56205
L102307 54395
" />
<path d="M104800 48075
L103914 48263
" />
<path d="M103529 46453
L103914 48263
" />
<path d="M104415 46265
L103529 46453
" />
<path d="M104800 48075
L104415 46265
" />
<path d="M101400 41125
L100514 41313
" />
<path d="M100129 39503
L100514 41313
" />
<path d="M101015 39315
L100129 39503
" />
<path d="M101400 41125
L101015 39315
" />
<path d="M98019 34222
L97133 34410
" />
<path d="M96749 32600
L97133 34410
" />
<path d="M97634 32412
L96749 32600
" />
<path d="M98019 34222
L97634 32412
" />
<path d="M92770 27696
L91884 27884
" />
<path d="M91499 26074
L91884 27884
" />
<path d="M92385 25886
L91499 26074
" />
<path d="M92770 27696
L92385 25886
" />
<path d="M94485 17710
L93599 17899
" />
<path d="M93214 16089
L93599 17899
" />
<path d="M94100 15900
L93214 16089
" />
<path d="M94485 17710
L94100 15900
" />
<path d="M97435 49660
L96549 49849
" />
<path d="M96164 48039
L96549 49849
" />
<path d="M97050 47850
L96164 48039
" />
<path d="M97435 49660
L97050 47850
" />
<path d="M94085 42714
L93199 42903
" />
<path d="M92815 41093
L93199 42903
" />
<path d="M93700 40904
L92815 41093
" />
<path d="M94085 42714
L93700 40904
" />
<path d="M90685 35810
L89799 35999
" />
<path d="M89414 34189
L89799 35999
" />
<path d="M90300 34000
L89414 34189
" />
<path d="M90685 35810
L90300 34000
" />
<path d="M85435 29210
L84549 29399
" />
<path d="M84164 27589
L84549 29399
" />
<path d="M85050 27400
L84164 27589
" />
<path d="M85435 29210
L85050 27400
" />
<path d="M85335 19660
L84449 19849
" />
<path d="M84064 18039
L84449 19849
" />
<path d="M84950 17850
L84064 18039
" />
<path d="M85335 19660
L84950 17850
" />
<path d="M87117 59492
L86231 59680
" />
<path d="M85846 57870
L86231 59680
" />
<path d="M86732 57682
L85846 57870
" />
<path d="M87117 59492
L86732 57682
" />
<path d="M90119 51231
L89234 51419
" />
<path d="M88849 49609
L89234 51419
" />
<path d="M89735 49421
L88849 49609
" />
<path d="M90119 51231
L89735 49421
" />
<path d="M86739 44300
L85853 44488
" />
<path d="M85469 42678
L85853 44488
" />
<path d="M86354 42490
L85469 42678
" />
<path d="M86739 44300
L86354 42490
" />
<path d="M83304 37318
L82418 37506
" />
<path d="M82033 35696
L82418 37506
" />
<path d="M82919 35508
L82033 35696
" />
<path d="M83304 37318
L82919 35508
" />
<path d="M78097 30708
L77211 30896
" />
<path d="M76827 29086
L77211 30896
" />
<path d="M77712 28898
L76827 29086
" />
<path d="M78097 30708
L77712 28898
" />
<path d="M78035 21210
L77149 21399
" />
<path d="M76764 19589
L77149 21399
" />
<path d="M77650 19400
L76764 19589
" />
<path d="M78035 21210
L77650 19400
" />
<path d="M82752 52734
L81866 52922
" />
<path d="M81481 51112
L81866 52922
" />
<path d="M82367 50924
L81481 51112
" />
<path d="M82752 52734
L82367 50924
" />
<path d="M79407 45811
L78521 45999
" />
<path d="M78136 44189
L78521 45999
" />
<path d="M79022 44001
L78136 44189
" />
<path d="M79407 45811
L79022 44001
" />
<path d="M76020 38896
L75134 39084
" />
<path d="M74749 37274
L75134 39084
" />
<path d="M75635 37086
L74749 37274
" />
<path d="M76020 38896
L75635 37086
" />
<path d="M66663 32201
L65777 32013
" />
<path d="M66162 30203
L65777 32013
" />
<path d="M67048 30391
L66162 30203
" />
<path d="M66663 32201
L67048 30391
" />
<path d="M66750 24199
L65864 24010
" />
<path d="M66249 22200
L65864 24010
" />
<path d="M67135 22389
L66249 22200
" />
<path d="M66750 24199
L67135 22389
" />
<path d="M65864 62861
L64978 62673
" />
<path d="M65363 60863
L64978 62673
" />
<path d="M66249 61051
L65363 60863
" />
<path d="M65864 62861
L66249 61051
" />
<path d="M63785 54463
L62899 54275
" />
<path d="M63284 52465
L62899 54275
" />
<path d="M64170 52653
L63284 52465
" />
<path d="M63785 54463
L64170 52653
" />
<path d="M61715 46434
L60829 46246
" />
<path d="M61214 44436
L60829 46246
" />
<path d="M62100 44624
L61214 44436
" />
<path d="M61715 46434
L62100 44624
" />
<path d="M61450 38799
L60564 38610
" />
<path d="M60949 36800
L60564 38610
" />
<path d="M61835 36989
L60949 36800
" />
<path d="M61450 38799
L61835 36989
" />
<path d="M59284 30664
L58398 30476
" />
<path d="M58783 28666
L58398 30476
" />
<path d="M59669 28854
L58783 28666
" />
<path d="M59284 30664
L59669 28854
" />
<path d="M59450 21099
L58564 20910
" />
<path d="M58949 19100
L58564 20910
" />
<path d="M59835 19289
L58949 19100
" />
<path d="M59450 21099
L59835 19289
" />
<path d="M54867 60473
L53981 60285
" />
<path d="M54366 58475
L53981 60285
" />
<path d="M55251 58663
L54366 58475
" />
<path d="M54867 60473
L55251 58663
" />
<path d="M56457 52974
L55571 52785
" />
<path d="M55956 50975
L55571 52785
" />
<path d="M56842 51164
L55956 50975
" />
<path d="M56457 52974
L56842 51164
" />
<path d="M54285 44999
L53399 44811
" />
<path d="M53784 43001
L53399 44811
" />
<path d="M54670 43189
L53784 43001
" />
<path d="M54285 44999
L54670 43189
" />
<path d="M54075 37279
L53190 37090
" />
<path d="M53574 35280
L53190 37090
" />
<path d="M54460 35469
L53574 35280
" />
<path d="M54075 37279
L54460 35469
" />
<path d="M51995 29090
L51110 28902
" />
<path d="M51494 27092
L51110 28902
" />
<path d="M52380 27280
L51494 27092
" />
<path d="M51995 29090
L52380 27280
" />
<path d="M50250 19169
L49364 18980
" />
<path d="M49749 17170
L49364 18980
" />
<path d="M50635 17359
L49749 17170
" />
<path d="M50250 19169
L50635 17359
" />
<path d="M49115 51634
L48229 51446
" />
<path d="M48614 49636
L48229 51446
" />
<path d="M49500 49824
L48614 49636
" />
<path d="M49115 51634
L49500 49824
" />
<path d="M47000 43369
L46114 43181
" />
<path d="M46498 41371
L46114 43181
" />
<path d="M47384 41559
L46498 41371
" />
<path d="M47000 43369
L47384 41559
" />
<path d="M46750 35699
L45864 35510
" />
<path d="M46249 33700
L45864 35510
" />
<path d="M47135 33889
L46249 33700
" />
<path d="M46750 35699
L47135 33889
" />
<path d="M44650 27499
L43764 27310
" />
<path d="M44149 25500
L43764 27310
" />
<path d="M45035 25689
L44149 25500
" />
<path d="M44650 27499
L45035 25689
" />
<path d="M42940 17619
L42054 17430
" />
<path d="M42439 15620
L42054 17430
" />
<path d="M43325 15809
L42439 15620
" />
<path d="M42940 17619
L43325 15809
" />
<path d="M42063 57655
L41178 57467
" />
<path d="M41562 55657
L41178 57467
" />
<path d="M42448 55845
L41562 55657
" />
<path d="M42063 57655
L42448 55845
" />
<path d="M41769 49991
L40883 49803
" />
<path d="M41268 47993
L40883 49803
" />
<path d="M42154 48181
L41268 47993
" />
<path d="M41769 49991
L42154 48181
" />
<path d="M39662 41854
L38776 41665
" />
<path d="M39161 39855
L38776 41665
" />
<path d="M40047 40044
L39161 39855
" />
<path d="M39662 41854
L40047 40044
" />
<path d="M39450 34099
L38564 33910
" />
<path d="M38949 32100
L38564 33910
" />
<path d="M39835 32289
L38949 32100
" />
<path d="M39450 34099
L39835 32289
" />
<path d="M36962 25120
L36057 25120
" />
<path d="M36057 23269
L36057 25120
" />
<path d="M36962 23269
L36057 23269
" />
<path d="M36962 25120
L36962 23269
" />
<path d="M34962 15845
L34057 15845
" />
<path d="M34057 13994
L34057 15845
" />
<path d="M34962 13994
L34057 13994
" />
<path d="M34962 15845
L34962 13994
" />
<path d="M33937 48220
L33032 48220
" />
<path d="M33032 46369
L33032 48220
" />
<path d="M33937 46369
L33032 46369
" />
<path d="M33937 48220
L33937 46369
" />
<path d="M31837 40695
L30932 40695
" />
<path d="M30932 38844
L30932 40695
" />
<path d="M31837 38844
L30932 38844
" />
<path d="M31837 40695
L31837 38844
" />
<path d="M31652 33285
L30747 33285
" />
<path d="M30747 31434
L30747 33285
" />
<path d="M31652 31434
L30747 31434
" />
<path d="M31652 33285
L31652 31434
" />
<path d="M29477 25755
L28572 25755
" />
<path d="M28572 23904
L28572 25755
" />
<path d="M29477 23904
L28572 23904
" />
<path d="M29477 25755
L29477 23904
" />
<path d="M27517 15715
L26612 15715
" />
<path d="M26612 13864
L26612 15715
" />
<path d="M27517 13864
L26612 13864
" />
<path d="M27517 15715
L27517 13864
" />
<path d="M19002 55785
L18097 55785
" />
<path d="M18097 53934
L18097 55785
" />
<path d="M19002 53934
L18097 53934
" />
<path d="M19002 55785
L19002 53934
" />
<path d="M21862 48255
L20957 48255
" />
<path d="M20957 46404
L20957 48255
" />
<path d="M21862 46404
L20957 46404
" />
<path d="M21862 48255
L21862 46404
" />
<path d="M21552 40825
L20647 40825
" />
<path d="M20647 38974
L20647 40825
" />
<path d="M21552 38974
L20647 38974
" />
<path d="M21552 40825
L21552 38974
" />
<path d="M22212 33240
L21307 33240
" />
<path d="M21307 31389
L21307 33240
" />
<path d="M22212 31389
L21307 31389
" />
<path d="M22212 33240
L22212 31389
" />
<path d="M22007 25825
L21102 25825
" />
<path d="M21102 23974
L21102 25825
" />
<path d="M22007 23974
L21102 23974
" />
<path d="M22007 25825
L22007 23974
" />
<path d="M18082 16425
L17177 16425
" />
<path d="M17177 14574
L17177 16425
" />
<path d="M18082 14574
L17177 14574
" />
<path d="M18082 16425
L18082 14574
" />
<path d="M73242 16985
L73242 15214
" />
<path d="M73242 16985
L72553 16985
" />
<path d="M72553 15214
L73242 15214
" />
<path d="M72553 15214
L72553 16985
" />
<path d="M73457 14764
L73457 16535
" />
<path d="M73457 14764
L74146 14764
" />
<path d="M74146 16535
L73457 16535
" />
<path d="M74146 16535
L74146 14764
" />
<path d="M74357 9914
L74357 11685
" />
<path d="M74357 9914
L75046 9914
" />
<path d="M75046 11685
L74357 11685
" />
<path d="M75046 11685
L75046 9914
" />
<path d="M73457 9914
L73457 11685
" />
<path d="M73457 9914
L74146 9914
" />
<path d="M74146 11685
L73457 11685
" />
<path d="M74146 11685
L74146 9914
" />
<path d="M64422 14642
L66193 14642
" />
<path d="M64422 14642
L64422 13953
" />
<path d="M66193 13953
L66193 14642
" />
<path d="M66193 13953
L64422 13953
" />
<path d="M64422 15442
L66193 15442
" />
<path d="M64422 15442
L64422 14753
" />
<path d="M66193 14753
L66193 15442
" />
<path d="M66193 14753
L64422 14753
" />
<path d="M72085 19457
L70314 19457
" />
<path d="M72085 19457
L72085 20146
" />
<path d="M70314 20146
L70314 19457
" />
<path d="M70314 20146
L72085 20146
" />
<path d="M65557 17714
L65557 19485
" />
<path d="M65557 17714
L66246 17714
" />
<path d="M66246 19485
L65557 19485
" />
<path d="M66246 19485
L66246 17714
" />
<path d="M75077 13857
L73306 13857
" />
<path d="M75077 13857
L75077 14546
" />
<path d="M73306 14546
L73306 13857
" />
<path d="M73306 14546
L75077 14546
" />
<path d="M87608 11108
L86191 11108
" />
<path d="M87608 9691
L87608 11108
" />
<path d="M86191 9691
L87608 9691
" />
<path d="M86191 11108
L86191 9691
" />
<path d="M86608 11108
L85191 11108
" />
<path d="M86608 9691
L86608 11108
" />
<path d="M85191 9691
L86608 9691
" />
<path d="M85191 11108
L85191 9691
" />
<path d="M85608 11108
L84191 11108
" />
<path d="M85608 9691
L85608 11108
" />
<path d="M84191 9691
L85608 9691
" />
<path d="M84191 11108
L84191 9691
" />
<path d="M84608 11108
L83191 11108
" />
<path d="M84608 9691
L84608 11108
" />
<path d="M83191 9691
L84608 9691
" />
<path d="M83191 11108
L83191 9691
" />
<path d="M83608 11108
L82191 11108
" />
<path d="M83608 9691
L83608 11108
" />
<path d="M82191 9691
L83608 9691
" />
<path d="M82191 11108
L82191 9691
" />
<path d="M82608 11108
L81191 11108
" />
<path d="M82608 9691
L82608 11108
" />
<path d="M81191 9691
L82608 9691
" />
<path d="M81191 11108
L81191 9691
" />
<path d="M56308 11108
L54891 11108
" />
<path d="M56308 9691
L56308 11108
" />
<path d="M54891 9691
L56308 9691
" />
<path d="M54891 11108
L54891 9691
" />
<path d="M55308 11108
L53891 11108
" />
<path d="M55308 9691
L55308 11108
" />
<path d="M53891 9691
L55308 9691
" />
<path d="M53891 11108
L53891 9691
" />
<path d="M80873 12581
L80873 10218
" />
<path d="M77526 12581
L80873 12581
" />
<path d="M77526 10218
L77526 12581
" />
<path d="M80873 10218
L77526 10218
" />
<path d="M75598 14264
L77507 15366
" />
<path d="M74692 15833
L75598 14264
" />
<path d="M76601 16935
L74692 15833
" />
<path d="M77507 15366
L76601 16935
" />
<path d="M64655 11291
L64655 12708
" />
<path d="M66544 11291
L64655 11291
" />
<path d="M66544 12708
L66544 11291
" />
<path d="M64655 12708
L66544 12708
" />
<path d="M71737 13962
L71737 19237
" />
<path d="M66462 13962
L66462 19237
" />
<path d="M66462 19237
L71737 19237
" />
<path d="M66462 13962
L71737 13962
" />
<path d="M60308 11108
L58891 11108
" />
<path d="M60308 9691
L60308 11108
" />
<path d="M58891 9691
L60308 9691
" />
<path d="M58891 11108
L58891 9691
" />
<path d="M58308 11108
L56891 11108
" />
<path d="M58308 9691
L58308 11108
" />
<path d="M56891 9691
L58308 9691
" />
<path d="M56891 11108
L56891 9691
" />
<path d="M57891 11108
L57891 9691
" />
<path d="M57891 9691
L59308 9691
" />
<path d="M59308 9691
L59308 11108
" />
<path d="M59308 11108
L57891 11108
" />
<path d="M55891 11108
L55891 9691
" />
<path d="M55891 9691
L57308 9691
" />
<path d="M57308 9691
L57308 11108
" />
<path d="M57308 11108
L55891 11108
" />
<g >
</g>
<g >
</g>
<g >
</g>
<g >
</g>
<g >
</g>
<g >
</g>
<g >
</g>
<g >
</g>
<g >
</g>
<g >
</g>
<g >
</g>
<g >
</g>
<g >
</g>
<g >
</g>
<g >
</g>
<g >
</g>
<g >
</g>
<g >
</g>
<g >
</g>
<g >
</g>
<g >
</g>
<g >
</g>
<g >
</g>
<g >
</g>
<g >
</g>
<g >
</g>
<g >
</g>
<g >
</g>
<g >
</g>
<g >
</g>
<g >
</g>
<g >
</g>
<g >
</g>
<g >
</g>
<g >
</g>
<g >
</g>
<g >
</g>
<g >
</g>
<g >
</g>
<g >
</g>
<g >
</g>
<g >
</g>
<g >
</g>
<g >
</g>
<g >
</g>
<g >
</g>
<g >
</g>
<g >
</g>
<g >
</g>
<g >
</g>
<g >
</g>
<g >
</g>
<g >
</g>
<g >
</g>
<g >
</g>
<g >
</g>
<g >
</g>
<g >
</g>
<g >
</g>
<g >
</g>
<g >
</g>
<g >
</g>
<g >
</g>
<g >
</g>
<g >
</g>
<g >
</g>
<g >
</g>
<g >
</g>
<g >
</g>
<g >
</g>
<g >
</g>
<g >
</g>
<g >
</g>
<g >
</g>
<g >
</g>
<g >
</g>
<g >
</g>
<g >
</g>
<g >
</g>
<g >
</g>
<g >
</g>
<g >
</g>
<g >
</g>
<g >
</g>
<g >
</g>
<g >
</g>
<g >
</g>
<g >
</g>
<g >
</g>
<g >
</g>
<g >
</g>
<g >
</g>
<g >
</g>
<g >
</g>
<g >
</g>
<g >
</g>
<g >
</g>
<g >
</g>
<g >
</g>
<g >
</g>
<g >
</g>
<g >
</g>
<g >
</g>
<g >
</g>
<g >
</g>
<g >
</g>
<g >
</g>
<g >
</g>
<g >
</g>
<g >
</g>
<g >
</g>
<g >
</g>
<g >
</g>
<g >
</g>
<g >
</g>
<g >
</g>
<g >
</g>
<g >
</g>
<g >
</g>
<g >
</g>
<g >
</g>
<g >
</g>
<g >
</g>
<g >
</g>
<g >
</g>
<g >
</g>
<g >
</g>
<g >
</g>
<g >
</g>
<g >
</g>
<g >
</g>
<g >
</g>
<g >
</g>
<g >
</g>
<g >
</g>
<g >
</g>
<g >
</g>
<g >
</g>
<g >
</g>
<g >
</g>
<g >
</g>
<g >
</g>
<g >
</g>
<g >
</g>
<g >
</g>
<g >
</g>
<g >
</g>
<g >
</g>
<g >
</g>
<g >
</g>
<g >
</g>
<g >
</g>
<g >
</g>
<g >
</g>
<g >
</g>
<g >
</g>
<g >
</g>
<g >
</g>
<g >
</g>
<g >
</g>
<g >
</g>
<g >
</g>
<g >
</g>
<g >
</g>
<g >
</g>
<g >
</g>
<g >
</g>
<g >
</g>
<g >
</g>
<g >
</g>
<g >
</g>
<g >
</g>
<g >
</g>
<g >
</g>
<g >
</g>
<g >
</g>
<g >
</g>
<g >
</g>
<g >
</g>
<g >
</g>
<g >
</g>
<g >
</g>
<g >
</g>
<g >
</g>
<g >
</g>
<g >
</g>
<g >
</g>
<g >
</g>
<g >
</g>
<g >
</g>
<g >
</g>
<g >
</g>
<g >
</g>
<g >
</g>
<g >
</g>
<g >
</g>
<g >
</g>
<g >
</g>
<g >
</g>
<g >
</g>
<g >
</g>
<g >
</g>
<g >
</g>
<g >
</g>
<g >
</g>
<g >
</g>
<g >
</g>
<g >
</g>
<g >
</g>
<g >
</g>
<g >
</g>
<g >
</g>
<g >
</g>
<g >
</g>
<g >
</g>
<g >
</g>
<g >
</g>
<g >
</g>
<g >
</g>
<g >
</g>
<g >
</g>
<g >
</g>
<g >
</g>
<g >
</g>
<g >
</g>
<g >
</g>
<g >
</g>
<g >
</g>
<g >
</g>
<g >
</g>
<g >
</g>
<g >
</g>
<g >
</g>
<g >
</g>
<g >
</g>
<g >
</g>
<g >
</g>
<g >
</g>
<g >
</g>
<g >
</g>
<g >
</g>
<g >
</g>
<g >
</g>
<g >
</g>
<g >
</g>
<g >
</g>
<g >
</g>
<g >
</g>
<g >
</g>
<g >
</g>
<g >
</g>
<g >
</g>
<g >
</g>
<g >
</g>
<g >
</g>
<g >
</g>
<g >
</g>
<g >
</g>
<g >
</g>
<g >
</g>
<g >
</g>
<g >
</g>
<g >
</g>
<g >
</g>
<g >
</g>
<g >
</g>
<g >
</g>
<g >
</g>
<g >
</g>
<g >
</g>
<g >
</g>
<g >
</g>
<g >
</g>
<g >
</g>
<g >
</g>
<g >
</g>
<g >
</g>
<g >
</g>
<g >
</g>
<g >
</g>
<g >
</g>
<g >
</g>
<g >
</g>
<g >
</g>
<g >
</g>
<g >
</g>
<g >
</g>
<g >
</g>
<g >
</g>
<g >
</g>
<g >
</g>
<g >
</g>
<g >
</g>
<g >
</g>
<g >
</g>
<g >
</g>
<g >
</g>
<g >
</g>
<g >
</g>
<g >
</g>
<g >
</g>
<g >
</g>
<g >
</g>
<g >
</g>
<g >
</g>
<g >
</g>
<g >
</g>
<g >
</g>
<g >
</g>
<g >
</g>
<g >
</g>
<g >
</g>
<g >
</g>
<g >
</g>
<g >
</g>
<g >
</g>
<g >
</g>
<g >
</g>
<g >
</g>
<g >
</g>
<g >
</g>
<g >
</g>
<g >
</g>
<g >
</g>
<g >
</g>
<g >
</g>
<g >
</g>
<g >
</g>
<g >
</g>
<g >
</g>
<g >
</g>
<g >
</g>
<g >
</g>
</g>
<g style="fill:#000000; fill-opacity:0.0; 
stroke:#000000; stroke-width:19.685; stroke-opacity:1; 
stroke-linecap:round; stroke-linejoin:round;">
</g>
<g style="fill:#C2C200; fill-opacity:0.0; 
stroke:#C2C200; stroke-width:19.685; stroke-opacity:1; 
stroke-linecap:round; stroke-linejoin:round;">
</g>
<g style="fill:#C2C200; fill-opacity:0.0; 
stroke:#C2C200; stroke-width:59.0551; stroke-opacity:1; 
stroke-linecap:round; stroke-linejoin:round;">
<path d="M142717 60514.8 A787.402 787.402 0.0 0 0 143504 59727.4" />
<path d="M143504 10406.5 A787.402 787.402 0.0 0 0 142717 9619.1" />
<path d="M10792.3 9619.1 A787.402 787.402 0.0 0 0 10004.9 10406.5" />
<path d="M10004.9 59727.4 A787.402 787.402 0.0 0 0 10792.3 60514.8" />
<path d="M71901 65994
L97681 60514
" />
<path d="M66377 65994
L71901 65994
" />
<path d="M40601 60514
L66377 65994
" />
<path d="M97681 60514
L142716 60514
" />
<path d="M10792 60514
L40601 60514
" />
<path d="M10792 9619
L142716 9619
" />
<path d="M143503 10406
L143503 59727
" />
<path d="M10004 10406
L10004 59727
" />
<g >
</g>
<g >
</g>
<g >
</g>
<g >
</g>
<g >
</g>
<g >
</g>
<g >
</g>
<g >
</g>
<g >
</g>
<g >
</g>
<g >
</g>
<g >
</g>
<g >
</g>
<g >
</g>
<g >
</g>
<g >
</g>
<g >
</g>
<g >
</g>
<g >
</g>
<g >
</g>
<g >
</g>
<g >
</g>
<g >
</g>
<g >
</g>
<g >
</g>
<g >
</g>
<g >
</g>
<g >
</g>
<g >
</g>
<g >
</g>
<g >
</g>
<g >
</g>
<g >
</g>
<g >
</g>
<g >
</g>
<g >
</g>
<g >
</g>
<g >
</g>
<g >
</g>
<g >
</g>
<g >
</g>
<g >
</g>
<g >
</g>
<g >
</g>
<g >
</g>
<g >
</g>
<g >
</g>
<g >
</g>
<g >
</g>
<g >
</g>
<g >
</g>
<g >
</g>
<g >
</g>
<g >
</g>
<g >
</g>
<g >
</g>
<g >
</g>
<g >
</g>
<g >
</g>
<g >
</g>
<g >
</g>
<g >
</g>
<g >
</g>
<g >
</g>
<g >
</g>
<g >
</g>
<g >
</g>
<g >
</g>
<g >
</g>
<g >
</g>
<g >
</g>
<g >
</g>
<g >
</g>
<g >
</g>
<g >
</g>
<g >
</g>
<g >
</g>
<g >
</g>
<g >
</g>
<g >
</g>
<g >
</g>
<g >
</g>
<g >
</g>
<g >
</g>
<g >
</g>
<g >
</g>
<g >
</g>
<g >
</g>
<g >
</g>
<g >
</g>
<g >
</g>
<g >
</g>
<g >
</g>
<g >
</g>
<g >
</g>
<g >
</g>
<g >
</g>
<g >
</g>
<g >
</g>
<g >
</g>
<g >
</g>
<g >
</g>
<g >
</g>
<g >
</g>
<g >
</g>
<g >
</g>
<g >
</g>
<g >
</g>
<g >
</g>
<g >
</g>
<g >
</g>
<g >
</g>
<g >
</g>
<g >
</g>
<g >
</g>
<g >
</g>
<g >
</g>
<g >
</g>
<g >
</g>
<g >
</g>
<g >
</g>
<g >
</g>
<g >
</g>
<g >
</g>
<g >
</g>
<g >
</g>
<g >
</g>
<g >
</g>
<g >
</g>
<g >
</g>
<g >
</g>
<g >
</g>
<g >
</g>
<g >
</g>
<g >
</g>
<g >
</g>
<g >
</g>
<g >
</g>
<g >
</g>
<g >
</g>
<g >
</g>
<g >
</g>
<g >
</g>
<g >
</g>
<g >
</g>
<g >
</g>
<g >
</g>
<g >
</g>
<g >
</g>
<g >
</g>
<g >
</g>
<g >
</g>
<g >
</g>
<g >
</g>
<g >
</g>
<g >
</g>
<g >
</g>
<g >
</g>
<g >
</g>
<g >
</g>
<g >
</g>
<g >
</g>
<g >
</g>
<g >
</g>
<g >
</g>
<g >
</g>
<g >
</g>
<g >
</g>
<g >
</g>
<g >
</g>
<g >
</g>
<g >
</g>
<g >
</g>
<g >
</g>
<g >
</g>
<g >
</g>
<g >
</g>
<g >
</g>
<g >
</g>
<g >
</g>
<g >
</g>
<g >
</g>
<g >
</g>
<g >
</g>
<g >
</g>
<g >
</g>
<g >
</g>
<g >
</g>
<g >
</g>
<g >
</g>
<g >
</g>
<g >
</g>
<g >
</g>
<g >
</g>
<g >
</g>
<g >
</g>
<g >
</g>
<g >
</g>
<g >
</g>
<g >
</g>
<g >
</g>
<g >
</g>
<g >
</g>
<g >
</g>
<g >
</g>
<g >
</g>
<g >
</g>
<g >
</g>
<g >
</g>
<g >
</g>
<g >
</g>
<g >
</g>
<g >
</g>
<g >
</g>
<g >
</g>
<g >
</g>
<g >
</g>
<g >
</g>
<g >
</g>
<g >
</g>
<g >
</g>
<g >
</g>
<g >
</g>
<g >
</g>
<g >
</g>
<g >
</g>
<g >
</g>
<g >
</g>
<g >
</g>
<g >
</g>
<g >
</g>
<g >
</g>
<g >
</g>
<g >
</g>
<g >
</g>
<g >
</g>
<g >
</g>
<g >
</g>
<g >
</g>
<g >
</g>
<g >
</g>
<g >
</g>
<g >
</g>
<g >
</g>
<g >
</g>
<g >
</g>
<g >
</g>
<g >
</g>
<g >
</g>
<g >
</g>
<g >
</g>
<g >
</g>
<g >
</g>
<g >
</g>
<g >
</g>
<g >
</g>
<g >
</g>
<g >
</g>
<g >
</g>
<g >
</g>
<g >
</g>
<g >
</g>
<g >
</g>
<g >
</g>
<g >
</g>
<g >
</g>
<g >
</g>
<g >
</g>
<g >
</g>
<g >
</g>
<g >
</g>
<g >
</g>
<g >
</g>
<g >
</g>
<g >
</g>
<g >
</g>
<g >
</g>
<g >
</g>
<g >
</g>
<g >
</g>
<g >
</g>
<g >
</g>
<g >
</g>
<g >
</g>
<g >
</g>
<g >
</g>
<g >
</g>
<g >
</g>
<g >
</g>
<g >
</g>
<g >
</g>
<g >
</g>
<g >
</g>
<g >
</g>
<g >
</g>
<g >
</g>
<g >
</g>
<g >
</g>
<g >
</g>
<g >
</g>
<g >
</g>
<g >
</g>
<g >
</g>
<g >
</g>
<g >
</g>
<g >
</g>
<g >
</g>
<g >
</g>
<g >
</g>
<g >
</g>
<g >
</g>
<g >
</g>
<g >
</g>
<g >
</g>
<g >
</g>
<g >
</g>
<g >
</g>
<g >
</g>
<g >
</g>
<g >
</g>
<g >
</g>
<g >
</g>
<g >
</g>
<g >
</g>
<g >
</g>
<g >
</g>
<g >
</g>
<g >
</g>
<g >
</g>
<g >
</g>
<g >
</g>
<g >
</g>
<g >
</g>
</g> 
</svg>
