M48
; DRILL file {KiCad (6.0.7)} date Sun Dec 18 23:36:21 2022
; FORMAT={-:-/ absolute / metric / decimal}
; #@! TF.CreationDate,2022-12-18T23:36:21-08:00
; #@! TF.GenerationSoftware,Kicad,Pcbnew,(6.0.7)
; #@! TF.FileFunction,NonPlated,1,2,NPTH
FMAT,2
METRIC
; #@! TA.AperFunction,NonPlated,NPTH,ComponentDrill
T1C1.702
; #@! TA.AperFunction,NonPlated,NPTH,ComponentDrill
T2C2.200
; #@! TA.AperFunction,NonPlated,NPTH,ComponentDrill
T3C3.000
; #@! TA.AperFunction,NonPlated,NPTH,ComponentDrill
T4C3.048
; #@! TA.AperFunction,NonPlated,NPTH,ComponentDrill
T5C3.200
; #@! TA.AperFunction,NonPlated,NPTH,ComponentDrill
T6C3.988
%
G90
G05
T1
X72.58Y-172.2
X72.601Y-95.022
X72.631Y-114.39
X72.631Y-133.694
X72.631Y-152.794
X82.74Y-172.2
X82.761Y-95.022
X82.791Y-114.39
X82.791Y-133.694
X82.791Y-152.794
X91.884Y-172.2
X91.905Y-95.022
X91.935Y-114.39
X91.935Y-133.694
X91.935Y-152.794
X102.044Y-172.2
X102.065Y-95.022
X102.095Y-114.39
X102.095Y-133.694
X102.095Y-152.794
X111.188Y-172.2
X111.209Y-95.022
X111.239Y-114.39
X111.239Y-133.694
X111.239Y-152.794
X121.348Y-172.2
X121.369Y-95.022
X121.399Y-114.39
X121.399Y-133.694
X121.399Y-152.794
X130.64Y-95.022
X130.67Y-114.39
X130.67Y-133.694
X130.67Y-152.794
X140.8Y-95.022
X140.83Y-114.39
X140.83Y-133.694
X140.83Y-152.794
X149.944Y-95.022
X149.974Y-114.39
X149.974Y-133.694
X149.974Y-152.794
X160.104Y-95.022
X160.134Y-114.39
X160.134Y-133.694
X160.134Y-152.794
X169.1Y-172.2
X169.248Y-95.022
X169.278Y-114.39
X169.278Y-133.694
X169.41Y-152.756
X179.26Y-172.2
X179.408Y-95.022
X179.438Y-114.39
X179.438Y-133.694
X179.57Y-152.756
X188.679Y-95.022
X188.709Y-114.39
X188.709Y-133.694
X188.714Y-152.756
X198.839Y-95.022
X198.869Y-114.39
X198.869Y-133.694
X198.874Y-152.756
X207.983Y-95.022
X208.013Y-114.39
X208.013Y-133.694
X208.018Y-152.756
X218.143Y-95.022
X218.173Y-114.39
X218.173Y-133.694
X218.178Y-152.756
X227.287Y-95.022
X227.317Y-114.39
X227.317Y-133.694
X227.449Y-152.756
X227.495Y-172.2
X237.447Y-95.022
X237.477Y-114.39
X237.477Y-133.694
X237.609Y-152.756
X237.655Y-172.2
X246.697Y-172.2
X246.718Y-95.022
X246.748Y-114.39
X246.748Y-133.694
X246.748Y-152.794
X256.857Y-172.2
X256.878Y-95.022
X256.908Y-114.39
X256.908Y-133.694
X256.908Y-152.794
X266.001Y-172.2
X266.022Y-95.022
X266.052Y-114.39
X266.052Y-133.694
X266.052Y-152.794
X276.161Y-172.2
X276.182Y-95.022
X276.212Y-114.39
X276.212Y-133.694
X276.212Y-152.794
X292.29Y-177.331
X302.45Y-177.331
X311.518Y-177.331
X321.678Y-177.331
X330.822Y-177.331
X340.982Y-177.331
X350.126Y-177.331
X360.286Y-177.331
T2
X149.013Y-179.365
X197.858Y-179.339
X291.65Y-134.25
T3
X73.85Y-169.66
X73.871Y-92.482
X73.901Y-111.85
X73.901Y-131.154
X73.901Y-150.254
X80.2Y-167.12
X80.221Y-89.942
X80.251Y-109.31
X80.251Y-128.614
X80.251Y-147.714
X93.154Y-169.66
X93.175Y-92.482
X93.205Y-111.85
X93.205Y-131.154
X93.205Y-150.254
X99.504Y-167.12
X99.525Y-89.942
X99.555Y-109.31
X99.555Y-128.614
X99.555Y-147.714
X112.458Y-169.66
X112.479Y-92.482
X112.509Y-111.85
X112.509Y-131.154
X112.509Y-150.254
X118.808Y-167.12
X118.829Y-89.942
X118.859Y-109.31
X118.859Y-128.614
X118.859Y-147.714
X131.91Y-92.482
X131.94Y-111.85
X131.94Y-131.154
X131.94Y-150.254
X138.26Y-89.942
X138.29Y-109.31
X138.29Y-128.614
X138.29Y-147.714
X151.214Y-92.482
X151.244Y-111.85
X151.244Y-131.154
X151.244Y-150.254
X157.564Y-89.942
X157.594Y-109.31
X157.594Y-128.614
X157.594Y-147.714
X170.37Y-169.66
X170.518Y-92.482
X170.548Y-111.85
X170.548Y-131.154
X170.68Y-150.216
X176.72Y-167.12
X176.868Y-89.942
X176.898Y-109.31
X176.898Y-128.614
X177.03Y-147.676
X189.949Y-92.482
X189.979Y-111.85
X189.979Y-131.154
X189.984Y-150.216
X196.299Y-89.942
X196.329Y-109.31
X196.329Y-128.614
X196.334Y-147.676
X209.253Y-92.482
X209.283Y-111.85
X209.283Y-131.154
X209.288Y-150.216
X215.603Y-89.942
X215.633Y-109.31
X215.633Y-128.614
X215.638Y-147.676
X228.557Y-92.482
X228.587Y-111.85
X228.587Y-131.154
X228.719Y-150.216
X228.765Y-169.66
X234.907Y-89.942
X234.937Y-109.31
X234.937Y-128.614
X235.069Y-147.676
X235.115Y-167.12
X247.967Y-169.66
X247.988Y-92.482
X248.018Y-111.85
X248.018Y-131.154
X248.018Y-150.254
X254.317Y-167.12
X254.338Y-89.942
X254.368Y-109.31
X254.368Y-128.614
X254.368Y-147.714
X267.271Y-169.66
X267.292Y-92.482
X267.322Y-111.85
X267.322Y-131.154
X267.322Y-150.254
X273.621Y-167.12
X273.642Y-89.942
X273.672Y-109.31
X273.672Y-128.614
X273.672Y-147.714
X293.56Y-174.791
X299.91Y-172.251
X312.788Y-174.791
X319.138Y-172.251
X332.092Y-174.791
X338.442Y-172.251
X351.396Y-174.791
X357.746Y-172.251
T4
X162.28Y-165.215
X186.08Y-165.215
T5
X64.577Y-134.51
X65.034Y-81.475
X65.39Y-182.872
X371.053Y-81.17
X371.206Y-183.888
X371.257Y-135.221
T6
X77.66Y-172.2
X77.681Y-95.022
X77.711Y-114.39
X77.711Y-133.694
X77.711Y-152.794
X96.964Y-172.2
X96.985Y-95.022
X97.015Y-114.39
X97.015Y-133.694
X97.015Y-152.794
X116.268Y-172.2
X116.289Y-95.022
X116.319Y-114.39
X116.319Y-133.694
X116.319Y-152.794
X135.72Y-95.022
X135.75Y-114.39
X135.75Y-133.694
X135.75Y-152.794
X155.024Y-95.022
X155.054Y-114.39
X155.054Y-133.694
X155.054Y-152.794
X162.28Y-180.455
X174.18Y-172.2
X174.328Y-95.022
X174.358Y-114.39
X174.358Y-133.694
X174.49Y-152.756
X186.08Y-180.455
X193.759Y-95.022
X193.789Y-114.39
X193.789Y-133.694
X193.794Y-152.756
X213.063Y-95.022
X213.093Y-114.39
X213.093Y-133.694
X213.098Y-152.756
X232.367Y-95.022
X232.397Y-114.39
X232.397Y-133.694
X232.529Y-152.756
X232.575Y-172.2
X251.777Y-172.2
X251.798Y-95.022
X251.828Y-114.39
X251.828Y-133.694
X251.828Y-152.794
X271.081Y-172.2
X271.102Y-95.022
X271.132Y-114.39
X271.132Y-133.694
X271.132Y-152.794
X297.37Y-177.331
X316.598Y-177.331
X335.902Y-177.331
X355.206Y-177.331
T0
M30
