M48
; DRILL file {KiCad (6.0.7)} date Sat Dec  3 23:51:35 2022
; FORMAT={-:-/ absolute / metric / decimal}
; #@! TF.CreationDate,2022-12-03T23:51:35-08:00
; #@! TF.GenerationSoftware,Kicad,Pcbnew,(6.0.7)
; #@! TF.FileFunction,Plated,1,2,PTH
FMAT,2
METRIC
; #@! TA.AperFunction,Plated,PTH,ViaDrill
T1C0.300
; #@! TA.AperFunction,Plated,PTH,ViaDrill
T2C0.400
; #@! TA.AperFunction,Plated,PTH,ComponentDrill
T3C0.700
; #@! TA.AperFunction,Plated,PTH,ComponentDrill
T4C1.000
; #@! TA.AperFunction,Plated,PTH,ComponentDrill
T5C1.092
; #@! TA.AperFunction,Plated,PTH,ComponentDrill
T6C1.100
%
G90
G05
T1
X311.866Y-138.134
X314.2Y-133.992
X314.566Y-122.684
X315.266Y-124.584
X315.666Y-130.184
X315.866Y-125.484
X317.466Y-119.584
X319.666Y-128.484
X321.778Y-138.997
X334.616Y-130.034
X335.028Y-135.77
X335.766Y-123.934
X337.966Y-119.134
X341.515Y-126.626
T2
X322.692Y-93.007
X326.045Y-93.108
X329.347Y-93.311
X333.157Y-151.427
X364.043Y-130.345
X366.278Y-121.709
X366.888Y-127.805
X366.989Y-106.519
X367.294Y-115.155
X368.717Y-103.827
X368.717Y-117.137
X372.12Y-91.787
T3
X321.577Y-123.492
X321.577Y-125.272
X321.577Y-127.052
X321.577Y-128.832
X321.577Y-130.612
X321.577Y-132.392
X321.577Y-134.172
X321.577Y-135.952
X332.277Y-122.602
X332.277Y-124.382
X332.277Y-126.162
X332.277Y-127.942
X332.277Y-129.722
X332.277Y-131.502
X332.277Y-133.282
X332.277Y-135.062
T4
X344.841Y-123.334
X344.841Y-125.874
X344.841Y-128.414
X344.841Y-130.954
X344.841Y-133.494
X344.841Y-136.034
X352.816Y-159.758
X355.356Y-159.758
X357.896Y-159.758
T5
X348.143Y-83.151
X348.143Y-85.691
X348.143Y-88.231
X348.143Y-90.771
X348.143Y-93.311
X348.143Y-95.851
X348.143Y-98.391
X348.143Y-100.931
X348.143Y-103.471
X348.143Y-106.011
X348.143Y-108.551
X348.371Y-111.091
X350.683Y-111.091
X353.223Y-111.091
X355.763Y-111.091
X358.303Y-111.091
X360.843Y-111.091
X363.383Y-83.151
X363.383Y-85.691
X363.383Y-88.231
X363.383Y-90.771
X363.383Y-93.311
X363.383Y-95.851
X363.383Y-98.391
X363.383Y-100.931
X363.383Y-103.471
X363.383Y-106.011
X363.383Y-108.551
X363.383Y-111.091
T6
X85.153Y-179.312
X85.153Y-184.392
X85.28Y-98.54
X85.28Y-103.62
X85.31Y-138.009
X85.31Y-143.089
X85.437Y-157.11
X85.437Y-162.19
X85.564Y-117.689
X85.564Y-122.769
X104.457Y-179.439
X104.457Y-184.519
X104.584Y-98.667
X104.584Y-103.747
X104.614Y-138.136
X104.614Y-143.216
X104.741Y-157.237
X104.741Y-162.317
X104.868Y-117.816
X104.868Y-122.896
X123.888Y-179.312
X123.888Y-184.392
X124.015Y-98.54
X124.015Y-103.62
X124.045Y-138.009
X124.045Y-143.089
X124.172Y-157.11
X124.172Y-162.19
X124.299Y-117.689
X124.299Y-122.769
X143.319Y-98.667
X143.319Y-103.747
X143.349Y-138.136
X143.349Y-143.216
X143.476Y-157.237
X143.476Y-162.317
X143.603Y-117.816
X143.603Y-122.896
X162.623Y-98.885
X162.623Y-103.965
X162.653Y-138.354
X162.653Y-143.434
X162.907Y-118.034
X162.907Y-123.114
X164.02Y-154.42
X164.02Y-159.5
X180.581Y-179.949
X180.581Y-185.029
X181.927Y-99.012
X181.927Y-104.092
X181.957Y-138.481
X181.957Y-143.561
X182.211Y-118.161
X182.211Y-123.241
X183.4Y-154.492
X183.4Y-159.572
X200.9Y-138.242
X200.9Y-143.322
X201.231Y-98.667
X201.231Y-103.747
X201.393Y-157.417
X201.393Y-162.497
X201.515Y-117.816
X201.515Y-122.896
X220.535Y-98.794
X220.535Y-103.874
X220.565Y-138.263
X220.565Y-143.343
X220.819Y-117.943
X220.819Y-123.023
X220.824Y-157.29
X220.824Y-162.37
X239.814Y-179.911
X239.814Y-184.991
X239.839Y-99.012
X239.839Y-104.092
X239.869Y-138.481
X239.869Y-143.561
X240.123Y-118.161
X240.123Y-123.241
X240.128Y-157.417
X240.128Y-162.497
X259.016Y-179.911
X259.016Y-184.991
X259.143Y-99.139
X259.143Y-104.219
X259.173Y-138.608
X259.173Y-143.688
X259.3Y-157.709
X259.3Y-162.789
X259.427Y-118.288
X259.427Y-123.368
X278.32Y-179.82
X278.32Y-184.9
X278.447Y-99.048
X278.447Y-104.128
X278.477Y-138.517
X278.477Y-143.597
X278.604Y-157.618
X278.604Y-162.698
X278.731Y-118.197
X278.731Y-123.277
X306.26Y-178.55
X306.26Y-183.63
X325.488Y-178.55
X325.488Y-183.63
X344.792Y-178.459
X344.792Y-183.539
X364.096Y-178.459
X364.096Y-183.539
T0
M30
