%TF.GenerationSoftware,KiCad,Pcbnew,(6.0.7)*%
%TF.CreationDate,2022-12-18T23:36:22-08:00*%
%TF.ProjectId,openot rev2,6f70656e-6f74-4207-9265-76322e6b6963,rev?*%
%TF.SameCoordinates,Original*%
%TF.FileFunction,Drillmap*%
%TF.FilePolarity,Positive*%
%FSLAX45Y45*%
G04 Gerber Fmt 4.5, Leading zero omitted, Abs format (unit mm)*
G04 Created by KiCad (PCBNEW (6.0.7)) date 2022-12-18 23:36:22*
%MOMM*%
%LPD*%
G01*
G04 APERTURE LIST*
%ADD10C,0.100000*%
%ADD11C,0.200000*%
%ADD12C,0.170180*%
%ADD13C,0.220000*%
%ADD14C,0.300000*%
%ADD15C,0.304800*%
%ADD16C,0.320000*%
%ADD17C,0.398780*%
G04 APERTURE END LIST*
D10*
X32317768Y-13822223D02*
X33067768Y-13822223D01*
X32267768Y-13772223D02*
X32267768Y-12197223D01*
X32317768Y-12147223D02*
X33067768Y-12147223D01*
X32267766Y-13772223D02*
G75*
G03*
X32317768Y-13822223I50004J4D01*
G01*
X6099568Y-7738563D02*
X37478728Y-7738563D01*
X37478728Y-7738563D02*
X37478728Y-18818043D01*
X37478728Y-18818043D02*
X6099568Y-18818043D01*
X6099568Y-18818043D02*
X6099568Y-7738563D01*
X33117768Y-12197223D02*
X33117768Y-13772223D01*
X33117766Y-12197223D02*
G75*
G03*
X33067768Y-12147223I-49997J4D01*
G01*
X33067768Y-13822218D02*
G75*
G03*
X33117768Y-13772223I2J49998D01*
G01*
X32317768Y-12147218D02*
G75*
G03*
X32267768Y-12197223I2J-50002D01*
G01*
D11*
D12*
X7172910Y-17134910D02*
X7343090Y-17305090D01*
X7343090Y-17134910D02*
X7172910Y-17305090D01*
X7174963Y-9417139D02*
X7345143Y-9587319D01*
X7345143Y-9417139D02*
X7174963Y-9587319D01*
X7177990Y-11353870D02*
X7348170Y-11524050D01*
X7348170Y-11353870D02*
X7177990Y-11524050D01*
X7177990Y-13284270D02*
X7348170Y-13454450D01*
X7348170Y-13284270D02*
X7177990Y-13454450D01*
X7177990Y-15194350D02*
X7348170Y-15364530D01*
X7348170Y-15194350D02*
X7177990Y-15364530D01*
X8188910Y-17134910D02*
X8359090Y-17305090D01*
X8359090Y-17134910D02*
X8188910Y-17305090D01*
X8190963Y-9417139D02*
X8361143Y-9587319D01*
X8361143Y-9417139D02*
X8190963Y-9587319D01*
X8193990Y-11353870D02*
X8364170Y-11524050D01*
X8364170Y-11353870D02*
X8193990Y-11524050D01*
X8193990Y-13284270D02*
X8364170Y-13454450D01*
X8364170Y-13284270D02*
X8193990Y-13454450D01*
X8193990Y-15194350D02*
X8364170Y-15364530D01*
X8364170Y-15194350D02*
X8193990Y-15364530D01*
X9103310Y-17134910D02*
X9273490Y-17305090D01*
X9273490Y-17134910D02*
X9103310Y-17305090D01*
X9105363Y-9417139D02*
X9275543Y-9587319D01*
X9275543Y-9417139D02*
X9105363Y-9587319D01*
X9108390Y-11353870D02*
X9278570Y-11524050D01*
X9278570Y-11353870D02*
X9108390Y-11524050D01*
X9108390Y-13284270D02*
X9278570Y-13454450D01*
X9278570Y-13284270D02*
X9108390Y-13454450D01*
X9108390Y-15194350D02*
X9278570Y-15364530D01*
X9278570Y-15194350D02*
X9108390Y-15364530D01*
X10119310Y-17134910D02*
X10289490Y-17305090D01*
X10289490Y-17134910D02*
X10119310Y-17305090D01*
X10121363Y-9417139D02*
X10291543Y-9587319D01*
X10291543Y-9417139D02*
X10121363Y-9587319D01*
X10124390Y-11353870D02*
X10294570Y-11524050D01*
X10294570Y-11353870D02*
X10124390Y-11524050D01*
X10124390Y-13284270D02*
X10294570Y-13454450D01*
X10294570Y-13284270D02*
X10124390Y-13454450D01*
X10124390Y-15194350D02*
X10294570Y-15364530D01*
X10294570Y-15194350D02*
X10124390Y-15364530D01*
X11033710Y-17134910D02*
X11203890Y-17305090D01*
X11203890Y-17134910D02*
X11033710Y-17305090D01*
X11035763Y-9417139D02*
X11205943Y-9587319D01*
X11205943Y-9417139D02*
X11035763Y-9587319D01*
X11038790Y-11353870D02*
X11208970Y-11524050D01*
X11208970Y-11353870D02*
X11038790Y-11524050D01*
X11038790Y-13284270D02*
X11208970Y-13454450D01*
X11208970Y-13284270D02*
X11038790Y-13454450D01*
X11038790Y-15194350D02*
X11208970Y-15364530D01*
X11208970Y-15194350D02*
X11038790Y-15364530D01*
X12049710Y-17134910D02*
X12219890Y-17305090D01*
X12219890Y-17134910D02*
X12049710Y-17305090D01*
X12051763Y-9417139D02*
X12221943Y-9587319D01*
X12221943Y-9417139D02*
X12051763Y-9587319D01*
X12054790Y-11353870D02*
X12224970Y-11524050D01*
X12224970Y-11353870D02*
X12054790Y-11524050D01*
X12054790Y-13284270D02*
X12224970Y-13454450D01*
X12224970Y-13284270D02*
X12054790Y-13454450D01*
X12054790Y-15194350D02*
X12224970Y-15364530D01*
X12224970Y-15194350D02*
X12054790Y-15364530D01*
X12978863Y-9417139D02*
X13149043Y-9587319D01*
X13149043Y-9417139D02*
X12978863Y-9587319D01*
X12981890Y-11353870D02*
X13152070Y-11524050D01*
X13152070Y-11353870D02*
X12981890Y-11524050D01*
X12981890Y-13284270D02*
X13152070Y-13454450D01*
X13152070Y-13284270D02*
X12981890Y-13454450D01*
X12981890Y-15194350D02*
X13152070Y-15364530D01*
X13152070Y-15194350D02*
X12981890Y-15364530D01*
X13994863Y-9417139D02*
X14165043Y-9587319D01*
X14165043Y-9417139D02*
X13994863Y-9587319D01*
X13997890Y-11353870D02*
X14168070Y-11524050D01*
X14168070Y-11353870D02*
X13997890Y-11524050D01*
X13997890Y-13284270D02*
X14168070Y-13454450D01*
X14168070Y-13284270D02*
X13997890Y-13454450D01*
X13997890Y-15194350D02*
X14168070Y-15364530D01*
X14168070Y-15194350D02*
X13997890Y-15364530D01*
X14909263Y-9417139D02*
X15079443Y-9587319D01*
X15079443Y-9417139D02*
X14909263Y-9587319D01*
X14912290Y-11353870D02*
X15082470Y-11524050D01*
X15082470Y-11353870D02*
X14912290Y-11524050D01*
X14912290Y-13284270D02*
X15082470Y-13454450D01*
X15082470Y-13284270D02*
X14912290Y-13454450D01*
X14912290Y-15194350D02*
X15082470Y-15364530D01*
X15082470Y-15194350D02*
X14912290Y-15364530D01*
X15925263Y-9417139D02*
X16095443Y-9587319D01*
X16095443Y-9417139D02*
X15925263Y-9587319D01*
X15928290Y-11353870D02*
X16098470Y-11524050D01*
X16098470Y-11353870D02*
X15928290Y-11524050D01*
X15928290Y-13284270D02*
X16098470Y-13454450D01*
X16098470Y-13284270D02*
X15928290Y-13454450D01*
X15928290Y-15194350D02*
X16098470Y-15364530D01*
X16098470Y-15194350D02*
X15928290Y-15364530D01*
X16824910Y-17134910D02*
X16995090Y-17305090D01*
X16995090Y-17134910D02*
X16824910Y-17305090D01*
X16839663Y-9417139D02*
X17009843Y-9587319D01*
X17009843Y-9417139D02*
X16839663Y-9587319D01*
X16842690Y-11353870D02*
X17012870Y-11524050D01*
X17012870Y-11353870D02*
X16842690Y-11524050D01*
X16842690Y-13284270D02*
X17012870Y-13454450D01*
X17012870Y-13284270D02*
X16842690Y-13454450D01*
X16855877Y-15190521D02*
X17026057Y-15360701D01*
X17026057Y-15190521D02*
X16855877Y-15360701D01*
X17840910Y-17134910D02*
X18011090Y-17305090D01*
X18011090Y-17134910D02*
X17840910Y-17305090D01*
X17855663Y-9417139D02*
X18025843Y-9587319D01*
X18025843Y-9417139D02*
X17855663Y-9587319D01*
X17858690Y-11353870D02*
X18028870Y-11524050D01*
X18028870Y-11353870D02*
X17858690Y-11524050D01*
X17858690Y-13284270D02*
X18028870Y-13454450D01*
X18028870Y-13284270D02*
X17858690Y-13454450D01*
X17871877Y-15190521D02*
X18042057Y-15360701D01*
X18042057Y-15190521D02*
X17871877Y-15360701D01*
X18782763Y-9417139D02*
X18952943Y-9587319D01*
X18952943Y-9417139D02*
X18782763Y-9587319D01*
X18785790Y-11353870D02*
X18955970Y-11524050D01*
X18955970Y-11353870D02*
X18785790Y-11524050D01*
X18785790Y-13284270D02*
X18955970Y-13454450D01*
X18955970Y-13284270D02*
X18785790Y-13454450D01*
X18786277Y-15190521D02*
X18956457Y-15360701D01*
X18956457Y-15190521D02*
X18786277Y-15360701D01*
X19798763Y-9417139D02*
X19968943Y-9587319D01*
X19968943Y-9417139D02*
X19798763Y-9587319D01*
X19801790Y-11353870D02*
X19971970Y-11524050D01*
X19971970Y-11353870D02*
X19801790Y-11524050D01*
X19801790Y-13284270D02*
X19971970Y-13454450D01*
X19971970Y-13284270D02*
X19801790Y-13454450D01*
X19802277Y-15190521D02*
X19972457Y-15360701D01*
X19972457Y-15190521D02*
X19802277Y-15360701D01*
X20713163Y-9417139D02*
X20883343Y-9587319D01*
X20883343Y-9417139D02*
X20713163Y-9587319D01*
X20716190Y-11353870D02*
X20886370Y-11524050D01*
X20886370Y-11353870D02*
X20716190Y-11524050D01*
X20716190Y-13284270D02*
X20886370Y-13454450D01*
X20886370Y-13284270D02*
X20716190Y-13454450D01*
X20716677Y-15190521D02*
X20886857Y-15360701D01*
X20886857Y-15190521D02*
X20716677Y-15360701D01*
X21729163Y-9417139D02*
X21899343Y-9587319D01*
X21899343Y-9417139D02*
X21729163Y-9587319D01*
X21732190Y-11353870D02*
X21902370Y-11524050D01*
X21902370Y-11353870D02*
X21732190Y-11524050D01*
X21732190Y-13284270D02*
X21902370Y-13454450D01*
X21902370Y-13284270D02*
X21732190Y-13454450D01*
X21732677Y-15190521D02*
X21902857Y-15360701D01*
X21902857Y-15190521D02*
X21732677Y-15360701D01*
X22643563Y-9417139D02*
X22813743Y-9587319D01*
X22813743Y-9417139D02*
X22643563Y-9587319D01*
X22646590Y-11353870D02*
X22816770Y-11524050D01*
X22816770Y-11353870D02*
X22646590Y-11524050D01*
X22646590Y-13284270D02*
X22816770Y-13454450D01*
X22816770Y-13284270D02*
X22646590Y-13454450D01*
X22659777Y-15190521D02*
X22829957Y-15360701D01*
X22829957Y-15190521D02*
X22659777Y-15360701D01*
X22664370Y-17134910D02*
X22834550Y-17305090D01*
X22834550Y-17134910D02*
X22664370Y-17305090D01*
X23659563Y-9417139D02*
X23829743Y-9587319D01*
X23829743Y-9417139D02*
X23659563Y-9587319D01*
X23662590Y-11353870D02*
X23832770Y-11524050D01*
X23832770Y-11353870D02*
X23662590Y-11524050D01*
X23662590Y-13284270D02*
X23832770Y-13454450D01*
X23832770Y-13284270D02*
X23662590Y-13454450D01*
X23675777Y-15190521D02*
X23845957Y-15360701D01*
X23845957Y-15190521D02*
X23675777Y-15360701D01*
X23680370Y-17134910D02*
X23850550Y-17305090D01*
X23850550Y-17134910D02*
X23680370Y-17305090D01*
X24584610Y-17134910D02*
X24754790Y-17305090D01*
X24754790Y-17134910D02*
X24584610Y-17305090D01*
X24586663Y-9417139D02*
X24756843Y-9587319D01*
X24756843Y-9417139D02*
X24586663Y-9587319D01*
X24589690Y-11353870D02*
X24759870Y-11524050D01*
X24759870Y-11353870D02*
X24589690Y-11524050D01*
X24589690Y-13284270D02*
X24759870Y-13454450D01*
X24759870Y-13284270D02*
X24589690Y-13454450D01*
X24589690Y-15194350D02*
X24759870Y-15364530D01*
X24759870Y-15194350D02*
X24589690Y-15364530D01*
X25600610Y-17134910D02*
X25770790Y-17305090D01*
X25770790Y-17134910D02*
X25600610Y-17305090D01*
X25602663Y-9417139D02*
X25772843Y-9587319D01*
X25772843Y-9417139D02*
X25602663Y-9587319D01*
X25605690Y-11353870D02*
X25775870Y-11524050D01*
X25775870Y-11353870D02*
X25605690Y-11524050D01*
X25605690Y-13284270D02*
X25775870Y-13454450D01*
X25775870Y-13284270D02*
X25605690Y-13454450D01*
X25605690Y-15194350D02*
X25775870Y-15364530D01*
X25775870Y-15194350D02*
X25605690Y-15364530D01*
X26515010Y-17134910D02*
X26685190Y-17305090D01*
X26685190Y-17134910D02*
X26515010Y-17305090D01*
X26517063Y-9417139D02*
X26687243Y-9587319D01*
X26687243Y-9417139D02*
X26517063Y-9587319D01*
X26520090Y-11353870D02*
X26690270Y-11524050D01*
X26690270Y-11353870D02*
X26520090Y-11524050D01*
X26520090Y-13284270D02*
X26690270Y-13454450D01*
X26690270Y-13284270D02*
X26520090Y-13454450D01*
X26520090Y-15194350D02*
X26690270Y-15364530D01*
X26690270Y-15194350D02*
X26520090Y-15364530D01*
X27531010Y-17134910D02*
X27701190Y-17305090D01*
X27701190Y-17134910D02*
X27531010Y-17305090D01*
X27533063Y-9417139D02*
X27703243Y-9587319D01*
X27703243Y-9417139D02*
X27533063Y-9587319D01*
X27536090Y-11353870D02*
X27706270Y-11524050D01*
X27706270Y-11353870D02*
X27536090Y-11524050D01*
X27536090Y-13284270D02*
X27706270Y-13454450D01*
X27706270Y-13284270D02*
X27536090Y-13454450D01*
X27536090Y-15194350D02*
X27706270Y-15364530D01*
X27706270Y-15194350D02*
X27536090Y-15364530D01*
X29143910Y-17647990D02*
X29314090Y-17818170D01*
X29314090Y-17647990D02*
X29143910Y-17818170D01*
X30159910Y-17647990D02*
X30330090Y-17818170D01*
X30330090Y-17647990D02*
X30159910Y-17818170D01*
X31066690Y-17647990D02*
X31236870Y-17818170D01*
X31236870Y-17647990D02*
X31066690Y-17818170D01*
X32082690Y-17647990D02*
X32252870Y-17818170D01*
X32252870Y-17647990D02*
X32082690Y-17818170D01*
X32997090Y-17647990D02*
X33167270Y-17818170D01*
X33167270Y-17647990D02*
X32997090Y-17818170D01*
X34013090Y-17647990D02*
X34183270Y-17818170D01*
X34183270Y-17647990D02*
X34013090Y-17818170D01*
X34927490Y-17647990D02*
X35097670Y-17818170D01*
X35097670Y-17647990D02*
X34927490Y-17818170D01*
X35943490Y-17647990D02*
X36113670Y-17818170D01*
X36113670Y-17647990D02*
X35943490Y-17818170D01*
D13*
X15011347Y-17936453D02*
G75*
G03*
X15011347Y-17936453I-110000J0D01*
G01*
X19895767Y-17933913D02*
G75*
G03*
X19895767Y-17933913I-110000J0D01*
G01*
X29275000Y-13425000D02*
G75*
G03*
X29275000Y-13425000I-110000J0D01*
G01*
D14*
X7385000Y-16816000D02*
X7385000Y-17116000D01*
X7235000Y-16966000D02*
X7535000Y-16966000D01*
X7387053Y-9098229D02*
X7387053Y-9398229D01*
X7237053Y-9248229D02*
X7537053Y-9248229D01*
X7390080Y-11034960D02*
X7390080Y-11334960D01*
X7240080Y-11184960D02*
X7540080Y-11184960D01*
X7390080Y-12965360D02*
X7390080Y-13265360D01*
X7240080Y-13115360D02*
X7540080Y-13115360D01*
X7390080Y-14875440D02*
X7390080Y-15175440D01*
X7240080Y-15025440D02*
X7540080Y-15025440D01*
X8020000Y-16562000D02*
X8020000Y-16862000D01*
X7870000Y-16712000D02*
X8170000Y-16712000D01*
X8022053Y-8844229D02*
X8022053Y-9144229D01*
X7872053Y-8994229D02*
X8172053Y-8994229D01*
X8025080Y-10780960D02*
X8025080Y-11080960D01*
X7875080Y-10930960D02*
X8175080Y-10930960D01*
X8025080Y-12711360D02*
X8025080Y-13011360D01*
X7875080Y-12861360D02*
X8175080Y-12861360D01*
X8025080Y-14621440D02*
X8025080Y-14921440D01*
X7875080Y-14771440D02*
X8175080Y-14771440D01*
X9315400Y-16816000D02*
X9315400Y-17116000D01*
X9165400Y-16966000D02*
X9465400Y-16966000D01*
X9317453Y-9098229D02*
X9317453Y-9398229D01*
X9167453Y-9248229D02*
X9467453Y-9248229D01*
X9320480Y-11034960D02*
X9320480Y-11334960D01*
X9170480Y-11184960D02*
X9470480Y-11184960D01*
X9320480Y-12965360D02*
X9320480Y-13265360D01*
X9170480Y-13115360D02*
X9470480Y-13115360D01*
X9320480Y-14875440D02*
X9320480Y-15175440D01*
X9170480Y-15025440D02*
X9470480Y-15025440D01*
X9950400Y-16562000D02*
X9950400Y-16862000D01*
X9800400Y-16712000D02*
X10100400Y-16712000D01*
X9952453Y-8844229D02*
X9952453Y-9144229D01*
X9802453Y-8994229D02*
X10102453Y-8994229D01*
X9955480Y-10780960D02*
X9955480Y-11080960D01*
X9805480Y-10930960D02*
X10105480Y-10930960D01*
X9955480Y-12711360D02*
X9955480Y-13011360D01*
X9805480Y-12861360D02*
X10105480Y-12861360D01*
X9955480Y-14621440D02*
X9955480Y-14921440D01*
X9805480Y-14771440D02*
X10105480Y-14771440D01*
X11245800Y-16816000D02*
X11245800Y-17116000D01*
X11095800Y-16966000D02*
X11395800Y-16966000D01*
X11247853Y-9098229D02*
X11247853Y-9398229D01*
X11097853Y-9248229D02*
X11397853Y-9248229D01*
X11250880Y-11034960D02*
X11250880Y-11334960D01*
X11100880Y-11184960D02*
X11400880Y-11184960D01*
X11250880Y-12965360D02*
X11250880Y-13265360D01*
X11100880Y-13115360D02*
X11400880Y-13115360D01*
X11250880Y-14875440D02*
X11250880Y-15175440D01*
X11100880Y-15025440D02*
X11400880Y-15025440D01*
X11880800Y-16562000D02*
X11880800Y-16862000D01*
X11730800Y-16712000D02*
X12030800Y-16712000D01*
X11882853Y-8844229D02*
X11882853Y-9144229D01*
X11732853Y-8994229D02*
X12032853Y-8994229D01*
X11885880Y-10780960D02*
X11885880Y-11080960D01*
X11735880Y-10930960D02*
X12035880Y-10930960D01*
X11885880Y-12711360D02*
X11885880Y-13011360D01*
X11735880Y-12861360D02*
X12035880Y-12861360D01*
X11885880Y-14621440D02*
X11885880Y-14921440D01*
X11735880Y-14771440D02*
X12035880Y-14771440D01*
X13190953Y-9098229D02*
X13190953Y-9398229D01*
X13040953Y-9248229D02*
X13340953Y-9248229D01*
X13193980Y-11034960D02*
X13193980Y-11334960D01*
X13043980Y-11184960D02*
X13343980Y-11184960D01*
X13193980Y-12965360D02*
X13193980Y-13265360D01*
X13043980Y-13115360D02*
X13343980Y-13115360D01*
X13193980Y-14875440D02*
X13193980Y-15175440D01*
X13043980Y-15025440D02*
X13343980Y-15025440D01*
X13825953Y-8844229D02*
X13825953Y-9144229D01*
X13675953Y-8994229D02*
X13975953Y-8994229D01*
X13828980Y-10780960D02*
X13828980Y-11080960D01*
X13678980Y-10930960D02*
X13978980Y-10930960D01*
X13828980Y-12711360D02*
X13828980Y-13011360D01*
X13678980Y-12861360D02*
X13978980Y-12861360D01*
X13828980Y-14621440D02*
X13828980Y-14921440D01*
X13678980Y-14771440D02*
X13978980Y-14771440D01*
X15121353Y-9098229D02*
X15121353Y-9398229D01*
X14971353Y-9248229D02*
X15271353Y-9248229D01*
X15124380Y-11034960D02*
X15124380Y-11334960D01*
X14974380Y-11184960D02*
X15274380Y-11184960D01*
X15124380Y-12965360D02*
X15124380Y-13265360D01*
X14974380Y-13115360D02*
X15274380Y-13115360D01*
X15124380Y-14875440D02*
X15124380Y-15175440D01*
X14974380Y-15025440D02*
X15274380Y-15025440D01*
X15756353Y-8844229D02*
X15756353Y-9144229D01*
X15606353Y-8994229D02*
X15906353Y-8994229D01*
X15759380Y-10780960D02*
X15759380Y-11080960D01*
X15609380Y-10930960D02*
X15909380Y-10930960D01*
X15759380Y-12711360D02*
X15759380Y-13011360D01*
X15609380Y-12861360D02*
X15909380Y-12861360D01*
X15759380Y-14621440D02*
X15759380Y-14921440D01*
X15609380Y-14771440D02*
X15909380Y-14771440D01*
X17037000Y-16816000D02*
X17037000Y-17116000D01*
X16887000Y-16966000D02*
X17187000Y-16966000D01*
X17051753Y-9098229D02*
X17051753Y-9398229D01*
X16901753Y-9248229D02*
X17201753Y-9248229D01*
X17054780Y-11034960D02*
X17054780Y-11334960D01*
X16904780Y-11184960D02*
X17204780Y-11184960D01*
X17054780Y-12965360D02*
X17054780Y-13265360D01*
X16904780Y-13115360D02*
X17204780Y-13115360D01*
X17067967Y-14871611D02*
X17067967Y-15171611D01*
X16917967Y-15021611D02*
X17217967Y-15021611D01*
X17672000Y-16562000D02*
X17672000Y-16862000D01*
X17522000Y-16712000D02*
X17822000Y-16712000D01*
X17686753Y-8844229D02*
X17686753Y-9144229D01*
X17536753Y-8994229D02*
X17836753Y-8994229D01*
X17689780Y-10780960D02*
X17689780Y-11080960D01*
X17539780Y-10930960D02*
X17839780Y-10930960D01*
X17689780Y-12711360D02*
X17689780Y-13011360D01*
X17539780Y-12861360D02*
X17839780Y-12861360D01*
X17702967Y-14617611D02*
X17702967Y-14917611D01*
X17552967Y-14767611D02*
X17852967Y-14767611D01*
X18994853Y-9098229D02*
X18994853Y-9398229D01*
X18844853Y-9248229D02*
X19144853Y-9248229D01*
X18997880Y-11034960D02*
X18997880Y-11334960D01*
X18847880Y-11184960D02*
X19147880Y-11184960D01*
X18997880Y-12965360D02*
X18997880Y-13265360D01*
X18847880Y-13115360D02*
X19147880Y-13115360D01*
X18998367Y-14871611D02*
X18998367Y-15171611D01*
X18848367Y-15021611D02*
X19148367Y-15021611D01*
X19629853Y-8844229D02*
X19629853Y-9144229D01*
X19479853Y-8994229D02*
X19779853Y-8994229D01*
X19632880Y-10780960D02*
X19632880Y-11080960D01*
X19482880Y-10930960D02*
X19782880Y-10930960D01*
X19632880Y-12711360D02*
X19632880Y-13011360D01*
X19482880Y-12861360D02*
X19782880Y-12861360D01*
X19633367Y-14617611D02*
X19633367Y-14917611D01*
X19483367Y-14767611D02*
X19783367Y-14767611D01*
X20925253Y-9098229D02*
X20925253Y-9398229D01*
X20775253Y-9248229D02*
X21075253Y-9248229D01*
X20928280Y-11034960D02*
X20928280Y-11334960D01*
X20778280Y-11184960D02*
X21078280Y-11184960D01*
X20928280Y-12965360D02*
X20928280Y-13265360D01*
X20778280Y-13115360D02*
X21078280Y-13115360D01*
X20928767Y-14871611D02*
X20928767Y-15171611D01*
X20778767Y-15021611D02*
X21078767Y-15021611D01*
X21560253Y-8844229D02*
X21560253Y-9144229D01*
X21410253Y-8994229D02*
X21710253Y-8994229D01*
X21563280Y-10780960D02*
X21563280Y-11080960D01*
X21413280Y-10930960D02*
X21713280Y-10930960D01*
X21563280Y-12711360D02*
X21563280Y-13011360D01*
X21413280Y-12861360D02*
X21713280Y-12861360D01*
X21563767Y-14617611D02*
X21563767Y-14917611D01*
X21413767Y-14767611D02*
X21713767Y-14767611D01*
X22855653Y-9098229D02*
X22855653Y-9398229D01*
X22705653Y-9248229D02*
X23005653Y-9248229D01*
X22858680Y-11034960D02*
X22858680Y-11334960D01*
X22708680Y-11184960D02*
X23008680Y-11184960D01*
X22858680Y-12965360D02*
X22858680Y-13265360D01*
X22708680Y-13115360D02*
X23008680Y-13115360D01*
X22871867Y-14871611D02*
X22871867Y-15171611D01*
X22721867Y-15021611D02*
X23021867Y-15021611D01*
X22876460Y-16816000D02*
X22876460Y-17116000D01*
X22726460Y-16966000D02*
X23026460Y-16966000D01*
X23490653Y-8844229D02*
X23490653Y-9144229D01*
X23340653Y-8994229D02*
X23640653Y-8994229D01*
X23493680Y-10780960D02*
X23493680Y-11080960D01*
X23343680Y-10930960D02*
X23643680Y-10930960D01*
X23493680Y-12711360D02*
X23493680Y-13011360D01*
X23343680Y-12861360D02*
X23643680Y-12861360D01*
X23506867Y-14617611D02*
X23506867Y-14917611D01*
X23356867Y-14767611D02*
X23656867Y-14767611D01*
X23511460Y-16562000D02*
X23511460Y-16862000D01*
X23361460Y-16712000D02*
X23661460Y-16712000D01*
X24796700Y-16816000D02*
X24796700Y-17116000D01*
X24646700Y-16966000D02*
X24946700Y-16966000D01*
X24798753Y-9098229D02*
X24798753Y-9398229D01*
X24648753Y-9248229D02*
X24948753Y-9248229D01*
X24801780Y-11034960D02*
X24801780Y-11334960D01*
X24651780Y-11184960D02*
X24951780Y-11184960D01*
X24801780Y-12965360D02*
X24801780Y-13265360D01*
X24651780Y-13115360D02*
X24951780Y-13115360D01*
X24801780Y-14875440D02*
X24801780Y-15175440D01*
X24651780Y-15025440D02*
X24951780Y-15025440D01*
X25431700Y-16562000D02*
X25431700Y-16862000D01*
X25281700Y-16712000D02*
X25581700Y-16712000D01*
X25433753Y-8844229D02*
X25433753Y-9144229D01*
X25283753Y-8994229D02*
X25583753Y-8994229D01*
X25436780Y-10780960D02*
X25436780Y-11080960D01*
X25286780Y-10930960D02*
X25586780Y-10930960D01*
X25436780Y-12711360D02*
X25436780Y-13011360D01*
X25286780Y-12861360D02*
X25586780Y-12861360D01*
X25436780Y-14621440D02*
X25436780Y-14921440D01*
X25286780Y-14771440D02*
X25586780Y-14771440D01*
X26727100Y-16816000D02*
X26727100Y-17116000D01*
X26577100Y-16966000D02*
X26877100Y-16966000D01*
X26729153Y-9098229D02*
X26729153Y-9398229D01*
X26579153Y-9248229D02*
X26879153Y-9248229D01*
X26732180Y-11034960D02*
X26732180Y-11334960D01*
X26582180Y-11184960D02*
X26882180Y-11184960D01*
X26732180Y-12965360D02*
X26732180Y-13265360D01*
X26582180Y-13115360D02*
X26882180Y-13115360D01*
X26732180Y-14875440D02*
X26732180Y-15175440D01*
X26582180Y-15025440D02*
X26882180Y-15025440D01*
X27362100Y-16562000D02*
X27362100Y-16862000D01*
X27212100Y-16712000D02*
X27512100Y-16712000D01*
X27364153Y-8844229D02*
X27364153Y-9144229D01*
X27214153Y-8994229D02*
X27514153Y-8994229D01*
X27367180Y-10780960D02*
X27367180Y-11080960D01*
X27217180Y-10930960D02*
X27517180Y-10930960D01*
X27367180Y-12711360D02*
X27367180Y-13011360D01*
X27217180Y-12861360D02*
X27517180Y-12861360D01*
X27367180Y-14621440D02*
X27367180Y-14921440D01*
X27217180Y-14771440D02*
X27517180Y-14771440D01*
X29356000Y-17329080D02*
X29356000Y-17629080D01*
X29206000Y-17479080D02*
X29506000Y-17479080D01*
X29991000Y-17075080D02*
X29991000Y-17375080D01*
X29841000Y-17225080D02*
X30141000Y-17225080D01*
X31278780Y-17329080D02*
X31278780Y-17629080D01*
X31128780Y-17479080D02*
X31428780Y-17479080D01*
X31913780Y-17075080D02*
X31913780Y-17375080D01*
X31763780Y-17225080D02*
X32063780Y-17225080D01*
X33209180Y-17329080D02*
X33209180Y-17629080D01*
X33059180Y-17479080D02*
X33359180Y-17479080D01*
X33844180Y-17075080D02*
X33844180Y-17375080D01*
X33694180Y-17225080D02*
X33994180Y-17225080D01*
X35139580Y-17329080D02*
X35139580Y-17629080D01*
X34989580Y-17479080D02*
X35289580Y-17479080D01*
X35774580Y-17075080D02*
X35774580Y-17375080D01*
X35624580Y-17225080D02*
X35924580Y-17225080D01*
D15*
X16335764Y-16629264D02*
X16335764Y-16413736D01*
X16120236Y-16413736D01*
X16120236Y-16629264D01*
X16335764Y-16629264D01*
X18715764Y-16629264D02*
X18715764Y-16413736D01*
X18500236Y-16413736D01*
X18500236Y-16629264D01*
X18715764Y-16629264D01*
D16*
X6457708Y-13611023D02*
X6617708Y-13451023D01*
X6457708Y-13291023D01*
X6297708Y-13451023D01*
X6457708Y-13611023D01*
X6503428Y-8307503D02*
X6663428Y-8147503D01*
X6503428Y-7987503D01*
X6343428Y-8147503D01*
X6503428Y-8307503D01*
X6538988Y-18447183D02*
X6698988Y-18287183D01*
X6538988Y-18127183D01*
X6378988Y-18287183D01*
X6538988Y-18447183D01*
X37105348Y-8277023D02*
X37265348Y-8117023D01*
X37105348Y-7957023D01*
X36945348Y-8117023D01*
X37105348Y-8277023D01*
X37120588Y-18548783D02*
X37280588Y-18388783D01*
X37120588Y-18228783D01*
X36960588Y-18388783D01*
X37120588Y-18548783D01*
X37125668Y-13682143D02*
X37285668Y-13522143D01*
X37125668Y-13362143D01*
X36965668Y-13522143D01*
X37125668Y-13682143D01*
D17*
X7566610Y-17020610D02*
X7965390Y-17419390D01*
X7965390Y-17020610D02*
X7566610Y-17419390D01*
X7965390Y-17220000D02*
G75*
G03*
X7965390Y-17220000I-199390J0D01*
G01*
X7568663Y-9302839D02*
X7967443Y-9701619D01*
X7967443Y-9302839D02*
X7568663Y-9701619D01*
X7967443Y-9502229D02*
G75*
G03*
X7967443Y-9502229I-199390J0D01*
G01*
X7571690Y-11239570D02*
X7970470Y-11638350D01*
X7970470Y-11239570D02*
X7571690Y-11638350D01*
X7970470Y-11438960D02*
G75*
G03*
X7970470Y-11438960I-199390J0D01*
G01*
X7571690Y-13169970D02*
X7970470Y-13568750D01*
X7970470Y-13169970D02*
X7571690Y-13568750D01*
X7970470Y-13369360D02*
G75*
G03*
X7970470Y-13369360I-199390J0D01*
G01*
X7571690Y-15080050D02*
X7970470Y-15478830D01*
X7970470Y-15080050D02*
X7571690Y-15478830D01*
X7970470Y-15279440D02*
G75*
G03*
X7970470Y-15279440I-199390J0D01*
G01*
X9497010Y-17020610D02*
X9895790Y-17419390D01*
X9895790Y-17020610D02*
X9497010Y-17419390D01*
X9895790Y-17220000D02*
G75*
G03*
X9895790Y-17220000I-199390J0D01*
G01*
X9499063Y-9302839D02*
X9897843Y-9701619D01*
X9897843Y-9302839D02*
X9499063Y-9701619D01*
X9897843Y-9502229D02*
G75*
G03*
X9897843Y-9502229I-199390J0D01*
G01*
X9502090Y-11239570D02*
X9900870Y-11638350D01*
X9900870Y-11239570D02*
X9502090Y-11638350D01*
X9900870Y-11438960D02*
G75*
G03*
X9900870Y-11438960I-199390J0D01*
G01*
X9502090Y-13169970D02*
X9900870Y-13568750D01*
X9900870Y-13169970D02*
X9502090Y-13568750D01*
X9900870Y-13369360D02*
G75*
G03*
X9900870Y-13369360I-199390J0D01*
G01*
X9502090Y-15080050D02*
X9900870Y-15478830D01*
X9900870Y-15080050D02*
X9502090Y-15478830D01*
X9900870Y-15279440D02*
G75*
G03*
X9900870Y-15279440I-199390J0D01*
G01*
X11427410Y-17020610D02*
X11826190Y-17419390D01*
X11826190Y-17020610D02*
X11427410Y-17419390D01*
X11826190Y-17220000D02*
G75*
G03*
X11826190Y-17220000I-199390J0D01*
G01*
X11429463Y-9302839D02*
X11828243Y-9701619D01*
X11828243Y-9302839D02*
X11429463Y-9701619D01*
X11828243Y-9502229D02*
G75*
G03*
X11828243Y-9502229I-199390J0D01*
G01*
X11432490Y-11239570D02*
X11831270Y-11638350D01*
X11831270Y-11239570D02*
X11432490Y-11638350D01*
X11831270Y-11438960D02*
G75*
G03*
X11831270Y-11438960I-199390J0D01*
G01*
X11432490Y-13169970D02*
X11831270Y-13568750D01*
X11831270Y-13169970D02*
X11432490Y-13568750D01*
X11831270Y-13369360D02*
G75*
G03*
X11831270Y-13369360I-199390J0D01*
G01*
X11432490Y-15080050D02*
X11831270Y-15478830D01*
X11831270Y-15080050D02*
X11432490Y-15478830D01*
X11831270Y-15279440D02*
G75*
G03*
X11831270Y-15279440I-199390J0D01*
G01*
X13372563Y-9302839D02*
X13771343Y-9701619D01*
X13771343Y-9302839D02*
X13372563Y-9701619D01*
X13771343Y-9502229D02*
G75*
G03*
X13771343Y-9502229I-199390J0D01*
G01*
X13375590Y-11239570D02*
X13774370Y-11638350D01*
X13774370Y-11239570D02*
X13375590Y-11638350D01*
X13774370Y-11438960D02*
G75*
G03*
X13774370Y-11438960I-199390J0D01*
G01*
X13375590Y-13169970D02*
X13774370Y-13568750D01*
X13774370Y-13169970D02*
X13375590Y-13568750D01*
X13774370Y-13369360D02*
G75*
G03*
X13774370Y-13369360I-199390J0D01*
G01*
X13375590Y-15080050D02*
X13774370Y-15478830D01*
X13774370Y-15080050D02*
X13375590Y-15478830D01*
X13774370Y-15279440D02*
G75*
G03*
X13774370Y-15279440I-199390J0D01*
G01*
X15302963Y-9302839D02*
X15701743Y-9701619D01*
X15701743Y-9302839D02*
X15302963Y-9701619D01*
X15701743Y-9502229D02*
G75*
G03*
X15701743Y-9502229I-199390J0D01*
G01*
X15305990Y-11239570D02*
X15704770Y-11638350D01*
X15704770Y-11239570D02*
X15305990Y-11638350D01*
X15704770Y-11438960D02*
G75*
G03*
X15704770Y-11438960I-199390J0D01*
G01*
X15305990Y-13169970D02*
X15704770Y-13568750D01*
X15704770Y-13169970D02*
X15305990Y-13568750D01*
X15704770Y-13369360D02*
G75*
G03*
X15704770Y-13369360I-199390J0D01*
G01*
X15305990Y-15080050D02*
X15704770Y-15478830D01*
X15704770Y-15080050D02*
X15305990Y-15478830D01*
X15704770Y-15279440D02*
G75*
G03*
X15704770Y-15279440I-199390J0D01*
G01*
X16028610Y-17846110D02*
X16427390Y-18244890D01*
X16427390Y-17846110D02*
X16028610Y-18244890D01*
X16427390Y-18045500D02*
G75*
G03*
X16427390Y-18045500I-199390J0D01*
G01*
X17218610Y-17020610D02*
X17617390Y-17419390D01*
X17617390Y-17020610D02*
X17218610Y-17419390D01*
X17617390Y-17220000D02*
G75*
G03*
X17617390Y-17220000I-199390J0D01*
G01*
X17233363Y-9302839D02*
X17632143Y-9701619D01*
X17632143Y-9302839D02*
X17233363Y-9701619D01*
X17632143Y-9502229D02*
G75*
G03*
X17632143Y-9502229I-199390J0D01*
G01*
X17236390Y-11239570D02*
X17635170Y-11638350D01*
X17635170Y-11239570D02*
X17236390Y-11638350D01*
X17635170Y-11438960D02*
G75*
G03*
X17635170Y-11438960I-199390J0D01*
G01*
X17236390Y-13169970D02*
X17635170Y-13568750D01*
X17635170Y-13169970D02*
X17236390Y-13568750D01*
X17635170Y-13369360D02*
G75*
G03*
X17635170Y-13369360I-199390J0D01*
G01*
X17249577Y-15076221D02*
X17648357Y-15475001D01*
X17648357Y-15076221D02*
X17249577Y-15475001D01*
X17648357Y-15275611D02*
G75*
G03*
X17648357Y-15275611I-199390J0D01*
G01*
X18408610Y-17846110D02*
X18807390Y-18244890D01*
X18807390Y-17846110D02*
X18408610Y-18244890D01*
X18807390Y-18045500D02*
G75*
G03*
X18807390Y-18045500I-199390J0D01*
G01*
X19176463Y-9302839D02*
X19575243Y-9701619D01*
X19575243Y-9302839D02*
X19176463Y-9701619D01*
X19575243Y-9502229D02*
G75*
G03*
X19575243Y-9502229I-199390J0D01*
G01*
X19179490Y-11239570D02*
X19578270Y-11638350D01*
X19578270Y-11239570D02*
X19179490Y-11638350D01*
X19578270Y-11438960D02*
G75*
G03*
X19578270Y-11438960I-199390J0D01*
G01*
X19179490Y-13169970D02*
X19578270Y-13568750D01*
X19578270Y-13169970D02*
X19179490Y-13568750D01*
X19578270Y-13369360D02*
G75*
G03*
X19578270Y-13369360I-199390J0D01*
G01*
X19179977Y-15076221D02*
X19578757Y-15475001D01*
X19578757Y-15076221D02*
X19179977Y-15475001D01*
X19578757Y-15275611D02*
G75*
G03*
X19578757Y-15275611I-199390J0D01*
G01*
X21106863Y-9302839D02*
X21505643Y-9701619D01*
X21505643Y-9302839D02*
X21106863Y-9701619D01*
X21505643Y-9502229D02*
G75*
G03*
X21505643Y-9502229I-199390J0D01*
G01*
X21109890Y-11239570D02*
X21508670Y-11638350D01*
X21508670Y-11239570D02*
X21109890Y-11638350D01*
X21508670Y-11438960D02*
G75*
G03*
X21508670Y-11438960I-199390J0D01*
G01*
X21109890Y-13169970D02*
X21508670Y-13568750D01*
X21508670Y-13169970D02*
X21109890Y-13568750D01*
X21508670Y-13369360D02*
G75*
G03*
X21508670Y-13369360I-199390J0D01*
G01*
X21110377Y-15076221D02*
X21509157Y-15475001D01*
X21509157Y-15076221D02*
X21110377Y-15475001D01*
X21509157Y-15275611D02*
G75*
G03*
X21509157Y-15275611I-199390J0D01*
G01*
X23037263Y-9302839D02*
X23436043Y-9701619D01*
X23436043Y-9302839D02*
X23037263Y-9701619D01*
X23436043Y-9502229D02*
G75*
G03*
X23436043Y-9502229I-199390J0D01*
G01*
X23040290Y-11239570D02*
X23439070Y-11638350D01*
X23439070Y-11239570D02*
X23040290Y-11638350D01*
X23439070Y-11438960D02*
G75*
G03*
X23439070Y-11438960I-199390J0D01*
G01*
X23040290Y-13169970D02*
X23439070Y-13568750D01*
X23439070Y-13169970D02*
X23040290Y-13568750D01*
X23439070Y-13369360D02*
G75*
G03*
X23439070Y-13369360I-199390J0D01*
G01*
X23053477Y-15076221D02*
X23452257Y-15475001D01*
X23452257Y-15076221D02*
X23053477Y-15475001D01*
X23452257Y-15275611D02*
G75*
G03*
X23452257Y-15275611I-199390J0D01*
G01*
X23058070Y-17020610D02*
X23456850Y-17419390D01*
X23456850Y-17020610D02*
X23058070Y-17419390D01*
X23456850Y-17220000D02*
G75*
G03*
X23456850Y-17220000I-199390J0D01*
G01*
X24978310Y-17020610D02*
X25377090Y-17419390D01*
X25377090Y-17020610D02*
X24978310Y-17419390D01*
X25377090Y-17220000D02*
G75*
G03*
X25377090Y-17220000I-199390J0D01*
G01*
X24980363Y-9302839D02*
X25379143Y-9701619D01*
X25379143Y-9302839D02*
X24980363Y-9701619D01*
X25379143Y-9502229D02*
G75*
G03*
X25379143Y-9502229I-199390J0D01*
G01*
X24983390Y-11239570D02*
X25382170Y-11638350D01*
X25382170Y-11239570D02*
X24983390Y-11638350D01*
X25382170Y-11438960D02*
G75*
G03*
X25382170Y-11438960I-199390J0D01*
G01*
X24983390Y-13169970D02*
X25382170Y-13568750D01*
X25382170Y-13169970D02*
X24983390Y-13568750D01*
X25382170Y-13369360D02*
G75*
G03*
X25382170Y-13369360I-199390J0D01*
G01*
X24983390Y-15080050D02*
X25382170Y-15478830D01*
X25382170Y-15080050D02*
X24983390Y-15478830D01*
X25382170Y-15279440D02*
G75*
G03*
X25382170Y-15279440I-199390J0D01*
G01*
X26908710Y-17020610D02*
X27307490Y-17419390D01*
X27307490Y-17020610D02*
X26908710Y-17419390D01*
X27307490Y-17220000D02*
G75*
G03*
X27307490Y-17220000I-199390J0D01*
G01*
X26910763Y-9302839D02*
X27309543Y-9701619D01*
X27309543Y-9302839D02*
X26910763Y-9701619D01*
X27309543Y-9502229D02*
G75*
G03*
X27309543Y-9502229I-199390J0D01*
G01*
X26913790Y-11239570D02*
X27312570Y-11638350D01*
X27312570Y-11239570D02*
X26913790Y-11638350D01*
X27312570Y-11438960D02*
G75*
G03*
X27312570Y-11438960I-199390J0D01*
G01*
X26913790Y-13169970D02*
X27312570Y-13568750D01*
X27312570Y-13169970D02*
X26913790Y-13568750D01*
X27312570Y-13369360D02*
G75*
G03*
X27312570Y-13369360I-199390J0D01*
G01*
X26913790Y-15080050D02*
X27312570Y-15478830D01*
X27312570Y-15080050D02*
X26913790Y-15478830D01*
X27312570Y-15279440D02*
G75*
G03*
X27312570Y-15279440I-199390J0D01*
G01*
X29537610Y-17533690D02*
X29936390Y-17932470D01*
X29936390Y-17533690D02*
X29537610Y-17932470D01*
X29936390Y-17733080D02*
G75*
G03*
X29936390Y-17733080I-199390J0D01*
G01*
X31460390Y-17533690D02*
X31859170Y-17932470D01*
X31859170Y-17533690D02*
X31460390Y-17932470D01*
X31859170Y-17733080D02*
G75*
G03*
X31859170Y-17733080I-199390J0D01*
G01*
X33390790Y-17533690D02*
X33789570Y-17932470D01*
X33789570Y-17533690D02*
X33390790Y-17932470D01*
X33789570Y-17733080D02*
G75*
G03*
X33789570Y-17733080I-199390J0D01*
G01*
X35321190Y-17533690D02*
X35719970Y-17932470D01*
X35719970Y-17533690D02*
X35321190Y-17932470D01*
X35719970Y-17733080D02*
G75*
G03*
X35719970Y-17733080I-199390J0D01*
G01*
D11*
X6352187Y-19133520D02*
X6352187Y-18933520D01*
X6399806Y-18933520D01*
X6428378Y-18943043D01*
X6447425Y-18962091D01*
X6456949Y-18981139D01*
X6466473Y-19019234D01*
X6466473Y-19047805D01*
X6456949Y-19085901D01*
X6447425Y-19104948D01*
X6428378Y-19123996D01*
X6399806Y-19133520D01*
X6352187Y-19133520D01*
X6552187Y-19133520D02*
X6552187Y-19000186D01*
X6552187Y-19038281D02*
X6561711Y-19019234D01*
X6571235Y-19009710D01*
X6590282Y-19000186D01*
X6609330Y-19000186D01*
X6675997Y-19133520D02*
X6675997Y-19000186D01*
X6675997Y-18933520D02*
X6666473Y-18943043D01*
X6675997Y-18952567D01*
X6685521Y-18943043D01*
X6675997Y-18933520D01*
X6675997Y-18952567D01*
X6799806Y-19133520D02*
X6780759Y-19123996D01*
X6771235Y-19104948D01*
X6771235Y-18933520D01*
X6904568Y-19133520D02*
X6885521Y-19123996D01*
X6875997Y-19104948D01*
X6875997Y-18933520D01*
X7133140Y-19133520D02*
X7133140Y-18933520D01*
X7199806Y-19076377D01*
X7266473Y-18933520D01*
X7266473Y-19133520D01*
X7447425Y-19133520D02*
X7447425Y-19028758D01*
X7437902Y-19009710D01*
X7418854Y-19000186D01*
X7380759Y-19000186D01*
X7361711Y-19009710D01*
X7447425Y-19123996D02*
X7428378Y-19133520D01*
X7380759Y-19133520D01*
X7361711Y-19123996D01*
X7352187Y-19104948D01*
X7352187Y-19085901D01*
X7361711Y-19066853D01*
X7380759Y-19057329D01*
X7428378Y-19057329D01*
X7447425Y-19047805D01*
X7542663Y-19000186D02*
X7542663Y-19200186D01*
X7542663Y-19009710D02*
X7561711Y-19000186D01*
X7599806Y-19000186D01*
X7618854Y-19009710D01*
X7628378Y-19019234D01*
X7637902Y-19038281D01*
X7637902Y-19095424D01*
X7628378Y-19114472D01*
X7618854Y-19123996D01*
X7599806Y-19133520D01*
X7561711Y-19133520D01*
X7542663Y-19123996D01*
X7723616Y-19114472D02*
X7733140Y-19123996D01*
X7723616Y-19133520D01*
X7714092Y-19123996D01*
X7723616Y-19114472D01*
X7723616Y-19133520D01*
X7723616Y-19009710D02*
X7733140Y-19019234D01*
X7723616Y-19028758D01*
X7714092Y-19019234D01*
X7723616Y-19009710D01*
X7723616Y-19028758D01*
D12*
X5924388Y-19377953D02*
X6094568Y-19548133D01*
X6094568Y-19377953D02*
X5924388Y-19548133D01*
D11*
X6456949Y-19553520D02*
X6342663Y-19553520D01*
X6399806Y-19553520D02*
X6399806Y-19353520D01*
X6380759Y-19382091D01*
X6361711Y-19401139D01*
X6342663Y-19410662D01*
X6542663Y-19534472D02*
X6552187Y-19543996D01*
X6542663Y-19553520D01*
X6533140Y-19543996D01*
X6542663Y-19534472D01*
X6542663Y-19553520D01*
X6618854Y-19353520D02*
X6752187Y-19353520D01*
X6666473Y-19553520D01*
X6866473Y-19353520D02*
X6885521Y-19353520D01*
X6904568Y-19363043D01*
X6914092Y-19372567D01*
X6923616Y-19391615D01*
X6933140Y-19429710D01*
X6933140Y-19477329D01*
X6923616Y-19515424D01*
X6914092Y-19534472D01*
X6904568Y-19543996D01*
X6885521Y-19553520D01*
X6866473Y-19553520D01*
X6847425Y-19543996D01*
X6837902Y-19534472D01*
X6828378Y-19515424D01*
X6818854Y-19477329D01*
X6818854Y-19429710D01*
X6828378Y-19391615D01*
X6837902Y-19372567D01*
X6847425Y-19363043D01*
X6866473Y-19353520D01*
X7009330Y-19372567D02*
X7018854Y-19363043D01*
X7037902Y-19353520D01*
X7085521Y-19353520D01*
X7104568Y-19363043D01*
X7114092Y-19372567D01*
X7123616Y-19391615D01*
X7123616Y-19410662D01*
X7114092Y-19439234D01*
X6999806Y-19553520D01*
X7123616Y-19553520D01*
X7209330Y-19553520D02*
X7209330Y-19420186D01*
X7209330Y-19439234D02*
X7218854Y-19429710D01*
X7237902Y-19420186D01*
X7266473Y-19420186D01*
X7285521Y-19429710D01*
X7295044Y-19448758D01*
X7295044Y-19553520D01*
X7295044Y-19448758D02*
X7304568Y-19429710D01*
X7323616Y-19420186D01*
X7352187Y-19420186D01*
X7371235Y-19429710D01*
X7380759Y-19448758D01*
X7380759Y-19553520D01*
X7475997Y-19553520D02*
X7475997Y-19420186D01*
X7475997Y-19439234D02*
X7485521Y-19429710D01*
X7504568Y-19420186D01*
X7533140Y-19420186D01*
X7552187Y-19429710D01*
X7561711Y-19448758D01*
X7561711Y-19553520D01*
X7561711Y-19448758D02*
X7571235Y-19429710D01*
X7590282Y-19420186D01*
X7618854Y-19420186D01*
X7637902Y-19429710D01*
X7647425Y-19448758D01*
X7647425Y-19553520D01*
X8037902Y-19343996D02*
X7866473Y-19601139D01*
X8295044Y-19353520D02*
X8314092Y-19353520D01*
X8333140Y-19363043D01*
X8342663Y-19372567D01*
X8352187Y-19391615D01*
X8361711Y-19429710D01*
X8361711Y-19477329D01*
X8352187Y-19515424D01*
X8342663Y-19534472D01*
X8333140Y-19543996D01*
X8314092Y-19553520D01*
X8295044Y-19553520D01*
X8275997Y-19543996D01*
X8266473Y-19534472D01*
X8256949Y-19515424D01*
X8247425Y-19477329D01*
X8247425Y-19429710D01*
X8256949Y-19391615D01*
X8266473Y-19372567D01*
X8275997Y-19363043D01*
X8295044Y-19353520D01*
X8447425Y-19534472D02*
X8456949Y-19543996D01*
X8447425Y-19553520D01*
X8437902Y-19543996D01*
X8447425Y-19534472D01*
X8447425Y-19553520D01*
X8580759Y-19353520D02*
X8599806Y-19353520D01*
X8618854Y-19363043D01*
X8628378Y-19372567D01*
X8637902Y-19391615D01*
X8647425Y-19429710D01*
X8647425Y-19477329D01*
X8637902Y-19515424D01*
X8628378Y-19534472D01*
X8618854Y-19543996D01*
X8599806Y-19553520D01*
X8580759Y-19553520D01*
X8561711Y-19543996D01*
X8552187Y-19534472D01*
X8542664Y-19515424D01*
X8533140Y-19477329D01*
X8533140Y-19429710D01*
X8542664Y-19391615D01*
X8552187Y-19372567D01*
X8561711Y-19363043D01*
X8580759Y-19353520D01*
X8818854Y-19353520D02*
X8780759Y-19353520D01*
X8761711Y-19363043D01*
X8752187Y-19372567D01*
X8733140Y-19401139D01*
X8723616Y-19439234D01*
X8723616Y-19515424D01*
X8733140Y-19534472D01*
X8742664Y-19543996D01*
X8761711Y-19553520D01*
X8799806Y-19553520D01*
X8818854Y-19543996D01*
X8828378Y-19534472D01*
X8837902Y-19515424D01*
X8837902Y-19467805D01*
X8828378Y-19448758D01*
X8818854Y-19439234D01*
X8799806Y-19429710D01*
X8761711Y-19429710D01*
X8742664Y-19439234D01*
X8733140Y-19448758D01*
X8723616Y-19467805D01*
X8904568Y-19353520D02*
X9037902Y-19353520D01*
X8952187Y-19553520D01*
X9152187Y-19353520D02*
X9171235Y-19353520D01*
X9190283Y-19363043D01*
X9199806Y-19372567D01*
X9209330Y-19391615D01*
X9218854Y-19429710D01*
X9218854Y-19477329D01*
X9209330Y-19515424D01*
X9199806Y-19534472D01*
X9190283Y-19543996D01*
X9171235Y-19553520D01*
X9152187Y-19553520D01*
X9133140Y-19543996D01*
X9123616Y-19534472D01*
X9114092Y-19515424D01*
X9104568Y-19477329D01*
X9104568Y-19429710D01*
X9114092Y-19391615D01*
X9123616Y-19372567D01*
X9133140Y-19363043D01*
X9152187Y-19353520D01*
X9295044Y-19353520D02*
X9295044Y-19391615D01*
X9371235Y-19353520D02*
X9371235Y-19391615D01*
X9666473Y-19629710D02*
X9656949Y-19620186D01*
X9637902Y-19591615D01*
X9628378Y-19572567D01*
X9618854Y-19543996D01*
X9609330Y-19496377D01*
X9609330Y-19458281D01*
X9618854Y-19410662D01*
X9628378Y-19382091D01*
X9637902Y-19363043D01*
X9656949Y-19334472D01*
X9666473Y-19324948D01*
X9847425Y-19553520D02*
X9733140Y-19553520D01*
X9790283Y-19553520D02*
X9790283Y-19353520D01*
X9771235Y-19382091D01*
X9752187Y-19401139D01*
X9733140Y-19410662D01*
X10037902Y-19553520D02*
X9923616Y-19553520D01*
X9980759Y-19553520D02*
X9980759Y-19353520D01*
X9961711Y-19382091D01*
X9942664Y-19401139D01*
X9923616Y-19410662D01*
X10161711Y-19353520D02*
X10180759Y-19353520D01*
X10199806Y-19363043D01*
X10209330Y-19372567D01*
X10218854Y-19391615D01*
X10228378Y-19429710D01*
X10228378Y-19477329D01*
X10218854Y-19515424D01*
X10209330Y-19534472D01*
X10199806Y-19543996D01*
X10180759Y-19553520D01*
X10161711Y-19553520D01*
X10142664Y-19543996D01*
X10133140Y-19534472D01*
X10123616Y-19515424D01*
X10114092Y-19477329D01*
X10114092Y-19429710D01*
X10123616Y-19391615D01*
X10133140Y-19372567D01*
X10142664Y-19363043D01*
X10161711Y-19353520D01*
X10466473Y-19553520D02*
X10466473Y-19353520D01*
X10552187Y-19553520D02*
X10552187Y-19448758D01*
X10542664Y-19429710D01*
X10523616Y-19420186D01*
X10495044Y-19420186D01*
X10475997Y-19429710D01*
X10466473Y-19439234D01*
X10675997Y-19553520D02*
X10656949Y-19543996D01*
X10647425Y-19534472D01*
X10637902Y-19515424D01*
X10637902Y-19458281D01*
X10647425Y-19439234D01*
X10656949Y-19429710D01*
X10675997Y-19420186D01*
X10704568Y-19420186D01*
X10723616Y-19429710D01*
X10733140Y-19439234D01*
X10742664Y-19458281D01*
X10742664Y-19515424D01*
X10733140Y-19534472D01*
X10723616Y-19543996D01*
X10704568Y-19553520D01*
X10675997Y-19553520D01*
X10856949Y-19553520D02*
X10837902Y-19543996D01*
X10828378Y-19524948D01*
X10828378Y-19353520D01*
X11009330Y-19543996D02*
X10990283Y-19553520D01*
X10952187Y-19553520D01*
X10933140Y-19543996D01*
X10923616Y-19524948D01*
X10923616Y-19448758D01*
X10933140Y-19429710D01*
X10952187Y-19420186D01*
X10990283Y-19420186D01*
X11009330Y-19429710D01*
X11018854Y-19448758D01*
X11018854Y-19467805D01*
X10923616Y-19486853D01*
X11095044Y-19543996D02*
X11114092Y-19553520D01*
X11152187Y-19553520D01*
X11171235Y-19543996D01*
X11180759Y-19524948D01*
X11180759Y-19515424D01*
X11171235Y-19496377D01*
X11152187Y-19486853D01*
X11123616Y-19486853D01*
X11104568Y-19477329D01*
X11095044Y-19458281D01*
X11095044Y-19448758D01*
X11104568Y-19429710D01*
X11123616Y-19420186D01*
X11152187Y-19420186D01*
X11171235Y-19429710D01*
X11247425Y-19629710D02*
X11256949Y-19620186D01*
X11275997Y-19591615D01*
X11285521Y-19572567D01*
X11295044Y-19543996D01*
X11304568Y-19496377D01*
X11304568Y-19458281D01*
X11295044Y-19410662D01*
X11285521Y-19382091D01*
X11275997Y-19363043D01*
X11256949Y-19334472D01*
X11247425Y-19324948D01*
X11609330Y-19629710D02*
X11599806Y-19620186D01*
X11580759Y-19591615D01*
X11571235Y-19572567D01*
X11561711Y-19543996D01*
X11552187Y-19496377D01*
X11552187Y-19458281D01*
X11561711Y-19410662D01*
X11571235Y-19382091D01*
X11580759Y-19363043D01*
X11599806Y-19334472D01*
X11609330Y-19324948D01*
X11685521Y-19420186D02*
X11685521Y-19553520D01*
X11685521Y-19439234D02*
X11695044Y-19429710D01*
X11714092Y-19420186D01*
X11742663Y-19420186D01*
X11761711Y-19429710D01*
X11771235Y-19448758D01*
X11771235Y-19553520D01*
X11895044Y-19553520D02*
X11875997Y-19543996D01*
X11866473Y-19534472D01*
X11856949Y-19515424D01*
X11856949Y-19458281D01*
X11866473Y-19439234D01*
X11875997Y-19429710D01*
X11895044Y-19420186D01*
X11923616Y-19420186D01*
X11942663Y-19429710D01*
X11952187Y-19439234D01*
X11961711Y-19458281D01*
X11961711Y-19515424D01*
X11952187Y-19534472D01*
X11942663Y-19543996D01*
X11923616Y-19553520D01*
X11895044Y-19553520D01*
X12018854Y-19420186D02*
X12095044Y-19420186D01*
X12047425Y-19353520D02*
X12047425Y-19524948D01*
X12056949Y-19543996D01*
X12075997Y-19553520D01*
X12095044Y-19553520D01*
X12314092Y-19420186D02*
X12314092Y-19620186D01*
X12314092Y-19429710D02*
X12333140Y-19420186D01*
X12371235Y-19420186D01*
X12390282Y-19429710D01*
X12399806Y-19439234D01*
X12409330Y-19458281D01*
X12409330Y-19515424D01*
X12399806Y-19534472D01*
X12390282Y-19543996D01*
X12371235Y-19553520D01*
X12333140Y-19553520D01*
X12314092Y-19543996D01*
X12523616Y-19553520D02*
X12504568Y-19543996D01*
X12495044Y-19524948D01*
X12495044Y-19353520D01*
X12685521Y-19553520D02*
X12685521Y-19448758D01*
X12675997Y-19429710D01*
X12656949Y-19420186D01*
X12618854Y-19420186D01*
X12599806Y-19429710D01*
X12685521Y-19543996D02*
X12666473Y-19553520D01*
X12618854Y-19553520D01*
X12599806Y-19543996D01*
X12590282Y-19524948D01*
X12590282Y-19505901D01*
X12599806Y-19486853D01*
X12618854Y-19477329D01*
X12666473Y-19477329D01*
X12685521Y-19467805D01*
X12752187Y-19420186D02*
X12828378Y-19420186D01*
X12780759Y-19353520D02*
X12780759Y-19524948D01*
X12790282Y-19543996D01*
X12809330Y-19553520D01*
X12828378Y-19553520D01*
X12971235Y-19543996D02*
X12952187Y-19553520D01*
X12914092Y-19553520D01*
X12895044Y-19543996D01*
X12885521Y-19524948D01*
X12885521Y-19448758D01*
X12895044Y-19429710D01*
X12914092Y-19420186D01*
X12952187Y-19420186D01*
X12971235Y-19429710D01*
X12980759Y-19448758D01*
X12980759Y-19467805D01*
X12885521Y-19486853D01*
X13152187Y-19553520D02*
X13152187Y-19353520D01*
X13152187Y-19543996D02*
X13133140Y-19553520D01*
X13095044Y-19553520D01*
X13075997Y-19543996D01*
X13066473Y-19534472D01*
X13056949Y-19515424D01*
X13056949Y-19458281D01*
X13066473Y-19439234D01*
X13075997Y-19429710D01*
X13095044Y-19420186D01*
X13133140Y-19420186D01*
X13152187Y-19429710D01*
X13228378Y-19629710D02*
X13237902Y-19620186D01*
X13256949Y-19591615D01*
X13266473Y-19572567D01*
X13275997Y-19543996D01*
X13285521Y-19496377D01*
X13285521Y-19458281D01*
X13275997Y-19410662D01*
X13266473Y-19382091D01*
X13256949Y-19363043D01*
X13237902Y-19334472D01*
X13228378Y-19324948D01*
X6094568Y-19753223D02*
G75*
G03*
X6094568Y-19753223I-100000J0D01*
G01*
X6342663Y-19662747D02*
X6352187Y-19653223D01*
X6371235Y-19643700D01*
X6418854Y-19643700D01*
X6437902Y-19653223D01*
X6447425Y-19662747D01*
X6456949Y-19681795D01*
X6456949Y-19700842D01*
X6447425Y-19729414D01*
X6333140Y-19843700D01*
X6456949Y-19843700D01*
X6542663Y-19824652D02*
X6552187Y-19834176D01*
X6542663Y-19843700D01*
X6533140Y-19834176D01*
X6542663Y-19824652D01*
X6542663Y-19843700D01*
X6628378Y-19662747D02*
X6637902Y-19653223D01*
X6656949Y-19643700D01*
X6704568Y-19643700D01*
X6723616Y-19653223D01*
X6733140Y-19662747D01*
X6742663Y-19681795D01*
X6742663Y-19700842D01*
X6733140Y-19729414D01*
X6618854Y-19843700D01*
X6742663Y-19843700D01*
X6866473Y-19643700D02*
X6885521Y-19643700D01*
X6904568Y-19653223D01*
X6914092Y-19662747D01*
X6923616Y-19681795D01*
X6933140Y-19719890D01*
X6933140Y-19767509D01*
X6923616Y-19805604D01*
X6914092Y-19824652D01*
X6904568Y-19834176D01*
X6885521Y-19843700D01*
X6866473Y-19843700D01*
X6847425Y-19834176D01*
X6837902Y-19824652D01*
X6828378Y-19805604D01*
X6818854Y-19767509D01*
X6818854Y-19719890D01*
X6828378Y-19681795D01*
X6837902Y-19662747D01*
X6847425Y-19653223D01*
X6866473Y-19643700D01*
X7056949Y-19643700D02*
X7075997Y-19643700D01*
X7095044Y-19653223D01*
X7104568Y-19662747D01*
X7114092Y-19681795D01*
X7123616Y-19719890D01*
X7123616Y-19767509D01*
X7114092Y-19805604D01*
X7104568Y-19824652D01*
X7095044Y-19834176D01*
X7075997Y-19843700D01*
X7056949Y-19843700D01*
X7037902Y-19834176D01*
X7028378Y-19824652D01*
X7018854Y-19805604D01*
X7009330Y-19767509D01*
X7009330Y-19719890D01*
X7018854Y-19681795D01*
X7028378Y-19662747D01*
X7037902Y-19653223D01*
X7056949Y-19643700D01*
X7209330Y-19843700D02*
X7209330Y-19710366D01*
X7209330Y-19729414D02*
X7218854Y-19719890D01*
X7237902Y-19710366D01*
X7266473Y-19710366D01*
X7285521Y-19719890D01*
X7295044Y-19738938D01*
X7295044Y-19843700D01*
X7295044Y-19738938D02*
X7304568Y-19719890D01*
X7323616Y-19710366D01*
X7352187Y-19710366D01*
X7371235Y-19719890D01*
X7380759Y-19738938D01*
X7380759Y-19843700D01*
X7475997Y-19843700D02*
X7475997Y-19710366D01*
X7475997Y-19729414D02*
X7485521Y-19719890D01*
X7504568Y-19710366D01*
X7533140Y-19710366D01*
X7552187Y-19719890D01*
X7561711Y-19738938D01*
X7561711Y-19843700D01*
X7561711Y-19738938D02*
X7571235Y-19719890D01*
X7590282Y-19710366D01*
X7618854Y-19710366D01*
X7637902Y-19719890D01*
X7647425Y-19738938D01*
X7647425Y-19843700D01*
X8037902Y-19634176D02*
X7866473Y-19891319D01*
X8295044Y-19643700D02*
X8314092Y-19643700D01*
X8333140Y-19653223D01*
X8342663Y-19662747D01*
X8352187Y-19681795D01*
X8361711Y-19719890D01*
X8361711Y-19767509D01*
X8352187Y-19805604D01*
X8342663Y-19824652D01*
X8333140Y-19834176D01*
X8314092Y-19843700D01*
X8295044Y-19843700D01*
X8275997Y-19834176D01*
X8266473Y-19824652D01*
X8256949Y-19805604D01*
X8247425Y-19767509D01*
X8247425Y-19719890D01*
X8256949Y-19681795D01*
X8266473Y-19662747D01*
X8275997Y-19653223D01*
X8295044Y-19643700D01*
X8447425Y-19824652D02*
X8456949Y-19834176D01*
X8447425Y-19843700D01*
X8437902Y-19834176D01*
X8447425Y-19824652D01*
X8447425Y-19843700D01*
X8580759Y-19643700D02*
X8599806Y-19643700D01*
X8618854Y-19653223D01*
X8628378Y-19662747D01*
X8637902Y-19681795D01*
X8647425Y-19719890D01*
X8647425Y-19767509D01*
X8637902Y-19805604D01*
X8628378Y-19824652D01*
X8618854Y-19834176D01*
X8599806Y-19843700D01*
X8580759Y-19843700D01*
X8561711Y-19834176D01*
X8552187Y-19824652D01*
X8542664Y-19805604D01*
X8533140Y-19767509D01*
X8533140Y-19719890D01*
X8542664Y-19681795D01*
X8552187Y-19662747D01*
X8561711Y-19653223D01*
X8580759Y-19643700D01*
X8761711Y-19729414D02*
X8742664Y-19719890D01*
X8733140Y-19710366D01*
X8723616Y-19691319D01*
X8723616Y-19681795D01*
X8733140Y-19662747D01*
X8742664Y-19653223D01*
X8761711Y-19643700D01*
X8799806Y-19643700D01*
X8818854Y-19653223D01*
X8828378Y-19662747D01*
X8837902Y-19681795D01*
X8837902Y-19691319D01*
X8828378Y-19710366D01*
X8818854Y-19719890D01*
X8799806Y-19729414D01*
X8761711Y-19729414D01*
X8742664Y-19738938D01*
X8733140Y-19748461D01*
X8723616Y-19767509D01*
X8723616Y-19805604D01*
X8733140Y-19824652D01*
X8742664Y-19834176D01*
X8761711Y-19843700D01*
X8799806Y-19843700D01*
X8818854Y-19834176D01*
X8828378Y-19824652D01*
X8837902Y-19805604D01*
X8837902Y-19767509D01*
X8828378Y-19748461D01*
X8818854Y-19738938D01*
X8799806Y-19729414D01*
X9009330Y-19643700D02*
X8971235Y-19643700D01*
X8952187Y-19653223D01*
X8942664Y-19662747D01*
X8923616Y-19691319D01*
X8914092Y-19729414D01*
X8914092Y-19805604D01*
X8923616Y-19824652D01*
X8933140Y-19834176D01*
X8952187Y-19843700D01*
X8990283Y-19843700D01*
X9009330Y-19834176D01*
X9018854Y-19824652D01*
X9028378Y-19805604D01*
X9028378Y-19757985D01*
X9018854Y-19738938D01*
X9009330Y-19729414D01*
X8990283Y-19719890D01*
X8952187Y-19719890D01*
X8933140Y-19729414D01*
X8923616Y-19738938D01*
X8914092Y-19757985D01*
X9199806Y-19643700D02*
X9161711Y-19643700D01*
X9142664Y-19653223D01*
X9133140Y-19662747D01*
X9114092Y-19691319D01*
X9104568Y-19729414D01*
X9104568Y-19805604D01*
X9114092Y-19824652D01*
X9123616Y-19834176D01*
X9142664Y-19843700D01*
X9180759Y-19843700D01*
X9199806Y-19834176D01*
X9209330Y-19824652D01*
X9218854Y-19805604D01*
X9218854Y-19757985D01*
X9209330Y-19738938D01*
X9199806Y-19729414D01*
X9180759Y-19719890D01*
X9142664Y-19719890D01*
X9123616Y-19729414D01*
X9114092Y-19738938D01*
X9104568Y-19757985D01*
X9295044Y-19643700D02*
X9295044Y-19681795D01*
X9371235Y-19643700D02*
X9371235Y-19681795D01*
X9666473Y-19919890D02*
X9656949Y-19910366D01*
X9637902Y-19881795D01*
X9628378Y-19862747D01*
X9618854Y-19834176D01*
X9609330Y-19786557D01*
X9609330Y-19748461D01*
X9618854Y-19700842D01*
X9628378Y-19672271D01*
X9637902Y-19653223D01*
X9656949Y-19624652D01*
X9666473Y-19615128D01*
X9723616Y-19643700D02*
X9847425Y-19643700D01*
X9780759Y-19719890D01*
X9809330Y-19719890D01*
X9828378Y-19729414D01*
X9837902Y-19738938D01*
X9847425Y-19757985D01*
X9847425Y-19805604D01*
X9837902Y-19824652D01*
X9828378Y-19834176D01*
X9809330Y-19843700D01*
X9752187Y-19843700D01*
X9733140Y-19834176D01*
X9723616Y-19824652D01*
X10085521Y-19843700D02*
X10085521Y-19643700D01*
X10171235Y-19843700D02*
X10171235Y-19738938D01*
X10161711Y-19719890D01*
X10142664Y-19710366D01*
X10114092Y-19710366D01*
X10095044Y-19719890D01*
X10085521Y-19729414D01*
X10295044Y-19843700D02*
X10275997Y-19834176D01*
X10266473Y-19824652D01*
X10256949Y-19805604D01*
X10256949Y-19748461D01*
X10266473Y-19729414D01*
X10275997Y-19719890D01*
X10295044Y-19710366D01*
X10323616Y-19710366D01*
X10342664Y-19719890D01*
X10352187Y-19729414D01*
X10361711Y-19748461D01*
X10361711Y-19805604D01*
X10352187Y-19824652D01*
X10342664Y-19834176D01*
X10323616Y-19843700D01*
X10295044Y-19843700D01*
X10475997Y-19843700D02*
X10456949Y-19834176D01*
X10447425Y-19815128D01*
X10447425Y-19643700D01*
X10628378Y-19834176D02*
X10609330Y-19843700D01*
X10571235Y-19843700D01*
X10552187Y-19834176D01*
X10542664Y-19815128D01*
X10542664Y-19738938D01*
X10552187Y-19719890D01*
X10571235Y-19710366D01*
X10609330Y-19710366D01*
X10628378Y-19719890D01*
X10637902Y-19738938D01*
X10637902Y-19757985D01*
X10542664Y-19777033D01*
X10714092Y-19834176D02*
X10733140Y-19843700D01*
X10771235Y-19843700D01*
X10790283Y-19834176D01*
X10799806Y-19815128D01*
X10799806Y-19805604D01*
X10790283Y-19786557D01*
X10771235Y-19777033D01*
X10742664Y-19777033D01*
X10723616Y-19767509D01*
X10714092Y-19748461D01*
X10714092Y-19738938D01*
X10723616Y-19719890D01*
X10742664Y-19710366D01*
X10771235Y-19710366D01*
X10790283Y-19719890D01*
X10866473Y-19919890D02*
X10875997Y-19910366D01*
X10895044Y-19881795D01*
X10904568Y-19862747D01*
X10914092Y-19834176D01*
X10923616Y-19786557D01*
X10923616Y-19748461D01*
X10914092Y-19700842D01*
X10904568Y-19672271D01*
X10895044Y-19653223D01*
X10875997Y-19624652D01*
X10866473Y-19615128D01*
X11228378Y-19919890D02*
X11218854Y-19910366D01*
X11199806Y-19881795D01*
X11190282Y-19862747D01*
X11180759Y-19834176D01*
X11171235Y-19786557D01*
X11171235Y-19748461D01*
X11180759Y-19700842D01*
X11190282Y-19672271D01*
X11199806Y-19653223D01*
X11218854Y-19624652D01*
X11228378Y-19615128D01*
X11304568Y-19710366D02*
X11304568Y-19843700D01*
X11304568Y-19729414D02*
X11314092Y-19719890D01*
X11333140Y-19710366D01*
X11361711Y-19710366D01*
X11380759Y-19719890D01*
X11390282Y-19738938D01*
X11390282Y-19843700D01*
X11514092Y-19843700D02*
X11495044Y-19834176D01*
X11485521Y-19824652D01*
X11475997Y-19805604D01*
X11475997Y-19748461D01*
X11485521Y-19729414D01*
X11495044Y-19719890D01*
X11514092Y-19710366D01*
X11542663Y-19710366D01*
X11561711Y-19719890D01*
X11571235Y-19729414D01*
X11580759Y-19748461D01*
X11580759Y-19805604D01*
X11571235Y-19824652D01*
X11561711Y-19834176D01*
X11542663Y-19843700D01*
X11514092Y-19843700D01*
X11637902Y-19710366D02*
X11714092Y-19710366D01*
X11666473Y-19643700D02*
X11666473Y-19815128D01*
X11675997Y-19834176D01*
X11695044Y-19843700D01*
X11714092Y-19843700D01*
X11933140Y-19710366D02*
X11933140Y-19910366D01*
X11933140Y-19719890D02*
X11952187Y-19710366D01*
X11990282Y-19710366D01*
X12009330Y-19719890D01*
X12018854Y-19729414D01*
X12028378Y-19748461D01*
X12028378Y-19805604D01*
X12018854Y-19824652D01*
X12009330Y-19834176D01*
X11990282Y-19843700D01*
X11952187Y-19843700D01*
X11933140Y-19834176D01*
X12142663Y-19843700D02*
X12123616Y-19834176D01*
X12114092Y-19815128D01*
X12114092Y-19643700D01*
X12304568Y-19843700D02*
X12304568Y-19738938D01*
X12295044Y-19719890D01*
X12275997Y-19710366D01*
X12237902Y-19710366D01*
X12218854Y-19719890D01*
X12304568Y-19834176D02*
X12285521Y-19843700D01*
X12237902Y-19843700D01*
X12218854Y-19834176D01*
X12209330Y-19815128D01*
X12209330Y-19796081D01*
X12218854Y-19777033D01*
X12237902Y-19767509D01*
X12285521Y-19767509D01*
X12304568Y-19757985D01*
X12371235Y-19710366D02*
X12447425Y-19710366D01*
X12399806Y-19643700D02*
X12399806Y-19815128D01*
X12409330Y-19834176D01*
X12428378Y-19843700D01*
X12447425Y-19843700D01*
X12590282Y-19834176D02*
X12571235Y-19843700D01*
X12533140Y-19843700D01*
X12514092Y-19834176D01*
X12504568Y-19815128D01*
X12504568Y-19738938D01*
X12514092Y-19719890D01*
X12533140Y-19710366D01*
X12571235Y-19710366D01*
X12590282Y-19719890D01*
X12599806Y-19738938D01*
X12599806Y-19757985D01*
X12504568Y-19777033D01*
X12771235Y-19843700D02*
X12771235Y-19643700D01*
X12771235Y-19834176D02*
X12752187Y-19843700D01*
X12714092Y-19843700D01*
X12695044Y-19834176D01*
X12685521Y-19824652D01*
X12675997Y-19805604D01*
X12675997Y-19748461D01*
X12685521Y-19729414D01*
X12695044Y-19719890D01*
X12714092Y-19710366D01*
X12752187Y-19710366D01*
X12771235Y-19719890D01*
X12847425Y-19919890D02*
X12856949Y-19910366D01*
X12875997Y-19881795D01*
X12885521Y-19862747D01*
X12895044Y-19834176D01*
X12904568Y-19786557D01*
X12904568Y-19748461D01*
X12895044Y-19700842D01*
X12885521Y-19672271D01*
X12875997Y-19653223D01*
X12856949Y-19624652D01*
X12847425Y-19615128D01*
X5994568Y-19973223D02*
X5994568Y-20173223D01*
X5894568Y-20073223D02*
X6094568Y-20073223D01*
X6333140Y-19963700D02*
X6456949Y-19963700D01*
X6390282Y-20039890D01*
X6418854Y-20039890D01*
X6437902Y-20049414D01*
X6447425Y-20058938D01*
X6456949Y-20077985D01*
X6456949Y-20125604D01*
X6447425Y-20144652D01*
X6437902Y-20154176D01*
X6418854Y-20163700D01*
X6361711Y-20163700D01*
X6342663Y-20154176D01*
X6333140Y-20144652D01*
X6542663Y-20144652D02*
X6552187Y-20154176D01*
X6542663Y-20163700D01*
X6533140Y-20154176D01*
X6542663Y-20144652D01*
X6542663Y-20163700D01*
X6675997Y-19963700D02*
X6695044Y-19963700D01*
X6714092Y-19973223D01*
X6723616Y-19982747D01*
X6733140Y-20001795D01*
X6742663Y-20039890D01*
X6742663Y-20087509D01*
X6733140Y-20125604D01*
X6723616Y-20144652D01*
X6714092Y-20154176D01*
X6695044Y-20163700D01*
X6675997Y-20163700D01*
X6656949Y-20154176D01*
X6647425Y-20144652D01*
X6637902Y-20125604D01*
X6628378Y-20087509D01*
X6628378Y-20039890D01*
X6637902Y-20001795D01*
X6647425Y-19982747D01*
X6656949Y-19973223D01*
X6675997Y-19963700D01*
X6866473Y-19963700D02*
X6885521Y-19963700D01*
X6904568Y-19973223D01*
X6914092Y-19982747D01*
X6923616Y-20001795D01*
X6933140Y-20039890D01*
X6933140Y-20087509D01*
X6923616Y-20125604D01*
X6914092Y-20144652D01*
X6904568Y-20154176D01*
X6885521Y-20163700D01*
X6866473Y-20163700D01*
X6847425Y-20154176D01*
X6837902Y-20144652D01*
X6828378Y-20125604D01*
X6818854Y-20087509D01*
X6818854Y-20039890D01*
X6828378Y-20001795D01*
X6837902Y-19982747D01*
X6847425Y-19973223D01*
X6866473Y-19963700D01*
X7056949Y-19963700D02*
X7075997Y-19963700D01*
X7095044Y-19973223D01*
X7104568Y-19982747D01*
X7114092Y-20001795D01*
X7123616Y-20039890D01*
X7123616Y-20087509D01*
X7114092Y-20125604D01*
X7104568Y-20144652D01*
X7095044Y-20154176D01*
X7075997Y-20163700D01*
X7056949Y-20163700D01*
X7037902Y-20154176D01*
X7028378Y-20144652D01*
X7018854Y-20125604D01*
X7009330Y-20087509D01*
X7009330Y-20039890D01*
X7018854Y-20001795D01*
X7028378Y-19982747D01*
X7037902Y-19973223D01*
X7056949Y-19963700D01*
X7209330Y-20163700D02*
X7209330Y-20030366D01*
X7209330Y-20049414D02*
X7218854Y-20039890D01*
X7237902Y-20030366D01*
X7266473Y-20030366D01*
X7285521Y-20039890D01*
X7295044Y-20058938D01*
X7295044Y-20163700D01*
X7295044Y-20058938D02*
X7304568Y-20039890D01*
X7323616Y-20030366D01*
X7352187Y-20030366D01*
X7371235Y-20039890D01*
X7380759Y-20058938D01*
X7380759Y-20163700D01*
X7475997Y-20163700D02*
X7475997Y-20030366D01*
X7475997Y-20049414D02*
X7485521Y-20039890D01*
X7504568Y-20030366D01*
X7533140Y-20030366D01*
X7552187Y-20039890D01*
X7561711Y-20058938D01*
X7561711Y-20163700D01*
X7561711Y-20058938D02*
X7571235Y-20039890D01*
X7590282Y-20030366D01*
X7618854Y-20030366D01*
X7637902Y-20039890D01*
X7647425Y-20058938D01*
X7647425Y-20163700D01*
X8037902Y-19954176D02*
X7866473Y-20211319D01*
X8295044Y-19963700D02*
X8314092Y-19963700D01*
X8333140Y-19973223D01*
X8342663Y-19982747D01*
X8352187Y-20001795D01*
X8361711Y-20039890D01*
X8361711Y-20087509D01*
X8352187Y-20125604D01*
X8342663Y-20144652D01*
X8333140Y-20154176D01*
X8314092Y-20163700D01*
X8295044Y-20163700D01*
X8275997Y-20154176D01*
X8266473Y-20144652D01*
X8256949Y-20125604D01*
X8247425Y-20087509D01*
X8247425Y-20039890D01*
X8256949Y-20001795D01*
X8266473Y-19982747D01*
X8275997Y-19973223D01*
X8295044Y-19963700D01*
X8447425Y-20144652D02*
X8456949Y-20154176D01*
X8447425Y-20163700D01*
X8437902Y-20154176D01*
X8447425Y-20144652D01*
X8447425Y-20163700D01*
X8647425Y-20163700D02*
X8533140Y-20163700D01*
X8590283Y-20163700D02*
X8590283Y-19963700D01*
X8571235Y-19992271D01*
X8552187Y-20011319D01*
X8533140Y-20020842D01*
X8837902Y-20163700D02*
X8723616Y-20163700D01*
X8780759Y-20163700D02*
X8780759Y-19963700D01*
X8761711Y-19992271D01*
X8742664Y-20011319D01*
X8723616Y-20020842D01*
X8952187Y-20049414D02*
X8933140Y-20039890D01*
X8923616Y-20030366D01*
X8914092Y-20011319D01*
X8914092Y-20001795D01*
X8923616Y-19982747D01*
X8933140Y-19973223D01*
X8952187Y-19963700D01*
X8990283Y-19963700D01*
X9009330Y-19973223D01*
X9018854Y-19982747D01*
X9028378Y-20001795D01*
X9028378Y-20011319D01*
X9018854Y-20030366D01*
X9009330Y-20039890D01*
X8990283Y-20049414D01*
X8952187Y-20049414D01*
X8933140Y-20058938D01*
X8923616Y-20068461D01*
X8914092Y-20087509D01*
X8914092Y-20125604D01*
X8923616Y-20144652D01*
X8933140Y-20154176D01*
X8952187Y-20163700D01*
X8990283Y-20163700D01*
X9009330Y-20154176D01*
X9018854Y-20144652D01*
X9028378Y-20125604D01*
X9028378Y-20087509D01*
X9018854Y-20068461D01*
X9009330Y-20058938D01*
X8990283Y-20049414D01*
X9218854Y-20163700D02*
X9104568Y-20163700D01*
X9161711Y-20163700D02*
X9161711Y-19963700D01*
X9142664Y-19992271D01*
X9123616Y-20011319D01*
X9104568Y-20020842D01*
X9295044Y-19963700D02*
X9295044Y-20001795D01*
X9371235Y-19963700D02*
X9371235Y-20001795D01*
X9666473Y-20239890D02*
X9656949Y-20230366D01*
X9637902Y-20201795D01*
X9628378Y-20182747D01*
X9618854Y-20154176D01*
X9609330Y-20106557D01*
X9609330Y-20068461D01*
X9618854Y-20020842D01*
X9628378Y-19992271D01*
X9637902Y-19973223D01*
X9656949Y-19944652D01*
X9666473Y-19935128D01*
X9847425Y-20163700D02*
X9733140Y-20163700D01*
X9790283Y-20163700D02*
X9790283Y-19963700D01*
X9771235Y-19992271D01*
X9752187Y-20011319D01*
X9733140Y-20020842D01*
X10037902Y-20163700D02*
X9923616Y-20163700D01*
X9980759Y-20163700D02*
X9980759Y-19963700D01*
X9961711Y-19992271D01*
X9942664Y-20011319D01*
X9923616Y-20020842D01*
X10161711Y-19963700D02*
X10180759Y-19963700D01*
X10199806Y-19973223D01*
X10209330Y-19982747D01*
X10218854Y-20001795D01*
X10228378Y-20039890D01*
X10228378Y-20087509D01*
X10218854Y-20125604D01*
X10209330Y-20144652D01*
X10199806Y-20154176D01*
X10180759Y-20163700D01*
X10161711Y-20163700D01*
X10142664Y-20154176D01*
X10133140Y-20144652D01*
X10123616Y-20125604D01*
X10114092Y-20087509D01*
X10114092Y-20039890D01*
X10123616Y-20001795D01*
X10133140Y-19982747D01*
X10142664Y-19973223D01*
X10161711Y-19963700D01*
X10466473Y-20163700D02*
X10466473Y-19963700D01*
X10552187Y-20163700D02*
X10552187Y-20058938D01*
X10542664Y-20039890D01*
X10523616Y-20030366D01*
X10495044Y-20030366D01*
X10475997Y-20039890D01*
X10466473Y-20049414D01*
X10675997Y-20163700D02*
X10656949Y-20154176D01*
X10647425Y-20144652D01*
X10637902Y-20125604D01*
X10637902Y-20068461D01*
X10647425Y-20049414D01*
X10656949Y-20039890D01*
X10675997Y-20030366D01*
X10704568Y-20030366D01*
X10723616Y-20039890D01*
X10733140Y-20049414D01*
X10742664Y-20068461D01*
X10742664Y-20125604D01*
X10733140Y-20144652D01*
X10723616Y-20154176D01*
X10704568Y-20163700D01*
X10675997Y-20163700D01*
X10856949Y-20163700D02*
X10837902Y-20154176D01*
X10828378Y-20135128D01*
X10828378Y-19963700D01*
X11009330Y-20154176D02*
X10990283Y-20163700D01*
X10952187Y-20163700D01*
X10933140Y-20154176D01*
X10923616Y-20135128D01*
X10923616Y-20058938D01*
X10933140Y-20039890D01*
X10952187Y-20030366D01*
X10990283Y-20030366D01*
X11009330Y-20039890D01*
X11018854Y-20058938D01*
X11018854Y-20077985D01*
X10923616Y-20097033D01*
X11095044Y-20154176D02*
X11114092Y-20163700D01*
X11152187Y-20163700D01*
X11171235Y-20154176D01*
X11180759Y-20135128D01*
X11180759Y-20125604D01*
X11171235Y-20106557D01*
X11152187Y-20097033D01*
X11123616Y-20097033D01*
X11104568Y-20087509D01*
X11095044Y-20068461D01*
X11095044Y-20058938D01*
X11104568Y-20039890D01*
X11123616Y-20030366D01*
X11152187Y-20030366D01*
X11171235Y-20039890D01*
X11247425Y-20239890D02*
X11256949Y-20230366D01*
X11275997Y-20201795D01*
X11285521Y-20182747D01*
X11295044Y-20154176D01*
X11304568Y-20106557D01*
X11304568Y-20068461D01*
X11295044Y-20020842D01*
X11285521Y-19992271D01*
X11275997Y-19973223D01*
X11256949Y-19944652D01*
X11247425Y-19935128D01*
X11609330Y-20239890D02*
X11599806Y-20230366D01*
X11580759Y-20201795D01*
X11571235Y-20182747D01*
X11561711Y-20154176D01*
X11552187Y-20106557D01*
X11552187Y-20068461D01*
X11561711Y-20020842D01*
X11571235Y-19992271D01*
X11580759Y-19973223D01*
X11599806Y-19944652D01*
X11609330Y-19935128D01*
X11685521Y-20030366D02*
X11685521Y-20163700D01*
X11685521Y-20049414D02*
X11695044Y-20039890D01*
X11714092Y-20030366D01*
X11742663Y-20030366D01*
X11761711Y-20039890D01*
X11771235Y-20058938D01*
X11771235Y-20163700D01*
X11895044Y-20163700D02*
X11875997Y-20154176D01*
X11866473Y-20144652D01*
X11856949Y-20125604D01*
X11856949Y-20068461D01*
X11866473Y-20049414D01*
X11875997Y-20039890D01*
X11895044Y-20030366D01*
X11923616Y-20030366D01*
X11942663Y-20039890D01*
X11952187Y-20049414D01*
X11961711Y-20068461D01*
X11961711Y-20125604D01*
X11952187Y-20144652D01*
X11942663Y-20154176D01*
X11923616Y-20163700D01*
X11895044Y-20163700D01*
X12018854Y-20030366D02*
X12095044Y-20030366D01*
X12047425Y-19963700D02*
X12047425Y-20135128D01*
X12056949Y-20154176D01*
X12075997Y-20163700D01*
X12095044Y-20163700D01*
X12314092Y-20030366D02*
X12314092Y-20230366D01*
X12314092Y-20039890D02*
X12333140Y-20030366D01*
X12371235Y-20030366D01*
X12390282Y-20039890D01*
X12399806Y-20049414D01*
X12409330Y-20068461D01*
X12409330Y-20125604D01*
X12399806Y-20144652D01*
X12390282Y-20154176D01*
X12371235Y-20163700D01*
X12333140Y-20163700D01*
X12314092Y-20154176D01*
X12523616Y-20163700D02*
X12504568Y-20154176D01*
X12495044Y-20135128D01*
X12495044Y-19963700D01*
X12685521Y-20163700D02*
X12685521Y-20058938D01*
X12675997Y-20039890D01*
X12656949Y-20030366D01*
X12618854Y-20030366D01*
X12599806Y-20039890D01*
X12685521Y-20154176D02*
X12666473Y-20163700D01*
X12618854Y-20163700D01*
X12599806Y-20154176D01*
X12590282Y-20135128D01*
X12590282Y-20116081D01*
X12599806Y-20097033D01*
X12618854Y-20087509D01*
X12666473Y-20087509D01*
X12685521Y-20077985D01*
X12752187Y-20030366D02*
X12828378Y-20030366D01*
X12780759Y-19963700D02*
X12780759Y-20135128D01*
X12790282Y-20154176D01*
X12809330Y-20163700D01*
X12828378Y-20163700D01*
X12971235Y-20154176D02*
X12952187Y-20163700D01*
X12914092Y-20163700D01*
X12895044Y-20154176D01*
X12885521Y-20135128D01*
X12885521Y-20058938D01*
X12895044Y-20039890D01*
X12914092Y-20030366D01*
X12952187Y-20030366D01*
X12971235Y-20039890D01*
X12980759Y-20058938D01*
X12980759Y-20077985D01*
X12885521Y-20097033D01*
X13152187Y-20163700D02*
X13152187Y-19963700D01*
X13152187Y-20154176D02*
X13133140Y-20163700D01*
X13095044Y-20163700D01*
X13075997Y-20154176D01*
X13066473Y-20144652D01*
X13056949Y-20125604D01*
X13056949Y-20068461D01*
X13066473Y-20049414D01*
X13075997Y-20039890D01*
X13095044Y-20030366D01*
X13133140Y-20030366D01*
X13152187Y-20039890D01*
X13228378Y-20239890D02*
X13237902Y-20230366D01*
X13256949Y-20201795D01*
X13266473Y-20182747D01*
X13275997Y-20154176D01*
X13285521Y-20106557D01*
X13285521Y-20068461D01*
X13275997Y-20020842D01*
X13266473Y-19992271D01*
X13256949Y-19973223D01*
X13237902Y-19944652D01*
X13228378Y-19935128D01*
X6065280Y-20463935D02*
X6065280Y-20322512D01*
X5923857Y-20322512D01*
X5923857Y-20463935D01*
X6065280Y-20463935D01*
X6333140Y-20283700D02*
X6456949Y-20283700D01*
X6390282Y-20359890D01*
X6418854Y-20359890D01*
X6437902Y-20369414D01*
X6447425Y-20378938D01*
X6456949Y-20397985D01*
X6456949Y-20445604D01*
X6447425Y-20464652D01*
X6437902Y-20474176D01*
X6418854Y-20483700D01*
X6361711Y-20483700D01*
X6342663Y-20474176D01*
X6333140Y-20464652D01*
X6542663Y-20464652D02*
X6552187Y-20474176D01*
X6542663Y-20483700D01*
X6533140Y-20474176D01*
X6542663Y-20464652D01*
X6542663Y-20483700D01*
X6675997Y-20283700D02*
X6695044Y-20283700D01*
X6714092Y-20293223D01*
X6723616Y-20302747D01*
X6733140Y-20321795D01*
X6742663Y-20359890D01*
X6742663Y-20407509D01*
X6733140Y-20445604D01*
X6723616Y-20464652D01*
X6714092Y-20474176D01*
X6695044Y-20483700D01*
X6675997Y-20483700D01*
X6656949Y-20474176D01*
X6647425Y-20464652D01*
X6637902Y-20445604D01*
X6628378Y-20407509D01*
X6628378Y-20359890D01*
X6637902Y-20321795D01*
X6647425Y-20302747D01*
X6656949Y-20293223D01*
X6675997Y-20283700D01*
X6914092Y-20350366D02*
X6914092Y-20483700D01*
X6866473Y-20274176D02*
X6818854Y-20417033D01*
X6942663Y-20417033D01*
X7047425Y-20369414D02*
X7028378Y-20359890D01*
X7018854Y-20350366D01*
X7009330Y-20331319D01*
X7009330Y-20321795D01*
X7018854Y-20302747D01*
X7028378Y-20293223D01*
X7047425Y-20283700D01*
X7085521Y-20283700D01*
X7104568Y-20293223D01*
X7114092Y-20302747D01*
X7123616Y-20321795D01*
X7123616Y-20331319D01*
X7114092Y-20350366D01*
X7104568Y-20359890D01*
X7085521Y-20369414D01*
X7047425Y-20369414D01*
X7028378Y-20378938D01*
X7018854Y-20388461D01*
X7009330Y-20407509D01*
X7009330Y-20445604D01*
X7018854Y-20464652D01*
X7028378Y-20474176D01*
X7047425Y-20483700D01*
X7085521Y-20483700D01*
X7104568Y-20474176D01*
X7114092Y-20464652D01*
X7123616Y-20445604D01*
X7123616Y-20407509D01*
X7114092Y-20388461D01*
X7104568Y-20378938D01*
X7085521Y-20369414D01*
X7209330Y-20483700D02*
X7209330Y-20350366D01*
X7209330Y-20369414D02*
X7218854Y-20359890D01*
X7237902Y-20350366D01*
X7266473Y-20350366D01*
X7285521Y-20359890D01*
X7295044Y-20378938D01*
X7295044Y-20483700D01*
X7295044Y-20378938D02*
X7304568Y-20359890D01*
X7323616Y-20350366D01*
X7352187Y-20350366D01*
X7371235Y-20359890D01*
X7380759Y-20378938D01*
X7380759Y-20483700D01*
X7475997Y-20483700D02*
X7475997Y-20350366D01*
X7475997Y-20369414D02*
X7485521Y-20359890D01*
X7504568Y-20350366D01*
X7533140Y-20350366D01*
X7552187Y-20359890D01*
X7561711Y-20378938D01*
X7561711Y-20483700D01*
X7561711Y-20378938D02*
X7571235Y-20359890D01*
X7590282Y-20350366D01*
X7618854Y-20350366D01*
X7637902Y-20359890D01*
X7647425Y-20378938D01*
X7647425Y-20483700D01*
X8037902Y-20274176D02*
X7866473Y-20531319D01*
X8295044Y-20283700D02*
X8314092Y-20283700D01*
X8333140Y-20293223D01*
X8342663Y-20302747D01*
X8352187Y-20321795D01*
X8361711Y-20359890D01*
X8361711Y-20407509D01*
X8352187Y-20445604D01*
X8342663Y-20464652D01*
X8333140Y-20474176D01*
X8314092Y-20483700D01*
X8295044Y-20483700D01*
X8275997Y-20474176D01*
X8266473Y-20464652D01*
X8256949Y-20445604D01*
X8247425Y-20407509D01*
X8247425Y-20359890D01*
X8256949Y-20321795D01*
X8266473Y-20302747D01*
X8275997Y-20293223D01*
X8295044Y-20283700D01*
X8447425Y-20464652D02*
X8456949Y-20474176D01*
X8447425Y-20483700D01*
X8437902Y-20474176D01*
X8447425Y-20464652D01*
X8447425Y-20483700D01*
X8647425Y-20483700D02*
X8533140Y-20483700D01*
X8590283Y-20483700D02*
X8590283Y-20283700D01*
X8571235Y-20312271D01*
X8552187Y-20331319D01*
X8533140Y-20340842D01*
X8723616Y-20302747D02*
X8733140Y-20293223D01*
X8752187Y-20283700D01*
X8799806Y-20283700D01*
X8818854Y-20293223D01*
X8828378Y-20302747D01*
X8837902Y-20321795D01*
X8837902Y-20340842D01*
X8828378Y-20369414D01*
X8714092Y-20483700D01*
X8837902Y-20483700D01*
X8961711Y-20283700D02*
X8980759Y-20283700D01*
X8999806Y-20293223D01*
X9009330Y-20302747D01*
X9018854Y-20321795D01*
X9028378Y-20359890D01*
X9028378Y-20407509D01*
X9018854Y-20445604D01*
X9009330Y-20464652D01*
X8999806Y-20474176D01*
X8980759Y-20483700D01*
X8961711Y-20483700D01*
X8942664Y-20474176D01*
X8933140Y-20464652D01*
X8923616Y-20445604D01*
X8914092Y-20407509D01*
X8914092Y-20359890D01*
X8923616Y-20321795D01*
X8933140Y-20302747D01*
X8942664Y-20293223D01*
X8961711Y-20283700D01*
X9152187Y-20283700D02*
X9171235Y-20283700D01*
X9190283Y-20293223D01*
X9199806Y-20302747D01*
X9209330Y-20321795D01*
X9218854Y-20359890D01*
X9218854Y-20407509D01*
X9209330Y-20445604D01*
X9199806Y-20464652D01*
X9190283Y-20474176D01*
X9171235Y-20483700D01*
X9152187Y-20483700D01*
X9133140Y-20474176D01*
X9123616Y-20464652D01*
X9114092Y-20445604D01*
X9104568Y-20407509D01*
X9104568Y-20359890D01*
X9114092Y-20321795D01*
X9123616Y-20302747D01*
X9133140Y-20293223D01*
X9152187Y-20283700D01*
X9295044Y-20283700D02*
X9295044Y-20321795D01*
X9371235Y-20283700D02*
X9371235Y-20321795D01*
X9666473Y-20559890D02*
X9656949Y-20550366D01*
X9637902Y-20521795D01*
X9628378Y-20502747D01*
X9618854Y-20474176D01*
X9609330Y-20426557D01*
X9609330Y-20388461D01*
X9618854Y-20340842D01*
X9628378Y-20312271D01*
X9637902Y-20293223D01*
X9656949Y-20264652D01*
X9666473Y-20255128D01*
X9733140Y-20302747D02*
X9742664Y-20293223D01*
X9761711Y-20283700D01*
X9809330Y-20283700D01*
X9828378Y-20293223D01*
X9837902Y-20302747D01*
X9847425Y-20321795D01*
X9847425Y-20340842D01*
X9837902Y-20369414D01*
X9723616Y-20483700D01*
X9847425Y-20483700D01*
X10085521Y-20483700D02*
X10085521Y-20283700D01*
X10171235Y-20483700D02*
X10171235Y-20378938D01*
X10161711Y-20359890D01*
X10142664Y-20350366D01*
X10114092Y-20350366D01*
X10095044Y-20359890D01*
X10085521Y-20369414D01*
X10295044Y-20483700D02*
X10275997Y-20474176D01*
X10266473Y-20464652D01*
X10256949Y-20445604D01*
X10256949Y-20388461D01*
X10266473Y-20369414D01*
X10275997Y-20359890D01*
X10295044Y-20350366D01*
X10323616Y-20350366D01*
X10342664Y-20359890D01*
X10352187Y-20369414D01*
X10361711Y-20388461D01*
X10361711Y-20445604D01*
X10352187Y-20464652D01*
X10342664Y-20474176D01*
X10323616Y-20483700D01*
X10295044Y-20483700D01*
X10475997Y-20483700D02*
X10456949Y-20474176D01*
X10447425Y-20455128D01*
X10447425Y-20283700D01*
X10628378Y-20474176D02*
X10609330Y-20483700D01*
X10571235Y-20483700D01*
X10552187Y-20474176D01*
X10542664Y-20455128D01*
X10542664Y-20378938D01*
X10552187Y-20359890D01*
X10571235Y-20350366D01*
X10609330Y-20350366D01*
X10628378Y-20359890D01*
X10637902Y-20378938D01*
X10637902Y-20397985D01*
X10542664Y-20417033D01*
X10714092Y-20474176D02*
X10733140Y-20483700D01*
X10771235Y-20483700D01*
X10790283Y-20474176D01*
X10799806Y-20455128D01*
X10799806Y-20445604D01*
X10790283Y-20426557D01*
X10771235Y-20417033D01*
X10742664Y-20417033D01*
X10723616Y-20407509D01*
X10714092Y-20388461D01*
X10714092Y-20378938D01*
X10723616Y-20359890D01*
X10742664Y-20350366D01*
X10771235Y-20350366D01*
X10790283Y-20359890D01*
X10866473Y-20559890D02*
X10875997Y-20550366D01*
X10895044Y-20521795D01*
X10904568Y-20502747D01*
X10914092Y-20474176D01*
X10923616Y-20426557D01*
X10923616Y-20388461D01*
X10914092Y-20340842D01*
X10904568Y-20312271D01*
X10895044Y-20293223D01*
X10875997Y-20264652D01*
X10866473Y-20255128D01*
X11228378Y-20559890D02*
X11218854Y-20550366D01*
X11199806Y-20521795D01*
X11190282Y-20502747D01*
X11180759Y-20474176D01*
X11171235Y-20426557D01*
X11171235Y-20388461D01*
X11180759Y-20340842D01*
X11190282Y-20312271D01*
X11199806Y-20293223D01*
X11218854Y-20264652D01*
X11228378Y-20255128D01*
X11304568Y-20350366D02*
X11304568Y-20483700D01*
X11304568Y-20369414D02*
X11314092Y-20359890D01*
X11333140Y-20350366D01*
X11361711Y-20350366D01*
X11380759Y-20359890D01*
X11390282Y-20378938D01*
X11390282Y-20483700D01*
X11514092Y-20483700D02*
X11495044Y-20474176D01*
X11485521Y-20464652D01*
X11475997Y-20445604D01*
X11475997Y-20388461D01*
X11485521Y-20369414D01*
X11495044Y-20359890D01*
X11514092Y-20350366D01*
X11542663Y-20350366D01*
X11561711Y-20359890D01*
X11571235Y-20369414D01*
X11580759Y-20388461D01*
X11580759Y-20445604D01*
X11571235Y-20464652D01*
X11561711Y-20474176D01*
X11542663Y-20483700D01*
X11514092Y-20483700D01*
X11637902Y-20350366D02*
X11714092Y-20350366D01*
X11666473Y-20283700D02*
X11666473Y-20455128D01*
X11675997Y-20474176D01*
X11695044Y-20483700D01*
X11714092Y-20483700D01*
X11933140Y-20350366D02*
X11933140Y-20550366D01*
X11933140Y-20359890D02*
X11952187Y-20350366D01*
X11990282Y-20350366D01*
X12009330Y-20359890D01*
X12018854Y-20369414D01*
X12028378Y-20388461D01*
X12028378Y-20445604D01*
X12018854Y-20464652D01*
X12009330Y-20474176D01*
X11990282Y-20483700D01*
X11952187Y-20483700D01*
X11933140Y-20474176D01*
X12142663Y-20483700D02*
X12123616Y-20474176D01*
X12114092Y-20455128D01*
X12114092Y-20283700D01*
X12304568Y-20483700D02*
X12304568Y-20378938D01*
X12295044Y-20359890D01*
X12275997Y-20350366D01*
X12237902Y-20350366D01*
X12218854Y-20359890D01*
X12304568Y-20474176D02*
X12285521Y-20483700D01*
X12237902Y-20483700D01*
X12218854Y-20474176D01*
X12209330Y-20455128D01*
X12209330Y-20436081D01*
X12218854Y-20417033D01*
X12237902Y-20407509D01*
X12285521Y-20407509D01*
X12304568Y-20397985D01*
X12371235Y-20350366D02*
X12447425Y-20350366D01*
X12399806Y-20283700D02*
X12399806Y-20455128D01*
X12409330Y-20474176D01*
X12428378Y-20483700D01*
X12447425Y-20483700D01*
X12590282Y-20474176D02*
X12571235Y-20483700D01*
X12533140Y-20483700D01*
X12514092Y-20474176D01*
X12504568Y-20455128D01*
X12504568Y-20378938D01*
X12514092Y-20359890D01*
X12533140Y-20350366D01*
X12571235Y-20350366D01*
X12590282Y-20359890D01*
X12599806Y-20378938D01*
X12599806Y-20397985D01*
X12504568Y-20417033D01*
X12771235Y-20483700D02*
X12771235Y-20283700D01*
X12771235Y-20474176D02*
X12752187Y-20483700D01*
X12714092Y-20483700D01*
X12695044Y-20474176D01*
X12685521Y-20464652D01*
X12675997Y-20445604D01*
X12675997Y-20388461D01*
X12685521Y-20369414D01*
X12695044Y-20359890D01*
X12714092Y-20350366D01*
X12752187Y-20350366D01*
X12771235Y-20359890D01*
X12847425Y-20559890D02*
X12856949Y-20550366D01*
X12875997Y-20521795D01*
X12885521Y-20502747D01*
X12895044Y-20474176D01*
X12904568Y-20426557D01*
X12904568Y-20388461D01*
X12895044Y-20340842D01*
X12885521Y-20312271D01*
X12875997Y-20293223D01*
X12856949Y-20264652D01*
X12847425Y-20255128D01*
X5994568Y-20813223D02*
X6094568Y-20713223D01*
X5994568Y-20613223D01*
X5894568Y-20713223D01*
X5994568Y-20813223D01*
X6333140Y-20603700D02*
X6456949Y-20603700D01*
X6390282Y-20679890D01*
X6418854Y-20679890D01*
X6437902Y-20689414D01*
X6447425Y-20698938D01*
X6456949Y-20717985D01*
X6456949Y-20765604D01*
X6447425Y-20784652D01*
X6437902Y-20794176D01*
X6418854Y-20803700D01*
X6361711Y-20803700D01*
X6342663Y-20794176D01*
X6333140Y-20784652D01*
X6542663Y-20784652D02*
X6552187Y-20794176D01*
X6542663Y-20803700D01*
X6533140Y-20794176D01*
X6542663Y-20784652D01*
X6542663Y-20803700D01*
X6628378Y-20622747D02*
X6637902Y-20613223D01*
X6656949Y-20603700D01*
X6704568Y-20603700D01*
X6723616Y-20613223D01*
X6733140Y-20622747D01*
X6742663Y-20641795D01*
X6742663Y-20660842D01*
X6733140Y-20689414D01*
X6618854Y-20803700D01*
X6742663Y-20803700D01*
X6866473Y-20603700D02*
X6885521Y-20603700D01*
X6904568Y-20613223D01*
X6914092Y-20622747D01*
X6923616Y-20641795D01*
X6933140Y-20679890D01*
X6933140Y-20727509D01*
X6923616Y-20765604D01*
X6914092Y-20784652D01*
X6904568Y-20794176D01*
X6885521Y-20803700D01*
X6866473Y-20803700D01*
X6847425Y-20794176D01*
X6837902Y-20784652D01*
X6828378Y-20765604D01*
X6818854Y-20727509D01*
X6818854Y-20679890D01*
X6828378Y-20641795D01*
X6837902Y-20622747D01*
X6847425Y-20613223D01*
X6866473Y-20603700D01*
X7056949Y-20603700D02*
X7075997Y-20603700D01*
X7095044Y-20613223D01*
X7104568Y-20622747D01*
X7114092Y-20641795D01*
X7123616Y-20679890D01*
X7123616Y-20727509D01*
X7114092Y-20765604D01*
X7104568Y-20784652D01*
X7095044Y-20794176D01*
X7075997Y-20803700D01*
X7056949Y-20803700D01*
X7037902Y-20794176D01*
X7028378Y-20784652D01*
X7018854Y-20765604D01*
X7009330Y-20727509D01*
X7009330Y-20679890D01*
X7018854Y-20641795D01*
X7028378Y-20622747D01*
X7037902Y-20613223D01*
X7056949Y-20603700D01*
X7209330Y-20803700D02*
X7209330Y-20670366D01*
X7209330Y-20689414D02*
X7218854Y-20679890D01*
X7237902Y-20670366D01*
X7266473Y-20670366D01*
X7285521Y-20679890D01*
X7295044Y-20698938D01*
X7295044Y-20803700D01*
X7295044Y-20698938D02*
X7304568Y-20679890D01*
X7323616Y-20670366D01*
X7352187Y-20670366D01*
X7371235Y-20679890D01*
X7380759Y-20698938D01*
X7380759Y-20803700D01*
X7475997Y-20803700D02*
X7475997Y-20670366D01*
X7475997Y-20689414D02*
X7485521Y-20679890D01*
X7504568Y-20670366D01*
X7533140Y-20670366D01*
X7552187Y-20679890D01*
X7561711Y-20698938D01*
X7561711Y-20803700D01*
X7561711Y-20698938D02*
X7571235Y-20679890D01*
X7590282Y-20670366D01*
X7618854Y-20670366D01*
X7637902Y-20679890D01*
X7647425Y-20698938D01*
X7647425Y-20803700D01*
X8037902Y-20594176D02*
X7866473Y-20851319D01*
X8295044Y-20603700D02*
X8314092Y-20603700D01*
X8333140Y-20613223D01*
X8342663Y-20622747D01*
X8352187Y-20641795D01*
X8361711Y-20679890D01*
X8361711Y-20727509D01*
X8352187Y-20765604D01*
X8342663Y-20784652D01*
X8333140Y-20794176D01*
X8314092Y-20803700D01*
X8295044Y-20803700D01*
X8275997Y-20794176D01*
X8266473Y-20784652D01*
X8256949Y-20765604D01*
X8247425Y-20727509D01*
X8247425Y-20679890D01*
X8256949Y-20641795D01*
X8266473Y-20622747D01*
X8275997Y-20613223D01*
X8295044Y-20603700D01*
X8447425Y-20784652D02*
X8456949Y-20794176D01*
X8447425Y-20803700D01*
X8437902Y-20794176D01*
X8447425Y-20784652D01*
X8447425Y-20803700D01*
X8647425Y-20803700D02*
X8533140Y-20803700D01*
X8590283Y-20803700D02*
X8590283Y-20603700D01*
X8571235Y-20632271D01*
X8552187Y-20651319D01*
X8533140Y-20660842D01*
X8723616Y-20622747D02*
X8733140Y-20613223D01*
X8752187Y-20603700D01*
X8799806Y-20603700D01*
X8818854Y-20613223D01*
X8828378Y-20622747D01*
X8837902Y-20641795D01*
X8837902Y-20660842D01*
X8828378Y-20689414D01*
X8714092Y-20803700D01*
X8837902Y-20803700D01*
X9009330Y-20603700D02*
X8971235Y-20603700D01*
X8952187Y-20613223D01*
X8942664Y-20622747D01*
X8923616Y-20651319D01*
X8914092Y-20689414D01*
X8914092Y-20765604D01*
X8923616Y-20784652D01*
X8933140Y-20794176D01*
X8952187Y-20803700D01*
X8990283Y-20803700D01*
X9009330Y-20794176D01*
X9018854Y-20784652D01*
X9028378Y-20765604D01*
X9028378Y-20717985D01*
X9018854Y-20698938D01*
X9009330Y-20689414D01*
X8990283Y-20679890D01*
X8952187Y-20679890D01*
X8933140Y-20689414D01*
X8923616Y-20698938D01*
X8914092Y-20717985D01*
X9152187Y-20603700D02*
X9171235Y-20603700D01*
X9190283Y-20613223D01*
X9199806Y-20622747D01*
X9209330Y-20641795D01*
X9218854Y-20679890D01*
X9218854Y-20727509D01*
X9209330Y-20765604D01*
X9199806Y-20784652D01*
X9190283Y-20794176D01*
X9171235Y-20803700D01*
X9152187Y-20803700D01*
X9133140Y-20794176D01*
X9123616Y-20784652D01*
X9114092Y-20765604D01*
X9104568Y-20727509D01*
X9104568Y-20679890D01*
X9114092Y-20641795D01*
X9123616Y-20622747D01*
X9133140Y-20613223D01*
X9152187Y-20603700D01*
X9295044Y-20603700D02*
X9295044Y-20641795D01*
X9371235Y-20603700D02*
X9371235Y-20641795D01*
X9666473Y-20879890D02*
X9656949Y-20870366D01*
X9637902Y-20841795D01*
X9628378Y-20822747D01*
X9618854Y-20794176D01*
X9609330Y-20746557D01*
X9609330Y-20708461D01*
X9618854Y-20660842D01*
X9628378Y-20632271D01*
X9637902Y-20613223D01*
X9656949Y-20584652D01*
X9666473Y-20575128D01*
X9828378Y-20603700D02*
X9790283Y-20603700D01*
X9771235Y-20613223D01*
X9761711Y-20622747D01*
X9742664Y-20651319D01*
X9733140Y-20689414D01*
X9733140Y-20765604D01*
X9742664Y-20784652D01*
X9752187Y-20794176D01*
X9771235Y-20803700D01*
X9809330Y-20803700D01*
X9828378Y-20794176D01*
X9837902Y-20784652D01*
X9847425Y-20765604D01*
X9847425Y-20717985D01*
X9837902Y-20698938D01*
X9828378Y-20689414D01*
X9809330Y-20679890D01*
X9771235Y-20679890D01*
X9752187Y-20689414D01*
X9742664Y-20698938D01*
X9733140Y-20717985D01*
X10085521Y-20803700D02*
X10085521Y-20603700D01*
X10171235Y-20803700D02*
X10171235Y-20698938D01*
X10161711Y-20679890D01*
X10142664Y-20670366D01*
X10114092Y-20670366D01*
X10095044Y-20679890D01*
X10085521Y-20689414D01*
X10295044Y-20803700D02*
X10275997Y-20794176D01*
X10266473Y-20784652D01*
X10256949Y-20765604D01*
X10256949Y-20708461D01*
X10266473Y-20689414D01*
X10275997Y-20679890D01*
X10295044Y-20670366D01*
X10323616Y-20670366D01*
X10342664Y-20679890D01*
X10352187Y-20689414D01*
X10361711Y-20708461D01*
X10361711Y-20765604D01*
X10352187Y-20784652D01*
X10342664Y-20794176D01*
X10323616Y-20803700D01*
X10295044Y-20803700D01*
X10475997Y-20803700D02*
X10456949Y-20794176D01*
X10447425Y-20775128D01*
X10447425Y-20603700D01*
X10628378Y-20794176D02*
X10609330Y-20803700D01*
X10571235Y-20803700D01*
X10552187Y-20794176D01*
X10542664Y-20775128D01*
X10542664Y-20698938D01*
X10552187Y-20679890D01*
X10571235Y-20670366D01*
X10609330Y-20670366D01*
X10628378Y-20679890D01*
X10637902Y-20698938D01*
X10637902Y-20717985D01*
X10542664Y-20737033D01*
X10714092Y-20794176D02*
X10733140Y-20803700D01*
X10771235Y-20803700D01*
X10790283Y-20794176D01*
X10799806Y-20775128D01*
X10799806Y-20765604D01*
X10790283Y-20746557D01*
X10771235Y-20737033D01*
X10742664Y-20737033D01*
X10723616Y-20727509D01*
X10714092Y-20708461D01*
X10714092Y-20698938D01*
X10723616Y-20679890D01*
X10742664Y-20670366D01*
X10771235Y-20670366D01*
X10790283Y-20679890D01*
X10866473Y-20879890D02*
X10875997Y-20870366D01*
X10895044Y-20841795D01*
X10904568Y-20822747D01*
X10914092Y-20794176D01*
X10923616Y-20746557D01*
X10923616Y-20708461D01*
X10914092Y-20660842D01*
X10904568Y-20632271D01*
X10895044Y-20613223D01*
X10875997Y-20584652D01*
X10866473Y-20575128D01*
X11228378Y-20879890D02*
X11218854Y-20870366D01*
X11199806Y-20841795D01*
X11190282Y-20822747D01*
X11180759Y-20794176D01*
X11171235Y-20746557D01*
X11171235Y-20708461D01*
X11180759Y-20660842D01*
X11190282Y-20632271D01*
X11199806Y-20613223D01*
X11218854Y-20584652D01*
X11228378Y-20575128D01*
X11304568Y-20670366D02*
X11304568Y-20803700D01*
X11304568Y-20689414D02*
X11314092Y-20679890D01*
X11333140Y-20670366D01*
X11361711Y-20670366D01*
X11380759Y-20679890D01*
X11390282Y-20698938D01*
X11390282Y-20803700D01*
X11514092Y-20803700D02*
X11495044Y-20794176D01*
X11485521Y-20784652D01*
X11475997Y-20765604D01*
X11475997Y-20708461D01*
X11485521Y-20689414D01*
X11495044Y-20679890D01*
X11514092Y-20670366D01*
X11542663Y-20670366D01*
X11561711Y-20679890D01*
X11571235Y-20689414D01*
X11580759Y-20708461D01*
X11580759Y-20765604D01*
X11571235Y-20784652D01*
X11561711Y-20794176D01*
X11542663Y-20803700D01*
X11514092Y-20803700D01*
X11637902Y-20670366D02*
X11714092Y-20670366D01*
X11666473Y-20603700D02*
X11666473Y-20775128D01*
X11675997Y-20794176D01*
X11695044Y-20803700D01*
X11714092Y-20803700D01*
X11933140Y-20670366D02*
X11933140Y-20870366D01*
X11933140Y-20679890D02*
X11952187Y-20670366D01*
X11990282Y-20670366D01*
X12009330Y-20679890D01*
X12018854Y-20689414D01*
X12028378Y-20708461D01*
X12028378Y-20765604D01*
X12018854Y-20784652D01*
X12009330Y-20794176D01*
X11990282Y-20803700D01*
X11952187Y-20803700D01*
X11933140Y-20794176D01*
X12142663Y-20803700D02*
X12123616Y-20794176D01*
X12114092Y-20775128D01*
X12114092Y-20603700D01*
X12304568Y-20803700D02*
X12304568Y-20698938D01*
X12295044Y-20679890D01*
X12275997Y-20670366D01*
X12237902Y-20670366D01*
X12218854Y-20679890D01*
X12304568Y-20794176D02*
X12285521Y-20803700D01*
X12237902Y-20803700D01*
X12218854Y-20794176D01*
X12209330Y-20775128D01*
X12209330Y-20756081D01*
X12218854Y-20737033D01*
X12237902Y-20727509D01*
X12285521Y-20727509D01*
X12304568Y-20717985D01*
X12371235Y-20670366D02*
X12447425Y-20670366D01*
X12399806Y-20603700D02*
X12399806Y-20775128D01*
X12409330Y-20794176D01*
X12428378Y-20803700D01*
X12447425Y-20803700D01*
X12590282Y-20794176D02*
X12571235Y-20803700D01*
X12533140Y-20803700D01*
X12514092Y-20794176D01*
X12504568Y-20775128D01*
X12504568Y-20698938D01*
X12514092Y-20679890D01*
X12533140Y-20670366D01*
X12571235Y-20670366D01*
X12590282Y-20679890D01*
X12599806Y-20698938D01*
X12599806Y-20717985D01*
X12504568Y-20737033D01*
X12771235Y-20803700D02*
X12771235Y-20603700D01*
X12771235Y-20794176D02*
X12752187Y-20803700D01*
X12714092Y-20803700D01*
X12695044Y-20794176D01*
X12685521Y-20784652D01*
X12675997Y-20765604D01*
X12675997Y-20708461D01*
X12685521Y-20689414D01*
X12695044Y-20679890D01*
X12714092Y-20670366D01*
X12752187Y-20670366D01*
X12771235Y-20679890D01*
X12847425Y-20879890D02*
X12856949Y-20870366D01*
X12875997Y-20841795D01*
X12885521Y-20822747D01*
X12895044Y-20794176D01*
X12904568Y-20746557D01*
X12904568Y-20708461D01*
X12895044Y-20660842D01*
X12885521Y-20632271D01*
X12875997Y-20613223D01*
X12856949Y-20584652D01*
X12847425Y-20575128D01*
X5894568Y-20933223D02*
X6094568Y-21133223D01*
X6094568Y-20933223D02*
X5894568Y-21133223D01*
X6094568Y-21033223D02*
G75*
G03*
X6094568Y-21033223I-100000J0D01*
G01*
X6333140Y-20923700D02*
X6456949Y-20923700D01*
X6390282Y-20999890D01*
X6418854Y-20999890D01*
X6437902Y-21009414D01*
X6447425Y-21018938D01*
X6456949Y-21037985D01*
X6456949Y-21085604D01*
X6447425Y-21104652D01*
X6437902Y-21114176D01*
X6418854Y-21123700D01*
X6361711Y-21123700D01*
X6342663Y-21114176D01*
X6333140Y-21104652D01*
X6542663Y-21104652D02*
X6552187Y-21114176D01*
X6542663Y-21123700D01*
X6533140Y-21114176D01*
X6542663Y-21104652D01*
X6542663Y-21123700D01*
X6647425Y-21123700D02*
X6685521Y-21123700D01*
X6704568Y-21114176D01*
X6714092Y-21104652D01*
X6733140Y-21076081D01*
X6742663Y-21037985D01*
X6742663Y-20961795D01*
X6733140Y-20942747D01*
X6723616Y-20933223D01*
X6704568Y-20923700D01*
X6666473Y-20923700D01*
X6647425Y-20933223D01*
X6637902Y-20942747D01*
X6628378Y-20961795D01*
X6628378Y-21009414D01*
X6637902Y-21028461D01*
X6647425Y-21037985D01*
X6666473Y-21047509D01*
X6704568Y-21047509D01*
X6723616Y-21037985D01*
X6733140Y-21028461D01*
X6742663Y-21009414D01*
X6856949Y-21009414D02*
X6837902Y-20999890D01*
X6828378Y-20990366D01*
X6818854Y-20971319D01*
X6818854Y-20961795D01*
X6828378Y-20942747D01*
X6837902Y-20933223D01*
X6856949Y-20923700D01*
X6895044Y-20923700D01*
X6914092Y-20933223D01*
X6923616Y-20942747D01*
X6933140Y-20961795D01*
X6933140Y-20971319D01*
X6923616Y-20990366D01*
X6914092Y-20999890D01*
X6895044Y-21009414D01*
X6856949Y-21009414D01*
X6837902Y-21018938D01*
X6828378Y-21028461D01*
X6818854Y-21047509D01*
X6818854Y-21085604D01*
X6828378Y-21104652D01*
X6837902Y-21114176D01*
X6856949Y-21123700D01*
X6895044Y-21123700D01*
X6914092Y-21114176D01*
X6923616Y-21104652D01*
X6933140Y-21085604D01*
X6933140Y-21047509D01*
X6923616Y-21028461D01*
X6914092Y-21018938D01*
X6895044Y-21009414D01*
X7047425Y-21009414D02*
X7028378Y-20999890D01*
X7018854Y-20990366D01*
X7009330Y-20971319D01*
X7009330Y-20961795D01*
X7018854Y-20942747D01*
X7028378Y-20933223D01*
X7047425Y-20923700D01*
X7085521Y-20923700D01*
X7104568Y-20933223D01*
X7114092Y-20942747D01*
X7123616Y-20961795D01*
X7123616Y-20971319D01*
X7114092Y-20990366D01*
X7104568Y-20999890D01*
X7085521Y-21009414D01*
X7047425Y-21009414D01*
X7028378Y-21018938D01*
X7018854Y-21028461D01*
X7009330Y-21047509D01*
X7009330Y-21085604D01*
X7018854Y-21104652D01*
X7028378Y-21114176D01*
X7047425Y-21123700D01*
X7085521Y-21123700D01*
X7104568Y-21114176D01*
X7114092Y-21104652D01*
X7123616Y-21085604D01*
X7123616Y-21047509D01*
X7114092Y-21028461D01*
X7104568Y-21018938D01*
X7085521Y-21009414D01*
X7209330Y-21123700D02*
X7209330Y-20990366D01*
X7209330Y-21009414D02*
X7218854Y-20999890D01*
X7237902Y-20990366D01*
X7266473Y-20990366D01*
X7285521Y-20999890D01*
X7295044Y-21018938D01*
X7295044Y-21123700D01*
X7295044Y-21018938D02*
X7304568Y-20999890D01*
X7323616Y-20990366D01*
X7352187Y-20990366D01*
X7371235Y-20999890D01*
X7380759Y-21018938D01*
X7380759Y-21123700D01*
X7475997Y-21123700D02*
X7475997Y-20990366D01*
X7475997Y-21009414D02*
X7485521Y-20999890D01*
X7504568Y-20990366D01*
X7533140Y-20990366D01*
X7552187Y-20999890D01*
X7561711Y-21018938D01*
X7561711Y-21123700D01*
X7561711Y-21018938D02*
X7571235Y-20999890D01*
X7590282Y-20990366D01*
X7618854Y-20990366D01*
X7637902Y-20999890D01*
X7647425Y-21018938D01*
X7647425Y-21123700D01*
X8037902Y-20914176D02*
X7866473Y-21171319D01*
X8295044Y-20923700D02*
X8314092Y-20923700D01*
X8333140Y-20933223D01*
X8342663Y-20942747D01*
X8352187Y-20961795D01*
X8361711Y-20999890D01*
X8361711Y-21047509D01*
X8352187Y-21085604D01*
X8342663Y-21104652D01*
X8333140Y-21114176D01*
X8314092Y-21123700D01*
X8295044Y-21123700D01*
X8275997Y-21114176D01*
X8266473Y-21104652D01*
X8256949Y-21085604D01*
X8247425Y-21047509D01*
X8247425Y-20999890D01*
X8256949Y-20961795D01*
X8266473Y-20942747D01*
X8275997Y-20933223D01*
X8295044Y-20923700D01*
X8447425Y-21104652D02*
X8456949Y-21114176D01*
X8447425Y-21123700D01*
X8437902Y-21114176D01*
X8447425Y-21104652D01*
X8447425Y-21123700D01*
X8647425Y-21123700D02*
X8533140Y-21123700D01*
X8590283Y-21123700D02*
X8590283Y-20923700D01*
X8571235Y-20952271D01*
X8552187Y-20971319D01*
X8533140Y-20980842D01*
X8828378Y-20923700D02*
X8733140Y-20923700D01*
X8723616Y-21018938D01*
X8733140Y-21009414D01*
X8752187Y-20999890D01*
X8799806Y-20999890D01*
X8818854Y-21009414D01*
X8828378Y-21018938D01*
X8837902Y-21037985D01*
X8837902Y-21085604D01*
X8828378Y-21104652D01*
X8818854Y-21114176D01*
X8799806Y-21123700D01*
X8752187Y-21123700D01*
X8733140Y-21114176D01*
X8723616Y-21104652D01*
X8904568Y-20923700D02*
X9037902Y-20923700D01*
X8952187Y-21123700D01*
X9152187Y-20923700D02*
X9171235Y-20923700D01*
X9190283Y-20933223D01*
X9199806Y-20942747D01*
X9209330Y-20961795D01*
X9218854Y-20999890D01*
X9218854Y-21047509D01*
X9209330Y-21085604D01*
X9199806Y-21104652D01*
X9190283Y-21114176D01*
X9171235Y-21123700D01*
X9152187Y-21123700D01*
X9133140Y-21114176D01*
X9123616Y-21104652D01*
X9114092Y-21085604D01*
X9104568Y-21047509D01*
X9104568Y-20999890D01*
X9114092Y-20961795D01*
X9123616Y-20942747D01*
X9133140Y-20933223D01*
X9152187Y-20923700D01*
X9295044Y-20923700D02*
X9295044Y-20961795D01*
X9371235Y-20923700D02*
X9371235Y-20961795D01*
X9666473Y-21199890D02*
X9656949Y-21190366D01*
X9637902Y-21161795D01*
X9628378Y-21142747D01*
X9618854Y-21114176D01*
X9609330Y-21066557D01*
X9609330Y-21028461D01*
X9618854Y-20980842D01*
X9628378Y-20952271D01*
X9637902Y-20933223D01*
X9656949Y-20904652D01*
X9666473Y-20895128D01*
X9837902Y-20923700D02*
X9742664Y-20923700D01*
X9733140Y-21018938D01*
X9742664Y-21009414D01*
X9761711Y-20999890D01*
X9809330Y-20999890D01*
X9828378Y-21009414D01*
X9837902Y-21018938D01*
X9847425Y-21037985D01*
X9847425Y-21085604D01*
X9837902Y-21104652D01*
X9828378Y-21114176D01*
X9809330Y-21123700D01*
X9761711Y-21123700D01*
X9742664Y-21114176D01*
X9733140Y-21104652D01*
X9914092Y-20923700D02*
X10047425Y-20923700D01*
X9961711Y-21123700D01*
X10275997Y-21123700D02*
X10275997Y-20923700D01*
X10361711Y-21123700D02*
X10361711Y-21018938D01*
X10352187Y-20999890D01*
X10333140Y-20990366D01*
X10304568Y-20990366D01*
X10285521Y-20999890D01*
X10275997Y-21009414D01*
X10485521Y-21123700D02*
X10466473Y-21114176D01*
X10456949Y-21104652D01*
X10447425Y-21085604D01*
X10447425Y-21028461D01*
X10456949Y-21009414D01*
X10466473Y-20999890D01*
X10485521Y-20990366D01*
X10514092Y-20990366D01*
X10533140Y-20999890D01*
X10542664Y-21009414D01*
X10552187Y-21028461D01*
X10552187Y-21085604D01*
X10542664Y-21104652D01*
X10533140Y-21114176D01*
X10514092Y-21123700D01*
X10485521Y-21123700D01*
X10666473Y-21123700D02*
X10647425Y-21114176D01*
X10637902Y-21095128D01*
X10637902Y-20923700D01*
X10818854Y-21114176D02*
X10799806Y-21123700D01*
X10761711Y-21123700D01*
X10742664Y-21114176D01*
X10733140Y-21095128D01*
X10733140Y-21018938D01*
X10742664Y-20999890D01*
X10761711Y-20990366D01*
X10799806Y-20990366D01*
X10818854Y-20999890D01*
X10828378Y-21018938D01*
X10828378Y-21037985D01*
X10733140Y-21057033D01*
X10904568Y-21114176D02*
X10923616Y-21123700D01*
X10961711Y-21123700D01*
X10980759Y-21114176D01*
X10990283Y-21095128D01*
X10990283Y-21085604D01*
X10980759Y-21066557D01*
X10961711Y-21057033D01*
X10933140Y-21057033D01*
X10914092Y-21047509D01*
X10904568Y-21028461D01*
X10904568Y-21018938D01*
X10914092Y-20999890D01*
X10933140Y-20990366D01*
X10961711Y-20990366D01*
X10980759Y-20999890D01*
X11056949Y-21199890D02*
X11066473Y-21190366D01*
X11085521Y-21161795D01*
X11095044Y-21142747D01*
X11104568Y-21114176D01*
X11114092Y-21066557D01*
X11114092Y-21028461D01*
X11104568Y-20980842D01*
X11095044Y-20952271D01*
X11085521Y-20933223D01*
X11066473Y-20904652D01*
X11056949Y-20895128D01*
X11418854Y-21199890D02*
X11409330Y-21190366D01*
X11390282Y-21161795D01*
X11380759Y-21142747D01*
X11371235Y-21114176D01*
X11361711Y-21066557D01*
X11361711Y-21028461D01*
X11371235Y-20980842D01*
X11380759Y-20952271D01*
X11390282Y-20933223D01*
X11409330Y-20904652D01*
X11418854Y-20895128D01*
X11495044Y-20990366D02*
X11495044Y-21123700D01*
X11495044Y-21009414D02*
X11504568Y-20999890D01*
X11523616Y-20990366D01*
X11552187Y-20990366D01*
X11571235Y-20999890D01*
X11580759Y-21018938D01*
X11580759Y-21123700D01*
X11704568Y-21123700D02*
X11685521Y-21114176D01*
X11675997Y-21104652D01*
X11666473Y-21085604D01*
X11666473Y-21028461D01*
X11675997Y-21009414D01*
X11685521Y-20999890D01*
X11704568Y-20990366D01*
X11733140Y-20990366D01*
X11752187Y-20999890D01*
X11761711Y-21009414D01*
X11771235Y-21028461D01*
X11771235Y-21085604D01*
X11761711Y-21104652D01*
X11752187Y-21114176D01*
X11733140Y-21123700D01*
X11704568Y-21123700D01*
X11828378Y-20990366D02*
X11904568Y-20990366D01*
X11856949Y-20923700D02*
X11856949Y-21095128D01*
X11866473Y-21114176D01*
X11885521Y-21123700D01*
X11904568Y-21123700D01*
X12123616Y-20990366D02*
X12123616Y-21190366D01*
X12123616Y-20999890D02*
X12142663Y-20990366D01*
X12180759Y-20990366D01*
X12199806Y-20999890D01*
X12209330Y-21009414D01*
X12218854Y-21028461D01*
X12218854Y-21085604D01*
X12209330Y-21104652D01*
X12199806Y-21114176D01*
X12180759Y-21123700D01*
X12142663Y-21123700D01*
X12123616Y-21114176D01*
X12333140Y-21123700D02*
X12314092Y-21114176D01*
X12304568Y-21095128D01*
X12304568Y-20923700D01*
X12495044Y-21123700D02*
X12495044Y-21018938D01*
X12485521Y-20999890D01*
X12466473Y-20990366D01*
X12428378Y-20990366D01*
X12409330Y-20999890D01*
X12495044Y-21114176D02*
X12475997Y-21123700D01*
X12428378Y-21123700D01*
X12409330Y-21114176D01*
X12399806Y-21095128D01*
X12399806Y-21076081D01*
X12409330Y-21057033D01*
X12428378Y-21047509D01*
X12475997Y-21047509D01*
X12495044Y-21037985D01*
X12561711Y-20990366D02*
X12637902Y-20990366D01*
X12590282Y-20923700D02*
X12590282Y-21095128D01*
X12599806Y-21114176D01*
X12618854Y-21123700D01*
X12637902Y-21123700D01*
X12780759Y-21114176D02*
X12761711Y-21123700D01*
X12723616Y-21123700D01*
X12704568Y-21114176D01*
X12695044Y-21095128D01*
X12695044Y-21018938D01*
X12704568Y-20999890D01*
X12723616Y-20990366D01*
X12761711Y-20990366D01*
X12780759Y-20999890D01*
X12790282Y-21018938D01*
X12790282Y-21037985D01*
X12695044Y-21057033D01*
X12961711Y-21123700D02*
X12961711Y-20923700D01*
X12961711Y-21114176D02*
X12942663Y-21123700D01*
X12904568Y-21123700D01*
X12885521Y-21114176D01*
X12875997Y-21104652D01*
X12866473Y-21085604D01*
X12866473Y-21028461D01*
X12875997Y-21009414D01*
X12885521Y-20999890D01*
X12904568Y-20990366D01*
X12942663Y-20990366D01*
X12961711Y-20999890D01*
X13037902Y-21199890D02*
X13047425Y-21190366D01*
X13066473Y-21161795D01*
X13075997Y-21142747D01*
X13085521Y-21114176D01*
X13095044Y-21066557D01*
X13095044Y-21028461D01*
X13085521Y-20980842D01*
X13075997Y-20952271D01*
X13066473Y-20933223D01*
X13047425Y-20904652D01*
X13037902Y-20895128D01*
M02*
