G04 #@! TF.GenerationSoftware,KiCad,Pcbnew,(6.0.7)*
G04 #@! TF.CreationDate,2022-12-18T23:36:24-08:00*
G04 #@! TF.ProjectId,openot rev2,6f70656e-6f74-4207-9265-76322e6b6963,rev?*
G04 #@! TF.SameCoordinates,Original*
G04 #@! TF.FileFunction,Paste,Bot*
G04 #@! TF.FilePolarity,Positive*
%FSLAX46Y46*%
G04 Gerber Fmt 4.6, Leading zero omitted, Abs format (unit mm)*
G04 Created by KiCad (PCBNEW (6.0.7)) date 2022-12-18 23:36:24*
%MOMM*%
%LPD*%
G01*
G04 APERTURE LIST*
G04 Aperture macros list*
%AMRoundRect*
0 Rectangle with rounded corners*
0 $1 Rounding radius*
0 $2 $3 $4 $5 $6 $7 $8 $9 X,Y pos of 4 corners*
0 Add a 4 corners polygon primitive as box body*
4,1,4,$2,$3,$4,$5,$6,$7,$8,$9,$2,$3,0*
0 Add four circle primitives for the rounded corners*
1,1,$1+$1,$2,$3*
1,1,$1+$1,$4,$5*
1,1,$1+$1,$6,$7*
1,1,$1+$1,$8,$9*
0 Add four rect primitives between the rounded corners*
20,1,$1+$1,$2,$3,$4,$5,0*
20,1,$1+$1,$4,$5,$6,$7,0*
20,1,$1+$1,$6,$7,$8,$9,0*
20,1,$1+$1,$8,$9,$2,$3,0*%
G04 Aperture macros list end*
%ADD10R,2.550000X2.500000*%
%ADD11RoundRect,0.250001X-0.462499X-0.624999X0.462499X-0.624999X0.462499X0.624999X-0.462499X0.624999X0*%
%ADD12R,1.970000X0.600000*%
%ADD13RoundRect,0.250001X0.462499X0.624999X-0.462499X0.624999X-0.462499X-0.624999X0.462499X-0.624999X0*%
%ADD14R,2.000000X0.650000*%
%ADD15R,1.800000X0.600000*%
%ADD16RoundRect,0.250001X-0.624999X0.462499X-0.624999X-0.462499X0.624999X-0.462499X0.624999X0.462499X0*%
%ADD17RoundRect,0.250001X0.624999X-0.462499X0.624999X0.462499X-0.624999X0.462499X-0.624999X-0.462499X0*%
G04 APERTURE END LIST*
D10*
X161343800Y-128613600D03*
X147493800Y-131153600D03*
X122578533Y-89942285D03*
X108728533Y-92482285D03*
X122558000Y-167120000D03*
X108708000Y-169660000D03*
X238686800Y-128613600D03*
X224836800Y-131153600D03*
X238864600Y-167120000D03*
X225014600Y-169660000D03*
X200083667Y-147676115D03*
X186233667Y-150216115D03*
X84000800Y-109309600D03*
X70150800Y-111849600D03*
X180647800Y-109309600D03*
X166797800Y-111849600D03*
X180470000Y-167120000D03*
X166620000Y-169660000D03*
X277371000Y-167120000D03*
X263521000Y-169660000D03*
X83970533Y-89942285D03*
X70120533Y-92482285D03*
X142039800Y-109309600D03*
X128189800Y-111849600D03*
X103254000Y-167120000D03*
X89404000Y-169660000D03*
X103304800Y-128613600D03*
X89454800Y-131153600D03*
X122608800Y-147714400D03*
X108758800Y-150254400D03*
X84000800Y-147714400D03*
X70150800Y-150254400D03*
X258117800Y-147714400D03*
X244267800Y-150254400D03*
X103304800Y-147714400D03*
X89454800Y-150254400D03*
X180779667Y-147676115D03*
X166929667Y-150216115D03*
X361495801Y-172250801D03*
X347645801Y-174790801D03*
X200048533Y-89942285D03*
X186198533Y-92482285D03*
X161313533Y-89942285D03*
X147463533Y-92482285D03*
X238686800Y-109309600D03*
X224836800Y-111849600D03*
X200078800Y-109309600D03*
X186228800Y-111849600D03*
X200078800Y-128613600D03*
X186228800Y-131153600D03*
X142009533Y-89942285D03*
X128159533Y-92482285D03*
X142039800Y-147714400D03*
X128189800Y-150254400D03*
X258117800Y-109309600D03*
X244267800Y-111849600D03*
X122608800Y-109309600D03*
X108758800Y-111849600D03*
X277421800Y-109309600D03*
X263571800Y-111849600D03*
X277391533Y-89942285D03*
X263541533Y-92482285D03*
X238656533Y-89942285D03*
X224806533Y-92482285D03*
X238818667Y-147676115D03*
X224968667Y-150216115D03*
X277421800Y-147714400D03*
X263571800Y-150254400D03*
X122608800Y-128613600D03*
X108758800Y-131153600D03*
X161343800Y-109309600D03*
X147493800Y-111849600D03*
X180617533Y-89942285D03*
X166767533Y-92482285D03*
X342191801Y-172250801D03*
X328341801Y-174790801D03*
X142039800Y-128613600D03*
X128189800Y-131153600D03*
X322887800Y-172250801D03*
X309037800Y-174790801D03*
X219387667Y-147676115D03*
X205537667Y-150216115D03*
X219352533Y-89942285D03*
X205502533Y-92482285D03*
X258067000Y-167120000D03*
X244217000Y-169660000D03*
X103274533Y-89942285D03*
X89424533Y-92482285D03*
X83950000Y-167120000D03*
X70100000Y-169660000D03*
X303660000Y-172250800D03*
X289810000Y-174790800D03*
X258117800Y-128613600D03*
X244267800Y-131153600D03*
X180647800Y-128613600D03*
X166797800Y-131153600D03*
X103304800Y-109309600D03*
X89454800Y-111849600D03*
X277421800Y-128613600D03*
X263571800Y-131153600D03*
X219382800Y-109309600D03*
X205532800Y-111849600D03*
X161343800Y-147714400D03*
X147493800Y-150254400D03*
X84000800Y-128613600D03*
X70150800Y-131153600D03*
X258087533Y-89942285D03*
X244237533Y-92482285D03*
X219382800Y-128613600D03*
X205532800Y-131153600D03*
D11*
X336588183Y-129928234D03*
X339563183Y-129928234D03*
D12*
X317840683Y-122674234D03*
X317840683Y-123944234D03*
X317840683Y-125214234D03*
X317840683Y-126484234D03*
X317840683Y-127754234D03*
X317840683Y-129024234D03*
X317840683Y-130294234D03*
X312890683Y-130294234D03*
X312890683Y-129024234D03*
X312890683Y-127754234D03*
X312890683Y-126484234D03*
X312890683Y-125214234D03*
X312890683Y-123944234D03*
X312890683Y-122674234D03*
D13*
X318481183Y-135770234D03*
X315506183Y-135770234D03*
D14*
X341005683Y-140034234D03*
X341005683Y-138134234D03*
X344425683Y-139084234D03*
D13*
X339563183Y-143898234D03*
X336588183Y-143898234D03*
D15*
X339315683Y-120284234D03*
X339315683Y-121234234D03*
X339315683Y-122184234D03*
X336715683Y-122184234D03*
X336715683Y-120284234D03*
D13*
X339563183Y-125864234D03*
X336588183Y-125864234D03*
D16*
X334215683Y-113696734D03*
X334215683Y-116671734D03*
D17*
X338015683Y-116721734D03*
X338015683Y-113746734D03*
X331565683Y-116671734D03*
X331565683Y-113696734D03*
D13*
X339563183Y-134246234D03*
X336588183Y-134246234D03*
D11*
X328478183Y-140284234D03*
X331453183Y-140284234D03*
M02*
