%TF.GenerationSoftware,KiCad,Pcbnew,(6.0.7)*%
%TF.CreationDate,2022-11-04T00:09:08-07:00*%
%TF.ProjectId,gigan rev2,67696761-6e20-4726-9576-322e6b696361,rev?*%
%TF.SameCoordinates,Original*%
%TF.FileFunction,Drillmap*%
%TF.FilePolarity,Positive*%
%FSLAX45Y45*%
G04 Gerber Fmt 4.5, Leading zero omitted, Abs format (unit mm)*
G04 Created by KiCad (PCBNEW (6.0.7)) date 2022-11-04 00:09:08*
%MOMM*%
%LPD*%
G01*
G04 APERTURE LIST*
%ADD10C,0.100000*%
%ADD11C,0.200000*%
%ADD12C,0.080000*%
%ADD13C,0.170000*%
%ADD14C,0.175000*%
%ADD15C,0.220000*%
%ADD16C,0.398780*%
G04 APERTURE END LIST*
D10*
X20651822Y-14649832D02*
X21401822Y-14649832D01*
X20601822Y-14599832D02*
X20601822Y-13024832D01*
X34999880Y-5734120D02*
X36386720Y-13887520D01*
X7125920Y-5734120D02*
X18820080Y-7796600D01*
X24674780Y-19239300D02*
X17395140Y-19234220D01*
X20651822Y-12974832D02*
X21401822Y-12974832D01*
X20601818Y-14599832D02*
G75*
G03*
X20651822Y-14649832I50002J2D01*
G01*
X19958000Y-7039680D02*
X22274480Y-7039680D01*
X5794960Y-13669080D02*
X7125920Y-5734120D01*
X18820080Y-7796600D02*
X19958000Y-7039680D01*
X32851040Y-16452920D02*
X24674780Y-19239300D01*
X9244280Y-16310680D02*
X5794960Y-13669080D01*
X21451822Y-13024832D02*
X21451822Y-14599832D01*
X23265080Y-7776280D02*
X34999880Y-5734120D01*
X17395140Y-19234220D02*
X9244280Y-16310680D01*
X22274480Y-7039680D02*
X23265080Y-7776280D01*
X21451818Y-13024832D02*
G75*
G03*
X21401822Y-12974832I-49998J2D01*
G01*
X36386720Y-13887520D02*
X32851040Y-16452920D01*
X21401822Y-14649832D02*
G75*
G03*
X21451822Y-14599832I-2J50002D01*
G01*
X20651822Y-12974832D02*
G75*
G03*
X20601822Y-13024832I-2J-49998D01*
G01*
D11*
D12*
X6444999Y-13133852D02*
X6524999Y-13213852D01*
X6524999Y-13133852D02*
X6444999Y-13213852D01*
X6776971Y-11221891D02*
X6856971Y-11301891D01*
X6856971Y-11221891D02*
X6776971Y-11301891D01*
X7102768Y-9344950D02*
X7182768Y-9424950D01*
X7182768Y-9344950D02*
X7102768Y-9424950D01*
X7434740Y-7432990D02*
X7514740Y-7512990D01*
X7514740Y-7432990D02*
X7434740Y-7512990D01*
X8341069Y-13468180D02*
X8421069Y-13548180D01*
X8421069Y-13468180D02*
X8341069Y-13548180D01*
X8673041Y-11556219D02*
X8753041Y-11636219D01*
X8753041Y-11556219D02*
X8673041Y-11636219D01*
X8998838Y-9679279D02*
X9078838Y-9759279D01*
X9078838Y-9679279D02*
X8998838Y-9759279D01*
X9330810Y-7767318D02*
X9410810Y-7847318D01*
X9410810Y-7767318D02*
X9330810Y-7847318D01*
X9892805Y-15696814D02*
X9972805Y-15776814D01*
X9972805Y-15696814D02*
X9892805Y-15776814D01*
X10227133Y-13800744D02*
X10307133Y-13880744D01*
X10307133Y-13800744D02*
X10227133Y-13880744D01*
X10559105Y-11888783D02*
X10639105Y-11968783D01*
X10639105Y-11888783D02*
X10559105Y-11968783D01*
X10884902Y-10011843D02*
X10964902Y-10091843D01*
X10964902Y-10011843D02*
X10884902Y-10091843D01*
X11216874Y-8099882D02*
X11296874Y-8179882D01*
X11296874Y-8099882D02*
X11216874Y-8179882D01*
X11788875Y-16031143D02*
X11868875Y-16111143D01*
X11868875Y-16031143D02*
X11788875Y-16111143D01*
X12123203Y-14135072D02*
X12203203Y-14215072D01*
X12203203Y-14135072D02*
X12123203Y-14215072D01*
X12455175Y-12223112D02*
X12535175Y-12303112D01*
X12535175Y-12223112D02*
X12455175Y-12303112D01*
X12780972Y-10346171D02*
X12860972Y-10426171D01*
X12860972Y-10346171D02*
X12780972Y-10426171D01*
X13112944Y-8434210D02*
X13192944Y-8514210D01*
X13192944Y-8434210D02*
X13112944Y-8514210D01*
X13689948Y-16366353D02*
X13769948Y-16446353D01*
X13769948Y-16366353D02*
X13689948Y-16446353D01*
X14024276Y-14470283D02*
X14104276Y-14550283D01*
X14104276Y-14470283D02*
X14024276Y-14550283D01*
X14356248Y-12558322D02*
X14436248Y-12638322D01*
X14436248Y-12558322D02*
X14356248Y-12638322D01*
X14682045Y-10681382D02*
X14762045Y-10761382D01*
X14762045Y-10681382D02*
X14682045Y-10761382D01*
X15014017Y-8769421D02*
X15094017Y-8849421D01*
X15094017Y-8769421D02*
X15014017Y-8849421D01*
X15586018Y-16700681D02*
X15666018Y-16780681D01*
X15666018Y-16700681D02*
X15586018Y-16780681D01*
X15920346Y-14804611D02*
X16000346Y-14884611D01*
X16000346Y-14804611D02*
X15920346Y-14884611D01*
X16252318Y-12892651D02*
X16332318Y-12972651D01*
X16332318Y-12892651D02*
X16252318Y-12972651D01*
X16578115Y-11015710D02*
X16658115Y-11095710D01*
X16658115Y-11015710D02*
X16578115Y-11095710D01*
X16910087Y-9103749D02*
X16990087Y-9183749D01*
X16990087Y-9103749D02*
X16910087Y-9183749D01*
X18070120Y-18453440D02*
X18150120Y-18533440D01*
X18150120Y-18453440D02*
X18070120Y-18533440D01*
X22875800Y-18473760D02*
X22955800Y-18553760D01*
X22955800Y-18473760D02*
X22875800Y-18553760D01*
X24002767Y-9298738D02*
X24082767Y-9378738D01*
X24082767Y-9298738D02*
X24002767Y-9378738D01*
X24344744Y-11208934D02*
X24424744Y-11288934D01*
X24424744Y-11208934D02*
X24344744Y-11288934D01*
X24680547Y-13084110D02*
X24760547Y-13164110D01*
X24760547Y-13084110D02*
X24680547Y-13164110D01*
X25022524Y-14994307D02*
X25102524Y-15074307D01*
X25102524Y-14994307D02*
X25022524Y-15074307D01*
X25355434Y-16894770D02*
X25435434Y-16974770D01*
X25435434Y-16894770D02*
X25355434Y-16974770D01*
X25898837Y-8964409D02*
X25978837Y-9044409D01*
X25978837Y-8964409D02*
X25898837Y-9044409D01*
X26240814Y-10874605D02*
X26320814Y-10954605D01*
X26320814Y-10874605D02*
X26240814Y-10954605D01*
X26576617Y-12749782D02*
X26656617Y-12829782D01*
X26656617Y-12749782D02*
X26576617Y-12829782D01*
X26918594Y-14659978D02*
X26998594Y-14739978D01*
X26998594Y-14659978D02*
X26918594Y-14739978D01*
X27251504Y-16560442D02*
X27331504Y-16640442D01*
X27331504Y-16560442D02*
X27251504Y-16640442D01*
X27794907Y-8630081D02*
X27874907Y-8710081D01*
X27874907Y-8630081D02*
X27794907Y-8710081D01*
X28136884Y-10540277D02*
X28216884Y-10620277D01*
X28216884Y-10540277D02*
X28136884Y-10620277D01*
X28472687Y-12415454D02*
X28552687Y-12495454D01*
X28552687Y-12415454D02*
X28472687Y-12495454D01*
X28814665Y-14325650D02*
X28894665Y-14405650D01*
X28894665Y-14325650D02*
X28814665Y-14405650D01*
X29152577Y-16225231D02*
X29232577Y-16305231D01*
X29232577Y-16225231D02*
X29152577Y-16305231D01*
X29690977Y-8295752D02*
X29770977Y-8375752D01*
X29770977Y-8295752D02*
X29690977Y-8375752D01*
X30032954Y-10205949D02*
X30112954Y-10285949D01*
X30112954Y-10205949D02*
X30032954Y-10285949D01*
X30368757Y-12081126D02*
X30448757Y-12161126D01*
X30448757Y-12081126D02*
X30368757Y-12161126D01*
X30710735Y-13991322D02*
X30790735Y-14071322D01*
X30790735Y-13991322D02*
X30710735Y-14071322D01*
X31048647Y-15890903D02*
X31128647Y-15970903D01*
X31128647Y-15890903D02*
X31048647Y-15970903D01*
X31577041Y-7963188D02*
X31657041Y-8043188D01*
X31657041Y-7963188D02*
X31577041Y-8043188D01*
X31919019Y-9873385D02*
X31999019Y-9953385D01*
X31999019Y-9873385D02*
X31919019Y-9953385D01*
X32254821Y-11748561D02*
X32334821Y-11828561D01*
X32334821Y-11748561D02*
X32254821Y-11828561D01*
X32596799Y-13658758D02*
X32676799Y-13738758D01*
X32676799Y-13658758D02*
X32596799Y-13738758D01*
X33473111Y-7628860D02*
X33553111Y-7708860D01*
X33553111Y-7628860D02*
X33473111Y-7708860D01*
X33815089Y-9539057D02*
X33895089Y-9619057D01*
X33895089Y-9539057D02*
X33815089Y-9619057D01*
X34150892Y-11414233D02*
X34230892Y-11494233D01*
X34230892Y-11414233D02*
X34150892Y-11494233D01*
X34492869Y-13324429D02*
X34572869Y-13404429D01*
X34572869Y-13324429D02*
X34492869Y-13404429D01*
D13*
X6615356Y-12755370D02*
G75*
G03*
X6615356Y-12755370I-85000J0D01*
G01*
X6947328Y-10843410D02*
G75*
G03*
X6947328Y-10843410I-85000J0D01*
G01*
X7273125Y-8966469D02*
G75*
G03*
X7273125Y-8966469I-85000J0D01*
G01*
X7605097Y-7054508D02*
G75*
G03*
X7605097Y-7054508I-85000J0D01*
G01*
X7698645Y-12946383D02*
G75*
G03*
X7698645Y-12946383I-85000J0D01*
G01*
X8030617Y-11034423D02*
G75*
G03*
X8030617Y-11034423I-85000J0D01*
G01*
X8356414Y-9157482D02*
G75*
G03*
X8356414Y-9157482I-85000J0D01*
G01*
X8511427Y-13089699D02*
G75*
G03*
X8511427Y-13089699I-85000J0D01*
G01*
X8688386Y-7245521D02*
G75*
G03*
X8688386Y-7245521I-85000J0D01*
G01*
X8843398Y-11177738D02*
G75*
G03*
X8843398Y-11177738I-85000J0D01*
G01*
X9169195Y-9300797D02*
G75*
G03*
X9169195Y-9300797I-85000J0D01*
G01*
X9501167Y-7388836D02*
G75*
G03*
X9501167Y-7388836I-85000J0D01*
G01*
X9594715Y-13280712D02*
G75*
G03*
X9594715Y-13280712I-85000J0D01*
G01*
X9926687Y-11368751D02*
G75*
G03*
X9926687Y-11368751I-85000J0D01*
G01*
X10063163Y-15318333D02*
G75*
G03*
X10063163Y-15318333I-85000J0D01*
G01*
X10252484Y-9491810D02*
G75*
G03*
X10252484Y-9491810I-85000J0D01*
G01*
X10397491Y-13422263D02*
G75*
G03*
X10397491Y-13422263I-85000J0D01*
G01*
X10584456Y-7579849D02*
G75*
G03*
X10584456Y-7579849I-85000J0D01*
G01*
X10729463Y-11510302D02*
G75*
G03*
X10729463Y-11510302I-85000J0D01*
G01*
X11055260Y-9633361D02*
G75*
G03*
X11055260Y-9633361I-85000J0D01*
G01*
X11146451Y-15509346D02*
G75*
G03*
X11146451Y-15509346I-85000J0D01*
G01*
X11387232Y-7721401D02*
G75*
G03*
X11387232Y-7721401I-85000J0D01*
G01*
X11480779Y-13613276D02*
G75*
G03*
X11480779Y-13613276I-85000J0D01*
G01*
X11812751Y-11701315D02*
G75*
G03*
X11812751Y-11701315I-85000J0D01*
G01*
X11959233Y-15652661D02*
G75*
G03*
X11959233Y-15652661I-85000J0D01*
G01*
X12138548Y-9824374D02*
G75*
G03*
X12138548Y-9824374I-85000J0D01*
G01*
X12293561Y-13756591D02*
G75*
G03*
X12293561Y-13756591I-85000J0D01*
G01*
X12470520Y-7912414D02*
G75*
G03*
X12470520Y-7912414I-85000J0D01*
G01*
X12625533Y-11844630D02*
G75*
G03*
X12625533Y-11844630I-85000J0D01*
G01*
X12951330Y-9967690D02*
G75*
G03*
X12951330Y-9967690I-85000J0D01*
G01*
X13042521Y-15843674D02*
G75*
G03*
X13042521Y-15843674I-85000J0D01*
G01*
X13283302Y-8055729D02*
G75*
G03*
X13283302Y-8055729I-85000J0D01*
G01*
X13376850Y-13947604D02*
G75*
G03*
X13376850Y-13947604I-85000J0D01*
G01*
X13708821Y-12035643D02*
G75*
G03*
X13708821Y-12035643I-85000J0D01*
G01*
X13860306Y-15987872D02*
G75*
G03*
X13860306Y-15987872I-85000J0D01*
G01*
X14034618Y-10158703D02*
G75*
G03*
X14034618Y-10158703I-85000J0D01*
G01*
X14194634Y-14091802D02*
G75*
G03*
X14194634Y-14091802I-85000J0D01*
G01*
X14366590Y-8246742D02*
G75*
G03*
X14366590Y-8246742I-85000J0D01*
G01*
X14526606Y-12179841D02*
G75*
G03*
X14526606Y-12179841I-85000J0D01*
G01*
X14852403Y-10302900D02*
G75*
G03*
X14852403Y-10302900I-85000J0D01*
G01*
X14943594Y-16178885D02*
G75*
G03*
X14943594Y-16178885I-85000J0D01*
G01*
X15184375Y-8390939D02*
G75*
G03*
X15184375Y-8390939I-85000J0D01*
G01*
X15277923Y-14282815D02*
G75*
G03*
X15277923Y-14282815I-85000J0D01*
G01*
X15609894Y-12370854D02*
G75*
G03*
X15609894Y-12370854I-85000J0D01*
G01*
X15756376Y-16322200D02*
G75*
G03*
X15756376Y-16322200I-85000J0D01*
G01*
X15935691Y-10493913D02*
G75*
G03*
X15935691Y-10493913I-85000J0D01*
G01*
X16090704Y-14426130D02*
G75*
G03*
X16090704Y-14426130I-85000J0D01*
G01*
X16267663Y-8581952D02*
G75*
G03*
X16267663Y-8581952I-85000J0D01*
G01*
X16422676Y-12514169D02*
G75*
G03*
X16422676Y-12514169I-85000J0D01*
G01*
X16748473Y-10637228D02*
G75*
G03*
X16748473Y-10637228I-85000J0D01*
G01*
X16839664Y-16513213D02*
G75*
G03*
X16839664Y-16513213I-85000J0D01*
G01*
X17080445Y-8725268D02*
G75*
G03*
X17080445Y-8725268I-85000J0D01*
G01*
X17173993Y-14617143D02*
G75*
G03*
X17173993Y-14617143I-85000J0D01*
G01*
X17505964Y-12705182D02*
G75*
G03*
X17505964Y-12705182I-85000J0D01*
G01*
X17831761Y-10828241D02*
G75*
G03*
X17831761Y-10828241I-85000J0D01*
G01*
X18163733Y-8916281D02*
G75*
G03*
X18163733Y-8916281I-85000J0D01*
G01*
X18167120Y-18073440D02*
G75*
G03*
X18167120Y-18073440I-85000J0D01*
G01*
X19267120Y-18073440D02*
G75*
G03*
X19267120Y-18073440I-85000J0D01*
G01*
X22972800Y-18093760D02*
G75*
G03*
X22972800Y-18093760I-85000J0D01*
G01*
X24027260Y-8929980D02*
G75*
G03*
X24027260Y-8929980I-85000J0D01*
G01*
X24072800Y-18093760D02*
G75*
G03*
X24072800Y-18093760I-85000J0D01*
G01*
X24369237Y-10840177D02*
G75*
G03*
X24369237Y-10840177I-85000J0D01*
G01*
X24705040Y-12715353D02*
G75*
G03*
X24705040Y-12715353I-85000J0D01*
G01*
X25047017Y-14625550D02*
G75*
G03*
X25047017Y-14625550I-85000J0D01*
G01*
X25110549Y-8738967D02*
G75*
G03*
X25110549Y-8738967I-85000J0D01*
G01*
X25379927Y-16526013D02*
G75*
G03*
X25379927Y-16526013I-85000J0D01*
G01*
X25452526Y-10649164D02*
G75*
G03*
X25452526Y-10649164I-85000J0D01*
G01*
X25788329Y-12524340D02*
G75*
G03*
X25788329Y-12524340I-85000J0D01*
G01*
X25923330Y-8595652D02*
G75*
G03*
X25923330Y-8595652I-85000J0D01*
G01*
X26130306Y-14434537D02*
G75*
G03*
X26130306Y-14434537I-85000J0D01*
G01*
X26265308Y-10505848D02*
G75*
G03*
X26265308Y-10505848I-85000J0D01*
G01*
X26463216Y-16335000D02*
G75*
G03*
X26463216Y-16335000I-85000J0D01*
G01*
X26601110Y-12381025D02*
G75*
G03*
X26601110Y-12381025I-85000J0D01*
G01*
X26943088Y-14291221D02*
G75*
G03*
X26943088Y-14291221I-85000J0D01*
G01*
X27006618Y-8404639D02*
G75*
G03*
X27006618Y-8404639I-85000J0D01*
G01*
X27275997Y-16191685D02*
G75*
G03*
X27275997Y-16191685I-85000J0D01*
G01*
X27348596Y-10314835D02*
G75*
G03*
X27348596Y-10314835I-85000J0D01*
G01*
X27684399Y-12190012D02*
G75*
G03*
X27684399Y-12190012I-85000J0D01*
G01*
X27819400Y-8261324D02*
G75*
G03*
X27819400Y-8261324I-85000J0D01*
G01*
X28026376Y-14100208D02*
G75*
G03*
X28026376Y-14100208I-85000J0D01*
G01*
X28161377Y-10171520D02*
G75*
G03*
X28161377Y-10171520I-85000J0D01*
G01*
X28359286Y-16000672D02*
G75*
G03*
X28359286Y-16000672I-85000J0D01*
G01*
X28497180Y-12046697D02*
G75*
G03*
X28497180Y-12046697I-85000J0D01*
G01*
X28839158Y-13956893D02*
G75*
G03*
X28839158Y-13956893I-85000J0D01*
G01*
X28902689Y-8070311D02*
G75*
G03*
X28902689Y-8070311I-85000J0D01*
G01*
X29177070Y-15856474D02*
G75*
G03*
X29177070Y-15856474I-85000J0D01*
G01*
X29244666Y-9980507D02*
G75*
G03*
X29244666Y-9980507I-85000J0D01*
G01*
X29580469Y-11855684D02*
G75*
G03*
X29580469Y-11855684I-85000J0D01*
G01*
X29715470Y-7926995D02*
G75*
G03*
X29715470Y-7926995I-85000J0D01*
G01*
X29922446Y-13765880D02*
G75*
G03*
X29922446Y-13765880I-85000J0D01*
G01*
X30057448Y-9837192D02*
G75*
G03*
X30057448Y-9837192I-85000J0D01*
G01*
X30260359Y-15665461D02*
G75*
G03*
X30260359Y-15665461I-85000J0D01*
G01*
X30393250Y-11712368D02*
G75*
G03*
X30393250Y-11712368I-85000J0D01*
G01*
X30735228Y-13622565D02*
G75*
G03*
X30735228Y-13622565I-85000J0D01*
G01*
X30798759Y-7735982D02*
G75*
G03*
X30798759Y-7735982I-85000J0D01*
G01*
X31073140Y-15522146D02*
G75*
G03*
X31073140Y-15522146I-85000J0D01*
G01*
X31140736Y-9646179D02*
G75*
G03*
X31140736Y-9646179I-85000J0D01*
G01*
X31476539Y-11521355D02*
G75*
G03*
X31476539Y-11521355I-85000J0D01*
G01*
X31601535Y-7594431D02*
G75*
G03*
X31601535Y-7594431I-85000J0D01*
G01*
X31818516Y-13431552D02*
G75*
G03*
X31818516Y-13431552I-85000J0D01*
G01*
X31943512Y-9504628D02*
G75*
G03*
X31943512Y-9504628I-85000J0D01*
G01*
X32156429Y-15331133D02*
G75*
G03*
X32156429Y-15331133I-85000J0D01*
G01*
X32279315Y-11379804D02*
G75*
G03*
X32279315Y-11379804I-85000J0D01*
G01*
X32621292Y-13290001D02*
G75*
G03*
X32621292Y-13290001I-85000J0D01*
G01*
X32684823Y-7403418D02*
G75*
G03*
X32684823Y-7403418I-85000J0D01*
G01*
X33026801Y-9313615D02*
G75*
G03*
X33026801Y-9313615I-85000J0D01*
G01*
X33362603Y-11188791D02*
G75*
G03*
X33362603Y-11188791I-85000J0D01*
G01*
X33497604Y-7260103D02*
G75*
G03*
X33497604Y-7260103I-85000J0D01*
G01*
X33704581Y-13098988D02*
G75*
G03*
X33704581Y-13098988I-85000J0D01*
G01*
X33839582Y-9170300D02*
G75*
G03*
X33839582Y-9170300I-85000J0D01*
G01*
X34175385Y-11045476D02*
G75*
G03*
X34175385Y-11045476I-85000J0D01*
G01*
X34517362Y-12955672D02*
G75*
G03*
X34517362Y-12955672I-85000J0D01*
G01*
X34580893Y-7069090D02*
G75*
G03*
X34580893Y-7069090I-85000J0D01*
G01*
X34922871Y-8979287D02*
G75*
G03*
X34922871Y-8979287I-85000J0D01*
G01*
X35258673Y-10854463D02*
G75*
G03*
X35258673Y-10854463I-85000J0D01*
G01*
X35600651Y-12764659D02*
G75*
G03*
X35600651Y-12764659I-85000J0D01*
G01*
D14*
X6571718Y-12675164D02*
X6571718Y-12850164D01*
X6484218Y-12762664D02*
X6659218Y-12762664D01*
X6903690Y-10763203D02*
X6903690Y-10938203D01*
X6816190Y-10850703D02*
X6991190Y-10850703D01*
X7229487Y-8886262D02*
X7229487Y-9061262D01*
X7141987Y-8973762D02*
X7316987Y-8973762D01*
X7561459Y-6974301D02*
X7561459Y-7149301D01*
X7473959Y-7061801D02*
X7648959Y-7061801D01*
X7572283Y-12851590D02*
X7572283Y-13026590D01*
X7484783Y-12939090D02*
X7659783Y-12939090D01*
X7904255Y-10939630D02*
X7904255Y-11114630D01*
X7816755Y-11027130D02*
X7991755Y-11027130D01*
X8230052Y-9062689D02*
X8230052Y-9237689D01*
X8142552Y-9150189D02*
X8317552Y-9150189D01*
X8467789Y-13009492D02*
X8467789Y-13184492D01*
X8380288Y-13096992D02*
X8555289Y-13096992D01*
X8562024Y-7150728D02*
X8562024Y-7325728D01*
X8474524Y-7238228D02*
X8649524Y-7238228D01*
X8799760Y-11097531D02*
X8799760Y-11272531D01*
X8712260Y-11185031D02*
X8887260Y-11185031D01*
X9125557Y-9220591D02*
X9125557Y-9395591D01*
X9038057Y-9308091D02*
X9213057Y-9308091D01*
X9457529Y-7308630D02*
X9457529Y-7483630D01*
X9370029Y-7396130D02*
X9545029Y-7396130D01*
X9468353Y-13185919D02*
X9468353Y-13360919D01*
X9380853Y-13273419D02*
X9555853Y-13273419D01*
X9800325Y-11273958D02*
X9800325Y-11448958D01*
X9712825Y-11361458D02*
X9887825Y-11361458D01*
X10019525Y-15238126D02*
X10019525Y-15413126D01*
X9932025Y-15325626D02*
X10107025Y-15325626D01*
X10126122Y-9397017D02*
X10126122Y-9572017D01*
X10038622Y-9484517D02*
X10213622Y-9484517D01*
X10353853Y-13342056D02*
X10353853Y-13517056D01*
X10266353Y-13429556D02*
X10441353Y-13429556D01*
X10458094Y-7485056D02*
X10458094Y-7660056D01*
X10370594Y-7572556D02*
X10545594Y-7572556D01*
X10685825Y-11430095D02*
X10685825Y-11605095D01*
X10598325Y-11517595D02*
X10773325Y-11517595D01*
X11011622Y-9553154D02*
X11011622Y-9728154D01*
X10924122Y-9640654D02*
X11099122Y-9640654D01*
X11020089Y-15414553D02*
X11020089Y-15589553D01*
X10932589Y-15502053D02*
X11107589Y-15502053D01*
X11343594Y-7641194D02*
X11343594Y-7816194D01*
X11256094Y-7728694D02*
X11431094Y-7728694D01*
X11354417Y-13518483D02*
X11354417Y-13693483D01*
X11266917Y-13605983D02*
X11441917Y-13605983D01*
X11686389Y-11606522D02*
X11686389Y-11781522D01*
X11598889Y-11694022D02*
X11773889Y-11694022D01*
X11915595Y-15572454D02*
X11915595Y-15747454D01*
X11828095Y-15659954D02*
X12003095Y-15659954D01*
X12012186Y-9729581D02*
X12012186Y-9904581D01*
X11924686Y-9817081D02*
X12099686Y-9817081D01*
X12249923Y-13676384D02*
X12249923Y-13851384D01*
X12162423Y-13763884D02*
X12337423Y-13763884D01*
X12344158Y-7817620D02*
X12344158Y-7992620D01*
X12256658Y-7905120D02*
X12431658Y-7905120D01*
X12581895Y-11764424D02*
X12581895Y-11939424D01*
X12494395Y-11851924D02*
X12669395Y-11851924D01*
X12907692Y-9887483D02*
X12907692Y-10062483D01*
X12820192Y-9974983D02*
X12995192Y-9974983D01*
X12916159Y-15748881D02*
X12916159Y-15923881D01*
X12828659Y-15836381D02*
X13003659Y-15836381D01*
X13239664Y-7975522D02*
X13239664Y-8150522D01*
X13152164Y-8063022D02*
X13327164Y-8063022D01*
X13250488Y-13852811D02*
X13250488Y-14027811D01*
X13162988Y-13940311D02*
X13337988Y-13940311D01*
X13582459Y-11940850D02*
X13582459Y-12115850D01*
X13494959Y-12028350D02*
X13669959Y-12028350D01*
X13816668Y-15907665D02*
X13816668Y-16082665D01*
X13729168Y-15995165D02*
X13904168Y-15995165D01*
X13908256Y-10063909D02*
X13908256Y-10238909D01*
X13820756Y-10151409D02*
X13995756Y-10151409D01*
X14150996Y-14011595D02*
X14150996Y-14186595D01*
X14063496Y-14099095D02*
X14238496Y-14099095D01*
X14240228Y-8151949D02*
X14240228Y-8326949D01*
X14152728Y-8239449D02*
X14327728Y-8239449D01*
X14482968Y-12099634D02*
X14482968Y-12274634D01*
X14395468Y-12187134D02*
X14570468Y-12187134D01*
X14808765Y-10222693D02*
X14808765Y-10397693D01*
X14721265Y-10310193D02*
X14896265Y-10310193D01*
X14817232Y-16084091D02*
X14817232Y-16259091D01*
X14729732Y-16171591D02*
X14904732Y-16171591D01*
X15140737Y-8310732D02*
X15140737Y-8485733D01*
X15053237Y-8398233D02*
X15228237Y-8398233D01*
X15151561Y-14188021D02*
X15151561Y-14363021D01*
X15064061Y-14275521D02*
X15239061Y-14275521D01*
X15483532Y-12276061D02*
X15483532Y-12451061D01*
X15396032Y-12363561D02*
X15571032Y-12363561D01*
X15712738Y-16241993D02*
X15712738Y-16416993D01*
X15625238Y-16329493D02*
X15800238Y-16329493D01*
X15809329Y-10399120D02*
X15809329Y-10574120D01*
X15721829Y-10486620D02*
X15896829Y-10486620D01*
X16047066Y-14345923D02*
X16047066Y-14520923D01*
X15959566Y-14433423D02*
X16134566Y-14433423D01*
X16141301Y-8487159D02*
X16141301Y-8662159D01*
X16053801Y-8574659D02*
X16228801Y-8574659D01*
X16379038Y-12433962D02*
X16379038Y-12608962D01*
X16291538Y-12521462D02*
X16466538Y-12521462D01*
X16704835Y-10557022D02*
X16704835Y-10732022D01*
X16617335Y-10644522D02*
X16792335Y-10644522D01*
X16713302Y-16418420D02*
X16713302Y-16593420D01*
X16625802Y-16505920D02*
X16800802Y-16505920D01*
X17036807Y-8645061D02*
X17036807Y-8820061D01*
X16949307Y-8732561D02*
X17124307Y-8732561D01*
X17047631Y-14522350D02*
X17047631Y-14697350D01*
X16960131Y-14609850D02*
X17135131Y-14609850D01*
X17379602Y-12610389D02*
X17379602Y-12785389D01*
X17292102Y-12697889D02*
X17467102Y-12697889D01*
X17705399Y-10733448D02*
X17705399Y-10908448D01*
X17617899Y-10820948D02*
X17792899Y-10820948D01*
X18037371Y-8821487D02*
X18037371Y-8996487D01*
X17949871Y-8908987D02*
X18124871Y-8908987D01*
X18124120Y-17985940D02*
X18124120Y-18160940D01*
X18036620Y-18073440D02*
X18211620Y-18073440D01*
X19140120Y-17985940D02*
X19140120Y-18160940D01*
X19052620Y-18073440D02*
X19227620Y-18073440D01*
X22929800Y-18006260D02*
X22929800Y-18181260D01*
X22842300Y-18093760D02*
X23017300Y-18093760D01*
X23945800Y-18006260D02*
X23945800Y-18181260D01*
X23858300Y-18093760D02*
X24033300Y-18093760D01*
X23983622Y-8835187D02*
X23983622Y-9010187D01*
X23896122Y-8922687D02*
X24071122Y-8922687D01*
X24325599Y-10745384D02*
X24325599Y-10920384D01*
X24238099Y-10832884D02*
X24413099Y-10832884D01*
X24661402Y-12620560D02*
X24661402Y-12795560D01*
X24573902Y-12708060D02*
X24748902Y-12708060D01*
X24984187Y-8658761D02*
X24984187Y-8833761D01*
X24896687Y-8746261D02*
X25071687Y-8746261D01*
X25003379Y-14530756D02*
X25003379Y-14705756D01*
X24915879Y-14618256D02*
X25090879Y-14618256D01*
X25326164Y-10568957D02*
X25326164Y-10743957D01*
X25238664Y-10656457D02*
X25413664Y-10656457D01*
X25336289Y-16431220D02*
X25336289Y-16606220D01*
X25248789Y-16518720D02*
X25423789Y-16518720D01*
X25661967Y-12444133D02*
X25661967Y-12619133D01*
X25574467Y-12531633D02*
X25749467Y-12531633D01*
X25879692Y-8500859D02*
X25879692Y-8675859D01*
X25792192Y-8588359D02*
X25967192Y-8588359D01*
X26003944Y-14354330D02*
X26003944Y-14529330D01*
X25916444Y-14441830D02*
X26091444Y-14441830D01*
X26221670Y-10411055D02*
X26221670Y-10586055D01*
X26134170Y-10498555D02*
X26309170Y-10498555D01*
X26336854Y-16254793D02*
X26336854Y-16429793D01*
X26249354Y-16342293D02*
X26424354Y-16342293D01*
X26557472Y-12286232D02*
X26557472Y-12461232D01*
X26469972Y-12373732D02*
X26644972Y-12373732D01*
X26880256Y-8324432D02*
X26880256Y-8499432D01*
X26792756Y-8411932D02*
X26967756Y-8411932D01*
X26899450Y-14196428D02*
X26899450Y-14371428D01*
X26811950Y-14283928D02*
X26986950Y-14283928D01*
X27222234Y-10234629D02*
X27222234Y-10409629D01*
X27134734Y-10322129D02*
X27309734Y-10322129D01*
X27232359Y-16096891D02*
X27232359Y-16271891D01*
X27144859Y-16184391D02*
X27319859Y-16184391D01*
X27558037Y-12109805D02*
X27558037Y-12284805D01*
X27470537Y-12197305D02*
X27645537Y-12197305D01*
X27775762Y-8166530D02*
X27775762Y-8341530D01*
X27688262Y-8254030D02*
X27863262Y-8254030D01*
X27900014Y-14020002D02*
X27900014Y-14195002D01*
X27812514Y-14107502D02*
X27987514Y-14107502D01*
X28117739Y-10076727D02*
X28117739Y-10251727D01*
X28030239Y-10164227D02*
X28205239Y-10164227D01*
X28232924Y-15920465D02*
X28232924Y-16095465D01*
X28145424Y-16007965D02*
X28320424Y-16007965D01*
X28453542Y-11951903D02*
X28453542Y-12126903D01*
X28366042Y-12039403D02*
X28541042Y-12039403D01*
X28776327Y-7990104D02*
X28776327Y-8165104D01*
X28688827Y-8077604D02*
X28863827Y-8077604D01*
X28795520Y-13862100D02*
X28795520Y-14037100D01*
X28708020Y-13949600D02*
X28883020Y-13949600D01*
X29118304Y-9900300D02*
X29118304Y-10075300D01*
X29030804Y-9987800D02*
X29205804Y-9987800D01*
X29133432Y-15761681D02*
X29133432Y-15936681D01*
X29045932Y-15849181D02*
X29220932Y-15849181D01*
X29454107Y-11775477D02*
X29454107Y-11950477D01*
X29366607Y-11862977D02*
X29541607Y-11862977D01*
X29671832Y-7832202D02*
X29671832Y-8007202D01*
X29584332Y-7919702D02*
X29759332Y-7919702D01*
X29796084Y-13685673D02*
X29796084Y-13860673D01*
X29708584Y-13773173D02*
X29883584Y-13773173D01*
X30013810Y-9742399D02*
X30013810Y-9917399D01*
X29926310Y-9829899D02*
X30101310Y-9829899D01*
X30133997Y-15585254D02*
X30133997Y-15760254D01*
X30046497Y-15672754D02*
X30221497Y-15672754D01*
X30349612Y-11617575D02*
X30349612Y-11792575D01*
X30262112Y-11705075D02*
X30437112Y-11705075D01*
X30672397Y-7655775D02*
X30672397Y-7830775D01*
X30584897Y-7743275D02*
X30759897Y-7743275D01*
X30691590Y-13527772D02*
X30691590Y-13702772D01*
X30604090Y-13615272D02*
X30779090Y-13615272D01*
X31014374Y-9565972D02*
X31014374Y-9740972D01*
X30926874Y-9653472D02*
X31101874Y-9653472D01*
X31029502Y-15427353D02*
X31029502Y-15602353D01*
X30942002Y-15514853D02*
X31117002Y-15514853D01*
X31350177Y-11441149D02*
X31350177Y-11616149D01*
X31262677Y-11528649D02*
X31437677Y-11528649D01*
X31557897Y-7499638D02*
X31557897Y-7674638D01*
X31470397Y-7587138D02*
X31645397Y-7587138D01*
X31692154Y-13351345D02*
X31692154Y-13526345D01*
X31604654Y-13438845D02*
X31779654Y-13438845D01*
X31899874Y-9409835D02*
X31899874Y-9584835D01*
X31812374Y-9497335D02*
X31987374Y-9497335D01*
X32030067Y-15250926D02*
X32030067Y-15425926D01*
X31942567Y-15338426D02*
X32117567Y-15338426D01*
X32235677Y-11285011D02*
X32235677Y-11460011D01*
X32148177Y-11372511D02*
X32323177Y-11372511D01*
X32558461Y-7323211D02*
X32558461Y-7498211D01*
X32470961Y-7410711D02*
X32645961Y-7410711D01*
X32577654Y-13195207D02*
X32577654Y-13370207D01*
X32490154Y-13282707D02*
X32665154Y-13282707D01*
X32900439Y-9233408D02*
X32900439Y-9408408D01*
X32812939Y-9320908D02*
X32987939Y-9320908D01*
X33236241Y-11108585D02*
X33236241Y-11283584D01*
X33148741Y-11196084D02*
X33323741Y-11196084D01*
X33453966Y-7165310D02*
X33453966Y-7340310D01*
X33366466Y-7252810D02*
X33541466Y-7252810D01*
X33578219Y-13018781D02*
X33578219Y-13193781D01*
X33490719Y-13106281D02*
X33665719Y-13106281D01*
X33795944Y-9075506D02*
X33795944Y-9250506D01*
X33708444Y-9163006D02*
X33883444Y-9163006D01*
X34131747Y-10950683D02*
X34131747Y-11125683D01*
X34044247Y-11038183D02*
X34219247Y-11038183D01*
X34454531Y-6988883D02*
X34454531Y-7163883D01*
X34367031Y-7076383D02*
X34542031Y-7076383D01*
X34473724Y-12860879D02*
X34473724Y-13035879D01*
X34386224Y-12948379D02*
X34561224Y-12948379D01*
X34796509Y-8899080D02*
X34796509Y-9074080D01*
X34709009Y-8986580D02*
X34884009Y-8986580D01*
X35132311Y-10774256D02*
X35132311Y-10949256D01*
X35044811Y-10861756D02*
X35219811Y-10861756D01*
X35474289Y-12684453D02*
X35474289Y-12859453D01*
X35386789Y-12771953D02*
X35561789Y-12771953D01*
D15*
X7437382Y-6121782D02*
X7437382Y-5966217D01*
X7281817Y-5966217D01*
X7281817Y-6121782D01*
X7437382Y-6121782D01*
X8402583Y-14823822D02*
X8402583Y-14668257D01*
X8247017Y-14668257D01*
X8247017Y-14823822D01*
X8402583Y-14823822D01*
X11943342Y-11044303D02*
X11943342Y-10888738D01*
X11787777Y-10888738D01*
X11787777Y-11044303D01*
X11943342Y-11044303D01*
X14447782Y-17638143D02*
X14447782Y-17482578D01*
X14292217Y-17482578D01*
X14292217Y-17638143D01*
X14447782Y-17638143D01*
X19349983Y-9713343D02*
X19349983Y-9557778D01*
X19194418Y-9557778D01*
X19194418Y-9713343D01*
X19349983Y-9713343D01*
X23109182Y-9728583D02*
X23109182Y-9573018D01*
X22953617Y-9573018D01*
X22953617Y-9728583D01*
X23109182Y-9728583D01*
X27823422Y-17633063D02*
X27823422Y-17477498D01*
X27667857Y-17477498D01*
X27667857Y-17633063D01*
X27823422Y-17633063D01*
X29916382Y-11095103D02*
X29916382Y-10939538D01*
X29760817Y-10939538D01*
X29760817Y-11095103D01*
X29916382Y-11095103D01*
X33904183Y-14773022D02*
X33904183Y-14617457D01*
X33748618Y-14617457D01*
X33748618Y-14773022D01*
X33904183Y-14773022D01*
X34849063Y-6131942D02*
X34849063Y-5976377D01*
X34693498Y-5976377D01*
X34693498Y-6131942D01*
X34849063Y-6131942D01*
D16*
X7072001Y-13050267D02*
X7271391Y-12850877D01*
X7072001Y-12651487D01*
X6872611Y-12850877D01*
X7072001Y-13050267D01*
X7403973Y-11138306D02*
X7603363Y-10938916D01*
X7403973Y-10739526D01*
X7204583Y-10938916D01*
X7403973Y-11138306D01*
X7729770Y-9261366D02*
X7929160Y-9061976D01*
X7729770Y-8862586D01*
X7530380Y-9061976D01*
X7729770Y-9261366D01*
X8061741Y-7349405D02*
X8261131Y-7150015D01*
X8061741Y-6950625D01*
X7862351Y-7150015D01*
X8061741Y-7349405D01*
X8968071Y-13384595D02*
X9167461Y-13185205D01*
X8968071Y-12985815D01*
X8768681Y-13185205D01*
X8968071Y-13384595D01*
X9300043Y-11472635D02*
X9499433Y-11273245D01*
X9300043Y-11073855D01*
X9100653Y-11273245D01*
X9300043Y-11472635D01*
X9625840Y-9595694D02*
X9825230Y-9396304D01*
X9625840Y-9196914D01*
X9426450Y-9396304D01*
X9625840Y-9595694D01*
X9957812Y-7683733D02*
X10157202Y-7484343D01*
X9957812Y-7284953D01*
X9758422Y-7484343D01*
X9957812Y-7683733D01*
X10519807Y-15613229D02*
X10719197Y-15413839D01*
X10519807Y-15214449D01*
X10320417Y-15413839D01*
X10519807Y-15613229D01*
X10854135Y-13717159D02*
X11053525Y-13517769D01*
X10854135Y-13318379D01*
X10654745Y-13517769D01*
X10854135Y-13717159D01*
X11186107Y-11805199D02*
X11385497Y-11605809D01*
X11186107Y-11406419D01*
X10986717Y-11605809D01*
X11186107Y-11805199D01*
X11511904Y-9928258D02*
X11711294Y-9728868D01*
X11511904Y-9529478D01*
X11312514Y-9728868D01*
X11511904Y-9928258D01*
X11843876Y-8016297D02*
X12043266Y-7816907D01*
X11843876Y-7617517D01*
X11644486Y-7816907D01*
X11843876Y-8016297D01*
X12415877Y-15947558D02*
X12615267Y-15748168D01*
X12415877Y-15548778D01*
X12216487Y-15748168D01*
X12415877Y-15947558D01*
X12750205Y-14051488D02*
X12949595Y-13852098D01*
X12750205Y-13652708D01*
X12550815Y-13852098D01*
X12750205Y-14051488D01*
X13082177Y-12139527D02*
X13281567Y-11940137D01*
X13082177Y-11740747D01*
X12882787Y-11940137D01*
X13082177Y-12139527D01*
X13407974Y-10262586D02*
X13607364Y-10063196D01*
X13407974Y-9863806D01*
X13208584Y-10063196D01*
X13407974Y-10262586D01*
X13739946Y-8350625D02*
X13939336Y-8151235D01*
X13739946Y-7951845D01*
X13540556Y-8151235D01*
X13739946Y-8350625D01*
X14316950Y-16282768D02*
X14516340Y-16083378D01*
X14316950Y-15883988D01*
X14117560Y-16083378D01*
X14316950Y-16282768D01*
X14651278Y-14386698D02*
X14850668Y-14187308D01*
X14651278Y-13987918D01*
X14451888Y-14187308D01*
X14651278Y-14386698D01*
X14983250Y-12474737D02*
X15182640Y-12275347D01*
X14983250Y-12075957D01*
X14783860Y-12275347D01*
X14983250Y-12474737D01*
X15309047Y-10597797D02*
X15508437Y-10398407D01*
X15309047Y-10199017D01*
X15109657Y-10398407D01*
X15309047Y-10597797D01*
X15641019Y-8685836D02*
X15840409Y-8486446D01*
X15641019Y-8287056D01*
X15441629Y-8486446D01*
X15641019Y-8685836D01*
X16213020Y-16617096D02*
X16412410Y-16417706D01*
X16213020Y-16218316D01*
X16013630Y-16417706D01*
X16213020Y-16617096D01*
X16547348Y-14721026D02*
X16746738Y-14521636D01*
X16547348Y-14322246D01*
X16347958Y-14521636D01*
X16547348Y-14721026D01*
X16879320Y-12809066D02*
X17078710Y-12609676D01*
X16879320Y-12410286D01*
X16679930Y-12609676D01*
X16879320Y-12809066D01*
X17205117Y-10932125D02*
X17404507Y-10732735D01*
X17205117Y-10533345D01*
X17005727Y-10732735D01*
X17205117Y-10932125D01*
X17537089Y-9020164D02*
X17736479Y-8820774D01*
X17537089Y-8621384D01*
X17337699Y-8820774D01*
X17537089Y-9020164D01*
X18632120Y-18272830D02*
X18831510Y-18073440D01*
X18632120Y-17874050D01*
X18432730Y-18073440D01*
X18632120Y-18272830D01*
X23437800Y-18293150D02*
X23637190Y-18093760D01*
X23437800Y-17894370D01*
X23238410Y-18093760D01*
X23437800Y-18293150D01*
X24483904Y-9033864D02*
X24683294Y-8834474D01*
X24483904Y-8635084D01*
X24284514Y-8834474D01*
X24483904Y-9033864D01*
X24825882Y-10944060D02*
X25025272Y-10744670D01*
X24825882Y-10545280D01*
X24626492Y-10744670D01*
X24825882Y-10944060D01*
X25161684Y-12819237D02*
X25361074Y-12619847D01*
X25161684Y-12420457D01*
X24962294Y-12619847D01*
X25161684Y-12819237D01*
X25503662Y-14729433D02*
X25703052Y-14530043D01*
X25503662Y-14330653D01*
X25304272Y-14530043D01*
X25503662Y-14729433D01*
X25836571Y-16629896D02*
X26035961Y-16430506D01*
X25836571Y-16231116D01*
X25637181Y-16430506D01*
X25836571Y-16629896D01*
X26379974Y-8699536D02*
X26579364Y-8500146D01*
X26379974Y-8300755D01*
X26180584Y-8500146D01*
X26379974Y-8699536D01*
X26721952Y-10609732D02*
X26921342Y-10410342D01*
X26721952Y-10210952D01*
X26522562Y-10410342D01*
X26721952Y-10609732D01*
X27057754Y-12484908D02*
X27257144Y-12285518D01*
X27057754Y-12086128D01*
X26858364Y-12285518D01*
X27057754Y-12484908D01*
X27399732Y-14395105D02*
X27599122Y-14195715D01*
X27399732Y-13996325D01*
X27200342Y-14195715D01*
X27399732Y-14395105D01*
X27732641Y-16295568D02*
X27932031Y-16096178D01*
X27732641Y-15896788D01*
X27533251Y-16096178D01*
X27732641Y-16295568D01*
X28276044Y-8365207D02*
X28475434Y-8165817D01*
X28276044Y-7966427D01*
X28076654Y-8165817D01*
X28276044Y-8365207D01*
X28618022Y-10275404D02*
X28817412Y-10076014D01*
X28618022Y-9876624D01*
X28418632Y-10076014D01*
X28618022Y-10275404D01*
X28953824Y-12150580D02*
X29153214Y-11951190D01*
X28953824Y-11751800D01*
X28754434Y-11951190D01*
X28953824Y-12150580D01*
X29295802Y-14060777D02*
X29495192Y-13861387D01*
X29295802Y-13661997D01*
X29096412Y-13861387D01*
X29295802Y-14060777D01*
X29633714Y-15960358D02*
X29833104Y-15760968D01*
X29633714Y-15561578D01*
X29434324Y-15760968D01*
X29633714Y-15960358D01*
X30172114Y-8030879D02*
X30371504Y-7831489D01*
X30172114Y-7632099D01*
X29972724Y-7831489D01*
X30172114Y-8030879D01*
X30514092Y-9941075D02*
X30713482Y-9741685D01*
X30514092Y-9542295D01*
X30314702Y-9741685D01*
X30514092Y-9941075D01*
X30849894Y-11816252D02*
X31049284Y-11616862D01*
X30849894Y-11417472D01*
X30650504Y-11616862D01*
X30849894Y-11816252D01*
X31191872Y-13726448D02*
X31391262Y-13527058D01*
X31191872Y-13327668D01*
X30992482Y-13527058D01*
X31191872Y-13726448D01*
X31529785Y-15626029D02*
X31729175Y-15426639D01*
X31529785Y-15227249D01*
X31330395Y-15426639D01*
X31529785Y-15626029D01*
X32058179Y-7698315D02*
X32257569Y-7498925D01*
X32058179Y-7299535D01*
X31858789Y-7498925D01*
X32058179Y-7698315D01*
X32400156Y-9608511D02*
X32599546Y-9409121D01*
X32400156Y-9209731D01*
X32200766Y-9409121D01*
X32400156Y-9608511D01*
X32735959Y-11483688D02*
X32935349Y-11284298D01*
X32735959Y-11084908D01*
X32536569Y-11284298D01*
X32735959Y-11483688D01*
X33077936Y-13393884D02*
X33277326Y-13194494D01*
X33077936Y-12995104D01*
X32878546Y-13194494D01*
X33077936Y-13393884D01*
X33954249Y-7363986D02*
X34153639Y-7164596D01*
X33954249Y-6965206D01*
X33754859Y-7164596D01*
X33954249Y-7363986D01*
X34296227Y-9274183D02*
X34495617Y-9074793D01*
X34296227Y-8875403D01*
X34096837Y-9074793D01*
X34296227Y-9274183D01*
X34632029Y-11149360D02*
X34831419Y-10949970D01*
X34632029Y-10750580D01*
X34432639Y-10949970D01*
X34632029Y-11149360D01*
X34974007Y-13059556D02*
X35173397Y-12860166D01*
X34974007Y-12660776D01*
X34774617Y-12860166D01*
X34974007Y-13059556D01*
D11*
X6047579Y-19554776D02*
X6047579Y-19354776D01*
X6095198Y-19354776D01*
X6123769Y-19364300D01*
X6142817Y-19383348D01*
X6152341Y-19402395D01*
X6161865Y-19440490D01*
X6161865Y-19469062D01*
X6152341Y-19507157D01*
X6142817Y-19526205D01*
X6123769Y-19545252D01*
X6095198Y-19554776D01*
X6047579Y-19554776D01*
X6247579Y-19554776D02*
X6247579Y-19421443D01*
X6247579Y-19459538D02*
X6257103Y-19440490D01*
X6266627Y-19430967D01*
X6285674Y-19421443D01*
X6304722Y-19421443D01*
X6371388Y-19554776D02*
X6371388Y-19421443D01*
X6371388Y-19354776D02*
X6361865Y-19364300D01*
X6371388Y-19373824D01*
X6380912Y-19364300D01*
X6371388Y-19354776D01*
X6371388Y-19373824D01*
X6495198Y-19554776D02*
X6476150Y-19545252D01*
X6466627Y-19526205D01*
X6466627Y-19354776D01*
X6599960Y-19554776D02*
X6580912Y-19545252D01*
X6571388Y-19526205D01*
X6571388Y-19354776D01*
X6828531Y-19554776D02*
X6828531Y-19354776D01*
X6895198Y-19497633D01*
X6961865Y-19354776D01*
X6961865Y-19554776D01*
X7142817Y-19554776D02*
X7142817Y-19450014D01*
X7133293Y-19430967D01*
X7114246Y-19421443D01*
X7076150Y-19421443D01*
X7057103Y-19430967D01*
X7142817Y-19545252D02*
X7123769Y-19554776D01*
X7076150Y-19554776D01*
X7057103Y-19545252D01*
X7047579Y-19526205D01*
X7047579Y-19507157D01*
X7057103Y-19488110D01*
X7076150Y-19478586D01*
X7123769Y-19478586D01*
X7142817Y-19469062D01*
X7238055Y-19421443D02*
X7238055Y-19621443D01*
X7238055Y-19430967D02*
X7257103Y-19421443D01*
X7295198Y-19421443D01*
X7314246Y-19430967D01*
X7323769Y-19440490D01*
X7333293Y-19459538D01*
X7333293Y-19516681D01*
X7323769Y-19535729D01*
X7314246Y-19545252D01*
X7295198Y-19554776D01*
X7257103Y-19554776D01*
X7238055Y-19545252D01*
X7419008Y-19535729D02*
X7428531Y-19545252D01*
X7419008Y-19554776D01*
X7409484Y-19545252D01*
X7419008Y-19535729D01*
X7419008Y-19554776D01*
X7419008Y-19430967D02*
X7428531Y-19440490D01*
X7419008Y-19450014D01*
X7409484Y-19440490D01*
X7419008Y-19430967D01*
X7419008Y-19450014D01*
D12*
X5709960Y-19844300D02*
X5789960Y-19924300D01*
X5789960Y-19844300D02*
X5709960Y-19924300D01*
D11*
X6085674Y-19774776D02*
X6104722Y-19774776D01*
X6123769Y-19784300D01*
X6133293Y-19793824D01*
X6142817Y-19812871D01*
X6152341Y-19850967D01*
X6152341Y-19898586D01*
X6142817Y-19936681D01*
X6133293Y-19955729D01*
X6123769Y-19965252D01*
X6104722Y-19974776D01*
X6085674Y-19974776D01*
X6066627Y-19965252D01*
X6057103Y-19955729D01*
X6047579Y-19936681D01*
X6038055Y-19898586D01*
X6038055Y-19850967D01*
X6047579Y-19812871D01*
X6057103Y-19793824D01*
X6066627Y-19784300D01*
X6085674Y-19774776D01*
X6238055Y-19955729D02*
X6247579Y-19965252D01*
X6238055Y-19974776D01*
X6228531Y-19965252D01*
X6238055Y-19955729D01*
X6238055Y-19974776D01*
X6361865Y-19860490D02*
X6342817Y-19850967D01*
X6333293Y-19841443D01*
X6323769Y-19822395D01*
X6323769Y-19812871D01*
X6333293Y-19793824D01*
X6342817Y-19784300D01*
X6361865Y-19774776D01*
X6399960Y-19774776D01*
X6419008Y-19784300D01*
X6428531Y-19793824D01*
X6438055Y-19812871D01*
X6438055Y-19822395D01*
X6428531Y-19841443D01*
X6419008Y-19850967D01*
X6399960Y-19860490D01*
X6361865Y-19860490D01*
X6342817Y-19870014D01*
X6333293Y-19879538D01*
X6323769Y-19898586D01*
X6323769Y-19936681D01*
X6333293Y-19955729D01*
X6342817Y-19965252D01*
X6361865Y-19974776D01*
X6399960Y-19974776D01*
X6419008Y-19965252D01*
X6428531Y-19955729D01*
X6438055Y-19936681D01*
X6438055Y-19898586D01*
X6428531Y-19879538D01*
X6419008Y-19870014D01*
X6399960Y-19860490D01*
X6561865Y-19774776D02*
X6580912Y-19774776D01*
X6599960Y-19784300D01*
X6609484Y-19793824D01*
X6619008Y-19812871D01*
X6628531Y-19850967D01*
X6628531Y-19898586D01*
X6619008Y-19936681D01*
X6609484Y-19955729D01*
X6599960Y-19965252D01*
X6580912Y-19974776D01*
X6561865Y-19974776D01*
X6542817Y-19965252D01*
X6533293Y-19955729D01*
X6523769Y-19936681D01*
X6514246Y-19898586D01*
X6514246Y-19850967D01*
X6523769Y-19812871D01*
X6533293Y-19793824D01*
X6542817Y-19784300D01*
X6561865Y-19774776D01*
X6752341Y-19774776D02*
X6771388Y-19774776D01*
X6790436Y-19784300D01*
X6799960Y-19793824D01*
X6809484Y-19812871D01*
X6819008Y-19850967D01*
X6819008Y-19898586D01*
X6809484Y-19936681D01*
X6799960Y-19955729D01*
X6790436Y-19965252D01*
X6771388Y-19974776D01*
X6752341Y-19974776D01*
X6733293Y-19965252D01*
X6723769Y-19955729D01*
X6714246Y-19936681D01*
X6704722Y-19898586D01*
X6704722Y-19850967D01*
X6714246Y-19812871D01*
X6723769Y-19793824D01*
X6733293Y-19784300D01*
X6752341Y-19774776D01*
X6904722Y-19974776D02*
X6904722Y-19841443D01*
X6904722Y-19860490D02*
X6914246Y-19850967D01*
X6933293Y-19841443D01*
X6961865Y-19841443D01*
X6980912Y-19850967D01*
X6990436Y-19870014D01*
X6990436Y-19974776D01*
X6990436Y-19870014D02*
X6999960Y-19850967D01*
X7019008Y-19841443D01*
X7047579Y-19841443D01*
X7066627Y-19850967D01*
X7076150Y-19870014D01*
X7076150Y-19974776D01*
X7171388Y-19974776D02*
X7171388Y-19841443D01*
X7171388Y-19860490D02*
X7180912Y-19850967D01*
X7199960Y-19841443D01*
X7228531Y-19841443D01*
X7247579Y-19850967D01*
X7257103Y-19870014D01*
X7257103Y-19974776D01*
X7257103Y-19870014D02*
X7266627Y-19850967D01*
X7285674Y-19841443D01*
X7314246Y-19841443D01*
X7333293Y-19850967D01*
X7342817Y-19870014D01*
X7342817Y-19974776D01*
X7733293Y-19765252D02*
X7561865Y-20022395D01*
X7990436Y-19774776D02*
X8009484Y-19774776D01*
X8028531Y-19784300D01*
X8038055Y-19793824D01*
X8047579Y-19812871D01*
X8057103Y-19850967D01*
X8057103Y-19898586D01*
X8047579Y-19936681D01*
X8038055Y-19955729D01*
X8028531Y-19965252D01*
X8009484Y-19974776D01*
X7990436Y-19974776D01*
X7971388Y-19965252D01*
X7961865Y-19955729D01*
X7952341Y-19936681D01*
X7942817Y-19898586D01*
X7942817Y-19850967D01*
X7952341Y-19812871D01*
X7961865Y-19793824D01*
X7971388Y-19784300D01*
X7990436Y-19774776D01*
X8142817Y-19955729D02*
X8152341Y-19965252D01*
X8142817Y-19974776D01*
X8133293Y-19965252D01*
X8142817Y-19955729D01*
X8142817Y-19974776D01*
X8276150Y-19774776D02*
X8295198Y-19774776D01*
X8314246Y-19784300D01*
X8323769Y-19793824D01*
X8333293Y-19812871D01*
X8342817Y-19850967D01*
X8342817Y-19898586D01*
X8333293Y-19936681D01*
X8323769Y-19955729D01*
X8314246Y-19965252D01*
X8295198Y-19974776D01*
X8276150Y-19974776D01*
X8257103Y-19965252D01*
X8247579Y-19955729D01*
X8238055Y-19936681D01*
X8228531Y-19898586D01*
X8228531Y-19850967D01*
X8238055Y-19812871D01*
X8247579Y-19793824D01*
X8257103Y-19784300D01*
X8276150Y-19774776D01*
X8409484Y-19774776D02*
X8533293Y-19774776D01*
X8466627Y-19850967D01*
X8495198Y-19850967D01*
X8514246Y-19860490D01*
X8523770Y-19870014D01*
X8533293Y-19889062D01*
X8533293Y-19936681D01*
X8523770Y-19955729D01*
X8514246Y-19965252D01*
X8495198Y-19974776D01*
X8438055Y-19974776D01*
X8419008Y-19965252D01*
X8409484Y-19955729D01*
X8723770Y-19974776D02*
X8609484Y-19974776D01*
X8666627Y-19974776D02*
X8666627Y-19774776D01*
X8647579Y-19803348D01*
X8628531Y-19822395D01*
X8609484Y-19831919D01*
X8904722Y-19774776D02*
X8809484Y-19774776D01*
X8799960Y-19870014D01*
X8809484Y-19860490D01*
X8828531Y-19850967D01*
X8876150Y-19850967D01*
X8895198Y-19860490D01*
X8904722Y-19870014D01*
X8914246Y-19889062D01*
X8914246Y-19936681D01*
X8904722Y-19955729D01*
X8895198Y-19965252D01*
X8876150Y-19974776D01*
X8828531Y-19974776D01*
X8809484Y-19965252D01*
X8799960Y-19955729D01*
X8990436Y-19774776D02*
X8990436Y-19812871D01*
X9066627Y-19774776D02*
X9066627Y-19812871D01*
X9361865Y-20050967D02*
X9352341Y-20041443D01*
X9333293Y-20012871D01*
X9323770Y-19993824D01*
X9314246Y-19965252D01*
X9304722Y-19917633D01*
X9304722Y-19879538D01*
X9314246Y-19831919D01*
X9323770Y-19803348D01*
X9333293Y-19784300D01*
X9352341Y-19755729D01*
X9361865Y-19746205D01*
X9533293Y-19774776D02*
X9438055Y-19774776D01*
X9428531Y-19870014D01*
X9438055Y-19860490D01*
X9457103Y-19850967D01*
X9504722Y-19850967D01*
X9523770Y-19860490D01*
X9533293Y-19870014D01*
X9542817Y-19889062D01*
X9542817Y-19936681D01*
X9533293Y-19955729D01*
X9523770Y-19965252D01*
X9504722Y-19974776D01*
X9457103Y-19974776D01*
X9438055Y-19965252D01*
X9428531Y-19955729D01*
X9657103Y-19860490D02*
X9638055Y-19850967D01*
X9628531Y-19841443D01*
X9619008Y-19822395D01*
X9619008Y-19812871D01*
X9628531Y-19793824D01*
X9638055Y-19784300D01*
X9657103Y-19774776D01*
X9695198Y-19774776D01*
X9714246Y-19784300D01*
X9723770Y-19793824D01*
X9733293Y-19812871D01*
X9733293Y-19822395D01*
X9723770Y-19841443D01*
X9714246Y-19850967D01*
X9695198Y-19860490D01*
X9657103Y-19860490D01*
X9638055Y-19870014D01*
X9628531Y-19879538D01*
X9619008Y-19898586D01*
X9619008Y-19936681D01*
X9628531Y-19955729D01*
X9638055Y-19965252D01*
X9657103Y-19974776D01*
X9695198Y-19974776D01*
X9714246Y-19965252D01*
X9723770Y-19955729D01*
X9733293Y-19936681D01*
X9733293Y-19898586D01*
X9723770Y-19879538D01*
X9714246Y-19870014D01*
X9695198Y-19860490D01*
X9971389Y-19974776D02*
X9971389Y-19774776D01*
X10057103Y-19974776D02*
X10057103Y-19870014D01*
X10047579Y-19850967D01*
X10028531Y-19841443D01*
X9999960Y-19841443D01*
X9980912Y-19850967D01*
X9971389Y-19860490D01*
X10180912Y-19974776D02*
X10161865Y-19965252D01*
X10152341Y-19955729D01*
X10142817Y-19936681D01*
X10142817Y-19879538D01*
X10152341Y-19860490D01*
X10161865Y-19850967D01*
X10180912Y-19841443D01*
X10209484Y-19841443D01*
X10228531Y-19850967D01*
X10238055Y-19860490D01*
X10247579Y-19879538D01*
X10247579Y-19936681D01*
X10238055Y-19955729D01*
X10228531Y-19965252D01*
X10209484Y-19974776D01*
X10180912Y-19974776D01*
X10361865Y-19974776D02*
X10342817Y-19965252D01*
X10333293Y-19946205D01*
X10333293Y-19774776D01*
X10514246Y-19965252D02*
X10495198Y-19974776D01*
X10457103Y-19974776D01*
X10438055Y-19965252D01*
X10428531Y-19946205D01*
X10428531Y-19870014D01*
X10438055Y-19850967D01*
X10457103Y-19841443D01*
X10495198Y-19841443D01*
X10514246Y-19850967D01*
X10523770Y-19870014D01*
X10523770Y-19889062D01*
X10428531Y-19908110D01*
X10599960Y-19965252D02*
X10619008Y-19974776D01*
X10657103Y-19974776D01*
X10676150Y-19965252D01*
X10685674Y-19946205D01*
X10685674Y-19936681D01*
X10676150Y-19917633D01*
X10657103Y-19908110D01*
X10628531Y-19908110D01*
X10609484Y-19898586D01*
X10599960Y-19879538D01*
X10599960Y-19870014D01*
X10609484Y-19850967D01*
X10628531Y-19841443D01*
X10657103Y-19841443D01*
X10676150Y-19850967D01*
X10752341Y-20050967D02*
X10761865Y-20041443D01*
X10780912Y-20012871D01*
X10790436Y-19993824D01*
X10799960Y-19965252D01*
X10809484Y-19917633D01*
X10809484Y-19879538D01*
X10799960Y-19831919D01*
X10790436Y-19803348D01*
X10780912Y-19784300D01*
X10761865Y-19755729D01*
X10752341Y-19746205D01*
X11114246Y-20050967D02*
X11104722Y-20041443D01*
X11085674Y-20012871D01*
X11076150Y-19993824D01*
X11066627Y-19965252D01*
X11057103Y-19917633D01*
X11057103Y-19879538D01*
X11066627Y-19831919D01*
X11076150Y-19803348D01*
X11085674Y-19784300D01*
X11104722Y-19755729D01*
X11114246Y-19746205D01*
X11190436Y-19841443D02*
X11190436Y-19974776D01*
X11190436Y-19860490D02*
X11199960Y-19850967D01*
X11219008Y-19841443D01*
X11247579Y-19841443D01*
X11266627Y-19850967D01*
X11276150Y-19870014D01*
X11276150Y-19974776D01*
X11399960Y-19974776D02*
X11380912Y-19965252D01*
X11371388Y-19955729D01*
X11361865Y-19936681D01*
X11361865Y-19879538D01*
X11371388Y-19860490D01*
X11380912Y-19850967D01*
X11399960Y-19841443D01*
X11428531Y-19841443D01*
X11447579Y-19850967D01*
X11457103Y-19860490D01*
X11466627Y-19879538D01*
X11466627Y-19936681D01*
X11457103Y-19955729D01*
X11447579Y-19965252D01*
X11428531Y-19974776D01*
X11399960Y-19974776D01*
X11523769Y-19841443D02*
X11599960Y-19841443D01*
X11552341Y-19774776D02*
X11552341Y-19946205D01*
X11561865Y-19965252D01*
X11580912Y-19974776D01*
X11599960Y-19974776D01*
X11819008Y-19841443D02*
X11819008Y-20041443D01*
X11819008Y-19850967D02*
X11838055Y-19841443D01*
X11876150Y-19841443D01*
X11895198Y-19850967D01*
X11904722Y-19860490D01*
X11914246Y-19879538D01*
X11914246Y-19936681D01*
X11904722Y-19955729D01*
X11895198Y-19965252D01*
X11876150Y-19974776D01*
X11838055Y-19974776D01*
X11819008Y-19965252D01*
X12028531Y-19974776D02*
X12009484Y-19965252D01*
X11999960Y-19946205D01*
X11999960Y-19774776D01*
X12190436Y-19974776D02*
X12190436Y-19870014D01*
X12180912Y-19850967D01*
X12161865Y-19841443D01*
X12123769Y-19841443D01*
X12104722Y-19850967D01*
X12190436Y-19965252D02*
X12171388Y-19974776D01*
X12123769Y-19974776D01*
X12104722Y-19965252D01*
X12095198Y-19946205D01*
X12095198Y-19927157D01*
X12104722Y-19908110D01*
X12123769Y-19898586D01*
X12171388Y-19898586D01*
X12190436Y-19889062D01*
X12257103Y-19841443D02*
X12333293Y-19841443D01*
X12285674Y-19774776D02*
X12285674Y-19946205D01*
X12295198Y-19965252D01*
X12314246Y-19974776D01*
X12333293Y-19974776D01*
X12476150Y-19965252D02*
X12457103Y-19974776D01*
X12419008Y-19974776D01*
X12399960Y-19965252D01*
X12390436Y-19946205D01*
X12390436Y-19870014D01*
X12399960Y-19850967D01*
X12419008Y-19841443D01*
X12457103Y-19841443D01*
X12476150Y-19850967D01*
X12485674Y-19870014D01*
X12485674Y-19889062D01*
X12390436Y-19908110D01*
X12657103Y-19974776D02*
X12657103Y-19774776D01*
X12657103Y-19965252D02*
X12638055Y-19974776D01*
X12599960Y-19974776D01*
X12580912Y-19965252D01*
X12571388Y-19955729D01*
X12561865Y-19936681D01*
X12561865Y-19879538D01*
X12571388Y-19860490D01*
X12580912Y-19850967D01*
X12599960Y-19841443D01*
X12638055Y-19841443D01*
X12657103Y-19850967D01*
X12733293Y-20050967D02*
X12742817Y-20041443D01*
X12761865Y-20012871D01*
X12771388Y-19993824D01*
X12780912Y-19965252D01*
X12790436Y-19917633D01*
X12790436Y-19879538D01*
X12780912Y-19831919D01*
X12771388Y-19803348D01*
X12761865Y-19784300D01*
X12742817Y-19755729D01*
X12733293Y-19746205D01*
D13*
X5789960Y-20148300D02*
G75*
G03*
X5789960Y-20148300I-85000J0D01*
G01*
D11*
X6152341Y-20238776D02*
X6038055Y-20238776D01*
X6095198Y-20238776D02*
X6095198Y-20038776D01*
X6076150Y-20067348D01*
X6057103Y-20086395D01*
X6038055Y-20095919D01*
X6238055Y-20219729D02*
X6247579Y-20229252D01*
X6238055Y-20238776D01*
X6228531Y-20229252D01*
X6238055Y-20219729D01*
X6238055Y-20238776D01*
X6314246Y-20038776D02*
X6447579Y-20038776D01*
X6361865Y-20238776D01*
X6561865Y-20038776D02*
X6580912Y-20038776D01*
X6599960Y-20048300D01*
X6609484Y-20057824D01*
X6619008Y-20076871D01*
X6628531Y-20114967D01*
X6628531Y-20162586D01*
X6619008Y-20200681D01*
X6609484Y-20219729D01*
X6599960Y-20229252D01*
X6580912Y-20238776D01*
X6561865Y-20238776D01*
X6542817Y-20229252D01*
X6533293Y-20219729D01*
X6523769Y-20200681D01*
X6514246Y-20162586D01*
X6514246Y-20114967D01*
X6523769Y-20076871D01*
X6533293Y-20057824D01*
X6542817Y-20048300D01*
X6561865Y-20038776D01*
X6752341Y-20038776D02*
X6771388Y-20038776D01*
X6790436Y-20048300D01*
X6799960Y-20057824D01*
X6809484Y-20076871D01*
X6819008Y-20114967D01*
X6819008Y-20162586D01*
X6809484Y-20200681D01*
X6799960Y-20219729D01*
X6790436Y-20229252D01*
X6771388Y-20238776D01*
X6752341Y-20238776D01*
X6733293Y-20229252D01*
X6723769Y-20219729D01*
X6714246Y-20200681D01*
X6704722Y-20162586D01*
X6704722Y-20114967D01*
X6714246Y-20076871D01*
X6723769Y-20057824D01*
X6733293Y-20048300D01*
X6752341Y-20038776D01*
X6904722Y-20238776D02*
X6904722Y-20105443D01*
X6904722Y-20124490D02*
X6914246Y-20114967D01*
X6933293Y-20105443D01*
X6961865Y-20105443D01*
X6980912Y-20114967D01*
X6990436Y-20134014D01*
X6990436Y-20238776D01*
X6990436Y-20134014D02*
X6999960Y-20114967D01*
X7019008Y-20105443D01*
X7047579Y-20105443D01*
X7066627Y-20114967D01*
X7076150Y-20134014D01*
X7076150Y-20238776D01*
X7171388Y-20238776D02*
X7171388Y-20105443D01*
X7171388Y-20124490D02*
X7180912Y-20114967D01*
X7199960Y-20105443D01*
X7228531Y-20105443D01*
X7247579Y-20114967D01*
X7257103Y-20134014D01*
X7257103Y-20238776D01*
X7257103Y-20134014D02*
X7266627Y-20114967D01*
X7285674Y-20105443D01*
X7314246Y-20105443D01*
X7333293Y-20114967D01*
X7342817Y-20134014D01*
X7342817Y-20238776D01*
X7733293Y-20029252D02*
X7561865Y-20286395D01*
X7990436Y-20038776D02*
X8009484Y-20038776D01*
X8028531Y-20048300D01*
X8038055Y-20057824D01*
X8047579Y-20076871D01*
X8057103Y-20114967D01*
X8057103Y-20162586D01*
X8047579Y-20200681D01*
X8038055Y-20219729D01*
X8028531Y-20229252D01*
X8009484Y-20238776D01*
X7990436Y-20238776D01*
X7971388Y-20229252D01*
X7961865Y-20219729D01*
X7952341Y-20200681D01*
X7942817Y-20162586D01*
X7942817Y-20114967D01*
X7952341Y-20076871D01*
X7961865Y-20057824D01*
X7971388Y-20048300D01*
X7990436Y-20038776D01*
X8142817Y-20219729D02*
X8152341Y-20229252D01*
X8142817Y-20238776D01*
X8133293Y-20229252D01*
X8142817Y-20219729D01*
X8142817Y-20238776D01*
X8276150Y-20038776D02*
X8295198Y-20038776D01*
X8314246Y-20048300D01*
X8323769Y-20057824D01*
X8333293Y-20076871D01*
X8342817Y-20114967D01*
X8342817Y-20162586D01*
X8333293Y-20200681D01*
X8323769Y-20219729D01*
X8314246Y-20229252D01*
X8295198Y-20238776D01*
X8276150Y-20238776D01*
X8257103Y-20229252D01*
X8247579Y-20219729D01*
X8238055Y-20200681D01*
X8228531Y-20162586D01*
X8228531Y-20114967D01*
X8238055Y-20076871D01*
X8247579Y-20057824D01*
X8257103Y-20048300D01*
X8276150Y-20038776D01*
X8514246Y-20038776D02*
X8476150Y-20038776D01*
X8457103Y-20048300D01*
X8447579Y-20057824D01*
X8428531Y-20086395D01*
X8419008Y-20124490D01*
X8419008Y-20200681D01*
X8428531Y-20219729D01*
X8438055Y-20229252D01*
X8457103Y-20238776D01*
X8495198Y-20238776D01*
X8514246Y-20229252D01*
X8523770Y-20219729D01*
X8533293Y-20200681D01*
X8533293Y-20153062D01*
X8523770Y-20134014D01*
X8514246Y-20124490D01*
X8495198Y-20114967D01*
X8457103Y-20114967D01*
X8438055Y-20124490D01*
X8428531Y-20134014D01*
X8419008Y-20153062D01*
X8704722Y-20038776D02*
X8666627Y-20038776D01*
X8647579Y-20048300D01*
X8638055Y-20057824D01*
X8619008Y-20086395D01*
X8609484Y-20124490D01*
X8609484Y-20200681D01*
X8619008Y-20219729D01*
X8628531Y-20229252D01*
X8647579Y-20238776D01*
X8685674Y-20238776D01*
X8704722Y-20229252D01*
X8714246Y-20219729D01*
X8723770Y-20200681D01*
X8723770Y-20153062D01*
X8714246Y-20134014D01*
X8704722Y-20124490D01*
X8685674Y-20114967D01*
X8647579Y-20114967D01*
X8628531Y-20124490D01*
X8619008Y-20134014D01*
X8609484Y-20153062D01*
X8819008Y-20238776D02*
X8857103Y-20238776D01*
X8876150Y-20229252D01*
X8885674Y-20219729D01*
X8904722Y-20191157D01*
X8914246Y-20153062D01*
X8914246Y-20076871D01*
X8904722Y-20057824D01*
X8895198Y-20048300D01*
X8876150Y-20038776D01*
X8838055Y-20038776D01*
X8819008Y-20048300D01*
X8809484Y-20057824D01*
X8799960Y-20076871D01*
X8799960Y-20124490D01*
X8809484Y-20143538D01*
X8819008Y-20153062D01*
X8838055Y-20162586D01*
X8876150Y-20162586D01*
X8895198Y-20153062D01*
X8904722Y-20143538D01*
X8914246Y-20124490D01*
X8990436Y-20038776D02*
X8990436Y-20076871D01*
X9066627Y-20038776D02*
X9066627Y-20076871D01*
X9361865Y-20314967D02*
X9352341Y-20305443D01*
X9333293Y-20276871D01*
X9323770Y-20257824D01*
X9314246Y-20229252D01*
X9304722Y-20181633D01*
X9304722Y-20143538D01*
X9314246Y-20095919D01*
X9323770Y-20067348D01*
X9333293Y-20048300D01*
X9352341Y-20019729D01*
X9361865Y-20010205D01*
X9542817Y-20238776D02*
X9428531Y-20238776D01*
X9485674Y-20238776D02*
X9485674Y-20038776D01*
X9466627Y-20067348D01*
X9447579Y-20086395D01*
X9428531Y-20095919D01*
X9733293Y-20238776D02*
X9619008Y-20238776D01*
X9676150Y-20238776D02*
X9676150Y-20038776D01*
X9657103Y-20067348D01*
X9638055Y-20086395D01*
X9619008Y-20095919D01*
X9904722Y-20038776D02*
X9866627Y-20038776D01*
X9847579Y-20048300D01*
X9838055Y-20057824D01*
X9819008Y-20086395D01*
X9809484Y-20124490D01*
X9809484Y-20200681D01*
X9819008Y-20219729D01*
X9828531Y-20229252D01*
X9847579Y-20238776D01*
X9885674Y-20238776D01*
X9904722Y-20229252D01*
X9914246Y-20219729D01*
X9923770Y-20200681D01*
X9923770Y-20153062D01*
X9914246Y-20134014D01*
X9904722Y-20124490D01*
X9885674Y-20114967D01*
X9847579Y-20114967D01*
X9828531Y-20124490D01*
X9819008Y-20134014D01*
X9809484Y-20153062D01*
X10161865Y-20238776D02*
X10161865Y-20038776D01*
X10247579Y-20238776D02*
X10247579Y-20134014D01*
X10238055Y-20114967D01*
X10219008Y-20105443D01*
X10190436Y-20105443D01*
X10171389Y-20114967D01*
X10161865Y-20124490D01*
X10371389Y-20238776D02*
X10352341Y-20229252D01*
X10342817Y-20219729D01*
X10333293Y-20200681D01*
X10333293Y-20143538D01*
X10342817Y-20124490D01*
X10352341Y-20114967D01*
X10371389Y-20105443D01*
X10399960Y-20105443D01*
X10419008Y-20114967D01*
X10428531Y-20124490D01*
X10438055Y-20143538D01*
X10438055Y-20200681D01*
X10428531Y-20219729D01*
X10419008Y-20229252D01*
X10399960Y-20238776D01*
X10371389Y-20238776D01*
X10552341Y-20238776D02*
X10533293Y-20229252D01*
X10523770Y-20210205D01*
X10523770Y-20038776D01*
X10704722Y-20229252D02*
X10685674Y-20238776D01*
X10647579Y-20238776D01*
X10628531Y-20229252D01*
X10619008Y-20210205D01*
X10619008Y-20134014D01*
X10628531Y-20114967D01*
X10647579Y-20105443D01*
X10685674Y-20105443D01*
X10704722Y-20114967D01*
X10714246Y-20134014D01*
X10714246Y-20153062D01*
X10619008Y-20172110D01*
X10790436Y-20229252D02*
X10809484Y-20238776D01*
X10847579Y-20238776D01*
X10866627Y-20229252D01*
X10876150Y-20210205D01*
X10876150Y-20200681D01*
X10866627Y-20181633D01*
X10847579Y-20172110D01*
X10819008Y-20172110D01*
X10799960Y-20162586D01*
X10790436Y-20143538D01*
X10790436Y-20134014D01*
X10799960Y-20114967D01*
X10819008Y-20105443D01*
X10847579Y-20105443D01*
X10866627Y-20114967D01*
X10942817Y-20314967D02*
X10952341Y-20305443D01*
X10971389Y-20276871D01*
X10980912Y-20257824D01*
X10990436Y-20229252D01*
X10999960Y-20181633D01*
X10999960Y-20143538D01*
X10990436Y-20095919D01*
X10980912Y-20067348D01*
X10971389Y-20048300D01*
X10952341Y-20019729D01*
X10942817Y-20010205D01*
X11304722Y-20314967D02*
X11295198Y-20305443D01*
X11276150Y-20276871D01*
X11266627Y-20257824D01*
X11257103Y-20229252D01*
X11247579Y-20181633D01*
X11247579Y-20143538D01*
X11257103Y-20095919D01*
X11266627Y-20067348D01*
X11276150Y-20048300D01*
X11295198Y-20019729D01*
X11304722Y-20010205D01*
X11380912Y-20105443D02*
X11380912Y-20238776D01*
X11380912Y-20124490D02*
X11390436Y-20114967D01*
X11409484Y-20105443D01*
X11438055Y-20105443D01*
X11457103Y-20114967D01*
X11466627Y-20134014D01*
X11466627Y-20238776D01*
X11590436Y-20238776D02*
X11571388Y-20229252D01*
X11561865Y-20219729D01*
X11552341Y-20200681D01*
X11552341Y-20143538D01*
X11561865Y-20124490D01*
X11571388Y-20114967D01*
X11590436Y-20105443D01*
X11619008Y-20105443D01*
X11638055Y-20114967D01*
X11647579Y-20124490D01*
X11657103Y-20143538D01*
X11657103Y-20200681D01*
X11647579Y-20219729D01*
X11638055Y-20229252D01*
X11619008Y-20238776D01*
X11590436Y-20238776D01*
X11714246Y-20105443D02*
X11790436Y-20105443D01*
X11742817Y-20038776D02*
X11742817Y-20210205D01*
X11752341Y-20229252D01*
X11771388Y-20238776D01*
X11790436Y-20238776D01*
X12009484Y-20105443D02*
X12009484Y-20305443D01*
X12009484Y-20114967D02*
X12028531Y-20105443D01*
X12066627Y-20105443D01*
X12085674Y-20114967D01*
X12095198Y-20124490D01*
X12104722Y-20143538D01*
X12104722Y-20200681D01*
X12095198Y-20219729D01*
X12085674Y-20229252D01*
X12066627Y-20238776D01*
X12028531Y-20238776D01*
X12009484Y-20229252D01*
X12219008Y-20238776D02*
X12199960Y-20229252D01*
X12190436Y-20210205D01*
X12190436Y-20038776D01*
X12380912Y-20238776D02*
X12380912Y-20134014D01*
X12371388Y-20114967D01*
X12352341Y-20105443D01*
X12314246Y-20105443D01*
X12295198Y-20114967D01*
X12380912Y-20229252D02*
X12361865Y-20238776D01*
X12314246Y-20238776D01*
X12295198Y-20229252D01*
X12285674Y-20210205D01*
X12285674Y-20191157D01*
X12295198Y-20172110D01*
X12314246Y-20162586D01*
X12361865Y-20162586D01*
X12380912Y-20153062D01*
X12447579Y-20105443D02*
X12523769Y-20105443D01*
X12476150Y-20038776D02*
X12476150Y-20210205D01*
X12485674Y-20229252D01*
X12504722Y-20238776D01*
X12523769Y-20238776D01*
X12666627Y-20229252D02*
X12647579Y-20238776D01*
X12609484Y-20238776D01*
X12590436Y-20229252D01*
X12580912Y-20210205D01*
X12580912Y-20134014D01*
X12590436Y-20114967D01*
X12609484Y-20105443D01*
X12647579Y-20105443D01*
X12666627Y-20114967D01*
X12676150Y-20134014D01*
X12676150Y-20153062D01*
X12580912Y-20172110D01*
X12847579Y-20238776D02*
X12847579Y-20038776D01*
X12847579Y-20229252D02*
X12828531Y-20238776D01*
X12790436Y-20238776D01*
X12771388Y-20229252D01*
X12761865Y-20219729D01*
X12752341Y-20200681D01*
X12752341Y-20143538D01*
X12761865Y-20124490D01*
X12771388Y-20114967D01*
X12790436Y-20105443D01*
X12828531Y-20105443D01*
X12847579Y-20114967D01*
X12923769Y-20314967D02*
X12933293Y-20305443D01*
X12952341Y-20276871D01*
X12961865Y-20257824D01*
X12971388Y-20229252D01*
X12980912Y-20181633D01*
X12980912Y-20143538D01*
X12971388Y-20095919D01*
X12961865Y-20067348D01*
X12952341Y-20048300D01*
X12933293Y-20019729D01*
X12923769Y-20010205D01*
D14*
X5702460Y-20350800D02*
X5702460Y-20525800D01*
X5614960Y-20438300D02*
X5789960Y-20438300D01*
D11*
X6152341Y-20528776D02*
X6038055Y-20528776D01*
X6095198Y-20528776D02*
X6095198Y-20328776D01*
X6076150Y-20357348D01*
X6057103Y-20376395D01*
X6038055Y-20385919D01*
X6238055Y-20509729D02*
X6247579Y-20519252D01*
X6238055Y-20528776D01*
X6228531Y-20519252D01*
X6238055Y-20509729D01*
X6238055Y-20528776D01*
X6314246Y-20328776D02*
X6447579Y-20328776D01*
X6361865Y-20528776D01*
X6619008Y-20328776D02*
X6523769Y-20328776D01*
X6514246Y-20424014D01*
X6523769Y-20414490D01*
X6542817Y-20404967D01*
X6590436Y-20404967D01*
X6609484Y-20414490D01*
X6619008Y-20424014D01*
X6628531Y-20443062D01*
X6628531Y-20490681D01*
X6619008Y-20509729D01*
X6609484Y-20519252D01*
X6590436Y-20528776D01*
X6542817Y-20528776D01*
X6523769Y-20519252D01*
X6514246Y-20509729D01*
X6752341Y-20328776D02*
X6771388Y-20328776D01*
X6790436Y-20338300D01*
X6799960Y-20347824D01*
X6809484Y-20366871D01*
X6819008Y-20404967D01*
X6819008Y-20452586D01*
X6809484Y-20490681D01*
X6799960Y-20509729D01*
X6790436Y-20519252D01*
X6771388Y-20528776D01*
X6752341Y-20528776D01*
X6733293Y-20519252D01*
X6723769Y-20509729D01*
X6714246Y-20490681D01*
X6704722Y-20452586D01*
X6704722Y-20404967D01*
X6714246Y-20366871D01*
X6723769Y-20347824D01*
X6733293Y-20338300D01*
X6752341Y-20328776D01*
X6904722Y-20528776D02*
X6904722Y-20395443D01*
X6904722Y-20414490D02*
X6914246Y-20404967D01*
X6933293Y-20395443D01*
X6961865Y-20395443D01*
X6980912Y-20404967D01*
X6990436Y-20424014D01*
X6990436Y-20528776D01*
X6990436Y-20424014D02*
X6999960Y-20404967D01*
X7019008Y-20395443D01*
X7047579Y-20395443D01*
X7066627Y-20404967D01*
X7076150Y-20424014D01*
X7076150Y-20528776D01*
X7171388Y-20528776D02*
X7171388Y-20395443D01*
X7171388Y-20414490D02*
X7180912Y-20404967D01*
X7199960Y-20395443D01*
X7228531Y-20395443D01*
X7247579Y-20404967D01*
X7257103Y-20424014D01*
X7257103Y-20528776D01*
X7257103Y-20424014D02*
X7266627Y-20404967D01*
X7285674Y-20395443D01*
X7314246Y-20395443D01*
X7333293Y-20404967D01*
X7342817Y-20424014D01*
X7342817Y-20528776D01*
X7733293Y-20319252D02*
X7561865Y-20576395D01*
X7990436Y-20328776D02*
X8009484Y-20328776D01*
X8028531Y-20338300D01*
X8038055Y-20347824D01*
X8047579Y-20366871D01*
X8057103Y-20404967D01*
X8057103Y-20452586D01*
X8047579Y-20490681D01*
X8038055Y-20509729D01*
X8028531Y-20519252D01*
X8009484Y-20528776D01*
X7990436Y-20528776D01*
X7971388Y-20519252D01*
X7961865Y-20509729D01*
X7952341Y-20490681D01*
X7942817Y-20452586D01*
X7942817Y-20404967D01*
X7952341Y-20366871D01*
X7961865Y-20347824D01*
X7971388Y-20338300D01*
X7990436Y-20328776D01*
X8142817Y-20509729D02*
X8152341Y-20519252D01*
X8142817Y-20528776D01*
X8133293Y-20519252D01*
X8142817Y-20509729D01*
X8142817Y-20528776D01*
X8276150Y-20328776D02*
X8295198Y-20328776D01*
X8314246Y-20338300D01*
X8323769Y-20347824D01*
X8333293Y-20366871D01*
X8342817Y-20404967D01*
X8342817Y-20452586D01*
X8333293Y-20490681D01*
X8323769Y-20509729D01*
X8314246Y-20519252D01*
X8295198Y-20528776D01*
X8276150Y-20528776D01*
X8257103Y-20519252D01*
X8247579Y-20509729D01*
X8238055Y-20490681D01*
X8228531Y-20452586D01*
X8228531Y-20404967D01*
X8238055Y-20366871D01*
X8247579Y-20347824D01*
X8257103Y-20338300D01*
X8276150Y-20328776D01*
X8514246Y-20328776D02*
X8476150Y-20328776D01*
X8457103Y-20338300D01*
X8447579Y-20347824D01*
X8428531Y-20376395D01*
X8419008Y-20414490D01*
X8419008Y-20490681D01*
X8428531Y-20509729D01*
X8438055Y-20519252D01*
X8457103Y-20528776D01*
X8495198Y-20528776D01*
X8514246Y-20519252D01*
X8523770Y-20509729D01*
X8533293Y-20490681D01*
X8533293Y-20443062D01*
X8523770Y-20424014D01*
X8514246Y-20414490D01*
X8495198Y-20404967D01*
X8457103Y-20404967D01*
X8438055Y-20414490D01*
X8428531Y-20424014D01*
X8419008Y-20443062D01*
X8647579Y-20414490D02*
X8628531Y-20404967D01*
X8619008Y-20395443D01*
X8609484Y-20376395D01*
X8609484Y-20366871D01*
X8619008Y-20347824D01*
X8628531Y-20338300D01*
X8647579Y-20328776D01*
X8685674Y-20328776D01*
X8704722Y-20338300D01*
X8714246Y-20347824D01*
X8723770Y-20366871D01*
X8723770Y-20376395D01*
X8714246Y-20395443D01*
X8704722Y-20404967D01*
X8685674Y-20414490D01*
X8647579Y-20414490D01*
X8628531Y-20424014D01*
X8619008Y-20433538D01*
X8609484Y-20452586D01*
X8609484Y-20490681D01*
X8619008Y-20509729D01*
X8628531Y-20519252D01*
X8647579Y-20528776D01*
X8685674Y-20528776D01*
X8704722Y-20519252D01*
X8714246Y-20509729D01*
X8723770Y-20490681D01*
X8723770Y-20452586D01*
X8714246Y-20433538D01*
X8704722Y-20424014D01*
X8685674Y-20414490D01*
X8819008Y-20528776D02*
X8857103Y-20528776D01*
X8876150Y-20519252D01*
X8885674Y-20509729D01*
X8904722Y-20481157D01*
X8914246Y-20443062D01*
X8914246Y-20366871D01*
X8904722Y-20347824D01*
X8895198Y-20338300D01*
X8876150Y-20328776D01*
X8838055Y-20328776D01*
X8819008Y-20338300D01*
X8809484Y-20347824D01*
X8799960Y-20366871D01*
X8799960Y-20414490D01*
X8809484Y-20433538D01*
X8819008Y-20443062D01*
X8838055Y-20452586D01*
X8876150Y-20452586D01*
X8895198Y-20443062D01*
X8904722Y-20433538D01*
X8914246Y-20414490D01*
X8990436Y-20328776D02*
X8990436Y-20366871D01*
X9066627Y-20328776D02*
X9066627Y-20366871D01*
X9361865Y-20604967D02*
X9352341Y-20595443D01*
X9333293Y-20566871D01*
X9323770Y-20547824D01*
X9314246Y-20519252D01*
X9304722Y-20471633D01*
X9304722Y-20433538D01*
X9314246Y-20385919D01*
X9323770Y-20357348D01*
X9333293Y-20338300D01*
X9352341Y-20309729D01*
X9361865Y-20300205D01*
X9542817Y-20528776D02*
X9428531Y-20528776D01*
X9485674Y-20528776D02*
X9485674Y-20328776D01*
X9466627Y-20357348D01*
X9447579Y-20376395D01*
X9428531Y-20385919D01*
X9733293Y-20528776D02*
X9619008Y-20528776D01*
X9676150Y-20528776D02*
X9676150Y-20328776D01*
X9657103Y-20357348D01*
X9638055Y-20376395D01*
X9619008Y-20385919D01*
X9904722Y-20328776D02*
X9866627Y-20328776D01*
X9847579Y-20338300D01*
X9838055Y-20347824D01*
X9819008Y-20376395D01*
X9809484Y-20414490D01*
X9809484Y-20490681D01*
X9819008Y-20509729D01*
X9828531Y-20519252D01*
X9847579Y-20528776D01*
X9885674Y-20528776D01*
X9904722Y-20519252D01*
X9914246Y-20509729D01*
X9923770Y-20490681D01*
X9923770Y-20443062D01*
X9914246Y-20424014D01*
X9904722Y-20414490D01*
X9885674Y-20404967D01*
X9847579Y-20404967D01*
X9828531Y-20414490D01*
X9819008Y-20424014D01*
X9809484Y-20443062D01*
X10161865Y-20528776D02*
X10161865Y-20328776D01*
X10247579Y-20528776D02*
X10247579Y-20424014D01*
X10238055Y-20404967D01*
X10219008Y-20395443D01*
X10190436Y-20395443D01*
X10171389Y-20404967D01*
X10161865Y-20414490D01*
X10371389Y-20528776D02*
X10352341Y-20519252D01*
X10342817Y-20509729D01*
X10333293Y-20490681D01*
X10333293Y-20433538D01*
X10342817Y-20414490D01*
X10352341Y-20404967D01*
X10371389Y-20395443D01*
X10399960Y-20395443D01*
X10419008Y-20404967D01*
X10428531Y-20414490D01*
X10438055Y-20433538D01*
X10438055Y-20490681D01*
X10428531Y-20509729D01*
X10419008Y-20519252D01*
X10399960Y-20528776D01*
X10371389Y-20528776D01*
X10552341Y-20528776D02*
X10533293Y-20519252D01*
X10523770Y-20500205D01*
X10523770Y-20328776D01*
X10704722Y-20519252D02*
X10685674Y-20528776D01*
X10647579Y-20528776D01*
X10628531Y-20519252D01*
X10619008Y-20500205D01*
X10619008Y-20424014D01*
X10628531Y-20404967D01*
X10647579Y-20395443D01*
X10685674Y-20395443D01*
X10704722Y-20404967D01*
X10714246Y-20424014D01*
X10714246Y-20443062D01*
X10619008Y-20462110D01*
X10790436Y-20519252D02*
X10809484Y-20528776D01*
X10847579Y-20528776D01*
X10866627Y-20519252D01*
X10876150Y-20500205D01*
X10876150Y-20490681D01*
X10866627Y-20471633D01*
X10847579Y-20462110D01*
X10819008Y-20462110D01*
X10799960Y-20452586D01*
X10790436Y-20433538D01*
X10790436Y-20424014D01*
X10799960Y-20404967D01*
X10819008Y-20395443D01*
X10847579Y-20395443D01*
X10866627Y-20404967D01*
X10942817Y-20604967D02*
X10952341Y-20595443D01*
X10971389Y-20566871D01*
X10980912Y-20547824D01*
X10990436Y-20519252D01*
X10999960Y-20471633D01*
X10999960Y-20433538D01*
X10990436Y-20385919D01*
X10980912Y-20357348D01*
X10971389Y-20338300D01*
X10952341Y-20309729D01*
X10942817Y-20300205D01*
X11304722Y-20604967D02*
X11295198Y-20595443D01*
X11276150Y-20566871D01*
X11266627Y-20547824D01*
X11257103Y-20519252D01*
X11247579Y-20471633D01*
X11247579Y-20433538D01*
X11257103Y-20385919D01*
X11266627Y-20357348D01*
X11276150Y-20338300D01*
X11295198Y-20309729D01*
X11304722Y-20300205D01*
X11380912Y-20395443D02*
X11380912Y-20528776D01*
X11380912Y-20414490D02*
X11390436Y-20404967D01*
X11409484Y-20395443D01*
X11438055Y-20395443D01*
X11457103Y-20404967D01*
X11466627Y-20424014D01*
X11466627Y-20528776D01*
X11590436Y-20528776D02*
X11571388Y-20519252D01*
X11561865Y-20509729D01*
X11552341Y-20490681D01*
X11552341Y-20433538D01*
X11561865Y-20414490D01*
X11571388Y-20404967D01*
X11590436Y-20395443D01*
X11619008Y-20395443D01*
X11638055Y-20404967D01*
X11647579Y-20414490D01*
X11657103Y-20433538D01*
X11657103Y-20490681D01*
X11647579Y-20509729D01*
X11638055Y-20519252D01*
X11619008Y-20528776D01*
X11590436Y-20528776D01*
X11714246Y-20395443D02*
X11790436Y-20395443D01*
X11742817Y-20328776D02*
X11742817Y-20500205D01*
X11752341Y-20519252D01*
X11771388Y-20528776D01*
X11790436Y-20528776D01*
X12009484Y-20395443D02*
X12009484Y-20595443D01*
X12009484Y-20404967D02*
X12028531Y-20395443D01*
X12066627Y-20395443D01*
X12085674Y-20404967D01*
X12095198Y-20414490D01*
X12104722Y-20433538D01*
X12104722Y-20490681D01*
X12095198Y-20509729D01*
X12085674Y-20519252D01*
X12066627Y-20528776D01*
X12028531Y-20528776D01*
X12009484Y-20519252D01*
X12219008Y-20528776D02*
X12199960Y-20519252D01*
X12190436Y-20500205D01*
X12190436Y-20328776D01*
X12380912Y-20528776D02*
X12380912Y-20424014D01*
X12371388Y-20404967D01*
X12352341Y-20395443D01*
X12314246Y-20395443D01*
X12295198Y-20404967D01*
X12380912Y-20519252D02*
X12361865Y-20528776D01*
X12314246Y-20528776D01*
X12295198Y-20519252D01*
X12285674Y-20500205D01*
X12285674Y-20481157D01*
X12295198Y-20462110D01*
X12314246Y-20452586D01*
X12361865Y-20452586D01*
X12380912Y-20443062D01*
X12447579Y-20395443D02*
X12523769Y-20395443D01*
X12476150Y-20328776D02*
X12476150Y-20500205D01*
X12485674Y-20519252D01*
X12504722Y-20528776D01*
X12523769Y-20528776D01*
X12666627Y-20519252D02*
X12647579Y-20528776D01*
X12609484Y-20528776D01*
X12590436Y-20519252D01*
X12580912Y-20500205D01*
X12580912Y-20424014D01*
X12590436Y-20404967D01*
X12609484Y-20395443D01*
X12647579Y-20395443D01*
X12666627Y-20404967D01*
X12676150Y-20424014D01*
X12676150Y-20443062D01*
X12580912Y-20462110D01*
X12847579Y-20528776D02*
X12847579Y-20328776D01*
X12847579Y-20519252D02*
X12828531Y-20528776D01*
X12790436Y-20528776D01*
X12771388Y-20519252D01*
X12761865Y-20509729D01*
X12752341Y-20490681D01*
X12752341Y-20433538D01*
X12761865Y-20414490D01*
X12771388Y-20404967D01*
X12790436Y-20395443D01*
X12828531Y-20395443D01*
X12847579Y-20404967D01*
X12923769Y-20604967D02*
X12933293Y-20595443D01*
X12952341Y-20566871D01*
X12961865Y-20547824D01*
X12971388Y-20519252D01*
X12980912Y-20471633D01*
X12980912Y-20433538D01*
X12971388Y-20385919D01*
X12961865Y-20357348D01*
X12952341Y-20338300D01*
X12933293Y-20309729D01*
X12923769Y-20300205D01*
X5760671Y-20804011D02*
X5760671Y-20662589D01*
X5619249Y-20662589D01*
X5619249Y-20804011D01*
X5760671Y-20804011D01*
X6038055Y-20642824D02*
X6047579Y-20633300D01*
X6066627Y-20623776D01*
X6114246Y-20623776D01*
X6133293Y-20633300D01*
X6142817Y-20642824D01*
X6152341Y-20661871D01*
X6152341Y-20680919D01*
X6142817Y-20709490D01*
X6028531Y-20823776D01*
X6152341Y-20823776D01*
X6238055Y-20804729D02*
X6247579Y-20814252D01*
X6238055Y-20823776D01*
X6228531Y-20814252D01*
X6238055Y-20804729D01*
X6238055Y-20823776D01*
X6323769Y-20642824D02*
X6333293Y-20633300D01*
X6352341Y-20623776D01*
X6399960Y-20623776D01*
X6419008Y-20633300D01*
X6428531Y-20642824D01*
X6438055Y-20661871D01*
X6438055Y-20680919D01*
X6428531Y-20709490D01*
X6314246Y-20823776D01*
X6438055Y-20823776D01*
X6561865Y-20623776D02*
X6580912Y-20623776D01*
X6599960Y-20633300D01*
X6609484Y-20642824D01*
X6619008Y-20661871D01*
X6628531Y-20699967D01*
X6628531Y-20747586D01*
X6619008Y-20785681D01*
X6609484Y-20804729D01*
X6599960Y-20814252D01*
X6580912Y-20823776D01*
X6561865Y-20823776D01*
X6542817Y-20814252D01*
X6533293Y-20804729D01*
X6523769Y-20785681D01*
X6514246Y-20747586D01*
X6514246Y-20699967D01*
X6523769Y-20661871D01*
X6533293Y-20642824D01*
X6542817Y-20633300D01*
X6561865Y-20623776D01*
X6752341Y-20623776D02*
X6771388Y-20623776D01*
X6790436Y-20633300D01*
X6799960Y-20642824D01*
X6809484Y-20661871D01*
X6819008Y-20699967D01*
X6819008Y-20747586D01*
X6809484Y-20785681D01*
X6799960Y-20804729D01*
X6790436Y-20814252D01*
X6771388Y-20823776D01*
X6752341Y-20823776D01*
X6733293Y-20814252D01*
X6723769Y-20804729D01*
X6714246Y-20785681D01*
X6704722Y-20747586D01*
X6704722Y-20699967D01*
X6714246Y-20661871D01*
X6723769Y-20642824D01*
X6733293Y-20633300D01*
X6752341Y-20623776D01*
X6904722Y-20823776D02*
X6904722Y-20690443D01*
X6904722Y-20709490D02*
X6914246Y-20699967D01*
X6933293Y-20690443D01*
X6961865Y-20690443D01*
X6980912Y-20699967D01*
X6990436Y-20719014D01*
X6990436Y-20823776D01*
X6990436Y-20719014D02*
X6999960Y-20699967D01*
X7019008Y-20690443D01*
X7047579Y-20690443D01*
X7066627Y-20699967D01*
X7076150Y-20719014D01*
X7076150Y-20823776D01*
X7171388Y-20823776D02*
X7171388Y-20690443D01*
X7171388Y-20709490D02*
X7180912Y-20699967D01*
X7199960Y-20690443D01*
X7228531Y-20690443D01*
X7247579Y-20699967D01*
X7257103Y-20719014D01*
X7257103Y-20823776D01*
X7257103Y-20719014D02*
X7266627Y-20699967D01*
X7285674Y-20690443D01*
X7314246Y-20690443D01*
X7333293Y-20699967D01*
X7342817Y-20719014D01*
X7342817Y-20823776D01*
X7733293Y-20614252D02*
X7561865Y-20871395D01*
X7990436Y-20623776D02*
X8009484Y-20623776D01*
X8028531Y-20633300D01*
X8038055Y-20642824D01*
X8047579Y-20661871D01*
X8057103Y-20699967D01*
X8057103Y-20747586D01*
X8047579Y-20785681D01*
X8038055Y-20804729D01*
X8028531Y-20814252D01*
X8009484Y-20823776D01*
X7990436Y-20823776D01*
X7971388Y-20814252D01*
X7961865Y-20804729D01*
X7952341Y-20785681D01*
X7942817Y-20747586D01*
X7942817Y-20699967D01*
X7952341Y-20661871D01*
X7961865Y-20642824D01*
X7971388Y-20633300D01*
X7990436Y-20623776D01*
X8142817Y-20804729D02*
X8152341Y-20814252D01*
X8142817Y-20823776D01*
X8133293Y-20814252D01*
X8142817Y-20804729D01*
X8142817Y-20823776D01*
X8276150Y-20623776D02*
X8295198Y-20623776D01*
X8314246Y-20633300D01*
X8323769Y-20642824D01*
X8333293Y-20661871D01*
X8342817Y-20699967D01*
X8342817Y-20747586D01*
X8333293Y-20785681D01*
X8323769Y-20804729D01*
X8314246Y-20814252D01*
X8295198Y-20823776D01*
X8276150Y-20823776D01*
X8257103Y-20814252D01*
X8247579Y-20804729D01*
X8238055Y-20785681D01*
X8228531Y-20747586D01*
X8228531Y-20699967D01*
X8238055Y-20661871D01*
X8247579Y-20642824D01*
X8257103Y-20633300D01*
X8276150Y-20623776D01*
X8457103Y-20709490D02*
X8438055Y-20699967D01*
X8428531Y-20690443D01*
X8419008Y-20671395D01*
X8419008Y-20661871D01*
X8428531Y-20642824D01*
X8438055Y-20633300D01*
X8457103Y-20623776D01*
X8495198Y-20623776D01*
X8514246Y-20633300D01*
X8523770Y-20642824D01*
X8533293Y-20661871D01*
X8533293Y-20671395D01*
X8523770Y-20690443D01*
X8514246Y-20699967D01*
X8495198Y-20709490D01*
X8457103Y-20709490D01*
X8438055Y-20719014D01*
X8428531Y-20728538D01*
X8419008Y-20747586D01*
X8419008Y-20785681D01*
X8428531Y-20804729D01*
X8438055Y-20814252D01*
X8457103Y-20823776D01*
X8495198Y-20823776D01*
X8514246Y-20814252D01*
X8523770Y-20804729D01*
X8533293Y-20785681D01*
X8533293Y-20747586D01*
X8523770Y-20728538D01*
X8514246Y-20719014D01*
X8495198Y-20709490D01*
X8704722Y-20623776D02*
X8666627Y-20623776D01*
X8647579Y-20633300D01*
X8638055Y-20642824D01*
X8619008Y-20671395D01*
X8609484Y-20709490D01*
X8609484Y-20785681D01*
X8619008Y-20804729D01*
X8628531Y-20814252D01*
X8647579Y-20823776D01*
X8685674Y-20823776D01*
X8704722Y-20814252D01*
X8714246Y-20804729D01*
X8723770Y-20785681D01*
X8723770Y-20738062D01*
X8714246Y-20719014D01*
X8704722Y-20709490D01*
X8685674Y-20699967D01*
X8647579Y-20699967D01*
X8628531Y-20709490D01*
X8619008Y-20719014D01*
X8609484Y-20738062D01*
X8895198Y-20623776D02*
X8857103Y-20623776D01*
X8838055Y-20633300D01*
X8828531Y-20642824D01*
X8809484Y-20671395D01*
X8799960Y-20709490D01*
X8799960Y-20785681D01*
X8809484Y-20804729D01*
X8819008Y-20814252D01*
X8838055Y-20823776D01*
X8876150Y-20823776D01*
X8895198Y-20814252D01*
X8904722Y-20804729D01*
X8914246Y-20785681D01*
X8914246Y-20738062D01*
X8904722Y-20719014D01*
X8895198Y-20709490D01*
X8876150Y-20699967D01*
X8838055Y-20699967D01*
X8819008Y-20709490D01*
X8809484Y-20719014D01*
X8799960Y-20738062D01*
X8990436Y-20623776D02*
X8990436Y-20661871D01*
X9066627Y-20623776D02*
X9066627Y-20661871D01*
X9361865Y-20899967D02*
X9352341Y-20890443D01*
X9333293Y-20861871D01*
X9323770Y-20842824D01*
X9314246Y-20814252D01*
X9304722Y-20766633D01*
X9304722Y-20728538D01*
X9314246Y-20680919D01*
X9323770Y-20652348D01*
X9333293Y-20633300D01*
X9352341Y-20604729D01*
X9361865Y-20595205D01*
X9542817Y-20823776D02*
X9428531Y-20823776D01*
X9485674Y-20823776D02*
X9485674Y-20623776D01*
X9466627Y-20652348D01*
X9447579Y-20671395D01*
X9428531Y-20680919D01*
X9666627Y-20623776D02*
X9685674Y-20623776D01*
X9704722Y-20633300D01*
X9714246Y-20642824D01*
X9723770Y-20661871D01*
X9733293Y-20699967D01*
X9733293Y-20747586D01*
X9723770Y-20785681D01*
X9714246Y-20804729D01*
X9704722Y-20814252D01*
X9685674Y-20823776D01*
X9666627Y-20823776D01*
X9647579Y-20814252D01*
X9638055Y-20804729D01*
X9628531Y-20785681D01*
X9619008Y-20747586D01*
X9619008Y-20699967D01*
X9628531Y-20661871D01*
X9638055Y-20642824D01*
X9647579Y-20633300D01*
X9666627Y-20623776D01*
X9971389Y-20823776D02*
X9971389Y-20623776D01*
X10057103Y-20823776D02*
X10057103Y-20719014D01*
X10047579Y-20699967D01*
X10028531Y-20690443D01*
X9999960Y-20690443D01*
X9980912Y-20699967D01*
X9971389Y-20709490D01*
X10180912Y-20823776D02*
X10161865Y-20814252D01*
X10152341Y-20804729D01*
X10142817Y-20785681D01*
X10142817Y-20728538D01*
X10152341Y-20709490D01*
X10161865Y-20699967D01*
X10180912Y-20690443D01*
X10209484Y-20690443D01*
X10228531Y-20699967D01*
X10238055Y-20709490D01*
X10247579Y-20728538D01*
X10247579Y-20785681D01*
X10238055Y-20804729D01*
X10228531Y-20814252D01*
X10209484Y-20823776D01*
X10180912Y-20823776D01*
X10361865Y-20823776D02*
X10342817Y-20814252D01*
X10333293Y-20795205D01*
X10333293Y-20623776D01*
X10514246Y-20814252D02*
X10495198Y-20823776D01*
X10457103Y-20823776D01*
X10438055Y-20814252D01*
X10428531Y-20795205D01*
X10428531Y-20719014D01*
X10438055Y-20699967D01*
X10457103Y-20690443D01*
X10495198Y-20690443D01*
X10514246Y-20699967D01*
X10523770Y-20719014D01*
X10523770Y-20738062D01*
X10428531Y-20757110D01*
X10599960Y-20814252D02*
X10619008Y-20823776D01*
X10657103Y-20823776D01*
X10676150Y-20814252D01*
X10685674Y-20795205D01*
X10685674Y-20785681D01*
X10676150Y-20766633D01*
X10657103Y-20757110D01*
X10628531Y-20757110D01*
X10609484Y-20747586D01*
X10599960Y-20728538D01*
X10599960Y-20719014D01*
X10609484Y-20699967D01*
X10628531Y-20690443D01*
X10657103Y-20690443D01*
X10676150Y-20699967D01*
X10752341Y-20899967D02*
X10761865Y-20890443D01*
X10780912Y-20861871D01*
X10790436Y-20842824D01*
X10799960Y-20814252D01*
X10809484Y-20766633D01*
X10809484Y-20728538D01*
X10799960Y-20680919D01*
X10790436Y-20652348D01*
X10780912Y-20633300D01*
X10761865Y-20604729D01*
X10752341Y-20595205D01*
X11114246Y-20899967D02*
X11104722Y-20890443D01*
X11085674Y-20861871D01*
X11076150Y-20842824D01*
X11066627Y-20814252D01*
X11057103Y-20766633D01*
X11057103Y-20728538D01*
X11066627Y-20680919D01*
X11076150Y-20652348D01*
X11085674Y-20633300D01*
X11104722Y-20604729D01*
X11114246Y-20595205D01*
X11190436Y-20690443D02*
X11190436Y-20823776D01*
X11190436Y-20709490D02*
X11199960Y-20699967D01*
X11219008Y-20690443D01*
X11247579Y-20690443D01*
X11266627Y-20699967D01*
X11276150Y-20719014D01*
X11276150Y-20823776D01*
X11399960Y-20823776D02*
X11380912Y-20814252D01*
X11371388Y-20804729D01*
X11361865Y-20785681D01*
X11361865Y-20728538D01*
X11371388Y-20709490D01*
X11380912Y-20699967D01*
X11399960Y-20690443D01*
X11428531Y-20690443D01*
X11447579Y-20699967D01*
X11457103Y-20709490D01*
X11466627Y-20728538D01*
X11466627Y-20785681D01*
X11457103Y-20804729D01*
X11447579Y-20814252D01*
X11428531Y-20823776D01*
X11399960Y-20823776D01*
X11523769Y-20690443D02*
X11599960Y-20690443D01*
X11552341Y-20623776D02*
X11552341Y-20795205D01*
X11561865Y-20814252D01*
X11580912Y-20823776D01*
X11599960Y-20823776D01*
X11819008Y-20690443D02*
X11819008Y-20890443D01*
X11819008Y-20699967D02*
X11838055Y-20690443D01*
X11876150Y-20690443D01*
X11895198Y-20699967D01*
X11904722Y-20709490D01*
X11914246Y-20728538D01*
X11914246Y-20785681D01*
X11904722Y-20804729D01*
X11895198Y-20814252D01*
X11876150Y-20823776D01*
X11838055Y-20823776D01*
X11819008Y-20814252D01*
X12028531Y-20823776D02*
X12009484Y-20814252D01*
X11999960Y-20795205D01*
X11999960Y-20623776D01*
X12190436Y-20823776D02*
X12190436Y-20719014D01*
X12180912Y-20699967D01*
X12161865Y-20690443D01*
X12123769Y-20690443D01*
X12104722Y-20699967D01*
X12190436Y-20814252D02*
X12171388Y-20823776D01*
X12123769Y-20823776D01*
X12104722Y-20814252D01*
X12095198Y-20795205D01*
X12095198Y-20776157D01*
X12104722Y-20757110D01*
X12123769Y-20747586D01*
X12171388Y-20747586D01*
X12190436Y-20738062D01*
X12257103Y-20690443D02*
X12333293Y-20690443D01*
X12285674Y-20623776D02*
X12285674Y-20795205D01*
X12295198Y-20814252D01*
X12314246Y-20823776D01*
X12333293Y-20823776D01*
X12476150Y-20814252D02*
X12457103Y-20823776D01*
X12419008Y-20823776D01*
X12399960Y-20814252D01*
X12390436Y-20795205D01*
X12390436Y-20719014D01*
X12399960Y-20699967D01*
X12419008Y-20690443D01*
X12457103Y-20690443D01*
X12476150Y-20699967D01*
X12485674Y-20719014D01*
X12485674Y-20738062D01*
X12390436Y-20757110D01*
X12657103Y-20823776D02*
X12657103Y-20623776D01*
X12657103Y-20814252D02*
X12638055Y-20823776D01*
X12599960Y-20823776D01*
X12580912Y-20814252D01*
X12571388Y-20804729D01*
X12561865Y-20785681D01*
X12561865Y-20728538D01*
X12571388Y-20709490D01*
X12580912Y-20699967D01*
X12599960Y-20690443D01*
X12638055Y-20690443D01*
X12657103Y-20699967D01*
X12733293Y-20899967D02*
X12742817Y-20890443D01*
X12761865Y-20861871D01*
X12771388Y-20842824D01*
X12780912Y-20814252D01*
X12790436Y-20766633D01*
X12790436Y-20728538D01*
X12780912Y-20680919D01*
X12771388Y-20652348D01*
X12761865Y-20633300D01*
X12742817Y-20604729D01*
X12733293Y-20595205D01*
X5689960Y-21153300D02*
X5789960Y-21053300D01*
X5689960Y-20953300D01*
X5589960Y-21053300D01*
X5689960Y-21153300D01*
X6028531Y-20943776D02*
X6152341Y-20943776D01*
X6085674Y-21019967D01*
X6114246Y-21019967D01*
X6133293Y-21029490D01*
X6142817Y-21039014D01*
X6152341Y-21058062D01*
X6152341Y-21105681D01*
X6142817Y-21124729D01*
X6133293Y-21134252D01*
X6114246Y-21143776D01*
X6057103Y-21143776D01*
X6038055Y-21134252D01*
X6028531Y-21124729D01*
X6238055Y-21124729D02*
X6247579Y-21134252D01*
X6238055Y-21143776D01*
X6228531Y-21134252D01*
X6238055Y-21124729D01*
X6238055Y-21143776D01*
X6342817Y-21143776D02*
X6380912Y-21143776D01*
X6399960Y-21134252D01*
X6409484Y-21124729D01*
X6428531Y-21096157D01*
X6438055Y-21058062D01*
X6438055Y-20981871D01*
X6428531Y-20962824D01*
X6419008Y-20953300D01*
X6399960Y-20943776D01*
X6361865Y-20943776D01*
X6342817Y-20953300D01*
X6333293Y-20962824D01*
X6323769Y-20981871D01*
X6323769Y-21029490D01*
X6333293Y-21048538D01*
X6342817Y-21058062D01*
X6361865Y-21067586D01*
X6399960Y-21067586D01*
X6419008Y-21058062D01*
X6428531Y-21048538D01*
X6438055Y-21029490D01*
X6552341Y-21029490D02*
X6533293Y-21019967D01*
X6523769Y-21010443D01*
X6514246Y-20991395D01*
X6514246Y-20981871D01*
X6523769Y-20962824D01*
X6533293Y-20953300D01*
X6552341Y-20943776D01*
X6590436Y-20943776D01*
X6609484Y-20953300D01*
X6619008Y-20962824D01*
X6628531Y-20981871D01*
X6628531Y-20991395D01*
X6619008Y-21010443D01*
X6609484Y-21019967D01*
X6590436Y-21029490D01*
X6552341Y-21029490D01*
X6533293Y-21039014D01*
X6523769Y-21048538D01*
X6514246Y-21067586D01*
X6514246Y-21105681D01*
X6523769Y-21124729D01*
X6533293Y-21134252D01*
X6552341Y-21143776D01*
X6590436Y-21143776D01*
X6609484Y-21134252D01*
X6619008Y-21124729D01*
X6628531Y-21105681D01*
X6628531Y-21067586D01*
X6619008Y-21048538D01*
X6609484Y-21039014D01*
X6590436Y-21029490D01*
X6742817Y-21029490D02*
X6723769Y-21019967D01*
X6714246Y-21010443D01*
X6704722Y-20991395D01*
X6704722Y-20981871D01*
X6714246Y-20962824D01*
X6723769Y-20953300D01*
X6742817Y-20943776D01*
X6780912Y-20943776D01*
X6799960Y-20953300D01*
X6809484Y-20962824D01*
X6819008Y-20981871D01*
X6819008Y-20991395D01*
X6809484Y-21010443D01*
X6799960Y-21019967D01*
X6780912Y-21029490D01*
X6742817Y-21029490D01*
X6723769Y-21039014D01*
X6714246Y-21048538D01*
X6704722Y-21067586D01*
X6704722Y-21105681D01*
X6714246Y-21124729D01*
X6723769Y-21134252D01*
X6742817Y-21143776D01*
X6780912Y-21143776D01*
X6799960Y-21134252D01*
X6809484Y-21124729D01*
X6819008Y-21105681D01*
X6819008Y-21067586D01*
X6809484Y-21048538D01*
X6799960Y-21039014D01*
X6780912Y-21029490D01*
X6904722Y-21143776D02*
X6904722Y-21010443D01*
X6904722Y-21029490D02*
X6914246Y-21019967D01*
X6933293Y-21010443D01*
X6961865Y-21010443D01*
X6980912Y-21019967D01*
X6990436Y-21039014D01*
X6990436Y-21143776D01*
X6990436Y-21039014D02*
X6999960Y-21019967D01*
X7019008Y-21010443D01*
X7047579Y-21010443D01*
X7066627Y-21019967D01*
X7076150Y-21039014D01*
X7076150Y-21143776D01*
X7171388Y-21143776D02*
X7171388Y-21010443D01*
X7171388Y-21029490D02*
X7180912Y-21019967D01*
X7199960Y-21010443D01*
X7228531Y-21010443D01*
X7247579Y-21019967D01*
X7257103Y-21039014D01*
X7257103Y-21143776D01*
X7257103Y-21039014D02*
X7266627Y-21019967D01*
X7285674Y-21010443D01*
X7314246Y-21010443D01*
X7333293Y-21019967D01*
X7342817Y-21039014D01*
X7342817Y-21143776D01*
X7733293Y-20934252D02*
X7561865Y-21191395D01*
X7990436Y-20943776D02*
X8009484Y-20943776D01*
X8028531Y-20953300D01*
X8038055Y-20962824D01*
X8047579Y-20981871D01*
X8057103Y-21019967D01*
X8057103Y-21067586D01*
X8047579Y-21105681D01*
X8038055Y-21124729D01*
X8028531Y-21134252D01*
X8009484Y-21143776D01*
X7990436Y-21143776D01*
X7971388Y-21134252D01*
X7961865Y-21124729D01*
X7952341Y-21105681D01*
X7942817Y-21067586D01*
X7942817Y-21019967D01*
X7952341Y-20981871D01*
X7961865Y-20962824D01*
X7971388Y-20953300D01*
X7990436Y-20943776D01*
X8142817Y-21124729D02*
X8152341Y-21134252D01*
X8142817Y-21143776D01*
X8133293Y-21134252D01*
X8142817Y-21124729D01*
X8142817Y-21143776D01*
X8342817Y-21143776D02*
X8228531Y-21143776D01*
X8285674Y-21143776D02*
X8285674Y-20943776D01*
X8266627Y-20972348D01*
X8247579Y-20991395D01*
X8228531Y-21000919D01*
X8523770Y-20943776D02*
X8428531Y-20943776D01*
X8419008Y-21039014D01*
X8428531Y-21029490D01*
X8447579Y-21019967D01*
X8495198Y-21019967D01*
X8514246Y-21029490D01*
X8523770Y-21039014D01*
X8533293Y-21058062D01*
X8533293Y-21105681D01*
X8523770Y-21124729D01*
X8514246Y-21134252D01*
X8495198Y-21143776D01*
X8447579Y-21143776D01*
X8428531Y-21134252D01*
X8419008Y-21124729D01*
X8599960Y-20943776D02*
X8733293Y-20943776D01*
X8647579Y-21143776D01*
X8847579Y-20943776D02*
X8866627Y-20943776D01*
X8885674Y-20953300D01*
X8895198Y-20962824D01*
X8904722Y-20981871D01*
X8914246Y-21019967D01*
X8914246Y-21067586D01*
X8904722Y-21105681D01*
X8895198Y-21124729D01*
X8885674Y-21134252D01*
X8866627Y-21143776D01*
X8847579Y-21143776D01*
X8828531Y-21134252D01*
X8819008Y-21124729D01*
X8809484Y-21105681D01*
X8799960Y-21067586D01*
X8799960Y-21019967D01*
X8809484Y-20981871D01*
X8819008Y-20962824D01*
X8828531Y-20953300D01*
X8847579Y-20943776D01*
X8990436Y-20943776D02*
X8990436Y-20981871D01*
X9066627Y-20943776D02*
X9066627Y-20981871D01*
X9361865Y-21219967D02*
X9352341Y-21210443D01*
X9333293Y-21181871D01*
X9323770Y-21162824D01*
X9314246Y-21134252D01*
X9304722Y-21086633D01*
X9304722Y-21048538D01*
X9314246Y-21000919D01*
X9323770Y-20972348D01*
X9333293Y-20953300D01*
X9352341Y-20924729D01*
X9361865Y-20915205D01*
X9533293Y-20943776D02*
X9438055Y-20943776D01*
X9428531Y-21039014D01*
X9438055Y-21029490D01*
X9457103Y-21019967D01*
X9504722Y-21019967D01*
X9523770Y-21029490D01*
X9533293Y-21039014D01*
X9542817Y-21058062D01*
X9542817Y-21105681D01*
X9533293Y-21124729D01*
X9523770Y-21134252D01*
X9504722Y-21143776D01*
X9457103Y-21143776D01*
X9438055Y-21134252D01*
X9428531Y-21124729D01*
X9657103Y-21029490D02*
X9638055Y-21019967D01*
X9628531Y-21010443D01*
X9619008Y-20991395D01*
X9619008Y-20981871D01*
X9628531Y-20962824D01*
X9638055Y-20953300D01*
X9657103Y-20943776D01*
X9695198Y-20943776D01*
X9714246Y-20953300D01*
X9723770Y-20962824D01*
X9733293Y-20981871D01*
X9733293Y-20991395D01*
X9723770Y-21010443D01*
X9714246Y-21019967D01*
X9695198Y-21029490D01*
X9657103Y-21029490D01*
X9638055Y-21039014D01*
X9628531Y-21048538D01*
X9619008Y-21067586D01*
X9619008Y-21105681D01*
X9628531Y-21124729D01*
X9638055Y-21134252D01*
X9657103Y-21143776D01*
X9695198Y-21143776D01*
X9714246Y-21134252D01*
X9723770Y-21124729D01*
X9733293Y-21105681D01*
X9733293Y-21067586D01*
X9723770Y-21048538D01*
X9714246Y-21039014D01*
X9695198Y-21029490D01*
X9971389Y-21143776D02*
X9971389Y-20943776D01*
X10057103Y-21143776D02*
X10057103Y-21039014D01*
X10047579Y-21019967D01*
X10028531Y-21010443D01*
X9999960Y-21010443D01*
X9980912Y-21019967D01*
X9971389Y-21029490D01*
X10180912Y-21143776D02*
X10161865Y-21134252D01*
X10152341Y-21124729D01*
X10142817Y-21105681D01*
X10142817Y-21048538D01*
X10152341Y-21029490D01*
X10161865Y-21019967D01*
X10180912Y-21010443D01*
X10209484Y-21010443D01*
X10228531Y-21019967D01*
X10238055Y-21029490D01*
X10247579Y-21048538D01*
X10247579Y-21105681D01*
X10238055Y-21124729D01*
X10228531Y-21134252D01*
X10209484Y-21143776D01*
X10180912Y-21143776D01*
X10361865Y-21143776D02*
X10342817Y-21134252D01*
X10333293Y-21115205D01*
X10333293Y-20943776D01*
X10514246Y-21134252D02*
X10495198Y-21143776D01*
X10457103Y-21143776D01*
X10438055Y-21134252D01*
X10428531Y-21115205D01*
X10428531Y-21039014D01*
X10438055Y-21019967D01*
X10457103Y-21010443D01*
X10495198Y-21010443D01*
X10514246Y-21019967D01*
X10523770Y-21039014D01*
X10523770Y-21058062D01*
X10428531Y-21077110D01*
X10599960Y-21134252D02*
X10619008Y-21143776D01*
X10657103Y-21143776D01*
X10676150Y-21134252D01*
X10685674Y-21115205D01*
X10685674Y-21105681D01*
X10676150Y-21086633D01*
X10657103Y-21077110D01*
X10628531Y-21077110D01*
X10609484Y-21067586D01*
X10599960Y-21048538D01*
X10599960Y-21039014D01*
X10609484Y-21019967D01*
X10628531Y-21010443D01*
X10657103Y-21010443D01*
X10676150Y-21019967D01*
X10752341Y-21219967D02*
X10761865Y-21210443D01*
X10780912Y-21181871D01*
X10790436Y-21162824D01*
X10799960Y-21134252D01*
X10809484Y-21086633D01*
X10809484Y-21048538D01*
X10799960Y-21000919D01*
X10790436Y-20972348D01*
X10780912Y-20953300D01*
X10761865Y-20924729D01*
X10752341Y-20915205D01*
X11114246Y-21219967D02*
X11104722Y-21210443D01*
X11085674Y-21181871D01*
X11076150Y-21162824D01*
X11066627Y-21134252D01*
X11057103Y-21086633D01*
X11057103Y-21048538D01*
X11066627Y-21000919D01*
X11076150Y-20972348D01*
X11085674Y-20953300D01*
X11104722Y-20924729D01*
X11114246Y-20915205D01*
X11190436Y-21010443D02*
X11190436Y-21143776D01*
X11190436Y-21029490D02*
X11199960Y-21019967D01*
X11219008Y-21010443D01*
X11247579Y-21010443D01*
X11266627Y-21019967D01*
X11276150Y-21039014D01*
X11276150Y-21143776D01*
X11399960Y-21143776D02*
X11380912Y-21134252D01*
X11371388Y-21124729D01*
X11361865Y-21105681D01*
X11361865Y-21048538D01*
X11371388Y-21029490D01*
X11380912Y-21019967D01*
X11399960Y-21010443D01*
X11428531Y-21010443D01*
X11447579Y-21019967D01*
X11457103Y-21029490D01*
X11466627Y-21048538D01*
X11466627Y-21105681D01*
X11457103Y-21124729D01*
X11447579Y-21134252D01*
X11428531Y-21143776D01*
X11399960Y-21143776D01*
X11523769Y-21010443D02*
X11599960Y-21010443D01*
X11552341Y-20943776D02*
X11552341Y-21115205D01*
X11561865Y-21134252D01*
X11580912Y-21143776D01*
X11599960Y-21143776D01*
X11819008Y-21010443D02*
X11819008Y-21210443D01*
X11819008Y-21019967D02*
X11838055Y-21010443D01*
X11876150Y-21010443D01*
X11895198Y-21019967D01*
X11904722Y-21029490D01*
X11914246Y-21048538D01*
X11914246Y-21105681D01*
X11904722Y-21124729D01*
X11895198Y-21134252D01*
X11876150Y-21143776D01*
X11838055Y-21143776D01*
X11819008Y-21134252D01*
X12028531Y-21143776D02*
X12009484Y-21134252D01*
X11999960Y-21115205D01*
X11999960Y-20943776D01*
X12190436Y-21143776D02*
X12190436Y-21039014D01*
X12180912Y-21019967D01*
X12161865Y-21010443D01*
X12123769Y-21010443D01*
X12104722Y-21019967D01*
X12190436Y-21134252D02*
X12171388Y-21143776D01*
X12123769Y-21143776D01*
X12104722Y-21134252D01*
X12095198Y-21115205D01*
X12095198Y-21096157D01*
X12104722Y-21077110D01*
X12123769Y-21067586D01*
X12171388Y-21067586D01*
X12190436Y-21058062D01*
X12257103Y-21010443D02*
X12333293Y-21010443D01*
X12285674Y-20943776D02*
X12285674Y-21115205D01*
X12295198Y-21134252D01*
X12314246Y-21143776D01*
X12333293Y-21143776D01*
X12476150Y-21134252D02*
X12457103Y-21143776D01*
X12419008Y-21143776D01*
X12399960Y-21134252D01*
X12390436Y-21115205D01*
X12390436Y-21039014D01*
X12399960Y-21019967D01*
X12419008Y-21010443D01*
X12457103Y-21010443D01*
X12476150Y-21019967D01*
X12485674Y-21039014D01*
X12485674Y-21058062D01*
X12390436Y-21077110D01*
X12657103Y-21143776D02*
X12657103Y-20943776D01*
X12657103Y-21134252D02*
X12638055Y-21143776D01*
X12599960Y-21143776D01*
X12580912Y-21134252D01*
X12571388Y-21124729D01*
X12561865Y-21105681D01*
X12561865Y-21048538D01*
X12571388Y-21029490D01*
X12580912Y-21019967D01*
X12599960Y-21010443D01*
X12638055Y-21010443D01*
X12657103Y-21019967D01*
X12733293Y-21219967D02*
X12742817Y-21210443D01*
X12761865Y-21181871D01*
X12771388Y-21162824D01*
X12780912Y-21134252D01*
X12790436Y-21086633D01*
X12790436Y-21048538D01*
X12780912Y-21000919D01*
X12771388Y-20972348D01*
X12761865Y-20953300D01*
X12742817Y-20924729D01*
X12733293Y-20915205D01*
M02*
