%TF.GenerationSoftware,KiCad,Pcbnew,7.0.6*%
%TF.CreationDate,2023-09-01T00:58:10-07:00*%
%TF.ProjectId,top_plate,746f705f-706c-4617-9465-2e6b69636164,rev?*%
%TF.SameCoordinates,Original*%
%TF.FileFunction,Legend,Top*%
%TF.FilePolarity,Positive*%
%FSLAX46Y46*%
G04 Gerber Fmt 4.6, Leading zero omitted, Abs format (unit mm)*
G04 Created by KiCad (PCBNEW 7.0.6) date 2023-09-01 00:58:10*
%MOMM*%
%LPD*%
G01*
G04 APERTURE LIST*
%ADD10C,0.120000*%
G04 APERTURE END LIST*
D10*
%TO.C,K_CTRL*%
X37533199Y-165837770D02*
X37533199Y-180037770D01*
X37533199Y-180037770D02*
X51733199Y-180037770D01*
X51733199Y-165837770D02*
X37533199Y-165837770D01*
X51733199Y-180037770D02*
X51733199Y-165837770D01*
%TO.C,K_B*%
X164617273Y-156070838D02*
X163379662Y-170216803D01*
X163379662Y-170216803D02*
X177525627Y-171454414D01*
X178763238Y-157308449D02*
X164617273Y-156070838D01*
X177525627Y-171454414D02*
X178763238Y-157308449D01*
%TO.C,K_UP*%
X342547649Y-157827376D02*
X342547649Y-172027376D01*
X342547649Y-172027376D02*
X356747649Y-172027376D01*
X356747649Y-157827376D02*
X342547649Y-157827376D01*
X356747649Y-172027376D02*
X356747649Y-157827376D01*
%TO.C,K_MINUS*%
X274090149Y-90467376D02*
X274090149Y-104667376D01*
X274090149Y-104667376D02*
X288290149Y-104667376D01*
X288290149Y-90467376D02*
X274090149Y-90467376D01*
X288290149Y-104667376D02*
X288290149Y-90467376D01*
%TO.C,K_CAPS*%
X42295699Y-127737770D02*
X42295699Y-141937770D01*
X42295699Y-141937770D02*
X56495699Y-141937770D01*
X56495699Y-127737770D02*
X42295699Y-127737770D01*
X56495699Y-141937770D02*
X56495699Y-127737770D01*
%TO.C,K_COMMA*%
X239031199Y-151959315D02*
X240268810Y-166105280D01*
X240268810Y-166105280D02*
X254414775Y-164867669D01*
X253177164Y-150721704D02*
X239031199Y-151959315D01*
X254414775Y-164867669D02*
X253177164Y-150721704D01*
%TO.C,K_W*%
X96772249Y-111889632D02*
X95534638Y-126035597D01*
X95534638Y-126035597D02*
X109680603Y-127273208D01*
X110918214Y-113127243D02*
X96772249Y-111889632D01*
X109680603Y-127273208D02*
X110918214Y-113127243D01*
%TO.C,K_T*%
X153704776Y-116870582D02*
X152467165Y-131016547D01*
X152467165Y-131016547D02*
X166613130Y-132254158D01*
X167850741Y-118108193D02*
X153704776Y-116870582D01*
X166613130Y-132254158D02*
X167850741Y-118108193D01*
%TO.C,K_5*%
X145876339Y-97062915D02*
X144638728Y-111208880D01*
X144638728Y-111208880D02*
X158784693Y-112446491D01*
X160022304Y-98300526D02*
X145876339Y-97062915D01*
X158784693Y-112446491D02*
X160022304Y-98300526D01*
%TO.C,K_X*%
X107684747Y-151089887D02*
X106447136Y-165235852D01*
X106447136Y-165235852D02*
X120593101Y-166473463D01*
X121830712Y-152327498D02*
X107684747Y-151089887D01*
X120593101Y-166473463D02*
X121830712Y-152327498D01*
%TO.C,K_Z*%
X78014449Y-146787770D02*
X78014449Y-160987770D01*
X78014449Y-160987770D02*
X92214449Y-160987770D01*
X92214449Y-146787770D02*
X78014449Y-146787770D01*
X92214449Y-160987770D02*
X92214449Y-146787770D01*
%TO.C,K_1*%
X54201949Y-89637770D02*
X54201949Y-103837770D01*
X54201949Y-103837770D02*
X68401949Y-103837770D01*
X68401949Y-89637770D02*
X54201949Y-89637770D01*
X68401949Y-103837770D02*
X68401949Y-89637770D01*
%TO.C,K_E*%
X115749757Y-113549948D02*
X114512146Y-127695913D01*
X114512146Y-127695913D02*
X128658111Y-128933524D01*
X129895722Y-114787559D02*
X115749757Y-113549948D01*
X128658111Y-128933524D02*
X129895722Y-114787559D01*
%TO.C,K_TAB*%
X39914449Y-108687770D02*
X39914449Y-122887770D01*
X39914449Y-122887770D02*
X54114449Y-122887770D01*
X54114449Y-108687770D02*
X39914449Y-108687770D01*
X54114449Y-122887770D02*
X54114449Y-108687770D01*
%TO.C,K_ENTER*%
X319333899Y-128567376D02*
X319333899Y-142767376D01*
X319333899Y-142767376D02*
X333533899Y-142767376D01*
X333533899Y-128567376D02*
X319333899Y-128567376D01*
X333533899Y-142767376D02*
X333533899Y-128567376D01*
%TO.C,K_D*%
X118833818Y-132942537D02*
X117596207Y-147088502D01*
X117596207Y-147088502D02*
X131742172Y-148326113D01*
X132979783Y-134180148D02*
X118833818Y-132942537D01*
X131742172Y-148326113D02*
X132979783Y-134180148D01*
%TO.C,K_3*%
X107921321Y-93742281D02*
X106683710Y-107888246D01*
X106683710Y-107888246D02*
X120829675Y-109125857D01*
X122067286Y-94979892D02*
X107921321Y-93742281D01*
X120829675Y-109125857D02*
X122067286Y-94979892D01*
%TO.C,K_U*%
X202499924Y-116909852D02*
X203737535Y-131055817D01*
X203737535Y-131055817D02*
X217883500Y-129818206D01*
X216645889Y-115672241D02*
X202499924Y-116909852D01*
X217883500Y-129818206D02*
X216645889Y-115672241D01*
%TO.C,K_ALT*%
X94163487Y-169029697D02*
X92925876Y-183175662D01*
X92925876Y-183175662D02*
X107071841Y-184413273D01*
X108309452Y-170267308D02*
X94163487Y-169029697D01*
X107071841Y-184413273D02*
X108309452Y-170267308D01*
%TO.C,K_I*%
X221477433Y-115249535D02*
X222715044Y-129395500D01*
X222715044Y-129395500D02*
X236861009Y-128157889D01*
X235623398Y-114011924D02*
X221477433Y-115249535D01*
X236861009Y-128157889D02*
X235623398Y-114011924D01*
%TO.C,K_G*%
X156788836Y-136263170D02*
X155551225Y-150409135D01*
X155551225Y-150409135D02*
X169697190Y-151646746D01*
X170934801Y-137500781D02*
X156788836Y-136263170D01*
X169697190Y-151646746D02*
X170934801Y-137500781D01*
%TO.C,K_O*%
X240454942Y-113589218D02*
X241692553Y-127735183D01*
X241692553Y-127735183D02*
X255838518Y-126497572D01*
X254600907Y-112351607D02*
X240454942Y-113589218D01*
X255838518Y-126497572D02*
X254600907Y-112351607D01*
%TO.C,K_BACKSPACE*%
X321715149Y-90467376D02*
X321715149Y-104667376D01*
X321715149Y-104667376D02*
X335915149Y-104667376D01*
X335915149Y-90467376D02*
X321715149Y-90467376D01*
X335915149Y-104667376D02*
X335915149Y-90467376D01*
%TO.C,K_`*%
X35151949Y-89637770D02*
X35151949Y-103837770D01*
X35151949Y-103837770D02*
X49351949Y-103837770D01*
X49351949Y-89637770D02*
X35151949Y-89637770D01*
X49351949Y-103837770D02*
X49351949Y-89637770D01*
%TO.C,K_P*%
X264565149Y-109517376D02*
X264565149Y-123717376D01*
X264565149Y-123717376D02*
X278765149Y-123717376D01*
X278765149Y-109517376D02*
X264565149Y-109517376D01*
X278765149Y-123717376D02*
X278765149Y-109517376D01*
%TO.C,K_QUOTE*%
X288377649Y-128567376D02*
X288377649Y-142767376D01*
X288377649Y-142767376D02*
X302577649Y-142767376D01*
X302577649Y-128567376D02*
X288377649Y-128567376D01*
X302577649Y-142767376D02*
X302577649Y-128567376D01*
%TO.C,K_N*%
X201076180Y-155279948D02*
X202313791Y-169425913D01*
X202313791Y-169425913D02*
X216459756Y-168188302D01*
X215222145Y-154042337D02*
X201076180Y-155279948D01*
X216459756Y-168188302D02*
X215222145Y-154042337D01*
%TO.C,K_9*%
X229305871Y-95441867D02*
X230543482Y-109587832D01*
X230543482Y-109587832D02*
X244689447Y-108350221D01*
X243451836Y-94204256D02*
X229305871Y-95441867D01*
X244689447Y-108350221D02*
X243451836Y-94204256D01*
%TO.C,K_4*%
X126898830Y-95402598D02*
X125661219Y-109548563D01*
X125661219Y-109548563D02*
X139807184Y-110786174D01*
X141044795Y-96640209D02*
X126898830Y-95402598D01*
X139807184Y-110786174D02*
X141044795Y-96640209D01*
%TO.C,K_R*%
X134727266Y-115210265D02*
X133489655Y-129356230D01*
X133489655Y-129356230D02*
X147635620Y-130593841D01*
X148873231Y-116447876D02*
X134727266Y-115210265D01*
X147635620Y-130593841D02*
X148873231Y-116447876D01*
%TO.C,K_0*%
X255040149Y-90467376D02*
X255040149Y-104667376D01*
X255040149Y-104667376D02*
X269240149Y-104667376D01*
X269240149Y-90467376D02*
X255040149Y-90467376D01*
X269240149Y-104667376D02*
X269240149Y-90467376D01*
%TO.C,K_Y*%
X183522415Y-118570168D02*
X184760026Y-132716133D01*
X184760026Y-132716133D02*
X198905991Y-131478522D01*
X197668380Y-117332557D02*
X183522415Y-118570168D01*
X198905991Y-131478522D02*
X197668380Y-117332557D01*
%TO.C,K_8*%
X210328362Y-97102184D02*
X211565973Y-111248149D01*
X211565973Y-111248149D02*
X225711938Y-110010538D01*
X224474327Y-95864573D02*
X210328362Y-97102184D01*
X225711938Y-110010538D02*
X224474327Y-95864573D01*
%TO.C,K_RIGHT*%
X361597649Y-176877376D02*
X361597649Y-191077376D01*
X361597649Y-191077376D02*
X375797649Y-191077376D01*
X375797649Y-176877376D02*
X361597649Y-176877376D01*
X375797649Y-191077376D02*
X375797649Y-176877376D01*
%TO.C,K_OBRAC*%
X302665149Y-109517376D02*
X302665149Y-123717376D01*
X302665149Y-123717376D02*
X316865149Y-123717376D01*
X316865149Y-109517376D02*
X302665149Y-109517376D01*
X316865149Y-123717376D02*
X316865149Y-109517376D01*
%TO.C,K_WIN*%
X61345699Y-165837770D02*
X61345699Y-180037770D01*
X61345699Y-180037770D02*
X75545699Y-180037770D01*
X75545699Y-165837770D02*
X61345699Y-165837770D01*
X75545699Y-180037770D02*
X75545699Y-165837770D01*
%TO.C,K_CBRAC*%
X283615149Y-109517376D02*
X283615149Y-123717376D01*
X283615149Y-123717376D02*
X297815149Y-123717376D01*
X297815149Y-109517376D02*
X283615149Y-109517376D01*
X297815149Y-123717376D02*
X297815149Y-109517376D01*
%TO.C,K_S*%
X99856309Y-131282220D02*
X98618698Y-145428185D01*
X98618698Y-145428185D02*
X112764663Y-146665796D01*
X114002274Y-132519831D02*
X99856309Y-131282220D01*
X112764663Y-146665796D02*
X114002274Y-132519831D01*
%TO.C,K_V*%
X145639764Y-154410521D02*
X144402153Y-168556486D01*
X144402153Y-168556486D02*
X158548118Y-169794097D01*
X159785729Y-155648132D02*
X145639764Y-154410521D01*
X158548118Y-169794097D02*
X159785729Y-155648132D01*
%TO.C,K_SHIFT1*%
X290835649Y-147607376D02*
X290835649Y-161807376D01*
X290835649Y-161807376D02*
X305035649Y-161807376D01*
X305035649Y-147607376D02*
X290835649Y-147607376D01*
X305035649Y-161807376D02*
X305035649Y-147607376D01*
%TO.C,K_A*%
X68489449Y-127737770D02*
X68489449Y-141937770D01*
X68489449Y-141937770D02*
X82689449Y-141937770D01*
X82689449Y-127737770D02*
X68489449Y-127737770D01*
X82689449Y-141937770D02*
X82689449Y-127737770D01*
%TO.C,K_F*%
X137811327Y-134602854D02*
X136573716Y-148748819D01*
X136573716Y-148748819D02*
X150719681Y-149986430D01*
X151957292Y-135840465D02*
X137811327Y-134602854D01*
X150719681Y-149986430D02*
X151957292Y-135840465D01*
%TO.C,K_LEFT*%
X323497649Y-176877376D02*
X323497649Y-191077376D01*
X323497649Y-191077376D02*
X337697649Y-191077376D01*
X337697649Y-176877376D02*
X323497649Y-176877376D01*
X337697649Y-191077376D02*
X337697649Y-176877376D01*
%TO.C,K_ALT1*%
X257296836Y-169484046D02*
X258534447Y-183630011D01*
X258534447Y-183630011D02*
X272680412Y-182392400D01*
X271442801Y-168246435D02*
X257296836Y-169484046D01*
X272680412Y-182392400D02*
X271442801Y-168246435D01*
%TO.C,K_6*%
X172373343Y-100422818D02*
X173610954Y-114568783D01*
X173610954Y-114568783D02*
X187756919Y-113331172D01*
X186519308Y-99185207D02*
X172373343Y-100422818D01*
X187756919Y-113331172D02*
X186519308Y-99185207D01*
%TO.C,K_K*%
X227882126Y-133811964D02*
X229119737Y-147957929D01*
X229119737Y-147957929D02*
X243265702Y-146720318D01*
X242028091Y-132574353D02*
X227882126Y-133811964D01*
X243265702Y-146720318D02*
X242028091Y-132574353D01*
%TO.C,K_L*%
X246859636Y-132151647D02*
X248097247Y-146297612D01*
X248097247Y-146297612D02*
X262243212Y-145060001D01*
X261005601Y-130914036D02*
X246859636Y-132151647D01*
X262243212Y-145060001D02*
X261005601Y-130914036D01*
%TO.C,K_DOWN*%
X342547649Y-176877376D02*
X342547649Y-191077376D01*
X342547649Y-191077376D02*
X356747649Y-191077376D01*
X356747649Y-176877376D02*
X342547649Y-176877376D01*
X356747649Y-191077376D02*
X356747649Y-176877376D01*
%TO.C,K_BSLSH*%
X326477649Y-109517376D02*
X326477649Y-123717376D01*
X326477649Y-123717376D02*
X340677649Y-123717376D01*
X340677649Y-109517376D02*
X326477649Y-109517376D01*
X340677649Y-123717376D02*
X340677649Y-109517376D01*
%TO.C,K_H*%
X189927108Y-137132598D02*
X191164719Y-151278563D01*
X191164719Y-151278563D02*
X205310684Y-150040952D01*
X204073073Y-135894987D02*
X189927108Y-137132598D01*
X205310684Y-150040952D02*
X204073073Y-135894987D01*
%TO.C,K_7*%
X191350852Y-98762501D02*
X192588463Y-112908466D01*
X192588463Y-112908466D02*
X206734428Y-111670855D01*
X205496817Y-97524890D02*
X191350852Y-98762501D01*
X206734428Y-111670855D02*
X205496817Y-97524890D01*
%TO.C,K_SHIFT*%
X47058199Y-146787770D02*
X47058199Y-160987770D01*
X47058199Y-160987770D02*
X61258199Y-160987770D01*
X61258199Y-146787770D02*
X47058199Y-146787770D01*
X61258199Y-160987770D02*
X61258199Y-146787770D01*
%TO.C,REF\u002A\u002A*%
X134652451Y-172602138D02*
X133414840Y-186748103D01*
X133414840Y-186748103D02*
X147560805Y-187985714D01*
X148798416Y-173839749D02*
X134652451Y-172602138D01*
X147560805Y-187985714D02*
X148798416Y-173839749D01*
%TO.C,K_M*%
X220053689Y-153619632D02*
X221291300Y-167765597D01*
X221291300Y-167765597D02*
X235437265Y-166527986D01*
X234199654Y-152382021D02*
X220053689Y-153619632D01*
X235437265Y-166527986D02*
X234199654Y-152382021D01*
%TO.C,K_DOT*%
X258008708Y-150298998D02*
X259246319Y-164444963D01*
X259246319Y-164444963D02*
X273392284Y-163207352D01*
X272154673Y-149061387D02*
X258008708Y-150298998D01*
X273392284Y-163207352D02*
X272154673Y-149061387D01*
%TO.C,K_C*%
X126662256Y-152750204D02*
X125424645Y-166896169D01*
X125424645Y-166896169D02*
X139570610Y-168133780D01*
X140808221Y-153987815D02*
X126662256Y-152750204D01*
X139570610Y-168133780D02*
X140808221Y-153987815D01*
%TO.C,REF\u002A\u002A*%
X216953072Y-173023757D02*
X218190683Y-187169722D01*
X218190683Y-187169722D02*
X232336648Y-185932111D01*
X231099037Y-171786146D02*
X216953072Y-173023757D01*
X232336648Y-185932111D02*
X231099037Y-171786146D01*
%TO.C,K_2*%
X88943811Y-92081965D02*
X87706200Y-106227930D01*
X87706200Y-106227930D02*
X101852165Y-107465541D01*
X103089776Y-93319576D02*
X88943811Y-92081965D01*
X101852165Y-107465541D02*
X103089776Y-93319576D01*
%TO.C,K_SEMIC*%
X269327649Y-128567376D02*
X269327649Y-142767376D01*
X269327649Y-142767376D02*
X283527649Y-142767376D01*
X283527649Y-128567376D02*
X269327649Y-128567376D01*
X283527649Y-142767376D02*
X283527649Y-128567376D01*
%TO.C,K_J*%
X208904618Y-135472280D02*
X210142229Y-149618245D01*
X210142229Y-149618245D02*
X224288194Y-148380634D01*
X223050583Y-134234669D02*
X208904618Y-135472280D01*
X224288194Y-148380634D02*
X223050583Y-134234669D01*
%TO.C,K_Q*%
X63726949Y-108687770D02*
X63726949Y-122887770D01*
X63726949Y-122887770D02*
X77926949Y-122887770D01*
X77926949Y-108687770D02*
X63726949Y-108687770D01*
X77926949Y-122887770D02*
X77926949Y-108687770D01*
%TO.C,K_EQUAL*%
X293140149Y-90467376D02*
X293140149Y-104667376D01*
X293140149Y-104667376D02*
X307340149Y-104667376D01*
X307340149Y-90467376D02*
X293140149Y-90467376D01*
X307340149Y-104667376D02*
X307340149Y-90467376D01*
%TD*%
M02*
