%TF.GenerationSoftware,KiCad,Pcbnew,7.0.6*%
%TF.CreationDate,2023-09-01T00:58:07-07:00*%
%TF.ProjectId,top_plate,746f705f-706c-4617-9465-2e6b69636164,rev?*%
%TF.SameCoordinates,Original*%
%TF.FileFunction,Drillmap*%
%TF.FilePolarity,Positive*%
%FSLAX45Y45*%
G04 Gerber Fmt 4.5, Leading zero omitted, Abs format (unit mm)*
G04 Created by KiCad (PCBNEW 7.0.6) date 2023-09-01 00:58:07*
%MOMM*%
%LPD*%
G01*
G04 APERTURE LIST*
%ADD10C,0.200000*%
%ADD11C,0.100000*%
%ADD12C,0.050000*%
%ADD13C,0.304800*%
%ADD14C,0.398780*%
G04 APERTURE END LIST*
D10*
X7782570Y-8144277D02*
G75*
G03*
X7782570Y-8144277I0J0D01*
G01*
D11*
X3374810Y-8598768D02*
G75*
G03*
X3120810Y-8852767I-3J-253997D01*
G01*
D12*
X36495487Y-9636909D02*
X38679562Y-9636909D01*
X38679562Y-11795588D01*
X36495487Y-11795588D01*
X36495487Y-9636909D01*
D11*
X40044916Y-20064203D02*
X3374810Y-20064203D01*
D12*
X31596752Y-18290719D02*
G75*
G03*
X31596752Y-18290719I-1597915J0D01*
G01*
D11*
X40298916Y-8852767D02*
X40298916Y-19810203D01*
X40298913Y-8852767D02*
G75*
G03*
X40044916Y-8598767I-254003J-3D01*
G01*
X40044916Y-20064206D02*
G75*
G03*
X40298916Y-19810203I15J253986D01*
G01*
X3374810Y-8598767D02*
X40044916Y-8598767D01*
X3120810Y-19810203D02*
X3120810Y-8852767D01*
X3120807Y-19810203D02*
G75*
G03*
X3374810Y-20064203I254013J13D01*
G01*
D10*
D13*
X4065945Y-14508377D02*
X4370745Y-14813177D01*
X4370745Y-14508377D02*
X4065945Y-14813177D01*
X6453545Y-14508377D02*
X6758345Y-14813177D01*
X6758345Y-14508377D02*
X6453545Y-14813177D01*
X12110837Y-17026743D02*
X12415637Y-17331543D01*
X12415637Y-17026743D02*
X12110837Y-17331543D01*
X15906339Y-17358807D02*
X16211139Y-17663607D01*
X16211139Y-17358807D02*
X15906339Y-17663607D01*
X20351552Y-17266754D02*
X20656352Y-17571554D01*
X20656352Y-17266754D02*
X20351552Y-17571554D01*
X24147053Y-16934690D02*
X24451853Y-17239490D01*
X24451853Y-16934690D02*
X24147053Y-17239490D01*
X28457765Y-14650338D02*
X28762565Y-14955138D01*
X28762565Y-14650338D02*
X28457765Y-14955138D01*
X30845365Y-14650338D02*
X31150165Y-14955138D01*
X31150165Y-14650338D02*
X30845365Y-14955138D01*
X31286765Y-12730338D02*
X31591565Y-13035138D01*
X31591565Y-12730338D02*
X31286765Y-13035138D01*
X31521565Y-8910838D02*
X31826365Y-9215638D01*
X31826365Y-8910838D02*
X31521565Y-9215638D01*
X33674365Y-12730338D02*
X33979165Y-13035138D01*
X33979165Y-12730338D02*
X33674365Y-13035138D01*
X33909165Y-8910838D02*
X34213965Y-9215638D01*
X34213965Y-8910838D02*
X33909165Y-9215638D01*
D14*
X4417735Y-16181777D02*
G75*
G03*
X4417735Y-16181777I-199390J0D01*
G01*
X6805335Y-16181777D02*
G75*
G03*
X6805335Y-16181777I-199390J0D01*
G01*
X12330063Y-18694356D02*
G75*
G03*
X12330063Y-18694356I-199390J0D01*
G01*
X16125565Y-19026419D02*
G75*
G03*
X16125565Y-19026419I-199390J0D01*
G01*
X20835906Y-18934366D02*
G75*
G03*
X20835906Y-18934366I-199390J0D01*
G01*
X24631407Y-18602302D02*
G75*
G03*
X24631407Y-18602302I-199390J0D01*
G01*
X28809555Y-16323738D02*
G75*
G03*
X28809555Y-16323738I-199390J0D01*
G01*
X31197155Y-16323738D02*
G75*
G03*
X31197155Y-16323738I-199390J0D01*
G01*
X31638555Y-14403738D02*
G75*
G03*
X31638555Y-14403738I-199390J0D01*
G01*
X31873355Y-10584238D02*
G75*
G03*
X31873355Y-10584238I-199390J0D01*
G01*
X34026155Y-14403738D02*
G75*
G03*
X34026155Y-14403738I-199390J0D01*
G01*
X34260955Y-10584238D02*
G75*
G03*
X34260955Y-10584238I-199390J0D01*
G01*
D10*
X3376586Y-20380689D02*
X3376586Y-20180689D01*
X3376586Y-20180689D02*
X3424205Y-20180689D01*
X3424205Y-20180689D02*
X3452777Y-20190213D01*
X3452777Y-20190213D02*
X3471824Y-20209261D01*
X3471824Y-20209261D02*
X3481348Y-20228308D01*
X3481348Y-20228308D02*
X3490872Y-20266404D01*
X3490872Y-20266404D02*
X3490872Y-20294975D01*
X3490872Y-20294975D02*
X3481348Y-20333070D01*
X3481348Y-20333070D02*
X3471824Y-20352118D01*
X3471824Y-20352118D02*
X3452777Y-20371166D01*
X3452777Y-20371166D02*
X3424205Y-20380689D01*
X3424205Y-20380689D02*
X3376586Y-20380689D01*
X3576586Y-20380689D02*
X3576586Y-20247356D01*
X3576586Y-20285451D02*
X3586110Y-20266404D01*
X3586110Y-20266404D02*
X3595634Y-20256880D01*
X3595634Y-20256880D02*
X3614682Y-20247356D01*
X3614682Y-20247356D02*
X3633729Y-20247356D01*
X3700396Y-20380689D02*
X3700396Y-20247356D01*
X3700396Y-20180689D02*
X3690872Y-20190213D01*
X3690872Y-20190213D02*
X3700396Y-20199737D01*
X3700396Y-20199737D02*
X3709920Y-20190213D01*
X3709920Y-20190213D02*
X3700396Y-20180689D01*
X3700396Y-20180689D02*
X3700396Y-20199737D01*
X3824205Y-20380689D02*
X3805158Y-20371166D01*
X3805158Y-20371166D02*
X3795634Y-20352118D01*
X3795634Y-20352118D02*
X3795634Y-20180689D01*
X3928967Y-20380689D02*
X3909920Y-20371166D01*
X3909920Y-20371166D02*
X3900396Y-20352118D01*
X3900396Y-20352118D02*
X3900396Y-20180689D01*
X4157539Y-20380689D02*
X4157539Y-20180689D01*
X4157539Y-20180689D02*
X4224206Y-20323546D01*
X4224206Y-20323546D02*
X4290872Y-20180689D01*
X4290872Y-20180689D02*
X4290872Y-20380689D01*
X4471825Y-20380689D02*
X4471825Y-20275927D01*
X4471825Y-20275927D02*
X4462301Y-20256880D01*
X4462301Y-20256880D02*
X4443253Y-20247356D01*
X4443253Y-20247356D02*
X4405158Y-20247356D01*
X4405158Y-20247356D02*
X4386110Y-20256880D01*
X4471825Y-20371166D02*
X4452777Y-20380689D01*
X4452777Y-20380689D02*
X4405158Y-20380689D01*
X4405158Y-20380689D02*
X4386110Y-20371166D01*
X4386110Y-20371166D02*
X4376586Y-20352118D01*
X4376586Y-20352118D02*
X4376586Y-20333070D01*
X4376586Y-20333070D02*
X4386110Y-20314023D01*
X4386110Y-20314023D02*
X4405158Y-20304499D01*
X4405158Y-20304499D02*
X4452777Y-20304499D01*
X4452777Y-20304499D02*
X4471825Y-20294975D01*
X4567063Y-20247356D02*
X4567063Y-20447356D01*
X4567063Y-20256880D02*
X4586110Y-20247356D01*
X4586110Y-20247356D02*
X4624206Y-20247356D01*
X4624206Y-20247356D02*
X4643253Y-20256880D01*
X4643253Y-20256880D02*
X4652777Y-20266404D01*
X4652777Y-20266404D02*
X4662301Y-20285451D01*
X4662301Y-20285451D02*
X4662301Y-20342594D01*
X4662301Y-20342594D02*
X4652777Y-20361642D01*
X4652777Y-20361642D02*
X4643253Y-20371166D01*
X4643253Y-20371166D02*
X4624206Y-20380689D01*
X4624206Y-20380689D02*
X4586110Y-20380689D01*
X4586110Y-20380689D02*
X4567063Y-20371166D01*
X4748015Y-20361642D02*
X4757539Y-20371166D01*
X4757539Y-20371166D02*
X4748015Y-20380689D01*
X4748015Y-20380689D02*
X4738491Y-20371166D01*
X4738491Y-20371166D02*
X4748015Y-20361642D01*
X4748015Y-20361642D02*
X4748015Y-20380689D01*
X4748015Y-20256880D02*
X4757539Y-20266404D01*
X4757539Y-20266404D02*
X4748015Y-20275927D01*
X4748015Y-20275927D02*
X4738491Y-20266404D01*
X4738491Y-20266404D02*
X4748015Y-20256880D01*
X4748015Y-20256880D02*
X4748015Y-20275927D01*
X2915810Y-20609206D02*
X3115810Y-20809206D01*
X3115810Y-20609206D02*
X2915810Y-20809206D01*
X3357539Y-20600689D02*
X3481348Y-20600689D01*
X3481348Y-20600689D02*
X3414682Y-20676880D01*
X3414682Y-20676880D02*
X3443253Y-20676880D01*
X3443253Y-20676880D02*
X3462301Y-20686404D01*
X3462301Y-20686404D02*
X3471824Y-20695927D01*
X3471824Y-20695927D02*
X3481348Y-20714975D01*
X3481348Y-20714975D02*
X3481348Y-20762594D01*
X3481348Y-20762594D02*
X3471824Y-20781642D01*
X3471824Y-20781642D02*
X3462301Y-20791166D01*
X3462301Y-20791166D02*
X3443253Y-20800689D01*
X3443253Y-20800689D02*
X3386110Y-20800689D01*
X3386110Y-20800689D02*
X3367063Y-20791166D01*
X3367063Y-20791166D02*
X3357539Y-20781642D01*
X3567063Y-20781642D02*
X3576586Y-20791166D01*
X3576586Y-20791166D02*
X3567063Y-20800689D01*
X3567063Y-20800689D02*
X3557539Y-20791166D01*
X3557539Y-20791166D02*
X3567063Y-20781642D01*
X3567063Y-20781642D02*
X3567063Y-20800689D01*
X3700396Y-20600689D02*
X3719444Y-20600689D01*
X3719444Y-20600689D02*
X3738491Y-20610213D01*
X3738491Y-20610213D02*
X3748015Y-20619737D01*
X3748015Y-20619737D02*
X3757539Y-20638785D01*
X3757539Y-20638785D02*
X3767063Y-20676880D01*
X3767063Y-20676880D02*
X3767063Y-20724499D01*
X3767063Y-20724499D02*
X3757539Y-20762594D01*
X3757539Y-20762594D02*
X3748015Y-20781642D01*
X3748015Y-20781642D02*
X3738491Y-20791166D01*
X3738491Y-20791166D02*
X3719444Y-20800689D01*
X3719444Y-20800689D02*
X3700396Y-20800689D01*
X3700396Y-20800689D02*
X3681348Y-20791166D01*
X3681348Y-20791166D02*
X3671824Y-20781642D01*
X3671824Y-20781642D02*
X3662301Y-20762594D01*
X3662301Y-20762594D02*
X3652777Y-20724499D01*
X3652777Y-20724499D02*
X3652777Y-20676880D01*
X3652777Y-20676880D02*
X3662301Y-20638785D01*
X3662301Y-20638785D02*
X3671824Y-20619737D01*
X3671824Y-20619737D02*
X3681348Y-20610213D01*
X3681348Y-20610213D02*
X3700396Y-20600689D01*
X3938491Y-20667356D02*
X3938491Y-20800689D01*
X3890872Y-20591166D02*
X3843253Y-20734023D01*
X3843253Y-20734023D02*
X3967063Y-20734023D01*
X4071824Y-20686404D02*
X4052777Y-20676880D01*
X4052777Y-20676880D02*
X4043253Y-20667356D01*
X4043253Y-20667356D02*
X4033729Y-20648308D01*
X4033729Y-20648308D02*
X4033729Y-20638785D01*
X4033729Y-20638785D02*
X4043253Y-20619737D01*
X4043253Y-20619737D02*
X4052777Y-20610213D01*
X4052777Y-20610213D02*
X4071824Y-20600689D01*
X4071824Y-20600689D02*
X4109920Y-20600689D01*
X4109920Y-20600689D02*
X4128967Y-20610213D01*
X4128967Y-20610213D02*
X4138491Y-20619737D01*
X4138491Y-20619737D02*
X4148015Y-20638785D01*
X4148015Y-20638785D02*
X4148015Y-20648308D01*
X4148015Y-20648308D02*
X4138491Y-20667356D01*
X4138491Y-20667356D02*
X4128967Y-20676880D01*
X4128967Y-20676880D02*
X4109920Y-20686404D01*
X4109920Y-20686404D02*
X4071824Y-20686404D01*
X4071824Y-20686404D02*
X4052777Y-20695927D01*
X4052777Y-20695927D02*
X4043253Y-20705451D01*
X4043253Y-20705451D02*
X4033729Y-20724499D01*
X4033729Y-20724499D02*
X4033729Y-20762594D01*
X4033729Y-20762594D02*
X4043253Y-20781642D01*
X4043253Y-20781642D02*
X4052777Y-20791166D01*
X4052777Y-20791166D02*
X4071824Y-20800689D01*
X4071824Y-20800689D02*
X4109920Y-20800689D01*
X4109920Y-20800689D02*
X4128967Y-20791166D01*
X4128967Y-20791166D02*
X4138491Y-20781642D01*
X4138491Y-20781642D02*
X4148015Y-20762594D01*
X4148015Y-20762594D02*
X4148015Y-20724499D01*
X4148015Y-20724499D02*
X4138491Y-20705451D01*
X4138491Y-20705451D02*
X4128967Y-20695927D01*
X4128967Y-20695927D02*
X4109920Y-20686404D01*
X4233729Y-20800689D02*
X4233729Y-20667356D01*
X4233729Y-20686404D02*
X4243253Y-20676880D01*
X4243253Y-20676880D02*
X4262301Y-20667356D01*
X4262301Y-20667356D02*
X4290872Y-20667356D01*
X4290872Y-20667356D02*
X4309920Y-20676880D01*
X4309920Y-20676880D02*
X4319444Y-20695927D01*
X4319444Y-20695927D02*
X4319444Y-20800689D01*
X4319444Y-20695927D02*
X4328967Y-20676880D01*
X4328967Y-20676880D02*
X4348015Y-20667356D01*
X4348015Y-20667356D02*
X4376586Y-20667356D01*
X4376586Y-20667356D02*
X4395634Y-20676880D01*
X4395634Y-20676880D02*
X4405158Y-20695927D01*
X4405158Y-20695927D02*
X4405158Y-20800689D01*
X4500396Y-20800689D02*
X4500396Y-20667356D01*
X4500396Y-20686404D02*
X4509920Y-20676880D01*
X4509920Y-20676880D02*
X4528967Y-20667356D01*
X4528967Y-20667356D02*
X4557539Y-20667356D01*
X4557539Y-20667356D02*
X4576587Y-20676880D01*
X4576587Y-20676880D02*
X4586110Y-20695927D01*
X4586110Y-20695927D02*
X4586110Y-20800689D01*
X4586110Y-20695927D02*
X4595634Y-20676880D01*
X4595634Y-20676880D02*
X4614682Y-20667356D01*
X4614682Y-20667356D02*
X4643253Y-20667356D01*
X4643253Y-20667356D02*
X4662301Y-20676880D01*
X4662301Y-20676880D02*
X4671825Y-20695927D01*
X4671825Y-20695927D02*
X4671825Y-20800689D01*
X5062301Y-20591166D02*
X4890872Y-20848308D01*
X5319444Y-20600689D02*
X5338491Y-20600689D01*
X5338491Y-20600689D02*
X5357539Y-20610213D01*
X5357539Y-20610213D02*
X5367063Y-20619737D01*
X5367063Y-20619737D02*
X5376587Y-20638785D01*
X5376587Y-20638785D02*
X5386110Y-20676880D01*
X5386110Y-20676880D02*
X5386110Y-20724499D01*
X5386110Y-20724499D02*
X5376587Y-20762594D01*
X5376587Y-20762594D02*
X5367063Y-20781642D01*
X5367063Y-20781642D02*
X5357539Y-20791166D01*
X5357539Y-20791166D02*
X5338491Y-20800689D01*
X5338491Y-20800689D02*
X5319444Y-20800689D01*
X5319444Y-20800689D02*
X5300396Y-20791166D01*
X5300396Y-20791166D02*
X5290872Y-20781642D01*
X5290872Y-20781642D02*
X5281349Y-20762594D01*
X5281349Y-20762594D02*
X5271825Y-20724499D01*
X5271825Y-20724499D02*
X5271825Y-20676880D01*
X5271825Y-20676880D02*
X5281349Y-20638785D01*
X5281349Y-20638785D02*
X5290872Y-20619737D01*
X5290872Y-20619737D02*
X5300396Y-20610213D01*
X5300396Y-20610213D02*
X5319444Y-20600689D01*
X5471825Y-20781642D02*
X5481349Y-20791166D01*
X5481349Y-20791166D02*
X5471825Y-20800689D01*
X5471825Y-20800689D02*
X5462301Y-20791166D01*
X5462301Y-20791166D02*
X5471825Y-20781642D01*
X5471825Y-20781642D02*
X5471825Y-20800689D01*
X5671825Y-20800689D02*
X5557539Y-20800689D01*
X5614682Y-20800689D02*
X5614682Y-20600689D01*
X5614682Y-20600689D02*
X5595634Y-20629261D01*
X5595634Y-20629261D02*
X5576587Y-20648308D01*
X5576587Y-20648308D02*
X5557539Y-20657832D01*
X5748015Y-20619737D02*
X5757539Y-20610213D01*
X5757539Y-20610213D02*
X5776587Y-20600689D01*
X5776587Y-20600689D02*
X5824206Y-20600689D01*
X5824206Y-20600689D02*
X5843253Y-20610213D01*
X5843253Y-20610213D02*
X5852777Y-20619737D01*
X5852777Y-20619737D02*
X5862301Y-20638785D01*
X5862301Y-20638785D02*
X5862301Y-20657832D01*
X5862301Y-20657832D02*
X5852777Y-20686404D01*
X5852777Y-20686404D02*
X5738491Y-20800689D01*
X5738491Y-20800689D02*
X5862301Y-20800689D01*
X5986110Y-20600689D02*
X6005158Y-20600689D01*
X6005158Y-20600689D02*
X6024206Y-20610213D01*
X6024206Y-20610213D02*
X6033729Y-20619737D01*
X6033729Y-20619737D02*
X6043253Y-20638785D01*
X6043253Y-20638785D02*
X6052777Y-20676880D01*
X6052777Y-20676880D02*
X6052777Y-20724499D01*
X6052777Y-20724499D02*
X6043253Y-20762594D01*
X6043253Y-20762594D02*
X6033729Y-20781642D01*
X6033729Y-20781642D02*
X6024206Y-20791166D01*
X6024206Y-20791166D02*
X6005158Y-20800689D01*
X6005158Y-20800689D02*
X5986110Y-20800689D01*
X5986110Y-20800689D02*
X5967063Y-20791166D01*
X5967063Y-20791166D02*
X5957539Y-20781642D01*
X5957539Y-20781642D02*
X5948015Y-20762594D01*
X5948015Y-20762594D02*
X5938491Y-20724499D01*
X5938491Y-20724499D02*
X5938491Y-20676880D01*
X5938491Y-20676880D02*
X5948015Y-20638785D01*
X5948015Y-20638785D02*
X5957539Y-20619737D01*
X5957539Y-20619737D02*
X5967063Y-20610213D01*
X5967063Y-20610213D02*
X5986110Y-20600689D01*
X6176587Y-20600689D02*
X6195634Y-20600689D01*
X6195634Y-20600689D02*
X6214682Y-20610213D01*
X6214682Y-20610213D02*
X6224206Y-20619737D01*
X6224206Y-20619737D02*
X6233729Y-20638785D01*
X6233729Y-20638785D02*
X6243253Y-20676880D01*
X6243253Y-20676880D02*
X6243253Y-20724499D01*
X6243253Y-20724499D02*
X6233729Y-20762594D01*
X6233729Y-20762594D02*
X6224206Y-20781642D01*
X6224206Y-20781642D02*
X6214682Y-20791166D01*
X6214682Y-20791166D02*
X6195634Y-20800689D01*
X6195634Y-20800689D02*
X6176587Y-20800689D01*
X6176587Y-20800689D02*
X6157539Y-20791166D01*
X6157539Y-20791166D02*
X6148015Y-20781642D01*
X6148015Y-20781642D02*
X6138491Y-20762594D01*
X6138491Y-20762594D02*
X6128968Y-20724499D01*
X6128968Y-20724499D02*
X6128968Y-20676880D01*
X6128968Y-20676880D02*
X6138491Y-20638785D01*
X6138491Y-20638785D02*
X6148015Y-20619737D01*
X6148015Y-20619737D02*
X6157539Y-20610213D01*
X6157539Y-20610213D02*
X6176587Y-20600689D01*
X6319444Y-20600689D02*
X6319444Y-20638785D01*
X6395634Y-20600689D02*
X6395634Y-20638785D01*
X6690872Y-20876880D02*
X6681349Y-20867356D01*
X6681349Y-20867356D02*
X6662301Y-20838785D01*
X6662301Y-20838785D02*
X6652777Y-20819737D01*
X6652777Y-20819737D02*
X6643253Y-20791166D01*
X6643253Y-20791166D02*
X6633730Y-20743546D01*
X6633730Y-20743546D02*
X6633730Y-20705451D01*
X6633730Y-20705451D02*
X6643253Y-20657832D01*
X6643253Y-20657832D02*
X6652777Y-20629261D01*
X6652777Y-20629261D02*
X6662301Y-20610213D01*
X6662301Y-20610213D02*
X6681349Y-20581642D01*
X6681349Y-20581642D02*
X6690872Y-20572118D01*
X6871825Y-20800689D02*
X6757539Y-20800689D01*
X6814682Y-20800689D02*
X6814682Y-20600689D01*
X6814682Y-20600689D02*
X6795634Y-20629261D01*
X6795634Y-20629261D02*
X6776587Y-20648308D01*
X6776587Y-20648308D02*
X6757539Y-20657832D01*
X6948015Y-20619737D02*
X6957539Y-20610213D01*
X6957539Y-20610213D02*
X6976587Y-20600689D01*
X6976587Y-20600689D02*
X7024206Y-20600689D01*
X7024206Y-20600689D02*
X7043253Y-20610213D01*
X7043253Y-20610213D02*
X7052777Y-20619737D01*
X7052777Y-20619737D02*
X7062301Y-20638785D01*
X7062301Y-20638785D02*
X7062301Y-20657832D01*
X7062301Y-20657832D02*
X7052777Y-20686404D01*
X7052777Y-20686404D02*
X6938491Y-20800689D01*
X6938491Y-20800689D02*
X7062301Y-20800689D01*
X7300396Y-20800689D02*
X7300396Y-20600689D01*
X7386111Y-20800689D02*
X7386111Y-20695927D01*
X7386111Y-20695927D02*
X7376587Y-20676880D01*
X7376587Y-20676880D02*
X7357539Y-20667356D01*
X7357539Y-20667356D02*
X7328968Y-20667356D01*
X7328968Y-20667356D02*
X7309920Y-20676880D01*
X7309920Y-20676880D02*
X7300396Y-20686404D01*
X7509920Y-20800689D02*
X7490872Y-20791166D01*
X7490872Y-20791166D02*
X7481349Y-20781642D01*
X7481349Y-20781642D02*
X7471825Y-20762594D01*
X7471825Y-20762594D02*
X7471825Y-20705451D01*
X7471825Y-20705451D02*
X7481349Y-20686404D01*
X7481349Y-20686404D02*
X7490872Y-20676880D01*
X7490872Y-20676880D02*
X7509920Y-20667356D01*
X7509920Y-20667356D02*
X7538492Y-20667356D01*
X7538492Y-20667356D02*
X7557539Y-20676880D01*
X7557539Y-20676880D02*
X7567063Y-20686404D01*
X7567063Y-20686404D02*
X7576587Y-20705451D01*
X7576587Y-20705451D02*
X7576587Y-20762594D01*
X7576587Y-20762594D02*
X7567063Y-20781642D01*
X7567063Y-20781642D02*
X7557539Y-20791166D01*
X7557539Y-20791166D02*
X7538492Y-20800689D01*
X7538492Y-20800689D02*
X7509920Y-20800689D01*
X7690872Y-20800689D02*
X7671825Y-20791166D01*
X7671825Y-20791166D02*
X7662301Y-20772118D01*
X7662301Y-20772118D02*
X7662301Y-20600689D01*
X7843253Y-20791166D02*
X7824206Y-20800689D01*
X7824206Y-20800689D02*
X7786111Y-20800689D01*
X7786111Y-20800689D02*
X7767063Y-20791166D01*
X7767063Y-20791166D02*
X7757539Y-20772118D01*
X7757539Y-20772118D02*
X7757539Y-20695927D01*
X7757539Y-20695927D02*
X7767063Y-20676880D01*
X7767063Y-20676880D02*
X7786111Y-20667356D01*
X7786111Y-20667356D02*
X7824206Y-20667356D01*
X7824206Y-20667356D02*
X7843253Y-20676880D01*
X7843253Y-20676880D02*
X7852777Y-20695927D01*
X7852777Y-20695927D02*
X7852777Y-20714975D01*
X7852777Y-20714975D02*
X7757539Y-20734023D01*
X7928968Y-20791166D02*
X7948015Y-20800689D01*
X7948015Y-20800689D02*
X7986111Y-20800689D01*
X7986111Y-20800689D02*
X8005158Y-20791166D01*
X8005158Y-20791166D02*
X8014682Y-20772118D01*
X8014682Y-20772118D02*
X8014682Y-20762594D01*
X8014682Y-20762594D02*
X8005158Y-20743546D01*
X8005158Y-20743546D02*
X7986111Y-20734023D01*
X7986111Y-20734023D02*
X7957539Y-20734023D01*
X7957539Y-20734023D02*
X7938492Y-20724499D01*
X7938492Y-20724499D02*
X7928968Y-20705451D01*
X7928968Y-20705451D02*
X7928968Y-20695927D01*
X7928968Y-20695927D02*
X7938492Y-20676880D01*
X7938492Y-20676880D02*
X7957539Y-20667356D01*
X7957539Y-20667356D02*
X7986111Y-20667356D01*
X7986111Y-20667356D02*
X8005158Y-20676880D01*
X8081349Y-20876880D02*
X8090873Y-20867356D01*
X8090873Y-20867356D02*
X8109920Y-20838785D01*
X8109920Y-20838785D02*
X8119444Y-20819737D01*
X8119444Y-20819737D02*
X8128968Y-20791166D01*
X8128968Y-20791166D02*
X8138492Y-20743546D01*
X8138492Y-20743546D02*
X8138492Y-20705451D01*
X8138492Y-20705451D02*
X8128968Y-20657832D01*
X8128968Y-20657832D02*
X8119444Y-20629261D01*
X8119444Y-20629261D02*
X8109920Y-20610213D01*
X8109920Y-20610213D02*
X8090873Y-20581642D01*
X8090873Y-20581642D02*
X8081349Y-20572118D01*
X8443254Y-20876880D02*
X8433730Y-20867356D01*
X8433730Y-20867356D02*
X8414682Y-20838785D01*
X8414682Y-20838785D02*
X8405158Y-20819737D01*
X8405158Y-20819737D02*
X8395635Y-20791166D01*
X8395635Y-20791166D02*
X8386111Y-20743546D01*
X8386111Y-20743546D02*
X8386111Y-20705451D01*
X8386111Y-20705451D02*
X8395635Y-20657832D01*
X8395635Y-20657832D02*
X8405158Y-20629261D01*
X8405158Y-20629261D02*
X8414682Y-20610213D01*
X8414682Y-20610213D02*
X8433730Y-20581642D01*
X8433730Y-20581642D02*
X8443254Y-20572118D01*
X8519444Y-20667356D02*
X8519444Y-20800689D01*
X8519444Y-20686404D02*
X8528968Y-20676880D01*
X8528968Y-20676880D02*
X8548015Y-20667356D01*
X8548015Y-20667356D02*
X8576587Y-20667356D01*
X8576587Y-20667356D02*
X8595635Y-20676880D01*
X8595635Y-20676880D02*
X8605158Y-20695927D01*
X8605158Y-20695927D02*
X8605158Y-20800689D01*
X8728968Y-20800689D02*
X8709920Y-20791166D01*
X8709920Y-20791166D02*
X8700396Y-20781642D01*
X8700396Y-20781642D02*
X8690873Y-20762594D01*
X8690873Y-20762594D02*
X8690873Y-20705451D01*
X8690873Y-20705451D02*
X8700396Y-20686404D01*
X8700396Y-20686404D02*
X8709920Y-20676880D01*
X8709920Y-20676880D02*
X8728968Y-20667356D01*
X8728968Y-20667356D02*
X8757539Y-20667356D01*
X8757539Y-20667356D02*
X8776587Y-20676880D01*
X8776587Y-20676880D02*
X8786111Y-20686404D01*
X8786111Y-20686404D02*
X8795635Y-20705451D01*
X8795635Y-20705451D02*
X8795635Y-20762594D01*
X8795635Y-20762594D02*
X8786111Y-20781642D01*
X8786111Y-20781642D02*
X8776587Y-20791166D01*
X8776587Y-20791166D02*
X8757539Y-20800689D01*
X8757539Y-20800689D02*
X8728968Y-20800689D01*
X8852777Y-20667356D02*
X8928968Y-20667356D01*
X8881349Y-20600689D02*
X8881349Y-20772118D01*
X8881349Y-20772118D02*
X8890873Y-20791166D01*
X8890873Y-20791166D02*
X8909920Y-20800689D01*
X8909920Y-20800689D02*
X8928968Y-20800689D01*
X9148016Y-20667356D02*
X9148016Y-20867356D01*
X9148016Y-20676880D02*
X9167063Y-20667356D01*
X9167063Y-20667356D02*
X9205158Y-20667356D01*
X9205158Y-20667356D02*
X9224206Y-20676880D01*
X9224206Y-20676880D02*
X9233730Y-20686404D01*
X9233730Y-20686404D02*
X9243254Y-20705451D01*
X9243254Y-20705451D02*
X9243254Y-20762594D01*
X9243254Y-20762594D02*
X9233730Y-20781642D01*
X9233730Y-20781642D02*
X9224206Y-20791166D01*
X9224206Y-20791166D02*
X9205158Y-20800689D01*
X9205158Y-20800689D02*
X9167063Y-20800689D01*
X9167063Y-20800689D02*
X9148016Y-20791166D01*
X9357539Y-20800689D02*
X9338492Y-20791166D01*
X9338492Y-20791166D02*
X9328968Y-20772118D01*
X9328968Y-20772118D02*
X9328968Y-20600689D01*
X9519444Y-20800689D02*
X9519444Y-20695927D01*
X9519444Y-20695927D02*
X9509920Y-20676880D01*
X9509920Y-20676880D02*
X9490873Y-20667356D01*
X9490873Y-20667356D02*
X9452777Y-20667356D01*
X9452777Y-20667356D02*
X9433730Y-20676880D01*
X9519444Y-20791166D02*
X9500397Y-20800689D01*
X9500397Y-20800689D02*
X9452777Y-20800689D01*
X9452777Y-20800689D02*
X9433730Y-20791166D01*
X9433730Y-20791166D02*
X9424206Y-20772118D01*
X9424206Y-20772118D02*
X9424206Y-20753070D01*
X9424206Y-20753070D02*
X9433730Y-20734023D01*
X9433730Y-20734023D02*
X9452777Y-20724499D01*
X9452777Y-20724499D02*
X9500397Y-20724499D01*
X9500397Y-20724499D02*
X9519444Y-20714975D01*
X9586111Y-20667356D02*
X9662301Y-20667356D01*
X9614682Y-20600689D02*
X9614682Y-20772118D01*
X9614682Y-20772118D02*
X9624206Y-20791166D01*
X9624206Y-20791166D02*
X9643254Y-20800689D01*
X9643254Y-20800689D02*
X9662301Y-20800689D01*
X9805158Y-20791166D02*
X9786111Y-20800689D01*
X9786111Y-20800689D02*
X9748016Y-20800689D01*
X9748016Y-20800689D02*
X9728968Y-20791166D01*
X9728968Y-20791166D02*
X9719444Y-20772118D01*
X9719444Y-20772118D02*
X9719444Y-20695927D01*
X9719444Y-20695927D02*
X9728968Y-20676880D01*
X9728968Y-20676880D02*
X9748016Y-20667356D01*
X9748016Y-20667356D02*
X9786111Y-20667356D01*
X9786111Y-20667356D02*
X9805158Y-20676880D01*
X9805158Y-20676880D02*
X9814682Y-20695927D01*
X9814682Y-20695927D02*
X9814682Y-20714975D01*
X9814682Y-20714975D02*
X9719444Y-20734023D01*
X9986111Y-20800689D02*
X9986111Y-20600689D01*
X9986111Y-20791166D02*
X9967063Y-20800689D01*
X9967063Y-20800689D02*
X9928968Y-20800689D01*
X9928968Y-20800689D02*
X9909920Y-20791166D01*
X9909920Y-20791166D02*
X9900397Y-20781642D01*
X9900397Y-20781642D02*
X9890873Y-20762594D01*
X9890873Y-20762594D02*
X9890873Y-20705451D01*
X9890873Y-20705451D02*
X9900397Y-20686404D01*
X9900397Y-20686404D02*
X9909920Y-20676880D01*
X9909920Y-20676880D02*
X9928968Y-20667356D01*
X9928968Y-20667356D02*
X9967063Y-20667356D01*
X9967063Y-20667356D02*
X9986111Y-20676880D01*
X10062301Y-20876880D02*
X10071825Y-20867356D01*
X10071825Y-20867356D02*
X10090873Y-20838785D01*
X10090873Y-20838785D02*
X10100397Y-20819737D01*
X10100397Y-20819737D02*
X10109920Y-20791166D01*
X10109920Y-20791166D02*
X10119444Y-20743546D01*
X10119444Y-20743546D02*
X10119444Y-20705451D01*
X10119444Y-20705451D02*
X10109920Y-20657832D01*
X10109920Y-20657832D02*
X10100397Y-20629261D01*
X10100397Y-20629261D02*
X10090873Y-20610213D01*
X10090873Y-20610213D02*
X10071825Y-20581642D01*
X10071825Y-20581642D02*
X10062301Y-20572118D01*
X3115810Y-21029206D02*
G75*
G03*
X3115810Y-21029206I-100000J0D01*
G01*
X3357539Y-20920689D02*
X3481348Y-20920689D01*
X3481348Y-20920689D02*
X3414682Y-20996880D01*
X3414682Y-20996880D02*
X3443253Y-20996880D01*
X3443253Y-20996880D02*
X3462301Y-21006404D01*
X3462301Y-21006404D02*
X3471824Y-21015927D01*
X3471824Y-21015927D02*
X3481348Y-21034975D01*
X3481348Y-21034975D02*
X3481348Y-21082594D01*
X3481348Y-21082594D02*
X3471824Y-21101642D01*
X3471824Y-21101642D02*
X3462301Y-21111166D01*
X3462301Y-21111166D02*
X3443253Y-21120689D01*
X3443253Y-21120689D02*
X3386110Y-21120689D01*
X3386110Y-21120689D02*
X3367063Y-21111166D01*
X3367063Y-21111166D02*
X3357539Y-21101642D01*
X3567063Y-21101642D02*
X3576586Y-21111166D01*
X3576586Y-21111166D02*
X3567063Y-21120689D01*
X3567063Y-21120689D02*
X3557539Y-21111166D01*
X3557539Y-21111166D02*
X3567063Y-21101642D01*
X3567063Y-21101642D02*
X3567063Y-21120689D01*
X3671824Y-21120689D02*
X3709920Y-21120689D01*
X3709920Y-21120689D02*
X3728967Y-21111166D01*
X3728967Y-21111166D02*
X3738491Y-21101642D01*
X3738491Y-21101642D02*
X3757539Y-21073070D01*
X3757539Y-21073070D02*
X3767063Y-21034975D01*
X3767063Y-21034975D02*
X3767063Y-20958785D01*
X3767063Y-20958785D02*
X3757539Y-20939737D01*
X3757539Y-20939737D02*
X3748015Y-20930213D01*
X3748015Y-20930213D02*
X3728967Y-20920689D01*
X3728967Y-20920689D02*
X3690872Y-20920689D01*
X3690872Y-20920689D02*
X3671824Y-20930213D01*
X3671824Y-20930213D02*
X3662301Y-20939737D01*
X3662301Y-20939737D02*
X3652777Y-20958785D01*
X3652777Y-20958785D02*
X3652777Y-21006404D01*
X3652777Y-21006404D02*
X3662301Y-21025451D01*
X3662301Y-21025451D02*
X3671824Y-21034975D01*
X3671824Y-21034975D02*
X3690872Y-21044499D01*
X3690872Y-21044499D02*
X3728967Y-21044499D01*
X3728967Y-21044499D02*
X3748015Y-21034975D01*
X3748015Y-21034975D02*
X3757539Y-21025451D01*
X3757539Y-21025451D02*
X3767063Y-21006404D01*
X3881348Y-21006404D02*
X3862301Y-20996880D01*
X3862301Y-20996880D02*
X3852777Y-20987356D01*
X3852777Y-20987356D02*
X3843253Y-20968308D01*
X3843253Y-20968308D02*
X3843253Y-20958785D01*
X3843253Y-20958785D02*
X3852777Y-20939737D01*
X3852777Y-20939737D02*
X3862301Y-20930213D01*
X3862301Y-20930213D02*
X3881348Y-20920689D01*
X3881348Y-20920689D02*
X3919444Y-20920689D01*
X3919444Y-20920689D02*
X3938491Y-20930213D01*
X3938491Y-20930213D02*
X3948015Y-20939737D01*
X3948015Y-20939737D02*
X3957539Y-20958785D01*
X3957539Y-20958785D02*
X3957539Y-20968308D01*
X3957539Y-20968308D02*
X3948015Y-20987356D01*
X3948015Y-20987356D02*
X3938491Y-20996880D01*
X3938491Y-20996880D02*
X3919444Y-21006404D01*
X3919444Y-21006404D02*
X3881348Y-21006404D01*
X3881348Y-21006404D02*
X3862301Y-21015927D01*
X3862301Y-21015927D02*
X3852777Y-21025451D01*
X3852777Y-21025451D02*
X3843253Y-21044499D01*
X3843253Y-21044499D02*
X3843253Y-21082594D01*
X3843253Y-21082594D02*
X3852777Y-21101642D01*
X3852777Y-21101642D02*
X3862301Y-21111166D01*
X3862301Y-21111166D02*
X3881348Y-21120689D01*
X3881348Y-21120689D02*
X3919444Y-21120689D01*
X3919444Y-21120689D02*
X3938491Y-21111166D01*
X3938491Y-21111166D02*
X3948015Y-21101642D01*
X3948015Y-21101642D02*
X3957539Y-21082594D01*
X3957539Y-21082594D02*
X3957539Y-21044499D01*
X3957539Y-21044499D02*
X3948015Y-21025451D01*
X3948015Y-21025451D02*
X3938491Y-21015927D01*
X3938491Y-21015927D02*
X3919444Y-21006404D01*
X4071824Y-21006404D02*
X4052777Y-20996880D01*
X4052777Y-20996880D02*
X4043253Y-20987356D01*
X4043253Y-20987356D02*
X4033729Y-20968308D01*
X4033729Y-20968308D02*
X4033729Y-20958785D01*
X4033729Y-20958785D02*
X4043253Y-20939737D01*
X4043253Y-20939737D02*
X4052777Y-20930213D01*
X4052777Y-20930213D02*
X4071824Y-20920689D01*
X4071824Y-20920689D02*
X4109920Y-20920689D01*
X4109920Y-20920689D02*
X4128967Y-20930213D01*
X4128967Y-20930213D02*
X4138491Y-20939737D01*
X4138491Y-20939737D02*
X4148015Y-20958785D01*
X4148015Y-20958785D02*
X4148015Y-20968308D01*
X4148015Y-20968308D02*
X4138491Y-20987356D01*
X4138491Y-20987356D02*
X4128967Y-20996880D01*
X4128967Y-20996880D02*
X4109920Y-21006404D01*
X4109920Y-21006404D02*
X4071824Y-21006404D01*
X4071824Y-21006404D02*
X4052777Y-21015927D01*
X4052777Y-21015927D02*
X4043253Y-21025451D01*
X4043253Y-21025451D02*
X4033729Y-21044499D01*
X4033729Y-21044499D02*
X4033729Y-21082594D01*
X4033729Y-21082594D02*
X4043253Y-21101642D01*
X4043253Y-21101642D02*
X4052777Y-21111166D01*
X4052777Y-21111166D02*
X4071824Y-21120689D01*
X4071824Y-21120689D02*
X4109920Y-21120689D01*
X4109920Y-21120689D02*
X4128967Y-21111166D01*
X4128967Y-21111166D02*
X4138491Y-21101642D01*
X4138491Y-21101642D02*
X4148015Y-21082594D01*
X4148015Y-21082594D02*
X4148015Y-21044499D01*
X4148015Y-21044499D02*
X4138491Y-21025451D01*
X4138491Y-21025451D02*
X4128967Y-21015927D01*
X4128967Y-21015927D02*
X4109920Y-21006404D01*
X4233729Y-21120689D02*
X4233729Y-20987356D01*
X4233729Y-21006404D02*
X4243253Y-20996880D01*
X4243253Y-20996880D02*
X4262301Y-20987356D01*
X4262301Y-20987356D02*
X4290872Y-20987356D01*
X4290872Y-20987356D02*
X4309920Y-20996880D01*
X4309920Y-20996880D02*
X4319444Y-21015927D01*
X4319444Y-21015927D02*
X4319444Y-21120689D01*
X4319444Y-21015927D02*
X4328967Y-20996880D01*
X4328967Y-20996880D02*
X4348015Y-20987356D01*
X4348015Y-20987356D02*
X4376586Y-20987356D01*
X4376586Y-20987356D02*
X4395634Y-20996880D01*
X4395634Y-20996880D02*
X4405158Y-21015927D01*
X4405158Y-21015927D02*
X4405158Y-21120689D01*
X4500396Y-21120689D02*
X4500396Y-20987356D01*
X4500396Y-21006404D02*
X4509920Y-20996880D01*
X4509920Y-20996880D02*
X4528967Y-20987356D01*
X4528967Y-20987356D02*
X4557539Y-20987356D01*
X4557539Y-20987356D02*
X4576587Y-20996880D01*
X4576587Y-20996880D02*
X4586110Y-21015927D01*
X4586110Y-21015927D02*
X4586110Y-21120689D01*
X4586110Y-21015927D02*
X4595634Y-20996880D01*
X4595634Y-20996880D02*
X4614682Y-20987356D01*
X4614682Y-20987356D02*
X4643253Y-20987356D01*
X4643253Y-20987356D02*
X4662301Y-20996880D01*
X4662301Y-20996880D02*
X4671825Y-21015927D01*
X4671825Y-21015927D02*
X4671825Y-21120689D01*
X5062301Y-20911166D02*
X4890872Y-21168308D01*
X5319444Y-20920689D02*
X5338491Y-20920689D01*
X5338491Y-20920689D02*
X5357539Y-20930213D01*
X5357539Y-20930213D02*
X5367063Y-20939737D01*
X5367063Y-20939737D02*
X5376587Y-20958785D01*
X5376587Y-20958785D02*
X5386110Y-20996880D01*
X5386110Y-20996880D02*
X5386110Y-21044499D01*
X5386110Y-21044499D02*
X5376587Y-21082594D01*
X5376587Y-21082594D02*
X5367063Y-21101642D01*
X5367063Y-21101642D02*
X5357539Y-21111166D01*
X5357539Y-21111166D02*
X5338491Y-21120689D01*
X5338491Y-21120689D02*
X5319444Y-21120689D01*
X5319444Y-21120689D02*
X5300396Y-21111166D01*
X5300396Y-21111166D02*
X5290872Y-21101642D01*
X5290872Y-21101642D02*
X5281349Y-21082594D01*
X5281349Y-21082594D02*
X5271825Y-21044499D01*
X5271825Y-21044499D02*
X5271825Y-20996880D01*
X5271825Y-20996880D02*
X5281349Y-20958785D01*
X5281349Y-20958785D02*
X5290872Y-20939737D01*
X5290872Y-20939737D02*
X5300396Y-20930213D01*
X5300396Y-20930213D02*
X5319444Y-20920689D01*
X5471825Y-21101642D02*
X5481349Y-21111166D01*
X5481349Y-21111166D02*
X5471825Y-21120689D01*
X5471825Y-21120689D02*
X5462301Y-21111166D01*
X5462301Y-21111166D02*
X5471825Y-21101642D01*
X5471825Y-21101642D02*
X5471825Y-21120689D01*
X5671825Y-21120689D02*
X5557539Y-21120689D01*
X5614682Y-21120689D02*
X5614682Y-20920689D01*
X5614682Y-20920689D02*
X5595634Y-20949261D01*
X5595634Y-20949261D02*
X5576587Y-20968308D01*
X5576587Y-20968308D02*
X5557539Y-20977832D01*
X5852777Y-20920689D02*
X5757539Y-20920689D01*
X5757539Y-20920689D02*
X5748015Y-21015927D01*
X5748015Y-21015927D02*
X5757539Y-21006404D01*
X5757539Y-21006404D02*
X5776587Y-20996880D01*
X5776587Y-20996880D02*
X5824206Y-20996880D01*
X5824206Y-20996880D02*
X5843253Y-21006404D01*
X5843253Y-21006404D02*
X5852777Y-21015927D01*
X5852777Y-21015927D02*
X5862301Y-21034975D01*
X5862301Y-21034975D02*
X5862301Y-21082594D01*
X5862301Y-21082594D02*
X5852777Y-21101642D01*
X5852777Y-21101642D02*
X5843253Y-21111166D01*
X5843253Y-21111166D02*
X5824206Y-21120689D01*
X5824206Y-21120689D02*
X5776587Y-21120689D01*
X5776587Y-21120689D02*
X5757539Y-21111166D01*
X5757539Y-21111166D02*
X5748015Y-21101642D01*
X5928968Y-20920689D02*
X6062301Y-20920689D01*
X6062301Y-20920689D02*
X5976587Y-21120689D01*
X6176587Y-20920689D02*
X6195634Y-20920689D01*
X6195634Y-20920689D02*
X6214682Y-20930213D01*
X6214682Y-20930213D02*
X6224206Y-20939737D01*
X6224206Y-20939737D02*
X6233729Y-20958785D01*
X6233729Y-20958785D02*
X6243253Y-20996880D01*
X6243253Y-20996880D02*
X6243253Y-21044499D01*
X6243253Y-21044499D02*
X6233729Y-21082594D01*
X6233729Y-21082594D02*
X6224206Y-21101642D01*
X6224206Y-21101642D02*
X6214682Y-21111166D01*
X6214682Y-21111166D02*
X6195634Y-21120689D01*
X6195634Y-21120689D02*
X6176587Y-21120689D01*
X6176587Y-21120689D02*
X6157539Y-21111166D01*
X6157539Y-21111166D02*
X6148015Y-21101642D01*
X6148015Y-21101642D02*
X6138491Y-21082594D01*
X6138491Y-21082594D02*
X6128968Y-21044499D01*
X6128968Y-21044499D02*
X6128968Y-20996880D01*
X6128968Y-20996880D02*
X6138491Y-20958785D01*
X6138491Y-20958785D02*
X6148015Y-20939737D01*
X6148015Y-20939737D02*
X6157539Y-20930213D01*
X6157539Y-20930213D02*
X6176587Y-20920689D01*
X6319444Y-20920689D02*
X6319444Y-20958785D01*
X6395634Y-20920689D02*
X6395634Y-20958785D01*
X6690872Y-21196880D02*
X6681349Y-21187356D01*
X6681349Y-21187356D02*
X6662301Y-21158785D01*
X6662301Y-21158785D02*
X6652777Y-21139737D01*
X6652777Y-21139737D02*
X6643253Y-21111166D01*
X6643253Y-21111166D02*
X6633730Y-21063546D01*
X6633730Y-21063546D02*
X6633730Y-21025451D01*
X6633730Y-21025451D02*
X6643253Y-20977832D01*
X6643253Y-20977832D02*
X6652777Y-20949261D01*
X6652777Y-20949261D02*
X6662301Y-20930213D01*
X6662301Y-20930213D02*
X6681349Y-20901642D01*
X6681349Y-20901642D02*
X6690872Y-20892118D01*
X6871825Y-21120689D02*
X6757539Y-21120689D01*
X6814682Y-21120689D02*
X6814682Y-20920689D01*
X6814682Y-20920689D02*
X6795634Y-20949261D01*
X6795634Y-20949261D02*
X6776587Y-20968308D01*
X6776587Y-20968308D02*
X6757539Y-20977832D01*
X6948015Y-20939737D02*
X6957539Y-20930213D01*
X6957539Y-20930213D02*
X6976587Y-20920689D01*
X6976587Y-20920689D02*
X7024206Y-20920689D01*
X7024206Y-20920689D02*
X7043253Y-20930213D01*
X7043253Y-20930213D02*
X7052777Y-20939737D01*
X7052777Y-20939737D02*
X7062301Y-20958785D01*
X7062301Y-20958785D02*
X7062301Y-20977832D01*
X7062301Y-20977832D02*
X7052777Y-21006404D01*
X7052777Y-21006404D02*
X6938491Y-21120689D01*
X6938491Y-21120689D02*
X7062301Y-21120689D01*
X7300396Y-21120689D02*
X7300396Y-20920689D01*
X7386111Y-21120689D02*
X7386111Y-21015927D01*
X7386111Y-21015927D02*
X7376587Y-20996880D01*
X7376587Y-20996880D02*
X7357539Y-20987356D01*
X7357539Y-20987356D02*
X7328968Y-20987356D01*
X7328968Y-20987356D02*
X7309920Y-20996880D01*
X7309920Y-20996880D02*
X7300396Y-21006404D01*
X7509920Y-21120689D02*
X7490872Y-21111166D01*
X7490872Y-21111166D02*
X7481349Y-21101642D01*
X7481349Y-21101642D02*
X7471825Y-21082594D01*
X7471825Y-21082594D02*
X7471825Y-21025451D01*
X7471825Y-21025451D02*
X7481349Y-21006404D01*
X7481349Y-21006404D02*
X7490872Y-20996880D01*
X7490872Y-20996880D02*
X7509920Y-20987356D01*
X7509920Y-20987356D02*
X7538492Y-20987356D01*
X7538492Y-20987356D02*
X7557539Y-20996880D01*
X7557539Y-20996880D02*
X7567063Y-21006404D01*
X7567063Y-21006404D02*
X7576587Y-21025451D01*
X7576587Y-21025451D02*
X7576587Y-21082594D01*
X7576587Y-21082594D02*
X7567063Y-21101642D01*
X7567063Y-21101642D02*
X7557539Y-21111166D01*
X7557539Y-21111166D02*
X7538492Y-21120689D01*
X7538492Y-21120689D02*
X7509920Y-21120689D01*
X7690872Y-21120689D02*
X7671825Y-21111166D01*
X7671825Y-21111166D02*
X7662301Y-21092118D01*
X7662301Y-21092118D02*
X7662301Y-20920689D01*
X7843253Y-21111166D02*
X7824206Y-21120689D01*
X7824206Y-21120689D02*
X7786111Y-21120689D01*
X7786111Y-21120689D02*
X7767063Y-21111166D01*
X7767063Y-21111166D02*
X7757539Y-21092118D01*
X7757539Y-21092118D02*
X7757539Y-21015927D01*
X7757539Y-21015927D02*
X7767063Y-20996880D01*
X7767063Y-20996880D02*
X7786111Y-20987356D01*
X7786111Y-20987356D02*
X7824206Y-20987356D01*
X7824206Y-20987356D02*
X7843253Y-20996880D01*
X7843253Y-20996880D02*
X7852777Y-21015927D01*
X7852777Y-21015927D02*
X7852777Y-21034975D01*
X7852777Y-21034975D02*
X7757539Y-21054023D01*
X7928968Y-21111166D02*
X7948015Y-21120689D01*
X7948015Y-21120689D02*
X7986111Y-21120689D01*
X7986111Y-21120689D02*
X8005158Y-21111166D01*
X8005158Y-21111166D02*
X8014682Y-21092118D01*
X8014682Y-21092118D02*
X8014682Y-21082594D01*
X8014682Y-21082594D02*
X8005158Y-21063546D01*
X8005158Y-21063546D02*
X7986111Y-21054023D01*
X7986111Y-21054023D02*
X7957539Y-21054023D01*
X7957539Y-21054023D02*
X7938492Y-21044499D01*
X7938492Y-21044499D02*
X7928968Y-21025451D01*
X7928968Y-21025451D02*
X7928968Y-21015927D01*
X7928968Y-21015927D02*
X7938492Y-20996880D01*
X7938492Y-20996880D02*
X7957539Y-20987356D01*
X7957539Y-20987356D02*
X7986111Y-20987356D01*
X7986111Y-20987356D02*
X8005158Y-20996880D01*
X8081349Y-21196880D02*
X8090873Y-21187356D01*
X8090873Y-21187356D02*
X8109920Y-21158785D01*
X8109920Y-21158785D02*
X8119444Y-21139737D01*
X8119444Y-21139737D02*
X8128968Y-21111166D01*
X8128968Y-21111166D02*
X8138492Y-21063546D01*
X8138492Y-21063546D02*
X8138492Y-21025451D01*
X8138492Y-21025451D02*
X8128968Y-20977832D01*
X8128968Y-20977832D02*
X8119444Y-20949261D01*
X8119444Y-20949261D02*
X8109920Y-20930213D01*
X8109920Y-20930213D02*
X8090873Y-20901642D01*
X8090873Y-20901642D02*
X8081349Y-20892118D01*
X8443254Y-21196880D02*
X8433730Y-21187356D01*
X8433730Y-21187356D02*
X8414682Y-21158785D01*
X8414682Y-21158785D02*
X8405158Y-21139737D01*
X8405158Y-21139737D02*
X8395635Y-21111166D01*
X8395635Y-21111166D02*
X8386111Y-21063546D01*
X8386111Y-21063546D02*
X8386111Y-21025451D01*
X8386111Y-21025451D02*
X8395635Y-20977832D01*
X8395635Y-20977832D02*
X8405158Y-20949261D01*
X8405158Y-20949261D02*
X8414682Y-20930213D01*
X8414682Y-20930213D02*
X8433730Y-20901642D01*
X8433730Y-20901642D02*
X8443254Y-20892118D01*
X8519444Y-20987356D02*
X8519444Y-21120689D01*
X8519444Y-21006404D02*
X8528968Y-20996880D01*
X8528968Y-20996880D02*
X8548015Y-20987356D01*
X8548015Y-20987356D02*
X8576587Y-20987356D01*
X8576587Y-20987356D02*
X8595635Y-20996880D01*
X8595635Y-20996880D02*
X8605158Y-21015927D01*
X8605158Y-21015927D02*
X8605158Y-21120689D01*
X8728968Y-21120689D02*
X8709920Y-21111166D01*
X8709920Y-21111166D02*
X8700396Y-21101642D01*
X8700396Y-21101642D02*
X8690873Y-21082594D01*
X8690873Y-21082594D02*
X8690873Y-21025451D01*
X8690873Y-21025451D02*
X8700396Y-21006404D01*
X8700396Y-21006404D02*
X8709920Y-20996880D01*
X8709920Y-20996880D02*
X8728968Y-20987356D01*
X8728968Y-20987356D02*
X8757539Y-20987356D01*
X8757539Y-20987356D02*
X8776587Y-20996880D01*
X8776587Y-20996880D02*
X8786111Y-21006404D01*
X8786111Y-21006404D02*
X8795635Y-21025451D01*
X8795635Y-21025451D02*
X8795635Y-21082594D01*
X8795635Y-21082594D02*
X8786111Y-21101642D01*
X8786111Y-21101642D02*
X8776587Y-21111166D01*
X8776587Y-21111166D02*
X8757539Y-21120689D01*
X8757539Y-21120689D02*
X8728968Y-21120689D01*
X8852777Y-20987356D02*
X8928968Y-20987356D01*
X8881349Y-20920689D02*
X8881349Y-21092118D01*
X8881349Y-21092118D02*
X8890873Y-21111166D01*
X8890873Y-21111166D02*
X8909920Y-21120689D01*
X8909920Y-21120689D02*
X8928968Y-21120689D01*
X9148016Y-20987356D02*
X9148016Y-21187356D01*
X9148016Y-20996880D02*
X9167063Y-20987356D01*
X9167063Y-20987356D02*
X9205158Y-20987356D01*
X9205158Y-20987356D02*
X9224206Y-20996880D01*
X9224206Y-20996880D02*
X9233730Y-21006404D01*
X9233730Y-21006404D02*
X9243254Y-21025451D01*
X9243254Y-21025451D02*
X9243254Y-21082594D01*
X9243254Y-21082594D02*
X9233730Y-21101642D01*
X9233730Y-21101642D02*
X9224206Y-21111166D01*
X9224206Y-21111166D02*
X9205158Y-21120689D01*
X9205158Y-21120689D02*
X9167063Y-21120689D01*
X9167063Y-21120689D02*
X9148016Y-21111166D01*
X9357539Y-21120689D02*
X9338492Y-21111166D01*
X9338492Y-21111166D02*
X9328968Y-21092118D01*
X9328968Y-21092118D02*
X9328968Y-20920689D01*
X9519444Y-21120689D02*
X9519444Y-21015927D01*
X9519444Y-21015927D02*
X9509920Y-20996880D01*
X9509920Y-20996880D02*
X9490873Y-20987356D01*
X9490873Y-20987356D02*
X9452777Y-20987356D01*
X9452777Y-20987356D02*
X9433730Y-20996880D01*
X9519444Y-21111166D02*
X9500397Y-21120689D01*
X9500397Y-21120689D02*
X9452777Y-21120689D01*
X9452777Y-21120689D02*
X9433730Y-21111166D01*
X9433730Y-21111166D02*
X9424206Y-21092118D01*
X9424206Y-21092118D02*
X9424206Y-21073070D01*
X9424206Y-21073070D02*
X9433730Y-21054023D01*
X9433730Y-21054023D02*
X9452777Y-21044499D01*
X9452777Y-21044499D02*
X9500397Y-21044499D01*
X9500397Y-21044499D02*
X9519444Y-21034975D01*
X9586111Y-20987356D02*
X9662301Y-20987356D01*
X9614682Y-20920689D02*
X9614682Y-21092118D01*
X9614682Y-21092118D02*
X9624206Y-21111166D01*
X9624206Y-21111166D02*
X9643254Y-21120689D01*
X9643254Y-21120689D02*
X9662301Y-21120689D01*
X9805158Y-21111166D02*
X9786111Y-21120689D01*
X9786111Y-21120689D02*
X9748016Y-21120689D01*
X9748016Y-21120689D02*
X9728968Y-21111166D01*
X9728968Y-21111166D02*
X9719444Y-21092118D01*
X9719444Y-21092118D02*
X9719444Y-21015927D01*
X9719444Y-21015927D02*
X9728968Y-20996880D01*
X9728968Y-20996880D02*
X9748016Y-20987356D01*
X9748016Y-20987356D02*
X9786111Y-20987356D01*
X9786111Y-20987356D02*
X9805158Y-20996880D01*
X9805158Y-20996880D02*
X9814682Y-21015927D01*
X9814682Y-21015927D02*
X9814682Y-21034975D01*
X9814682Y-21034975D02*
X9719444Y-21054023D01*
X9986111Y-21120689D02*
X9986111Y-20920689D01*
X9986111Y-21111166D02*
X9967063Y-21120689D01*
X9967063Y-21120689D02*
X9928968Y-21120689D01*
X9928968Y-21120689D02*
X9909920Y-21111166D01*
X9909920Y-21111166D02*
X9900397Y-21101642D01*
X9900397Y-21101642D02*
X9890873Y-21082594D01*
X9890873Y-21082594D02*
X9890873Y-21025451D01*
X9890873Y-21025451D02*
X9900397Y-21006404D01*
X9900397Y-21006404D02*
X9909920Y-20996880D01*
X9909920Y-20996880D02*
X9928968Y-20987356D01*
X9928968Y-20987356D02*
X9967063Y-20987356D01*
X9967063Y-20987356D02*
X9986111Y-20996880D01*
X10062301Y-21196880D02*
X10071825Y-21187356D01*
X10071825Y-21187356D02*
X10090873Y-21158785D01*
X10090873Y-21158785D02*
X10100397Y-21139737D01*
X10100397Y-21139737D02*
X10109920Y-21111166D01*
X10109920Y-21111166D02*
X10119444Y-21063546D01*
X10119444Y-21063546D02*
X10119444Y-21025451D01*
X10119444Y-21025451D02*
X10109920Y-20977832D01*
X10109920Y-20977832D02*
X10100397Y-20949261D01*
X10100397Y-20949261D02*
X10090873Y-20930213D01*
X10090873Y-20930213D02*
X10071825Y-20901642D01*
X10071825Y-20901642D02*
X10062301Y-20892118D01*
M02*
