M48
; DRILL file {KiCad 7.0.6} date Fri Sep  1 00:55:21 2023
; FORMAT={-:-/ absolute / inch / decimal}
; #@! TF.CreationDate,2023-09-01T00:55:21-07:00
; #@! TF.GenerationSoftware,Kicad,Pcbnew,7.0.6
; #@! TF.FileFunction,Plated,1,2,PTH
FMAT,2
INCH
; #@! TA.AperFunction,Plated,PTH,ViaDrill
T1C0.0157
; #@! TA.AperFunction,Plated,PTH,ComponentDrill
T2C0.0236
; #@! TA.AperFunction,Plated,PTH,ComponentDrill
T3C0.0276
; #@! TA.AperFunction,Plated,PTH,ComponentDrill
T4C0.0350
; #@! TA.AperFunction,Plated,PTH,ComponentDrill
T5C0.0354
; #@! TA.AperFunction,Plated,PTH,ComponentDrill
T6C0.0394
; #@! TA.AperFunction,Plated,PTH,ComponentDrill
T7C0.0402
; #@! TA.AperFunction,Plated,PTH,ComponentDrill
T8C0.0550
; #@! TA.AperFunction,Plated,PTH,ComponentDrill
T9C0.0591
%
G90
G05
T1
X12.4005Y-8.2683
X12.5878Y-7.659
X12.6677Y-7.5778
X12.674Y-7.7577
X12.6849Y-7.6221
X13.0219Y-6.9906
X13.2405Y-6.772
X13.2588Y-6.9898
X13.2822Y-7.0198
X13.5094Y-7.5617
X13.7908Y-6.2105
X13.803Y-6.3711
X13.8393Y-6.4053
X13.8694Y-6.4396
X14.0291Y-5.4713
X14.0303Y-6.3565
X14.0621Y-4.8827
X14.0644Y-5.3708
X14.0952Y-5.2481
X14.115Y-6.0599
X14.1152Y-5.3898
X14.1834Y-6.3167
X14.1839Y-5.4382
X14.1857Y-5.2644
X14.1869Y-5.012
X14.2143Y-7.4916
X14.2814Y-8.0277
X14.3239Y-6.6487
X14.4117Y-7.6298
X14.4667Y-7.3489
X14.549Y-6.1078
X15.7081Y-7.2138
X15.7108Y-7.3276
T3
X2.0798Y-4.3501
X2.0798Y-4.6572
X2.1807Y-7.3397
X2.1807Y-7.6468
X2.2742Y-5.0939
X2.2742Y-5.401
X2.3685Y-5.8418
X2.3685Y-6.1488
X2.5472Y-6.5997
X2.5472Y-6.9067
X2.8298Y-4.3501
X2.8298Y-4.6572
X3.1172Y-7.3447
X3.1172Y-7.6518
X3.2048Y-5.1001
X3.2048Y-5.4072
X3.3923Y-5.8501
X3.3923Y-6.1572
X3.7673Y-6.6001
X3.7673Y-6.9072
X4.157Y-4.8021
X4.1838Y-4.4962
X4.3607Y-7.8289
X4.3874Y-7.523
X4.4652Y-5.582
X4.492Y-5.276
X4.5866Y-6.3455
X4.6134Y-6.0395
X4.8949Y-7.1253
X4.9042Y-4.8675
X4.9216Y-6.8194
X4.9309Y-4.5616
X5.2124Y-5.6473
X5.2391Y-5.3414
X5.3338Y-6.4108
X5.3606Y-6.1049
X5.642Y-7.1906
X5.6513Y-4.9329
X5.6688Y-6.8847
X5.6781Y-4.627
X5.956Y-7.9557
X5.9595Y-5.7127
X5.9828Y-7.6498
X5.9863Y-5.4068
X6.0809Y-6.4762
X6.1077Y-6.1703
X6.3891Y-7.256
X6.3985Y-4.9982
X6.4159Y-6.9501
X6.4252Y-4.6923
X6.7067Y-5.7781
X6.7334Y-5.4721
X6.8281Y-6.5416
X6.8549Y-6.2356
X7.1363Y-7.3214
X7.1631Y-7.0155
X7.4915Y-4.7239
X7.5183Y-5.0298
X7.9305Y-5.4383
X7.9572Y-5.7442
X8.1826Y-6.1691
X8.2094Y-6.475
X8.2387Y-4.6585
X8.2655Y-4.9644
X8.6216Y-6.8836
X8.6483Y-7.1895
X8.6776Y-5.3729
X8.7044Y-5.6789
X8.9298Y-6.1038
X8.9565Y-6.4097
X8.9858Y-4.5931
X9.0126Y-4.899
X9.2492Y-7.5773
X9.2759Y-7.8832
X9.3687Y-6.8182
X9.3955Y-7.1241
X9.4248Y-5.3076
X9.4515Y-5.6135
X9.6769Y-6.0384
X9.7037Y-6.3443
X9.733Y-4.5278
X9.7597Y-4.8337
X10.1159Y-6.7528
X10.1426Y-7.0588
X10.1719Y-5.2422
X10.1987Y-5.5481
X10.4241Y-5.973
X10.4508Y-6.2789
X10.7368Y-4.3828
X10.7368Y-4.6899
X10.835Y-7.4217
X10.8618Y-7.7276
X10.863Y-6.6875
X10.8898Y-6.9934
X11.1118Y-5.1328
X11.1118Y-5.4399
X11.2993Y-5.8828
X11.2993Y-6.1899
X11.4868Y-4.3828
X11.4868Y-4.6899
X11.8618Y-5.1328
X11.8618Y-5.4399
X12.0493Y-5.8828
X12.0493Y-6.1899
X12.1469Y-6.6213
X12.1469Y-6.9284
X12.2368Y-4.3828
X12.2368Y-4.6899
X12.6118Y-5.1328
X12.6118Y-5.4399
X13.2666Y-5.8747
X13.2666Y-6.1818
X13.3609Y-4.3751
X13.3609Y-4.6822
X13.432Y-7.7848
X13.432Y-8.0918
X13.5543Y-5.1236
X13.5543Y-5.4307
X14.182Y-7.0348
X14.182Y-7.3418
X14.182Y-7.7848
X14.182Y-8.0918
X14.932Y-7.7848
X14.932Y-8.0918
T4
X11.528Y-7.7891
X11.528Y-7.8891
X11.528Y-7.9891
X11.828Y-8.2891
X11.928Y-8.2891
X12.028Y-8.2891
T5
X11.803Y-7.3891
X11.803Y-7.5891
X12.053Y-7.3891
X12.053Y-7.5891
T6
X7.2743Y-4.2336
X7.3743Y-4.2336
X7.4743Y-4.2336
X7.5743Y-4.2336
X14.6299Y-4.8113
X14.6299Y-4.9097
X14.6299Y-5.0082
X15.2008Y-4.8113
X15.2008Y-5.0082
X15.4505Y-4.2888
X15.5505Y-4.2888
X15.6505Y-4.2888
X15.7505Y-4.2888
T7
X14.7478Y-5.3794
X14.7478Y-5.4794
X14.7478Y-5.5794
X14.7478Y-5.6794
X14.7478Y-5.7794
X14.7478Y-5.8794
X14.7478Y-5.9794
X14.7478Y-6.0794
X14.7478Y-6.1794
X14.7478Y-6.2794
X14.7478Y-6.3794
X14.7478Y-6.4794
X14.7478Y-6.5794
X14.7478Y-6.6794
X14.7478Y-6.7794
X14.7478Y-6.8794
X14.7478Y-6.9794
X14.7478Y-7.0794
X14.7478Y-7.1794
X14.7478Y-7.2794
X14.9978Y-7.2703
X15.0978Y-7.2703
X15.1978Y-7.2703
X15.4478Y-5.3794
X15.4478Y-5.4794
X15.4478Y-5.5794
X15.4478Y-5.6794
X15.4478Y-5.7794
X15.4478Y-5.8794
X15.4478Y-5.9794
X15.4478Y-6.0794
X15.4478Y-6.1794
X15.4478Y-6.2794
X15.4478Y-6.3794
X15.4478Y-6.4794
X15.4478Y-6.5794
X15.4478Y-6.6794
X15.4478Y-6.7794
X15.4478Y-6.8794
X15.4478Y-6.9794
X15.4478Y-7.0794
X15.4478Y-7.1794
X15.4478Y-7.2794
T8
X11.628Y-7.6266
X11.628Y-8.1516
X12.228Y-7.6266
X12.228Y-8.1516
T2
G00X7.248Y-4.1408
M15
G01X7.248Y-4.1723
M16
G05
G00X7.248Y-4.299
M15
G01X7.248Y-4.3423
M16
G05
G00X7.5882Y-4.1408
M15
G01X7.5882Y-4.1723
M16
G05
G00X7.5882Y-4.299
M15
G01X7.5882Y-4.3423
M16
G05
T9
G00X14.8996Y-4.6893
M15
G01X14.9508Y-4.6893
M16
G05
G00X14.8996Y-5.1302
M15
G01X14.9508Y-5.1302
M16
G05
T0
M30
