%TF.GenerationSoftware,KiCad,Pcbnew,7.0.6*%
%TF.CreationDate,2023-09-01T00:55:20-07:00*%
%TF.ProjectId,alicida,616c6963-6964-4612-9e6b-696361645f70,rev?*%
%TF.SameCoordinates,Original*%
%TF.FileFunction,Drillmap*%
%TF.FilePolarity,Positive*%
%FSLAX45Y45*%
G04 Gerber Fmt 4.5, Leading zero omitted, Abs format (unit mm)*
G04 Created by KiCad (PCBNEW 7.0.6) date 2023-09-01 00:55:20*
%MOMM*%
%LPD*%
G01*
G04 APERTURE LIST*
%ADD10C,0.100000*%
%ADD11C,0.200000*%
%ADD12C,0.040000*%
%ADD13C,0.060000*%
%ADD14C,0.070000*%
%ADD15C,0.088900*%
%ADD16C,0.090000*%
%ADD17C,0.102000*%
%ADD18C,0.139700*%
%ADD19C,0.150000*%
G04 APERTURE END LIST*
D10*
X3420207Y-21558736D02*
X3420207Y-10601300D01*
X3674207Y-10347300D02*
G75*
G03*
X3420207Y-10601300I-2J-253998D01*
G01*
X3420214Y-21558736D02*
G75*
G03*
X3674207Y-21812736I253996J-4D01*
G01*
D11*
X8081968Y-9892810D02*
G75*
G03*
X8081968Y-9892810I0J0D01*
G01*
D10*
X40598313Y-10601300D02*
X40598313Y-21558736D01*
D11*
X8081968Y-20417810D02*
G75*
G03*
X8081968Y-20417810I0J0D01*
G01*
D10*
X3674207Y-10347300D02*
X40344313Y-10347300D01*
X40344313Y-21812743D02*
G75*
G03*
X40598313Y-21558736I7J253993D01*
G01*
X40598310Y-10601300D02*
G75*
G03*
X40344313Y-10347300I-254000J0D01*
G01*
X40344313Y-21812736D02*
X3674207Y-21812736D01*
D11*
D12*
X31477346Y-20981371D02*
X31517346Y-21021371D01*
X31517346Y-20981371D02*
X31477346Y-21021371D01*
X31952921Y-19433900D02*
X31992921Y-19473900D01*
X31992921Y-19433900D02*
X31952921Y-19473900D01*
X32156063Y-19227708D02*
X32196063Y-19267708D01*
X32196063Y-19227708D02*
X32156063Y-19267708D01*
X32171968Y-19684495D02*
X32211968Y-19724495D01*
X32211968Y-19684495D02*
X32171968Y-19724495D01*
X32199556Y-19340215D02*
X32239556Y-19380215D01*
X32239556Y-19340215D02*
X32199556Y-19380215D01*
X33055642Y-17736161D02*
X33095642Y-17776161D01*
X33095642Y-17736161D02*
X33055642Y-17776161D01*
X33610858Y-17180944D02*
X33650858Y-17220944D01*
X33650858Y-17180944D02*
X33610858Y-17220944D01*
X33657475Y-17734056D02*
X33697475Y-17774056D01*
X33697475Y-17734056D02*
X33657475Y-17774056D01*
X33716662Y-17810400D02*
X33756662Y-17850400D01*
X33756662Y-17810400D02*
X33716662Y-17850400D01*
X34293988Y-19186714D02*
X34333988Y-19226714D01*
X34333988Y-19186714D02*
X34293988Y-19226714D01*
X35008566Y-15754745D02*
X35048566Y-15794745D01*
X35048566Y-15754745D02*
X35008566Y-15794745D01*
X35039535Y-16162645D02*
X35079535Y-16202645D01*
X35079535Y-16162645D02*
X35039535Y-16202645D01*
X35131730Y-16249456D02*
X35171730Y-16289456D01*
X35171730Y-16249456D02*
X35131730Y-16289456D01*
X35208207Y-16336577D02*
X35248207Y-16376577D01*
X35248207Y-16336577D02*
X35208207Y-16376577D01*
X35613883Y-13877061D02*
X35653883Y-13917061D01*
X35653883Y-13877061D02*
X35613883Y-13917061D01*
X35616901Y-16125514D02*
X35656901Y-16165514D01*
X35656901Y-16125514D02*
X35616901Y-16165514D01*
X35697798Y-12382115D02*
X35737798Y-12422115D01*
X35737798Y-12382115D02*
X35697798Y-12422115D01*
X35703545Y-13621868D02*
X35743545Y-13661868D01*
X35743545Y-13621868D02*
X35703545Y-13661868D01*
X35781883Y-13310200D02*
X35821883Y-13350200D01*
X35821883Y-13310200D02*
X35781883Y-13350200D01*
X35832184Y-15372070D02*
X35872184Y-15412070D01*
X35872184Y-15372070D02*
X35832184Y-15412070D01*
X35832632Y-13670211D02*
X35872632Y-13710211D01*
X35872632Y-13670211D02*
X35832632Y-13710211D01*
X36005761Y-16024420D02*
X36045761Y-16064420D01*
X36045761Y-16024420D02*
X36005761Y-16064420D01*
X36007054Y-13793065D02*
X36047054Y-13833065D01*
X36047054Y-13793065D02*
X36007054Y-13833065D01*
X36011652Y-13351651D02*
X36051652Y-13391651D01*
X36051652Y-13351651D02*
X36011652Y-13391651D01*
X36014718Y-12710604D02*
X36054718Y-12750604D01*
X36054718Y-12710604D02*
X36014718Y-12750604D01*
X36084359Y-19008539D02*
X36124359Y-19048539D01*
X36124359Y-19008539D02*
X36084359Y-19048539D01*
X36254711Y-20370475D02*
X36294711Y-20410475D01*
X36294711Y-20370475D02*
X36254711Y-20410475D01*
X36362686Y-16867590D02*
X36402686Y-16907590D01*
X36402686Y-16867590D02*
X36362686Y-16907590D01*
X36585772Y-19359667D02*
X36625772Y-19399667D01*
X36625772Y-19359667D02*
X36585772Y-19399667D01*
X36725486Y-18646153D02*
X36765486Y-18686153D01*
X36765486Y-18646153D02*
X36725486Y-18686153D01*
X36934397Y-15493742D02*
X36974397Y-15533742D01*
X36974397Y-15493742D02*
X36934397Y-15533742D01*
X39878498Y-18303134D02*
X39918498Y-18343134D01*
X39918498Y-18303134D02*
X39878498Y-18343134D01*
X39885480Y-18592130D02*
X39925480Y-18632130D01*
X39925480Y-18592130D02*
X39885480Y-18632130D01*
D13*
X18439927Y-10557536D02*
G75*
G03*
X18439927Y-10557536I-30000J0D01*
G01*
D11*
X18379927Y-10517536D02*
X18379927Y-10597536D01*
X18379927Y-10597536D02*
G75*
G03*
X18439927Y-10597536I30000J0D01*
G01*
X18439927Y-10597536D02*
X18439927Y-10517536D01*
X18439927Y-10517536D02*
G75*
G03*
X18379927Y-10517536I-30000J0D01*
G01*
D13*
X18439927Y-10974536D02*
G75*
G03*
X18439927Y-10974536I-30000J0D01*
G01*
D11*
X18379927Y-10919536D02*
X18379927Y-11029536D01*
X18379927Y-11029536D02*
G75*
G03*
X18439927Y-11029536I30000J0D01*
G01*
X18439927Y-11029536D02*
X18439927Y-10919536D01*
X18439927Y-10919536D02*
G75*
G03*
X18379927Y-10919536I-30000J0D01*
G01*
D13*
X19303927Y-10557536D02*
G75*
G03*
X19303927Y-10557536I-30000J0D01*
G01*
D11*
X19243927Y-10517536D02*
X19243927Y-10597536D01*
X19243927Y-10597536D02*
G75*
G03*
X19303927Y-10597536I30000J0D01*
G01*
X19303927Y-10597536D02*
X19303927Y-10517536D01*
X19303927Y-10517536D02*
G75*
G03*
X19243927Y-10517536I-30000J0D01*
G01*
D13*
X19303927Y-10974536D02*
G75*
G03*
X19303927Y-10974536I-30000J0D01*
G01*
D11*
X19243927Y-10919536D02*
X19243927Y-11029536D01*
X19243927Y-11029536D02*
G75*
G03*
X19303927Y-11029536I30000J0D01*
G01*
X19303927Y-11029536D02*
X19303927Y-10919536D01*
X19303927Y-10919536D02*
G75*
G03*
X19243927Y-10919536I-30000J0D01*
G01*
D14*
X5282593Y-11014310D02*
X5282593Y-11084310D01*
X5247593Y-11049310D02*
X5317593Y-11049310D01*
X5282593Y-11794310D02*
X5282593Y-11864310D01*
X5247593Y-11829310D02*
X5317593Y-11829310D01*
X5538991Y-18607831D02*
X5538991Y-18677831D01*
X5503991Y-18642831D02*
X5573991Y-18642831D01*
X5538991Y-19387831D02*
X5538991Y-19457831D01*
X5503991Y-19422831D02*
X5573991Y-19422831D01*
X5776520Y-12903624D02*
X5776520Y-12973624D01*
X5741520Y-12938624D02*
X5811520Y-12938624D01*
X5776520Y-13683624D02*
X5776520Y-13753624D01*
X5741520Y-13718624D02*
X5811520Y-13718624D01*
X6015966Y-14803067D02*
X6015966Y-14873067D01*
X5980966Y-14838067D02*
X6050966Y-14838067D01*
X6015966Y-15583067D02*
X6015966Y-15653067D01*
X5980966Y-15618067D02*
X6050966Y-15618067D01*
X6469762Y-16728118D02*
X6469762Y-16798118D01*
X6434762Y-16763118D02*
X6504762Y-16763118D01*
X6469762Y-17508118D02*
X6469762Y-17578118D01*
X6434762Y-17543118D02*
X6504762Y-17543118D01*
X7187592Y-11014310D02*
X7187592Y-11084310D01*
X7152592Y-11049310D02*
X7222592Y-11049310D01*
X7187592Y-11794310D02*
X7187592Y-11864310D01*
X7152592Y-11829310D02*
X7222592Y-11829310D01*
X7917588Y-18620517D02*
X7917588Y-18690517D01*
X7882588Y-18655517D02*
X7952588Y-18655517D01*
X7917588Y-19400517D02*
X7917588Y-19470517D01*
X7882588Y-19435517D02*
X7952588Y-19435517D01*
X8140092Y-12919310D02*
X8140092Y-12989310D01*
X8105092Y-12954310D02*
X8175092Y-12954310D01*
X8140092Y-13699310D02*
X8140092Y-13769310D01*
X8105092Y-13734310D02*
X8175092Y-13734310D01*
X8616343Y-14824310D02*
X8616343Y-14894310D01*
X8581343Y-14859310D02*
X8651343Y-14859310D01*
X8616343Y-15604310D02*
X8616343Y-15674310D01*
X8581343Y-15639310D02*
X8651343Y-15639310D01*
X9568843Y-16729310D02*
X9568843Y-16799310D01*
X9533843Y-16764310D02*
X9603843Y-16764310D01*
X9568843Y-17509310D02*
X9568843Y-17579310D01*
X9533843Y-17544310D02*
X9603843Y-17544310D01*
X10558840Y-12162424D02*
X10558840Y-12232424D01*
X10523840Y-12197424D02*
X10593840Y-12197424D01*
X10626821Y-11385392D02*
X10626821Y-11455392D01*
X10591821Y-11420392D02*
X10661821Y-11420392D01*
X11076077Y-19850427D02*
X11076077Y-19920427D01*
X11041077Y-19885427D02*
X11111077Y-19885427D01*
X11144058Y-19073395D02*
X11144058Y-19143395D01*
X11109058Y-19108395D02*
X11179058Y-19108395D01*
X11341683Y-14143191D02*
X11341683Y-14213191D01*
X11306683Y-14178191D02*
X11376683Y-14178191D01*
X11409665Y-13366159D02*
X11409665Y-13436159D01*
X11374665Y-13401159D02*
X11444665Y-13401159D01*
X11650089Y-16082449D02*
X11650089Y-16152449D01*
X11615089Y-16117449D02*
X11685089Y-16117449D01*
X11718071Y-15305417D02*
X11718071Y-15375417D01*
X11683071Y-15340417D02*
X11753071Y-15340417D01*
X12432933Y-18063216D02*
X12432933Y-18133216D01*
X12397933Y-18098216D02*
X12467933Y-18098216D01*
X12456591Y-12328455D02*
X12456591Y-12398455D01*
X12421591Y-12363455D02*
X12491591Y-12363455D01*
X12500915Y-17286184D02*
X12500915Y-17356184D01*
X12465915Y-17321184D02*
X12535915Y-17321184D01*
X12524572Y-11551424D02*
X12524572Y-11621424D01*
X12489572Y-11586424D02*
X12559572Y-11586424D01*
X13239434Y-14309222D02*
X13239434Y-14379222D01*
X13204434Y-14344222D02*
X13274434Y-14344222D01*
X13307416Y-13532190D02*
X13307416Y-13602190D01*
X13272416Y-13567190D02*
X13342416Y-13567190D01*
X13547840Y-16248481D02*
X13547840Y-16318481D01*
X13512840Y-16283481D02*
X13582840Y-16283481D01*
X13615822Y-15471449D02*
X13615822Y-15541449D01*
X13580822Y-15506449D02*
X13650822Y-15506449D01*
X14330684Y-18229248D02*
X14330684Y-18299248D01*
X14295684Y-18264248D02*
X14365684Y-18264248D01*
X14354341Y-12494487D02*
X14354341Y-12564487D01*
X14319341Y-12529487D02*
X14389341Y-12529487D01*
X14398666Y-17452216D02*
X14398666Y-17522216D01*
X14363666Y-17487216D02*
X14433666Y-17487216D01*
X14422323Y-11717455D02*
X14422323Y-11787455D01*
X14387323Y-11752455D02*
X14457323Y-11752455D01*
X15128255Y-20172448D02*
X15128255Y-20242448D01*
X15093255Y-20207448D02*
X15163255Y-20207448D01*
X15137185Y-14475254D02*
X15137185Y-14545254D01*
X15102185Y-14510254D02*
X15172185Y-14510254D01*
X15196236Y-19395416D02*
X15196236Y-19465416D01*
X15161236Y-19430416D02*
X15231236Y-19430416D01*
X15205167Y-13698222D02*
X15205167Y-13768222D01*
X15170167Y-13733222D02*
X15240167Y-13733222D01*
X15445591Y-16414513D02*
X15445591Y-16484513D01*
X15410591Y-16449513D02*
X15480591Y-16449513D01*
X15513573Y-15637481D02*
X15513573Y-15707481D01*
X15478573Y-15672481D02*
X15548573Y-15672481D01*
X16228435Y-18395280D02*
X16228435Y-18465280D01*
X16193435Y-18430280D02*
X16263435Y-18430280D01*
X16252092Y-12660519D02*
X16252092Y-12730519D01*
X16217092Y-12695519D02*
X16287092Y-12695519D01*
X16296416Y-17618248D02*
X16296416Y-17688248D01*
X16261416Y-17653248D02*
X16331416Y-17653248D01*
X16320074Y-11883487D02*
X16320074Y-11953487D01*
X16285074Y-11918487D02*
X16355074Y-11918487D01*
X17034936Y-14641286D02*
X17034936Y-14711286D01*
X16999936Y-14676286D02*
X17069936Y-14676286D01*
X17102918Y-13864254D02*
X17102918Y-13934254D01*
X17067918Y-13899254D02*
X17137918Y-13899254D01*
X17343342Y-16580544D02*
X17343342Y-16650544D01*
X17308342Y-16615544D02*
X17378342Y-16615544D01*
X17411324Y-15803512D02*
X17411324Y-15873512D01*
X17376324Y-15838512D02*
X17446324Y-15838512D01*
X18126186Y-18561311D02*
X18126186Y-18631311D01*
X18091186Y-18596311D02*
X18161186Y-18596311D01*
X18194167Y-17784279D02*
X18194167Y-17854279D01*
X18159167Y-17819279D02*
X18229167Y-17819279D01*
X19028517Y-11963588D02*
X19028517Y-12033588D01*
X18993517Y-11998588D02*
X19063517Y-11998588D01*
X19096499Y-12740620D02*
X19096499Y-12810620D01*
X19061499Y-12775620D02*
X19131499Y-12775620D01*
X20143424Y-13778323D02*
X20143424Y-13848323D01*
X20108424Y-13813323D02*
X20178424Y-13813323D01*
X20211406Y-14555355D02*
X20211406Y-14625355D01*
X20176406Y-14590355D02*
X20246406Y-14590355D01*
X20783894Y-15634566D02*
X20783894Y-15704566D01*
X20748894Y-15669566D02*
X20818894Y-15669566D01*
X20851875Y-16411598D02*
X20851875Y-16481598D01*
X20816875Y-16446598D02*
X20886875Y-16446598D01*
X20926268Y-11797556D02*
X20926268Y-11867556D01*
X20891268Y-11832556D02*
X20961268Y-11832556D01*
X20994250Y-12574588D02*
X20994250Y-12644588D01*
X20959250Y-12609588D02*
X21029250Y-12609588D01*
X21898801Y-17449301D02*
X21898801Y-17519301D01*
X21863801Y-17484301D02*
X21933801Y-17484301D01*
X21966782Y-18226333D02*
X21966782Y-18296333D01*
X21931782Y-18261333D02*
X22001782Y-18261333D01*
X22041175Y-13612291D02*
X22041175Y-13682291D01*
X22006175Y-13647291D02*
X22076175Y-13647291D01*
X22109157Y-14389323D02*
X22109157Y-14459323D01*
X22074157Y-14424323D02*
X22144157Y-14424323D01*
X22681645Y-15468534D02*
X22681645Y-15538534D01*
X22646645Y-15503534D02*
X22716645Y-15503534D01*
X22749626Y-16245566D02*
X22749626Y-16315566D01*
X22714626Y-16280566D02*
X22784626Y-16280566D01*
X22824019Y-11631525D02*
X22824019Y-11701525D01*
X22789019Y-11666525D02*
X22859019Y-11666525D01*
X22892001Y-12408557D02*
X22892001Y-12478557D01*
X22857001Y-12443557D02*
X22927001Y-12443557D01*
X23492918Y-19211278D02*
X23492918Y-19281278D01*
X23457918Y-19246278D02*
X23527918Y-19246278D01*
X23560900Y-19988310D02*
X23560900Y-20058310D01*
X23525900Y-20023310D02*
X23595900Y-20023310D01*
X23796552Y-17283270D02*
X23796552Y-17353270D01*
X23761552Y-17318270D02*
X23831552Y-17318270D01*
X23864533Y-18060301D02*
X23864533Y-18130301D01*
X23829533Y-18095301D02*
X23899533Y-18095301D01*
X23938926Y-13446260D02*
X23938926Y-13516260D01*
X23903926Y-13481260D02*
X23973926Y-13481260D01*
X24006908Y-14223292D02*
X24006908Y-14293292D01*
X23971908Y-14258292D02*
X24041908Y-14258292D01*
X24579395Y-15302503D02*
X24579395Y-15372503D01*
X24544395Y-15337503D02*
X24614395Y-15337503D01*
X24647377Y-16079535D02*
X24647377Y-16149535D01*
X24612377Y-16114535D02*
X24682377Y-16114535D01*
X24721770Y-11465493D02*
X24721770Y-11535493D01*
X24686770Y-11500493D02*
X24756770Y-11500493D01*
X24789751Y-12242525D02*
X24789751Y-12312525D01*
X24754751Y-12277525D02*
X24824751Y-12277525D01*
X25694303Y-17117238D02*
X25694303Y-17187238D01*
X25659303Y-17152238D02*
X25729303Y-17152238D01*
X25762284Y-17894270D02*
X25762284Y-17964270D01*
X25727284Y-17929270D02*
X25797284Y-17929270D01*
X25836677Y-13280228D02*
X25836677Y-13350228D01*
X25801677Y-13315228D02*
X25871677Y-13315228D01*
X25904659Y-14057260D02*
X25904659Y-14127260D01*
X25869659Y-14092260D02*
X25939659Y-14092260D01*
X26477146Y-15136471D02*
X26477146Y-15206471D01*
X26442146Y-15171471D02*
X26512146Y-15171471D01*
X26545128Y-15913503D02*
X26545128Y-15983503D01*
X26510128Y-15948503D02*
X26580128Y-15948503D01*
X27271412Y-11097271D02*
X27271412Y-11167271D01*
X27236412Y-11132271D02*
X27306412Y-11132271D01*
X27271412Y-11877271D02*
X27271412Y-11947271D01*
X27236412Y-11912271D02*
X27306412Y-11912271D01*
X27520957Y-18816052D02*
X27520957Y-18886052D01*
X27485957Y-18851052D02*
X27555957Y-18851052D01*
X27588939Y-19593084D02*
X27588939Y-19663084D01*
X27553939Y-19628084D02*
X27623939Y-19628084D01*
X27592054Y-16951206D02*
X27592054Y-17021206D01*
X27557054Y-16986206D02*
X27627054Y-16986206D01*
X27660035Y-17728238D02*
X27660035Y-17798238D01*
X27625035Y-17763238D02*
X27695035Y-17763238D01*
X28223912Y-13002271D02*
X28223912Y-13072271D01*
X28188912Y-13037271D02*
X28258912Y-13037271D01*
X28223912Y-13782271D02*
X28223912Y-13852271D01*
X28188912Y-13817271D02*
X28258912Y-13817271D01*
X28700162Y-14907271D02*
X28700162Y-14977271D01*
X28665162Y-14942271D02*
X28735162Y-14942271D01*
X28700162Y-15687271D02*
X28700162Y-15757271D01*
X28665162Y-15722271D02*
X28735162Y-15722271D01*
X29176412Y-11097271D02*
X29176412Y-11167271D01*
X29141412Y-11132271D02*
X29211412Y-11132271D01*
X29176412Y-11877271D02*
X29176412Y-11947271D01*
X29141412Y-11912271D02*
X29211412Y-11912271D01*
X30128912Y-13002271D02*
X30128912Y-13072271D01*
X30093912Y-13037271D02*
X30163912Y-13037271D01*
X30128912Y-13782271D02*
X30128912Y-13852271D01*
X30093912Y-13817271D02*
X30163912Y-13817271D01*
X30605162Y-14907271D02*
X30605162Y-14977271D01*
X30570162Y-14942271D02*
X30640162Y-14942271D01*
X30605162Y-15687271D02*
X30605162Y-15757271D01*
X30570162Y-15722271D02*
X30640162Y-15722271D01*
X30853001Y-16783196D02*
X30853001Y-16853196D01*
X30818001Y-16818196D02*
X30888001Y-16818196D01*
X30853001Y-17563196D02*
X30853001Y-17633196D01*
X30818001Y-17598196D02*
X30888001Y-17598196D01*
X31081412Y-11097271D02*
X31081412Y-11167271D01*
X31046412Y-11132271D02*
X31116412Y-11132271D01*
X31081412Y-11877271D02*
X31081412Y-11947271D01*
X31046412Y-11912271D02*
X31116412Y-11912271D01*
X32033912Y-13002271D02*
X32033912Y-13072271D01*
X31998912Y-13037271D02*
X32068912Y-13037271D01*
X32033912Y-13782271D02*
X32033912Y-13852271D01*
X31998912Y-13817271D02*
X32068912Y-13817271D01*
X33697186Y-14886838D02*
X33697186Y-14956838D01*
X33662186Y-14921838D02*
X33732186Y-14921838D01*
X33697186Y-15666838D02*
X33697186Y-15736838D01*
X33662186Y-15701838D02*
X33732186Y-15701838D01*
X33936606Y-11077734D02*
X33936606Y-11147734D01*
X33901606Y-11112734D02*
X33971606Y-11112734D01*
X33936606Y-11857734D02*
X33936606Y-11927734D01*
X33901606Y-11892734D02*
X33971606Y-11892734D01*
X34117163Y-19738271D02*
X34117163Y-19808271D01*
X34082163Y-19773271D02*
X34152163Y-19773271D01*
X34117163Y-20518271D02*
X34117163Y-20588271D01*
X34082163Y-20553271D02*
X34152163Y-20553271D01*
X34427944Y-12978938D02*
X34427944Y-13048938D01*
X34392944Y-13013938D02*
X34462944Y-13013938D01*
X34427944Y-13758938D02*
X34427944Y-13828938D01*
X34392944Y-13793938D02*
X34462944Y-13793938D01*
X36022163Y-17833271D02*
X36022163Y-17903271D01*
X35987163Y-17868271D02*
X36057163Y-17868271D01*
X36022163Y-18613271D02*
X36022163Y-18683271D01*
X35987163Y-18648271D02*
X36057163Y-18648271D01*
X36022163Y-19738271D02*
X36022163Y-19808271D01*
X35987163Y-19773271D02*
X36057163Y-19773271D01*
X36022163Y-20518271D02*
X36022163Y-20588271D01*
X35987163Y-20553271D02*
X36057163Y-20553271D01*
X37927163Y-19738271D02*
X37927163Y-19808271D01*
X37892163Y-19773271D02*
X37962163Y-19773271D01*
X37927163Y-20518271D02*
X37927163Y-20588271D01*
X37892163Y-20553271D02*
X37962163Y-20553271D01*
D15*
X29312594Y-19815702D02*
X29312594Y-19752840D01*
X29249731Y-19752840D01*
X29249731Y-19815702D01*
X29312594Y-19815702D01*
X29312594Y-20069702D02*
X29312594Y-20006840D01*
X29249731Y-20006840D01*
X29249731Y-20069702D01*
X29312594Y-20069702D01*
X29312594Y-20323702D02*
X29312594Y-20260840D01*
X29249731Y-20260840D01*
X29249731Y-20323702D01*
X29312594Y-20323702D01*
X30074594Y-21085702D02*
X30074594Y-21022840D01*
X30011731Y-21022840D01*
X30011731Y-21085702D01*
X30074594Y-21085702D01*
X30328594Y-21085702D02*
X30328594Y-21022840D01*
X30265731Y-21022840D01*
X30265731Y-21085702D01*
X30328594Y-21085702D01*
X30582594Y-21085702D02*
X30582594Y-21022840D01*
X30519731Y-21022840D01*
X30519731Y-21085702D01*
X30582594Y-21085702D01*
D16*
X29979662Y-18813271D02*
X30024662Y-18768271D01*
X29979662Y-18723271D01*
X29934662Y-18768271D01*
X29979662Y-18813271D01*
X29979662Y-19321271D02*
X30024662Y-19276271D01*
X29979662Y-19231271D01*
X29934662Y-19276271D01*
X29979662Y-19321271D01*
X30614662Y-18813271D02*
X30659662Y-18768271D01*
X30614662Y-18723271D01*
X30569662Y-18768271D01*
X30614662Y-18813271D01*
X30614662Y-19321271D02*
X30659662Y-19276271D01*
X30614662Y-19231271D01*
X30569662Y-19276271D01*
X30614662Y-19321271D01*
D10*
X18426735Y-10703397D02*
X18526735Y-10803397D01*
X18526735Y-10703397D02*
X18426735Y-10803397D01*
X18526735Y-10753397D02*
G75*
G03*
X18526735Y-10753397I-50000J0D01*
G01*
X18680735Y-10703397D02*
X18780735Y-10803397D01*
X18780735Y-10703397D02*
X18680735Y-10803397D01*
X18780735Y-10753397D02*
G75*
G03*
X18780735Y-10753397I-50000J0D01*
G01*
X18934735Y-10703397D02*
X19034735Y-10803397D01*
X19034735Y-10703397D02*
X18934735Y-10803397D01*
X19034735Y-10753397D02*
G75*
G03*
X19034735Y-10753397I-50000J0D01*
G01*
X19188735Y-10703397D02*
X19288735Y-10803397D01*
X19288735Y-10703397D02*
X19188735Y-10803397D01*
X19288735Y-10753397D02*
G75*
G03*
X19288735Y-10753397I-50000J0D01*
G01*
X37110053Y-12170706D02*
X37210053Y-12270706D01*
X37210053Y-12170706D02*
X37110053Y-12270706D01*
X37210053Y-12220706D02*
G75*
G03*
X37210053Y-12220706I-50000J0D01*
G01*
X37110053Y-12420706D02*
X37210053Y-12520706D01*
X37210053Y-12420706D02*
X37110053Y-12520706D01*
X37210053Y-12470706D02*
G75*
G03*
X37210053Y-12470706I-50000J0D01*
G01*
X37110053Y-12670706D02*
X37210053Y-12770706D01*
X37210053Y-12670706D02*
X37110053Y-12770706D01*
X37210053Y-12720706D02*
G75*
G03*
X37210053Y-12720706I-50000J0D01*
G01*
X38560053Y-12170706D02*
X38660053Y-12270706D01*
X38660053Y-12170706D02*
X38560053Y-12270706D01*
X38660053Y-12220706D02*
G75*
G03*
X38660053Y-12220706I-50000J0D01*
G01*
X38560053Y-12670706D02*
X38660053Y-12770706D01*
X38660053Y-12670706D02*
X38560053Y-12770706D01*
X38660053Y-12720706D02*
G75*
G03*
X38660053Y-12720706I-50000J0D01*
G01*
X39194334Y-10843616D02*
X39294334Y-10943616D01*
X39294334Y-10843616D02*
X39194334Y-10943616D01*
X39294334Y-10893616D02*
G75*
G03*
X39294334Y-10893616I-50000J0D01*
G01*
X39448334Y-10843616D02*
X39548334Y-10943616D01*
X39548334Y-10843616D02*
X39448334Y-10943616D01*
X39548334Y-10893616D02*
G75*
G03*
X39548334Y-10893616I-50000J0D01*
G01*
X39702334Y-10843616D02*
X39802334Y-10943616D01*
X39802334Y-10843616D02*
X39702334Y-10943616D01*
X39802334Y-10893616D02*
G75*
G03*
X39802334Y-10893616I-50000J0D01*
G01*
X39956334Y-10843616D02*
X40056334Y-10943616D01*
X40056334Y-10843616D02*
X39956334Y-10943616D01*
X40056334Y-10893616D02*
G75*
G03*
X40056334Y-10893616I-50000J0D01*
G01*
D17*
X37408459Y-13612608D02*
X37510459Y-13714608D01*
X37510459Y-13612608D02*
X37408459Y-13714608D01*
X37459459Y-13612608D02*
X37459459Y-13714608D01*
X37408459Y-13663608D02*
X37510459Y-13663608D01*
X37408459Y-13866608D02*
X37510459Y-13968608D01*
X37510459Y-13866608D02*
X37408459Y-13968608D01*
X37459459Y-13866608D02*
X37459459Y-13968608D01*
X37408459Y-13917608D02*
X37510459Y-13917608D01*
X37408459Y-14120608D02*
X37510459Y-14222608D01*
X37510459Y-14120608D02*
X37408459Y-14222608D01*
X37459459Y-14120608D02*
X37459459Y-14222608D01*
X37408459Y-14171608D02*
X37510459Y-14171608D01*
X37408459Y-14374608D02*
X37510459Y-14476608D01*
X37510459Y-14374608D02*
X37408459Y-14476608D01*
X37459459Y-14374608D02*
X37459459Y-14476608D01*
X37408459Y-14425608D02*
X37510459Y-14425608D01*
X37408459Y-14628608D02*
X37510459Y-14730608D01*
X37510459Y-14628608D02*
X37408459Y-14730608D01*
X37459459Y-14628608D02*
X37459459Y-14730608D01*
X37408459Y-14679608D02*
X37510459Y-14679608D01*
X37408459Y-14882608D02*
X37510459Y-14984608D01*
X37510459Y-14882608D02*
X37408459Y-14984608D01*
X37459459Y-14882608D02*
X37459459Y-14984608D01*
X37408459Y-14933608D02*
X37510459Y-14933608D01*
X37408459Y-15136608D02*
X37510459Y-15238608D01*
X37510459Y-15136608D02*
X37408459Y-15238608D01*
X37459459Y-15136608D02*
X37459459Y-15238608D01*
X37408459Y-15187608D02*
X37510459Y-15187608D01*
X37408459Y-15390608D02*
X37510459Y-15492608D01*
X37510459Y-15390608D02*
X37408459Y-15492608D01*
X37459459Y-15390608D02*
X37459459Y-15492608D01*
X37408459Y-15441608D02*
X37510459Y-15441608D01*
X37408459Y-15644608D02*
X37510459Y-15746608D01*
X37510459Y-15644608D02*
X37408459Y-15746608D01*
X37459459Y-15644608D02*
X37459459Y-15746608D01*
X37408459Y-15695608D02*
X37510459Y-15695608D01*
X37408459Y-15898608D02*
X37510459Y-16000608D01*
X37510459Y-15898608D02*
X37408459Y-16000608D01*
X37459459Y-15898608D02*
X37459459Y-16000608D01*
X37408459Y-15949608D02*
X37510459Y-15949608D01*
X37408459Y-16152608D02*
X37510459Y-16254608D01*
X37510459Y-16152608D02*
X37408459Y-16254608D01*
X37459459Y-16152608D02*
X37459459Y-16254608D01*
X37408459Y-16203608D02*
X37510459Y-16203608D01*
X37408459Y-16406608D02*
X37510459Y-16508608D01*
X37510459Y-16406608D02*
X37408459Y-16508608D01*
X37459459Y-16406608D02*
X37459459Y-16508608D01*
X37408459Y-16457608D02*
X37510459Y-16457608D01*
X37408459Y-16660608D02*
X37510459Y-16762608D01*
X37510459Y-16660608D02*
X37408459Y-16762608D01*
X37459459Y-16660608D02*
X37459459Y-16762608D01*
X37408459Y-16711608D02*
X37510459Y-16711608D01*
X37408459Y-16914608D02*
X37510459Y-17016608D01*
X37510459Y-16914608D02*
X37408459Y-17016608D01*
X37459459Y-16914608D02*
X37459459Y-17016608D01*
X37408459Y-16965608D02*
X37510459Y-16965608D01*
X37408459Y-17168608D02*
X37510459Y-17270608D01*
X37510459Y-17168608D02*
X37408459Y-17270608D01*
X37459459Y-17168608D02*
X37459459Y-17270608D01*
X37408459Y-17219608D02*
X37510459Y-17219608D01*
X37408459Y-17422608D02*
X37510459Y-17524608D01*
X37510459Y-17422608D02*
X37408459Y-17524608D01*
X37459459Y-17422608D02*
X37459459Y-17524608D01*
X37408459Y-17473608D02*
X37510459Y-17473608D01*
X37408459Y-17676608D02*
X37510459Y-17778608D01*
X37510459Y-17676608D02*
X37408459Y-17778608D01*
X37459459Y-17676608D02*
X37459459Y-17778608D01*
X37408459Y-17727608D02*
X37510459Y-17727608D01*
X37408459Y-17930608D02*
X37510459Y-18032608D01*
X37510459Y-17930608D02*
X37408459Y-18032608D01*
X37459459Y-17930608D02*
X37459459Y-18032608D01*
X37408459Y-17981608D02*
X37510459Y-17981608D01*
X37408459Y-18184608D02*
X37510459Y-18286608D01*
X37510459Y-18184608D02*
X37408459Y-18286608D01*
X37459459Y-18184608D02*
X37459459Y-18286608D01*
X37408459Y-18235608D02*
X37510459Y-18235608D01*
X37408459Y-18438608D02*
X37510459Y-18540608D01*
X37510459Y-18438608D02*
X37408459Y-18540608D01*
X37459459Y-18438608D02*
X37459459Y-18540608D01*
X37408459Y-18489608D02*
X37510459Y-18489608D01*
X38043459Y-18415608D02*
X38145459Y-18517608D01*
X38145459Y-18415608D02*
X38043459Y-18517608D01*
X38094459Y-18415608D02*
X38094459Y-18517608D01*
X38043459Y-18466608D02*
X38145459Y-18466608D01*
X38297459Y-18415608D02*
X38399459Y-18517608D01*
X38399459Y-18415608D02*
X38297459Y-18517608D01*
X38348459Y-18415608D02*
X38348459Y-18517608D01*
X38297459Y-18466608D02*
X38399459Y-18466608D01*
X38551459Y-18415608D02*
X38653459Y-18517608D01*
X38653459Y-18415608D02*
X38551459Y-18517608D01*
X38602459Y-18415608D02*
X38602459Y-18517608D01*
X38551459Y-18466608D02*
X38653459Y-18466608D01*
X39186459Y-13612608D02*
X39288459Y-13714608D01*
X39288459Y-13612608D02*
X39186459Y-13714608D01*
X39237459Y-13612608D02*
X39237459Y-13714608D01*
X39186459Y-13663608D02*
X39288459Y-13663608D01*
X39186459Y-13866608D02*
X39288459Y-13968608D01*
X39288459Y-13866608D02*
X39186459Y-13968608D01*
X39237459Y-13866608D02*
X39237459Y-13968608D01*
X39186459Y-13917608D02*
X39288459Y-13917608D01*
X39186459Y-14120608D02*
X39288459Y-14222608D01*
X39288459Y-14120608D02*
X39186459Y-14222608D01*
X39237459Y-14120608D02*
X39237459Y-14222608D01*
X39186459Y-14171608D02*
X39288459Y-14171608D01*
X39186459Y-14374608D02*
X39288459Y-14476608D01*
X39288459Y-14374608D02*
X39186459Y-14476608D01*
X39237459Y-14374608D02*
X39237459Y-14476608D01*
X39186459Y-14425608D02*
X39288459Y-14425608D01*
X39186459Y-14628608D02*
X39288459Y-14730608D01*
X39288459Y-14628608D02*
X39186459Y-14730608D01*
X39237459Y-14628608D02*
X39237459Y-14730608D01*
X39186459Y-14679608D02*
X39288459Y-14679608D01*
X39186459Y-14882608D02*
X39288459Y-14984608D01*
X39288459Y-14882608D02*
X39186459Y-14984608D01*
X39237459Y-14882608D02*
X39237459Y-14984608D01*
X39186459Y-14933608D02*
X39288459Y-14933608D01*
X39186459Y-15136608D02*
X39288459Y-15238608D01*
X39288459Y-15136608D02*
X39186459Y-15238608D01*
X39237459Y-15136608D02*
X39237459Y-15238608D01*
X39186459Y-15187608D02*
X39288459Y-15187608D01*
X39186459Y-15390608D02*
X39288459Y-15492608D01*
X39288459Y-15390608D02*
X39186459Y-15492608D01*
X39237459Y-15390608D02*
X39237459Y-15492608D01*
X39186459Y-15441608D02*
X39288459Y-15441608D01*
X39186459Y-15644608D02*
X39288459Y-15746608D01*
X39288459Y-15644608D02*
X39186459Y-15746608D01*
X39237459Y-15644608D02*
X39237459Y-15746608D01*
X39186459Y-15695608D02*
X39288459Y-15695608D01*
X39186459Y-15898608D02*
X39288459Y-16000608D01*
X39288459Y-15898608D02*
X39186459Y-16000608D01*
X39237459Y-15898608D02*
X39237459Y-16000608D01*
X39186459Y-15949608D02*
X39288459Y-15949608D01*
X39186459Y-16152608D02*
X39288459Y-16254608D01*
X39288459Y-16152608D02*
X39186459Y-16254608D01*
X39237459Y-16152608D02*
X39237459Y-16254608D01*
X39186459Y-16203608D02*
X39288459Y-16203608D01*
X39186459Y-16406608D02*
X39288459Y-16508608D01*
X39288459Y-16406608D02*
X39186459Y-16508608D01*
X39237459Y-16406608D02*
X39237459Y-16508608D01*
X39186459Y-16457608D02*
X39288459Y-16457608D01*
X39186459Y-16660608D02*
X39288459Y-16762608D01*
X39288459Y-16660608D02*
X39186459Y-16762608D01*
X39237459Y-16660608D02*
X39237459Y-16762608D01*
X39186459Y-16711608D02*
X39288459Y-16711608D01*
X39186459Y-16914608D02*
X39288459Y-17016608D01*
X39288459Y-16914608D02*
X39186459Y-17016608D01*
X39237459Y-16914608D02*
X39237459Y-17016608D01*
X39186459Y-16965608D02*
X39288459Y-16965608D01*
X39186459Y-17168608D02*
X39288459Y-17270608D01*
X39288459Y-17168608D02*
X39186459Y-17270608D01*
X39237459Y-17168608D02*
X39237459Y-17270608D01*
X39186459Y-17219608D02*
X39288459Y-17219608D01*
X39186459Y-17422608D02*
X39288459Y-17524608D01*
X39288459Y-17422608D02*
X39186459Y-17524608D01*
X39237459Y-17422608D02*
X39237459Y-17524608D01*
X39186459Y-17473608D02*
X39288459Y-17473608D01*
X39186459Y-17676608D02*
X39288459Y-17778608D01*
X39288459Y-17676608D02*
X39186459Y-17778608D01*
X39237459Y-17676608D02*
X39237459Y-17778608D01*
X39186459Y-17727608D02*
X39288459Y-17727608D01*
X39186459Y-17930608D02*
X39288459Y-18032608D01*
X39288459Y-17930608D02*
X39186459Y-18032608D01*
X39237459Y-17930608D02*
X39237459Y-18032608D01*
X39186459Y-17981608D02*
X39288459Y-17981608D01*
X39186459Y-18184608D02*
X39288459Y-18286608D01*
X39288459Y-18184608D02*
X39186459Y-18286608D01*
X39237459Y-18184608D02*
X39237459Y-18286608D01*
X39186459Y-18235608D02*
X39288459Y-18235608D01*
X39186459Y-18438608D02*
X39288459Y-18540608D01*
X39288459Y-18438608D02*
X39186459Y-18540608D01*
X39237459Y-18438608D02*
X39237459Y-18540608D01*
X39186459Y-18489608D02*
X39288459Y-18489608D01*
D18*
X29465312Y-19301671D02*
X29605012Y-19441371D01*
X29605012Y-19301671D02*
X29465312Y-19441371D01*
X29584554Y-19420913D02*
X29584554Y-19322129D01*
X29485771Y-19322129D01*
X29485771Y-19420913D01*
X29584554Y-19420913D01*
X29465312Y-20635171D02*
X29605012Y-20774871D01*
X29605012Y-20635171D02*
X29465312Y-20774871D01*
X29584554Y-20754413D02*
X29584554Y-20655629D01*
X29485771Y-20655629D01*
X29485771Y-20754413D01*
X29584554Y-20754413D01*
X30989312Y-19301671D02*
X31129012Y-19441371D01*
X31129012Y-19301671D02*
X30989312Y-19441371D01*
X31108554Y-19420913D02*
X31108554Y-19322129D01*
X31009771Y-19322129D01*
X31009771Y-19420913D01*
X31108554Y-19420913D01*
X30989312Y-20635171D02*
X31129012Y-20774871D01*
X31129012Y-20635171D02*
X30989312Y-20774871D01*
X31108554Y-20754413D02*
X31108554Y-20655629D01*
X31009771Y-20655629D01*
X31009771Y-20754413D01*
X31108554Y-20754413D01*
D19*
X37835053Y-11835706D02*
X37985053Y-11985706D01*
X37985053Y-11835706D02*
X37835053Y-11985706D01*
X37910053Y-11985706D02*
X37985053Y-11910706D01*
X37910053Y-11835706D01*
X37835053Y-11910706D01*
X37910053Y-11985706D01*
D11*
X37845053Y-11985706D02*
X37975053Y-11985706D01*
X37975053Y-11985706D02*
G75*
G03*
X37975053Y-11835706I0J75000D01*
G01*
X37975053Y-11835706D02*
X37845053Y-11835706D01*
X37845053Y-11835706D02*
G75*
G03*
X37845053Y-11985706I0J-75000D01*
G01*
D19*
X37835053Y-12955706D02*
X37985053Y-13105706D01*
X37985053Y-12955706D02*
X37835053Y-13105706D01*
X37910053Y-13105706D02*
X37985053Y-13030706D01*
X37910053Y-12955706D01*
X37835053Y-13030706D01*
X37910053Y-13105706D01*
D11*
X37845053Y-13105706D02*
X37975053Y-13105706D01*
X37975053Y-13105706D02*
G75*
G03*
X37975053Y-12955706I0J75000D01*
G01*
X37975053Y-12955706D02*
X37845053Y-12955706D01*
X37845053Y-12955706D02*
G75*
G03*
X37845053Y-13105706I0J-75000D01*
G01*
X3675984Y-22129227D02*
X3675984Y-21929227D01*
X3675984Y-21929227D02*
X3723603Y-21929227D01*
X3723603Y-21929227D02*
X3752174Y-21938751D01*
X3752174Y-21938751D02*
X3771222Y-21957798D01*
X3771222Y-21957798D02*
X3780746Y-21976846D01*
X3780746Y-21976846D02*
X3790270Y-22014941D01*
X3790270Y-22014941D02*
X3790270Y-22043513D01*
X3790270Y-22043513D02*
X3780746Y-22081608D01*
X3780746Y-22081608D02*
X3771222Y-22100655D01*
X3771222Y-22100655D02*
X3752174Y-22119703D01*
X3752174Y-22119703D02*
X3723603Y-22129227D01*
X3723603Y-22129227D02*
X3675984Y-22129227D01*
X3875984Y-22129227D02*
X3875984Y-21995894D01*
X3875984Y-22033989D02*
X3885508Y-22014941D01*
X3885508Y-22014941D02*
X3895032Y-22005417D01*
X3895032Y-22005417D02*
X3914079Y-21995894D01*
X3914079Y-21995894D02*
X3933127Y-21995894D01*
X3999793Y-22129227D02*
X3999793Y-21995894D01*
X3999793Y-21929227D02*
X3990270Y-21938751D01*
X3990270Y-21938751D02*
X3999793Y-21948275D01*
X3999793Y-21948275D02*
X4009317Y-21938751D01*
X4009317Y-21938751D02*
X3999793Y-21929227D01*
X3999793Y-21929227D02*
X3999793Y-21948275D01*
X4123603Y-22129227D02*
X4104555Y-22119703D01*
X4104555Y-22119703D02*
X4095032Y-22100655D01*
X4095032Y-22100655D02*
X4095032Y-21929227D01*
X4228365Y-22129227D02*
X4209317Y-22119703D01*
X4209317Y-22119703D02*
X4199794Y-22100655D01*
X4199794Y-22100655D02*
X4199794Y-21929227D01*
X4456936Y-22129227D02*
X4456936Y-21929227D01*
X4456936Y-21929227D02*
X4523603Y-22072084D01*
X4523603Y-22072084D02*
X4590270Y-21929227D01*
X4590270Y-21929227D02*
X4590270Y-22129227D01*
X4771222Y-22129227D02*
X4771222Y-22024465D01*
X4771222Y-22024465D02*
X4761698Y-22005417D01*
X4761698Y-22005417D02*
X4742651Y-21995894D01*
X4742651Y-21995894D02*
X4704555Y-21995894D01*
X4704555Y-21995894D02*
X4685508Y-22005417D01*
X4771222Y-22119703D02*
X4752175Y-22129227D01*
X4752175Y-22129227D02*
X4704555Y-22129227D01*
X4704555Y-22129227D02*
X4685508Y-22119703D01*
X4685508Y-22119703D02*
X4675984Y-22100655D01*
X4675984Y-22100655D02*
X4675984Y-22081608D01*
X4675984Y-22081608D02*
X4685508Y-22062560D01*
X4685508Y-22062560D02*
X4704555Y-22053036D01*
X4704555Y-22053036D02*
X4752175Y-22053036D01*
X4752175Y-22053036D02*
X4771222Y-22043513D01*
X4866460Y-21995894D02*
X4866460Y-22195894D01*
X4866460Y-22005417D02*
X4885508Y-21995894D01*
X4885508Y-21995894D02*
X4923603Y-21995894D01*
X4923603Y-21995894D02*
X4942651Y-22005417D01*
X4942651Y-22005417D02*
X4952175Y-22014941D01*
X4952175Y-22014941D02*
X4961698Y-22033989D01*
X4961698Y-22033989D02*
X4961698Y-22091132D01*
X4961698Y-22091132D02*
X4952175Y-22110179D01*
X4952175Y-22110179D02*
X4942651Y-22119703D01*
X4942651Y-22119703D02*
X4923603Y-22129227D01*
X4923603Y-22129227D02*
X4885508Y-22129227D01*
X4885508Y-22129227D02*
X4866460Y-22119703D01*
X5047413Y-22110179D02*
X5056936Y-22119703D01*
X5056936Y-22119703D02*
X5047413Y-22129227D01*
X5047413Y-22129227D02*
X5037889Y-22119703D01*
X5037889Y-22119703D02*
X5047413Y-22110179D01*
X5047413Y-22110179D02*
X5047413Y-22129227D01*
X5047413Y-22005417D02*
X5056936Y-22014941D01*
X5056936Y-22014941D02*
X5047413Y-22024465D01*
X5047413Y-22024465D02*
X5037889Y-22014941D01*
X5037889Y-22014941D02*
X5047413Y-22005417D01*
X5047413Y-22005417D02*
X5047413Y-22024465D01*
D12*
X3375207Y-22437743D02*
X3415207Y-22477743D01*
X3415207Y-22437743D02*
X3375207Y-22477743D01*
D11*
X3714079Y-22349227D02*
X3733127Y-22349227D01*
X3733127Y-22349227D02*
X3752174Y-22358751D01*
X3752174Y-22358751D02*
X3761698Y-22368275D01*
X3761698Y-22368275D02*
X3771222Y-22387322D01*
X3771222Y-22387322D02*
X3780746Y-22425417D01*
X3780746Y-22425417D02*
X3780746Y-22473036D01*
X3780746Y-22473036D02*
X3771222Y-22511132D01*
X3771222Y-22511132D02*
X3761698Y-22530179D01*
X3761698Y-22530179D02*
X3752174Y-22539703D01*
X3752174Y-22539703D02*
X3733127Y-22549227D01*
X3733127Y-22549227D02*
X3714079Y-22549227D01*
X3714079Y-22549227D02*
X3695032Y-22539703D01*
X3695032Y-22539703D02*
X3685508Y-22530179D01*
X3685508Y-22530179D02*
X3675984Y-22511132D01*
X3675984Y-22511132D02*
X3666460Y-22473036D01*
X3666460Y-22473036D02*
X3666460Y-22425417D01*
X3666460Y-22425417D02*
X3675984Y-22387322D01*
X3675984Y-22387322D02*
X3685508Y-22368275D01*
X3685508Y-22368275D02*
X3695032Y-22358751D01*
X3695032Y-22358751D02*
X3714079Y-22349227D01*
X3866460Y-22530179D02*
X3875984Y-22539703D01*
X3875984Y-22539703D02*
X3866460Y-22549227D01*
X3866460Y-22549227D02*
X3856936Y-22539703D01*
X3856936Y-22539703D02*
X3866460Y-22530179D01*
X3866460Y-22530179D02*
X3866460Y-22549227D01*
X4047413Y-22415893D02*
X4047413Y-22549227D01*
X3999793Y-22339703D02*
X3952174Y-22482560D01*
X3952174Y-22482560D02*
X4075984Y-22482560D01*
X4190270Y-22349227D02*
X4209317Y-22349227D01*
X4209317Y-22349227D02*
X4228365Y-22358751D01*
X4228365Y-22358751D02*
X4237889Y-22368275D01*
X4237889Y-22368275D02*
X4247413Y-22387322D01*
X4247413Y-22387322D02*
X4256936Y-22425417D01*
X4256936Y-22425417D02*
X4256936Y-22473036D01*
X4256936Y-22473036D02*
X4247413Y-22511132D01*
X4247413Y-22511132D02*
X4237889Y-22530179D01*
X4237889Y-22530179D02*
X4228365Y-22539703D01*
X4228365Y-22539703D02*
X4209317Y-22549227D01*
X4209317Y-22549227D02*
X4190270Y-22549227D01*
X4190270Y-22549227D02*
X4171222Y-22539703D01*
X4171222Y-22539703D02*
X4161698Y-22530179D01*
X4161698Y-22530179D02*
X4152174Y-22511132D01*
X4152174Y-22511132D02*
X4142651Y-22473036D01*
X4142651Y-22473036D02*
X4142651Y-22425417D01*
X4142651Y-22425417D02*
X4152174Y-22387322D01*
X4152174Y-22387322D02*
X4161698Y-22368275D01*
X4161698Y-22368275D02*
X4171222Y-22358751D01*
X4171222Y-22358751D02*
X4190270Y-22349227D01*
X4380746Y-22349227D02*
X4399794Y-22349227D01*
X4399794Y-22349227D02*
X4418841Y-22358751D01*
X4418841Y-22358751D02*
X4428365Y-22368275D01*
X4428365Y-22368275D02*
X4437889Y-22387322D01*
X4437889Y-22387322D02*
X4447413Y-22425417D01*
X4447413Y-22425417D02*
X4447413Y-22473036D01*
X4447413Y-22473036D02*
X4437889Y-22511132D01*
X4437889Y-22511132D02*
X4428365Y-22530179D01*
X4428365Y-22530179D02*
X4418841Y-22539703D01*
X4418841Y-22539703D02*
X4399794Y-22549227D01*
X4399794Y-22549227D02*
X4380746Y-22549227D01*
X4380746Y-22549227D02*
X4361698Y-22539703D01*
X4361698Y-22539703D02*
X4352175Y-22530179D01*
X4352175Y-22530179D02*
X4342651Y-22511132D01*
X4342651Y-22511132D02*
X4333127Y-22473036D01*
X4333127Y-22473036D02*
X4333127Y-22425417D01*
X4333127Y-22425417D02*
X4342651Y-22387322D01*
X4342651Y-22387322D02*
X4352175Y-22368275D01*
X4352175Y-22368275D02*
X4361698Y-22358751D01*
X4361698Y-22358751D02*
X4380746Y-22349227D01*
X4533127Y-22549227D02*
X4533127Y-22415893D01*
X4533127Y-22434941D02*
X4542651Y-22425417D01*
X4542651Y-22425417D02*
X4561698Y-22415893D01*
X4561698Y-22415893D02*
X4590270Y-22415893D01*
X4590270Y-22415893D02*
X4609317Y-22425417D01*
X4609317Y-22425417D02*
X4618841Y-22444465D01*
X4618841Y-22444465D02*
X4618841Y-22549227D01*
X4618841Y-22444465D02*
X4628365Y-22425417D01*
X4628365Y-22425417D02*
X4647413Y-22415893D01*
X4647413Y-22415893D02*
X4675984Y-22415893D01*
X4675984Y-22415893D02*
X4695032Y-22425417D01*
X4695032Y-22425417D02*
X4704556Y-22444465D01*
X4704556Y-22444465D02*
X4704556Y-22549227D01*
X4799794Y-22549227D02*
X4799794Y-22415893D01*
X4799794Y-22434941D02*
X4809317Y-22425417D01*
X4809317Y-22425417D02*
X4828365Y-22415893D01*
X4828365Y-22415893D02*
X4856937Y-22415893D01*
X4856937Y-22415893D02*
X4875984Y-22425417D01*
X4875984Y-22425417D02*
X4885508Y-22444465D01*
X4885508Y-22444465D02*
X4885508Y-22549227D01*
X4885508Y-22444465D02*
X4895032Y-22425417D01*
X4895032Y-22425417D02*
X4914079Y-22415893D01*
X4914079Y-22415893D02*
X4942651Y-22415893D01*
X4942651Y-22415893D02*
X4961698Y-22425417D01*
X4961698Y-22425417D02*
X4971222Y-22444465D01*
X4971222Y-22444465D02*
X4971222Y-22549227D01*
X5361698Y-22339703D02*
X5190270Y-22596846D01*
X5618841Y-22349227D02*
X5637889Y-22349227D01*
X5637889Y-22349227D02*
X5656937Y-22358751D01*
X5656937Y-22358751D02*
X5666460Y-22368275D01*
X5666460Y-22368275D02*
X5675984Y-22387322D01*
X5675984Y-22387322D02*
X5685508Y-22425417D01*
X5685508Y-22425417D02*
X5685508Y-22473036D01*
X5685508Y-22473036D02*
X5675984Y-22511132D01*
X5675984Y-22511132D02*
X5666460Y-22530179D01*
X5666460Y-22530179D02*
X5656937Y-22539703D01*
X5656937Y-22539703D02*
X5637889Y-22549227D01*
X5637889Y-22549227D02*
X5618841Y-22549227D01*
X5618841Y-22549227D02*
X5599794Y-22539703D01*
X5599794Y-22539703D02*
X5590270Y-22530179D01*
X5590270Y-22530179D02*
X5580746Y-22511132D01*
X5580746Y-22511132D02*
X5571222Y-22473036D01*
X5571222Y-22473036D02*
X5571222Y-22425417D01*
X5571222Y-22425417D02*
X5580746Y-22387322D01*
X5580746Y-22387322D02*
X5590270Y-22368275D01*
X5590270Y-22368275D02*
X5599794Y-22358751D01*
X5599794Y-22358751D02*
X5618841Y-22349227D01*
X5771222Y-22530179D02*
X5780746Y-22539703D01*
X5780746Y-22539703D02*
X5771222Y-22549227D01*
X5771222Y-22549227D02*
X5761698Y-22539703D01*
X5761698Y-22539703D02*
X5771222Y-22530179D01*
X5771222Y-22530179D02*
X5771222Y-22549227D01*
X5904556Y-22349227D02*
X5923603Y-22349227D01*
X5923603Y-22349227D02*
X5942651Y-22358751D01*
X5942651Y-22358751D02*
X5952175Y-22368275D01*
X5952175Y-22368275D02*
X5961698Y-22387322D01*
X5961698Y-22387322D02*
X5971222Y-22425417D01*
X5971222Y-22425417D02*
X5971222Y-22473036D01*
X5971222Y-22473036D02*
X5961698Y-22511132D01*
X5961698Y-22511132D02*
X5952175Y-22530179D01*
X5952175Y-22530179D02*
X5942651Y-22539703D01*
X5942651Y-22539703D02*
X5923603Y-22549227D01*
X5923603Y-22549227D02*
X5904556Y-22549227D01*
X5904556Y-22549227D02*
X5885508Y-22539703D01*
X5885508Y-22539703D02*
X5875984Y-22530179D01*
X5875984Y-22530179D02*
X5866460Y-22511132D01*
X5866460Y-22511132D02*
X5856937Y-22473036D01*
X5856937Y-22473036D02*
X5856937Y-22425417D01*
X5856937Y-22425417D02*
X5866460Y-22387322D01*
X5866460Y-22387322D02*
X5875984Y-22368275D01*
X5875984Y-22368275D02*
X5885508Y-22358751D01*
X5885508Y-22358751D02*
X5904556Y-22349227D01*
X6161698Y-22549227D02*
X6047413Y-22549227D01*
X6104556Y-22549227D02*
X6104556Y-22349227D01*
X6104556Y-22349227D02*
X6085508Y-22377798D01*
X6085508Y-22377798D02*
X6066460Y-22396846D01*
X6066460Y-22396846D02*
X6047413Y-22406370D01*
X6342651Y-22349227D02*
X6247413Y-22349227D01*
X6247413Y-22349227D02*
X6237889Y-22444465D01*
X6237889Y-22444465D02*
X6247413Y-22434941D01*
X6247413Y-22434941D02*
X6266460Y-22425417D01*
X6266460Y-22425417D02*
X6314079Y-22425417D01*
X6314079Y-22425417D02*
X6333127Y-22434941D01*
X6333127Y-22434941D02*
X6342651Y-22444465D01*
X6342651Y-22444465D02*
X6352175Y-22463513D01*
X6352175Y-22463513D02*
X6352175Y-22511132D01*
X6352175Y-22511132D02*
X6342651Y-22530179D01*
X6342651Y-22530179D02*
X6333127Y-22539703D01*
X6333127Y-22539703D02*
X6314079Y-22549227D01*
X6314079Y-22549227D02*
X6266460Y-22549227D01*
X6266460Y-22549227D02*
X6247413Y-22539703D01*
X6247413Y-22539703D02*
X6237889Y-22530179D01*
X6418841Y-22349227D02*
X6552175Y-22349227D01*
X6552175Y-22349227D02*
X6466460Y-22549227D01*
X6618841Y-22349227D02*
X6618841Y-22387322D01*
X6695032Y-22349227D02*
X6695032Y-22387322D01*
X6990270Y-22625417D02*
X6980746Y-22615893D01*
X6980746Y-22615893D02*
X6961699Y-22587322D01*
X6961699Y-22587322D02*
X6952175Y-22568274D01*
X6952175Y-22568274D02*
X6942651Y-22539703D01*
X6942651Y-22539703D02*
X6933127Y-22492084D01*
X6933127Y-22492084D02*
X6933127Y-22453989D01*
X6933127Y-22453989D02*
X6942651Y-22406370D01*
X6942651Y-22406370D02*
X6952175Y-22377798D01*
X6952175Y-22377798D02*
X6961699Y-22358751D01*
X6961699Y-22358751D02*
X6980746Y-22330179D01*
X6980746Y-22330179D02*
X6990270Y-22320655D01*
X7047413Y-22349227D02*
X7171222Y-22349227D01*
X7171222Y-22349227D02*
X7104556Y-22425417D01*
X7104556Y-22425417D02*
X7133127Y-22425417D01*
X7133127Y-22425417D02*
X7152175Y-22434941D01*
X7152175Y-22434941D02*
X7161699Y-22444465D01*
X7161699Y-22444465D02*
X7171222Y-22463513D01*
X7171222Y-22463513D02*
X7171222Y-22511132D01*
X7171222Y-22511132D02*
X7161699Y-22530179D01*
X7161699Y-22530179D02*
X7152175Y-22539703D01*
X7152175Y-22539703D02*
X7133127Y-22549227D01*
X7133127Y-22549227D02*
X7075984Y-22549227D01*
X7075984Y-22549227D02*
X7056937Y-22539703D01*
X7056937Y-22539703D02*
X7047413Y-22530179D01*
X7237889Y-22349227D02*
X7361699Y-22349227D01*
X7361699Y-22349227D02*
X7295032Y-22425417D01*
X7295032Y-22425417D02*
X7323603Y-22425417D01*
X7323603Y-22425417D02*
X7342651Y-22434941D01*
X7342651Y-22434941D02*
X7352175Y-22444465D01*
X7352175Y-22444465D02*
X7361699Y-22463513D01*
X7361699Y-22463513D02*
X7361699Y-22511132D01*
X7361699Y-22511132D02*
X7352175Y-22530179D01*
X7352175Y-22530179D02*
X7342651Y-22539703D01*
X7342651Y-22539703D02*
X7323603Y-22549227D01*
X7323603Y-22549227D02*
X7266460Y-22549227D01*
X7266460Y-22549227D02*
X7247413Y-22539703D01*
X7247413Y-22539703D02*
X7237889Y-22530179D01*
X7599794Y-22549227D02*
X7599794Y-22349227D01*
X7685508Y-22549227D02*
X7685508Y-22444465D01*
X7685508Y-22444465D02*
X7675984Y-22425417D01*
X7675984Y-22425417D02*
X7656937Y-22415893D01*
X7656937Y-22415893D02*
X7628365Y-22415893D01*
X7628365Y-22415893D02*
X7609318Y-22425417D01*
X7609318Y-22425417D02*
X7599794Y-22434941D01*
X7809318Y-22549227D02*
X7790270Y-22539703D01*
X7790270Y-22539703D02*
X7780746Y-22530179D01*
X7780746Y-22530179D02*
X7771222Y-22511132D01*
X7771222Y-22511132D02*
X7771222Y-22453989D01*
X7771222Y-22453989D02*
X7780746Y-22434941D01*
X7780746Y-22434941D02*
X7790270Y-22425417D01*
X7790270Y-22425417D02*
X7809318Y-22415893D01*
X7809318Y-22415893D02*
X7837889Y-22415893D01*
X7837889Y-22415893D02*
X7856937Y-22425417D01*
X7856937Y-22425417D02*
X7866461Y-22434941D01*
X7866461Y-22434941D02*
X7875984Y-22453989D01*
X7875984Y-22453989D02*
X7875984Y-22511132D01*
X7875984Y-22511132D02*
X7866461Y-22530179D01*
X7866461Y-22530179D02*
X7856937Y-22539703D01*
X7856937Y-22539703D02*
X7837889Y-22549227D01*
X7837889Y-22549227D02*
X7809318Y-22549227D01*
X7990270Y-22549227D02*
X7971222Y-22539703D01*
X7971222Y-22539703D02*
X7961699Y-22520655D01*
X7961699Y-22520655D02*
X7961699Y-22349227D01*
X8142651Y-22539703D02*
X8123603Y-22549227D01*
X8123603Y-22549227D02*
X8085508Y-22549227D01*
X8085508Y-22549227D02*
X8066461Y-22539703D01*
X8066461Y-22539703D02*
X8056937Y-22520655D01*
X8056937Y-22520655D02*
X8056937Y-22444465D01*
X8056937Y-22444465D02*
X8066461Y-22425417D01*
X8066461Y-22425417D02*
X8085508Y-22415893D01*
X8085508Y-22415893D02*
X8123603Y-22415893D01*
X8123603Y-22415893D02*
X8142651Y-22425417D01*
X8142651Y-22425417D02*
X8152175Y-22444465D01*
X8152175Y-22444465D02*
X8152175Y-22463513D01*
X8152175Y-22463513D02*
X8056937Y-22482560D01*
X8228365Y-22539703D02*
X8247413Y-22549227D01*
X8247413Y-22549227D02*
X8285508Y-22549227D01*
X8285508Y-22549227D02*
X8304556Y-22539703D01*
X8304556Y-22539703D02*
X8314080Y-22520655D01*
X8314080Y-22520655D02*
X8314080Y-22511132D01*
X8314080Y-22511132D02*
X8304556Y-22492084D01*
X8304556Y-22492084D02*
X8285508Y-22482560D01*
X8285508Y-22482560D02*
X8256937Y-22482560D01*
X8256937Y-22482560D02*
X8237889Y-22473036D01*
X8237889Y-22473036D02*
X8228365Y-22453989D01*
X8228365Y-22453989D02*
X8228365Y-22444465D01*
X8228365Y-22444465D02*
X8237889Y-22425417D01*
X8237889Y-22425417D02*
X8256937Y-22415893D01*
X8256937Y-22415893D02*
X8285508Y-22415893D01*
X8285508Y-22415893D02*
X8304556Y-22425417D01*
X8380746Y-22625417D02*
X8390270Y-22615893D01*
X8390270Y-22615893D02*
X8409318Y-22587322D01*
X8409318Y-22587322D02*
X8418842Y-22568274D01*
X8418842Y-22568274D02*
X8428365Y-22539703D01*
X8428365Y-22539703D02*
X8437889Y-22492084D01*
X8437889Y-22492084D02*
X8437889Y-22453989D01*
X8437889Y-22453989D02*
X8428365Y-22406370D01*
X8428365Y-22406370D02*
X8418842Y-22377798D01*
X8418842Y-22377798D02*
X8409318Y-22358751D01*
X8409318Y-22358751D02*
X8390270Y-22330179D01*
X8390270Y-22330179D02*
X8380746Y-22320655D01*
D13*
X3415207Y-22721743D02*
G75*
G03*
X3415207Y-22721743I-30000J0D01*
G01*
D11*
X3714079Y-22613227D02*
X3733127Y-22613227D01*
X3733127Y-22613227D02*
X3752174Y-22622751D01*
X3752174Y-22622751D02*
X3761698Y-22632274D01*
X3761698Y-22632274D02*
X3771222Y-22651322D01*
X3771222Y-22651322D02*
X3780746Y-22689417D01*
X3780746Y-22689417D02*
X3780746Y-22737036D01*
X3780746Y-22737036D02*
X3771222Y-22775132D01*
X3771222Y-22775132D02*
X3761698Y-22794179D01*
X3761698Y-22794179D02*
X3752174Y-22803703D01*
X3752174Y-22803703D02*
X3733127Y-22813227D01*
X3733127Y-22813227D02*
X3714079Y-22813227D01*
X3714079Y-22813227D02*
X3695032Y-22803703D01*
X3695032Y-22803703D02*
X3685508Y-22794179D01*
X3685508Y-22794179D02*
X3675984Y-22775132D01*
X3675984Y-22775132D02*
X3666460Y-22737036D01*
X3666460Y-22737036D02*
X3666460Y-22689417D01*
X3666460Y-22689417D02*
X3675984Y-22651322D01*
X3675984Y-22651322D02*
X3685508Y-22632274D01*
X3685508Y-22632274D02*
X3695032Y-22622751D01*
X3695032Y-22622751D02*
X3714079Y-22613227D01*
X3866460Y-22794179D02*
X3875984Y-22803703D01*
X3875984Y-22803703D02*
X3866460Y-22813227D01*
X3866460Y-22813227D02*
X3856936Y-22803703D01*
X3856936Y-22803703D02*
X3866460Y-22794179D01*
X3866460Y-22794179D02*
X3866460Y-22813227D01*
X4047413Y-22613227D02*
X4009317Y-22613227D01*
X4009317Y-22613227D02*
X3990270Y-22622751D01*
X3990270Y-22622751D02*
X3980746Y-22632274D01*
X3980746Y-22632274D02*
X3961698Y-22660846D01*
X3961698Y-22660846D02*
X3952174Y-22698941D01*
X3952174Y-22698941D02*
X3952174Y-22775132D01*
X3952174Y-22775132D02*
X3961698Y-22794179D01*
X3961698Y-22794179D02*
X3971222Y-22803703D01*
X3971222Y-22803703D02*
X3990270Y-22813227D01*
X3990270Y-22813227D02*
X4028365Y-22813227D01*
X4028365Y-22813227D02*
X4047413Y-22803703D01*
X4047413Y-22803703D02*
X4056936Y-22794179D01*
X4056936Y-22794179D02*
X4066460Y-22775132D01*
X4066460Y-22775132D02*
X4066460Y-22727513D01*
X4066460Y-22727513D02*
X4056936Y-22708465D01*
X4056936Y-22708465D02*
X4047413Y-22698941D01*
X4047413Y-22698941D02*
X4028365Y-22689417D01*
X4028365Y-22689417D02*
X3990270Y-22689417D01*
X3990270Y-22689417D02*
X3971222Y-22698941D01*
X3971222Y-22698941D02*
X3961698Y-22708465D01*
X3961698Y-22708465D02*
X3952174Y-22727513D01*
X4190270Y-22613227D02*
X4209317Y-22613227D01*
X4209317Y-22613227D02*
X4228365Y-22622751D01*
X4228365Y-22622751D02*
X4237889Y-22632274D01*
X4237889Y-22632274D02*
X4247413Y-22651322D01*
X4247413Y-22651322D02*
X4256936Y-22689417D01*
X4256936Y-22689417D02*
X4256936Y-22737036D01*
X4256936Y-22737036D02*
X4247413Y-22775132D01*
X4247413Y-22775132D02*
X4237889Y-22794179D01*
X4237889Y-22794179D02*
X4228365Y-22803703D01*
X4228365Y-22803703D02*
X4209317Y-22813227D01*
X4209317Y-22813227D02*
X4190270Y-22813227D01*
X4190270Y-22813227D02*
X4171222Y-22803703D01*
X4171222Y-22803703D02*
X4161698Y-22794179D01*
X4161698Y-22794179D02*
X4152174Y-22775132D01*
X4152174Y-22775132D02*
X4142651Y-22737036D01*
X4142651Y-22737036D02*
X4142651Y-22689417D01*
X4142651Y-22689417D02*
X4152174Y-22651322D01*
X4152174Y-22651322D02*
X4161698Y-22632274D01*
X4161698Y-22632274D02*
X4171222Y-22622751D01*
X4171222Y-22622751D02*
X4190270Y-22613227D01*
X4380746Y-22613227D02*
X4399794Y-22613227D01*
X4399794Y-22613227D02*
X4418841Y-22622751D01*
X4418841Y-22622751D02*
X4428365Y-22632274D01*
X4428365Y-22632274D02*
X4437889Y-22651322D01*
X4437889Y-22651322D02*
X4447413Y-22689417D01*
X4447413Y-22689417D02*
X4447413Y-22737036D01*
X4447413Y-22737036D02*
X4437889Y-22775132D01*
X4437889Y-22775132D02*
X4428365Y-22794179D01*
X4428365Y-22794179D02*
X4418841Y-22803703D01*
X4418841Y-22803703D02*
X4399794Y-22813227D01*
X4399794Y-22813227D02*
X4380746Y-22813227D01*
X4380746Y-22813227D02*
X4361698Y-22803703D01*
X4361698Y-22803703D02*
X4352175Y-22794179D01*
X4352175Y-22794179D02*
X4342651Y-22775132D01*
X4342651Y-22775132D02*
X4333127Y-22737036D01*
X4333127Y-22737036D02*
X4333127Y-22689417D01*
X4333127Y-22689417D02*
X4342651Y-22651322D01*
X4342651Y-22651322D02*
X4352175Y-22632274D01*
X4352175Y-22632274D02*
X4361698Y-22622751D01*
X4361698Y-22622751D02*
X4380746Y-22613227D01*
X4533127Y-22813227D02*
X4533127Y-22679893D01*
X4533127Y-22698941D02*
X4542651Y-22689417D01*
X4542651Y-22689417D02*
X4561698Y-22679893D01*
X4561698Y-22679893D02*
X4590270Y-22679893D01*
X4590270Y-22679893D02*
X4609317Y-22689417D01*
X4609317Y-22689417D02*
X4618841Y-22708465D01*
X4618841Y-22708465D02*
X4618841Y-22813227D01*
X4618841Y-22708465D02*
X4628365Y-22689417D01*
X4628365Y-22689417D02*
X4647413Y-22679893D01*
X4647413Y-22679893D02*
X4675984Y-22679893D01*
X4675984Y-22679893D02*
X4695032Y-22689417D01*
X4695032Y-22689417D02*
X4704556Y-22708465D01*
X4704556Y-22708465D02*
X4704556Y-22813227D01*
X4799794Y-22813227D02*
X4799794Y-22679893D01*
X4799794Y-22698941D02*
X4809317Y-22689417D01*
X4809317Y-22689417D02*
X4828365Y-22679893D01*
X4828365Y-22679893D02*
X4856937Y-22679893D01*
X4856937Y-22679893D02*
X4875984Y-22689417D01*
X4875984Y-22689417D02*
X4885508Y-22708465D01*
X4885508Y-22708465D02*
X4885508Y-22813227D01*
X4885508Y-22708465D02*
X4895032Y-22689417D01*
X4895032Y-22689417D02*
X4914079Y-22679893D01*
X4914079Y-22679893D02*
X4942651Y-22679893D01*
X4942651Y-22679893D02*
X4961698Y-22689417D01*
X4961698Y-22689417D02*
X4971222Y-22708465D01*
X4971222Y-22708465D02*
X4971222Y-22813227D01*
X5361698Y-22603703D02*
X5190270Y-22860846D01*
X5618841Y-22613227D02*
X5637889Y-22613227D01*
X5637889Y-22613227D02*
X5656937Y-22622751D01*
X5656937Y-22622751D02*
X5666460Y-22632274D01*
X5666460Y-22632274D02*
X5675984Y-22651322D01*
X5675984Y-22651322D02*
X5685508Y-22689417D01*
X5685508Y-22689417D02*
X5685508Y-22737036D01*
X5685508Y-22737036D02*
X5675984Y-22775132D01*
X5675984Y-22775132D02*
X5666460Y-22794179D01*
X5666460Y-22794179D02*
X5656937Y-22803703D01*
X5656937Y-22803703D02*
X5637889Y-22813227D01*
X5637889Y-22813227D02*
X5618841Y-22813227D01*
X5618841Y-22813227D02*
X5599794Y-22803703D01*
X5599794Y-22803703D02*
X5590270Y-22794179D01*
X5590270Y-22794179D02*
X5580746Y-22775132D01*
X5580746Y-22775132D02*
X5571222Y-22737036D01*
X5571222Y-22737036D02*
X5571222Y-22689417D01*
X5571222Y-22689417D02*
X5580746Y-22651322D01*
X5580746Y-22651322D02*
X5590270Y-22632274D01*
X5590270Y-22632274D02*
X5599794Y-22622751D01*
X5599794Y-22622751D02*
X5618841Y-22613227D01*
X5771222Y-22794179D02*
X5780746Y-22803703D01*
X5780746Y-22803703D02*
X5771222Y-22813227D01*
X5771222Y-22813227D02*
X5761698Y-22803703D01*
X5761698Y-22803703D02*
X5771222Y-22794179D01*
X5771222Y-22794179D02*
X5771222Y-22813227D01*
X5904556Y-22613227D02*
X5923603Y-22613227D01*
X5923603Y-22613227D02*
X5942651Y-22622751D01*
X5942651Y-22622751D02*
X5952175Y-22632274D01*
X5952175Y-22632274D02*
X5961698Y-22651322D01*
X5961698Y-22651322D02*
X5971222Y-22689417D01*
X5971222Y-22689417D02*
X5971222Y-22737036D01*
X5971222Y-22737036D02*
X5961698Y-22775132D01*
X5961698Y-22775132D02*
X5952175Y-22794179D01*
X5952175Y-22794179D02*
X5942651Y-22803703D01*
X5942651Y-22803703D02*
X5923603Y-22813227D01*
X5923603Y-22813227D02*
X5904556Y-22813227D01*
X5904556Y-22813227D02*
X5885508Y-22803703D01*
X5885508Y-22803703D02*
X5875984Y-22794179D01*
X5875984Y-22794179D02*
X5866460Y-22775132D01*
X5866460Y-22775132D02*
X5856937Y-22737036D01*
X5856937Y-22737036D02*
X5856937Y-22689417D01*
X5856937Y-22689417D02*
X5866460Y-22651322D01*
X5866460Y-22651322D02*
X5875984Y-22632274D01*
X5875984Y-22632274D02*
X5885508Y-22622751D01*
X5885508Y-22622751D02*
X5904556Y-22613227D01*
X6047413Y-22632274D02*
X6056937Y-22622751D01*
X6056937Y-22622751D02*
X6075984Y-22613227D01*
X6075984Y-22613227D02*
X6123603Y-22613227D01*
X6123603Y-22613227D02*
X6142651Y-22622751D01*
X6142651Y-22622751D02*
X6152175Y-22632274D01*
X6152175Y-22632274D02*
X6161698Y-22651322D01*
X6161698Y-22651322D02*
X6161698Y-22670370D01*
X6161698Y-22670370D02*
X6152175Y-22698941D01*
X6152175Y-22698941D02*
X6037889Y-22813227D01*
X6037889Y-22813227D02*
X6161698Y-22813227D01*
X6228365Y-22613227D02*
X6352175Y-22613227D01*
X6352175Y-22613227D02*
X6285508Y-22689417D01*
X6285508Y-22689417D02*
X6314079Y-22689417D01*
X6314079Y-22689417D02*
X6333127Y-22698941D01*
X6333127Y-22698941D02*
X6342651Y-22708465D01*
X6342651Y-22708465D02*
X6352175Y-22727513D01*
X6352175Y-22727513D02*
X6352175Y-22775132D01*
X6352175Y-22775132D02*
X6342651Y-22794179D01*
X6342651Y-22794179D02*
X6333127Y-22803703D01*
X6333127Y-22803703D02*
X6314079Y-22813227D01*
X6314079Y-22813227D02*
X6256937Y-22813227D01*
X6256937Y-22813227D02*
X6237889Y-22803703D01*
X6237889Y-22803703D02*
X6228365Y-22794179D01*
X6523603Y-22613227D02*
X6485508Y-22613227D01*
X6485508Y-22613227D02*
X6466460Y-22622751D01*
X6466460Y-22622751D02*
X6456937Y-22632274D01*
X6456937Y-22632274D02*
X6437889Y-22660846D01*
X6437889Y-22660846D02*
X6428365Y-22698941D01*
X6428365Y-22698941D02*
X6428365Y-22775132D01*
X6428365Y-22775132D02*
X6437889Y-22794179D01*
X6437889Y-22794179D02*
X6447413Y-22803703D01*
X6447413Y-22803703D02*
X6466460Y-22813227D01*
X6466460Y-22813227D02*
X6504556Y-22813227D01*
X6504556Y-22813227D02*
X6523603Y-22803703D01*
X6523603Y-22803703D02*
X6533127Y-22794179D01*
X6533127Y-22794179D02*
X6542651Y-22775132D01*
X6542651Y-22775132D02*
X6542651Y-22727513D01*
X6542651Y-22727513D02*
X6533127Y-22708465D01*
X6533127Y-22708465D02*
X6523603Y-22698941D01*
X6523603Y-22698941D02*
X6504556Y-22689417D01*
X6504556Y-22689417D02*
X6466460Y-22689417D01*
X6466460Y-22689417D02*
X6447413Y-22698941D01*
X6447413Y-22698941D02*
X6437889Y-22708465D01*
X6437889Y-22708465D02*
X6428365Y-22727513D01*
X6618841Y-22613227D02*
X6618841Y-22651322D01*
X6695032Y-22613227D02*
X6695032Y-22651322D01*
X6990270Y-22889417D02*
X6980746Y-22879893D01*
X6980746Y-22879893D02*
X6961699Y-22851322D01*
X6961699Y-22851322D02*
X6952175Y-22832274D01*
X6952175Y-22832274D02*
X6942651Y-22803703D01*
X6942651Y-22803703D02*
X6933127Y-22756084D01*
X6933127Y-22756084D02*
X6933127Y-22717989D01*
X6933127Y-22717989D02*
X6942651Y-22670370D01*
X6942651Y-22670370D02*
X6952175Y-22641798D01*
X6952175Y-22641798D02*
X6961699Y-22622751D01*
X6961699Y-22622751D02*
X6980746Y-22594179D01*
X6980746Y-22594179D02*
X6990270Y-22584655D01*
X7104556Y-22613227D02*
X7123603Y-22613227D01*
X7123603Y-22613227D02*
X7142651Y-22622751D01*
X7142651Y-22622751D02*
X7152175Y-22632274D01*
X7152175Y-22632274D02*
X7161699Y-22651322D01*
X7161699Y-22651322D02*
X7171222Y-22689417D01*
X7171222Y-22689417D02*
X7171222Y-22737036D01*
X7171222Y-22737036D02*
X7161699Y-22775132D01*
X7161699Y-22775132D02*
X7152175Y-22794179D01*
X7152175Y-22794179D02*
X7142651Y-22803703D01*
X7142651Y-22803703D02*
X7123603Y-22813227D01*
X7123603Y-22813227D02*
X7104556Y-22813227D01*
X7104556Y-22813227D02*
X7085508Y-22803703D01*
X7085508Y-22803703D02*
X7075984Y-22794179D01*
X7075984Y-22794179D02*
X7066460Y-22775132D01*
X7066460Y-22775132D02*
X7056937Y-22737036D01*
X7056937Y-22737036D02*
X7056937Y-22689417D01*
X7056937Y-22689417D02*
X7066460Y-22651322D01*
X7066460Y-22651322D02*
X7075984Y-22632274D01*
X7075984Y-22632274D02*
X7085508Y-22622751D01*
X7085508Y-22622751D02*
X7104556Y-22613227D01*
X7409318Y-22813227D02*
X7409318Y-22613227D01*
X7495032Y-22813227D02*
X7495032Y-22708465D01*
X7495032Y-22708465D02*
X7485508Y-22689417D01*
X7485508Y-22689417D02*
X7466461Y-22679893D01*
X7466461Y-22679893D02*
X7437889Y-22679893D01*
X7437889Y-22679893D02*
X7418841Y-22689417D01*
X7418841Y-22689417D02*
X7409318Y-22698941D01*
X7618841Y-22813227D02*
X7599794Y-22803703D01*
X7599794Y-22803703D02*
X7590270Y-22794179D01*
X7590270Y-22794179D02*
X7580746Y-22775132D01*
X7580746Y-22775132D02*
X7580746Y-22717989D01*
X7580746Y-22717989D02*
X7590270Y-22698941D01*
X7590270Y-22698941D02*
X7599794Y-22689417D01*
X7599794Y-22689417D02*
X7618841Y-22679893D01*
X7618841Y-22679893D02*
X7647413Y-22679893D01*
X7647413Y-22679893D02*
X7666461Y-22689417D01*
X7666461Y-22689417D02*
X7675984Y-22698941D01*
X7675984Y-22698941D02*
X7685508Y-22717989D01*
X7685508Y-22717989D02*
X7685508Y-22775132D01*
X7685508Y-22775132D02*
X7675984Y-22794179D01*
X7675984Y-22794179D02*
X7666461Y-22803703D01*
X7666461Y-22803703D02*
X7647413Y-22813227D01*
X7647413Y-22813227D02*
X7618841Y-22813227D01*
X7799794Y-22813227D02*
X7780746Y-22803703D01*
X7780746Y-22803703D02*
X7771222Y-22784655D01*
X7771222Y-22784655D02*
X7771222Y-22613227D01*
X7952175Y-22803703D02*
X7933127Y-22813227D01*
X7933127Y-22813227D02*
X7895032Y-22813227D01*
X7895032Y-22813227D02*
X7875984Y-22803703D01*
X7875984Y-22803703D02*
X7866461Y-22784655D01*
X7866461Y-22784655D02*
X7866461Y-22708465D01*
X7866461Y-22708465D02*
X7875984Y-22689417D01*
X7875984Y-22689417D02*
X7895032Y-22679893D01*
X7895032Y-22679893D02*
X7933127Y-22679893D01*
X7933127Y-22679893D02*
X7952175Y-22689417D01*
X7952175Y-22689417D02*
X7961699Y-22708465D01*
X7961699Y-22708465D02*
X7961699Y-22727513D01*
X7961699Y-22727513D02*
X7866461Y-22746560D01*
X8037889Y-22803703D02*
X8056937Y-22813227D01*
X8056937Y-22813227D02*
X8095032Y-22813227D01*
X8095032Y-22813227D02*
X8114080Y-22803703D01*
X8114080Y-22803703D02*
X8123603Y-22784655D01*
X8123603Y-22784655D02*
X8123603Y-22775132D01*
X8123603Y-22775132D02*
X8114080Y-22756084D01*
X8114080Y-22756084D02*
X8095032Y-22746560D01*
X8095032Y-22746560D02*
X8066461Y-22746560D01*
X8066461Y-22746560D02*
X8047413Y-22737036D01*
X8047413Y-22737036D02*
X8037889Y-22717989D01*
X8037889Y-22717989D02*
X8037889Y-22708465D01*
X8037889Y-22708465D02*
X8047413Y-22689417D01*
X8047413Y-22689417D02*
X8066461Y-22679893D01*
X8066461Y-22679893D02*
X8095032Y-22679893D01*
X8095032Y-22679893D02*
X8114080Y-22689417D01*
X8361699Y-22737036D02*
X8514080Y-22737036D01*
X8437889Y-22813227D02*
X8437889Y-22660846D01*
X8847413Y-22679893D02*
X8847413Y-22813227D01*
X8799794Y-22603703D02*
X8752175Y-22746560D01*
X8752175Y-22746560D02*
X8875985Y-22746560D01*
X9095032Y-22803703D02*
X9114080Y-22813227D01*
X9114080Y-22813227D02*
X9152175Y-22813227D01*
X9152175Y-22813227D02*
X9171223Y-22803703D01*
X9171223Y-22803703D02*
X9180747Y-22784655D01*
X9180747Y-22784655D02*
X9180747Y-22775132D01*
X9180747Y-22775132D02*
X9171223Y-22756084D01*
X9171223Y-22756084D02*
X9152175Y-22746560D01*
X9152175Y-22746560D02*
X9123604Y-22746560D01*
X9123604Y-22746560D02*
X9104556Y-22737036D01*
X9104556Y-22737036D02*
X9095032Y-22717989D01*
X9095032Y-22717989D02*
X9095032Y-22708465D01*
X9095032Y-22708465D02*
X9104556Y-22689417D01*
X9104556Y-22689417D02*
X9123604Y-22679893D01*
X9123604Y-22679893D02*
X9152175Y-22679893D01*
X9152175Y-22679893D02*
X9171223Y-22689417D01*
X9295032Y-22813227D02*
X9275985Y-22803703D01*
X9275985Y-22803703D02*
X9266461Y-22784655D01*
X9266461Y-22784655D02*
X9266461Y-22613227D01*
X9399794Y-22813227D02*
X9380747Y-22803703D01*
X9380747Y-22803703D02*
X9371223Y-22794179D01*
X9371223Y-22794179D02*
X9361699Y-22775132D01*
X9361699Y-22775132D02*
X9361699Y-22717989D01*
X9361699Y-22717989D02*
X9371223Y-22698941D01*
X9371223Y-22698941D02*
X9380747Y-22689417D01*
X9380747Y-22689417D02*
X9399794Y-22679893D01*
X9399794Y-22679893D02*
X9428366Y-22679893D01*
X9428366Y-22679893D02*
X9447413Y-22689417D01*
X9447413Y-22689417D02*
X9456937Y-22698941D01*
X9456937Y-22698941D02*
X9466461Y-22717989D01*
X9466461Y-22717989D02*
X9466461Y-22775132D01*
X9466461Y-22775132D02*
X9456937Y-22794179D01*
X9456937Y-22794179D02*
X9447413Y-22803703D01*
X9447413Y-22803703D02*
X9428366Y-22813227D01*
X9428366Y-22813227D02*
X9399794Y-22813227D01*
X9523604Y-22679893D02*
X9599794Y-22679893D01*
X9552175Y-22613227D02*
X9552175Y-22784655D01*
X9552175Y-22784655D02*
X9561699Y-22803703D01*
X9561699Y-22803703D02*
X9580747Y-22813227D01*
X9580747Y-22813227D02*
X9599794Y-22813227D01*
X9656937Y-22803703D02*
X9675985Y-22813227D01*
X9675985Y-22813227D02*
X9714080Y-22813227D01*
X9714080Y-22813227D02*
X9733128Y-22803703D01*
X9733128Y-22803703D02*
X9742651Y-22784655D01*
X9742651Y-22784655D02*
X9742651Y-22775132D01*
X9742651Y-22775132D02*
X9733128Y-22756084D01*
X9733128Y-22756084D02*
X9714080Y-22746560D01*
X9714080Y-22746560D02*
X9685508Y-22746560D01*
X9685508Y-22746560D02*
X9666461Y-22737036D01*
X9666461Y-22737036D02*
X9656937Y-22717989D01*
X9656937Y-22717989D02*
X9656937Y-22708465D01*
X9656937Y-22708465D02*
X9666461Y-22689417D01*
X9666461Y-22689417D02*
X9685508Y-22679893D01*
X9685508Y-22679893D02*
X9714080Y-22679893D01*
X9714080Y-22679893D02*
X9733128Y-22689417D01*
X9809318Y-22889417D02*
X9818842Y-22879893D01*
X9818842Y-22879893D02*
X9837889Y-22851322D01*
X9837889Y-22851322D02*
X9847413Y-22832274D01*
X9847413Y-22832274D02*
X9856937Y-22803703D01*
X9856937Y-22803703D02*
X9866461Y-22756084D01*
X9866461Y-22756084D02*
X9866461Y-22717989D01*
X9866461Y-22717989D02*
X9856937Y-22670370D01*
X9856937Y-22670370D02*
X9847413Y-22641798D01*
X9847413Y-22641798D02*
X9837889Y-22622751D01*
X9837889Y-22622751D02*
X9818842Y-22594179D01*
X9818842Y-22594179D02*
X9809318Y-22584655D01*
D14*
X3380207Y-22950743D02*
X3380207Y-23020743D01*
X3345207Y-22985743D02*
X3415207Y-22985743D01*
D11*
X3714079Y-22877227D02*
X3733127Y-22877227D01*
X3733127Y-22877227D02*
X3752174Y-22886751D01*
X3752174Y-22886751D02*
X3761698Y-22896274D01*
X3761698Y-22896274D02*
X3771222Y-22915322D01*
X3771222Y-22915322D02*
X3780746Y-22953417D01*
X3780746Y-22953417D02*
X3780746Y-23001036D01*
X3780746Y-23001036D02*
X3771222Y-23039132D01*
X3771222Y-23039132D02*
X3761698Y-23058179D01*
X3761698Y-23058179D02*
X3752174Y-23067703D01*
X3752174Y-23067703D02*
X3733127Y-23077227D01*
X3733127Y-23077227D02*
X3714079Y-23077227D01*
X3714079Y-23077227D02*
X3695032Y-23067703D01*
X3695032Y-23067703D02*
X3685508Y-23058179D01*
X3685508Y-23058179D02*
X3675984Y-23039132D01*
X3675984Y-23039132D02*
X3666460Y-23001036D01*
X3666460Y-23001036D02*
X3666460Y-22953417D01*
X3666460Y-22953417D02*
X3675984Y-22915322D01*
X3675984Y-22915322D02*
X3685508Y-22896274D01*
X3685508Y-22896274D02*
X3695032Y-22886751D01*
X3695032Y-22886751D02*
X3714079Y-22877227D01*
X3866460Y-23058179D02*
X3875984Y-23067703D01*
X3875984Y-23067703D02*
X3866460Y-23077227D01*
X3866460Y-23077227D02*
X3856936Y-23067703D01*
X3856936Y-23067703D02*
X3866460Y-23058179D01*
X3866460Y-23058179D02*
X3866460Y-23077227D01*
X3942651Y-22877227D02*
X4075984Y-22877227D01*
X4075984Y-22877227D02*
X3990270Y-23077227D01*
X4190270Y-22877227D02*
X4209317Y-22877227D01*
X4209317Y-22877227D02*
X4228365Y-22886751D01*
X4228365Y-22886751D02*
X4237889Y-22896274D01*
X4237889Y-22896274D02*
X4247413Y-22915322D01*
X4247413Y-22915322D02*
X4256936Y-22953417D01*
X4256936Y-22953417D02*
X4256936Y-23001036D01*
X4256936Y-23001036D02*
X4247413Y-23039132D01*
X4247413Y-23039132D02*
X4237889Y-23058179D01*
X4237889Y-23058179D02*
X4228365Y-23067703D01*
X4228365Y-23067703D02*
X4209317Y-23077227D01*
X4209317Y-23077227D02*
X4190270Y-23077227D01*
X4190270Y-23077227D02*
X4171222Y-23067703D01*
X4171222Y-23067703D02*
X4161698Y-23058179D01*
X4161698Y-23058179D02*
X4152174Y-23039132D01*
X4152174Y-23039132D02*
X4142651Y-23001036D01*
X4142651Y-23001036D02*
X4142651Y-22953417D01*
X4142651Y-22953417D02*
X4152174Y-22915322D01*
X4152174Y-22915322D02*
X4161698Y-22896274D01*
X4161698Y-22896274D02*
X4171222Y-22886751D01*
X4171222Y-22886751D02*
X4190270Y-22877227D01*
X4380746Y-22877227D02*
X4399794Y-22877227D01*
X4399794Y-22877227D02*
X4418841Y-22886751D01*
X4418841Y-22886751D02*
X4428365Y-22896274D01*
X4428365Y-22896274D02*
X4437889Y-22915322D01*
X4437889Y-22915322D02*
X4447413Y-22953417D01*
X4447413Y-22953417D02*
X4447413Y-23001036D01*
X4447413Y-23001036D02*
X4437889Y-23039132D01*
X4437889Y-23039132D02*
X4428365Y-23058179D01*
X4428365Y-23058179D02*
X4418841Y-23067703D01*
X4418841Y-23067703D02*
X4399794Y-23077227D01*
X4399794Y-23077227D02*
X4380746Y-23077227D01*
X4380746Y-23077227D02*
X4361698Y-23067703D01*
X4361698Y-23067703D02*
X4352175Y-23058179D01*
X4352175Y-23058179D02*
X4342651Y-23039132D01*
X4342651Y-23039132D02*
X4333127Y-23001036D01*
X4333127Y-23001036D02*
X4333127Y-22953417D01*
X4333127Y-22953417D02*
X4342651Y-22915322D01*
X4342651Y-22915322D02*
X4352175Y-22896274D01*
X4352175Y-22896274D02*
X4361698Y-22886751D01*
X4361698Y-22886751D02*
X4380746Y-22877227D01*
X4533127Y-23077227D02*
X4533127Y-22943893D01*
X4533127Y-22962941D02*
X4542651Y-22953417D01*
X4542651Y-22953417D02*
X4561698Y-22943893D01*
X4561698Y-22943893D02*
X4590270Y-22943893D01*
X4590270Y-22943893D02*
X4609317Y-22953417D01*
X4609317Y-22953417D02*
X4618841Y-22972465D01*
X4618841Y-22972465D02*
X4618841Y-23077227D01*
X4618841Y-22972465D02*
X4628365Y-22953417D01*
X4628365Y-22953417D02*
X4647413Y-22943893D01*
X4647413Y-22943893D02*
X4675984Y-22943893D01*
X4675984Y-22943893D02*
X4695032Y-22953417D01*
X4695032Y-22953417D02*
X4704556Y-22972465D01*
X4704556Y-22972465D02*
X4704556Y-23077227D01*
X4799794Y-23077227D02*
X4799794Y-22943893D01*
X4799794Y-22962941D02*
X4809317Y-22953417D01*
X4809317Y-22953417D02*
X4828365Y-22943893D01*
X4828365Y-22943893D02*
X4856937Y-22943893D01*
X4856937Y-22943893D02*
X4875984Y-22953417D01*
X4875984Y-22953417D02*
X4885508Y-22972465D01*
X4885508Y-22972465D02*
X4885508Y-23077227D01*
X4885508Y-22972465D02*
X4895032Y-22953417D01*
X4895032Y-22953417D02*
X4914079Y-22943893D01*
X4914079Y-22943893D02*
X4942651Y-22943893D01*
X4942651Y-22943893D02*
X4961698Y-22953417D01*
X4961698Y-22953417D02*
X4971222Y-22972465D01*
X4971222Y-22972465D02*
X4971222Y-23077227D01*
X5361698Y-22867703D02*
X5190270Y-23124846D01*
X5618841Y-22877227D02*
X5637889Y-22877227D01*
X5637889Y-22877227D02*
X5656937Y-22886751D01*
X5656937Y-22886751D02*
X5666460Y-22896274D01*
X5666460Y-22896274D02*
X5675984Y-22915322D01*
X5675984Y-22915322D02*
X5685508Y-22953417D01*
X5685508Y-22953417D02*
X5685508Y-23001036D01*
X5685508Y-23001036D02*
X5675984Y-23039132D01*
X5675984Y-23039132D02*
X5666460Y-23058179D01*
X5666460Y-23058179D02*
X5656937Y-23067703D01*
X5656937Y-23067703D02*
X5637889Y-23077227D01*
X5637889Y-23077227D02*
X5618841Y-23077227D01*
X5618841Y-23077227D02*
X5599794Y-23067703D01*
X5599794Y-23067703D02*
X5590270Y-23058179D01*
X5590270Y-23058179D02*
X5580746Y-23039132D01*
X5580746Y-23039132D02*
X5571222Y-23001036D01*
X5571222Y-23001036D02*
X5571222Y-22953417D01*
X5571222Y-22953417D02*
X5580746Y-22915322D01*
X5580746Y-22915322D02*
X5590270Y-22896274D01*
X5590270Y-22896274D02*
X5599794Y-22886751D01*
X5599794Y-22886751D02*
X5618841Y-22877227D01*
X5771222Y-23058179D02*
X5780746Y-23067703D01*
X5780746Y-23067703D02*
X5771222Y-23077227D01*
X5771222Y-23077227D02*
X5761698Y-23067703D01*
X5761698Y-23067703D02*
X5771222Y-23058179D01*
X5771222Y-23058179D02*
X5771222Y-23077227D01*
X5904556Y-22877227D02*
X5923603Y-22877227D01*
X5923603Y-22877227D02*
X5942651Y-22886751D01*
X5942651Y-22886751D02*
X5952175Y-22896274D01*
X5952175Y-22896274D02*
X5961698Y-22915322D01*
X5961698Y-22915322D02*
X5971222Y-22953417D01*
X5971222Y-22953417D02*
X5971222Y-23001036D01*
X5971222Y-23001036D02*
X5961698Y-23039132D01*
X5961698Y-23039132D02*
X5952175Y-23058179D01*
X5952175Y-23058179D02*
X5942651Y-23067703D01*
X5942651Y-23067703D02*
X5923603Y-23077227D01*
X5923603Y-23077227D02*
X5904556Y-23077227D01*
X5904556Y-23077227D02*
X5885508Y-23067703D01*
X5885508Y-23067703D02*
X5875984Y-23058179D01*
X5875984Y-23058179D02*
X5866460Y-23039132D01*
X5866460Y-23039132D02*
X5856937Y-23001036D01*
X5856937Y-23001036D02*
X5856937Y-22953417D01*
X5856937Y-22953417D02*
X5866460Y-22915322D01*
X5866460Y-22915322D02*
X5875984Y-22896274D01*
X5875984Y-22896274D02*
X5885508Y-22886751D01*
X5885508Y-22886751D02*
X5904556Y-22877227D01*
X6047413Y-22896274D02*
X6056937Y-22886751D01*
X6056937Y-22886751D02*
X6075984Y-22877227D01*
X6075984Y-22877227D02*
X6123603Y-22877227D01*
X6123603Y-22877227D02*
X6142651Y-22886751D01*
X6142651Y-22886751D02*
X6152175Y-22896274D01*
X6152175Y-22896274D02*
X6161698Y-22915322D01*
X6161698Y-22915322D02*
X6161698Y-22934370D01*
X6161698Y-22934370D02*
X6152175Y-22962941D01*
X6152175Y-22962941D02*
X6037889Y-23077227D01*
X6037889Y-23077227D02*
X6161698Y-23077227D01*
X6228365Y-22877227D02*
X6361698Y-22877227D01*
X6361698Y-22877227D02*
X6275984Y-23077227D01*
X6523603Y-22877227D02*
X6485508Y-22877227D01*
X6485508Y-22877227D02*
X6466460Y-22886751D01*
X6466460Y-22886751D02*
X6456937Y-22896274D01*
X6456937Y-22896274D02*
X6437889Y-22924846D01*
X6437889Y-22924846D02*
X6428365Y-22962941D01*
X6428365Y-22962941D02*
X6428365Y-23039132D01*
X6428365Y-23039132D02*
X6437889Y-23058179D01*
X6437889Y-23058179D02*
X6447413Y-23067703D01*
X6447413Y-23067703D02*
X6466460Y-23077227D01*
X6466460Y-23077227D02*
X6504556Y-23077227D01*
X6504556Y-23077227D02*
X6523603Y-23067703D01*
X6523603Y-23067703D02*
X6533127Y-23058179D01*
X6533127Y-23058179D02*
X6542651Y-23039132D01*
X6542651Y-23039132D02*
X6542651Y-22991513D01*
X6542651Y-22991513D02*
X6533127Y-22972465D01*
X6533127Y-22972465D02*
X6523603Y-22962941D01*
X6523603Y-22962941D02*
X6504556Y-22953417D01*
X6504556Y-22953417D02*
X6466460Y-22953417D01*
X6466460Y-22953417D02*
X6447413Y-22962941D01*
X6447413Y-22962941D02*
X6437889Y-22972465D01*
X6437889Y-22972465D02*
X6428365Y-22991513D01*
X6618841Y-22877227D02*
X6618841Y-22915322D01*
X6695032Y-22877227D02*
X6695032Y-22915322D01*
X6990270Y-23153417D02*
X6980746Y-23143893D01*
X6980746Y-23143893D02*
X6961699Y-23115322D01*
X6961699Y-23115322D02*
X6952175Y-23096274D01*
X6952175Y-23096274D02*
X6942651Y-23067703D01*
X6942651Y-23067703D02*
X6933127Y-23020084D01*
X6933127Y-23020084D02*
X6933127Y-22981989D01*
X6933127Y-22981989D02*
X6942651Y-22934370D01*
X6942651Y-22934370D02*
X6952175Y-22905798D01*
X6952175Y-22905798D02*
X6961699Y-22886751D01*
X6961699Y-22886751D02*
X6980746Y-22858179D01*
X6980746Y-22858179D02*
X6990270Y-22848655D01*
X7171222Y-23077227D02*
X7056937Y-23077227D01*
X7114079Y-23077227D02*
X7114079Y-22877227D01*
X7114079Y-22877227D02*
X7095032Y-22905798D01*
X7095032Y-22905798D02*
X7075984Y-22924846D01*
X7075984Y-22924846D02*
X7056937Y-22934370D01*
X7247413Y-22896274D02*
X7256937Y-22886751D01*
X7256937Y-22886751D02*
X7275984Y-22877227D01*
X7275984Y-22877227D02*
X7323603Y-22877227D01*
X7323603Y-22877227D02*
X7342651Y-22886751D01*
X7342651Y-22886751D02*
X7352175Y-22896274D01*
X7352175Y-22896274D02*
X7361699Y-22915322D01*
X7361699Y-22915322D02*
X7361699Y-22934370D01*
X7361699Y-22934370D02*
X7352175Y-22962941D01*
X7352175Y-22962941D02*
X7237889Y-23077227D01*
X7237889Y-23077227D02*
X7361699Y-23077227D01*
X7533127Y-22943893D02*
X7533127Y-23077227D01*
X7485508Y-22867703D02*
X7437889Y-23010560D01*
X7437889Y-23010560D02*
X7561699Y-23010560D01*
X7790270Y-23077227D02*
X7790270Y-22877227D01*
X7875984Y-23077227D02*
X7875984Y-22972465D01*
X7875984Y-22972465D02*
X7866461Y-22953417D01*
X7866461Y-22953417D02*
X7847413Y-22943893D01*
X7847413Y-22943893D02*
X7818841Y-22943893D01*
X7818841Y-22943893D02*
X7799794Y-22953417D01*
X7799794Y-22953417D02*
X7790270Y-22962941D01*
X7999794Y-23077227D02*
X7980746Y-23067703D01*
X7980746Y-23067703D02*
X7971222Y-23058179D01*
X7971222Y-23058179D02*
X7961699Y-23039132D01*
X7961699Y-23039132D02*
X7961699Y-22981989D01*
X7961699Y-22981989D02*
X7971222Y-22962941D01*
X7971222Y-22962941D02*
X7980746Y-22953417D01*
X7980746Y-22953417D02*
X7999794Y-22943893D01*
X7999794Y-22943893D02*
X8028365Y-22943893D01*
X8028365Y-22943893D02*
X8047413Y-22953417D01*
X8047413Y-22953417D02*
X8056937Y-22962941D01*
X8056937Y-22962941D02*
X8066461Y-22981989D01*
X8066461Y-22981989D02*
X8066461Y-23039132D01*
X8066461Y-23039132D02*
X8056937Y-23058179D01*
X8056937Y-23058179D02*
X8047413Y-23067703D01*
X8047413Y-23067703D02*
X8028365Y-23077227D01*
X8028365Y-23077227D02*
X7999794Y-23077227D01*
X8180746Y-23077227D02*
X8161699Y-23067703D01*
X8161699Y-23067703D02*
X8152175Y-23048655D01*
X8152175Y-23048655D02*
X8152175Y-22877227D01*
X8333127Y-23067703D02*
X8314080Y-23077227D01*
X8314080Y-23077227D02*
X8275984Y-23077227D01*
X8275984Y-23077227D02*
X8256937Y-23067703D01*
X8256937Y-23067703D02*
X8247413Y-23048655D01*
X8247413Y-23048655D02*
X8247413Y-22972465D01*
X8247413Y-22972465D02*
X8256937Y-22953417D01*
X8256937Y-22953417D02*
X8275984Y-22943893D01*
X8275984Y-22943893D02*
X8314080Y-22943893D01*
X8314080Y-22943893D02*
X8333127Y-22953417D01*
X8333127Y-22953417D02*
X8342651Y-22972465D01*
X8342651Y-22972465D02*
X8342651Y-22991513D01*
X8342651Y-22991513D02*
X8247413Y-23010560D01*
X8418842Y-23067703D02*
X8437889Y-23077227D01*
X8437889Y-23077227D02*
X8475984Y-23077227D01*
X8475984Y-23077227D02*
X8495032Y-23067703D01*
X8495032Y-23067703D02*
X8504556Y-23048655D01*
X8504556Y-23048655D02*
X8504556Y-23039132D01*
X8504556Y-23039132D02*
X8495032Y-23020084D01*
X8495032Y-23020084D02*
X8475984Y-23010560D01*
X8475984Y-23010560D02*
X8447413Y-23010560D01*
X8447413Y-23010560D02*
X8428365Y-23001036D01*
X8428365Y-23001036D02*
X8418842Y-22981989D01*
X8418842Y-22981989D02*
X8418842Y-22972465D01*
X8418842Y-22972465D02*
X8428365Y-22953417D01*
X8428365Y-22953417D02*
X8447413Y-22943893D01*
X8447413Y-22943893D02*
X8475984Y-22943893D01*
X8475984Y-22943893D02*
X8495032Y-22953417D01*
X8571223Y-23153417D02*
X8580746Y-23143893D01*
X8580746Y-23143893D02*
X8599794Y-23115322D01*
X8599794Y-23115322D02*
X8609318Y-23096274D01*
X8609318Y-23096274D02*
X8618842Y-23067703D01*
X8618842Y-23067703D02*
X8628365Y-23020084D01*
X8628365Y-23020084D02*
X8628365Y-22981989D01*
X8628365Y-22981989D02*
X8618842Y-22934370D01*
X8618842Y-22934370D02*
X8609318Y-22905798D01*
X8609318Y-22905798D02*
X8599794Y-22886751D01*
X8599794Y-22886751D02*
X8580746Y-22858179D01*
X8580746Y-22858179D02*
X8571223Y-22848655D01*
D15*
X3402188Y-23281174D02*
X3402188Y-23218312D01*
X3339326Y-23218312D01*
X3339326Y-23281174D01*
X3402188Y-23281174D01*
D11*
X3714079Y-23141227D02*
X3733127Y-23141227D01*
X3733127Y-23141227D02*
X3752174Y-23150751D01*
X3752174Y-23150751D02*
X3761698Y-23160274D01*
X3761698Y-23160274D02*
X3771222Y-23179322D01*
X3771222Y-23179322D02*
X3780746Y-23217417D01*
X3780746Y-23217417D02*
X3780746Y-23265036D01*
X3780746Y-23265036D02*
X3771222Y-23303132D01*
X3771222Y-23303132D02*
X3761698Y-23322179D01*
X3761698Y-23322179D02*
X3752174Y-23331703D01*
X3752174Y-23331703D02*
X3733127Y-23341227D01*
X3733127Y-23341227D02*
X3714079Y-23341227D01*
X3714079Y-23341227D02*
X3695032Y-23331703D01*
X3695032Y-23331703D02*
X3685508Y-23322179D01*
X3685508Y-23322179D02*
X3675984Y-23303132D01*
X3675984Y-23303132D02*
X3666460Y-23265036D01*
X3666460Y-23265036D02*
X3666460Y-23217417D01*
X3666460Y-23217417D02*
X3675984Y-23179322D01*
X3675984Y-23179322D02*
X3685508Y-23160274D01*
X3685508Y-23160274D02*
X3695032Y-23150751D01*
X3695032Y-23150751D02*
X3714079Y-23141227D01*
X3866460Y-23322179D02*
X3875984Y-23331703D01*
X3875984Y-23331703D02*
X3866460Y-23341227D01*
X3866460Y-23341227D02*
X3856936Y-23331703D01*
X3856936Y-23331703D02*
X3866460Y-23322179D01*
X3866460Y-23322179D02*
X3866460Y-23341227D01*
X3990270Y-23226941D02*
X3971222Y-23217417D01*
X3971222Y-23217417D02*
X3961698Y-23207893D01*
X3961698Y-23207893D02*
X3952174Y-23188846D01*
X3952174Y-23188846D02*
X3952174Y-23179322D01*
X3952174Y-23179322D02*
X3961698Y-23160274D01*
X3961698Y-23160274D02*
X3971222Y-23150751D01*
X3971222Y-23150751D02*
X3990270Y-23141227D01*
X3990270Y-23141227D02*
X4028365Y-23141227D01*
X4028365Y-23141227D02*
X4047413Y-23150751D01*
X4047413Y-23150751D02*
X4056936Y-23160274D01*
X4056936Y-23160274D02*
X4066460Y-23179322D01*
X4066460Y-23179322D02*
X4066460Y-23188846D01*
X4066460Y-23188846D02*
X4056936Y-23207893D01*
X4056936Y-23207893D02*
X4047413Y-23217417D01*
X4047413Y-23217417D02*
X4028365Y-23226941D01*
X4028365Y-23226941D02*
X3990270Y-23226941D01*
X3990270Y-23226941D02*
X3971222Y-23236465D01*
X3971222Y-23236465D02*
X3961698Y-23245989D01*
X3961698Y-23245989D02*
X3952174Y-23265036D01*
X3952174Y-23265036D02*
X3952174Y-23303132D01*
X3952174Y-23303132D02*
X3961698Y-23322179D01*
X3961698Y-23322179D02*
X3971222Y-23331703D01*
X3971222Y-23331703D02*
X3990270Y-23341227D01*
X3990270Y-23341227D02*
X4028365Y-23341227D01*
X4028365Y-23341227D02*
X4047413Y-23331703D01*
X4047413Y-23331703D02*
X4056936Y-23322179D01*
X4056936Y-23322179D02*
X4066460Y-23303132D01*
X4066460Y-23303132D02*
X4066460Y-23265036D01*
X4066460Y-23265036D02*
X4056936Y-23245989D01*
X4056936Y-23245989D02*
X4047413Y-23236465D01*
X4047413Y-23236465D02*
X4028365Y-23226941D01*
X4180746Y-23226941D02*
X4161698Y-23217417D01*
X4161698Y-23217417D02*
X4152174Y-23207893D01*
X4152174Y-23207893D02*
X4142651Y-23188846D01*
X4142651Y-23188846D02*
X4142651Y-23179322D01*
X4142651Y-23179322D02*
X4152174Y-23160274D01*
X4152174Y-23160274D02*
X4161698Y-23150751D01*
X4161698Y-23150751D02*
X4180746Y-23141227D01*
X4180746Y-23141227D02*
X4218841Y-23141227D01*
X4218841Y-23141227D02*
X4237889Y-23150751D01*
X4237889Y-23150751D02*
X4247413Y-23160274D01*
X4247413Y-23160274D02*
X4256936Y-23179322D01*
X4256936Y-23179322D02*
X4256936Y-23188846D01*
X4256936Y-23188846D02*
X4247413Y-23207893D01*
X4247413Y-23207893D02*
X4237889Y-23217417D01*
X4237889Y-23217417D02*
X4218841Y-23226941D01*
X4218841Y-23226941D02*
X4180746Y-23226941D01*
X4180746Y-23226941D02*
X4161698Y-23236465D01*
X4161698Y-23236465D02*
X4152174Y-23245989D01*
X4152174Y-23245989D02*
X4142651Y-23265036D01*
X4142651Y-23265036D02*
X4142651Y-23303132D01*
X4142651Y-23303132D02*
X4152174Y-23322179D01*
X4152174Y-23322179D02*
X4161698Y-23331703D01*
X4161698Y-23331703D02*
X4180746Y-23341227D01*
X4180746Y-23341227D02*
X4218841Y-23341227D01*
X4218841Y-23341227D02*
X4237889Y-23331703D01*
X4237889Y-23331703D02*
X4247413Y-23322179D01*
X4247413Y-23322179D02*
X4256936Y-23303132D01*
X4256936Y-23303132D02*
X4256936Y-23265036D01*
X4256936Y-23265036D02*
X4247413Y-23245989D01*
X4247413Y-23245989D02*
X4237889Y-23236465D01*
X4237889Y-23236465D02*
X4218841Y-23226941D01*
X4352175Y-23341227D02*
X4390270Y-23341227D01*
X4390270Y-23341227D02*
X4409317Y-23331703D01*
X4409317Y-23331703D02*
X4418841Y-23322179D01*
X4418841Y-23322179D02*
X4437889Y-23293608D01*
X4437889Y-23293608D02*
X4447413Y-23255513D01*
X4447413Y-23255513D02*
X4447413Y-23179322D01*
X4447413Y-23179322D02*
X4437889Y-23160274D01*
X4437889Y-23160274D02*
X4428365Y-23150751D01*
X4428365Y-23150751D02*
X4409317Y-23141227D01*
X4409317Y-23141227D02*
X4371222Y-23141227D01*
X4371222Y-23141227D02*
X4352175Y-23150751D01*
X4352175Y-23150751D02*
X4342651Y-23160274D01*
X4342651Y-23160274D02*
X4333127Y-23179322D01*
X4333127Y-23179322D02*
X4333127Y-23226941D01*
X4333127Y-23226941D02*
X4342651Y-23245989D01*
X4342651Y-23245989D02*
X4352175Y-23255513D01*
X4352175Y-23255513D02*
X4371222Y-23265036D01*
X4371222Y-23265036D02*
X4409317Y-23265036D01*
X4409317Y-23265036D02*
X4428365Y-23255513D01*
X4428365Y-23255513D02*
X4437889Y-23245989D01*
X4437889Y-23245989D02*
X4447413Y-23226941D01*
X4533127Y-23341227D02*
X4533127Y-23207893D01*
X4533127Y-23226941D02*
X4542651Y-23217417D01*
X4542651Y-23217417D02*
X4561698Y-23207893D01*
X4561698Y-23207893D02*
X4590270Y-23207893D01*
X4590270Y-23207893D02*
X4609317Y-23217417D01*
X4609317Y-23217417D02*
X4618841Y-23236465D01*
X4618841Y-23236465D02*
X4618841Y-23341227D01*
X4618841Y-23236465D02*
X4628365Y-23217417D01*
X4628365Y-23217417D02*
X4647413Y-23207893D01*
X4647413Y-23207893D02*
X4675984Y-23207893D01*
X4675984Y-23207893D02*
X4695032Y-23217417D01*
X4695032Y-23217417D02*
X4704556Y-23236465D01*
X4704556Y-23236465D02*
X4704556Y-23341227D01*
X4799794Y-23341227D02*
X4799794Y-23207893D01*
X4799794Y-23226941D02*
X4809317Y-23217417D01*
X4809317Y-23217417D02*
X4828365Y-23207893D01*
X4828365Y-23207893D02*
X4856937Y-23207893D01*
X4856937Y-23207893D02*
X4875984Y-23217417D01*
X4875984Y-23217417D02*
X4885508Y-23236465D01*
X4885508Y-23236465D02*
X4885508Y-23341227D01*
X4885508Y-23236465D02*
X4895032Y-23217417D01*
X4895032Y-23217417D02*
X4914079Y-23207893D01*
X4914079Y-23207893D02*
X4942651Y-23207893D01*
X4942651Y-23207893D02*
X4961698Y-23217417D01*
X4961698Y-23217417D02*
X4971222Y-23236465D01*
X4971222Y-23236465D02*
X4971222Y-23341227D01*
X5361698Y-23131703D02*
X5190270Y-23388846D01*
X5618841Y-23141227D02*
X5637889Y-23141227D01*
X5637889Y-23141227D02*
X5656937Y-23150751D01*
X5656937Y-23150751D02*
X5666460Y-23160274D01*
X5666460Y-23160274D02*
X5675984Y-23179322D01*
X5675984Y-23179322D02*
X5685508Y-23217417D01*
X5685508Y-23217417D02*
X5685508Y-23265036D01*
X5685508Y-23265036D02*
X5675984Y-23303132D01*
X5675984Y-23303132D02*
X5666460Y-23322179D01*
X5666460Y-23322179D02*
X5656937Y-23331703D01*
X5656937Y-23331703D02*
X5637889Y-23341227D01*
X5637889Y-23341227D02*
X5618841Y-23341227D01*
X5618841Y-23341227D02*
X5599794Y-23331703D01*
X5599794Y-23331703D02*
X5590270Y-23322179D01*
X5590270Y-23322179D02*
X5580746Y-23303132D01*
X5580746Y-23303132D02*
X5571222Y-23265036D01*
X5571222Y-23265036D02*
X5571222Y-23217417D01*
X5571222Y-23217417D02*
X5580746Y-23179322D01*
X5580746Y-23179322D02*
X5590270Y-23160274D01*
X5590270Y-23160274D02*
X5599794Y-23150751D01*
X5599794Y-23150751D02*
X5618841Y-23141227D01*
X5771222Y-23322179D02*
X5780746Y-23331703D01*
X5780746Y-23331703D02*
X5771222Y-23341227D01*
X5771222Y-23341227D02*
X5761698Y-23331703D01*
X5761698Y-23331703D02*
X5771222Y-23322179D01*
X5771222Y-23322179D02*
X5771222Y-23341227D01*
X5904556Y-23141227D02*
X5923603Y-23141227D01*
X5923603Y-23141227D02*
X5942651Y-23150751D01*
X5942651Y-23150751D02*
X5952175Y-23160274D01*
X5952175Y-23160274D02*
X5961698Y-23179322D01*
X5961698Y-23179322D02*
X5971222Y-23217417D01*
X5971222Y-23217417D02*
X5971222Y-23265036D01*
X5971222Y-23265036D02*
X5961698Y-23303132D01*
X5961698Y-23303132D02*
X5952175Y-23322179D01*
X5952175Y-23322179D02*
X5942651Y-23331703D01*
X5942651Y-23331703D02*
X5923603Y-23341227D01*
X5923603Y-23341227D02*
X5904556Y-23341227D01*
X5904556Y-23341227D02*
X5885508Y-23331703D01*
X5885508Y-23331703D02*
X5875984Y-23322179D01*
X5875984Y-23322179D02*
X5866460Y-23303132D01*
X5866460Y-23303132D02*
X5856937Y-23265036D01*
X5856937Y-23265036D02*
X5856937Y-23217417D01*
X5856937Y-23217417D02*
X5866460Y-23179322D01*
X5866460Y-23179322D02*
X5875984Y-23160274D01*
X5875984Y-23160274D02*
X5885508Y-23150751D01*
X5885508Y-23150751D02*
X5904556Y-23141227D01*
X6037889Y-23141227D02*
X6161698Y-23141227D01*
X6161698Y-23141227D02*
X6095032Y-23217417D01*
X6095032Y-23217417D02*
X6123603Y-23217417D01*
X6123603Y-23217417D02*
X6142651Y-23226941D01*
X6142651Y-23226941D02*
X6152175Y-23236465D01*
X6152175Y-23236465D02*
X6161698Y-23255513D01*
X6161698Y-23255513D02*
X6161698Y-23303132D01*
X6161698Y-23303132D02*
X6152175Y-23322179D01*
X6152175Y-23322179D02*
X6142651Y-23331703D01*
X6142651Y-23331703D02*
X6123603Y-23341227D01*
X6123603Y-23341227D02*
X6066460Y-23341227D01*
X6066460Y-23341227D02*
X6047413Y-23331703D01*
X6047413Y-23331703D02*
X6037889Y-23322179D01*
X6342651Y-23141227D02*
X6247413Y-23141227D01*
X6247413Y-23141227D02*
X6237889Y-23236465D01*
X6237889Y-23236465D02*
X6247413Y-23226941D01*
X6247413Y-23226941D02*
X6266460Y-23217417D01*
X6266460Y-23217417D02*
X6314079Y-23217417D01*
X6314079Y-23217417D02*
X6333127Y-23226941D01*
X6333127Y-23226941D02*
X6342651Y-23236465D01*
X6342651Y-23236465D02*
X6352175Y-23255513D01*
X6352175Y-23255513D02*
X6352175Y-23303132D01*
X6352175Y-23303132D02*
X6342651Y-23322179D01*
X6342651Y-23322179D02*
X6333127Y-23331703D01*
X6333127Y-23331703D02*
X6314079Y-23341227D01*
X6314079Y-23341227D02*
X6266460Y-23341227D01*
X6266460Y-23341227D02*
X6247413Y-23331703D01*
X6247413Y-23331703D02*
X6237889Y-23322179D01*
X6475984Y-23141227D02*
X6495032Y-23141227D01*
X6495032Y-23141227D02*
X6514079Y-23150751D01*
X6514079Y-23150751D02*
X6523603Y-23160274D01*
X6523603Y-23160274D02*
X6533127Y-23179322D01*
X6533127Y-23179322D02*
X6542651Y-23217417D01*
X6542651Y-23217417D02*
X6542651Y-23265036D01*
X6542651Y-23265036D02*
X6533127Y-23303132D01*
X6533127Y-23303132D02*
X6523603Y-23322179D01*
X6523603Y-23322179D02*
X6514079Y-23331703D01*
X6514079Y-23331703D02*
X6495032Y-23341227D01*
X6495032Y-23341227D02*
X6475984Y-23341227D01*
X6475984Y-23341227D02*
X6456937Y-23331703D01*
X6456937Y-23331703D02*
X6447413Y-23322179D01*
X6447413Y-23322179D02*
X6437889Y-23303132D01*
X6437889Y-23303132D02*
X6428365Y-23265036D01*
X6428365Y-23265036D02*
X6428365Y-23217417D01*
X6428365Y-23217417D02*
X6437889Y-23179322D01*
X6437889Y-23179322D02*
X6447413Y-23160274D01*
X6447413Y-23160274D02*
X6456937Y-23150751D01*
X6456937Y-23150751D02*
X6475984Y-23141227D01*
X6618841Y-23141227D02*
X6618841Y-23179322D01*
X6695032Y-23141227D02*
X6695032Y-23179322D01*
X6990270Y-23417417D02*
X6980746Y-23407893D01*
X6980746Y-23407893D02*
X6961699Y-23379322D01*
X6961699Y-23379322D02*
X6952175Y-23360274D01*
X6952175Y-23360274D02*
X6942651Y-23331703D01*
X6942651Y-23331703D02*
X6933127Y-23284084D01*
X6933127Y-23284084D02*
X6933127Y-23245989D01*
X6933127Y-23245989D02*
X6942651Y-23198370D01*
X6942651Y-23198370D02*
X6952175Y-23169798D01*
X6952175Y-23169798D02*
X6961699Y-23150751D01*
X6961699Y-23150751D02*
X6980746Y-23122179D01*
X6980746Y-23122179D02*
X6990270Y-23112655D01*
X7152175Y-23141227D02*
X7114079Y-23141227D01*
X7114079Y-23141227D02*
X7095032Y-23150751D01*
X7095032Y-23150751D02*
X7085508Y-23160274D01*
X7085508Y-23160274D02*
X7066460Y-23188846D01*
X7066460Y-23188846D02*
X7056937Y-23226941D01*
X7056937Y-23226941D02*
X7056937Y-23303132D01*
X7056937Y-23303132D02*
X7066460Y-23322179D01*
X7066460Y-23322179D02*
X7075984Y-23331703D01*
X7075984Y-23331703D02*
X7095032Y-23341227D01*
X7095032Y-23341227D02*
X7133127Y-23341227D01*
X7133127Y-23341227D02*
X7152175Y-23331703D01*
X7152175Y-23331703D02*
X7161699Y-23322179D01*
X7161699Y-23322179D02*
X7171222Y-23303132D01*
X7171222Y-23303132D02*
X7171222Y-23255513D01*
X7171222Y-23255513D02*
X7161699Y-23236465D01*
X7161699Y-23236465D02*
X7152175Y-23226941D01*
X7152175Y-23226941D02*
X7133127Y-23217417D01*
X7133127Y-23217417D02*
X7095032Y-23217417D01*
X7095032Y-23217417D02*
X7075984Y-23226941D01*
X7075984Y-23226941D02*
X7066460Y-23236465D01*
X7066460Y-23236465D02*
X7056937Y-23255513D01*
X7409318Y-23341227D02*
X7409318Y-23141227D01*
X7495032Y-23341227D02*
X7495032Y-23236465D01*
X7495032Y-23236465D02*
X7485508Y-23217417D01*
X7485508Y-23217417D02*
X7466461Y-23207893D01*
X7466461Y-23207893D02*
X7437889Y-23207893D01*
X7437889Y-23207893D02*
X7418841Y-23217417D01*
X7418841Y-23217417D02*
X7409318Y-23226941D01*
X7618841Y-23341227D02*
X7599794Y-23331703D01*
X7599794Y-23331703D02*
X7590270Y-23322179D01*
X7590270Y-23322179D02*
X7580746Y-23303132D01*
X7580746Y-23303132D02*
X7580746Y-23245989D01*
X7580746Y-23245989D02*
X7590270Y-23226941D01*
X7590270Y-23226941D02*
X7599794Y-23217417D01*
X7599794Y-23217417D02*
X7618841Y-23207893D01*
X7618841Y-23207893D02*
X7647413Y-23207893D01*
X7647413Y-23207893D02*
X7666461Y-23217417D01*
X7666461Y-23217417D02*
X7675984Y-23226941D01*
X7675984Y-23226941D02*
X7685508Y-23245989D01*
X7685508Y-23245989D02*
X7685508Y-23303132D01*
X7685508Y-23303132D02*
X7675984Y-23322179D01*
X7675984Y-23322179D02*
X7666461Y-23331703D01*
X7666461Y-23331703D02*
X7647413Y-23341227D01*
X7647413Y-23341227D02*
X7618841Y-23341227D01*
X7799794Y-23341227D02*
X7780746Y-23331703D01*
X7780746Y-23331703D02*
X7771222Y-23312655D01*
X7771222Y-23312655D02*
X7771222Y-23141227D01*
X7952175Y-23331703D02*
X7933127Y-23341227D01*
X7933127Y-23341227D02*
X7895032Y-23341227D01*
X7895032Y-23341227D02*
X7875984Y-23331703D01*
X7875984Y-23331703D02*
X7866461Y-23312655D01*
X7866461Y-23312655D02*
X7866461Y-23236465D01*
X7866461Y-23236465D02*
X7875984Y-23217417D01*
X7875984Y-23217417D02*
X7895032Y-23207893D01*
X7895032Y-23207893D02*
X7933127Y-23207893D01*
X7933127Y-23207893D02*
X7952175Y-23217417D01*
X7952175Y-23217417D02*
X7961699Y-23236465D01*
X7961699Y-23236465D02*
X7961699Y-23255513D01*
X7961699Y-23255513D02*
X7866461Y-23274560D01*
X8037889Y-23331703D02*
X8056937Y-23341227D01*
X8056937Y-23341227D02*
X8095032Y-23341227D01*
X8095032Y-23341227D02*
X8114080Y-23331703D01*
X8114080Y-23331703D02*
X8123603Y-23312655D01*
X8123603Y-23312655D02*
X8123603Y-23303132D01*
X8123603Y-23303132D02*
X8114080Y-23284084D01*
X8114080Y-23284084D02*
X8095032Y-23274560D01*
X8095032Y-23274560D02*
X8066461Y-23274560D01*
X8066461Y-23274560D02*
X8047413Y-23265036D01*
X8047413Y-23265036D02*
X8037889Y-23245989D01*
X8037889Y-23245989D02*
X8037889Y-23236465D01*
X8037889Y-23236465D02*
X8047413Y-23217417D01*
X8047413Y-23217417D02*
X8066461Y-23207893D01*
X8066461Y-23207893D02*
X8095032Y-23207893D01*
X8095032Y-23207893D02*
X8114080Y-23217417D01*
X8190270Y-23417417D02*
X8199794Y-23407893D01*
X8199794Y-23407893D02*
X8218842Y-23379322D01*
X8218842Y-23379322D02*
X8228365Y-23360274D01*
X8228365Y-23360274D02*
X8237889Y-23331703D01*
X8237889Y-23331703D02*
X8247413Y-23284084D01*
X8247413Y-23284084D02*
X8247413Y-23245989D01*
X8247413Y-23245989D02*
X8237889Y-23198370D01*
X8237889Y-23198370D02*
X8228365Y-23169798D01*
X8228365Y-23169798D02*
X8218842Y-23150751D01*
X8218842Y-23150751D02*
X8199794Y-23122179D01*
X8199794Y-23122179D02*
X8190270Y-23112655D01*
D16*
X3370207Y-23558743D02*
X3415207Y-23513743D01*
X3370207Y-23468743D01*
X3325207Y-23513743D01*
X3370207Y-23558743D01*
D11*
X3714079Y-23405227D02*
X3733127Y-23405227D01*
X3733127Y-23405227D02*
X3752174Y-23414751D01*
X3752174Y-23414751D02*
X3761698Y-23424274D01*
X3761698Y-23424274D02*
X3771222Y-23443322D01*
X3771222Y-23443322D02*
X3780746Y-23481417D01*
X3780746Y-23481417D02*
X3780746Y-23529036D01*
X3780746Y-23529036D02*
X3771222Y-23567132D01*
X3771222Y-23567132D02*
X3761698Y-23586179D01*
X3761698Y-23586179D02*
X3752174Y-23595703D01*
X3752174Y-23595703D02*
X3733127Y-23605227D01*
X3733127Y-23605227D02*
X3714079Y-23605227D01*
X3714079Y-23605227D02*
X3695032Y-23595703D01*
X3695032Y-23595703D02*
X3685508Y-23586179D01*
X3685508Y-23586179D02*
X3675984Y-23567132D01*
X3675984Y-23567132D02*
X3666460Y-23529036D01*
X3666460Y-23529036D02*
X3666460Y-23481417D01*
X3666460Y-23481417D02*
X3675984Y-23443322D01*
X3675984Y-23443322D02*
X3685508Y-23424274D01*
X3685508Y-23424274D02*
X3695032Y-23414751D01*
X3695032Y-23414751D02*
X3714079Y-23405227D01*
X3866460Y-23586179D02*
X3875984Y-23595703D01*
X3875984Y-23595703D02*
X3866460Y-23605227D01*
X3866460Y-23605227D02*
X3856936Y-23595703D01*
X3856936Y-23595703D02*
X3866460Y-23586179D01*
X3866460Y-23586179D02*
X3866460Y-23605227D01*
X3971222Y-23605227D02*
X4009317Y-23605227D01*
X4009317Y-23605227D02*
X4028365Y-23595703D01*
X4028365Y-23595703D02*
X4037889Y-23586179D01*
X4037889Y-23586179D02*
X4056936Y-23557608D01*
X4056936Y-23557608D02*
X4066460Y-23519513D01*
X4066460Y-23519513D02*
X4066460Y-23443322D01*
X4066460Y-23443322D02*
X4056936Y-23424274D01*
X4056936Y-23424274D02*
X4047413Y-23414751D01*
X4047413Y-23414751D02*
X4028365Y-23405227D01*
X4028365Y-23405227D02*
X3990270Y-23405227D01*
X3990270Y-23405227D02*
X3971222Y-23414751D01*
X3971222Y-23414751D02*
X3961698Y-23424274D01*
X3961698Y-23424274D02*
X3952174Y-23443322D01*
X3952174Y-23443322D02*
X3952174Y-23490941D01*
X3952174Y-23490941D02*
X3961698Y-23509989D01*
X3961698Y-23509989D02*
X3971222Y-23519513D01*
X3971222Y-23519513D02*
X3990270Y-23529036D01*
X3990270Y-23529036D02*
X4028365Y-23529036D01*
X4028365Y-23529036D02*
X4047413Y-23519513D01*
X4047413Y-23519513D02*
X4056936Y-23509989D01*
X4056936Y-23509989D02*
X4066460Y-23490941D01*
X4190270Y-23405227D02*
X4209317Y-23405227D01*
X4209317Y-23405227D02*
X4228365Y-23414751D01*
X4228365Y-23414751D02*
X4237889Y-23424274D01*
X4237889Y-23424274D02*
X4247413Y-23443322D01*
X4247413Y-23443322D02*
X4256936Y-23481417D01*
X4256936Y-23481417D02*
X4256936Y-23529036D01*
X4256936Y-23529036D02*
X4247413Y-23567132D01*
X4247413Y-23567132D02*
X4237889Y-23586179D01*
X4237889Y-23586179D02*
X4228365Y-23595703D01*
X4228365Y-23595703D02*
X4209317Y-23605227D01*
X4209317Y-23605227D02*
X4190270Y-23605227D01*
X4190270Y-23605227D02*
X4171222Y-23595703D01*
X4171222Y-23595703D02*
X4161698Y-23586179D01*
X4161698Y-23586179D02*
X4152174Y-23567132D01*
X4152174Y-23567132D02*
X4142651Y-23529036D01*
X4142651Y-23529036D02*
X4142651Y-23481417D01*
X4142651Y-23481417D02*
X4152174Y-23443322D01*
X4152174Y-23443322D02*
X4161698Y-23424274D01*
X4161698Y-23424274D02*
X4171222Y-23414751D01*
X4171222Y-23414751D02*
X4190270Y-23405227D01*
X4380746Y-23405227D02*
X4399794Y-23405227D01*
X4399794Y-23405227D02*
X4418841Y-23414751D01*
X4418841Y-23414751D02*
X4428365Y-23424274D01*
X4428365Y-23424274D02*
X4437889Y-23443322D01*
X4437889Y-23443322D02*
X4447413Y-23481417D01*
X4447413Y-23481417D02*
X4447413Y-23529036D01*
X4447413Y-23529036D02*
X4437889Y-23567132D01*
X4437889Y-23567132D02*
X4428365Y-23586179D01*
X4428365Y-23586179D02*
X4418841Y-23595703D01*
X4418841Y-23595703D02*
X4399794Y-23605227D01*
X4399794Y-23605227D02*
X4380746Y-23605227D01*
X4380746Y-23605227D02*
X4361698Y-23595703D01*
X4361698Y-23595703D02*
X4352175Y-23586179D01*
X4352175Y-23586179D02*
X4342651Y-23567132D01*
X4342651Y-23567132D02*
X4333127Y-23529036D01*
X4333127Y-23529036D02*
X4333127Y-23481417D01*
X4333127Y-23481417D02*
X4342651Y-23443322D01*
X4342651Y-23443322D02*
X4352175Y-23424274D01*
X4352175Y-23424274D02*
X4361698Y-23414751D01*
X4361698Y-23414751D02*
X4380746Y-23405227D01*
X4533127Y-23605227D02*
X4533127Y-23471893D01*
X4533127Y-23490941D02*
X4542651Y-23481417D01*
X4542651Y-23481417D02*
X4561698Y-23471893D01*
X4561698Y-23471893D02*
X4590270Y-23471893D01*
X4590270Y-23471893D02*
X4609317Y-23481417D01*
X4609317Y-23481417D02*
X4618841Y-23500465D01*
X4618841Y-23500465D02*
X4618841Y-23605227D01*
X4618841Y-23500465D02*
X4628365Y-23481417D01*
X4628365Y-23481417D02*
X4647413Y-23471893D01*
X4647413Y-23471893D02*
X4675984Y-23471893D01*
X4675984Y-23471893D02*
X4695032Y-23481417D01*
X4695032Y-23481417D02*
X4704556Y-23500465D01*
X4704556Y-23500465D02*
X4704556Y-23605227D01*
X4799794Y-23605227D02*
X4799794Y-23471893D01*
X4799794Y-23490941D02*
X4809317Y-23481417D01*
X4809317Y-23481417D02*
X4828365Y-23471893D01*
X4828365Y-23471893D02*
X4856937Y-23471893D01*
X4856937Y-23471893D02*
X4875984Y-23481417D01*
X4875984Y-23481417D02*
X4885508Y-23500465D01*
X4885508Y-23500465D02*
X4885508Y-23605227D01*
X4885508Y-23500465D02*
X4895032Y-23481417D01*
X4895032Y-23481417D02*
X4914079Y-23471893D01*
X4914079Y-23471893D02*
X4942651Y-23471893D01*
X4942651Y-23471893D02*
X4961698Y-23481417D01*
X4961698Y-23481417D02*
X4971222Y-23500465D01*
X4971222Y-23500465D02*
X4971222Y-23605227D01*
X5361698Y-23395703D02*
X5190270Y-23652846D01*
X5618841Y-23405227D02*
X5637889Y-23405227D01*
X5637889Y-23405227D02*
X5656937Y-23414751D01*
X5656937Y-23414751D02*
X5666460Y-23424274D01*
X5666460Y-23424274D02*
X5675984Y-23443322D01*
X5675984Y-23443322D02*
X5685508Y-23481417D01*
X5685508Y-23481417D02*
X5685508Y-23529036D01*
X5685508Y-23529036D02*
X5675984Y-23567132D01*
X5675984Y-23567132D02*
X5666460Y-23586179D01*
X5666460Y-23586179D02*
X5656937Y-23595703D01*
X5656937Y-23595703D02*
X5637889Y-23605227D01*
X5637889Y-23605227D02*
X5618841Y-23605227D01*
X5618841Y-23605227D02*
X5599794Y-23595703D01*
X5599794Y-23595703D02*
X5590270Y-23586179D01*
X5590270Y-23586179D02*
X5580746Y-23567132D01*
X5580746Y-23567132D02*
X5571222Y-23529036D01*
X5571222Y-23529036D02*
X5571222Y-23481417D01*
X5571222Y-23481417D02*
X5580746Y-23443322D01*
X5580746Y-23443322D02*
X5590270Y-23424274D01*
X5590270Y-23424274D02*
X5599794Y-23414751D01*
X5599794Y-23414751D02*
X5618841Y-23405227D01*
X5771222Y-23586179D02*
X5780746Y-23595703D01*
X5780746Y-23595703D02*
X5771222Y-23605227D01*
X5771222Y-23605227D02*
X5761698Y-23595703D01*
X5761698Y-23595703D02*
X5771222Y-23586179D01*
X5771222Y-23586179D02*
X5771222Y-23605227D01*
X5904556Y-23405227D02*
X5923603Y-23405227D01*
X5923603Y-23405227D02*
X5942651Y-23414751D01*
X5942651Y-23414751D02*
X5952175Y-23424274D01*
X5952175Y-23424274D02*
X5961698Y-23443322D01*
X5961698Y-23443322D02*
X5971222Y-23481417D01*
X5971222Y-23481417D02*
X5971222Y-23529036D01*
X5971222Y-23529036D02*
X5961698Y-23567132D01*
X5961698Y-23567132D02*
X5952175Y-23586179D01*
X5952175Y-23586179D02*
X5942651Y-23595703D01*
X5942651Y-23595703D02*
X5923603Y-23605227D01*
X5923603Y-23605227D02*
X5904556Y-23605227D01*
X5904556Y-23605227D02*
X5885508Y-23595703D01*
X5885508Y-23595703D02*
X5875984Y-23586179D01*
X5875984Y-23586179D02*
X5866460Y-23567132D01*
X5866460Y-23567132D02*
X5856937Y-23529036D01*
X5856937Y-23529036D02*
X5856937Y-23481417D01*
X5856937Y-23481417D02*
X5866460Y-23443322D01*
X5866460Y-23443322D02*
X5875984Y-23424274D01*
X5875984Y-23424274D02*
X5885508Y-23414751D01*
X5885508Y-23414751D02*
X5904556Y-23405227D01*
X6037889Y-23405227D02*
X6161698Y-23405227D01*
X6161698Y-23405227D02*
X6095032Y-23481417D01*
X6095032Y-23481417D02*
X6123603Y-23481417D01*
X6123603Y-23481417D02*
X6142651Y-23490941D01*
X6142651Y-23490941D02*
X6152175Y-23500465D01*
X6152175Y-23500465D02*
X6161698Y-23519513D01*
X6161698Y-23519513D02*
X6161698Y-23567132D01*
X6161698Y-23567132D02*
X6152175Y-23586179D01*
X6152175Y-23586179D02*
X6142651Y-23595703D01*
X6142651Y-23595703D02*
X6123603Y-23605227D01*
X6123603Y-23605227D02*
X6066460Y-23605227D01*
X6066460Y-23605227D02*
X6047413Y-23595703D01*
X6047413Y-23595703D02*
X6037889Y-23586179D01*
X6342651Y-23405227D02*
X6247413Y-23405227D01*
X6247413Y-23405227D02*
X6237889Y-23500465D01*
X6237889Y-23500465D02*
X6247413Y-23490941D01*
X6247413Y-23490941D02*
X6266460Y-23481417D01*
X6266460Y-23481417D02*
X6314079Y-23481417D01*
X6314079Y-23481417D02*
X6333127Y-23490941D01*
X6333127Y-23490941D02*
X6342651Y-23500465D01*
X6342651Y-23500465D02*
X6352175Y-23519513D01*
X6352175Y-23519513D02*
X6352175Y-23567132D01*
X6352175Y-23567132D02*
X6342651Y-23586179D01*
X6342651Y-23586179D02*
X6333127Y-23595703D01*
X6333127Y-23595703D02*
X6314079Y-23605227D01*
X6314079Y-23605227D02*
X6266460Y-23605227D01*
X6266460Y-23605227D02*
X6247413Y-23595703D01*
X6247413Y-23595703D02*
X6237889Y-23586179D01*
X6523603Y-23471893D02*
X6523603Y-23605227D01*
X6475984Y-23395703D02*
X6428365Y-23538560D01*
X6428365Y-23538560D02*
X6552175Y-23538560D01*
X6618841Y-23405227D02*
X6618841Y-23443322D01*
X6695032Y-23405227D02*
X6695032Y-23443322D01*
X6990270Y-23681417D02*
X6980746Y-23671893D01*
X6980746Y-23671893D02*
X6961699Y-23643322D01*
X6961699Y-23643322D02*
X6952175Y-23624274D01*
X6952175Y-23624274D02*
X6942651Y-23595703D01*
X6942651Y-23595703D02*
X6933127Y-23548084D01*
X6933127Y-23548084D02*
X6933127Y-23509989D01*
X6933127Y-23509989D02*
X6942651Y-23462370D01*
X6942651Y-23462370D02*
X6952175Y-23433798D01*
X6952175Y-23433798D02*
X6961699Y-23414751D01*
X6961699Y-23414751D02*
X6980746Y-23386179D01*
X6980746Y-23386179D02*
X6990270Y-23376655D01*
X7152175Y-23471893D02*
X7152175Y-23605227D01*
X7104556Y-23395703D02*
X7056937Y-23538560D01*
X7056937Y-23538560D02*
X7180746Y-23538560D01*
X7409318Y-23605227D02*
X7409318Y-23405227D01*
X7495032Y-23605227D02*
X7495032Y-23500465D01*
X7495032Y-23500465D02*
X7485508Y-23481417D01*
X7485508Y-23481417D02*
X7466461Y-23471893D01*
X7466461Y-23471893D02*
X7437889Y-23471893D01*
X7437889Y-23471893D02*
X7418841Y-23481417D01*
X7418841Y-23481417D02*
X7409318Y-23490941D01*
X7618841Y-23605227D02*
X7599794Y-23595703D01*
X7599794Y-23595703D02*
X7590270Y-23586179D01*
X7590270Y-23586179D02*
X7580746Y-23567132D01*
X7580746Y-23567132D02*
X7580746Y-23509989D01*
X7580746Y-23509989D02*
X7590270Y-23490941D01*
X7590270Y-23490941D02*
X7599794Y-23481417D01*
X7599794Y-23481417D02*
X7618841Y-23471893D01*
X7618841Y-23471893D02*
X7647413Y-23471893D01*
X7647413Y-23471893D02*
X7666461Y-23481417D01*
X7666461Y-23481417D02*
X7675984Y-23490941D01*
X7675984Y-23490941D02*
X7685508Y-23509989D01*
X7685508Y-23509989D02*
X7685508Y-23567132D01*
X7685508Y-23567132D02*
X7675984Y-23586179D01*
X7675984Y-23586179D02*
X7666461Y-23595703D01*
X7666461Y-23595703D02*
X7647413Y-23605227D01*
X7647413Y-23605227D02*
X7618841Y-23605227D01*
X7799794Y-23605227D02*
X7780746Y-23595703D01*
X7780746Y-23595703D02*
X7771222Y-23576655D01*
X7771222Y-23576655D02*
X7771222Y-23405227D01*
X7952175Y-23595703D02*
X7933127Y-23605227D01*
X7933127Y-23605227D02*
X7895032Y-23605227D01*
X7895032Y-23605227D02*
X7875984Y-23595703D01*
X7875984Y-23595703D02*
X7866461Y-23576655D01*
X7866461Y-23576655D02*
X7866461Y-23500465D01*
X7866461Y-23500465D02*
X7875984Y-23481417D01*
X7875984Y-23481417D02*
X7895032Y-23471893D01*
X7895032Y-23471893D02*
X7933127Y-23471893D01*
X7933127Y-23471893D02*
X7952175Y-23481417D01*
X7952175Y-23481417D02*
X7961699Y-23500465D01*
X7961699Y-23500465D02*
X7961699Y-23519513D01*
X7961699Y-23519513D02*
X7866461Y-23538560D01*
X8037889Y-23595703D02*
X8056937Y-23605227D01*
X8056937Y-23605227D02*
X8095032Y-23605227D01*
X8095032Y-23605227D02*
X8114080Y-23595703D01*
X8114080Y-23595703D02*
X8123603Y-23576655D01*
X8123603Y-23576655D02*
X8123603Y-23567132D01*
X8123603Y-23567132D02*
X8114080Y-23548084D01*
X8114080Y-23548084D02*
X8095032Y-23538560D01*
X8095032Y-23538560D02*
X8066461Y-23538560D01*
X8066461Y-23538560D02*
X8047413Y-23529036D01*
X8047413Y-23529036D02*
X8037889Y-23509989D01*
X8037889Y-23509989D02*
X8037889Y-23500465D01*
X8037889Y-23500465D02*
X8047413Y-23481417D01*
X8047413Y-23481417D02*
X8066461Y-23471893D01*
X8066461Y-23471893D02*
X8095032Y-23471893D01*
X8095032Y-23471893D02*
X8114080Y-23481417D01*
X8190270Y-23681417D02*
X8199794Y-23671893D01*
X8199794Y-23671893D02*
X8218842Y-23643322D01*
X8218842Y-23643322D02*
X8228365Y-23624274D01*
X8228365Y-23624274D02*
X8237889Y-23595703D01*
X8237889Y-23595703D02*
X8247413Y-23548084D01*
X8247413Y-23548084D02*
X8247413Y-23509989D01*
X8247413Y-23509989D02*
X8237889Y-23462370D01*
X8237889Y-23462370D02*
X8228365Y-23433798D01*
X8228365Y-23433798D02*
X8218842Y-23414751D01*
X8218842Y-23414751D02*
X8199794Y-23386179D01*
X8199794Y-23386179D02*
X8190270Y-23376655D01*
D10*
X3315207Y-23727743D02*
X3415207Y-23827743D01*
X3415207Y-23727743D02*
X3315207Y-23827743D01*
X3415207Y-23777743D02*
G75*
G03*
X3415207Y-23777743I-50000J0D01*
G01*
D11*
X3780746Y-23869227D02*
X3666460Y-23869227D01*
X3723603Y-23869227D02*
X3723603Y-23669227D01*
X3723603Y-23669227D02*
X3704555Y-23697798D01*
X3704555Y-23697798D02*
X3685508Y-23716846D01*
X3685508Y-23716846D02*
X3666460Y-23726370D01*
X3866460Y-23850179D02*
X3875984Y-23859703D01*
X3875984Y-23859703D02*
X3866460Y-23869227D01*
X3866460Y-23869227D02*
X3856936Y-23859703D01*
X3856936Y-23859703D02*
X3866460Y-23850179D01*
X3866460Y-23850179D02*
X3866460Y-23869227D01*
X3999793Y-23669227D02*
X4018841Y-23669227D01*
X4018841Y-23669227D02*
X4037889Y-23678751D01*
X4037889Y-23678751D02*
X4047413Y-23688274D01*
X4047413Y-23688274D02*
X4056936Y-23707322D01*
X4056936Y-23707322D02*
X4066460Y-23745417D01*
X4066460Y-23745417D02*
X4066460Y-23793036D01*
X4066460Y-23793036D02*
X4056936Y-23831132D01*
X4056936Y-23831132D02*
X4047413Y-23850179D01*
X4047413Y-23850179D02*
X4037889Y-23859703D01*
X4037889Y-23859703D02*
X4018841Y-23869227D01*
X4018841Y-23869227D02*
X3999793Y-23869227D01*
X3999793Y-23869227D02*
X3980746Y-23859703D01*
X3980746Y-23859703D02*
X3971222Y-23850179D01*
X3971222Y-23850179D02*
X3961698Y-23831132D01*
X3961698Y-23831132D02*
X3952174Y-23793036D01*
X3952174Y-23793036D02*
X3952174Y-23745417D01*
X3952174Y-23745417D02*
X3961698Y-23707322D01*
X3961698Y-23707322D02*
X3971222Y-23688274D01*
X3971222Y-23688274D02*
X3980746Y-23678751D01*
X3980746Y-23678751D02*
X3999793Y-23669227D01*
X4190270Y-23669227D02*
X4209317Y-23669227D01*
X4209317Y-23669227D02*
X4228365Y-23678751D01*
X4228365Y-23678751D02*
X4237889Y-23688274D01*
X4237889Y-23688274D02*
X4247413Y-23707322D01*
X4247413Y-23707322D02*
X4256936Y-23745417D01*
X4256936Y-23745417D02*
X4256936Y-23793036D01*
X4256936Y-23793036D02*
X4247413Y-23831132D01*
X4247413Y-23831132D02*
X4237889Y-23850179D01*
X4237889Y-23850179D02*
X4228365Y-23859703D01*
X4228365Y-23859703D02*
X4209317Y-23869227D01*
X4209317Y-23869227D02*
X4190270Y-23869227D01*
X4190270Y-23869227D02*
X4171222Y-23859703D01*
X4171222Y-23859703D02*
X4161698Y-23850179D01*
X4161698Y-23850179D02*
X4152174Y-23831132D01*
X4152174Y-23831132D02*
X4142651Y-23793036D01*
X4142651Y-23793036D02*
X4142651Y-23745417D01*
X4142651Y-23745417D02*
X4152174Y-23707322D01*
X4152174Y-23707322D02*
X4161698Y-23688274D01*
X4161698Y-23688274D02*
X4171222Y-23678751D01*
X4171222Y-23678751D02*
X4190270Y-23669227D01*
X4380746Y-23669227D02*
X4399794Y-23669227D01*
X4399794Y-23669227D02*
X4418841Y-23678751D01*
X4418841Y-23678751D02*
X4428365Y-23688274D01*
X4428365Y-23688274D02*
X4437889Y-23707322D01*
X4437889Y-23707322D02*
X4447413Y-23745417D01*
X4447413Y-23745417D02*
X4447413Y-23793036D01*
X4447413Y-23793036D02*
X4437889Y-23831132D01*
X4437889Y-23831132D02*
X4428365Y-23850179D01*
X4428365Y-23850179D02*
X4418841Y-23859703D01*
X4418841Y-23859703D02*
X4399794Y-23869227D01*
X4399794Y-23869227D02*
X4380746Y-23869227D01*
X4380746Y-23869227D02*
X4361698Y-23859703D01*
X4361698Y-23859703D02*
X4352175Y-23850179D01*
X4352175Y-23850179D02*
X4342651Y-23831132D01*
X4342651Y-23831132D02*
X4333127Y-23793036D01*
X4333127Y-23793036D02*
X4333127Y-23745417D01*
X4333127Y-23745417D02*
X4342651Y-23707322D01*
X4342651Y-23707322D02*
X4352175Y-23688274D01*
X4352175Y-23688274D02*
X4361698Y-23678751D01*
X4361698Y-23678751D02*
X4380746Y-23669227D01*
X4533127Y-23869227D02*
X4533127Y-23735893D01*
X4533127Y-23754941D02*
X4542651Y-23745417D01*
X4542651Y-23745417D02*
X4561698Y-23735893D01*
X4561698Y-23735893D02*
X4590270Y-23735893D01*
X4590270Y-23735893D02*
X4609317Y-23745417D01*
X4609317Y-23745417D02*
X4618841Y-23764465D01*
X4618841Y-23764465D02*
X4618841Y-23869227D01*
X4618841Y-23764465D02*
X4628365Y-23745417D01*
X4628365Y-23745417D02*
X4647413Y-23735893D01*
X4647413Y-23735893D02*
X4675984Y-23735893D01*
X4675984Y-23735893D02*
X4695032Y-23745417D01*
X4695032Y-23745417D02*
X4704556Y-23764465D01*
X4704556Y-23764465D02*
X4704556Y-23869227D01*
X4799794Y-23869227D02*
X4799794Y-23735893D01*
X4799794Y-23754941D02*
X4809317Y-23745417D01*
X4809317Y-23745417D02*
X4828365Y-23735893D01*
X4828365Y-23735893D02*
X4856937Y-23735893D01*
X4856937Y-23735893D02*
X4875984Y-23745417D01*
X4875984Y-23745417D02*
X4885508Y-23764465D01*
X4885508Y-23764465D02*
X4885508Y-23869227D01*
X4885508Y-23764465D02*
X4895032Y-23745417D01*
X4895032Y-23745417D02*
X4914079Y-23735893D01*
X4914079Y-23735893D02*
X4942651Y-23735893D01*
X4942651Y-23735893D02*
X4961698Y-23745417D01*
X4961698Y-23745417D02*
X4971222Y-23764465D01*
X4971222Y-23764465D02*
X4971222Y-23869227D01*
X5361698Y-23659703D02*
X5190270Y-23916846D01*
X5618841Y-23669227D02*
X5637889Y-23669227D01*
X5637889Y-23669227D02*
X5656937Y-23678751D01*
X5656937Y-23678751D02*
X5666460Y-23688274D01*
X5666460Y-23688274D02*
X5675984Y-23707322D01*
X5675984Y-23707322D02*
X5685508Y-23745417D01*
X5685508Y-23745417D02*
X5685508Y-23793036D01*
X5685508Y-23793036D02*
X5675984Y-23831132D01*
X5675984Y-23831132D02*
X5666460Y-23850179D01*
X5666460Y-23850179D02*
X5656937Y-23859703D01*
X5656937Y-23859703D02*
X5637889Y-23869227D01*
X5637889Y-23869227D02*
X5618841Y-23869227D01*
X5618841Y-23869227D02*
X5599794Y-23859703D01*
X5599794Y-23859703D02*
X5590270Y-23850179D01*
X5590270Y-23850179D02*
X5580746Y-23831132D01*
X5580746Y-23831132D02*
X5571222Y-23793036D01*
X5571222Y-23793036D02*
X5571222Y-23745417D01*
X5571222Y-23745417D02*
X5580746Y-23707322D01*
X5580746Y-23707322D02*
X5590270Y-23688274D01*
X5590270Y-23688274D02*
X5599794Y-23678751D01*
X5599794Y-23678751D02*
X5618841Y-23669227D01*
X5771222Y-23850179D02*
X5780746Y-23859703D01*
X5780746Y-23859703D02*
X5771222Y-23869227D01*
X5771222Y-23869227D02*
X5761698Y-23859703D01*
X5761698Y-23859703D02*
X5771222Y-23850179D01*
X5771222Y-23850179D02*
X5771222Y-23869227D01*
X5904556Y-23669227D02*
X5923603Y-23669227D01*
X5923603Y-23669227D02*
X5942651Y-23678751D01*
X5942651Y-23678751D02*
X5952175Y-23688274D01*
X5952175Y-23688274D02*
X5961698Y-23707322D01*
X5961698Y-23707322D02*
X5971222Y-23745417D01*
X5971222Y-23745417D02*
X5971222Y-23793036D01*
X5971222Y-23793036D02*
X5961698Y-23831132D01*
X5961698Y-23831132D02*
X5952175Y-23850179D01*
X5952175Y-23850179D02*
X5942651Y-23859703D01*
X5942651Y-23859703D02*
X5923603Y-23869227D01*
X5923603Y-23869227D02*
X5904556Y-23869227D01*
X5904556Y-23869227D02*
X5885508Y-23859703D01*
X5885508Y-23859703D02*
X5875984Y-23850179D01*
X5875984Y-23850179D02*
X5866460Y-23831132D01*
X5866460Y-23831132D02*
X5856937Y-23793036D01*
X5856937Y-23793036D02*
X5856937Y-23745417D01*
X5856937Y-23745417D02*
X5866460Y-23707322D01*
X5866460Y-23707322D02*
X5875984Y-23688274D01*
X5875984Y-23688274D02*
X5885508Y-23678751D01*
X5885508Y-23678751D02*
X5904556Y-23669227D01*
X6037889Y-23669227D02*
X6161698Y-23669227D01*
X6161698Y-23669227D02*
X6095032Y-23745417D01*
X6095032Y-23745417D02*
X6123603Y-23745417D01*
X6123603Y-23745417D02*
X6142651Y-23754941D01*
X6142651Y-23754941D02*
X6152175Y-23764465D01*
X6152175Y-23764465D02*
X6161698Y-23783513D01*
X6161698Y-23783513D02*
X6161698Y-23831132D01*
X6161698Y-23831132D02*
X6152175Y-23850179D01*
X6152175Y-23850179D02*
X6142651Y-23859703D01*
X6142651Y-23859703D02*
X6123603Y-23869227D01*
X6123603Y-23869227D02*
X6066460Y-23869227D01*
X6066460Y-23869227D02*
X6047413Y-23859703D01*
X6047413Y-23859703D02*
X6037889Y-23850179D01*
X6256937Y-23869227D02*
X6295032Y-23869227D01*
X6295032Y-23869227D02*
X6314079Y-23859703D01*
X6314079Y-23859703D02*
X6323603Y-23850179D01*
X6323603Y-23850179D02*
X6342651Y-23821608D01*
X6342651Y-23821608D02*
X6352175Y-23783513D01*
X6352175Y-23783513D02*
X6352175Y-23707322D01*
X6352175Y-23707322D02*
X6342651Y-23688274D01*
X6342651Y-23688274D02*
X6333127Y-23678751D01*
X6333127Y-23678751D02*
X6314079Y-23669227D01*
X6314079Y-23669227D02*
X6275984Y-23669227D01*
X6275984Y-23669227D02*
X6256937Y-23678751D01*
X6256937Y-23678751D02*
X6247413Y-23688274D01*
X6247413Y-23688274D02*
X6237889Y-23707322D01*
X6237889Y-23707322D02*
X6237889Y-23754941D01*
X6237889Y-23754941D02*
X6247413Y-23773989D01*
X6247413Y-23773989D02*
X6256937Y-23783513D01*
X6256937Y-23783513D02*
X6275984Y-23793036D01*
X6275984Y-23793036D02*
X6314079Y-23793036D01*
X6314079Y-23793036D02*
X6333127Y-23783513D01*
X6333127Y-23783513D02*
X6342651Y-23773989D01*
X6342651Y-23773989D02*
X6352175Y-23754941D01*
X6523603Y-23735893D02*
X6523603Y-23869227D01*
X6475984Y-23659703D02*
X6428365Y-23802560D01*
X6428365Y-23802560D02*
X6552175Y-23802560D01*
X6618841Y-23669227D02*
X6618841Y-23707322D01*
X6695032Y-23669227D02*
X6695032Y-23707322D01*
X6990270Y-23945417D02*
X6980746Y-23935893D01*
X6980746Y-23935893D02*
X6961699Y-23907322D01*
X6961699Y-23907322D02*
X6952175Y-23888274D01*
X6952175Y-23888274D02*
X6942651Y-23859703D01*
X6942651Y-23859703D02*
X6933127Y-23812084D01*
X6933127Y-23812084D02*
X6933127Y-23773989D01*
X6933127Y-23773989D02*
X6942651Y-23726370D01*
X6942651Y-23726370D02*
X6952175Y-23697798D01*
X6952175Y-23697798D02*
X6961699Y-23678751D01*
X6961699Y-23678751D02*
X6980746Y-23650179D01*
X6980746Y-23650179D02*
X6990270Y-23640655D01*
X7171222Y-23869227D02*
X7056937Y-23869227D01*
X7114079Y-23869227D02*
X7114079Y-23669227D01*
X7114079Y-23669227D02*
X7095032Y-23697798D01*
X7095032Y-23697798D02*
X7075984Y-23716846D01*
X7075984Y-23716846D02*
X7056937Y-23726370D01*
X7237889Y-23669227D02*
X7361699Y-23669227D01*
X7361699Y-23669227D02*
X7295032Y-23745417D01*
X7295032Y-23745417D02*
X7323603Y-23745417D01*
X7323603Y-23745417D02*
X7342651Y-23754941D01*
X7342651Y-23754941D02*
X7352175Y-23764465D01*
X7352175Y-23764465D02*
X7361699Y-23783513D01*
X7361699Y-23783513D02*
X7361699Y-23831132D01*
X7361699Y-23831132D02*
X7352175Y-23850179D01*
X7352175Y-23850179D02*
X7342651Y-23859703D01*
X7342651Y-23859703D02*
X7323603Y-23869227D01*
X7323603Y-23869227D02*
X7266460Y-23869227D01*
X7266460Y-23869227D02*
X7247413Y-23859703D01*
X7247413Y-23859703D02*
X7237889Y-23850179D01*
X7599794Y-23869227D02*
X7599794Y-23669227D01*
X7685508Y-23869227D02*
X7685508Y-23764465D01*
X7685508Y-23764465D02*
X7675984Y-23745417D01*
X7675984Y-23745417D02*
X7656937Y-23735893D01*
X7656937Y-23735893D02*
X7628365Y-23735893D01*
X7628365Y-23735893D02*
X7609318Y-23745417D01*
X7609318Y-23745417D02*
X7599794Y-23754941D01*
X7809318Y-23869227D02*
X7790270Y-23859703D01*
X7790270Y-23859703D02*
X7780746Y-23850179D01*
X7780746Y-23850179D02*
X7771222Y-23831132D01*
X7771222Y-23831132D02*
X7771222Y-23773989D01*
X7771222Y-23773989D02*
X7780746Y-23754941D01*
X7780746Y-23754941D02*
X7790270Y-23745417D01*
X7790270Y-23745417D02*
X7809318Y-23735893D01*
X7809318Y-23735893D02*
X7837889Y-23735893D01*
X7837889Y-23735893D02*
X7856937Y-23745417D01*
X7856937Y-23745417D02*
X7866461Y-23754941D01*
X7866461Y-23754941D02*
X7875984Y-23773989D01*
X7875984Y-23773989D02*
X7875984Y-23831132D01*
X7875984Y-23831132D02*
X7866461Y-23850179D01*
X7866461Y-23850179D02*
X7856937Y-23859703D01*
X7856937Y-23859703D02*
X7837889Y-23869227D01*
X7837889Y-23869227D02*
X7809318Y-23869227D01*
X7990270Y-23869227D02*
X7971222Y-23859703D01*
X7971222Y-23859703D02*
X7961699Y-23840655D01*
X7961699Y-23840655D02*
X7961699Y-23669227D01*
X8142651Y-23859703D02*
X8123603Y-23869227D01*
X8123603Y-23869227D02*
X8085508Y-23869227D01*
X8085508Y-23869227D02*
X8066461Y-23859703D01*
X8066461Y-23859703D02*
X8056937Y-23840655D01*
X8056937Y-23840655D02*
X8056937Y-23764465D01*
X8056937Y-23764465D02*
X8066461Y-23745417D01*
X8066461Y-23745417D02*
X8085508Y-23735893D01*
X8085508Y-23735893D02*
X8123603Y-23735893D01*
X8123603Y-23735893D02*
X8142651Y-23745417D01*
X8142651Y-23745417D02*
X8152175Y-23764465D01*
X8152175Y-23764465D02*
X8152175Y-23783513D01*
X8152175Y-23783513D02*
X8056937Y-23802560D01*
X8228365Y-23859703D02*
X8247413Y-23869227D01*
X8247413Y-23869227D02*
X8285508Y-23869227D01*
X8285508Y-23869227D02*
X8304556Y-23859703D01*
X8304556Y-23859703D02*
X8314080Y-23840655D01*
X8314080Y-23840655D02*
X8314080Y-23831132D01*
X8314080Y-23831132D02*
X8304556Y-23812084D01*
X8304556Y-23812084D02*
X8285508Y-23802560D01*
X8285508Y-23802560D02*
X8256937Y-23802560D01*
X8256937Y-23802560D02*
X8237889Y-23793036D01*
X8237889Y-23793036D02*
X8228365Y-23773989D01*
X8228365Y-23773989D02*
X8228365Y-23764465D01*
X8228365Y-23764465D02*
X8237889Y-23745417D01*
X8237889Y-23745417D02*
X8256937Y-23735893D01*
X8256937Y-23735893D02*
X8285508Y-23735893D01*
X8285508Y-23735893D02*
X8304556Y-23745417D01*
X8380746Y-23945417D02*
X8390270Y-23935893D01*
X8390270Y-23935893D02*
X8409318Y-23907322D01*
X8409318Y-23907322D02*
X8418842Y-23888274D01*
X8418842Y-23888274D02*
X8428365Y-23859703D01*
X8428365Y-23859703D02*
X8437889Y-23812084D01*
X8437889Y-23812084D02*
X8437889Y-23773989D01*
X8437889Y-23773989D02*
X8428365Y-23726370D01*
X8428365Y-23726370D02*
X8418842Y-23697798D01*
X8418842Y-23697798D02*
X8409318Y-23678751D01*
X8409318Y-23678751D02*
X8390270Y-23650179D01*
X8390270Y-23650179D02*
X8380746Y-23640655D01*
D17*
X3313207Y-23990743D02*
X3415207Y-24092743D01*
X3415207Y-23990743D02*
X3313207Y-24092743D01*
X3364207Y-23990743D02*
X3364207Y-24092743D01*
X3313207Y-24041743D02*
X3415207Y-24041743D01*
D11*
X3780746Y-24133227D02*
X3666460Y-24133227D01*
X3723603Y-24133227D02*
X3723603Y-23933227D01*
X3723603Y-23933227D02*
X3704555Y-23961798D01*
X3704555Y-23961798D02*
X3685508Y-23980846D01*
X3685508Y-23980846D02*
X3666460Y-23990370D01*
X3866460Y-24114179D02*
X3875984Y-24123703D01*
X3875984Y-24123703D02*
X3866460Y-24133227D01*
X3866460Y-24133227D02*
X3856936Y-24123703D01*
X3856936Y-24123703D02*
X3866460Y-24114179D01*
X3866460Y-24114179D02*
X3866460Y-24133227D01*
X3999793Y-23933227D02*
X4018841Y-23933227D01*
X4018841Y-23933227D02*
X4037889Y-23942751D01*
X4037889Y-23942751D02*
X4047413Y-23952274D01*
X4047413Y-23952274D02*
X4056936Y-23971322D01*
X4056936Y-23971322D02*
X4066460Y-24009417D01*
X4066460Y-24009417D02*
X4066460Y-24057036D01*
X4066460Y-24057036D02*
X4056936Y-24095132D01*
X4056936Y-24095132D02*
X4047413Y-24114179D01*
X4047413Y-24114179D02*
X4037889Y-24123703D01*
X4037889Y-24123703D02*
X4018841Y-24133227D01*
X4018841Y-24133227D02*
X3999793Y-24133227D01*
X3999793Y-24133227D02*
X3980746Y-24123703D01*
X3980746Y-24123703D02*
X3971222Y-24114179D01*
X3971222Y-24114179D02*
X3961698Y-24095132D01*
X3961698Y-24095132D02*
X3952174Y-24057036D01*
X3952174Y-24057036D02*
X3952174Y-24009417D01*
X3952174Y-24009417D02*
X3961698Y-23971322D01*
X3961698Y-23971322D02*
X3971222Y-23952274D01*
X3971222Y-23952274D02*
X3980746Y-23942751D01*
X3980746Y-23942751D02*
X3999793Y-23933227D01*
X4142651Y-23952274D02*
X4152174Y-23942751D01*
X4152174Y-23942751D02*
X4171222Y-23933227D01*
X4171222Y-23933227D02*
X4218841Y-23933227D01*
X4218841Y-23933227D02*
X4237889Y-23942751D01*
X4237889Y-23942751D02*
X4247413Y-23952274D01*
X4247413Y-23952274D02*
X4256936Y-23971322D01*
X4256936Y-23971322D02*
X4256936Y-23990370D01*
X4256936Y-23990370D02*
X4247413Y-24018941D01*
X4247413Y-24018941D02*
X4133127Y-24133227D01*
X4133127Y-24133227D02*
X4256936Y-24133227D01*
X4380746Y-23933227D02*
X4399794Y-23933227D01*
X4399794Y-23933227D02*
X4418841Y-23942751D01*
X4418841Y-23942751D02*
X4428365Y-23952274D01*
X4428365Y-23952274D02*
X4437889Y-23971322D01*
X4437889Y-23971322D02*
X4447413Y-24009417D01*
X4447413Y-24009417D02*
X4447413Y-24057036D01*
X4447413Y-24057036D02*
X4437889Y-24095132D01*
X4437889Y-24095132D02*
X4428365Y-24114179D01*
X4428365Y-24114179D02*
X4418841Y-24123703D01*
X4418841Y-24123703D02*
X4399794Y-24133227D01*
X4399794Y-24133227D02*
X4380746Y-24133227D01*
X4380746Y-24133227D02*
X4361698Y-24123703D01*
X4361698Y-24123703D02*
X4352175Y-24114179D01*
X4352175Y-24114179D02*
X4342651Y-24095132D01*
X4342651Y-24095132D02*
X4333127Y-24057036D01*
X4333127Y-24057036D02*
X4333127Y-24009417D01*
X4333127Y-24009417D02*
X4342651Y-23971322D01*
X4342651Y-23971322D02*
X4352175Y-23952274D01*
X4352175Y-23952274D02*
X4361698Y-23942751D01*
X4361698Y-23942751D02*
X4380746Y-23933227D01*
X4533127Y-24133227D02*
X4533127Y-23999893D01*
X4533127Y-24018941D02*
X4542651Y-24009417D01*
X4542651Y-24009417D02*
X4561698Y-23999893D01*
X4561698Y-23999893D02*
X4590270Y-23999893D01*
X4590270Y-23999893D02*
X4609317Y-24009417D01*
X4609317Y-24009417D02*
X4618841Y-24028465D01*
X4618841Y-24028465D02*
X4618841Y-24133227D01*
X4618841Y-24028465D02*
X4628365Y-24009417D01*
X4628365Y-24009417D02*
X4647413Y-23999893D01*
X4647413Y-23999893D02*
X4675984Y-23999893D01*
X4675984Y-23999893D02*
X4695032Y-24009417D01*
X4695032Y-24009417D02*
X4704556Y-24028465D01*
X4704556Y-24028465D02*
X4704556Y-24133227D01*
X4799794Y-24133227D02*
X4799794Y-23999893D01*
X4799794Y-24018941D02*
X4809317Y-24009417D01*
X4809317Y-24009417D02*
X4828365Y-23999893D01*
X4828365Y-23999893D02*
X4856937Y-23999893D01*
X4856937Y-23999893D02*
X4875984Y-24009417D01*
X4875984Y-24009417D02*
X4885508Y-24028465D01*
X4885508Y-24028465D02*
X4885508Y-24133227D01*
X4885508Y-24028465D02*
X4895032Y-24009417D01*
X4895032Y-24009417D02*
X4914079Y-23999893D01*
X4914079Y-23999893D02*
X4942651Y-23999893D01*
X4942651Y-23999893D02*
X4961698Y-24009417D01*
X4961698Y-24009417D02*
X4971222Y-24028465D01*
X4971222Y-24028465D02*
X4971222Y-24133227D01*
X5361698Y-23923703D02*
X5190270Y-24180846D01*
X5618841Y-23933227D02*
X5637889Y-23933227D01*
X5637889Y-23933227D02*
X5656937Y-23942751D01*
X5656937Y-23942751D02*
X5666460Y-23952274D01*
X5666460Y-23952274D02*
X5675984Y-23971322D01*
X5675984Y-23971322D02*
X5685508Y-24009417D01*
X5685508Y-24009417D02*
X5685508Y-24057036D01*
X5685508Y-24057036D02*
X5675984Y-24095132D01*
X5675984Y-24095132D02*
X5666460Y-24114179D01*
X5666460Y-24114179D02*
X5656937Y-24123703D01*
X5656937Y-24123703D02*
X5637889Y-24133227D01*
X5637889Y-24133227D02*
X5618841Y-24133227D01*
X5618841Y-24133227D02*
X5599794Y-24123703D01*
X5599794Y-24123703D02*
X5590270Y-24114179D01*
X5590270Y-24114179D02*
X5580746Y-24095132D01*
X5580746Y-24095132D02*
X5571222Y-24057036D01*
X5571222Y-24057036D02*
X5571222Y-24009417D01*
X5571222Y-24009417D02*
X5580746Y-23971322D01*
X5580746Y-23971322D02*
X5590270Y-23952274D01*
X5590270Y-23952274D02*
X5599794Y-23942751D01*
X5599794Y-23942751D02*
X5618841Y-23933227D01*
X5771222Y-24114179D02*
X5780746Y-24123703D01*
X5780746Y-24123703D02*
X5771222Y-24133227D01*
X5771222Y-24133227D02*
X5761698Y-24123703D01*
X5761698Y-24123703D02*
X5771222Y-24114179D01*
X5771222Y-24114179D02*
X5771222Y-24133227D01*
X5904556Y-23933227D02*
X5923603Y-23933227D01*
X5923603Y-23933227D02*
X5942651Y-23942751D01*
X5942651Y-23942751D02*
X5952175Y-23952274D01*
X5952175Y-23952274D02*
X5961698Y-23971322D01*
X5961698Y-23971322D02*
X5971222Y-24009417D01*
X5971222Y-24009417D02*
X5971222Y-24057036D01*
X5971222Y-24057036D02*
X5961698Y-24095132D01*
X5961698Y-24095132D02*
X5952175Y-24114179D01*
X5952175Y-24114179D02*
X5942651Y-24123703D01*
X5942651Y-24123703D02*
X5923603Y-24133227D01*
X5923603Y-24133227D02*
X5904556Y-24133227D01*
X5904556Y-24133227D02*
X5885508Y-24123703D01*
X5885508Y-24123703D02*
X5875984Y-24114179D01*
X5875984Y-24114179D02*
X5866460Y-24095132D01*
X5866460Y-24095132D02*
X5856937Y-24057036D01*
X5856937Y-24057036D02*
X5856937Y-24009417D01*
X5856937Y-24009417D02*
X5866460Y-23971322D01*
X5866460Y-23971322D02*
X5875984Y-23952274D01*
X5875984Y-23952274D02*
X5885508Y-23942751D01*
X5885508Y-23942751D02*
X5904556Y-23933227D01*
X6142651Y-23999893D02*
X6142651Y-24133227D01*
X6095032Y-23923703D02*
X6047413Y-24066560D01*
X6047413Y-24066560D02*
X6171222Y-24066560D01*
X6285508Y-23933227D02*
X6304556Y-23933227D01*
X6304556Y-23933227D02*
X6323603Y-23942751D01*
X6323603Y-23942751D02*
X6333127Y-23952274D01*
X6333127Y-23952274D02*
X6342651Y-23971322D01*
X6342651Y-23971322D02*
X6352175Y-24009417D01*
X6352175Y-24009417D02*
X6352175Y-24057036D01*
X6352175Y-24057036D02*
X6342651Y-24095132D01*
X6342651Y-24095132D02*
X6333127Y-24114179D01*
X6333127Y-24114179D02*
X6323603Y-24123703D01*
X6323603Y-24123703D02*
X6304556Y-24133227D01*
X6304556Y-24133227D02*
X6285508Y-24133227D01*
X6285508Y-24133227D02*
X6266460Y-24123703D01*
X6266460Y-24123703D02*
X6256937Y-24114179D01*
X6256937Y-24114179D02*
X6247413Y-24095132D01*
X6247413Y-24095132D02*
X6237889Y-24057036D01*
X6237889Y-24057036D02*
X6237889Y-24009417D01*
X6237889Y-24009417D02*
X6247413Y-23971322D01*
X6247413Y-23971322D02*
X6256937Y-23952274D01*
X6256937Y-23952274D02*
X6266460Y-23942751D01*
X6266460Y-23942751D02*
X6285508Y-23933227D01*
X6428365Y-23952274D02*
X6437889Y-23942751D01*
X6437889Y-23942751D02*
X6456937Y-23933227D01*
X6456937Y-23933227D02*
X6504556Y-23933227D01*
X6504556Y-23933227D02*
X6523603Y-23942751D01*
X6523603Y-23942751D02*
X6533127Y-23952274D01*
X6533127Y-23952274D02*
X6542651Y-23971322D01*
X6542651Y-23971322D02*
X6542651Y-23990370D01*
X6542651Y-23990370D02*
X6533127Y-24018941D01*
X6533127Y-24018941D02*
X6418841Y-24133227D01*
X6418841Y-24133227D02*
X6542651Y-24133227D01*
X6618841Y-23933227D02*
X6618841Y-23971322D01*
X6695032Y-23933227D02*
X6695032Y-23971322D01*
X6990270Y-24209417D02*
X6980746Y-24199893D01*
X6980746Y-24199893D02*
X6961699Y-24171322D01*
X6961699Y-24171322D02*
X6952175Y-24152274D01*
X6952175Y-24152274D02*
X6942651Y-24123703D01*
X6942651Y-24123703D02*
X6933127Y-24076084D01*
X6933127Y-24076084D02*
X6933127Y-24037989D01*
X6933127Y-24037989D02*
X6942651Y-23990370D01*
X6942651Y-23990370D02*
X6952175Y-23961798D01*
X6952175Y-23961798D02*
X6961699Y-23942751D01*
X6961699Y-23942751D02*
X6980746Y-23914179D01*
X6980746Y-23914179D02*
X6990270Y-23904655D01*
X7152175Y-23999893D02*
X7152175Y-24133227D01*
X7104556Y-23923703D02*
X7056937Y-24066560D01*
X7056937Y-24066560D02*
X7180746Y-24066560D01*
X7237889Y-23933227D02*
X7361699Y-23933227D01*
X7361699Y-23933227D02*
X7295032Y-24009417D01*
X7295032Y-24009417D02*
X7323603Y-24009417D01*
X7323603Y-24009417D02*
X7342651Y-24018941D01*
X7342651Y-24018941D02*
X7352175Y-24028465D01*
X7352175Y-24028465D02*
X7361699Y-24047513D01*
X7361699Y-24047513D02*
X7361699Y-24095132D01*
X7361699Y-24095132D02*
X7352175Y-24114179D01*
X7352175Y-24114179D02*
X7342651Y-24123703D01*
X7342651Y-24123703D02*
X7323603Y-24133227D01*
X7323603Y-24133227D02*
X7266460Y-24133227D01*
X7266460Y-24133227D02*
X7247413Y-24123703D01*
X7247413Y-24123703D02*
X7237889Y-24114179D01*
X7599794Y-24133227D02*
X7599794Y-23933227D01*
X7685508Y-24133227D02*
X7685508Y-24028465D01*
X7685508Y-24028465D02*
X7675984Y-24009417D01*
X7675984Y-24009417D02*
X7656937Y-23999893D01*
X7656937Y-23999893D02*
X7628365Y-23999893D01*
X7628365Y-23999893D02*
X7609318Y-24009417D01*
X7609318Y-24009417D02*
X7599794Y-24018941D01*
X7809318Y-24133227D02*
X7790270Y-24123703D01*
X7790270Y-24123703D02*
X7780746Y-24114179D01*
X7780746Y-24114179D02*
X7771222Y-24095132D01*
X7771222Y-24095132D02*
X7771222Y-24037989D01*
X7771222Y-24037989D02*
X7780746Y-24018941D01*
X7780746Y-24018941D02*
X7790270Y-24009417D01*
X7790270Y-24009417D02*
X7809318Y-23999893D01*
X7809318Y-23999893D02*
X7837889Y-23999893D01*
X7837889Y-23999893D02*
X7856937Y-24009417D01*
X7856937Y-24009417D02*
X7866461Y-24018941D01*
X7866461Y-24018941D02*
X7875984Y-24037989D01*
X7875984Y-24037989D02*
X7875984Y-24095132D01*
X7875984Y-24095132D02*
X7866461Y-24114179D01*
X7866461Y-24114179D02*
X7856937Y-24123703D01*
X7856937Y-24123703D02*
X7837889Y-24133227D01*
X7837889Y-24133227D02*
X7809318Y-24133227D01*
X7990270Y-24133227D02*
X7971222Y-24123703D01*
X7971222Y-24123703D02*
X7961699Y-24104655D01*
X7961699Y-24104655D02*
X7961699Y-23933227D01*
X8142651Y-24123703D02*
X8123603Y-24133227D01*
X8123603Y-24133227D02*
X8085508Y-24133227D01*
X8085508Y-24133227D02*
X8066461Y-24123703D01*
X8066461Y-24123703D02*
X8056937Y-24104655D01*
X8056937Y-24104655D02*
X8056937Y-24028465D01*
X8056937Y-24028465D02*
X8066461Y-24009417D01*
X8066461Y-24009417D02*
X8085508Y-23999893D01*
X8085508Y-23999893D02*
X8123603Y-23999893D01*
X8123603Y-23999893D02*
X8142651Y-24009417D01*
X8142651Y-24009417D02*
X8152175Y-24028465D01*
X8152175Y-24028465D02*
X8152175Y-24047513D01*
X8152175Y-24047513D02*
X8056937Y-24066560D01*
X8228365Y-24123703D02*
X8247413Y-24133227D01*
X8247413Y-24133227D02*
X8285508Y-24133227D01*
X8285508Y-24133227D02*
X8304556Y-24123703D01*
X8304556Y-24123703D02*
X8314080Y-24104655D01*
X8314080Y-24104655D02*
X8314080Y-24095132D01*
X8314080Y-24095132D02*
X8304556Y-24076084D01*
X8304556Y-24076084D02*
X8285508Y-24066560D01*
X8285508Y-24066560D02*
X8256937Y-24066560D01*
X8256937Y-24066560D02*
X8237889Y-24057036D01*
X8237889Y-24057036D02*
X8228365Y-24037989D01*
X8228365Y-24037989D02*
X8228365Y-24028465D01*
X8228365Y-24028465D02*
X8237889Y-24009417D01*
X8237889Y-24009417D02*
X8256937Y-23999893D01*
X8256937Y-23999893D02*
X8285508Y-23999893D01*
X8285508Y-23999893D02*
X8304556Y-24009417D01*
X8380746Y-24209417D02*
X8390270Y-24199893D01*
X8390270Y-24199893D02*
X8409318Y-24171322D01*
X8409318Y-24171322D02*
X8418842Y-24152274D01*
X8418842Y-24152274D02*
X8428365Y-24123703D01*
X8428365Y-24123703D02*
X8437889Y-24076084D01*
X8437889Y-24076084D02*
X8437889Y-24037989D01*
X8437889Y-24037989D02*
X8428365Y-23990370D01*
X8428365Y-23990370D02*
X8418842Y-23961798D01*
X8418842Y-23961798D02*
X8409318Y-23942751D01*
X8409318Y-23942751D02*
X8390270Y-23914179D01*
X8390270Y-23914179D02*
X8380746Y-23904655D01*
D18*
X3275507Y-24235893D02*
X3415207Y-24375593D01*
X3415207Y-24235893D02*
X3275507Y-24375593D01*
X3394749Y-24355135D02*
X3394749Y-24256351D01*
X3295965Y-24256351D01*
X3295965Y-24355135D01*
X3394749Y-24355135D01*
D11*
X3780746Y-24397227D02*
X3666460Y-24397227D01*
X3723603Y-24397227D02*
X3723603Y-24197227D01*
X3723603Y-24197227D02*
X3704555Y-24225798D01*
X3704555Y-24225798D02*
X3685508Y-24244846D01*
X3685508Y-24244846D02*
X3666460Y-24254370D01*
X3866460Y-24378179D02*
X3875984Y-24387703D01*
X3875984Y-24387703D02*
X3866460Y-24397227D01*
X3866460Y-24397227D02*
X3856936Y-24387703D01*
X3856936Y-24387703D02*
X3866460Y-24378179D01*
X3866460Y-24378179D02*
X3866460Y-24397227D01*
X3942651Y-24197227D02*
X4066460Y-24197227D01*
X4066460Y-24197227D02*
X3999793Y-24273417D01*
X3999793Y-24273417D02*
X4028365Y-24273417D01*
X4028365Y-24273417D02*
X4047413Y-24282941D01*
X4047413Y-24282941D02*
X4056936Y-24292465D01*
X4056936Y-24292465D02*
X4066460Y-24311513D01*
X4066460Y-24311513D02*
X4066460Y-24359132D01*
X4066460Y-24359132D02*
X4056936Y-24378179D01*
X4056936Y-24378179D02*
X4047413Y-24387703D01*
X4047413Y-24387703D02*
X4028365Y-24397227D01*
X4028365Y-24397227D02*
X3971222Y-24397227D01*
X3971222Y-24397227D02*
X3952174Y-24387703D01*
X3952174Y-24387703D02*
X3942651Y-24378179D01*
X4161698Y-24397227D02*
X4199794Y-24397227D01*
X4199794Y-24397227D02*
X4218841Y-24387703D01*
X4218841Y-24387703D02*
X4228365Y-24378179D01*
X4228365Y-24378179D02*
X4247413Y-24349608D01*
X4247413Y-24349608D02*
X4256936Y-24311513D01*
X4256936Y-24311513D02*
X4256936Y-24235322D01*
X4256936Y-24235322D02*
X4247413Y-24216274D01*
X4247413Y-24216274D02*
X4237889Y-24206751D01*
X4237889Y-24206751D02*
X4218841Y-24197227D01*
X4218841Y-24197227D02*
X4180746Y-24197227D01*
X4180746Y-24197227D02*
X4161698Y-24206751D01*
X4161698Y-24206751D02*
X4152174Y-24216274D01*
X4152174Y-24216274D02*
X4142651Y-24235322D01*
X4142651Y-24235322D02*
X4142651Y-24282941D01*
X4142651Y-24282941D02*
X4152174Y-24301989D01*
X4152174Y-24301989D02*
X4161698Y-24311513D01*
X4161698Y-24311513D02*
X4180746Y-24321036D01*
X4180746Y-24321036D02*
X4218841Y-24321036D01*
X4218841Y-24321036D02*
X4237889Y-24311513D01*
X4237889Y-24311513D02*
X4247413Y-24301989D01*
X4247413Y-24301989D02*
X4256936Y-24282941D01*
X4323603Y-24197227D02*
X4456936Y-24197227D01*
X4456936Y-24197227D02*
X4371222Y-24397227D01*
X4533127Y-24397227D02*
X4533127Y-24263893D01*
X4533127Y-24282941D02*
X4542651Y-24273417D01*
X4542651Y-24273417D02*
X4561698Y-24263893D01*
X4561698Y-24263893D02*
X4590270Y-24263893D01*
X4590270Y-24263893D02*
X4609317Y-24273417D01*
X4609317Y-24273417D02*
X4618841Y-24292465D01*
X4618841Y-24292465D02*
X4618841Y-24397227D01*
X4618841Y-24292465D02*
X4628365Y-24273417D01*
X4628365Y-24273417D02*
X4647413Y-24263893D01*
X4647413Y-24263893D02*
X4675984Y-24263893D01*
X4675984Y-24263893D02*
X4695032Y-24273417D01*
X4695032Y-24273417D02*
X4704556Y-24292465D01*
X4704556Y-24292465D02*
X4704556Y-24397227D01*
X4799794Y-24397227D02*
X4799794Y-24263893D01*
X4799794Y-24282941D02*
X4809317Y-24273417D01*
X4809317Y-24273417D02*
X4828365Y-24263893D01*
X4828365Y-24263893D02*
X4856937Y-24263893D01*
X4856937Y-24263893D02*
X4875984Y-24273417D01*
X4875984Y-24273417D02*
X4885508Y-24292465D01*
X4885508Y-24292465D02*
X4885508Y-24397227D01*
X4885508Y-24292465D02*
X4895032Y-24273417D01*
X4895032Y-24273417D02*
X4914079Y-24263893D01*
X4914079Y-24263893D02*
X4942651Y-24263893D01*
X4942651Y-24263893D02*
X4961698Y-24273417D01*
X4961698Y-24273417D02*
X4971222Y-24292465D01*
X4971222Y-24292465D02*
X4971222Y-24397227D01*
X5361698Y-24187703D02*
X5190270Y-24444846D01*
X5618841Y-24197227D02*
X5637889Y-24197227D01*
X5637889Y-24197227D02*
X5656937Y-24206751D01*
X5656937Y-24206751D02*
X5666460Y-24216274D01*
X5666460Y-24216274D02*
X5675984Y-24235322D01*
X5675984Y-24235322D02*
X5685508Y-24273417D01*
X5685508Y-24273417D02*
X5685508Y-24321036D01*
X5685508Y-24321036D02*
X5675984Y-24359132D01*
X5675984Y-24359132D02*
X5666460Y-24378179D01*
X5666460Y-24378179D02*
X5656937Y-24387703D01*
X5656937Y-24387703D02*
X5637889Y-24397227D01*
X5637889Y-24397227D02*
X5618841Y-24397227D01*
X5618841Y-24397227D02*
X5599794Y-24387703D01*
X5599794Y-24387703D02*
X5590270Y-24378179D01*
X5590270Y-24378179D02*
X5580746Y-24359132D01*
X5580746Y-24359132D02*
X5571222Y-24321036D01*
X5571222Y-24321036D02*
X5571222Y-24273417D01*
X5571222Y-24273417D02*
X5580746Y-24235322D01*
X5580746Y-24235322D02*
X5590270Y-24216274D01*
X5590270Y-24216274D02*
X5599794Y-24206751D01*
X5599794Y-24206751D02*
X5618841Y-24197227D01*
X5771222Y-24378179D02*
X5780746Y-24387703D01*
X5780746Y-24387703D02*
X5771222Y-24397227D01*
X5771222Y-24397227D02*
X5761698Y-24387703D01*
X5761698Y-24387703D02*
X5771222Y-24378179D01*
X5771222Y-24378179D02*
X5771222Y-24397227D01*
X5904556Y-24197227D02*
X5923603Y-24197227D01*
X5923603Y-24197227D02*
X5942651Y-24206751D01*
X5942651Y-24206751D02*
X5952175Y-24216274D01*
X5952175Y-24216274D02*
X5961698Y-24235322D01*
X5961698Y-24235322D02*
X5971222Y-24273417D01*
X5971222Y-24273417D02*
X5971222Y-24321036D01*
X5971222Y-24321036D02*
X5961698Y-24359132D01*
X5961698Y-24359132D02*
X5952175Y-24378179D01*
X5952175Y-24378179D02*
X5942651Y-24387703D01*
X5942651Y-24387703D02*
X5923603Y-24397227D01*
X5923603Y-24397227D02*
X5904556Y-24397227D01*
X5904556Y-24397227D02*
X5885508Y-24387703D01*
X5885508Y-24387703D02*
X5875984Y-24378179D01*
X5875984Y-24378179D02*
X5866460Y-24359132D01*
X5866460Y-24359132D02*
X5856937Y-24321036D01*
X5856937Y-24321036D02*
X5856937Y-24273417D01*
X5856937Y-24273417D02*
X5866460Y-24235322D01*
X5866460Y-24235322D02*
X5875984Y-24216274D01*
X5875984Y-24216274D02*
X5885508Y-24206751D01*
X5885508Y-24206751D02*
X5904556Y-24197227D01*
X6152175Y-24197227D02*
X6056937Y-24197227D01*
X6056937Y-24197227D02*
X6047413Y-24292465D01*
X6047413Y-24292465D02*
X6056937Y-24282941D01*
X6056937Y-24282941D02*
X6075984Y-24273417D01*
X6075984Y-24273417D02*
X6123603Y-24273417D01*
X6123603Y-24273417D02*
X6142651Y-24282941D01*
X6142651Y-24282941D02*
X6152175Y-24292465D01*
X6152175Y-24292465D02*
X6161698Y-24311513D01*
X6161698Y-24311513D02*
X6161698Y-24359132D01*
X6161698Y-24359132D02*
X6152175Y-24378179D01*
X6152175Y-24378179D02*
X6142651Y-24387703D01*
X6142651Y-24387703D02*
X6123603Y-24397227D01*
X6123603Y-24397227D02*
X6075984Y-24397227D01*
X6075984Y-24397227D02*
X6056937Y-24387703D01*
X6056937Y-24387703D02*
X6047413Y-24378179D01*
X6342651Y-24197227D02*
X6247413Y-24197227D01*
X6247413Y-24197227D02*
X6237889Y-24292465D01*
X6237889Y-24292465D02*
X6247413Y-24282941D01*
X6247413Y-24282941D02*
X6266460Y-24273417D01*
X6266460Y-24273417D02*
X6314079Y-24273417D01*
X6314079Y-24273417D02*
X6333127Y-24282941D01*
X6333127Y-24282941D02*
X6342651Y-24292465D01*
X6342651Y-24292465D02*
X6352175Y-24311513D01*
X6352175Y-24311513D02*
X6352175Y-24359132D01*
X6352175Y-24359132D02*
X6342651Y-24378179D01*
X6342651Y-24378179D02*
X6333127Y-24387703D01*
X6333127Y-24387703D02*
X6314079Y-24397227D01*
X6314079Y-24397227D02*
X6266460Y-24397227D01*
X6266460Y-24397227D02*
X6247413Y-24387703D01*
X6247413Y-24387703D02*
X6237889Y-24378179D01*
X6475984Y-24197227D02*
X6495032Y-24197227D01*
X6495032Y-24197227D02*
X6514079Y-24206751D01*
X6514079Y-24206751D02*
X6523603Y-24216274D01*
X6523603Y-24216274D02*
X6533127Y-24235322D01*
X6533127Y-24235322D02*
X6542651Y-24273417D01*
X6542651Y-24273417D02*
X6542651Y-24321036D01*
X6542651Y-24321036D02*
X6533127Y-24359132D01*
X6533127Y-24359132D02*
X6523603Y-24378179D01*
X6523603Y-24378179D02*
X6514079Y-24387703D01*
X6514079Y-24387703D02*
X6495032Y-24397227D01*
X6495032Y-24397227D02*
X6475984Y-24397227D01*
X6475984Y-24397227D02*
X6456937Y-24387703D01*
X6456937Y-24387703D02*
X6447413Y-24378179D01*
X6447413Y-24378179D02*
X6437889Y-24359132D01*
X6437889Y-24359132D02*
X6428365Y-24321036D01*
X6428365Y-24321036D02*
X6428365Y-24273417D01*
X6428365Y-24273417D02*
X6437889Y-24235322D01*
X6437889Y-24235322D02*
X6447413Y-24216274D01*
X6447413Y-24216274D02*
X6456937Y-24206751D01*
X6456937Y-24206751D02*
X6475984Y-24197227D01*
X6618841Y-24197227D02*
X6618841Y-24235322D01*
X6695032Y-24197227D02*
X6695032Y-24235322D01*
X6990270Y-24473417D02*
X6980746Y-24463893D01*
X6980746Y-24463893D02*
X6961699Y-24435322D01*
X6961699Y-24435322D02*
X6952175Y-24416274D01*
X6952175Y-24416274D02*
X6942651Y-24387703D01*
X6942651Y-24387703D02*
X6933127Y-24340084D01*
X6933127Y-24340084D02*
X6933127Y-24301989D01*
X6933127Y-24301989D02*
X6942651Y-24254370D01*
X6942651Y-24254370D02*
X6952175Y-24225798D01*
X6952175Y-24225798D02*
X6961699Y-24206751D01*
X6961699Y-24206751D02*
X6980746Y-24178179D01*
X6980746Y-24178179D02*
X6990270Y-24168655D01*
X7152175Y-24263893D02*
X7152175Y-24397227D01*
X7104556Y-24187703D02*
X7056937Y-24330560D01*
X7056937Y-24330560D02*
X7180746Y-24330560D01*
X7409318Y-24397227D02*
X7409318Y-24197227D01*
X7495032Y-24397227D02*
X7495032Y-24292465D01*
X7495032Y-24292465D02*
X7485508Y-24273417D01*
X7485508Y-24273417D02*
X7466461Y-24263893D01*
X7466461Y-24263893D02*
X7437889Y-24263893D01*
X7437889Y-24263893D02*
X7418841Y-24273417D01*
X7418841Y-24273417D02*
X7409318Y-24282941D01*
X7618841Y-24397227D02*
X7599794Y-24387703D01*
X7599794Y-24387703D02*
X7590270Y-24378179D01*
X7590270Y-24378179D02*
X7580746Y-24359132D01*
X7580746Y-24359132D02*
X7580746Y-24301989D01*
X7580746Y-24301989D02*
X7590270Y-24282941D01*
X7590270Y-24282941D02*
X7599794Y-24273417D01*
X7599794Y-24273417D02*
X7618841Y-24263893D01*
X7618841Y-24263893D02*
X7647413Y-24263893D01*
X7647413Y-24263893D02*
X7666461Y-24273417D01*
X7666461Y-24273417D02*
X7675984Y-24282941D01*
X7675984Y-24282941D02*
X7685508Y-24301989D01*
X7685508Y-24301989D02*
X7685508Y-24359132D01*
X7685508Y-24359132D02*
X7675984Y-24378179D01*
X7675984Y-24378179D02*
X7666461Y-24387703D01*
X7666461Y-24387703D02*
X7647413Y-24397227D01*
X7647413Y-24397227D02*
X7618841Y-24397227D01*
X7799794Y-24397227D02*
X7780746Y-24387703D01*
X7780746Y-24387703D02*
X7771222Y-24368655D01*
X7771222Y-24368655D02*
X7771222Y-24197227D01*
X7952175Y-24387703D02*
X7933127Y-24397227D01*
X7933127Y-24397227D02*
X7895032Y-24397227D01*
X7895032Y-24397227D02*
X7875984Y-24387703D01*
X7875984Y-24387703D02*
X7866461Y-24368655D01*
X7866461Y-24368655D02*
X7866461Y-24292465D01*
X7866461Y-24292465D02*
X7875984Y-24273417D01*
X7875984Y-24273417D02*
X7895032Y-24263893D01*
X7895032Y-24263893D02*
X7933127Y-24263893D01*
X7933127Y-24263893D02*
X7952175Y-24273417D01*
X7952175Y-24273417D02*
X7961699Y-24292465D01*
X7961699Y-24292465D02*
X7961699Y-24311513D01*
X7961699Y-24311513D02*
X7866461Y-24330560D01*
X8037889Y-24387703D02*
X8056937Y-24397227D01*
X8056937Y-24397227D02*
X8095032Y-24397227D01*
X8095032Y-24397227D02*
X8114080Y-24387703D01*
X8114080Y-24387703D02*
X8123603Y-24368655D01*
X8123603Y-24368655D02*
X8123603Y-24359132D01*
X8123603Y-24359132D02*
X8114080Y-24340084D01*
X8114080Y-24340084D02*
X8095032Y-24330560D01*
X8095032Y-24330560D02*
X8066461Y-24330560D01*
X8066461Y-24330560D02*
X8047413Y-24321036D01*
X8047413Y-24321036D02*
X8037889Y-24301989D01*
X8037889Y-24301989D02*
X8037889Y-24292465D01*
X8037889Y-24292465D02*
X8047413Y-24273417D01*
X8047413Y-24273417D02*
X8066461Y-24263893D01*
X8066461Y-24263893D02*
X8095032Y-24263893D01*
X8095032Y-24263893D02*
X8114080Y-24273417D01*
X8190270Y-24473417D02*
X8199794Y-24463893D01*
X8199794Y-24463893D02*
X8218842Y-24435322D01*
X8218842Y-24435322D02*
X8228365Y-24416274D01*
X8228365Y-24416274D02*
X8237889Y-24387703D01*
X8237889Y-24387703D02*
X8247413Y-24340084D01*
X8247413Y-24340084D02*
X8247413Y-24301989D01*
X8247413Y-24301989D02*
X8237889Y-24254370D01*
X8237889Y-24254370D02*
X8228365Y-24225798D01*
X8228365Y-24225798D02*
X8218842Y-24206751D01*
X8218842Y-24206751D02*
X8199794Y-24178179D01*
X8199794Y-24178179D02*
X8190270Y-24168655D01*
D19*
X3265207Y-24494743D02*
X3415207Y-24644743D01*
X3415207Y-24494743D02*
X3265207Y-24644743D01*
X3340207Y-24644743D02*
X3415207Y-24569743D01*
X3340207Y-24494743D01*
X3265207Y-24569743D01*
X3340207Y-24644743D01*
D11*
X3780746Y-24661227D02*
X3666460Y-24661227D01*
X3723603Y-24661227D02*
X3723603Y-24461227D01*
X3723603Y-24461227D02*
X3704555Y-24489798D01*
X3704555Y-24489798D02*
X3685508Y-24508846D01*
X3685508Y-24508846D02*
X3666460Y-24518370D01*
X3866460Y-24642179D02*
X3875984Y-24651703D01*
X3875984Y-24651703D02*
X3866460Y-24661227D01*
X3866460Y-24661227D02*
X3856936Y-24651703D01*
X3856936Y-24651703D02*
X3866460Y-24642179D01*
X3866460Y-24642179D02*
X3866460Y-24661227D01*
X4056936Y-24461227D02*
X3961698Y-24461227D01*
X3961698Y-24461227D02*
X3952174Y-24556465D01*
X3952174Y-24556465D02*
X3961698Y-24546941D01*
X3961698Y-24546941D02*
X3980746Y-24537417D01*
X3980746Y-24537417D02*
X4028365Y-24537417D01*
X4028365Y-24537417D02*
X4047413Y-24546941D01*
X4047413Y-24546941D02*
X4056936Y-24556465D01*
X4056936Y-24556465D02*
X4066460Y-24575513D01*
X4066460Y-24575513D02*
X4066460Y-24623132D01*
X4066460Y-24623132D02*
X4056936Y-24642179D01*
X4056936Y-24642179D02*
X4047413Y-24651703D01*
X4047413Y-24651703D02*
X4028365Y-24661227D01*
X4028365Y-24661227D02*
X3980746Y-24661227D01*
X3980746Y-24661227D02*
X3961698Y-24651703D01*
X3961698Y-24651703D02*
X3952174Y-24642179D01*
X4190270Y-24461227D02*
X4209317Y-24461227D01*
X4209317Y-24461227D02*
X4228365Y-24470751D01*
X4228365Y-24470751D02*
X4237889Y-24480274D01*
X4237889Y-24480274D02*
X4247413Y-24499322D01*
X4247413Y-24499322D02*
X4256936Y-24537417D01*
X4256936Y-24537417D02*
X4256936Y-24585036D01*
X4256936Y-24585036D02*
X4247413Y-24623132D01*
X4247413Y-24623132D02*
X4237889Y-24642179D01*
X4237889Y-24642179D02*
X4228365Y-24651703D01*
X4228365Y-24651703D02*
X4209317Y-24661227D01*
X4209317Y-24661227D02*
X4190270Y-24661227D01*
X4190270Y-24661227D02*
X4171222Y-24651703D01*
X4171222Y-24651703D02*
X4161698Y-24642179D01*
X4161698Y-24642179D02*
X4152174Y-24623132D01*
X4152174Y-24623132D02*
X4142651Y-24585036D01*
X4142651Y-24585036D02*
X4142651Y-24537417D01*
X4142651Y-24537417D02*
X4152174Y-24499322D01*
X4152174Y-24499322D02*
X4161698Y-24480274D01*
X4161698Y-24480274D02*
X4171222Y-24470751D01*
X4171222Y-24470751D02*
X4190270Y-24461227D01*
X4380746Y-24461227D02*
X4399794Y-24461227D01*
X4399794Y-24461227D02*
X4418841Y-24470751D01*
X4418841Y-24470751D02*
X4428365Y-24480274D01*
X4428365Y-24480274D02*
X4437889Y-24499322D01*
X4437889Y-24499322D02*
X4447413Y-24537417D01*
X4447413Y-24537417D02*
X4447413Y-24585036D01*
X4447413Y-24585036D02*
X4437889Y-24623132D01*
X4437889Y-24623132D02*
X4428365Y-24642179D01*
X4428365Y-24642179D02*
X4418841Y-24651703D01*
X4418841Y-24651703D02*
X4399794Y-24661227D01*
X4399794Y-24661227D02*
X4380746Y-24661227D01*
X4380746Y-24661227D02*
X4361698Y-24651703D01*
X4361698Y-24651703D02*
X4352175Y-24642179D01*
X4352175Y-24642179D02*
X4342651Y-24623132D01*
X4342651Y-24623132D02*
X4333127Y-24585036D01*
X4333127Y-24585036D02*
X4333127Y-24537417D01*
X4333127Y-24537417D02*
X4342651Y-24499322D01*
X4342651Y-24499322D02*
X4352175Y-24480274D01*
X4352175Y-24480274D02*
X4361698Y-24470751D01*
X4361698Y-24470751D02*
X4380746Y-24461227D01*
X4533127Y-24661227D02*
X4533127Y-24527893D01*
X4533127Y-24546941D02*
X4542651Y-24537417D01*
X4542651Y-24537417D02*
X4561698Y-24527893D01*
X4561698Y-24527893D02*
X4590270Y-24527893D01*
X4590270Y-24527893D02*
X4609317Y-24537417D01*
X4609317Y-24537417D02*
X4618841Y-24556465D01*
X4618841Y-24556465D02*
X4618841Y-24661227D01*
X4618841Y-24556465D02*
X4628365Y-24537417D01*
X4628365Y-24537417D02*
X4647413Y-24527893D01*
X4647413Y-24527893D02*
X4675984Y-24527893D01*
X4675984Y-24527893D02*
X4695032Y-24537417D01*
X4695032Y-24537417D02*
X4704556Y-24556465D01*
X4704556Y-24556465D02*
X4704556Y-24661227D01*
X4799794Y-24661227D02*
X4799794Y-24527893D01*
X4799794Y-24546941D02*
X4809317Y-24537417D01*
X4809317Y-24537417D02*
X4828365Y-24527893D01*
X4828365Y-24527893D02*
X4856937Y-24527893D01*
X4856937Y-24527893D02*
X4875984Y-24537417D01*
X4875984Y-24537417D02*
X4885508Y-24556465D01*
X4885508Y-24556465D02*
X4885508Y-24661227D01*
X4885508Y-24556465D02*
X4895032Y-24537417D01*
X4895032Y-24537417D02*
X4914079Y-24527893D01*
X4914079Y-24527893D02*
X4942651Y-24527893D01*
X4942651Y-24527893D02*
X4961698Y-24537417D01*
X4961698Y-24537417D02*
X4971222Y-24556465D01*
X4971222Y-24556465D02*
X4971222Y-24661227D01*
X5361698Y-24451703D02*
X5190270Y-24708846D01*
X5618841Y-24461227D02*
X5637889Y-24461227D01*
X5637889Y-24461227D02*
X5656937Y-24470751D01*
X5656937Y-24470751D02*
X5666460Y-24480274D01*
X5666460Y-24480274D02*
X5675984Y-24499322D01*
X5675984Y-24499322D02*
X5685508Y-24537417D01*
X5685508Y-24537417D02*
X5685508Y-24585036D01*
X5685508Y-24585036D02*
X5675984Y-24623132D01*
X5675984Y-24623132D02*
X5666460Y-24642179D01*
X5666460Y-24642179D02*
X5656937Y-24651703D01*
X5656937Y-24651703D02*
X5637889Y-24661227D01*
X5637889Y-24661227D02*
X5618841Y-24661227D01*
X5618841Y-24661227D02*
X5599794Y-24651703D01*
X5599794Y-24651703D02*
X5590270Y-24642179D01*
X5590270Y-24642179D02*
X5580746Y-24623132D01*
X5580746Y-24623132D02*
X5571222Y-24585036D01*
X5571222Y-24585036D02*
X5571222Y-24537417D01*
X5571222Y-24537417D02*
X5580746Y-24499322D01*
X5580746Y-24499322D02*
X5590270Y-24480274D01*
X5590270Y-24480274D02*
X5599794Y-24470751D01*
X5599794Y-24470751D02*
X5618841Y-24461227D01*
X5771222Y-24642179D02*
X5780746Y-24651703D01*
X5780746Y-24651703D02*
X5771222Y-24661227D01*
X5771222Y-24661227D02*
X5761698Y-24651703D01*
X5761698Y-24651703D02*
X5771222Y-24642179D01*
X5771222Y-24642179D02*
X5771222Y-24661227D01*
X5904556Y-24461227D02*
X5923603Y-24461227D01*
X5923603Y-24461227D02*
X5942651Y-24470751D01*
X5942651Y-24470751D02*
X5952175Y-24480274D01*
X5952175Y-24480274D02*
X5961698Y-24499322D01*
X5961698Y-24499322D02*
X5971222Y-24537417D01*
X5971222Y-24537417D02*
X5971222Y-24585036D01*
X5971222Y-24585036D02*
X5961698Y-24623132D01*
X5961698Y-24623132D02*
X5952175Y-24642179D01*
X5952175Y-24642179D02*
X5942651Y-24651703D01*
X5942651Y-24651703D02*
X5923603Y-24661227D01*
X5923603Y-24661227D02*
X5904556Y-24661227D01*
X5904556Y-24661227D02*
X5885508Y-24651703D01*
X5885508Y-24651703D02*
X5875984Y-24642179D01*
X5875984Y-24642179D02*
X5866460Y-24623132D01*
X5866460Y-24623132D02*
X5856937Y-24585036D01*
X5856937Y-24585036D02*
X5856937Y-24537417D01*
X5856937Y-24537417D02*
X5866460Y-24499322D01*
X5866460Y-24499322D02*
X5875984Y-24480274D01*
X5875984Y-24480274D02*
X5885508Y-24470751D01*
X5885508Y-24470751D02*
X5904556Y-24461227D01*
X6152175Y-24461227D02*
X6056937Y-24461227D01*
X6056937Y-24461227D02*
X6047413Y-24556465D01*
X6047413Y-24556465D02*
X6056937Y-24546941D01*
X6056937Y-24546941D02*
X6075984Y-24537417D01*
X6075984Y-24537417D02*
X6123603Y-24537417D01*
X6123603Y-24537417D02*
X6142651Y-24546941D01*
X6142651Y-24546941D02*
X6152175Y-24556465D01*
X6152175Y-24556465D02*
X6161698Y-24575513D01*
X6161698Y-24575513D02*
X6161698Y-24623132D01*
X6161698Y-24623132D02*
X6152175Y-24642179D01*
X6152175Y-24642179D02*
X6142651Y-24651703D01*
X6142651Y-24651703D02*
X6123603Y-24661227D01*
X6123603Y-24661227D02*
X6075984Y-24661227D01*
X6075984Y-24661227D02*
X6056937Y-24651703D01*
X6056937Y-24651703D02*
X6047413Y-24642179D01*
X6256937Y-24661227D02*
X6295032Y-24661227D01*
X6295032Y-24661227D02*
X6314079Y-24651703D01*
X6314079Y-24651703D02*
X6323603Y-24642179D01*
X6323603Y-24642179D02*
X6342651Y-24613608D01*
X6342651Y-24613608D02*
X6352175Y-24575513D01*
X6352175Y-24575513D02*
X6352175Y-24499322D01*
X6352175Y-24499322D02*
X6342651Y-24480274D01*
X6342651Y-24480274D02*
X6333127Y-24470751D01*
X6333127Y-24470751D02*
X6314079Y-24461227D01*
X6314079Y-24461227D02*
X6275984Y-24461227D01*
X6275984Y-24461227D02*
X6256937Y-24470751D01*
X6256937Y-24470751D02*
X6247413Y-24480274D01*
X6247413Y-24480274D02*
X6237889Y-24499322D01*
X6237889Y-24499322D02*
X6237889Y-24546941D01*
X6237889Y-24546941D02*
X6247413Y-24565989D01*
X6247413Y-24565989D02*
X6256937Y-24575513D01*
X6256937Y-24575513D02*
X6275984Y-24585036D01*
X6275984Y-24585036D02*
X6314079Y-24585036D01*
X6314079Y-24585036D02*
X6333127Y-24575513D01*
X6333127Y-24575513D02*
X6342651Y-24565989D01*
X6342651Y-24565989D02*
X6352175Y-24546941D01*
X6542651Y-24661227D02*
X6428365Y-24661227D01*
X6485508Y-24661227D02*
X6485508Y-24461227D01*
X6485508Y-24461227D02*
X6466460Y-24489798D01*
X6466460Y-24489798D02*
X6447413Y-24508846D01*
X6447413Y-24508846D02*
X6428365Y-24518370D01*
X6618841Y-24461227D02*
X6618841Y-24499322D01*
X6695032Y-24461227D02*
X6695032Y-24499322D01*
X6990270Y-24737417D02*
X6980746Y-24727893D01*
X6980746Y-24727893D02*
X6961699Y-24699322D01*
X6961699Y-24699322D02*
X6952175Y-24680274D01*
X6952175Y-24680274D02*
X6942651Y-24651703D01*
X6942651Y-24651703D02*
X6933127Y-24604084D01*
X6933127Y-24604084D02*
X6933127Y-24565989D01*
X6933127Y-24565989D02*
X6942651Y-24518370D01*
X6942651Y-24518370D02*
X6952175Y-24489798D01*
X6952175Y-24489798D02*
X6961699Y-24470751D01*
X6961699Y-24470751D02*
X6980746Y-24442179D01*
X6980746Y-24442179D02*
X6990270Y-24432655D01*
X7104556Y-24461227D02*
X7123603Y-24461227D01*
X7123603Y-24461227D02*
X7142651Y-24470751D01*
X7142651Y-24470751D02*
X7152175Y-24480274D01*
X7152175Y-24480274D02*
X7161699Y-24499322D01*
X7161699Y-24499322D02*
X7171222Y-24537417D01*
X7171222Y-24537417D02*
X7171222Y-24585036D01*
X7171222Y-24585036D02*
X7161699Y-24623132D01*
X7161699Y-24623132D02*
X7152175Y-24642179D01*
X7152175Y-24642179D02*
X7142651Y-24651703D01*
X7142651Y-24651703D02*
X7123603Y-24661227D01*
X7123603Y-24661227D02*
X7104556Y-24661227D01*
X7104556Y-24661227D02*
X7085508Y-24651703D01*
X7085508Y-24651703D02*
X7075984Y-24642179D01*
X7075984Y-24642179D02*
X7066460Y-24623132D01*
X7066460Y-24623132D02*
X7056937Y-24585036D01*
X7056937Y-24585036D02*
X7056937Y-24537417D01*
X7056937Y-24537417D02*
X7066460Y-24499322D01*
X7066460Y-24499322D02*
X7075984Y-24480274D01*
X7075984Y-24480274D02*
X7085508Y-24470751D01*
X7085508Y-24470751D02*
X7104556Y-24461227D01*
X7409318Y-24661227D02*
X7409318Y-24461227D01*
X7495032Y-24661227D02*
X7495032Y-24556465D01*
X7495032Y-24556465D02*
X7485508Y-24537417D01*
X7485508Y-24537417D02*
X7466461Y-24527893D01*
X7466461Y-24527893D02*
X7437889Y-24527893D01*
X7437889Y-24527893D02*
X7418841Y-24537417D01*
X7418841Y-24537417D02*
X7409318Y-24546941D01*
X7618841Y-24661227D02*
X7599794Y-24651703D01*
X7599794Y-24651703D02*
X7590270Y-24642179D01*
X7590270Y-24642179D02*
X7580746Y-24623132D01*
X7580746Y-24623132D02*
X7580746Y-24565989D01*
X7580746Y-24565989D02*
X7590270Y-24546941D01*
X7590270Y-24546941D02*
X7599794Y-24537417D01*
X7599794Y-24537417D02*
X7618841Y-24527893D01*
X7618841Y-24527893D02*
X7647413Y-24527893D01*
X7647413Y-24527893D02*
X7666461Y-24537417D01*
X7666461Y-24537417D02*
X7675984Y-24546941D01*
X7675984Y-24546941D02*
X7685508Y-24565989D01*
X7685508Y-24565989D02*
X7685508Y-24623132D01*
X7685508Y-24623132D02*
X7675984Y-24642179D01*
X7675984Y-24642179D02*
X7666461Y-24651703D01*
X7666461Y-24651703D02*
X7647413Y-24661227D01*
X7647413Y-24661227D02*
X7618841Y-24661227D01*
X7799794Y-24661227D02*
X7780746Y-24651703D01*
X7780746Y-24651703D02*
X7771222Y-24632655D01*
X7771222Y-24632655D02*
X7771222Y-24461227D01*
X7952175Y-24651703D02*
X7933127Y-24661227D01*
X7933127Y-24661227D02*
X7895032Y-24661227D01*
X7895032Y-24661227D02*
X7875984Y-24651703D01*
X7875984Y-24651703D02*
X7866461Y-24632655D01*
X7866461Y-24632655D02*
X7866461Y-24556465D01*
X7866461Y-24556465D02*
X7875984Y-24537417D01*
X7875984Y-24537417D02*
X7895032Y-24527893D01*
X7895032Y-24527893D02*
X7933127Y-24527893D01*
X7933127Y-24527893D02*
X7952175Y-24537417D01*
X7952175Y-24537417D02*
X7961699Y-24556465D01*
X7961699Y-24556465D02*
X7961699Y-24575513D01*
X7961699Y-24575513D02*
X7866461Y-24594560D01*
X8037889Y-24651703D02*
X8056937Y-24661227D01*
X8056937Y-24661227D02*
X8095032Y-24661227D01*
X8095032Y-24661227D02*
X8114080Y-24651703D01*
X8114080Y-24651703D02*
X8123603Y-24632655D01*
X8123603Y-24632655D02*
X8123603Y-24623132D01*
X8123603Y-24623132D02*
X8114080Y-24604084D01*
X8114080Y-24604084D02*
X8095032Y-24594560D01*
X8095032Y-24594560D02*
X8066461Y-24594560D01*
X8066461Y-24594560D02*
X8047413Y-24585036D01*
X8047413Y-24585036D02*
X8037889Y-24565989D01*
X8037889Y-24565989D02*
X8037889Y-24556465D01*
X8037889Y-24556465D02*
X8047413Y-24537417D01*
X8047413Y-24537417D02*
X8066461Y-24527893D01*
X8066461Y-24527893D02*
X8095032Y-24527893D01*
X8095032Y-24527893D02*
X8114080Y-24537417D01*
X8361699Y-24585036D02*
X8514080Y-24585036D01*
X8437889Y-24661227D02*
X8437889Y-24508846D01*
X8752175Y-24480274D02*
X8761699Y-24470751D01*
X8761699Y-24470751D02*
X8780746Y-24461227D01*
X8780746Y-24461227D02*
X8828366Y-24461227D01*
X8828366Y-24461227D02*
X8847413Y-24470751D01*
X8847413Y-24470751D02*
X8856937Y-24480274D01*
X8856937Y-24480274D02*
X8866461Y-24499322D01*
X8866461Y-24499322D02*
X8866461Y-24518370D01*
X8866461Y-24518370D02*
X8856937Y-24546941D01*
X8856937Y-24546941D02*
X8742651Y-24661227D01*
X8742651Y-24661227D02*
X8866461Y-24661227D01*
X9095032Y-24651703D02*
X9114080Y-24661227D01*
X9114080Y-24661227D02*
X9152175Y-24661227D01*
X9152175Y-24661227D02*
X9171223Y-24651703D01*
X9171223Y-24651703D02*
X9180747Y-24632655D01*
X9180747Y-24632655D02*
X9180747Y-24623132D01*
X9180747Y-24623132D02*
X9171223Y-24604084D01*
X9171223Y-24604084D02*
X9152175Y-24594560D01*
X9152175Y-24594560D02*
X9123604Y-24594560D01*
X9123604Y-24594560D02*
X9104556Y-24585036D01*
X9104556Y-24585036D02*
X9095032Y-24565989D01*
X9095032Y-24565989D02*
X9095032Y-24556465D01*
X9095032Y-24556465D02*
X9104556Y-24537417D01*
X9104556Y-24537417D02*
X9123604Y-24527893D01*
X9123604Y-24527893D02*
X9152175Y-24527893D01*
X9152175Y-24527893D02*
X9171223Y-24537417D01*
X9295032Y-24661227D02*
X9275985Y-24651703D01*
X9275985Y-24651703D02*
X9266461Y-24632655D01*
X9266461Y-24632655D02*
X9266461Y-24461227D01*
X9399794Y-24661227D02*
X9380747Y-24651703D01*
X9380747Y-24651703D02*
X9371223Y-24642179D01*
X9371223Y-24642179D02*
X9361699Y-24623132D01*
X9361699Y-24623132D02*
X9361699Y-24565989D01*
X9361699Y-24565989D02*
X9371223Y-24546941D01*
X9371223Y-24546941D02*
X9380747Y-24537417D01*
X9380747Y-24537417D02*
X9399794Y-24527893D01*
X9399794Y-24527893D02*
X9428366Y-24527893D01*
X9428366Y-24527893D02*
X9447413Y-24537417D01*
X9447413Y-24537417D02*
X9456937Y-24546941D01*
X9456937Y-24546941D02*
X9466461Y-24565989D01*
X9466461Y-24565989D02*
X9466461Y-24623132D01*
X9466461Y-24623132D02*
X9456937Y-24642179D01*
X9456937Y-24642179D02*
X9447413Y-24651703D01*
X9447413Y-24651703D02*
X9428366Y-24661227D01*
X9428366Y-24661227D02*
X9399794Y-24661227D01*
X9523604Y-24527893D02*
X9599794Y-24527893D01*
X9552175Y-24461227D02*
X9552175Y-24632655D01*
X9552175Y-24632655D02*
X9561699Y-24651703D01*
X9561699Y-24651703D02*
X9580747Y-24661227D01*
X9580747Y-24661227D02*
X9599794Y-24661227D01*
X9656937Y-24651703D02*
X9675985Y-24661227D01*
X9675985Y-24661227D02*
X9714080Y-24661227D01*
X9714080Y-24661227D02*
X9733128Y-24651703D01*
X9733128Y-24651703D02*
X9742651Y-24632655D01*
X9742651Y-24632655D02*
X9742651Y-24623132D01*
X9742651Y-24623132D02*
X9733128Y-24604084D01*
X9733128Y-24604084D02*
X9714080Y-24594560D01*
X9714080Y-24594560D02*
X9685508Y-24594560D01*
X9685508Y-24594560D02*
X9666461Y-24585036D01*
X9666461Y-24585036D02*
X9656937Y-24565989D01*
X9656937Y-24565989D02*
X9656937Y-24556465D01*
X9656937Y-24556465D02*
X9666461Y-24537417D01*
X9666461Y-24537417D02*
X9685508Y-24527893D01*
X9685508Y-24527893D02*
X9714080Y-24527893D01*
X9714080Y-24527893D02*
X9733128Y-24537417D01*
X9809318Y-24737417D02*
X9818842Y-24727893D01*
X9818842Y-24727893D02*
X9837889Y-24699322D01*
X9837889Y-24699322D02*
X9847413Y-24680274D01*
X9847413Y-24680274D02*
X9856937Y-24651703D01*
X9856937Y-24651703D02*
X9866461Y-24604084D01*
X9866461Y-24604084D02*
X9866461Y-24565989D01*
X9866461Y-24565989D02*
X9856937Y-24518370D01*
X9856937Y-24518370D02*
X9847413Y-24489798D01*
X9847413Y-24489798D02*
X9837889Y-24470751D01*
X9837889Y-24470751D02*
X9818842Y-24442179D01*
X9818842Y-24442179D02*
X9809318Y-24432655D01*
M02*
