<?xml version="1.0"?>
<!-- Generated by SVGo -->
<svg width="362.427mm" height="95.727mm"
     viewBox="0.000 0.000 362.427 95.727"
     xmlns="http://www.w3.org/2000/svg" 
     xmlns:xlink="http://www.w3.org/1999/xlink">
<polygon points="357.427,90.727 5.001,90.727 5.001,5.001 357.427,5.001" style="fill:none;stroke-width:0.050000mm;stroke:black"/>
<polygon points="250.413,74.201 250.413,88.201 264.413,88.201 264.413,74.201" style="fill:none;stroke-width:0.050000mm;stroke:black"/>
<polygon points="269.463,74.201 269.463,88.201 283.463,88.201 283.463,74.201" style="fill:none;stroke-width:0.050000mm;stroke:black"/>
<polygon points="288.513,74.201 288.513,88.201 302.513,88.201 302.513,74.201" style="fill:none;stroke-width:0.050000mm;stroke:black"/>
<polygon points="119.444,64.676 119.444,69.376 79.819,69.376 79.819,66.146 78.094,66.146 78.094,65.225 74.794,65.225 74.794,66.146 73.069,66.146 73.069,69.376 72.244,69.376 72.244,72.176 73.069,72.176 73.069,78.446 74.794,78.446 74.794,79.426 78.094,79.426 78.094,78.446 79.819,78.446 79.819,73.976 119.444,73.976 119.444,78.676 133.444,78.676 133.444,73.976 173.069,73.976 173.069,78.446 174.794,78.446 174.794,79.426 178.094,79.426 178.094,78.446 179.819,78.446 179.819,72.176 180.644,72.176 180.644,69.376 179.819,69.376 179.819,66.146 178.094,66.146 178.094,65.225 174.794,65.225 174.794,66.146 173.069,66.146 173.069,69.376 133.444,69.376 133.444,64.676" style="fill:none;stroke-width:0.050000mm;stroke:black"/>
<polygon points="9.907,64.676 9.907,78.676 23.907,78.676 23.907,64.676" style="fill:none;stroke-width:0.050000mm;stroke:black"/>
<polygon points="31.338,64.676 31.338,78.676 45.338,78.676 45.338,64.676" style="fill:none;stroke-width:0.050000mm;stroke:black"/>
<polygon points="50.388,64.676 50.388,78.676 64.388,78.676 64.388,64.676" style="fill:none;stroke-width:0.050000mm;stroke:black"/>
<polygon points="190.882,64.676 190.882,78.676 204.882,78.676 204.882,64.676" style="fill:none;stroke-width:0.050000mm;stroke:black"/>
<polygon points="214.694,64.676 214.694,78.676 228.694,78.676 228.694,64.676" style="fill:none;stroke-width:0.050000mm;stroke:black"/>
<polygon points="321.851,64.676 321.851,78.676 335.851,78.676 335.851,64.676" style="fill:none;stroke-width:0.050000mm;stroke:black"/>
<polygon points="340.901,64.676 340.901,78.676 354.901,78.676 354.901,64.676" style="fill:none;stroke-width:0.050000mm;stroke:black"/>
<polygon points="269.463,55.151 269.463,69.151 283.463,69.151 283.463,55.151" style="fill:none;stroke-width:0.050000mm;stroke:black"/>
<polygon points="14.669,45.626 14.669,59.626 28.669,59.626 28.669,45.626" style="fill:none;stroke-width:0.050000mm;stroke:black"/>
<polygon points="40.863,45.626 40.863,59.626 54.863,59.626 54.863,45.626" style="fill:none;stroke-width:0.050000mm;stroke:black"/>
<polygon points="59.913,45.626 59.913,59.626 73.913,59.626 73.913,45.626" style="fill:none;stroke-width:0.050000mm;stroke:black"/>
<polygon points="78.963,45.626 78.963,59.626 92.963,59.626 92.963,45.626" style="fill:none;stroke-width:0.050000mm;stroke:black"/>
<polygon points="98.013,45.626 98.013,59.626 112.013,59.626 112.013,45.626" style="fill:none;stroke-width:0.050000mm;stroke:black"/>
<polygon points="117.063,45.626 117.063,59.626 131.063,59.626 131.063,45.626" style="fill:none;stroke-width:0.050000mm;stroke:black"/>
<polygon points="136.113,45.626 136.113,59.626 150.113,59.626 150.113,45.626" style="fill:none;stroke-width:0.050000mm;stroke:black"/>
<polygon points="155.163,45.626 155.163,59.626 169.163,59.626 169.163,45.626" style="fill:none;stroke-width:0.050000mm;stroke:black"/>
<polygon points="174.213,45.626 174.213,59.626 188.213,59.626 188.213,45.626" style="fill:none;stroke-width:0.050000mm;stroke:black"/>
<polygon points="193.263,45.626 193.263,59.626 207.263,59.626 207.263,45.626" style="fill:none;stroke-width:0.050000mm;stroke:black"/>
<polygon points="212.313,45.626 212.313,59.626 226.313,59.626 226.313,45.626" style="fill:none;stroke-width:0.050000mm;stroke:black"/>
<polygon points="233.744,45.626 233.744,59.626 247.744,59.626 247.744,45.626" style="fill:none;stroke-width:0.050000mm;stroke:black"/>
<polygon points="302.801,45.626 302.801,59.626 316.801,59.626 316.801,45.626" style="fill:none;stroke-width:0.050000mm;stroke:black"/>
<polygon points="321.851,45.626 321.851,59.626 335.851,59.626 335.851,45.626" style="fill:none;stroke-width:0.050000mm;stroke:black"/>
<polygon points="340.901,45.626 340.901,59.626 354.901,59.626 354.901,45.626" style="fill:none;stroke-width:0.050000mm;stroke:black"/>
<polygon points="231.363,26.576 231.363,31.276 229.838,31.276 229.838,28.046 228.113,28.046 228.113,27.126 224.813,27.126 224.813,28.046 223.088,28.046 223.088,31.276 222.263,31.276 222.263,34.076 223.088,34.076 223.088,40.346 224.813,40.346 224.813,41.326 228.113,41.326 228.113,40.346 229.838,40.346 229.838,35.876 231.363,35.876 231.363,40.576 245.363,40.576 245.363,35.876 246.888,35.876 246.888,40.346 248.613,40.346 248.613,41.326 251.913,41.326 251.913,40.346 253.638,40.346 253.638,34.076 254.463,34.076 254.463,31.276 253.638,31.276 253.638,28.046 251.913,28.046 251.913,27.126 248.613,27.126 248.613,28.046 246.888,28.046 246.888,31.276 245.363,31.276 245.363,26.576" style="fill:none;stroke-width:0.050000mm;stroke:black"/>
<polygon points="9.907,26.576 9.907,40.576 23.907,40.576 23.907,26.576" style="fill:none;stroke-width:0.050000mm;stroke:black"/>
<polygon points="31.338,26.576 31.338,40.576 45.338,40.576 45.338,26.576" style="fill:none;stroke-width:0.050000mm;stroke:black"/>
<polygon points="50.388,26.576 50.388,40.576 64.388,40.576 64.388,26.576" style="fill:none;stroke-width:0.050000mm;stroke:black"/>
<polygon points="69.438,26.576 69.438,40.576 83.438,40.576 83.438,26.576" style="fill:none;stroke-width:0.050000mm;stroke:black"/>
<polygon points="88.488,26.576 88.488,40.576 102.488,40.576 102.488,26.576" style="fill:none;stroke-width:0.050000mm;stroke:black"/>
<polygon points="107.538,26.576 107.538,40.576 121.538,40.576 121.538,26.576" style="fill:none;stroke-width:0.050000mm;stroke:black"/>
<polygon points="126.588,26.576 126.588,40.576 140.588,40.576 140.588,26.576" style="fill:none;stroke-width:0.050000mm;stroke:black"/>
<polygon points="145.638,26.576 145.638,40.576 159.638,40.576 159.638,26.576" style="fill:none;stroke-width:0.050000mm;stroke:black"/>
<polygon points="164.688,26.576 164.688,40.576 178.688,40.576 178.688,26.576" style="fill:none;stroke-width:0.050000mm;stroke:black"/>
<polygon points="183.738,26.576 183.738,40.576 197.738,40.576 197.738,26.576" style="fill:none;stroke-width:0.050000mm;stroke:black"/>
<polygon points="202.788,26.576 202.788,40.576 216.788,40.576 216.788,26.576" style="fill:none;stroke-width:0.050000mm;stroke:black"/>
<polygon points="302.801,26.576 302.801,40.576 316.801,40.576 316.801,26.576" style="fill:none;stroke-width:0.050000mm;stroke:black"/>
<polygon points="321.851,26.576 321.851,40.576 335.851,40.576 335.851,26.576" style="fill:none;stroke-width:0.050000mm;stroke:black"/>
<polygon points="340.901,26.576 340.901,40.576 354.901,40.576 354.901,26.576" style="fill:none;stroke-width:0.050000mm;stroke:black"/>
<polygon points="7.526,7.526 7.526,21.526 21.526,21.526 21.526,7.526" style="fill:none;stroke-width:0.050000mm;stroke:black"/>
<polygon points="26.576,7.526 26.576,21.526 40.576,21.526 40.576,7.526" style="fill:none;stroke-width:0.050000mm;stroke:black"/>
<polygon points="45.626,7.526 45.626,21.526 59.626,21.526 59.626,7.526" style="fill:none;stroke-width:0.050000mm;stroke:black"/>
<polygon points="64.676,7.526 64.676,21.526 78.676,21.526 78.676,7.526" style="fill:none;stroke-width:0.050000mm;stroke:black"/>
<polygon points="83.726,7.526 83.726,21.526 97.726,21.526 97.726,7.526" style="fill:none;stroke-width:0.050000mm;stroke:black"/>
<polygon points="102.775,7.526 102.775,21.526 116.775,21.526 116.775,7.526" style="fill:none;stroke-width:0.050000mm;stroke:black"/>
<polygon points="121.825,7.526 121.825,21.526 135.826,21.526 135.826,7.526" style="fill:none;stroke-width:0.050000mm;stroke:black"/>
<polygon points="140.876,7.526 140.876,21.526 154.876,21.526 154.876,7.526" style="fill:none;stroke-width:0.050000mm;stroke:black"/>
<polygon points="159.926,7.526 159.926,21.526 173.926,21.526 173.926,7.526" style="fill:none;stroke-width:0.050000mm;stroke:black"/>
<polygon points="178.976,7.526 178.976,21.526 192.976,21.526 192.976,7.526" style="fill:none;stroke-width:0.050000mm;stroke:black"/>
<polygon points="198.026,7.526 198.026,21.526 212.026,21.526 212.026,7.526" style="fill:none;stroke-width:0.050000mm;stroke:black"/>
<polygon points="217.076,7.526 217.076,21.526 231.076,21.526 231.076,7.526" style="fill:none;stroke-width:0.050000mm;stroke:black"/>
<polygon points="238.507,7.526 238.507,21.526 252.507,21.526 252.507,7.526" style="fill:none;stroke-width:0.050000mm;stroke:black"/>
<polygon points="302.801,7.526 302.801,21.526 316.801,21.526 316.801,7.526" style="fill:none;stroke-width:0.050000mm;stroke:black"/>
<polygon points="321.851,7.526 321.851,21.526 335.851,21.526 335.851,7.526" style="fill:none;stroke-width:0.050000mm;stroke:black"/>
<polygon points="340.901,7.526 340.901,21.526 354.901,21.526 354.901,7.526" style="fill:none;stroke-width:0.050000mm;stroke:black"/>
</svg>
