M48
; DRILL file {KiCad (6.0.1)} date Fri Jun 24 19:37:21 2022
; FORMAT={-:-/ absolute / metric / decimal}
; #@! TF.CreationDate,2022-06-24T19:37:21-07:00
; #@! TF.GenerationSoftware,Kicad,Pcbnew,(6.0.1)
; #@! TF.FileFunction,Plated,1,2,PTH
FMAT,2
METRIC
; #@! TA.AperFunction,Plated,PTH,ComponentDrill
T1C1.092
; #@! TA.AperFunction,Plated,PTH,ComponentDrill
T2C1.100
; #@! TA.AperFunction,Plated,PTH,ComponentDrill
T3C1.500
%
G90
G05
T1
X323.337Y-105.423
X323.337Y-107.734
X323.337Y-110.274
X323.337Y-112.814
X323.337Y-115.354
X323.337Y-117.894
X323.337Y-120.434
X325.877Y-105.194
X325.877Y-120.434
X328.417Y-105.194
X328.417Y-120.434
X330.957Y-105.194
X330.957Y-120.434
X333.497Y-105.194
X333.497Y-120.434
X336.037Y-105.194
X336.037Y-120.434
X338.577Y-105.194
X338.577Y-120.434
X341.117Y-105.194
X341.117Y-120.434
X343.657Y-105.194
X343.657Y-120.434
X346.197Y-105.194
X346.197Y-120.434
X348.737Y-105.194
X348.737Y-120.434
X351.277Y-105.194
X351.277Y-120.434
T2
X107.945Y-109.548
X107.945Y-114.628
X108.026Y-148.967
X108.026Y-154.047
X108.153Y-168.22
X108.153Y-173.3
X108.331Y-128.444
X108.331Y-133.524
X108.585Y-187.753
X108.585Y-192.833
X127.249Y-109.675
X127.249Y-114.755
X127.33Y-149.094
X127.33Y-154.174
X127.457Y-168.347
X127.457Y-173.427
X127.635Y-128.571
X127.635Y-133.651
X127.889Y-187.88
X127.889Y-192.96
X146.68Y-109.548
X146.68Y-114.628
X146.761Y-148.967
X146.761Y-154.047
X146.888Y-168.22
X146.888Y-173.3
X147.066Y-128.444
X147.066Y-133.524
X147.32Y-187.753
X147.32Y-192.833
X165.984Y-109.675
X165.984Y-114.755
X166.065Y-149.094
X166.065Y-154.174
X166.192Y-168.347
X166.192Y-173.427
X166.37Y-128.571
X166.37Y-133.651
X166.624Y-187.88
X166.624Y-192.96
X185.288Y-109.893
X185.288Y-114.973
X185.369Y-149.312
X185.369Y-154.392
X185.496Y-168.565
X185.496Y-173.645
X185.674Y-128.789
X185.674Y-133.869
X185.928Y-188.098
X185.928Y-193.178
X204.592Y-110.02
X204.592Y-115.1
X204.673Y-149.439
X204.673Y-154.519
X204.805Y-168.4
X204.805Y-173.48
X204.978Y-128.916
X204.978Y-133.996
X223.896Y-109.675
X223.896Y-114.755
X223.977Y-149.094
X223.977Y-154.174
X224.109Y-168.527
X224.109Y-173.607
X224.282Y-128.571
X224.282Y-133.651
X234.696Y-187.463
X234.696Y-192.543
X243.2Y-109.802
X243.2Y-114.882
X243.281Y-149.221
X243.281Y-154.301
X243.54Y-168.4
X243.54Y-173.48
X243.586Y-128.698
X243.586Y-133.778
X262.504Y-110.02
X262.504Y-115.1
X262.585Y-149.439
X262.585Y-154.519
X262.844Y-168.527
X262.844Y-173.607
X262.89Y-128.916
X262.89Y-133.996
X281.808Y-110.147
X281.808Y-115.227
X281.889Y-149.566
X281.889Y-154.646
X282.016Y-168.819
X282.016Y-173.899
X282.194Y-129.043
X282.194Y-134.123
X282.448Y-188.352
X282.448Y-193.432
X301.112Y-110.056
X301.112Y-115.136
X301.193Y-149.475
X301.193Y-154.555
X301.32Y-168.728
X301.32Y-173.808
X301.498Y-128.952
X301.498Y-134.032
X301.752Y-188.261
X301.752Y-193.341
X320.416Y-110.183
X320.416Y-115.263
X320.497Y-149.602
X320.497Y-154.682
X320.624Y-168.855
X320.624Y-173.935
X320.675Y-129.424
X320.675Y-134.504
X321.056Y-188.388
X321.056Y-193.468
X339.72Y-110.401
X339.72Y-115.481
X339.801Y-149.82
X339.801Y-154.9
X339.928Y-169.073
X339.928Y-174.153
X340.106Y-129.297
X340.106Y-134.377
X340.36Y-188.606
X340.36Y-193.686
X359.024Y-110.528
X359.024Y-115.608
X359.105Y-149.947
X359.105Y-155.027
X359.232Y-169.2
X359.232Y-174.28
X359.41Y-129.424
X359.41Y-134.504
X359.664Y-188.733
X359.664Y-193.813
T3
X95.372Y-110.528
X95.453Y-149.149
X95.453Y-168.402
X95.504Y-129.642
X95.504Y-187.808
X101.722Y-107.988
X101.803Y-146.609
X101.803Y-165.862
X101.854Y-127.102
X101.854Y-185.268
X114.676Y-110.528
X114.757Y-149.149
X114.757Y-168.402
X114.808Y-129.642
X114.808Y-187.808
X121.026Y-107.988
X121.107Y-146.609
X121.107Y-165.862
X121.158Y-127.102
X121.158Y-185.268
X133.98Y-110.528
X134.061Y-149.149
X134.061Y-168.402
X134.112Y-129.642
X134.112Y-187.808
X140.33Y-107.988
X140.411Y-146.609
X140.411Y-165.862
X140.462Y-127.102
X140.462Y-185.268
X153.411Y-110.528
X153.492Y-149.149
X153.492Y-168.402
X153.543Y-129.642
X153.543Y-187.808
X159.761Y-107.988
X159.842Y-146.609
X159.842Y-165.862
X159.893Y-127.102
X159.893Y-185.268
X172.715Y-110.528
X172.796Y-149.149
X172.796Y-168.402
X172.847Y-129.642
X172.847Y-187.808
X179.065Y-107.988
X179.146Y-146.609
X179.146Y-165.862
X179.197Y-127.102
X179.197Y-185.268
X192.019Y-110.528
X192.1Y-149.149
X192.151Y-129.642
X192.232Y-168.364
X198.369Y-107.988
X198.45Y-146.609
X198.501Y-127.102
X198.582Y-165.824
X211.45Y-110.528
X211.531Y-149.149
X211.536Y-168.364
X211.582Y-129.642
X217.8Y-107.988
X217.881Y-146.609
X217.886Y-165.824
X217.932Y-127.102
X221.488Y-187.869
X227.838Y-185.329
X230.754Y-110.528
X230.835Y-149.149
X230.84Y-168.364
X230.886Y-129.642
X237.104Y-107.988
X237.185Y-146.609
X237.19Y-165.824
X237.236Y-127.102
X250.058Y-110.528
X250.139Y-149.149
X250.19Y-129.642
X250.271Y-168.364
X256.408Y-107.988
X256.489Y-146.609
X256.54Y-127.102
X256.621Y-165.824
X269.489Y-110.528
X269.57Y-149.149
X269.57Y-168.402
X269.621Y-129.642
X269.621Y-187.808
X275.839Y-107.988
X275.92Y-146.609
X275.92Y-165.862
X275.971Y-127.102
X275.971Y-185.268
X288.793Y-110.528
X288.874Y-149.149
X288.874Y-168.402
X288.925Y-129.642
X288.925Y-187.808
X295.143Y-107.988
X295.224Y-146.609
X295.224Y-165.862
X295.275Y-127.102
X295.275Y-185.268
X307.97Y-110.528
X308.051Y-149.149
X308.051Y-168.402
X308.102Y-129.642
X308.102Y-187.808
X314.32Y-107.988
X314.401Y-146.609
X314.401Y-165.862
X314.452Y-127.102
X314.452Y-185.268
X327.401Y-110.528
X327.482Y-149.149
X327.482Y-168.402
X327.533Y-129.642
X327.533Y-187.808
X333.751Y-107.988
X333.832Y-146.609
X333.832Y-165.862
X333.883Y-127.102
X333.883Y-185.268
X346.705Y-110.528
X346.786Y-149.149
X346.786Y-168.402
X346.837Y-129.642
X346.837Y-187.808
X353.055Y-107.988
X353.136Y-146.609
X353.136Y-165.862
X353.187Y-127.102
X353.187Y-185.268
T0
M30
