%TF.GenerationSoftware,KiCad,Pcbnew,(6.0.1)*%
%TF.CreationDate,2022-06-24T19:37:25-07:00*%
%TF.ProjectId,75ortho,37356f72-7468-46f2-9e6b-696361645f70,rev?*%
%TF.SameCoordinates,Original*%
%TF.FileFunction,Soldermask,Top*%
%TF.FilePolarity,Negative*%
%FSLAX46Y46*%
G04 Gerber Fmt 4.6, Leading zero omitted, Abs format (unit mm)*
G04 Created by KiCad (PCBNEW (6.0.1)) date 2022-06-24 19:37:25*
%MOMM*%
%LPD*%
G01*
G04 APERTURE LIST*
%ADD10C,4.000000*%
%ADD11C,1.700000*%
%ADD12C,2.200000*%
%ADD13R,2.200000X2.200000*%
%ADD14O,2.200000X2.200000*%
%ADD15C,3.200000*%
%ADD16C,3.050000*%
%ADD17R,1.752600X1.752600*%
%ADD18C,1.752600*%
G04 APERTURE END LIST*
D10*
%TO.C,REF\u002A\u002A*%
X234564133Y-113068285D03*
D11*
X229484133Y-113068285D03*
X239644133Y-113068285D03*
D12*
X237104133Y-107988285D03*
X230754133Y-110528285D03*
%TD*%
%TO.C,REF\u002A\u002A*%
X202514200Y-190550800D03*
%TD*%
D11*
%TO.C,REF\u002A\u002A*%
X287604200Y-170942000D03*
X297764200Y-170942000D03*
D10*
X292684200Y-170942000D03*
D12*
X295224200Y-165862000D03*
X288874200Y-168402000D03*
%TD*%
D13*
%TO.C,REF\u002A\u002A*%
X320416133Y-115263468D03*
D14*
X320416133Y-110183468D03*
%TD*%
D13*
%TO.C,REF\u002A\u002A*%
X359664000Y-193812783D03*
D14*
X359664000Y-188732783D03*
%TD*%
D13*
%TO.C,REF\u002A\u002A*%
X166624000Y-192959966D03*
D14*
X166624000Y-187879966D03*
%TD*%
D11*
%TO.C,REF\u002A\u002A*%
X132791200Y-151688800D03*
D10*
X137871200Y-151688800D03*
D11*
X142951200Y-151688800D03*
D12*
X140411200Y-146608800D03*
X134061200Y-149148800D03*
%TD*%
D13*
%TO.C,REF\u002A\u002A*%
X301193200Y-154555166D03*
D14*
X301193200Y-149475166D03*
%TD*%
D13*
%TO.C,REF\u002A\u002A*%
X262504133Y-115100285D03*
D14*
X262504133Y-110020285D03*
%TD*%
D10*
%TO.C,REF\u002A\u002A*%
X195829133Y-113068285D03*
D11*
X190749133Y-113068285D03*
X200909133Y-113068285D03*
D12*
X198369133Y-107988285D03*
X192019133Y-110528285D03*
%TD*%
D11*
%TO.C,REF\u002A\u002A*%
X113487200Y-170942000D03*
X123647200Y-170942000D03*
D10*
X118567200Y-170942000D03*
D12*
X121107200Y-165862000D03*
X114757200Y-168402000D03*
%TD*%
D13*
%TO.C,REF\u002A\u002A*%
X359105200Y-155026983D03*
D14*
X359105200Y-149946983D03*
%TD*%
D11*
%TO.C,REF\u002A\u002A*%
X306781200Y-151688800D03*
X316941200Y-151688800D03*
D10*
X311861200Y-151688800D03*
D12*
X314401200Y-146608800D03*
X308051200Y-149148800D03*
%TD*%
D11*
%TO.C,REF\u002A\u002A*%
X132842000Y-190347600D03*
D10*
X137922000Y-190347600D03*
D11*
X143002000Y-190347600D03*
D12*
X140462000Y-185267600D03*
X134112000Y-187807600D03*
%TD*%
D13*
%TO.C,REF\u002A\u002A*%
X146888200Y-173300366D03*
D14*
X146888200Y-168220366D03*
%TD*%
D13*
%TO.C,REF\u002A\u002A*%
X185288133Y-114973285D03*
D14*
X185288133Y-109893285D03*
%TD*%
D13*
%TO.C,REF\u002A\u002A*%
X224109067Y-173606898D03*
D14*
X224109067Y-168526898D03*
%TD*%
D12*
%TO.C,REF\u002A\u002A*%
X302463200Y-142595600D03*
%TD*%
D11*
%TO.C,REF\u002A\u002A*%
X181686200Y-170942000D03*
X171526200Y-170942000D03*
D10*
X176606200Y-170942000D03*
D12*
X179146200Y-165862000D03*
X172796200Y-168402000D03*
%TD*%
D11*
%TO.C,REF\u002A\u002A*%
X345516200Y-170942000D03*
D10*
X350596200Y-170942000D03*
D11*
X355676200Y-170942000D03*
D12*
X353136200Y-165862000D03*
X346786200Y-168402000D03*
%TD*%
D11*
%TO.C,REF\u002A\u002A*%
X316941200Y-170942000D03*
X306781200Y-170942000D03*
D10*
X311861200Y-170942000D03*
D12*
X314401200Y-165862000D03*
X308051200Y-168402000D03*
%TD*%
D11*
%TO.C,REF\u002A\u002A*%
X201122067Y-170903715D03*
D10*
X196042067Y-170903715D03*
D11*
X190962067Y-170903715D03*
D12*
X198582067Y-165823715D03*
X192232067Y-168363715D03*
%TD*%
D11*
%TO.C,REF\u002A\u002A*%
X142870133Y-113068285D03*
X132710133Y-113068285D03*
D10*
X137790133Y-113068285D03*
D12*
X140330133Y-107988285D03*
X133980133Y-110528285D03*
%TD*%
D13*
%TO.C,REF\u002A\u002A*%
X108331000Y-133523966D03*
D14*
X108331000Y-128443966D03*
%TD*%
D13*
%TO.C,REF\u002A\u002A*%
X301498000Y-134031966D03*
D14*
X301498000Y-128951966D03*
%TD*%
D10*
%TO.C,REF\u002A\u002A*%
X311912000Y-132181600D03*
D11*
X306832000Y-132181600D03*
X316992000Y-132181600D03*
D12*
X314452000Y-127101600D03*
X308102000Y-129641600D03*
%TD*%
D11*
%TO.C,REF\u002A\u002A*%
X152222200Y-170942000D03*
X162382200Y-170942000D03*
D10*
X157302200Y-170942000D03*
D12*
X159842200Y-165862000D03*
X153492200Y-168402000D03*
%TD*%
D11*
%TO.C,REF\u002A\u002A*%
X345435133Y-113068285D03*
D10*
X350515133Y-113068285D03*
D11*
X355595133Y-113068285D03*
D12*
X353055133Y-107988285D03*
X346705133Y-110528285D03*
%TD*%
D11*
%TO.C,REF\u002A\u002A*%
X258948133Y-113068285D03*
X248788133Y-113068285D03*
D10*
X253868133Y-113068285D03*
D12*
X256408133Y-107988285D03*
X250058133Y-110528285D03*
%TD*%
D11*
%TO.C,REF\u002A\u002A*%
X104262133Y-113068285D03*
D10*
X99182133Y-113068285D03*
D11*
X94102133Y-113068285D03*
D12*
X101722133Y-107988285D03*
X95372133Y-110528285D03*
%TD*%
D11*
%TO.C,REF\u002A\u002A*%
X181605133Y-113068285D03*
D10*
X176525133Y-113068285D03*
D11*
X171445133Y-113068285D03*
D12*
X179065133Y-107988285D03*
X172715133Y-110528285D03*
%TD*%
D13*
%TO.C,REF\u002A\u002A*%
X185369200Y-154391983D03*
D14*
X185369200Y-149311983D03*
%TD*%
D11*
%TO.C,REF\u002A\u002A*%
X287604200Y-151688800D03*
X297764200Y-151688800D03*
D10*
X292684200Y-151688800D03*
D12*
X295224200Y-146608800D03*
X288874200Y-149148800D03*
%TD*%
D13*
%TO.C,REF\u002A\u002A*%
X321056000Y-193467966D03*
D14*
X321056000Y-188387966D03*
%TD*%
D13*
%TO.C,REF\u002A\u002A*%
X146761200Y-154047166D03*
D14*
X146761200Y-148967166D03*
%TD*%
D11*
%TO.C,REF\u002A\u002A*%
X142951200Y-170942000D03*
D10*
X137871200Y-170942000D03*
D11*
X132791200Y-170942000D03*
D12*
X140411200Y-165862000D03*
X134061200Y-168402000D03*
%TD*%
D10*
%TO.C,REF\u002A\u002A*%
X157353000Y-190347600D03*
D11*
X162433000Y-190347600D03*
X152273000Y-190347600D03*
D12*
X159893000Y-185267600D03*
X153543000Y-187807600D03*
%TD*%
D13*
%TO.C,REF\u002A\u002A*%
X204592133Y-115100285D03*
D14*
X204592133Y-110020285D03*
%TD*%
D11*
%TO.C,REF\u002A\u002A*%
X278460200Y-151688800D03*
X268300200Y-151688800D03*
D10*
X273380200Y-151688800D03*
D12*
X275920200Y-146608800D03*
X269570200Y-149148800D03*
%TD*%
D13*
%TO.C,REF\u002A\u002A*%
X127889000Y-192959966D03*
D14*
X127889000Y-187879966D03*
%TD*%
D11*
%TO.C,REF\u002A\u002A*%
X239730067Y-170903715D03*
X229570067Y-170903715D03*
D10*
X234650067Y-170903715D03*
D12*
X237190067Y-165823715D03*
X230840067Y-168363715D03*
%TD*%
D11*
%TO.C,REF\u002A\u002A*%
X104343200Y-170942000D03*
X94183200Y-170942000D03*
D10*
X99263200Y-170942000D03*
D12*
X101803200Y-165862000D03*
X95453200Y-168402000D03*
%TD*%
D13*
%TO.C,REF\u002A\u002A*%
X320624200Y-173935366D03*
D14*
X320624200Y-168855366D03*
%TD*%
D11*
%TO.C,REF\u002A\u002A*%
X345567000Y-132181600D03*
X355727000Y-132181600D03*
D10*
X350647000Y-132181600D03*
D12*
X353187000Y-127101600D03*
X346837000Y-129641600D03*
%TD*%
D11*
%TO.C,REF\u002A\u002A*%
X278379133Y-113068285D03*
D10*
X273299133Y-113068285D03*
D11*
X268219133Y-113068285D03*
D12*
X275839133Y-107988285D03*
X269489133Y-110528285D03*
%TD*%
D10*
%TO.C,REF\u002A\u002A*%
X176657000Y-132181600D03*
D11*
X171577000Y-132181600D03*
X181737000Y-132181600D03*
D12*
X179197000Y-127101600D03*
X172847000Y-129641600D03*
%TD*%
D13*
%TO.C,REF\u002A\u002A*%
X147320000Y-192832966D03*
D14*
X147320000Y-187752966D03*
%TD*%
D13*
%TO.C,REF\u002A\u002A*%
X262844067Y-173606898D03*
D14*
X262844067Y-168526898D03*
%TD*%
D12*
%TO.C,REF\u002A\u002A*%
X225247200Y-141986000D03*
%TD*%
D13*
%TO.C,REF\u002A\u002A*%
X262585200Y-154518983D03*
D14*
X262585200Y-149438983D03*
%TD*%
D13*
%TO.C,REF\u002A\u002A*%
X108153200Y-173300366D03*
D14*
X108153200Y-168220366D03*
%TD*%
D10*
%TO.C,REF\u002A\u002A*%
X311780133Y-113068285D03*
D11*
X306700133Y-113068285D03*
X316860133Y-113068285D03*
D12*
X314320133Y-107988285D03*
X307970133Y-110528285D03*
%TD*%
D13*
%TO.C,REF\u002A\u002A*%
X243586000Y-133777966D03*
D14*
X243586000Y-128697966D03*
%TD*%
D15*
%TO.C,REF\u002A\u002A*%
X86664800Y-199186800D03*
%TD*%
D13*
%TO.C,REF\u002A\u002A*%
X359232200Y-174280183D03*
D14*
X359232200Y-169200183D03*
%TD*%
D11*
%TO.C,REF\u002A\u002A*%
X248920000Y-132181600D03*
X259080000Y-132181600D03*
D10*
X254000000Y-132181600D03*
D12*
X256540000Y-127101600D03*
X250190000Y-129641600D03*
%TD*%
D13*
%TO.C,REF\u002A\u002A*%
X301752000Y-193340966D03*
D14*
X301752000Y-188260966D03*
%TD*%
D13*
%TO.C,REF\u002A\u002A*%
X127330200Y-154174166D03*
D14*
X127330200Y-149094166D03*
%TD*%
D11*
%TO.C,REF\u002A\u002A*%
X162382200Y-151688800D03*
X152222200Y-151688800D03*
D10*
X157302200Y-151688800D03*
D12*
X159842200Y-146608800D03*
X153492200Y-149148800D03*
%TD*%
D10*
%TO.C,REF\u002A\u002A*%
X99314000Y-132181600D03*
D11*
X94234000Y-132181600D03*
X104394000Y-132181600D03*
D12*
X101854000Y-127101600D03*
X95504000Y-129641600D03*
%TD*%
D13*
%TO.C,REF\u002A\u002A*%
X108585000Y-192832966D03*
D14*
X108585000Y-187752966D03*
%TD*%
D15*
%TO.C,REF\u002A\u002A*%
X363626400Y-199644000D03*
%TD*%
D11*
%TO.C,REF\u002A\u002A*%
X104394000Y-190347600D03*
X94234000Y-190347600D03*
D10*
X99314000Y-190347600D03*
D12*
X101854000Y-185267600D03*
X95504000Y-187807600D03*
%TD*%
D13*
%TO.C,REF\u002A\u002A*%
X146680133Y-114628468D03*
D14*
X146680133Y-109548468D03*
%TD*%
D13*
%TO.C,REF\u002A\u002A*%
X243281200Y-154301166D03*
D14*
X243281200Y-149221166D03*
%TD*%
D11*
%TO.C,REF\u002A\u002A*%
X220472000Y-132181600D03*
D10*
X215392000Y-132181600D03*
D11*
X210312000Y-132181600D03*
D12*
X217932000Y-127101600D03*
X211582000Y-129641600D03*
%TD*%
D13*
%TO.C,REF\u002A\u002A*%
X262890000Y-133995783D03*
D14*
X262890000Y-128915783D03*
%TD*%
D13*
%TO.C,REF\u002A\u002A*%
X108026200Y-154047166D03*
D14*
X108026200Y-148967166D03*
%TD*%
D13*
%TO.C,REF\u002A\u002A*%
X127249133Y-114755468D03*
D14*
X127249133Y-109675468D03*
%TD*%
D12*
%TO.C,REF\u002A\u002A*%
X247929400Y-190449200D03*
%TD*%
D11*
%TO.C,REF\u002A\u002A*%
X355727000Y-190347600D03*
X345567000Y-190347600D03*
D10*
X350647000Y-190347600D03*
D12*
X353187000Y-185267600D03*
X346837000Y-187807600D03*
%TD*%
D13*
%TO.C,REF\u002A\u002A*%
X234696000Y-192542783D03*
D14*
X234696000Y-187462783D03*
%TD*%
D10*
%TO.C,REF\u002A\u002A*%
X157353000Y-132181600D03*
D11*
X162433000Y-132181600D03*
X152273000Y-132181600D03*
D12*
X159893000Y-127101600D03*
X153543000Y-129641600D03*
%TD*%
D13*
%TO.C,REF\u002A\u002A*%
X147066000Y-133523966D03*
D14*
X147066000Y-128443966D03*
%TD*%
D11*
%TO.C,REF\u002A\u002A*%
X104343200Y-151688800D03*
D10*
X99263200Y-151688800D03*
D11*
X94183200Y-151688800D03*
D12*
X101803200Y-146608800D03*
X95453200Y-149148800D03*
%TD*%
D10*
%TO.C,REF\u002A\u002A*%
X273431000Y-190347600D03*
D11*
X278511000Y-190347600D03*
X268351000Y-190347600D03*
D12*
X275971000Y-185267600D03*
X269621000Y-187807600D03*
%TD*%
D11*
%TO.C,REF\u002A\u002A*%
X123698000Y-132181600D03*
D10*
X118618000Y-132181600D03*
D11*
X113538000Y-132181600D03*
D12*
X121158000Y-127101600D03*
X114808000Y-129641600D03*
%TD*%
D13*
%TO.C,REF\u002A\u002A*%
X223896133Y-114755468D03*
D14*
X223896133Y-109675468D03*
%TD*%
D10*
%TO.C,REF\u002A\u002A*%
X195961000Y-132181600D03*
D11*
X201041000Y-132181600D03*
X190881000Y-132181600D03*
D12*
X198501000Y-127101600D03*
X192151000Y-129641600D03*
%TD*%
D15*
%TO.C,REF\u002A\u002A*%
X86360000Y-152196800D03*
%TD*%
D11*
%TO.C,REF\u002A\u002A*%
X220340133Y-113068285D03*
D10*
X215260133Y-113068285D03*
D11*
X210180133Y-113068285D03*
D12*
X217800133Y-107988285D03*
X211450133Y-110528285D03*
%TD*%
D13*
%TO.C,REF\u002A\u002A*%
X359410000Y-134503783D03*
D14*
X359410000Y-129423783D03*
%TD*%
D10*
%TO.C,REF\u002A\u002A*%
X213398000Y-198648600D03*
D11*
X220218000Y-190408600D03*
X230378000Y-190408600D03*
D16*
X213398000Y-183408600D03*
D10*
X225298000Y-190408600D03*
X237198000Y-198648600D03*
D16*
X237198000Y-183408600D03*
D12*
X227838000Y-185328600D03*
X221488000Y-187868600D03*
%TD*%
D13*
%TO.C,REF\u002A\u002A*%
X340360000Y-193685783D03*
D14*
X340360000Y-188605783D03*
%TD*%
D11*
%TO.C,REF\u002A\u002A*%
X268300200Y-170942000D03*
X278460200Y-170942000D03*
D10*
X273380200Y-170942000D03*
D12*
X275920200Y-165862000D03*
X269570200Y-168402000D03*
%TD*%
D13*
%TO.C,REF\u002A\u002A*%
X243540067Y-173479898D03*
D14*
X243540067Y-168399898D03*
%TD*%
D12*
%TO.C,REF\u002A\u002A*%
X147878800Y-142240000D03*
%TD*%
D11*
%TO.C,REF\u002A\u002A*%
X248869200Y-151688800D03*
D10*
X253949200Y-151688800D03*
D11*
X259029200Y-151688800D03*
D12*
X256489200Y-146608800D03*
X250139200Y-149148800D03*
%TD*%
D10*
%TO.C,REF\u002A\u002A*%
X118618000Y-190347600D03*
D11*
X113538000Y-190347600D03*
X123698000Y-190347600D03*
D12*
X121158000Y-185267600D03*
X114808000Y-187807600D03*
%TD*%
D11*
%TO.C,REF\u002A\u002A*%
X278511000Y-132181600D03*
D10*
X273431000Y-132181600D03*
D11*
X268351000Y-132181600D03*
D12*
X275971000Y-127101600D03*
X269621000Y-129641600D03*
%TD*%
D11*
%TO.C,REF\u002A\u002A*%
X326263000Y-132181600D03*
D10*
X331343000Y-132181600D03*
D11*
X336423000Y-132181600D03*
D12*
X333883000Y-127101600D03*
X327533000Y-129641600D03*
%TD*%
D11*
%TO.C,REF\u002A\u002A*%
X200990200Y-151688800D03*
X190830200Y-151688800D03*
D10*
X195910200Y-151688800D03*
D12*
X198450200Y-146608800D03*
X192100200Y-149148800D03*
%TD*%
D11*
%TO.C,REF\u002A\u002A*%
X171526200Y-151688800D03*
X181686200Y-151688800D03*
D10*
X176606200Y-151688800D03*
D12*
X179146200Y-146608800D03*
X172796200Y-149148800D03*
%TD*%
D10*
%TO.C,REF\u002A\u002A*%
X331292200Y-170942000D03*
D11*
X326212200Y-170942000D03*
X336372200Y-170942000D03*
D12*
X333832200Y-165862000D03*
X327482200Y-168402000D03*
%TD*%
D15*
%TO.C,REF\u002A\u002A*%
X86614000Y-101600000D03*
%TD*%
D17*
%TO.C,U1*%
X351277133Y-105194285D03*
D18*
X348737133Y-105194285D03*
X346197133Y-105194285D03*
X343657133Y-105194285D03*
X341117133Y-105194285D03*
X338577133Y-105194285D03*
X336037133Y-105194285D03*
X333497133Y-105194285D03*
X330957133Y-105194285D03*
X328417133Y-105194285D03*
X325877133Y-105194285D03*
X323337133Y-105422885D03*
X323337133Y-120434285D03*
X325877133Y-120434285D03*
X328417133Y-120434285D03*
X330957133Y-120434285D03*
X333497133Y-120434285D03*
X336037133Y-120434285D03*
X338577133Y-120434285D03*
X341117133Y-120434285D03*
X343657133Y-120434285D03*
X346197133Y-120434285D03*
X348737133Y-120434285D03*
X351277133Y-120434285D03*
X323337133Y-107734285D03*
X323337133Y-110274285D03*
X323337133Y-112814285D03*
X323337133Y-115354285D03*
X323337133Y-117894285D03*
%TD*%
D13*
%TO.C,REF\u002A\u002A*%
X107945133Y-114628468D03*
D14*
X107945133Y-109548468D03*
%TD*%
D11*
%TO.C,REF\u002A\u002A*%
X336372200Y-151688800D03*
X326212200Y-151688800D03*
D10*
X331292200Y-151688800D03*
D12*
X333832200Y-146608800D03*
X327482200Y-149148800D03*
%TD*%
D10*
%TO.C,REF\u002A\u002A*%
X331211133Y-113068285D03*
D11*
X326131133Y-113068285D03*
X336291133Y-113068285D03*
D12*
X333751133Y-107988285D03*
X327401133Y-110528285D03*
%TD*%
D13*
%TO.C,REF\u002A\u002A*%
X340106000Y-134376783D03*
D14*
X340106000Y-129296783D03*
%TD*%
D13*
%TO.C,REF\u002A\u002A*%
X166065200Y-154174166D03*
D14*
X166065200Y-149094166D03*
%TD*%
D13*
%TO.C,REF\u002A\u002A*%
X301320200Y-173808366D03*
D14*
X301320200Y-168728366D03*
%TD*%
D13*
%TO.C,REF\u002A\u002A*%
X127457200Y-173427366D03*
D14*
X127457200Y-168347366D03*
%TD*%
D13*
%TO.C,REF\u002A\u002A*%
X243200133Y-114882468D03*
D14*
X243200133Y-109802468D03*
%TD*%
D10*
%TO.C,REF\u002A\u002A*%
X176657000Y-190347600D03*
D11*
X181737000Y-190347600D03*
X171577000Y-190347600D03*
D12*
X179197000Y-185267600D03*
X172847000Y-187807600D03*
%TD*%
D13*
%TO.C,REF\u002A\u002A*%
X281808133Y-115227285D03*
D14*
X281808133Y-110147285D03*
%TD*%
D13*
%TO.C,REF\u002A\u002A*%
X223977200Y-154174166D03*
D14*
X223977200Y-149094166D03*
%TD*%
D13*
%TO.C,REF\u002A\u002A*%
X339928200Y-174153183D03*
D14*
X339928200Y-169073183D03*
%TD*%
D13*
%TO.C,REF\u002A\u002A*%
X165984133Y-114755468D03*
D14*
X165984133Y-109675468D03*
%TD*%
D11*
%TO.C,REF\u002A\u002A*%
X220421200Y-151688800D03*
D10*
X215341200Y-151688800D03*
D11*
X210261200Y-151688800D03*
D12*
X217881200Y-146608800D03*
X211531200Y-149148800D03*
%TD*%
D11*
%TO.C,REF\u002A\u002A*%
X239776000Y-132181600D03*
X229616000Y-132181600D03*
D10*
X234696000Y-132181600D03*
D12*
X237236000Y-127101600D03*
X230886000Y-129641600D03*
%TD*%
D13*
%TO.C,REF\u002A\u002A*%
X204805067Y-173479898D03*
D14*
X204805067Y-168399898D03*
%TD*%
D11*
%TO.C,REF\u002A\u002A*%
X229565200Y-151688800D03*
D10*
X234645200Y-151688800D03*
D11*
X239725200Y-151688800D03*
D12*
X237185200Y-146608800D03*
X230835200Y-149148800D03*
%TD*%
D13*
%TO.C,REF\u002A\u002A*%
X320497200Y-154682166D03*
D14*
X320497200Y-149602166D03*
%TD*%
D10*
%TO.C,REF\u002A\u002A*%
X311912000Y-190347600D03*
D11*
X316992000Y-190347600D03*
X306832000Y-190347600D03*
D12*
X314452000Y-185267600D03*
X308102000Y-187807600D03*
%TD*%
D11*
%TO.C,REF\u002A\u002A*%
X297815000Y-132181600D03*
D10*
X292735000Y-132181600D03*
D11*
X287655000Y-132181600D03*
D12*
X295275000Y-127101600D03*
X288925000Y-129641600D03*
%TD*%
D11*
%TO.C,REF\u002A\u002A*%
X287523133Y-113068285D03*
X297683133Y-113068285D03*
D10*
X292603133Y-113068285D03*
D12*
X295143133Y-107988285D03*
X288793133Y-110528285D03*
%TD*%
D15*
%TO.C,REF\u002A\u002A*%
X363728000Y-101193600D03*
%TD*%
D13*
%TO.C,REF\u002A\u002A*%
X282194000Y-134122783D03*
D14*
X282194000Y-129042783D03*
%TD*%
D13*
%TO.C,REF\u002A\u002A*%
X281889200Y-154645983D03*
D14*
X281889200Y-149565983D03*
%TD*%
D13*
%TO.C,REF\u002A\u002A*%
X224282000Y-133650966D03*
D14*
X224282000Y-128570966D03*
%TD*%
D10*
%TO.C,REF\u002A\u002A*%
X331343000Y-190347600D03*
D11*
X336423000Y-190347600D03*
X326263000Y-190347600D03*
D12*
X333883000Y-185267600D03*
X327533000Y-187807600D03*
%TD*%
D13*
%TO.C,REF\u002A\u002A*%
X185496200Y-173645183D03*
D14*
X185496200Y-168565183D03*
%TD*%
D11*
%TO.C,REF\u002A\u002A*%
X210266067Y-170903715D03*
D10*
X215346067Y-170903715D03*
D11*
X220426067Y-170903715D03*
D12*
X217886067Y-165823715D03*
X211536067Y-168363715D03*
%TD*%
D10*
%TO.C,REF\u002A\u002A*%
X254081067Y-170903715D03*
D11*
X259161067Y-170903715D03*
X249001067Y-170903715D03*
D12*
X256621067Y-165823715D03*
X250271067Y-168363715D03*
%TD*%
D13*
%TO.C,REF\u002A\u002A*%
X282448000Y-193431783D03*
D14*
X282448000Y-188351783D03*
%TD*%
D13*
%TO.C,REF\u002A\u002A*%
X320675000Y-134503783D03*
D14*
X320675000Y-129423783D03*
%TD*%
D13*
%TO.C,REF\u002A\u002A*%
X204673200Y-154518983D03*
D14*
X204673200Y-149438983D03*
%TD*%
D13*
%TO.C,REF\u002A\u002A*%
X204978000Y-133995783D03*
D14*
X204978000Y-128915783D03*
%TD*%
D13*
%TO.C,REF\u002A\u002A*%
X127635000Y-133650966D03*
D14*
X127635000Y-128570966D03*
%TD*%
D13*
%TO.C,REF\u002A\u002A*%
X185928000Y-193177783D03*
D14*
X185928000Y-188097783D03*
%TD*%
D13*
%TO.C,REF\u002A\u002A*%
X301112133Y-115136468D03*
D14*
X301112133Y-110056468D03*
%TD*%
D11*
%TO.C,REF\u002A\u002A*%
X287655000Y-190347600D03*
X297815000Y-190347600D03*
D10*
X292735000Y-190347600D03*
D12*
X295275000Y-185267600D03*
X288925000Y-187807600D03*
%TD*%
D13*
%TO.C,REF\u002A\u002A*%
X166370000Y-133650966D03*
D14*
X166370000Y-128570966D03*
%TD*%
D10*
%TO.C,REF\u002A\u002A*%
X350596200Y-151688800D03*
D11*
X355676200Y-151688800D03*
X345516200Y-151688800D03*
D12*
X353136200Y-146608800D03*
X346786200Y-149148800D03*
%TD*%
D13*
%TO.C,REF\u002A\u002A*%
X166192200Y-173427366D03*
D14*
X166192200Y-168347366D03*
%TD*%
D13*
%TO.C,REF\u002A\u002A*%
X185674000Y-133868783D03*
D14*
X185674000Y-128788783D03*
%TD*%
D10*
%TO.C,REF\u002A\u002A*%
X157221133Y-113068285D03*
D11*
X152141133Y-113068285D03*
X162301133Y-113068285D03*
D12*
X159761133Y-107988285D03*
X153411133Y-110528285D03*
%TD*%
D13*
%TO.C,REF\u002A\u002A*%
X282016200Y-173899183D03*
D14*
X282016200Y-168819183D03*
%TD*%
D13*
%TO.C,REF\u002A\u002A*%
X339720133Y-115481285D03*
D14*
X339720133Y-110401285D03*
%TD*%
D11*
%TO.C,REF\u002A\u002A*%
X143002000Y-132181600D03*
D10*
X137922000Y-132181600D03*
D11*
X132842000Y-132181600D03*
D12*
X140462000Y-127101600D03*
X134112000Y-129641600D03*
%TD*%
D11*
%TO.C,REF\u002A\u002A*%
X113487200Y-151688800D03*
X123647200Y-151688800D03*
D10*
X118567200Y-151688800D03*
D12*
X121107200Y-146608800D03*
X114757200Y-149148800D03*
%TD*%
D13*
%TO.C,REF\u002A\u002A*%
X359024133Y-115608285D03*
D14*
X359024133Y-110528285D03*
%TD*%
D11*
%TO.C,REF\u002A\u002A*%
X123566133Y-113068285D03*
X113406133Y-113068285D03*
D10*
X118486133Y-113068285D03*
D12*
X121026133Y-107988285D03*
X114676133Y-110528285D03*
%TD*%
D13*
%TO.C,REF\u002A\u002A*%
X339801200Y-154899983D03*
D14*
X339801200Y-149819983D03*
%TD*%
M02*
