%FSLAX45Y45*%
G04 Gerber Fmt 4.5, Leading zero omitted, Abs format (unit mm)*
G04 Created by KiCad (PCBNEW (6.0.1)) date 2022-09-15 19:48:04*
%MOMM*%
%LPD*%
G01*
G04 APERTURE LIST*
%TA.AperFunction,Profile*%
%ADD10C,0.100000*%
%TD*%
%ADD11C,0.200000*%
%ADD12C,0.030000*%
%ADD13C,0.040000*%
%ADD14C,0.070000*%
%ADD15C,0.080000*%
%ADD16C,0.099060*%
%ADD17C,0.100000*%
%ADD18C,0.109220*%
%ADD19C,0.120000*%
%ADD20C,0.147000*%
%ADD21C,0.320000*%
G04 APERTURE END LIST*
D10*
X20651822Y-14649832D02*
X21401822Y-14649832D01*
X24674780Y-19239300D02*
X17395140Y-19234220D01*
X20601822Y-14599832D02*
X20601822Y-13024832D01*
X18820080Y-7796600D02*
X19958000Y-7039680D01*
X36386720Y-13887520D02*
X32851040Y-16452920D01*
X5794960Y-13669080D02*
X7125920Y-5734120D01*
X20651822Y-12974832D02*
X21401822Y-12974832D01*
X20601822Y-14599832D02*
G75*
G03*
X20651822Y-14649832I50000J0D01*
G01*
X9244280Y-16310680D02*
X5794960Y-13669080D01*
X21451822Y-13024832D02*
X21451822Y-14599832D01*
X34999880Y-5734120D02*
X36386720Y-13887520D01*
X32851040Y-16452920D02*
X24674780Y-19239300D01*
X23265080Y-7776280D02*
X34999880Y-5734120D01*
X7125920Y-5734120D02*
X18820080Y-7796600D01*
X22274480Y-7039680D02*
X23265080Y-7776280D01*
X21451822Y-13024832D02*
G75*
G03*
X21401822Y-12974832I-50000J0D01*
G01*
X21401822Y-14649832D02*
G75*
G03*
X21451822Y-14599832I0J50000D01*
G01*
X20651822Y-12974832D02*
G75*
G03*
X20601822Y-13024832I0J-50000D01*
G01*
X17395140Y-19234220D02*
X9244280Y-16310680D01*
X19958000Y-7039680D02*
X22274480Y-7039680D01*
D11*
D12*
X19505622Y-14626032D02*
X19535622Y-14656032D01*
X19535622Y-14626032D02*
X19505622Y-14656032D01*
X19739022Y-14211832D02*
X19769022Y-14241832D01*
X19769022Y-14211832D02*
X19739022Y-14241832D01*
X19775622Y-13081032D02*
X19805622Y-13111032D01*
X19805622Y-13081032D02*
X19775622Y-13111032D01*
X19845622Y-13271032D02*
X19875622Y-13301032D01*
X19875622Y-13271032D02*
X19845622Y-13301032D01*
X19885622Y-13831032D02*
X19915622Y-13861032D01*
X19915622Y-13831032D02*
X19885622Y-13861032D01*
X19905622Y-13361032D02*
X19935622Y-13391032D01*
X19935622Y-13361032D02*
X19905622Y-13391032D01*
X20065622Y-12771032D02*
X20095622Y-12801032D01*
X20095622Y-12771032D02*
X20065622Y-12801032D01*
X20285622Y-13661032D02*
X20315622Y-13691032D01*
X20315622Y-13661032D02*
X20285622Y-13691032D01*
X20496899Y-14712309D02*
X20526899Y-14742309D01*
X20526899Y-14712309D02*
X20496899Y-14742309D01*
X21780622Y-13816032D02*
X21810622Y-13846032D01*
X21810622Y-13816032D02*
X21780622Y-13846032D01*
X21821822Y-14389632D02*
X21851822Y-14419632D01*
X21851822Y-14389632D02*
X21821822Y-14419632D01*
X21895622Y-13206032D02*
X21925622Y-13236032D01*
X21925622Y-13206032D02*
X21895622Y-13236032D01*
X22115622Y-12726032D02*
X22145622Y-12756032D01*
X22145622Y-12726032D02*
X22115622Y-12756032D01*
X22470521Y-13475232D02*
X22500521Y-13505232D01*
X22500521Y-13475232D02*
X22470521Y-13505232D01*
D13*
X8717959Y-14012837D02*
G75*
G03*
X8717959Y-14012837I-20000J0D01*
G01*
X9057290Y-12117649D02*
G75*
G03*
X9057290Y-12117649I-20000J0D01*
G01*
X9381323Y-10250714D02*
G75*
G03*
X9381323Y-10250714I-20000J0D01*
G01*
X9707700Y-8311975D02*
G75*
G03*
X9707700Y-8311975I-20000J0D01*
G01*
X10624035Y-14348929D02*
G75*
G03*
X10624035Y-14348929I-20000J0D01*
G01*
X10928346Y-12447567D02*
G75*
G03*
X10928346Y-12447567I-20000J0D01*
G01*
X11252378Y-10580631D02*
G75*
G03*
X11252378Y-10580631I-20000J0D01*
G01*
X11598767Y-8645421D02*
G75*
G03*
X11598767Y-8645421I-20000J0D01*
G01*
X12159880Y-16579920D02*
G75*
G03*
X12159880Y-16579920I-20000J0D01*
G01*
X12470076Y-14674436D02*
G75*
G03*
X12470076Y-14674436I-20000J0D01*
G01*
X12829419Y-12782777D02*
G75*
G03*
X12829419Y-12782777I-20000J0D01*
G01*
X13148449Y-10914960D02*
G75*
G03*
X13148449Y-10914960I-20000J0D01*
G01*
X13504842Y-8981513D02*
G75*
G03*
X13504842Y-8981513I-20000J0D01*
G01*
X14075961Y-16917777D02*
G75*
G03*
X14075961Y-16917777I-20000J0D01*
G01*
X14406169Y-15015822D02*
G75*
G03*
X14406169Y-15015822I-20000J0D01*
G01*
X14735494Y-13118870D02*
G75*
G03*
X14735494Y-13118870I-20000J0D01*
G01*
X15059527Y-11251934D02*
G75*
G03*
X15059527Y-11251934I-20000J0D01*
G01*
X15395910Y-9314960D02*
G75*
G03*
X15395910Y-9314960I-20000J0D01*
G01*
X15917000Y-17242402D02*
G75*
G03*
X15917000Y-17242402I-20000J0D01*
G01*
X16159211Y-15283664D02*
G75*
G03*
X16159211Y-15283664I-20000J0D01*
G01*
X16478241Y-13415846D02*
G75*
G03*
X16478241Y-13415846I-20000J0D01*
G01*
X16890561Y-11574795D02*
G75*
G03*
X16890561Y-11574795I-20000J0D01*
G01*
X17247837Y-9636346D02*
G75*
G03*
X17247837Y-9636346I-20000J0D01*
G01*
X17318812Y-15737630D02*
G75*
G03*
X17318812Y-15737630I-20000J0D01*
G01*
X18713080Y-8304600D02*
G75*
G03*
X18713080Y-8304600I-20000J0D01*
G01*
X18850240Y-8411280D02*
G75*
G03*
X18850240Y-8411280I-20000J0D01*
G01*
X22116680Y-10809040D02*
G75*
G03*
X22116680Y-10809040I-20000J0D01*
G01*
X22406240Y-10814120D02*
G75*
G03*
X22406240Y-10814120I-20000J0D01*
G01*
X22853280Y-8711000D02*
G75*
G03*
X22853280Y-8711000I-20000J0D01*
G01*
X25687920Y-17646720D02*
G75*
G03*
X25687920Y-17646720I-20000J0D01*
G01*
X26471829Y-9391804D02*
G75*
G03*
X26471829Y-9391804I-20000J0D01*
G01*
X26764371Y-11284926D02*
G75*
G03*
X26764371Y-11284926I-20000J0D01*
G01*
X27102530Y-13144212D02*
G75*
G03*
X27102530Y-13144212I-20000J0D01*
G01*
X27460990Y-15030868D02*
G75*
G03*
X27460990Y-15030868I-20000J0D01*
G01*
X27778244Y-16976375D02*
G75*
G03*
X27778244Y-16976375I-20000J0D01*
G01*
X28332880Y-9063651D02*
G75*
G03*
X28332880Y-9063651I-20000J0D01*
G01*
X28700464Y-10943540D02*
G75*
G03*
X28700464Y-10943540I-20000J0D01*
G01*
X29008606Y-12808119D02*
G75*
G03*
X29008606Y-12808119I-20000J0D01*
G01*
X29362063Y-14695658D02*
G75*
G03*
X29362063Y-14695658I-20000J0D01*
G01*
X29694325Y-16638518D02*
G75*
G03*
X29694325Y-16638518I-20000J0D01*
G01*
X30258967Y-8724030D02*
G75*
G03*
X30258967Y-8724030I-20000J0D01*
G01*
X30591531Y-10610094D02*
G75*
G03*
X30591531Y-10610094I-20000J0D01*
G01*
X30884664Y-12477319D02*
G75*
G03*
X30884664Y-12477319I-20000J0D01*
G01*
X31093040Y-14390440D02*
G75*
G03*
X31093040Y-14390440I-20000J0D01*
G01*
X31242822Y-14420771D02*
G75*
G03*
X31242822Y-14420771I-20000J0D01*
G01*
X31515353Y-16317421D02*
G75*
G03*
X31515353Y-16317421I-20000J0D01*
G01*
X32115014Y-8396759D02*
G75*
G03*
X32115014Y-8396759I-20000J0D01*
G01*
X32457584Y-10281059D02*
G75*
G03*
X32457584Y-10281059I-20000J0D01*
G01*
X32765726Y-12145637D02*
G75*
G03*
X32765726Y-12145637I-20000J0D01*
G01*
X33014124Y-14051701D02*
G75*
G03*
X33014124Y-14051701I-20000J0D01*
G01*
X33887488Y-8063590D02*
G75*
G03*
X33887488Y-8063590I-20000J0D01*
G01*
X34223581Y-9969666D02*
G75*
G03*
X34223581Y-9969666I-20000J0D01*
G01*
X34581751Y-11825423D02*
G75*
G03*
X34581751Y-11825423I-20000J0D01*
G01*
X34955220Y-13709433D02*
G75*
G03*
X34955220Y-13709433I-20000J0D01*
G01*
D14*
X20491722Y-13141832D02*
X20491722Y-13211832D01*
X20456722Y-13176832D02*
X20526722Y-13176832D01*
X20491722Y-13319832D02*
X20491722Y-13389832D01*
X20456722Y-13354832D02*
X20526722Y-13354832D01*
X20491722Y-13497832D02*
X20491722Y-13567832D01*
X20456722Y-13532832D02*
X20526722Y-13532832D01*
X20491722Y-13675832D02*
X20491722Y-13745832D01*
X20456722Y-13710832D02*
X20526722Y-13710832D01*
X20491722Y-13853832D02*
X20491722Y-13923832D01*
X20456722Y-13888832D02*
X20526722Y-13888832D01*
X20491722Y-14031832D02*
X20491722Y-14101832D01*
X20456722Y-14066832D02*
X20526722Y-14066832D01*
X20491722Y-14209832D02*
X20491722Y-14279832D01*
X20456722Y-14244832D02*
X20526722Y-14244832D01*
X20491722Y-14387832D02*
X20491722Y-14457832D01*
X20456722Y-14422832D02*
X20526722Y-14422832D01*
X21561722Y-13052832D02*
X21561722Y-13122832D01*
X21526722Y-13087832D02*
X21596722Y-13087832D01*
X21561722Y-13230832D02*
X21561722Y-13300832D01*
X21526722Y-13265832D02*
X21596722Y-13265832D01*
X21561722Y-13408832D02*
X21561722Y-13478832D01*
X21526722Y-13443832D02*
X21596722Y-13443832D01*
X21561722Y-13586832D02*
X21561722Y-13656832D01*
X21526722Y-13621832D02*
X21596722Y-13621832D01*
X21561722Y-13764832D02*
X21561722Y-13834832D01*
X21526722Y-13799832D02*
X21596722Y-13799832D01*
X21561722Y-13942832D02*
X21561722Y-14012832D01*
X21526722Y-13977832D02*
X21596722Y-13977832D01*
X21561722Y-14120832D02*
X21561722Y-14190832D01*
X21526722Y-14155832D02*
X21596722Y-14155832D01*
X21561722Y-14298832D02*
X21561722Y-14368832D01*
X21526722Y-14333832D02*
X21596722Y-14333832D01*
D15*
X7846045Y-13330478D02*
X7846045Y-13273909D01*
X7789476Y-13273909D01*
X7789476Y-13330478D01*
X7846045Y-13330478D01*
X7978365Y-12580054D02*
X7978365Y-12523485D01*
X7921796Y-12523485D01*
X7921796Y-12580054D01*
X7978365Y-12580054D01*
X8173304Y-11386736D02*
X8173304Y-11330167D01*
X8116735Y-11330167D01*
X8116735Y-11386736D01*
X8173304Y-11386736D01*
X8305624Y-10636313D02*
X8305624Y-10579744D01*
X8249055Y-10579744D01*
X8249055Y-10636313D01*
X8305624Y-10636313D01*
X8504104Y-9510677D02*
X8504104Y-9454108D01*
X8447535Y-9454108D01*
X8447535Y-9510677D01*
X8504104Y-9510677D01*
X8636424Y-8760254D02*
X8636424Y-8703685D01*
X8579855Y-8703685D01*
X8579855Y-8760254D01*
X8636424Y-8760254D01*
X8850202Y-7606366D02*
X8850202Y-7549797D01*
X8793633Y-7549797D01*
X8793633Y-7606366D01*
X8850202Y-7606366D01*
X8982522Y-6855942D02*
X8982522Y-6799373D01*
X8925953Y-6799373D01*
X8925953Y-6855942D01*
X8982522Y-6855942D01*
X9736230Y-13668927D02*
X9736230Y-13612358D01*
X9679661Y-13612358D01*
X9679661Y-13668927D01*
X9736230Y-13668927D01*
X9868550Y-12918503D02*
X9868550Y-12861934D01*
X9811981Y-12861934D01*
X9811981Y-12918503D01*
X9868550Y-12918503D01*
X10063489Y-11725185D02*
X10063489Y-11668616D01*
X10006920Y-11668616D01*
X10006920Y-11725185D01*
X10063489Y-11725185D01*
X10195809Y-10974762D02*
X10195809Y-10918193D01*
X10139240Y-10918193D01*
X10139240Y-10974762D01*
X10195809Y-10974762D01*
X10394289Y-9849126D02*
X10394289Y-9792557D01*
X10337720Y-9792557D01*
X10337720Y-9849126D01*
X10394289Y-9849126D01*
X10526609Y-9098703D02*
X10526609Y-9042134D01*
X10470040Y-9042134D01*
X10470040Y-9098703D01*
X10526609Y-9098703D01*
X10740387Y-7944815D02*
X10740387Y-7888246D01*
X10683818Y-7888246D01*
X10683818Y-7944815D01*
X10740387Y-7944815D01*
X10872707Y-7194391D02*
X10872707Y-7137822D01*
X10816138Y-7137822D01*
X10816138Y-7194391D01*
X10872707Y-7194391D01*
X11295615Y-15883434D02*
X11295615Y-15826865D01*
X11239046Y-15826865D01*
X11239046Y-15883434D01*
X11295615Y-15883434D01*
X11427935Y-15133011D02*
X11427935Y-15076442D01*
X11371366Y-15076442D01*
X11371366Y-15133011D01*
X11427935Y-15133011D01*
X11627587Y-13971474D02*
X11627587Y-13914905D01*
X11571018Y-13914905D01*
X11571018Y-13971474D01*
X11627587Y-13971474D01*
X11759907Y-13221050D02*
X11759907Y-13164481D01*
X11703338Y-13164481D01*
X11703338Y-13221050D01*
X11759907Y-13221050D01*
X11954846Y-12027732D02*
X11954846Y-11971163D01*
X11898277Y-11971163D01*
X11898277Y-12027732D01*
X11954846Y-12027732D01*
X12087166Y-11277309D02*
X12087166Y-11220740D01*
X12030597Y-11220740D01*
X12030597Y-11277309D01*
X12087166Y-11277309D01*
X12285646Y-10151673D02*
X12285646Y-10095104D01*
X12229077Y-10095104D01*
X12229077Y-10151673D01*
X12285646Y-10151673D01*
X12417966Y-9401250D02*
X12417966Y-9344681D01*
X12361397Y-9344681D01*
X12361397Y-9401250D01*
X12417966Y-9401250D01*
X12631744Y-8247362D02*
X12631744Y-8190793D01*
X12575175Y-8190793D01*
X12575175Y-8247362D01*
X12631744Y-8247362D01*
X12764064Y-7496938D02*
X12764064Y-7440369D01*
X12707495Y-7440369D01*
X12707495Y-7496938D01*
X12764064Y-7496938D01*
X13184036Y-16231889D02*
X13184036Y-16175320D01*
X13127467Y-16175320D01*
X13127467Y-16231889D01*
X13184036Y-16231889D01*
X13316356Y-15481466D02*
X13316356Y-15424897D01*
X13259787Y-15424897D01*
X13259787Y-15481466D01*
X13316356Y-15481466D01*
X13516008Y-14319929D02*
X13516008Y-14263360D01*
X13459439Y-14263360D01*
X13459439Y-14319929D01*
X13516008Y-14319929D01*
X13648328Y-13569505D02*
X13648328Y-13512936D01*
X13591759Y-13512936D01*
X13591759Y-13569505D01*
X13648328Y-13569505D01*
X13843267Y-12376187D02*
X13843267Y-12319618D01*
X13786698Y-12319618D01*
X13786698Y-12376187D01*
X13843267Y-12376187D01*
X13975587Y-11625763D02*
X13975587Y-11569194D01*
X13919018Y-11569194D01*
X13919018Y-11625763D01*
X13975587Y-11625763D01*
X14174067Y-10500128D02*
X14174067Y-10443559D01*
X14117498Y-10443559D01*
X14117498Y-10500128D01*
X14174067Y-10500128D01*
X14306387Y-9749704D02*
X14306387Y-9693135D01*
X14249818Y-9693135D01*
X14249818Y-9749704D01*
X14306387Y-9749704D01*
X14520165Y-8595816D02*
X14520165Y-8539247D01*
X14463596Y-8539247D01*
X14463596Y-8595816D01*
X14520165Y-8595816D01*
X14652485Y-7845393D02*
X14652485Y-7788824D01*
X14595916Y-7788824D01*
X14595916Y-7845393D01*
X14652485Y-7845393D01*
X15074221Y-16570338D02*
X15074221Y-16513769D01*
X15017652Y-16513769D01*
X15017652Y-16570338D01*
X15074221Y-16570338D01*
X15206541Y-15819915D02*
X15206541Y-15763346D01*
X15149972Y-15763346D01*
X15149972Y-15819915D01*
X15206541Y-15819915D01*
X15406193Y-14658378D02*
X15406193Y-14601809D01*
X15349624Y-14601809D01*
X15349624Y-14658378D01*
X15406193Y-14658378D01*
X15538513Y-13907954D02*
X15538513Y-13851385D01*
X15481944Y-13851385D01*
X15481944Y-13907954D01*
X15538513Y-13907954D01*
X15733452Y-12714636D02*
X15733452Y-12658067D01*
X15676883Y-12658067D01*
X15676883Y-12714636D01*
X15733452Y-12714636D01*
X15865772Y-11964212D02*
X15865772Y-11907643D01*
X15809203Y-11907643D01*
X15809203Y-11964212D01*
X15865772Y-11964212D01*
X16064252Y-10838577D02*
X16064252Y-10782008D01*
X16007683Y-10782008D01*
X16007683Y-10838577D01*
X16064252Y-10838577D01*
X16196572Y-10088153D02*
X16196572Y-10031584D01*
X16140003Y-10031584D01*
X16140003Y-10088153D01*
X16196572Y-10088153D01*
X16410350Y-8934265D02*
X16410350Y-8877696D01*
X16353781Y-8877696D01*
X16353781Y-8934265D01*
X16410350Y-8934265D01*
X16410350Y-8934265D02*
X16410350Y-8877696D01*
X16353781Y-8877696D01*
X16353781Y-8934265D01*
X16410350Y-8934265D01*
X16542670Y-8183842D02*
X16542670Y-8127273D01*
X16486101Y-8127273D01*
X16486101Y-8183842D01*
X16542670Y-8183842D01*
X16965578Y-16872885D02*
X16965578Y-16816316D01*
X16909009Y-16816316D01*
X16909009Y-16872885D01*
X16965578Y-16872885D01*
X17097898Y-16122462D02*
X17097898Y-16065893D01*
X17041329Y-16065893D01*
X17041329Y-16122462D01*
X17097898Y-16122462D01*
X17297550Y-14960925D02*
X17297550Y-14904356D01*
X17240981Y-14904356D01*
X17240981Y-14960925D01*
X17297550Y-14960925D01*
X17429870Y-14210501D02*
X17429870Y-14153932D01*
X17373301Y-14153932D01*
X17373301Y-14210501D01*
X17429870Y-14210501D01*
X17624809Y-13017183D02*
X17624809Y-12960614D01*
X17568240Y-12960614D01*
X17568240Y-13017183D01*
X17624809Y-13017183D01*
X17757129Y-12266759D02*
X17757129Y-12210190D01*
X17700560Y-12210190D01*
X17700560Y-12266759D01*
X17757129Y-12266759D01*
X17955609Y-11141124D02*
X17955609Y-11084555D01*
X17899040Y-11084555D01*
X17899040Y-11141124D01*
X17955609Y-11141124D01*
X18087929Y-10390701D02*
X18087929Y-10334132D01*
X18031360Y-10334132D01*
X18031360Y-10390701D01*
X18087929Y-10390701D01*
X18301707Y-9236813D02*
X18301707Y-9180244D01*
X18245138Y-9180244D01*
X18245138Y-9236813D01*
X18301707Y-9236813D01*
X18434027Y-8486389D02*
X18434027Y-8429820D01*
X18377458Y-8429820D01*
X18377458Y-8486389D01*
X18434027Y-8486389D01*
X19457965Y-17664845D02*
X19457965Y-17608276D01*
X19401396Y-17608276D01*
X19401396Y-17664845D01*
X19457965Y-17664845D01*
X19457965Y-18426845D02*
X19457965Y-18370276D01*
X19401396Y-18370276D01*
X19401396Y-18426845D01*
X19457965Y-18426845D01*
X24273804Y-17659765D02*
X24273804Y-17603196D01*
X24217235Y-17603196D01*
X24217235Y-17659765D01*
X24273804Y-17659765D01*
X24273804Y-18421765D02*
X24273804Y-18365196D01*
X24217235Y-18365196D01*
X24217235Y-18421765D01*
X24273804Y-18421765D01*
X25221534Y-8246621D02*
X25221534Y-8190052D01*
X25164965Y-8190052D01*
X25164965Y-8246621D01*
X25221534Y-8246621D01*
X25353854Y-8997045D02*
X25353854Y-8940476D01*
X25297285Y-8940476D01*
X25297285Y-8997045D01*
X25353854Y-8997045D01*
X25547621Y-10154461D02*
X25547621Y-10097892D01*
X25491052Y-10097892D01*
X25491052Y-10154461D01*
X25547621Y-10154461D01*
X25679941Y-10904885D02*
X25679941Y-10848316D01*
X25623372Y-10848316D01*
X25623372Y-10904885D01*
X25679941Y-10904885D01*
X25878421Y-12030520D02*
X25878421Y-11973951D01*
X25821852Y-11973951D01*
X25821852Y-12030520D01*
X25878421Y-12030520D01*
X26010741Y-12780943D02*
X26010741Y-12724374D01*
X25954172Y-12724374D01*
X25954172Y-12780943D01*
X26010741Y-12780943D01*
X26235697Y-13968969D02*
X26235697Y-13912400D01*
X26179128Y-13912400D01*
X26179128Y-13968969D01*
X26235697Y-13968969D01*
X26368017Y-14719392D02*
X26368017Y-14662823D01*
X26311448Y-14662823D01*
X26311448Y-14719392D01*
X26368017Y-14719392D01*
X26577674Y-15879165D02*
X26577674Y-15822596D01*
X26521105Y-15822596D01*
X26521105Y-15879165D01*
X26577674Y-15879165D01*
X26709994Y-16629589D02*
X26709994Y-16573020D01*
X26653425Y-16573020D01*
X26653425Y-16629589D01*
X26709994Y-16629589D01*
X27113483Y-7918178D02*
X27113483Y-7861609D01*
X27056914Y-7861609D01*
X27056914Y-7918178D01*
X27113483Y-7918178D01*
X27245803Y-8668602D02*
X27245803Y-8612033D01*
X27189234Y-8612033D01*
X27189234Y-8668602D01*
X27245803Y-8668602D01*
X27439571Y-9826018D02*
X27439571Y-9769449D01*
X27383002Y-9769449D01*
X27383002Y-9826018D01*
X27439571Y-9826018D01*
X27571890Y-10576441D02*
X27571890Y-10519872D01*
X27515321Y-10519872D01*
X27515321Y-10576441D01*
X27571890Y-10576441D01*
X27770370Y-11702077D02*
X27770370Y-11645508D01*
X27713801Y-11645508D01*
X27713801Y-11702077D01*
X27770370Y-11702077D01*
X27902690Y-12452500D02*
X27902690Y-12395931D01*
X27846121Y-12395931D01*
X27846121Y-12452500D01*
X27902690Y-12452500D01*
X28127646Y-13640526D02*
X28127646Y-13583957D01*
X28071077Y-13583957D01*
X28071077Y-13640526D01*
X28127646Y-13640526D01*
X28259966Y-14390949D02*
X28259966Y-14334380D01*
X28203397Y-14334380D01*
X28203397Y-14390949D01*
X28259966Y-14390949D01*
X28469624Y-15550722D02*
X28469624Y-15494153D01*
X28413055Y-15494153D01*
X28413055Y-15550722D01*
X28469624Y-15550722D01*
X28601944Y-16301146D02*
X28601944Y-16244577D01*
X28545375Y-16244577D01*
X28545375Y-16301146D01*
X28601944Y-16301146D01*
X28994255Y-7555597D02*
X28994255Y-7499028D01*
X28937686Y-7499028D01*
X28937686Y-7555597D01*
X28994255Y-7555597D01*
X29126575Y-8306020D02*
X29126575Y-8249451D01*
X29070006Y-8249451D01*
X29070006Y-8306020D01*
X29126575Y-8306020D01*
X29320342Y-9463437D02*
X29320342Y-9406868D01*
X29263773Y-9406868D01*
X29263773Y-9463437D01*
X29320342Y-9463437D01*
X29452662Y-10213860D02*
X29452662Y-10157291D01*
X29396093Y-10157291D01*
X29396093Y-10213860D01*
X29452662Y-10213860D01*
X29651142Y-11339496D02*
X29651142Y-11282927D01*
X29594573Y-11282927D01*
X29594573Y-11339496D01*
X29651142Y-11339496D01*
X29783462Y-12089919D02*
X29783462Y-12033350D01*
X29726893Y-12033350D01*
X29726893Y-12089919D01*
X29783462Y-12089919D01*
X30008418Y-13277945D02*
X30008418Y-13221376D01*
X29951849Y-13221376D01*
X29951849Y-13277945D01*
X30008418Y-13277945D01*
X30140738Y-14028368D02*
X30140738Y-13971799D01*
X30084169Y-13971799D01*
X30084169Y-14028368D01*
X30140738Y-14028368D01*
X30350395Y-15188141D02*
X30350395Y-15131572D01*
X30293826Y-15131572D01*
X30293826Y-15188141D01*
X30350395Y-15188141D01*
X30482715Y-15938565D02*
X30482715Y-15881996D01*
X30426146Y-15881996D01*
X30426146Y-15938565D01*
X30482715Y-15938565D01*
X30887969Y-7237159D02*
X30887969Y-7180590D01*
X30831400Y-7180590D01*
X30831400Y-7237159D01*
X30887969Y-7237159D01*
X31020289Y-7987583D02*
X31020289Y-7931014D01*
X30963720Y-7931014D01*
X30963720Y-7987583D01*
X31020289Y-7987583D01*
X31214056Y-9144999D02*
X31214056Y-9088430D01*
X31157487Y-9088430D01*
X31157487Y-9144999D01*
X31214056Y-9144999D01*
X31346376Y-9895423D02*
X31346376Y-9838854D01*
X31289807Y-9838854D01*
X31289807Y-9895423D01*
X31346376Y-9895423D01*
X31544855Y-11021058D02*
X31544855Y-10964489D01*
X31488286Y-10964489D01*
X31488286Y-11021058D01*
X31544855Y-11021058D01*
X31677175Y-11771481D02*
X31677175Y-11714912D01*
X31620606Y-11714912D01*
X31620606Y-11771481D01*
X31677175Y-11771481D01*
X31902132Y-12959507D02*
X31902132Y-12902938D01*
X31845563Y-12902938D01*
X31845563Y-12959507D01*
X31902132Y-12959507D01*
X32034451Y-13709930D02*
X32034451Y-13653361D01*
X31977882Y-13653361D01*
X31977882Y-13709930D01*
X32034451Y-13709930D01*
X32244109Y-14869703D02*
X32244109Y-14813134D01*
X32187540Y-14813134D01*
X32187540Y-14869703D01*
X32244109Y-14869703D01*
X32376429Y-15620127D02*
X32376429Y-15563558D01*
X32319860Y-15563558D01*
X32319860Y-15620127D01*
X32376429Y-15620127D01*
X32779918Y-6908716D02*
X32779918Y-6852147D01*
X32723349Y-6852147D01*
X32723349Y-6908716D01*
X32779918Y-6908716D01*
X32912238Y-7659139D02*
X32912238Y-7602570D01*
X32855669Y-7602570D01*
X32855669Y-7659139D01*
X32912238Y-7659139D01*
X32912238Y-7659139D02*
X32912238Y-7602570D01*
X32855669Y-7602570D01*
X32855669Y-7659139D01*
X32912238Y-7659139D01*
X33106005Y-8816556D02*
X33106005Y-8759987D01*
X33049436Y-8759987D01*
X33049436Y-8816556D01*
X33106005Y-8816556D01*
X33238325Y-9566979D02*
X33238325Y-9510410D01*
X33181756Y-9510410D01*
X33181756Y-9566979D01*
X33238325Y-9566979D01*
X33238325Y-9566979D02*
X33238325Y-9510410D01*
X33181756Y-9510410D01*
X33181756Y-9566979D01*
X33238325Y-9566979D01*
X33436805Y-10692615D02*
X33436805Y-10636046D01*
X33380236Y-10636046D01*
X33380236Y-10692615D01*
X33436805Y-10692615D01*
X33569125Y-11443038D02*
X33569125Y-11386469D01*
X33512556Y-11386469D01*
X33512556Y-11443038D01*
X33569125Y-11443038D01*
X33569125Y-11443038D02*
X33569125Y-11386469D01*
X33512556Y-11386469D01*
X33512556Y-11443038D01*
X33569125Y-11443038D01*
X33794081Y-12631064D02*
X33794081Y-12574495D01*
X33737512Y-12574495D01*
X33737512Y-12631064D01*
X33794081Y-12631064D01*
X33926401Y-13381487D02*
X33926401Y-13324918D01*
X33869832Y-13324918D01*
X33869832Y-13381487D01*
X33926401Y-13381487D01*
X33926401Y-13381487D02*
X33926401Y-13324918D01*
X33869832Y-13324918D01*
X33869832Y-13381487D01*
X33926401Y-13381487D01*
X34660690Y-6546135D02*
X34660690Y-6489566D01*
X34604121Y-6489566D01*
X34604121Y-6546135D01*
X34660690Y-6546135D01*
X34793010Y-7296558D02*
X34793010Y-7239989D01*
X34736441Y-7239989D01*
X34736441Y-7296558D01*
X34793010Y-7296558D01*
X34986777Y-8453975D02*
X34986777Y-8397406D01*
X34930208Y-8397406D01*
X34930208Y-8453975D01*
X34986777Y-8453975D01*
X35119097Y-9204398D02*
X35119097Y-9147829D01*
X35062528Y-9147829D01*
X35062528Y-9204398D01*
X35119097Y-9204398D01*
X35317577Y-10330034D02*
X35317577Y-10273465D01*
X35261008Y-10273465D01*
X35261008Y-10330034D01*
X35317577Y-10330034D01*
X35449896Y-11080457D02*
X35449896Y-11023888D01*
X35393327Y-11023888D01*
X35393327Y-11080457D01*
X35449896Y-11080457D01*
X35674853Y-12268483D02*
X35674853Y-12211914D01*
X35618284Y-12211914D01*
X35618284Y-12268483D01*
X35674853Y-12268483D01*
X35807173Y-13018906D02*
X35807173Y-12962337D01*
X35750604Y-12962337D01*
X35750604Y-13018906D01*
X35807173Y-13018906D01*
D16*
X6858717Y-13378636D02*
X6908247Y-13329106D01*
X6858717Y-13279576D01*
X6809187Y-13329106D01*
X6858717Y-13378636D01*
X7108858Y-13422743D02*
X7158388Y-13373213D01*
X7108858Y-13323683D01*
X7059328Y-13373213D01*
X7108858Y-13422743D01*
X7190689Y-11466675D02*
X7240219Y-11417145D01*
X7190689Y-11367615D01*
X7141159Y-11417145D01*
X7190689Y-11466675D01*
X7440830Y-11510782D02*
X7490360Y-11461252D01*
X7440830Y-11411722D01*
X7391300Y-11461252D01*
X7440830Y-11510782D01*
X7516486Y-9589735D02*
X7566016Y-9540205D01*
X7516486Y-9490675D01*
X7466956Y-9540205D01*
X7516486Y-9589735D01*
X7766627Y-9633841D02*
X7816157Y-9584311D01*
X7766627Y-9534781D01*
X7717097Y-9584311D01*
X7766627Y-9633841D01*
X7848458Y-7677774D02*
X7897988Y-7628244D01*
X7848458Y-7578714D01*
X7798928Y-7628244D01*
X7848458Y-7677774D01*
X8098599Y-7721880D02*
X8148129Y-7672350D01*
X8098599Y-7622820D01*
X8049069Y-7672350D01*
X8098599Y-7721880D01*
X8754787Y-13712964D02*
X8804317Y-13663434D01*
X8754787Y-13613904D01*
X8705257Y-13663434D01*
X8754787Y-13712964D01*
X9004928Y-13757071D02*
X9054458Y-13707541D01*
X9004928Y-13658011D01*
X8955398Y-13707541D01*
X9004928Y-13757071D01*
X9086759Y-11801004D02*
X9136289Y-11751474D01*
X9086759Y-11701944D01*
X9037229Y-11751474D01*
X9086759Y-11801004D01*
X9336900Y-11845110D02*
X9386430Y-11795580D01*
X9336900Y-11746050D01*
X9287370Y-11795580D01*
X9336900Y-11845110D01*
X9412556Y-9924063D02*
X9462086Y-9874533D01*
X9412556Y-9825003D01*
X9363026Y-9874533D01*
X9412556Y-9924063D01*
X9662697Y-9968170D02*
X9712227Y-9918640D01*
X9662697Y-9869110D01*
X9613167Y-9918640D01*
X9662697Y-9968170D01*
X9744528Y-8012102D02*
X9794058Y-7962572D01*
X9744528Y-7913042D01*
X9694998Y-7962572D01*
X9744528Y-8012102D01*
X9994669Y-8056209D02*
X10044199Y-8006679D01*
X9994669Y-7957149D01*
X9945139Y-8006679D01*
X9994669Y-8056209D01*
X10306523Y-15941598D02*
X10356053Y-15892068D01*
X10306523Y-15842538D01*
X10256993Y-15892068D01*
X10306523Y-15941598D01*
X10556664Y-15985705D02*
X10606194Y-15936175D01*
X10556664Y-15886645D01*
X10507134Y-15936175D01*
X10556664Y-15985705D01*
X10640851Y-14045528D02*
X10690381Y-13995998D01*
X10640851Y-13946468D01*
X10591321Y-13995998D01*
X10640851Y-14045528D01*
X10890993Y-14089635D02*
X10940523Y-14040105D01*
X10890993Y-13990575D01*
X10841463Y-14040105D01*
X10890993Y-14089635D01*
X10972823Y-12133568D02*
X11022353Y-12084038D01*
X10972823Y-12034508D01*
X10923293Y-12084038D01*
X10972823Y-12133568D01*
X11222964Y-12177674D02*
X11272494Y-12128144D01*
X11222964Y-12078614D01*
X11173434Y-12128144D01*
X11222964Y-12177674D01*
X11298620Y-10256627D02*
X11348150Y-10207097D01*
X11298620Y-10157567D01*
X11249090Y-10207097D01*
X11298620Y-10256627D01*
X11548761Y-10300733D02*
X11598291Y-10251203D01*
X11548761Y-10201673D01*
X11499231Y-10251203D01*
X11548761Y-10300733D01*
X11630592Y-8344666D02*
X11680122Y-8295136D01*
X11630592Y-8245606D01*
X11581062Y-8295136D01*
X11630592Y-8344666D01*
X11880733Y-8388773D02*
X11930263Y-8339243D01*
X11880733Y-8289713D01*
X11831203Y-8339243D01*
X11880733Y-8388773D01*
X12202593Y-16275927D02*
X12252123Y-16226397D01*
X12202593Y-16176867D01*
X12153063Y-16226397D01*
X12202593Y-16275927D01*
X12452734Y-16320033D02*
X12502264Y-16270503D01*
X12452734Y-16220973D01*
X12403204Y-16270503D01*
X12452734Y-16320033D01*
X12536921Y-14379857D02*
X12586451Y-14330327D01*
X12536921Y-14280797D01*
X12487391Y-14330327D01*
X12536921Y-14379857D01*
X12787063Y-14423963D02*
X12836593Y-14374433D01*
X12787063Y-14324903D01*
X12737533Y-14374433D01*
X12787063Y-14423963D01*
X12868893Y-12467896D02*
X12918423Y-12418366D01*
X12868893Y-12368836D01*
X12819363Y-12418366D01*
X12868893Y-12467896D01*
X13119034Y-12512003D02*
X13168564Y-12462473D01*
X13119034Y-12412943D01*
X13069504Y-12462473D01*
X13119034Y-12512003D01*
X13194690Y-10590955D02*
X13244220Y-10541425D01*
X13194690Y-10491895D01*
X13145160Y-10541425D01*
X13194690Y-10590955D01*
X13444831Y-10635062D02*
X13494361Y-10585532D01*
X13444831Y-10536002D01*
X13395301Y-10585532D01*
X13444831Y-10635062D01*
X13526662Y-8678995D02*
X13576192Y-8629465D01*
X13526662Y-8579935D01*
X13477132Y-8629465D01*
X13526662Y-8678995D01*
X13776803Y-8723101D02*
X13826333Y-8673571D01*
X13776803Y-8624041D01*
X13727273Y-8673571D01*
X13776803Y-8723101D01*
X14103666Y-16611137D02*
X14153196Y-16561607D01*
X14103666Y-16512077D01*
X14054136Y-16561607D01*
X14103666Y-16611137D01*
X14353807Y-16655244D02*
X14403337Y-16605714D01*
X14353807Y-16556184D01*
X14304277Y-16605714D01*
X14353807Y-16655244D01*
X14437994Y-14715067D02*
X14487524Y-14665537D01*
X14437994Y-14616007D01*
X14388464Y-14665537D01*
X14437994Y-14715067D01*
X14688136Y-14759174D02*
X14737666Y-14709644D01*
X14688136Y-14660114D01*
X14638606Y-14709644D01*
X14688136Y-14759174D01*
X14769966Y-12803106D02*
X14819496Y-12753576D01*
X14769966Y-12704046D01*
X14720436Y-12753576D01*
X14769966Y-12803106D01*
X15020107Y-12847213D02*
X15069637Y-12797683D01*
X15020107Y-12748153D01*
X14970577Y-12797683D01*
X15020107Y-12847213D01*
X15095763Y-10926166D02*
X15145293Y-10876636D01*
X15095763Y-10827106D01*
X15046233Y-10876636D01*
X15095763Y-10926166D01*
X15345904Y-10970272D02*
X15395434Y-10920742D01*
X15345904Y-10871212D01*
X15296374Y-10920742D01*
X15345904Y-10970272D01*
X15427735Y-9014205D02*
X15477265Y-8964675D01*
X15427735Y-8915145D01*
X15378205Y-8964675D01*
X15427735Y-9014205D01*
X15677876Y-9058312D02*
X15727406Y-9008782D01*
X15677876Y-8959252D01*
X15628346Y-9008782D01*
X15677876Y-9058312D01*
X15999736Y-16945465D02*
X16049266Y-16895935D01*
X15999736Y-16846405D01*
X15950206Y-16895935D01*
X15999736Y-16945465D01*
X16249877Y-16989572D02*
X16299407Y-16940042D01*
X16249877Y-16890512D01*
X16200347Y-16940042D01*
X16249877Y-16989572D01*
X16334064Y-15049395D02*
X16383594Y-14999865D01*
X16334064Y-14950335D01*
X16284534Y-14999865D01*
X16334064Y-15049395D01*
X16584205Y-15093502D02*
X16633735Y-15043972D01*
X16584205Y-14994442D01*
X16534675Y-15043972D01*
X16584205Y-15093502D01*
X16666036Y-13137435D02*
X16715566Y-13087905D01*
X16666036Y-13038375D01*
X16616506Y-13087905D01*
X16666036Y-13137435D01*
X16916177Y-13181541D02*
X16965707Y-13132011D01*
X16916177Y-13082481D01*
X16866647Y-13132011D01*
X16916177Y-13181541D01*
X16991833Y-11260494D02*
X17041363Y-11210964D01*
X16991833Y-11161434D01*
X16942303Y-11210964D01*
X16991833Y-11260494D01*
X17241974Y-11304600D02*
X17291504Y-11255070D01*
X17241974Y-11205540D01*
X17192444Y-11255070D01*
X17241974Y-11304600D01*
X17323805Y-9348533D02*
X17373335Y-9299003D01*
X17323805Y-9249473D01*
X17274275Y-9299003D01*
X17323805Y-9348533D01*
X17573946Y-9392640D02*
X17623476Y-9343110D01*
X17573946Y-9293580D01*
X17524416Y-9343110D01*
X17573946Y-9392640D01*
X18505120Y-18630970D02*
X18554650Y-18581440D01*
X18505120Y-18531910D01*
X18455590Y-18581440D01*
X18505120Y-18630970D01*
X18759120Y-18630970D02*
X18808650Y-18581440D01*
X18759120Y-18531910D01*
X18709590Y-18581440D01*
X18759120Y-18630970D01*
X23310800Y-18651290D02*
X23360330Y-18601760D01*
X23310800Y-18552230D01*
X23261270Y-18601760D01*
X23310800Y-18651290D01*
X23564800Y-18651290D02*
X23614330Y-18601760D01*
X23564800Y-18552230D01*
X23515270Y-18601760D01*
X23564800Y-18651290D01*
X24447047Y-9406340D02*
X24496577Y-9356810D01*
X24447047Y-9307280D01*
X24397517Y-9356810D01*
X24447047Y-9406340D01*
X24697188Y-9362233D02*
X24746718Y-9312703D01*
X24697188Y-9263173D01*
X24647658Y-9312703D01*
X24697188Y-9362233D01*
X24789024Y-11316536D02*
X24838554Y-11267006D01*
X24789024Y-11217476D01*
X24739494Y-11267006D01*
X24789024Y-11316536D01*
X25039166Y-11272429D02*
X25088696Y-11222899D01*
X25039166Y-11173369D01*
X24989636Y-11222899D01*
X25039166Y-11272429D01*
X25124827Y-13191712D02*
X25174357Y-13142182D01*
X25124827Y-13092652D01*
X25075297Y-13142182D01*
X25124827Y-13191712D01*
X25374968Y-13147606D02*
X25424498Y-13098076D01*
X25374968Y-13048546D01*
X25325438Y-13098076D01*
X25374968Y-13147606D01*
X25466804Y-15101909D02*
X25516334Y-15052379D01*
X25466804Y-15002849D01*
X25417274Y-15052379D01*
X25466804Y-15101909D01*
X25716946Y-15057802D02*
X25766476Y-15008272D01*
X25716946Y-14958742D01*
X25667416Y-15008272D01*
X25716946Y-15057802D01*
X25799714Y-17002372D02*
X25849244Y-16952842D01*
X25799714Y-16903312D01*
X25750184Y-16952842D01*
X25799714Y-17002372D01*
X26049855Y-16958266D02*
X26099385Y-16908736D01*
X26049855Y-16859206D01*
X26000325Y-16908736D01*
X26049855Y-16958266D01*
X26343117Y-9072011D02*
X26392647Y-9022481D01*
X26343117Y-8972951D01*
X26293587Y-9022481D01*
X26343117Y-9072011D01*
X26593258Y-9027905D02*
X26642788Y-8978375D01*
X26593258Y-8928845D01*
X26543728Y-8978375D01*
X26593258Y-9027905D01*
X26685095Y-10982208D02*
X26734625Y-10932678D01*
X26685095Y-10883148D01*
X26635565Y-10932678D01*
X26685095Y-10982208D01*
X26935236Y-10938101D02*
X26984766Y-10888571D01*
X26935236Y-10839041D01*
X26885706Y-10888571D01*
X26935236Y-10938101D01*
X27020897Y-12857384D02*
X27070427Y-12807854D01*
X27020897Y-12758324D01*
X26971367Y-12807854D01*
X27020897Y-12857384D01*
X27271038Y-12813277D02*
X27320568Y-12763747D01*
X27271038Y-12714217D01*
X27221508Y-12763747D01*
X27271038Y-12813277D01*
X27362875Y-14767581D02*
X27412405Y-14718051D01*
X27362875Y-14668521D01*
X27313345Y-14718051D01*
X27362875Y-14767581D01*
X27613016Y-14723474D02*
X27662546Y-14673944D01*
X27613016Y-14624414D01*
X27563486Y-14673944D01*
X27613016Y-14723474D01*
X27695784Y-16668044D02*
X27745314Y-16618514D01*
X27695784Y-16568984D01*
X27646254Y-16618514D01*
X27695784Y-16668044D01*
X27945925Y-16623937D02*
X27995455Y-16574407D01*
X27945925Y-16524877D01*
X27896395Y-16574407D01*
X27945925Y-16623937D01*
X28239187Y-8737683D02*
X28288717Y-8688153D01*
X28239187Y-8638623D01*
X28189657Y-8688153D01*
X28239187Y-8737683D01*
X28489328Y-8693576D02*
X28538858Y-8644046D01*
X28489328Y-8594516D01*
X28439798Y-8644046D01*
X28489328Y-8693576D01*
X28581164Y-10647879D02*
X28630694Y-10598349D01*
X28581164Y-10548819D01*
X28531634Y-10598349D01*
X28581164Y-10647879D01*
X28831306Y-10603773D02*
X28880836Y-10554243D01*
X28831306Y-10504713D01*
X28781776Y-10554243D01*
X28831306Y-10603773D01*
X28916967Y-12523056D02*
X28966497Y-12473526D01*
X28916967Y-12423996D01*
X28867437Y-12473526D01*
X28916967Y-12523056D01*
X29167108Y-12478949D02*
X29216638Y-12429419D01*
X29167108Y-12379889D01*
X29117578Y-12429419D01*
X29167108Y-12478949D01*
X29258945Y-14433252D02*
X29308475Y-14383722D01*
X29258945Y-14334192D01*
X29209415Y-14383722D01*
X29258945Y-14433252D01*
X29509086Y-14389146D02*
X29558616Y-14339616D01*
X29509086Y-14290086D01*
X29459556Y-14339616D01*
X29509086Y-14389146D01*
X29596857Y-16332833D02*
X29646387Y-16283303D01*
X29596857Y-16233773D01*
X29547327Y-16283303D01*
X29596857Y-16332833D01*
X29846998Y-16288727D02*
X29896528Y-16239197D01*
X29846998Y-16189667D01*
X29797468Y-16239197D01*
X29846998Y-16288727D01*
X30135257Y-8403355D02*
X30184787Y-8353824D01*
X30135257Y-8304294D01*
X30085727Y-8353824D01*
X30135257Y-8403355D01*
X30385398Y-8359248D02*
X30434928Y-8309718D01*
X30385398Y-8260188D01*
X30335868Y-8309718D01*
X30385398Y-8359248D01*
X30477235Y-10313551D02*
X30526765Y-10264021D01*
X30477235Y-10214491D01*
X30427705Y-10264021D01*
X30477235Y-10313551D01*
X30727376Y-10269444D02*
X30776906Y-10219914D01*
X30727376Y-10170384D01*
X30677846Y-10219914D01*
X30727376Y-10269444D01*
X30813037Y-12188728D02*
X30862567Y-12139198D01*
X30813037Y-12089668D01*
X30763507Y-12139198D01*
X30813037Y-12188728D01*
X31063178Y-12144621D02*
X31112708Y-12095091D01*
X31063178Y-12045561D01*
X31013648Y-12095091D01*
X31063178Y-12144621D01*
X31155015Y-14098924D02*
X31204545Y-14049394D01*
X31155015Y-13999864D01*
X31105485Y-14049394D01*
X31155015Y-14098924D01*
X31405156Y-14054817D02*
X31454686Y-14005287D01*
X31405156Y-13955757D01*
X31355626Y-14005287D01*
X31405156Y-14054817D01*
X31492927Y-15998505D02*
X31542457Y-15948975D01*
X31492927Y-15899445D01*
X31443397Y-15948975D01*
X31492927Y-15998505D01*
X31743068Y-15954398D02*
X31792598Y-15904868D01*
X31743068Y-15855338D01*
X31693538Y-15904868D01*
X31743068Y-15954398D01*
X32021322Y-8070790D02*
X32070852Y-8021260D01*
X32021322Y-7971730D01*
X31971792Y-8021260D01*
X32021322Y-8070790D01*
X32271463Y-8026684D02*
X32320993Y-7977154D01*
X32271463Y-7927624D01*
X32221933Y-7977154D01*
X32271463Y-8026684D01*
X32363299Y-9980987D02*
X32412829Y-9931457D01*
X32363299Y-9881927D01*
X32313769Y-9931457D01*
X32363299Y-9980987D01*
X32613440Y-9936880D02*
X32662970Y-9887350D01*
X32613440Y-9837820D01*
X32563910Y-9887350D01*
X32613440Y-9936880D01*
X32699102Y-11856163D02*
X32748632Y-11806633D01*
X32699102Y-11757103D01*
X32649572Y-11806633D01*
X32699102Y-11856163D01*
X32949243Y-11812057D02*
X32998773Y-11762527D01*
X32949243Y-11712997D01*
X32899713Y-11762527D01*
X32949243Y-11812057D01*
X33041079Y-13766360D02*
X33090609Y-13716830D01*
X33041079Y-13667300D01*
X32991549Y-13716830D01*
X33041079Y-13766360D01*
X33291220Y-13722253D02*
X33340750Y-13672723D01*
X33291220Y-13623193D01*
X33241690Y-13672723D01*
X33291220Y-13722253D01*
X33917392Y-7736462D02*
X33966922Y-7686932D01*
X33917392Y-7637402D01*
X33867862Y-7686932D01*
X33917392Y-7736462D01*
X34167533Y-7692355D02*
X34217063Y-7642825D01*
X34167533Y-7593295D01*
X34118003Y-7642825D01*
X34167533Y-7692355D01*
X34259369Y-9646659D02*
X34308899Y-9597129D01*
X34259369Y-9547599D01*
X34209839Y-9597129D01*
X34259369Y-9646659D01*
X34509510Y-9602552D02*
X34559040Y-9553022D01*
X34509510Y-9503492D01*
X34459980Y-9553022D01*
X34509510Y-9602552D01*
X34595172Y-11521835D02*
X34644702Y-11472305D01*
X34595172Y-11422775D01*
X34545642Y-11472305D01*
X34595172Y-11521835D01*
X34845313Y-11477728D02*
X34894843Y-11428198D01*
X34845313Y-11378668D01*
X34795783Y-11428198D01*
X34845313Y-11477728D01*
X34937149Y-13432032D02*
X34986679Y-13382502D01*
X34937149Y-13332972D01*
X34887619Y-13382502D01*
X34937149Y-13432032D01*
X35187290Y-13387925D02*
X35236820Y-13338395D01*
X35187290Y-13288865D01*
X35137760Y-13338395D01*
X35187290Y-13387925D01*
D17*
X20537920Y-16997280D02*
X20637920Y-17097280D01*
X20637920Y-16997280D02*
X20537920Y-17097280D01*
X20637920Y-17047280D02*
G75*
G03*
X20637920Y-17047280I-50000J0D01*
G01*
X20537920Y-17251280D02*
X20637920Y-17351280D01*
X20637920Y-17251280D02*
X20537920Y-17351280D01*
X20637920Y-17301280D02*
G75*
G03*
X20637920Y-17301280I-50000J0D01*
G01*
X20537920Y-17505280D02*
X20637920Y-17605280D01*
X20637920Y-17505280D02*
X20537920Y-17605280D01*
X20637920Y-17555280D02*
G75*
G03*
X20637920Y-17555280I-50000J0D01*
G01*
X21538680Y-16992200D02*
X21638680Y-17092200D01*
X21638680Y-16992200D02*
X21538680Y-17092200D01*
X21638680Y-17042200D02*
G75*
G03*
X21638680Y-17042200I-50000J0D01*
G01*
X21538680Y-17246200D02*
X21638680Y-17346200D01*
X21638680Y-17246200D02*
X21538680Y-17346200D01*
X21638680Y-17296200D02*
G75*
G03*
X21638680Y-17296200I-50000J0D01*
G01*
X21538680Y-17500200D02*
X21638680Y-17600200D01*
X21638680Y-17500200D02*
X21538680Y-17600200D01*
X21638680Y-17550200D02*
G75*
G03*
X21638680Y-17550200I-50000J0D01*
G01*
X22768122Y-13111032D02*
X22868122Y-13211032D01*
X22868122Y-13111032D02*
X22768122Y-13211032D01*
X22868122Y-13161032D02*
G75*
G03*
X22868122Y-13161032I-50000J0D01*
G01*
X22768122Y-13365032D02*
X22868122Y-13465032D01*
X22868122Y-13365032D02*
X22768122Y-13465032D01*
X22868122Y-13415032D02*
G75*
G03*
X22868122Y-13415032I-50000J0D01*
G01*
X22768122Y-13619032D02*
X22868122Y-13719032D01*
X22868122Y-13619032D02*
X22768122Y-13719032D01*
X22868122Y-13669032D02*
G75*
G03*
X22868122Y-13669032I-50000J0D01*
G01*
X22768122Y-13873032D02*
X22868122Y-13973032D01*
X22868122Y-13873032D02*
X22768122Y-13973032D01*
X22868122Y-13923032D02*
G75*
G03*
X22868122Y-13923032I-50000J0D01*
G01*
X22768122Y-14127032D02*
X22868122Y-14227032D01*
X22868122Y-14127032D02*
X22768122Y-14227032D01*
X22868122Y-14177032D02*
G75*
G03*
X22868122Y-14177032I-50000J0D01*
G01*
X22768122Y-14381032D02*
X22868122Y-14481032D01*
X22868122Y-14381032D02*
X22768122Y-14481032D01*
X22868122Y-14431032D02*
G75*
G03*
X22868122Y-14431032I-50000J0D01*
G01*
D18*
X20289470Y-7554030D02*
X20398690Y-7663250D01*
X20398690Y-7554030D02*
X20289470Y-7663250D01*
X20344080Y-7554030D02*
X20344080Y-7663250D01*
X20289470Y-7608640D02*
X20398690Y-7608640D01*
X20289470Y-7808030D02*
X20398690Y-7917250D01*
X20398690Y-7808030D02*
X20289470Y-7917250D01*
X20344080Y-7808030D02*
X20344080Y-7917250D01*
X20289470Y-7862640D02*
X20398690Y-7862640D01*
X20289470Y-8062030D02*
X20398690Y-8171250D01*
X20398690Y-8062030D02*
X20289470Y-8171250D01*
X20344080Y-8062030D02*
X20344080Y-8171250D01*
X20289470Y-8116640D02*
X20398690Y-8116640D01*
X20289470Y-8316030D02*
X20398690Y-8425250D01*
X20398690Y-8316030D02*
X20289470Y-8425250D01*
X20344080Y-8316030D02*
X20344080Y-8425250D01*
X20289470Y-8370640D02*
X20398690Y-8370640D01*
X20289470Y-8570030D02*
X20398690Y-8679250D01*
X20398690Y-8570030D02*
X20289470Y-8679250D01*
X20344080Y-8570030D02*
X20344080Y-8679250D01*
X20289470Y-8624640D02*
X20398690Y-8624640D01*
X20289470Y-8824030D02*
X20398690Y-8933250D01*
X20398690Y-8824030D02*
X20289470Y-8933250D01*
X20344080Y-8824030D02*
X20344080Y-8933250D01*
X20289470Y-8878640D02*
X20398690Y-8878640D01*
X20289470Y-9078030D02*
X20398690Y-9187250D01*
X20398690Y-9078030D02*
X20289470Y-9187250D01*
X20344080Y-9078030D02*
X20344080Y-9187250D01*
X20289470Y-9132640D02*
X20398690Y-9132640D01*
X20289470Y-9332030D02*
X20398690Y-9441250D01*
X20398690Y-9332030D02*
X20289470Y-9441250D01*
X20344080Y-9332030D02*
X20344080Y-9441250D01*
X20289470Y-9386640D02*
X20398690Y-9386640D01*
X20289470Y-9586030D02*
X20398690Y-9695250D01*
X20398690Y-9586030D02*
X20289470Y-9695250D01*
X20344080Y-9586030D02*
X20344080Y-9695250D01*
X20289470Y-9640640D02*
X20398690Y-9640640D01*
X20289470Y-9840030D02*
X20398690Y-9949250D01*
X20398690Y-9840030D02*
X20289470Y-9949250D01*
X20344080Y-9840030D02*
X20344080Y-9949250D01*
X20289470Y-9894640D02*
X20398690Y-9894640D01*
X20289470Y-10094030D02*
X20398690Y-10203250D01*
X20398690Y-10094030D02*
X20289470Y-10203250D01*
X20344080Y-10094030D02*
X20344080Y-10203250D01*
X20289470Y-10148640D02*
X20398690Y-10148640D01*
X20312330Y-10348030D02*
X20421550Y-10457250D01*
X20421550Y-10348030D02*
X20312330Y-10457250D01*
X20366940Y-10348030D02*
X20366940Y-10457250D01*
X20312330Y-10402640D02*
X20421550Y-10402640D01*
X20543470Y-10348030D02*
X20652690Y-10457250D01*
X20652690Y-10348030D02*
X20543470Y-10457250D01*
X20598080Y-10348030D02*
X20598080Y-10457250D01*
X20543470Y-10402640D02*
X20652690Y-10402640D01*
X20797470Y-10348030D02*
X20906690Y-10457250D01*
X20906690Y-10348030D02*
X20797470Y-10457250D01*
X20852080Y-10348030D02*
X20852080Y-10457250D01*
X20797470Y-10402640D02*
X20906690Y-10402640D01*
X21051470Y-10348030D02*
X21160690Y-10457250D01*
X21160690Y-10348030D02*
X21051470Y-10457250D01*
X21106080Y-10348030D02*
X21106080Y-10457250D01*
X21051470Y-10402640D02*
X21160690Y-10402640D01*
X21305470Y-10348030D02*
X21414690Y-10457250D01*
X21414690Y-10348030D02*
X21305470Y-10457250D01*
X21360080Y-10348030D02*
X21360080Y-10457250D01*
X21305470Y-10402640D02*
X21414690Y-10402640D01*
X21559470Y-10348030D02*
X21668690Y-10457250D01*
X21668690Y-10348030D02*
X21559470Y-10457250D01*
X21614080Y-10348030D02*
X21614080Y-10457250D01*
X21559470Y-10402640D02*
X21668690Y-10402640D01*
X21813470Y-7554030D02*
X21922690Y-7663250D01*
X21922690Y-7554030D02*
X21813470Y-7663250D01*
X21868080Y-7554030D02*
X21868080Y-7663250D01*
X21813470Y-7608640D02*
X21922690Y-7608640D01*
X21813470Y-7808030D02*
X21922690Y-7917250D01*
X21922690Y-7808030D02*
X21813470Y-7917250D01*
X21868080Y-7808030D02*
X21868080Y-7917250D01*
X21813470Y-7862640D02*
X21922690Y-7862640D01*
X21813470Y-8062030D02*
X21922690Y-8171250D01*
X21922690Y-8062030D02*
X21813470Y-8171250D01*
X21868080Y-8062030D02*
X21868080Y-8171250D01*
X21813470Y-8116640D02*
X21922690Y-8116640D01*
X21813470Y-8316030D02*
X21922690Y-8425250D01*
X21922690Y-8316030D02*
X21813470Y-8425250D01*
X21868080Y-8316030D02*
X21868080Y-8425250D01*
X21813470Y-8370640D02*
X21922690Y-8370640D01*
X21813470Y-8570030D02*
X21922690Y-8679250D01*
X21922690Y-8570030D02*
X21813470Y-8679250D01*
X21868080Y-8570030D02*
X21868080Y-8679250D01*
X21813470Y-8624640D02*
X21922690Y-8624640D01*
X21813470Y-8824030D02*
X21922690Y-8933250D01*
X21922690Y-8824030D02*
X21813470Y-8933250D01*
X21868080Y-8824030D02*
X21868080Y-8933250D01*
X21813470Y-8878640D02*
X21922690Y-8878640D01*
X21813470Y-9078030D02*
X21922690Y-9187250D01*
X21922690Y-9078030D02*
X21813470Y-9187250D01*
X21868080Y-9078030D02*
X21868080Y-9187250D01*
X21813470Y-9132640D02*
X21922690Y-9132640D01*
X21813470Y-9332030D02*
X21922690Y-9441250D01*
X21922690Y-9332030D02*
X21813470Y-9441250D01*
X21868080Y-9332030D02*
X21868080Y-9441250D01*
X21813470Y-9386640D02*
X21922690Y-9386640D01*
X21813470Y-9586030D02*
X21922690Y-9695250D01*
X21922690Y-9586030D02*
X21813470Y-9695250D01*
X21868080Y-9586030D02*
X21868080Y-9695250D01*
X21813470Y-9640640D02*
X21922690Y-9640640D01*
X21813470Y-9840030D02*
X21922690Y-9949250D01*
X21922690Y-9840030D02*
X21813470Y-9949250D01*
X21868080Y-9840030D02*
X21868080Y-9949250D01*
X21813470Y-9894640D02*
X21922690Y-9894640D01*
X21813470Y-10094030D02*
X21922690Y-10203250D01*
X21922690Y-10094030D02*
X21813470Y-10203250D01*
X21868080Y-10094030D02*
X21868080Y-10203250D01*
X21813470Y-10148640D02*
X21922690Y-10148640D01*
X21813470Y-10348030D02*
X21922690Y-10457250D01*
X21922690Y-10348030D02*
X21813470Y-10457250D01*
X21868080Y-10348030D02*
X21868080Y-10457250D01*
X21813470Y-10402640D02*
X21922690Y-10402640D01*
D19*
X7114453Y-12209840D02*
X7234453Y-12329840D01*
X7234453Y-12209840D02*
X7114453Y-12329840D01*
X7216880Y-12312267D02*
X7216880Y-12227413D01*
X7132026Y-12227413D01*
X7132026Y-12312267D01*
X7216880Y-12312267D01*
X7446425Y-10297880D02*
X7566425Y-10417880D01*
X7566425Y-10297880D02*
X7446425Y-10417880D01*
X7548852Y-10400307D02*
X7548852Y-10315453D01*
X7463998Y-10315453D01*
X7463998Y-10400307D01*
X7548852Y-10400307D01*
X7570391Y-12503474D02*
X7690391Y-12623474D01*
X7690391Y-12503474D02*
X7570391Y-12623474D01*
X7672818Y-12605901D02*
X7672818Y-12521047D01*
X7587964Y-12521047D01*
X7587964Y-12605901D01*
X7672818Y-12605901D01*
X7772222Y-8420939D02*
X7892222Y-8540939D01*
X7892222Y-8420939D02*
X7772222Y-8540939D01*
X7874649Y-8523366D02*
X7874649Y-8438512D01*
X7789795Y-8438512D01*
X7789795Y-8523366D01*
X7874649Y-8523366D01*
X7902363Y-10591514D02*
X8022363Y-10711514D01*
X8022363Y-10591514D02*
X7902363Y-10711514D01*
X8004790Y-10693940D02*
X8004790Y-10609087D01*
X7919936Y-10609087D01*
X7919936Y-10693940D01*
X8004790Y-10693940D01*
X8104194Y-6508978D02*
X8224194Y-6628978D01*
X8224194Y-6508978D02*
X8104194Y-6628978D01*
X8206621Y-6611405D02*
X8206621Y-6526551D01*
X8121767Y-6526551D01*
X8121767Y-6611405D01*
X8206621Y-6611405D01*
X8228160Y-8714573D02*
X8348160Y-8834573D01*
X8348160Y-8714573D02*
X8228160Y-8834573D01*
X8330587Y-8816999D02*
X8330587Y-8732146D01*
X8245733Y-8732146D01*
X8245733Y-8816999D01*
X8330587Y-8816999D01*
X8560132Y-6802612D02*
X8680132Y-6922612D01*
X8680132Y-6802612D02*
X8560132Y-6922612D01*
X8662559Y-6905039D02*
X8662559Y-6820185D01*
X8577705Y-6820185D01*
X8577705Y-6905039D01*
X8662559Y-6905039D01*
X9010523Y-12544169D02*
X9130523Y-12664169D01*
X9130523Y-12544169D02*
X9010523Y-12664169D01*
X9112950Y-12646596D02*
X9112950Y-12561742D01*
X9028096Y-12561742D01*
X9028096Y-12646596D01*
X9112950Y-12646596D01*
X9342495Y-10632208D02*
X9462495Y-10752208D01*
X9462495Y-10632208D02*
X9342495Y-10752208D01*
X9444922Y-10734635D02*
X9444922Y-10649781D01*
X9360068Y-10649781D01*
X9360068Y-10734635D01*
X9444922Y-10734635D01*
X9466461Y-12837802D02*
X9586461Y-12957802D01*
X9586461Y-12837802D02*
X9466461Y-12957802D01*
X9568888Y-12940229D02*
X9568888Y-12855376D01*
X9484034Y-12855376D01*
X9484034Y-12940229D01*
X9568888Y-12940229D01*
X9668292Y-8755267D02*
X9788292Y-8875267D01*
X9788292Y-8755267D02*
X9668292Y-8875267D01*
X9770719Y-8857694D02*
X9770719Y-8772840D01*
X9685865Y-8772840D01*
X9685865Y-8857694D01*
X9770719Y-8857694D01*
X9798433Y-10925842D02*
X9918433Y-11045842D01*
X9918433Y-10925842D02*
X9798433Y-11045842D01*
X9900860Y-11028269D02*
X9900860Y-10943415D01*
X9816006Y-10943415D01*
X9816006Y-11028269D01*
X9900860Y-11028269D01*
X10000264Y-6843306D02*
X10120264Y-6963306D01*
X10120264Y-6843306D02*
X10000264Y-6963306D01*
X10102691Y-6945733D02*
X10102691Y-6860880D01*
X10017837Y-6860880D01*
X10017837Y-6945733D01*
X10102691Y-6945733D01*
X10124230Y-9048901D02*
X10244230Y-9168901D01*
X10244230Y-9048901D02*
X10124230Y-9168901D01*
X10226657Y-9151328D02*
X10226657Y-9066474D01*
X10141803Y-9066474D01*
X10141803Y-9151328D01*
X10226657Y-9151328D01*
X10456202Y-7136940D02*
X10576202Y-7256940D01*
X10576202Y-7136940D02*
X10456202Y-7256940D01*
X10558629Y-7239367D02*
X10558629Y-7154513D01*
X10473775Y-7154513D01*
X10473775Y-7239367D01*
X10558629Y-7239367D01*
X10562259Y-14772803D02*
X10682259Y-14892803D01*
X10682259Y-14772803D02*
X10562259Y-14892803D01*
X10664686Y-14875230D02*
X10664686Y-14790376D01*
X10579833Y-14790376D01*
X10579833Y-14875230D01*
X10664686Y-14875230D01*
X10896588Y-12876733D02*
X11016588Y-12996733D01*
X11016588Y-12876733D02*
X10896588Y-12996733D01*
X10999014Y-12979159D02*
X10999014Y-12894306D01*
X10914161Y-12894306D01*
X10914161Y-12979159D01*
X10999014Y-12979159D01*
X11018197Y-15066437D02*
X11138197Y-15186437D01*
X11138197Y-15066437D02*
X11018197Y-15186437D01*
X11120624Y-15168863D02*
X11120624Y-15084010D01*
X11035770Y-15084010D01*
X11035770Y-15168863D01*
X11120624Y-15168863D01*
X11228559Y-10964772D02*
X11348559Y-11084772D01*
X11348559Y-10964772D02*
X11228559Y-11084772D01*
X11330986Y-11067199D02*
X11330986Y-10982345D01*
X11246133Y-10982345D01*
X11246133Y-11067199D01*
X11330986Y-11067199D01*
X11352525Y-13170366D02*
X11472525Y-13290366D01*
X11472525Y-13170366D02*
X11352525Y-13290366D01*
X11454952Y-13272793D02*
X11454952Y-13187940D01*
X11370099Y-13187940D01*
X11370099Y-13272793D01*
X11454952Y-13272793D01*
X11554356Y-9087831D02*
X11674356Y-9207831D01*
X11674356Y-9087831D02*
X11554356Y-9207831D01*
X11656783Y-9190258D02*
X11656783Y-9105404D01*
X11571930Y-9105404D01*
X11571930Y-9190258D01*
X11656783Y-9190258D01*
X11684497Y-11258406D02*
X11804497Y-11378406D01*
X11804497Y-11258406D02*
X11684497Y-11378406D01*
X11786924Y-11360832D02*
X11786924Y-11275979D01*
X11702070Y-11275979D01*
X11702070Y-11360832D01*
X11786924Y-11360832D01*
X11886328Y-7175871D02*
X12006328Y-7295871D01*
X12006328Y-7175871D02*
X11886328Y-7295871D01*
X11988755Y-7278297D02*
X11988755Y-7193444D01*
X11903901Y-7193444D01*
X11903901Y-7278297D01*
X11988755Y-7278297D01*
X12010294Y-9381465D02*
X12130294Y-9501465D01*
X12130294Y-9381465D02*
X12010294Y-9501465D01*
X12112721Y-9483892D02*
X12112721Y-9399038D01*
X12027867Y-9399038D01*
X12027867Y-9483892D01*
X12112721Y-9483892D01*
X12342266Y-7469504D02*
X12462266Y-7589504D01*
X12462266Y-7469504D02*
X12342266Y-7589504D01*
X12444693Y-7571931D02*
X12444693Y-7487077D01*
X12359839Y-7487077D01*
X12359839Y-7571931D01*
X12444693Y-7571931D01*
X12458329Y-15107131D02*
X12578329Y-15227131D01*
X12578329Y-15107131D02*
X12458329Y-15227131D01*
X12560756Y-15209558D02*
X12560756Y-15124704D01*
X12475903Y-15124704D01*
X12475903Y-15209558D01*
X12560756Y-15209558D01*
X12792658Y-13211061D02*
X12912658Y-13331061D01*
X12912658Y-13211061D02*
X12792658Y-13331061D01*
X12895084Y-13313488D02*
X12895084Y-13228634D01*
X12810231Y-13228634D01*
X12810231Y-13313488D01*
X12895084Y-13313488D01*
X12914267Y-15400765D02*
X13034267Y-15520765D01*
X13034267Y-15400765D02*
X12914267Y-15520765D01*
X13016694Y-15503192D02*
X13016694Y-15418338D01*
X12931840Y-15418338D01*
X12931840Y-15503192D01*
X13016694Y-15503192D01*
X13124630Y-11299100D02*
X13244630Y-11419100D01*
X13244630Y-11299100D02*
X13124630Y-11419100D01*
X13227056Y-11401527D02*
X13227056Y-11316673D01*
X13142203Y-11316673D01*
X13142203Y-11401527D01*
X13227056Y-11401527D01*
X13248595Y-13504695D02*
X13368595Y-13624695D01*
X13368595Y-13504695D02*
X13248595Y-13624695D01*
X13351022Y-13607121D02*
X13351022Y-13522268D01*
X13266169Y-13522268D01*
X13266169Y-13607121D01*
X13351022Y-13607121D01*
X13450426Y-9422159D02*
X13570426Y-9542159D01*
X13570426Y-9422159D02*
X13450426Y-9542159D01*
X13552853Y-9524586D02*
X13552853Y-9439733D01*
X13468000Y-9439733D01*
X13468000Y-9524586D01*
X13552853Y-9524586D01*
X13580567Y-11592734D02*
X13700567Y-11712734D01*
X13700567Y-11592734D02*
X13580567Y-11712734D01*
X13682994Y-11695161D02*
X13682994Y-11610307D01*
X13598141Y-11610307D01*
X13598141Y-11695161D01*
X13682994Y-11695161D01*
X13782398Y-7510199D02*
X13902398Y-7630199D01*
X13902398Y-7510199D02*
X13782398Y-7630199D01*
X13884825Y-7612626D02*
X13884825Y-7527772D01*
X13799972Y-7527772D01*
X13799972Y-7612626D01*
X13884825Y-7612626D01*
X13906364Y-9715793D02*
X14026364Y-9835793D01*
X14026364Y-9715793D02*
X13906364Y-9835793D01*
X14008791Y-9818220D02*
X14008791Y-9733366D01*
X13923937Y-9733366D01*
X13923937Y-9818220D01*
X14008791Y-9818220D01*
X14238336Y-7803833D02*
X14358336Y-7923833D01*
X14358336Y-7803833D02*
X14238336Y-7923833D01*
X14340763Y-7906259D02*
X14340763Y-7821406D01*
X14255909Y-7821406D01*
X14255909Y-7906259D01*
X14340763Y-7906259D01*
X14359402Y-15442341D02*
X14479402Y-15562341D01*
X14479402Y-15442341D02*
X14359402Y-15562341D01*
X14461829Y-15544768D02*
X14461829Y-15459915D01*
X14376975Y-15459915D01*
X14376975Y-15544768D01*
X14461829Y-15544768D01*
X14693731Y-13546272D02*
X14813731Y-13666272D01*
X14813731Y-13546272D02*
X14693731Y-13666272D01*
X14796157Y-13648698D02*
X14796157Y-13563845D01*
X14711304Y-13563845D01*
X14711304Y-13648698D01*
X14796157Y-13648698D01*
X14815340Y-15735975D02*
X14935340Y-15855975D01*
X14935340Y-15735975D02*
X14815340Y-15855975D01*
X14917767Y-15838402D02*
X14917767Y-15753548D01*
X14832913Y-15753548D01*
X14832913Y-15838402D01*
X14917767Y-15838402D01*
X15025703Y-11634311D02*
X15145703Y-11754311D01*
X15145703Y-11634311D02*
X15025703Y-11754311D01*
X15128129Y-11736738D02*
X15128129Y-11651884D01*
X15043276Y-11651884D01*
X15043276Y-11736738D01*
X15128129Y-11736738D01*
X15149668Y-13839905D02*
X15269668Y-13959905D01*
X15269668Y-13839905D02*
X15149668Y-13959905D01*
X15252095Y-13942332D02*
X15252095Y-13857478D01*
X15167242Y-13857478D01*
X15167242Y-13942332D01*
X15252095Y-13942332D01*
X15351499Y-9757370D02*
X15471499Y-9877370D01*
X15471499Y-9757370D02*
X15351499Y-9877370D01*
X15453926Y-9859797D02*
X15453926Y-9774943D01*
X15369073Y-9774943D01*
X15369073Y-9859797D01*
X15453926Y-9859797D01*
X15481640Y-11927944D02*
X15601640Y-12047944D01*
X15601640Y-11927944D02*
X15481640Y-12047944D01*
X15584067Y-12030371D02*
X15584067Y-11945518D01*
X15499214Y-11945518D01*
X15499214Y-12030371D01*
X15584067Y-12030371D01*
X15683471Y-7845409D02*
X15803471Y-7965409D01*
X15803471Y-7845409D02*
X15683471Y-7965409D01*
X15785898Y-7947836D02*
X15785898Y-7862982D01*
X15701044Y-7862982D01*
X15701044Y-7947836D01*
X15785898Y-7947836D01*
X15807437Y-10051004D02*
X15927437Y-10171004D01*
X15927437Y-10051004D02*
X15807437Y-10171004D01*
X15909864Y-10153431D02*
X15909864Y-10068577D01*
X15825010Y-10068577D01*
X15825010Y-10153431D01*
X15909864Y-10153431D01*
X16139409Y-8139043D02*
X16259409Y-8259043D01*
X16259409Y-8139043D02*
X16139409Y-8259043D01*
X16241836Y-8241470D02*
X16241836Y-8156616D01*
X16156982Y-8156616D01*
X16156982Y-8241470D01*
X16241836Y-8241470D01*
X16255472Y-15776670D02*
X16375472Y-15896670D01*
X16375472Y-15776670D02*
X16255472Y-15896670D01*
X16357899Y-15879097D02*
X16357899Y-15794243D01*
X16273045Y-15794243D01*
X16273045Y-15879097D01*
X16357899Y-15879097D01*
X16589801Y-13880600D02*
X16709801Y-14000600D01*
X16709801Y-13880600D02*
X16589801Y-14000600D01*
X16692227Y-13983027D02*
X16692227Y-13898173D01*
X16607374Y-13898173D01*
X16607374Y-13983027D01*
X16692227Y-13983027D01*
X16711410Y-16070303D02*
X16831410Y-16190303D01*
X16831410Y-16070303D02*
X16711410Y-16190303D01*
X16813837Y-16172730D02*
X16813837Y-16087877D01*
X16728983Y-16087877D01*
X16728983Y-16172730D01*
X16813837Y-16172730D01*
X16921773Y-11968639D02*
X17041773Y-12088639D01*
X17041773Y-11968639D02*
X16921773Y-12088639D01*
X17024199Y-12071066D02*
X17024199Y-11986212D01*
X16939346Y-11986212D01*
X16939346Y-12071066D01*
X17024199Y-12071066D01*
X17045738Y-14174234D02*
X17165738Y-14294234D01*
X17165738Y-14174234D02*
X17045738Y-14294234D01*
X17148165Y-14276660D02*
X17148165Y-14191807D01*
X17063312Y-14191807D01*
X17063312Y-14276660D01*
X17148165Y-14276660D01*
X17247570Y-10091698D02*
X17367570Y-10211698D01*
X17367570Y-10091698D02*
X17247570Y-10211698D01*
X17349996Y-10194125D02*
X17349996Y-10109271D01*
X17265143Y-10109271D01*
X17265143Y-10194125D01*
X17349996Y-10194125D01*
X17377710Y-12262273D02*
X17497710Y-12382273D01*
X17497710Y-12262273D02*
X17377710Y-12382273D01*
X17480137Y-12364700D02*
X17480137Y-12279846D01*
X17395284Y-12279846D01*
X17395284Y-12364700D01*
X17480137Y-12364700D01*
X17579542Y-8179737D02*
X17699542Y-8299737D01*
X17699542Y-8179737D02*
X17579542Y-8299737D01*
X17681968Y-8282164D02*
X17681968Y-8197311D01*
X17597115Y-8197311D01*
X17597115Y-8282164D01*
X17681968Y-8282164D01*
X17703507Y-10385332D02*
X17823507Y-10505332D01*
X17823507Y-10385332D02*
X17703507Y-10505332D01*
X17805934Y-10487759D02*
X17805934Y-10402905D01*
X17721081Y-10402905D01*
X17721081Y-10487759D01*
X17805934Y-10487759D01*
X18035479Y-8473371D02*
X18155479Y-8593371D01*
X18155479Y-8473371D02*
X18035479Y-8593371D01*
X18137906Y-8575798D02*
X18137906Y-8490944D01*
X18053053Y-8490944D01*
X18053053Y-8575798D01*
X18137906Y-8575798D01*
X18572120Y-17423440D02*
X18692120Y-17543440D01*
X18692120Y-17423440D02*
X18572120Y-17543440D01*
X18674547Y-17525867D02*
X18674547Y-17441013D01*
X18589693Y-17441013D01*
X18589693Y-17525867D01*
X18674547Y-17525867D01*
X19072120Y-17633440D02*
X19192120Y-17753440D01*
X19192120Y-17633440D02*
X19072120Y-17753440D01*
X19174547Y-17735867D02*
X19174547Y-17651013D01*
X19089693Y-17651013D01*
X19089693Y-17735867D01*
X19174547Y-17735867D01*
X23377800Y-17443760D02*
X23497800Y-17563760D01*
X23497800Y-17443760D02*
X23377800Y-17563760D01*
X23480227Y-17546187D02*
X23480227Y-17461333D01*
X23395373Y-17461333D01*
X23395373Y-17546187D01*
X23480227Y-17546187D01*
X23877800Y-17653760D02*
X23997800Y-17773760D01*
X23997800Y-17653760D02*
X23877800Y-17773760D01*
X23980227Y-17756187D02*
X23980227Y-17671333D01*
X23895373Y-17671333D01*
X23895373Y-17756187D01*
X23980227Y-17756187D01*
X24321452Y-8193437D02*
X24441452Y-8313437D01*
X24441452Y-8193437D02*
X24321452Y-8313437D01*
X24423879Y-8295864D02*
X24423879Y-8211010D01*
X24339025Y-8211010D01*
X24339025Y-8295864D01*
X24423879Y-8295864D01*
X24663429Y-10103634D02*
X24783429Y-10223634D01*
X24783429Y-10103634D02*
X24663429Y-10223634D01*
X24765856Y-10206061D02*
X24765856Y-10121207D01*
X24681002Y-10121207D01*
X24681002Y-10206061D01*
X24765856Y-10206061D01*
X24850322Y-8313423D02*
X24970322Y-8433423D01*
X24970322Y-8313423D02*
X24850322Y-8433423D01*
X24952749Y-8415850D02*
X24952749Y-8330996D01*
X24867895Y-8330996D01*
X24867895Y-8415850D01*
X24952749Y-8415850D01*
X24999232Y-11978810D02*
X25119232Y-12098810D01*
X25119232Y-11978810D02*
X24999232Y-12098810D01*
X25101659Y-12081237D02*
X25101659Y-11996383D01*
X25016805Y-11996383D01*
X25016805Y-12081237D01*
X25101659Y-12081237D01*
X25192299Y-10223619D02*
X25312299Y-10343619D01*
X25312299Y-10223619D02*
X25192299Y-10343619D01*
X25294726Y-10326046D02*
X25294726Y-10241193D01*
X25209872Y-10241193D01*
X25209872Y-10326046D01*
X25294726Y-10326046D01*
X25341209Y-13889007D02*
X25461209Y-14009007D01*
X25461209Y-13889007D02*
X25341209Y-14009007D01*
X25443636Y-13991433D02*
X25443636Y-13906580D01*
X25358783Y-13906580D01*
X25358783Y-13991433D01*
X25443636Y-13991433D01*
X25528102Y-12098796D02*
X25648102Y-12218796D01*
X25648102Y-12098796D02*
X25528102Y-12218796D01*
X25630529Y-12201223D02*
X25630529Y-12116369D01*
X25545675Y-12116369D01*
X25545675Y-12201223D01*
X25630529Y-12201223D01*
X25674119Y-15789470D02*
X25794119Y-15909470D01*
X25794119Y-15789470D02*
X25674119Y-15909470D01*
X25776546Y-15891897D02*
X25776546Y-15807043D01*
X25691692Y-15807043D01*
X25691692Y-15891897D01*
X25776546Y-15891897D01*
X25870079Y-14008992D02*
X25990079Y-14128992D01*
X25990079Y-14008992D02*
X25870079Y-14128992D01*
X25972506Y-14111419D02*
X25972506Y-14026565D01*
X25887653Y-14026565D01*
X25887653Y-14111419D01*
X25972506Y-14111419D01*
X26202989Y-15909455D02*
X26322989Y-16029455D01*
X26322989Y-15909455D02*
X26202989Y-16029455D01*
X26305416Y-16011882D02*
X26305416Y-15927029D01*
X26220562Y-15927029D01*
X26220562Y-16011882D01*
X26305416Y-16011882D01*
X26217522Y-7859109D02*
X26337522Y-7979109D01*
X26337522Y-7859109D02*
X26217522Y-7979109D01*
X26319949Y-7961536D02*
X26319949Y-7876682D01*
X26235095Y-7876682D01*
X26235095Y-7961536D01*
X26319949Y-7961536D01*
X26559499Y-9769305D02*
X26679499Y-9889305D01*
X26679499Y-9769305D02*
X26559499Y-9889305D01*
X26661926Y-9871732D02*
X26661926Y-9786878D01*
X26577073Y-9786878D01*
X26577073Y-9871732D01*
X26661926Y-9871732D01*
X26746392Y-7979094D02*
X26866392Y-8099094D01*
X26866392Y-7979094D02*
X26746392Y-8099094D01*
X26848819Y-8081521D02*
X26848819Y-7996668D01*
X26763965Y-7996668D01*
X26763965Y-8081521D01*
X26848819Y-8081521D01*
X26895302Y-11644482D02*
X27015302Y-11764482D01*
X27015302Y-11644482D02*
X26895302Y-11764482D01*
X26997729Y-11746909D02*
X26997729Y-11662055D01*
X26912875Y-11662055D01*
X26912875Y-11746909D01*
X26997729Y-11746909D01*
X27088369Y-9889291D02*
X27208369Y-10009291D01*
X27208369Y-9889291D02*
X27088369Y-10009291D01*
X27190796Y-9991718D02*
X27190796Y-9906864D01*
X27105943Y-9906864D01*
X27105943Y-9991718D01*
X27190796Y-9991718D01*
X27237279Y-13554678D02*
X27357279Y-13674678D01*
X27357279Y-13554678D02*
X27237279Y-13674678D01*
X27339706Y-13657105D02*
X27339706Y-13572251D01*
X27254853Y-13572251D01*
X27254853Y-13657105D01*
X27339706Y-13657105D01*
X27424172Y-11764467D02*
X27544172Y-11884467D01*
X27544172Y-11764467D02*
X27424172Y-11884467D01*
X27526599Y-11866894D02*
X27526599Y-11782041D01*
X27441745Y-11782041D01*
X27441745Y-11866894D01*
X27526599Y-11866894D01*
X27570189Y-15455141D02*
X27690189Y-15575141D01*
X27690189Y-15455141D02*
X27570189Y-15575141D01*
X27672616Y-15557568D02*
X27672616Y-15472715D01*
X27587762Y-15472715D01*
X27587762Y-15557568D01*
X27672616Y-15557568D01*
X27766149Y-13674664D02*
X27886149Y-13794664D01*
X27886149Y-13674664D02*
X27766149Y-13794664D01*
X27868576Y-13777091D02*
X27868576Y-13692237D01*
X27783723Y-13692237D01*
X27783723Y-13777091D01*
X27868576Y-13777091D01*
X28099059Y-15575127D02*
X28219059Y-15695127D01*
X28219059Y-15575127D02*
X28099059Y-15695127D01*
X28201486Y-15677554D02*
X28201486Y-15592700D01*
X28116632Y-15592700D01*
X28116632Y-15677554D01*
X28201486Y-15677554D01*
X28113592Y-7524781D02*
X28233592Y-7644781D01*
X28233592Y-7524781D02*
X28113592Y-7644781D01*
X28216019Y-7627207D02*
X28216019Y-7542354D01*
X28131165Y-7542354D01*
X28131165Y-7627207D01*
X28216019Y-7627207D01*
X28455569Y-9434977D02*
X28575569Y-9554977D01*
X28575569Y-9434977D02*
X28455569Y-9554977D01*
X28557996Y-9537404D02*
X28557996Y-9452550D01*
X28473143Y-9452550D01*
X28473143Y-9537404D01*
X28557996Y-9537404D01*
X28642462Y-7644766D02*
X28762462Y-7764766D01*
X28762462Y-7644766D02*
X28642462Y-7764766D01*
X28744889Y-7747193D02*
X28744889Y-7662339D01*
X28660035Y-7662339D01*
X28660035Y-7747193D01*
X28744889Y-7747193D01*
X28791372Y-11310154D02*
X28911372Y-11430154D01*
X28911372Y-11310154D02*
X28791372Y-11430154D01*
X28893799Y-11412580D02*
X28893799Y-11327727D01*
X28808945Y-11327727D01*
X28808945Y-11412580D01*
X28893799Y-11412580D01*
X28984439Y-9554963D02*
X29104439Y-9674963D01*
X29104439Y-9554963D02*
X28984439Y-9674963D01*
X29086866Y-9657389D02*
X29086866Y-9572536D01*
X29002013Y-9572536D01*
X29002013Y-9657389D01*
X29086866Y-9657389D01*
X29133350Y-13220350D02*
X29253350Y-13340350D01*
X29253350Y-13220350D02*
X29133350Y-13340350D01*
X29235776Y-13322777D02*
X29235776Y-13237923D01*
X29150923Y-13237923D01*
X29150923Y-13322777D01*
X29235776Y-13322777D01*
X29320242Y-11430139D02*
X29440242Y-11550139D01*
X29440242Y-11430139D02*
X29320242Y-11550139D01*
X29422669Y-11532566D02*
X29422669Y-11447712D01*
X29337815Y-11447712D01*
X29337815Y-11532566D01*
X29422669Y-11532566D01*
X29471262Y-15119931D02*
X29591262Y-15239931D01*
X29591262Y-15119931D02*
X29471262Y-15239931D01*
X29573689Y-15222358D02*
X29573689Y-15137504D01*
X29488835Y-15137504D01*
X29488835Y-15222358D01*
X29573689Y-15222358D01*
X29662220Y-13340336D02*
X29782220Y-13460336D01*
X29782220Y-13340336D02*
X29662220Y-13460336D01*
X29764646Y-13442762D02*
X29764646Y-13357909D01*
X29679793Y-13357909D01*
X29679793Y-13442762D01*
X29764646Y-13442762D01*
X30000132Y-15239917D02*
X30120132Y-15359917D01*
X30120132Y-15239917D02*
X30000132Y-15359917D01*
X30102559Y-15342343D02*
X30102559Y-15257490D01*
X30017705Y-15257490D01*
X30017705Y-15342343D01*
X30102559Y-15342343D01*
X30009662Y-7190452D02*
X30129662Y-7310452D01*
X30129662Y-7190452D02*
X30009662Y-7310452D01*
X30112089Y-7292879D02*
X30112089Y-7208025D01*
X30027235Y-7208025D01*
X30027235Y-7292879D01*
X30112089Y-7292879D01*
X30351639Y-9100649D02*
X30471639Y-9220649D01*
X30471639Y-9100649D02*
X30351639Y-9220649D01*
X30454066Y-9203075D02*
X30454066Y-9118222D01*
X30369213Y-9118222D01*
X30369213Y-9203075D01*
X30454066Y-9203075D01*
X30538532Y-7310438D02*
X30658532Y-7430438D01*
X30658532Y-7310438D02*
X30538532Y-7430438D01*
X30640959Y-7412865D02*
X30640959Y-7328011D01*
X30556105Y-7328011D01*
X30556105Y-7412865D01*
X30640959Y-7412865D01*
X30687442Y-10975825D02*
X30807442Y-11095825D01*
X30807442Y-10975825D02*
X30687442Y-11095825D01*
X30789869Y-11078252D02*
X30789869Y-10993399D01*
X30705015Y-10993399D01*
X30705015Y-11078252D01*
X30789869Y-11078252D01*
X30880509Y-9220634D02*
X31000509Y-9340634D01*
X31000509Y-9220634D02*
X30880509Y-9340634D01*
X30982936Y-9323061D02*
X30982936Y-9238207D01*
X30898083Y-9238207D01*
X30898083Y-9323061D01*
X30982936Y-9323061D01*
X31029420Y-12886022D02*
X31149420Y-13006022D01*
X31149420Y-12886022D02*
X31029420Y-13006022D01*
X31131846Y-12988449D02*
X31131846Y-12903595D01*
X31046993Y-12903595D01*
X31046993Y-12988449D01*
X31131846Y-12988449D01*
X31216312Y-11095811D02*
X31336312Y-11215811D01*
X31336312Y-11095811D02*
X31216312Y-11215811D01*
X31318739Y-11198238D02*
X31318739Y-11113384D01*
X31233885Y-11113384D01*
X31233885Y-11198238D01*
X31318739Y-11198238D01*
X31367332Y-14785603D02*
X31487332Y-14905603D01*
X31487332Y-14785603D02*
X31367332Y-14905603D01*
X31469759Y-14888029D02*
X31469759Y-14803176D01*
X31384905Y-14803176D01*
X31384905Y-14888029D01*
X31469759Y-14888029D01*
X31558290Y-13006007D02*
X31678290Y-13126007D01*
X31678290Y-13006007D02*
X31558290Y-13126007D01*
X31660716Y-13108434D02*
X31660716Y-13023581D01*
X31575863Y-13023581D01*
X31575863Y-13108434D01*
X31660716Y-13108434D01*
X31895726Y-6857888D02*
X32015726Y-6977888D01*
X32015726Y-6857888D02*
X31895726Y-6977888D01*
X31998153Y-6960315D02*
X31998153Y-6875461D01*
X31913300Y-6875461D01*
X31913300Y-6960315D01*
X31998153Y-6960315D01*
X31896202Y-14905588D02*
X32016202Y-15025588D01*
X32016202Y-14905588D02*
X31896202Y-15025588D01*
X31998629Y-15008015D02*
X31998629Y-14923161D01*
X31913775Y-14923161D01*
X31913775Y-15008015D01*
X31998629Y-15008015D01*
X32237704Y-8768085D02*
X32357704Y-8888085D01*
X32357704Y-8768085D02*
X32237704Y-8888085D01*
X32340131Y-8870511D02*
X32340131Y-8785658D01*
X32255277Y-8785658D01*
X32255277Y-8870511D01*
X32340131Y-8870511D01*
X32424596Y-6977874D02*
X32544596Y-7097874D01*
X32544596Y-6977874D02*
X32424596Y-7097874D01*
X32527023Y-7080301D02*
X32527023Y-6995447D01*
X32442170Y-6995447D01*
X32442170Y-7080301D01*
X32527023Y-7080301D01*
X32573506Y-10643261D02*
X32693506Y-10763261D01*
X32693506Y-10643261D02*
X32573506Y-10763261D01*
X32675933Y-10745688D02*
X32675933Y-10660834D01*
X32591080Y-10660834D01*
X32591080Y-10745688D01*
X32675933Y-10745688D01*
X32766574Y-8888070D02*
X32886574Y-9008070D01*
X32886574Y-8888070D02*
X32766574Y-9008070D01*
X32869001Y-8990497D02*
X32869001Y-8905643D01*
X32784147Y-8905643D01*
X32784147Y-8990497D01*
X32869001Y-8990497D01*
X32915484Y-12553458D02*
X33035484Y-12673458D01*
X33035484Y-12553458D02*
X32915484Y-12673458D01*
X33017911Y-12655884D02*
X33017911Y-12571031D01*
X32933057Y-12571031D01*
X32933057Y-12655884D01*
X33017911Y-12655884D01*
X33102376Y-10763247D02*
X33222376Y-10883247D01*
X33222376Y-10763247D02*
X33102376Y-10883247D01*
X33204803Y-10865674D02*
X33204803Y-10780820D01*
X33119950Y-10780820D01*
X33119950Y-10865674D01*
X33204803Y-10865674D01*
X33444354Y-12673443D02*
X33564354Y-12793443D01*
X33564354Y-12673443D02*
X33444354Y-12793443D01*
X33546781Y-12775870D02*
X33546781Y-12691016D01*
X33461927Y-12691016D01*
X33461927Y-12775870D01*
X33546781Y-12775870D01*
X33791796Y-6523560D02*
X33911796Y-6643560D01*
X33911796Y-6523560D02*
X33791796Y-6643560D01*
X33894223Y-6625987D02*
X33894223Y-6541133D01*
X33809370Y-6541133D01*
X33809370Y-6625987D01*
X33894223Y-6625987D01*
X34133774Y-8433756D02*
X34253774Y-8553756D01*
X34253774Y-8433756D02*
X34133774Y-8553756D01*
X34236201Y-8536183D02*
X34236201Y-8451330D01*
X34151347Y-8451330D01*
X34151347Y-8536183D01*
X34236201Y-8536183D01*
X34320666Y-6643545D02*
X34440666Y-6763545D01*
X34440666Y-6643545D02*
X34320666Y-6763545D01*
X34423093Y-6745972D02*
X34423093Y-6661119D01*
X34338240Y-6661119D01*
X34338240Y-6745972D01*
X34423093Y-6745972D01*
X34469577Y-10308933D02*
X34589577Y-10428933D01*
X34589577Y-10308933D02*
X34469577Y-10428933D01*
X34572004Y-10411360D02*
X34572004Y-10326506D01*
X34487150Y-10326506D01*
X34487150Y-10411360D01*
X34572004Y-10411360D01*
X34662644Y-8553742D02*
X34782644Y-8673742D01*
X34782644Y-8553742D02*
X34662644Y-8673742D01*
X34765071Y-8656169D02*
X34765071Y-8571315D01*
X34680217Y-8571315D01*
X34680217Y-8656169D01*
X34765071Y-8656169D01*
X34811554Y-12219129D02*
X34931554Y-12339129D01*
X34931554Y-12219129D02*
X34811554Y-12339129D01*
X34913981Y-12321556D02*
X34913981Y-12236702D01*
X34829127Y-12236702D01*
X34829127Y-12321556D01*
X34913981Y-12321556D01*
X34998447Y-10428919D02*
X35118447Y-10548919D01*
X35118447Y-10428919D02*
X34998447Y-10548919D01*
X35100874Y-10531345D02*
X35100874Y-10446492D01*
X35016020Y-10446492D01*
X35016020Y-10531345D01*
X35100874Y-10531345D01*
X35340424Y-12339115D02*
X35460424Y-12459115D01*
X35460424Y-12339115D02*
X35340424Y-12459115D01*
X35442851Y-12441542D02*
X35442851Y-12356688D01*
X35357997Y-12356688D01*
X35357997Y-12441542D01*
X35442851Y-12441542D01*
D20*
X6667396Y-12461076D02*
X6814396Y-12608076D01*
X6814396Y-12461076D02*
X6667396Y-12608076D01*
X6740896Y-12608076D02*
X6814396Y-12534576D01*
X6740896Y-12461076D01*
X6667396Y-12534576D01*
X6740896Y-12608076D01*
X6821758Y-12340042D02*
X6968758Y-12487042D01*
X6968758Y-12340042D02*
X6821758Y-12487042D01*
X6895258Y-12487042D02*
X6968758Y-12413542D01*
X6895258Y-12340042D01*
X6821758Y-12413542D01*
X6895258Y-12487042D01*
X6999367Y-10549115D02*
X7146367Y-10696115D01*
X7146367Y-10549115D02*
X6999367Y-10696115D01*
X7072867Y-10696115D02*
X7146367Y-10622615D01*
X7072867Y-10549115D01*
X6999367Y-10622615D01*
X7072867Y-10696115D01*
X7153730Y-10428081D02*
X7300730Y-10575081D01*
X7300730Y-10428081D02*
X7153730Y-10575081D01*
X7227230Y-10575081D02*
X7300730Y-10501581D01*
X7227230Y-10428081D01*
X7153730Y-10501581D01*
X7227230Y-10575081D01*
X7322844Y-12377625D02*
X7469844Y-12524625D01*
X7469844Y-12377625D02*
X7322844Y-12524625D01*
X7396344Y-12524625D02*
X7469844Y-12451125D01*
X7396344Y-12377625D01*
X7322844Y-12451125D01*
X7396344Y-12524625D01*
X7325164Y-8672174D02*
X7472164Y-8819174D01*
X7472164Y-8672174D02*
X7325164Y-8819174D01*
X7398664Y-8819174D02*
X7472164Y-8745674D01*
X7398664Y-8672174D01*
X7325164Y-8745674D01*
X7398664Y-8819174D01*
X7336855Y-12321201D02*
X7483855Y-12468201D01*
X7483855Y-12321201D02*
X7336855Y-12468201D01*
X7410355Y-12468201D02*
X7483855Y-12394701D01*
X7410355Y-12321201D01*
X7336855Y-12394701D01*
X7410355Y-12468201D01*
X7479527Y-8551140D02*
X7626527Y-8698140D01*
X7626527Y-8551140D02*
X7479527Y-8698140D01*
X7553027Y-8698140D02*
X7626527Y-8624640D01*
X7553027Y-8551140D01*
X7479527Y-8624640D01*
X7553027Y-8698140D01*
X7654816Y-10465665D02*
X7801816Y-10612665D01*
X7801816Y-10465665D02*
X7654816Y-10612665D01*
X7728316Y-10612665D02*
X7801816Y-10539165D01*
X7728316Y-10465665D01*
X7654816Y-10539165D01*
X7728316Y-10612665D01*
X7657136Y-6760214D02*
X7804136Y-6907214D01*
X7804136Y-6760214D02*
X7657136Y-6907214D01*
X7730636Y-6907214D02*
X7804136Y-6833714D01*
X7730636Y-6760214D01*
X7657136Y-6833714D01*
X7730636Y-6907214D01*
X7668827Y-10409241D02*
X7815827Y-10556241D01*
X7815827Y-10409241D02*
X7668827Y-10556241D01*
X7742327Y-10556241D02*
X7815827Y-10482741D01*
X7742327Y-10409241D01*
X7668827Y-10482741D01*
X7742327Y-10556241D01*
X7811499Y-6639180D02*
X7958499Y-6786180D01*
X7958499Y-6639180D02*
X7811499Y-6786180D01*
X7884999Y-6786180D02*
X7958499Y-6712680D01*
X7884999Y-6639180D01*
X7811499Y-6712680D01*
X7884999Y-6786180D01*
X7980613Y-8588724D02*
X8127613Y-8735724D01*
X8127613Y-8588724D02*
X7980613Y-8735724D01*
X8054113Y-8735724D02*
X8127613Y-8662224D01*
X8054113Y-8588724D01*
X7980613Y-8662224D01*
X8054113Y-8735724D01*
X7994624Y-8532300D02*
X8141624Y-8679300D01*
X8141624Y-8532300D02*
X7994624Y-8679300D01*
X8068124Y-8679300D02*
X8141624Y-8605800D01*
X8068124Y-8532300D01*
X7994624Y-8605800D01*
X8068124Y-8679300D01*
X8312585Y-6676763D02*
X8459585Y-6823763D01*
X8459585Y-6676763D02*
X8312585Y-6823763D01*
X8386085Y-6823763D02*
X8459585Y-6750263D01*
X8386085Y-6676763D01*
X8312585Y-6750263D01*
X8386085Y-6823763D01*
X8326596Y-6620339D02*
X8473596Y-6767339D01*
X8473596Y-6620339D02*
X8326596Y-6767339D01*
X8400096Y-6767339D02*
X8473596Y-6693839D01*
X8400096Y-6620339D01*
X8326596Y-6693839D01*
X8400096Y-6767339D01*
X8563466Y-12795404D02*
X8710466Y-12942404D01*
X8710466Y-12795404D02*
X8563466Y-12942404D01*
X8636966Y-12942404D02*
X8710466Y-12868904D01*
X8636966Y-12795404D01*
X8563466Y-12868904D01*
X8636966Y-12942404D01*
X8717828Y-12674370D02*
X8864828Y-12821370D01*
X8864828Y-12674370D02*
X8717828Y-12821370D01*
X8791328Y-12821370D02*
X8864828Y-12747870D01*
X8791328Y-12674370D01*
X8717828Y-12747870D01*
X8791328Y-12821370D01*
X8895438Y-10883444D02*
X9042438Y-11030444D01*
X9042438Y-10883444D02*
X8895438Y-11030444D01*
X8968938Y-11030444D02*
X9042438Y-10956944D01*
X8968938Y-10883444D01*
X8895438Y-10956944D01*
X8968938Y-11030444D01*
X9049800Y-10762410D02*
X9196800Y-10909410D01*
X9196800Y-10762410D02*
X9049800Y-10909410D01*
X9123300Y-10909410D02*
X9196800Y-10835910D01*
X9123300Y-10762410D01*
X9049800Y-10835910D01*
X9123300Y-10909410D01*
X9218914Y-12711954D02*
X9365914Y-12858954D01*
X9365914Y-12711954D02*
X9218914Y-12858954D01*
X9292414Y-12858954D02*
X9365914Y-12785454D01*
X9292414Y-12711954D01*
X9218914Y-12785454D01*
X9292414Y-12858954D01*
X9221235Y-9006503D02*
X9368235Y-9153503D01*
X9368235Y-9006503D02*
X9221235Y-9153503D01*
X9294735Y-9153503D02*
X9368235Y-9080003D01*
X9294735Y-9006503D01*
X9221235Y-9080003D01*
X9294735Y-9153503D01*
X9232925Y-12655530D02*
X9379925Y-12802530D01*
X9379925Y-12655530D02*
X9232925Y-12802530D01*
X9306425Y-12802530D02*
X9379925Y-12729030D01*
X9306425Y-12655530D01*
X9232925Y-12729030D01*
X9306425Y-12802530D01*
X9375597Y-8885469D02*
X9522597Y-9032469D01*
X9522597Y-8885469D02*
X9375597Y-9032469D01*
X9449097Y-9032469D02*
X9522597Y-8958969D01*
X9449097Y-8885469D01*
X9375597Y-8958969D01*
X9449097Y-9032469D01*
X9550886Y-10799993D02*
X9697886Y-10946993D01*
X9697886Y-10799993D02*
X9550886Y-10946993D01*
X9624386Y-10946993D02*
X9697886Y-10873493D01*
X9624386Y-10799993D01*
X9550886Y-10873493D01*
X9624386Y-10946993D01*
X9553206Y-7094542D02*
X9700206Y-7241542D01*
X9700206Y-7094542D02*
X9553206Y-7241542D01*
X9626706Y-7241542D02*
X9700206Y-7168042D01*
X9626706Y-7094542D01*
X9553206Y-7168042D01*
X9626706Y-7241542D01*
X9564897Y-10743569D02*
X9711897Y-10890569D01*
X9711897Y-10743569D02*
X9564897Y-10890569D01*
X9638397Y-10890569D02*
X9711897Y-10817069D01*
X9638397Y-10743569D01*
X9564897Y-10817069D01*
X9638397Y-10890569D01*
X9707569Y-6973508D02*
X9854569Y-7120508D01*
X9854569Y-6973508D02*
X9707569Y-7120508D01*
X9781069Y-7120508D02*
X9854569Y-7047008D01*
X9781069Y-6973508D01*
X9707569Y-7047008D01*
X9781069Y-7120508D01*
X9876683Y-8923052D02*
X10023683Y-9070052D01*
X10023683Y-8923052D02*
X9876683Y-9070052D01*
X9950183Y-9070052D02*
X10023683Y-8996552D01*
X9950183Y-8923052D01*
X9876683Y-8996552D01*
X9950183Y-9070052D01*
X9890694Y-8866628D02*
X10037694Y-9013628D01*
X10037694Y-8866628D02*
X9890694Y-9013628D01*
X9964194Y-9013628D02*
X10037694Y-8940128D01*
X9964194Y-8866628D01*
X9890694Y-8940128D01*
X9964194Y-9013628D01*
X10115202Y-15024038D02*
X10262202Y-15171038D01*
X10262202Y-15024038D02*
X10115202Y-15171038D01*
X10188702Y-15171038D02*
X10262202Y-15097538D01*
X10188702Y-15024038D01*
X10115202Y-15097538D01*
X10188702Y-15171038D01*
X10208655Y-7011092D02*
X10355655Y-7158092D01*
X10355655Y-7011092D02*
X10208655Y-7158092D01*
X10282155Y-7158092D02*
X10355655Y-7084592D01*
X10282155Y-7011092D01*
X10208655Y-7084592D01*
X10282155Y-7158092D01*
X10222666Y-6954667D02*
X10369666Y-7101667D01*
X10369666Y-6954667D02*
X10222666Y-7101667D01*
X10296166Y-7101667D02*
X10369666Y-7028167D01*
X10296166Y-6954667D01*
X10222666Y-7028167D01*
X10296166Y-7101667D01*
X10269564Y-14903004D02*
X10416564Y-15050004D01*
X10416564Y-14903004D02*
X10269564Y-15050004D01*
X10343064Y-15050004D02*
X10416564Y-14976504D01*
X10343064Y-14903004D01*
X10269564Y-14976504D01*
X10343064Y-15050004D01*
X10449530Y-13127968D02*
X10596530Y-13274968D01*
X10596530Y-13127968D02*
X10449530Y-13274968D01*
X10523030Y-13274968D02*
X10596530Y-13201468D01*
X10523030Y-13127968D01*
X10449530Y-13201468D01*
X10523030Y-13274968D01*
X10603893Y-13006934D02*
X10750893Y-13153934D01*
X10750893Y-13006934D02*
X10603893Y-13153934D01*
X10677393Y-13153934D02*
X10750893Y-13080434D01*
X10677393Y-13006934D01*
X10603893Y-13080434D01*
X10677393Y-13153934D01*
X10770651Y-14940588D02*
X10917651Y-15087588D01*
X10917651Y-14940588D02*
X10770651Y-15087588D01*
X10844151Y-15087588D02*
X10917651Y-15014088D01*
X10844151Y-14940588D01*
X10770651Y-15014088D01*
X10844151Y-15087588D01*
X10781502Y-11216007D02*
X10928502Y-11363007D01*
X10928502Y-11216007D02*
X10781502Y-11363007D01*
X10855002Y-11363007D02*
X10928502Y-11289507D01*
X10855002Y-11216007D01*
X10781502Y-11289507D01*
X10855002Y-11363007D01*
X10784661Y-14884164D02*
X10931661Y-15031164D01*
X10931661Y-14884164D02*
X10784661Y-15031164D01*
X10858161Y-15031164D02*
X10931661Y-14957664D01*
X10858161Y-14884164D01*
X10784661Y-14957664D01*
X10858161Y-15031164D01*
X10935864Y-11094974D02*
X11082864Y-11241973D01*
X11082864Y-11094974D02*
X10935864Y-11241973D01*
X11009364Y-11241973D02*
X11082864Y-11168474D01*
X11009364Y-11094974D01*
X10935864Y-11168474D01*
X11009364Y-11241973D01*
X11104979Y-13044518D02*
X11251979Y-13191518D01*
X11251979Y-13044518D02*
X11104979Y-13191518D01*
X11178479Y-13191518D02*
X11251979Y-13118018D01*
X11178479Y-13044518D01*
X11104979Y-13118018D01*
X11178479Y-13191518D01*
X11107299Y-9339067D02*
X11254299Y-9486067D01*
X11254299Y-9339067D02*
X11107299Y-9486067D01*
X11180799Y-9486067D02*
X11254299Y-9412567D01*
X11180799Y-9339067D01*
X11107299Y-9412567D01*
X11180799Y-9486067D01*
X11118990Y-12988094D02*
X11265990Y-13135094D01*
X11265990Y-12988094D02*
X11118990Y-13135094D01*
X11192490Y-13135094D02*
X11265990Y-13061594D01*
X11192490Y-12988094D01*
X11118990Y-13061594D01*
X11192490Y-13135094D01*
X11261661Y-9218033D02*
X11408661Y-9365033D01*
X11408661Y-9218033D02*
X11261661Y-9365033D01*
X11335161Y-9365033D02*
X11408661Y-9291533D01*
X11335161Y-9218033D01*
X11261661Y-9291533D01*
X11335161Y-9365033D01*
X11436951Y-11132557D02*
X11583951Y-11279557D01*
X11583951Y-11132557D02*
X11436951Y-11279557D01*
X11510451Y-11279557D02*
X11583951Y-11206057D01*
X11510451Y-11132557D01*
X11436951Y-11206057D01*
X11510451Y-11279557D01*
X11439271Y-7427106D02*
X11586271Y-7574106D01*
X11586271Y-7427106D02*
X11439271Y-7574106D01*
X11512771Y-7574106D02*
X11586271Y-7500606D01*
X11512771Y-7427106D01*
X11439271Y-7500606D01*
X11512771Y-7574106D01*
X11450961Y-11076133D02*
X11597961Y-11223133D01*
X11597961Y-11076133D02*
X11450961Y-11223133D01*
X11524461Y-11223133D02*
X11597961Y-11149633D01*
X11524461Y-11076133D01*
X11450961Y-11149633D01*
X11524461Y-11223133D01*
X11593633Y-7306072D02*
X11740633Y-7453072D01*
X11740633Y-7306072D02*
X11593633Y-7453072D01*
X11667133Y-7453072D02*
X11740633Y-7379572D01*
X11667133Y-7306072D01*
X11593633Y-7379572D01*
X11667133Y-7453072D01*
X11762748Y-9255616D02*
X11909748Y-9402616D01*
X11909748Y-9255616D02*
X11762748Y-9402616D01*
X11836248Y-9402616D02*
X11909748Y-9329116D01*
X11836248Y-9255616D01*
X11762748Y-9329116D01*
X11836248Y-9402616D01*
X11776758Y-9199192D02*
X11923758Y-9346192D01*
X11923758Y-9199192D02*
X11776758Y-9346192D01*
X11850258Y-9346192D02*
X11923758Y-9272692D01*
X11850258Y-9199192D01*
X11776758Y-9272692D01*
X11850258Y-9346192D01*
X12011272Y-15358367D02*
X12158272Y-15505367D01*
X12158272Y-15358367D02*
X12011272Y-15505367D01*
X12084772Y-15505367D02*
X12158272Y-15431867D01*
X12084772Y-15358367D01*
X12011272Y-15431867D01*
X12084772Y-15505367D01*
X12094719Y-7343656D02*
X12241719Y-7490656D01*
X12241719Y-7343656D02*
X12094719Y-7490656D01*
X12168219Y-7490656D02*
X12241719Y-7417156D01*
X12168219Y-7343656D01*
X12094719Y-7417156D01*
X12168219Y-7490656D01*
X12108730Y-7287231D02*
X12255730Y-7434231D01*
X12255730Y-7287231D02*
X12108730Y-7434231D01*
X12182230Y-7434231D02*
X12255730Y-7360731D01*
X12182230Y-7287231D01*
X12108730Y-7360731D01*
X12182230Y-7434231D01*
X12165634Y-15237333D02*
X12312634Y-15384333D01*
X12312634Y-15237333D02*
X12165634Y-15384333D01*
X12239134Y-15384333D02*
X12312634Y-15310833D01*
X12239134Y-15237333D01*
X12165634Y-15310833D01*
X12239134Y-15384333D01*
X12345600Y-13462296D02*
X12492600Y-13609296D01*
X12492600Y-13462296D02*
X12345600Y-13609296D01*
X12419100Y-13609296D02*
X12492600Y-13535796D01*
X12419100Y-13462296D01*
X12345600Y-13535796D01*
X12419100Y-13609296D01*
X12499963Y-13341262D02*
X12646963Y-13488262D01*
X12646963Y-13341262D02*
X12499963Y-13488262D01*
X12573463Y-13488262D02*
X12646963Y-13414762D01*
X12573463Y-13341262D01*
X12499963Y-13414762D01*
X12573463Y-13488262D01*
X12666721Y-15274916D02*
X12813721Y-15421916D01*
X12813721Y-15274916D02*
X12666721Y-15421916D01*
X12740221Y-15421916D02*
X12813721Y-15348416D01*
X12740221Y-15274916D01*
X12666721Y-15348416D01*
X12740221Y-15421916D01*
X12677572Y-11550336D02*
X12824572Y-11697336D01*
X12824572Y-11550336D02*
X12677572Y-11697336D01*
X12751072Y-11697336D02*
X12824572Y-11623836D01*
X12751072Y-11550336D01*
X12677572Y-11623836D01*
X12751072Y-11697336D01*
X12680731Y-15218492D02*
X12827731Y-15365492D01*
X12827731Y-15218492D02*
X12680731Y-15365492D01*
X12754231Y-15365492D02*
X12827731Y-15291992D01*
X12754231Y-15218492D01*
X12680731Y-15291992D01*
X12754231Y-15365492D01*
X12831934Y-11429302D02*
X12978934Y-11576302D01*
X12978934Y-11429302D02*
X12831934Y-11576302D01*
X12905434Y-11576302D02*
X12978934Y-11502802D01*
X12905434Y-11429302D01*
X12831934Y-11502802D01*
X12905434Y-11576302D01*
X13001049Y-13378846D02*
X13148049Y-13525846D01*
X13148049Y-13378846D02*
X13001049Y-13525846D01*
X13074549Y-13525846D02*
X13148049Y-13452346D01*
X13074549Y-13378846D01*
X13001049Y-13452346D01*
X13074549Y-13525846D01*
X13003369Y-9673395D02*
X13150369Y-9820395D01*
X13150369Y-9673395D02*
X13003369Y-9820395D01*
X13076869Y-9820395D02*
X13150369Y-9746895D01*
X13076869Y-9673395D01*
X13003369Y-9746895D01*
X13076869Y-9820395D01*
X13015060Y-13322422D02*
X13162060Y-13469422D01*
X13162060Y-13322422D02*
X13015060Y-13469422D01*
X13088560Y-13469422D02*
X13162060Y-13395922D01*
X13088560Y-13322422D01*
X13015060Y-13395922D01*
X13088560Y-13469422D01*
X13157731Y-9552361D02*
X13304731Y-9699361D01*
X13304731Y-9552361D02*
X13157731Y-9699361D01*
X13231231Y-9699361D02*
X13304731Y-9625861D01*
X13231231Y-9552361D01*
X13157731Y-9625861D01*
X13231231Y-9699361D01*
X13333021Y-11466885D02*
X13480021Y-11613885D01*
X13480021Y-11466885D02*
X13333021Y-11613885D01*
X13406521Y-11613885D02*
X13480021Y-11540385D01*
X13406521Y-11466885D01*
X13333021Y-11540385D01*
X13406521Y-11613885D01*
X13335341Y-7761434D02*
X13482341Y-7908434D01*
X13482341Y-7761434D02*
X13335341Y-7908434D01*
X13408841Y-7908434D02*
X13482341Y-7834934D01*
X13408841Y-7761434D01*
X13335341Y-7834934D01*
X13408841Y-7908434D01*
X13347032Y-11410461D02*
X13494032Y-11557461D01*
X13494032Y-11410461D02*
X13347032Y-11557461D01*
X13420532Y-11557461D02*
X13494032Y-11483961D01*
X13420532Y-11410461D01*
X13347032Y-11483961D01*
X13420532Y-11557461D01*
X13489703Y-7640400D02*
X13636703Y-7787400D01*
X13636703Y-7640400D02*
X13489703Y-7787400D01*
X13563203Y-7787400D02*
X13636703Y-7713900D01*
X13563203Y-7640400D01*
X13489703Y-7713900D01*
X13563203Y-7787400D01*
X13658818Y-9589945D02*
X13805818Y-9736945D01*
X13805818Y-9589945D02*
X13658818Y-9736945D01*
X13732318Y-9736945D02*
X13805818Y-9663445D01*
X13732318Y-9589945D01*
X13658818Y-9663445D01*
X13732318Y-9736945D01*
X13672828Y-9533520D02*
X13819828Y-9680520D01*
X13819828Y-9533520D02*
X13672828Y-9680520D01*
X13746328Y-9680520D02*
X13819828Y-9607020D01*
X13746328Y-9533520D01*
X13672828Y-9607020D01*
X13746328Y-9680520D01*
X13912345Y-15693577D02*
X14059345Y-15840577D01*
X14059345Y-15693577D02*
X13912345Y-15840577D01*
X13985845Y-15840577D02*
X14059345Y-15767077D01*
X13985845Y-15693577D01*
X13912345Y-15767077D01*
X13985845Y-15840577D01*
X13990790Y-7677984D02*
X14137790Y-7824984D01*
X14137790Y-7677984D02*
X13990790Y-7824984D01*
X14064290Y-7824984D02*
X14137790Y-7751484D01*
X14064290Y-7677984D01*
X13990790Y-7751484D01*
X14064290Y-7824984D01*
X14004800Y-7621560D02*
X14151800Y-7768560D01*
X14151800Y-7621560D02*
X14004800Y-7768560D01*
X14078300Y-7768560D02*
X14151800Y-7695060D01*
X14078300Y-7621560D01*
X14004800Y-7695060D01*
X14078300Y-7768560D01*
X14066707Y-15572543D02*
X14213707Y-15719543D01*
X14213707Y-15572543D02*
X14066707Y-15719543D01*
X14140207Y-15719543D02*
X14213707Y-15646043D01*
X14140207Y-15572543D01*
X14066707Y-15646043D01*
X14140207Y-15719543D01*
X14246673Y-13797507D02*
X14393673Y-13944507D01*
X14393673Y-13797507D02*
X14246673Y-13944507D01*
X14320173Y-13944507D02*
X14393673Y-13871007D01*
X14320173Y-13797507D01*
X14246673Y-13871007D01*
X14320173Y-13944507D01*
X14401036Y-13676473D02*
X14548036Y-13823473D01*
X14548036Y-13676473D02*
X14401036Y-13823473D01*
X14474536Y-13823473D02*
X14548036Y-13749973D01*
X14474536Y-13676473D01*
X14401036Y-13749973D01*
X14474536Y-13823473D01*
X14567793Y-15610127D02*
X14714793Y-15757127D01*
X14714793Y-15610127D02*
X14567793Y-15757127D01*
X14641293Y-15757127D02*
X14714793Y-15683627D01*
X14641293Y-15610127D01*
X14567793Y-15683627D01*
X14641293Y-15757127D01*
X14578645Y-11885546D02*
X14725645Y-12032546D01*
X14725645Y-11885546D02*
X14578645Y-12032546D01*
X14652145Y-12032546D02*
X14725645Y-11959046D01*
X14652145Y-11885546D01*
X14578645Y-11959046D01*
X14652145Y-12032546D01*
X14581804Y-15553702D02*
X14728804Y-15700702D01*
X14728804Y-15553702D02*
X14581804Y-15700702D01*
X14655304Y-15700702D02*
X14728804Y-15627202D01*
X14655304Y-15553702D01*
X14581804Y-15627202D01*
X14655304Y-15700702D01*
X14733007Y-11764512D02*
X14880007Y-11911512D01*
X14880007Y-11764512D02*
X14733007Y-11911512D01*
X14806507Y-11911512D02*
X14880007Y-11838012D01*
X14806507Y-11764512D01*
X14733007Y-11838012D01*
X14806507Y-11911512D01*
X14902122Y-13714057D02*
X15049122Y-13861057D01*
X15049122Y-13714057D02*
X14902122Y-13861057D01*
X14975622Y-13861057D02*
X15049122Y-13787557D01*
X14975622Y-13714057D01*
X14902122Y-13787557D01*
X14975622Y-13861057D01*
X14904442Y-10008606D02*
X15051442Y-10155606D01*
X15051442Y-10008606D02*
X14904442Y-10155606D01*
X14977942Y-10155606D02*
X15051442Y-10082106D01*
X14977942Y-10008606D01*
X14904442Y-10082106D01*
X14977942Y-10155606D01*
X14916133Y-13657632D02*
X15063133Y-13804632D01*
X15063133Y-13657632D02*
X14916133Y-13804632D01*
X14989633Y-13804632D02*
X15063133Y-13731132D01*
X14989633Y-13657632D01*
X14916133Y-13731132D01*
X14989633Y-13804632D01*
X15058804Y-9887572D02*
X15205804Y-10034572D01*
X15205804Y-9887572D02*
X15058804Y-10034572D01*
X15132304Y-10034572D02*
X15205804Y-9961072D01*
X15132304Y-9887572D01*
X15058804Y-9961072D01*
X15132304Y-10034572D01*
X15234094Y-11802096D02*
X15381094Y-11949096D01*
X15381094Y-11802096D02*
X15234094Y-11949096D01*
X15307594Y-11949096D02*
X15381094Y-11875596D01*
X15307594Y-11802096D01*
X15234094Y-11875596D01*
X15307594Y-11949096D01*
X15236414Y-8096645D02*
X15383414Y-8243645D01*
X15383414Y-8096645D02*
X15236414Y-8243645D01*
X15309914Y-8243645D02*
X15383414Y-8170145D01*
X15309914Y-8096645D01*
X15236414Y-8170145D01*
X15309914Y-8243645D01*
X15248105Y-11745672D02*
X15395105Y-11892672D01*
X15395105Y-11745672D02*
X15248105Y-11892672D01*
X15321605Y-11892672D02*
X15395105Y-11819172D01*
X15321605Y-11745672D01*
X15248105Y-11819172D01*
X15321605Y-11892672D01*
X15390776Y-7975611D02*
X15537776Y-8122611D01*
X15537776Y-7975611D02*
X15390776Y-8122611D01*
X15464276Y-8122611D02*
X15537776Y-8049111D01*
X15464276Y-7975611D01*
X15390776Y-8049111D01*
X15464276Y-8122611D01*
X15559891Y-9925155D02*
X15706891Y-10072155D01*
X15706891Y-9925155D02*
X15559891Y-10072155D01*
X15633391Y-10072155D02*
X15706891Y-9998655D01*
X15633391Y-9925155D01*
X15559891Y-9998655D01*
X15633391Y-10072155D01*
X15573901Y-9868731D02*
X15720901Y-10015731D01*
X15720901Y-9868731D02*
X15573901Y-10015731D01*
X15647401Y-10015731D02*
X15720901Y-9942231D01*
X15647401Y-9868731D01*
X15573901Y-9942231D01*
X15647401Y-10015731D01*
X15808415Y-16027905D02*
X15955415Y-16174905D01*
X15955415Y-16027905D02*
X15808415Y-16174905D01*
X15881915Y-16174905D02*
X15955415Y-16101405D01*
X15881915Y-16027905D01*
X15808415Y-16101405D01*
X15881915Y-16174905D01*
X15891862Y-8013194D02*
X16038862Y-8160194D01*
X16038862Y-8013194D02*
X15891862Y-8160194D01*
X15965362Y-8160194D02*
X16038862Y-8086694D01*
X15965362Y-8013194D01*
X15891862Y-8086694D01*
X15965362Y-8160194D01*
X15905873Y-7956770D02*
X16052873Y-8103770D01*
X16052873Y-7956770D02*
X15905873Y-8103770D01*
X15979373Y-8103770D02*
X16052873Y-8030270D01*
X15979373Y-7956770D01*
X15905873Y-8030270D01*
X15979373Y-8103770D01*
X15962777Y-15906871D02*
X16109777Y-16053871D01*
X16109777Y-15906871D02*
X15962777Y-16053871D01*
X16036277Y-16053871D02*
X16109777Y-15980371D01*
X16036277Y-15906871D01*
X15962777Y-15980371D01*
X16036277Y-16053871D01*
X16142743Y-14131835D02*
X16289743Y-14278835D01*
X16289743Y-14131835D02*
X16142743Y-14278835D01*
X16216243Y-14278835D02*
X16289743Y-14205335D01*
X16216243Y-14131835D01*
X16142743Y-14205335D01*
X16216243Y-14278835D01*
X16297105Y-14010801D02*
X16444105Y-14157801D01*
X16444105Y-14010801D02*
X16297105Y-14157801D01*
X16370605Y-14157801D02*
X16444105Y-14084301D01*
X16370605Y-14010801D01*
X16297105Y-14084301D01*
X16370605Y-14157801D01*
X16463863Y-15944455D02*
X16610863Y-16091455D01*
X16610863Y-15944455D02*
X16463863Y-16091455D01*
X16537363Y-16091455D02*
X16610863Y-16017955D01*
X16537363Y-15944455D01*
X16463863Y-16017955D01*
X16537363Y-16091455D01*
X16474715Y-12219875D02*
X16621715Y-12366875D01*
X16621715Y-12219875D02*
X16474715Y-12366875D01*
X16548215Y-12366875D02*
X16621715Y-12293375D01*
X16548215Y-12219875D01*
X16474715Y-12293375D01*
X16548215Y-12366875D01*
X16477874Y-15888031D02*
X16624874Y-16035031D01*
X16624874Y-15888031D02*
X16477874Y-16035031D01*
X16551374Y-16035031D02*
X16624874Y-15961531D01*
X16551374Y-15888031D01*
X16477874Y-15961531D01*
X16551374Y-16035031D01*
X16629077Y-12098841D02*
X16776077Y-12245841D01*
X16776077Y-12098841D02*
X16629077Y-12245841D01*
X16702577Y-12245841D02*
X16776077Y-12172341D01*
X16702577Y-12098841D01*
X16629077Y-12172341D01*
X16702577Y-12245841D01*
X16798192Y-14048385D02*
X16945192Y-14195385D01*
X16945192Y-14048385D02*
X16798192Y-14195385D01*
X16871692Y-14195385D02*
X16945192Y-14121885D01*
X16871692Y-14048385D01*
X16798192Y-14121885D01*
X16871692Y-14195385D01*
X16800512Y-10342934D02*
X16947512Y-10489934D01*
X16947512Y-10342934D02*
X16800512Y-10489934D01*
X16874012Y-10489934D02*
X16947512Y-10416434D01*
X16874012Y-10342934D01*
X16800512Y-10416434D01*
X16874012Y-10489934D01*
X16812203Y-13991961D02*
X16959203Y-14138961D01*
X16959203Y-13991961D02*
X16812203Y-14138961D01*
X16885703Y-14138961D02*
X16959203Y-14065461D01*
X16885703Y-13991961D01*
X16812203Y-14065461D01*
X16885703Y-14138961D01*
X16954874Y-10221900D02*
X17101874Y-10368900D01*
X17101874Y-10221900D02*
X16954874Y-10368900D01*
X17028374Y-10368900D02*
X17101874Y-10295400D01*
X17028374Y-10221900D01*
X16954874Y-10295400D01*
X17028374Y-10368900D01*
X17130164Y-12136424D02*
X17277164Y-12283424D01*
X17277164Y-12136424D02*
X17130164Y-12283424D01*
X17203664Y-12283424D02*
X17277164Y-12209924D01*
X17203664Y-12136424D01*
X17130164Y-12209924D01*
X17203664Y-12283424D01*
X17132484Y-8430973D02*
X17279484Y-8577973D01*
X17279484Y-8430973D02*
X17132484Y-8577973D01*
X17205984Y-8577973D02*
X17279484Y-8504473D01*
X17205984Y-8430973D01*
X17132484Y-8504473D01*
X17205984Y-8577973D01*
X17144175Y-12080000D02*
X17291175Y-12227000D01*
X17291175Y-12080000D02*
X17144175Y-12227000D01*
X17217675Y-12227000D02*
X17291175Y-12153500D01*
X17217675Y-12080000D01*
X17144175Y-12153500D01*
X17217675Y-12227000D01*
X17286846Y-8309939D02*
X17433846Y-8456939D01*
X17433846Y-8309939D02*
X17286846Y-8456939D01*
X17360346Y-8456939D02*
X17433846Y-8383439D01*
X17360346Y-8309939D01*
X17286846Y-8383439D01*
X17360346Y-8456939D01*
X17455961Y-10259483D02*
X17602961Y-10406483D01*
X17602961Y-10259483D02*
X17455961Y-10406483D01*
X17529461Y-10406483D02*
X17602961Y-10332983D01*
X17529461Y-10259483D01*
X17455961Y-10332983D01*
X17529461Y-10406483D01*
X17469972Y-10203059D02*
X17616972Y-10350059D01*
X17616972Y-10203059D02*
X17469972Y-10350059D01*
X17543472Y-10350059D02*
X17616972Y-10276559D01*
X17543472Y-10203059D01*
X17469972Y-10276559D01*
X17543472Y-10350059D01*
X17787933Y-8347523D02*
X17934933Y-8494523D01*
X17934933Y-8347523D02*
X17787933Y-8494523D01*
X17861433Y-8494523D02*
X17934933Y-8421023D01*
X17861433Y-8347523D01*
X17787933Y-8421023D01*
X17861433Y-8494523D01*
X17801944Y-8291098D02*
X17948944Y-8438098D01*
X17948944Y-8291098D02*
X17801944Y-8438098D01*
X17875444Y-8438098D02*
X17948944Y-8364598D01*
X17875444Y-8291098D01*
X17801944Y-8364598D01*
X17875444Y-8438098D01*
X18177620Y-17745940D02*
X18324620Y-17892940D01*
X18324620Y-17745940D02*
X18177620Y-17892940D01*
X18251120Y-17892940D02*
X18324620Y-17819440D01*
X18251120Y-17745940D01*
X18177620Y-17819440D01*
X18251120Y-17892940D01*
X18308620Y-17599940D02*
X18455620Y-17746940D01*
X18455620Y-17599940D02*
X18308620Y-17746940D01*
X18382120Y-17746940D02*
X18455620Y-17673440D01*
X18382120Y-17599940D01*
X18308620Y-17673440D01*
X18382120Y-17746940D01*
X18808620Y-17549940D02*
X18955620Y-17696940D01*
X18955620Y-17549940D02*
X18808620Y-17696940D01*
X18882120Y-17696940D02*
X18955620Y-17623440D01*
X18882120Y-17549940D01*
X18808620Y-17623440D01*
X18882120Y-17696940D01*
X18812620Y-17491940D02*
X18959620Y-17638940D01*
X18959620Y-17491940D02*
X18812620Y-17638940D01*
X18886120Y-17638940D02*
X18959620Y-17565440D01*
X18886120Y-17491940D01*
X18812620Y-17565440D01*
X18886120Y-17638940D01*
X22983300Y-17766260D02*
X23130300Y-17913260D01*
X23130300Y-17766260D02*
X22983300Y-17913260D01*
X23056800Y-17913260D02*
X23130300Y-17839760D01*
X23056800Y-17766260D01*
X22983300Y-17839760D01*
X23056800Y-17913260D01*
X23114300Y-17620260D02*
X23261300Y-17767260D01*
X23261300Y-17620260D02*
X23114300Y-17767260D01*
X23187800Y-17767260D02*
X23261300Y-17693760D01*
X23187800Y-17620260D01*
X23114300Y-17693760D01*
X23187800Y-17767260D01*
X23614300Y-17570260D02*
X23761300Y-17717260D01*
X23761300Y-17570260D02*
X23614300Y-17717260D01*
X23687800Y-17717260D02*
X23761300Y-17643760D01*
X23687800Y-17570260D01*
X23614300Y-17643760D01*
X23687800Y-17717260D01*
X23618300Y-17512260D02*
X23765300Y-17659260D01*
X23765300Y-17512260D02*
X23618300Y-17659260D01*
X23691800Y-17659260D02*
X23765300Y-17585760D01*
X23691800Y-17512260D01*
X23618300Y-17585760D01*
X23691800Y-17659260D01*
X23991086Y-8576993D02*
X24138086Y-8723993D01*
X24138086Y-8576993D02*
X23991086Y-8723993D01*
X24064586Y-8723993D02*
X24138086Y-8650493D01*
X24064586Y-8576993D01*
X23991086Y-8650493D01*
X24064586Y-8723993D01*
X24094743Y-8410463D02*
X24241743Y-8557463D01*
X24241743Y-8410463D02*
X24094743Y-8557463D01*
X24168243Y-8557463D02*
X24241743Y-8483963D01*
X24168243Y-8410463D01*
X24094743Y-8483963D01*
X24168243Y-8557463D01*
X24333063Y-10487189D02*
X24480063Y-10634189D01*
X24480063Y-10487189D02*
X24333063Y-10634189D01*
X24406563Y-10634189D02*
X24480063Y-10560689D01*
X24406563Y-10487189D01*
X24333063Y-10560689D01*
X24406563Y-10634189D01*
X24436720Y-10320659D02*
X24583720Y-10467659D01*
X24583720Y-10320659D02*
X24436720Y-10467659D01*
X24510220Y-10467659D02*
X24583720Y-10394159D01*
X24510220Y-10320659D01*
X24436720Y-10394159D01*
X24510220Y-10467659D01*
X24572332Y-8216585D02*
X24719332Y-8363585D01*
X24719332Y-8216585D02*
X24572332Y-8363585D01*
X24645832Y-8363585D02*
X24719332Y-8290085D01*
X24645832Y-8216585D01*
X24572332Y-8290085D01*
X24645832Y-8363585D01*
X24578465Y-8274398D02*
X24725465Y-8421398D01*
X24725465Y-8274398D02*
X24578465Y-8421398D01*
X24651965Y-8421398D02*
X24725465Y-8347898D01*
X24651965Y-8274398D01*
X24578465Y-8347898D01*
X24651965Y-8421398D01*
X24668866Y-12362366D02*
X24815866Y-12509366D01*
X24815866Y-12362366D02*
X24668866Y-12509366D01*
X24742366Y-12509366D02*
X24815866Y-12435866D01*
X24742366Y-12362366D01*
X24668866Y-12435866D01*
X24742366Y-12509366D01*
X24772523Y-12195836D02*
X24919523Y-12342836D01*
X24919523Y-12195836D02*
X24772523Y-12342836D01*
X24846023Y-12342836D02*
X24919523Y-12269336D01*
X24846023Y-12195836D01*
X24772523Y-12269336D01*
X24846023Y-12342836D01*
X24914310Y-10126781D02*
X25061310Y-10273781D01*
X25061310Y-10126781D02*
X24914310Y-10273781D01*
X24987810Y-10273781D02*
X25061310Y-10200281D01*
X24987810Y-10126781D01*
X24914310Y-10200281D01*
X24987810Y-10273781D01*
X24920442Y-10184595D02*
X25067442Y-10331595D01*
X25067442Y-10184595D02*
X24920442Y-10331595D01*
X24993942Y-10331595D02*
X25067442Y-10258095D01*
X24993942Y-10184595D01*
X24920442Y-10258095D01*
X24993942Y-10331595D01*
X25010843Y-14272562D02*
X25157843Y-14419562D01*
X25157843Y-14272562D02*
X25010843Y-14419562D01*
X25084343Y-14419562D02*
X25157843Y-14346062D01*
X25084343Y-14272562D01*
X25010843Y-14346062D01*
X25084343Y-14419562D01*
X25114501Y-14106032D02*
X25261501Y-14253032D01*
X25261501Y-14106032D02*
X25114501Y-14253032D01*
X25188001Y-14253032D02*
X25261501Y-14179532D01*
X25188001Y-14106032D01*
X25114501Y-14179532D01*
X25188001Y-14253032D01*
X25250112Y-12001958D02*
X25397112Y-12148958D01*
X25397112Y-12001958D02*
X25250112Y-12148958D01*
X25323612Y-12148958D02*
X25397112Y-12075458D01*
X25323612Y-12001958D01*
X25250112Y-12075458D01*
X25323612Y-12148958D01*
X25256245Y-12059771D02*
X25403245Y-12206771D01*
X25403245Y-12059771D02*
X25256245Y-12206771D01*
X25329745Y-12206771D02*
X25403245Y-12133271D01*
X25329745Y-12059771D01*
X25256245Y-12133271D01*
X25329745Y-12206771D01*
X25343753Y-16173025D02*
X25490753Y-16320025D01*
X25490753Y-16173025D02*
X25343753Y-16320025D01*
X25417253Y-16320025D02*
X25490753Y-16246525D01*
X25417253Y-16173025D01*
X25343753Y-16246525D01*
X25417253Y-16320025D01*
X25447410Y-16006495D02*
X25594410Y-16153495D01*
X25594410Y-16006495D02*
X25447410Y-16153495D01*
X25520910Y-16153495D02*
X25594410Y-16079995D01*
X25520910Y-16006495D01*
X25447410Y-16079995D01*
X25520910Y-16153495D01*
X25592090Y-13912154D02*
X25739090Y-14059154D01*
X25739090Y-13912154D02*
X25592090Y-14059154D01*
X25665590Y-14059154D02*
X25739090Y-13985654D01*
X25665590Y-13912154D01*
X25592090Y-13985654D01*
X25665590Y-14059154D01*
X25598222Y-13969968D02*
X25745222Y-14116968D01*
X25745222Y-13969968D02*
X25598222Y-14116968D01*
X25671722Y-14116968D02*
X25745222Y-14043468D01*
X25671722Y-13969968D01*
X25598222Y-14043468D01*
X25671722Y-14116968D01*
X25887156Y-8242664D02*
X26034156Y-8389664D01*
X26034156Y-8242664D02*
X25887156Y-8389664D01*
X25960656Y-8389664D02*
X26034156Y-8316164D01*
X25960656Y-8242664D01*
X25887156Y-8316164D01*
X25960656Y-8389664D01*
X25924999Y-15812617D02*
X26071999Y-15959617D01*
X26071999Y-15812617D02*
X25924999Y-15959617D01*
X25998499Y-15959617D02*
X26071999Y-15886117D01*
X25998499Y-15812617D01*
X25924999Y-15886117D01*
X25998499Y-15959617D01*
X25931132Y-15870431D02*
X26078132Y-16017431D01*
X26078132Y-15870431D02*
X25931132Y-16017431D01*
X26004632Y-16017431D02*
X26078132Y-15943931D01*
X26004632Y-15870431D01*
X25931132Y-15943931D01*
X26004632Y-16017431D01*
X25990813Y-8076134D02*
X26137813Y-8223134D01*
X26137813Y-8076134D02*
X25990813Y-8223134D01*
X26064313Y-8223134D02*
X26137813Y-8149634D01*
X26064313Y-8076134D01*
X25990813Y-8149634D01*
X26064313Y-8223134D01*
X26229133Y-10152861D02*
X26376133Y-10299861D01*
X26376133Y-10152861D02*
X26229133Y-10299861D01*
X26302633Y-10299861D02*
X26376133Y-10226361D01*
X26302633Y-10152861D01*
X26229133Y-10226361D01*
X26302633Y-10299861D01*
X26332791Y-9986331D02*
X26479791Y-10133331D01*
X26479791Y-9986331D02*
X26332791Y-10133331D01*
X26406291Y-10133331D02*
X26479791Y-10059831D01*
X26406291Y-9986331D01*
X26332791Y-10059831D01*
X26406291Y-10133331D01*
X26468402Y-7882256D02*
X26615402Y-8029256D01*
X26615402Y-7882256D02*
X26468402Y-8029256D01*
X26541902Y-8029256D02*
X26615402Y-7955756D01*
X26541902Y-7882256D01*
X26468402Y-7955756D01*
X26541902Y-8029256D01*
X26474534Y-7940070D02*
X26621534Y-8087070D01*
X26621534Y-7940070D02*
X26474534Y-8087070D01*
X26548034Y-8087070D02*
X26621534Y-8013570D01*
X26548034Y-7940070D01*
X26474534Y-8013570D01*
X26548034Y-8087070D01*
X26564936Y-12028037D02*
X26711936Y-12175037D01*
X26711936Y-12028037D02*
X26564936Y-12175037D01*
X26638436Y-12175037D02*
X26711936Y-12101537D01*
X26638436Y-12028037D01*
X26564936Y-12101537D01*
X26638436Y-12175037D01*
X26668593Y-11861507D02*
X26815593Y-12008507D01*
X26815593Y-11861507D02*
X26668593Y-12008507D01*
X26742093Y-12008507D02*
X26815593Y-11935007D01*
X26742093Y-11861507D01*
X26668593Y-11935007D01*
X26742093Y-12008507D01*
X26810380Y-9792453D02*
X26957380Y-9939453D01*
X26957380Y-9792453D02*
X26810380Y-9939453D01*
X26883880Y-9939453D02*
X26957380Y-9865953D01*
X26883880Y-9792453D01*
X26810380Y-9865953D01*
X26883880Y-9939453D01*
X26816512Y-9850266D02*
X26963512Y-9997266D01*
X26963512Y-9850266D02*
X26816512Y-9997266D01*
X26890012Y-9997266D02*
X26963512Y-9923766D01*
X26890012Y-9850266D01*
X26816512Y-9923766D01*
X26890012Y-9997266D01*
X26906913Y-13938234D02*
X27053913Y-14085234D01*
X27053913Y-13938234D02*
X26906913Y-14085234D01*
X26980413Y-14085234D02*
X27053913Y-14011734D01*
X26980413Y-13938234D01*
X26906913Y-14011734D01*
X26980413Y-14085234D01*
X27010571Y-13771704D02*
X27157571Y-13918704D01*
X27157571Y-13771704D02*
X27010571Y-13918704D01*
X27084071Y-13918704D02*
X27157571Y-13845204D01*
X27084071Y-13771704D01*
X27010571Y-13845204D01*
X27084071Y-13918704D01*
X27146182Y-11667629D02*
X27293182Y-11814629D01*
X27293182Y-11667629D02*
X27146182Y-11814629D01*
X27219682Y-11814629D02*
X27293182Y-11741129D01*
X27219682Y-11667629D01*
X27146182Y-11741129D01*
X27219682Y-11814629D01*
X27152315Y-11725443D02*
X27299315Y-11872443D01*
X27299315Y-11725443D02*
X27152315Y-11872443D01*
X27225815Y-11872443D02*
X27299315Y-11798943D01*
X27225815Y-11725443D01*
X27152315Y-11798943D01*
X27225815Y-11872443D01*
X27239823Y-15838697D02*
X27386823Y-15985697D01*
X27386823Y-15838697D02*
X27239823Y-15985697D01*
X27313323Y-15985697D02*
X27386823Y-15912197D01*
X27313323Y-15838697D01*
X27239823Y-15912197D01*
X27313323Y-15985697D01*
X27343480Y-15672167D02*
X27490480Y-15819167D01*
X27490480Y-15672167D02*
X27343480Y-15819167D01*
X27416980Y-15819167D02*
X27490480Y-15745667D01*
X27416980Y-15672167D01*
X27343480Y-15745667D01*
X27416980Y-15819167D01*
X27488160Y-13577826D02*
X27635160Y-13724826D01*
X27635160Y-13577826D02*
X27488160Y-13724826D01*
X27561660Y-13724826D02*
X27635160Y-13651326D01*
X27561660Y-13577826D01*
X27488160Y-13651326D01*
X27561660Y-13724826D01*
X27494292Y-13635639D02*
X27641292Y-13782639D01*
X27641292Y-13635639D02*
X27494292Y-13782639D01*
X27567792Y-13782639D02*
X27641292Y-13709139D01*
X27567792Y-13635639D01*
X27494292Y-13709139D01*
X27567792Y-13782639D01*
X27783226Y-7908336D02*
X27930226Y-8055336D01*
X27930226Y-7908336D02*
X27783226Y-8055336D01*
X27856726Y-8055336D02*
X27930226Y-7981836D01*
X27856726Y-7908336D01*
X27783226Y-7981836D01*
X27856726Y-8055336D01*
X27821069Y-15478289D02*
X27968069Y-15625289D01*
X27968069Y-15478289D02*
X27821069Y-15625289D01*
X27894569Y-15625289D02*
X27968069Y-15551789D01*
X27894569Y-15478289D01*
X27821069Y-15551789D01*
X27894569Y-15625289D01*
X27827202Y-15536103D02*
X27974202Y-15683103D01*
X27974202Y-15536103D02*
X27827202Y-15683103D01*
X27900702Y-15683103D02*
X27974202Y-15609603D01*
X27900702Y-15536103D01*
X27827202Y-15609603D01*
X27900702Y-15683103D01*
X27886883Y-7741806D02*
X28033883Y-7888806D01*
X28033883Y-7741806D02*
X27886883Y-7888806D01*
X27960383Y-7888806D02*
X28033883Y-7815306D01*
X27960383Y-7741806D01*
X27886883Y-7815306D01*
X27960383Y-7888806D01*
X28125203Y-9818532D02*
X28272203Y-9965532D01*
X28272203Y-9818532D02*
X28125203Y-9965532D01*
X28198703Y-9965532D02*
X28272203Y-9892032D01*
X28198703Y-9818532D01*
X28125203Y-9892032D01*
X28198703Y-9965532D01*
X28228861Y-9652003D02*
X28375861Y-9799003D01*
X28375861Y-9652003D02*
X28228861Y-9799003D01*
X28302361Y-9799003D02*
X28375861Y-9725503D01*
X28302361Y-9652003D01*
X28228861Y-9725503D01*
X28302361Y-9799003D01*
X28364472Y-7547928D02*
X28511472Y-7694928D01*
X28511472Y-7547928D02*
X28364472Y-7694928D01*
X28437972Y-7694928D02*
X28511472Y-7621428D01*
X28437972Y-7547928D01*
X28364472Y-7621428D01*
X28437972Y-7694928D01*
X28370605Y-7605742D02*
X28517605Y-7752742D01*
X28517605Y-7605742D02*
X28370605Y-7752742D01*
X28444105Y-7752742D02*
X28517605Y-7679242D01*
X28444105Y-7605742D01*
X28370605Y-7679242D01*
X28444105Y-7752742D01*
X28461006Y-11693709D02*
X28608006Y-11840709D01*
X28608006Y-11693709D02*
X28461006Y-11840709D01*
X28534506Y-11840709D02*
X28608006Y-11767209D01*
X28534506Y-11693709D01*
X28461006Y-11767209D01*
X28534506Y-11840709D01*
X28564663Y-11527179D02*
X28711663Y-11674179D01*
X28711663Y-11527179D02*
X28564663Y-11674179D01*
X28638163Y-11674179D02*
X28711663Y-11600679D01*
X28638163Y-11527179D01*
X28564663Y-11600679D01*
X28638163Y-11674179D01*
X28706450Y-9458125D02*
X28853450Y-9605125D01*
X28853450Y-9458125D02*
X28706450Y-9605125D01*
X28779950Y-9605125D02*
X28853450Y-9531625D01*
X28779950Y-9458125D01*
X28706450Y-9531625D01*
X28779950Y-9605125D01*
X28712582Y-9515938D02*
X28859582Y-9662938D01*
X28859582Y-9515938D02*
X28712582Y-9662938D01*
X28786082Y-9662938D02*
X28859582Y-9589438D01*
X28786082Y-9515938D01*
X28712582Y-9589438D01*
X28786082Y-9662938D01*
X28802984Y-13603905D02*
X28949984Y-13750905D01*
X28949984Y-13603905D02*
X28802984Y-13750905D01*
X28876484Y-13750905D02*
X28949984Y-13677405D01*
X28876484Y-13603905D01*
X28802984Y-13677405D01*
X28876484Y-13750905D01*
X28906641Y-13437376D02*
X29053641Y-13584376D01*
X29053641Y-13437376D02*
X28906641Y-13584376D01*
X28980141Y-13584376D02*
X29053641Y-13510876D01*
X28980141Y-13437376D01*
X28906641Y-13510876D01*
X28980141Y-13584376D01*
X29042252Y-11333301D02*
X29189252Y-11480301D01*
X29189252Y-11333301D02*
X29042252Y-11480301D01*
X29115752Y-11480301D02*
X29189252Y-11406801D01*
X29115752Y-11333301D01*
X29042252Y-11406801D01*
X29115752Y-11480301D01*
X29048385Y-11391115D02*
X29195385Y-11538115D01*
X29195385Y-11391115D02*
X29048385Y-11538115D01*
X29121885Y-11538115D02*
X29195385Y-11464615D01*
X29121885Y-11391115D01*
X29048385Y-11464615D01*
X29121885Y-11538115D01*
X29140896Y-15503486D02*
X29287896Y-15650486D01*
X29287896Y-15503486D02*
X29140896Y-15650486D01*
X29214396Y-15650486D02*
X29287896Y-15576986D01*
X29214396Y-15503486D01*
X29140896Y-15576986D01*
X29214396Y-15650486D01*
X29244553Y-15336956D02*
X29391553Y-15483956D01*
X29391553Y-15336956D02*
X29244553Y-15483956D01*
X29318053Y-15483956D02*
X29391553Y-15410456D01*
X29318053Y-15336956D01*
X29244553Y-15410456D01*
X29318053Y-15483956D01*
X29384230Y-13243498D02*
X29531230Y-13390498D01*
X29531230Y-13243498D02*
X29384230Y-13390498D01*
X29457730Y-13390498D02*
X29531230Y-13316998D01*
X29457730Y-13243498D01*
X29384230Y-13316998D01*
X29457730Y-13390498D01*
X29390362Y-13301311D02*
X29537362Y-13448311D01*
X29537362Y-13301311D02*
X29390362Y-13448311D01*
X29463862Y-13448311D02*
X29537362Y-13374811D01*
X29463862Y-13301311D01*
X29390362Y-13374811D01*
X29463862Y-13448311D01*
X29679296Y-7574008D02*
X29826296Y-7721008D01*
X29826296Y-7574008D02*
X29679296Y-7721008D01*
X29752796Y-7721008D02*
X29826296Y-7647508D01*
X29752796Y-7574008D01*
X29679296Y-7647508D01*
X29752796Y-7721008D01*
X29722142Y-15143079D02*
X29869142Y-15290079D01*
X29869142Y-15143079D02*
X29722142Y-15290079D01*
X29795642Y-15290079D02*
X29869142Y-15216579D01*
X29795642Y-15143079D01*
X29722142Y-15216579D01*
X29795642Y-15290079D01*
X29728275Y-15200892D02*
X29875275Y-15347892D01*
X29875275Y-15200892D02*
X29728275Y-15347892D01*
X29801775Y-15347892D02*
X29875275Y-15274392D01*
X29801775Y-15200892D01*
X29728275Y-15274392D01*
X29801775Y-15347892D01*
X29782953Y-7407478D02*
X29929953Y-7554478D01*
X29929953Y-7407478D02*
X29782953Y-7554478D01*
X29856453Y-7554478D02*
X29929953Y-7480978D01*
X29856453Y-7407478D01*
X29782953Y-7480978D01*
X29856453Y-7554478D01*
X30021273Y-9484204D02*
X30168273Y-9631204D01*
X30168273Y-9484204D02*
X30021273Y-9631204D01*
X30094773Y-9631204D02*
X30168273Y-9557704D01*
X30094773Y-9484204D01*
X30021273Y-9557704D01*
X30094773Y-9631204D01*
X30124931Y-9317674D02*
X30271931Y-9464674D01*
X30271931Y-9317674D02*
X30124931Y-9464674D01*
X30198431Y-9464674D02*
X30271931Y-9391174D01*
X30198431Y-9317674D01*
X30124931Y-9391174D01*
X30198431Y-9464674D01*
X30260542Y-7213600D02*
X30407542Y-7360600D01*
X30407542Y-7213600D02*
X30260542Y-7360600D01*
X30334042Y-7360600D02*
X30407542Y-7287100D01*
X30334042Y-7213600D01*
X30260542Y-7287100D01*
X30334042Y-7360600D01*
X30266675Y-7271413D02*
X30413675Y-7418413D01*
X30413675Y-7271413D02*
X30266675Y-7418413D01*
X30340175Y-7418413D02*
X30413675Y-7344913D01*
X30340175Y-7271413D01*
X30266675Y-7344913D01*
X30340175Y-7418413D01*
X30357076Y-11359381D02*
X30504076Y-11506381D01*
X30504076Y-11359381D02*
X30357076Y-11506381D01*
X30430576Y-11506381D02*
X30504076Y-11432881D01*
X30430576Y-11359381D01*
X30357076Y-11432881D01*
X30430576Y-11506381D01*
X30460733Y-11192851D02*
X30607733Y-11339851D01*
X30607733Y-11192851D02*
X30460733Y-11339851D01*
X30534233Y-11339851D02*
X30607733Y-11266351D01*
X30534233Y-11192851D01*
X30460733Y-11266351D01*
X30534233Y-11339851D01*
X30602520Y-9123796D02*
X30749520Y-9270796D01*
X30749520Y-9123796D02*
X30602520Y-9270796D01*
X30676020Y-9270796D02*
X30749520Y-9197296D01*
X30676020Y-9123796D01*
X30602520Y-9197296D01*
X30676020Y-9270796D01*
X30608652Y-9181610D02*
X30755652Y-9328610D01*
X30755652Y-9181610D02*
X30608652Y-9328610D01*
X30682152Y-9328610D02*
X30755652Y-9255110D01*
X30682152Y-9181610D01*
X30608652Y-9255110D01*
X30682152Y-9328610D01*
X30699054Y-13269577D02*
X30846054Y-13416577D01*
X30846054Y-13269577D02*
X30699054Y-13416577D01*
X30772554Y-13416577D02*
X30846054Y-13343077D01*
X30772554Y-13269577D01*
X30699054Y-13343077D01*
X30772554Y-13416577D01*
X30802711Y-13103047D02*
X30949711Y-13250047D01*
X30949711Y-13103047D02*
X30802711Y-13250047D01*
X30876211Y-13250047D02*
X30949711Y-13176547D01*
X30876211Y-13103047D01*
X30802711Y-13176547D01*
X30876211Y-13250047D01*
X30938322Y-10998973D02*
X31085322Y-11145973D01*
X31085322Y-10998973D02*
X30938322Y-11145973D01*
X31011822Y-11145973D02*
X31085322Y-11072473D01*
X31011822Y-10998973D01*
X30938322Y-11072473D01*
X31011822Y-11145973D01*
X30944455Y-11056787D02*
X31091455Y-11203786D01*
X31091455Y-11056787D02*
X30944455Y-11203786D01*
X31017955Y-11203786D02*
X31091455Y-11130287D01*
X31017955Y-11056787D01*
X30944455Y-11130287D01*
X31017955Y-11203786D01*
X31036966Y-15169158D02*
X31183966Y-15316158D01*
X31183966Y-15169158D02*
X31036966Y-15316158D01*
X31110466Y-15316158D02*
X31183966Y-15242658D01*
X31110466Y-15169158D01*
X31036966Y-15242658D01*
X31110466Y-15316158D01*
X31140623Y-15002628D02*
X31287623Y-15149628D01*
X31287623Y-15002628D02*
X31140623Y-15149628D01*
X31214123Y-15149628D02*
X31287623Y-15076128D01*
X31214123Y-15002628D01*
X31140623Y-15076128D01*
X31214123Y-15149628D01*
X31280300Y-12909169D02*
X31427300Y-13056169D01*
X31427300Y-12909169D02*
X31280300Y-13056169D01*
X31353800Y-13056169D02*
X31427300Y-12982669D01*
X31353800Y-12909169D01*
X31280300Y-12982669D01*
X31353800Y-13056169D01*
X31286432Y-12966983D02*
X31433432Y-13113983D01*
X31433432Y-12966983D02*
X31286432Y-13113983D01*
X31359932Y-13113983D02*
X31433432Y-13040483D01*
X31359932Y-12966983D01*
X31286432Y-13040483D01*
X31359932Y-13113983D01*
X31565360Y-7241444D02*
X31712360Y-7388444D01*
X31712360Y-7241444D02*
X31565360Y-7388444D01*
X31638860Y-7388444D02*
X31712360Y-7314944D01*
X31638860Y-7241444D01*
X31565360Y-7314944D01*
X31638860Y-7388444D01*
X31618212Y-14808750D02*
X31765212Y-14955750D01*
X31765212Y-14808750D02*
X31618212Y-14955750D01*
X31691712Y-14955750D02*
X31765212Y-14882250D01*
X31691712Y-14808750D01*
X31618212Y-14882250D01*
X31691712Y-14955750D01*
X31624345Y-14866564D02*
X31771345Y-15013564D01*
X31771345Y-14866564D02*
X31624345Y-15013564D01*
X31697845Y-15013564D02*
X31771345Y-14940064D01*
X31697845Y-14866564D01*
X31624345Y-14940064D01*
X31697845Y-15013564D01*
X31669018Y-7074914D02*
X31816018Y-7221914D01*
X31816018Y-7074914D02*
X31669018Y-7221914D01*
X31742518Y-7221914D02*
X31816018Y-7148414D01*
X31742518Y-7074914D01*
X31669018Y-7148414D01*
X31742518Y-7221914D01*
X31907338Y-9151640D02*
X32054338Y-9298640D01*
X32054338Y-9151640D02*
X31907338Y-9298640D01*
X31980838Y-9298640D02*
X32054338Y-9225140D01*
X31980838Y-9151640D01*
X31907338Y-9225140D01*
X31980838Y-9298640D01*
X32010995Y-8985110D02*
X32157995Y-9132110D01*
X32157995Y-8985110D02*
X32010995Y-9132110D01*
X32084495Y-9132110D02*
X32157995Y-9058610D01*
X32084495Y-8985110D01*
X32010995Y-9058610D01*
X32084495Y-9132110D01*
X32146607Y-6881036D02*
X32293607Y-7028036D01*
X32293607Y-6881036D02*
X32146607Y-7028036D01*
X32220107Y-7028036D02*
X32293607Y-6954536D01*
X32220107Y-6881036D01*
X32146607Y-6954536D01*
X32220107Y-7028036D01*
X32152739Y-6938849D02*
X32299739Y-7085849D01*
X32299739Y-6938849D02*
X32152739Y-7085849D01*
X32226239Y-7085849D02*
X32299739Y-7012349D01*
X32226239Y-6938849D01*
X32152739Y-7012349D01*
X32226239Y-7085849D01*
X32243140Y-11026817D02*
X32390140Y-11173817D01*
X32390140Y-11026817D02*
X32243140Y-11173817D01*
X32316640Y-11173817D02*
X32390140Y-11100317D01*
X32316640Y-11026817D01*
X32243140Y-11100317D01*
X32316640Y-11173817D01*
X32346798Y-10860287D02*
X32493798Y-11007287D01*
X32493798Y-10860287D02*
X32346798Y-11007287D01*
X32420298Y-11007287D02*
X32493798Y-10933787D01*
X32420298Y-10860287D01*
X32346798Y-10933787D01*
X32420298Y-11007287D01*
X32488584Y-8791232D02*
X32635584Y-8938232D01*
X32635584Y-8791232D02*
X32488584Y-8938232D01*
X32562084Y-8938232D02*
X32635584Y-8864732D01*
X32562084Y-8791232D01*
X32488584Y-8864732D01*
X32562084Y-8938232D01*
X32494717Y-8849046D02*
X32641717Y-8996046D01*
X32641717Y-8849046D02*
X32494717Y-8996046D01*
X32568217Y-8996046D02*
X32641717Y-8922546D01*
X32568217Y-8849046D01*
X32494717Y-8922546D01*
X32568217Y-8996046D01*
X32585118Y-12937013D02*
X32732118Y-13084013D01*
X32732118Y-12937013D02*
X32585118Y-13084013D01*
X32658618Y-13084013D02*
X32732118Y-13010513D01*
X32658618Y-12937013D01*
X32585118Y-13010513D01*
X32658618Y-13084013D01*
X32688775Y-12770483D02*
X32835775Y-12917483D01*
X32835775Y-12770483D02*
X32688775Y-12917483D01*
X32762275Y-12917483D02*
X32835775Y-12843983D01*
X32762275Y-12770483D01*
X32688775Y-12843983D01*
X32762275Y-12917483D01*
X32824387Y-10666409D02*
X32971387Y-10813409D01*
X32971387Y-10666409D02*
X32824387Y-10813409D01*
X32897887Y-10813409D02*
X32971387Y-10739909D01*
X32897887Y-10666409D01*
X32824387Y-10739909D01*
X32897887Y-10813409D01*
X32830519Y-10724222D02*
X32977519Y-10871222D01*
X32977519Y-10724222D02*
X32830519Y-10871222D01*
X32904019Y-10871222D02*
X32977519Y-10797722D01*
X32904019Y-10724222D01*
X32830519Y-10797722D01*
X32904019Y-10871222D01*
X33166364Y-12576605D02*
X33313364Y-12723605D01*
X33313364Y-12576605D02*
X33166364Y-12723605D01*
X33239864Y-12723605D02*
X33313364Y-12650105D01*
X33239864Y-12576605D01*
X33166364Y-12650105D01*
X33239864Y-12723605D01*
X33172497Y-12634419D02*
X33319497Y-12781419D01*
X33319497Y-12634419D02*
X33172497Y-12781419D01*
X33245997Y-12781419D02*
X33319497Y-12707919D01*
X33245997Y-12634419D01*
X33172497Y-12707919D01*
X33245997Y-12781419D01*
X33461430Y-6907115D02*
X33608430Y-7054115D01*
X33608430Y-6907115D02*
X33461430Y-7054115D01*
X33534930Y-7054115D02*
X33608430Y-6980615D01*
X33534930Y-6907115D01*
X33461430Y-6980615D01*
X33534930Y-7054115D01*
X33565088Y-6740585D02*
X33712088Y-6887585D01*
X33712088Y-6740585D02*
X33565088Y-6887585D01*
X33638588Y-6887585D02*
X33712088Y-6814085D01*
X33638588Y-6740585D01*
X33565088Y-6814085D01*
X33638588Y-6887585D01*
X33803408Y-8817312D02*
X33950408Y-8964312D01*
X33950408Y-8817312D02*
X33803408Y-8964312D01*
X33876908Y-8964312D02*
X33950408Y-8890812D01*
X33876908Y-8817312D01*
X33803408Y-8890812D01*
X33876908Y-8964312D01*
X33907065Y-8650782D02*
X34054065Y-8797782D01*
X34054065Y-8650782D02*
X33907065Y-8797782D01*
X33980565Y-8797782D02*
X34054065Y-8724282D01*
X33980565Y-8650782D01*
X33907065Y-8724282D01*
X33980565Y-8797782D01*
X34042677Y-6546707D02*
X34189677Y-6693707D01*
X34189677Y-6546707D02*
X34042677Y-6693707D01*
X34116177Y-6693707D02*
X34189677Y-6620207D01*
X34116177Y-6546707D01*
X34042677Y-6620207D01*
X34116177Y-6693707D01*
X34048809Y-6604521D02*
X34195809Y-6751521D01*
X34195809Y-6604521D02*
X34048809Y-6751521D01*
X34122309Y-6751521D02*
X34195809Y-6678021D01*
X34122309Y-6604521D01*
X34048809Y-6678021D01*
X34122309Y-6751521D01*
X34139211Y-10692488D02*
X34286211Y-10839488D01*
X34286211Y-10692488D02*
X34139211Y-10839488D01*
X34212711Y-10839488D02*
X34286211Y-10765988D01*
X34212711Y-10692488D01*
X34139211Y-10765988D01*
X34212711Y-10839488D01*
X34242868Y-10525958D02*
X34389868Y-10672958D01*
X34389868Y-10525958D02*
X34242868Y-10672958D01*
X34316368Y-10672958D02*
X34389868Y-10599458D01*
X34316368Y-10525958D01*
X34242868Y-10599458D01*
X34316368Y-10672958D01*
X34384654Y-8456904D02*
X34531654Y-8603904D01*
X34531654Y-8456904D02*
X34384654Y-8603904D01*
X34458154Y-8603904D02*
X34531654Y-8530404D01*
X34458154Y-8456904D01*
X34384654Y-8530404D01*
X34458154Y-8603904D01*
X34390787Y-8514718D02*
X34537787Y-8661718D01*
X34537787Y-8514718D02*
X34390787Y-8661718D01*
X34464287Y-8661718D02*
X34537787Y-8588218D01*
X34464287Y-8514718D01*
X34390787Y-8588218D01*
X34464287Y-8661718D01*
X34481188Y-12602685D02*
X34628188Y-12749685D01*
X34628188Y-12602685D02*
X34481188Y-12749685D01*
X34554688Y-12749685D02*
X34628188Y-12676185D01*
X34554688Y-12602685D01*
X34481188Y-12676185D01*
X34554688Y-12749685D01*
X34584845Y-12436155D02*
X34731845Y-12583155D01*
X34731845Y-12436155D02*
X34584845Y-12583155D01*
X34658345Y-12583155D02*
X34731845Y-12509655D01*
X34658345Y-12436155D01*
X34584845Y-12509655D01*
X34658345Y-12583155D01*
X34720457Y-10332081D02*
X34867457Y-10479081D01*
X34867457Y-10332081D02*
X34720457Y-10479081D01*
X34793957Y-10479081D02*
X34867457Y-10405581D01*
X34793957Y-10332081D01*
X34720457Y-10405581D01*
X34793957Y-10479081D01*
X34726589Y-10389894D02*
X34873589Y-10536894D01*
X34873589Y-10389894D02*
X34726589Y-10536894D01*
X34800089Y-10536894D02*
X34873589Y-10463394D01*
X34800089Y-10389894D01*
X34726589Y-10463394D01*
X34800089Y-10536894D01*
X35062434Y-12242277D02*
X35209434Y-12389277D01*
X35209434Y-12242277D02*
X35062434Y-12389277D01*
X35135934Y-12389277D02*
X35209434Y-12315777D01*
X35135934Y-12242277D01*
X35062434Y-12315777D01*
X35135934Y-12389277D01*
X35068567Y-12300090D02*
X35215567Y-12447090D01*
X35215567Y-12300090D02*
X35068567Y-12447090D01*
X35142067Y-12447090D02*
X35215567Y-12373590D01*
X35142067Y-12300090D01*
X35068567Y-12373590D01*
X35142067Y-12447090D01*
D21*
X19108920Y-15496980D02*
X19108920Y-15816980D01*
X18948920Y-15656980D02*
X19268920Y-15656980D01*
X19268920Y-15656980D02*
G75*
G03*
X19268920Y-15656980I-160000J0D01*
G01*
X19108920Y-15496980D02*
X19108920Y-15816980D01*
X18948920Y-15656980D02*
X19268920Y-15656980D01*
X19268920Y-15656980D02*
G75*
G03*
X19268920Y-15656980I-160000J0D01*
G01*
X19129240Y-11808900D02*
X19129240Y-12128900D01*
X18969240Y-11968900D02*
X19289240Y-11968900D01*
X19289240Y-11968900D02*
G75*
G03*
X19289240Y-11968900I-160000J0D01*
G01*
X23000200Y-15496980D02*
X23000200Y-15816980D01*
X22840200Y-15656980D02*
X23160200Y-15656980D01*
X23160200Y-15656980D02*
G75*
G03*
X23160200Y-15656980I-160000J0D01*
G01*
X23000200Y-15496980D02*
X23000200Y-15816980D01*
X22840200Y-15656980D02*
X23160200Y-15656980D01*
X23160200Y-15656980D02*
G75*
G03*
X23160200Y-15656980I-160000J0D01*
G01*
X23020520Y-11808900D02*
X23020520Y-12128900D01*
X22860520Y-11968900D02*
X23180520Y-11968900D01*
X23180520Y-11968900D02*
G75*
G03*
X23180520Y-11968900I-160000J0D01*
G01*
D11*
X6047579Y-19554776D02*
X6047579Y-19354776D01*
X6095198Y-19354776D01*
X6123769Y-19364300D01*
X6142817Y-19383348D01*
X6152341Y-19402395D01*
X6161865Y-19440490D01*
X6161865Y-19469062D01*
X6152341Y-19507157D01*
X6142817Y-19526205D01*
X6123769Y-19545252D01*
X6095198Y-19554776D01*
X6047579Y-19554776D01*
X6247579Y-19554776D02*
X6247579Y-19421443D01*
X6247579Y-19459538D02*
X6257103Y-19440490D01*
X6266627Y-19430967D01*
X6285674Y-19421443D01*
X6304722Y-19421443D01*
X6371388Y-19554776D02*
X6371388Y-19421443D01*
X6371388Y-19354776D02*
X6361865Y-19364300D01*
X6371388Y-19373824D01*
X6380912Y-19364300D01*
X6371388Y-19354776D01*
X6371388Y-19373824D01*
X6495198Y-19554776D02*
X6476150Y-19545252D01*
X6466627Y-19526205D01*
X6466627Y-19354776D01*
X6599960Y-19554776D02*
X6580912Y-19545252D01*
X6571388Y-19526205D01*
X6571388Y-19354776D01*
X6828531Y-19554776D02*
X6828531Y-19354776D01*
X6895198Y-19497633D01*
X6961865Y-19354776D01*
X6961865Y-19554776D01*
X7142817Y-19554776D02*
X7142817Y-19450014D01*
X7133293Y-19430967D01*
X7114246Y-19421443D01*
X7076150Y-19421443D01*
X7057103Y-19430967D01*
X7142817Y-19545252D02*
X7123769Y-19554776D01*
X7076150Y-19554776D01*
X7057103Y-19545252D01*
X7047579Y-19526205D01*
X7047579Y-19507157D01*
X7057103Y-19488110D01*
X7076150Y-19478586D01*
X7123769Y-19478586D01*
X7142817Y-19469062D01*
X7238055Y-19421443D02*
X7238055Y-19621443D01*
X7238055Y-19430967D02*
X7257103Y-19421443D01*
X7295198Y-19421443D01*
X7314246Y-19430967D01*
X7323769Y-19440490D01*
X7333293Y-19459538D01*
X7333293Y-19516681D01*
X7323769Y-19535729D01*
X7314246Y-19545252D01*
X7295198Y-19554776D01*
X7257103Y-19554776D01*
X7238055Y-19545252D01*
X7419008Y-19535729D02*
X7428531Y-19545252D01*
X7419008Y-19554776D01*
X7409484Y-19545252D01*
X7419008Y-19535729D01*
X7419008Y-19554776D01*
X7419008Y-19430967D02*
X7428531Y-19440490D01*
X7419008Y-19450014D01*
X7409484Y-19440490D01*
X7419008Y-19430967D01*
X7419008Y-19450014D01*
D12*
X5759960Y-19869300D02*
X5789960Y-19899300D01*
X5789960Y-19869300D02*
X5759960Y-19899300D01*
D11*
X6085674Y-19774776D02*
X6104722Y-19774776D01*
X6123769Y-19784300D01*
X6133293Y-19793824D01*
X6142817Y-19812871D01*
X6152341Y-19850967D01*
X6152341Y-19898586D01*
X6142817Y-19936681D01*
X6133293Y-19955729D01*
X6123769Y-19965252D01*
X6104722Y-19974776D01*
X6085674Y-19974776D01*
X6066627Y-19965252D01*
X6057103Y-19955729D01*
X6047579Y-19936681D01*
X6038055Y-19898586D01*
X6038055Y-19850967D01*
X6047579Y-19812871D01*
X6057103Y-19793824D01*
X6066627Y-19784300D01*
X6085674Y-19774776D01*
X6238055Y-19955729D02*
X6247579Y-19965252D01*
X6238055Y-19974776D01*
X6228531Y-19965252D01*
X6238055Y-19955729D01*
X6238055Y-19974776D01*
X6314246Y-19774776D02*
X6438055Y-19774776D01*
X6371388Y-19850967D01*
X6399960Y-19850967D01*
X6419008Y-19860490D01*
X6428531Y-19870014D01*
X6438055Y-19889062D01*
X6438055Y-19936681D01*
X6428531Y-19955729D01*
X6419008Y-19965252D01*
X6399960Y-19974776D01*
X6342817Y-19974776D01*
X6323769Y-19965252D01*
X6314246Y-19955729D01*
X6561865Y-19774776D02*
X6580912Y-19774776D01*
X6599960Y-19784300D01*
X6609484Y-19793824D01*
X6619008Y-19812871D01*
X6628531Y-19850967D01*
X6628531Y-19898586D01*
X6619008Y-19936681D01*
X6609484Y-19955729D01*
X6599960Y-19965252D01*
X6580912Y-19974776D01*
X6561865Y-19974776D01*
X6542817Y-19965252D01*
X6533293Y-19955729D01*
X6523769Y-19936681D01*
X6514246Y-19898586D01*
X6514246Y-19850967D01*
X6523769Y-19812871D01*
X6533293Y-19793824D01*
X6542817Y-19784300D01*
X6561865Y-19774776D01*
X6752341Y-19774776D02*
X6771388Y-19774776D01*
X6790436Y-19784300D01*
X6799960Y-19793824D01*
X6809484Y-19812871D01*
X6819008Y-19850967D01*
X6819008Y-19898586D01*
X6809484Y-19936681D01*
X6799960Y-19955729D01*
X6790436Y-19965252D01*
X6771388Y-19974776D01*
X6752341Y-19974776D01*
X6733293Y-19965252D01*
X6723769Y-19955729D01*
X6714246Y-19936681D01*
X6704722Y-19898586D01*
X6704722Y-19850967D01*
X6714246Y-19812871D01*
X6723769Y-19793824D01*
X6733293Y-19784300D01*
X6752341Y-19774776D01*
X6904722Y-19974776D02*
X6904722Y-19841443D01*
X6904722Y-19860490D02*
X6914246Y-19850967D01*
X6933293Y-19841443D01*
X6961865Y-19841443D01*
X6980912Y-19850967D01*
X6990436Y-19870014D01*
X6990436Y-19974776D01*
X6990436Y-19870014D02*
X6999960Y-19850967D01*
X7019008Y-19841443D01*
X7047579Y-19841443D01*
X7066627Y-19850967D01*
X7076150Y-19870014D01*
X7076150Y-19974776D01*
X7171388Y-19974776D02*
X7171388Y-19841443D01*
X7171388Y-19860490D02*
X7180912Y-19850967D01*
X7199960Y-19841443D01*
X7228531Y-19841443D01*
X7247579Y-19850967D01*
X7257103Y-19870014D01*
X7257103Y-19974776D01*
X7257103Y-19870014D02*
X7266627Y-19850967D01*
X7285674Y-19841443D01*
X7314246Y-19841443D01*
X7333293Y-19850967D01*
X7342817Y-19870014D01*
X7342817Y-19974776D01*
X7733293Y-19765252D02*
X7561865Y-20022395D01*
X7990436Y-19774776D02*
X8009484Y-19774776D01*
X8028531Y-19784300D01*
X8038055Y-19793824D01*
X8047579Y-19812871D01*
X8057103Y-19850967D01*
X8057103Y-19898586D01*
X8047579Y-19936681D01*
X8038055Y-19955729D01*
X8028531Y-19965252D01*
X8009484Y-19974776D01*
X7990436Y-19974776D01*
X7971388Y-19965252D01*
X7961865Y-19955729D01*
X7952341Y-19936681D01*
X7942817Y-19898586D01*
X7942817Y-19850967D01*
X7952341Y-19812871D01*
X7961865Y-19793824D01*
X7971388Y-19784300D01*
X7990436Y-19774776D01*
X8142817Y-19955729D02*
X8152341Y-19965252D01*
X8142817Y-19974776D01*
X8133293Y-19965252D01*
X8142817Y-19955729D01*
X8142817Y-19974776D01*
X8276150Y-19774776D02*
X8295198Y-19774776D01*
X8314246Y-19784300D01*
X8323769Y-19793824D01*
X8333293Y-19812871D01*
X8342817Y-19850967D01*
X8342817Y-19898586D01*
X8333293Y-19936681D01*
X8323769Y-19955729D01*
X8314246Y-19965252D01*
X8295198Y-19974776D01*
X8276150Y-19974776D01*
X8257103Y-19965252D01*
X8247579Y-19955729D01*
X8238055Y-19936681D01*
X8228531Y-19898586D01*
X8228531Y-19850967D01*
X8238055Y-19812871D01*
X8247579Y-19793824D01*
X8257103Y-19784300D01*
X8276150Y-19774776D01*
X8533293Y-19974776D02*
X8419008Y-19974776D01*
X8476150Y-19974776D02*
X8476150Y-19774776D01*
X8457103Y-19803348D01*
X8438055Y-19822395D01*
X8419008Y-19831919D01*
X8723770Y-19974776D02*
X8609484Y-19974776D01*
X8666627Y-19974776D02*
X8666627Y-19774776D01*
X8647579Y-19803348D01*
X8628531Y-19822395D01*
X8609484Y-19831919D01*
X8838055Y-19860490D02*
X8819008Y-19850967D01*
X8809484Y-19841443D01*
X8799960Y-19822395D01*
X8799960Y-19812871D01*
X8809484Y-19793824D01*
X8819008Y-19784300D01*
X8838055Y-19774776D01*
X8876150Y-19774776D01*
X8895198Y-19784300D01*
X8904722Y-19793824D01*
X8914246Y-19812871D01*
X8914246Y-19822395D01*
X8904722Y-19841443D01*
X8895198Y-19850967D01*
X8876150Y-19860490D01*
X8838055Y-19860490D01*
X8819008Y-19870014D01*
X8809484Y-19879538D01*
X8799960Y-19898586D01*
X8799960Y-19936681D01*
X8809484Y-19955729D01*
X8819008Y-19965252D01*
X8838055Y-19974776D01*
X8876150Y-19974776D01*
X8895198Y-19965252D01*
X8904722Y-19955729D01*
X8914246Y-19936681D01*
X8914246Y-19898586D01*
X8904722Y-19879538D01*
X8895198Y-19870014D01*
X8876150Y-19860490D01*
X8990436Y-19774776D02*
X8990436Y-19812871D01*
X9066627Y-19774776D02*
X9066627Y-19812871D01*
X9361865Y-20050967D02*
X9352341Y-20041443D01*
X9333293Y-20012871D01*
X9323770Y-19993824D01*
X9314246Y-19965252D01*
X9304722Y-19917633D01*
X9304722Y-19879538D01*
X9314246Y-19831919D01*
X9323770Y-19803348D01*
X9333293Y-19784300D01*
X9352341Y-19755729D01*
X9361865Y-19746205D01*
X9542817Y-19974776D02*
X9428531Y-19974776D01*
X9485674Y-19974776D02*
X9485674Y-19774776D01*
X9466627Y-19803348D01*
X9447579Y-19822395D01*
X9428531Y-19831919D01*
X9714246Y-19841443D02*
X9714246Y-19974776D01*
X9666627Y-19765252D02*
X9619008Y-19908110D01*
X9742817Y-19908110D01*
X9971389Y-19974776D02*
X9971389Y-19774776D01*
X10057103Y-19974776D02*
X10057103Y-19870014D01*
X10047579Y-19850967D01*
X10028531Y-19841443D01*
X9999960Y-19841443D01*
X9980912Y-19850967D01*
X9971389Y-19860490D01*
X10180912Y-19974776D02*
X10161865Y-19965252D01*
X10152341Y-19955729D01*
X10142817Y-19936681D01*
X10142817Y-19879538D01*
X10152341Y-19860490D01*
X10161865Y-19850967D01*
X10180912Y-19841443D01*
X10209484Y-19841443D01*
X10228531Y-19850967D01*
X10238055Y-19860490D01*
X10247579Y-19879538D01*
X10247579Y-19936681D01*
X10238055Y-19955729D01*
X10228531Y-19965252D01*
X10209484Y-19974776D01*
X10180912Y-19974776D01*
X10361865Y-19974776D02*
X10342817Y-19965252D01*
X10333293Y-19946205D01*
X10333293Y-19774776D01*
X10514246Y-19965252D02*
X10495198Y-19974776D01*
X10457103Y-19974776D01*
X10438055Y-19965252D01*
X10428531Y-19946205D01*
X10428531Y-19870014D01*
X10438055Y-19850967D01*
X10457103Y-19841443D01*
X10495198Y-19841443D01*
X10514246Y-19850967D01*
X10523770Y-19870014D01*
X10523770Y-19889062D01*
X10428531Y-19908110D01*
X10599960Y-19965252D02*
X10619008Y-19974776D01*
X10657103Y-19974776D01*
X10676150Y-19965252D01*
X10685674Y-19946205D01*
X10685674Y-19936681D01*
X10676150Y-19917633D01*
X10657103Y-19908110D01*
X10628531Y-19908110D01*
X10609484Y-19898586D01*
X10599960Y-19879538D01*
X10599960Y-19870014D01*
X10609484Y-19850967D01*
X10628531Y-19841443D01*
X10657103Y-19841443D01*
X10676150Y-19850967D01*
X10752341Y-20050967D02*
X10761865Y-20041443D01*
X10780912Y-20012871D01*
X10790436Y-19993824D01*
X10799960Y-19965252D01*
X10809484Y-19917633D01*
X10809484Y-19879538D01*
X10799960Y-19831919D01*
X10790436Y-19803348D01*
X10780912Y-19784300D01*
X10761865Y-19755729D01*
X10752341Y-19746205D01*
D13*
X5789960Y-20148300D02*
G75*
G03*
X5789960Y-20148300I-20000J0D01*
G01*
D11*
X6085674Y-20038776D02*
X6104722Y-20038776D01*
X6123769Y-20048300D01*
X6133293Y-20057824D01*
X6142817Y-20076871D01*
X6152341Y-20114967D01*
X6152341Y-20162586D01*
X6142817Y-20200681D01*
X6133293Y-20219729D01*
X6123769Y-20229252D01*
X6104722Y-20238776D01*
X6085674Y-20238776D01*
X6066627Y-20229252D01*
X6057103Y-20219729D01*
X6047579Y-20200681D01*
X6038055Y-20162586D01*
X6038055Y-20114967D01*
X6047579Y-20076871D01*
X6057103Y-20057824D01*
X6066627Y-20048300D01*
X6085674Y-20038776D01*
X6238055Y-20219729D02*
X6247579Y-20229252D01*
X6238055Y-20238776D01*
X6228531Y-20229252D01*
X6238055Y-20219729D01*
X6238055Y-20238776D01*
X6419008Y-20105443D02*
X6419008Y-20238776D01*
X6371388Y-20029252D02*
X6323769Y-20172110D01*
X6447579Y-20172110D01*
X6561865Y-20038776D02*
X6580912Y-20038776D01*
X6599960Y-20048300D01*
X6609484Y-20057824D01*
X6619008Y-20076871D01*
X6628531Y-20114967D01*
X6628531Y-20162586D01*
X6619008Y-20200681D01*
X6609484Y-20219729D01*
X6599960Y-20229252D01*
X6580912Y-20238776D01*
X6561865Y-20238776D01*
X6542817Y-20229252D01*
X6533293Y-20219729D01*
X6523769Y-20200681D01*
X6514246Y-20162586D01*
X6514246Y-20114967D01*
X6523769Y-20076871D01*
X6533293Y-20057824D01*
X6542817Y-20048300D01*
X6561865Y-20038776D01*
X6752341Y-20038776D02*
X6771388Y-20038776D01*
X6790436Y-20048300D01*
X6799960Y-20057824D01*
X6809484Y-20076871D01*
X6819008Y-20114967D01*
X6819008Y-20162586D01*
X6809484Y-20200681D01*
X6799960Y-20219729D01*
X6790436Y-20229252D01*
X6771388Y-20238776D01*
X6752341Y-20238776D01*
X6733293Y-20229252D01*
X6723769Y-20219729D01*
X6714246Y-20200681D01*
X6704722Y-20162586D01*
X6704722Y-20114967D01*
X6714246Y-20076871D01*
X6723769Y-20057824D01*
X6733293Y-20048300D01*
X6752341Y-20038776D01*
X6904722Y-20238776D02*
X6904722Y-20105443D01*
X6904722Y-20124490D02*
X6914246Y-20114967D01*
X6933293Y-20105443D01*
X6961865Y-20105443D01*
X6980912Y-20114967D01*
X6990436Y-20134014D01*
X6990436Y-20238776D01*
X6990436Y-20134014D02*
X6999960Y-20114967D01*
X7019008Y-20105443D01*
X7047579Y-20105443D01*
X7066627Y-20114967D01*
X7076150Y-20134014D01*
X7076150Y-20238776D01*
X7171388Y-20238776D02*
X7171388Y-20105443D01*
X7171388Y-20124490D02*
X7180912Y-20114967D01*
X7199960Y-20105443D01*
X7228531Y-20105443D01*
X7247579Y-20114967D01*
X7257103Y-20134014D01*
X7257103Y-20238776D01*
X7257103Y-20134014D02*
X7266627Y-20114967D01*
X7285674Y-20105443D01*
X7314246Y-20105443D01*
X7333293Y-20114967D01*
X7342817Y-20134014D01*
X7342817Y-20238776D01*
X7733293Y-20029252D02*
X7561865Y-20286395D01*
X7990436Y-20038776D02*
X8009484Y-20038776D01*
X8028531Y-20048300D01*
X8038055Y-20057824D01*
X8047579Y-20076871D01*
X8057103Y-20114967D01*
X8057103Y-20162586D01*
X8047579Y-20200681D01*
X8038055Y-20219729D01*
X8028531Y-20229252D01*
X8009484Y-20238776D01*
X7990436Y-20238776D01*
X7971388Y-20229252D01*
X7961865Y-20219729D01*
X7952341Y-20200681D01*
X7942817Y-20162586D01*
X7942817Y-20114967D01*
X7952341Y-20076871D01*
X7961865Y-20057824D01*
X7971388Y-20048300D01*
X7990436Y-20038776D01*
X8142817Y-20219729D02*
X8152341Y-20229252D01*
X8142817Y-20238776D01*
X8133293Y-20229252D01*
X8142817Y-20219729D01*
X8142817Y-20238776D01*
X8276150Y-20038776D02*
X8295198Y-20038776D01*
X8314246Y-20048300D01*
X8323769Y-20057824D01*
X8333293Y-20076871D01*
X8342817Y-20114967D01*
X8342817Y-20162586D01*
X8333293Y-20200681D01*
X8323769Y-20219729D01*
X8314246Y-20229252D01*
X8295198Y-20238776D01*
X8276150Y-20238776D01*
X8257103Y-20229252D01*
X8247579Y-20219729D01*
X8238055Y-20200681D01*
X8228531Y-20162586D01*
X8228531Y-20114967D01*
X8238055Y-20076871D01*
X8247579Y-20057824D01*
X8257103Y-20048300D01*
X8276150Y-20038776D01*
X8533293Y-20238776D02*
X8419008Y-20238776D01*
X8476150Y-20238776D02*
X8476150Y-20038776D01*
X8457103Y-20067348D01*
X8438055Y-20086395D01*
X8419008Y-20095919D01*
X8714246Y-20038776D02*
X8619008Y-20038776D01*
X8609484Y-20134014D01*
X8619008Y-20124490D01*
X8638055Y-20114967D01*
X8685674Y-20114967D01*
X8704722Y-20124490D01*
X8714246Y-20134014D01*
X8723770Y-20153062D01*
X8723770Y-20200681D01*
X8714246Y-20219729D01*
X8704722Y-20229252D01*
X8685674Y-20238776D01*
X8638055Y-20238776D01*
X8619008Y-20229252D01*
X8609484Y-20219729D01*
X8790436Y-20038776D02*
X8923770Y-20038776D01*
X8838055Y-20238776D01*
X8990436Y-20038776D02*
X8990436Y-20076871D01*
X9066627Y-20038776D02*
X9066627Y-20076871D01*
X9361865Y-20314967D02*
X9352341Y-20305443D01*
X9333293Y-20276871D01*
X9323770Y-20257824D01*
X9314246Y-20229252D01*
X9304722Y-20181633D01*
X9304722Y-20143538D01*
X9314246Y-20095919D01*
X9323770Y-20067348D01*
X9333293Y-20048300D01*
X9352341Y-20019729D01*
X9361865Y-20010205D01*
X9533293Y-20038776D02*
X9438055Y-20038776D01*
X9428531Y-20134014D01*
X9438055Y-20124490D01*
X9457103Y-20114967D01*
X9504722Y-20114967D01*
X9523770Y-20124490D01*
X9533293Y-20134014D01*
X9542817Y-20153062D01*
X9542817Y-20200681D01*
X9533293Y-20219729D01*
X9523770Y-20229252D01*
X9504722Y-20238776D01*
X9457103Y-20238776D01*
X9438055Y-20229252D01*
X9428531Y-20219729D01*
X9714246Y-20105443D02*
X9714246Y-20238776D01*
X9666627Y-20029252D02*
X9619008Y-20172110D01*
X9742817Y-20172110D01*
X9971389Y-20238776D02*
X9971389Y-20038776D01*
X10057103Y-20238776D02*
X10057103Y-20134014D01*
X10047579Y-20114967D01*
X10028531Y-20105443D01*
X9999960Y-20105443D01*
X9980912Y-20114967D01*
X9971389Y-20124490D01*
X10180912Y-20238776D02*
X10161865Y-20229252D01*
X10152341Y-20219729D01*
X10142817Y-20200681D01*
X10142817Y-20143538D01*
X10152341Y-20124490D01*
X10161865Y-20114967D01*
X10180912Y-20105443D01*
X10209484Y-20105443D01*
X10228531Y-20114967D01*
X10238055Y-20124490D01*
X10247579Y-20143538D01*
X10247579Y-20200681D01*
X10238055Y-20219729D01*
X10228531Y-20229252D01*
X10209484Y-20238776D01*
X10180912Y-20238776D01*
X10361865Y-20238776D02*
X10342817Y-20229252D01*
X10333293Y-20210205D01*
X10333293Y-20038776D01*
X10514246Y-20229252D02*
X10495198Y-20238776D01*
X10457103Y-20238776D01*
X10438055Y-20229252D01*
X10428531Y-20210205D01*
X10428531Y-20134014D01*
X10438055Y-20114967D01*
X10457103Y-20105443D01*
X10495198Y-20105443D01*
X10514246Y-20114967D01*
X10523770Y-20134014D01*
X10523770Y-20153062D01*
X10428531Y-20172110D01*
X10599960Y-20229252D02*
X10619008Y-20238776D01*
X10657103Y-20238776D01*
X10676150Y-20229252D01*
X10685674Y-20210205D01*
X10685674Y-20200681D01*
X10676150Y-20181633D01*
X10657103Y-20172110D01*
X10628531Y-20172110D01*
X10609484Y-20162586D01*
X10599960Y-20143538D01*
X10599960Y-20134014D01*
X10609484Y-20114967D01*
X10628531Y-20105443D01*
X10657103Y-20105443D01*
X10676150Y-20114967D01*
X10752341Y-20314967D02*
X10761865Y-20305443D01*
X10780912Y-20276871D01*
X10790436Y-20257824D01*
X10799960Y-20229252D01*
X10809484Y-20181633D01*
X10809484Y-20143538D01*
X10799960Y-20095919D01*
X10790436Y-20067348D01*
X10780912Y-20048300D01*
X10761865Y-20019729D01*
X10752341Y-20010205D01*
D14*
X5754960Y-20377300D02*
X5754960Y-20447300D01*
X5719960Y-20412300D02*
X5789960Y-20412300D01*
D11*
X6085674Y-20302776D02*
X6104722Y-20302776D01*
X6123769Y-20312300D01*
X6133293Y-20321824D01*
X6142817Y-20340871D01*
X6152341Y-20378967D01*
X6152341Y-20426586D01*
X6142817Y-20464681D01*
X6133293Y-20483729D01*
X6123769Y-20493252D01*
X6104722Y-20502776D01*
X6085674Y-20502776D01*
X6066627Y-20493252D01*
X6057103Y-20483729D01*
X6047579Y-20464681D01*
X6038055Y-20426586D01*
X6038055Y-20378967D01*
X6047579Y-20340871D01*
X6057103Y-20321824D01*
X6066627Y-20312300D01*
X6085674Y-20302776D01*
X6238055Y-20483729D02*
X6247579Y-20493252D01*
X6238055Y-20502776D01*
X6228531Y-20493252D01*
X6238055Y-20483729D01*
X6238055Y-20502776D01*
X6314246Y-20302776D02*
X6447579Y-20302776D01*
X6361865Y-20502776D01*
X6561865Y-20302776D02*
X6580912Y-20302776D01*
X6599960Y-20312300D01*
X6609484Y-20321824D01*
X6619008Y-20340871D01*
X6628531Y-20378967D01*
X6628531Y-20426586D01*
X6619008Y-20464681D01*
X6609484Y-20483729D01*
X6599960Y-20493252D01*
X6580912Y-20502776D01*
X6561865Y-20502776D01*
X6542817Y-20493252D01*
X6533293Y-20483729D01*
X6523769Y-20464681D01*
X6514246Y-20426586D01*
X6514246Y-20378967D01*
X6523769Y-20340871D01*
X6533293Y-20321824D01*
X6542817Y-20312300D01*
X6561865Y-20302776D01*
X6752341Y-20302776D02*
X6771388Y-20302776D01*
X6790436Y-20312300D01*
X6799960Y-20321824D01*
X6809484Y-20340871D01*
X6819008Y-20378967D01*
X6819008Y-20426586D01*
X6809484Y-20464681D01*
X6799960Y-20483729D01*
X6790436Y-20493252D01*
X6771388Y-20502776D01*
X6752341Y-20502776D01*
X6733293Y-20493252D01*
X6723769Y-20483729D01*
X6714246Y-20464681D01*
X6704722Y-20426586D01*
X6704722Y-20378967D01*
X6714246Y-20340871D01*
X6723769Y-20321824D01*
X6733293Y-20312300D01*
X6752341Y-20302776D01*
X6904722Y-20502776D02*
X6904722Y-20369443D01*
X6904722Y-20388490D02*
X6914246Y-20378967D01*
X6933293Y-20369443D01*
X6961865Y-20369443D01*
X6980912Y-20378967D01*
X6990436Y-20398014D01*
X6990436Y-20502776D01*
X6990436Y-20398014D02*
X6999960Y-20378967D01*
X7019008Y-20369443D01*
X7047579Y-20369443D01*
X7066627Y-20378967D01*
X7076150Y-20398014D01*
X7076150Y-20502776D01*
X7171388Y-20502776D02*
X7171388Y-20369443D01*
X7171388Y-20388490D02*
X7180912Y-20378967D01*
X7199960Y-20369443D01*
X7228531Y-20369443D01*
X7247579Y-20378967D01*
X7257103Y-20398014D01*
X7257103Y-20502776D01*
X7257103Y-20398014D02*
X7266627Y-20378967D01*
X7285674Y-20369443D01*
X7314246Y-20369443D01*
X7333293Y-20378967D01*
X7342817Y-20398014D01*
X7342817Y-20502776D01*
X7733293Y-20293252D02*
X7561865Y-20550395D01*
X7990436Y-20302776D02*
X8009484Y-20302776D01*
X8028531Y-20312300D01*
X8038055Y-20321824D01*
X8047579Y-20340871D01*
X8057103Y-20378967D01*
X8057103Y-20426586D01*
X8047579Y-20464681D01*
X8038055Y-20483729D01*
X8028531Y-20493252D01*
X8009484Y-20502776D01*
X7990436Y-20502776D01*
X7971388Y-20493252D01*
X7961865Y-20483729D01*
X7952341Y-20464681D01*
X7942817Y-20426586D01*
X7942817Y-20378967D01*
X7952341Y-20340871D01*
X7961865Y-20321824D01*
X7971388Y-20312300D01*
X7990436Y-20302776D01*
X8142817Y-20483729D02*
X8152341Y-20493252D01*
X8142817Y-20502776D01*
X8133293Y-20493252D01*
X8142817Y-20483729D01*
X8142817Y-20502776D01*
X8276150Y-20302776D02*
X8295198Y-20302776D01*
X8314246Y-20312300D01*
X8323769Y-20321824D01*
X8333293Y-20340871D01*
X8342817Y-20378967D01*
X8342817Y-20426586D01*
X8333293Y-20464681D01*
X8323769Y-20483729D01*
X8314246Y-20493252D01*
X8295198Y-20502776D01*
X8276150Y-20502776D01*
X8257103Y-20493252D01*
X8247579Y-20483729D01*
X8238055Y-20464681D01*
X8228531Y-20426586D01*
X8228531Y-20378967D01*
X8238055Y-20340871D01*
X8247579Y-20321824D01*
X8257103Y-20312300D01*
X8276150Y-20302776D01*
X8419008Y-20321824D02*
X8428531Y-20312300D01*
X8447579Y-20302776D01*
X8495198Y-20302776D01*
X8514246Y-20312300D01*
X8523770Y-20321824D01*
X8533293Y-20340871D01*
X8533293Y-20359919D01*
X8523770Y-20388490D01*
X8409484Y-20502776D01*
X8533293Y-20502776D01*
X8599960Y-20302776D02*
X8733293Y-20302776D01*
X8647579Y-20502776D01*
X8895198Y-20302776D02*
X8857103Y-20302776D01*
X8838055Y-20312300D01*
X8828531Y-20321824D01*
X8809484Y-20350395D01*
X8799960Y-20388490D01*
X8799960Y-20464681D01*
X8809484Y-20483729D01*
X8819008Y-20493252D01*
X8838055Y-20502776D01*
X8876150Y-20502776D01*
X8895198Y-20493252D01*
X8904722Y-20483729D01*
X8914246Y-20464681D01*
X8914246Y-20417062D01*
X8904722Y-20398014D01*
X8895198Y-20388490D01*
X8876150Y-20378967D01*
X8838055Y-20378967D01*
X8819008Y-20388490D01*
X8809484Y-20398014D01*
X8799960Y-20417062D01*
X8990436Y-20302776D02*
X8990436Y-20340871D01*
X9066627Y-20302776D02*
X9066627Y-20340871D01*
X9361865Y-20578967D02*
X9352341Y-20569443D01*
X9333293Y-20540871D01*
X9323770Y-20521824D01*
X9314246Y-20493252D01*
X9304722Y-20445633D01*
X9304722Y-20407538D01*
X9314246Y-20359919D01*
X9323770Y-20331348D01*
X9333293Y-20312300D01*
X9352341Y-20283729D01*
X9361865Y-20274205D01*
X9542817Y-20502776D02*
X9428531Y-20502776D01*
X9485674Y-20502776D02*
X9485674Y-20302776D01*
X9466627Y-20331348D01*
X9447579Y-20350395D01*
X9428531Y-20359919D01*
X9714246Y-20302776D02*
X9676150Y-20302776D01*
X9657103Y-20312300D01*
X9647579Y-20321824D01*
X9628531Y-20350395D01*
X9619008Y-20388490D01*
X9619008Y-20464681D01*
X9628531Y-20483729D01*
X9638055Y-20493252D01*
X9657103Y-20502776D01*
X9695198Y-20502776D01*
X9714246Y-20493252D01*
X9723770Y-20483729D01*
X9733293Y-20464681D01*
X9733293Y-20417062D01*
X9723770Y-20398014D01*
X9714246Y-20388490D01*
X9695198Y-20378967D01*
X9657103Y-20378967D01*
X9638055Y-20388490D01*
X9628531Y-20398014D01*
X9619008Y-20417062D01*
X9971389Y-20502776D02*
X9971389Y-20302776D01*
X10057103Y-20502776D02*
X10057103Y-20398014D01*
X10047579Y-20378967D01*
X10028531Y-20369443D01*
X9999960Y-20369443D01*
X9980912Y-20378967D01*
X9971389Y-20388490D01*
X10180912Y-20502776D02*
X10161865Y-20493252D01*
X10152341Y-20483729D01*
X10142817Y-20464681D01*
X10142817Y-20407538D01*
X10152341Y-20388490D01*
X10161865Y-20378967D01*
X10180912Y-20369443D01*
X10209484Y-20369443D01*
X10228531Y-20378967D01*
X10238055Y-20388490D01*
X10247579Y-20407538D01*
X10247579Y-20464681D01*
X10238055Y-20483729D01*
X10228531Y-20493252D01*
X10209484Y-20502776D01*
X10180912Y-20502776D01*
X10361865Y-20502776D02*
X10342817Y-20493252D01*
X10333293Y-20474205D01*
X10333293Y-20302776D01*
X10514246Y-20493252D02*
X10495198Y-20502776D01*
X10457103Y-20502776D01*
X10438055Y-20493252D01*
X10428531Y-20474205D01*
X10428531Y-20398014D01*
X10438055Y-20378967D01*
X10457103Y-20369443D01*
X10495198Y-20369443D01*
X10514246Y-20378967D01*
X10523770Y-20398014D01*
X10523770Y-20417062D01*
X10428531Y-20436110D01*
X10599960Y-20493252D02*
X10619008Y-20502776D01*
X10657103Y-20502776D01*
X10676150Y-20493252D01*
X10685674Y-20474205D01*
X10685674Y-20464681D01*
X10676150Y-20445633D01*
X10657103Y-20436110D01*
X10628531Y-20436110D01*
X10609484Y-20426586D01*
X10599960Y-20407538D01*
X10599960Y-20398014D01*
X10609484Y-20378967D01*
X10628531Y-20369443D01*
X10657103Y-20369443D01*
X10676150Y-20378967D01*
X10752341Y-20578967D02*
X10761865Y-20569443D01*
X10780912Y-20540871D01*
X10790436Y-20521824D01*
X10799960Y-20493252D01*
X10809484Y-20445633D01*
X10809484Y-20407538D01*
X10799960Y-20359919D01*
X10790436Y-20331348D01*
X10780912Y-20312300D01*
X10761865Y-20283729D01*
X10752341Y-20274205D01*
D15*
X5778244Y-20704585D02*
X5778244Y-20648016D01*
X5721675Y-20648016D01*
X5721675Y-20704585D01*
X5778244Y-20704585D01*
D11*
X6085674Y-20566776D02*
X6104722Y-20566776D01*
X6123769Y-20576300D01*
X6133293Y-20585824D01*
X6142817Y-20604871D01*
X6152341Y-20642967D01*
X6152341Y-20690586D01*
X6142817Y-20728681D01*
X6133293Y-20747729D01*
X6123769Y-20757252D01*
X6104722Y-20766776D01*
X6085674Y-20766776D01*
X6066627Y-20757252D01*
X6057103Y-20747729D01*
X6047579Y-20728681D01*
X6038055Y-20690586D01*
X6038055Y-20642967D01*
X6047579Y-20604871D01*
X6057103Y-20585824D01*
X6066627Y-20576300D01*
X6085674Y-20566776D01*
X6238055Y-20747729D02*
X6247579Y-20757252D01*
X6238055Y-20766776D01*
X6228531Y-20757252D01*
X6238055Y-20747729D01*
X6238055Y-20766776D01*
X6361865Y-20652490D02*
X6342817Y-20642967D01*
X6333293Y-20633443D01*
X6323769Y-20614395D01*
X6323769Y-20604871D01*
X6333293Y-20585824D01*
X6342817Y-20576300D01*
X6361865Y-20566776D01*
X6399960Y-20566776D01*
X6419008Y-20576300D01*
X6428531Y-20585824D01*
X6438055Y-20604871D01*
X6438055Y-20614395D01*
X6428531Y-20633443D01*
X6419008Y-20642967D01*
X6399960Y-20652490D01*
X6361865Y-20652490D01*
X6342817Y-20662014D01*
X6333293Y-20671538D01*
X6323769Y-20690586D01*
X6323769Y-20728681D01*
X6333293Y-20747729D01*
X6342817Y-20757252D01*
X6361865Y-20766776D01*
X6399960Y-20766776D01*
X6419008Y-20757252D01*
X6428531Y-20747729D01*
X6438055Y-20728681D01*
X6438055Y-20690586D01*
X6428531Y-20671538D01*
X6419008Y-20662014D01*
X6399960Y-20652490D01*
X6561865Y-20566776D02*
X6580912Y-20566776D01*
X6599960Y-20576300D01*
X6609484Y-20585824D01*
X6619008Y-20604871D01*
X6628531Y-20642967D01*
X6628531Y-20690586D01*
X6619008Y-20728681D01*
X6609484Y-20747729D01*
X6599960Y-20757252D01*
X6580912Y-20766776D01*
X6561865Y-20766776D01*
X6542817Y-20757252D01*
X6533293Y-20747729D01*
X6523769Y-20728681D01*
X6514246Y-20690586D01*
X6514246Y-20642967D01*
X6523769Y-20604871D01*
X6533293Y-20585824D01*
X6542817Y-20576300D01*
X6561865Y-20566776D01*
X6752341Y-20566776D02*
X6771388Y-20566776D01*
X6790436Y-20576300D01*
X6799960Y-20585824D01*
X6809484Y-20604871D01*
X6819008Y-20642967D01*
X6819008Y-20690586D01*
X6809484Y-20728681D01*
X6799960Y-20747729D01*
X6790436Y-20757252D01*
X6771388Y-20766776D01*
X6752341Y-20766776D01*
X6733293Y-20757252D01*
X6723769Y-20747729D01*
X6714246Y-20728681D01*
X6704722Y-20690586D01*
X6704722Y-20642967D01*
X6714246Y-20604871D01*
X6723769Y-20585824D01*
X6733293Y-20576300D01*
X6752341Y-20566776D01*
X6904722Y-20766776D02*
X6904722Y-20633443D01*
X6904722Y-20652490D02*
X6914246Y-20642967D01*
X6933293Y-20633443D01*
X6961865Y-20633443D01*
X6980912Y-20642967D01*
X6990436Y-20662014D01*
X6990436Y-20766776D01*
X6990436Y-20662014D02*
X6999960Y-20642967D01*
X7019008Y-20633443D01*
X7047579Y-20633443D01*
X7066627Y-20642967D01*
X7076150Y-20662014D01*
X7076150Y-20766776D01*
X7171388Y-20766776D02*
X7171388Y-20633443D01*
X7171388Y-20652490D02*
X7180912Y-20642967D01*
X7199960Y-20633443D01*
X7228531Y-20633443D01*
X7247579Y-20642967D01*
X7257103Y-20662014D01*
X7257103Y-20766776D01*
X7257103Y-20662014D02*
X7266627Y-20642967D01*
X7285674Y-20633443D01*
X7314246Y-20633443D01*
X7333293Y-20642967D01*
X7342817Y-20662014D01*
X7342817Y-20766776D01*
X7733293Y-20557252D02*
X7561865Y-20814395D01*
X7990436Y-20566776D02*
X8009484Y-20566776D01*
X8028531Y-20576300D01*
X8038055Y-20585824D01*
X8047579Y-20604871D01*
X8057103Y-20642967D01*
X8057103Y-20690586D01*
X8047579Y-20728681D01*
X8038055Y-20747729D01*
X8028531Y-20757252D01*
X8009484Y-20766776D01*
X7990436Y-20766776D01*
X7971388Y-20757252D01*
X7961865Y-20747729D01*
X7952341Y-20728681D01*
X7942817Y-20690586D01*
X7942817Y-20642967D01*
X7952341Y-20604871D01*
X7961865Y-20585824D01*
X7971388Y-20576300D01*
X7990436Y-20566776D01*
X8142817Y-20747729D02*
X8152341Y-20757252D01*
X8142817Y-20766776D01*
X8133293Y-20757252D01*
X8142817Y-20747729D01*
X8142817Y-20766776D01*
X8276150Y-20566776D02*
X8295198Y-20566776D01*
X8314246Y-20576300D01*
X8323769Y-20585824D01*
X8333293Y-20604871D01*
X8342817Y-20642967D01*
X8342817Y-20690586D01*
X8333293Y-20728681D01*
X8323769Y-20747729D01*
X8314246Y-20757252D01*
X8295198Y-20766776D01*
X8276150Y-20766776D01*
X8257103Y-20757252D01*
X8247579Y-20747729D01*
X8238055Y-20728681D01*
X8228531Y-20690586D01*
X8228531Y-20642967D01*
X8238055Y-20604871D01*
X8247579Y-20585824D01*
X8257103Y-20576300D01*
X8276150Y-20566776D01*
X8409484Y-20566776D02*
X8533293Y-20566776D01*
X8466627Y-20642967D01*
X8495198Y-20642967D01*
X8514246Y-20652490D01*
X8523770Y-20662014D01*
X8533293Y-20681062D01*
X8533293Y-20728681D01*
X8523770Y-20747729D01*
X8514246Y-20757252D01*
X8495198Y-20766776D01*
X8438055Y-20766776D01*
X8419008Y-20757252D01*
X8409484Y-20747729D01*
X8723770Y-20766776D02*
X8609484Y-20766776D01*
X8666627Y-20766776D02*
X8666627Y-20566776D01*
X8647579Y-20595348D01*
X8628531Y-20614395D01*
X8609484Y-20623919D01*
X8904722Y-20566776D02*
X8809484Y-20566776D01*
X8799960Y-20662014D01*
X8809484Y-20652490D01*
X8828531Y-20642967D01*
X8876150Y-20642967D01*
X8895198Y-20652490D01*
X8904722Y-20662014D01*
X8914246Y-20681062D01*
X8914246Y-20728681D01*
X8904722Y-20747729D01*
X8895198Y-20757252D01*
X8876150Y-20766776D01*
X8828531Y-20766776D01*
X8809484Y-20757252D01*
X8799960Y-20747729D01*
X8990436Y-20566776D02*
X8990436Y-20604871D01*
X9066627Y-20566776D02*
X9066627Y-20604871D01*
X9361865Y-20842967D02*
X9352341Y-20833443D01*
X9333293Y-20804871D01*
X9323770Y-20785824D01*
X9314246Y-20757252D01*
X9304722Y-20709633D01*
X9304722Y-20671538D01*
X9314246Y-20623919D01*
X9323770Y-20595348D01*
X9333293Y-20576300D01*
X9352341Y-20547729D01*
X9361865Y-20538205D01*
X9542817Y-20766776D02*
X9428531Y-20766776D01*
X9485674Y-20766776D02*
X9485674Y-20566776D01*
X9466627Y-20595348D01*
X9447579Y-20614395D01*
X9428531Y-20623919D01*
X9619008Y-20585824D02*
X9628531Y-20576300D01*
X9647579Y-20566776D01*
X9695198Y-20566776D01*
X9714246Y-20576300D01*
X9723770Y-20585824D01*
X9733293Y-20604871D01*
X9733293Y-20623919D01*
X9723770Y-20652490D01*
X9609484Y-20766776D01*
X9733293Y-20766776D01*
X9923770Y-20766776D02*
X9809484Y-20766776D01*
X9866627Y-20766776D02*
X9866627Y-20566776D01*
X9847579Y-20595348D01*
X9828531Y-20614395D01*
X9809484Y-20623919D01*
X10161865Y-20766776D02*
X10161865Y-20566776D01*
X10247579Y-20766776D02*
X10247579Y-20662014D01*
X10238055Y-20642967D01*
X10219008Y-20633443D01*
X10190436Y-20633443D01*
X10171389Y-20642967D01*
X10161865Y-20652490D01*
X10371389Y-20766776D02*
X10352341Y-20757252D01*
X10342817Y-20747729D01*
X10333293Y-20728681D01*
X10333293Y-20671538D01*
X10342817Y-20652490D01*
X10352341Y-20642967D01*
X10371389Y-20633443D01*
X10399960Y-20633443D01*
X10419008Y-20642967D01*
X10428531Y-20652490D01*
X10438055Y-20671538D01*
X10438055Y-20728681D01*
X10428531Y-20747729D01*
X10419008Y-20757252D01*
X10399960Y-20766776D01*
X10371389Y-20766776D01*
X10552341Y-20766776D02*
X10533293Y-20757252D01*
X10523770Y-20738205D01*
X10523770Y-20566776D01*
X10704722Y-20757252D02*
X10685674Y-20766776D01*
X10647579Y-20766776D01*
X10628531Y-20757252D01*
X10619008Y-20738205D01*
X10619008Y-20662014D01*
X10628531Y-20642967D01*
X10647579Y-20633443D01*
X10685674Y-20633443D01*
X10704722Y-20642967D01*
X10714246Y-20662014D01*
X10714246Y-20681062D01*
X10619008Y-20700110D01*
X10790436Y-20757252D02*
X10809484Y-20766776D01*
X10847579Y-20766776D01*
X10866627Y-20757252D01*
X10876150Y-20738205D01*
X10876150Y-20728681D01*
X10866627Y-20709633D01*
X10847579Y-20700110D01*
X10819008Y-20700110D01*
X10799960Y-20690586D01*
X10790436Y-20671538D01*
X10790436Y-20662014D01*
X10799960Y-20642967D01*
X10819008Y-20633443D01*
X10847579Y-20633443D01*
X10866627Y-20642967D01*
X10942817Y-20842967D02*
X10952341Y-20833443D01*
X10971389Y-20804871D01*
X10980912Y-20785824D01*
X10990436Y-20757252D01*
X10999960Y-20709633D01*
X10999960Y-20671538D01*
X10990436Y-20623919D01*
X10980912Y-20595348D01*
X10971389Y-20576300D01*
X10952341Y-20547729D01*
X10942817Y-20538205D01*
D16*
X5740430Y-20989830D02*
X5789960Y-20940300D01*
X5740430Y-20890770D01*
X5690900Y-20940300D01*
X5740430Y-20989830D01*
D11*
X6085674Y-20830776D02*
X6104722Y-20830776D01*
X6123769Y-20840300D01*
X6133293Y-20849824D01*
X6142817Y-20868871D01*
X6152341Y-20906967D01*
X6152341Y-20954586D01*
X6142817Y-20992681D01*
X6133293Y-21011729D01*
X6123769Y-21021252D01*
X6104722Y-21030776D01*
X6085674Y-21030776D01*
X6066627Y-21021252D01*
X6057103Y-21011729D01*
X6047579Y-20992681D01*
X6038055Y-20954586D01*
X6038055Y-20906967D01*
X6047579Y-20868871D01*
X6057103Y-20849824D01*
X6066627Y-20840300D01*
X6085674Y-20830776D01*
X6238055Y-21011729D02*
X6247579Y-21021252D01*
X6238055Y-21030776D01*
X6228531Y-21021252D01*
X6238055Y-21011729D01*
X6238055Y-21030776D01*
X6342817Y-21030776D02*
X6380912Y-21030776D01*
X6399960Y-21021252D01*
X6409484Y-21011729D01*
X6428531Y-20983157D01*
X6438055Y-20945062D01*
X6438055Y-20868871D01*
X6428531Y-20849824D01*
X6419008Y-20840300D01*
X6399960Y-20830776D01*
X6361865Y-20830776D01*
X6342817Y-20840300D01*
X6333293Y-20849824D01*
X6323769Y-20868871D01*
X6323769Y-20916490D01*
X6333293Y-20935538D01*
X6342817Y-20945062D01*
X6361865Y-20954586D01*
X6399960Y-20954586D01*
X6419008Y-20945062D01*
X6428531Y-20935538D01*
X6438055Y-20916490D01*
X6533293Y-21030776D02*
X6571388Y-21030776D01*
X6590436Y-21021252D01*
X6599960Y-21011729D01*
X6619008Y-20983157D01*
X6628531Y-20945062D01*
X6628531Y-20868871D01*
X6619008Y-20849824D01*
X6609484Y-20840300D01*
X6590436Y-20830776D01*
X6552341Y-20830776D01*
X6533293Y-20840300D01*
X6523769Y-20849824D01*
X6514246Y-20868871D01*
X6514246Y-20916490D01*
X6523769Y-20935538D01*
X6533293Y-20945062D01*
X6552341Y-20954586D01*
X6590436Y-20954586D01*
X6609484Y-20945062D01*
X6619008Y-20935538D01*
X6628531Y-20916490D01*
X6819008Y-21030776D02*
X6704722Y-21030776D01*
X6761865Y-21030776D02*
X6761865Y-20830776D01*
X6742817Y-20859348D01*
X6723769Y-20878395D01*
X6704722Y-20887919D01*
X6904722Y-21030776D02*
X6904722Y-20897443D01*
X6904722Y-20916490D02*
X6914246Y-20906967D01*
X6933293Y-20897443D01*
X6961865Y-20897443D01*
X6980912Y-20906967D01*
X6990436Y-20926014D01*
X6990436Y-21030776D01*
X6990436Y-20926014D02*
X6999960Y-20906967D01*
X7019008Y-20897443D01*
X7047579Y-20897443D01*
X7066627Y-20906967D01*
X7076150Y-20926014D01*
X7076150Y-21030776D01*
X7171388Y-21030776D02*
X7171388Y-20897443D01*
X7171388Y-20916490D02*
X7180912Y-20906967D01*
X7199960Y-20897443D01*
X7228531Y-20897443D01*
X7247579Y-20906967D01*
X7257103Y-20926014D01*
X7257103Y-21030776D01*
X7257103Y-20926014D02*
X7266627Y-20906967D01*
X7285674Y-20897443D01*
X7314246Y-20897443D01*
X7333293Y-20906967D01*
X7342817Y-20926014D01*
X7342817Y-21030776D01*
X7733293Y-20821252D02*
X7561865Y-21078395D01*
X7990436Y-20830776D02*
X8009484Y-20830776D01*
X8028531Y-20840300D01*
X8038055Y-20849824D01*
X8047579Y-20868871D01*
X8057103Y-20906967D01*
X8057103Y-20954586D01*
X8047579Y-20992681D01*
X8038055Y-21011729D01*
X8028531Y-21021252D01*
X8009484Y-21030776D01*
X7990436Y-21030776D01*
X7971388Y-21021252D01*
X7961865Y-21011729D01*
X7952341Y-20992681D01*
X7942817Y-20954586D01*
X7942817Y-20906967D01*
X7952341Y-20868871D01*
X7961865Y-20849824D01*
X7971388Y-20840300D01*
X7990436Y-20830776D01*
X8142817Y-21011729D02*
X8152341Y-21021252D01*
X8142817Y-21030776D01*
X8133293Y-21021252D01*
X8142817Y-21011729D01*
X8142817Y-21030776D01*
X8276150Y-20830776D02*
X8295198Y-20830776D01*
X8314246Y-20840300D01*
X8323769Y-20849824D01*
X8333293Y-20868871D01*
X8342817Y-20906967D01*
X8342817Y-20954586D01*
X8333293Y-20992681D01*
X8323769Y-21011729D01*
X8314246Y-21021252D01*
X8295198Y-21030776D01*
X8276150Y-21030776D01*
X8257103Y-21021252D01*
X8247579Y-21011729D01*
X8238055Y-20992681D01*
X8228531Y-20954586D01*
X8228531Y-20906967D01*
X8238055Y-20868871D01*
X8247579Y-20849824D01*
X8257103Y-20840300D01*
X8276150Y-20830776D01*
X8409484Y-20830776D02*
X8533293Y-20830776D01*
X8466627Y-20906967D01*
X8495198Y-20906967D01*
X8514246Y-20916490D01*
X8523770Y-20926014D01*
X8533293Y-20945062D01*
X8533293Y-20992681D01*
X8523770Y-21011729D01*
X8514246Y-21021252D01*
X8495198Y-21030776D01*
X8438055Y-21030776D01*
X8419008Y-21021252D01*
X8409484Y-21011729D01*
X8628531Y-21030776D02*
X8666627Y-21030776D01*
X8685674Y-21021252D01*
X8695198Y-21011729D01*
X8714246Y-20983157D01*
X8723770Y-20945062D01*
X8723770Y-20868871D01*
X8714246Y-20849824D01*
X8704722Y-20840300D01*
X8685674Y-20830776D01*
X8647579Y-20830776D01*
X8628531Y-20840300D01*
X8619008Y-20849824D01*
X8609484Y-20868871D01*
X8609484Y-20916490D01*
X8619008Y-20935538D01*
X8628531Y-20945062D01*
X8647579Y-20954586D01*
X8685674Y-20954586D01*
X8704722Y-20945062D01*
X8714246Y-20935538D01*
X8723770Y-20916490D01*
X8847579Y-20830776D02*
X8866627Y-20830776D01*
X8885674Y-20840300D01*
X8895198Y-20849824D01*
X8904722Y-20868871D01*
X8914246Y-20906967D01*
X8914246Y-20954586D01*
X8904722Y-20992681D01*
X8895198Y-21011729D01*
X8885674Y-21021252D01*
X8866627Y-21030776D01*
X8847579Y-21030776D01*
X8828531Y-21021252D01*
X8819008Y-21011729D01*
X8809484Y-20992681D01*
X8799960Y-20954586D01*
X8799960Y-20906967D01*
X8809484Y-20868871D01*
X8819008Y-20849824D01*
X8828531Y-20840300D01*
X8847579Y-20830776D01*
X8990436Y-20830776D02*
X8990436Y-20868871D01*
X9066627Y-20830776D02*
X9066627Y-20868871D01*
X9361865Y-21106967D02*
X9352341Y-21097443D01*
X9333293Y-21068871D01*
X9323770Y-21049824D01*
X9314246Y-21021252D01*
X9304722Y-20973633D01*
X9304722Y-20935538D01*
X9314246Y-20887919D01*
X9323770Y-20859348D01*
X9333293Y-20840300D01*
X9352341Y-20811729D01*
X9361865Y-20802205D01*
X9542817Y-21030776D02*
X9428531Y-21030776D01*
X9485674Y-21030776D02*
X9485674Y-20830776D01*
X9466627Y-20859348D01*
X9447579Y-20878395D01*
X9428531Y-20887919D01*
X9733293Y-21030776D02*
X9619008Y-21030776D01*
X9676150Y-21030776D02*
X9676150Y-20830776D01*
X9657103Y-20859348D01*
X9638055Y-20878395D01*
X9619008Y-20887919D01*
X9904722Y-20830776D02*
X9866627Y-20830776D01*
X9847579Y-20840300D01*
X9838055Y-20849824D01*
X9819008Y-20878395D01*
X9809484Y-20916490D01*
X9809484Y-20992681D01*
X9819008Y-21011729D01*
X9828531Y-21021252D01*
X9847579Y-21030776D01*
X9885674Y-21030776D01*
X9904722Y-21021252D01*
X9914246Y-21011729D01*
X9923770Y-20992681D01*
X9923770Y-20945062D01*
X9914246Y-20926014D01*
X9904722Y-20916490D01*
X9885674Y-20906967D01*
X9847579Y-20906967D01*
X9828531Y-20916490D01*
X9819008Y-20926014D01*
X9809484Y-20945062D01*
X10161865Y-21030776D02*
X10161865Y-20830776D01*
X10247579Y-21030776D02*
X10247579Y-20926014D01*
X10238055Y-20906967D01*
X10219008Y-20897443D01*
X10190436Y-20897443D01*
X10171389Y-20906967D01*
X10161865Y-20916490D01*
X10371389Y-21030776D02*
X10352341Y-21021252D01*
X10342817Y-21011729D01*
X10333293Y-20992681D01*
X10333293Y-20935538D01*
X10342817Y-20916490D01*
X10352341Y-20906967D01*
X10371389Y-20897443D01*
X10399960Y-20897443D01*
X10419008Y-20906967D01*
X10428531Y-20916490D01*
X10438055Y-20935538D01*
X10438055Y-20992681D01*
X10428531Y-21011729D01*
X10419008Y-21021252D01*
X10399960Y-21030776D01*
X10371389Y-21030776D01*
X10552341Y-21030776D02*
X10533293Y-21021252D01*
X10523770Y-21002205D01*
X10523770Y-20830776D01*
X10704722Y-21021252D02*
X10685674Y-21030776D01*
X10647579Y-21030776D01*
X10628531Y-21021252D01*
X10619008Y-21002205D01*
X10619008Y-20926014D01*
X10628531Y-20906967D01*
X10647579Y-20897443D01*
X10685674Y-20897443D01*
X10704722Y-20906967D01*
X10714246Y-20926014D01*
X10714246Y-20945062D01*
X10619008Y-20964110D01*
X10790436Y-21021252D02*
X10809484Y-21030776D01*
X10847579Y-21030776D01*
X10866627Y-21021252D01*
X10876150Y-21002205D01*
X10876150Y-20992681D01*
X10866627Y-20973633D01*
X10847579Y-20964110D01*
X10819008Y-20964110D01*
X10799960Y-20954586D01*
X10790436Y-20935538D01*
X10790436Y-20926014D01*
X10799960Y-20906967D01*
X10819008Y-20897443D01*
X10847579Y-20897443D01*
X10866627Y-20906967D01*
X10942817Y-21106967D02*
X10952341Y-21097443D01*
X10971389Y-21068871D01*
X10980912Y-21049824D01*
X10990436Y-21021252D01*
X10999960Y-20973633D01*
X10999960Y-20935538D01*
X10990436Y-20887919D01*
X10980912Y-20859348D01*
X10971389Y-20840300D01*
X10952341Y-20811729D01*
X10942817Y-20802205D01*
D17*
X5689960Y-21154300D02*
X5789960Y-21254300D01*
X5789960Y-21154300D02*
X5689960Y-21254300D01*
X5789960Y-21204300D02*
G75*
G03*
X5789960Y-21204300I-50000J0D01*
G01*
D11*
X6152341Y-21294776D02*
X6038055Y-21294776D01*
X6095198Y-21294776D02*
X6095198Y-21094776D01*
X6076150Y-21123348D01*
X6057103Y-21142395D01*
X6038055Y-21151919D01*
X6238055Y-21275729D02*
X6247579Y-21285252D01*
X6238055Y-21294776D01*
X6228531Y-21285252D01*
X6238055Y-21275729D01*
X6238055Y-21294776D01*
X6371388Y-21094776D02*
X6390436Y-21094776D01*
X6409484Y-21104300D01*
X6419008Y-21113824D01*
X6428531Y-21132871D01*
X6438055Y-21170967D01*
X6438055Y-21218586D01*
X6428531Y-21256681D01*
X6419008Y-21275729D01*
X6409484Y-21285252D01*
X6390436Y-21294776D01*
X6371388Y-21294776D01*
X6352341Y-21285252D01*
X6342817Y-21275729D01*
X6333293Y-21256681D01*
X6323769Y-21218586D01*
X6323769Y-21170967D01*
X6333293Y-21132871D01*
X6342817Y-21113824D01*
X6352341Y-21104300D01*
X6371388Y-21094776D01*
X6561865Y-21094776D02*
X6580912Y-21094776D01*
X6599960Y-21104300D01*
X6609484Y-21113824D01*
X6619008Y-21132871D01*
X6628531Y-21170967D01*
X6628531Y-21218586D01*
X6619008Y-21256681D01*
X6609484Y-21275729D01*
X6599960Y-21285252D01*
X6580912Y-21294776D01*
X6561865Y-21294776D01*
X6542817Y-21285252D01*
X6533293Y-21275729D01*
X6523769Y-21256681D01*
X6514246Y-21218586D01*
X6514246Y-21170967D01*
X6523769Y-21132871D01*
X6533293Y-21113824D01*
X6542817Y-21104300D01*
X6561865Y-21094776D01*
X6752341Y-21094776D02*
X6771388Y-21094776D01*
X6790436Y-21104300D01*
X6799960Y-21113824D01*
X6809484Y-21132871D01*
X6819008Y-21170967D01*
X6819008Y-21218586D01*
X6809484Y-21256681D01*
X6799960Y-21275729D01*
X6790436Y-21285252D01*
X6771388Y-21294776D01*
X6752341Y-21294776D01*
X6733293Y-21285252D01*
X6723769Y-21275729D01*
X6714246Y-21256681D01*
X6704722Y-21218586D01*
X6704722Y-21170967D01*
X6714246Y-21132871D01*
X6723769Y-21113824D01*
X6733293Y-21104300D01*
X6752341Y-21094776D01*
X6904722Y-21294776D02*
X6904722Y-21161443D01*
X6904722Y-21180490D02*
X6914246Y-21170967D01*
X6933293Y-21161443D01*
X6961865Y-21161443D01*
X6980912Y-21170967D01*
X6990436Y-21190014D01*
X6990436Y-21294776D01*
X6990436Y-21190014D02*
X6999960Y-21170967D01*
X7019008Y-21161443D01*
X7047579Y-21161443D01*
X7066627Y-21170967D01*
X7076150Y-21190014D01*
X7076150Y-21294776D01*
X7171388Y-21294776D02*
X7171388Y-21161443D01*
X7171388Y-21180490D02*
X7180912Y-21170967D01*
X7199960Y-21161443D01*
X7228531Y-21161443D01*
X7247579Y-21170967D01*
X7257103Y-21190014D01*
X7257103Y-21294776D01*
X7257103Y-21190014D02*
X7266627Y-21170967D01*
X7285674Y-21161443D01*
X7314246Y-21161443D01*
X7333293Y-21170967D01*
X7342817Y-21190014D01*
X7342817Y-21294776D01*
X7733293Y-21085252D02*
X7561865Y-21342395D01*
X7990436Y-21094776D02*
X8009484Y-21094776D01*
X8028531Y-21104300D01*
X8038055Y-21113824D01*
X8047579Y-21132871D01*
X8057103Y-21170967D01*
X8057103Y-21218586D01*
X8047579Y-21256681D01*
X8038055Y-21275729D01*
X8028531Y-21285252D01*
X8009484Y-21294776D01*
X7990436Y-21294776D01*
X7971388Y-21285252D01*
X7961865Y-21275729D01*
X7952341Y-21256681D01*
X7942817Y-21218586D01*
X7942817Y-21170967D01*
X7952341Y-21132871D01*
X7961865Y-21113824D01*
X7971388Y-21104300D01*
X7990436Y-21094776D01*
X8142817Y-21275729D02*
X8152341Y-21285252D01*
X8142817Y-21294776D01*
X8133293Y-21285252D01*
X8142817Y-21275729D01*
X8142817Y-21294776D01*
X8276150Y-21094776D02*
X8295198Y-21094776D01*
X8314246Y-21104300D01*
X8323769Y-21113824D01*
X8333293Y-21132871D01*
X8342817Y-21170967D01*
X8342817Y-21218586D01*
X8333293Y-21256681D01*
X8323769Y-21275729D01*
X8314246Y-21285252D01*
X8295198Y-21294776D01*
X8276150Y-21294776D01*
X8257103Y-21285252D01*
X8247579Y-21275729D01*
X8238055Y-21256681D01*
X8228531Y-21218586D01*
X8228531Y-21170967D01*
X8238055Y-21132871D01*
X8247579Y-21113824D01*
X8257103Y-21104300D01*
X8276150Y-21094776D01*
X8409484Y-21094776D02*
X8533293Y-21094776D01*
X8466627Y-21170967D01*
X8495198Y-21170967D01*
X8514246Y-21180490D01*
X8523770Y-21190014D01*
X8533293Y-21209062D01*
X8533293Y-21256681D01*
X8523770Y-21275729D01*
X8514246Y-21285252D01*
X8495198Y-21294776D01*
X8438055Y-21294776D01*
X8419008Y-21285252D01*
X8409484Y-21275729D01*
X8628531Y-21294776D02*
X8666627Y-21294776D01*
X8685674Y-21285252D01*
X8695198Y-21275729D01*
X8714246Y-21247157D01*
X8723770Y-21209062D01*
X8723770Y-21132871D01*
X8714246Y-21113824D01*
X8704722Y-21104300D01*
X8685674Y-21094776D01*
X8647579Y-21094776D01*
X8628531Y-21104300D01*
X8619008Y-21113824D01*
X8609484Y-21132871D01*
X8609484Y-21180490D01*
X8619008Y-21199538D01*
X8628531Y-21209062D01*
X8647579Y-21218586D01*
X8685674Y-21218586D01*
X8704722Y-21209062D01*
X8714246Y-21199538D01*
X8723770Y-21180490D01*
X8895198Y-21161443D02*
X8895198Y-21294776D01*
X8847579Y-21085252D02*
X8799960Y-21228110D01*
X8923770Y-21228110D01*
X8990436Y-21094776D02*
X8990436Y-21132871D01*
X9066627Y-21094776D02*
X9066627Y-21132871D01*
X9361865Y-21370967D02*
X9352341Y-21361443D01*
X9333293Y-21332871D01*
X9323770Y-21313824D01*
X9314246Y-21285252D01*
X9304722Y-21237633D01*
X9304722Y-21199538D01*
X9314246Y-21151919D01*
X9323770Y-21123348D01*
X9333293Y-21104300D01*
X9352341Y-21075729D01*
X9361865Y-21066205D01*
X9542817Y-21294776D02*
X9428531Y-21294776D01*
X9485674Y-21294776D02*
X9485674Y-21094776D01*
X9466627Y-21123348D01*
X9447579Y-21142395D01*
X9428531Y-21151919D01*
X9619008Y-21113824D02*
X9628531Y-21104300D01*
X9647579Y-21094776D01*
X9695198Y-21094776D01*
X9714246Y-21104300D01*
X9723770Y-21113824D01*
X9733293Y-21132871D01*
X9733293Y-21151919D01*
X9723770Y-21180490D01*
X9609484Y-21294776D01*
X9733293Y-21294776D01*
X9971389Y-21294776D02*
X9971389Y-21094776D01*
X10057103Y-21294776D02*
X10057103Y-21190014D01*
X10047579Y-21170967D01*
X10028531Y-21161443D01*
X9999960Y-21161443D01*
X9980912Y-21170967D01*
X9971389Y-21180490D01*
X10180912Y-21294776D02*
X10161865Y-21285252D01*
X10152341Y-21275729D01*
X10142817Y-21256681D01*
X10142817Y-21199538D01*
X10152341Y-21180490D01*
X10161865Y-21170967D01*
X10180912Y-21161443D01*
X10209484Y-21161443D01*
X10228531Y-21170967D01*
X10238055Y-21180490D01*
X10247579Y-21199538D01*
X10247579Y-21256681D01*
X10238055Y-21275729D01*
X10228531Y-21285252D01*
X10209484Y-21294776D01*
X10180912Y-21294776D01*
X10361865Y-21294776D02*
X10342817Y-21285252D01*
X10333293Y-21266205D01*
X10333293Y-21094776D01*
X10514246Y-21285252D02*
X10495198Y-21294776D01*
X10457103Y-21294776D01*
X10438055Y-21285252D01*
X10428531Y-21266205D01*
X10428531Y-21190014D01*
X10438055Y-21170967D01*
X10457103Y-21161443D01*
X10495198Y-21161443D01*
X10514246Y-21170967D01*
X10523770Y-21190014D01*
X10523770Y-21209062D01*
X10428531Y-21228110D01*
X10599960Y-21285252D02*
X10619008Y-21294776D01*
X10657103Y-21294776D01*
X10676150Y-21285252D01*
X10685674Y-21266205D01*
X10685674Y-21256681D01*
X10676150Y-21237633D01*
X10657103Y-21228110D01*
X10628531Y-21228110D01*
X10609484Y-21218586D01*
X10599960Y-21199538D01*
X10599960Y-21190014D01*
X10609484Y-21170967D01*
X10628531Y-21161443D01*
X10657103Y-21161443D01*
X10676150Y-21170967D01*
X10752341Y-21370967D02*
X10761865Y-21361443D01*
X10780912Y-21332871D01*
X10790436Y-21313824D01*
X10799960Y-21285252D01*
X10809484Y-21237633D01*
X10809484Y-21199538D01*
X10799960Y-21151919D01*
X10790436Y-21123348D01*
X10780912Y-21104300D01*
X10761865Y-21075729D01*
X10752341Y-21066205D01*
D18*
X5680740Y-21413690D02*
X5789960Y-21522910D01*
X5789960Y-21413690D02*
X5680740Y-21522910D01*
X5735350Y-21413690D02*
X5735350Y-21522910D01*
X5680740Y-21468300D02*
X5789960Y-21468300D01*
D11*
X6152341Y-21558776D02*
X6038055Y-21558776D01*
X6095198Y-21558776D02*
X6095198Y-21358776D01*
X6076150Y-21387348D01*
X6057103Y-21406395D01*
X6038055Y-21415919D01*
X6238055Y-21539729D02*
X6247579Y-21549252D01*
X6238055Y-21558776D01*
X6228531Y-21549252D01*
X6238055Y-21539729D01*
X6238055Y-21558776D01*
X6371388Y-21358776D02*
X6390436Y-21358776D01*
X6409484Y-21368300D01*
X6419008Y-21377824D01*
X6428531Y-21396871D01*
X6438055Y-21434967D01*
X6438055Y-21482586D01*
X6428531Y-21520681D01*
X6419008Y-21539729D01*
X6409484Y-21549252D01*
X6390436Y-21558776D01*
X6371388Y-21558776D01*
X6352341Y-21549252D01*
X6342817Y-21539729D01*
X6333293Y-21520681D01*
X6323769Y-21482586D01*
X6323769Y-21434967D01*
X6333293Y-21396871D01*
X6342817Y-21377824D01*
X6352341Y-21368300D01*
X6371388Y-21358776D01*
X6533293Y-21558776D02*
X6571388Y-21558776D01*
X6590436Y-21549252D01*
X6599960Y-21539729D01*
X6619008Y-21511157D01*
X6628531Y-21473062D01*
X6628531Y-21396871D01*
X6619008Y-21377824D01*
X6609484Y-21368300D01*
X6590436Y-21358776D01*
X6552341Y-21358776D01*
X6533293Y-21368300D01*
X6523769Y-21377824D01*
X6514246Y-21396871D01*
X6514246Y-21444490D01*
X6523769Y-21463538D01*
X6533293Y-21473062D01*
X6552341Y-21482586D01*
X6590436Y-21482586D01*
X6609484Y-21473062D01*
X6619008Y-21463538D01*
X6628531Y-21444490D01*
X6704722Y-21377824D02*
X6714246Y-21368300D01*
X6733293Y-21358776D01*
X6780912Y-21358776D01*
X6799960Y-21368300D01*
X6809484Y-21377824D01*
X6819008Y-21396871D01*
X6819008Y-21415919D01*
X6809484Y-21444490D01*
X6695198Y-21558776D01*
X6819008Y-21558776D01*
X6904722Y-21558776D02*
X6904722Y-21425443D01*
X6904722Y-21444490D02*
X6914246Y-21434967D01*
X6933293Y-21425443D01*
X6961865Y-21425443D01*
X6980912Y-21434967D01*
X6990436Y-21454014D01*
X6990436Y-21558776D01*
X6990436Y-21454014D02*
X6999960Y-21434967D01*
X7019008Y-21425443D01*
X7047579Y-21425443D01*
X7066627Y-21434967D01*
X7076150Y-21454014D01*
X7076150Y-21558776D01*
X7171388Y-21558776D02*
X7171388Y-21425443D01*
X7171388Y-21444490D02*
X7180912Y-21434967D01*
X7199960Y-21425443D01*
X7228531Y-21425443D01*
X7247579Y-21434967D01*
X7257103Y-21454014D01*
X7257103Y-21558776D01*
X7257103Y-21454014D02*
X7266627Y-21434967D01*
X7285674Y-21425443D01*
X7314246Y-21425443D01*
X7333293Y-21434967D01*
X7342817Y-21454014D01*
X7342817Y-21558776D01*
X7733293Y-21349252D02*
X7561865Y-21606395D01*
X7990436Y-21358776D02*
X8009484Y-21358776D01*
X8028531Y-21368300D01*
X8038055Y-21377824D01*
X8047579Y-21396871D01*
X8057103Y-21434967D01*
X8057103Y-21482586D01*
X8047579Y-21520681D01*
X8038055Y-21539729D01*
X8028531Y-21549252D01*
X8009484Y-21558776D01*
X7990436Y-21558776D01*
X7971388Y-21549252D01*
X7961865Y-21539729D01*
X7952341Y-21520681D01*
X7942817Y-21482586D01*
X7942817Y-21434967D01*
X7952341Y-21396871D01*
X7961865Y-21377824D01*
X7971388Y-21368300D01*
X7990436Y-21358776D01*
X8142817Y-21539729D02*
X8152341Y-21549252D01*
X8142817Y-21558776D01*
X8133293Y-21549252D01*
X8142817Y-21539729D01*
X8142817Y-21558776D01*
X8276150Y-21358776D02*
X8295198Y-21358776D01*
X8314246Y-21368300D01*
X8323769Y-21377824D01*
X8333293Y-21396871D01*
X8342817Y-21434967D01*
X8342817Y-21482586D01*
X8333293Y-21520681D01*
X8323769Y-21539729D01*
X8314246Y-21549252D01*
X8295198Y-21558776D01*
X8276150Y-21558776D01*
X8257103Y-21549252D01*
X8247579Y-21539729D01*
X8238055Y-21520681D01*
X8228531Y-21482586D01*
X8228531Y-21434967D01*
X8238055Y-21396871D01*
X8247579Y-21377824D01*
X8257103Y-21368300D01*
X8276150Y-21358776D01*
X8514246Y-21425443D02*
X8514246Y-21558776D01*
X8466627Y-21349252D02*
X8419008Y-21492110D01*
X8542817Y-21492110D01*
X8599960Y-21358776D02*
X8723770Y-21358776D01*
X8657103Y-21434967D01*
X8685674Y-21434967D01*
X8704722Y-21444490D01*
X8714246Y-21454014D01*
X8723770Y-21473062D01*
X8723770Y-21520681D01*
X8714246Y-21539729D01*
X8704722Y-21549252D01*
X8685674Y-21558776D01*
X8628531Y-21558776D01*
X8609484Y-21549252D01*
X8599960Y-21539729D01*
X8847579Y-21358776D02*
X8866627Y-21358776D01*
X8885674Y-21368300D01*
X8895198Y-21377824D01*
X8904722Y-21396871D01*
X8914246Y-21434967D01*
X8914246Y-21482586D01*
X8904722Y-21520681D01*
X8895198Y-21539729D01*
X8885674Y-21549252D01*
X8866627Y-21558776D01*
X8847579Y-21558776D01*
X8828531Y-21549252D01*
X8819008Y-21539729D01*
X8809484Y-21520681D01*
X8799960Y-21482586D01*
X8799960Y-21434967D01*
X8809484Y-21396871D01*
X8819008Y-21377824D01*
X8828531Y-21368300D01*
X8847579Y-21358776D01*
X8990436Y-21358776D02*
X8990436Y-21396871D01*
X9066627Y-21358776D02*
X9066627Y-21396871D01*
X9361865Y-21634967D02*
X9352341Y-21625443D01*
X9333293Y-21596871D01*
X9323770Y-21577824D01*
X9314246Y-21549252D01*
X9304722Y-21501633D01*
X9304722Y-21463538D01*
X9314246Y-21415919D01*
X9323770Y-21387348D01*
X9333293Y-21368300D01*
X9352341Y-21339729D01*
X9361865Y-21330205D01*
X9428531Y-21377824D02*
X9438055Y-21368300D01*
X9457103Y-21358776D01*
X9504722Y-21358776D01*
X9523770Y-21368300D01*
X9533293Y-21377824D01*
X9542817Y-21396871D01*
X9542817Y-21415919D01*
X9533293Y-21444490D01*
X9419008Y-21558776D01*
X9542817Y-21558776D01*
X9638055Y-21558776D02*
X9676150Y-21558776D01*
X9695198Y-21549252D01*
X9704722Y-21539729D01*
X9723770Y-21511157D01*
X9733293Y-21473062D01*
X9733293Y-21396871D01*
X9723770Y-21377824D01*
X9714246Y-21368300D01*
X9695198Y-21358776D01*
X9657103Y-21358776D01*
X9638055Y-21368300D01*
X9628531Y-21377824D01*
X9619008Y-21396871D01*
X9619008Y-21444490D01*
X9628531Y-21463538D01*
X9638055Y-21473062D01*
X9657103Y-21482586D01*
X9695198Y-21482586D01*
X9714246Y-21473062D01*
X9723770Y-21463538D01*
X9733293Y-21444490D01*
X9971389Y-21558776D02*
X9971389Y-21358776D01*
X10057103Y-21558776D02*
X10057103Y-21454014D01*
X10047579Y-21434967D01*
X10028531Y-21425443D01*
X9999960Y-21425443D01*
X9980912Y-21434967D01*
X9971389Y-21444490D01*
X10180912Y-21558776D02*
X10161865Y-21549252D01*
X10152341Y-21539729D01*
X10142817Y-21520681D01*
X10142817Y-21463538D01*
X10152341Y-21444490D01*
X10161865Y-21434967D01*
X10180912Y-21425443D01*
X10209484Y-21425443D01*
X10228531Y-21434967D01*
X10238055Y-21444490D01*
X10247579Y-21463538D01*
X10247579Y-21520681D01*
X10238055Y-21539729D01*
X10228531Y-21549252D01*
X10209484Y-21558776D01*
X10180912Y-21558776D01*
X10361865Y-21558776D02*
X10342817Y-21549252D01*
X10333293Y-21530205D01*
X10333293Y-21358776D01*
X10514246Y-21549252D02*
X10495198Y-21558776D01*
X10457103Y-21558776D01*
X10438055Y-21549252D01*
X10428531Y-21530205D01*
X10428531Y-21454014D01*
X10438055Y-21434967D01*
X10457103Y-21425443D01*
X10495198Y-21425443D01*
X10514246Y-21434967D01*
X10523770Y-21454014D01*
X10523770Y-21473062D01*
X10428531Y-21492110D01*
X10599960Y-21549252D02*
X10619008Y-21558776D01*
X10657103Y-21558776D01*
X10676150Y-21549252D01*
X10685674Y-21530205D01*
X10685674Y-21520681D01*
X10676150Y-21501633D01*
X10657103Y-21492110D01*
X10628531Y-21492110D01*
X10609484Y-21482586D01*
X10599960Y-21463538D01*
X10599960Y-21454014D01*
X10609484Y-21434967D01*
X10628531Y-21425443D01*
X10657103Y-21425443D01*
X10676150Y-21434967D01*
X10752341Y-21634967D02*
X10761865Y-21625443D01*
X10780912Y-21596871D01*
X10790436Y-21577824D01*
X10799960Y-21549252D01*
X10809484Y-21501633D01*
X10809484Y-21463538D01*
X10799960Y-21415919D01*
X10790436Y-21387348D01*
X10780912Y-21368300D01*
X10761865Y-21339729D01*
X10752341Y-21330205D01*
D19*
X5669960Y-21672300D02*
X5789960Y-21792300D01*
X5789960Y-21672300D02*
X5669960Y-21792300D01*
X5772387Y-21774727D02*
X5772387Y-21689873D01*
X5687533Y-21689873D01*
X5687533Y-21774727D01*
X5772387Y-21774727D01*
D11*
X6152341Y-21822776D02*
X6038055Y-21822776D01*
X6095198Y-21822776D02*
X6095198Y-21622776D01*
X6076150Y-21651348D01*
X6057103Y-21670395D01*
X6038055Y-21679919D01*
X6238055Y-21803729D02*
X6247579Y-21813252D01*
X6238055Y-21822776D01*
X6228531Y-21813252D01*
X6238055Y-21803729D01*
X6238055Y-21822776D01*
X6323769Y-21641824D02*
X6333293Y-21632300D01*
X6352341Y-21622776D01*
X6399960Y-21622776D01*
X6419008Y-21632300D01*
X6428531Y-21641824D01*
X6438055Y-21660871D01*
X6438055Y-21679919D01*
X6428531Y-21708490D01*
X6314246Y-21822776D01*
X6438055Y-21822776D01*
X6561865Y-21622776D02*
X6580912Y-21622776D01*
X6599960Y-21632300D01*
X6609484Y-21641824D01*
X6619008Y-21660871D01*
X6628531Y-21698967D01*
X6628531Y-21746586D01*
X6619008Y-21784681D01*
X6609484Y-21803729D01*
X6599960Y-21813252D01*
X6580912Y-21822776D01*
X6561865Y-21822776D01*
X6542817Y-21813252D01*
X6533293Y-21803729D01*
X6523769Y-21784681D01*
X6514246Y-21746586D01*
X6514246Y-21698967D01*
X6523769Y-21660871D01*
X6533293Y-21641824D01*
X6542817Y-21632300D01*
X6561865Y-21622776D01*
X6752341Y-21622776D02*
X6771388Y-21622776D01*
X6790436Y-21632300D01*
X6799960Y-21641824D01*
X6809484Y-21660871D01*
X6819008Y-21698967D01*
X6819008Y-21746586D01*
X6809484Y-21784681D01*
X6799960Y-21803729D01*
X6790436Y-21813252D01*
X6771388Y-21822776D01*
X6752341Y-21822776D01*
X6733293Y-21813252D01*
X6723769Y-21803729D01*
X6714246Y-21784681D01*
X6704722Y-21746586D01*
X6704722Y-21698967D01*
X6714246Y-21660871D01*
X6723769Y-21641824D01*
X6733293Y-21632300D01*
X6752341Y-21622776D01*
X6904722Y-21822776D02*
X6904722Y-21689443D01*
X6904722Y-21708490D02*
X6914246Y-21698967D01*
X6933293Y-21689443D01*
X6961865Y-21689443D01*
X6980912Y-21698967D01*
X6990436Y-21718014D01*
X6990436Y-21822776D01*
X6990436Y-21718014D02*
X6999960Y-21698967D01*
X7019008Y-21689443D01*
X7047579Y-21689443D01*
X7066627Y-21698967D01*
X7076150Y-21718014D01*
X7076150Y-21822776D01*
X7171388Y-21822776D02*
X7171388Y-21689443D01*
X7171388Y-21708490D02*
X7180912Y-21698967D01*
X7199960Y-21689443D01*
X7228531Y-21689443D01*
X7247579Y-21698967D01*
X7257103Y-21718014D01*
X7257103Y-21822776D01*
X7257103Y-21718014D02*
X7266627Y-21698967D01*
X7285674Y-21689443D01*
X7314246Y-21689443D01*
X7333293Y-21698967D01*
X7342817Y-21718014D01*
X7342817Y-21822776D01*
X7733293Y-21613252D02*
X7561865Y-21870395D01*
X7990436Y-21622776D02*
X8009484Y-21622776D01*
X8028531Y-21632300D01*
X8038055Y-21641824D01*
X8047579Y-21660871D01*
X8057103Y-21698967D01*
X8057103Y-21746586D01*
X8047579Y-21784681D01*
X8038055Y-21803729D01*
X8028531Y-21813252D01*
X8009484Y-21822776D01*
X7990436Y-21822776D01*
X7971388Y-21813252D01*
X7961865Y-21803729D01*
X7952341Y-21784681D01*
X7942817Y-21746586D01*
X7942817Y-21698967D01*
X7952341Y-21660871D01*
X7961865Y-21641824D01*
X7971388Y-21632300D01*
X7990436Y-21622776D01*
X8142817Y-21803729D02*
X8152341Y-21813252D01*
X8142817Y-21822776D01*
X8133293Y-21813252D01*
X8142817Y-21803729D01*
X8142817Y-21822776D01*
X8276150Y-21622776D02*
X8295198Y-21622776D01*
X8314246Y-21632300D01*
X8323769Y-21641824D01*
X8333293Y-21660871D01*
X8342817Y-21698967D01*
X8342817Y-21746586D01*
X8333293Y-21784681D01*
X8323769Y-21803729D01*
X8314246Y-21813252D01*
X8295198Y-21822776D01*
X8276150Y-21822776D01*
X8257103Y-21813252D01*
X8247579Y-21803729D01*
X8238055Y-21784681D01*
X8228531Y-21746586D01*
X8228531Y-21698967D01*
X8238055Y-21660871D01*
X8247579Y-21641824D01*
X8257103Y-21632300D01*
X8276150Y-21622776D01*
X8514246Y-21689443D02*
X8514246Y-21822776D01*
X8466627Y-21613252D02*
X8419008Y-21756110D01*
X8542817Y-21756110D01*
X8599960Y-21622776D02*
X8733293Y-21622776D01*
X8647579Y-21822776D01*
X8799960Y-21641824D02*
X8809484Y-21632300D01*
X8828531Y-21622776D01*
X8876150Y-21622776D01*
X8895198Y-21632300D01*
X8904722Y-21641824D01*
X8914246Y-21660871D01*
X8914246Y-21679919D01*
X8904722Y-21708490D01*
X8790436Y-21822776D01*
X8914246Y-21822776D01*
X8990436Y-21622776D02*
X8990436Y-21660871D01*
X9066627Y-21622776D02*
X9066627Y-21660871D01*
X9361865Y-21898967D02*
X9352341Y-21889443D01*
X9333293Y-21860871D01*
X9323770Y-21841824D01*
X9314246Y-21813252D01*
X9304722Y-21765633D01*
X9304722Y-21727538D01*
X9314246Y-21679919D01*
X9323770Y-21651348D01*
X9333293Y-21632300D01*
X9352341Y-21603729D01*
X9361865Y-21594205D01*
X9542817Y-21822776D02*
X9428531Y-21822776D01*
X9485674Y-21822776D02*
X9485674Y-21622776D01*
X9466627Y-21651348D01*
X9447579Y-21670395D01*
X9428531Y-21679919D01*
X9733293Y-21822776D02*
X9619008Y-21822776D01*
X9676150Y-21822776D02*
X9676150Y-21622776D01*
X9657103Y-21651348D01*
X9638055Y-21670395D01*
X9619008Y-21679919D01*
X9904722Y-21622776D02*
X9866627Y-21622776D01*
X9847579Y-21632300D01*
X9838055Y-21641824D01*
X9819008Y-21670395D01*
X9809484Y-21708490D01*
X9809484Y-21784681D01*
X9819008Y-21803729D01*
X9828531Y-21813252D01*
X9847579Y-21822776D01*
X9885674Y-21822776D01*
X9904722Y-21813252D01*
X9914246Y-21803729D01*
X9923770Y-21784681D01*
X9923770Y-21737062D01*
X9914246Y-21718014D01*
X9904722Y-21708490D01*
X9885674Y-21698967D01*
X9847579Y-21698967D01*
X9828531Y-21708490D01*
X9819008Y-21718014D01*
X9809484Y-21737062D01*
X10161865Y-21822776D02*
X10161865Y-21622776D01*
X10247579Y-21822776D02*
X10247579Y-21718014D01*
X10238055Y-21698967D01*
X10219008Y-21689443D01*
X10190436Y-21689443D01*
X10171389Y-21698967D01*
X10161865Y-21708490D01*
X10371389Y-21822776D02*
X10352341Y-21813252D01*
X10342817Y-21803729D01*
X10333293Y-21784681D01*
X10333293Y-21727538D01*
X10342817Y-21708490D01*
X10352341Y-21698967D01*
X10371389Y-21689443D01*
X10399960Y-21689443D01*
X10419008Y-21698967D01*
X10428531Y-21708490D01*
X10438055Y-21727538D01*
X10438055Y-21784681D01*
X10428531Y-21803729D01*
X10419008Y-21813252D01*
X10399960Y-21822776D01*
X10371389Y-21822776D01*
X10552341Y-21822776D02*
X10533293Y-21813252D01*
X10523770Y-21794205D01*
X10523770Y-21622776D01*
X10704722Y-21813252D02*
X10685674Y-21822776D01*
X10647579Y-21822776D01*
X10628531Y-21813252D01*
X10619008Y-21794205D01*
X10619008Y-21718014D01*
X10628531Y-21698967D01*
X10647579Y-21689443D01*
X10685674Y-21689443D01*
X10704722Y-21698967D01*
X10714246Y-21718014D01*
X10714246Y-21737062D01*
X10619008Y-21756110D01*
X10790436Y-21813252D02*
X10809484Y-21822776D01*
X10847579Y-21822776D01*
X10866627Y-21813252D01*
X10876150Y-21794205D01*
X10876150Y-21784681D01*
X10866627Y-21765633D01*
X10847579Y-21756110D01*
X10819008Y-21756110D01*
X10799960Y-21746586D01*
X10790436Y-21727538D01*
X10790436Y-21718014D01*
X10799960Y-21698967D01*
X10819008Y-21689443D01*
X10847579Y-21689443D01*
X10866627Y-21698967D01*
X10942817Y-21898967D02*
X10952341Y-21889443D01*
X10971389Y-21860871D01*
X10980912Y-21841824D01*
X10990436Y-21813252D01*
X10999960Y-21765633D01*
X10999960Y-21727538D01*
X10990436Y-21679919D01*
X10980912Y-21651348D01*
X10971389Y-21632300D01*
X10952341Y-21603729D01*
X10942817Y-21594205D01*
D20*
X5642960Y-21922800D02*
X5789960Y-22069800D01*
X5789960Y-21922800D02*
X5642960Y-22069800D01*
X5716460Y-22069800D02*
X5789960Y-21996300D01*
X5716460Y-21922800D01*
X5642960Y-21996300D01*
X5716460Y-22069800D01*
D11*
X6152341Y-22086776D02*
X6038055Y-22086776D01*
X6095198Y-22086776D02*
X6095198Y-21886776D01*
X6076150Y-21915348D01*
X6057103Y-21934395D01*
X6038055Y-21943919D01*
X6238055Y-22067729D02*
X6247579Y-22077252D01*
X6238055Y-22086776D01*
X6228531Y-22077252D01*
X6238055Y-22067729D01*
X6238055Y-22086776D01*
X6419008Y-21953443D02*
X6419008Y-22086776D01*
X6371388Y-21877252D02*
X6323769Y-22020110D01*
X6447579Y-22020110D01*
X6504722Y-21886776D02*
X6638055Y-21886776D01*
X6552341Y-22086776D01*
X6752341Y-21886776D02*
X6771388Y-21886776D01*
X6790436Y-21896300D01*
X6799960Y-21905824D01*
X6809484Y-21924871D01*
X6819008Y-21962967D01*
X6819008Y-22010586D01*
X6809484Y-22048681D01*
X6799960Y-22067729D01*
X6790436Y-22077252D01*
X6771388Y-22086776D01*
X6752341Y-22086776D01*
X6733293Y-22077252D01*
X6723769Y-22067729D01*
X6714246Y-22048681D01*
X6704722Y-22010586D01*
X6704722Y-21962967D01*
X6714246Y-21924871D01*
X6723769Y-21905824D01*
X6733293Y-21896300D01*
X6752341Y-21886776D01*
X6904722Y-22086776D02*
X6904722Y-21953443D01*
X6904722Y-21972490D02*
X6914246Y-21962967D01*
X6933293Y-21953443D01*
X6961865Y-21953443D01*
X6980912Y-21962967D01*
X6990436Y-21982014D01*
X6990436Y-22086776D01*
X6990436Y-21982014D02*
X6999960Y-21962967D01*
X7019008Y-21953443D01*
X7047579Y-21953443D01*
X7066627Y-21962967D01*
X7076150Y-21982014D01*
X7076150Y-22086776D01*
X7171388Y-22086776D02*
X7171388Y-21953443D01*
X7171388Y-21972490D02*
X7180912Y-21962967D01*
X7199960Y-21953443D01*
X7228531Y-21953443D01*
X7247579Y-21962967D01*
X7257103Y-21982014D01*
X7257103Y-22086776D01*
X7257103Y-21982014D02*
X7266627Y-21962967D01*
X7285674Y-21953443D01*
X7314246Y-21953443D01*
X7333293Y-21962967D01*
X7342817Y-21982014D01*
X7342817Y-22086776D01*
X7733293Y-21877252D02*
X7561865Y-22134395D01*
X7990436Y-21886776D02*
X8009484Y-21886776D01*
X8028531Y-21896300D01*
X8038055Y-21905824D01*
X8047579Y-21924871D01*
X8057103Y-21962967D01*
X8057103Y-22010586D01*
X8047579Y-22048681D01*
X8038055Y-22067729D01*
X8028531Y-22077252D01*
X8009484Y-22086776D01*
X7990436Y-22086776D01*
X7971388Y-22077252D01*
X7961865Y-22067729D01*
X7952341Y-22048681D01*
X7942817Y-22010586D01*
X7942817Y-21962967D01*
X7952341Y-21924871D01*
X7961865Y-21905824D01*
X7971388Y-21896300D01*
X7990436Y-21886776D01*
X8142817Y-22067729D02*
X8152341Y-22077252D01*
X8142817Y-22086776D01*
X8133293Y-22077252D01*
X8142817Y-22067729D01*
X8142817Y-22086776D01*
X8276150Y-21886776D02*
X8295198Y-21886776D01*
X8314246Y-21896300D01*
X8323769Y-21905824D01*
X8333293Y-21924871D01*
X8342817Y-21962967D01*
X8342817Y-22010586D01*
X8333293Y-22048681D01*
X8323769Y-22067729D01*
X8314246Y-22077252D01*
X8295198Y-22086776D01*
X8276150Y-22086776D01*
X8257103Y-22077252D01*
X8247579Y-22067729D01*
X8238055Y-22048681D01*
X8228531Y-22010586D01*
X8228531Y-21962967D01*
X8238055Y-21924871D01*
X8247579Y-21905824D01*
X8257103Y-21896300D01*
X8276150Y-21886776D01*
X8523770Y-21886776D02*
X8428531Y-21886776D01*
X8419008Y-21982014D01*
X8428531Y-21972490D01*
X8447579Y-21962967D01*
X8495198Y-21962967D01*
X8514246Y-21972490D01*
X8523770Y-21982014D01*
X8533293Y-22001062D01*
X8533293Y-22048681D01*
X8523770Y-22067729D01*
X8514246Y-22077252D01*
X8495198Y-22086776D01*
X8447579Y-22086776D01*
X8428531Y-22077252D01*
X8419008Y-22067729D01*
X8599960Y-21886776D02*
X8733293Y-21886776D01*
X8647579Y-22086776D01*
X8819008Y-22086776D02*
X8857103Y-22086776D01*
X8876150Y-22077252D01*
X8885674Y-22067729D01*
X8904722Y-22039157D01*
X8914246Y-22001062D01*
X8914246Y-21924871D01*
X8904722Y-21905824D01*
X8895198Y-21896300D01*
X8876150Y-21886776D01*
X8838055Y-21886776D01*
X8819008Y-21896300D01*
X8809484Y-21905824D01*
X8799960Y-21924871D01*
X8799960Y-21972490D01*
X8809484Y-21991538D01*
X8819008Y-22001062D01*
X8838055Y-22010586D01*
X8876150Y-22010586D01*
X8895198Y-22001062D01*
X8904722Y-21991538D01*
X8914246Y-21972490D01*
X8990436Y-21886776D02*
X8990436Y-21924871D01*
X9066627Y-21886776D02*
X9066627Y-21924871D01*
X9361865Y-22162967D02*
X9352341Y-22153443D01*
X9333293Y-22124871D01*
X9323770Y-22105824D01*
X9314246Y-22077252D01*
X9304722Y-22029633D01*
X9304722Y-21991538D01*
X9314246Y-21943919D01*
X9323770Y-21915348D01*
X9333293Y-21896300D01*
X9352341Y-21867729D01*
X9361865Y-21858205D01*
X9428531Y-21905824D02*
X9438055Y-21896300D01*
X9457103Y-21886776D01*
X9504722Y-21886776D01*
X9523770Y-21896300D01*
X9533293Y-21905824D01*
X9542817Y-21924871D01*
X9542817Y-21943919D01*
X9533293Y-21972490D01*
X9419008Y-22086776D01*
X9542817Y-22086776D01*
X9609484Y-21886776D02*
X9733293Y-21886776D01*
X9666627Y-21962967D01*
X9695198Y-21962967D01*
X9714246Y-21972490D01*
X9723770Y-21982014D01*
X9733293Y-22001062D01*
X9733293Y-22048681D01*
X9723770Y-22067729D01*
X9714246Y-22077252D01*
X9695198Y-22086776D01*
X9638055Y-22086776D01*
X9619008Y-22077252D01*
X9609484Y-22067729D01*
X9809484Y-21905824D02*
X9819008Y-21896300D01*
X9838055Y-21886776D01*
X9885674Y-21886776D01*
X9904722Y-21896300D01*
X9914246Y-21905824D01*
X9923770Y-21924871D01*
X9923770Y-21943919D01*
X9914246Y-21972490D01*
X9799960Y-22086776D01*
X9923770Y-22086776D01*
X10161865Y-22086776D02*
X10161865Y-21886776D01*
X10247579Y-22086776D02*
X10247579Y-21982014D01*
X10238055Y-21962967D01*
X10219008Y-21953443D01*
X10190436Y-21953443D01*
X10171389Y-21962967D01*
X10161865Y-21972490D01*
X10371389Y-22086776D02*
X10352341Y-22077252D01*
X10342817Y-22067729D01*
X10333293Y-22048681D01*
X10333293Y-21991538D01*
X10342817Y-21972490D01*
X10352341Y-21962967D01*
X10371389Y-21953443D01*
X10399960Y-21953443D01*
X10419008Y-21962967D01*
X10428531Y-21972490D01*
X10438055Y-21991538D01*
X10438055Y-22048681D01*
X10428531Y-22067729D01*
X10419008Y-22077252D01*
X10399960Y-22086776D01*
X10371389Y-22086776D01*
X10552341Y-22086776D02*
X10533293Y-22077252D01*
X10523770Y-22058205D01*
X10523770Y-21886776D01*
X10704722Y-22077252D02*
X10685674Y-22086776D01*
X10647579Y-22086776D01*
X10628531Y-22077252D01*
X10619008Y-22058205D01*
X10619008Y-21982014D01*
X10628531Y-21962967D01*
X10647579Y-21953443D01*
X10685674Y-21953443D01*
X10704722Y-21962967D01*
X10714246Y-21982014D01*
X10714246Y-22001062D01*
X10619008Y-22020110D01*
X10790436Y-22077252D02*
X10809484Y-22086776D01*
X10847579Y-22086776D01*
X10866627Y-22077252D01*
X10876150Y-22058205D01*
X10876150Y-22048681D01*
X10866627Y-22029633D01*
X10847579Y-22020110D01*
X10819008Y-22020110D01*
X10799960Y-22010586D01*
X10790436Y-21991538D01*
X10790436Y-21982014D01*
X10799960Y-21962967D01*
X10819008Y-21953443D01*
X10847579Y-21953443D01*
X10866627Y-21962967D01*
X10942817Y-22162967D02*
X10952341Y-22153443D01*
X10971389Y-22124871D01*
X10980912Y-22105824D01*
X10990436Y-22077252D01*
X10999960Y-22029633D01*
X10999960Y-21991538D01*
X10990436Y-21943919D01*
X10980912Y-21915348D01*
X10971389Y-21896300D01*
X10952341Y-21867729D01*
X10942817Y-21858205D01*
X5689960Y-22163300D02*
X5689960Y-22363300D01*
X5589960Y-22263300D02*
X5789960Y-22263300D01*
X5789960Y-22263300D02*
G75*
G03*
X5789960Y-22263300I-100000J0D01*
G01*
X6028531Y-22153776D02*
X6152341Y-22153776D01*
X6085674Y-22229967D01*
X6114246Y-22229967D01*
X6133293Y-22239490D01*
X6142817Y-22249014D01*
X6152341Y-22268062D01*
X6152341Y-22315681D01*
X6142817Y-22334729D01*
X6133293Y-22344252D01*
X6114246Y-22353776D01*
X6057103Y-22353776D01*
X6038055Y-22344252D01*
X6028531Y-22334729D01*
X6238055Y-22334729D02*
X6247579Y-22344252D01*
X6238055Y-22353776D01*
X6228531Y-22344252D01*
X6238055Y-22334729D01*
X6238055Y-22353776D01*
X6323769Y-22172824D02*
X6333293Y-22163300D01*
X6352341Y-22153776D01*
X6399960Y-22153776D01*
X6419008Y-22163300D01*
X6428531Y-22172824D01*
X6438055Y-22191871D01*
X6438055Y-22210919D01*
X6428531Y-22239490D01*
X6314246Y-22353776D01*
X6438055Y-22353776D01*
X6561865Y-22153776D02*
X6580912Y-22153776D01*
X6599960Y-22163300D01*
X6609484Y-22172824D01*
X6619008Y-22191871D01*
X6628531Y-22229967D01*
X6628531Y-22277586D01*
X6619008Y-22315681D01*
X6609484Y-22334729D01*
X6599960Y-22344252D01*
X6580912Y-22353776D01*
X6561865Y-22353776D01*
X6542817Y-22344252D01*
X6533293Y-22334729D01*
X6523769Y-22315681D01*
X6514246Y-22277586D01*
X6514246Y-22229967D01*
X6523769Y-22191871D01*
X6533293Y-22172824D01*
X6542817Y-22163300D01*
X6561865Y-22153776D01*
X6752341Y-22153776D02*
X6771388Y-22153776D01*
X6790436Y-22163300D01*
X6799960Y-22172824D01*
X6809484Y-22191871D01*
X6819008Y-22229967D01*
X6819008Y-22277586D01*
X6809484Y-22315681D01*
X6799960Y-22334729D01*
X6790436Y-22344252D01*
X6771388Y-22353776D01*
X6752341Y-22353776D01*
X6733293Y-22344252D01*
X6723769Y-22334729D01*
X6714246Y-22315681D01*
X6704722Y-22277586D01*
X6704722Y-22229967D01*
X6714246Y-22191871D01*
X6723769Y-22172824D01*
X6733293Y-22163300D01*
X6752341Y-22153776D01*
X6904722Y-22353776D02*
X6904722Y-22220443D01*
X6904722Y-22239490D02*
X6914246Y-22229967D01*
X6933293Y-22220443D01*
X6961865Y-22220443D01*
X6980912Y-22229967D01*
X6990436Y-22249014D01*
X6990436Y-22353776D01*
X6990436Y-22249014D02*
X6999960Y-22229967D01*
X7019008Y-22220443D01*
X7047579Y-22220443D01*
X7066627Y-22229967D01*
X7076150Y-22249014D01*
X7076150Y-22353776D01*
X7171388Y-22353776D02*
X7171388Y-22220443D01*
X7171388Y-22239490D02*
X7180912Y-22229967D01*
X7199960Y-22220443D01*
X7228531Y-22220443D01*
X7247579Y-22229967D01*
X7257103Y-22249014D01*
X7257103Y-22353776D01*
X7257103Y-22249014D02*
X7266627Y-22229967D01*
X7285674Y-22220443D01*
X7314246Y-22220443D01*
X7333293Y-22229967D01*
X7342817Y-22249014D01*
X7342817Y-22353776D01*
X7733293Y-22144252D02*
X7561865Y-22401395D01*
X7990436Y-22153776D02*
X8009484Y-22153776D01*
X8028531Y-22163300D01*
X8038055Y-22172824D01*
X8047579Y-22191871D01*
X8057103Y-22229967D01*
X8057103Y-22277586D01*
X8047579Y-22315681D01*
X8038055Y-22334729D01*
X8028531Y-22344252D01*
X8009484Y-22353776D01*
X7990436Y-22353776D01*
X7971388Y-22344252D01*
X7961865Y-22334729D01*
X7952341Y-22315681D01*
X7942817Y-22277586D01*
X7942817Y-22229967D01*
X7952341Y-22191871D01*
X7961865Y-22172824D01*
X7971388Y-22163300D01*
X7990436Y-22153776D01*
X8142817Y-22334729D02*
X8152341Y-22344252D01*
X8142817Y-22353776D01*
X8133293Y-22344252D01*
X8142817Y-22334729D01*
X8142817Y-22353776D01*
X8342817Y-22353776D02*
X8228531Y-22353776D01*
X8285674Y-22353776D02*
X8285674Y-22153776D01*
X8266627Y-22182348D01*
X8247579Y-22201395D01*
X8228531Y-22210919D01*
X8419008Y-22172824D02*
X8428531Y-22163300D01*
X8447579Y-22153776D01*
X8495198Y-22153776D01*
X8514246Y-22163300D01*
X8523770Y-22172824D01*
X8533293Y-22191871D01*
X8533293Y-22210919D01*
X8523770Y-22239490D01*
X8409484Y-22353776D01*
X8533293Y-22353776D01*
X8704722Y-22153776D02*
X8666627Y-22153776D01*
X8647579Y-22163300D01*
X8638055Y-22172824D01*
X8619008Y-22201395D01*
X8609484Y-22239490D01*
X8609484Y-22315681D01*
X8619008Y-22334729D01*
X8628531Y-22344252D01*
X8647579Y-22353776D01*
X8685674Y-22353776D01*
X8704722Y-22344252D01*
X8714246Y-22334729D01*
X8723770Y-22315681D01*
X8723770Y-22268062D01*
X8714246Y-22249014D01*
X8704722Y-22239490D01*
X8685674Y-22229967D01*
X8647579Y-22229967D01*
X8628531Y-22239490D01*
X8619008Y-22249014D01*
X8609484Y-22268062D01*
X8847579Y-22153776D02*
X8866627Y-22153776D01*
X8885674Y-22163300D01*
X8895198Y-22172824D01*
X8904722Y-22191871D01*
X8914246Y-22229967D01*
X8914246Y-22277586D01*
X8904722Y-22315681D01*
X8895198Y-22334729D01*
X8885674Y-22344252D01*
X8866627Y-22353776D01*
X8847579Y-22353776D01*
X8828531Y-22344252D01*
X8819008Y-22334729D01*
X8809484Y-22315681D01*
X8799960Y-22277586D01*
X8799960Y-22229967D01*
X8809484Y-22191871D01*
X8819008Y-22172824D01*
X8828531Y-22163300D01*
X8847579Y-22153776D01*
X8990436Y-22153776D02*
X8990436Y-22191871D01*
X9066627Y-22153776D02*
X9066627Y-22191871D01*
X9361865Y-22429967D02*
X9352341Y-22420443D01*
X9333293Y-22391871D01*
X9323770Y-22372824D01*
X9314246Y-22344252D01*
X9304722Y-22296633D01*
X9304722Y-22258538D01*
X9314246Y-22210919D01*
X9323770Y-22182348D01*
X9333293Y-22163300D01*
X9352341Y-22134729D01*
X9361865Y-22125205D01*
X9523770Y-22153776D02*
X9485674Y-22153776D01*
X9466627Y-22163300D01*
X9457103Y-22172824D01*
X9438055Y-22201395D01*
X9428531Y-22239490D01*
X9428531Y-22315681D01*
X9438055Y-22334729D01*
X9447579Y-22344252D01*
X9466627Y-22353776D01*
X9504722Y-22353776D01*
X9523770Y-22344252D01*
X9533293Y-22334729D01*
X9542817Y-22315681D01*
X9542817Y-22268062D01*
X9533293Y-22249014D01*
X9523770Y-22239490D01*
X9504722Y-22229967D01*
X9466627Y-22229967D01*
X9447579Y-22239490D01*
X9438055Y-22249014D01*
X9428531Y-22268062D01*
X9780912Y-22353776D02*
X9780912Y-22153776D01*
X9866627Y-22353776D02*
X9866627Y-22249014D01*
X9857103Y-22229967D01*
X9838055Y-22220443D01*
X9809484Y-22220443D01*
X9790436Y-22229967D01*
X9780912Y-22239490D01*
X9990436Y-22353776D02*
X9971389Y-22344252D01*
X9961865Y-22334729D01*
X9952341Y-22315681D01*
X9952341Y-22258538D01*
X9961865Y-22239490D01*
X9971389Y-22229967D01*
X9990436Y-22220443D01*
X10019008Y-22220443D01*
X10038055Y-22229967D01*
X10047579Y-22239490D01*
X10057103Y-22258538D01*
X10057103Y-22315681D01*
X10047579Y-22334729D01*
X10038055Y-22344252D01*
X10019008Y-22353776D01*
X9990436Y-22353776D01*
X10171389Y-22353776D02*
X10152341Y-22344252D01*
X10142817Y-22325205D01*
X10142817Y-22153776D01*
X10323770Y-22344252D02*
X10304722Y-22353776D01*
X10266627Y-22353776D01*
X10247579Y-22344252D01*
X10238055Y-22325205D01*
X10238055Y-22249014D01*
X10247579Y-22229967D01*
X10266627Y-22220443D01*
X10304722Y-22220443D01*
X10323770Y-22229967D01*
X10333293Y-22249014D01*
X10333293Y-22268062D01*
X10238055Y-22287110D01*
X10409484Y-22344252D02*
X10428531Y-22353776D01*
X10466627Y-22353776D01*
X10485674Y-22344252D01*
X10495198Y-22325205D01*
X10495198Y-22315681D01*
X10485674Y-22296633D01*
X10466627Y-22287110D01*
X10438055Y-22287110D01*
X10419008Y-22277586D01*
X10409484Y-22258538D01*
X10409484Y-22249014D01*
X10419008Y-22229967D01*
X10438055Y-22220443D01*
X10466627Y-22220443D01*
X10485674Y-22229967D01*
X10561865Y-22429967D02*
X10571389Y-22420443D01*
X10590436Y-22391871D01*
X10599960Y-22372824D01*
X10609484Y-22344252D01*
X10619008Y-22296633D01*
X10619008Y-22258538D01*
X10609484Y-22210919D01*
X10599960Y-22182348D01*
X10590436Y-22163300D01*
X10571389Y-22134729D01*
X10561865Y-22125205D01*
M02*
