G04 #@! TF.GenerationSoftware,KiCad,Pcbnew,(6.0.1)*
G04 #@! TF.CreationDate,2022-09-15T23:17:18-07:00*
G04 #@! TF.ProjectId,gigan rev2,67696761-6e20-4726-9576-322e6b696361,rev?*
G04 #@! TF.SameCoordinates,Original*
G04 #@! TF.FileFunction,Soldermask,Top*
G04 #@! TF.FilePolarity,Negative*
%FSLAX46Y46*%
G04 Gerber Fmt 4.6, Leading zero omitted, Abs format (unit mm)*
G04 Created by KiCad (PCBNEW (6.0.1)) date 2022-09-15 23:17:18*
%MOMM*%
%LPD*%
G01*
G04 APERTURE LIST*
G04 Aperture macros list*
%AMRoundRect*
0 Rectangle with rounded corners*
0 $1 Rounding radius*
0 $2 $3 $4 $5 $6 $7 $8 $9 X,Y pos of 4 corners*
0 Add a 4 corners polygon primitive as box body*
4,1,4,$2,$3,$4,$5,$6,$7,$8,$9,$2,$3,0*
0 Add four circle primitives for the rounded corners*
1,1,$1+$1,$2,$3*
1,1,$1+$1,$4,$5*
1,1,$1+$1,$6,$7*
1,1,$1+$1,$8,$9*
0 Add four rect primitives between the rounded corners*
20,1,$1+$1,$2,$3,$4,$5,0*
20,1,$1+$1,$4,$5,$6,$7,0*
20,1,$1+$1,$6,$7,$8,$9,0*
20,1,$1+$1,$8,$9,$2,$3,0*%
%AMHorizOval*
0 Thick line with rounded ends*
0 $1 width*
0 $2 $3 position (X,Y) of the first rounded end (center of the circle)*
0 $4 $5 position (X,Y) of the second rounded end (center of the circle)*
0 Add line between two ends*
20,1,$1,$2,$3,$4,$5,0*
0 Add two circle primitives to create the rounded ends*
1,1,$1,$2,$3*
1,1,$1,$4,$5*%
G04 Aperture macros list end*
%ADD10RoundRect,0.051000X0.648928X-0.926765X0.926765X0.648928X-0.648928X0.926765X-0.926765X-0.648928X0*%
%ADD11HorizOval,1.702000X0.000000X0.000000X0.000000X0.000000X0*%
%ADD12C,1.802000*%
%ADD13C,1.852000*%
%ADD14C,0.902000*%
%ADD15C,4.089800*%
%ADD16HorizOval,2.352000X0.771809X0.605175X-0.771809X-0.605175X0*%
%ADD17C,2.352000*%
%ADD18C,2.102000*%
%ADD19HorizOval,2.352000X0.069832X0.282177X-0.069832X-0.282177X0*%
%ADD20C,2.007000*%
%ADD21RoundRect,0.051000X-1.103429X-0.772629X0.772629X-1.103429X1.103429X0.772629X-0.772629X1.103429X0*%
%ADD22HorizOval,2.352000X0.654995X0.730004X-0.654995X-0.730004X0*%
%ADD23HorizOval,2.352000X0.019771X0.290016X-0.019771X-0.290016X0*%
%ADD24RoundRect,0.051000X-0.952500X-0.952500X0.952500X-0.952500X0.952500X0.952500X-0.952500X0.952500X0*%
%ADD25RoundRect,0.051000X0.926765X-0.648928X0.648928X0.926765X-0.926765X0.648928X-0.648928X-0.926765X0*%
%ADD26HorizOval,1.702000X0.000000X0.000000X0.000000X0.000000X0*%
%ADD27HorizOval,2.352000X0.518281X0.832653X-0.518281X-0.832653X0*%
%ADD28HorizOval,2.352000X-0.030890X0.289043X0.030890X-0.289043X0*%
%ADD29RoundRect,0.051000X-0.772629X-1.103429X1.103429X-0.772629X0.772629X1.103429X-1.103429X0.772629X0*%
%ADD30C,2.302000*%
%ADD31RoundRect,0.051000X-0.850000X-0.850000X0.850000X-0.850000X0.850000X0.850000X-0.850000X0.850000X0*%
%ADD32O,1.802000X1.802000*%
%ADD33C,5.802000*%
%ADD34RoundRect,0.051000X0.800000X-0.800000X0.800000X0.800000X-0.800000X0.800000X-0.800000X-0.800000X0*%
%ADD35O,1.702000X1.702000*%
%ADD36RoundRect,0.051000X-0.876300X0.876300X-0.876300X-0.876300X0.876300X-0.876300X0.876300X0.876300X0*%
%ADD37C,1.854600*%
%ADD38RoundRect,0.051000X-0.600000X-0.600000X0.600000X-0.600000X0.600000X0.600000X-0.600000X0.600000X0*%
%ADD39C,1.302000*%
G04 APERTURE END LIST*
D10*
X115993026Y-139431893D03*
D11*
X117316225Y-131927658D03*
D12*
X169954448Y-87252676D03*
D13*
X180373714Y-89089874D03*
X170368068Y-87325608D03*
D12*
X180787334Y-89162806D03*
D14*
X169500872Y-91437490D03*
D15*
X175370891Y-88207741D03*
D16*
X172831649Y-84439555D03*
D17*
X173603464Y-83834390D03*
D18*
X176395415Y-82397375D03*
X180954793Y-85333712D03*
D19*
X178684159Y-83928050D03*
D17*
X178754435Y-83645984D03*
D20*
X173238052Y-92990031D03*
D21*
X175739464Y-93431098D03*
D12*
X239878000Y-180937600D03*
D13*
X229298000Y-180937600D03*
D12*
X228878000Y-180937600D03*
D15*
X234378000Y-180937600D03*
D13*
X239458000Y-180937600D03*
D14*
X229158000Y-185137600D03*
D22*
X231222995Y-177667596D03*
D17*
X231878000Y-176937600D03*
D18*
X234378000Y-175037600D03*
D17*
X236918000Y-175857600D03*
D18*
X239378000Y-177137600D03*
D23*
X236897771Y-176147584D03*
D20*
X233108000Y-186017600D03*
D24*
X235648000Y-186017600D03*
D10*
X103660042Y-98208416D03*
D11*
X104983241Y-90704181D03*
D12*
X155248945Y-123708539D03*
D15*
X149832502Y-122753474D03*
D13*
X154835325Y-123635607D03*
X144829679Y-121871341D03*
D14*
X143962483Y-125983223D03*
D12*
X144416059Y-121798409D03*
D16*
X147293260Y-118985288D03*
D18*
X150857026Y-116943108D03*
D17*
X148065075Y-118380123D03*
X153216046Y-118191717D03*
D18*
X155416404Y-119879445D03*
D19*
X153145770Y-118473783D03*
D20*
X147699663Y-127535764D03*
D21*
X150201075Y-127976831D03*
D25*
X332100405Y-95386948D03*
D26*
X330777206Y-87882713D03*
D13*
X116863894Y-116940219D03*
D12*
X106444628Y-115103021D03*
D13*
X106858248Y-115175953D03*
D12*
X117277514Y-117013151D03*
D15*
X111861071Y-116058086D03*
D14*
X105991052Y-119287835D03*
D17*
X110093644Y-111684735D03*
D18*
X112885595Y-110247720D03*
D16*
X109321829Y-112289900D03*
D19*
X115174339Y-111778395D03*
D18*
X117444973Y-113184057D03*
D17*
X115244615Y-111496329D03*
D20*
X109728232Y-120840376D03*
D21*
X112229644Y-121281443D03*
D13*
X135824595Y-120283502D03*
D12*
X136238215Y-120356434D03*
D15*
X130821772Y-119401369D03*
D14*
X124951753Y-122631118D03*
D12*
X125405329Y-118446304D03*
D13*
X125818949Y-118519236D03*
D17*
X129054345Y-115028018D03*
D16*
X128282530Y-115633183D03*
D18*
X131846296Y-113591003D03*
D17*
X134205316Y-114839612D03*
D19*
X134135040Y-115121678D03*
D18*
X136405674Y-116527340D03*
D20*
X128688933Y-124183659D03*
D21*
X131190345Y-124624726D03*
D15*
X118438759Y-78169072D03*
D14*
X112568740Y-81398821D03*
D13*
X123441582Y-79051205D03*
D12*
X123855202Y-79124137D03*
D13*
X113435936Y-77286939D03*
D12*
X113022316Y-77214007D03*
D16*
X115899517Y-74400886D03*
D17*
X116671332Y-73795721D03*
D18*
X119463283Y-72358706D03*
X124022661Y-75295043D03*
D19*
X121752027Y-73889381D03*
D17*
X121822303Y-73607315D03*
D20*
X116305920Y-82951362D03*
D21*
X118807332Y-83392429D03*
D13*
X315578966Y-75871381D03*
D14*
X316170415Y-80031884D03*
D15*
X320581789Y-74989248D03*
D12*
X315165346Y-75944313D03*
X325998232Y-74034183D03*
D13*
X325584612Y-74107115D03*
D27*
X316906886Y-72316783D03*
D18*
X319557265Y-69178882D03*
D17*
X317425177Y-71484137D03*
D28*
X322231502Y-69834450D03*
D17*
X322201068Y-69545358D03*
D18*
X324845965Y-70378738D03*
D20*
X320213216Y-80212605D03*
D29*
X322714628Y-79771538D03*
D10*
X175965248Y-129888982D03*
D11*
X177288447Y-122384747D03*
D10*
X160359673Y-108102923D03*
D11*
X161682872Y-100598688D03*
D25*
X328839537Y-76308548D03*
D13*
X110116218Y-96406544D03*
D15*
X115119041Y-97288677D03*
D12*
X109702598Y-96333612D03*
D14*
X109249022Y-100518426D03*
D12*
X120535484Y-98243742D03*
D13*
X120121864Y-98170810D03*
D17*
X113351614Y-92915326D03*
D18*
X116143565Y-91478311D03*
D16*
X112579799Y-93520491D03*
D17*
X118502585Y-92726920D03*
D18*
X120702943Y-94414648D03*
D19*
X118432309Y-93008986D03*
D20*
X112986202Y-102070967D03*
D21*
X115487614Y-102512034D03*
D30*
X143700000Y-175603600D03*
X277456400Y-175552800D03*
D25*
X328839537Y-76308548D03*
D26*
X327516338Y-68804313D03*
D30*
X73596000Y-60440000D03*
D13*
X157127376Y-163294931D03*
D12*
X156713756Y-163221999D03*
D15*
X162130199Y-164177064D03*
D12*
X167546642Y-165132129D03*
D13*
X167133022Y-165059197D03*
D14*
X156260180Y-167406813D03*
D16*
X159590957Y-160408878D03*
D17*
X160362772Y-159803713D03*
D18*
X163154723Y-158366698D03*
D19*
X165443467Y-159897373D03*
D17*
X165513743Y-159615307D03*
D18*
X167714101Y-161303035D03*
D20*
X159997360Y-168959354D03*
D21*
X162498772Y-169400421D03*
D31*
X205879200Y-170472800D03*
D32*
X205879200Y-173012800D03*
X205879200Y-175552800D03*
D24*
X187591200Y-185814400D03*
D20*
X185051200Y-185814400D03*
D17*
X188861200Y-175654400D03*
D23*
X188840971Y-175944384D03*
D18*
X191321200Y-176934400D03*
X186321200Y-174834400D03*
D17*
X183821200Y-176734400D03*
D22*
X183166195Y-177464396D03*
D13*
X181241200Y-180734400D03*
D12*
X180821200Y-180734400D03*
D14*
X181101200Y-184934400D03*
D15*
X186321200Y-180734400D03*
D13*
X191401200Y-180734400D03*
D12*
X191821200Y-180734400D03*
D10*
X97079454Y-136406422D03*
D11*
X98402653Y-128902187D03*
D12*
X261803076Y-105058483D03*
D13*
X262216696Y-104985551D03*
D15*
X267219519Y-104103418D03*
D13*
X272222342Y-103221285D03*
D14*
X262808145Y-109146054D03*
D12*
X272635962Y-103148353D03*
D17*
X264062907Y-100598307D03*
D18*
X266194995Y-98293052D03*
D27*
X263544616Y-101430953D03*
D28*
X268869232Y-98948620D03*
D18*
X271483695Y-99492908D03*
D17*
X268838798Y-98659528D03*
D20*
X266850946Y-109326775D03*
D29*
X269352358Y-108885708D03*
D33*
X230002000Y-156569799D03*
D25*
X320061670Y-136816460D03*
D26*
X318738471Y-129312225D03*
D13*
X132504876Y-139403109D03*
D15*
X127502053Y-138520976D03*
D13*
X122499230Y-137638843D03*
D12*
X132918496Y-139476041D03*
D14*
X121632034Y-141750725D03*
D12*
X122085610Y-137565911D03*
D17*
X125734626Y-134147625D03*
D16*
X124962811Y-134752790D03*
D18*
X128526577Y-132710610D03*
D19*
X130815321Y-134241285D03*
D18*
X133085955Y-135646947D03*
D17*
X130885597Y-133959219D03*
D20*
X125369214Y-143303266D03*
D21*
X127870626Y-143744333D03*
D12*
X329418006Y-93136147D03*
D14*
X319590189Y-99133848D03*
D15*
X324001563Y-94091212D03*
D13*
X329004386Y-93209079D03*
X318998740Y-94973345D03*
D12*
X318585120Y-95046277D03*
D17*
X320844951Y-90586101D03*
D18*
X322977039Y-88280846D03*
D27*
X320326660Y-91418747D03*
D18*
X328265739Y-89480702D03*
D28*
X325651276Y-88936414D03*
D17*
X325620842Y-88647322D03*
D20*
X323632990Y-99314569D03*
D29*
X326134402Y-98873502D03*
D25*
X304544309Y-159102801D03*
D26*
X303221110Y-151598566D03*
D25*
X316488909Y-117431969D03*
D26*
X315165710Y-109927734D03*
D13*
X272323592Y-161843914D03*
X282329238Y-160079648D03*
D15*
X277326415Y-160961781D03*
D12*
X282742858Y-160006716D03*
D14*
X272915041Y-166004417D03*
D12*
X271909972Y-161916846D03*
D27*
X273651512Y-158289316D03*
D17*
X274169803Y-157456670D03*
D18*
X276301891Y-155151415D03*
X281590591Y-156351271D03*
D28*
X278976128Y-155806983D03*
D17*
X278945694Y-155517891D03*
D20*
X276957842Y-166185138D03*
D29*
X279459254Y-165744071D03*
D25*
X338981162Y-133532026D03*
D13*
X265574722Y-123737318D03*
D12*
X265161102Y-123810250D03*
D14*
X266166171Y-127897821D03*
D15*
X270577545Y-122855185D03*
D12*
X275993988Y-121900120D03*
D13*
X275580368Y-121973052D03*
D27*
X266902642Y-120182720D03*
D17*
X267420933Y-119350074D03*
D18*
X269553021Y-117044819D03*
D17*
X272196824Y-117411295D03*
D18*
X274841721Y-118244675D03*
D28*
X272227258Y-117700387D03*
D20*
X270208972Y-128078542D03*
D29*
X272710384Y-127637475D03*
D25*
X335408404Y-114147537D03*
D26*
X334085205Y-106643302D03*
D12*
X258383299Y-85956520D03*
X269216185Y-84046390D03*
D13*
X258796919Y-85883588D03*
X268802565Y-84119322D03*
D15*
X263799742Y-85001455D03*
D14*
X259388368Y-90044091D03*
D18*
X262775218Y-79191089D03*
D27*
X260124839Y-82328990D03*
D17*
X260643130Y-81496344D03*
D28*
X265449455Y-79846657D03*
D18*
X268063918Y-80390945D03*
D17*
X265419021Y-79557565D03*
D20*
X263431169Y-90224812D03*
D29*
X265932581Y-89783745D03*
D25*
X253255697Y-89687602D03*
D26*
X251932498Y-82183367D03*
D14*
X326367990Y-136987578D03*
D15*
X330779364Y-131944942D03*
D13*
X325776541Y-132827075D03*
X335782187Y-131062809D03*
D12*
X325362921Y-132900007D03*
X336195807Y-130989877D03*
D17*
X327622752Y-128439831D03*
D18*
X329754840Y-126134576D03*
D27*
X327104461Y-129272477D03*
D18*
X335043540Y-127334432D03*
D17*
X332398643Y-126501052D03*
D28*
X332429077Y-126790144D03*
D20*
X330410791Y-137168299D03*
D29*
X332912203Y-136727232D03*
D12*
X260453061Y-144345367D03*
D13*
X260039441Y-144418299D03*
D15*
X255036618Y-145300432D03*
D12*
X249620175Y-146255497D03*
D14*
X250625244Y-150343068D03*
D13*
X250033795Y-146182565D03*
D27*
X251361715Y-142627967D03*
D17*
X251880006Y-141795321D03*
D18*
X254012094Y-139490066D03*
X259300794Y-140689922D03*
D28*
X256686331Y-140145634D03*
D17*
X256655897Y-139856542D03*
D20*
X254668045Y-150523789D03*
D29*
X257169457Y-150082722D03*
D25*
X272175189Y-86403170D03*
D26*
X270851990Y-78898935D03*
D12*
X95097151Y-132807119D03*
X84264265Y-130896989D03*
D14*
X83810689Y-135081803D03*
D15*
X89680708Y-131852054D03*
D13*
X94683531Y-132734187D03*
X84677885Y-130969921D03*
D17*
X87913281Y-127478703D03*
D16*
X87141466Y-128083868D03*
D18*
X90705232Y-126041688D03*
X95264610Y-128978025D03*
D17*
X93064252Y-127290297D03*
D19*
X92993976Y-127572363D03*
D20*
X87547869Y-136634344D03*
D21*
X90049281Y-137075411D03*
D15*
X124158770Y-157481678D03*
D14*
X118288751Y-160711427D03*
D13*
X119155947Y-156599545D03*
D12*
X129575213Y-158436743D03*
X118742327Y-156526613D03*
D13*
X129161593Y-158363811D03*
D17*
X122391343Y-153108327D03*
D18*
X125183294Y-151671312D03*
D16*
X121619528Y-153713492D03*
D19*
X127472038Y-153201987D03*
D17*
X127542314Y-152919921D03*
D18*
X129742672Y-154607649D03*
D20*
X122025931Y-162263968D03*
D21*
X124527343Y-162705035D03*
D13*
X91255573Y-93080905D03*
X101261219Y-94845171D03*
D12*
X101674839Y-94918103D03*
D14*
X90388377Y-97192787D03*
D12*
X90841953Y-93007973D03*
D15*
X96258396Y-93963038D03*
D16*
X93719154Y-90194852D03*
D18*
X97282920Y-88152672D03*
D17*
X94490969Y-89589687D03*
X99641940Y-89401281D03*
D19*
X99571664Y-89683347D03*
D18*
X101842298Y-91089009D03*
D20*
X94125557Y-98745328D03*
D21*
X96626969Y-99186395D03*
D12*
X321943146Y-113798043D03*
D13*
X332362412Y-111960845D03*
D14*
X322948215Y-117885614D03*
D13*
X322356766Y-113725111D03*
D12*
X332776032Y-111887913D03*
D15*
X327359589Y-112842978D03*
D17*
X324202977Y-109337867D03*
D27*
X323684686Y-110170513D03*
D18*
X326335065Y-107032612D03*
D28*
X329009302Y-107688180D03*
D17*
X328978868Y-107399088D03*
D18*
X331623765Y-108232468D03*
D20*
X326991016Y-118066335D03*
D29*
X329492428Y-117625268D03*
D30*
X338264000Y-146952400D03*
D10*
X100352044Y-116969005D03*
D11*
X101675243Y-109464770D03*
D25*
X256516565Y-108766002D03*
D26*
X255193366Y-101261767D03*
D25*
X350908121Y-91761138D03*
D26*
X349584922Y-84256903D03*
D10*
X157051677Y-126863511D03*
D11*
X158374876Y-119359276D03*
D25*
X332100405Y-95386948D03*
D14*
X131529441Y-84742104D03*
D12*
X142815903Y-82467420D03*
X131983017Y-80557290D03*
D15*
X137399460Y-81512355D03*
D13*
X142402283Y-82394488D03*
X132396637Y-80630222D03*
D16*
X134860218Y-77744169D03*
D17*
X135632033Y-77139004D03*
D18*
X138423984Y-75701989D03*
D17*
X140783004Y-76950598D03*
D18*
X142983362Y-78638326D03*
D19*
X140712728Y-77232664D03*
D20*
X135266621Y-86294645D03*
D21*
X137768033Y-86735712D03*
D10*
X172692657Y-149326402D03*
D11*
X174015856Y-141822167D03*
D10*
X141457822Y-104718433D03*
D11*
X142781021Y-97214198D03*
D25*
X285736591Y-162728611D03*
D26*
X284413392Y-155224376D03*
D10*
X122573614Y-101233887D03*
D11*
X123896813Y-93729652D03*
D15*
X296337144Y-157609676D03*
D12*
X301753587Y-156654611D03*
D13*
X291334321Y-158491809D03*
D12*
X290920701Y-158564741D03*
D14*
X291925770Y-162652312D03*
D13*
X301339967Y-156727543D03*
D17*
X293180532Y-154104565D03*
D18*
X295312620Y-151799310D03*
D27*
X292662241Y-154937211D03*
D17*
X297956423Y-152165786D03*
D28*
X297986857Y-152454878D03*
D18*
X300601320Y-152999166D03*
D20*
X295968571Y-162833033D03*
D29*
X298469983Y-162391966D03*
D12*
X337545822Y-91702995D03*
D13*
X337959442Y-91630063D03*
D15*
X342962265Y-90747930D03*
D14*
X338550891Y-95790566D03*
D12*
X348378708Y-89792865D03*
D13*
X347965088Y-89865797D03*
D17*
X339805653Y-87242819D03*
D27*
X339287362Y-88075465D03*
D18*
X341937741Y-84937564D03*
D17*
X344581544Y-85304040D03*
D18*
X347226441Y-86137420D03*
D28*
X344611978Y-85593132D03*
D20*
X342593692Y-95971287D03*
D29*
X345095104Y-95530220D03*
D10*
X78177604Y-133021933D03*
D11*
X79500803Y-125517698D03*
D25*
X313180911Y-98671382D03*
D26*
X311857712Y-91167147D03*
D10*
X179273246Y-111128396D03*
D11*
X180596445Y-103624161D03*
D15*
X77297696Y-90619755D03*
D14*
X71427677Y-93849504D03*
D13*
X82300519Y-91501888D03*
D12*
X82714139Y-91574820D03*
D13*
X72294873Y-89737622D03*
D12*
X71881253Y-89664690D03*
D16*
X74758454Y-86851569D03*
D17*
X75530269Y-86246404D03*
D18*
X78322220Y-84809389D03*
X82881598Y-87745726D03*
D17*
X80681240Y-86057998D03*
D19*
X80610964Y-86340064D03*
D20*
X75164857Y-95402045D03*
D21*
X77666269Y-95843112D03*
D10*
X134877234Y-142916441D03*
D11*
X136200433Y-135412206D03*
D12*
X65303564Y-127553704D03*
X76136450Y-129463834D03*
D15*
X70720007Y-128508769D03*
D13*
X65717184Y-127626636D03*
D14*
X64849988Y-131738518D03*
D13*
X75722830Y-129390902D03*
D18*
X71744531Y-122698403D03*
D17*
X68952580Y-124135418D03*
D16*
X68180765Y-124740583D03*
D18*
X76303909Y-125634740D03*
D17*
X74103551Y-123947012D03*
D19*
X74033275Y-124229078D03*
D20*
X68587168Y-133291059D03*
D21*
X71088580Y-133732126D03*
D10*
X126034596Y-82190774D03*
D11*
X127357795Y-74686539D03*
D33*
X191089200Y-156569799D03*
D25*
X301124532Y-140000837D03*
D26*
X299801333Y-132496602D03*
D31*
X215886800Y-170422000D03*
D32*
X215886800Y-172962000D03*
X215886800Y-175502000D03*
D15*
X292958021Y-138613867D03*
D12*
X287541578Y-139568932D03*
X298374464Y-137658802D03*
D14*
X288546647Y-143656503D03*
D13*
X297960844Y-137731734D03*
X287955198Y-139496000D03*
D17*
X289801409Y-135108756D03*
D18*
X291933497Y-132803501D03*
D27*
X289283118Y-135941402D03*
D17*
X294577300Y-133169977D03*
D18*
X297222197Y-134003357D03*
D28*
X294607734Y-133459069D03*
D20*
X292589448Y-143837224D03*
D29*
X295090860Y-143396157D03*
D30*
X192722000Y-96355600D03*
D33*
X230205200Y-119688999D03*
D25*
X335408404Y-114147537D03*
D10*
X163820657Y-89059809D03*
D14*
X68169707Y-112618913D03*
D13*
X69036903Y-108507031D03*
D12*
X79456169Y-110344229D03*
D13*
X79042549Y-110271297D03*
D15*
X74039726Y-109389164D03*
D12*
X68623283Y-108434099D03*
D17*
X72272299Y-105015813D03*
D18*
X75064250Y-103578798D03*
D16*
X71500484Y-105620978D03*
D17*
X77423270Y-104827407D03*
D18*
X79623628Y-106515135D03*
D19*
X77352994Y-105109473D03*
D20*
X71906887Y-114171454D03*
D21*
X74408299Y-114612521D03*
D15*
X346320291Y-109499695D03*
D12*
X340903848Y-110454760D03*
X351736734Y-108544630D03*
D13*
X341317468Y-110381828D03*
X351323114Y-108617562D03*
D14*
X341908917Y-114542331D03*
D27*
X342645388Y-106827230D03*
D18*
X345295767Y-103689329D03*
D17*
X343163679Y-105994584D03*
D28*
X347970004Y-104344897D03*
D17*
X347939570Y-104055805D03*
D18*
X350584467Y-104889185D03*
D20*
X345951718Y-114723052D03*
D29*
X348453130Y-114281985D03*
D25*
X294243776Y-101855758D03*
D26*
X292920577Y-94351523D03*
D10*
X138149826Y-123479021D03*
D11*
X139473025Y-115974786D03*
D25*
X338981162Y-133532026D03*
D26*
X337657963Y-126027791D03*
D12*
X252949272Y-165260130D03*
D13*
X253362892Y-165187198D03*
D14*
X253954341Y-169347701D03*
D13*
X263368538Y-163422932D03*
D12*
X263782158Y-163350000D03*
D15*
X258365715Y-164305065D03*
D17*
X255209103Y-160799954D03*
D18*
X257341191Y-158494699D03*
D27*
X254690812Y-161632600D03*
D18*
X262629891Y-159694555D03*
D28*
X260015428Y-159150267D03*
D17*
X259984994Y-158861175D03*
D20*
X257997142Y-169528422D03*
D29*
X260498554Y-169087355D03*
D12*
X174209644Y-127051822D03*
D13*
X173796024Y-126978890D03*
D15*
X168793201Y-126096757D03*
D12*
X163376758Y-125141692D03*
D13*
X163790378Y-125214624D03*
D14*
X162923182Y-129326506D03*
D18*
X169817725Y-120286391D03*
D17*
X167025774Y-121723406D03*
D16*
X166253959Y-122328571D03*
D17*
X172176745Y-121535000D03*
D19*
X172106469Y-121817066D03*
D18*
X174377103Y-123222728D03*
D20*
X166660362Y-130879047D03*
D21*
X169161774Y-131320114D03*
D14*
X93708096Y-78073179D03*
D12*
X104994558Y-75798495D03*
X94161672Y-73888365D03*
D13*
X94575292Y-73961297D03*
X104580938Y-75725563D03*
D15*
X99578115Y-74843430D03*
D16*
X97038873Y-71075244D03*
D17*
X97810688Y-70470079D03*
D18*
X100602639Y-69033064D03*
D17*
X102961659Y-70281673D03*
D18*
X105162017Y-71969401D03*
D19*
X102891383Y-70563739D03*
D20*
X97445276Y-79625720D03*
D21*
X99946688Y-80066787D03*
D15*
X315297846Y-154266393D03*
D13*
X310295023Y-155148526D03*
D14*
X310886472Y-159309029D03*
D13*
X320300669Y-153384260D03*
D12*
X309881403Y-155221458D03*
X320714289Y-153311328D03*
D17*
X312141234Y-150761282D03*
D27*
X311622943Y-151593928D03*
D18*
X314273322Y-148456027D03*
D17*
X316917125Y-148822503D03*
D28*
X316947559Y-149111595D03*
D18*
X319562022Y-149655883D03*
D20*
X314929273Y-159489750D03*
D29*
X317430685Y-159048683D03*
D13*
X139082564Y-101514093D03*
D15*
X134079741Y-100631960D03*
D13*
X129076918Y-99749827D03*
D12*
X139496184Y-101587025D03*
D14*
X128209722Y-103861709D03*
D12*
X128663298Y-99676895D03*
D16*
X131540499Y-96863774D03*
D18*
X135104265Y-94821594D03*
D17*
X132312314Y-96258609D03*
D18*
X139663643Y-97757931D03*
D17*
X137463285Y-96070203D03*
D19*
X137393009Y-96352269D03*
D20*
X131946902Y-105414250D03*
D21*
X134448314Y-105855317D03*
D14*
X345328691Y-133644295D03*
D13*
X354742888Y-127719526D03*
X344737242Y-129483792D03*
D12*
X355156508Y-127646594D03*
X344323622Y-129556724D03*
D15*
X349740065Y-128601659D03*
D17*
X346583453Y-125096548D03*
D27*
X346065162Y-125929194D03*
D18*
X348715541Y-122791293D03*
D17*
X351359344Y-123157769D03*
D28*
X351389778Y-123446861D03*
D18*
X354004241Y-123991149D03*
D20*
X349371492Y-133825016D03*
D29*
X351872904Y-133383949D03*
D10*
X144918806Y-85675319D03*
D11*
X146242005Y-78171084D03*
D25*
X282316816Y-143626647D03*
D26*
X280993617Y-136122412D03*
D13*
X277757620Y-82540305D03*
D14*
X278349069Y-86700808D03*
D12*
X288176886Y-80703107D03*
D15*
X282760443Y-81658172D03*
D12*
X277344000Y-82613237D03*
D13*
X287763266Y-80776039D03*
D17*
X279603831Y-78153061D03*
D27*
X279085540Y-78985707D03*
D18*
X281735919Y-75847806D03*
D28*
X284410156Y-76503374D03*
D18*
X287024619Y-77047662D03*
D17*
X284379722Y-76214282D03*
D20*
X282391870Y-86881529D03*
D29*
X284893282Y-86440462D03*
D10*
X153779085Y-146300931D03*
D11*
X155102284Y-138796696D03*
D33*
X191089200Y-156569799D03*
D10*
X150459366Y-165420538D03*
D11*
X151782565Y-157916303D03*
D33*
X230002000Y-156569799D03*
D13*
X246614020Y-127080601D03*
D15*
X251616843Y-126198468D03*
D12*
X246200400Y-127153533D03*
X257033286Y-125243403D03*
D14*
X247205469Y-131241104D03*
D13*
X256619666Y-125316335D03*
D18*
X250592319Y-120388102D03*
D27*
X247941940Y-123526003D03*
D17*
X248460231Y-122693357D03*
D28*
X253266556Y-121043670D03*
D17*
X253236122Y-120754578D03*
D18*
X255881019Y-121587958D03*
D20*
X251248270Y-131421825D03*
D29*
X253749682Y-130980758D03*
D13*
X306723968Y-77432755D03*
D12*
X307137588Y-77359823D03*
X296304702Y-79269953D03*
D14*
X297309771Y-83357524D03*
D13*
X296718322Y-79197021D03*
D15*
X301721145Y-78314888D03*
D18*
X300696621Y-72504522D03*
D27*
X298046242Y-75642423D03*
D17*
X298564533Y-74809777D03*
D28*
X303370858Y-73160090D03*
D18*
X305985321Y-73704378D03*
D17*
X303340424Y-72870998D03*
D20*
X301352572Y-83538245D03*
D29*
X303853984Y-83097178D03*
D10*
X107121024Y-79165303D03*
D11*
X108444223Y-71661068D03*
D15*
X153090470Y-103984066D03*
D12*
X158506913Y-104939131D03*
D13*
X148087647Y-103101933D03*
D12*
X147674027Y-103029001D03*
D14*
X147220451Y-107213815D03*
D13*
X158093293Y-104866199D03*
D17*
X151323043Y-99610715D03*
D18*
X154114994Y-98173700D03*
D16*
X150551228Y-100215880D03*
D18*
X158674372Y-101110037D03*
D19*
X156403738Y-99704375D03*
D17*
X156474014Y-99422309D03*
D20*
X150957631Y-108766356D03*
D21*
X153459043Y-109207423D03*
D12*
X313915388Y-115213555D03*
D14*
X304087571Y-121211256D03*
D15*
X308498945Y-116168620D03*
D13*
X313501768Y-115286487D03*
X303496122Y-117050753D03*
D12*
X303082502Y-117123685D03*
D17*
X305342333Y-112663509D03*
D18*
X307474421Y-110358254D03*
D27*
X304824042Y-113496155D03*
D18*
X312763121Y-111558110D03*
D28*
X310148658Y-111013822D03*
D17*
X310118224Y-110724730D03*
D20*
X308130372Y-121391977D03*
D29*
X310631784Y-120950910D03*
D13*
X344545311Y-70763832D03*
D15*
X339542488Y-71645965D03*
D12*
X344958931Y-70690900D03*
X334126045Y-72601030D03*
D14*
X335131114Y-76688601D03*
D13*
X334539665Y-72528098D03*
D27*
X335867585Y-68973500D03*
D18*
X338517964Y-65835599D03*
D17*
X336385876Y-68140854D03*
D28*
X341192201Y-66491167D03*
D17*
X341161767Y-66202075D03*
D18*
X343806664Y-67035455D03*
D20*
X339173915Y-76869322D03*
D29*
X341675327Y-76428255D03*
D10*
X169372939Y-168446009D03*
D11*
X170696138Y-160941774D03*
D14*
X150540170Y-88094207D03*
D12*
X161826632Y-85819523D03*
D13*
X151407366Y-83982325D03*
D15*
X156410189Y-84864458D03*
D12*
X150993746Y-83909393D03*
D13*
X161413012Y-85746591D03*
D18*
X157434713Y-79054092D03*
D16*
X153870947Y-81096272D03*
D17*
X154642762Y-80491107D03*
D18*
X161994091Y-81990429D03*
D17*
X159793733Y-80302701D03*
D19*
X159723457Y-80584767D03*
D20*
X154277350Y-89646748D03*
D21*
X156778762Y-90087815D03*
D10*
X131557515Y-162036048D03*
D11*
X132880714Y-154531813D03*
D10*
X88219173Y-75780813D03*
D11*
X89542372Y-68276578D03*
D30*
X118655600Y-109665200D03*
D32*
X228181224Y-131610323D03*
X228181224Y-134150323D03*
X228181224Y-136690323D03*
X228181224Y-139230323D03*
X228181224Y-141770323D03*
D31*
X228181224Y-144310323D03*
D12*
X99781626Y-153183330D03*
X110614512Y-155093460D03*
D13*
X110200892Y-155020528D03*
D15*
X105198069Y-154138395D03*
D14*
X99328050Y-157368144D03*
D13*
X100195246Y-153256262D03*
D18*
X106222593Y-148328029D03*
D16*
X102658827Y-150370209D03*
D17*
X103430642Y-149765044D03*
D19*
X108511337Y-149858704D03*
D17*
X108581613Y-149576638D03*
D18*
X110781971Y-151264366D03*
D20*
X103065230Y-158920685D03*
D21*
X105566642Y-159361752D03*
D10*
X163820657Y-89059809D03*
D11*
X165143856Y-81555574D03*
D25*
X309920042Y-79592983D03*
D26*
X308596843Y-72088748D03*
D10*
X84758191Y-94823926D03*
D11*
X86081390Y-87319691D03*
D25*
X290982905Y-82777359D03*
D26*
X289659706Y-75273124D03*
D25*
X297551773Y-120616346D03*
D26*
X296228574Y-113112111D03*
D10*
X182734228Y-92085280D03*
D11*
X184057427Y-84581045D03*
D25*
X259824564Y-127526590D03*
D26*
X258501365Y-120022355D03*
D12*
X250255486Y-87389674D03*
D15*
X244839043Y-88344739D03*
D12*
X239422600Y-89299804D03*
D13*
X249841866Y-87462606D03*
X239836220Y-89226872D03*
D14*
X240427669Y-93387375D03*
D17*
X241682431Y-84839628D03*
D18*
X243814519Y-82534373D03*
D27*
X241164140Y-85672274D03*
D28*
X246488756Y-83189941D03*
D18*
X249103219Y-83734229D03*
D17*
X246458322Y-82900849D03*
D20*
X244470470Y-93568096D03*
D29*
X246971882Y-93127029D03*
D13*
X284535421Y-120394035D03*
D14*
X285126870Y-124554538D03*
D12*
X294954687Y-118556837D03*
X284121801Y-120466967D03*
D15*
X289538244Y-119511902D03*
D13*
X294541067Y-118629769D03*
D17*
X286381632Y-116006791D03*
D27*
X285863341Y-116839437D03*
D18*
X288513720Y-113701536D03*
D28*
X291187957Y-114357104D03*
D18*
X293802420Y-114901392D03*
D17*
X291157523Y-114068012D03*
D20*
X289169671Y-124735259D03*
D29*
X291671083Y-124294192D03*
D10*
X81450193Y-113584515D03*
D11*
X82773392Y-106080280D03*
D10*
X112673307Y-158551500D03*
D11*
X113996506Y-151047265D03*
D25*
X266817099Y-166013044D03*
D26*
X265493900Y-158508809D03*
D12*
X299724476Y-98371917D03*
D15*
X305140919Y-97416852D03*
D13*
X310143742Y-96534719D03*
X300138096Y-98298985D03*
D14*
X300729545Y-102459488D03*
D12*
X310557362Y-96461787D03*
D17*
X301984307Y-93911741D03*
D18*
X304116395Y-91606486D03*
D27*
X301466016Y-94744387D03*
D17*
X306760198Y-91972962D03*
D18*
X309405095Y-92806342D03*
D28*
X306790632Y-92262054D03*
D20*
X304772346Y-102640209D03*
D29*
X307273758Y-102199142D03*
D13*
X103538529Y-134295560D03*
D14*
X102671333Y-138407442D03*
D13*
X113544175Y-136059826D03*
D12*
X103124909Y-134222628D03*
X113957795Y-136132758D03*
D15*
X108541352Y-135177693D03*
D16*
X106002110Y-131409507D03*
D18*
X109565876Y-129367327D03*
D17*
X106773925Y-130804342D03*
D19*
X111854620Y-130898002D03*
D17*
X111924896Y-130615936D03*
D18*
X114125254Y-132303664D03*
D20*
X106408513Y-139959983D03*
D21*
X108909925Y-140401050D03*
D30*
X230314000Y-96508000D03*
D25*
X354216119Y-110521727D03*
D26*
X352892920Y-103017492D03*
D13*
X170476305Y-146098498D03*
D12*
X160057039Y-144261300D03*
D13*
X160470659Y-144334232D03*
D15*
X165473482Y-145216365D03*
D14*
X159603463Y-148446114D03*
D12*
X170889925Y-146171430D03*
D16*
X162934240Y-141448179D03*
D18*
X166498006Y-139405999D03*
D17*
X163706055Y-140843014D03*
X168857026Y-140654608D03*
D18*
X171057384Y-142342336D03*
D19*
X168786750Y-140936674D03*
D20*
X163340643Y-149998655D03*
D21*
X165842055Y-150439722D03*
D12*
X177467614Y-108282413D03*
D13*
X167048348Y-106445215D03*
X177053994Y-108209481D03*
D14*
X166181152Y-110557097D03*
D15*
X172051171Y-107327348D03*
D12*
X166634728Y-106372283D03*
D18*
X173075695Y-101516982D03*
D17*
X170283744Y-102953997D03*
D16*
X169511929Y-103559162D03*
D18*
X177635073Y-104453319D03*
D17*
X175434715Y-102765591D03*
D19*
X175364439Y-103047657D03*
D20*
X169918332Y-112109638D03*
D21*
X172419744Y-112550705D03*
D34*
X242455200Y-183934800D03*
D35*
X242455200Y-176314800D03*
D30*
X298386000Y-110173200D03*
D36*
X203440800Y-76086400D03*
D37*
X203440800Y-78626400D03*
X203440800Y-81166400D03*
X203440800Y-83706400D03*
X203440800Y-86246400D03*
X203440800Y-88786400D03*
X203440800Y-91326400D03*
X203440800Y-93866400D03*
X203440800Y-96406400D03*
X203440800Y-98946400D03*
X203440800Y-101486400D03*
X203669400Y-104026400D03*
X218680800Y-104026400D03*
X218680800Y-101486400D03*
X218680800Y-98946400D03*
X218680800Y-96406400D03*
X218680800Y-93866400D03*
X218680800Y-91326400D03*
X218680800Y-88786400D03*
X218680800Y-86246400D03*
X218680800Y-83706400D03*
X218680800Y-81166400D03*
X218680800Y-78626400D03*
X218680800Y-76086400D03*
X205980800Y-104026400D03*
X208520800Y-104026400D03*
X211060800Y-104026400D03*
X213600800Y-104026400D03*
X216140800Y-104026400D03*
D12*
X268580876Y-142912214D03*
D13*
X268994496Y-142839282D03*
D12*
X279413762Y-141002084D03*
D14*
X269585945Y-146999785D03*
D13*
X279000142Y-141075016D03*
D15*
X273997319Y-141957149D03*
D17*
X270840707Y-138452038D03*
D18*
X272972795Y-136146783D03*
D27*
X270322416Y-139284684D03*
D18*
X278261495Y-137346639D03*
D28*
X275647032Y-136802351D03*
D17*
X275616598Y-136513259D03*
D20*
X273628746Y-147180506D03*
D29*
X276130158Y-146739439D03*
D35*
X194296800Y-176365600D03*
D34*
X194296800Y-183985600D03*
D14*
X243847443Y-112489339D03*
D12*
X253675260Y-106491638D03*
D13*
X253261640Y-106564570D03*
D12*
X242842374Y-108401768D03*
D15*
X248258817Y-107446703D03*
D13*
X243255994Y-108328836D03*
D17*
X245102205Y-103941592D03*
D18*
X247234293Y-101636337D03*
D27*
X244583914Y-104774238D03*
D28*
X249908530Y-102291905D03*
D17*
X249878096Y-102002813D03*
D18*
X252522993Y-102836193D03*
D20*
X247890244Y-112670060D03*
D29*
X250391656Y-112228993D03*
D25*
X323481444Y-155918424D03*
D26*
X322158245Y-148414189D03*
D13*
X148172322Y-161715914D03*
D14*
X137299480Y-164063530D03*
D12*
X148585942Y-161788846D03*
D13*
X138166676Y-159951648D03*
D15*
X143169499Y-160833781D03*
D12*
X137753056Y-159878716D03*
D17*
X141402072Y-156460430D03*
D18*
X144194023Y-155023415D03*
D16*
X140630257Y-157065595D03*
D18*
X148753401Y-157959752D03*
D19*
X146482767Y-156554090D03*
D17*
X146553043Y-156272024D03*
D20*
X141036660Y-165616071D03*
D21*
X143538072Y-166057138D03*
D30*
X347712800Y-60541600D03*
D13*
X281177395Y-101642269D03*
D12*
X280763775Y-101715201D03*
D15*
X286180218Y-100760136D03*
D12*
X291596661Y-99805071D03*
D13*
X291183041Y-99878003D03*
D14*
X281768844Y-105802772D03*
D18*
X285155694Y-94949770D03*
D27*
X282505315Y-98087671D03*
D17*
X283023606Y-97255025D03*
D18*
X290444394Y-96149626D03*
D28*
X287829931Y-95605338D03*
D17*
X287799497Y-95316246D03*
D20*
X285811645Y-105983493D03*
D29*
X288313057Y-105542426D03*
D25*
X347647253Y-72682738D03*
D26*
X346324054Y-65178503D03*
D25*
X263397322Y-146911080D03*
D26*
X262074123Y-139406845D03*
D25*
X357788880Y-129906216D03*
D26*
X356465681Y-122401981D03*
D30*
X83248000Y-147460400D03*
D12*
X151929226Y-142828147D03*
D15*
X146512783Y-141873082D03*
D13*
X141509960Y-140990949D03*
D14*
X140642764Y-145102831D03*
D12*
X141096340Y-140918017D03*
D13*
X151515606Y-142755215D03*
D16*
X143973541Y-138104896D03*
D18*
X147537307Y-136062716D03*
D17*
X144745356Y-137499731D03*
D19*
X149826051Y-137593391D03*
D17*
X149896327Y-137311325D03*
D18*
X152096685Y-138999053D03*
D20*
X144379944Y-146655372D03*
D21*
X146881356Y-147096439D03*
D10*
X119265616Y-119994476D03*
D11*
X120588815Y-112490241D03*
D12*
X75200972Y-70545082D03*
D13*
X75614592Y-70618014D03*
X85620238Y-72382280D03*
D12*
X86033858Y-72455212D03*
D14*
X74747396Y-74729896D03*
D15*
X80617415Y-71500147D03*
D18*
X81641939Y-65689781D03*
D17*
X78849988Y-67126796D03*
D16*
X78078173Y-67731961D03*
D17*
X84000959Y-66938390D03*
D19*
X83930683Y-67220456D03*
D18*
X86201317Y-68626118D03*
D20*
X78484576Y-76282437D03*
D21*
X80985988Y-76723504D03*
D13*
X98003250Y-113614579D03*
D15*
X93000427Y-112732446D03*
D12*
X98416870Y-113687511D03*
X87583984Y-111777381D03*
D13*
X87997604Y-111850313D03*
D14*
X87130408Y-115962195D03*
D16*
X90461185Y-108964260D03*
D17*
X91233000Y-108359095D03*
D18*
X94024951Y-106922080D03*
D17*
X96383971Y-108170689D03*
D18*
X98584329Y-109858417D03*
D19*
X96313695Y-108452755D03*
D20*
X90867588Y-117514736D03*
D21*
X93369000Y-117955803D03*
D25*
X278744056Y-124242156D03*
D26*
X277420857Y-116737921D03*
D13*
X316921543Y-134388451D03*
D12*
X306502277Y-136225649D03*
D15*
X311918720Y-135270584D03*
D13*
X306915897Y-136152717D03*
D14*
X307507346Y-140313220D03*
D12*
X317335163Y-134315519D03*
D27*
X308243817Y-132598119D03*
D18*
X310894196Y-129460218D03*
D17*
X308762108Y-131765473D03*
D18*
X316182896Y-130660074D03*
D28*
X313568433Y-130115786D03*
D17*
X313537999Y-129826694D03*
D20*
X311550147Y-140493941D03*
D29*
X314051559Y-140052874D03*
D33*
X191292400Y-119688999D03*
D25*
X275436060Y-105481568D03*
D26*
X274112861Y-97977333D03*
D38*
X204917224Y-144228323D03*
D39*
X204917224Y-142448323D03*
X204917224Y-140668323D03*
X204917224Y-138888323D03*
X204917224Y-137108323D03*
X204917224Y-135328323D03*
X204917224Y-133548323D03*
X204917224Y-131768323D03*
X215617224Y-130878323D03*
X215617224Y-132658323D03*
X215617224Y-134438323D03*
X215617224Y-136218323D03*
X215617224Y-137998323D03*
X215617224Y-139778323D03*
X215617224Y-141558323D03*
X215617224Y-143338323D03*
M02*
