M48
; DRILL file {KiCad (5.1.9-0-10_14)} date Tuesday, October 05, 2021 at 02:44:04 PM
; FORMAT={-:-/ absolute / metric / decimal}
; #@! TF.CreationDate,2021-10-05T14:44:04-07:00
; #@! TF.GenerationSoftware,Kicad,Pcbnew,(5.1.9-0-10_14)
; #@! TF.FileFunction,Plated,1,2,PTH
FMAT,2
METRIC
T1C0.400
T2C0.600
T3C1.000
T4C1.040
T5C1.470
T6C2.200
%
G90
G05
T1
X49.657Y-35.433
X52.083Y-42.355
X55.152Y-123.325
X55.245Y-90.678
X55.27Y-104.61
X57.104Y-65.863
X60.706Y-143.446
X60.935Y-28.956
X70.599Y-26.924
X72.771Y-146.177
X76.644Y-29.527
X89.662Y-137.414
X123.243Y-48.321
X127.724Y-31.001
X128.969Y-28.981
X129.286Y-135.382
X132.334Y-43.688
X151.13Y-39.624
X151.13Y-42.672
X152.336Y-42.164
X152.654Y-33.528
X154.94Y-26.416
X154.953Y-44.564
X155.942Y-69.311
X156.628Y-68.583
X157.226Y-45.466
X157.861Y-38.227
X162.436Y-37.335
X163.068Y-36.322
X163.068Y-38.354
X163.83Y-30.48
X163.893Y-57.163
X166.624Y-26.416
X166.624Y-63.119
X166.654Y-30.48
X167.132Y-39.751
X168.567Y-62.395
X169.672Y-54.864
X169.926Y-25.847
X169.926Y-32.512
X169.926Y-36.83
X171.704Y-39.116
X171.704Y-44.196
X171.704Y-45.974
X172.466Y-27.305
X172.552Y-29.21
X172.552Y-30.535
X173.114Y-51.041
X173.402Y-30.535
X173.407Y-29.21
X173.5Y-144.0
X174.252Y-30.535
X174.257Y-29.21
X175.102Y-30.535
X175.107Y-29.21
X175.768Y-31.75
X175.895Y-73.406
X175.952Y-30.535
X175.957Y-29.21
X176.802Y-30.535
X176.807Y-29.21
X177.652Y-30.535
X177.657Y-29.21
X177.914Y-55.288
X177.914Y-94.5
X178.435Y-46.101
X178.502Y-30.535
X178.507Y-29.21
X178.562Y-58.166
X179.324Y-59.182
X179.578Y-51.816
X179.705Y-46.101
X181.61Y-31.242
X181.864Y-34.798
X183.134Y-34.798
X183.134Y-40.386
X183.642Y-50.292
X184.404Y-34.798
X185.674Y-26.162
X185.674Y-34.798
X185.674Y-36.068
X186.436Y-32.766
X191.008Y-34.798
X191.516Y-26.162
X191.77Y-30.236
X194.31Y-32.136
X196.596Y-48.006
X197.612Y-47.949
X197.866Y-28.448
X198.628Y-47.892
X199.644Y-75.946
X200.66Y-53.34
X203.454Y-32.136
X203.454Y-36.576
X212.25Y-59.75
X212.25Y-63.539
X212.471Y-92.837
X212.985Y-64.217
X213.0Y-60.707
X221.375Y-110.363
X223.012Y-43.307
X229.87Y-128.016
X235.445Y-28.994
X240.248Y-45.785
X241.96Y-26.937
X279.629Y-28.956
X280.126Y-40.605
X285.839Y-26.924
X303.403Y-40.767
X325.425Y-29.223
X327.214Y-40.752
X328.93Y-50.546
X334.937Y-27.178
X338.709Y-69.723
X352.806Y-136.271
T3
X138.684Y-26.416
X141.224Y-26.416
X143.764Y-26.416
X146.304Y-26.416
X148.844Y-26.416
X151.384Y-26.416
X208.026Y-26.416
X210.566Y-26.416
X213.106Y-26.416
X215.646Y-26.416
X218.186Y-26.416
X220.726Y-26.416
X313.755Y-32.294
X313.755Y-46.794
X316.255Y-46.794
X318.755Y-32.294
X318.755Y-46.794
T4
X36.157Y-44.374
X38.506Y-144.374
X38.697Y-44.374
X40.246Y-106.261
X41.046Y-144.374
X42.786Y-106.261
X45.009Y-106.261
X45.644Y-125.324
X46.114Y-68.174
X46.711Y-87.224
X47.549Y-106.261
X48.184Y-125.324
X48.654Y-68.174
X49.251Y-87.224
X60.096Y-42.862
X62.636Y-42.862
X65.168Y-68.174
X67.708Y-68.174
X70.523Y-87.224
X71.196Y-106.274
X73.063Y-87.224
X73.736Y-106.274
X76.568Y-125.311
X79.108Y-125.311
X79.159Y-42.85
X81.699Y-42.85
X84.214Y-66.688
X86.754Y-66.688
X89.992Y-87.179
X90.691Y-106.813
X92.477Y-87.707
X93.175Y-107.341
X94.399Y-146.533
X96.025Y-127.412
X96.736Y-147.034
X96.884Y-147.062
X98.509Y-127.94
X98.933Y-45.256
X99.221Y-147.562
X101.418Y-45.784
X103.277Y-70.516
X105.761Y-71.044
X108.623Y-91.141
X109.322Y-110.775
X111.108Y-91.669
X111.806Y-111.303
X114.643Y-131.362
X117.128Y-131.89
X117.551Y-49.206
X120.036Y-49.734
X121.908Y-74.491
X124.392Y-75.02
X127.016Y-153.473
X127.242Y-95.116
X127.915Y-114.7
X129.337Y-153.968
X129.5Y-154.001
X129.726Y-95.644
X130.399Y-115.228
X131.822Y-154.496
X133.287Y-135.324
X135.771Y-135.853
X140.551Y-78.454
X140.818Y-54.171
X143.036Y-78.982
X143.302Y-54.7
X145.885Y-99.028
X146.558Y-118.662
X148.37Y-99.556
X149.043Y-119.19
X151.918Y-139.274
X154.402Y-139.802
X157.29Y-159.899
X159.195Y-82.391
X159.436Y-58.134
X159.774Y-160.427
X161.679Y-82.919
X161.921Y-58.662
X182.665Y-142.778
X184.078Y-103.531
X185.15Y-142.25
X186.563Y-103.003
X189.133Y-58.649
X189.425Y-82.919
X191.617Y-58.121
X191.909Y-82.391
X192.689Y-121.171
X195.173Y-120.643
X201.299Y-138.824
X202.696Y-99.556
X203.784Y-138.296
X205.181Y-99.028
X207.764Y-54.687
X208.069Y-78.969
X210.248Y-54.159
X210.553Y-78.441
X211.32Y-117.196
X212.26Y-155.944
X213.804Y-116.668
X214.744Y-155.416
X219.943Y-134.849
X221.315Y-95.606
X222.428Y-134.321
X223.799Y-95.078
X226.674Y-74.994
X229.159Y-74.466
X229.951Y-113.221
X231.043Y-49.734
X232.435Y-112.693
X233.527Y-49.206
X238.561Y-130.887
X239.946Y-91.644
X241.046Y-130.359
X242.43Y-91.116
X245.33Y-71.057
X247.815Y-70.529
X248.556Y-109.284
X249.674Y-45.771
X251.041Y-108.756
X251.845Y-147.537
X252.158Y-45.243
X254.33Y-147.008
X257.205Y-126.924
X258.576Y-87.694
X259.689Y-126.396
X261.061Y-87.166
X264.3Y-66.675
X266.84Y-66.675
X267.97Y-106.286
X269.354Y-42.875
X270.51Y-106.286
X271.894Y-42.875
X277.495Y-125.311
X277.99Y-87.211
X280.035Y-125.311
X280.53Y-87.211
X283.337Y-68.174
X285.877Y-68.174
X287.02Y-106.286
X288.417Y-42.875
X289.56Y-106.286
X290.957Y-42.875
X297.028Y-87.211
X299.568Y-87.211
X302.4Y-68.174
X303.708Y-125.324
X304.94Y-68.174
X306.248Y-125.324
X311.912Y-68.161
X314.452Y-68.161
X314.985Y-44.374
X315.582Y-149.123
X317.525Y-44.374
X317.97Y-106.261
X318.122Y-149.123
X320.51Y-106.261
X320.84Y-87.224
X321.437Y-68.161
X323.38Y-87.224
X323.977Y-68.161
X334.645Y-130.073
X334.645Y-149.123
X337.185Y-130.073
X337.185Y-149.123
X341.046Y-44.361
X343.586Y-44.361
X345.262Y-63.411
X347.802Y-63.411
X349.415Y-82.448
X351.955Y-82.448
X353.682Y-101.498
X353.695Y-149.123
X356.222Y-101.498
X356.235Y-149.123
T5
X33.617Y-36.754
X35.966Y-136.754
X37.706Y-98.641
X39.967Y-34.214
X42.316Y-134.214
X42.469Y-98.641
X43.104Y-117.704
X43.574Y-60.554
X44.056Y-96.101
X44.171Y-79.604
X48.819Y-96.101
X49.454Y-115.164
X49.924Y-58.014
X50.521Y-77.064
X57.556Y-35.242
X62.628Y-60.554
X63.906Y-32.703
X67.983Y-79.604
X68.656Y-98.654
X68.978Y-58.014
X74.028Y-117.691
X74.333Y-77.064
X75.006Y-96.114
X76.619Y-35.23
X80.378Y-115.151
X81.674Y-59.068
X82.969Y-32.69
X88.024Y-56.528
X89.092Y-79.197
X89.791Y-98.831
X93.499Y-138.552
X95.125Y-119.431
X95.832Y-78.033
X95.836Y-139.052
X96.53Y-97.667
X98.033Y-37.274
X100.238Y-137.388
X101.864Y-118.267
X102.376Y-62.535
X102.575Y-137.888
X104.772Y-36.11
X107.723Y-83.16
X108.422Y-102.794
X109.116Y-61.371
X113.743Y-123.38
X114.462Y-81.995
X115.161Y-101.63
X116.651Y-41.224
X120.482Y-122.216
X121.007Y-66.51
X123.391Y-40.06
X126.115Y-145.491
X126.341Y-87.135
X127.014Y-106.718
X127.747Y-65.346
X128.437Y-145.986
X132.387Y-127.343
X132.855Y-144.327
X133.081Y-85.97
X133.754Y-105.554
X135.176Y-144.822
X139.126Y-126.179
X139.651Y-70.472
X139.918Y-46.19
X144.985Y-91.046
X145.658Y-110.68
X146.39Y-69.308
X146.657Y-45.026
X151.017Y-131.293
X151.724Y-89.882
X152.397Y-109.516
X156.39Y-151.917
X157.757Y-130.128
X158.295Y-74.409
X158.536Y-50.152
X163.129Y-150.753
X165.034Y-73.245
X165.275Y-48.988
X178.596Y-135.853
X180.009Y-96.606
X184.28Y-132.048
X185.064Y-51.724
X185.356Y-75.994
X185.693Y-92.801
X188.62Y-114.246
X190.747Y-47.919
X191.039Y-72.189
X194.303Y-110.441
X197.231Y-131.899
X198.628Y-92.631
X202.914Y-128.094
X203.695Y-47.761
X204.0Y-72.044
X204.311Y-88.826
X207.251Y-110.271
X208.191Y-149.019
X209.378Y-43.957
X209.683Y-68.239
X212.934Y-106.466
X213.874Y-145.214
X215.874Y-127.924
X217.246Y-88.681
X221.557Y-124.119
X222.605Y-68.069
X222.929Y-84.876
X225.882Y-106.296
X226.974Y-42.808
X228.288Y-64.264
X231.565Y-102.491
X232.657Y-39.004
X234.492Y-123.961
X235.877Y-84.718
X240.176Y-120.157
X241.262Y-64.132
X241.56Y-80.914
X244.487Y-102.359
X245.605Y-38.846
X246.945Y-60.327
X247.777Y-140.611
X250.171Y-98.554
X251.288Y-35.041
X253.136Y-119.999
X253.46Y-136.806
X254.508Y-80.769
X258.819Y-116.194
X260.191Y-76.964
X261.76Y-59.055
X265.43Y-98.666
X266.814Y-35.255
X268.11Y-56.515
X271.78Y-96.126
X273.164Y-32.715
X274.955Y-117.691
X275.45Y-79.591
X280.797Y-60.554
X281.305Y-115.151
X281.8Y-77.051
X284.48Y-98.666
X285.877Y-35.255
X287.147Y-58.014
X290.83Y-96.126
X292.227Y-32.715
X294.488Y-79.591
X299.86Y-60.554
X300.838Y-77.051
X301.168Y-117.704
X306.21Y-58.014
X307.518Y-115.164
X309.372Y-60.541
X312.445Y-36.754
X313.042Y-141.503
X315.43Y-98.641
X315.722Y-58.001
X318.3Y-79.604
X318.795Y-34.214
X318.897Y-60.541
X319.392Y-138.963
X321.78Y-96.101
X324.65Y-77.064
X325.247Y-58.001
X332.105Y-122.453
X332.105Y-141.503
X338.455Y-119.913
X338.455Y-138.963
X338.506Y-36.741
X342.722Y-55.791
X344.856Y-34.201
X346.875Y-74.828
X349.072Y-53.251
X351.142Y-93.878
X351.155Y-141.503
X353.225Y-72.288
X357.492Y-91.338
X357.505Y-138.963
T6
X52.324Y-139.573
X56.896Y-72.644
X111.76Y-145.034
X121.827Y-27.933
X229.193Y-27.933
X240.665Y-144.526
X337.058Y-48.768
X345.44Y-134.493
T2
X171.202Y-25.775G85X171.202Y-26.575
G05
X171.202Y-28.805G85X171.202Y-30.305
G05
X179.852Y-25.775G85X179.852Y-26.575
G05
X179.852Y-28.805G85X179.852Y-30.305
G05
T0
M30
