G04 #@! TF.GenerationSoftware,KiCad,Pcbnew,7.0.6*
G04 #@! TF.CreationDate,2023-09-10T15:29:38-07:00*
G04 #@! TF.ProjectId,keyjoy,6b65796a-6f79-42e6-9b69-6361645f7063,rev?*
G04 #@! TF.SameCoordinates,Original*
G04 #@! TF.FileFunction,Soldermask,Bot*
G04 #@! TF.FilePolarity,Negative*
%FSLAX46Y46*%
G04 Gerber Fmt 4.6, Leading zero omitted, Abs format (unit mm)*
G04 Created by KiCad (PCBNEW 7.0.6) date 2023-09-10 15:29:38*
%MOMM*%
%LPD*%
G01*
G04 APERTURE LIST*
G04 Aperture macros list*
%AMRoundRect*
0 Rectangle with rounded corners*
0 $1 Rounding radius*
0 $2 $3 $4 $5 $6 $7 $8 $9 X,Y pos of 4 corners*
0 Add a 4 corners polygon primitive as box body*
4,1,4,$2,$3,$4,$5,$6,$7,$8,$9,$2,$3,0*
0 Add four circle primitives for the rounded corners*
1,1,$1+$1,$2,$3*
1,1,$1+$1,$4,$5*
1,1,$1+$1,$6,$7*
1,1,$1+$1,$8,$9*
0 Add four rect primitives between the rounded corners*
20,1,$1+$1,$2,$3,$4,$5,0*
20,1,$1+$1,$4,$5,$6,$7,0*
20,1,$1+$1,$6,$7,$8,$9,0*
20,1,$1+$1,$8,$9,$2,$3,0*%
G04 Aperture macros list end*
%ADD10C,2.200000*%
%ADD11C,1.750000*%
%ADD12C,3.050000*%
%ADD13C,4.000000*%
%ADD14RoundRect,0.250000X-1.025000X-1.000000X1.025000X-1.000000X1.025000X1.000000X-1.025000X1.000000X0*%
%ADD15R,1.600000X1.600000*%
%ADD16R,1.200000X1.200000*%
%ADD17C,1.600000*%
%ADD18C,3.048000*%
%ADD19C,3.987800*%
%ADD20C,1.778000*%
%ADD21C,2.286000*%
%ADD22R,2.000000X2.000000*%
%ADD23C,2.000000*%
%ADD24R,3.200000X2.000000*%
%ADD25O,1.800000X1.800000*%
%ADD26O,1.500000X1.500000*%
%ADD27O,1.700000X1.700000*%
%ADD28R,3.500000X1.700000*%
%ADD29R,1.700000X1.700000*%
%ADD30R,1.700000X3.500000*%
G04 APERTURE END LIST*
D10*
X473446343Y-233040507D03*
X359815515Y-198067607D03*
X235151451Y-197955674D03*
X434598680Y-256462294D03*
X309908484Y-258101192D03*
X153198851Y-262955216D03*
X478892808Y-155216776D03*
X310902609Y-155843338D03*
X153007997Y-155385471D03*
D11*
X239567590Y-226542334D03*
D12*
X240837590Y-224002334D03*
D13*
X244647590Y-226542334D03*
D12*
X247187590Y-221462334D03*
D11*
X249727590Y-226542334D03*
D14*
X237562590Y-224002334D03*
D15*
X252347590Y-230352334D03*
D16*
X252367590Y-228152334D03*
D14*
X250489590Y-221462334D03*
D17*
X252347590Y-222552334D03*
D16*
X252367590Y-225002334D03*
D18*
X406630840Y-200437334D03*
D19*
X406630840Y-215647334D03*
D18*
X430506840Y-200437334D03*
D19*
X430506840Y-215647334D03*
D11*
X277667590Y-226542334D03*
D12*
X278937590Y-224002334D03*
D13*
X282747590Y-226542334D03*
D12*
X285287590Y-221462334D03*
D11*
X287827590Y-226542334D03*
D14*
X275662590Y-224002334D03*
D15*
X290447590Y-230352334D03*
D16*
X290467590Y-228152334D03*
D14*
X288589590Y-221462334D03*
D17*
X290447590Y-222552334D03*
D16*
X290467590Y-225002334D03*
D11*
X287192590Y-207492334D03*
D12*
X288462590Y-204952334D03*
D13*
X292272590Y-207492334D03*
D12*
X294812590Y-202412334D03*
D11*
X297352590Y-207492334D03*
D14*
X285187590Y-204952334D03*
D15*
X299972590Y-211302334D03*
D16*
X299992590Y-209102334D03*
D14*
X298114590Y-202412334D03*
D17*
X299972590Y-203502334D03*
D16*
X299992590Y-205952334D03*
D11*
X177655090Y-169392334D03*
D12*
X178925090Y-166852334D03*
D13*
X182735090Y-169392334D03*
D12*
X185275090Y-164312334D03*
D11*
X187815090Y-169392334D03*
D14*
X175650090Y-166852334D03*
D15*
X190435090Y-173202334D03*
D16*
X190455090Y-171002334D03*
D14*
X188577090Y-164312334D03*
D17*
X190435090Y-165402334D03*
D16*
X190455090Y-167852334D03*
D11*
X415870090Y-169322334D03*
D12*
X417140090Y-166782334D03*
D13*
X420950090Y-169322334D03*
D12*
X423490090Y-164242334D03*
D11*
X426030090Y-169322334D03*
D14*
X413865090Y-166782334D03*
X426792090Y-164242334D03*
D11*
X191942590Y-207492334D03*
D12*
X193212590Y-204952334D03*
D13*
X197022590Y-207492334D03*
D12*
X199562590Y-202412334D03*
D11*
X202102590Y-207492334D03*
D14*
X189937590Y-204952334D03*
D15*
X204722590Y-211302334D03*
D16*
X204742590Y-209102334D03*
D14*
X202864590Y-202412334D03*
D17*
X204722590Y-203502334D03*
D16*
X204742590Y-205952334D03*
D11*
X306242590Y-207492334D03*
D12*
X307512590Y-204952334D03*
D13*
X311322590Y-207492334D03*
D12*
X313862590Y-202412334D03*
D11*
X316402590Y-207492334D03*
D14*
X304237590Y-204952334D03*
D15*
X319022590Y-211302334D03*
D16*
X319042590Y-209102334D03*
D14*
X317164590Y-202412334D03*
D17*
X319022590Y-203502334D03*
D16*
X319042590Y-205952334D03*
D11*
X320530090Y-188442334D03*
D12*
X321800090Y-185902334D03*
D13*
X325610090Y-188442334D03*
D12*
X328150090Y-183362334D03*
D11*
X330690090Y-188442334D03*
D14*
X318525090Y-185902334D03*
D15*
X333310090Y-192252334D03*
D16*
X333330090Y-190052334D03*
D14*
X331452090Y-183362334D03*
D17*
X333310090Y-184452334D03*
D16*
X333330090Y-186902334D03*
D11*
X184888840Y-245522334D03*
D12*
X186158840Y-242982334D03*
D13*
X189968840Y-245522334D03*
D12*
X192508840Y-240442334D03*
D11*
X195048840Y-245522334D03*
D14*
X182883840Y-242982334D03*
X195810840Y-240442334D03*
D20*
X393391235Y-240824521D03*
X399741235Y-240844321D03*
X393391235Y-245764521D03*
X399751235Y-245784521D03*
X394041235Y-260514521D03*
X396581235Y-260534521D03*
X399121235Y-260514521D03*
D21*
X390216235Y-246574521D03*
X390216235Y-256704521D03*
X402916235Y-256719321D03*
X402916235Y-246559321D03*
D20*
X387676235Y-249099321D03*
X387661235Y-251624521D03*
X387661235Y-254164521D03*
D11*
X444355090Y-245592334D03*
D12*
X445625090Y-243052334D03*
D13*
X449435090Y-245592334D03*
D12*
X451975090Y-240512334D03*
D11*
X454515090Y-245592334D03*
D14*
X442350090Y-243052334D03*
D15*
X457135090Y-249402334D03*
D16*
X457155090Y-247202334D03*
D14*
X455277090Y-240512334D03*
D17*
X457135090Y-241602334D03*
D16*
X457155090Y-244052334D03*
D11*
X463405090Y-245592334D03*
D12*
X464675090Y-243052334D03*
D13*
X468485090Y-245592334D03*
D12*
X471025090Y-240512334D03*
D11*
X473565090Y-245592334D03*
D14*
X461400090Y-243052334D03*
D15*
X476185090Y-249402334D03*
D16*
X476205090Y-247202334D03*
D14*
X474327090Y-240512334D03*
D17*
X476185090Y-241602334D03*
D16*
X476205090Y-244052334D03*
D11*
X165838840Y-207422334D03*
D12*
X167108840Y-204882334D03*
D13*
X170918840Y-207422334D03*
D12*
X173458840Y-202342334D03*
D11*
X175998840Y-207422334D03*
D14*
X163833840Y-204882334D03*
X176760840Y-202342334D03*
D18*
X235237077Y-238537033D03*
D19*
X235237077Y-253747033D03*
D18*
X335237077Y-238537033D03*
D19*
X335237077Y-253747033D03*
D11*
X387205090Y-169392334D03*
D12*
X388475090Y-166852334D03*
D13*
X392285090Y-169392334D03*
D12*
X394825090Y-164312334D03*
D11*
X397365090Y-169392334D03*
D14*
X385200090Y-166852334D03*
D15*
X399985090Y-173202334D03*
D16*
X400005090Y-171002334D03*
D14*
X398127090Y-164312334D03*
D17*
X399985090Y-165402334D03*
D16*
X400005090Y-167852334D03*
D11*
X208701340Y-245522334D03*
D12*
X209971340Y-242982334D03*
D13*
X213781340Y-245522334D03*
D12*
X216321340Y-240442334D03*
D11*
X218861340Y-245522334D03*
D14*
X206696340Y-242982334D03*
X219623340Y-240442334D03*
D11*
X315767590Y-226542334D03*
D12*
X317037590Y-224002334D03*
D13*
X320847590Y-226542334D03*
D12*
X323387590Y-221462334D03*
D11*
X325927590Y-226542334D03*
D14*
X313762590Y-224002334D03*
D15*
X328547590Y-230352334D03*
D16*
X328567590Y-228152334D03*
D14*
X326689590Y-221462334D03*
D17*
X328547590Y-222552334D03*
D16*
X328567590Y-225002334D03*
D11*
X413488840Y-207422334D03*
D12*
X414758840Y-204882334D03*
D13*
X418568840Y-207422334D03*
D12*
X421108840Y-202342334D03*
D11*
X423648840Y-207422334D03*
D14*
X411483840Y-204882334D03*
X424410840Y-202342334D03*
D11*
X408726340Y-226472334D03*
D12*
X409996340Y-223932334D03*
D13*
X413806340Y-226472334D03*
D12*
X416346340Y-221392334D03*
D11*
X418886340Y-226472334D03*
D14*
X406721340Y-223932334D03*
X419648340Y-221392334D03*
D11*
X280138840Y-245522334D03*
D12*
X281408840Y-242982334D03*
D13*
X285218840Y-245522334D03*
D12*
X287758840Y-240442334D03*
D11*
X290298840Y-245522334D03*
D14*
X278133840Y-242982334D03*
X291060840Y-240442334D03*
D11*
X253855090Y-169392334D03*
D12*
X255125090Y-166852334D03*
D13*
X258935090Y-169392334D03*
D12*
X261475090Y-164312334D03*
D11*
X264015090Y-169392334D03*
D14*
X251850090Y-166852334D03*
D15*
X266635090Y-173202334D03*
D16*
X266655090Y-171002334D03*
D14*
X264777090Y-164312334D03*
D17*
X266635090Y-165402334D03*
D16*
X266655090Y-167852334D03*
D11*
X220517590Y-226542334D03*
D12*
X221787590Y-224002334D03*
D13*
X225597590Y-226542334D03*
D12*
X228137590Y-221462334D03*
D11*
X230677590Y-226542334D03*
D14*
X218512590Y-224002334D03*
D15*
X233297590Y-230352334D03*
D16*
X233317590Y-228152334D03*
D14*
X231439590Y-221462334D03*
D17*
X233297590Y-222552334D03*
D16*
X233317590Y-225002334D03*
D11*
X353867590Y-226542334D03*
D12*
X355137590Y-224002334D03*
D13*
X358947590Y-226542334D03*
D12*
X361487590Y-221462334D03*
D11*
X364027590Y-226542334D03*
D14*
X351862590Y-224002334D03*
D15*
X366647590Y-230352334D03*
D16*
X366667590Y-228152334D03*
D14*
X364789590Y-221462334D03*
D17*
X366647590Y-222552334D03*
D16*
X366667590Y-225002334D03*
D11*
X215755090Y-169392334D03*
D12*
X217025090Y-166852334D03*
D13*
X220835090Y-169392334D03*
D12*
X223375090Y-164312334D03*
D11*
X225915090Y-169392334D03*
D14*
X213750090Y-166852334D03*
D15*
X228535090Y-173202334D03*
D16*
X228555090Y-171002334D03*
D14*
X226677090Y-164312334D03*
D17*
X228535090Y-165402334D03*
D16*
X228555090Y-167852334D03*
D18*
X409012090Y-162337334D03*
D19*
X409012090Y-177547334D03*
D18*
X432888090Y-162337334D03*
D19*
X432888090Y-177547334D03*
D11*
X272905090Y-169392334D03*
D12*
X274175090Y-166852334D03*
D13*
X277985090Y-169392334D03*
D12*
X280525090Y-164312334D03*
D11*
X283065090Y-169392334D03*
D14*
X270900090Y-166852334D03*
D15*
X285685090Y-173202334D03*
D16*
X285705090Y-171002334D03*
D14*
X283827090Y-164312334D03*
D17*
X285685090Y-165402334D03*
D16*
X285705090Y-167852334D03*
D11*
X163457590Y-188372334D03*
D12*
X164727590Y-185832334D03*
D13*
X168537590Y-188372334D03*
D12*
X171077590Y-183292334D03*
D11*
X173617590Y-188372334D03*
D14*
X161452590Y-185832334D03*
X174379590Y-183292334D03*
D11*
X296717590Y-226542334D03*
D12*
X297987590Y-224002334D03*
D13*
X301797590Y-226542334D03*
D12*
X304337590Y-221462334D03*
D11*
X306877590Y-226542334D03*
D14*
X294712590Y-224002334D03*
D15*
X309497590Y-230352334D03*
D16*
X309517590Y-228152334D03*
D14*
X307639590Y-221462334D03*
D17*
X309497590Y-222552334D03*
D16*
X309517590Y-225002334D03*
D11*
X358630090Y-245592334D03*
D12*
X359900090Y-243052334D03*
D13*
X363710090Y-245592334D03*
D12*
X366250090Y-240512334D03*
D11*
X368790090Y-245592334D03*
D14*
X356625090Y-243052334D03*
D15*
X371410090Y-249402334D03*
D16*
X371430090Y-247202334D03*
D14*
X369552090Y-240512334D03*
D17*
X371410090Y-241602334D03*
D16*
X371430090Y-244052334D03*
D11*
X382442590Y-207492334D03*
D12*
X383712590Y-204952334D03*
D13*
X387522590Y-207492334D03*
D12*
X390062590Y-202412334D03*
D11*
X392602590Y-207492334D03*
D14*
X380437590Y-204952334D03*
D15*
X395222590Y-211302334D03*
D16*
X395242590Y-209102334D03*
D14*
X393364590Y-202412334D03*
D17*
X395222590Y-203502334D03*
D16*
X395242590Y-205952334D03*
D11*
X334817590Y-226542334D03*
D12*
X336087590Y-224002334D03*
D13*
X339897590Y-226542334D03*
D12*
X342437590Y-221462334D03*
D11*
X344977590Y-226542334D03*
D14*
X332812590Y-224002334D03*
D15*
X347597590Y-230352334D03*
D16*
X347617590Y-228152334D03*
D14*
X345739590Y-221462334D03*
D17*
X347597590Y-222552334D03*
D16*
X347617590Y-225002334D03*
D11*
X258617590Y-226542334D03*
D12*
X259887590Y-224002334D03*
D13*
X263697590Y-226542334D03*
D12*
X266237590Y-221462334D03*
D11*
X268777590Y-226542334D03*
D14*
X256612590Y-224002334D03*
D15*
X271397590Y-230352334D03*
D16*
X271417590Y-228152334D03*
D14*
X269539590Y-221462334D03*
D17*
X271397590Y-222552334D03*
D16*
X271417590Y-225002334D03*
D11*
X444355090Y-226542334D03*
D12*
X445625090Y-224002334D03*
D13*
X449435090Y-226542334D03*
D12*
X451975090Y-221462334D03*
D11*
X454515090Y-226542334D03*
D14*
X442350090Y-224002334D03*
D15*
X457135090Y-230352334D03*
D16*
X457155090Y-228152334D03*
D14*
X455277090Y-221462334D03*
D17*
X457135090Y-222552334D03*
D16*
X457155090Y-225002334D03*
D11*
X311005090Y-169392334D03*
D12*
X312275090Y-166852334D03*
D13*
X316085090Y-169392334D03*
D12*
X318625090Y-164312334D03*
D11*
X321165090Y-169392334D03*
D14*
X309000090Y-166852334D03*
D15*
X323785090Y-173202334D03*
D16*
X323805090Y-171002334D03*
D14*
X321927090Y-164312334D03*
D17*
X323785090Y-165402334D03*
D16*
X323805090Y-167852334D03*
D11*
X161076340Y-245522334D03*
D12*
X162346340Y-242982334D03*
D13*
X166156340Y-245522334D03*
D12*
X168696340Y-240442334D03*
D11*
X171236340Y-245522334D03*
D14*
X159071340Y-242982334D03*
X171998340Y-240442334D03*
D11*
X158605090Y-169392334D03*
D12*
X159875090Y-166852334D03*
D13*
X163685090Y-169392334D03*
D12*
X166225090Y-164312334D03*
D11*
X168765090Y-169392334D03*
D14*
X156600090Y-166852334D03*
D15*
X171385090Y-173202334D03*
D16*
X171405090Y-171002334D03*
D14*
X169527090Y-164312334D03*
D17*
X171385090Y-165402334D03*
D16*
X171405090Y-167852334D03*
D22*
X454961348Y-186000862D03*
D23*
X454961348Y-191000862D03*
X454961348Y-188500862D03*
D24*
X462461348Y-182900862D03*
X462461348Y-194100862D03*
D23*
X469461348Y-191000862D03*
X469461348Y-186000862D03*
D11*
X244330090Y-188442334D03*
D12*
X245600090Y-185902334D03*
D13*
X249410090Y-188442334D03*
D12*
X251950090Y-183362334D03*
D11*
X254490090Y-188442334D03*
D14*
X242325090Y-185902334D03*
D15*
X257110090Y-192252334D03*
D16*
X257130090Y-190052334D03*
D14*
X255252090Y-183362334D03*
D17*
X257110090Y-184452334D03*
D16*
X257130090Y-186902334D03*
D11*
X358630090Y-188442334D03*
D12*
X359900090Y-185902334D03*
D13*
X363710090Y-188442334D03*
D12*
X366250090Y-183362334D03*
D11*
X368790090Y-188442334D03*
D14*
X356625090Y-185902334D03*
D15*
X371410090Y-192252334D03*
D16*
X371430090Y-190052334D03*
D14*
X369552090Y-183362334D03*
D17*
X371410090Y-184452334D03*
D16*
X371430090Y-186902334D03*
D11*
X206230090Y-188442334D03*
D12*
X207500090Y-185902334D03*
D13*
X211310090Y-188442334D03*
D12*
X213850090Y-183362334D03*
D11*
X216390090Y-188442334D03*
D14*
X204225090Y-185902334D03*
D15*
X219010090Y-192252334D03*
D16*
X219030090Y-190052334D03*
D14*
X217152090Y-183362334D03*
D17*
X219010090Y-184452334D03*
D16*
X219030090Y-186902334D03*
D11*
X282430090Y-188442334D03*
D12*
X283700090Y-185902334D03*
D13*
X287510090Y-188442334D03*
D12*
X290050090Y-183362334D03*
D11*
X292590090Y-188442334D03*
D14*
X280425090Y-185902334D03*
D15*
X295210090Y-192252334D03*
D16*
X295230090Y-190052334D03*
D14*
X293352090Y-183362334D03*
D17*
X295210090Y-184452334D03*
D16*
X295230090Y-186902334D03*
D11*
X325292590Y-207492334D03*
D12*
X326562590Y-204952334D03*
D13*
X330372590Y-207492334D03*
D12*
X332912590Y-202412334D03*
D11*
X335452590Y-207492334D03*
D14*
X323287590Y-204952334D03*
D15*
X338072590Y-211302334D03*
D16*
X338092590Y-209102334D03*
D14*
X336214590Y-202412334D03*
D17*
X338072590Y-203502334D03*
D16*
X338092590Y-205952334D03*
D11*
X349105090Y-169392334D03*
D12*
X350375090Y-166852334D03*
D13*
X354185090Y-169392334D03*
D12*
X356725090Y-164312334D03*
D11*
X359265090Y-169392334D03*
D14*
X347100090Y-166852334D03*
D15*
X361885090Y-173202334D03*
D16*
X361905090Y-171002334D03*
D14*
X360027090Y-164312334D03*
D17*
X361885090Y-165402334D03*
D16*
X361905090Y-167852334D03*
D11*
X268142590Y-207492334D03*
D12*
X269412590Y-204952334D03*
D13*
X273222590Y-207492334D03*
D12*
X275762590Y-202412334D03*
D11*
X278302590Y-207492334D03*
D14*
X266137590Y-204952334D03*
D15*
X280922590Y-211302334D03*
D16*
X280942590Y-209102334D03*
D14*
X279064590Y-202412334D03*
D17*
X280922590Y-203502334D03*
D16*
X280942590Y-205952334D03*
D11*
X344342590Y-207492334D03*
D12*
X345612590Y-204952334D03*
D13*
X349422590Y-207492334D03*
D12*
X351962590Y-202412334D03*
D11*
X354502590Y-207492334D03*
D14*
X342337590Y-204952334D03*
D15*
X357122590Y-211302334D03*
D16*
X357142590Y-209102334D03*
D14*
X355264590Y-202412334D03*
D17*
X357122590Y-203502334D03*
D16*
X357142590Y-205952334D03*
D11*
X201467590Y-226542334D03*
D12*
X202737590Y-224002334D03*
D13*
X206547590Y-226542334D03*
D12*
X209087590Y-221462334D03*
D11*
X211627590Y-226542334D03*
D14*
X199462590Y-224002334D03*
D15*
X214247590Y-230352334D03*
D16*
X214267590Y-228152334D03*
D14*
X212389590Y-221462334D03*
D17*
X214247590Y-222552334D03*
D16*
X214267590Y-225002334D03*
D11*
X330055090Y-169392334D03*
D12*
X331325090Y-166852334D03*
D13*
X335135090Y-169392334D03*
D12*
X337675090Y-164312334D03*
D11*
X340215090Y-169392334D03*
D14*
X328050090Y-166852334D03*
D15*
X342835090Y-173202334D03*
D16*
X342855090Y-171002334D03*
D14*
X340977090Y-164312334D03*
D17*
X342835090Y-165402334D03*
D16*
X342855090Y-167852334D03*
D11*
X234805090Y-169392334D03*
D12*
X236075090Y-166852334D03*
D13*
X239885090Y-169392334D03*
D12*
X242425090Y-164312334D03*
D11*
X244965090Y-169392334D03*
D14*
X232800090Y-166852334D03*
D15*
X247585090Y-173202334D03*
D16*
X247605090Y-171002334D03*
D14*
X245727090Y-164312334D03*
D17*
X247585090Y-165402334D03*
D16*
X247605090Y-167852334D03*
D18*
X163743340Y-219487334D03*
D19*
X163743340Y-234697334D03*
D18*
X187619340Y-219487334D03*
D19*
X187619340Y-234697334D03*
D11*
X372917590Y-226542334D03*
D12*
X374187590Y-224002334D03*
D13*
X377997590Y-226542334D03*
D12*
X380537590Y-221462334D03*
D11*
X383077590Y-226542334D03*
D14*
X370912590Y-224002334D03*
D15*
X385697590Y-230352334D03*
D16*
X385717590Y-228152334D03*
D14*
X383839590Y-221462334D03*
D17*
X385697590Y-222552334D03*
D16*
X385717590Y-225002334D03*
D11*
X210992590Y-207492334D03*
D12*
X212262590Y-204952334D03*
D13*
X216072590Y-207492334D03*
D12*
X218612590Y-202412334D03*
D11*
X221152590Y-207492334D03*
D14*
X208987590Y-204952334D03*
D15*
X223772590Y-211302334D03*
D16*
X223792590Y-209102334D03*
D14*
X221914590Y-202412334D03*
D17*
X223772590Y-203502334D03*
D16*
X223792590Y-205952334D03*
D11*
X339580090Y-188442334D03*
D12*
X340850090Y-185902334D03*
D13*
X344660090Y-188442334D03*
D12*
X347200090Y-183362334D03*
D11*
X349740090Y-188442334D03*
D14*
X337575090Y-185902334D03*
D15*
X352360090Y-192252334D03*
D16*
X352380090Y-190052334D03*
D14*
X350502090Y-183362334D03*
D17*
X352360090Y-184452334D03*
D16*
X352380090Y-186902334D03*
D11*
X249092590Y-207492334D03*
D12*
X250362590Y-204952334D03*
D13*
X254172590Y-207492334D03*
D12*
X256712590Y-202412334D03*
D11*
X259252590Y-207492334D03*
D14*
X247087590Y-204952334D03*
D15*
X261872590Y-211302334D03*
D16*
X261892590Y-209102334D03*
D14*
X260014590Y-202412334D03*
D17*
X261872590Y-203502334D03*
D16*
X261892590Y-205952334D03*
D11*
X377680090Y-188442334D03*
D12*
X378950090Y-185902334D03*
D13*
X382760090Y-188442334D03*
D12*
X385300090Y-183362334D03*
D11*
X387840090Y-188442334D03*
D14*
X375675090Y-185902334D03*
D15*
X390460090Y-192252334D03*
D16*
X390480090Y-190052334D03*
D14*
X388602090Y-183362334D03*
D17*
X390460090Y-184452334D03*
D16*
X390480090Y-186902334D03*
D11*
X425305090Y-245592334D03*
D12*
X426575090Y-243052334D03*
D13*
X430385090Y-245592334D03*
D12*
X432925090Y-240512334D03*
D11*
X435465090Y-245592334D03*
D14*
X423300090Y-243052334D03*
D15*
X438085090Y-249402334D03*
D16*
X438105090Y-247202334D03*
D14*
X436227090Y-240512334D03*
D17*
X438085090Y-241602334D03*
D16*
X438105090Y-244052334D03*
D11*
X170601340Y-226472334D03*
D12*
X171871340Y-223932334D03*
D13*
X175681340Y-226472334D03*
D12*
X178221340Y-221392334D03*
D11*
X180761340Y-226472334D03*
D14*
X168596340Y-223932334D03*
X181523340Y-221392334D03*
D11*
X420632590Y-188372334D03*
D12*
X421902590Y-185832334D03*
D13*
X425712590Y-188372334D03*
D12*
X428252590Y-183292334D03*
D11*
X430792590Y-188372334D03*
D14*
X418627590Y-185832334D03*
X431554590Y-183292334D03*
D11*
X301480090Y-188442334D03*
D12*
X302750090Y-185902334D03*
D13*
X306560090Y-188442334D03*
D12*
X309100090Y-183362334D03*
D11*
X311640090Y-188442334D03*
D14*
X299475090Y-185902334D03*
D15*
X314260090Y-192252334D03*
D16*
X314280090Y-190052334D03*
D14*
X312402090Y-183362334D03*
D17*
X314260090Y-184452334D03*
D16*
X314280090Y-186902334D03*
D11*
X187180090Y-188442334D03*
D12*
X188450090Y-185902334D03*
D13*
X192260090Y-188442334D03*
D12*
X194800090Y-183362334D03*
D11*
X197340090Y-188442334D03*
D14*
X185175090Y-185902334D03*
D15*
X199960090Y-192252334D03*
D16*
X199980090Y-190052334D03*
D14*
X198102090Y-183362334D03*
D17*
X199960090Y-184452334D03*
D16*
X199980090Y-186902334D03*
D11*
X363392590Y-207492334D03*
D12*
X364662590Y-204952334D03*
D13*
X368472590Y-207492334D03*
D12*
X371012590Y-202412334D03*
D11*
X373552590Y-207492334D03*
D14*
X361387590Y-204952334D03*
D15*
X376172590Y-211302334D03*
D16*
X376192590Y-209102334D03*
D14*
X374314590Y-202412334D03*
D17*
X376172590Y-203502334D03*
D16*
X376192590Y-205952334D03*
D11*
X225280090Y-188442334D03*
D12*
X226550090Y-185902334D03*
D13*
X230360090Y-188442334D03*
D12*
X232900090Y-183362334D03*
D11*
X235440090Y-188442334D03*
D14*
X223275090Y-185902334D03*
D15*
X238060090Y-192252334D03*
D16*
X238080090Y-190052334D03*
D14*
X236202090Y-183362334D03*
D17*
X238060090Y-184452334D03*
D16*
X238080090Y-186902334D03*
D11*
X291955090Y-169392334D03*
D12*
X293225090Y-166852334D03*
D13*
X297035090Y-169392334D03*
D12*
X299575090Y-164312334D03*
D11*
X302115090Y-169392334D03*
D14*
X289950090Y-166852334D03*
D15*
X304735090Y-173202334D03*
D16*
X304755090Y-171002334D03*
D14*
X302877090Y-164312334D03*
D17*
X304735090Y-165402334D03*
D16*
X304755090Y-167852334D03*
D11*
X196705090Y-169392334D03*
D12*
X197975090Y-166852334D03*
D13*
X201785090Y-169392334D03*
D12*
X204325090Y-164312334D03*
D11*
X206865090Y-169392334D03*
D14*
X194700090Y-166852334D03*
D15*
X209485090Y-173202334D03*
D16*
X209505090Y-171002334D03*
D14*
X207627090Y-164312334D03*
D17*
X209485090Y-165402334D03*
D16*
X209505090Y-167852334D03*
D11*
X230042590Y-207492334D03*
D12*
X231312590Y-204952334D03*
D13*
X235122590Y-207492334D03*
D12*
X237662590Y-202412334D03*
D11*
X240202590Y-207492334D03*
D14*
X228037590Y-204952334D03*
D15*
X242822590Y-211302334D03*
D16*
X242842590Y-209102334D03*
D14*
X240964590Y-202412334D03*
D17*
X242822590Y-203502334D03*
D16*
X242842590Y-205952334D03*
D11*
X396730090Y-188442334D03*
D12*
X398000090Y-185902334D03*
D13*
X401810090Y-188442334D03*
D12*
X404350090Y-183362334D03*
D11*
X406890090Y-188442334D03*
D14*
X394725090Y-185902334D03*
D15*
X409510090Y-192252334D03*
D16*
X409530090Y-190052334D03*
D14*
X407652090Y-183362334D03*
D17*
X409510090Y-184452334D03*
D16*
X409530090Y-186902334D03*
D11*
X263380090Y-188442334D03*
D12*
X264650090Y-185902334D03*
D13*
X268460090Y-188442334D03*
D12*
X271000090Y-183362334D03*
D11*
X273540090Y-188442334D03*
D14*
X261375090Y-185902334D03*
D15*
X276160090Y-192252334D03*
D16*
X276180090Y-190052334D03*
D14*
X274302090Y-183362334D03*
D17*
X276160090Y-184452334D03*
D16*
X276180090Y-186902334D03*
D11*
X368155090Y-169392334D03*
D12*
X369425090Y-166852334D03*
D13*
X373235090Y-169392334D03*
D12*
X375775090Y-164312334D03*
D11*
X378315090Y-169392334D03*
D14*
X366150090Y-166852334D03*
D15*
X380935090Y-173202334D03*
D16*
X380955090Y-171002334D03*
D14*
X379077090Y-164312334D03*
D17*
X380935090Y-165402334D03*
D16*
X380955090Y-167852334D03*
D18*
X401868340Y-219487334D03*
D19*
X401868340Y-234697334D03*
D18*
X425744340Y-219487334D03*
D19*
X425744340Y-234697334D03*
D15*
X428622763Y-173239635D03*
D16*
X428622763Y-170914635D03*
X428622763Y-167764635D03*
D17*
X428622763Y-165439635D03*
D15*
X433428817Y-192219003D03*
D16*
X433428817Y-189894003D03*
X433428817Y-186744003D03*
D17*
X433428817Y-184419003D03*
D15*
X197534122Y-249389286D03*
D16*
X197534122Y-247064286D03*
X197534122Y-243914286D03*
D17*
X197534122Y-241589286D03*
D15*
X183298640Y-230471413D03*
D16*
X183298640Y-228146413D03*
X183298640Y-224996413D03*
D17*
X183298640Y-222671413D03*
D15*
X421229467Y-230457573D03*
D16*
X421229467Y-228132573D03*
X421229467Y-224982573D03*
D17*
X421229467Y-222657573D03*
D15*
X173734708Y-249487226D03*
D16*
X173734708Y-247162226D03*
X173734708Y-244012226D03*
D17*
X173734708Y-241687226D03*
D15*
X176274940Y-192176878D03*
D16*
X176274940Y-189851878D03*
X176274940Y-186701878D03*
D17*
X176274940Y-184376878D03*
D15*
X292759326Y-249511273D03*
D16*
X292759326Y-247186273D03*
X292759326Y-244036273D03*
D17*
X292759326Y-241711273D03*
D25*
X459190420Y-165192046D03*
D26*
X458890420Y-168222046D03*
X454040420Y-168222046D03*
D25*
X453740420Y-165192046D03*
D27*
X465355420Y-165062046D03*
D28*
X466255420Y-165062046D03*
D27*
X465355420Y-167602046D03*
D28*
X466255420Y-167602046D03*
D29*
X465355420Y-170142046D03*
D28*
X466255420Y-170142046D03*
D27*
X465355420Y-172682046D03*
D28*
X466255420Y-172682046D03*
D27*
X465355420Y-175222046D03*
D28*
X466255420Y-175222046D03*
D27*
X465355420Y-177762046D03*
D28*
X466255420Y-177762046D03*
D27*
X465355420Y-180302046D03*
D28*
X466255420Y-180302046D03*
D29*
X465355420Y-182842046D03*
D28*
X466255420Y-182842046D03*
D27*
X465355420Y-185382046D03*
D28*
X466255420Y-185382046D03*
D27*
X465355420Y-187922046D03*
D28*
X466255420Y-187922046D03*
D27*
X465355420Y-190462046D03*
D28*
X466255420Y-190462046D03*
D27*
X465355420Y-193002046D03*
D28*
X466255420Y-193002046D03*
D29*
X465355420Y-195542046D03*
D28*
X466255420Y-195542046D03*
D27*
X465355420Y-198082046D03*
D28*
X466255420Y-198082046D03*
D27*
X465355420Y-200622046D03*
D28*
X466255420Y-200622046D03*
D27*
X465355420Y-203162046D03*
D28*
X466255420Y-203162046D03*
D27*
X465355420Y-205702046D03*
D28*
X466255420Y-205702046D03*
D29*
X465355420Y-208242046D03*
D28*
X466255420Y-208242046D03*
D27*
X465355420Y-210782046D03*
D28*
X466255420Y-210782046D03*
D27*
X465355420Y-213322046D03*
D28*
X466255420Y-213322046D03*
D27*
X447575420Y-213322046D03*
D28*
X446675420Y-213322046D03*
D27*
X447575420Y-210782046D03*
D28*
X446675420Y-210782046D03*
D29*
X447575420Y-208242046D03*
D28*
X446675420Y-208242046D03*
D27*
X447575420Y-205702046D03*
D28*
X446675420Y-205702046D03*
D27*
X447575420Y-203162046D03*
D28*
X446675420Y-203162046D03*
D27*
X447575420Y-200622046D03*
D28*
X446675420Y-200622046D03*
D27*
X447575420Y-198082046D03*
D28*
X446675420Y-198082046D03*
D29*
X447575420Y-195542046D03*
D28*
X446675420Y-195542046D03*
D27*
X447575420Y-193002046D03*
D28*
X446675420Y-193002046D03*
D27*
X447575420Y-190462046D03*
D28*
X446675420Y-190462046D03*
D27*
X447575420Y-187922046D03*
D28*
X446675420Y-187922046D03*
D27*
X447575420Y-185382046D03*
D28*
X446675420Y-185382046D03*
D29*
X447575420Y-182842046D03*
D28*
X446675420Y-182842046D03*
D27*
X447575420Y-180302046D03*
D28*
X446675420Y-180302046D03*
D27*
X447575420Y-177762046D03*
D28*
X446675420Y-177762046D03*
D27*
X447575420Y-175222046D03*
D28*
X446675420Y-175222046D03*
D27*
X447575420Y-172682046D03*
D28*
X446675420Y-172682046D03*
D29*
X447575420Y-170142046D03*
D28*
X446675420Y-170142046D03*
D27*
X447575420Y-167602046D03*
D28*
X446675420Y-167602046D03*
D27*
X447575420Y-165062046D03*
D28*
X446675420Y-165062046D03*
D27*
X459005420Y-213092046D03*
D30*
X459005420Y-213992046D03*
D29*
X456465420Y-213092046D03*
D30*
X456465420Y-213992046D03*
D27*
X453925420Y-213092046D03*
D30*
X453925420Y-213992046D03*
D15*
X178632497Y-211093286D03*
D16*
X178632497Y-208768286D03*
X178632497Y-205618286D03*
D17*
X178632497Y-203293286D03*
D15*
X426248888Y-211242680D03*
D16*
X426248888Y-208917680D03*
X426248888Y-205767680D03*
D17*
X426248888Y-203442680D03*
D15*
X221333537Y-249578170D03*
D16*
X221333537Y-247253170D03*
X221333537Y-244103170D03*
D17*
X221333537Y-241778170D03*
M02*
