M48
; DRILL file {KiCad 7.0.6} date Sun Sep 10 15:29:37 2023
; FORMAT={-:-/ absolute / inch / decimal}
; #@! TF.CreationDate,2023-09-10T15:29:37-07:00
; #@! TF.GenerationSoftware,Kicad,Pcbnew,7.0.6
; #@! TF.FileFunction,NonPlated,1,2,NPTH
FMAT,2
INCH
; #@! TA.AperFunction,NonPlated,NPTH,ComponentDrill
T1C0.0591
; #@! TA.AperFunction,NonPlated,NPTH,ComponentDrill
T2C0.0689
; #@! TA.AperFunction,NonPlated,NPTH,ComponentDrill
T3C0.0709
; #@! TA.AperFunction,NonPlated,NPTH,ComponentDrill
T4C0.0866
; #@! TA.AperFunction,NonPlated,NPTH,ComponentDrill
T5C0.1200
; #@! TA.AperFunction,NonPlated,NPTH,ComponentDrill
T6C0.1201
; #@! TA.AperFunction,NonPlated,NPTH,ComponentDrill
T7C0.1570
; #@! TA.AperFunction,NonPlated,NPTH,ComponentDrill
T8C0.1575
%
G90
G05
T1
X17.8756Y-6.6229
X18.0666Y-6.6229
T2
X6.2443Y-6.669
X6.3416Y-9.6662
X6.4353Y-7.4162
X6.5291Y-8.1662
X6.6443Y-6.669
X6.7166Y-8.9162
X6.7416Y-9.6662
X6.8353Y-7.4162
X6.9291Y-8.1662
X6.9943Y-6.669
X7.1166Y-8.9162
X7.2791Y-9.6662
X7.3693Y-7.419
X7.3943Y-6.669
X7.5568Y-8.169
X7.6791Y-9.6662
X7.7443Y-6.669
X7.7693Y-7.419
X7.9318Y-8.919
X7.9568Y-8.169
X8.1193Y-7.419
X8.1443Y-6.669
X8.2166Y-9.6662
X8.3068Y-8.169
X8.3318Y-8.919
X8.4943Y-6.669
X8.5193Y-7.419
X8.6166Y-9.6662
X8.6818Y-8.919
X8.7068Y-8.169
X8.8693Y-7.419
X8.8943Y-6.669
X9.0568Y-8.169
X9.0818Y-8.919
X9.2443Y-6.669
X9.2693Y-7.419
X9.4318Y-8.919
X9.4568Y-8.169
X9.6193Y-7.419
X9.6443Y-6.669
X9.8068Y-8.169
X9.8318Y-8.919
X9.9943Y-6.669
X10.0193Y-7.419
X10.1818Y-8.919
X10.2068Y-8.169
X10.3693Y-7.419
X10.3943Y-6.669
X10.5568Y-8.169
X10.5818Y-8.919
X10.7443Y-6.669
X10.7693Y-7.419
X10.9318Y-8.919
X10.9568Y-8.169
X11.0291Y-9.6662
X11.1193Y-7.419
X11.1443Y-6.669
X11.3068Y-8.169
X11.3318Y-8.919
X11.4291Y-9.6662
X11.4943Y-6.669
X11.5193Y-7.419
X11.6818Y-8.919
X11.7068Y-8.169
X11.8693Y-7.419
X11.8943Y-6.669
X12.0568Y-8.169
X12.0818Y-8.919
X12.2443Y-6.669
X12.2693Y-7.419
X12.4318Y-8.919
X12.4568Y-8.169
X12.6193Y-7.419
X12.6443Y-6.669
X12.8068Y-8.169
X12.8318Y-8.919
X12.9943Y-6.669
X13.0193Y-7.419
X13.1818Y-8.919
X13.2068Y-8.169
X13.3693Y-7.419
X13.3943Y-6.669
X13.5568Y-8.169
X13.5818Y-8.919
X13.7443Y-6.669
X13.7693Y-7.419
X13.9318Y-8.919
X13.9568Y-8.169
X14.1193Y-7.419
X14.1193Y-9.669
X14.1443Y-6.669
X14.3068Y-8.169
X14.3318Y-8.919
X14.4943Y-6.669
X14.5193Y-7.419
X14.5193Y-9.669
X14.6818Y-8.919
X14.7068Y-8.169
X14.8693Y-7.419
X14.8943Y-6.669
X15.0568Y-8.169
X15.0818Y-8.919
X15.2443Y-6.669
X15.2693Y-7.419
X15.4568Y-8.169
X15.6193Y-7.419
X15.6443Y-6.669
X16.0193Y-7.419
X16.0916Y-8.9162
X16.2791Y-8.1662
X16.3728Y-6.6662
X16.4916Y-8.9162
X16.5603Y-7.4162
X16.6791Y-8.1662
X16.7443Y-9.669
X16.7728Y-6.6662
X16.9603Y-7.4162
X17.1443Y-9.669
X17.4943Y-8.919
X17.4943Y-9.669
X17.8943Y-8.919
X17.8943Y-9.669
X18.2443Y-9.669
X18.6443Y-9.669
T3
X17.8638Y-6.5036
X18.0784Y-6.5036
T4
X6.0239Y-6.1175
X6.0315Y-10.3526
X9.2579Y-7.7935
X12.2011Y-10.1615
X12.2403Y-6.1356
X14.166Y-7.7979
X17.1102Y-10.0969
X18.6396Y-9.1748
X18.854Y-6.1109
T5
X6.4466Y-8.6412
X7.3866Y-8.6412
X9.2613Y-9.3912
X13.1983Y-9.3912
X15.8216Y-8.6412
X16.0091Y-7.8912
X16.1028Y-6.3912
X16.7616Y-8.6412
X16.9491Y-7.8912
X17.0428Y-6.3912
T6
X6.2943Y-6.569
X6.3916Y-9.5662
X6.4853Y-7.3162
X6.5443Y-6.469
X6.5791Y-8.0662
X6.6416Y-9.4662
X6.7353Y-7.2162
X6.7666Y-8.8162
X6.8291Y-7.9662
X7.0166Y-8.7162
X7.0443Y-6.569
X7.2943Y-6.469
X7.3291Y-9.5662
X7.4193Y-7.319
X7.5791Y-9.4662
X7.6068Y-8.069
X7.6693Y-7.219
X7.7943Y-6.569
X7.8568Y-7.969
X7.9818Y-8.819
X8.0443Y-6.469
X8.1693Y-7.319
X8.2318Y-8.719
X8.2666Y-9.5662
X8.3568Y-8.069
X8.4193Y-7.219
X8.5166Y-9.4662
X8.5443Y-6.569
X8.6068Y-7.969
X8.7318Y-8.819
X8.7943Y-6.469
X8.9193Y-7.319
X8.9818Y-8.719
X9.1068Y-8.069
X9.1693Y-7.219
X9.2943Y-6.569
X9.3568Y-7.969
X9.4818Y-8.819
X9.5443Y-6.469
X9.6693Y-7.319
X9.7318Y-8.719
X9.8568Y-8.069
X9.9193Y-7.219
X10.0443Y-6.569
X10.1068Y-7.969
X10.2318Y-8.819
X10.2943Y-6.469
X10.4193Y-7.319
X10.4818Y-8.719
X10.6068Y-8.069
X10.6693Y-7.219
X10.7943Y-6.569
X10.8568Y-7.969
X10.9818Y-8.819
X11.0443Y-6.469
X11.0791Y-9.5662
X11.1693Y-7.319
X11.2318Y-8.719
X11.3291Y-9.4662
X11.3568Y-8.069
X11.4193Y-7.219
X11.5443Y-6.569
X11.6068Y-7.969
X11.7318Y-8.819
X11.7943Y-6.469
X11.9193Y-7.319
X11.9818Y-8.719
X12.1068Y-8.069
X12.1693Y-7.219
X12.2943Y-6.569
X12.3568Y-7.969
X12.4818Y-8.819
X12.5443Y-6.469
X12.6693Y-7.319
X12.7318Y-8.719
X12.8568Y-8.069
X12.9193Y-7.219
X13.0443Y-6.569
X13.1068Y-7.969
X13.2318Y-8.819
X13.2943Y-6.469
X13.4193Y-7.319
X13.4818Y-8.719
X13.6068Y-8.069
X13.6693Y-7.219
X13.7943Y-6.569
X13.8568Y-7.969
X13.9818Y-8.819
X14.0443Y-6.469
X14.1693Y-7.319
X14.1693Y-9.569
X14.2318Y-8.719
X14.3568Y-8.069
X14.4193Y-7.219
X14.4193Y-9.469
X14.5443Y-6.569
X14.6068Y-7.969
X14.7318Y-8.819
X14.7943Y-6.469
X14.9193Y-7.319
X14.9818Y-8.719
X15.1068Y-8.069
X15.1693Y-7.219
X15.2943Y-6.569
X15.3568Y-7.969
X15.5443Y-6.469
X15.6693Y-7.319
X15.9193Y-7.219
X16.1416Y-8.8162
X16.3291Y-8.0662
X16.3916Y-8.7162
X16.4228Y-6.5662
X16.5791Y-7.9662
X16.6103Y-7.3162
X16.6728Y-6.4662
X16.7943Y-9.569
X16.8603Y-7.2162
X17.0443Y-9.469
X17.5443Y-8.819
X17.5443Y-9.569
X17.7943Y-8.719
X17.7943Y-9.469
X18.2943Y-9.569
X18.5443Y-9.469
T7
X6.4466Y-9.2401
X7.3866Y-9.2401
X9.2613Y-9.99
X13.1983Y-9.99
X15.8216Y-9.2401
X16.0091Y-8.4901
X16.1028Y-6.9901
X16.7616Y-9.2401
X16.9491Y-8.4901
X17.0428Y-6.9901
T8
X6.4443Y-6.669
X6.5416Y-9.6662
X6.6353Y-7.4162
X6.7291Y-8.1662
X6.9166Y-8.9162
X7.1943Y-6.669
X7.4791Y-9.6662
X7.5693Y-7.419
X7.7568Y-8.169
X7.9443Y-6.669
X8.1318Y-8.919
X8.3193Y-7.419
X8.4166Y-9.6662
X8.5068Y-8.169
X8.6943Y-6.669
X8.8818Y-8.919
X9.0693Y-7.419
X9.2568Y-8.169
X9.4443Y-6.669
X9.6318Y-8.919
X9.8193Y-7.419
X10.0068Y-8.169
X10.1943Y-6.669
X10.3818Y-8.919
X10.5693Y-7.419
X10.7568Y-8.169
X10.9443Y-6.669
X11.1318Y-8.919
X11.2291Y-9.6662
X11.3193Y-7.419
X11.5068Y-8.169
X11.6943Y-6.669
X11.8818Y-8.919
X12.0693Y-7.419
X12.2568Y-8.169
X12.4443Y-6.669
X12.6318Y-8.919
X12.8193Y-7.419
X13.0068Y-8.169
X13.1943Y-6.669
X13.3818Y-8.919
X13.5693Y-7.419
X13.7568Y-8.169
X13.9443Y-6.669
X14.1318Y-8.919
X14.3193Y-7.419
X14.3193Y-9.669
X14.5068Y-8.169
X14.6943Y-6.669
X14.8818Y-8.919
X15.0693Y-7.419
X15.2568Y-8.169
X15.4443Y-6.669
X15.8193Y-7.419
X16.2916Y-8.9162
X16.4791Y-8.1662
X16.5728Y-6.6662
X16.7603Y-7.4162
X16.9443Y-9.669
X17.6943Y-8.919
X17.6943Y-9.669
X18.4443Y-9.669
T0
M30
