%TF.GenerationSoftware,KiCad,Pcbnew,7.0.6*%
%TF.CreationDate,2023-09-01T00:55:25-07:00*%
%TF.ProjectId,alicida,616c6963-6964-4612-9e6b-696361645f70,rev?*%
%TF.SameCoordinates,Original*%
%TF.FileFunction,Soldermask,Bot*%
%TF.FilePolarity,Negative*%
%FSLAX46Y46*%
G04 Gerber Fmt 4.6, Leading zero omitted, Abs format (unit mm)*
G04 Created by KiCad (PCBNEW 7.0.6) date 2023-09-01 00:55:25*
%MOMM*%
%LPD*%
G01*
G04 APERTURE LIST*
G04 Aperture macros list*
%AMRoundRect*
0 Rectangle with rounded corners*
0 $1 Rounding radius*
0 $2 $3 $4 $5 $6 $7 $8 $9 X,Y pos of 4 corners*
0 Add a 4 corners polygon primitive as box body*
4,1,4,$2,$3,$4,$5,$6,$7,$8,$9,$2,$3,0*
0 Add four circle primitives for the rounded corners*
1,1,$1+$1,$2,$3*
1,1,$1+$1,$4,$5*
1,1,$1+$1,$6,$7*
1,1,$1+$1,$8,$9*
0 Add four rect primitives between the rounded corners*
20,1,$1+$1,$2,$3,$4,$5,0*
20,1,$1+$1,$4,$5,$6,$7,0*
20,1,$1+$1,$6,$7,$8,$9,0*
20,1,$1+$1,$8,$9,$2,$3,0*%
%AMRotRect*
0 Rectangle, with rotation*
0 The origin of the aperture is its center*
0 $1 length*
0 $2 width*
0 $3 Rotation angle, in degrees counterclockwise*
0 Add horizontal line*
21,1,$1,$2,0,0,$3*%
G04 Aperture macros list end*
%ADD10C,3.048000*%
%ADD11C,3.987800*%
%ADD12C,1.750000*%
%ADD13C,3.050000*%
%ADD14C,4.000000*%
%ADD15RoundRect,0.250000X-0.933944X-1.085529X1.108255X-0.906860X0.933944X1.085529X-1.108255X0.906860X0*%
%ADD16RotRect,1.200000X1.200000X275.000000*%
%ADD17RotRect,1.600000X1.600000X275.000000*%
%ADD18C,1.600000*%
%ADD19RoundRect,0.250000X-1.108255X-0.906860X0.933944X-1.085529X1.108255X0.906860X-0.933944X1.085529X0*%
%ADD20RotRect,1.200000X1.200000X265.000000*%
%ADD21RotRect,1.600000X1.600000X265.000000*%
%ADD22RoundRect,0.250000X-1.025000X-1.000000X1.025000X-1.000000X1.025000X1.000000X-1.025000X1.000000X0*%
%ADD23R,1.200000X1.200000*%
%ADD24R,1.600000X1.600000*%
%ADD25R,1.700000X1.700000*%
%ADD26O,1.700000X1.700000*%
%ADD27C,1.778000*%
%ADD28C,2.286000*%
%ADD29C,0.600000*%
%ADD30O,0.900000X2.000000*%
%ADD31O,0.900000X1.700000*%
%ADD32R,2.000000X2.000000*%
%ADD33C,2.000000*%
%ADD34R,3.200000X2.000000*%
%ADD35O,1.800000X1.800000*%
%ADD36O,1.500000X1.500000*%
%ADD37R,3.500000X1.700000*%
%ADD38R,1.700000X3.500000*%
%ADD39RotRect,1.600000X1.600000X95.000000*%
%ADD40RotRect,1.200000X1.200000X95.000000*%
%ADD41RotRect,1.600000X1.600000X85.000000*%
%ADD42RotRect,1.200000X1.200000X85.000000*%
G04 APERTURE END LIST*
D10*
%TO.C,REF\u002A\u002A*%
X125647141Y-189268548D03*
D11*
X124321502Y-204420669D03*
D10*
X163602159Y-192589182D03*
D11*
X162276520Y-207741303D03*
%TD*%
D12*
%TO.C,K_DOT*%
X263613879Y-174683002D03*
D13*
X264657671Y-172041980D03*
D14*
X268674548Y-174240251D03*
D13*
X270762131Y-168958206D03*
D12*
X273735217Y-173797500D03*
D15*
X261395133Y-172327415D03*
D16*
X276397715Y-175316227D03*
D17*
X276600352Y-177632380D03*
D15*
X274051566Y-168670418D03*
D18*
X275920537Y-169862061D03*
D16*
X276123174Y-172178214D03*
%TD*%
D12*
%TO.C,K_I*%
X227082604Y-139633539D03*
D13*
X228126396Y-136992517D03*
D14*
X232143273Y-139190788D03*
D13*
X234230856Y-133908743D03*
D12*
X237203942Y-138748037D03*
D15*
X224863858Y-137277952D03*
D16*
X239866440Y-140266764D03*
D17*
X240069077Y-142582917D03*
D15*
X237520291Y-133620955D03*
D18*
X239389262Y-134812598D03*
D16*
X239591899Y-137128751D03*
%TD*%
D12*
%TO.C,K_S*%
X104223869Y-156014847D03*
D13*
X105710412Y-153595200D03*
D14*
X109284538Y-156457598D03*
D13*
X112257624Y-151618304D03*
D12*
X114345207Y-156900349D03*
D19*
X102447874Y-153309765D03*
D20*
X116703531Y-158858341D03*
D21*
X116500894Y-161174494D03*
D19*
X115547059Y-151906093D03*
D18*
X117180709Y-153404175D03*
D20*
X116978072Y-155720328D03*
%TD*%
D12*
%TO.C,REF\u002A\u002A*%
X222578167Y-197406018D03*
D13*
X223621959Y-194764996D03*
D14*
X227638836Y-196963267D03*
D13*
X229726419Y-191681222D03*
D12*
X232699505Y-196520516D03*
D15*
X220359421Y-195050431D03*
X233015854Y-191393434D03*
%TD*%
D12*
%TO.C,K_`*%
X40145925Y-114223103D03*
D13*
X41415925Y-111683103D03*
D14*
X45225925Y-114223103D03*
D13*
X47765925Y-109143103D03*
D12*
X50305925Y-114223103D03*
D22*
X38140925Y-111683103D03*
D23*
X52825925Y-115968103D03*
D24*
X52825925Y-118293103D03*
D22*
X51067925Y-109143103D03*
D18*
X52825925Y-110493103D03*
D23*
X52825925Y-112818103D03*
%TD*%
D12*
%TO.C,K_CBRAC*%
X288609125Y-134102709D03*
D13*
X289879125Y-131562709D03*
D14*
X293689125Y-134102709D03*
D13*
X296229125Y-129022709D03*
D12*
X298769125Y-134102709D03*
D22*
X286604125Y-131562709D03*
D23*
X301289125Y-135847709D03*
D24*
X301289125Y-138172709D03*
D22*
X299531125Y-129022709D03*
D18*
X301289125Y-130372709D03*
D23*
X301289125Y-132697709D03*
%TD*%
D12*
%TO.C,K_V*%
X150007324Y-179143148D03*
D13*
X151493867Y-176723501D03*
D14*
X155067993Y-179585899D03*
D13*
X158041079Y-174746605D03*
D12*
X160128662Y-180028650D03*
D19*
X148231329Y-176438066D03*
D20*
X162486986Y-181986642D03*
D21*
X162284349Y-184302795D03*
D19*
X161330514Y-175034394D03*
D18*
X162964164Y-176532476D03*
D20*
X162761527Y-178848629D03*
%TD*%
D12*
%TO.C,K_UP*%
X347541625Y-182412709D03*
D13*
X348811625Y-179872709D03*
D14*
X352621625Y-182412709D03*
D13*
X355161625Y-177332709D03*
D12*
X357701625Y-182412709D03*
D22*
X345536625Y-179872709D03*
D23*
X360221625Y-184157709D03*
D24*
X360221625Y-186482709D03*
D22*
X358463625Y-177332709D03*
D18*
X360221625Y-178682709D03*
D23*
X360221625Y-181007709D03*
%TD*%
D12*
%TO.C,K_Z*%
X83008425Y-171373103D03*
D13*
X84278425Y-168833103D03*
D14*
X88088425Y-171373103D03*
D13*
X90628425Y-166293103D03*
D12*
X93168425Y-171373103D03*
D22*
X81003425Y-168833103D03*
D23*
X95688425Y-173118103D03*
D24*
X95688425Y-175443103D03*
D22*
X93930425Y-166293103D03*
D18*
X95688425Y-167643103D03*
D23*
X95688425Y-169968103D03*
%TD*%
D12*
%TO.C,K_H*%
X195532279Y-161516602D03*
D13*
X196576071Y-158875580D03*
D14*
X200592948Y-161073851D03*
D13*
X202680531Y-155791806D03*
D12*
X205653617Y-160631100D03*
D15*
X193313533Y-159161015D03*
D16*
X208316115Y-162149827D03*
D17*
X208518752Y-164465980D03*
D15*
X205969966Y-155504018D03*
D18*
X207838937Y-156695661D03*
D16*
X208041574Y-159011814D03*
%TD*%
D12*
%TO.C,K_9*%
X234911042Y-119825871D03*
D13*
X235954834Y-117184849D03*
D14*
X239971711Y-119383120D03*
D13*
X242059294Y-114101075D03*
D12*
X245032380Y-118940369D03*
D15*
X232692296Y-117470284D03*
D16*
X247694878Y-120459096D03*
D17*
X247897515Y-122775249D03*
D15*
X245348729Y-113813287D03*
D18*
X247217700Y-115004930D03*
D16*
X247420337Y-117321083D03*
%TD*%
D12*
%TO.C,K_DOWN*%
X347541625Y-201462709D03*
D13*
X348811625Y-198922709D03*
D14*
X352621625Y-201462709D03*
D13*
X355161625Y-196382709D03*
D12*
X357701625Y-201462709D03*
D22*
X345536625Y-198922709D03*
D23*
X360221625Y-203207709D03*
D24*
X360221625Y-205532709D03*
D22*
X358463625Y-196382709D03*
D18*
X360221625Y-197732709D03*
D23*
X360221625Y-200057709D03*
%TD*%
D12*
%TO.C,K_L*%
X252464807Y-156535651D03*
D13*
X253508599Y-153894629D03*
D14*
X257525476Y-156092900D03*
D13*
X259613059Y-150810855D03*
D12*
X262586145Y-155650149D03*
D15*
X250246061Y-154180064D03*
D16*
X265248643Y-157168876D03*
D17*
X265451280Y-159485029D03*
D15*
X262902494Y-150523067D03*
D18*
X264771465Y-151714710D03*
D16*
X264974102Y-154030863D03*
%TD*%
D12*
%TO.C,K_Y*%
X189127586Y-142954172D03*
D13*
X190171378Y-140313150D03*
D14*
X194188255Y-142511421D03*
D13*
X196275838Y-137229376D03*
D12*
X199248924Y-142068670D03*
D15*
X186908840Y-140598585D03*
D16*
X201911422Y-143587397D03*
D17*
X202114059Y-145903550D03*
D15*
X199565273Y-136941588D03*
D18*
X201434244Y-138133231D03*
D16*
X201636881Y-140449384D03*
%TD*%
D12*
%TO.C,K_WIN*%
X66359675Y-190423103D03*
D13*
X67629675Y-187883103D03*
D14*
X71439675Y-190423103D03*
D13*
X73979675Y-185343103D03*
D12*
X76519675Y-190423103D03*
D22*
X64354675Y-187883103D03*
X77281675Y-185343103D03*
%TD*%
D12*
%TO.C,K_0*%
X260034125Y-115052709D03*
D13*
X261304125Y-112512709D03*
D14*
X265114125Y-115052709D03*
D13*
X267654125Y-109972709D03*
D12*
X270194125Y-115052709D03*
D22*
X258029125Y-112512709D03*
D23*
X272714125Y-116797709D03*
D24*
X272714125Y-119122709D03*
D22*
X270956125Y-109972709D03*
D18*
X272714125Y-111322709D03*
D23*
X272714125Y-113647709D03*
%TD*%
D10*
%TO.C,REF\u002A\u002A*%
X45187425Y-164083103D03*
D11*
X45187425Y-179293103D03*
D10*
X69063425Y-164083103D03*
D11*
X69063425Y-179293103D03*
%TD*%
D12*
%TO.C,K_LEFT*%
X328491625Y-201462709D03*
D13*
X329761625Y-198922709D03*
D14*
X333571625Y-201462709D03*
D13*
X336111625Y-196382709D03*
D12*
X338651625Y-201462709D03*
D22*
X326486625Y-198922709D03*
D23*
X341171625Y-203207709D03*
D24*
X341171625Y-205532709D03*
D22*
X339413625Y-196382709D03*
D18*
X341171625Y-197732709D03*
D23*
X341171625Y-200057709D03*
%TD*%
D12*
%TO.C,K_1*%
X59195925Y-114223103D03*
D13*
X60465925Y-111683103D03*
D14*
X64275925Y-114223103D03*
D13*
X66815925Y-109143103D03*
D12*
X69355925Y-114223103D03*
D22*
X57190925Y-111683103D03*
D23*
X71875925Y-115968103D03*
D24*
X71875925Y-118293103D03*
D22*
X70117925Y-109143103D03*
D18*
X71875925Y-110493103D03*
D23*
X71875925Y-112818103D03*
%TD*%
D12*
%TO.C,K_F*%
X142178887Y-159335481D03*
D13*
X143665430Y-156915834D03*
D14*
X147239556Y-159778232D03*
D13*
X150212642Y-154938938D03*
D12*
X152300225Y-160220983D03*
D19*
X140402892Y-156630399D03*
D20*
X154658549Y-162178975D03*
D21*
X154455912Y-164495128D03*
D19*
X153502077Y-155226727D03*
D18*
X155135727Y-156724809D03*
D20*
X154933090Y-159040962D03*
%TD*%
D12*
%TO.C,K_D*%
X123201378Y-157675164D03*
D13*
X124687921Y-155255517D03*
D14*
X128262047Y-158117915D03*
D13*
X131235133Y-153278621D03*
D12*
X133322716Y-158560666D03*
D19*
X121425383Y-154970082D03*
D20*
X135681040Y-160518658D03*
D21*
X135478403Y-162834811D03*
D19*
X134524568Y-153566410D03*
D18*
X136158218Y-155064492D03*
D20*
X135955581Y-157380645D03*
%TD*%
D10*
%TO.C,REF\u002A\u002A*%
X317395625Y-146302709D03*
D11*
X317395625Y-161512709D03*
D10*
X341271625Y-146302709D03*
D11*
X341271625Y-161512709D03*
%TD*%
D12*
%TO.C,K_CAPS*%
X47309675Y-152323103D03*
D13*
X48579675Y-149783103D03*
D14*
X52389675Y-152323103D03*
D13*
X54929675Y-147243103D03*
D12*
X57469675Y-152323103D03*
D22*
X45304675Y-149783103D03*
X58231675Y-147243103D03*
%TD*%
D12*
%TO.C,K_G*%
X161156396Y-160995797D03*
D13*
X162642939Y-158576150D03*
D14*
X166217065Y-161438548D03*
D13*
X169190151Y-156599254D03*
D12*
X171277734Y-161881299D03*
D19*
X159380401Y-158290715D03*
D20*
X173636058Y-163839291D03*
D21*
X173433421Y-166155444D03*
D19*
X172479586Y-156887043D03*
D18*
X174113236Y-158385125D03*
D20*
X173910599Y-160701278D03*
%TD*%
D12*
%TO.C,K_U*%
X208105095Y-141293856D03*
D13*
X209148887Y-138652834D03*
D14*
X213165764Y-140851105D03*
D13*
X215253347Y-135569060D03*
D12*
X218226433Y-140408354D03*
D15*
X205886349Y-138938269D03*
D16*
X220888931Y-141927081D03*
D17*
X221091568Y-144243234D03*
D15*
X218542782Y-135281272D03*
D18*
X220411753Y-136472915D03*
D16*
X220614390Y-138789068D03*
%TD*%
D12*
%TO.C,K_A*%
X73483425Y-152323103D03*
D13*
X74753425Y-149783103D03*
D14*
X78563425Y-152323103D03*
D13*
X81103425Y-147243103D03*
D12*
X83643425Y-152323103D03*
D22*
X71478425Y-149783103D03*
D23*
X86163425Y-154068103D03*
D24*
X86163425Y-156393103D03*
D22*
X84405425Y-147243103D03*
D18*
X86163425Y-148593103D03*
D23*
X86163425Y-150918103D03*
%TD*%
D25*
%TO.C,REF\u002A\u002A*%
X184767347Y-107533966D03*
D26*
X187307347Y-107533966D03*
X189847347Y-107533966D03*
X192387347Y-107533966D03*
%TD*%
D12*
%TO.C,K_MINUS*%
X279084125Y-115052709D03*
D13*
X280354125Y-112512709D03*
D14*
X284164125Y-115052709D03*
D13*
X286704125Y-109972709D03*
D12*
X289244125Y-115052709D03*
D22*
X277079125Y-112512709D03*
D23*
X291764125Y-116797709D03*
D24*
X291764125Y-119122709D03*
D22*
X290006125Y-109972709D03*
D18*
X291764125Y-111322709D03*
D23*
X291764125Y-113647709D03*
%TD*%
D12*
%TO.C,REF\u002A\u002A*%
X139039935Y-197336508D03*
D13*
X140526478Y-194916861D03*
D14*
X144100604Y-197779259D03*
D13*
X147073690Y-192939966D03*
D12*
X149161273Y-198222010D03*
D19*
X137263940Y-194631426D03*
X150363125Y-193227754D03*
%TD*%
D27*
%TO.C,REF\u002A\u002A*%
X299796625Y-187682709D03*
X306146625Y-187682709D03*
X299796625Y-192762709D03*
X306146625Y-192762709D03*
X300431625Y-210542709D03*
X302971625Y-210542709D03*
X305511625Y-210542709D03*
D28*
X295351625Y-193715209D03*
X295351625Y-207050209D03*
X310591625Y-207050209D03*
X310591625Y-193715209D03*
D27*
X292811625Y-197842709D03*
X292811625Y-200382709D03*
X292811625Y-202922709D03*
%TD*%
D12*
%TO.C,K_P*%
X269559125Y-134102709D03*
D13*
X270829125Y-131562709D03*
D14*
X274639125Y-134102709D03*
D13*
X277179125Y-129022709D03*
D12*
X279719125Y-134102709D03*
D22*
X267554125Y-131562709D03*
D23*
X282239125Y-135847709D03*
D24*
X282239125Y-138172709D03*
D22*
X280481125Y-129022709D03*
D18*
X282239125Y-130372709D03*
D23*
X282239125Y-132697709D03*
%TD*%
D10*
%TO.C,REF\u002A\u002A*%
X289105625Y-165502709D03*
D11*
X289105625Y-180712709D03*
D10*
X312981625Y-165502709D03*
D11*
X312981625Y-180712709D03*
%TD*%
D10*
%TO.C,REF\u002A\u002A*%
X319743625Y-108107709D03*
D11*
X319743625Y-123317709D03*
D10*
X343619625Y-108107709D03*
D11*
X343619625Y-123317709D03*
%TD*%
D12*
%TO.C,K_SHIFT*%
X52072175Y-171373103D03*
D13*
X53342175Y-168833103D03*
D14*
X57152175Y-171373103D03*
D13*
X59692175Y-166293103D03*
D12*
X62232175Y-171373103D03*
D22*
X50067175Y-168833103D03*
X62994175Y-166293103D03*
%TD*%
D12*
%TO.C,K_ALT1*%
X262921931Y-193866307D03*
D13*
X263965723Y-191225285D03*
D14*
X267982600Y-193423556D03*
D13*
X270070183Y-188141511D03*
D12*
X273043269Y-192980805D03*
D15*
X260703185Y-191510720D03*
X273359618Y-187853723D03*
%TD*%
D12*
%TO.C,K_W*%
X101139809Y-136622259D03*
D13*
X102626352Y-134202612D03*
D14*
X106200478Y-137065010D03*
D13*
X109173564Y-132225716D03*
D12*
X111261147Y-137507761D03*
D19*
X99363814Y-133917177D03*
D20*
X113619471Y-139465753D03*
D21*
X113416834Y-141781906D03*
D19*
X112462999Y-132513505D03*
D18*
X114096649Y-134011587D03*
D20*
X113894012Y-136327740D03*
%TD*%
D12*
%TO.C,K_2*%
X93311371Y-116814592D03*
D13*
X94797914Y-114394945D03*
D14*
X98372040Y-117257343D03*
D13*
X101345126Y-112418049D03*
D12*
X103432709Y-117700094D03*
D19*
X91535376Y-114109510D03*
D20*
X105791033Y-119658086D03*
D21*
X105588396Y-121974239D03*
D19*
X104634561Y-112705838D03*
D18*
X106268211Y-114203920D03*
D20*
X106065574Y-116520073D03*
%TD*%
D12*
%TO.C,K_SHIFT1*%
X295849625Y-172192709D03*
D13*
X297119625Y-169652709D03*
D14*
X300929625Y-172192709D03*
D13*
X303469625Y-167112709D03*
D12*
X306009625Y-172192709D03*
D22*
X293844625Y-169652709D03*
X306771625Y-167112709D03*
%TD*%
D10*
%TO.C,REF\u002A\u002A*%
X207987852Y-191786263D03*
D11*
X209313491Y-206938384D03*
D10*
X245942870Y-188465629D03*
D11*
X247268509Y-203617750D03*
%TD*%
D12*
%TO.C,K_B*%
X168984833Y-180803465D03*
D13*
X170471376Y-178383818D03*
D14*
X174045502Y-181246216D03*
D13*
X177018588Y-176406922D03*
D12*
X179106171Y-181688967D03*
D19*
X167208838Y-178098383D03*
D20*
X181464495Y-183646959D03*
D21*
X181261858Y-185963112D03*
D19*
X180308023Y-176694711D03*
D18*
X181941673Y-178192793D03*
D20*
X181739036Y-180508946D03*
%TD*%
D12*
%TO.C,K_3*%
X112288881Y-118474908D03*
D13*
X113775424Y-116055261D03*
D14*
X117349550Y-118917659D03*
D13*
X120322636Y-114078365D03*
D12*
X122410219Y-119360410D03*
D19*
X110512886Y-115769826D03*
D20*
X124768543Y-121318402D03*
D21*
X124565906Y-123634555D03*
D19*
X123612071Y-114366154D03*
D18*
X125245721Y-115864236D03*
D20*
X125043084Y-118180389D03*
%TD*%
D12*
%TO.C,K_M*%
X225658860Y-178003636D03*
D13*
X226702652Y-175362614D03*
D14*
X230719529Y-177560885D03*
D13*
X232807112Y-172278840D03*
D12*
X235780198Y-177118134D03*
D15*
X223440114Y-175648049D03*
D16*
X238442696Y-178636861D03*
D17*
X238645333Y-180953014D03*
D15*
X236096547Y-171991052D03*
D18*
X237965518Y-173182695D03*
D16*
X238168155Y-175498848D03*
%TD*%
D12*
%TO.C,K_8*%
X215933533Y-121486188D03*
D13*
X216977325Y-118845166D03*
D14*
X220994202Y-121043437D03*
D13*
X223081785Y-115761392D03*
D12*
X226054871Y-120600686D03*
D15*
X213714787Y-119130601D03*
D16*
X228717369Y-122119413D03*
D17*
X228920006Y-124435566D03*
D15*
X226371220Y-115473604D03*
D18*
X228240191Y-116665247D03*
D16*
X228442828Y-118981400D03*
%TD*%
D12*
%TO.C,K_SEMIC*%
X274321625Y-153152709D03*
D13*
X275591625Y-150612709D03*
D14*
X279401625Y-153152709D03*
D13*
X281941625Y-148072709D03*
D12*
X284481625Y-153152709D03*
D22*
X272316625Y-150612709D03*
D23*
X287001625Y-154897709D03*
D24*
X287001625Y-157222709D03*
D22*
X285243625Y-148072709D03*
D18*
X287001625Y-149422709D03*
D23*
X287001625Y-151747709D03*
%TD*%
D29*
%TO.C,REF\u002A\u002A*%
X191309270Y-109265360D03*
X185529270Y-109265360D03*
D30*
X192739270Y-109745360D03*
D31*
X192739270Y-105575360D03*
D30*
X184099270Y-109745360D03*
D31*
X184099270Y-105575360D03*
%TD*%
D12*
%TO.C,K_COMMA*%
X244636370Y-176343319D03*
D13*
X245680162Y-173702297D03*
D14*
X249697039Y-175900568D03*
D13*
X251784622Y-170618523D03*
D12*
X254757708Y-175457817D03*
D15*
X242417624Y-173987732D03*
D16*
X257420206Y-176976544D03*
D17*
X257622843Y-179292697D03*
D15*
X255074057Y-170330735D03*
D18*
X256943028Y-171522378D03*
D16*
X257145665Y-173838531D03*
%TD*%
D12*
%TO.C,K_O*%
X246060113Y-137973222D03*
D13*
X247103905Y-135332200D03*
D14*
X251120782Y-137530471D03*
D13*
X253208365Y-132248426D03*
D12*
X256181451Y-137087720D03*
D15*
X243841367Y-135617635D03*
D16*
X258843949Y-138606447D03*
D17*
X259046586Y-140922600D03*
D15*
X256497800Y-131960638D03*
D18*
X258366771Y-133152281D03*
D16*
X258569408Y-135468434D03*
%TD*%
D12*
%TO.C,K_7*%
X196956023Y-123146505D03*
D13*
X197999815Y-120505483D03*
D14*
X202016692Y-122703754D03*
D13*
X204104275Y-117421709D03*
D12*
X207077361Y-122261003D03*
D15*
X194737277Y-120790918D03*
D16*
X209739859Y-123779730D03*
D17*
X209942496Y-126095883D03*
D15*
X207393710Y-117133921D03*
D18*
X209262681Y-118325564D03*
D16*
X209465318Y-120641717D03*
%TD*%
D25*
%TO.C,REF\u002A\u002A*%
X392443344Y-108936160D03*
D26*
X394983344Y-108936160D03*
X397523344Y-108936160D03*
X400063344Y-108936160D03*
%TD*%
D12*
%TO.C,K_K*%
X233487297Y-158195968D03*
D13*
X234531089Y-155554946D03*
D14*
X238547966Y-157753217D03*
D13*
X240635549Y-152471172D03*
D12*
X243608635Y-157310466D03*
D15*
X231268551Y-155840381D03*
D16*
X246271133Y-158829193D03*
D17*
X246473770Y-161145346D03*
D15*
X243924984Y-152183384D03*
D18*
X245793955Y-153375027D03*
D16*
X245996592Y-155691180D03*
%TD*%
D12*
%TO.C,K_E*%
X120117317Y-138282575D03*
D13*
X121603860Y-135862928D03*
D14*
X125177986Y-138725326D03*
D13*
X128151072Y-133886032D03*
D12*
X130238655Y-139168077D03*
D19*
X118341322Y-135577493D03*
D20*
X132596979Y-141126069D03*
D21*
X132394342Y-143442222D03*
D19*
X131440507Y-134173821D03*
D18*
X133074157Y-135671903D03*
D20*
X132871520Y-137988056D03*
%TD*%
D12*
%TO.C,K_BACKSPACE*%
X326729125Y-115052709D03*
D13*
X327999125Y-112512709D03*
D14*
X331809125Y-115052709D03*
D13*
X334349125Y-109972709D03*
D12*
X336889125Y-115052709D03*
D22*
X324724125Y-112512709D03*
X337651125Y-109972709D03*
%TD*%
D12*
%TO.C,K_BSLSH*%
X331491625Y-134102709D03*
D13*
X332761625Y-131562709D03*
D14*
X336571625Y-134102709D03*
D13*
X339111625Y-129022709D03*
D12*
X341651625Y-134102709D03*
D22*
X329486625Y-131562709D03*
X342413625Y-129022709D03*
%TD*%
D12*
%TO.C,K_OBRAC*%
X307659125Y-134102709D03*
D13*
X308929125Y-131562709D03*
D14*
X312739125Y-134102709D03*
D13*
X315279125Y-129022709D03*
D12*
X317819125Y-134102709D03*
D22*
X305654125Y-131562709D03*
D23*
X320339125Y-135847709D03*
D24*
X320339125Y-138172709D03*
D22*
X318581125Y-129022709D03*
D18*
X320339125Y-130372709D03*
D23*
X320339125Y-132697709D03*
%TD*%
D12*
%TO.C,K_J*%
X214509789Y-159856284D03*
D13*
X215553581Y-157215262D03*
D14*
X219570458Y-159413533D03*
D13*
X221658041Y-154131488D03*
D12*
X224631127Y-158970782D03*
D15*
X212291043Y-157500697D03*
D16*
X227293625Y-160489509D03*
D17*
X227496262Y-162805662D03*
D15*
X224947476Y-153843700D03*
D18*
X226816447Y-155035343D03*
D16*
X227019084Y-157351496D03*
%TD*%
D12*
%TO.C,K_5*%
X150243899Y-121795542D03*
D13*
X151730442Y-119375895D03*
D14*
X155304568Y-122238293D03*
D13*
X158277654Y-117398999D03*
D12*
X160365237Y-122681044D03*
D19*
X148467904Y-119090460D03*
D20*
X162723561Y-124639036D03*
D21*
X162520924Y-126955189D03*
D19*
X161567089Y-117686788D03*
D18*
X163200739Y-119184870D03*
D20*
X162998102Y-121501023D03*
%TD*%
D12*
%TO.C,K_R*%
X139094826Y-139942892D03*
D13*
X140581369Y-137523245D03*
D14*
X144155495Y-140385643D03*
D13*
X147128581Y-135546349D03*
D12*
X149216164Y-140828394D03*
D19*
X137318831Y-137237810D03*
D20*
X151574488Y-142786386D03*
D21*
X151371851Y-145102539D03*
D19*
X150418016Y-135834138D03*
D18*
X152051666Y-137332220D03*
D20*
X151849029Y-139648373D03*
%TD*%
D12*
%TO.C,K_CTRL*%
X42547175Y-190423103D03*
D13*
X43817175Y-187883103D03*
D14*
X47627175Y-190423103D03*
D13*
X50167175Y-185343103D03*
D12*
X52707175Y-190423103D03*
D22*
X40542175Y-187883103D03*
X53469175Y-185343103D03*
%TD*%
D12*
%TO.C,K_QUOTE*%
X293371625Y-153152709D03*
D13*
X294641625Y-150612709D03*
D14*
X298451625Y-153152709D03*
D13*
X300991625Y-148072709D03*
D12*
X303531625Y-153152709D03*
D22*
X291366625Y-150612709D03*
D23*
X306051625Y-154897709D03*
D24*
X306051625Y-157222709D03*
D22*
X304293625Y-148072709D03*
D18*
X306051625Y-149422709D03*
D23*
X306051625Y-151747709D03*
%TD*%
D12*
%TO.C,K_6*%
X177978514Y-124806822D03*
D13*
X179022306Y-122165800D03*
D14*
X183039183Y-124364071D03*
D13*
X185126766Y-119082026D03*
D12*
X188099852Y-123921320D03*
D15*
X175759768Y-122451235D03*
D16*
X190762350Y-125440047D03*
D17*
X190964987Y-127756200D03*
D15*
X188416201Y-118794238D03*
D18*
X190285172Y-119985881D03*
D16*
X190487809Y-122302034D03*
%TD*%
D12*
%TO.C,K_N*%
X206681351Y-179663952D03*
D13*
X207725143Y-177022930D03*
D14*
X211742020Y-179221201D03*
D13*
X213829603Y-173939156D03*
D12*
X216802689Y-178778450D03*
D15*
X204462605Y-177308365D03*
D16*
X219465187Y-180297177D03*
D17*
X219667824Y-182613330D03*
D15*
X217119038Y-173651368D03*
D18*
X218988009Y-174843011D03*
D16*
X219190646Y-177159164D03*
%TD*%
D12*
%TO.C,K_X*%
X112052307Y-175822514D03*
D13*
X113538850Y-173402867D03*
D14*
X117112976Y-176265265D03*
D13*
X120086062Y-171425971D03*
D12*
X122173645Y-176708016D03*
D19*
X110276312Y-173117432D03*
D20*
X124531969Y-178666008D03*
D21*
X124329332Y-180982161D03*
D19*
X123375497Y-171713760D03*
D18*
X125009147Y-173211842D03*
D20*
X124806510Y-175527995D03*
%TD*%
D12*
%TO.C,K_EQUAL*%
X298134125Y-115052709D03*
D13*
X299404125Y-112512709D03*
D14*
X303214125Y-115052709D03*
D13*
X305754125Y-109972709D03*
D12*
X308294125Y-115052709D03*
D22*
X296129125Y-112512709D03*
D23*
X310814125Y-116797709D03*
D24*
X310814125Y-119122709D03*
D22*
X309056125Y-109972709D03*
D18*
X310814125Y-111322709D03*
D23*
X310814125Y-113647709D03*
%TD*%
D12*
%TO.C,K_ENTER*%
X324347875Y-153152709D03*
D13*
X325617875Y-150612709D03*
D14*
X329427875Y-153152709D03*
D13*
X331967875Y-148072709D03*
D12*
X334507875Y-153152709D03*
D22*
X322342875Y-150612709D03*
X335269875Y-148072709D03*
%TD*%
D32*
%TO.C,REF\u002A\u002A*%
X371600533Y-122207056D03*
D33*
X371600533Y-127207056D03*
X371600533Y-124707056D03*
D34*
X379100533Y-119107056D03*
X379100533Y-130307056D03*
D33*
X386100533Y-127207056D03*
X386100533Y-122207056D03*
%TD*%
D12*
%TO.C,K_C*%
X131029816Y-177482831D03*
D13*
X132516359Y-175063184D03*
D14*
X136090485Y-177925582D03*
D13*
X139063571Y-173086288D03*
D12*
X141151154Y-178368333D03*
D19*
X129253821Y-174777749D03*
D20*
X143509478Y-180326325D03*
D21*
X143306841Y-182642478D03*
D19*
X142353006Y-173374077D03*
D18*
X143986656Y-174872159D03*
D20*
X143784019Y-177188312D03*
%TD*%
D12*
%TO.C,K_RIGHT*%
X366591625Y-201462709D03*
D13*
X367861625Y-198922709D03*
D14*
X371671625Y-201462709D03*
D13*
X374211625Y-196382709D03*
D12*
X376751625Y-201462709D03*
D22*
X364586625Y-198922709D03*
D23*
X379271625Y-203207709D03*
D24*
X379271625Y-205532709D03*
D22*
X377513625Y-196382709D03*
D18*
X379271625Y-197732709D03*
D23*
X379271625Y-200057709D03*
%TD*%
D12*
%TO.C,K_Q*%
X68720925Y-133273103D03*
D13*
X69990925Y-130733103D03*
D14*
X73800925Y-133273103D03*
D13*
X76340925Y-128193103D03*
D12*
X78880925Y-133273103D03*
D22*
X66715925Y-130733103D03*
D23*
X81400925Y-135018103D03*
D24*
X81400925Y-137343103D03*
D22*
X79642925Y-128193103D03*
D18*
X81400925Y-129543103D03*
D23*
X81400925Y-131868103D03*
%TD*%
D12*
%TO.C,K_T*%
X158072336Y-141603209D03*
D13*
X159558879Y-139183562D03*
D14*
X163133005Y-142045960D03*
D13*
X166106091Y-137206666D03*
D12*
X168193674Y-142488711D03*
D19*
X156296341Y-138898127D03*
D20*
X170551998Y-144446703D03*
D21*
X170349361Y-146762856D03*
D19*
X169395526Y-137494455D03*
D18*
X171029176Y-138992537D03*
D20*
X170826539Y-141308690D03*
%TD*%
D12*
%TO.C,K_ALT*%
X98550971Y-193764067D03*
D13*
X100037514Y-191344420D03*
D14*
X103611640Y-194206818D03*
D13*
X106584726Y-189367525D03*
D12*
X108672309Y-194649569D03*
D19*
X96774976Y-191058985D03*
X109874161Y-189655313D03*
%TD*%
D12*
%TO.C,K_TAB*%
X44928425Y-133273103D03*
D13*
X46198425Y-130733103D03*
D14*
X50008425Y-133273103D03*
D13*
X52548425Y-128193103D03*
D12*
X55088425Y-133273103D03*
D22*
X42923425Y-130733103D03*
X55850425Y-128193103D03*
%TD*%
D12*
%TO.C,K_4*%
X131266390Y-120135225D03*
D13*
X132752933Y-117715578D03*
D14*
X136327059Y-120577976D03*
D13*
X139300145Y-115738682D03*
D12*
X141387728Y-121020727D03*
D19*
X129490395Y-117430143D03*
D20*
X143746052Y-122978719D03*
D21*
X143543415Y-125294872D03*
D19*
X142589580Y-116026471D03*
D18*
X144223230Y-117524553D03*
D20*
X144020593Y-119840706D03*
%TD*%
D24*
%TO.C,REF\u002A\u002A*%
X55389907Y-194228312D03*
D23*
X55389907Y-191903312D03*
X55389907Y-188753312D03*
D18*
X55389907Y-186428312D03*
%TD*%
D24*
%TO.C,REF\u002A\u002A*%
X336971862Y-157018376D03*
D23*
X336971862Y-154693376D03*
X336971862Y-151543376D03*
D18*
X336971862Y-149218376D03*
%TD*%
D35*
%TO.C,REF\u002A\u002A*%
X386209586Y-136766081D03*
D36*
X385909586Y-139796081D03*
X381059586Y-139796081D03*
D35*
X380759586Y-136766081D03*
D26*
X392374586Y-136636081D03*
D37*
X393274586Y-136636081D03*
D26*
X392374586Y-139176081D03*
D37*
X393274586Y-139176081D03*
D25*
X392374586Y-141716081D03*
D37*
X393274586Y-141716081D03*
D26*
X392374586Y-144256081D03*
D37*
X393274586Y-144256081D03*
D26*
X392374586Y-146796081D03*
D37*
X393274586Y-146796081D03*
D26*
X392374586Y-149336081D03*
D37*
X393274586Y-149336081D03*
D26*
X392374586Y-151876081D03*
D37*
X393274586Y-151876081D03*
D25*
X392374586Y-154416081D03*
D37*
X393274586Y-154416081D03*
D26*
X392374586Y-156956081D03*
D37*
X393274586Y-156956081D03*
D26*
X392374586Y-159496081D03*
D37*
X393274586Y-159496081D03*
D26*
X392374586Y-162036081D03*
D37*
X393274586Y-162036081D03*
D26*
X392374586Y-164576081D03*
D37*
X393274586Y-164576081D03*
D25*
X392374586Y-167116081D03*
D37*
X393274586Y-167116081D03*
D26*
X392374586Y-169656081D03*
D37*
X393274586Y-169656081D03*
D26*
X392374586Y-172196081D03*
D37*
X393274586Y-172196081D03*
D26*
X392374586Y-174736081D03*
D37*
X393274586Y-174736081D03*
D26*
X392374586Y-177276081D03*
D37*
X393274586Y-177276081D03*
D25*
X392374586Y-179816081D03*
D37*
X393274586Y-179816081D03*
D26*
X392374586Y-182356081D03*
D37*
X393274586Y-182356081D03*
D26*
X392374586Y-184896081D03*
D37*
X393274586Y-184896081D03*
D26*
X374594586Y-184896081D03*
D37*
X373694586Y-184896081D03*
D26*
X374594586Y-182356081D03*
D37*
X373694586Y-182356081D03*
D25*
X374594586Y-179816081D03*
D37*
X373694586Y-179816081D03*
D26*
X374594586Y-177276081D03*
D37*
X373694586Y-177276081D03*
D26*
X374594586Y-174736081D03*
D37*
X373694586Y-174736081D03*
D26*
X374594586Y-172196081D03*
D37*
X373694586Y-172196081D03*
D26*
X374594586Y-169656081D03*
D37*
X373694586Y-169656081D03*
D25*
X374594586Y-167116081D03*
D37*
X373694586Y-167116081D03*
D26*
X374594586Y-164576081D03*
D37*
X373694586Y-164576081D03*
D26*
X374594586Y-162036081D03*
D37*
X373694586Y-162036081D03*
D26*
X374594586Y-159496081D03*
D37*
X373694586Y-159496081D03*
D26*
X374594586Y-156956081D03*
D37*
X373694586Y-156956081D03*
D25*
X374594586Y-154416081D03*
D37*
X373694586Y-154416081D03*
D26*
X374594586Y-151876081D03*
D37*
X373694586Y-151876081D03*
D26*
X374594586Y-149336081D03*
D37*
X373694586Y-149336081D03*
D26*
X374594586Y-146796081D03*
D37*
X373694586Y-146796081D03*
D26*
X374594586Y-144256081D03*
D37*
X373694586Y-144256081D03*
D25*
X374594586Y-141716081D03*
D37*
X373694586Y-141716081D03*
D26*
X374594586Y-139176081D03*
D37*
X373694586Y-139176081D03*
D26*
X374594586Y-136636081D03*
D37*
X373694586Y-136636081D03*
D26*
X386024586Y-184666081D03*
D38*
X386024586Y-185566081D03*
D25*
X383484586Y-184666081D03*
D38*
X383484586Y-185566081D03*
D26*
X380944586Y-184666081D03*
D38*
X380944586Y-185566081D03*
%TD*%
D24*
%TO.C,REF\u002A\u002A*%
X344279441Y-137939383D03*
D23*
X344279441Y-135614383D03*
X344279441Y-132464383D03*
D18*
X344279441Y-130139383D03*
%TD*%
D24*
%TO.C,REF\u002A\u002A*%
X57765201Y-137186245D03*
D23*
X57765201Y-134861245D03*
X57765201Y-131711245D03*
D18*
X57765201Y-129386245D03*
%TD*%
D24*
%TO.C,REF\u002A\u002A*%
X308530006Y-175981964D03*
D23*
X308530006Y-173656964D03*
X308530006Y-170506964D03*
D18*
X308530006Y-168181964D03*
%TD*%
D24*
%TO.C,REF\u002A\u002A*%
X60159656Y-156180666D03*
D23*
X60159656Y-153855666D03*
X60159656Y-150705666D03*
D18*
X60159656Y-148380666D03*
%TD*%
D39*
%TO.C,REF\u002A\u002A*%
X235608996Y-200233095D03*
D40*
X235406359Y-197916942D03*
X235131819Y-194778929D03*
D18*
X234929182Y-192462776D03*
%TD*%
D24*
%TO.C,REF\u002A\u002A*%
X79175880Y-194355170D03*
D23*
X79175880Y-192030170D03*
X79175880Y-188880170D03*
D18*
X79175880Y-186555170D03*
%TD*%
D24*
%TO.C,REF\u002A\u002A*%
X64697617Y-175431183D03*
D23*
X64697617Y-173106183D03*
X64697617Y-169956183D03*
D18*
X64697617Y-167631183D03*
%TD*%
D24*
%TO.C,REF\u002A\u002A*%
X339366058Y-118927342D03*
D23*
X339366058Y-116602342D03*
X339366058Y-113452342D03*
D18*
X339366058Y-111127342D03*
%TD*%
D41*
%TO.C,REF\u002A\u002A*%
X151282550Y-202074476D03*
D42*
X151485187Y-199758323D03*
X151759728Y-196620310D03*
D18*
X151962365Y-194304157D03*
%TD*%
D41*
%TO.C,REF\u002A\u002A*%
X110760767Y-198854267D03*
D42*
X110963404Y-196538114D03*
X111237945Y-193400101D03*
D18*
X111440582Y-191083948D03*
%TD*%
D39*
%TO.C,REF\u002A\u002A*%
X275889386Y-196280841D03*
D40*
X275686749Y-193964688D03*
X275412209Y-190826675D03*
D18*
X275209572Y-188510522D03*
%TD*%
M02*
