G04 #@! TF.GenerationSoftware,KiCad,Pcbnew,7.0.1*
G04 #@! TF.CreationDate,2023-04-13T23:04:03-07:00*
G04 #@! TF.ProjectId,trashtruck.b,74726173-6874-4727-9563-6b2e622e6b69,rev?*
G04 #@! TF.SameCoordinates,Original*
G04 #@! TF.FileFunction,Soldermask,Top*
G04 #@! TF.FilePolarity,Negative*
%FSLAX46Y46*%
G04 Gerber Fmt 4.6, Leading zero omitted, Abs format (unit mm)*
G04 Created by KiCad (PCBNEW 7.0.1) date 2023-04-13 23:04:03*
%MOMM*%
%LPD*%
G01*
G04 APERTURE LIST*
%ADD10C,0.300000*%
%ADD11C,1.750000*%
%ADD12C,3.000000*%
%ADD13C,3.987800*%
%ADD14R,1.200000X1.200000*%
%ADD15R,1.600000X1.600000*%
%ADD16C,1.600000*%
%ADD17R,1.800000X1.800000*%
%ADD18O,1.800000X1.800000*%
%ADD19R,1.700000X1.700000*%
%ADD20O,1.700000X1.700000*%
%ADD21C,2.200000*%
%ADD22C,3.048000*%
%ADD23C,2.000000*%
%ADD24R,3.200000X2.000000*%
%ADD25R,2.000000X2.000000*%
G04 APERTURE END LIST*
D10*
X417238572Y-218212190D02*
X416381429Y-218212190D01*
X416810000Y-218212190D02*
X416810000Y-216612190D01*
X416810000Y-216612190D02*
X416667143Y-216840761D01*
X416667143Y-216840761D02*
X416524286Y-216993142D01*
X416524286Y-216993142D02*
X416381429Y-217069333D01*
X416381429Y-219356571D02*
X416452857Y-219280380D01*
X416452857Y-219280380D02*
X416595715Y-219204190D01*
X416595715Y-219204190D02*
X416952857Y-219204190D01*
X416952857Y-219204190D02*
X417095715Y-219280380D01*
X417095715Y-219280380D02*
X417167143Y-219356571D01*
X417167143Y-219356571D02*
X417238572Y-219508952D01*
X417238572Y-219508952D02*
X417238572Y-219661333D01*
X417238572Y-219661333D02*
X417167143Y-219889904D01*
X417167143Y-219889904D02*
X416310000Y-220804190D01*
X416310000Y-220804190D02*
X417238572Y-220804190D01*
X416310000Y-221796190D02*
X417238572Y-221796190D01*
X417238572Y-221796190D02*
X416738572Y-222405714D01*
X416738572Y-222405714D02*
X416952857Y-222405714D01*
X416952857Y-222405714D02*
X417095715Y-222481904D01*
X417095715Y-222481904D02*
X417167143Y-222558095D01*
X417167143Y-222558095D02*
X417238572Y-222710476D01*
X417238572Y-222710476D02*
X417238572Y-223091428D01*
X417238572Y-223091428D02*
X417167143Y-223243809D01*
X417167143Y-223243809D02*
X417095715Y-223320000D01*
X417095715Y-223320000D02*
X416952857Y-223396190D01*
X416952857Y-223396190D02*
X416524286Y-223396190D01*
X416524286Y-223396190D02*
X416381429Y-223320000D01*
X416381429Y-223320000D02*
X416310000Y-223243809D01*
X417095715Y-224921523D02*
X417095715Y-225988190D01*
X416738572Y-224312000D02*
X416381429Y-225454857D01*
X416381429Y-225454857D02*
X417310000Y-225454857D01*
X387177142Y-174265000D02*
X388320000Y-174265000D01*
X387748571Y-174836428D02*
X387748571Y-173693571D01*
X390962857Y-173407857D02*
X390820000Y-173336428D01*
X390820000Y-173336428D02*
X390605714Y-173336428D01*
X390605714Y-173336428D02*
X390391428Y-173407857D01*
X390391428Y-173407857D02*
X390248571Y-173550714D01*
X390248571Y-173550714D02*
X390177142Y-173693571D01*
X390177142Y-173693571D02*
X390105714Y-173979285D01*
X390105714Y-173979285D02*
X390105714Y-174193571D01*
X390105714Y-174193571D02*
X390177142Y-174479285D01*
X390177142Y-174479285D02*
X390248571Y-174622142D01*
X390248571Y-174622142D02*
X390391428Y-174765000D01*
X390391428Y-174765000D02*
X390605714Y-174836428D01*
X390605714Y-174836428D02*
X390748571Y-174836428D01*
X390748571Y-174836428D02*
X390962857Y-174765000D01*
X390962857Y-174765000D02*
X391034285Y-174693571D01*
X391034285Y-174693571D02*
X391034285Y-174193571D01*
X391034285Y-174193571D02*
X390748571Y-174193571D01*
X391677142Y-174836428D02*
X391677142Y-173336428D01*
X391677142Y-173336428D02*
X392534285Y-174836428D01*
X392534285Y-174836428D02*
X392534285Y-173336428D01*
X393248571Y-174836428D02*
X393248571Y-173336428D01*
X393248571Y-173336428D02*
X393605714Y-173336428D01*
X393605714Y-173336428D02*
X393820000Y-173407857D01*
X393820000Y-173407857D02*
X393962857Y-173550714D01*
X393962857Y-173550714D02*
X394034286Y-173693571D01*
X394034286Y-173693571D02*
X394105714Y-173979285D01*
X394105714Y-173979285D02*
X394105714Y-174193571D01*
X394105714Y-174193571D02*
X394034286Y-174479285D01*
X394034286Y-174479285D02*
X393962857Y-174622142D01*
X393962857Y-174622142D02*
X393820000Y-174765000D01*
X393820000Y-174765000D02*
X393605714Y-174836428D01*
X393605714Y-174836428D02*
X393248571Y-174836428D01*
X395891428Y-174265000D02*
X397034286Y-174265000D01*
X387432857Y-177374190D02*
X386575714Y-177374190D01*
X387004285Y-177374190D02*
X387004285Y-175774190D01*
X387004285Y-175774190D02*
X386861428Y-176002761D01*
X386861428Y-176002761D02*
X386718571Y-176155142D01*
X386718571Y-176155142D02*
X386575714Y-176231333D01*
X386575714Y-178518571D02*
X386647142Y-178442380D01*
X386647142Y-178442380D02*
X386790000Y-178366190D01*
X386790000Y-178366190D02*
X387147142Y-178366190D01*
X387147142Y-178366190D02*
X387290000Y-178442380D01*
X387290000Y-178442380D02*
X387361428Y-178518571D01*
X387361428Y-178518571D02*
X387432857Y-178670952D01*
X387432857Y-178670952D02*
X387432857Y-178823333D01*
X387432857Y-178823333D02*
X387361428Y-179051904D01*
X387361428Y-179051904D02*
X386504285Y-179966190D01*
X386504285Y-179966190D02*
X387432857Y-179966190D01*
X386504285Y-180958190D02*
X387432857Y-180958190D01*
X387432857Y-180958190D02*
X386932857Y-181567714D01*
X386932857Y-181567714D02*
X387147142Y-181567714D01*
X387147142Y-181567714D02*
X387290000Y-181643904D01*
X387290000Y-181643904D02*
X387361428Y-181720095D01*
X387361428Y-181720095D02*
X387432857Y-181872476D01*
X387432857Y-181872476D02*
X387432857Y-182253428D01*
X387432857Y-182253428D02*
X387361428Y-182405809D01*
X387361428Y-182405809D02*
X387290000Y-182482000D01*
X387290000Y-182482000D02*
X387147142Y-182558190D01*
X387147142Y-182558190D02*
X386718571Y-182558190D01*
X386718571Y-182558190D02*
X386575714Y-182482000D01*
X386575714Y-182482000D02*
X386504285Y-182405809D01*
X387290000Y-184083523D02*
X387290000Y-185150190D01*
X386932857Y-183474000D02*
X386575714Y-184616857D01*
X386575714Y-184616857D02*
X387504285Y-184616857D01*
X387361428Y-186142190D02*
X386647142Y-186142190D01*
X386647142Y-186142190D02*
X386575714Y-186904095D01*
X386575714Y-186904095D02*
X386647142Y-186827904D01*
X386647142Y-186827904D02*
X386790000Y-186751714D01*
X386790000Y-186751714D02*
X387147142Y-186751714D01*
X387147142Y-186751714D02*
X387290000Y-186827904D01*
X387290000Y-186827904D02*
X387361428Y-186904095D01*
X387361428Y-186904095D02*
X387432857Y-187056476D01*
X387432857Y-187056476D02*
X387432857Y-187437428D01*
X387432857Y-187437428D02*
X387361428Y-187589809D01*
X387361428Y-187589809D02*
X387290000Y-187666000D01*
X387290000Y-187666000D02*
X387147142Y-187742190D01*
X387147142Y-187742190D02*
X386790000Y-187742190D01*
X386790000Y-187742190D02*
X386647142Y-187666000D01*
X386647142Y-187666000D02*
X386575714Y-187589809D01*
X387290000Y-188734190D02*
X387004285Y-188734190D01*
X387004285Y-188734190D02*
X386861428Y-188810380D01*
X386861428Y-188810380D02*
X386790000Y-188886571D01*
X386790000Y-188886571D02*
X386647142Y-189115142D01*
X386647142Y-189115142D02*
X386575714Y-189419904D01*
X386575714Y-189419904D02*
X386575714Y-190029428D01*
X386575714Y-190029428D02*
X386647142Y-190181809D01*
X386647142Y-190181809D02*
X386718571Y-190258000D01*
X386718571Y-190258000D02*
X386861428Y-190334190D01*
X386861428Y-190334190D02*
X387147142Y-190334190D01*
X387147142Y-190334190D02*
X387290000Y-190258000D01*
X387290000Y-190258000D02*
X387361428Y-190181809D01*
X387361428Y-190181809D02*
X387432857Y-190029428D01*
X387432857Y-190029428D02*
X387432857Y-189648476D01*
X387432857Y-189648476D02*
X387361428Y-189496095D01*
X387361428Y-189496095D02*
X387290000Y-189419904D01*
X387290000Y-189419904D02*
X387147142Y-189343714D01*
X387147142Y-189343714D02*
X386861428Y-189343714D01*
X386861428Y-189343714D02*
X386718571Y-189419904D01*
X386718571Y-189419904D02*
X386647142Y-189496095D01*
X386647142Y-189496095D02*
X386575714Y-189648476D01*
X386504285Y-191326190D02*
X387504285Y-191326190D01*
X387504285Y-191326190D02*
X386861428Y-192926190D01*
X386861428Y-194603904D02*
X386718571Y-194527714D01*
X386718571Y-194527714D02*
X386647142Y-194451523D01*
X386647142Y-194451523D02*
X386575714Y-194299142D01*
X386575714Y-194299142D02*
X386575714Y-194222952D01*
X386575714Y-194222952D02*
X386647142Y-194070571D01*
X386647142Y-194070571D02*
X386718571Y-193994380D01*
X386718571Y-193994380D02*
X386861428Y-193918190D01*
X386861428Y-193918190D02*
X387147142Y-193918190D01*
X387147142Y-193918190D02*
X387290000Y-193994380D01*
X387290000Y-193994380D02*
X387361428Y-194070571D01*
X387361428Y-194070571D02*
X387432857Y-194222952D01*
X387432857Y-194222952D02*
X387432857Y-194299142D01*
X387432857Y-194299142D02*
X387361428Y-194451523D01*
X387361428Y-194451523D02*
X387290000Y-194527714D01*
X387290000Y-194527714D02*
X387147142Y-194603904D01*
X387147142Y-194603904D02*
X386861428Y-194603904D01*
X386861428Y-194603904D02*
X386718571Y-194680095D01*
X386718571Y-194680095D02*
X386647142Y-194756285D01*
X386647142Y-194756285D02*
X386575714Y-194908666D01*
X386575714Y-194908666D02*
X386575714Y-195213428D01*
X386575714Y-195213428D02*
X386647142Y-195365809D01*
X386647142Y-195365809D02*
X386718571Y-195442000D01*
X386718571Y-195442000D02*
X386861428Y-195518190D01*
X386861428Y-195518190D02*
X387147142Y-195518190D01*
X387147142Y-195518190D02*
X387290000Y-195442000D01*
X387290000Y-195442000D02*
X387361428Y-195365809D01*
X387361428Y-195365809D02*
X387432857Y-195213428D01*
X387432857Y-195213428D02*
X387432857Y-194908666D01*
X387432857Y-194908666D02*
X387361428Y-194756285D01*
X387361428Y-194756285D02*
X387290000Y-194680095D01*
X387290000Y-194680095D02*
X387147142Y-194603904D01*
X386718571Y-198110190D02*
X387004285Y-198110190D01*
X387004285Y-198110190D02*
X387147142Y-198034000D01*
X387147142Y-198034000D02*
X387218571Y-197957809D01*
X387218571Y-197957809D02*
X387361428Y-197729238D01*
X387361428Y-197729238D02*
X387432857Y-197424476D01*
X387432857Y-197424476D02*
X387432857Y-196814952D01*
X387432857Y-196814952D02*
X387361428Y-196662571D01*
X387361428Y-196662571D02*
X387290000Y-196586380D01*
X387290000Y-196586380D02*
X387147142Y-196510190D01*
X387147142Y-196510190D02*
X386861428Y-196510190D01*
X386861428Y-196510190D02*
X386718571Y-196586380D01*
X386718571Y-196586380D02*
X386647142Y-196662571D01*
X386647142Y-196662571D02*
X386575714Y-196814952D01*
X386575714Y-196814952D02*
X386575714Y-197195904D01*
X386575714Y-197195904D02*
X386647142Y-197348285D01*
X386647142Y-197348285D02*
X386718571Y-197424476D01*
X386718571Y-197424476D02*
X386861428Y-197500666D01*
X386861428Y-197500666D02*
X387147142Y-197500666D01*
X387147142Y-197500666D02*
X387290000Y-197424476D01*
X387290000Y-197424476D02*
X387361428Y-197348285D01*
X387361428Y-197348285D02*
X387432857Y-197195904D01*
X387432857Y-200702190D02*
X386575714Y-200702190D01*
X387004285Y-200702190D02*
X387004285Y-199102190D01*
X387004285Y-199102190D02*
X386861428Y-199330761D01*
X386861428Y-199330761D02*
X386718571Y-199483142D01*
X386718571Y-199483142D02*
X386575714Y-199559333D01*
X388361428Y-199102190D02*
X388504285Y-199102190D01*
X388504285Y-199102190D02*
X388647142Y-199178380D01*
X388647142Y-199178380D02*
X388718571Y-199254571D01*
X388718571Y-199254571D02*
X388789999Y-199406952D01*
X388789999Y-199406952D02*
X388861428Y-199711714D01*
X388861428Y-199711714D02*
X388861428Y-200092666D01*
X388861428Y-200092666D02*
X388789999Y-200397428D01*
X388789999Y-200397428D02*
X388718571Y-200549809D01*
X388718571Y-200549809D02*
X388647142Y-200626000D01*
X388647142Y-200626000D02*
X388504285Y-200702190D01*
X388504285Y-200702190D02*
X388361428Y-200702190D01*
X388361428Y-200702190D02*
X388218571Y-200626000D01*
X388218571Y-200626000D02*
X388147142Y-200549809D01*
X388147142Y-200549809D02*
X388075713Y-200397428D01*
X388075713Y-200397428D02*
X388004285Y-200092666D01*
X388004285Y-200092666D02*
X388004285Y-199711714D01*
X388004285Y-199711714D02*
X388075713Y-199406952D01*
X388075713Y-199406952D02*
X388147142Y-199254571D01*
X388147142Y-199254571D02*
X388218571Y-199178380D01*
X388218571Y-199178380D02*
X388361428Y-199102190D01*
X387432857Y-203294190D02*
X386575714Y-203294190D01*
X387004285Y-203294190D02*
X387004285Y-201694190D01*
X387004285Y-201694190D02*
X386861428Y-201922761D01*
X386861428Y-201922761D02*
X386718571Y-202075142D01*
X386718571Y-202075142D02*
X386575714Y-202151333D01*
X388861428Y-203294190D02*
X388004285Y-203294190D01*
X388432856Y-203294190D02*
X388432856Y-201694190D01*
X388432856Y-201694190D02*
X388289999Y-201922761D01*
X388289999Y-201922761D02*
X388147142Y-202075142D01*
X388147142Y-202075142D02*
X388004285Y-202151333D01*
X387432857Y-205886190D02*
X386575714Y-205886190D01*
X387004285Y-205886190D02*
X387004285Y-204286190D01*
X387004285Y-204286190D02*
X386861428Y-204514761D01*
X386861428Y-204514761D02*
X386718571Y-204667142D01*
X386718571Y-204667142D02*
X386575714Y-204743333D01*
X388004285Y-204438571D02*
X388075713Y-204362380D01*
X388075713Y-204362380D02*
X388218571Y-204286190D01*
X388218571Y-204286190D02*
X388575713Y-204286190D01*
X388575713Y-204286190D02*
X388718571Y-204362380D01*
X388718571Y-204362380D02*
X388789999Y-204438571D01*
X388789999Y-204438571D02*
X388861428Y-204590952D01*
X388861428Y-204590952D02*
X388861428Y-204743333D01*
X388861428Y-204743333D02*
X388789999Y-204971904D01*
X388789999Y-204971904D02*
X387932856Y-205886190D01*
X387932856Y-205886190D02*
X388861428Y-205886190D01*
X387432857Y-208478190D02*
X386575714Y-208478190D01*
X387004285Y-208478190D02*
X387004285Y-206878190D01*
X387004285Y-206878190D02*
X386861428Y-207106761D01*
X386861428Y-207106761D02*
X386718571Y-207259142D01*
X386718571Y-207259142D02*
X386575714Y-207335333D01*
X387932856Y-206878190D02*
X388861428Y-206878190D01*
X388861428Y-206878190D02*
X388361428Y-207487714D01*
X388361428Y-207487714D02*
X388575713Y-207487714D01*
X388575713Y-207487714D02*
X388718571Y-207563904D01*
X388718571Y-207563904D02*
X388789999Y-207640095D01*
X388789999Y-207640095D02*
X388861428Y-207792476D01*
X388861428Y-207792476D02*
X388861428Y-208173428D01*
X388861428Y-208173428D02*
X388789999Y-208325809D01*
X388789999Y-208325809D02*
X388718571Y-208402000D01*
X388718571Y-208402000D02*
X388575713Y-208478190D01*
X388575713Y-208478190D02*
X388147142Y-208478190D01*
X388147142Y-208478190D02*
X388004285Y-208402000D01*
X388004285Y-208402000D02*
X387932856Y-208325809D01*
X387432857Y-211070190D02*
X386575714Y-211070190D01*
X387004285Y-211070190D02*
X387004285Y-209470190D01*
X387004285Y-209470190D02*
X386861428Y-209698761D01*
X386861428Y-209698761D02*
X386718571Y-209851142D01*
X386718571Y-209851142D02*
X386575714Y-209927333D01*
X388718571Y-210003523D02*
X388718571Y-211070190D01*
X388361428Y-209394000D02*
X388004285Y-210536857D01*
X388004285Y-210536857D02*
X388932856Y-210536857D01*
X387432857Y-213662190D02*
X386575714Y-213662190D01*
X387004285Y-213662190D02*
X387004285Y-212062190D01*
X387004285Y-212062190D02*
X386861428Y-212290761D01*
X386861428Y-212290761D02*
X386718571Y-212443142D01*
X386718571Y-212443142D02*
X386575714Y-212519333D01*
X388789999Y-212062190D02*
X388075713Y-212062190D01*
X388075713Y-212062190D02*
X388004285Y-212824095D01*
X388004285Y-212824095D02*
X388075713Y-212747904D01*
X388075713Y-212747904D02*
X388218571Y-212671714D01*
X388218571Y-212671714D02*
X388575713Y-212671714D01*
X388575713Y-212671714D02*
X388718571Y-212747904D01*
X388718571Y-212747904D02*
X388789999Y-212824095D01*
X388789999Y-212824095D02*
X388861428Y-212976476D01*
X388861428Y-212976476D02*
X388861428Y-213357428D01*
X388861428Y-213357428D02*
X388789999Y-213509809D01*
X388789999Y-213509809D02*
X388718571Y-213586000D01*
X388718571Y-213586000D02*
X388575713Y-213662190D01*
X388575713Y-213662190D02*
X388218571Y-213662190D01*
X388218571Y-213662190D02*
X388075713Y-213586000D01*
X388075713Y-213586000D02*
X388004285Y-213509809D01*
X387432857Y-216254190D02*
X386575714Y-216254190D01*
X387004285Y-216254190D02*
X387004285Y-214654190D01*
X387004285Y-214654190D02*
X386861428Y-214882761D01*
X386861428Y-214882761D02*
X386718571Y-215035142D01*
X386718571Y-215035142D02*
X386575714Y-215111333D01*
X388718571Y-214654190D02*
X388432856Y-214654190D01*
X388432856Y-214654190D02*
X388289999Y-214730380D01*
X388289999Y-214730380D02*
X388218571Y-214806571D01*
X388218571Y-214806571D02*
X388075713Y-215035142D01*
X388075713Y-215035142D02*
X388004285Y-215339904D01*
X388004285Y-215339904D02*
X388004285Y-215949428D01*
X388004285Y-215949428D02*
X388075713Y-216101809D01*
X388075713Y-216101809D02*
X388147142Y-216178000D01*
X388147142Y-216178000D02*
X388289999Y-216254190D01*
X388289999Y-216254190D02*
X388575713Y-216254190D01*
X388575713Y-216254190D02*
X388718571Y-216178000D01*
X388718571Y-216178000D02*
X388789999Y-216101809D01*
X388789999Y-216101809D02*
X388861428Y-215949428D01*
X388861428Y-215949428D02*
X388861428Y-215568476D01*
X388861428Y-215568476D02*
X388789999Y-215416095D01*
X388789999Y-215416095D02*
X388718571Y-215339904D01*
X388718571Y-215339904D02*
X388575713Y-215263714D01*
X388575713Y-215263714D02*
X388289999Y-215263714D01*
X388289999Y-215263714D02*
X388147142Y-215339904D01*
X388147142Y-215339904D02*
X388075713Y-215416095D01*
X388075713Y-215416095D02*
X388004285Y-215568476D01*
D11*
X286235000Y-199140000D03*
D12*
X287505000Y-196600000D03*
D13*
X291315000Y-199140000D03*
D12*
X293855000Y-194060000D03*
D11*
X296395000Y-199140000D03*
D14*
X298815000Y-200845000D03*
D15*
X298815000Y-203170000D03*
D16*
X298815000Y-195370000D03*
D14*
X298815000Y-197695000D03*
D17*
X144020000Y-241520000D03*
D18*
X144020000Y-233900000D03*
D17*
X148780000Y-222410000D03*
D18*
X148780000Y-214790000D03*
D11*
X305285000Y-199140000D03*
D12*
X306555000Y-196600000D03*
D13*
X310365000Y-199140000D03*
D12*
X312905000Y-194060000D03*
D11*
X315445000Y-199140000D03*
D14*
X317865000Y-200845000D03*
D15*
X317865000Y-203170000D03*
D16*
X317865000Y-195370000D03*
D14*
X317865000Y-197695000D03*
D19*
X410150000Y-217610000D03*
D20*
X410150000Y-220150000D03*
X410150000Y-222690000D03*
X410150000Y-225230000D03*
D11*
X443397500Y-180090000D03*
D12*
X444667500Y-177550000D03*
D13*
X448477500Y-180090000D03*
D12*
X451017500Y-175010000D03*
D11*
X453557500Y-180090000D03*
D14*
X455977500Y-181795000D03*
D15*
X455977500Y-184120000D03*
D16*
X455977500Y-176320000D03*
D14*
X455977500Y-178645000D03*
D19*
X389350000Y-176830000D03*
D20*
X391890000Y-176830000D03*
X394430000Y-176830000D03*
D11*
X424347500Y-218190000D03*
D12*
X425617500Y-215650000D03*
D13*
X429427500Y-218190000D03*
D12*
X431967500Y-213110000D03*
D11*
X434507500Y-218190000D03*
D14*
X436927500Y-219895000D03*
D15*
X436927500Y-222220000D03*
D16*
X436927500Y-214420000D03*
D14*
X436927500Y-216745000D03*
D11*
X148122500Y-180090000D03*
D12*
X149392500Y-177550000D03*
D13*
X153202500Y-180090000D03*
D12*
X155742500Y-175010000D03*
D11*
X158282500Y-180090000D03*
D14*
X160702500Y-181795000D03*
D15*
X160702500Y-184120000D03*
D16*
X160702500Y-176320000D03*
D14*
X160702500Y-178645000D03*
D19*
X384740000Y-176760000D03*
D20*
X384740000Y-179300000D03*
X384740000Y-181840000D03*
X384740000Y-184380000D03*
X384740000Y-186920000D03*
X384740000Y-189460000D03*
X384740000Y-192000000D03*
X384740000Y-194540000D03*
X384740000Y-197080000D03*
X384740000Y-199620000D03*
X384740000Y-202160000D03*
X384740000Y-204700000D03*
X384740000Y-207240000D03*
X384740000Y-209780000D03*
X384740000Y-212320000D03*
X384740000Y-214860000D03*
D11*
X167172500Y-180090000D03*
D12*
X168442500Y-177550000D03*
D13*
X172252500Y-180090000D03*
D12*
X174792500Y-175010000D03*
D11*
X177332500Y-180090000D03*
D14*
X179752500Y-181795000D03*
D15*
X179752500Y-184120000D03*
D16*
X179752500Y-176320000D03*
D14*
X179752500Y-178645000D03*
D17*
X348730000Y-241160000D03*
D18*
X348730000Y-233540000D03*
D11*
X136270000Y-218200000D03*
D12*
X137540000Y-215660000D03*
D13*
X141350000Y-218200000D03*
D12*
X143890000Y-213120000D03*
D11*
X146430000Y-218200000D03*
X152885000Y-237240000D03*
D12*
X154155000Y-234700000D03*
D13*
X157965000Y-237240000D03*
D12*
X160505000Y-232160000D03*
D11*
X163045000Y-237240000D03*
D14*
X165465000Y-238945000D03*
D15*
X165465000Y-241270000D03*
D16*
X165465000Y-233470000D03*
D14*
X165465000Y-235795000D03*
D11*
X171935000Y-199140000D03*
D12*
X173205000Y-196600000D03*
D13*
X177015000Y-199140000D03*
D12*
X179555000Y-194060000D03*
D11*
X182095000Y-199140000D03*
D14*
X184515000Y-200845000D03*
D15*
X184515000Y-203170000D03*
D16*
X184515000Y-195370000D03*
D14*
X184515000Y-197695000D03*
D11*
X462447500Y-237240000D03*
D12*
X463717500Y-234700000D03*
D13*
X467527500Y-237240000D03*
D12*
X470067500Y-232160000D03*
D11*
X472607500Y-237240000D03*
D14*
X475027500Y-238945000D03*
D15*
X475027500Y-241270000D03*
D16*
X475027500Y-233470000D03*
D14*
X475027500Y-235795000D03*
D11*
X462447500Y-199140000D03*
D12*
X463717500Y-196600000D03*
D13*
X467527500Y-199140000D03*
D12*
X470067500Y-194060000D03*
D11*
X472607500Y-199140000D03*
D14*
X475027500Y-200845000D03*
D15*
X475027500Y-203170000D03*
D16*
X475027500Y-195370000D03*
D14*
X475027500Y-197695000D03*
D11*
X360030000Y-180060000D03*
D12*
X361300000Y-177520000D03*
D13*
X365110000Y-180060000D03*
D12*
X367650000Y-174980000D03*
D11*
X370190000Y-180060000D03*
X224322500Y-180090000D03*
D12*
X225592500Y-177550000D03*
D13*
X229402500Y-180090000D03*
D12*
X231942500Y-175010000D03*
D11*
X234482500Y-180090000D03*
D14*
X236902500Y-181795000D03*
D15*
X236902500Y-184120000D03*
D16*
X236902500Y-176320000D03*
D14*
X236902500Y-178645000D03*
D11*
X410060000Y-246765000D03*
D12*
X411330000Y-244225000D03*
D13*
X415140000Y-246765000D03*
D12*
X417680000Y-241685000D03*
D11*
X420220000Y-246765000D03*
D14*
X422640000Y-248470000D03*
D15*
X422640000Y-250795000D03*
D16*
X422640000Y-242995000D03*
D14*
X422640000Y-245320000D03*
D11*
X171935000Y-237240000D03*
D12*
X173205000Y-234700000D03*
D13*
X177015000Y-237240000D03*
D12*
X179555000Y-232160000D03*
D11*
X182095000Y-237240000D03*
D14*
X184515000Y-238945000D03*
D15*
X184515000Y-241270000D03*
D16*
X184515000Y-233470000D03*
D14*
X184515000Y-235795000D03*
D11*
X338622500Y-180090000D03*
D12*
X339892500Y-177550000D03*
D13*
X343702500Y-180090000D03*
D12*
X346242500Y-175010000D03*
D11*
X348782500Y-180090000D03*
D14*
X351202500Y-181795000D03*
D15*
X351202500Y-184120000D03*
D16*
X351202500Y-176320000D03*
D14*
X351202500Y-178645000D03*
D21*
X478770000Y-247480000D03*
D11*
X257660000Y-218190000D03*
D12*
X258930000Y-215650000D03*
D13*
X262740000Y-218190000D03*
D12*
X265280000Y-213110000D03*
D11*
X267820000Y-218190000D03*
D14*
X270240000Y-219895000D03*
D15*
X270240000Y-222220000D03*
D16*
X270240000Y-214420000D03*
D14*
X270240000Y-216745000D03*
D11*
X355210000Y-218250000D03*
D12*
X356480000Y-215710000D03*
D13*
X360290000Y-218250000D03*
D12*
X362830000Y-213170000D03*
D11*
X365370000Y-218250000D03*
X281472500Y-180090000D03*
D12*
X282742500Y-177550000D03*
D13*
X286552500Y-180090000D03*
D12*
X289092500Y-175010000D03*
D11*
X291632500Y-180090000D03*
D14*
X294052500Y-181795000D03*
D15*
X294052500Y-184120000D03*
D16*
X294052500Y-176320000D03*
D14*
X294052500Y-178645000D03*
D11*
X131507500Y-199150000D03*
D12*
X132777500Y-196610000D03*
D13*
X136587500Y-199150000D03*
D12*
X139127500Y-194070000D03*
D11*
X141667500Y-199150000D03*
X324335000Y-199140000D03*
D12*
X325605000Y-196600000D03*
D13*
X329415000Y-199140000D03*
D12*
X331955000Y-194060000D03*
D11*
X334495000Y-199140000D03*
D14*
X336915000Y-200845000D03*
D15*
X336915000Y-203170000D03*
D16*
X336915000Y-195370000D03*
D14*
X336915000Y-197695000D03*
D11*
X391010000Y-227715000D03*
D12*
X392280000Y-225175000D03*
D13*
X396090000Y-227715000D03*
D12*
X398630000Y-222635000D03*
D11*
X401170000Y-227715000D03*
D14*
X403590000Y-229420000D03*
D15*
X403590000Y-231745000D03*
D16*
X403590000Y-223945000D03*
D14*
X403590000Y-226270000D03*
D22*
X196125100Y-230265000D03*
D13*
X196125100Y-245505000D03*
D11*
X241045000Y-237250000D03*
D12*
X242315000Y-234710000D03*
D13*
X246125000Y-237250000D03*
D12*
X248665000Y-232170000D03*
D11*
X251205000Y-237250000D03*
D22*
X296124900Y-230265000D03*
D13*
X296124900Y-245505000D03*
D21*
X123180000Y-247610000D03*
D11*
X333860000Y-218190000D03*
D12*
X335130000Y-215650000D03*
D13*
X338940000Y-218190000D03*
D12*
X341480000Y-213110000D03*
D11*
X344020000Y-218190000D03*
D14*
X346440000Y-219895000D03*
D15*
X346440000Y-222220000D03*
D16*
X346440000Y-214420000D03*
D14*
X346440000Y-216745000D03*
D11*
X210035000Y-199140000D03*
D12*
X211305000Y-196600000D03*
D13*
X215115000Y-199140000D03*
D12*
X217655000Y-194060000D03*
D11*
X220195000Y-199140000D03*
D14*
X222615000Y-200845000D03*
D15*
X222615000Y-203170000D03*
D16*
X222615000Y-195370000D03*
D14*
X222615000Y-197695000D03*
D22*
X346028250Y-192125000D03*
D13*
X346028250Y-207365000D03*
D11*
X352886250Y-199110000D03*
D12*
X354156250Y-196570000D03*
D13*
X357966250Y-199110000D03*
D12*
X360506250Y-194030000D03*
D11*
X363046250Y-199110000D03*
D22*
X369904250Y-192125000D03*
D13*
X369904250Y-207365000D03*
D17*
X324930000Y-241200000D03*
D18*
X324930000Y-233580000D03*
D11*
X424347500Y-180090000D03*
D12*
X425617500Y-177550000D03*
D13*
X429427500Y-180090000D03*
D12*
X431967500Y-175010000D03*
D11*
X434507500Y-180090000D03*
D14*
X436927500Y-181795000D03*
D15*
X436927500Y-184120000D03*
D16*
X436927500Y-176320000D03*
D14*
X436927500Y-178645000D03*
D11*
X443397500Y-218190000D03*
D12*
X444667500Y-215650000D03*
D13*
X448477500Y-218190000D03*
D12*
X451017500Y-213110000D03*
D11*
X453557500Y-218190000D03*
D14*
X455977500Y-219895000D03*
D15*
X455977500Y-222220000D03*
D16*
X455977500Y-214420000D03*
D14*
X455977500Y-216745000D03*
D11*
X295760000Y-218190000D03*
D12*
X297030000Y-215650000D03*
D13*
X300840000Y-218190000D03*
D12*
X303380000Y-213110000D03*
D11*
X305920000Y-218190000D03*
D14*
X308340000Y-219895000D03*
D15*
X308340000Y-222220000D03*
D16*
X308340000Y-214420000D03*
D14*
X308340000Y-216745000D03*
D11*
X267185000Y-199140000D03*
D12*
X268455000Y-196600000D03*
D13*
X272265000Y-199140000D03*
D12*
X274805000Y-194060000D03*
D11*
X277345000Y-199140000D03*
D14*
X279765000Y-200845000D03*
D15*
X279765000Y-203170000D03*
D16*
X279765000Y-195370000D03*
D14*
X279765000Y-197695000D03*
D11*
X181460000Y-218190000D03*
D12*
X182730000Y-215650000D03*
D13*
X186540000Y-218190000D03*
D12*
X189080000Y-213110000D03*
D11*
X191620000Y-218190000D03*
D14*
X194040000Y-219895000D03*
D15*
X194040000Y-222220000D03*
D16*
X194040000Y-214420000D03*
D14*
X194040000Y-216745000D03*
D11*
X219560000Y-218190000D03*
D12*
X220830000Y-215650000D03*
D13*
X224640000Y-218190000D03*
D12*
X227180000Y-213110000D03*
D11*
X229720000Y-218190000D03*
D14*
X232140000Y-219895000D03*
D15*
X232140000Y-222220000D03*
D16*
X232140000Y-214420000D03*
D14*
X232140000Y-216745000D03*
D23*
X405580000Y-188210000D03*
X405580000Y-193210000D03*
D24*
X398580000Y-196310000D03*
X398580000Y-185110000D03*
D23*
X391080000Y-190710000D03*
X391080000Y-193210000D03*
D25*
X391080000Y-188210000D03*
D11*
X205272500Y-180090000D03*
D12*
X206542500Y-177550000D03*
D13*
X210352500Y-180090000D03*
D12*
X212892500Y-175010000D03*
D11*
X215432500Y-180090000D03*
D14*
X217852500Y-181795000D03*
D15*
X217852500Y-184120000D03*
D16*
X217852500Y-176320000D03*
D14*
X217852500Y-178645000D03*
D17*
X144140000Y-203150000D03*
D18*
X144140000Y-195530000D03*
D11*
X243372500Y-180090000D03*
D12*
X244642500Y-177550000D03*
D13*
X248452500Y-180090000D03*
D12*
X250992500Y-175010000D03*
D11*
X253532500Y-180090000D03*
D14*
X255952500Y-181795000D03*
D15*
X255952500Y-184120000D03*
D16*
X255952500Y-176320000D03*
D14*
X255952500Y-178645000D03*
D17*
X365580000Y-203070000D03*
D18*
X365580000Y-195450000D03*
D11*
X312405000Y-237210000D03*
D12*
X313675000Y-234670000D03*
D13*
X317485000Y-237210000D03*
D12*
X320025000Y-232130000D03*
D11*
X322565000Y-237210000D03*
X443397500Y-199140000D03*
D12*
X444667500Y-196600000D03*
D13*
X448477500Y-199140000D03*
D12*
X451017500Y-194060000D03*
D11*
X453557500Y-199140000D03*
D14*
X455977500Y-200845000D03*
D15*
X455977500Y-203170000D03*
D16*
X455977500Y-195370000D03*
D14*
X455977500Y-197695000D03*
D11*
X300522500Y-180090000D03*
D12*
X301792500Y-177550000D03*
D13*
X305602500Y-180090000D03*
D12*
X308142500Y-175010000D03*
D11*
X310682500Y-180090000D03*
D14*
X313102500Y-181795000D03*
D15*
X313102500Y-184120000D03*
D16*
X313102500Y-176320000D03*
D14*
X313102500Y-178645000D03*
D17*
X367940000Y-222200000D03*
D18*
X367940000Y-214580000D03*
D11*
X319572500Y-180090000D03*
D12*
X320842500Y-177550000D03*
D13*
X324652500Y-180090000D03*
D12*
X327192500Y-175010000D03*
D11*
X329732500Y-180090000D03*
D14*
X332152500Y-181795000D03*
D15*
X332152500Y-184120000D03*
D16*
X332152500Y-176320000D03*
D14*
X332152500Y-178645000D03*
D11*
X462447500Y-218190000D03*
D12*
X463717500Y-215650000D03*
D13*
X467527500Y-218190000D03*
D12*
X470067500Y-213110000D03*
D11*
X472607500Y-218190000D03*
D14*
X475027500Y-219895000D03*
D15*
X475027500Y-222220000D03*
D16*
X475027500Y-214420000D03*
D14*
X475027500Y-216745000D03*
D21*
X478690000Y-169430000D03*
D11*
X391010000Y-246765000D03*
D12*
X392280000Y-244225000D03*
D13*
X396090000Y-246765000D03*
D12*
X398630000Y-241685000D03*
D11*
X401170000Y-246765000D03*
D14*
X403590000Y-248470000D03*
D15*
X403590000Y-250795000D03*
D16*
X403590000Y-242995000D03*
D14*
X403590000Y-245320000D03*
D11*
X371960000Y-246765000D03*
D12*
X373230000Y-244225000D03*
D13*
X377040000Y-246765000D03*
D12*
X379580000Y-241685000D03*
D11*
X382120000Y-246765000D03*
D14*
X384540000Y-248470000D03*
D15*
X384540000Y-250795000D03*
D16*
X384540000Y-242995000D03*
D14*
X384540000Y-245320000D03*
D11*
X314810000Y-218190000D03*
D12*
X316080000Y-215650000D03*
D13*
X319890000Y-218190000D03*
D12*
X322430000Y-213110000D03*
D11*
X324970000Y-218190000D03*
D14*
X327390000Y-219895000D03*
D15*
X327390000Y-222220000D03*
D16*
X327390000Y-214420000D03*
D14*
X327390000Y-216745000D03*
D11*
X462447500Y-180090000D03*
D12*
X463717500Y-177550000D03*
D13*
X467527500Y-180090000D03*
D12*
X470067500Y-175010000D03*
D11*
X472607500Y-180090000D03*
D14*
X475027500Y-181795000D03*
D15*
X475027500Y-184120000D03*
D16*
X475027500Y-176320000D03*
D14*
X475027500Y-178645000D03*
D11*
X229085000Y-199140000D03*
D12*
X230355000Y-196600000D03*
D13*
X234165000Y-199140000D03*
D12*
X236705000Y-194060000D03*
D11*
X239245000Y-199140000D03*
D14*
X241665000Y-200845000D03*
D15*
X241665000Y-203170000D03*
D16*
X241665000Y-195370000D03*
D14*
X241665000Y-197695000D03*
D11*
X238610000Y-218190000D03*
D12*
X239880000Y-215650000D03*
D13*
X243690000Y-218190000D03*
D12*
X246230000Y-213110000D03*
D11*
X248770000Y-218190000D03*
D14*
X251190000Y-219895000D03*
D15*
X251190000Y-222220000D03*
D16*
X251190000Y-214420000D03*
D14*
X251190000Y-216745000D03*
D21*
X123100000Y-169560000D03*
D11*
X162410000Y-218190000D03*
D12*
X163680000Y-215650000D03*
D13*
X167490000Y-218190000D03*
D12*
X170030000Y-213110000D03*
D11*
X172570000Y-218190000D03*
D14*
X174990000Y-219895000D03*
D15*
X174990000Y-222220000D03*
D16*
X174990000Y-214420000D03*
D14*
X174990000Y-216745000D03*
D11*
X186222500Y-180090000D03*
D12*
X187492500Y-177550000D03*
D13*
X191302500Y-180090000D03*
D12*
X193842500Y-175010000D03*
D11*
X196382500Y-180090000D03*
D14*
X198802500Y-181795000D03*
D15*
X198802500Y-184120000D03*
D16*
X198802500Y-176320000D03*
D14*
X198802500Y-178645000D03*
D11*
X200510000Y-218190000D03*
D12*
X201780000Y-215650000D03*
D13*
X205590000Y-218190000D03*
D12*
X208130000Y-213110000D03*
D11*
X210670000Y-218190000D03*
D14*
X213090000Y-219895000D03*
D15*
X213090000Y-222220000D03*
D16*
X213090000Y-214420000D03*
D14*
X213090000Y-216745000D03*
D11*
X248135000Y-199140000D03*
D12*
X249405000Y-196600000D03*
D13*
X253215000Y-199140000D03*
D12*
X255755000Y-194060000D03*
D11*
X258295000Y-199140000D03*
D14*
X260715000Y-200845000D03*
D15*
X260715000Y-203170000D03*
D16*
X260715000Y-195370000D03*
D14*
X260715000Y-197695000D03*
D11*
X129072500Y-180090000D03*
D12*
X130342500Y-177550000D03*
D13*
X134152500Y-180090000D03*
D12*
X136692500Y-175010000D03*
D11*
X139232500Y-180090000D03*
D14*
X141652500Y-181795000D03*
D15*
X141652500Y-184120000D03*
D16*
X141652500Y-176320000D03*
D14*
X141652500Y-178645000D03*
D11*
X424347500Y-199140000D03*
D12*
X425617500Y-196600000D03*
D13*
X429427500Y-199140000D03*
D12*
X431967500Y-194060000D03*
D11*
X434507500Y-199140000D03*
D14*
X436927500Y-200845000D03*
D15*
X436927500Y-203170000D03*
D16*
X436927500Y-195370000D03*
D14*
X436927500Y-197695000D03*
D11*
X276710000Y-218190000D03*
D12*
X277980000Y-215650000D03*
D13*
X281790000Y-218190000D03*
D12*
X284330000Y-213110000D03*
D11*
X286870000Y-218190000D03*
D14*
X289290000Y-219895000D03*
D15*
X289290000Y-222220000D03*
D16*
X289290000Y-214420000D03*
D14*
X289290000Y-216745000D03*
D11*
X336217500Y-237210000D03*
D12*
X337487500Y-234670000D03*
D13*
X341297500Y-237210000D03*
D12*
X343837500Y-232130000D03*
D11*
X346377500Y-237210000D03*
D17*
X253590000Y-241340000D03*
D18*
X253590000Y-233720000D03*
D11*
X152885000Y-199140000D03*
D12*
X154155000Y-196600000D03*
D13*
X157965000Y-199140000D03*
D12*
X160505000Y-194060000D03*
D11*
X163045000Y-199140000D03*
D14*
X165465000Y-200845000D03*
D15*
X165465000Y-203170000D03*
D16*
X165465000Y-195370000D03*
D14*
X165465000Y-197695000D03*
D17*
X419050000Y-187870000D03*
D18*
X419050000Y-180250000D03*
D11*
X190985000Y-199140000D03*
D12*
X192255000Y-196600000D03*
D13*
X196065000Y-199140000D03*
D12*
X198605000Y-194060000D03*
D11*
X201145000Y-199140000D03*
D14*
X203565000Y-200845000D03*
D15*
X203565000Y-203170000D03*
D16*
X203565000Y-195370000D03*
D14*
X203565000Y-197695000D03*
D11*
X131507500Y-237250000D03*
D12*
X132777500Y-234710000D03*
D13*
X136587500Y-237250000D03*
D12*
X139127500Y-232170000D03*
D11*
X141667500Y-237250000D03*
X262422500Y-180090000D03*
D12*
X263692500Y-177550000D03*
D13*
X267502500Y-180090000D03*
D12*
X270042500Y-175010000D03*
D11*
X272582500Y-180090000D03*
D14*
X275002500Y-181795000D03*
D15*
X275002500Y-184120000D03*
D16*
X275002500Y-176320000D03*
D14*
X275002500Y-178645000D03*
D17*
X372540000Y-184030000D03*
D18*
X372540000Y-176410000D03*
D11*
X443397500Y-237240000D03*
D12*
X444667500Y-234700000D03*
D13*
X448477500Y-237240000D03*
D12*
X451017500Y-232160000D03*
D11*
X453557500Y-237240000D03*
D14*
X455977500Y-238945000D03*
D15*
X455977500Y-241270000D03*
D16*
X455977500Y-233470000D03*
D14*
X455977500Y-235795000D03*
M02*
