M48
; DRILL file {KiCad 7.0.1} date Thu Apr 13 23:03:59 2023
; FORMAT={-:-/ absolute / metric / decimal}
; #@! TF.CreationDate,2023-04-13T23:03:59-07:00
; #@! TF.GenerationSoftware,Kicad,Pcbnew,7.0.1
; #@! TF.FileFunction,NonPlated,1,2,NPTH
FMAT,2
METRIC
; #@! TA.AperFunction,NonPlated,NPTH,ComponentDrill
T1C1.750
; #@! TA.AperFunction,NonPlated,NPTH,ComponentDrill
T2C2.200
; #@! TA.AperFunction,NonPlated,NPTH,ComponentDrill
T3C3.000
; #@! TA.AperFunction,NonPlated,NPTH,ComponentDrill
T4C3.048
; #@! TA.AperFunction,NonPlated,NPTH,ComponentDrill
T5C3.988
%
G90
G05
T1
X129.072Y-180.09
X131.507Y-199.15
X131.507Y-237.25
X136.27Y-218.2
X139.232Y-180.09
X141.667Y-199.15
X141.667Y-237.25
X146.43Y-218.2
X148.123Y-180.09
X152.885Y-199.14
X152.885Y-237.24
X158.282Y-180.09
X162.41Y-218.19
X163.045Y-199.14
X163.045Y-237.24
X167.172Y-180.09
X171.935Y-199.14
X171.935Y-237.24
X172.57Y-218.19
X177.332Y-180.09
X181.46Y-218.19
X182.095Y-199.14
X182.095Y-237.24
X186.222Y-180.09
X190.985Y-199.14
X191.62Y-218.19
X196.382Y-180.09
X200.51Y-218.19
X201.145Y-199.14
X205.272Y-180.09
X210.035Y-199.14
X210.67Y-218.19
X215.432Y-180.09
X219.56Y-218.19
X220.195Y-199.14
X224.322Y-180.09
X229.085Y-199.14
X229.72Y-218.19
X234.482Y-180.09
X238.61Y-218.19
X239.245Y-199.14
X241.045Y-237.25
X243.373Y-180.09
X248.135Y-199.14
X248.77Y-218.19
X251.205Y-237.25
X253.532Y-180.09
X257.66Y-218.19
X258.295Y-199.14
X262.423Y-180.09
X267.185Y-199.14
X267.82Y-218.19
X272.582Y-180.09
X276.71Y-218.19
X277.345Y-199.14
X281.472Y-180.09
X286.235Y-199.14
X286.87Y-218.19
X291.632Y-180.09
X295.76Y-218.19
X296.395Y-199.14
X300.522Y-180.09
X305.285Y-199.14
X305.92Y-218.19
X310.683Y-180.09
X312.405Y-237.21
X314.81Y-218.19
X315.445Y-199.14
X319.572Y-180.09
X322.565Y-237.21
X324.335Y-199.14
X324.97Y-218.19
X329.732Y-180.09
X333.86Y-218.19
X334.495Y-199.14
X336.217Y-237.21
X338.623Y-180.09
X344.02Y-218.19
X346.377Y-237.21
X348.782Y-180.09
X352.886Y-199.11
X355.21Y-218.25
X360.03Y-180.06
X363.046Y-199.11
X365.37Y-218.25
X370.19Y-180.06
X371.96Y-246.765
X382.12Y-246.765
X391.01Y-227.715
X391.01Y-246.765
X401.17Y-227.715
X401.17Y-246.765
X410.06Y-246.765
X420.22Y-246.765
X424.347Y-180.09
X424.347Y-199.14
X424.347Y-218.19
X434.507Y-180.09
X434.507Y-199.14
X434.507Y-218.19
X443.397Y-180.09
X443.397Y-199.14
X443.397Y-218.19
X443.397Y-237.24
X453.558Y-180.09
X453.558Y-199.14
X453.558Y-218.19
X453.558Y-237.24
X462.447Y-180.09
X462.447Y-199.14
X462.447Y-218.19
X462.447Y-237.24
X472.607Y-180.09
X472.607Y-199.14
X472.607Y-218.19
X472.607Y-237.24
T2
X123.1Y-169.56
X123.18Y-247.61
X478.69Y-169.43
X478.77Y-247.48
T3
X130.343Y-177.55
X132.778Y-196.61
X132.778Y-234.71
X136.692Y-175.01
X137.54Y-215.66
X139.127Y-194.07
X139.127Y-232.17
X143.89Y-213.12
X149.392Y-177.55
X154.155Y-196.6
X154.155Y-234.7
X155.743Y-175.01
X160.505Y-194.06
X160.505Y-232.16
X163.68Y-215.65
X168.442Y-177.55
X170.03Y-213.11
X173.205Y-196.6
X173.205Y-234.7
X174.792Y-175.01
X179.555Y-194.06
X179.555Y-232.16
X182.73Y-215.65
X187.492Y-177.55
X189.08Y-213.11
X192.255Y-196.6
X193.843Y-175.01
X198.605Y-194.06
X201.78Y-215.65
X206.542Y-177.55
X208.13Y-213.11
X211.305Y-196.6
X212.892Y-175.01
X217.655Y-194.06
X220.83Y-215.65
X225.593Y-177.55
X227.18Y-213.11
X230.355Y-196.6
X231.942Y-175.01
X236.705Y-194.06
X239.88Y-215.65
X242.315Y-234.71
X244.642Y-177.55
X246.23Y-213.11
X248.665Y-232.17
X249.405Y-196.6
X250.992Y-175.01
X255.755Y-194.06
X258.93Y-215.65
X263.692Y-177.55
X265.28Y-213.11
X268.455Y-196.6
X270.042Y-175.01
X274.805Y-194.06
X277.98Y-215.65
X282.743Y-177.55
X284.33Y-213.11
X287.505Y-196.6
X289.092Y-175.01
X293.855Y-194.06
X297.03Y-215.65
X301.792Y-177.55
X303.38Y-213.11
X306.555Y-196.6
X308.142Y-175.01
X312.905Y-194.06
X313.675Y-234.67
X316.08Y-215.65
X320.025Y-232.13
X320.842Y-177.55
X322.43Y-213.11
X325.605Y-196.6
X327.192Y-175.01
X331.955Y-194.06
X335.13Y-215.65
X337.488Y-234.67
X339.892Y-177.55
X341.48Y-213.11
X343.837Y-232.13
X346.243Y-175.01
X354.156Y-196.57
X356.48Y-215.71
X360.506Y-194.03
X361.3Y-177.52
X362.83Y-213.17
X367.65Y-174.98
X373.23Y-244.225
X379.58Y-241.685
X392.28Y-225.175
X392.28Y-244.225
X398.63Y-222.635
X398.63Y-241.685
X411.33Y-244.225
X417.68Y-241.685
X425.618Y-177.55
X425.618Y-196.6
X425.618Y-215.65
X431.967Y-175.01
X431.967Y-194.06
X431.967Y-213.11
X444.667Y-177.55
X444.667Y-196.6
X444.667Y-215.65
X444.667Y-234.7
X451.017Y-175.01
X451.017Y-194.06
X451.017Y-213.11
X451.017Y-232.16
X463.717Y-177.55
X463.717Y-196.6
X463.717Y-215.65
X463.717Y-234.7
X470.067Y-175.01
X470.067Y-194.06
X470.067Y-213.11
X470.067Y-232.16
T4
X196.125Y-230.265
X296.125Y-230.265
X346.028Y-192.125
X369.904Y-192.125
T5
X134.153Y-180.09
X136.588Y-199.15
X136.588Y-237.25
X141.35Y-218.2
X153.202Y-180.09
X157.965Y-199.14
X157.965Y-237.24
X167.49Y-218.19
X172.252Y-180.09
X177.015Y-199.14
X177.015Y-237.24
X186.54Y-218.19
X191.302Y-180.09
X196.065Y-199.14
X196.125Y-245.505
X205.59Y-218.19
X210.352Y-180.09
X215.115Y-199.14
X224.64Y-218.19
X229.403Y-180.09
X234.165Y-199.14
X243.69Y-218.19
X246.125Y-237.25
X248.452Y-180.09
X253.215Y-199.14
X262.74Y-218.19
X267.502Y-180.09
X272.265Y-199.14
X281.79Y-218.19
X286.553Y-180.09
X291.315Y-199.14
X296.125Y-245.505
X300.84Y-218.19
X305.602Y-180.09
X310.365Y-199.14
X317.485Y-237.21
X319.89Y-218.19
X324.652Y-180.09
X329.415Y-199.14
X338.94Y-218.19
X341.297Y-237.21
X343.702Y-180.09
X346.028Y-207.365
X357.966Y-199.11
X360.29Y-218.25
X365.11Y-180.06
X369.904Y-207.365
X377.04Y-246.765
X396.09Y-227.715
X396.09Y-246.765
X415.14Y-246.765
X429.427Y-180.09
X429.427Y-199.14
X429.427Y-218.19
X448.477Y-180.09
X448.477Y-199.14
X448.477Y-218.19
X448.477Y-237.24
X467.527Y-180.09
X467.527Y-199.14
X467.527Y-218.19
X467.527Y-237.24
T0
M30
