G04 #@! TF.GenerationSoftware,KiCad,Pcbnew,(6.0.7)*
G04 #@! TF.CreationDate,2022-11-03T11:15:43-07:00*
G04 #@! TF.ProjectId,alpha29_pmw3360,616c7068-6132-4395-9f70-6d7733333630,rev?*
G04 #@! TF.SameCoordinates,Original*
G04 #@! TF.FileFunction,Legend,Bot*
G04 #@! TF.FilePolarity,Positive*
%FSLAX46Y46*%
G04 Gerber Fmt 4.6, Leading zero omitted, Abs format (unit mm)*
G04 Created by KiCad (PCBNEW (6.0.7)) date 2022-11-03 11:15:43*
%MOMM*%
%LPD*%
G01*
G04 APERTURE LIST*
%ADD10C,0.300000*%
%ADD11C,0.120000*%
%ADD12C,0.100000*%
%ADD13C,0.150000*%
%ADD14C,0.381000*%
%ADD15C,0.127000*%
%ADD16C,0.200000*%
%ADD17R,2.000000X2.000000*%
%ADD18C,2.000000*%
%ADD19R,1.752600X1.752600*%
%ADD20C,1.752600*%
G04 APERTURE END LIST*
D10*
X325971536Y-150757000D02*
G75*
G03*
X325971536Y-150757000I-521536J0D01*
G01*
D11*
X318260000Y-136077000D02*
X320360000Y-136077000D01*
X320360000Y-136077000D02*
X320360000Y-136877000D01*
X320360000Y-136877000D02*
X318260000Y-136877000D01*
X318260000Y-136877000D02*
X318260000Y-136077000D01*
G36*
X318260000Y-136077000D02*
G01*
X320360000Y-136077000D01*
X320360000Y-136877000D01*
X318260000Y-136877000D01*
X318260000Y-136077000D01*
G37*
D12*
X338570714Y-155937714D02*
X338535000Y-155973428D01*
X338499285Y-156044857D01*
X338499285Y-156223428D01*
X338535000Y-156294857D01*
X338570714Y-156330571D01*
X338642142Y-156366285D01*
X338713571Y-156366285D01*
X338820714Y-156330571D01*
X339249285Y-155902000D01*
X339249285Y-156366285D01*
X339177857Y-156687714D02*
X339213571Y-156723428D01*
X339249285Y-156687714D01*
X339213571Y-156652000D01*
X339177857Y-156687714D01*
X339249285Y-156687714D01*
X338570714Y-157009142D02*
X338535000Y-157044857D01*
X338499285Y-157116285D01*
X338499285Y-157294857D01*
X338535000Y-157366285D01*
X338570714Y-157402000D01*
X338642142Y-157437714D01*
X338713571Y-157437714D01*
X338820714Y-157402000D01*
X339249285Y-156973428D01*
X339249285Y-157437714D01*
X338749285Y-158080571D02*
X339249285Y-158080571D01*
X338749285Y-157759142D02*
X339142142Y-157759142D01*
X339213571Y-157794857D01*
X339249285Y-157866285D01*
X339249285Y-157973428D01*
X339213571Y-158044857D01*
X339177857Y-158080571D01*
X347166571Y-144406285D02*
X347166571Y-143656285D01*
X346916571Y-144192000D01*
X346666571Y-143656285D01*
X346666571Y-144406285D01*
X346166571Y-143656285D02*
X346023714Y-143656285D01*
X345952285Y-143692000D01*
X345880857Y-143763428D01*
X345845142Y-143906285D01*
X345845142Y-144156285D01*
X345880857Y-144299142D01*
X345952285Y-144370571D01*
X346023714Y-144406285D01*
X346166571Y-144406285D01*
X346238000Y-144370571D01*
X346309428Y-144299142D01*
X346345142Y-144156285D01*
X346345142Y-143906285D01*
X346309428Y-143763428D01*
X346238000Y-143692000D01*
X346166571Y-143656285D01*
X345559428Y-144370571D02*
X345452285Y-144406285D01*
X345273714Y-144406285D01*
X345202285Y-144370571D01*
X345166571Y-144334857D01*
X345130857Y-144263428D01*
X345130857Y-144192000D01*
X345166571Y-144120571D01*
X345202285Y-144084857D01*
X345273714Y-144049142D01*
X345416571Y-144013428D01*
X345488000Y-143977714D01*
X345523714Y-143942000D01*
X345559428Y-143870571D01*
X345559428Y-143799142D01*
X345523714Y-143727714D01*
X345488000Y-143692000D01*
X345416571Y-143656285D01*
X345238000Y-143656285D01*
X345130857Y-143692000D01*
X344809428Y-144406285D02*
X344809428Y-143656285D01*
X339149285Y-146994857D02*
X339149285Y-146566285D01*
X339149285Y-146780571D02*
X338399285Y-146780571D01*
X338506428Y-146709142D01*
X338577857Y-146637714D01*
X338613571Y-146566285D01*
X338399285Y-147459142D02*
X338399285Y-147530571D01*
X338435000Y-147602000D01*
X338470714Y-147637714D01*
X338542142Y-147673428D01*
X338685000Y-147709142D01*
X338863571Y-147709142D01*
X339006428Y-147673428D01*
X339077857Y-147637714D01*
X339113571Y-147602000D01*
X339149285Y-147530571D01*
X339149285Y-147459142D01*
X339113571Y-147387714D01*
X339077857Y-147352000D01*
X339006428Y-147316285D01*
X338863571Y-147280571D01*
X338685000Y-147280571D01*
X338542142Y-147316285D01*
X338470714Y-147352000D01*
X338435000Y-147387714D01*
X338399285Y-147459142D01*
X338649285Y-148352000D02*
X339149285Y-148352000D01*
X338649285Y-148030571D02*
X339042142Y-148030571D01*
X339113571Y-148066285D01*
X339149285Y-148137714D01*
X339149285Y-148244857D01*
X339113571Y-148316285D01*
X339077857Y-148352000D01*
X330757714Y-127393500D02*
X330757714Y-127822071D01*
X330757714Y-127607785D02*
X331507714Y-127607785D01*
X331400571Y-127679214D01*
X331329142Y-127750642D01*
X331293428Y-127822071D01*
X331257714Y-126750642D02*
X330757714Y-126750642D01*
X331257714Y-127072071D02*
X330864857Y-127072071D01*
X330793428Y-127036357D01*
X330757714Y-126964928D01*
X330757714Y-126857785D01*
X330793428Y-126786357D01*
X330829142Y-126750642D01*
X347166571Y-149160571D02*
X346595143Y-149160571D01*
X346880857Y-149446285D02*
X346880857Y-148874857D01*
X345880857Y-148696285D02*
X346238000Y-148696285D01*
X346273714Y-149053428D01*
X346238000Y-149017714D01*
X346166571Y-148982000D01*
X345988000Y-148982000D01*
X345916571Y-149017714D01*
X345880857Y-149053428D01*
X345845143Y-149124857D01*
X345845143Y-149303428D01*
X345880857Y-149374857D01*
X345916571Y-149410571D01*
X345988000Y-149446285D01*
X346166571Y-149446285D01*
X346238000Y-149410571D01*
X346273714Y-149374857D01*
X345630857Y-148696285D02*
X345380857Y-149446285D01*
X345130857Y-148696285D01*
X344781428Y-153952000D02*
X344852857Y-153916285D01*
X344960000Y-153916285D01*
X345067142Y-153952000D01*
X345138571Y-154023428D01*
X345174285Y-154094857D01*
X345210000Y-154237714D01*
X345210000Y-154344857D01*
X345174285Y-154487714D01*
X345138571Y-154559142D01*
X345067142Y-154630571D01*
X344960000Y-154666285D01*
X344888571Y-154666285D01*
X344781428Y-154630571D01*
X344745714Y-154594857D01*
X344745714Y-154344857D01*
X344888571Y-154344857D01*
X344424285Y-154666285D02*
X344424285Y-153916285D01*
X343995714Y-154666285D01*
X343995714Y-153916285D01*
X343638571Y-154666285D02*
X343638571Y-153916285D01*
X343460000Y-153916285D01*
X343352857Y-153952000D01*
X343281428Y-154023428D01*
X343245714Y-154094857D01*
X343210000Y-154237714D01*
X343210000Y-154344857D01*
X343245714Y-154487714D01*
X343281428Y-154559142D01*
X343352857Y-154630571D01*
X343460000Y-154666285D01*
X343638571Y-154666285D01*
X348552857Y-150766285D02*
X348910000Y-150766285D01*
X348945714Y-151123428D01*
X348910000Y-151087714D01*
X348838571Y-151052000D01*
X348660000Y-151052000D01*
X348588571Y-151087714D01*
X348552857Y-151123428D01*
X348517142Y-151194857D01*
X348517142Y-151373428D01*
X348552857Y-151444857D01*
X348588571Y-151480571D01*
X348660000Y-151516285D01*
X348838571Y-151516285D01*
X348910000Y-151480571D01*
X348945714Y-151444857D01*
X348302857Y-150766285D02*
X348052857Y-151516285D01*
X347802857Y-150766285D01*
X346773714Y-136132000D02*
X346845143Y-136096285D01*
X346952286Y-136096285D01*
X347059428Y-136132000D01*
X347130857Y-136203428D01*
X347166571Y-136274857D01*
X347202286Y-136417714D01*
X347202286Y-136524857D01*
X347166571Y-136667714D01*
X347130857Y-136739142D01*
X347059428Y-136810571D01*
X346952286Y-136846285D01*
X346880857Y-136846285D01*
X346773714Y-136810571D01*
X346738000Y-136774857D01*
X346738000Y-136524857D01*
X346880857Y-136524857D01*
X346416571Y-136846285D02*
X346416571Y-136096285D01*
X345988000Y-136846285D01*
X345988000Y-136096285D01*
X345630857Y-136846285D02*
X345630857Y-136096285D01*
X345452286Y-136096285D01*
X345345143Y-136132000D01*
X345273714Y-136203428D01*
X345238000Y-136274857D01*
X345202286Y-136417714D01*
X345202286Y-136524857D01*
X345238000Y-136667714D01*
X345273714Y-136739142D01*
X345345143Y-136810571D01*
X345452286Y-136846285D01*
X345630857Y-136846285D01*
X338201428Y-152962000D02*
X338272857Y-152926285D01*
X338380000Y-152926285D01*
X338487142Y-152962000D01*
X338558571Y-153033428D01*
X338594285Y-153104857D01*
X338630000Y-153247714D01*
X338630000Y-153354857D01*
X338594285Y-153497714D01*
X338558571Y-153569142D01*
X338487142Y-153640571D01*
X338380000Y-153676285D01*
X338308571Y-153676285D01*
X338201428Y-153640571D01*
X338165714Y-153604857D01*
X338165714Y-153354857D01*
X338308571Y-153354857D01*
X337844285Y-153676285D02*
X337844285Y-152926285D01*
X337415714Y-153676285D01*
X337415714Y-152926285D01*
X337058571Y-153676285D02*
X337058571Y-152926285D01*
X336880000Y-152926285D01*
X336772857Y-152962000D01*
X336701428Y-153033428D01*
X336665714Y-153104857D01*
X336630000Y-153247714D01*
X336630000Y-153354857D01*
X336665714Y-153497714D01*
X336701428Y-153569142D01*
X336772857Y-153640571D01*
X336880000Y-153676285D01*
X337058571Y-153676285D01*
X339149285Y-142660571D02*
X339149285Y-142232000D01*
X339149285Y-142446285D02*
X338399285Y-142446285D01*
X338506428Y-142374857D01*
X338577857Y-142303428D01*
X338613571Y-142232000D01*
X338399285Y-143124857D02*
X338399285Y-143196285D01*
X338435000Y-143267714D01*
X338470714Y-143303428D01*
X338542142Y-143339142D01*
X338685000Y-143374857D01*
X338863571Y-143374857D01*
X339006428Y-143339142D01*
X339077857Y-143303428D01*
X339113571Y-143267714D01*
X339149285Y-143196285D01*
X339149285Y-143124857D01*
X339113571Y-143053428D01*
X339077857Y-143017714D01*
X339006428Y-142982000D01*
X338863571Y-142946285D01*
X338685000Y-142946285D01*
X338542142Y-142982000D01*
X338470714Y-143017714D01*
X338435000Y-143053428D01*
X338399285Y-143124857D01*
X339149285Y-143696285D02*
X338399285Y-143696285D01*
X338863571Y-143767714D02*
X339149285Y-143982000D01*
X338649285Y-143982000D02*
X338935000Y-143696285D01*
X345513571Y-135473428D02*
X345263571Y-135473428D01*
X345156428Y-135866285D02*
X345513571Y-135866285D01*
X345513571Y-135116285D01*
X345156428Y-135116285D01*
X344835000Y-135866285D02*
X344835000Y-135116285D01*
X344406428Y-135866285D01*
X344406428Y-135116285D01*
X335956428Y-125616285D02*
X336385000Y-125616285D01*
X336170714Y-125616285D02*
X336170714Y-124866285D01*
X336242142Y-124973428D01*
X336313571Y-125044857D01*
X336385000Y-125080571D01*
X335492142Y-124866285D02*
X335420714Y-124866285D01*
X335349285Y-124902000D01*
X335313571Y-124937714D01*
X335277857Y-125009142D01*
X335242142Y-125152000D01*
X335242142Y-125330571D01*
X335277857Y-125473428D01*
X335313571Y-125544857D01*
X335349285Y-125580571D01*
X335420714Y-125616285D01*
X335492142Y-125616285D01*
X335563571Y-125580571D01*
X335599285Y-125544857D01*
X335635000Y-125473428D01*
X335670714Y-125330571D01*
X335670714Y-125152000D01*
X335635000Y-125009142D01*
X335599285Y-124937714D01*
X335563571Y-124902000D01*
X335492142Y-124866285D01*
X334920714Y-125616285D02*
X334920714Y-124866285D01*
X334849285Y-125330571D02*
X334635000Y-125616285D01*
X334635000Y-125116285D02*
X334920714Y-125402000D01*
X345102857Y-133016285D02*
X345460000Y-133016285D01*
X345495714Y-133373428D01*
X345460000Y-133337714D01*
X345388571Y-133302000D01*
X345210000Y-133302000D01*
X345138571Y-133337714D01*
X345102857Y-133373428D01*
X345067142Y-133444857D01*
X345067142Y-133623428D01*
X345102857Y-133694857D01*
X345138571Y-133730571D01*
X345210000Y-133766285D01*
X345388571Y-133766285D01*
X345460000Y-133730571D01*
X345495714Y-133694857D01*
X344852857Y-133016285D02*
X344602857Y-133766285D01*
X344352857Y-133016285D01*
X338606428Y-125616285D02*
X339035000Y-125616285D01*
X338820714Y-125616285D02*
X338820714Y-124866285D01*
X338892142Y-124973428D01*
X338963571Y-125044857D01*
X339035000Y-125080571D01*
X337927857Y-124866285D02*
X338285000Y-124866285D01*
X338320714Y-125223428D01*
X338285000Y-125187714D01*
X338213571Y-125152000D01*
X338035000Y-125152000D01*
X337963571Y-125187714D01*
X337927857Y-125223428D01*
X337892142Y-125294857D01*
X337892142Y-125473428D01*
X337927857Y-125544857D01*
X337963571Y-125580571D01*
X338035000Y-125616285D01*
X338213571Y-125616285D01*
X338285000Y-125580571D01*
X338320714Y-125544857D01*
X337570714Y-125616285D02*
X337570714Y-124866285D01*
X337499285Y-125330571D02*
X337285000Y-125616285D01*
X337285000Y-125116285D02*
X337570714Y-125402000D01*
X339170714Y-133087714D02*
X339135000Y-133052000D01*
X339063571Y-133016285D01*
X338885000Y-133016285D01*
X338813571Y-133052000D01*
X338777857Y-133087714D01*
X338742142Y-133159142D01*
X338742142Y-133230571D01*
X338777857Y-133337714D01*
X339206428Y-133766285D01*
X338742142Y-133766285D01*
X338527857Y-133016285D02*
X338277857Y-133766285D01*
X338027857Y-133016285D01*
X345995714Y-134102000D02*
X346067143Y-134066285D01*
X346174286Y-134066285D01*
X346281428Y-134102000D01*
X346352857Y-134173428D01*
X346388571Y-134244857D01*
X346424286Y-134387714D01*
X346424286Y-134494857D01*
X346388571Y-134637714D01*
X346352857Y-134709142D01*
X346281428Y-134780571D01*
X346174286Y-134816285D01*
X346102857Y-134816285D01*
X345995714Y-134780571D01*
X345960000Y-134744857D01*
X345960000Y-134494857D01*
X346102857Y-134494857D01*
X345638571Y-134816285D02*
X345638571Y-134066285D01*
X345210000Y-134816285D01*
X345210000Y-134066285D01*
X344852857Y-134816285D02*
X344852857Y-134066285D01*
X344674286Y-134066285D01*
X344567143Y-134102000D01*
X344495714Y-134173428D01*
X344460000Y-134244857D01*
X344424286Y-134387714D01*
X344424286Y-134494857D01*
X344460000Y-134637714D01*
X344495714Y-134709142D01*
X344567143Y-134780571D01*
X344674286Y-134816285D01*
X344852857Y-134816285D01*
X347202285Y-146890571D02*
X347095142Y-146926285D01*
X346916571Y-146926285D01*
X346845142Y-146890571D01*
X346809428Y-146854857D01*
X346773714Y-146783428D01*
X346773714Y-146712000D01*
X346809428Y-146640571D01*
X346845142Y-146604857D01*
X346916571Y-146569142D01*
X347059428Y-146533428D01*
X347130857Y-146497714D01*
X347166571Y-146462000D01*
X347202285Y-146390571D01*
X347202285Y-146319142D01*
X347166571Y-146247714D01*
X347130857Y-146212000D01*
X347059428Y-146176285D01*
X346880857Y-146176285D01*
X346773714Y-146212000D01*
X346487999Y-146890571D02*
X346380857Y-146926285D01*
X346202285Y-146926285D01*
X346130857Y-146890571D01*
X346095142Y-146854857D01*
X346059428Y-146783428D01*
X346059428Y-146712000D01*
X346095142Y-146640571D01*
X346130857Y-146604857D01*
X346202285Y-146569142D01*
X346345142Y-146533428D01*
X346416571Y-146497714D01*
X346452285Y-146462000D01*
X346487999Y-146390571D01*
X346487999Y-146319142D01*
X346452285Y-146247714D01*
X346416571Y-146212000D01*
X346345142Y-146176285D01*
X346166571Y-146176285D01*
X346059428Y-146212000D01*
X330449285Y-152719857D02*
X330449285Y-153184142D01*
X330735000Y-152934142D01*
X330735000Y-153041285D01*
X330770714Y-153112714D01*
X330806428Y-153148428D01*
X330877857Y-153184142D01*
X331056428Y-153184142D01*
X331127857Y-153148428D01*
X331163571Y-153112714D01*
X331199285Y-153041285D01*
X331199285Y-152827000D01*
X331163571Y-152755571D01*
X331127857Y-152719857D01*
X331199285Y-153541285D02*
X331199285Y-153684142D01*
X331163571Y-153755571D01*
X331127857Y-153791285D01*
X331020714Y-153862714D01*
X330877857Y-153898428D01*
X330592142Y-153898428D01*
X330520714Y-153862714D01*
X330485000Y-153827000D01*
X330449285Y-153755571D01*
X330449285Y-153612714D01*
X330485000Y-153541285D01*
X330520714Y-153505571D01*
X330592142Y-153469857D01*
X330770714Y-153469857D01*
X330842142Y-153505571D01*
X330877857Y-153541285D01*
X330913571Y-153612714D01*
X330913571Y-153755571D01*
X330877857Y-153827000D01*
X330842142Y-153862714D01*
X330770714Y-153898428D01*
X339149285Y-138932000D02*
X339149285Y-138503428D01*
X339149285Y-138717714D02*
X338399285Y-138717714D01*
X338506428Y-138646285D01*
X338577857Y-138574857D01*
X338613571Y-138503428D01*
X338649285Y-139574857D02*
X339149285Y-139574857D01*
X338649285Y-139253428D02*
X339042142Y-139253428D01*
X339113571Y-139289142D01*
X339149285Y-139360571D01*
X339149285Y-139467714D01*
X339113571Y-139539142D01*
X339077857Y-139574857D01*
X347166571Y-139366285D02*
X347166571Y-138616285D01*
X346916571Y-139152000D01*
X346666571Y-138616285D01*
X346666571Y-139366285D01*
X346309428Y-139366285D02*
X346309428Y-138616285D01*
X345988000Y-139330571D02*
X345880857Y-139366285D01*
X345702285Y-139366285D01*
X345630857Y-139330571D01*
X345595142Y-139294857D01*
X345559428Y-139223428D01*
X345559428Y-139152000D01*
X345595142Y-139080571D01*
X345630857Y-139044857D01*
X345702285Y-139009142D01*
X345845142Y-138973428D01*
X345916571Y-138937714D01*
X345952285Y-138902000D01*
X345988000Y-138830571D01*
X345988000Y-138759142D01*
X345952285Y-138687714D01*
X345916571Y-138652000D01*
X345845142Y-138616285D01*
X345666571Y-138616285D01*
X345559428Y-138652000D01*
X345095142Y-138616285D02*
X344952285Y-138616285D01*
X344880857Y-138652000D01*
X344809428Y-138723428D01*
X344773714Y-138866285D01*
X344773714Y-139116285D01*
X344809428Y-139259142D01*
X344880857Y-139330571D01*
X344952285Y-139366285D01*
X345095142Y-139366285D01*
X345166571Y-139330571D01*
X345238000Y-139259142D01*
X345273714Y-139116285D01*
X345273714Y-138866285D01*
X345238000Y-138723428D01*
X345166571Y-138652000D01*
X345095142Y-138616285D01*
X344617142Y-149716285D02*
X344152857Y-149716285D01*
X344402857Y-150002000D01*
X344295714Y-150002000D01*
X344224285Y-150037714D01*
X344188571Y-150073428D01*
X344152857Y-150144857D01*
X344152857Y-150323428D01*
X344188571Y-150394857D01*
X344224285Y-150430571D01*
X344295714Y-150466285D01*
X344510000Y-150466285D01*
X344581428Y-150430571D01*
X344617142Y-150394857D01*
X343831428Y-150394857D02*
X343795714Y-150430571D01*
X343831428Y-150466285D01*
X343867142Y-150430571D01*
X343831428Y-150394857D01*
X343831428Y-150466285D01*
X343545714Y-149716285D02*
X343081428Y-149716285D01*
X343331428Y-150002000D01*
X343224285Y-150002000D01*
X343152857Y-150037714D01*
X343117142Y-150073428D01*
X343081428Y-150144857D01*
X343081428Y-150323428D01*
X343117142Y-150394857D01*
X343152857Y-150430571D01*
X343224285Y-150466285D01*
X343438571Y-150466285D01*
X343510000Y-150430571D01*
X343545714Y-150394857D01*
X342867142Y-149716285D02*
X342617142Y-150466285D01*
X342367142Y-149716285D01*
X339249285Y-135452000D02*
X338892142Y-135452000D01*
X339320714Y-135666285D02*
X339070714Y-134916285D01*
X338820714Y-135666285D01*
X338570714Y-135666285D02*
X338570714Y-134916285D01*
X338392142Y-134916285D01*
X338285000Y-134952000D01*
X338213571Y-135023428D01*
X338177857Y-135094857D01*
X338142142Y-135237714D01*
X338142142Y-135344857D01*
X338177857Y-135487714D01*
X338213571Y-135559142D01*
X338285000Y-135630571D01*
X338392142Y-135666285D01*
X338570714Y-135666285D01*
X337606428Y-134916285D02*
X337606428Y-135452000D01*
X337642142Y-135559142D01*
X337713571Y-135630571D01*
X337820714Y-135666285D01*
X337892142Y-135666285D01*
X317599285Y-148194857D02*
X318099285Y-148194857D01*
X317313571Y-148016285D02*
X317849285Y-147837714D01*
X317849285Y-148302000D01*
X318027857Y-148587714D02*
X318063571Y-148623428D01*
X318099285Y-148587714D01*
X318063571Y-148552000D01*
X318027857Y-148587714D01*
X318099285Y-148587714D01*
X317349285Y-148873428D02*
X317349285Y-149373428D01*
X318099285Y-149052000D01*
X317599285Y-149980571D02*
X318099285Y-149980571D01*
X317599285Y-149659142D02*
X317992142Y-149659142D01*
X318063571Y-149694857D01*
X318099285Y-149766285D01*
X318099285Y-149873428D01*
X318063571Y-149944857D01*
X318027857Y-149980571D01*
X347202285Y-141850571D02*
X347095142Y-141886285D01*
X346916571Y-141886285D01*
X346845142Y-141850571D01*
X346809428Y-141814857D01*
X346773714Y-141743428D01*
X346773714Y-141672000D01*
X346809428Y-141600571D01*
X346845142Y-141564857D01*
X346916571Y-141529142D01*
X347059428Y-141493428D01*
X347130857Y-141457714D01*
X347166571Y-141422000D01*
X347202285Y-141350571D01*
X347202285Y-141279142D01*
X347166571Y-141207714D01*
X347130857Y-141172000D01*
X347059428Y-141136285D01*
X346880857Y-141136285D01*
X346773714Y-141172000D01*
X346023714Y-141814857D02*
X346059428Y-141850571D01*
X346166571Y-141886285D01*
X346238000Y-141886285D01*
X346345142Y-141850571D01*
X346416571Y-141779142D01*
X346452285Y-141707714D01*
X346488000Y-141564857D01*
X346488000Y-141457714D01*
X346452285Y-141314857D01*
X346416571Y-141243428D01*
X346345142Y-141172000D01*
X346238000Y-141136285D01*
X346166571Y-141136285D01*
X346059428Y-141172000D01*
X346023714Y-141207714D01*
X345702285Y-141886285D02*
X345702285Y-141136285D01*
X345273714Y-141886285D02*
X345595142Y-141457714D01*
X345273714Y-141136285D02*
X345702285Y-141564857D01*
D13*
X339984857Y-123235190D02*
X340022952Y-123349476D01*
X340061047Y-123387571D01*
X340137238Y-123425666D01*
X340251523Y-123425666D01*
X340327714Y-123387571D01*
X340365809Y-123349476D01*
X340403904Y-123273285D01*
X340403904Y-122968523D01*
X339603904Y-122968523D01*
X339603904Y-123235190D01*
X339642000Y-123311380D01*
X339680095Y-123349476D01*
X339756285Y-123387571D01*
X339832476Y-123387571D01*
X339908666Y-123349476D01*
X339946761Y-123311380D01*
X339984857Y-123235190D01*
X339984857Y-122968523D01*
X340403904Y-124187571D02*
X340403904Y-123730428D01*
X340403904Y-123959000D02*
X339603904Y-123959000D01*
X339718190Y-123882809D01*
X339794380Y-123806619D01*
X339832476Y-123730428D01*
X357422000Y-122949476D02*
X357383904Y-122873285D01*
X357383904Y-122759000D01*
X357422000Y-122644714D01*
X357498190Y-122568523D01*
X357574380Y-122530428D01*
X357726761Y-122492333D01*
X357841047Y-122492333D01*
X357993428Y-122530428D01*
X358069619Y-122568523D01*
X358145809Y-122644714D01*
X358183904Y-122759000D01*
X358183904Y-122835190D01*
X358145809Y-122949476D01*
X358107714Y-122987571D01*
X357841047Y-122987571D01*
X357841047Y-122835190D01*
X358183904Y-123330428D02*
X357383904Y-123330428D01*
X358183904Y-123787571D01*
X357383904Y-123787571D01*
X358183904Y-124168523D02*
X357383904Y-124168523D01*
X357383904Y-124359000D01*
X357422000Y-124473285D01*
X357498190Y-124549476D01*
X357574380Y-124587571D01*
X357726761Y-124625666D01*
X357841047Y-124625666D01*
X357993428Y-124587571D01*
X358069619Y-124549476D01*
X358145809Y-124473285D01*
X358183904Y-124359000D01*
X358183904Y-124168523D01*
X333927702Y-124662991D02*
X333833421Y-124615851D01*
X333786280Y-124615851D01*
X333715570Y-124639421D01*
X333644859Y-124710132D01*
X333621289Y-124780842D01*
X333621289Y-124827983D01*
X333644859Y-124898693D01*
X333833421Y-125087255D01*
X334328396Y-124592280D01*
X334163404Y-124427289D01*
X334092693Y-124403719D01*
X334045553Y-124403719D01*
X333974842Y-124427289D01*
X333927702Y-124474429D01*
X333904132Y-124545140D01*
X333904132Y-124592280D01*
X333927702Y-124662991D01*
X334092693Y-124827983D01*
X333621289Y-123885174D02*
X333715570Y-123979455D01*
X333739140Y-124050165D01*
X333739140Y-124097306D01*
X333715570Y-124215157D01*
X333644859Y-124333008D01*
X333456297Y-124521570D01*
X333385587Y-124545140D01*
X333338446Y-124545140D01*
X333267735Y-124521570D01*
X333173455Y-124427289D01*
X333149884Y-124356578D01*
X333149884Y-124309438D01*
X333173455Y-124238727D01*
X333291306Y-124120876D01*
X333362016Y-124097306D01*
X333409157Y-124097306D01*
X333479867Y-124120876D01*
X333574148Y-124215157D01*
X333597719Y-124285867D01*
X333597719Y-124333008D01*
X333574148Y-124403719D01*
X350144857Y-123292333D02*
X350144857Y-123025666D01*
X350563904Y-123025666D02*
X349763904Y-123025666D01*
X349763904Y-123406619D01*
X350030571Y-124054238D02*
X350563904Y-124054238D01*
X349725809Y-123863761D02*
X350297238Y-123673285D01*
X350297238Y-124168523D01*
X333742000Y-113314666D02*
X333775333Y-113414666D01*
X333808666Y-113448000D01*
X333875333Y-113481333D01*
X333975333Y-113481333D01*
X334042000Y-113448000D01*
X334075333Y-113414666D01*
X334108666Y-113348000D01*
X334108666Y-113081333D01*
X333408666Y-113081333D01*
X333408666Y-113314666D01*
X333442000Y-113381333D01*
X333475333Y-113414666D01*
X333542000Y-113448000D01*
X333608666Y-113448000D01*
X333675333Y-113414666D01*
X333708666Y-113381333D01*
X333742000Y-113314666D01*
X333742000Y-113081333D01*
X333408666Y-113714666D02*
X333408666Y-114181333D01*
X334108666Y-113881333D01*
X334904857Y-123235190D02*
X334942952Y-123349476D01*
X334981047Y-123387571D01*
X335057238Y-123425666D01*
X335171523Y-123425666D01*
X335247714Y-123387571D01*
X335285809Y-123349476D01*
X335323904Y-123273285D01*
X335323904Y-122968523D01*
X334523904Y-122968523D01*
X334523904Y-123235190D01*
X334562000Y-123311380D01*
X334600095Y-123349476D01*
X334676285Y-123387571D01*
X334752476Y-123387571D01*
X334828666Y-123349476D01*
X334866761Y-123311380D01*
X334904857Y-123235190D01*
X334904857Y-122968523D01*
X334600095Y-123730428D02*
X334562000Y-123768523D01*
X334523904Y-123844714D01*
X334523904Y-124035190D01*
X334562000Y-124111380D01*
X334600095Y-124149476D01*
X334676285Y-124187571D01*
X334752476Y-124187571D01*
X334866761Y-124149476D01*
X335323904Y-123692333D01*
X335323904Y-124187571D01*
X348023904Y-112046523D02*
X347223904Y-112046523D01*
X347223904Y-112237000D01*
X347262000Y-112351285D01*
X347338190Y-112427476D01*
X347414380Y-112465571D01*
X347566761Y-112503666D01*
X347681047Y-112503666D01*
X347833428Y-112465571D01*
X347909619Y-112427476D01*
X347985809Y-112351285D01*
X348023904Y-112237000D01*
X348023904Y-112046523D01*
X347223904Y-112998904D02*
X347223904Y-113075095D01*
X347262000Y-113151285D01*
X347300095Y-113189380D01*
X347376285Y-113227476D01*
X347528666Y-113265571D01*
X347719142Y-113265571D01*
X347871523Y-113227476D01*
X347947714Y-113189380D01*
X347985809Y-113151285D01*
X348023904Y-113075095D01*
X348023904Y-112998904D01*
X347985809Y-112922714D01*
X347947714Y-112884619D01*
X347871523Y-112846523D01*
X347719142Y-112808428D01*
X347528666Y-112808428D01*
X347376285Y-112846523D01*
X347300095Y-112884619D01*
X347262000Y-112922714D01*
X347223904Y-112998904D01*
X354882000Y-112027476D02*
X354843904Y-111951285D01*
X354843904Y-111837000D01*
X354882000Y-111722714D01*
X354958190Y-111646523D01*
X355034380Y-111608428D01*
X355186761Y-111570333D01*
X355301047Y-111570333D01*
X355453428Y-111608428D01*
X355529619Y-111646523D01*
X355605809Y-111722714D01*
X355643904Y-111837000D01*
X355643904Y-111913190D01*
X355605809Y-112027476D01*
X355567714Y-112065571D01*
X355301047Y-112065571D01*
X355301047Y-111913190D01*
X355643904Y-112408428D02*
X354843904Y-112408428D01*
X355643904Y-112865571D01*
X354843904Y-112865571D01*
X355643904Y-113246523D02*
X354843904Y-113246523D01*
X354843904Y-113437000D01*
X354882000Y-113551285D01*
X354958190Y-113627476D01*
X355034380Y-113665571D01*
X355186761Y-113703666D01*
X355301047Y-113703666D01*
X355453428Y-113665571D01*
X355529619Y-113627476D01*
X355605809Y-113551285D01*
X355643904Y-113437000D01*
X355643904Y-113246523D01*
X340403904Y-112046523D02*
X339603904Y-112046523D01*
X339603904Y-112237000D01*
X339642000Y-112351285D01*
X339718190Y-112427476D01*
X339794380Y-112465571D01*
X339946761Y-112503666D01*
X340061047Y-112503666D01*
X340213428Y-112465571D01*
X340289619Y-112427476D01*
X340365809Y-112351285D01*
X340403904Y-112237000D01*
X340403904Y-112046523D01*
X339603904Y-112770333D02*
X339603904Y-113303666D01*
X340403904Y-112960809D01*
X334904857Y-112313190D02*
X334942952Y-112427476D01*
X334981047Y-112465571D01*
X335057238Y-112503666D01*
X335171523Y-112503666D01*
X335247714Y-112465571D01*
X335285809Y-112427476D01*
X335323904Y-112351285D01*
X335323904Y-112046523D01*
X334523904Y-112046523D01*
X334523904Y-112313190D01*
X334562000Y-112389380D01*
X334600095Y-112427476D01*
X334676285Y-112465571D01*
X334752476Y-112465571D01*
X334828666Y-112427476D01*
X334866761Y-112389380D01*
X334904857Y-112313190D01*
X334904857Y-112046523D01*
X334790571Y-113189380D02*
X335323904Y-113189380D01*
X334485809Y-112998904D02*
X335057238Y-112808428D01*
X335057238Y-113303666D01*
X360304857Y-123235190D02*
X360342952Y-123349476D01*
X360381047Y-123387571D01*
X360457238Y-123425666D01*
X360571523Y-123425666D01*
X360647714Y-123387571D01*
X360685809Y-123349476D01*
X360723904Y-123273285D01*
X360723904Y-122968523D01*
X359923904Y-122968523D01*
X359923904Y-123235190D01*
X359962000Y-123311380D01*
X360000095Y-123349476D01*
X360076285Y-123387571D01*
X360152476Y-123387571D01*
X360228666Y-123349476D01*
X360266761Y-123311380D01*
X360304857Y-123235190D01*
X360304857Y-122968523D01*
X359923904Y-123920904D02*
X359923904Y-123997095D01*
X359962000Y-124073285D01*
X360000095Y-124111380D01*
X360076285Y-124149476D01*
X360228666Y-124187571D01*
X360419142Y-124187571D01*
X360571523Y-124149476D01*
X360647714Y-124111380D01*
X360685809Y-124073285D01*
X360723904Y-123997095D01*
X360723904Y-123920904D01*
X360685809Y-123844714D01*
X360647714Y-123806619D01*
X360571523Y-123768523D01*
X360419142Y-123730428D01*
X360228666Y-123730428D01*
X360076285Y-123768523D01*
X360000095Y-123806619D01*
X359962000Y-123844714D01*
X359923904Y-123920904D01*
X355625809Y-122604666D02*
X355663904Y-122718952D01*
X355663904Y-122909428D01*
X355625809Y-122985619D01*
X355587714Y-123023714D01*
X355511523Y-123061809D01*
X355435333Y-123061809D01*
X355359142Y-123023714D01*
X355321047Y-122985619D01*
X355282952Y-122909428D01*
X355244857Y-122757047D01*
X355206761Y-122680857D01*
X355168666Y-122642761D01*
X355092476Y-122604666D01*
X355016285Y-122604666D01*
X354940095Y-122642761D01*
X354902000Y-122680857D01*
X354863904Y-122757047D01*
X354863904Y-122947523D01*
X354902000Y-123061809D01*
X354863904Y-123290380D02*
X354863904Y-123747523D01*
X355663904Y-123518952D02*
X354863904Y-123518952D01*
X333856991Y-111462297D02*
X333809851Y-111556578D01*
X333809851Y-111603719D01*
X333833421Y-111674429D01*
X333904132Y-111745140D01*
X333974842Y-111768710D01*
X334021983Y-111768710D01*
X334092693Y-111745140D01*
X334281255Y-111556578D01*
X333786280Y-111061603D01*
X333621289Y-111226595D01*
X333597719Y-111297306D01*
X333597719Y-111344446D01*
X333621289Y-111415157D01*
X333668429Y-111462297D01*
X333739140Y-111485867D01*
X333786280Y-111485867D01*
X333856991Y-111462297D01*
X334021983Y-111297306D01*
X333055603Y-111792280D02*
X333291306Y-111556578D01*
X333550578Y-111768710D01*
X333503438Y-111768710D01*
X333432727Y-111792280D01*
X333314876Y-111910132D01*
X333291306Y-111980842D01*
X333291306Y-112027983D01*
X333314876Y-112098693D01*
X333432727Y-112216544D01*
X333503438Y-112240115D01*
X333550578Y-112240115D01*
X333621289Y-112216544D01*
X333739140Y-112098693D01*
X333762710Y-112027983D01*
X333762710Y-111980842D01*
X337444857Y-112084619D02*
X337444857Y-112351285D01*
X337863904Y-112465571D02*
X337863904Y-112084619D01*
X337063904Y-112084619D01*
X337063904Y-112465571D01*
X337063904Y-113151285D02*
X337063904Y-112998904D01*
X337102000Y-112922714D01*
X337140095Y-112884619D01*
X337254380Y-112808428D01*
X337406761Y-112770333D01*
X337711523Y-112770333D01*
X337787714Y-112808428D01*
X337825809Y-112846523D01*
X337863904Y-112922714D01*
X337863904Y-113075095D01*
X337825809Y-113151285D01*
X337787714Y-113189380D01*
X337711523Y-113227476D01*
X337521047Y-113227476D01*
X337444857Y-113189380D01*
X337406761Y-113151285D01*
X337368666Y-113075095D01*
X337368666Y-112922714D01*
X337406761Y-112846523D01*
X337444857Y-112808428D01*
X337521047Y-112770333D01*
X333934857Y-120371333D02*
X333934857Y-120104666D01*
X334353904Y-120104666D02*
X333553904Y-120104666D01*
X333553904Y-120485619D01*
X334353904Y-121209428D02*
X334353904Y-120752285D01*
X334353904Y-120980857D02*
X333553904Y-120980857D01*
X333668190Y-120904666D01*
X333744380Y-120828476D01*
X333782476Y-120752285D01*
X350563904Y-112046523D02*
X349763904Y-112046523D01*
X349763904Y-112237000D01*
X349802000Y-112351285D01*
X349878190Y-112427476D01*
X349954380Y-112465571D01*
X350106761Y-112503666D01*
X350221047Y-112503666D01*
X350373428Y-112465571D01*
X350449619Y-112427476D01*
X350525809Y-112351285D01*
X350563904Y-112237000D01*
X350563904Y-112046523D01*
X350563904Y-113265571D02*
X350563904Y-112808428D01*
X350563904Y-113037000D02*
X349763904Y-113037000D01*
X349878190Y-112960809D01*
X349954380Y-112884619D01*
X349992476Y-112808428D01*
X352342000Y-112027476D02*
X352303904Y-111951285D01*
X352303904Y-111837000D01*
X352342000Y-111722714D01*
X352418190Y-111646523D01*
X352494380Y-111608428D01*
X352646761Y-111570333D01*
X352761047Y-111570333D01*
X352913428Y-111608428D01*
X352989619Y-111646523D01*
X353065809Y-111722714D01*
X353103904Y-111837000D01*
X353103904Y-111913190D01*
X353065809Y-112027476D01*
X353027714Y-112065571D01*
X352761047Y-112065571D01*
X352761047Y-111913190D01*
X353103904Y-112408428D02*
X352303904Y-112408428D01*
X353103904Y-112865571D01*
X352303904Y-112865571D01*
X353103904Y-113246523D02*
X352303904Y-113246523D01*
X352303904Y-113437000D01*
X352342000Y-113551285D01*
X352418190Y-113627476D01*
X352494380Y-113665571D01*
X352646761Y-113703666D01*
X352761047Y-113703666D01*
X352913428Y-113665571D01*
X352989619Y-113627476D01*
X353065809Y-113551285D01*
X353103904Y-113437000D01*
X353103904Y-113246523D01*
X342867714Y-112503666D02*
X342905809Y-112465571D01*
X342943904Y-112351285D01*
X342943904Y-112275095D01*
X342905809Y-112160809D01*
X342829619Y-112084619D01*
X342753428Y-112046523D01*
X342601047Y-112008428D01*
X342486761Y-112008428D01*
X342334380Y-112046523D01*
X342258190Y-112084619D01*
X342182000Y-112160809D01*
X342143904Y-112275095D01*
X342143904Y-112351285D01*
X342182000Y-112465571D01*
X342220095Y-112503666D01*
X342143904Y-113189380D02*
X342143904Y-113037000D01*
X342182000Y-112960809D01*
X342220095Y-112922714D01*
X342334380Y-112846523D01*
X342486761Y-112808428D01*
X342791523Y-112808428D01*
X342867714Y-112846523D01*
X342905809Y-112884619D01*
X342943904Y-112960809D01*
X342943904Y-113113190D01*
X342905809Y-113189380D01*
X342867714Y-113227476D01*
X342791523Y-113265571D01*
X342601047Y-113265571D01*
X342524857Y-113227476D01*
X342486761Y-113189380D01*
X342448666Y-113113190D01*
X342448666Y-112960809D01*
X342486761Y-112884619D01*
X342524857Y-112846523D01*
X342601047Y-112808428D01*
X345483904Y-112046523D02*
X344683904Y-112046523D01*
X344683904Y-112237000D01*
X344722000Y-112351285D01*
X344798190Y-112427476D01*
X344874380Y-112465571D01*
X345026761Y-112503666D01*
X345141047Y-112503666D01*
X345293428Y-112465571D01*
X345369619Y-112427476D01*
X345445809Y-112351285D01*
X345483904Y-112237000D01*
X345483904Y-112046523D01*
X344950571Y-113189380D02*
X345483904Y-113189380D01*
X344645809Y-112998904D02*
X345217238Y-112808428D01*
X345217238Y-113303666D01*
X334353904Y-114967523D02*
X333553904Y-114967523D01*
X333553904Y-115158000D01*
X333592000Y-115272285D01*
X333668190Y-115348476D01*
X333744380Y-115386571D01*
X333896761Y-115424666D01*
X334011047Y-115424666D01*
X334163428Y-115386571D01*
X334239619Y-115348476D01*
X334315809Y-115272285D01*
X334353904Y-115158000D01*
X334353904Y-114967523D01*
X333553904Y-116148476D02*
X333553904Y-115767523D01*
X333934857Y-115729428D01*
X333896761Y-115767523D01*
X333858666Y-115843714D01*
X333858666Y-116034190D01*
X333896761Y-116110380D01*
X333934857Y-116148476D01*
X334011047Y-116186571D01*
X334201523Y-116186571D01*
X334277714Y-116148476D01*
X334315809Y-116110380D01*
X334353904Y-116034190D01*
X334353904Y-115843714D01*
X334315809Y-115767523D01*
X334277714Y-115729428D01*
X352303904Y-122492333D02*
X353103904Y-122759000D01*
X352303904Y-123025666D01*
X353027714Y-123749476D02*
X353065809Y-123711380D01*
X353103904Y-123597095D01*
X353103904Y-123520904D01*
X353065809Y-123406619D01*
X352989619Y-123330428D01*
X352913428Y-123292333D01*
X352761047Y-123254238D01*
X352646761Y-123254238D01*
X352494380Y-123292333D01*
X352418190Y-123330428D01*
X352342000Y-123406619D01*
X352303904Y-123520904D01*
X352303904Y-123597095D01*
X352342000Y-123711380D01*
X352380095Y-123749476D01*
X353027714Y-124549476D02*
X353065809Y-124511380D01*
X353103904Y-124397095D01*
X353103904Y-124320904D01*
X353065809Y-124206619D01*
X352989619Y-124130428D01*
X352913428Y-124092333D01*
X352761047Y-124054238D01*
X352646761Y-124054238D01*
X352494380Y-124092333D01*
X352418190Y-124130428D01*
X352342000Y-124206619D01*
X352303904Y-124320904D01*
X352303904Y-124397095D01*
X352342000Y-124511380D01*
X352380095Y-124549476D01*
X334277714Y-117964666D02*
X334315809Y-117926571D01*
X334353904Y-117812285D01*
X334353904Y-117736095D01*
X334315809Y-117621809D01*
X334239619Y-117545619D01*
X334163428Y-117507523D01*
X334011047Y-117469428D01*
X333896761Y-117469428D01*
X333744380Y-117507523D01*
X333668190Y-117545619D01*
X333592000Y-117621809D01*
X333553904Y-117736095D01*
X333553904Y-117812285D01*
X333592000Y-117926571D01*
X333630095Y-117964666D01*
X333553904Y-118231333D02*
X333553904Y-118764666D01*
X334353904Y-118421809D01*
X333742000Y-122364666D02*
X333742000Y-122131333D01*
X334108666Y-122131333D02*
X333408666Y-122131333D01*
X333408666Y-122464666D01*
X333408666Y-122864666D02*
X333408666Y-122931333D01*
X333442000Y-122998000D01*
X333475333Y-123031333D01*
X333542000Y-123064666D01*
X333675333Y-123098000D01*
X333842000Y-123098000D01*
X333975333Y-123064666D01*
X334042000Y-123031333D01*
X334075333Y-122998000D01*
X334108666Y-122931333D01*
X334108666Y-122864666D01*
X334075333Y-122798000D01*
X334042000Y-122764666D01*
X333975333Y-122731333D01*
X333842000Y-122698000D01*
X333675333Y-122698000D01*
X333542000Y-122731333D01*
X333475333Y-122764666D01*
X333442000Y-122798000D01*
X333408666Y-122864666D01*
X358183904Y-112046523D02*
X357383904Y-112046523D01*
X357383904Y-112237000D01*
X357422000Y-112351285D01*
X357498190Y-112427476D01*
X357574380Y-112465571D01*
X357726761Y-112503666D01*
X357841047Y-112503666D01*
X357993428Y-112465571D01*
X358069619Y-112427476D01*
X358145809Y-112351285D01*
X358183904Y-112237000D01*
X358183904Y-112046523D01*
X357460095Y-112808428D02*
X357422000Y-112846523D01*
X357383904Y-112922714D01*
X357383904Y-113113190D01*
X357422000Y-113189380D01*
X357460095Y-113227476D01*
X357536285Y-113265571D01*
X357612476Y-113265571D01*
X357726761Y-113227476D01*
X358183904Y-112770333D01*
X358183904Y-113265571D01*
X342524857Y-123292333D02*
X342524857Y-123025666D01*
X342943904Y-123025666D02*
X342143904Y-123025666D01*
X342143904Y-123406619D01*
X342143904Y-123635190D02*
X342143904Y-124168523D01*
X342943904Y-123825666D01*
X345064857Y-123292333D02*
X345064857Y-123025666D01*
X345483904Y-123025666D02*
X344683904Y-123025666D01*
X344683904Y-123406619D01*
X344683904Y-124054238D02*
X344683904Y-123901857D01*
X344722000Y-123825666D01*
X344760095Y-123787571D01*
X344874380Y-123711380D01*
X345026761Y-123673285D01*
X345331523Y-123673285D01*
X345407714Y-123711380D01*
X345445809Y-123749476D01*
X345483904Y-123825666D01*
X345483904Y-123978047D01*
X345445809Y-124054238D01*
X345407714Y-124092333D01*
X345331523Y-124130428D01*
X345141047Y-124130428D01*
X345064857Y-124092333D01*
X345026761Y-124054238D01*
X344988666Y-123978047D01*
X344988666Y-123825666D01*
X345026761Y-123749476D01*
X345064857Y-123711380D01*
X345141047Y-123673285D01*
X337444857Y-123235190D02*
X337482952Y-123349476D01*
X337521047Y-123387571D01*
X337597238Y-123425666D01*
X337711523Y-123425666D01*
X337787714Y-123387571D01*
X337825809Y-123349476D01*
X337863904Y-123273285D01*
X337863904Y-122968523D01*
X337063904Y-122968523D01*
X337063904Y-123235190D01*
X337102000Y-123311380D01*
X337140095Y-123349476D01*
X337216285Y-123387571D01*
X337292476Y-123387571D01*
X337368666Y-123349476D01*
X337406761Y-123311380D01*
X337444857Y-123235190D01*
X337444857Y-122968523D01*
X337063904Y-123692333D02*
X337063904Y-124187571D01*
X337368666Y-123920904D01*
X337368666Y-124035190D01*
X337406761Y-124111380D01*
X337444857Y-124149476D01*
X337521047Y-124187571D01*
X337711523Y-124187571D01*
X337787714Y-124149476D01*
X337825809Y-124111380D01*
X337863904Y-124035190D01*
X337863904Y-123806619D01*
X337825809Y-123730428D01*
X337787714Y-123692333D01*
X347604857Y-123292333D02*
X347604857Y-123025666D01*
X348023904Y-123025666D02*
X347223904Y-123025666D01*
X347223904Y-123406619D01*
X347223904Y-124092333D02*
X347223904Y-123711380D01*
X347604857Y-123673285D01*
X347566761Y-123711380D01*
X347528666Y-123787571D01*
X347528666Y-123978047D01*
X347566761Y-124054238D01*
X347604857Y-124092333D01*
X347681047Y-124130428D01*
X347871523Y-124130428D01*
X347947714Y-124092333D01*
X347985809Y-124054238D01*
X348023904Y-123978047D01*
X348023904Y-123787571D01*
X347985809Y-123711380D01*
X347947714Y-123673285D01*
X359923904Y-112335651D02*
X359923904Y-112792794D01*
X360723904Y-112564223D02*
X359923904Y-112564223D01*
X359923904Y-112983270D02*
X360723904Y-113516604D01*
X359923904Y-113516604D02*
X360723904Y-112983270D01*
X359923904Y-113973747D02*
X359923904Y-114049937D01*
X359962000Y-114126128D01*
X360000095Y-114164223D01*
X360076285Y-114202318D01*
X360228666Y-114240413D01*
X360419142Y-114240413D01*
X360571523Y-114202318D01*
X360647714Y-114164223D01*
X360685809Y-114126128D01*
X360723904Y-114049937D01*
X360723904Y-113973747D01*
X360685809Y-113897556D01*
X360647714Y-113859461D01*
X360571523Y-113821366D01*
X360419142Y-113783270D01*
X360228666Y-113783270D01*
X360076285Y-113821366D01*
X360000095Y-113859461D01*
X359962000Y-113897556D01*
X359923904Y-113973747D01*
X359885809Y-115154699D02*
X360914380Y-114468985D01*
X360723904Y-115421366D02*
X359923904Y-115421366D01*
X359923904Y-115611842D01*
X359962000Y-115726128D01*
X360038190Y-115802318D01*
X360114380Y-115840413D01*
X360266761Y-115878508D01*
X360381047Y-115878508D01*
X360533428Y-115840413D01*
X360609619Y-115802318D01*
X360685809Y-115726128D01*
X360723904Y-115611842D01*
X360723904Y-115421366D01*
X359923904Y-116145175D02*
X359923904Y-116640413D01*
X360228666Y-116373747D01*
X360228666Y-116488032D01*
X360266761Y-116564223D01*
X360304857Y-116602318D01*
X360381047Y-116640413D01*
X360571523Y-116640413D01*
X360647714Y-116602318D01*
X360685809Y-116564223D01*
X360723904Y-116488032D01*
X360723904Y-116259461D01*
X360685809Y-116183270D01*
X360647714Y-116145175D01*
D12*
X342045000Y-141632285D02*
X342295000Y-141275142D01*
X342473571Y-141632285D02*
X342473571Y-140882285D01*
X342187857Y-140882285D01*
X342116428Y-140918000D01*
X342080714Y-140953714D01*
X342045000Y-141025142D01*
X342045000Y-141132285D01*
X342080714Y-141203714D01*
X342116428Y-141239428D01*
X342187857Y-141275142D01*
X342473571Y-141275142D01*
X341330714Y-141632285D02*
X341759285Y-141632285D01*
X341545000Y-141632285D02*
X341545000Y-140882285D01*
X341616428Y-140989428D01*
X341687857Y-141060857D01*
X341759285Y-141096571D01*
D13*
X320396904Y-133644380D02*
X320396904Y-134453904D01*
X320349285Y-134549142D01*
X320301666Y-134596761D01*
X320206428Y-134644380D01*
X320015952Y-134644380D01*
X319920714Y-134596761D01*
X319873095Y-134549142D01*
X319825476Y-134453904D01*
X319825476Y-133644380D01*
X318920714Y-133977714D02*
X318920714Y-134644380D01*
X319158809Y-133596761D02*
X319396904Y-134311047D01*
X318777857Y-134311047D01*
D12*
X320963000Y-147360857D02*
X320998714Y-147396571D01*
X321105857Y-147432285D01*
X321177285Y-147432285D01*
X321284428Y-147396571D01*
X321355857Y-147325142D01*
X321391571Y-147253714D01*
X321427285Y-147110857D01*
X321427285Y-147003714D01*
X321391571Y-146860857D01*
X321355857Y-146789428D01*
X321284428Y-146718000D01*
X321177285Y-146682285D01*
X321105857Y-146682285D01*
X320998714Y-146718000D01*
X320963000Y-146753714D01*
X320713000Y-146682285D02*
X320248714Y-146682285D01*
X320498714Y-146968000D01*
X320391571Y-146968000D01*
X320320142Y-147003714D01*
X320284428Y-147039428D01*
X320248714Y-147110857D01*
X320248714Y-147289428D01*
X320284428Y-147360857D01*
X320320142Y-147396571D01*
X320391571Y-147432285D01*
X320605857Y-147432285D01*
X320677285Y-147396571D01*
X320713000Y-147360857D01*
X346631428Y-153966285D02*
X346631428Y-154573428D01*
X346595714Y-154644857D01*
X346560000Y-154680571D01*
X346488571Y-154716285D01*
X346345714Y-154716285D01*
X346274285Y-154680571D01*
X346238571Y-154644857D01*
X346202857Y-154573428D01*
X346202857Y-153966285D01*
X345452857Y-154716285D02*
X345881428Y-154716285D01*
X345667142Y-154716285D02*
X345667142Y-153966285D01*
X345738571Y-154073428D01*
X345810000Y-154144857D01*
X345881428Y-154180571D01*
X342045000Y-155488857D02*
X342080714Y-155524571D01*
X342187857Y-155560285D01*
X342259285Y-155560285D01*
X342366428Y-155524571D01*
X342437857Y-155453142D01*
X342473571Y-155381714D01*
X342509285Y-155238857D01*
X342509285Y-155131714D01*
X342473571Y-154988857D01*
X342437857Y-154917428D01*
X342366428Y-154846000D01*
X342259285Y-154810285D01*
X342187857Y-154810285D01*
X342080714Y-154846000D01*
X342045000Y-154881714D01*
X341330714Y-155560285D02*
X341759285Y-155560285D01*
X341545000Y-155560285D02*
X341545000Y-154810285D01*
X341616428Y-154917428D01*
X341687857Y-154988857D01*
X341759285Y-155024571D01*
X343892142Y-132716285D02*
X343892142Y-131966285D01*
X343106428Y-132644857D02*
X343142142Y-132680571D01*
X343249285Y-132716285D01*
X343320714Y-132716285D01*
X343427857Y-132680571D01*
X343499285Y-132609142D01*
X343535000Y-132537714D01*
X343570714Y-132394857D01*
X343570714Y-132287714D01*
X343535000Y-132144857D01*
X343499285Y-132073428D01*
X343427857Y-132002000D01*
X343320714Y-131966285D01*
X343249285Y-131966285D01*
X343142142Y-132002000D01*
X343106428Y-132037714D01*
X342392142Y-132716285D02*
X342820714Y-132716285D01*
X342606428Y-132716285D02*
X342606428Y-131966285D01*
X342677857Y-132073428D01*
X342749285Y-132144857D01*
X342820714Y-132180571D01*
X342045000Y-137454857D02*
X342080714Y-137490571D01*
X342187857Y-137526285D01*
X342259285Y-137526285D01*
X342366428Y-137490571D01*
X342437857Y-137419142D01*
X342473571Y-137347714D01*
X342509285Y-137204857D01*
X342509285Y-137097714D01*
X342473571Y-136954857D01*
X342437857Y-136883428D01*
X342366428Y-136812000D01*
X342259285Y-136776285D01*
X342187857Y-136776285D01*
X342080714Y-136812000D01*
X342045000Y-136847714D01*
X341402142Y-137026285D02*
X341402142Y-137526285D01*
X341580714Y-136740571D02*
X341759285Y-137276285D01*
X341295000Y-137276285D01*
X317925000Y-130103785D02*
X318175000Y-129746642D01*
X318353571Y-130103785D02*
X318353571Y-129353785D01*
X318067857Y-129353785D01*
X317996428Y-129389500D01*
X317960714Y-129425214D01*
X317925000Y-129496642D01*
X317925000Y-129603785D01*
X317960714Y-129675214D01*
X317996428Y-129710928D01*
X318067857Y-129746642D01*
X318353571Y-129746642D01*
X317675000Y-129353785D02*
X317210714Y-129353785D01*
X317460714Y-129639500D01*
X317353571Y-129639500D01*
X317282142Y-129675214D01*
X317246428Y-129710928D01*
X317210714Y-129782357D01*
X317210714Y-129960928D01*
X317246428Y-130032357D01*
X317282142Y-130068071D01*
X317353571Y-130103785D01*
X317567857Y-130103785D01*
X317639285Y-130068071D01*
X317675000Y-130032357D01*
X321625000Y-130032357D02*
X321660714Y-130068071D01*
X321767857Y-130103785D01*
X321839285Y-130103785D01*
X321946428Y-130068071D01*
X322017857Y-129996642D01*
X322053571Y-129925214D01*
X322089285Y-129782357D01*
X322089285Y-129675214D01*
X322053571Y-129532357D01*
X322017857Y-129460928D01*
X321946428Y-129389500D01*
X321839285Y-129353785D01*
X321767857Y-129353785D01*
X321660714Y-129389500D01*
X321625000Y-129425214D01*
X320946428Y-129353785D02*
X321303571Y-129353785D01*
X321339285Y-129710928D01*
X321303571Y-129675214D01*
X321232142Y-129639500D01*
X321053571Y-129639500D01*
X320982142Y-129675214D01*
X320946428Y-129710928D01*
X320910714Y-129782357D01*
X320910714Y-129960928D01*
X320946428Y-130032357D01*
X320982142Y-130068071D01*
X321053571Y-130103785D01*
X321232142Y-130103785D01*
X321303571Y-130068071D01*
X321339285Y-130032357D01*
X315225000Y-130103785D02*
X315475000Y-129746642D01*
X315653571Y-130103785D02*
X315653571Y-129353785D01*
X315367857Y-129353785D01*
X315296428Y-129389500D01*
X315260714Y-129425214D01*
X315225000Y-129496642D01*
X315225000Y-129603785D01*
X315260714Y-129675214D01*
X315296428Y-129710928D01*
X315367857Y-129746642D01*
X315653571Y-129746642D01*
X314939285Y-129425214D02*
X314903571Y-129389500D01*
X314832142Y-129353785D01*
X314653571Y-129353785D01*
X314582142Y-129389500D01*
X314546428Y-129425214D01*
X314510714Y-129496642D01*
X314510714Y-129568071D01*
X314546428Y-129675214D01*
X314975000Y-130103785D01*
X314510714Y-130103785D01*
X342045000Y-145836857D02*
X342080714Y-145872571D01*
X342187857Y-145908285D01*
X342259285Y-145908285D01*
X342366428Y-145872571D01*
X342437857Y-145801142D01*
X342473571Y-145729714D01*
X342509285Y-145586857D01*
X342509285Y-145479714D01*
X342473571Y-145336857D01*
X342437857Y-145265428D01*
X342366428Y-145194000D01*
X342259285Y-145158285D01*
X342187857Y-145158285D01*
X342080714Y-145194000D01*
X342045000Y-145229714D01*
X341759285Y-145229714D02*
X341723571Y-145194000D01*
X341652142Y-145158285D01*
X341473571Y-145158285D01*
X341402142Y-145194000D01*
X341366428Y-145229714D01*
X341330714Y-145301142D01*
X341330714Y-145372571D01*
X341366428Y-145479714D01*
X341795000Y-145908285D01*
X341330714Y-145908285D01*
X333935000Y-155586285D02*
X334185000Y-155229142D01*
X334363571Y-155586285D02*
X334363571Y-154836285D01*
X334077857Y-154836285D01*
X334006428Y-154872000D01*
X333970714Y-154907714D01*
X333935000Y-154979142D01*
X333935000Y-155086285D01*
X333970714Y-155157714D01*
X334006428Y-155193428D01*
X334077857Y-155229142D01*
X334363571Y-155229142D01*
X333292142Y-155086285D02*
X333292142Y-155586285D01*
X333470714Y-154800571D02*
X333649285Y-155336285D01*
X333185000Y-155336285D01*
D14*
X361632000Y-111748000D02*
X361632000Y-109208000D01*
X331152000Y-109208000D02*
X331152000Y-126988000D01*
X364172000Y-126988000D02*
X364172000Y-109208000D01*
X364172000Y-109208000D02*
X331152000Y-109208000D01*
X359092000Y-111748000D02*
X359092000Y-109208000D01*
X331152000Y-126988000D02*
X364172000Y-126988000D01*
X361632000Y-111748000D02*
X359092000Y-111748000D01*
G36*
X355742970Y-124442635D02*
G01*
X355642970Y-124442635D01*
X355642970Y-123942635D01*
X355742970Y-123942635D01*
X355742970Y-124442635D01*
G37*
D13*
X355742970Y-124442635D02*
X355642970Y-124442635D01*
X355642970Y-123942635D01*
X355742970Y-123942635D01*
X355742970Y-124442635D01*
G36*
X355142970Y-124042635D02*
G01*
X354942970Y-124042635D01*
X354942970Y-123942635D01*
X355142970Y-123942635D01*
X355142970Y-124042635D01*
G37*
X355142970Y-124042635D02*
X354942970Y-124042635D01*
X354942970Y-123942635D01*
X355142970Y-123942635D01*
X355142970Y-124042635D01*
G36*
X355742970Y-124442635D02*
G01*
X354942970Y-124442635D01*
X354942970Y-124342635D01*
X355742970Y-124342635D01*
X355742970Y-124442635D01*
G37*
X355742970Y-124442635D02*
X354942970Y-124442635D01*
X354942970Y-124342635D01*
X355742970Y-124342635D01*
X355742970Y-124442635D01*
G36*
X355342970Y-124242635D02*
G01*
X355242970Y-124242635D01*
X355242970Y-124142635D01*
X355342970Y-124142635D01*
X355342970Y-124242635D01*
G37*
X355342970Y-124242635D02*
X355242970Y-124242635D01*
X355242970Y-124142635D01*
X355342970Y-124142635D01*
X355342970Y-124242635D01*
G36*
X355742970Y-124042635D02*
G01*
X355442970Y-124042635D01*
X355442970Y-123942635D01*
X355742970Y-123942635D01*
X355742970Y-124042635D01*
G37*
X355742970Y-124042635D02*
X355442970Y-124042635D01*
X355442970Y-123942635D01*
X355742970Y-123942635D01*
X355742970Y-124042635D01*
D11*
X341317936Y-143981000D02*
X342522064Y-143981000D01*
X341317936Y-142161000D02*
X342522064Y-142161000D01*
D15*
X320380000Y-143952000D02*
X318040000Y-143952000D01*
X320380000Y-135302000D02*
X318040000Y-135302000D01*
D16*
X323360000Y-135527000D02*
G75*
G03*
X323360000Y-135527000I-100000J0D01*
G01*
D11*
X321440064Y-148003000D02*
X320235936Y-148003000D01*
X321440064Y-149823000D02*
X320235936Y-149823000D01*
X347510000Y-151727000D02*
X347510000Y-150677000D01*
X347510000Y-150677000D02*
X345660000Y-150677000D01*
X347490000Y-153737000D02*
X345060000Y-153737000D01*
X347510000Y-153727000D02*
X347510000Y-152727000D01*
X342522064Y-157951000D02*
X341317936Y-157951000D01*
X342522064Y-156131000D02*
X341317936Y-156131000D01*
X342522064Y-139917000D02*
X341317936Y-139917000D01*
X342522064Y-138097000D02*
X341317936Y-138097000D01*
X316890000Y-126112436D02*
X316890000Y-127316564D01*
X318710000Y-126112436D02*
X318710000Y-127316564D01*
X322510000Y-127366564D02*
X322510000Y-126162436D01*
X320690000Y-127366564D02*
X320690000Y-126162436D01*
X316060000Y-127316564D02*
X316060000Y-126112436D01*
X314240000Y-127316564D02*
X314240000Y-126112436D01*
X342522064Y-148299000D02*
X341317936Y-148299000D01*
X342522064Y-146479000D02*
X341317936Y-146479000D01*
X333207936Y-154337000D02*
X334412064Y-154337000D01*
X333207936Y-152517000D02*
X334412064Y-152517000D01*
D17*
X259270000Y-146228000D03*
D18*
X259270000Y-138228000D03*
D17*
X239966000Y-127051000D03*
D18*
X239966000Y-119051000D03*
D17*
X278574000Y-127178000D03*
D18*
X278574000Y-119178000D03*
D17*
X104584000Y-126924000D03*
D18*
X104584000Y-118924000D03*
D17*
X181927000Y-126924000D03*
D18*
X181927000Y-118924000D03*
D17*
X239966000Y-166421000D03*
D18*
X239966000Y-158421000D03*
D17*
X162623000Y-166294000D03*
D18*
X162623000Y-158294000D03*
D17*
X143192000Y-146228000D03*
D18*
X143192000Y-138228000D03*
D17*
X259270000Y-127051000D03*
D18*
X259270000Y-119051000D03*
D17*
X259270000Y-166421000D03*
D18*
X259270000Y-158421000D03*
D17*
X220535000Y-166421000D03*
D18*
X220535000Y-158421000D03*
D17*
X143192000Y-127051000D03*
D18*
X143192000Y-119051000D03*
D17*
X201231000Y-146228000D03*
D18*
X201231000Y-138228000D03*
D17*
X201231000Y-127051000D03*
D18*
X201231000Y-119051000D03*
D17*
X85280000Y-146101000D03*
D18*
X85280000Y-138101000D03*
D17*
X104584000Y-146101000D03*
D18*
X104584000Y-138101000D03*
D17*
X123888000Y-146228000D03*
D18*
X123888000Y-138228000D03*
D17*
X181927000Y-146101000D03*
D18*
X181927000Y-138101000D03*
D17*
X220535000Y-146228000D03*
D18*
X220535000Y-138228000D03*
D19*
X360362000Y-110478000D03*
D20*
X357822000Y-110478000D03*
X355282000Y-110478000D03*
X352742000Y-110478000D03*
X350202000Y-110478000D03*
X347662000Y-110478000D03*
X345122000Y-110478000D03*
X342582000Y-110478000D03*
X340042000Y-110478000D03*
X337502000Y-110478000D03*
X334962000Y-110478000D03*
X332422000Y-110706600D03*
X332422000Y-125718000D03*
X334962000Y-125718000D03*
X337502000Y-125718000D03*
X340042000Y-125718000D03*
X342582000Y-125718000D03*
X345122000Y-125718000D03*
X347662000Y-125718000D03*
X350202000Y-125718000D03*
X352742000Y-125718000D03*
X355282000Y-125718000D03*
X357822000Y-125718000D03*
X360362000Y-125718000D03*
X332422000Y-113018000D03*
X332422000Y-115558000D03*
X332422000Y-118098000D03*
X332422000Y-120638000D03*
X332422000Y-123178000D03*
D17*
X278574000Y-166548000D03*
D18*
X278574000Y-158548000D03*
D17*
X162623000Y-126924000D03*
D18*
X162623000Y-118924000D03*
D17*
X297878000Y-166548000D03*
D18*
X297878000Y-158548000D03*
D17*
X278574000Y-146355000D03*
D18*
X278574000Y-138355000D03*
D17*
X311340000Y-160707000D03*
D18*
X311340000Y-168707000D03*
D17*
X123888000Y-127051000D03*
D18*
X123888000Y-119051000D03*
D17*
X297878000Y-127178000D03*
D18*
X297878000Y-119178000D03*
D17*
X162623000Y-146101000D03*
D18*
X162623000Y-138101000D03*
D17*
X191706000Y-166421000D03*
D18*
X191706000Y-158421000D03*
D17*
X220535000Y-127051000D03*
D18*
X220535000Y-119051000D03*
D17*
X324294000Y-160707000D03*
D18*
X324294000Y-168707000D03*
D17*
X123888000Y-166421000D03*
D18*
X123888000Y-158421000D03*
D17*
X85280000Y-166294000D03*
D18*
X85280000Y-158294000D03*
D17*
X297878000Y-146355000D03*
D18*
X297878000Y-138355000D03*
D17*
X143192000Y-166421000D03*
D18*
X143192000Y-158421000D03*
D17*
X104584000Y-166294000D03*
D18*
X104584000Y-158294000D03*
D17*
X85280000Y-126924000D03*
D18*
X85280000Y-118924000D03*
D17*
X239966000Y-146228000D03*
D18*
X239966000Y-138228000D03*
M02*
