G04 #@! TF.GenerationSoftware,KiCad,Pcbnew,(6.0.7)*
G04 #@! TF.CreationDate,2022-11-03T11:15:43-07:00*
G04 #@! TF.ProjectId,alpha29_pmw3360,616c7068-6132-4395-9f70-6d7733333630,rev?*
G04 #@! TF.SameCoordinates,Original*
G04 #@! TF.FileFunction,Soldermask,Top*
G04 #@! TF.FilePolarity,Negative*
%FSLAX46Y46*%
G04 Gerber Fmt 4.6, Leading zero omitted, Abs format (unit mm)*
G04 Created by KiCad (PCBNEW (6.0.7)) date 2022-11-03 11:15:43*
%MOMM*%
%LPD*%
G01*
G04 APERTURE LIST*
G04 Aperture macros list*
%AMRoundRect*
0 Rectangle with rounded corners*
0 $1 Rounding radius*
0 $2 $3 $4 $5 $6 $7 $8 $9 X,Y pos of 4 corners*
0 Add a 4 corners polygon primitive as box body*
4,1,4,$2,$3,$4,$5,$6,$7,$8,$9,$2,$3,0*
0 Add four circle primitives for the rounded corners*
1,1,$1+$1,$2,$3*
1,1,$1+$1,$4,$5*
1,1,$1+$1,$6,$7*
1,1,$1+$1,$8,$9*
0 Add four rect primitives between the rounded corners*
20,1,$1+$1,$2,$3,$4,$5,0*
20,1,$1+$1,$4,$5,$6,$7,0*
20,1,$1+$1,$6,$7,$8,$9,0*
20,1,$1+$1,$8,$9,$2,$3,0*%
G04 Aperture macros list end*
%ADD10RoundRect,0.051000X-1.000000X1.000000X-1.000000X-1.000000X1.000000X-1.000000X1.000000X1.000000X0*%
%ADD11C,2.102000*%
%ADD12C,1.802000*%
%ADD13C,4.102000*%
%ADD14C,2.302000*%
%ADD15C,1.626000*%
%ADD16C,3.302000*%
%ADD17C,3.152000*%
%ADD18RoundRect,0.051000X0.876300X0.876300X-0.876300X0.876300X-0.876300X-0.876300X0.876300X-0.876300X0*%
%ADD19C,1.854600*%
%ADD20RoundRect,0.051000X1.000000X-1.000000X1.000000X1.000000X-1.000000X1.000000X-1.000000X-1.000000X0*%
%ADD21O,1.802000X1.802000*%
%ADD22RoundRect,0.051000X-0.850000X-0.850000X0.850000X-0.850000X0.850000X0.850000X-0.850000X0.850000X0*%
%ADD23RoundRect,0.051000X0.850000X-0.850000X0.850000X0.850000X-0.850000X0.850000X-0.850000X-0.850000X0*%
%ADD24RoundRect,0.051000X-0.600000X-0.600000X0.600000X-0.600000X0.600000X0.600000X-0.600000X0.600000X0*%
%ADD25C,1.302000*%
G04 APERTURE END LIST*
D10*
X259270000Y-146228000D03*
D11*
X259270000Y-138228000D03*
D12*
X129857000Y-161532000D03*
X140017000Y-161532000D03*
D13*
X134937000Y-161532000D03*
D14*
X137477000Y-156452000D03*
X131127000Y-158992000D03*
D10*
X239966000Y-127051000D03*
D11*
X239966000Y-119051000D03*
D12*
X198056000Y-142228000D03*
X187896000Y-142228000D03*
D13*
X192976000Y-142228000D03*
D14*
X195516000Y-137148000D03*
X189166000Y-139688000D03*
D12*
X82105000Y-142228000D03*
D13*
X77025000Y-142228000D03*
D12*
X71945000Y-142228000D03*
D14*
X79565000Y-137148000D03*
X73215000Y-139688000D03*
D12*
X168592000Y-142228000D03*
X178752000Y-142228000D03*
D13*
X173672000Y-142228000D03*
D14*
X176212000Y-137148000D03*
X169862000Y-139688000D03*
D10*
X278574000Y-127178000D03*
D11*
X278574000Y-119178000D03*
D10*
X104584000Y-126924000D03*
D11*
X104584000Y-118924000D03*
D10*
X181927000Y-126924000D03*
D11*
X181927000Y-118924000D03*
D12*
X110553000Y-142228000D03*
X120713000Y-142228000D03*
D13*
X115633000Y-142228000D03*
D14*
X118173000Y-137148000D03*
X111823000Y-139688000D03*
D10*
X239966000Y-166421000D03*
D11*
X239966000Y-158421000D03*
D10*
X162623000Y-166294000D03*
D11*
X162623000Y-158294000D03*
D12*
X71945000Y-161532000D03*
X82105000Y-161532000D03*
D13*
X77025000Y-161532000D03*
D14*
X79565000Y-156452000D03*
X73215000Y-158992000D03*
D13*
X251015000Y-161532000D03*
D12*
X256095000Y-161532000D03*
X245935000Y-161532000D03*
D14*
X253555000Y-156452000D03*
X247205000Y-158992000D03*
D10*
X143192000Y-146228000D03*
D11*
X143192000Y-138228000D03*
D12*
X294703000Y-122924000D03*
D13*
X289623000Y-122924000D03*
D12*
X284543000Y-122924000D03*
D14*
X292163000Y-117844000D03*
X285813000Y-120384000D03*
D15*
X315404000Y-173724000D03*
X319849000Y-173724000D03*
X324294000Y-173724000D03*
D10*
X259270000Y-127051000D03*
D11*
X259270000Y-119051000D03*
D10*
X259270000Y-166421000D03*
D11*
X259270000Y-158421000D03*
D13*
X212280000Y-161532000D03*
D12*
X217360000Y-161532000D03*
X207200000Y-161532000D03*
D14*
X214820000Y-156452000D03*
X208470000Y-158992000D03*
D12*
X226631000Y-122924000D03*
X236791000Y-122924000D03*
D13*
X231711000Y-122924000D03*
D14*
X234251000Y-117844000D03*
X227901000Y-120384000D03*
D12*
X82105000Y-122924000D03*
X71945000Y-122924000D03*
D13*
X77025000Y-122924000D03*
D14*
X79565000Y-117844000D03*
X73215000Y-120384000D03*
D12*
X91249000Y-122924000D03*
X101409000Y-122924000D03*
D13*
X96329000Y-122924000D03*
D14*
X98869000Y-117844000D03*
X92519000Y-120384000D03*
D16*
X68643000Y-105017000D03*
D10*
X220535000Y-166421000D03*
D11*
X220535000Y-158421000D03*
D13*
X192976000Y-122924000D03*
D12*
X187896000Y-122924000D03*
X198056000Y-122924000D03*
D14*
X195516000Y-117844000D03*
X189166000Y-120384000D03*
D12*
X226631000Y-161532000D03*
D13*
X231711000Y-161532000D03*
D12*
X236791000Y-161532000D03*
D14*
X234251000Y-156452000D03*
X227901000Y-158992000D03*
D10*
X143192000Y-127051000D03*
D11*
X143192000Y-119051000D03*
D13*
X115633000Y-161532000D03*
D12*
X110553000Y-161532000D03*
X120713000Y-161532000D03*
D14*
X118173000Y-156452000D03*
X111823000Y-158992000D03*
D10*
X201231000Y-146228000D03*
D11*
X201231000Y-138228000D03*
D10*
X201231000Y-127051000D03*
D11*
X201231000Y-119051000D03*
D13*
X231711000Y-142228000D03*
D12*
X226631000Y-142228000D03*
X236791000Y-142228000D03*
D14*
X234251000Y-137148000D03*
X227901000Y-139688000D03*
D10*
X85280000Y-146101000D03*
D11*
X85280000Y-138101000D03*
D10*
X104584000Y-146101000D03*
D11*
X104584000Y-138101000D03*
D10*
X123888000Y-146228000D03*
D11*
X123888000Y-138228000D03*
D10*
X181927000Y-146101000D03*
D11*
X181927000Y-138101000D03*
D13*
X195224000Y-169772000D03*
D17*
X195224000Y-154532000D03*
D13*
X171424000Y-169772000D03*
D17*
X171424000Y-154532000D03*
D13*
X183324000Y-161532000D03*
D12*
X178244000Y-161532000D03*
X188404000Y-161532000D03*
D14*
X185864000Y-156452000D03*
X179514000Y-158992000D03*
D16*
X362394000Y-105398000D03*
D12*
X217360000Y-142228000D03*
D13*
X212280000Y-142228000D03*
D12*
X207200000Y-142228000D03*
D14*
X214820000Y-137148000D03*
X208470000Y-139688000D03*
D16*
X351472000Y-174232000D03*
D10*
X220535000Y-146228000D03*
D11*
X220535000Y-138228000D03*
D18*
X360362000Y-110478000D03*
D19*
X357822000Y-110478000D03*
X355282000Y-110478000D03*
X352742000Y-110478000D03*
X350202000Y-110478000D03*
X347662000Y-110478000D03*
X345122000Y-110478000D03*
X342582000Y-110478000D03*
X340042000Y-110478000D03*
X337502000Y-110478000D03*
X334962000Y-110478000D03*
X332422000Y-110706600D03*
X332422000Y-125718000D03*
X334962000Y-125718000D03*
X337502000Y-125718000D03*
X340042000Y-125718000D03*
X342582000Y-125718000D03*
X345122000Y-125718000D03*
X347662000Y-125718000D03*
X350202000Y-125718000D03*
X352742000Y-125718000D03*
X355282000Y-125718000D03*
X357822000Y-125718000D03*
X360362000Y-125718000D03*
X332422000Y-113018000D03*
X332422000Y-115558000D03*
X332422000Y-118098000D03*
X332422000Y-120638000D03*
X332422000Y-123178000D03*
D10*
X278574000Y-166548000D03*
D11*
X278574000Y-158548000D03*
D15*
X302450000Y-173724000D03*
X306895000Y-173724000D03*
X311340000Y-173724000D03*
D10*
X162623000Y-126924000D03*
D11*
X162623000Y-118924000D03*
D12*
X284543000Y-161532000D03*
X294703000Y-161532000D03*
D13*
X289623000Y-161532000D03*
D14*
X292163000Y-156452000D03*
X285813000Y-158992000D03*
D10*
X297878000Y-166548000D03*
D11*
X297878000Y-158548000D03*
D13*
X154368000Y-122924000D03*
D12*
X159448000Y-122924000D03*
X149288000Y-122924000D03*
D14*
X156908000Y-117844000D03*
X150558000Y-120384000D03*
D10*
X278574000Y-146355000D03*
D11*
X278574000Y-138355000D03*
D20*
X311340000Y-160707000D03*
D11*
X311340000Y-168707000D03*
D10*
X123888000Y-127051000D03*
D11*
X123888000Y-119051000D03*
D10*
X297878000Y-127178000D03*
D11*
X297878000Y-119178000D03*
D13*
X212280000Y-122924000D03*
D12*
X207200000Y-122924000D03*
X217360000Y-122924000D03*
D14*
X214820000Y-117844000D03*
X208470000Y-120384000D03*
D13*
X96329000Y-161532000D03*
D12*
X91249000Y-161532000D03*
X101409000Y-161532000D03*
D14*
X98869000Y-156452000D03*
X92519000Y-158992000D03*
D12*
X129857000Y-122924000D03*
D13*
X134937000Y-122924000D03*
D12*
X140017000Y-122924000D03*
D14*
X137477000Y-117844000D03*
X131127000Y-120384000D03*
D10*
X162623000Y-146101000D03*
D11*
X162623000Y-138101000D03*
D10*
X191706000Y-166421000D03*
D11*
X191706000Y-158421000D03*
D10*
X220535000Y-127051000D03*
D11*
X220535000Y-119051000D03*
D21*
X348685000Y-136477000D03*
X348685000Y-139017000D03*
X348685000Y-141557000D03*
X348685000Y-144097000D03*
X348685000Y-146637000D03*
D22*
X348685000Y-149177000D03*
D12*
X275399000Y-161532000D03*
X265239000Y-161532000D03*
D13*
X270319000Y-161532000D03*
D14*
X272859000Y-156452000D03*
X266509000Y-158992000D03*
D12*
X149288000Y-162294000D03*
X256095000Y-122924000D03*
X245935000Y-122924000D03*
D13*
X251015000Y-122924000D03*
D14*
X253555000Y-117844000D03*
X247205000Y-120384000D03*
D20*
X324294000Y-160707000D03*
D11*
X324294000Y-168707000D03*
D12*
X91249000Y-142228000D03*
X101409000Y-142228000D03*
D13*
X96329000Y-142228000D03*
D14*
X98869000Y-137148000D03*
X92519000Y-139688000D03*
D16*
X68643000Y-174486000D03*
D10*
X123888000Y-166421000D03*
D11*
X123888000Y-158421000D03*
D10*
X85280000Y-166294000D03*
D11*
X85280000Y-158294000D03*
D10*
X297878000Y-146355000D03*
D11*
X297878000Y-138355000D03*
D12*
X159448000Y-161532000D03*
X149288000Y-161532000D03*
D13*
X154368000Y-161532000D03*
D14*
X156908000Y-156452000D03*
X150558000Y-158992000D03*
D12*
X120713000Y-122924000D03*
X110553000Y-122924000D03*
D13*
X115633000Y-122924000D03*
D14*
X118173000Y-117844000D03*
X111823000Y-120384000D03*
D10*
X143192000Y-166421000D03*
D11*
X143192000Y-158421000D03*
D12*
X275399000Y-142228000D03*
X265239000Y-142228000D03*
D13*
X270319000Y-142228000D03*
D14*
X272859000Y-137148000D03*
X266509000Y-139688000D03*
D10*
X104584000Y-166294000D03*
D11*
X104584000Y-158294000D03*
D10*
X85280000Y-126924000D03*
D11*
X85280000Y-118924000D03*
D12*
X245935000Y-142228000D03*
X256095000Y-142228000D03*
D13*
X251015000Y-142228000D03*
D14*
X253555000Y-137148000D03*
X247205000Y-139688000D03*
D12*
X149288000Y-142101000D03*
D10*
X239966000Y-146228000D03*
D11*
X239966000Y-138228000D03*
D12*
X149288000Y-142228000D03*
X159448000Y-142228000D03*
D13*
X154368000Y-142228000D03*
D14*
X156908000Y-137148000D03*
X150558000Y-139688000D03*
D12*
X168592000Y-122924000D03*
D13*
X173672000Y-122924000D03*
D12*
X178752000Y-122924000D03*
D14*
X176212000Y-117844000D03*
X169862000Y-120384000D03*
D12*
X129857000Y-142228000D03*
D13*
X134937000Y-142228000D03*
D12*
X140017000Y-142228000D03*
D14*
X137477000Y-137148000D03*
X131127000Y-139688000D03*
D23*
X357583000Y-173343000D03*
D21*
X360123000Y-173343000D03*
X362663000Y-173343000D03*
D13*
X289623000Y-142228000D03*
D12*
X284543000Y-142228000D03*
X294703000Y-142228000D03*
D14*
X292163000Y-137148000D03*
X285813000Y-139688000D03*
D13*
X270319000Y-122924000D03*
D12*
X275399000Y-122924000D03*
X265239000Y-122924000D03*
D14*
X272859000Y-117844000D03*
X266509000Y-120384000D03*
D24*
X325421000Y-149095000D03*
D25*
X325421000Y-147315000D03*
X325421000Y-145535000D03*
X325421000Y-143755000D03*
X325421000Y-141975000D03*
X325421000Y-140195000D03*
X325421000Y-138415000D03*
X325421000Y-136635000D03*
X336121000Y-135745000D03*
X336121000Y-137525000D03*
X336121000Y-139305000D03*
X336121000Y-141085000D03*
X336121000Y-142865000D03*
X336121000Y-144645000D03*
X336121000Y-146425000D03*
X336121000Y-148205000D03*
M02*
