%FSLAX45Y45*%
G04 Gerber Fmt 4.5, Leading zero omitted, Abs format (unit mm)*
G04 Created by KiCad (PCBNEW (6.0.1)) date 2022-09-15 15:26:33*
%MOMM*%
%LPD*%
G01*
G04 APERTURE LIST*
%TA.AperFunction,Profile*%
%ADD10C,0.100000*%
%TD*%
%ADD11C,0.200000*%
%ADD12C,0.030000*%
%ADD13C,0.040000*%
%ADD14C,0.070000*%
%ADD15C,0.100000*%
%ADD16C,0.109220*%
%ADD17C,0.110000*%
%ADD18C,0.150000*%
G04 APERTURE END LIST*
D10*
X32317768Y-13822223D02*
X33067768Y-13822223D01*
X32267768Y-13772223D02*
X32267768Y-12197223D01*
X32317768Y-12147223D02*
X33067768Y-12147223D01*
X32267768Y-13772223D02*
G75*
G03*
X32317768Y-13822223I50000J0D01*
G01*
X6099568Y-7738563D02*
X37478728Y-7738563D01*
X37478728Y-7738563D02*
X37478728Y-18818043D01*
X37478728Y-18818043D02*
X6099568Y-18818043D01*
X6099568Y-18818043D02*
X6099568Y-7738563D01*
X33117768Y-12197223D02*
X33117768Y-13772223D01*
X33117768Y-12197223D02*
G75*
G03*
X33067768Y-12147223I-50000J0D01*
G01*
X33067768Y-13822223D02*
G75*
G03*
X33117768Y-13772223I0J50000D01*
G01*
X32317768Y-12147223D02*
G75*
G03*
X32267768Y-12197223I0J-50000D01*
G01*
D11*
D12*
X31171568Y-13798423D02*
X31201568Y-13828423D01*
X31201568Y-13798423D02*
X31171568Y-13828423D01*
X31404968Y-13384223D02*
X31434968Y-13414223D01*
X31434968Y-13384223D02*
X31404968Y-13414223D01*
X31441568Y-12253423D02*
X31471568Y-12283423D01*
X31471568Y-12253423D02*
X31441568Y-12283423D01*
X31511568Y-12443423D02*
X31541568Y-12473423D01*
X31541568Y-12443423D02*
X31511568Y-12473423D01*
X31551568Y-13003423D02*
X31581568Y-13033423D01*
X31581568Y-13003423D02*
X31551568Y-13033423D01*
X31571568Y-12533423D02*
X31601568Y-12563423D01*
X31601568Y-12533423D02*
X31571568Y-12563423D01*
X31731568Y-11943423D02*
X31761568Y-11973423D01*
X31761568Y-11943423D02*
X31731568Y-11973423D01*
X31951568Y-12833423D02*
X31981568Y-12863423D01*
X31981568Y-12833423D02*
X31951568Y-12863423D01*
X32162845Y-13884700D02*
X32192845Y-13914700D01*
X32192845Y-13884700D02*
X32162845Y-13914700D01*
X33446568Y-12988423D02*
X33476568Y-13018423D01*
X33476568Y-12988423D02*
X33446568Y-13018423D01*
X33487768Y-13562023D02*
X33517768Y-13592023D01*
X33517768Y-13562023D02*
X33487768Y-13592023D01*
X33561568Y-12378423D02*
X33591568Y-12408423D01*
X33591568Y-12378423D02*
X33561568Y-12408423D01*
X33781568Y-11898423D02*
X33811568Y-11928423D01*
X33811568Y-11898423D02*
X33781568Y-11928423D01*
X34136467Y-12647623D02*
X34166467Y-12677623D01*
X34166467Y-12647623D02*
X34136467Y-12677623D01*
D13*
X32289188Y-9300663D02*
G75*
G03*
X32289188Y-9300663I-20000J0D01*
G01*
X32624468Y-9310823D02*
G75*
G03*
X32624468Y-9310823I-20000J0D01*
G01*
X32954668Y-9331143D02*
G75*
G03*
X32954668Y-9331143I-20000J0D01*
G01*
X33335668Y-15142663D02*
G75*
G03*
X33335668Y-15142663I-20000J0D01*
G01*
X36424308Y-13034463D02*
G75*
G03*
X36424308Y-13034463I-20000J0D01*
G01*
X36647828Y-12170863D02*
G75*
G03*
X36647828Y-12170863I-20000J0D01*
G01*
X36708788Y-12780463D02*
G75*
G03*
X36708788Y-12780463I-20000J0D01*
G01*
X36718948Y-10651943D02*
G75*
G03*
X36718948Y-10651943I-20000J0D01*
G01*
X36749428Y-11515543D02*
G75*
G03*
X36749428Y-11515543I-20000J0D01*
G01*
X36891668Y-10382703D02*
G75*
G03*
X36891668Y-10382703I-20000J0D01*
G01*
X36891668Y-11713663D02*
G75*
G03*
X36891668Y-11713663I-20000J0D01*
G01*
X37232028Y-9178743D02*
G75*
G03*
X37232028Y-9178743I-20000J0D01*
G01*
D14*
X32157668Y-12314223D02*
X32157668Y-12384223D01*
X32122668Y-12349223D02*
X32192668Y-12349223D01*
X32157668Y-12492223D02*
X32157668Y-12562223D01*
X32122668Y-12527223D02*
X32192668Y-12527223D01*
X32157668Y-12670223D02*
X32157668Y-12740223D01*
X32122668Y-12705223D02*
X32192668Y-12705223D01*
X32157668Y-12848223D02*
X32157668Y-12918223D01*
X32122668Y-12883223D02*
X32192668Y-12883223D01*
X32157668Y-13026223D02*
X32157668Y-13096223D01*
X32122668Y-13061223D02*
X32192668Y-13061223D01*
X32157668Y-13204223D02*
X32157668Y-13274223D01*
X32122668Y-13239223D02*
X32192668Y-13239223D01*
X32157668Y-13382223D02*
X32157668Y-13452223D01*
X32122668Y-13417223D02*
X32192668Y-13417223D01*
X32157668Y-13560223D02*
X32157668Y-13630223D01*
X32122668Y-13595223D02*
X32192668Y-13595223D01*
X33227668Y-12225223D02*
X33227668Y-12295223D01*
X33192668Y-12260223D02*
X33262668Y-12260223D01*
X33227668Y-12403223D02*
X33227668Y-12473223D01*
X33192668Y-12438223D02*
X33262668Y-12438223D01*
X33227668Y-12581223D02*
X33227668Y-12651223D01*
X33192668Y-12616223D02*
X33262668Y-12616223D01*
X33227668Y-12759223D02*
X33227668Y-12829223D01*
X33192668Y-12794223D02*
X33262668Y-12794223D01*
X33227668Y-12937223D02*
X33227668Y-13007223D01*
X33192668Y-12972223D02*
X33262668Y-12972223D01*
X33227668Y-13115223D02*
X33227668Y-13185223D01*
X33192668Y-13150223D02*
X33262668Y-13150223D01*
X33227668Y-13293223D02*
X33227668Y-13363223D01*
X33192668Y-13328223D02*
X33262668Y-13328223D01*
X33227668Y-13471223D02*
X33227668Y-13541223D01*
X33192668Y-13506223D02*
X33262668Y-13506223D01*
D15*
X34519424Y-12368779D02*
X34519424Y-12298068D01*
X34448713Y-12298068D01*
X34448713Y-12368779D01*
X34519424Y-12368779D01*
X34519424Y-12622779D02*
X34519424Y-12552068D01*
X34448713Y-12552068D01*
X34448713Y-12622779D01*
X34519424Y-12622779D01*
X34519424Y-12876779D02*
X34519424Y-12806068D01*
X34448713Y-12806068D01*
X34448713Y-12876779D01*
X34519424Y-12876779D01*
X34519424Y-13130779D02*
X34519424Y-13060068D01*
X34448713Y-13060068D01*
X34448713Y-13130779D01*
X34519424Y-13130779D01*
X34519424Y-13384779D02*
X34519424Y-13314068D01*
X34448713Y-13314068D01*
X34448713Y-13384779D01*
X34519424Y-13384779D01*
X34519424Y-13638779D02*
X34519424Y-13568068D01*
X34448713Y-13568068D01*
X34448713Y-13638779D01*
X34519424Y-13638779D01*
X35316984Y-16011139D02*
X35316984Y-15940428D01*
X35246273Y-15940428D01*
X35246273Y-16011139D01*
X35316984Y-16011139D01*
X35570984Y-16011139D02*
X35570984Y-15940428D01*
X35500273Y-15940428D01*
X35500273Y-16011139D01*
X35570984Y-16011139D01*
X35824984Y-16011139D02*
X35824984Y-15940428D01*
X35754273Y-15940428D01*
X35754273Y-16011139D01*
X35824984Y-16011139D01*
D16*
X34814268Y-8369753D02*
X34868878Y-8315143D01*
X34814268Y-8260533D01*
X34759658Y-8315143D01*
X34814268Y-8369753D01*
X34814268Y-8623753D02*
X34868878Y-8569143D01*
X34814268Y-8514533D01*
X34759658Y-8569143D01*
X34814268Y-8623753D01*
X34814268Y-8877753D02*
X34868878Y-8823143D01*
X34814268Y-8768533D01*
X34759658Y-8823143D01*
X34814268Y-8877753D01*
X34814268Y-9131753D02*
X34868878Y-9077143D01*
X34814268Y-9022533D01*
X34759658Y-9077143D01*
X34814268Y-9131753D01*
X34814268Y-9385753D02*
X34868878Y-9331143D01*
X34814268Y-9276533D01*
X34759658Y-9331143D01*
X34814268Y-9385753D01*
X34814268Y-9639753D02*
X34868878Y-9585143D01*
X34814268Y-9530533D01*
X34759658Y-9585143D01*
X34814268Y-9639753D01*
X34814268Y-9893753D02*
X34868878Y-9839143D01*
X34814268Y-9784533D01*
X34759658Y-9839143D01*
X34814268Y-9893753D01*
X34814268Y-10147753D02*
X34868878Y-10093143D01*
X34814268Y-10038533D01*
X34759658Y-10093143D01*
X34814268Y-10147753D01*
X34814268Y-10401753D02*
X34868878Y-10347143D01*
X34814268Y-10292533D01*
X34759658Y-10347143D01*
X34814268Y-10401753D01*
X34814268Y-10655753D02*
X34868878Y-10601143D01*
X34814268Y-10546533D01*
X34759658Y-10601143D01*
X34814268Y-10655753D01*
X34814268Y-10909753D02*
X34868878Y-10855143D01*
X34814268Y-10800533D01*
X34759658Y-10855143D01*
X34814268Y-10909753D01*
X34837128Y-11163753D02*
X34891738Y-11109143D01*
X34837128Y-11054533D01*
X34782518Y-11109143D01*
X34837128Y-11163753D01*
X35068268Y-11163753D02*
X35122878Y-11109143D01*
X35068268Y-11054533D01*
X35013658Y-11109143D01*
X35068268Y-11163753D01*
X35322268Y-11163753D02*
X35376878Y-11109143D01*
X35322268Y-11054533D01*
X35267658Y-11109143D01*
X35322268Y-11163753D01*
X35576268Y-11163753D02*
X35630878Y-11109143D01*
X35576268Y-11054533D01*
X35521658Y-11109143D01*
X35576268Y-11163753D01*
X35830268Y-11163753D02*
X35884878Y-11109143D01*
X35830268Y-11054533D01*
X35775658Y-11109143D01*
X35830268Y-11163753D01*
X36084268Y-11163753D02*
X36138878Y-11109143D01*
X36084268Y-11054533D01*
X36029658Y-11109143D01*
X36084268Y-11163753D01*
X36338268Y-8369753D02*
X36392878Y-8315143D01*
X36338268Y-8260533D01*
X36283658Y-8315143D01*
X36338268Y-8369753D01*
X36338268Y-8623753D02*
X36392878Y-8569143D01*
X36338268Y-8514533D01*
X36283658Y-8569143D01*
X36338268Y-8623753D01*
X36338268Y-8877753D02*
X36392878Y-8823143D01*
X36338268Y-8768533D01*
X36283658Y-8823143D01*
X36338268Y-8877753D01*
X36338268Y-9131753D02*
X36392878Y-9077143D01*
X36338268Y-9022533D01*
X36283658Y-9077143D01*
X36338268Y-9131753D01*
X36338268Y-9385753D02*
X36392878Y-9331143D01*
X36338268Y-9276533D01*
X36283658Y-9331143D01*
X36338268Y-9385753D01*
X36338268Y-9639753D02*
X36392878Y-9585143D01*
X36338268Y-9530533D01*
X36283658Y-9585143D01*
X36338268Y-9639753D01*
X36338268Y-9893753D02*
X36392878Y-9839143D01*
X36338268Y-9784533D01*
X36283658Y-9839143D01*
X36338268Y-9893753D01*
X36338268Y-10147753D02*
X36392878Y-10093143D01*
X36338268Y-10038533D01*
X36283658Y-10093143D01*
X36338268Y-10147753D01*
X36338268Y-10401753D02*
X36392878Y-10347143D01*
X36338268Y-10292533D01*
X36283658Y-10347143D01*
X36338268Y-10401753D01*
X36338268Y-10655753D02*
X36392878Y-10601143D01*
X36338268Y-10546533D01*
X36283658Y-10601143D01*
X36338268Y-10655753D01*
X36338268Y-10909753D02*
X36392878Y-10855143D01*
X36338268Y-10800533D01*
X36283658Y-10855143D01*
X36338268Y-10909753D01*
X36338268Y-11163753D02*
X36392878Y-11109143D01*
X36338268Y-11054533D01*
X36283658Y-11109143D01*
X36338268Y-11163753D01*
D17*
X8581542Y-8887350D02*
X8691542Y-8997350D01*
X8691542Y-8887350D02*
X8581542Y-8997350D01*
X8691542Y-8942350D02*
G75*
G03*
X8691542Y-8942350I-55000J0D01*
G01*
X8581542Y-9395350D02*
X8691542Y-9505350D01*
X8691542Y-9395350D02*
X8581542Y-9505350D01*
X8691542Y-9450350D02*
G75*
G03*
X8691542Y-9450350I-55000J0D01*
G01*
X8584568Y-12834300D02*
X8694568Y-12944300D01*
X8694568Y-12834300D02*
X8584568Y-12944300D01*
X8694568Y-12889300D02*
G75*
G03*
X8694568Y-12889300I-55000J0D01*
G01*
X8584568Y-13342300D02*
X8694568Y-13452300D01*
X8694568Y-13342300D02*
X8584568Y-13452300D01*
X8694568Y-13397300D02*
G75*
G03*
X8694568Y-13397300I-55000J0D01*
G01*
X8597268Y-14744380D02*
X8707268Y-14854380D01*
X8707268Y-14744380D02*
X8597268Y-14854380D01*
X8707268Y-14799380D02*
G75*
G03*
X8707268Y-14799380I-55000J0D01*
G01*
X8597268Y-15252380D02*
X8707268Y-15362380D01*
X8707268Y-15252380D02*
X8597268Y-15362380D01*
X8707268Y-15307380D02*
G75*
G03*
X8707268Y-15307380I-55000J0D01*
G01*
X8609968Y-10802300D02*
X8719968Y-10912300D01*
X8719968Y-10802300D02*
X8609968Y-10912300D01*
X8719968Y-10857300D02*
G75*
G03*
X8719968Y-10857300I-55000J0D01*
G01*
X8609968Y-11310300D02*
X8719968Y-11420300D01*
X8719968Y-11310300D02*
X8609968Y-11420300D01*
X8719968Y-11365300D02*
G75*
G03*
X8719968Y-11365300I-55000J0D01*
G01*
X8630288Y-16697640D02*
X8740288Y-16807640D01*
X8740288Y-16697640D02*
X8630288Y-16807640D01*
X8740288Y-16752640D02*
G75*
G03*
X8740288Y-16752640I-55000J0D01*
G01*
X8630288Y-17205640D02*
X8740288Y-17315640D01*
X8740288Y-17205640D02*
X8630288Y-17315640D01*
X8740288Y-17260640D02*
G75*
G03*
X8740288Y-17260640I-55000J0D01*
G01*
X10511942Y-8900050D02*
X10621942Y-9010050D01*
X10621942Y-8900050D02*
X10511942Y-9010050D01*
X10621942Y-8955050D02*
G75*
G03*
X10621942Y-8955050I-55000J0D01*
G01*
X10511942Y-9408050D02*
X10621942Y-9518050D01*
X10621942Y-9408050D02*
X10511942Y-9518050D01*
X10621942Y-9463050D02*
G75*
G03*
X10621942Y-9463050I-55000J0D01*
G01*
X10514968Y-12847000D02*
X10624968Y-12957000D01*
X10624968Y-12847000D02*
X10514968Y-12957000D01*
X10624968Y-12902000D02*
G75*
G03*
X10624968Y-12902000I-55000J0D01*
G01*
X10514968Y-13355000D02*
X10624968Y-13465000D01*
X10624968Y-13355000D02*
X10514968Y-13465000D01*
X10624968Y-13410000D02*
G75*
G03*
X10624968Y-13410000I-55000J0D01*
G01*
X10527668Y-14757080D02*
X10637668Y-14867080D01*
X10637668Y-14757080D02*
X10527668Y-14867080D01*
X10637668Y-14812080D02*
G75*
G03*
X10637668Y-14812080I-55000J0D01*
G01*
X10527668Y-15265080D02*
X10637668Y-15375080D01*
X10637668Y-15265080D02*
X10527668Y-15375080D01*
X10637668Y-15320080D02*
G75*
G03*
X10637668Y-15320080I-55000J0D01*
G01*
X10540368Y-10815000D02*
X10650368Y-10925000D01*
X10650368Y-10815000D02*
X10540368Y-10925000D01*
X10650368Y-10870000D02*
G75*
G03*
X10650368Y-10870000I-55000J0D01*
G01*
X10540368Y-11323000D02*
X10650368Y-11433000D01*
X10650368Y-11323000D02*
X10540368Y-11433000D01*
X10650368Y-11378000D02*
G75*
G03*
X10650368Y-11378000I-55000J0D01*
G01*
X10560688Y-16710340D02*
X10670688Y-16820340D01*
X10670688Y-16710340D02*
X10560688Y-16820340D01*
X10670688Y-16765340D02*
G75*
G03*
X10670688Y-16765340I-55000J0D01*
G01*
X10560688Y-17218340D02*
X10670688Y-17328340D01*
X10670688Y-17218340D02*
X10560688Y-17328340D01*
X10670688Y-17273340D02*
G75*
G03*
X10670688Y-17273340I-55000J0D01*
G01*
X12455042Y-8887350D02*
X12565042Y-8997350D01*
X12565042Y-8887350D02*
X12455042Y-8997350D01*
X12565042Y-8942350D02*
G75*
G03*
X12565042Y-8942350I-55000J0D01*
G01*
X12455042Y-9395350D02*
X12565042Y-9505350D01*
X12565042Y-9395350D02*
X12455042Y-9505350D01*
X12565042Y-9450350D02*
G75*
G03*
X12565042Y-9450350I-55000J0D01*
G01*
X12458068Y-12834300D02*
X12568068Y-12944300D01*
X12568068Y-12834300D02*
X12458068Y-12944300D01*
X12568068Y-12889300D02*
G75*
G03*
X12568068Y-12889300I-55000J0D01*
G01*
X12458068Y-13342300D02*
X12568068Y-13452300D01*
X12568068Y-13342300D02*
X12458068Y-13452300D01*
X12568068Y-13397300D02*
G75*
G03*
X12568068Y-13397300I-55000J0D01*
G01*
X12470768Y-14744380D02*
X12580768Y-14854380D01*
X12580768Y-14744380D02*
X12470768Y-14854380D01*
X12580768Y-14799380D02*
G75*
G03*
X12580768Y-14799380I-55000J0D01*
G01*
X12470768Y-15252380D02*
X12580768Y-15362380D01*
X12580768Y-15252380D02*
X12470768Y-15362380D01*
X12580768Y-15307380D02*
G75*
G03*
X12580768Y-15307380I-55000J0D01*
G01*
X12483468Y-10802300D02*
X12593468Y-10912300D01*
X12593468Y-10802300D02*
X12483468Y-10912300D01*
X12593468Y-10857300D02*
G75*
G03*
X12593468Y-10857300I-55000J0D01*
G01*
X12483468Y-11310300D02*
X12593468Y-11420300D01*
X12593468Y-11310300D02*
X12483468Y-11420300D01*
X12593468Y-11365300D02*
G75*
G03*
X12593468Y-11365300I-55000J0D01*
G01*
X12503788Y-16697640D02*
X12613788Y-16807640D01*
X12613788Y-16697640D02*
X12503788Y-16807640D01*
X12613788Y-16752640D02*
G75*
G03*
X12613788Y-16752640I-55000J0D01*
G01*
X12503788Y-17205640D02*
X12613788Y-17315640D01*
X12613788Y-17205640D02*
X12503788Y-17315640D01*
X12613788Y-17260640D02*
G75*
G03*
X12613788Y-17260640I-55000J0D01*
G01*
X14385442Y-8900050D02*
X14495442Y-9010050D01*
X14495442Y-8900050D02*
X14385442Y-9010050D01*
X14495442Y-8955050D02*
G75*
G03*
X14495442Y-8955050I-55000J0D01*
G01*
X14385442Y-9408050D02*
X14495442Y-9518050D01*
X14495442Y-9408050D02*
X14385442Y-9518050D01*
X14495442Y-9463050D02*
G75*
G03*
X14495442Y-9463050I-55000J0D01*
G01*
X14388468Y-12847000D02*
X14498468Y-12957000D01*
X14498468Y-12847000D02*
X14388468Y-12957000D01*
X14498468Y-12902000D02*
G75*
G03*
X14498468Y-12902000I-55000J0D01*
G01*
X14388468Y-13355000D02*
X14498468Y-13465000D01*
X14498468Y-13355000D02*
X14388468Y-13465000D01*
X14498468Y-13410000D02*
G75*
G03*
X14498468Y-13410000I-55000J0D01*
G01*
X14401168Y-14757080D02*
X14511168Y-14867080D01*
X14511168Y-14757080D02*
X14401168Y-14867080D01*
X14511168Y-14812080D02*
G75*
G03*
X14511168Y-14812080I-55000J0D01*
G01*
X14401168Y-15265080D02*
X14511168Y-15375080D01*
X14511168Y-15265080D02*
X14401168Y-15375080D01*
X14511168Y-15320080D02*
G75*
G03*
X14511168Y-15320080I-55000J0D01*
G01*
X14413868Y-10815000D02*
X14523868Y-10925000D01*
X14523868Y-10815000D02*
X14413868Y-10925000D01*
X14523868Y-10870000D02*
G75*
G03*
X14523868Y-10870000I-55000J0D01*
G01*
X14413868Y-11323000D02*
X14523868Y-11433000D01*
X14523868Y-11323000D02*
X14413868Y-11433000D01*
X14523868Y-11378000D02*
G75*
G03*
X14523868Y-11378000I-55000J0D01*
G01*
X16315842Y-8921832D02*
X16425842Y-9031832D01*
X16425842Y-8921832D02*
X16315842Y-9031832D01*
X16425842Y-8976832D02*
G75*
G03*
X16425842Y-8976832I-55000J0D01*
G01*
X16315842Y-9429832D02*
X16425842Y-9539832D01*
X16425842Y-9429832D02*
X16315842Y-9539832D01*
X16425842Y-9484832D02*
G75*
G03*
X16425842Y-9484832I-55000J0D01*
G01*
X16318868Y-12868782D02*
X16428868Y-12978782D01*
X16428868Y-12868782D02*
X16318868Y-12978782D01*
X16428868Y-12923782D02*
G75*
G03*
X16428868Y-12923782I-55000J0D01*
G01*
X16318868Y-13376782D02*
X16428868Y-13486782D01*
X16428868Y-13376782D02*
X16318868Y-13486782D01*
X16428868Y-13431782D02*
G75*
G03*
X16428868Y-13431782I-55000J0D01*
G01*
X16331568Y-14778862D02*
X16441568Y-14888862D01*
X16441568Y-14778862D02*
X16331568Y-14888862D01*
X16441568Y-14833862D02*
G75*
G03*
X16441568Y-14833862I-55000J0D01*
G01*
X16331568Y-15286862D02*
X16441568Y-15396862D01*
X16441568Y-15286862D02*
X16331568Y-15396862D01*
X16441568Y-15341862D02*
G75*
G03*
X16441568Y-15341862I-55000J0D01*
G01*
X16344268Y-10836782D02*
X16454268Y-10946782D01*
X16454268Y-10836782D02*
X16344268Y-10946782D01*
X16454268Y-10891782D02*
G75*
G03*
X16454268Y-10891782I-55000J0D01*
G01*
X16344268Y-11344782D02*
X16454268Y-11454782D01*
X16454268Y-11344782D02*
X16344268Y-11454782D01*
X16454268Y-11399782D02*
G75*
G03*
X16454268Y-11399782I-55000J0D01*
G01*
X18173068Y-16661002D02*
X18283068Y-16771002D01*
X18283068Y-16661002D02*
X18173068Y-16771002D01*
X18283068Y-16716002D02*
G75*
G03*
X18283068Y-16716002I-55000J0D01*
G01*
X18173068Y-17169002D02*
X18283068Y-17279002D01*
X18283068Y-17169002D02*
X18173068Y-17279002D01*
X18283068Y-17224002D02*
G75*
G03*
X18283068Y-17224002I-55000J0D01*
G01*
X18246242Y-8934532D02*
X18356242Y-9044532D01*
X18356242Y-8934532D02*
X18246242Y-9044532D01*
X18356242Y-8989532D02*
G75*
G03*
X18356242Y-8989532I-55000J0D01*
G01*
X18246242Y-9442532D02*
X18356242Y-9552532D01*
X18356242Y-9442532D02*
X18246242Y-9552532D01*
X18356242Y-9497532D02*
G75*
G03*
X18356242Y-9497532I-55000J0D01*
G01*
X18249268Y-12881482D02*
X18359268Y-12991482D01*
X18359268Y-12881482D02*
X18249268Y-12991482D01*
X18359268Y-12936482D02*
G75*
G03*
X18359268Y-12936482I-55000J0D01*
G01*
X18249268Y-13389482D02*
X18359268Y-13499482D01*
X18359268Y-13389482D02*
X18249268Y-13499482D01*
X18359268Y-13444482D02*
G75*
G03*
X18359268Y-13444482I-55000J0D01*
G01*
X18262455Y-14762333D02*
X18372455Y-14872333D01*
X18372455Y-14762333D02*
X18262455Y-14872333D01*
X18372455Y-14817333D02*
G75*
G03*
X18372455Y-14817333I-55000J0D01*
G01*
X18262455Y-15270333D02*
X18372455Y-15380333D01*
X18372455Y-15270333D02*
X18262455Y-15380333D01*
X18372455Y-15325333D02*
G75*
G03*
X18372455Y-15325333I-55000J0D01*
G01*
X18274668Y-10849482D02*
X18384668Y-10959482D01*
X18384668Y-10849482D02*
X18274668Y-10959482D01*
X18384668Y-10904482D02*
G75*
G03*
X18384668Y-10904482I-55000J0D01*
G01*
X18274668Y-11357482D02*
X18384668Y-11467482D01*
X18384668Y-11357482D02*
X18274668Y-11467482D01*
X18384668Y-11412482D02*
G75*
G03*
X18384668Y-11412482I-55000J0D01*
G01*
X20176642Y-8900050D02*
X20286642Y-9010050D01*
X20286642Y-8900050D02*
X20176642Y-9010050D01*
X20286642Y-8955050D02*
G75*
G03*
X20286642Y-8955050I-55000J0D01*
G01*
X20176642Y-9408050D02*
X20286642Y-9518050D01*
X20286642Y-9408050D02*
X20176642Y-9518050D01*
X20286642Y-9463050D02*
G75*
G03*
X20286642Y-9463050I-55000J0D01*
G01*
X20179668Y-12847000D02*
X20289668Y-12957000D01*
X20289668Y-12847000D02*
X20179668Y-12957000D01*
X20289668Y-12902000D02*
G75*
G03*
X20289668Y-12902000I-55000J0D01*
G01*
X20179668Y-13355000D02*
X20289668Y-13465000D01*
X20289668Y-13355000D02*
X20179668Y-13465000D01*
X20289668Y-13410000D02*
G75*
G03*
X20289668Y-13410000I-55000J0D01*
G01*
X20192855Y-14775033D02*
X20302855Y-14885033D01*
X20302855Y-14775033D02*
X20192855Y-14885033D01*
X20302855Y-14830033D02*
G75*
G03*
X20302855Y-14830033I-55000J0D01*
G01*
X20192855Y-15283033D02*
X20302855Y-15393033D01*
X20302855Y-15283033D02*
X20192855Y-15393033D01*
X20302855Y-15338033D02*
G75*
G03*
X20302855Y-15338033I-55000J0D01*
G01*
X20205068Y-10815000D02*
X20315068Y-10925000D01*
X20315068Y-10815000D02*
X20205068Y-10925000D01*
X20315068Y-10870000D02*
G75*
G03*
X20315068Y-10870000I-55000J0D01*
G01*
X20205068Y-11323000D02*
X20315068Y-11433000D01*
X20315068Y-11323000D02*
X20205068Y-11433000D01*
X20315068Y-11378000D02*
G75*
G03*
X20315068Y-11378000I-55000J0D01*
G01*
X22107042Y-8912750D02*
X22217042Y-9022750D01*
X22217042Y-8912750D02*
X22107042Y-9022750D01*
X22217042Y-8967750D02*
G75*
G03*
X22217042Y-8967750I-55000J0D01*
G01*
X22107042Y-9420750D02*
X22217042Y-9530750D01*
X22217042Y-9420750D02*
X22107042Y-9530750D01*
X22217042Y-9475750D02*
G75*
G03*
X22217042Y-9475750I-55000J0D01*
G01*
X22110068Y-12859700D02*
X22220068Y-12969700D01*
X22220068Y-12859700D02*
X22110068Y-12969700D01*
X22220068Y-12914700D02*
G75*
G03*
X22220068Y-12914700I-55000J0D01*
G01*
X22110068Y-13367700D02*
X22220068Y-13477700D01*
X22220068Y-13367700D02*
X22110068Y-13477700D01*
X22220068Y-13422700D02*
G75*
G03*
X22220068Y-13422700I-55000J0D01*
G01*
X22135468Y-10827700D02*
X22245468Y-10937700D01*
X22245468Y-10827700D02*
X22135468Y-10937700D01*
X22245468Y-10882700D02*
G75*
G03*
X22245468Y-10882700I-55000J0D01*
G01*
X22135468Y-11335700D02*
X22245468Y-11445700D01*
X22245468Y-11335700D02*
X22135468Y-11445700D01*
X22245468Y-11390700D02*
G75*
G03*
X22245468Y-11390700I-55000J0D01*
G01*
X22135955Y-14762333D02*
X22245955Y-14872333D01*
X22245955Y-14762333D02*
X22135955Y-14872333D01*
X22245955Y-14817333D02*
G75*
G03*
X22245955Y-14817333I-55000J0D01*
G01*
X22135955Y-15270333D02*
X22245955Y-15380333D01*
X22245955Y-15270333D02*
X22135955Y-15380333D01*
X22245955Y-15325333D02*
G75*
G03*
X22245955Y-15325333I-55000J0D01*
G01*
X24037442Y-8934532D02*
X24147442Y-9044532D01*
X24147442Y-8934532D02*
X24037442Y-9044532D01*
X24147442Y-8989532D02*
G75*
G03*
X24147442Y-8989532I-55000J0D01*
G01*
X24037442Y-9442532D02*
X24147442Y-9552532D01*
X24147442Y-9442532D02*
X24037442Y-9552532D01*
X24147442Y-9497532D02*
G75*
G03*
X24147442Y-9497532I-55000J0D01*
G01*
X24040468Y-12881482D02*
X24150468Y-12991482D01*
X24150468Y-12881482D02*
X24040468Y-12991482D01*
X24150468Y-12936482D02*
G75*
G03*
X24150468Y-12936482I-55000J0D01*
G01*
X24040468Y-13389482D02*
X24150468Y-13499482D01*
X24150468Y-13389482D02*
X24040468Y-13499482D01*
X24150468Y-13444482D02*
G75*
G03*
X24150468Y-13444482I-55000J0D01*
G01*
X24065868Y-10849482D02*
X24175868Y-10959482D01*
X24175868Y-10849482D02*
X24065868Y-10959482D01*
X24175868Y-10904482D02*
G75*
G03*
X24175868Y-10904482I-55000J0D01*
G01*
X24065868Y-11357482D02*
X24175868Y-11467482D01*
X24175868Y-11357482D02*
X24065868Y-11467482D01*
X24175868Y-11412482D02*
G75*
G03*
X24175868Y-11412482I-55000J0D01*
G01*
X24066355Y-14775033D02*
X24176355Y-14885033D01*
X24176355Y-14775033D02*
X24066355Y-14885033D01*
X24176355Y-14830033D02*
G75*
G03*
X24176355Y-14830033I-55000J0D01*
G01*
X24066355Y-15283033D02*
X24176355Y-15393033D01*
X24176355Y-15283033D02*
X24066355Y-15393033D01*
X24176355Y-15338033D02*
G75*
G03*
X24176355Y-15338033I-55000J0D01*
G01*
X24096348Y-16757522D02*
X24206348Y-16867522D01*
X24206348Y-16757522D02*
X24096348Y-16867522D01*
X24206348Y-16812522D02*
G75*
G03*
X24206348Y-16812522I-55000J0D01*
G01*
X24096348Y-17265522D02*
X24206348Y-17375522D01*
X24206348Y-17265522D02*
X24096348Y-17375522D01*
X24206348Y-17320522D02*
G75*
G03*
X24206348Y-17320522I-55000J0D01*
G01*
X25967842Y-8947232D02*
X26077842Y-9057232D01*
X26077842Y-8947232D02*
X25967842Y-9057232D01*
X26077842Y-9002232D02*
G75*
G03*
X26077842Y-9002232I-55000J0D01*
G01*
X25967842Y-9455232D02*
X26077842Y-9565232D01*
X26077842Y-9455232D02*
X25967842Y-9565232D01*
X26077842Y-9510232D02*
G75*
G03*
X26077842Y-9510232I-55000J0D01*
G01*
X25970868Y-12894182D02*
X26080868Y-13004182D01*
X26080868Y-12894182D02*
X25970868Y-13004182D01*
X26080868Y-12949182D02*
G75*
G03*
X26080868Y-12949182I-55000J0D01*
G01*
X25970868Y-13402182D02*
X26080868Y-13512182D01*
X26080868Y-13402182D02*
X25970868Y-13512182D01*
X26080868Y-13457182D02*
G75*
G03*
X26080868Y-13457182I-55000J0D01*
G01*
X25983568Y-14804262D02*
X26093568Y-14914262D01*
X26093568Y-14804262D02*
X25983568Y-14914262D01*
X26093568Y-14859262D02*
G75*
G03*
X26093568Y-14859262I-55000J0D01*
G01*
X25983568Y-15312262D02*
X26093568Y-15422262D01*
X26093568Y-15312262D02*
X25983568Y-15422262D01*
X26093568Y-15367262D02*
G75*
G03*
X26093568Y-15367262I-55000J0D01*
G01*
X25996268Y-10862182D02*
X26106268Y-10972182D01*
X26106268Y-10862182D02*
X25996268Y-10972182D01*
X26106268Y-10917182D02*
G75*
G03*
X26106268Y-10917182I-55000J0D01*
G01*
X25996268Y-11370182D02*
X26106268Y-11480182D01*
X26106268Y-11370182D02*
X25996268Y-11480182D01*
X26106268Y-11425182D02*
G75*
G03*
X26106268Y-11425182I-55000J0D01*
G01*
X26016588Y-16757522D02*
X26126588Y-16867522D01*
X26126588Y-16757522D02*
X26016588Y-16867522D01*
X26126588Y-16812522D02*
G75*
G03*
X26126588Y-16812522I-55000J0D01*
G01*
X26016588Y-17265522D02*
X26126588Y-17375522D01*
X26126588Y-17265522D02*
X26016588Y-17375522D01*
X26126588Y-17320522D02*
G75*
G03*
X26126588Y-17320522I-55000J0D01*
G01*
X27898242Y-8938150D02*
X28008242Y-9048150D01*
X28008242Y-8938150D02*
X27898242Y-9048150D01*
X28008242Y-8993150D02*
G75*
G03*
X28008242Y-8993150I-55000J0D01*
G01*
X27898242Y-9446150D02*
X28008242Y-9556150D01*
X28008242Y-9446150D02*
X27898242Y-9556150D01*
X28008242Y-9501150D02*
G75*
G03*
X28008242Y-9501150I-55000J0D01*
G01*
X27901268Y-12885100D02*
X28011268Y-12995100D01*
X28011268Y-12885100D02*
X27901268Y-12995100D01*
X28011268Y-12940100D02*
G75*
G03*
X28011268Y-12940100I-55000J0D01*
G01*
X27901268Y-13393100D02*
X28011268Y-13503100D01*
X28011268Y-13393100D02*
X27901268Y-13503100D01*
X28011268Y-13448100D02*
G75*
G03*
X28011268Y-13448100I-55000J0D01*
G01*
X27913968Y-14795180D02*
X28023968Y-14905180D01*
X28023968Y-14795180D02*
X27913968Y-14905180D01*
X28023968Y-14850180D02*
G75*
G03*
X28023968Y-14850180I-55000J0D01*
G01*
X27913968Y-15303180D02*
X28023968Y-15413180D01*
X28023968Y-15303180D02*
X27913968Y-15413180D01*
X28023968Y-15358180D02*
G75*
G03*
X28023968Y-15358180I-55000J0D01*
G01*
X27926668Y-10853100D02*
X28036668Y-10963100D01*
X28036668Y-10853100D02*
X27926668Y-10963100D01*
X28036668Y-10908100D02*
G75*
G03*
X28036668Y-10908100I-55000J0D01*
G01*
X27926668Y-11361100D02*
X28036668Y-11471100D01*
X28036668Y-11361100D02*
X27926668Y-11471100D01*
X28036668Y-11416100D02*
G75*
G03*
X28036668Y-11416100I-55000J0D01*
G01*
X27946988Y-16748440D02*
X28056988Y-16858440D01*
X28056988Y-16748440D02*
X27946988Y-16858440D01*
X28056988Y-16803440D02*
G75*
G03*
X28056988Y-16803440I-55000J0D01*
G01*
X27946988Y-17256440D02*
X28056988Y-17366440D01*
X28056988Y-17256440D02*
X27946988Y-17366440D01*
X28056988Y-17311440D02*
G75*
G03*
X28056988Y-17311440I-55000J0D01*
G01*
X30575888Y-17270602D02*
X30685888Y-17380602D01*
X30685888Y-17270602D02*
X30575888Y-17380602D01*
X30685888Y-17325602D02*
G75*
G03*
X30685888Y-17325602I-55000J0D01*
G01*
X30575888Y-17778602D02*
X30685888Y-17888602D01*
X30685888Y-17778602D02*
X30575888Y-17888602D01*
X30685888Y-17833602D02*
G75*
G03*
X30685888Y-17833602I-55000J0D01*
G01*
X32498668Y-17270602D02*
X32608668Y-17380602D01*
X32608668Y-17270602D02*
X32498668Y-17380602D01*
X32608668Y-17325602D02*
G75*
G03*
X32608668Y-17325602I-55000J0D01*
G01*
X32498668Y-17778602D02*
X32608668Y-17888602D01*
X32608668Y-17778602D02*
X32498668Y-17888602D01*
X32608668Y-17833602D02*
G75*
G03*
X32608668Y-17833602I-55000J0D01*
G01*
X34429068Y-17261520D02*
X34539068Y-17371520D01*
X34539068Y-17261520D02*
X34429068Y-17371520D01*
X34539068Y-17316520D02*
G75*
G03*
X34539068Y-17316520I-55000J0D01*
G01*
X34429068Y-17769520D02*
X34539068Y-17879520D01*
X34539068Y-17769520D02*
X34429068Y-17879520D01*
X34539068Y-17824520D02*
G75*
G03*
X34539068Y-17824520I-55000J0D01*
G01*
X36359468Y-17261520D02*
X36469468Y-17371520D01*
X36469468Y-17261520D02*
X36359468Y-17371520D01*
X36469468Y-17316520D02*
G75*
G03*
X36469468Y-17316520I-55000J0D01*
G01*
X36359468Y-17769520D02*
X36469468Y-17879520D01*
X36469468Y-17769520D02*
X36359468Y-17879520D01*
X36469468Y-17824520D02*
G75*
G03*
X36469468Y-17824520I-55000J0D01*
G01*
D18*
X7302188Y-16683103D02*
X7452188Y-16833103D01*
X7452188Y-16683103D02*
X7302188Y-16833103D01*
X7377188Y-16683103D02*
X7377188Y-16833103D01*
X7302188Y-16758103D02*
X7452188Y-16758103D01*
X7304242Y-8965332D02*
X7454242Y-9115332D01*
X7454242Y-8965332D02*
X7304242Y-9115332D01*
X7379242Y-8965332D02*
X7379242Y-9115332D01*
X7304242Y-9040332D02*
X7454242Y-9040332D01*
X7307268Y-10902063D02*
X7457268Y-11052063D01*
X7457268Y-10902063D02*
X7307268Y-11052063D01*
X7382268Y-10902063D02*
X7382268Y-11052063D01*
X7307268Y-10977063D02*
X7457268Y-10977063D01*
X7307268Y-12832463D02*
X7457268Y-12982463D01*
X7457268Y-12832463D02*
X7307268Y-12982463D01*
X7382268Y-12832463D02*
X7382268Y-12982463D01*
X7307268Y-12907463D02*
X7457268Y-12907463D01*
X7307268Y-14742543D02*
X7457268Y-14892543D01*
X7457268Y-14742543D02*
X7307268Y-14892543D01*
X7382268Y-14742543D02*
X7382268Y-14892543D01*
X7307268Y-14817543D02*
X7457268Y-14817543D01*
X7937188Y-16429103D02*
X8087188Y-16579103D01*
X8087188Y-16429103D02*
X7937188Y-16579103D01*
X8012188Y-16429103D02*
X8012188Y-16579103D01*
X7937188Y-16504103D02*
X8087188Y-16504103D01*
X7939242Y-8711332D02*
X8089242Y-8861332D01*
X8089242Y-8711332D02*
X7939242Y-8861332D01*
X8014242Y-8711332D02*
X8014242Y-8861332D01*
X7939242Y-8786332D02*
X8089242Y-8786332D01*
X7942268Y-10648063D02*
X8092268Y-10798063D01*
X8092268Y-10648063D02*
X7942268Y-10798063D01*
X8017268Y-10648063D02*
X8017268Y-10798063D01*
X7942268Y-10723063D02*
X8092268Y-10723063D01*
X7942268Y-12578463D02*
X8092268Y-12728463D01*
X8092268Y-12578463D02*
X7942268Y-12728463D01*
X8017268Y-12578463D02*
X8017268Y-12728463D01*
X7942268Y-12653463D02*
X8092268Y-12653463D01*
X7942268Y-14488543D02*
X8092268Y-14638543D01*
X8092268Y-14488543D02*
X7942268Y-14638543D01*
X8017268Y-14488543D02*
X8017268Y-14638543D01*
X7942268Y-14563543D02*
X8092268Y-14563543D01*
X9232588Y-16683103D02*
X9382588Y-16833103D01*
X9382588Y-16683103D02*
X9232588Y-16833103D01*
X9307588Y-16683103D02*
X9307588Y-16833103D01*
X9232588Y-16758103D02*
X9382588Y-16758103D01*
X9234642Y-8965332D02*
X9384642Y-9115332D01*
X9384642Y-8965332D02*
X9234642Y-9115332D01*
X9309642Y-8965332D02*
X9309642Y-9115332D01*
X9234642Y-9040332D02*
X9384642Y-9040332D01*
X9237668Y-10902063D02*
X9387668Y-11052063D01*
X9387668Y-10902063D02*
X9237668Y-11052063D01*
X9312668Y-10902063D02*
X9312668Y-11052063D01*
X9237668Y-10977063D02*
X9387668Y-10977063D01*
X9237668Y-12832463D02*
X9387668Y-12982463D01*
X9387668Y-12832463D02*
X9237668Y-12982463D01*
X9312668Y-12832463D02*
X9312668Y-12982463D01*
X9237668Y-12907463D02*
X9387668Y-12907463D01*
X9237668Y-14742543D02*
X9387668Y-14892543D01*
X9387668Y-14742543D02*
X9237668Y-14892543D01*
X9312668Y-14742543D02*
X9312668Y-14892543D01*
X9237668Y-14817543D02*
X9387668Y-14817543D01*
X9867588Y-16429103D02*
X10017588Y-16579103D01*
X10017588Y-16429103D02*
X9867588Y-16579103D01*
X9942588Y-16429103D02*
X9942588Y-16579103D01*
X9867588Y-16504103D02*
X10017588Y-16504103D01*
X9869642Y-8711332D02*
X10019642Y-8861332D01*
X10019642Y-8711332D02*
X9869642Y-8861332D01*
X9944642Y-8711332D02*
X9944642Y-8861332D01*
X9869642Y-8786332D02*
X10019642Y-8786332D01*
X9872668Y-10648063D02*
X10022668Y-10798063D01*
X10022668Y-10648063D02*
X9872668Y-10798063D01*
X9947668Y-10648063D02*
X9947668Y-10798063D01*
X9872668Y-10723063D02*
X10022668Y-10723063D01*
X9872668Y-12578463D02*
X10022668Y-12728463D01*
X10022668Y-12578463D02*
X9872668Y-12728463D01*
X9947668Y-12578463D02*
X9947668Y-12728463D01*
X9872668Y-12653463D02*
X10022668Y-12653463D01*
X9872668Y-14488543D02*
X10022668Y-14638543D01*
X10022668Y-14488543D02*
X9872668Y-14638543D01*
X9947668Y-14488543D02*
X9947668Y-14638543D01*
X9872668Y-14563543D02*
X10022668Y-14563543D01*
X11162988Y-16683103D02*
X11312988Y-16833103D01*
X11312988Y-16683103D02*
X11162988Y-16833103D01*
X11237988Y-16683103D02*
X11237988Y-16833103D01*
X11162988Y-16758103D02*
X11312988Y-16758103D01*
X11165042Y-8965332D02*
X11315042Y-9115332D01*
X11315042Y-8965332D02*
X11165042Y-9115332D01*
X11240042Y-8965332D02*
X11240042Y-9115332D01*
X11165042Y-9040332D02*
X11315042Y-9040332D01*
X11168068Y-10902063D02*
X11318068Y-11052063D01*
X11318068Y-10902063D02*
X11168068Y-11052063D01*
X11243068Y-10902063D02*
X11243068Y-11052063D01*
X11168068Y-10977063D02*
X11318068Y-10977063D01*
X11168068Y-12832463D02*
X11318068Y-12982463D01*
X11318068Y-12832463D02*
X11168068Y-12982463D01*
X11243068Y-12832463D02*
X11243068Y-12982463D01*
X11168068Y-12907463D02*
X11318068Y-12907463D01*
X11168068Y-14742543D02*
X11318068Y-14892543D01*
X11318068Y-14742543D02*
X11168068Y-14892543D01*
X11243068Y-14742543D02*
X11243068Y-14892543D01*
X11168068Y-14817543D02*
X11318068Y-14817543D01*
X11797988Y-16429103D02*
X11947988Y-16579103D01*
X11947988Y-16429103D02*
X11797988Y-16579103D01*
X11872988Y-16429103D02*
X11872988Y-16579103D01*
X11797988Y-16504103D02*
X11947988Y-16504103D01*
X11800042Y-8711332D02*
X11950042Y-8861332D01*
X11950042Y-8711332D02*
X11800042Y-8861332D01*
X11875042Y-8711332D02*
X11875042Y-8861332D01*
X11800042Y-8786332D02*
X11950042Y-8786332D01*
X11803068Y-10648063D02*
X11953068Y-10798063D01*
X11953068Y-10648063D02*
X11803068Y-10798063D01*
X11878068Y-10648063D02*
X11878068Y-10798063D01*
X11803068Y-10723063D02*
X11953068Y-10723063D01*
X11803068Y-12578463D02*
X11953068Y-12728463D01*
X11953068Y-12578463D02*
X11803068Y-12728463D01*
X11878068Y-12578463D02*
X11878068Y-12728463D01*
X11803068Y-12653463D02*
X11953068Y-12653463D01*
X11803068Y-14488543D02*
X11953068Y-14638543D01*
X11953068Y-14488543D02*
X11803068Y-14638543D01*
X11878068Y-14488543D02*
X11878068Y-14638543D01*
X11803068Y-14563543D02*
X11953068Y-14563543D01*
X13108142Y-8965332D02*
X13258142Y-9115332D01*
X13258142Y-8965332D02*
X13108142Y-9115332D01*
X13183142Y-8965332D02*
X13183142Y-9115332D01*
X13108142Y-9040332D02*
X13258142Y-9040332D01*
X13111168Y-10902063D02*
X13261168Y-11052063D01*
X13261168Y-10902063D02*
X13111168Y-11052063D01*
X13186168Y-10902063D02*
X13186168Y-11052063D01*
X13111168Y-10977063D02*
X13261168Y-10977063D01*
X13111168Y-12832463D02*
X13261168Y-12982463D01*
X13261168Y-12832463D02*
X13111168Y-12982463D01*
X13186168Y-12832463D02*
X13186168Y-12982463D01*
X13111168Y-12907463D02*
X13261168Y-12907463D01*
X13111168Y-14742543D02*
X13261168Y-14892543D01*
X13261168Y-14742543D02*
X13111168Y-14892543D01*
X13186168Y-14742543D02*
X13186168Y-14892543D01*
X13111168Y-14817543D02*
X13261168Y-14817543D01*
X13743142Y-8711332D02*
X13893142Y-8861332D01*
X13893142Y-8711332D02*
X13743142Y-8861332D01*
X13818142Y-8711332D02*
X13818142Y-8861332D01*
X13743142Y-8786332D02*
X13893142Y-8786332D01*
X13746168Y-10648063D02*
X13896168Y-10798063D01*
X13896168Y-10648063D02*
X13746168Y-10798063D01*
X13821168Y-10648063D02*
X13821168Y-10798063D01*
X13746168Y-10723063D02*
X13896168Y-10723063D01*
X13746168Y-12578463D02*
X13896168Y-12728463D01*
X13896168Y-12578463D02*
X13746168Y-12728463D01*
X13821168Y-12578463D02*
X13821168Y-12728463D01*
X13746168Y-12653463D02*
X13896168Y-12653463D01*
X13746168Y-14488543D02*
X13896168Y-14638543D01*
X13896168Y-14488543D02*
X13746168Y-14638543D01*
X13821168Y-14488543D02*
X13821168Y-14638543D01*
X13746168Y-14563543D02*
X13896168Y-14563543D01*
X15038542Y-8965332D02*
X15188542Y-9115332D01*
X15188542Y-8965332D02*
X15038542Y-9115332D01*
X15113542Y-8965332D02*
X15113542Y-9115332D01*
X15038542Y-9040332D02*
X15188542Y-9040332D01*
X15041568Y-10902063D02*
X15191568Y-11052063D01*
X15191568Y-10902063D02*
X15041568Y-11052063D01*
X15116568Y-10902063D02*
X15116568Y-11052063D01*
X15041568Y-10977063D02*
X15191568Y-10977063D01*
X15041568Y-12832463D02*
X15191568Y-12982463D01*
X15191568Y-12832463D02*
X15041568Y-12982463D01*
X15116568Y-12832463D02*
X15116568Y-12982463D01*
X15041568Y-12907463D02*
X15191568Y-12907463D01*
X15041568Y-14742543D02*
X15191568Y-14892543D01*
X15191568Y-14742543D02*
X15041568Y-14892543D01*
X15116568Y-14742543D02*
X15116568Y-14892543D01*
X15041568Y-14817543D02*
X15191568Y-14817543D01*
X15673542Y-8711332D02*
X15823542Y-8861332D01*
X15823542Y-8711332D02*
X15673542Y-8861332D01*
X15748542Y-8711332D02*
X15748542Y-8861332D01*
X15673542Y-8786332D02*
X15823542Y-8786332D01*
X15676568Y-10648063D02*
X15826568Y-10798063D01*
X15826568Y-10648063D02*
X15676568Y-10798063D01*
X15751568Y-10648063D02*
X15751568Y-10798063D01*
X15676568Y-10723063D02*
X15826568Y-10723063D01*
X15676568Y-12578463D02*
X15826568Y-12728463D01*
X15826568Y-12578463D02*
X15676568Y-12728463D01*
X15751568Y-12578463D02*
X15751568Y-12728463D01*
X15676568Y-12653463D02*
X15826568Y-12653463D01*
X15676568Y-14488543D02*
X15826568Y-14638543D01*
X15826568Y-14488543D02*
X15676568Y-14638543D01*
X15751568Y-14488543D02*
X15751568Y-14638543D01*
X15676568Y-14563543D02*
X15826568Y-14563543D01*
X16968942Y-8965332D02*
X17118942Y-9115332D01*
X17118942Y-8965332D02*
X16968942Y-9115332D01*
X17043942Y-8965332D02*
X17043942Y-9115332D01*
X16968942Y-9040332D02*
X17118942Y-9040332D01*
X16971968Y-10902063D02*
X17121968Y-11052063D01*
X17121968Y-10902063D02*
X16971968Y-11052063D01*
X17046968Y-10902063D02*
X17046968Y-11052063D01*
X16971968Y-10977063D02*
X17121968Y-10977063D01*
X16971968Y-12832463D02*
X17121968Y-12982463D01*
X17121968Y-12832463D02*
X16971968Y-12982463D01*
X17046968Y-12832463D02*
X17046968Y-12982463D01*
X16971968Y-12907463D02*
X17121968Y-12907463D01*
X16982128Y-16683103D02*
X17132128Y-16833103D01*
X17132128Y-16683103D02*
X16982128Y-16833103D01*
X17057128Y-16683103D02*
X17057128Y-16833103D01*
X16982128Y-16758103D02*
X17132128Y-16758103D01*
X16985155Y-14738715D02*
X17135155Y-14888715D01*
X17135155Y-14738715D02*
X16985155Y-14888715D01*
X17060155Y-14738715D02*
X17060155Y-14888715D01*
X16985155Y-14813715D02*
X17135155Y-14813715D01*
X17603942Y-8711332D02*
X17753942Y-8861332D01*
X17753942Y-8711332D02*
X17603942Y-8861332D01*
X17678942Y-8711332D02*
X17678942Y-8861332D01*
X17603942Y-8786332D02*
X17753942Y-8786332D01*
X17606968Y-10648063D02*
X17756968Y-10798063D01*
X17756968Y-10648063D02*
X17606968Y-10798063D01*
X17681968Y-10648063D02*
X17681968Y-10798063D01*
X17606968Y-10723063D02*
X17756968Y-10723063D01*
X17606968Y-12578463D02*
X17756968Y-12728463D01*
X17756968Y-12578463D02*
X17606968Y-12728463D01*
X17681968Y-12578463D02*
X17681968Y-12728463D01*
X17606968Y-12653463D02*
X17756968Y-12653463D01*
X17617128Y-16429103D02*
X17767128Y-16579103D01*
X17767128Y-16429103D02*
X17617128Y-16579103D01*
X17692128Y-16429103D02*
X17692128Y-16579103D01*
X17617128Y-16504103D02*
X17767128Y-16504103D01*
X17620155Y-14484715D02*
X17770155Y-14634715D01*
X17770155Y-14484715D02*
X17620155Y-14634715D01*
X17695155Y-14484715D02*
X17695155Y-14634715D01*
X17620155Y-14559715D02*
X17770155Y-14559715D01*
X18912042Y-8965332D02*
X19062042Y-9115332D01*
X19062042Y-8965332D02*
X18912042Y-9115332D01*
X18987042Y-8965332D02*
X18987042Y-9115332D01*
X18912042Y-9040332D02*
X19062042Y-9040332D01*
X18915068Y-10902063D02*
X19065068Y-11052063D01*
X19065068Y-10902063D02*
X18915068Y-11052063D01*
X18990068Y-10902063D02*
X18990068Y-11052063D01*
X18915068Y-10977063D02*
X19065068Y-10977063D01*
X18915068Y-12832463D02*
X19065068Y-12982463D01*
X19065068Y-12832463D02*
X18915068Y-12982463D01*
X18990068Y-12832463D02*
X18990068Y-12982463D01*
X18915068Y-12907463D02*
X19065068Y-12907463D01*
X18915555Y-14738715D02*
X19065555Y-14888715D01*
X19065555Y-14738715D02*
X18915555Y-14888715D01*
X18990555Y-14738715D02*
X18990555Y-14888715D01*
X18915555Y-14813715D02*
X19065555Y-14813715D01*
X19547042Y-8711332D02*
X19697042Y-8861332D01*
X19697042Y-8711332D02*
X19547042Y-8861332D01*
X19622042Y-8711332D02*
X19622042Y-8861332D01*
X19547042Y-8786332D02*
X19697042Y-8786332D01*
X19550068Y-10648063D02*
X19700068Y-10798063D01*
X19700068Y-10648063D02*
X19550068Y-10798063D01*
X19625068Y-10648063D02*
X19625068Y-10798063D01*
X19550068Y-10723063D02*
X19700068Y-10723063D01*
X19550068Y-12578463D02*
X19700068Y-12728463D01*
X19700068Y-12578463D02*
X19550068Y-12728463D01*
X19625068Y-12578463D02*
X19625068Y-12728463D01*
X19550068Y-12653463D02*
X19700068Y-12653463D01*
X19550555Y-14484715D02*
X19700555Y-14634715D01*
X19700555Y-14484715D02*
X19550555Y-14634715D01*
X19625555Y-14484715D02*
X19625555Y-14634715D01*
X19550555Y-14559715D02*
X19700555Y-14559715D01*
X20842442Y-8965332D02*
X20992442Y-9115332D01*
X20992442Y-8965332D02*
X20842442Y-9115332D01*
X20917442Y-8965332D02*
X20917442Y-9115332D01*
X20842442Y-9040332D02*
X20992442Y-9040332D01*
X20845468Y-10902063D02*
X20995468Y-11052063D01*
X20995468Y-10902063D02*
X20845468Y-11052063D01*
X20920468Y-10902063D02*
X20920468Y-11052063D01*
X20845468Y-10977063D02*
X20995468Y-10977063D01*
X20845468Y-12832463D02*
X20995468Y-12982463D01*
X20995468Y-12832463D02*
X20845468Y-12982463D01*
X20920468Y-12832463D02*
X20920468Y-12982463D01*
X20845468Y-12907463D02*
X20995468Y-12907463D01*
X20845955Y-14738715D02*
X20995955Y-14888715D01*
X20995955Y-14738715D02*
X20845955Y-14888715D01*
X20920955Y-14738715D02*
X20920955Y-14888715D01*
X20845955Y-14813715D02*
X20995955Y-14813715D01*
X21477442Y-8711332D02*
X21627442Y-8861332D01*
X21627442Y-8711332D02*
X21477442Y-8861332D01*
X21552442Y-8711332D02*
X21552442Y-8861332D01*
X21477442Y-8786332D02*
X21627442Y-8786332D01*
X21480468Y-10648063D02*
X21630468Y-10798063D01*
X21630468Y-10648063D02*
X21480468Y-10798063D01*
X21555468Y-10648063D02*
X21555468Y-10798063D01*
X21480468Y-10723063D02*
X21630468Y-10723063D01*
X21480468Y-12578463D02*
X21630468Y-12728463D01*
X21630468Y-12578463D02*
X21480468Y-12728463D01*
X21555468Y-12578463D02*
X21555468Y-12728463D01*
X21480468Y-12653463D02*
X21630468Y-12653463D01*
X21480955Y-14484715D02*
X21630955Y-14634715D01*
X21630955Y-14484715D02*
X21480955Y-14634715D01*
X21555955Y-14484715D02*
X21555955Y-14634715D01*
X21480955Y-14559715D02*
X21630955Y-14559715D01*
X22772842Y-8965332D02*
X22922842Y-9115332D01*
X22922842Y-8965332D02*
X22772842Y-9115332D01*
X22847842Y-8965332D02*
X22847842Y-9115332D01*
X22772842Y-9040332D02*
X22922842Y-9040332D01*
X22775868Y-10902063D02*
X22925868Y-11052063D01*
X22925868Y-10902063D02*
X22775868Y-11052063D01*
X22850868Y-10902063D02*
X22850868Y-11052063D01*
X22775868Y-10977063D02*
X22925868Y-10977063D01*
X22775868Y-12832463D02*
X22925868Y-12982463D01*
X22925868Y-12832463D02*
X22775868Y-12982463D01*
X22850868Y-12832463D02*
X22850868Y-12982463D01*
X22775868Y-12907463D02*
X22925868Y-12907463D01*
X22789055Y-14738715D02*
X22939055Y-14888715D01*
X22939055Y-14738715D02*
X22789055Y-14888715D01*
X22864055Y-14738715D02*
X22864055Y-14888715D01*
X22789055Y-14813715D02*
X22939055Y-14813715D01*
X22793648Y-16683103D02*
X22943648Y-16833103D01*
X22943648Y-16683103D02*
X22793648Y-16833103D01*
X22868648Y-16683103D02*
X22868648Y-16833103D01*
X22793648Y-16758103D02*
X22943648Y-16758103D01*
X23407842Y-8711332D02*
X23557842Y-8861332D01*
X23557842Y-8711332D02*
X23407842Y-8861332D01*
X23482842Y-8711332D02*
X23482842Y-8861332D01*
X23407842Y-8786332D02*
X23557842Y-8786332D01*
X23410868Y-10648063D02*
X23560868Y-10798063D01*
X23560868Y-10648063D02*
X23410868Y-10798063D01*
X23485868Y-10648063D02*
X23485868Y-10798063D01*
X23410868Y-10723063D02*
X23560868Y-10723063D01*
X23410868Y-12578463D02*
X23560868Y-12728463D01*
X23560868Y-12578463D02*
X23410868Y-12728463D01*
X23485868Y-12578463D02*
X23485868Y-12728463D01*
X23410868Y-12653463D02*
X23560868Y-12653463D01*
X23424055Y-14484715D02*
X23574055Y-14634715D01*
X23574055Y-14484715D02*
X23424055Y-14634715D01*
X23499055Y-14484715D02*
X23499055Y-14634715D01*
X23424055Y-14559715D02*
X23574055Y-14559715D01*
X23428648Y-16429103D02*
X23578648Y-16579103D01*
X23578648Y-16429103D02*
X23428648Y-16579103D01*
X23503648Y-16429103D02*
X23503648Y-16579103D01*
X23428648Y-16504103D02*
X23578648Y-16504103D01*
X24713888Y-16683103D02*
X24863888Y-16833103D01*
X24863888Y-16683103D02*
X24713888Y-16833103D01*
X24788888Y-16683103D02*
X24788888Y-16833103D01*
X24713888Y-16758103D02*
X24863888Y-16758103D01*
X24715942Y-8965332D02*
X24865942Y-9115332D01*
X24865942Y-8965332D02*
X24715942Y-9115332D01*
X24790942Y-8965332D02*
X24790942Y-9115332D01*
X24715942Y-9040332D02*
X24865942Y-9040332D01*
X24718968Y-10902063D02*
X24868968Y-11052063D01*
X24868968Y-10902063D02*
X24718968Y-11052063D01*
X24793968Y-10902063D02*
X24793968Y-11052063D01*
X24718968Y-10977063D02*
X24868968Y-10977063D01*
X24718968Y-12832463D02*
X24868968Y-12982463D01*
X24868968Y-12832463D02*
X24718968Y-12982463D01*
X24793968Y-12832463D02*
X24793968Y-12982463D01*
X24718968Y-12907463D02*
X24868968Y-12907463D01*
X24718968Y-14742543D02*
X24868968Y-14892543D01*
X24868968Y-14742543D02*
X24718968Y-14892543D01*
X24793968Y-14742543D02*
X24793968Y-14892543D01*
X24718968Y-14817543D02*
X24868968Y-14817543D01*
X25348888Y-16429103D02*
X25498888Y-16579103D01*
X25498888Y-16429103D02*
X25348888Y-16579103D01*
X25423888Y-16429103D02*
X25423888Y-16579103D01*
X25348888Y-16504103D02*
X25498888Y-16504103D01*
X25350942Y-8711332D02*
X25500942Y-8861332D01*
X25500942Y-8711332D02*
X25350942Y-8861332D01*
X25425942Y-8711332D02*
X25425942Y-8861332D01*
X25350942Y-8786332D02*
X25500942Y-8786332D01*
X25353968Y-10648063D02*
X25503968Y-10798063D01*
X25503968Y-10648063D02*
X25353968Y-10798063D01*
X25428968Y-10648063D02*
X25428968Y-10798063D01*
X25353968Y-10723063D02*
X25503968Y-10723063D01*
X25353968Y-12578463D02*
X25503968Y-12728463D01*
X25503968Y-12578463D02*
X25353968Y-12728463D01*
X25428968Y-12578463D02*
X25428968Y-12728463D01*
X25353968Y-12653463D02*
X25503968Y-12653463D01*
X25353968Y-14488543D02*
X25503968Y-14638543D01*
X25503968Y-14488543D02*
X25353968Y-14638543D01*
X25428968Y-14488543D02*
X25428968Y-14638543D01*
X25353968Y-14563543D02*
X25503968Y-14563543D01*
X26644288Y-16683103D02*
X26794288Y-16833103D01*
X26794288Y-16683103D02*
X26644288Y-16833103D01*
X26719288Y-16683103D02*
X26719288Y-16833103D01*
X26644288Y-16758103D02*
X26794288Y-16758103D01*
X26646342Y-8965332D02*
X26796342Y-9115332D01*
X26796342Y-8965332D02*
X26646342Y-9115332D01*
X26721342Y-8965332D02*
X26721342Y-9115332D01*
X26646342Y-9040332D02*
X26796342Y-9040332D01*
X26649368Y-10902063D02*
X26799368Y-11052063D01*
X26799368Y-10902063D02*
X26649368Y-11052063D01*
X26724368Y-10902063D02*
X26724368Y-11052063D01*
X26649368Y-10977063D02*
X26799368Y-10977063D01*
X26649368Y-12832463D02*
X26799368Y-12982463D01*
X26799368Y-12832463D02*
X26649368Y-12982463D01*
X26724368Y-12832463D02*
X26724368Y-12982463D01*
X26649368Y-12907463D02*
X26799368Y-12907463D01*
X26649368Y-14742543D02*
X26799368Y-14892543D01*
X26799368Y-14742543D02*
X26649368Y-14892543D01*
X26724368Y-14742543D02*
X26724368Y-14892543D01*
X26649368Y-14817543D02*
X26799368Y-14817543D01*
X27279288Y-16429103D02*
X27429288Y-16579103D01*
X27429288Y-16429103D02*
X27279288Y-16579103D01*
X27354288Y-16429103D02*
X27354288Y-16579103D01*
X27279288Y-16504103D02*
X27429288Y-16504103D01*
X27281342Y-8711332D02*
X27431342Y-8861332D01*
X27431342Y-8711332D02*
X27281342Y-8861332D01*
X27356342Y-8711332D02*
X27356342Y-8861332D01*
X27281342Y-8786332D02*
X27431342Y-8786332D01*
X27284368Y-10648063D02*
X27434368Y-10798063D01*
X27434368Y-10648063D02*
X27284368Y-10798063D01*
X27359368Y-10648063D02*
X27359368Y-10798063D01*
X27284368Y-10723063D02*
X27434368Y-10723063D01*
X27284368Y-12578463D02*
X27434368Y-12728463D01*
X27434368Y-12578463D02*
X27284368Y-12728463D01*
X27359368Y-12578463D02*
X27359368Y-12728463D01*
X27284368Y-12653463D02*
X27434368Y-12653463D01*
X27284368Y-14488543D02*
X27434368Y-14638543D01*
X27434368Y-14488543D02*
X27284368Y-14638543D01*
X27359368Y-14488543D02*
X27359368Y-14638543D01*
X27284368Y-14563543D02*
X27434368Y-14563543D01*
X29273188Y-17196183D02*
X29423188Y-17346183D01*
X29423188Y-17196183D02*
X29273188Y-17346183D01*
X29348188Y-17196183D02*
X29348188Y-17346183D01*
X29273188Y-17271183D02*
X29423188Y-17271183D01*
X29908188Y-16942183D02*
X30058188Y-17092183D01*
X30058188Y-16942183D02*
X29908188Y-17092183D01*
X29983188Y-16942183D02*
X29983188Y-17092183D01*
X29908188Y-17017183D02*
X30058188Y-17017183D01*
X31195968Y-17196184D02*
X31345968Y-17346184D01*
X31345968Y-17196184D02*
X31195968Y-17346184D01*
X31270968Y-17196184D02*
X31270968Y-17346184D01*
X31195968Y-17271184D02*
X31345968Y-17271184D01*
X31830968Y-16942184D02*
X31980968Y-17092184D01*
X31980968Y-16942184D02*
X31830968Y-17092184D01*
X31905968Y-16942184D02*
X31905968Y-17092184D01*
X31830968Y-17017184D02*
X31980968Y-17017184D01*
X33126368Y-17196184D02*
X33276368Y-17346184D01*
X33276368Y-17196184D02*
X33126368Y-17346184D01*
X33201368Y-17196184D02*
X33201368Y-17346184D01*
X33126368Y-17271184D02*
X33276368Y-17271184D01*
X33761368Y-16942184D02*
X33911368Y-17092184D01*
X33911368Y-16942184D02*
X33761368Y-17092184D01*
X33836368Y-16942184D02*
X33836368Y-17092184D01*
X33761368Y-17017184D02*
X33911368Y-17017184D01*
X35056768Y-17196184D02*
X35206768Y-17346184D01*
X35206768Y-17196184D02*
X35056768Y-17346184D01*
X35131768Y-17196184D02*
X35131768Y-17346184D01*
X35056768Y-17271184D02*
X35206768Y-17271184D01*
X35691768Y-16942184D02*
X35841768Y-17092184D01*
X35841768Y-16942184D02*
X35691768Y-17092184D01*
X35766768Y-16942184D02*
X35766768Y-17092184D01*
X35691768Y-17017184D02*
X35841768Y-17017184D01*
D11*
X6352187Y-19133520D02*
X6352187Y-18933520D01*
X6399806Y-18933520D01*
X6428378Y-18943043D01*
X6447425Y-18962091D01*
X6456949Y-18981139D01*
X6466473Y-19019234D01*
X6466473Y-19047805D01*
X6456949Y-19085901D01*
X6447425Y-19104948D01*
X6428378Y-19123996D01*
X6399806Y-19133520D01*
X6352187Y-19133520D01*
X6552187Y-19133520D02*
X6552187Y-19000186D01*
X6552187Y-19038281D02*
X6561711Y-19019234D01*
X6571235Y-19009710D01*
X6590282Y-19000186D01*
X6609330Y-19000186D01*
X6675997Y-19133520D02*
X6675997Y-19000186D01*
X6675997Y-18933520D02*
X6666473Y-18943043D01*
X6675997Y-18952567D01*
X6685521Y-18943043D01*
X6675997Y-18933520D01*
X6675997Y-18952567D01*
X6799806Y-19133520D02*
X6780759Y-19123996D01*
X6771235Y-19104948D01*
X6771235Y-18933520D01*
X6904568Y-19133520D02*
X6885521Y-19123996D01*
X6875997Y-19104948D01*
X6875997Y-18933520D01*
X7133140Y-19133520D02*
X7133140Y-18933520D01*
X7199806Y-19076377D01*
X7266473Y-18933520D01*
X7266473Y-19133520D01*
X7447425Y-19133520D02*
X7447425Y-19028758D01*
X7437902Y-19009710D01*
X7418854Y-19000186D01*
X7380759Y-19000186D01*
X7361711Y-19009710D01*
X7447425Y-19123996D02*
X7428378Y-19133520D01*
X7380759Y-19133520D01*
X7361711Y-19123996D01*
X7352187Y-19104948D01*
X7352187Y-19085901D01*
X7361711Y-19066853D01*
X7380759Y-19057329D01*
X7428378Y-19057329D01*
X7447425Y-19047805D01*
X7542663Y-19000186D02*
X7542663Y-19200186D01*
X7542663Y-19009710D02*
X7561711Y-19000186D01*
X7599806Y-19000186D01*
X7618854Y-19009710D01*
X7628378Y-19019234D01*
X7637902Y-19038281D01*
X7637902Y-19095424D01*
X7628378Y-19114472D01*
X7618854Y-19123996D01*
X7599806Y-19133520D01*
X7561711Y-19133520D01*
X7542663Y-19123996D01*
X7723616Y-19114472D02*
X7733140Y-19123996D01*
X7723616Y-19133520D01*
X7714092Y-19123996D01*
X7723616Y-19114472D01*
X7723616Y-19133520D01*
X7723616Y-19009710D02*
X7733140Y-19019234D01*
X7723616Y-19028758D01*
X7714092Y-19019234D01*
X7723616Y-19009710D01*
X7723616Y-19028758D01*
D12*
X6064568Y-19448043D02*
X6094568Y-19478043D01*
X6094568Y-19448043D02*
X6064568Y-19478043D01*
D11*
X6390282Y-19353520D02*
X6409330Y-19353520D01*
X6428378Y-19363043D01*
X6437902Y-19372567D01*
X6447425Y-19391615D01*
X6456949Y-19429710D01*
X6456949Y-19477329D01*
X6447425Y-19515424D01*
X6437902Y-19534472D01*
X6428378Y-19543996D01*
X6409330Y-19553520D01*
X6390282Y-19553520D01*
X6371235Y-19543996D01*
X6361711Y-19534472D01*
X6352187Y-19515424D01*
X6342663Y-19477329D01*
X6342663Y-19429710D01*
X6352187Y-19391615D01*
X6361711Y-19372567D01*
X6371235Y-19363043D01*
X6390282Y-19353520D01*
X6542663Y-19534472D02*
X6552187Y-19543996D01*
X6542663Y-19553520D01*
X6533140Y-19543996D01*
X6542663Y-19534472D01*
X6542663Y-19553520D01*
X6618854Y-19353520D02*
X6742663Y-19353520D01*
X6675997Y-19429710D01*
X6704568Y-19429710D01*
X6723616Y-19439234D01*
X6733140Y-19448758D01*
X6742663Y-19467805D01*
X6742663Y-19515424D01*
X6733140Y-19534472D01*
X6723616Y-19543996D01*
X6704568Y-19553520D01*
X6647425Y-19553520D01*
X6628378Y-19543996D01*
X6618854Y-19534472D01*
X6866473Y-19353520D02*
X6885521Y-19353520D01*
X6904568Y-19363043D01*
X6914092Y-19372567D01*
X6923616Y-19391615D01*
X6933140Y-19429710D01*
X6933140Y-19477329D01*
X6923616Y-19515424D01*
X6914092Y-19534472D01*
X6904568Y-19543996D01*
X6885521Y-19553520D01*
X6866473Y-19553520D01*
X6847425Y-19543996D01*
X6837902Y-19534472D01*
X6828378Y-19515424D01*
X6818854Y-19477329D01*
X6818854Y-19429710D01*
X6828378Y-19391615D01*
X6837902Y-19372567D01*
X6847425Y-19363043D01*
X6866473Y-19353520D01*
X7056949Y-19353520D02*
X7075997Y-19353520D01*
X7095044Y-19363043D01*
X7104568Y-19372567D01*
X7114092Y-19391615D01*
X7123616Y-19429710D01*
X7123616Y-19477329D01*
X7114092Y-19515424D01*
X7104568Y-19534472D01*
X7095044Y-19543996D01*
X7075997Y-19553520D01*
X7056949Y-19553520D01*
X7037902Y-19543996D01*
X7028378Y-19534472D01*
X7018854Y-19515424D01*
X7009330Y-19477329D01*
X7009330Y-19429710D01*
X7018854Y-19391615D01*
X7028378Y-19372567D01*
X7037902Y-19363043D01*
X7056949Y-19353520D01*
X7209330Y-19553520D02*
X7209330Y-19420186D01*
X7209330Y-19439234D02*
X7218854Y-19429710D01*
X7237902Y-19420186D01*
X7266473Y-19420186D01*
X7285521Y-19429710D01*
X7295044Y-19448758D01*
X7295044Y-19553520D01*
X7295044Y-19448758D02*
X7304568Y-19429710D01*
X7323616Y-19420186D01*
X7352187Y-19420186D01*
X7371235Y-19429710D01*
X7380759Y-19448758D01*
X7380759Y-19553520D01*
X7475997Y-19553520D02*
X7475997Y-19420186D01*
X7475997Y-19439234D02*
X7485521Y-19429710D01*
X7504568Y-19420186D01*
X7533140Y-19420186D01*
X7552187Y-19429710D01*
X7561711Y-19448758D01*
X7561711Y-19553520D01*
X7561711Y-19448758D02*
X7571235Y-19429710D01*
X7590282Y-19420186D01*
X7618854Y-19420186D01*
X7637902Y-19429710D01*
X7647425Y-19448758D01*
X7647425Y-19553520D01*
X8037902Y-19343996D02*
X7866473Y-19601139D01*
X8295044Y-19353520D02*
X8314092Y-19353520D01*
X8333140Y-19363043D01*
X8342663Y-19372567D01*
X8352187Y-19391615D01*
X8361711Y-19429710D01*
X8361711Y-19477329D01*
X8352187Y-19515424D01*
X8342663Y-19534472D01*
X8333140Y-19543996D01*
X8314092Y-19553520D01*
X8295044Y-19553520D01*
X8275997Y-19543996D01*
X8266473Y-19534472D01*
X8256949Y-19515424D01*
X8247425Y-19477329D01*
X8247425Y-19429710D01*
X8256949Y-19391615D01*
X8266473Y-19372567D01*
X8275997Y-19363043D01*
X8295044Y-19353520D01*
X8447425Y-19534472D02*
X8456949Y-19543996D01*
X8447425Y-19553520D01*
X8437902Y-19543996D01*
X8447425Y-19534472D01*
X8447425Y-19553520D01*
X8580759Y-19353520D02*
X8599806Y-19353520D01*
X8618854Y-19363043D01*
X8628378Y-19372567D01*
X8637902Y-19391615D01*
X8647425Y-19429710D01*
X8647425Y-19477329D01*
X8637902Y-19515424D01*
X8628378Y-19534472D01*
X8618854Y-19543996D01*
X8599806Y-19553520D01*
X8580759Y-19553520D01*
X8561711Y-19543996D01*
X8552187Y-19534472D01*
X8542664Y-19515424D01*
X8533140Y-19477329D01*
X8533140Y-19429710D01*
X8542664Y-19391615D01*
X8552187Y-19372567D01*
X8561711Y-19363043D01*
X8580759Y-19353520D01*
X8837902Y-19553520D02*
X8723616Y-19553520D01*
X8780759Y-19553520D02*
X8780759Y-19353520D01*
X8761711Y-19382091D01*
X8742664Y-19401139D01*
X8723616Y-19410662D01*
X9028378Y-19553520D02*
X8914092Y-19553520D01*
X8971235Y-19553520D02*
X8971235Y-19353520D01*
X8952187Y-19382091D01*
X8933140Y-19401139D01*
X8914092Y-19410662D01*
X9142664Y-19439234D02*
X9123616Y-19429710D01*
X9114092Y-19420186D01*
X9104568Y-19401139D01*
X9104568Y-19391615D01*
X9114092Y-19372567D01*
X9123616Y-19363043D01*
X9142664Y-19353520D01*
X9180759Y-19353520D01*
X9199806Y-19363043D01*
X9209330Y-19372567D01*
X9218854Y-19391615D01*
X9218854Y-19401139D01*
X9209330Y-19420186D01*
X9199806Y-19429710D01*
X9180759Y-19439234D01*
X9142664Y-19439234D01*
X9123616Y-19448758D01*
X9114092Y-19458281D01*
X9104568Y-19477329D01*
X9104568Y-19515424D01*
X9114092Y-19534472D01*
X9123616Y-19543996D01*
X9142664Y-19553520D01*
X9180759Y-19553520D01*
X9199806Y-19543996D01*
X9209330Y-19534472D01*
X9218854Y-19515424D01*
X9218854Y-19477329D01*
X9209330Y-19458281D01*
X9199806Y-19448758D01*
X9180759Y-19439234D01*
X9295044Y-19353520D02*
X9295044Y-19391615D01*
X9371235Y-19353520D02*
X9371235Y-19391615D01*
X9666473Y-19629710D02*
X9656949Y-19620186D01*
X9637902Y-19591615D01*
X9628378Y-19572567D01*
X9618854Y-19543996D01*
X9609330Y-19496377D01*
X9609330Y-19458281D01*
X9618854Y-19410662D01*
X9628378Y-19382091D01*
X9637902Y-19363043D01*
X9656949Y-19334472D01*
X9666473Y-19324948D01*
X9847425Y-19553520D02*
X9733140Y-19553520D01*
X9790283Y-19553520D02*
X9790283Y-19353520D01*
X9771235Y-19382091D01*
X9752187Y-19401139D01*
X9733140Y-19410662D01*
X10018854Y-19420186D02*
X10018854Y-19553520D01*
X9971235Y-19343996D02*
X9923616Y-19486853D01*
X10047425Y-19486853D01*
X10275997Y-19553520D02*
X10275997Y-19353520D01*
X10361711Y-19553520D02*
X10361711Y-19448758D01*
X10352187Y-19429710D01*
X10333140Y-19420186D01*
X10304568Y-19420186D01*
X10285521Y-19429710D01*
X10275997Y-19439234D01*
X10485521Y-19553520D02*
X10466473Y-19543996D01*
X10456949Y-19534472D01*
X10447425Y-19515424D01*
X10447425Y-19458281D01*
X10456949Y-19439234D01*
X10466473Y-19429710D01*
X10485521Y-19420186D01*
X10514092Y-19420186D01*
X10533140Y-19429710D01*
X10542664Y-19439234D01*
X10552187Y-19458281D01*
X10552187Y-19515424D01*
X10542664Y-19534472D01*
X10533140Y-19543996D01*
X10514092Y-19553520D01*
X10485521Y-19553520D01*
X10666473Y-19553520D02*
X10647425Y-19543996D01*
X10637902Y-19524948D01*
X10637902Y-19353520D01*
X10818854Y-19543996D02*
X10799806Y-19553520D01*
X10761711Y-19553520D01*
X10742664Y-19543996D01*
X10733140Y-19524948D01*
X10733140Y-19448758D01*
X10742664Y-19429710D01*
X10761711Y-19420186D01*
X10799806Y-19420186D01*
X10818854Y-19429710D01*
X10828378Y-19448758D01*
X10828378Y-19467805D01*
X10733140Y-19486853D01*
X10904568Y-19543996D02*
X10923616Y-19553520D01*
X10961711Y-19553520D01*
X10980759Y-19543996D01*
X10990283Y-19524948D01*
X10990283Y-19515424D01*
X10980759Y-19496377D01*
X10961711Y-19486853D01*
X10933140Y-19486853D01*
X10914092Y-19477329D01*
X10904568Y-19458281D01*
X10904568Y-19448758D01*
X10914092Y-19429710D01*
X10933140Y-19420186D01*
X10961711Y-19420186D01*
X10980759Y-19429710D01*
X11056949Y-19629710D02*
X11066473Y-19620186D01*
X11085521Y-19591615D01*
X11095044Y-19572567D01*
X11104568Y-19543996D01*
X11114092Y-19496377D01*
X11114092Y-19458281D01*
X11104568Y-19410662D01*
X11095044Y-19382091D01*
X11085521Y-19363043D01*
X11066473Y-19334472D01*
X11056949Y-19324948D01*
D13*
X6094568Y-19727043D02*
G75*
G03*
X6094568Y-19727043I-20000J0D01*
G01*
D11*
X6390282Y-19617520D02*
X6409330Y-19617520D01*
X6428378Y-19627043D01*
X6437902Y-19636567D01*
X6447425Y-19655615D01*
X6456949Y-19693710D01*
X6456949Y-19741329D01*
X6447425Y-19779424D01*
X6437902Y-19798472D01*
X6428378Y-19807996D01*
X6409330Y-19817520D01*
X6390282Y-19817520D01*
X6371235Y-19807996D01*
X6361711Y-19798472D01*
X6352187Y-19779424D01*
X6342663Y-19741329D01*
X6342663Y-19693710D01*
X6352187Y-19655615D01*
X6361711Y-19636567D01*
X6371235Y-19627043D01*
X6390282Y-19617520D01*
X6542663Y-19798472D02*
X6552187Y-19807996D01*
X6542663Y-19817520D01*
X6533140Y-19807996D01*
X6542663Y-19798472D01*
X6542663Y-19817520D01*
X6723616Y-19684186D02*
X6723616Y-19817520D01*
X6675997Y-19607996D02*
X6628378Y-19750853D01*
X6752187Y-19750853D01*
X6866473Y-19617520D02*
X6885521Y-19617520D01*
X6904568Y-19627043D01*
X6914092Y-19636567D01*
X6923616Y-19655615D01*
X6933140Y-19693710D01*
X6933140Y-19741329D01*
X6923616Y-19779424D01*
X6914092Y-19798472D01*
X6904568Y-19807996D01*
X6885521Y-19817520D01*
X6866473Y-19817520D01*
X6847425Y-19807996D01*
X6837902Y-19798472D01*
X6828378Y-19779424D01*
X6818854Y-19741329D01*
X6818854Y-19693710D01*
X6828378Y-19655615D01*
X6837902Y-19636567D01*
X6847425Y-19627043D01*
X6866473Y-19617520D01*
X7056949Y-19617520D02*
X7075997Y-19617520D01*
X7095044Y-19627043D01*
X7104568Y-19636567D01*
X7114092Y-19655615D01*
X7123616Y-19693710D01*
X7123616Y-19741329D01*
X7114092Y-19779424D01*
X7104568Y-19798472D01*
X7095044Y-19807996D01*
X7075997Y-19817520D01*
X7056949Y-19817520D01*
X7037902Y-19807996D01*
X7028378Y-19798472D01*
X7018854Y-19779424D01*
X7009330Y-19741329D01*
X7009330Y-19693710D01*
X7018854Y-19655615D01*
X7028378Y-19636567D01*
X7037902Y-19627043D01*
X7056949Y-19617520D01*
X7209330Y-19817520D02*
X7209330Y-19684186D01*
X7209330Y-19703234D02*
X7218854Y-19693710D01*
X7237902Y-19684186D01*
X7266473Y-19684186D01*
X7285521Y-19693710D01*
X7295044Y-19712758D01*
X7295044Y-19817520D01*
X7295044Y-19712758D02*
X7304568Y-19693710D01*
X7323616Y-19684186D01*
X7352187Y-19684186D01*
X7371235Y-19693710D01*
X7380759Y-19712758D01*
X7380759Y-19817520D01*
X7475997Y-19817520D02*
X7475997Y-19684186D01*
X7475997Y-19703234D02*
X7485521Y-19693710D01*
X7504568Y-19684186D01*
X7533140Y-19684186D01*
X7552187Y-19693710D01*
X7561711Y-19712758D01*
X7561711Y-19817520D01*
X7561711Y-19712758D02*
X7571235Y-19693710D01*
X7590282Y-19684186D01*
X7618854Y-19684186D01*
X7637902Y-19693710D01*
X7647425Y-19712758D01*
X7647425Y-19817520D01*
X8037902Y-19607996D02*
X7866473Y-19865139D01*
X8295044Y-19617520D02*
X8314092Y-19617520D01*
X8333140Y-19627043D01*
X8342663Y-19636567D01*
X8352187Y-19655615D01*
X8361711Y-19693710D01*
X8361711Y-19741329D01*
X8352187Y-19779424D01*
X8342663Y-19798472D01*
X8333140Y-19807996D01*
X8314092Y-19817520D01*
X8295044Y-19817520D01*
X8275997Y-19807996D01*
X8266473Y-19798472D01*
X8256949Y-19779424D01*
X8247425Y-19741329D01*
X8247425Y-19693710D01*
X8256949Y-19655615D01*
X8266473Y-19636567D01*
X8275997Y-19627043D01*
X8295044Y-19617520D01*
X8447425Y-19798472D02*
X8456949Y-19807996D01*
X8447425Y-19817520D01*
X8437902Y-19807996D01*
X8447425Y-19798472D01*
X8447425Y-19817520D01*
X8580759Y-19617520D02*
X8599806Y-19617520D01*
X8618854Y-19627043D01*
X8628378Y-19636567D01*
X8637902Y-19655615D01*
X8647425Y-19693710D01*
X8647425Y-19741329D01*
X8637902Y-19779424D01*
X8628378Y-19798472D01*
X8618854Y-19807996D01*
X8599806Y-19817520D01*
X8580759Y-19817520D01*
X8561711Y-19807996D01*
X8552187Y-19798472D01*
X8542664Y-19779424D01*
X8533140Y-19741329D01*
X8533140Y-19693710D01*
X8542664Y-19655615D01*
X8552187Y-19636567D01*
X8561711Y-19627043D01*
X8580759Y-19617520D01*
X8837902Y-19817520D02*
X8723616Y-19817520D01*
X8780759Y-19817520D02*
X8780759Y-19617520D01*
X8761711Y-19646091D01*
X8742664Y-19665139D01*
X8723616Y-19674662D01*
X9018854Y-19617520D02*
X8923616Y-19617520D01*
X8914092Y-19712758D01*
X8923616Y-19703234D01*
X8942664Y-19693710D01*
X8990283Y-19693710D01*
X9009330Y-19703234D01*
X9018854Y-19712758D01*
X9028378Y-19731805D01*
X9028378Y-19779424D01*
X9018854Y-19798472D01*
X9009330Y-19807996D01*
X8990283Y-19817520D01*
X8942664Y-19817520D01*
X8923616Y-19807996D01*
X8914092Y-19798472D01*
X9095044Y-19617520D02*
X9228378Y-19617520D01*
X9142664Y-19817520D01*
X9295044Y-19617520D02*
X9295044Y-19655615D01*
X9371235Y-19617520D02*
X9371235Y-19655615D01*
X9666473Y-19893710D02*
X9656949Y-19884186D01*
X9637902Y-19855615D01*
X9628378Y-19836567D01*
X9618854Y-19807996D01*
X9609330Y-19760377D01*
X9609330Y-19722281D01*
X9618854Y-19674662D01*
X9628378Y-19646091D01*
X9637902Y-19627043D01*
X9656949Y-19598472D01*
X9666473Y-19588948D01*
X9847425Y-19817520D02*
X9733140Y-19817520D01*
X9790283Y-19817520D02*
X9790283Y-19617520D01*
X9771235Y-19646091D01*
X9752187Y-19665139D01*
X9733140Y-19674662D01*
X9923616Y-19636567D02*
X9933140Y-19627043D01*
X9952187Y-19617520D01*
X9999806Y-19617520D01*
X10018854Y-19627043D01*
X10028378Y-19636567D01*
X10037902Y-19655615D01*
X10037902Y-19674662D01*
X10028378Y-19703234D01*
X9914092Y-19817520D01*
X10037902Y-19817520D01*
X10275997Y-19817520D02*
X10275997Y-19617520D01*
X10361711Y-19817520D02*
X10361711Y-19712758D01*
X10352187Y-19693710D01*
X10333140Y-19684186D01*
X10304568Y-19684186D01*
X10285521Y-19693710D01*
X10275997Y-19703234D01*
X10485521Y-19817520D02*
X10466473Y-19807996D01*
X10456949Y-19798472D01*
X10447425Y-19779424D01*
X10447425Y-19722281D01*
X10456949Y-19703234D01*
X10466473Y-19693710D01*
X10485521Y-19684186D01*
X10514092Y-19684186D01*
X10533140Y-19693710D01*
X10542664Y-19703234D01*
X10552187Y-19722281D01*
X10552187Y-19779424D01*
X10542664Y-19798472D01*
X10533140Y-19807996D01*
X10514092Y-19817520D01*
X10485521Y-19817520D01*
X10666473Y-19817520D02*
X10647425Y-19807996D01*
X10637902Y-19788948D01*
X10637902Y-19617520D01*
X10818854Y-19807996D02*
X10799806Y-19817520D01*
X10761711Y-19817520D01*
X10742664Y-19807996D01*
X10733140Y-19788948D01*
X10733140Y-19712758D01*
X10742664Y-19693710D01*
X10761711Y-19684186D01*
X10799806Y-19684186D01*
X10818854Y-19693710D01*
X10828378Y-19712758D01*
X10828378Y-19731805D01*
X10733140Y-19750853D01*
X10904568Y-19807996D02*
X10923616Y-19817520D01*
X10961711Y-19817520D01*
X10980759Y-19807996D01*
X10990283Y-19788948D01*
X10990283Y-19779424D01*
X10980759Y-19760377D01*
X10961711Y-19750853D01*
X10933140Y-19750853D01*
X10914092Y-19741329D01*
X10904568Y-19722281D01*
X10904568Y-19712758D01*
X10914092Y-19693710D01*
X10933140Y-19684186D01*
X10961711Y-19684186D01*
X10980759Y-19693710D01*
X11056949Y-19893710D02*
X11066473Y-19884186D01*
X11085521Y-19855615D01*
X11095044Y-19836567D01*
X11104568Y-19807996D01*
X11114092Y-19760377D01*
X11114092Y-19722281D01*
X11104568Y-19674662D01*
X11095044Y-19646091D01*
X11085521Y-19627043D01*
X11066473Y-19598472D01*
X11056949Y-19588948D01*
D14*
X6059568Y-19956043D02*
X6059568Y-20026043D01*
X6024568Y-19991043D02*
X6094568Y-19991043D01*
D11*
X6390282Y-19881520D02*
X6409330Y-19881520D01*
X6428378Y-19891043D01*
X6437902Y-19900567D01*
X6447425Y-19919615D01*
X6456949Y-19957710D01*
X6456949Y-20005329D01*
X6447425Y-20043424D01*
X6437902Y-20062472D01*
X6428378Y-20071996D01*
X6409330Y-20081520D01*
X6390282Y-20081520D01*
X6371235Y-20071996D01*
X6361711Y-20062472D01*
X6352187Y-20043424D01*
X6342663Y-20005329D01*
X6342663Y-19957710D01*
X6352187Y-19919615D01*
X6361711Y-19900567D01*
X6371235Y-19891043D01*
X6390282Y-19881520D01*
X6542663Y-20062472D02*
X6552187Y-20071996D01*
X6542663Y-20081520D01*
X6533140Y-20071996D01*
X6542663Y-20062472D01*
X6542663Y-20081520D01*
X6618854Y-19881520D02*
X6752187Y-19881520D01*
X6666473Y-20081520D01*
X6866473Y-19881520D02*
X6885521Y-19881520D01*
X6904568Y-19891043D01*
X6914092Y-19900567D01*
X6923616Y-19919615D01*
X6933140Y-19957710D01*
X6933140Y-20005329D01*
X6923616Y-20043424D01*
X6914092Y-20062472D01*
X6904568Y-20071996D01*
X6885521Y-20081520D01*
X6866473Y-20081520D01*
X6847425Y-20071996D01*
X6837902Y-20062472D01*
X6828378Y-20043424D01*
X6818854Y-20005329D01*
X6818854Y-19957710D01*
X6828378Y-19919615D01*
X6837902Y-19900567D01*
X6847425Y-19891043D01*
X6866473Y-19881520D01*
X7056949Y-19881520D02*
X7075997Y-19881520D01*
X7095044Y-19891043D01*
X7104568Y-19900567D01*
X7114092Y-19919615D01*
X7123616Y-19957710D01*
X7123616Y-20005329D01*
X7114092Y-20043424D01*
X7104568Y-20062472D01*
X7095044Y-20071996D01*
X7075997Y-20081520D01*
X7056949Y-20081520D01*
X7037902Y-20071996D01*
X7028378Y-20062472D01*
X7018854Y-20043424D01*
X7009330Y-20005329D01*
X7009330Y-19957710D01*
X7018854Y-19919615D01*
X7028378Y-19900567D01*
X7037902Y-19891043D01*
X7056949Y-19881520D01*
X7209330Y-20081520D02*
X7209330Y-19948186D01*
X7209330Y-19967234D02*
X7218854Y-19957710D01*
X7237902Y-19948186D01*
X7266473Y-19948186D01*
X7285521Y-19957710D01*
X7295044Y-19976758D01*
X7295044Y-20081520D01*
X7295044Y-19976758D02*
X7304568Y-19957710D01*
X7323616Y-19948186D01*
X7352187Y-19948186D01*
X7371235Y-19957710D01*
X7380759Y-19976758D01*
X7380759Y-20081520D01*
X7475997Y-20081520D02*
X7475997Y-19948186D01*
X7475997Y-19967234D02*
X7485521Y-19957710D01*
X7504568Y-19948186D01*
X7533140Y-19948186D01*
X7552187Y-19957710D01*
X7561711Y-19976758D01*
X7561711Y-20081520D01*
X7561711Y-19976758D02*
X7571235Y-19957710D01*
X7590282Y-19948186D01*
X7618854Y-19948186D01*
X7637902Y-19957710D01*
X7647425Y-19976758D01*
X7647425Y-20081520D01*
X8037902Y-19871996D02*
X7866473Y-20129139D01*
X8295044Y-19881520D02*
X8314092Y-19881520D01*
X8333140Y-19891043D01*
X8342663Y-19900567D01*
X8352187Y-19919615D01*
X8361711Y-19957710D01*
X8361711Y-20005329D01*
X8352187Y-20043424D01*
X8342663Y-20062472D01*
X8333140Y-20071996D01*
X8314092Y-20081520D01*
X8295044Y-20081520D01*
X8275997Y-20071996D01*
X8266473Y-20062472D01*
X8256949Y-20043424D01*
X8247425Y-20005329D01*
X8247425Y-19957710D01*
X8256949Y-19919615D01*
X8266473Y-19900567D01*
X8275997Y-19891043D01*
X8295044Y-19881520D01*
X8447425Y-20062472D02*
X8456949Y-20071996D01*
X8447425Y-20081520D01*
X8437902Y-20071996D01*
X8447425Y-20062472D01*
X8447425Y-20081520D01*
X8580759Y-19881520D02*
X8599806Y-19881520D01*
X8618854Y-19891043D01*
X8628378Y-19900567D01*
X8637902Y-19919615D01*
X8647425Y-19957710D01*
X8647425Y-20005329D01*
X8637902Y-20043424D01*
X8628378Y-20062472D01*
X8618854Y-20071996D01*
X8599806Y-20081520D01*
X8580759Y-20081520D01*
X8561711Y-20071996D01*
X8552187Y-20062472D01*
X8542664Y-20043424D01*
X8533140Y-20005329D01*
X8533140Y-19957710D01*
X8542664Y-19919615D01*
X8552187Y-19900567D01*
X8561711Y-19891043D01*
X8580759Y-19881520D01*
X8723616Y-19900567D02*
X8733140Y-19891043D01*
X8752187Y-19881520D01*
X8799806Y-19881520D01*
X8818854Y-19891043D01*
X8828378Y-19900567D01*
X8837902Y-19919615D01*
X8837902Y-19938662D01*
X8828378Y-19967234D01*
X8714092Y-20081520D01*
X8837902Y-20081520D01*
X8904568Y-19881520D02*
X9037902Y-19881520D01*
X8952187Y-20081520D01*
X9199806Y-19881520D02*
X9161711Y-19881520D01*
X9142664Y-19891043D01*
X9133140Y-19900567D01*
X9114092Y-19929139D01*
X9104568Y-19967234D01*
X9104568Y-20043424D01*
X9114092Y-20062472D01*
X9123616Y-20071996D01*
X9142664Y-20081520D01*
X9180759Y-20081520D01*
X9199806Y-20071996D01*
X9209330Y-20062472D01*
X9218854Y-20043424D01*
X9218854Y-19995805D01*
X9209330Y-19976758D01*
X9199806Y-19967234D01*
X9180759Y-19957710D01*
X9142664Y-19957710D01*
X9123616Y-19967234D01*
X9114092Y-19976758D01*
X9104568Y-19995805D01*
X9295044Y-19881520D02*
X9295044Y-19919615D01*
X9371235Y-19881520D02*
X9371235Y-19919615D01*
X9666473Y-20157710D02*
X9656949Y-20148186D01*
X9637902Y-20119615D01*
X9628378Y-20100567D01*
X9618854Y-20071996D01*
X9609330Y-20024377D01*
X9609330Y-19986281D01*
X9618854Y-19938662D01*
X9628378Y-19910091D01*
X9637902Y-19891043D01*
X9656949Y-19862472D01*
X9666473Y-19852948D01*
X9847425Y-20081520D02*
X9733140Y-20081520D01*
X9790283Y-20081520D02*
X9790283Y-19881520D01*
X9771235Y-19910091D01*
X9752187Y-19929139D01*
X9733140Y-19938662D01*
X10018854Y-19881520D02*
X9980759Y-19881520D01*
X9961711Y-19891043D01*
X9952187Y-19900567D01*
X9933140Y-19929139D01*
X9923616Y-19967234D01*
X9923616Y-20043424D01*
X9933140Y-20062472D01*
X9942664Y-20071996D01*
X9961711Y-20081520D01*
X9999806Y-20081520D01*
X10018854Y-20071996D01*
X10028378Y-20062472D01*
X10037902Y-20043424D01*
X10037902Y-19995805D01*
X10028378Y-19976758D01*
X10018854Y-19967234D01*
X9999806Y-19957710D01*
X9961711Y-19957710D01*
X9942664Y-19967234D01*
X9933140Y-19976758D01*
X9923616Y-19995805D01*
X10275997Y-20081520D02*
X10275997Y-19881520D01*
X10361711Y-20081520D02*
X10361711Y-19976758D01*
X10352187Y-19957710D01*
X10333140Y-19948186D01*
X10304568Y-19948186D01*
X10285521Y-19957710D01*
X10275997Y-19967234D01*
X10485521Y-20081520D02*
X10466473Y-20071996D01*
X10456949Y-20062472D01*
X10447425Y-20043424D01*
X10447425Y-19986281D01*
X10456949Y-19967234D01*
X10466473Y-19957710D01*
X10485521Y-19948186D01*
X10514092Y-19948186D01*
X10533140Y-19957710D01*
X10542664Y-19967234D01*
X10552187Y-19986281D01*
X10552187Y-20043424D01*
X10542664Y-20062472D01*
X10533140Y-20071996D01*
X10514092Y-20081520D01*
X10485521Y-20081520D01*
X10666473Y-20081520D02*
X10647425Y-20071996D01*
X10637902Y-20052948D01*
X10637902Y-19881520D01*
X10818854Y-20071996D02*
X10799806Y-20081520D01*
X10761711Y-20081520D01*
X10742664Y-20071996D01*
X10733140Y-20052948D01*
X10733140Y-19976758D01*
X10742664Y-19957710D01*
X10761711Y-19948186D01*
X10799806Y-19948186D01*
X10818854Y-19957710D01*
X10828378Y-19976758D01*
X10828378Y-19995805D01*
X10733140Y-20014853D01*
X10904568Y-20071996D02*
X10923616Y-20081520D01*
X10961711Y-20081520D01*
X10980759Y-20071996D01*
X10990283Y-20052948D01*
X10990283Y-20043424D01*
X10980759Y-20024377D01*
X10961711Y-20014853D01*
X10933140Y-20014853D01*
X10914092Y-20005329D01*
X10904568Y-19986281D01*
X10904568Y-19976758D01*
X10914092Y-19957710D01*
X10933140Y-19948186D01*
X10961711Y-19948186D01*
X10980759Y-19957710D01*
X11056949Y-20157710D02*
X11066473Y-20148186D01*
X11085521Y-20119615D01*
X11095044Y-20100567D01*
X11104568Y-20071996D01*
X11114092Y-20024377D01*
X11114092Y-19986281D01*
X11104568Y-19938662D01*
X11095044Y-19910091D01*
X11085521Y-19891043D01*
X11066473Y-19862472D01*
X11056949Y-19852948D01*
D15*
X6079924Y-20290399D02*
X6079924Y-20219688D01*
X6009213Y-20219688D01*
X6009213Y-20290399D01*
X6079924Y-20290399D01*
D11*
X6456949Y-20345520D02*
X6342663Y-20345520D01*
X6399806Y-20345520D02*
X6399806Y-20145520D01*
X6380759Y-20174091D01*
X6361711Y-20193139D01*
X6342663Y-20202662D01*
X6542663Y-20326472D02*
X6552187Y-20335996D01*
X6542663Y-20345520D01*
X6533140Y-20335996D01*
X6542663Y-20326472D01*
X6542663Y-20345520D01*
X6675997Y-20145520D02*
X6695044Y-20145520D01*
X6714092Y-20155043D01*
X6723616Y-20164567D01*
X6733140Y-20183615D01*
X6742663Y-20221710D01*
X6742663Y-20269329D01*
X6733140Y-20307424D01*
X6723616Y-20326472D01*
X6714092Y-20335996D01*
X6695044Y-20345520D01*
X6675997Y-20345520D01*
X6656949Y-20335996D01*
X6647425Y-20326472D01*
X6637902Y-20307424D01*
X6628378Y-20269329D01*
X6628378Y-20221710D01*
X6637902Y-20183615D01*
X6647425Y-20164567D01*
X6656949Y-20155043D01*
X6675997Y-20145520D01*
X6866473Y-20145520D02*
X6885521Y-20145520D01*
X6904568Y-20155043D01*
X6914092Y-20164567D01*
X6923616Y-20183615D01*
X6933140Y-20221710D01*
X6933140Y-20269329D01*
X6923616Y-20307424D01*
X6914092Y-20326472D01*
X6904568Y-20335996D01*
X6885521Y-20345520D01*
X6866473Y-20345520D01*
X6847425Y-20335996D01*
X6837902Y-20326472D01*
X6828378Y-20307424D01*
X6818854Y-20269329D01*
X6818854Y-20221710D01*
X6828378Y-20183615D01*
X6837902Y-20164567D01*
X6847425Y-20155043D01*
X6866473Y-20145520D01*
X7056949Y-20145520D02*
X7075997Y-20145520D01*
X7095044Y-20155043D01*
X7104568Y-20164567D01*
X7114092Y-20183615D01*
X7123616Y-20221710D01*
X7123616Y-20269329D01*
X7114092Y-20307424D01*
X7104568Y-20326472D01*
X7095044Y-20335996D01*
X7075997Y-20345520D01*
X7056949Y-20345520D01*
X7037902Y-20335996D01*
X7028378Y-20326472D01*
X7018854Y-20307424D01*
X7009330Y-20269329D01*
X7009330Y-20221710D01*
X7018854Y-20183615D01*
X7028378Y-20164567D01*
X7037902Y-20155043D01*
X7056949Y-20145520D01*
X7209330Y-20345520D02*
X7209330Y-20212186D01*
X7209330Y-20231234D02*
X7218854Y-20221710D01*
X7237902Y-20212186D01*
X7266473Y-20212186D01*
X7285521Y-20221710D01*
X7295044Y-20240758D01*
X7295044Y-20345520D01*
X7295044Y-20240758D02*
X7304568Y-20221710D01*
X7323616Y-20212186D01*
X7352187Y-20212186D01*
X7371235Y-20221710D01*
X7380759Y-20240758D01*
X7380759Y-20345520D01*
X7475997Y-20345520D02*
X7475997Y-20212186D01*
X7475997Y-20231234D02*
X7485521Y-20221710D01*
X7504568Y-20212186D01*
X7533140Y-20212186D01*
X7552187Y-20221710D01*
X7561711Y-20240758D01*
X7561711Y-20345520D01*
X7561711Y-20240758D02*
X7571235Y-20221710D01*
X7590282Y-20212186D01*
X7618854Y-20212186D01*
X7637902Y-20221710D01*
X7647425Y-20240758D01*
X7647425Y-20345520D01*
X8037902Y-20135996D02*
X7866473Y-20393139D01*
X8295044Y-20145520D02*
X8314092Y-20145520D01*
X8333140Y-20155043D01*
X8342663Y-20164567D01*
X8352187Y-20183615D01*
X8361711Y-20221710D01*
X8361711Y-20269329D01*
X8352187Y-20307424D01*
X8342663Y-20326472D01*
X8333140Y-20335996D01*
X8314092Y-20345520D01*
X8295044Y-20345520D01*
X8275997Y-20335996D01*
X8266473Y-20326472D01*
X8256949Y-20307424D01*
X8247425Y-20269329D01*
X8247425Y-20221710D01*
X8256949Y-20183615D01*
X8266473Y-20164567D01*
X8275997Y-20155043D01*
X8295044Y-20145520D01*
X8447425Y-20326472D02*
X8456949Y-20335996D01*
X8447425Y-20345520D01*
X8437902Y-20335996D01*
X8447425Y-20326472D01*
X8447425Y-20345520D01*
X8580759Y-20145520D02*
X8599806Y-20145520D01*
X8618854Y-20155043D01*
X8628378Y-20164567D01*
X8637902Y-20183615D01*
X8647425Y-20221710D01*
X8647425Y-20269329D01*
X8637902Y-20307424D01*
X8628378Y-20326472D01*
X8618854Y-20335996D01*
X8599806Y-20345520D01*
X8580759Y-20345520D01*
X8561711Y-20335996D01*
X8552187Y-20326472D01*
X8542664Y-20307424D01*
X8533140Y-20269329D01*
X8533140Y-20221710D01*
X8542664Y-20183615D01*
X8552187Y-20164567D01*
X8561711Y-20155043D01*
X8580759Y-20145520D01*
X8714092Y-20145520D02*
X8837902Y-20145520D01*
X8771235Y-20221710D01*
X8799806Y-20221710D01*
X8818854Y-20231234D01*
X8828378Y-20240758D01*
X8837902Y-20259805D01*
X8837902Y-20307424D01*
X8828378Y-20326472D01*
X8818854Y-20335996D01*
X8799806Y-20345520D01*
X8742664Y-20345520D01*
X8723616Y-20335996D01*
X8714092Y-20326472D01*
X8933140Y-20345520D02*
X8971235Y-20345520D01*
X8990283Y-20335996D01*
X8999806Y-20326472D01*
X9018854Y-20297901D01*
X9028378Y-20259805D01*
X9028378Y-20183615D01*
X9018854Y-20164567D01*
X9009330Y-20155043D01*
X8990283Y-20145520D01*
X8952187Y-20145520D01*
X8933140Y-20155043D01*
X8923616Y-20164567D01*
X8914092Y-20183615D01*
X8914092Y-20231234D01*
X8923616Y-20250281D01*
X8933140Y-20259805D01*
X8952187Y-20269329D01*
X8990283Y-20269329D01*
X9009330Y-20259805D01*
X9018854Y-20250281D01*
X9028378Y-20231234D01*
X9199806Y-20212186D02*
X9199806Y-20345520D01*
X9152187Y-20135996D02*
X9104568Y-20278853D01*
X9228378Y-20278853D01*
X9295044Y-20145520D02*
X9295044Y-20183615D01*
X9371235Y-20145520D02*
X9371235Y-20183615D01*
X9666473Y-20421710D02*
X9656949Y-20412186D01*
X9637902Y-20383615D01*
X9628378Y-20364567D01*
X9618854Y-20335996D01*
X9609330Y-20288377D01*
X9609330Y-20250281D01*
X9618854Y-20202662D01*
X9628378Y-20174091D01*
X9637902Y-20155043D01*
X9656949Y-20126472D01*
X9666473Y-20116948D01*
X9752187Y-20345520D02*
X9790283Y-20345520D01*
X9809330Y-20335996D01*
X9818854Y-20326472D01*
X9837902Y-20297901D01*
X9847425Y-20259805D01*
X9847425Y-20183615D01*
X9837902Y-20164567D01*
X9828378Y-20155043D01*
X9809330Y-20145520D01*
X9771235Y-20145520D01*
X9752187Y-20155043D01*
X9742664Y-20164567D01*
X9733140Y-20183615D01*
X9733140Y-20231234D01*
X9742664Y-20250281D01*
X9752187Y-20259805D01*
X9771235Y-20269329D01*
X9809330Y-20269329D01*
X9828378Y-20259805D01*
X9837902Y-20250281D01*
X9847425Y-20231234D01*
X10085521Y-20345520D02*
X10085521Y-20145520D01*
X10171235Y-20345520D02*
X10171235Y-20240758D01*
X10161711Y-20221710D01*
X10142664Y-20212186D01*
X10114092Y-20212186D01*
X10095044Y-20221710D01*
X10085521Y-20231234D01*
X10295044Y-20345520D02*
X10275997Y-20335996D01*
X10266473Y-20326472D01*
X10256949Y-20307424D01*
X10256949Y-20250281D01*
X10266473Y-20231234D01*
X10275997Y-20221710D01*
X10295044Y-20212186D01*
X10323616Y-20212186D01*
X10342664Y-20221710D01*
X10352187Y-20231234D01*
X10361711Y-20250281D01*
X10361711Y-20307424D01*
X10352187Y-20326472D01*
X10342664Y-20335996D01*
X10323616Y-20345520D01*
X10295044Y-20345520D01*
X10475997Y-20345520D02*
X10456949Y-20335996D01*
X10447425Y-20316948D01*
X10447425Y-20145520D01*
X10628378Y-20335996D02*
X10609330Y-20345520D01*
X10571235Y-20345520D01*
X10552187Y-20335996D01*
X10542664Y-20316948D01*
X10542664Y-20240758D01*
X10552187Y-20221710D01*
X10571235Y-20212186D01*
X10609330Y-20212186D01*
X10628378Y-20221710D01*
X10637902Y-20240758D01*
X10637902Y-20259805D01*
X10542664Y-20278853D01*
X10714092Y-20335996D02*
X10733140Y-20345520D01*
X10771235Y-20345520D01*
X10790283Y-20335996D01*
X10799806Y-20316948D01*
X10799806Y-20307424D01*
X10790283Y-20288377D01*
X10771235Y-20278853D01*
X10742664Y-20278853D01*
X10723616Y-20269329D01*
X10714092Y-20250281D01*
X10714092Y-20240758D01*
X10723616Y-20221710D01*
X10742664Y-20212186D01*
X10771235Y-20212186D01*
X10790283Y-20221710D01*
X10866473Y-20421710D02*
X10875997Y-20412186D01*
X10895044Y-20383615D01*
X10904568Y-20364567D01*
X10914092Y-20335996D01*
X10923616Y-20288377D01*
X10923616Y-20250281D01*
X10914092Y-20202662D01*
X10904568Y-20174091D01*
X10895044Y-20155043D01*
X10875997Y-20126472D01*
X10866473Y-20116948D01*
D16*
X6039958Y-20573653D02*
X6094568Y-20519043D01*
X6039958Y-20464433D01*
X5985348Y-20519043D01*
X6039958Y-20573653D01*
D11*
X6456949Y-20609520D02*
X6342663Y-20609520D01*
X6399806Y-20609520D02*
X6399806Y-20409520D01*
X6380759Y-20438091D01*
X6361711Y-20457139D01*
X6342663Y-20466662D01*
X6542663Y-20590472D02*
X6552187Y-20599996D01*
X6542663Y-20609520D01*
X6533140Y-20599996D01*
X6542663Y-20590472D01*
X6542663Y-20609520D01*
X6675997Y-20409520D02*
X6695044Y-20409520D01*
X6714092Y-20419043D01*
X6723616Y-20428567D01*
X6733140Y-20447615D01*
X6742663Y-20485710D01*
X6742663Y-20533329D01*
X6733140Y-20571424D01*
X6723616Y-20590472D01*
X6714092Y-20599996D01*
X6695044Y-20609520D01*
X6675997Y-20609520D01*
X6656949Y-20599996D01*
X6647425Y-20590472D01*
X6637902Y-20571424D01*
X6628378Y-20533329D01*
X6628378Y-20485710D01*
X6637902Y-20447615D01*
X6647425Y-20428567D01*
X6656949Y-20419043D01*
X6675997Y-20409520D01*
X6837902Y-20609520D02*
X6875997Y-20609520D01*
X6895044Y-20599996D01*
X6904568Y-20590472D01*
X6923616Y-20561901D01*
X6933140Y-20523805D01*
X6933140Y-20447615D01*
X6923616Y-20428567D01*
X6914092Y-20419043D01*
X6895044Y-20409520D01*
X6856949Y-20409520D01*
X6837902Y-20419043D01*
X6828378Y-20428567D01*
X6818854Y-20447615D01*
X6818854Y-20495234D01*
X6828378Y-20514281D01*
X6837902Y-20523805D01*
X6856949Y-20533329D01*
X6895044Y-20533329D01*
X6914092Y-20523805D01*
X6923616Y-20514281D01*
X6933140Y-20495234D01*
X7009330Y-20428567D02*
X7018854Y-20419043D01*
X7037902Y-20409520D01*
X7085521Y-20409520D01*
X7104568Y-20419043D01*
X7114092Y-20428567D01*
X7123616Y-20447615D01*
X7123616Y-20466662D01*
X7114092Y-20495234D01*
X6999806Y-20609520D01*
X7123616Y-20609520D01*
X7209330Y-20609520D02*
X7209330Y-20476186D01*
X7209330Y-20495234D02*
X7218854Y-20485710D01*
X7237902Y-20476186D01*
X7266473Y-20476186D01*
X7285521Y-20485710D01*
X7295044Y-20504758D01*
X7295044Y-20609520D01*
X7295044Y-20504758D02*
X7304568Y-20485710D01*
X7323616Y-20476186D01*
X7352187Y-20476186D01*
X7371235Y-20485710D01*
X7380759Y-20504758D01*
X7380759Y-20609520D01*
X7475997Y-20609520D02*
X7475997Y-20476186D01*
X7475997Y-20495234D02*
X7485521Y-20485710D01*
X7504568Y-20476186D01*
X7533140Y-20476186D01*
X7552187Y-20485710D01*
X7561711Y-20504758D01*
X7561711Y-20609520D01*
X7561711Y-20504758D02*
X7571235Y-20485710D01*
X7590282Y-20476186D01*
X7618854Y-20476186D01*
X7637902Y-20485710D01*
X7647425Y-20504758D01*
X7647425Y-20609520D01*
X8037902Y-20399996D02*
X7866473Y-20657139D01*
X8295044Y-20409520D02*
X8314092Y-20409520D01*
X8333140Y-20419043D01*
X8342663Y-20428567D01*
X8352187Y-20447615D01*
X8361711Y-20485710D01*
X8361711Y-20533329D01*
X8352187Y-20571424D01*
X8342663Y-20590472D01*
X8333140Y-20599996D01*
X8314092Y-20609520D01*
X8295044Y-20609520D01*
X8275997Y-20599996D01*
X8266473Y-20590472D01*
X8256949Y-20571424D01*
X8247425Y-20533329D01*
X8247425Y-20485710D01*
X8256949Y-20447615D01*
X8266473Y-20428567D01*
X8275997Y-20419043D01*
X8295044Y-20409520D01*
X8447425Y-20590472D02*
X8456949Y-20599996D01*
X8447425Y-20609520D01*
X8437902Y-20599996D01*
X8447425Y-20590472D01*
X8447425Y-20609520D01*
X8580759Y-20409520D02*
X8599806Y-20409520D01*
X8618854Y-20419043D01*
X8628378Y-20428567D01*
X8637902Y-20447615D01*
X8647425Y-20485710D01*
X8647425Y-20533329D01*
X8637902Y-20571424D01*
X8628378Y-20590472D01*
X8618854Y-20599996D01*
X8599806Y-20609520D01*
X8580759Y-20609520D01*
X8561711Y-20599996D01*
X8552187Y-20590472D01*
X8542664Y-20571424D01*
X8533140Y-20533329D01*
X8533140Y-20485710D01*
X8542664Y-20447615D01*
X8552187Y-20428567D01*
X8561711Y-20419043D01*
X8580759Y-20409520D01*
X8818854Y-20476186D02*
X8818854Y-20609520D01*
X8771235Y-20399996D02*
X8723616Y-20542853D01*
X8847425Y-20542853D01*
X8904568Y-20409520D02*
X9028378Y-20409520D01*
X8961711Y-20485710D01*
X8990283Y-20485710D01*
X9009330Y-20495234D01*
X9018854Y-20504758D01*
X9028378Y-20523805D01*
X9028378Y-20571424D01*
X9018854Y-20590472D01*
X9009330Y-20599996D01*
X8990283Y-20609520D01*
X8933140Y-20609520D01*
X8914092Y-20599996D01*
X8904568Y-20590472D01*
X9152187Y-20409520D02*
X9171235Y-20409520D01*
X9190283Y-20419043D01*
X9199806Y-20428567D01*
X9209330Y-20447615D01*
X9218854Y-20485710D01*
X9218854Y-20533329D01*
X9209330Y-20571424D01*
X9199806Y-20590472D01*
X9190283Y-20599996D01*
X9171235Y-20609520D01*
X9152187Y-20609520D01*
X9133140Y-20599996D01*
X9123616Y-20590472D01*
X9114092Y-20571424D01*
X9104568Y-20533329D01*
X9104568Y-20485710D01*
X9114092Y-20447615D01*
X9123616Y-20428567D01*
X9133140Y-20419043D01*
X9152187Y-20409520D01*
X9295044Y-20409520D02*
X9295044Y-20447615D01*
X9371235Y-20409520D02*
X9371235Y-20447615D01*
X9666473Y-20685710D02*
X9656949Y-20676186D01*
X9637902Y-20647615D01*
X9628378Y-20628567D01*
X9618854Y-20599996D01*
X9609330Y-20552377D01*
X9609330Y-20514281D01*
X9618854Y-20466662D01*
X9628378Y-20438091D01*
X9637902Y-20419043D01*
X9656949Y-20390472D01*
X9666473Y-20380948D01*
X9733140Y-20428567D02*
X9742664Y-20419043D01*
X9761711Y-20409520D01*
X9809330Y-20409520D01*
X9828378Y-20419043D01*
X9837902Y-20428567D01*
X9847425Y-20447615D01*
X9847425Y-20466662D01*
X9837902Y-20495234D01*
X9723616Y-20609520D01*
X9847425Y-20609520D01*
X9942664Y-20609520D02*
X9980759Y-20609520D01*
X9999806Y-20599996D01*
X10009330Y-20590472D01*
X10028378Y-20561901D01*
X10037902Y-20523805D01*
X10037902Y-20447615D01*
X10028378Y-20428567D01*
X10018854Y-20419043D01*
X9999806Y-20409520D01*
X9961711Y-20409520D01*
X9942664Y-20419043D01*
X9933140Y-20428567D01*
X9923616Y-20447615D01*
X9923616Y-20495234D01*
X9933140Y-20514281D01*
X9942664Y-20523805D01*
X9961711Y-20533329D01*
X9999806Y-20533329D01*
X10018854Y-20523805D01*
X10028378Y-20514281D01*
X10037902Y-20495234D01*
X10275997Y-20609520D02*
X10275997Y-20409520D01*
X10361711Y-20609520D02*
X10361711Y-20504758D01*
X10352187Y-20485710D01*
X10333140Y-20476186D01*
X10304568Y-20476186D01*
X10285521Y-20485710D01*
X10275997Y-20495234D01*
X10485521Y-20609520D02*
X10466473Y-20599996D01*
X10456949Y-20590472D01*
X10447425Y-20571424D01*
X10447425Y-20514281D01*
X10456949Y-20495234D01*
X10466473Y-20485710D01*
X10485521Y-20476186D01*
X10514092Y-20476186D01*
X10533140Y-20485710D01*
X10542664Y-20495234D01*
X10552187Y-20514281D01*
X10552187Y-20571424D01*
X10542664Y-20590472D01*
X10533140Y-20599996D01*
X10514092Y-20609520D01*
X10485521Y-20609520D01*
X10666473Y-20609520D02*
X10647425Y-20599996D01*
X10637902Y-20580948D01*
X10637902Y-20409520D01*
X10818854Y-20599996D02*
X10799806Y-20609520D01*
X10761711Y-20609520D01*
X10742664Y-20599996D01*
X10733140Y-20580948D01*
X10733140Y-20504758D01*
X10742664Y-20485710D01*
X10761711Y-20476186D01*
X10799806Y-20476186D01*
X10818854Y-20485710D01*
X10828378Y-20504758D01*
X10828378Y-20523805D01*
X10733140Y-20542853D01*
X10904568Y-20599996D02*
X10923616Y-20609520D01*
X10961711Y-20609520D01*
X10980759Y-20599996D01*
X10990283Y-20580948D01*
X10990283Y-20571424D01*
X10980759Y-20552377D01*
X10961711Y-20542853D01*
X10933140Y-20542853D01*
X10914092Y-20533329D01*
X10904568Y-20514281D01*
X10904568Y-20504758D01*
X10914092Y-20485710D01*
X10933140Y-20476186D01*
X10961711Y-20476186D01*
X10980759Y-20485710D01*
X11056949Y-20685710D02*
X11066473Y-20676186D01*
X11085521Y-20647615D01*
X11095044Y-20628567D01*
X11104568Y-20599996D01*
X11114092Y-20552377D01*
X11114092Y-20514281D01*
X11104568Y-20466662D01*
X11095044Y-20438091D01*
X11085521Y-20419043D01*
X11066473Y-20390472D01*
X11056949Y-20380948D01*
D17*
X5984568Y-20728043D02*
X6094568Y-20838043D01*
X6094568Y-20728043D02*
X5984568Y-20838043D01*
X6094568Y-20783043D02*
G75*
G03*
X6094568Y-20783043I-55000J0D01*
G01*
D11*
X6456949Y-20873520D02*
X6342663Y-20873520D01*
X6399806Y-20873520D02*
X6399806Y-20673520D01*
X6380759Y-20702091D01*
X6361711Y-20721139D01*
X6342663Y-20730662D01*
X6542663Y-20854472D02*
X6552187Y-20863996D01*
X6542663Y-20873520D01*
X6533140Y-20863996D01*
X6542663Y-20854472D01*
X6542663Y-20873520D01*
X6742663Y-20873520D02*
X6628378Y-20873520D01*
X6685521Y-20873520D02*
X6685521Y-20673520D01*
X6666473Y-20702091D01*
X6647425Y-20721139D01*
X6628378Y-20730662D01*
X6866473Y-20673520D02*
X6885521Y-20673520D01*
X6904568Y-20683043D01*
X6914092Y-20692567D01*
X6923616Y-20711615D01*
X6933140Y-20749710D01*
X6933140Y-20797329D01*
X6923616Y-20835424D01*
X6914092Y-20854472D01*
X6904568Y-20863996D01*
X6885521Y-20873520D01*
X6866473Y-20873520D01*
X6847425Y-20863996D01*
X6837902Y-20854472D01*
X6828378Y-20835424D01*
X6818854Y-20797329D01*
X6818854Y-20749710D01*
X6828378Y-20711615D01*
X6837902Y-20692567D01*
X6847425Y-20683043D01*
X6866473Y-20673520D01*
X7056949Y-20673520D02*
X7075997Y-20673520D01*
X7095044Y-20683043D01*
X7104568Y-20692567D01*
X7114092Y-20711615D01*
X7123616Y-20749710D01*
X7123616Y-20797329D01*
X7114092Y-20835424D01*
X7104568Y-20854472D01*
X7095044Y-20863996D01*
X7075997Y-20873520D01*
X7056949Y-20873520D01*
X7037902Y-20863996D01*
X7028378Y-20854472D01*
X7018854Y-20835424D01*
X7009330Y-20797329D01*
X7009330Y-20749710D01*
X7018854Y-20711615D01*
X7028378Y-20692567D01*
X7037902Y-20683043D01*
X7056949Y-20673520D01*
X7209330Y-20873520D02*
X7209330Y-20740186D01*
X7209330Y-20759234D02*
X7218854Y-20749710D01*
X7237902Y-20740186D01*
X7266473Y-20740186D01*
X7285521Y-20749710D01*
X7295044Y-20768758D01*
X7295044Y-20873520D01*
X7295044Y-20768758D02*
X7304568Y-20749710D01*
X7323616Y-20740186D01*
X7352187Y-20740186D01*
X7371235Y-20749710D01*
X7380759Y-20768758D01*
X7380759Y-20873520D01*
X7475997Y-20873520D02*
X7475997Y-20740186D01*
X7475997Y-20759234D02*
X7485521Y-20749710D01*
X7504568Y-20740186D01*
X7533140Y-20740186D01*
X7552187Y-20749710D01*
X7561711Y-20768758D01*
X7561711Y-20873520D01*
X7561711Y-20768758D02*
X7571235Y-20749710D01*
X7590282Y-20740186D01*
X7618854Y-20740186D01*
X7637902Y-20749710D01*
X7647425Y-20768758D01*
X7647425Y-20873520D01*
X8037902Y-20663996D02*
X7866473Y-20921139D01*
X8295044Y-20673520D02*
X8314092Y-20673520D01*
X8333140Y-20683043D01*
X8342663Y-20692567D01*
X8352187Y-20711615D01*
X8361711Y-20749710D01*
X8361711Y-20797329D01*
X8352187Y-20835424D01*
X8342663Y-20854472D01*
X8333140Y-20863996D01*
X8314092Y-20873520D01*
X8295044Y-20873520D01*
X8275997Y-20863996D01*
X8266473Y-20854472D01*
X8256949Y-20835424D01*
X8247425Y-20797329D01*
X8247425Y-20749710D01*
X8256949Y-20711615D01*
X8266473Y-20692567D01*
X8275997Y-20683043D01*
X8295044Y-20673520D01*
X8447425Y-20854472D02*
X8456949Y-20863996D01*
X8447425Y-20873520D01*
X8437902Y-20863996D01*
X8447425Y-20854472D01*
X8447425Y-20873520D01*
X8580759Y-20673520D02*
X8599806Y-20673520D01*
X8618854Y-20683043D01*
X8628378Y-20692567D01*
X8637902Y-20711615D01*
X8647425Y-20749710D01*
X8647425Y-20797329D01*
X8637902Y-20835424D01*
X8628378Y-20854472D01*
X8618854Y-20863996D01*
X8599806Y-20873520D01*
X8580759Y-20873520D01*
X8561711Y-20863996D01*
X8552187Y-20854472D01*
X8542664Y-20835424D01*
X8533140Y-20797329D01*
X8533140Y-20749710D01*
X8542664Y-20711615D01*
X8552187Y-20692567D01*
X8561711Y-20683043D01*
X8580759Y-20673520D01*
X8818854Y-20740186D02*
X8818854Y-20873520D01*
X8771235Y-20663996D02*
X8723616Y-20806853D01*
X8847425Y-20806853D01*
X8904568Y-20673520D02*
X9028378Y-20673520D01*
X8961711Y-20749710D01*
X8990283Y-20749710D01*
X9009330Y-20759234D01*
X9018854Y-20768758D01*
X9028378Y-20787805D01*
X9028378Y-20835424D01*
X9018854Y-20854472D01*
X9009330Y-20863996D01*
X8990283Y-20873520D01*
X8933140Y-20873520D01*
X8914092Y-20863996D01*
X8904568Y-20854472D01*
X9095044Y-20673520D02*
X9218854Y-20673520D01*
X9152187Y-20749710D01*
X9180759Y-20749710D01*
X9199806Y-20759234D01*
X9209330Y-20768758D01*
X9218854Y-20787805D01*
X9218854Y-20835424D01*
X9209330Y-20854472D01*
X9199806Y-20863996D01*
X9180759Y-20873520D01*
X9123616Y-20873520D01*
X9104568Y-20863996D01*
X9095044Y-20854472D01*
X9295044Y-20673520D02*
X9295044Y-20711615D01*
X9371235Y-20673520D02*
X9371235Y-20711615D01*
X9666473Y-20949710D02*
X9656949Y-20940186D01*
X9637902Y-20911615D01*
X9628378Y-20892567D01*
X9618854Y-20863996D01*
X9609330Y-20816377D01*
X9609330Y-20778281D01*
X9618854Y-20730662D01*
X9628378Y-20702091D01*
X9637902Y-20683043D01*
X9656949Y-20654472D01*
X9666473Y-20644948D01*
X9847425Y-20873520D02*
X9733140Y-20873520D01*
X9790283Y-20873520D02*
X9790283Y-20673520D01*
X9771235Y-20702091D01*
X9752187Y-20721139D01*
X9733140Y-20730662D01*
X10037902Y-20873520D02*
X9923616Y-20873520D01*
X9980759Y-20873520D02*
X9980759Y-20673520D01*
X9961711Y-20702091D01*
X9942664Y-20721139D01*
X9923616Y-20730662D01*
X10161711Y-20673520D02*
X10180759Y-20673520D01*
X10199806Y-20683043D01*
X10209330Y-20692567D01*
X10218854Y-20711615D01*
X10228378Y-20749710D01*
X10228378Y-20797329D01*
X10218854Y-20835424D01*
X10209330Y-20854472D01*
X10199806Y-20863996D01*
X10180759Y-20873520D01*
X10161711Y-20873520D01*
X10142664Y-20863996D01*
X10133140Y-20854472D01*
X10123616Y-20835424D01*
X10114092Y-20797329D01*
X10114092Y-20749710D01*
X10123616Y-20711615D01*
X10133140Y-20692567D01*
X10142664Y-20683043D01*
X10161711Y-20673520D01*
X10466473Y-20873520D02*
X10466473Y-20673520D01*
X10552187Y-20873520D02*
X10552187Y-20768758D01*
X10542664Y-20749710D01*
X10523616Y-20740186D01*
X10495044Y-20740186D01*
X10475997Y-20749710D01*
X10466473Y-20759234D01*
X10675997Y-20873520D02*
X10656949Y-20863996D01*
X10647425Y-20854472D01*
X10637902Y-20835424D01*
X10637902Y-20778281D01*
X10647425Y-20759234D01*
X10656949Y-20749710D01*
X10675997Y-20740186D01*
X10704568Y-20740186D01*
X10723616Y-20749710D01*
X10733140Y-20759234D01*
X10742664Y-20778281D01*
X10742664Y-20835424D01*
X10733140Y-20854472D01*
X10723616Y-20863996D01*
X10704568Y-20873520D01*
X10675997Y-20873520D01*
X10856949Y-20873520D02*
X10837902Y-20863996D01*
X10828378Y-20844948D01*
X10828378Y-20673520D01*
X11009330Y-20863996D02*
X10990283Y-20873520D01*
X10952187Y-20873520D01*
X10933140Y-20863996D01*
X10923616Y-20844948D01*
X10923616Y-20768758D01*
X10933140Y-20749710D01*
X10952187Y-20740186D01*
X10990283Y-20740186D01*
X11009330Y-20749710D01*
X11018854Y-20768758D01*
X11018854Y-20787805D01*
X10923616Y-20806853D01*
X11095044Y-20863996D02*
X11114092Y-20873520D01*
X11152187Y-20873520D01*
X11171235Y-20863996D01*
X11180759Y-20844948D01*
X11180759Y-20835424D01*
X11171235Y-20816377D01*
X11152187Y-20806853D01*
X11123616Y-20806853D01*
X11104568Y-20797329D01*
X11095044Y-20778281D01*
X11095044Y-20768758D01*
X11104568Y-20749710D01*
X11123616Y-20740186D01*
X11152187Y-20740186D01*
X11171235Y-20749710D01*
X11247425Y-20949710D02*
X11256949Y-20940186D01*
X11275997Y-20911615D01*
X11285521Y-20892567D01*
X11295044Y-20863996D01*
X11304568Y-20816377D01*
X11304568Y-20778281D01*
X11295044Y-20730662D01*
X11285521Y-20702091D01*
X11275997Y-20683043D01*
X11256949Y-20654472D01*
X11247425Y-20644948D01*
D18*
X5944568Y-20972043D02*
X6094568Y-21122043D01*
X6094568Y-20972043D02*
X5944568Y-21122043D01*
X6019568Y-20972043D02*
X6019568Y-21122043D01*
X5944568Y-21047043D02*
X6094568Y-21047043D01*
D11*
X6456949Y-21137520D02*
X6342663Y-21137520D01*
X6399806Y-21137520D02*
X6399806Y-20937520D01*
X6380759Y-20966091D01*
X6361711Y-20985139D01*
X6342663Y-20994662D01*
X6542663Y-21118472D02*
X6552187Y-21127996D01*
X6542663Y-21137520D01*
X6533140Y-21127996D01*
X6542663Y-21118472D01*
X6542663Y-21137520D01*
X6733140Y-20937520D02*
X6637902Y-20937520D01*
X6628378Y-21032758D01*
X6637902Y-21023234D01*
X6656949Y-21013710D01*
X6704568Y-21013710D01*
X6723616Y-21023234D01*
X6733140Y-21032758D01*
X6742663Y-21051805D01*
X6742663Y-21099424D01*
X6733140Y-21118472D01*
X6723616Y-21127996D01*
X6704568Y-21137520D01*
X6656949Y-21137520D01*
X6637902Y-21127996D01*
X6628378Y-21118472D01*
X6866473Y-20937520D02*
X6885521Y-20937520D01*
X6904568Y-20947043D01*
X6914092Y-20956567D01*
X6923616Y-20975615D01*
X6933140Y-21013710D01*
X6933140Y-21061329D01*
X6923616Y-21099424D01*
X6914092Y-21118472D01*
X6904568Y-21127996D01*
X6885521Y-21137520D01*
X6866473Y-21137520D01*
X6847425Y-21127996D01*
X6837902Y-21118472D01*
X6828378Y-21099424D01*
X6818854Y-21061329D01*
X6818854Y-21013710D01*
X6828378Y-20975615D01*
X6837902Y-20956567D01*
X6847425Y-20947043D01*
X6866473Y-20937520D01*
X7056949Y-20937520D02*
X7075997Y-20937520D01*
X7095044Y-20947043D01*
X7104568Y-20956567D01*
X7114092Y-20975615D01*
X7123616Y-21013710D01*
X7123616Y-21061329D01*
X7114092Y-21099424D01*
X7104568Y-21118472D01*
X7095044Y-21127996D01*
X7075997Y-21137520D01*
X7056949Y-21137520D01*
X7037902Y-21127996D01*
X7028378Y-21118472D01*
X7018854Y-21099424D01*
X7009330Y-21061329D01*
X7009330Y-21013710D01*
X7018854Y-20975615D01*
X7028378Y-20956567D01*
X7037902Y-20947043D01*
X7056949Y-20937520D01*
X7209330Y-21137520D02*
X7209330Y-21004186D01*
X7209330Y-21023234D02*
X7218854Y-21013710D01*
X7237902Y-21004186D01*
X7266473Y-21004186D01*
X7285521Y-21013710D01*
X7295044Y-21032758D01*
X7295044Y-21137520D01*
X7295044Y-21032758D02*
X7304568Y-21013710D01*
X7323616Y-21004186D01*
X7352187Y-21004186D01*
X7371235Y-21013710D01*
X7380759Y-21032758D01*
X7380759Y-21137520D01*
X7475997Y-21137520D02*
X7475997Y-21004186D01*
X7475997Y-21023234D02*
X7485521Y-21013710D01*
X7504568Y-21004186D01*
X7533140Y-21004186D01*
X7552187Y-21013710D01*
X7561711Y-21032758D01*
X7561711Y-21137520D01*
X7561711Y-21032758D02*
X7571235Y-21013710D01*
X7590282Y-21004186D01*
X7618854Y-21004186D01*
X7637902Y-21013710D01*
X7647425Y-21032758D01*
X7647425Y-21137520D01*
X8037902Y-20927996D02*
X7866473Y-21185139D01*
X8295044Y-20937520D02*
X8314092Y-20937520D01*
X8333140Y-20947043D01*
X8342663Y-20956567D01*
X8352187Y-20975615D01*
X8361711Y-21013710D01*
X8361711Y-21061329D01*
X8352187Y-21099424D01*
X8342663Y-21118472D01*
X8333140Y-21127996D01*
X8314092Y-21137520D01*
X8295044Y-21137520D01*
X8275997Y-21127996D01*
X8266473Y-21118472D01*
X8256949Y-21099424D01*
X8247425Y-21061329D01*
X8247425Y-21013710D01*
X8256949Y-20975615D01*
X8266473Y-20956567D01*
X8275997Y-20947043D01*
X8295044Y-20937520D01*
X8447425Y-21118472D02*
X8456949Y-21127996D01*
X8447425Y-21137520D01*
X8437902Y-21127996D01*
X8447425Y-21118472D01*
X8447425Y-21137520D01*
X8580759Y-20937520D02*
X8599806Y-20937520D01*
X8618854Y-20947043D01*
X8628378Y-20956567D01*
X8637902Y-20975615D01*
X8647425Y-21013710D01*
X8647425Y-21061329D01*
X8637902Y-21099424D01*
X8628378Y-21118472D01*
X8618854Y-21127996D01*
X8599806Y-21137520D01*
X8580759Y-21137520D01*
X8561711Y-21127996D01*
X8552187Y-21118472D01*
X8542664Y-21099424D01*
X8533140Y-21061329D01*
X8533140Y-21013710D01*
X8542664Y-20975615D01*
X8552187Y-20956567D01*
X8561711Y-20947043D01*
X8580759Y-20937520D01*
X8828378Y-20937520D02*
X8733140Y-20937520D01*
X8723616Y-21032758D01*
X8733140Y-21023234D01*
X8752187Y-21013710D01*
X8799806Y-21013710D01*
X8818854Y-21023234D01*
X8828378Y-21032758D01*
X8837902Y-21051805D01*
X8837902Y-21099424D01*
X8828378Y-21118472D01*
X8818854Y-21127996D01*
X8799806Y-21137520D01*
X8752187Y-21137520D01*
X8733140Y-21127996D01*
X8723616Y-21118472D01*
X8933140Y-21137520D02*
X8971235Y-21137520D01*
X8990283Y-21127996D01*
X8999806Y-21118472D01*
X9018854Y-21089901D01*
X9028378Y-21051805D01*
X9028378Y-20975615D01*
X9018854Y-20956567D01*
X9009330Y-20947043D01*
X8990283Y-20937520D01*
X8952187Y-20937520D01*
X8933140Y-20947043D01*
X8923616Y-20956567D01*
X8914092Y-20975615D01*
X8914092Y-21023234D01*
X8923616Y-21042281D01*
X8933140Y-21051805D01*
X8952187Y-21061329D01*
X8990283Y-21061329D01*
X9009330Y-21051805D01*
X9018854Y-21042281D01*
X9028378Y-21023234D01*
X9218854Y-21137520D02*
X9104568Y-21137520D01*
X9161711Y-21137520D02*
X9161711Y-20937520D01*
X9142664Y-20966091D01*
X9123616Y-20985139D01*
X9104568Y-20994662D01*
X9295044Y-20937520D02*
X9295044Y-20975615D01*
X9371235Y-20937520D02*
X9371235Y-20975615D01*
X9666473Y-21213710D02*
X9656949Y-21204186D01*
X9637902Y-21175615D01*
X9628378Y-21156567D01*
X9618854Y-21127996D01*
X9609330Y-21080377D01*
X9609330Y-21042281D01*
X9618854Y-20994662D01*
X9628378Y-20966091D01*
X9637902Y-20947043D01*
X9656949Y-20918472D01*
X9666473Y-20908948D01*
X9847425Y-21137520D02*
X9733140Y-21137520D01*
X9790283Y-21137520D02*
X9790283Y-20937520D01*
X9771235Y-20966091D01*
X9752187Y-20985139D01*
X9733140Y-20994662D01*
X10037902Y-21137520D02*
X9923616Y-21137520D01*
X9980759Y-21137520D02*
X9980759Y-20937520D01*
X9961711Y-20966091D01*
X9942664Y-20985139D01*
X9923616Y-20994662D01*
X10161711Y-20937520D02*
X10180759Y-20937520D01*
X10199806Y-20947043D01*
X10209330Y-20956567D01*
X10218854Y-20975615D01*
X10228378Y-21013710D01*
X10228378Y-21061329D01*
X10218854Y-21099424D01*
X10209330Y-21118472D01*
X10199806Y-21127996D01*
X10180759Y-21137520D01*
X10161711Y-21137520D01*
X10142664Y-21127996D01*
X10133140Y-21118472D01*
X10123616Y-21099424D01*
X10114092Y-21061329D01*
X10114092Y-21013710D01*
X10123616Y-20975615D01*
X10133140Y-20956567D01*
X10142664Y-20947043D01*
X10161711Y-20937520D01*
X10466473Y-21137520D02*
X10466473Y-20937520D01*
X10552187Y-21137520D02*
X10552187Y-21032758D01*
X10542664Y-21013710D01*
X10523616Y-21004186D01*
X10495044Y-21004186D01*
X10475997Y-21013710D01*
X10466473Y-21023234D01*
X10675997Y-21137520D02*
X10656949Y-21127996D01*
X10647425Y-21118472D01*
X10637902Y-21099424D01*
X10637902Y-21042281D01*
X10647425Y-21023234D01*
X10656949Y-21013710D01*
X10675997Y-21004186D01*
X10704568Y-21004186D01*
X10723616Y-21013710D01*
X10733140Y-21023234D01*
X10742664Y-21042281D01*
X10742664Y-21099424D01*
X10733140Y-21118472D01*
X10723616Y-21127996D01*
X10704568Y-21137520D01*
X10675997Y-21137520D01*
X10856949Y-21137520D02*
X10837902Y-21127996D01*
X10828378Y-21108948D01*
X10828378Y-20937520D01*
X11009330Y-21127996D02*
X10990283Y-21137520D01*
X10952187Y-21137520D01*
X10933140Y-21127996D01*
X10923616Y-21108948D01*
X10923616Y-21032758D01*
X10933140Y-21013710D01*
X10952187Y-21004186D01*
X10990283Y-21004186D01*
X11009330Y-21013710D01*
X11018854Y-21032758D01*
X11018854Y-21051805D01*
X10923616Y-21070853D01*
X11095044Y-21127996D02*
X11114092Y-21137520D01*
X11152187Y-21137520D01*
X11171235Y-21127996D01*
X11180759Y-21108948D01*
X11180759Y-21099424D01*
X11171235Y-21080377D01*
X11152187Y-21070853D01*
X11123616Y-21070853D01*
X11104568Y-21061329D01*
X11095044Y-21042281D01*
X11095044Y-21032758D01*
X11104568Y-21013710D01*
X11123616Y-21004186D01*
X11152187Y-21004186D01*
X11171235Y-21013710D01*
X11247425Y-21213710D02*
X11256949Y-21204186D01*
X11275997Y-21175615D01*
X11285521Y-21156567D01*
X11295044Y-21127996D01*
X11304568Y-21080377D01*
X11304568Y-21042281D01*
X11295044Y-20994662D01*
X11285521Y-20966091D01*
X11275997Y-20947043D01*
X11256949Y-20918472D01*
X11247425Y-20908948D01*
M02*
