G04 #@! TF.GenerationSoftware,KiCad,Pcbnew,(6.0.1)*
G04 #@! TF.CreationDate,2022-09-15T15:26:52-07:00*
G04 #@! TF.ProjectId,openot rev2,6f70656e-6f74-4207-9265-76322e6b6963,rev?*
G04 #@! TF.SameCoordinates,Original*
G04 #@! TF.FileFunction,Legend,Bot*
G04 #@! TF.FilePolarity,Positive*
%FSLAX46Y46*%
G04 Gerber Fmt 4.6, Leading zero omitted, Abs format (unit mm)*
G04 Created by KiCad (PCBNEW (6.0.1)) date 2022-09-15 15:26:52*
%MOMM*%
%LPD*%
G01*
G04 APERTURE LIST*
%ADD10C,0.300000*%
%ADD11C,0.120000*%
%ADD12C,0.100000*%
%ADD13C,0.150000*%
%ADD14C,0.381000*%
%ADD15C,0.127000*%
%ADD16C,0.200000*%
%ADD17R,1.752600X1.752600*%
%ADD18C,1.752600*%
G04 APERTURE END LIST*
D10*
X322127219Y-137614234D02*
G75*
G03*
X322127219Y-137614234I-521536J0D01*
G01*
D11*
X314415683Y-122934234D02*
X316515683Y-122934234D01*
X316515683Y-122934234D02*
X316515683Y-123734234D01*
X316515683Y-123734234D02*
X314415683Y-123734234D01*
X314415683Y-123734234D02*
X314415683Y-122934234D01*
G36*
X314415683Y-122934234D02*
G01*
X316515683Y-122934234D01*
X316515683Y-123734234D01*
X314415683Y-123734234D01*
X314415683Y-122934234D01*
G37*
D12*
X334726397Y-142794948D02*
X334690683Y-142830662D01*
X334654968Y-142902091D01*
X334654968Y-143080662D01*
X334690683Y-143152091D01*
X334726397Y-143187805D01*
X334797825Y-143223519D01*
X334869254Y-143223519D01*
X334976397Y-143187805D01*
X335404968Y-142759234D01*
X335404968Y-143223519D01*
X335333540Y-143544948D02*
X335369254Y-143580662D01*
X335404968Y-143544948D01*
X335369254Y-143509234D01*
X335333540Y-143544948D01*
X335404968Y-143544948D01*
X334726397Y-143866376D02*
X334690683Y-143902091D01*
X334654968Y-143973519D01*
X334654968Y-144152091D01*
X334690683Y-144223519D01*
X334726397Y-144259234D01*
X334797825Y-144294948D01*
X334869254Y-144294948D01*
X334976397Y-144259234D01*
X335404968Y-143830662D01*
X335404968Y-144294948D01*
X334904968Y-144937805D02*
X335404968Y-144937805D01*
X334904968Y-144616376D02*
X335297825Y-144616376D01*
X335369254Y-144652091D01*
X335404968Y-144723519D01*
X335404968Y-144830662D01*
X335369254Y-144902091D01*
X335333540Y-144937805D01*
X343322254Y-131263519D02*
X343322254Y-130513519D01*
X343072254Y-131049234D01*
X342822254Y-130513519D01*
X342822254Y-131263519D01*
X342322254Y-130513519D02*
X342179397Y-130513519D01*
X342107968Y-130549234D01*
X342036540Y-130620662D01*
X342000825Y-130763519D01*
X342000825Y-131013519D01*
X342036540Y-131156376D01*
X342107968Y-131227805D01*
X342179397Y-131263519D01*
X342322254Y-131263519D01*
X342393683Y-131227805D01*
X342465111Y-131156376D01*
X342500825Y-131013519D01*
X342500825Y-130763519D01*
X342465111Y-130620662D01*
X342393683Y-130549234D01*
X342322254Y-130513519D01*
X341715111Y-131227805D02*
X341607968Y-131263519D01*
X341429397Y-131263519D01*
X341357968Y-131227805D01*
X341322254Y-131192091D01*
X341286540Y-131120662D01*
X341286540Y-131049234D01*
X341322254Y-130977805D01*
X341357968Y-130942091D01*
X341429397Y-130906376D01*
X341572254Y-130870662D01*
X341643683Y-130834948D01*
X341679397Y-130799234D01*
X341715111Y-130727805D01*
X341715111Y-130656376D01*
X341679397Y-130584948D01*
X341643683Y-130549234D01*
X341572254Y-130513519D01*
X341393683Y-130513519D01*
X341286540Y-130549234D01*
X340965111Y-131263519D02*
X340965111Y-130513519D01*
X335304968Y-133852091D02*
X335304968Y-133423519D01*
X335304968Y-133637805D02*
X334554968Y-133637805D01*
X334662111Y-133566376D01*
X334733540Y-133494948D01*
X334769254Y-133423519D01*
X334554968Y-134316376D02*
X334554968Y-134387805D01*
X334590683Y-134459234D01*
X334626397Y-134494948D01*
X334697825Y-134530662D01*
X334840683Y-134566376D01*
X335019254Y-134566376D01*
X335162111Y-134530662D01*
X335233540Y-134494948D01*
X335269254Y-134459234D01*
X335304968Y-134387805D01*
X335304968Y-134316376D01*
X335269254Y-134244948D01*
X335233540Y-134209234D01*
X335162111Y-134173519D01*
X335019254Y-134137805D01*
X334840683Y-134137805D01*
X334697825Y-134173519D01*
X334626397Y-134209234D01*
X334590683Y-134244948D01*
X334554968Y-134316376D01*
X334804968Y-135209234D02*
X335304968Y-135209234D01*
X334804968Y-134887805D02*
X335197825Y-134887805D01*
X335269254Y-134923519D01*
X335304968Y-134994948D01*
X335304968Y-135102091D01*
X335269254Y-135173519D01*
X335233540Y-135209234D01*
X339426397Y-115609234D02*
X339426397Y-116037805D01*
X339426397Y-115823519D02*
X340176397Y-115823519D01*
X340069254Y-115894948D01*
X339997825Y-115966376D01*
X339962111Y-116037805D01*
X339926397Y-114966376D02*
X339426397Y-114966376D01*
X339926397Y-115287805D02*
X339533540Y-115287805D01*
X339462111Y-115252091D01*
X339426397Y-115180662D01*
X339426397Y-115073519D01*
X339462111Y-115002091D01*
X339497825Y-114966376D01*
X343322254Y-136017805D02*
X342750826Y-136017805D01*
X343036540Y-136303519D02*
X343036540Y-135732091D01*
X342036540Y-135553519D02*
X342393683Y-135553519D01*
X342429397Y-135910662D01*
X342393683Y-135874948D01*
X342322254Y-135839234D01*
X342143683Y-135839234D01*
X342072254Y-135874948D01*
X342036540Y-135910662D01*
X342000826Y-135982091D01*
X342000826Y-136160662D01*
X342036540Y-136232091D01*
X342072254Y-136267805D01*
X342143683Y-136303519D01*
X342322254Y-136303519D01*
X342393683Y-136267805D01*
X342429397Y-136232091D01*
X341786540Y-135553519D02*
X341536540Y-136303519D01*
X341286540Y-135553519D01*
X340937111Y-140809234D02*
X341008540Y-140773519D01*
X341115683Y-140773519D01*
X341222825Y-140809234D01*
X341294254Y-140880662D01*
X341329968Y-140952091D01*
X341365683Y-141094948D01*
X341365683Y-141202091D01*
X341329968Y-141344948D01*
X341294254Y-141416376D01*
X341222825Y-141487805D01*
X341115683Y-141523519D01*
X341044254Y-141523519D01*
X340937111Y-141487805D01*
X340901397Y-141452091D01*
X340901397Y-141202091D01*
X341044254Y-141202091D01*
X340579968Y-141523519D02*
X340579968Y-140773519D01*
X340151397Y-141523519D01*
X340151397Y-140773519D01*
X339794254Y-141523519D02*
X339794254Y-140773519D01*
X339615683Y-140773519D01*
X339508540Y-140809234D01*
X339437111Y-140880662D01*
X339401397Y-140952091D01*
X339365683Y-141094948D01*
X339365683Y-141202091D01*
X339401397Y-141344948D01*
X339437111Y-141416376D01*
X339508540Y-141487805D01*
X339615683Y-141523519D01*
X339794254Y-141523519D01*
X344708540Y-137623519D02*
X345065683Y-137623519D01*
X345101397Y-137980662D01*
X345065683Y-137944948D01*
X344994254Y-137909234D01*
X344815683Y-137909234D01*
X344744254Y-137944948D01*
X344708540Y-137980662D01*
X344672825Y-138052091D01*
X344672825Y-138230662D01*
X344708540Y-138302091D01*
X344744254Y-138337805D01*
X344815683Y-138373519D01*
X344994254Y-138373519D01*
X345065683Y-138337805D01*
X345101397Y-138302091D01*
X344458540Y-137623519D02*
X344208540Y-138373519D01*
X343958540Y-137623519D01*
X342929397Y-122989234D02*
X343000826Y-122953519D01*
X343107969Y-122953519D01*
X343215111Y-122989234D01*
X343286540Y-123060662D01*
X343322254Y-123132091D01*
X343357969Y-123274948D01*
X343357969Y-123382091D01*
X343322254Y-123524948D01*
X343286540Y-123596376D01*
X343215111Y-123667805D01*
X343107969Y-123703519D01*
X343036540Y-123703519D01*
X342929397Y-123667805D01*
X342893683Y-123632091D01*
X342893683Y-123382091D01*
X343036540Y-123382091D01*
X342572254Y-123703519D02*
X342572254Y-122953519D01*
X342143683Y-123703519D01*
X342143683Y-122953519D01*
X341786540Y-123703519D02*
X341786540Y-122953519D01*
X341607969Y-122953519D01*
X341500826Y-122989234D01*
X341429397Y-123060662D01*
X341393683Y-123132091D01*
X341357969Y-123274948D01*
X341357969Y-123382091D01*
X341393683Y-123524948D01*
X341429397Y-123596376D01*
X341500826Y-123667805D01*
X341607969Y-123703519D01*
X341786540Y-123703519D01*
X334357111Y-139819234D02*
X334428540Y-139783519D01*
X334535683Y-139783519D01*
X334642825Y-139819234D01*
X334714254Y-139890662D01*
X334749968Y-139962091D01*
X334785683Y-140104948D01*
X334785683Y-140212091D01*
X334749968Y-140354948D01*
X334714254Y-140426376D01*
X334642825Y-140497805D01*
X334535683Y-140533519D01*
X334464254Y-140533519D01*
X334357111Y-140497805D01*
X334321397Y-140462091D01*
X334321397Y-140212091D01*
X334464254Y-140212091D01*
X333999968Y-140533519D02*
X333999968Y-139783519D01*
X333571397Y-140533519D01*
X333571397Y-139783519D01*
X333214254Y-140533519D02*
X333214254Y-139783519D01*
X333035683Y-139783519D01*
X332928540Y-139819234D01*
X332857111Y-139890662D01*
X332821397Y-139962091D01*
X332785683Y-140104948D01*
X332785683Y-140212091D01*
X332821397Y-140354948D01*
X332857111Y-140426376D01*
X332928540Y-140497805D01*
X333035683Y-140533519D01*
X333214254Y-140533519D01*
X335304968Y-129517805D02*
X335304968Y-129089234D01*
X335304968Y-129303519D02*
X334554968Y-129303519D01*
X334662111Y-129232091D01*
X334733540Y-129160662D01*
X334769254Y-129089234D01*
X334554968Y-129982091D02*
X334554968Y-130053519D01*
X334590683Y-130124948D01*
X334626397Y-130160662D01*
X334697825Y-130196376D01*
X334840683Y-130232091D01*
X335019254Y-130232091D01*
X335162111Y-130196376D01*
X335233540Y-130160662D01*
X335269254Y-130124948D01*
X335304968Y-130053519D01*
X335304968Y-129982091D01*
X335269254Y-129910662D01*
X335233540Y-129874948D01*
X335162111Y-129839234D01*
X335019254Y-129803519D01*
X334840683Y-129803519D01*
X334697825Y-129839234D01*
X334626397Y-129874948D01*
X334590683Y-129910662D01*
X334554968Y-129982091D01*
X335304968Y-130553519D02*
X334554968Y-130553519D01*
X335019254Y-130624948D02*
X335304968Y-130839234D01*
X334804968Y-130839234D02*
X335090683Y-130553519D01*
X341669254Y-122330662D02*
X341419254Y-122330662D01*
X341312111Y-122723519D02*
X341669254Y-122723519D01*
X341669254Y-121973519D01*
X341312111Y-121973519D01*
X340990683Y-122723519D02*
X340990683Y-121973519D01*
X340562111Y-122723519D01*
X340562111Y-121973519D01*
X332112111Y-112473519D02*
X332540683Y-112473519D01*
X332326397Y-112473519D02*
X332326397Y-111723519D01*
X332397825Y-111830662D01*
X332469254Y-111902091D01*
X332540683Y-111937805D01*
X331647825Y-111723519D02*
X331576397Y-111723519D01*
X331504968Y-111759234D01*
X331469254Y-111794948D01*
X331433540Y-111866376D01*
X331397825Y-112009234D01*
X331397825Y-112187805D01*
X331433540Y-112330662D01*
X331469254Y-112402091D01*
X331504968Y-112437805D01*
X331576397Y-112473519D01*
X331647825Y-112473519D01*
X331719254Y-112437805D01*
X331754968Y-112402091D01*
X331790683Y-112330662D01*
X331826397Y-112187805D01*
X331826397Y-112009234D01*
X331790683Y-111866376D01*
X331754968Y-111794948D01*
X331719254Y-111759234D01*
X331647825Y-111723519D01*
X331076397Y-112473519D02*
X331076397Y-111723519D01*
X331004968Y-112187805D02*
X330790683Y-112473519D01*
X330790683Y-111973519D02*
X331076397Y-112259234D01*
X341258540Y-119873519D02*
X341615683Y-119873519D01*
X341651397Y-120230662D01*
X341615683Y-120194948D01*
X341544254Y-120159234D01*
X341365683Y-120159234D01*
X341294254Y-120194948D01*
X341258540Y-120230662D01*
X341222825Y-120302091D01*
X341222825Y-120480662D01*
X341258540Y-120552091D01*
X341294254Y-120587805D01*
X341365683Y-120623519D01*
X341544254Y-120623519D01*
X341615683Y-120587805D01*
X341651397Y-120552091D01*
X341008540Y-119873519D02*
X340758540Y-120623519D01*
X340508540Y-119873519D01*
X334762111Y-112473519D02*
X335190683Y-112473519D01*
X334976397Y-112473519D02*
X334976397Y-111723519D01*
X335047825Y-111830662D01*
X335119254Y-111902091D01*
X335190683Y-111937805D01*
X334083540Y-111723519D02*
X334440683Y-111723519D01*
X334476397Y-112080662D01*
X334440683Y-112044948D01*
X334369254Y-112009234D01*
X334190683Y-112009234D01*
X334119254Y-112044948D01*
X334083540Y-112080662D01*
X334047825Y-112152091D01*
X334047825Y-112330662D01*
X334083540Y-112402091D01*
X334119254Y-112437805D01*
X334190683Y-112473519D01*
X334369254Y-112473519D01*
X334440683Y-112437805D01*
X334476397Y-112402091D01*
X333726397Y-112473519D02*
X333726397Y-111723519D01*
X333654968Y-112187805D02*
X333440683Y-112473519D01*
X333440683Y-111973519D02*
X333726397Y-112259234D01*
X335326397Y-119944948D02*
X335290683Y-119909234D01*
X335219254Y-119873519D01*
X335040683Y-119873519D01*
X334969254Y-119909234D01*
X334933540Y-119944948D01*
X334897825Y-120016376D01*
X334897825Y-120087805D01*
X334933540Y-120194948D01*
X335362111Y-120623519D01*
X334897825Y-120623519D01*
X334683540Y-119873519D02*
X334433540Y-120623519D01*
X334183540Y-119873519D01*
X342151397Y-120959234D02*
X342222826Y-120923519D01*
X342329969Y-120923519D01*
X342437111Y-120959234D01*
X342508540Y-121030662D01*
X342544254Y-121102091D01*
X342579969Y-121244948D01*
X342579969Y-121352091D01*
X342544254Y-121494948D01*
X342508540Y-121566376D01*
X342437111Y-121637805D01*
X342329969Y-121673519D01*
X342258540Y-121673519D01*
X342151397Y-121637805D01*
X342115683Y-121602091D01*
X342115683Y-121352091D01*
X342258540Y-121352091D01*
X341794254Y-121673519D02*
X341794254Y-120923519D01*
X341365683Y-121673519D01*
X341365683Y-120923519D01*
X341008540Y-121673519D02*
X341008540Y-120923519D01*
X340829969Y-120923519D01*
X340722826Y-120959234D01*
X340651397Y-121030662D01*
X340615683Y-121102091D01*
X340579969Y-121244948D01*
X340579969Y-121352091D01*
X340615683Y-121494948D01*
X340651397Y-121566376D01*
X340722826Y-121637805D01*
X340829969Y-121673519D01*
X341008540Y-121673519D01*
X343357968Y-133747805D02*
X343250825Y-133783519D01*
X343072254Y-133783519D01*
X343000825Y-133747805D01*
X342965111Y-133712091D01*
X342929397Y-133640662D01*
X342929397Y-133569234D01*
X342965111Y-133497805D01*
X343000825Y-133462091D01*
X343072254Y-133426376D01*
X343215111Y-133390662D01*
X343286540Y-133354948D01*
X343322254Y-133319234D01*
X343357968Y-133247805D01*
X343357968Y-133176376D01*
X343322254Y-133104948D01*
X343286540Y-133069234D01*
X343215111Y-133033519D01*
X343036540Y-133033519D01*
X342929397Y-133069234D01*
X342643682Y-133747805D02*
X342536540Y-133783519D01*
X342357968Y-133783519D01*
X342286540Y-133747805D01*
X342250825Y-133712091D01*
X342215111Y-133640662D01*
X342215111Y-133569234D01*
X342250825Y-133497805D01*
X342286540Y-133462091D01*
X342357968Y-133426376D01*
X342500825Y-133390662D01*
X342572254Y-133354948D01*
X342607968Y-133319234D01*
X342643682Y-133247805D01*
X342643682Y-133176376D01*
X342607968Y-133104948D01*
X342572254Y-133069234D01*
X342500825Y-133033519D01*
X342322254Y-133033519D01*
X342215111Y-133069234D01*
X326604968Y-139577091D02*
X326604968Y-140041376D01*
X326890683Y-139791376D01*
X326890683Y-139898519D01*
X326926397Y-139969948D01*
X326962111Y-140005662D01*
X327033540Y-140041376D01*
X327212111Y-140041376D01*
X327283540Y-140005662D01*
X327319254Y-139969948D01*
X327354968Y-139898519D01*
X327354968Y-139684234D01*
X327319254Y-139612805D01*
X327283540Y-139577091D01*
X327354968Y-140398519D02*
X327354968Y-140541376D01*
X327319254Y-140612805D01*
X327283540Y-140648519D01*
X327176397Y-140719948D01*
X327033540Y-140755662D01*
X326747825Y-140755662D01*
X326676397Y-140719948D01*
X326640683Y-140684234D01*
X326604968Y-140612805D01*
X326604968Y-140469948D01*
X326640683Y-140398519D01*
X326676397Y-140362805D01*
X326747825Y-140327091D01*
X326926397Y-140327091D01*
X326997825Y-140362805D01*
X327033540Y-140398519D01*
X327069254Y-140469948D01*
X327069254Y-140612805D01*
X327033540Y-140684234D01*
X326997825Y-140719948D01*
X326926397Y-140755662D01*
X335304968Y-125789234D02*
X335304968Y-125360662D01*
X335304968Y-125574948D02*
X334554968Y-125574948D01*
X334662111Y-125503519D01*
X334733540Y-125432091D01*
X334769254Y-125360662D01*
X334804968Y-126432091D02*
X335304968Y-126432091D01*
X334804968Y-126110662D02*
X335197825Y-126110662D01*
X335269254Y-126146376D01*
X335304968Y-126217805D01*
X335304968Y-126324948D01*
X335269254Y-126396376D01*
X335233540Y-126432091D01*
X343322254Y-126223519D02*
X343322254Y-125473519D01*
X343072254Y-126009234D01*
X342822254Y-125473519D01*
X342822254Y-126223519D01*
X342465111Y-126223519D02*
X342465111Y-125473519D01*
X342143683Y-126187805D02*
X342036540Y-126223519D01*
X341857968Y-126223519D01*
X341786540Y-126187805D01*
X341750825Y-126152091D01*
X341715111Y-126080662D01*
X341715111Y-126009234D01*
X341750825Y-125937805D01*
X341786540Y-125902091D01*
X341857968Y-125866376D01*
X342000825Y-125830662D01*
X342072254Y-125794948D01*
X342107968Y-125759234D01*
X342143683Y-125687805D01*
X342143683Y-125616376D01*
X342107968Y-125544948D01*
X342072254Y-125509234D01*
X342000825Y-125473519D01*
X341822254Y-125473519D01*
X341715111Y-125509234D01*
X341250825Y-125473519D02*
X341107968Y-125473519D01*
X341036540Y-125509234D01*
X340965111Y-125580662D01*
X340929397Y-125723519D01*
X340929397Y-125973519D01*
X340965111Y-126116376D01*
X341036540Y-126187805D01*
X341107968Y-126223519D01*
X341250825Y-126223519D01*
X341322254Y-126187805D01*
X341393683Y-126116376D01*
X341429397Y-125973519D01*
X341429397Y-125723519D01*
X341393683Y-125580662D01*
X341322254Y-125509234D01*
X341250825Y-125473519D01*
X340772825Y-136573519D02*
X340308540Y-136573519D01*
X340558540Y-136859234D01*
X340451397Y-136859234D01*
X340379968Y-136894948D01*
X340344254Y-136930662D01*
X340308540Y-137002091D01*
X340308540Y-137180662D01*
X340344254Y-137252091D01*
X340379968Y-137287805D01*
X340451397Y-137323519D01*
X340665683Y-137323519D01*
X340737111Y-137287805D01*
X340772825Y-137252091D01*
X339987111Y-137252091D02*
X339951397Y-137287805D01*
X339987111Y-137323519D01*
X340022825Y-137287805D01*
X339987111Y-137252091D01*
X339987111Y-137323519D01*
X339701397Y-136573519D02*
X339237111Y-136573519D01*
X339487111Y-136859234D01*
X339379968Y-136859234D01*
X339308540Y-136894948D01*
X339272825Y-136930662D01*
X339237111Y-137002091D01*
X339237111Y-137180662D01*
X339272825Y-137252091D01*
X339308540Y-137287805D01*
X339379968Y-137323519D01*
X339594254Y-137323519D01*
X339665683Y-137287805D01*
X339701397Y-137252091D01*
X339022825Y-136573519D02*
X338772825Y-137323519D01*
X338522825Y-136573519D01*
X335404968Y-122309234D02*
X335047825Y-122309234D01*
X335476397Y-122523519D02*
X335226397Y-121773519D01*
X334976397Y-122523519D01*
X334726397Y-122523519D02*
X334726397Y-121773519D01*
X334547825Y-121773519D01*
X334440683Y-121809234D01*
X334369254Y-121880662D01*
X334333540Y-121952091D01*
X334297825Y-122094948D01*
X334297825Y-122202091D01*
X334333540Y-122344948D01*
X334369254Y-122416376D01*
X334440683Y-122487805D01*
X334547825Y-122523519D01*
X334726397Y-122523519D01*
X333762111Y-121773519D02*
X333762111Y-122309234D01*
X333797825Y-122416376D01*
X333869254Y-122487805D01*
X333976397Y-122523519D01*
X334047825Y-122523519D01*
X313754968Y-135052091D02*
X314254968Y-135052091D01*
X313469254Y-134873519D02*
X314004968Y-134694948D01*
X314004968Y-135159234D01*
X314183540Y-135444948D02*
X314219254Y-135480662D01*
X314254968Y-135444948D01*
X314219254Y-135409234D01*
X314183540Y-135444948D01*
X314254968Y-135444948D01*
X313504968Y-135730662D02*
X313504968Y-136230662D01*
X314254968Y-135909234D01*
X313754968Y-136837805D02*
X314254968Y-136837805D01*
X313754968Y-136516376D02*
X314147825Y-136516376D01*
X314219254Y-136552091D01*
X314254968Y-136623519D01*
X314254968Y-136730662D01*
X314219254Y-136802091D01*
X314183540Y-136837805D01*
X343357968Y-128707805D02*
X343250825Y-128743519D01*
X343072254Y-128743519D01*
X343000825Y-128707805D01*
X342965111Y-128672091D01*
X342929397Y-128600662D01*
X342929397Y-128529234D01*
X342965111Y-128457805D01*
X343000825Y-128422091D01*
X343072254Y-128386376D01*
X343215111Y-128350662D01*
X343286540Y-128314948D01*
X343322254Y-128279234D01*
X343357968Y-128207805D01*
X343357968Y-128136376D01*
X343322254Y-128064948D01*
X343286540Y-128029234D01*
X343215111Y-127993519D01*
X343036540Y-127993519D01*
X342929397Y-128029234D01*
X342179397Y-128672091D02*
X342215111Y-128707805D01*
X342322254Y-128743519D01*
X342393683Y-128743519D01*
X342500825Y-128707805D01*
X342572254Y-128636376D01*
X342607968Y-128564948D01*
X342643683Y-128422091D01*
X342643683Y-128314948D01*
X342607968Y-128172091D01*
X342572254Y-128100662D01*
X342500825Y-128029234D01*
X342393683Y-127993519D01*
X342322254Y-127993519D01*
X342215111Y-128029234D01*
X342179397Y-128064948D01*
X341857968Y-128743519D02*
X341857968Y-127993519D01*
X341429397Y-128743519D02*
X341750825Y-128314948D01*
X341429397Y-127993519D02*
X341857968Y-128422091D01*
D13*
X361336016Y-88535243D02*
X361221730Y-88573338D01*
X361031254Y-88573338D01*
X360955063Y-88535243D01*
X360916968Y-88497148D01*
X360878873Y-88420957D01*
X360878873Y-88344767D01*
X360916968Y-88268576D01*
X360955063Y-88230481D01*
X361031254Y-88192386D01*
X361183635Y-88154291D01*
X361259825Y-88116195D01*
X361297921Y-88078100D01*
X361336016Y-88001910D01*
X361336016Y-87925719D01*
X361297921Y-87849529D01*
X361259825Y-87811434D01*
X361183635Y-87773338D01*
X360993159Y-87773338D01*
X360878873Y-87811434D01*
X360650302Y-87773338D02*
X360193159Y-87773338D01*
X360421730Y-88573338D02*
X360421730Y-87773338D01*
X361547492Y-105954291D02*
X361433206Y-105992386D01*
X361395111Y-106030481D01*
X361357016Y-106106672D01*
X361357016Y-106220957D01*
X361395111Y-106297148D01*
X361433206Y-106335243D01*
X361509397Y-106373338D01*
X361814159Y-106373338D01*
X361814159Y-105573338D01*
X361547492Y-105573338D01*
X361471302Y-105611434D01*
X361433206Y-105649529D01*
X361395111Y-105725719D01*
X361395111Y-105801910D01*
X361433206Y-105878100D01*
X361471302Y-105916195D01*
X361547492Y-105954291D01*
X361814159Y-105954291D01*
X361090349Y-105573338D02*
X360595111Y-105573338D01*
X360861778Y-105878100D01*
X360747492Y-105878100D01*
X360671302Y-105916195D01*
X360633206Y-105954291D01*
X360595111Y-106030481D01*
X360595111Y-106220957D01*
X360633206Y-106297148D01*
X360671302Y-106335243D01*
X360747492Y-106373338D01*
X360976063Y-106373338D01*
X361052254Y-106335243D01*
X361090349Y-106297148D01*
X354381287Y-82713338D02*
X353924144Y-82713338D01*
X354152715Y-83513338D02*
X354152715Y-82713338D01*
X353733668Y-82713338D02*
X353200334Y-83513338D01*
X353200334Y-82713338D02*
X353733668Y-83513338D01*
X352743191Y-82713338D02*
X352667001Y-82713338D01*
X352590811Y-82751434D01*
X352552715Y-82789529D01*
X352514620Y-82865719D01*
X352476525Y-83018100D01*
X352476525Y-83208576D01*
X352514620Y-83360957D01*
X352552715Y-83437148D01*
X352590811Y-83475243D01*
X352667001Y-83513338D01*
X352743191Y-83513338D01*
X352819382Y-83475243D01*
X352857477Y-83437148D01*
X352895572Y-83360957D01*
X352933668Y-83208576D01*
X352933668Y-83018100D01*
X352895572Y-82865719D01*
X352857477Y-82789529D01*
X352819382Y-82751434D01*
X352743191Y-82713338D01*
X351562239Y-82675243D02*
X352247953Y-83703814D01*
X351295572Y-83513338D02*
X351295572Y-82713338D01*
X351105096Y-82713338D01*
X350990811Y-82751434D01*
X350914620Y-82827624D01*
X350876525Y-82903814D01*
X350838430Y-83056195D01*
X350838430Y-83170481D01*
X350876525Y-83322862D01*
X350914620Y-83399053D01*
X350990811Y-83475243D01*
X351105096Y-83513338D01*
X351295572Y-83513338D01*
X350571763Y-82713338D02*
X350076525Y-82713338D01*
X350343191Y-83018100D01*
X350228906Y-83018100D01*
X350152715Y-83056195D01*
X350114620Y-83094291D01*
X350076525Y-83170481D01*
X350076525Y-83360957D01*
X350114620Y-83437148D01*
X350152715Y-83475243D01*
X350228906Y-83513338D01*
X350457477Y-83513338D01*
X350533668Y-83475243D01*
X350571763Y-83437148D01*
X353813159Y-109883338D02*
X353813159Y-109083338D01*
X353622683Y-109083338D01*
X353508397Y-109121434D01*
X353432206Y-109197624D01*
X353394111Y-109273814D01*
X353356016Y-109426195D01*
X353356016Y-109540481D01*
X353394111Y-109692862D01*
X353432206Y-109769053D01*
X353508397Y-109845243D01*
X353622683Y-109883338D01*
X353813159Y-109883338D01*
X352632206Y-109083338D02*
X353013159Y-109083338D01*
X353051254Y-109464291D01*
X353013159Y-109426195D01*
X352936968Y-109388100D01*
X352746492Y-109388100D01*
X352670302Y-109426195D01*
X352632206Y-109464291D01*
X352594111Y-109540481D01*
X352594111Y-109730957D01*
X352632206Y-109807148D01*
X352670302Y-109845243D01*
X352746492Y-109883338D01*
X352936968Y-109883338D01*
X353013159Y-109845243D01*
X353051254Y-109807148D01*
X351546016Y-109671434D02*
X351446016Y-109704767D01*
X351412683Y-109738100D01*
X351379349Y-109804767D01*
X351379349Y-109904767D01*
X351412683Y-109971434D01*
X351446016Y-110004767D01*
X351512683Y-110038100D01*
X351779349Y-110038100D01*
X351779349Y-109338100D01*
X351546016Y-109338100D01*
X351479349Y-109371434D01*
X351446016Y-109404767D01*
X351412683Y-109471434D01*
X351412683Y-109538100D01*
X351446016Y-109604767D01*
X351479349Y-109638100D01*
X351546016Y-109671434D01*
X351779349Y-109671434D01*
X351146016Y-109338100D02*
X350679349Y-109338100D01*
X350979349Y-110038100D01*
X350625492Y-108494291D02*
X350511206Y-108532386D01*
X350473111Y-108570481D01*
X350435016Y-108646672D01*
X350435016Y-108760957D01*
X350473111Y-108837148D01*
X350511206Y-108875243D01*
X350587397Y-108913338D01*
X350892159Y-108913338D01*
X350892159Y-108113338D01*
X350625492Y-108113338D01*
X350549302Y-108151434D01*
X350511206Y-108189529D01*
X350473111Y-108265719D01*
X350473111Y-108341910D01*
X350511206Y-108418100D01*
X350549302Y-108456195D01*
X350625492Y-108494291D01*
X350892159Y-108494291D01*
X349749302Y-108380005D02*
X349749302Y-108913338D01*
X349939778Y-108075243D02*
X350130254Y-108646672D01*
X349635016Y-108646672D01*
X350911206Y-87831434D02*
X350987397Y-87793338D01*
X351101683Y-87793338D01*
X351215968Y-87831434D01*
X351292159Y-87907624D01*
X351330254Y-87983814D01*
X351368349Y-88136195D01*
X351368349Y-88250481D01*
X351330254Y-88402862D01*
X351292159Y-88479053D01*
X351215968Y-88555243D01*
X351101683Y-88593338D01*
X351025492Y-88593338D01*
X350911206Y-88555243D01*
X350873111Y-88517148D01*
X350873111Y-88250481D01*
X351025492Y-88250481D01*
X350530254Y-88593338D02*
X350530254Y-87793338D01*
X350073111Y-88593338D01*
X350073111Y-87793338D01*
X349692159Y-88593338D02*
X349692159Y-87793338D01*
X349501683Y-87793338D01*
X349387397Y-87831434D01*
X349311206Y-87907624D01*
X349273111Y-87983814D01*
X349235016Y-88136195D01*
X349235016Y-88250481D01*
X349273111Y-88402862D01*
X349311206Y-88479053D01*
X349387397Y-88555243D01*
X349501683Y-88593338D01*
X349692159Y-88593338D01*
X350892159Y-103833338D02*
X350892159Y-103033338D01*
X350701683Y-103033338D01*
X350587397Y-103071434D01*
X350511206Y-103147624D01*
X350473111Y-103223814D01*
X350435016Y-103376195D01*
X350435016Y-103490481D01*
X350473111Y-103642862D01*
X350511206Y-103719053D01*
X350587397Y-103795243D01*
X350701683Y-103833338D01*
X350892159Y-103833338D01*
X350168349Y-103033338D02*
X349635016Y-103033338D01*
X349977873Y-103833338D01*
X361490349Y-98334291D02*
X361757016Y-98334291D01*
X361757016Y-98753338D02*
X361757016Y-97953338D01*
X361376063Y-97953338D01*
X360728444Y-97953338D02*
X360880825Y-97953338D01*
X360957016Y-97991434D01*
X360995111Y-98029529D01*
X361071302Y-98143814D01*
X361109397Y-98296195D01*
X361109397Y-98600957D01*
X361071302Y-98677148D01*
X361033206Y-98715243D01*
X360957016Y-98753338D01*
X360804635Y-98753338D01*
X360728444Y-98715243D01*
X360690349Y-98677148D01*
X360652254Y-98600957D01*
X360652254Y-98410481D01*
X360690349Y-98334291D01*
X360728444Y-98296195D01*
X360804635Y-98258100D01*
X360957016Y-98258100D01*
X361033206Y-98296195D01*
X361071302Y-98334291D01*
X361109397Y-98410481D01*
X350911206Y-90371434D02*
X350987397Y-90333338D01*
X351101683Y-90333338D01*
X351215968Y-90371434D01*
X351292159Y-90447624D01*
X351330254Y-90523814D01*
X351368349Y-90676195D01*
X351368349Y-90790481D01*
X351330254Y-90942862D01*
X351292159Y-91019053D01*
X351215968Y-91095243D01*
X351101683Y-91133338D01*
X351025492Y-91133338D01*
X350911206Y-91095243D01*
X350873111Y-91057148D01*
X350873111Y-90790481D01*
X351025492Y-90790481D01*
X350530254Y-91133338D02*
X350530254Y-90333338D01*
X350073111Y-91133338D01*
X350073111Y-90333338D01*
X349692159Y-91133338D02*
X349692159Y-90333338D01*
X349501683Y-90333338D01*
X349387397Y-90371434D01*
X349311206Y-90447624D01*
X349273111Y-90523814D01*
X349235016Y-90676195D01*
X349235016Y-90790481D01*
X349273111Y-90942862D01*
X349311206Y-91019053D01*
X349387397Y-91095243D01*
X349501683Y-91133338D01*
X349692159Y-91133338D01*
X361490349Y-93254291D02*
X361757016Y-93254291D01*
X361757016Y-93673338D02*
X361757016Y-92873338D01*
X361376063Y-92873338D01*
X360728444Y-93140005D02*
X360728444Y-93673338D01*
X360918921Y-92835243D02*
X361109397Y-93406672D01*
X360614159Y-93406672D01*
X350892159Y-93673338D02*
X350892159Y-92873338D01*
X350701683Y-92873338D01*
X350587397Y-92911434D01*
X350511206Y-92987624D01*
X350473111Y-93063814D01*
X350435016Y-93216195D01*
X350435016Y-93330481D01*
X350473111Y-93482862D01*
X350511206Y-93559053D01*
X350587397Y-93635243D01*
X350701683Y-93673338D01*
X350892159Y-93673338D01*
X349673111Y-93673338D02*
X350130254Y-93673338D01*
X349901683Y-93673338D02*
X349901683Y-92873338D01*
X349977873Y-92987624D01*
X350054063Y-93063814D01*
X350130254Y-93101910D01*
X362290349Y-90333338D02*
X362023683Y-91133338D01*
X361757016Y-90333338D01*
X361033206Y-91057148D02*
X361071302Y-91095243D01*
X361185587Y-91133338D01*
X361261778Y-91133338D01*
X361376063Y-91095243D01*
X361452254Y-91019053D01*
X361490349Y-90942862D01*
X361528444Y-90790481D01*
X361528444Y-90676195D01*
X361490349Y-90523814D01*
X361452254Y-90447624D01*
X361376063Y-90371434D01*
X361261778Y-90333338D01*
X361185587Y-90333338D01*
X361071302Y-90371434D01*
X361033206Y-90409529D01*
X360233206Y-91057148D02*
X360271302Y-91095243D01*
X360385587Y-91133338D01*
X360461778Y-91133338D01*
X360576063Y-91095243D01*
X360652254Y-91019053D01*
X360690349Y-90942862D01*
X360728444Y-90790481D01*
X360728444Y-90676195D01*
X360690349Y-90523814D01*
X360652254Y-90447624D01*
X360576063Y-90371434D01*
X360461778Y-90333338D01*
X360385587Y-90333338D01*
X360271302Y-90371434D01*
X360233206Y-90409529D01*
X361547492Y-83094291D02*
X361433206Y-83132386D01*
X361395111Y-83170481D01*
X361357016Y-83246672D01*
X361357016Y-83360957D01*
X361395111Y-83437148D01*
X361433206Y-83475243D01*
X361509397Y-83513338D01*
X361814159Y-83513338D01*
X361814159Y-82713338D01*
X361547492Y-82713338D01*
X361471302Y-82751434D01*
X361433206Y-82789529D01*
X361395111Y-82865719D01*
X361395111Y-82941910D01*
X361433206Y-83018100D01*
X361471302Y-83056195D01*
X361547492Y-83094291D01*
X361814159Y-83094291D01*
X360861778Y-82713338D02*
X360785587Y-82713338D01*
X360709397Y-82751434D01*
X360671302Y-82789529D01*
X360633206Y-82865719D01*
X360595111Y-83018100D01*
X360595111Y-83208576D01*
X360633206Y-83360957D01*
X360671302Y-83437148D01*
X360709397Y-83475243D01*
X360785587Y-83513338D01*
X360861778Y-83513338D01*
X360937968Y-83475243D01*
X360976063Y-83437148D01*
X361014159Y-83360957D01*
X361052254Y-83208576D01*
X361052254Y-83018100D01*
X361014159Y-82865719D01*
X360976063Y-82789529D01*
X360937968Y-82751434D01*
X360861778Y-82713338D01*
X350892159Y-96213338D02*
X350892159Y-95413338D01*
X350701683Y-95413338D01*
X350587397Y-95451434D01*
X350511206Y-95527624D01*
X350473111Y-95603814D01*
X350435016Y-95756195D01*
X350435016Y-95870481D01*
X350473111Y-96022862D01*
X350511206Y-96099053D01*
X350587397Y-96175243D01*
X350701683Y-96213338D01*
X350892159Y-96213338D01*
X349939778Y-95413338D02*
X349863587Y-95413338D01*
X349787397Y-95451434D01*
X349749302Y-95489529D01*
X349711206Y-95565719D01*
X349673111Y-95718100D01*
X349673111Y-95908576D01*
X349711206Y-96060957D01*
X349749302Y-96137148D01*
X349787397Y-96175243D01*
X349863587Y-96213338D01*
X349939778Y-96213338D01*
X350015968Y-96175243D01*
X350054063Y-96137148D01*
X350092159Y-96060957D01*
X350130254Y-95908576D01*
X350130254Y-95718100D01*
X350092159Y-95565719D01*
X350054063Y-95489529D01*
X350015968Y-95451434D01*
X349939778Y-95413338D01*
X361490349Y-100874291D02*
X361757016Y-100874291D01*
X361757016Y-101293338D02*
X361757016Y-100493338D01*
X361376063Y-100493338D01*
X361147492Y-100493338D02*
X360614159Y-100493338D01*
X360957016Y-101293338D01*
X350435016Y-101217148D02*
X350473111Y-101255243D01*
X350587397Y-101293338D01*
X350663587Y-101293338D01*
X350777873Y-101255243D01*
X350854063Y-101179053D01*
X350892159Y-101102862D01*
X350930254Y-100950481D01*
X350930254Y-100836195D01*
X350892159Y-100683814D01*
X350854063Y-100607624D01*
X350777873Y-100531434D01*
X350663587Y-100493338D01*
X350587397Y-100493338D01*
X350473111Y-100531434D01*
X350435016Y-100569529D01*
X349749302Y-100493338D02*
X349901683Y-100493338D01*
X349977873Y-100531434D01*
X350015968Y-100569529D01*
X350092159Y-100683814D01*
X350130254Y-100836195D01*
X350130254Y-101140957D01*
X350092159Y-101217148D01*
X350054063Y-101255243D01*
X349977873Y-101293338D01*
X349825492Y-101293338D01*
X349749302Y-101255243D01*
X349711206Y-101217148D01*
X349673111Y-101140957D01*
X349673111Y-100950481D01*
X349711206Y-100874291D01*
X349749302Y-100836195D01*
X349825492Y-100798100D01*
X349977873Y-100798100D01*
X350054063Y-100836195D01*
X350092159Y-100874291D01*
X350130254Y-100950481D01*
X361833206Y-85291434D02*
X361909397Y-85253338D01*
X362023683Y-85253338D01*
X362137968Y-85291434D01*
X362214159Y-85367624D01*
X362252254Y-85443814D01*
X362290349Y-85596195D01*
X362290349Y-85710481D01*
X362252254Y-85862862D01*
X362214159Y-85939053D01*
X362137968Y-86015243D01*
X362023683Y-86053338D01*
X361947492Y-86053338D01*
X361833206Y-86015243D01*
X361795111Y-85977148D01*
X361795111Y-85710481D01*
X361947492Y-85710481D01*
X361452254Y-86053338D02*
X361452254Y-85253338D01*
X360995111Y-86053338D01*
X360995111Y-85253338D01*
X360614159Y-86053338D02*
X360614159Y-85253338D01*
X360423683Y-85253338D01*
X360309397Y-85291434D01*
X360233206Y-85367624D01*
X360195111Y-85443814D01*
X360157016Y-85596195D01*
X360157016Y-85710481D01*
X360195111Y-85862862D01*
X360233206Y-85939053D01*
X360309397Y-86015243D01*
X360423683Y-86053338D01*
X360614159Y-86053338D01*
X355896016Y-109807148D02*
X355934111Y-109845243D01*
X356048397Y-109883338D01*
X356124587Y-109883338D01*
X356238873Y-109845243D01*
X356315063Y-109769053D01*
X356353159Y-109692862D01*
X356391254Y-109540481D01*
X356391254Y-109426195D01*
X356353159Y-109273814D01*
X356315063Y-109197624D01*
X356238873Y-109121434D01*
X356124587Y-109083338D01*
X356048397Y-109083338D01*
X355934111Y-109121434D01*
X355896016Y-109159529D01*
X355629349Y-109083338D02*
X355096016Y-109083338D01*
X355438873Y-109883338D01*
X350892159Y-98753338D02*
X350892159Y-97953338D01*
X350701683Y-97953338D01*
X350587397Y-97991434D01*
X350511206Y-98067624D01*
X350473111Y-98143814D01*
X350435016Y-98296195D01*
X350435016Y-98410481D01*
X350473111Y-98562862D01*
X350511206Y-98639053D01*
X350587397Y-98715243D01*
X350701683Y-98753338D01*
X350892159Y-98753338D01*
X349749302Y-98220005D02*
X349749302Y-98753338D01*
X349939778Y-97915243D02*
X350130254Y-98486672D01*
X349635016Y-98486672D01*
X350892159Y-86053338D02*
X350892159Y-85253338D01*
X350701683Y-85253338D01*
X350587397Y-85291434D01*
X350511206Y-85367624D01*
X350473111Y-85443814D01*
X350435016Y-85596195D01*
X350435016Y-85710481D01*
X350473111Y-85862862D01*
X350511206Y-85939053D01*
X350587397Y-86015243D01*
X350701683Y-86053338D01*
X350892159Y-86053338D01*
X350130254Y-85329529D02*
X350092159Y-85291434D01*
X350015968Y-85253338D01*
X349825492Y-85253338D01*
X349749302Y-85291434D01*
X349711206Y-85329529D01*
X349673111Y-85405719D01*
X349673111Y-85481910D01*
X349711206Y-85596195D01*
X350168349Y-86053338D01*
X349673111Y-86053338D01*
X360496016Y-109671434D02*
X360729349Y-109671434D01*
X360729349Y-110038100D02*
X360729349Y-109338100D01*
X360396016Y-109338100D01*
X359996016Y-109338100D02*
X359929349Y-109338100D01*
X359862683Y-109371434D01*
X359829349Y-109404767D01*
X359796016Y-109471434D01*
X359762683Y-109604767D01*
X359762683Y-109771434D01*
X359796016Y-109904767D01*
X359829349Y-109971434D01*
X359862683Y-110004767D01*
X359929349Y-110038100D01*
X359996016Y-110038100D01*
X360062683Y-110004767D01*
X360096016Y-109971434D01*
X360129349Y-109904767D01*
X360162683Y-109771434D01*
X360162683Y-109604767D01*
X360129349Y-109471434D01*
X360096016Y-109404767D01*
X360062683Y-109371434D01*
X359996016Y-109338100D01*
X362327674Y-109585731D02*
X362280534Y-109680012D01*
X362280534Y-109727153D01*
X362304104Y-109797863D01*
X362374815Y-109868574D01*
X362445525Y-109892144D01*
X362492666Y-109892144D01*
X362563376Y-109868574D01*
X362751938Y-109680012D01*
X362256963Y-109185037D01*
X362091972Y-109350029D01*
X362068402Y-109420740D01*
X362068402Y-109467880D01*
X362091972Y-109538591D01*
X362139112Y-109585731D01*
X362209823Y-109609301D01*
X362256963Y-109609301D01*
X362327674Y-109585731D01*
X362492666Y-109420740D01*
X361549857Y-109892144D02*
X361644138Y-109797863D01*
X361714848Y-109774293D01*
X361761989Y-109774293D01*
X361879840Y-109797863D01*
X361997691Y-109868574D01*
X362186253Y-110057136D01*
X362209823Y-110127846D01*
X362209823Y-110174987D01*
X362186253Y-110245698D01*
X362091972Y-110339978D01*
X362021261Y-110363549D01*
X361974121Y-110363549D01*
X361903410Y-110339978D01*
X361785559Y-110222127D01*
X361761989Y-110151417D01*
X361761989Y-110104276D01*
X361785559Y-110033566D01*
X361879840Y-109939285D01*
X361950550Y-109915714D01*
X361997691Y-109915714D01*
X362068402Y-109939285D01*
X349126980Y-109656442D02*
X349221261Y-109703582D01*
X349268402Y-109703582D01*
X349339112Y-109680012D01*
X349409823Y-109609301D01*
X349433393Y-109538591D01*
X349433393Y-109491450D01*
X349409823Y-109420740D01*
X349221261Y-109232178D01*
X348726286Y-109727153D01*
X348891278Y-109892144D01*
X348961989Y-109915714D01*
X349009129Y-109915714D01*
X349079840Y-109892144D01*
X349126980Y-109845004D01*
X349150550Y-109774293D01*
X349150550Y-109727153D01*
X349126980Y-109656442D01*
X348961989Y-109491450D01*
X349456963Y-110457830D02*
X349221261Y-110222127D01*
X349433393Y-109962855D01*
X349433393Y-110009995D01*
X349456963Y-110080706D01*
X349574815Y-110198557D01*
X349645525Y-110222127D01*
X349692666Y-110222127D01*
X349763376Y-110198557D01*
X349881227Y-110080706D01*
X349904798Y-110009995D01*
X349904798Y-109962855D01*
X349881227Y-109892144D01*
X349763376Y-109774293D01*
X349692666Y-109750723D01*
X349645525Y-109750723D01*
X350854063Y-105954291D02*
X350587397Y-105954291D01*
X350473111Y-106373338D02*
X350854063Y-106373338D01*
X350854063Y-105573338D01*
X350473111Y-105573338D01*
X349787397Y-105573338D02*
X349939778Y-105573338D01*
X350015968Y-105611434D01*
X350054063Y-105649529D01*
X350130254Y-105763814D01*
X350168349Y-105916195D01*
X350168349Y-106220957D01*
X350130254Y-106297148D01*
X350092159Y-106335243D01*
X350015968Y-106373338D01*
X349863587Y-106373338D01*
X349787397Y-106335243D01*
X349749302Y-106297148D01*
X349711206Y-106220957D01*
X349711206Y-106030481D01*
X349749302Y-105954291D01*
X349787397Y-105916195D01*
X349863587Y-105878100D01*
X350015968Y-105878100D01*
X350092159Y-105916195D01*
X350130254Y-105954291D01*
X350168349Y-106030481D01*
X358569349Y-109464291D02*
X358836016Y-109464291D01*
X358836016Y-109883338D02*
X358836016Y-109083338D01*
X358455063Y-109083338D01*
X357731254Y-109883338D02*
X358188397Y-109883338D01*
X357959825Y-109883338D02*
X357959825Y-109083338D01*
X358036016Y-109197624D01*
X358112206Y-109273814D01*
X358188397Y-109311910D01*
X361547492Y-103414291D02*
X361433206Y-103452386D01*
X361395111Y-103490481D01*
X361357016Y-103566672D01*
X361357016Y-103680957D01*
X361395111Y-103757148D01*
X361433206Y-103795243D01*
X361509397Y-103833338D01*
X361814159Y-103833338D01*
X361814159Y-103033338D01*
X361547492Y-103033338D01*
X361471302Y-103071434D01*
X361433206Y-103109529D01*
X361395111Y-103185719D01*
X361395111Y-103261910D01*
X361433206Y-103338100D01*
X361471302Y-103376195D01*
X361547492Y-103414291D01*
X361814159Y-103414291D01*
X360595111Y-103833338D02*
X361052254Y-103833338D01*
X360823683Y-103833338D02*
X360823683Y-103033338D01*
X360899873Y-103147624D01*
X360976063Y-103223814D01*
X361052254Y-103261910D01*
X361547492Y-108494291D02*
X361433206Y-108532386D01*
X361395111Y-108570481D01*
X361357016Y-108646672D01*
X361357016Y-108760957D01*
X361395111Y-108837148D01*
X361433206Y-108875243D01*
X361509397Y-108913338D01*
X361814159Y-108913338D01*
X361814159Y-108113338D01*
X361547492Y-108113338D01*
X361471302Y-108151434D01*
X361433206Y-108189529D01*
X361395111Y-108265719D01*
X361395111Y-108341910D01*
X361433206Y-108418100D01*
X361471302Y-108456195D01*
X361547492Y-108494291D01*
X361814159Y-108494291D01*
X361052254Y-108189529D02*
X361014159Y-108151434D01*
X360937968Y-108113338D01*
X360747492Y-108113338D01*
X360671302Y-108151434D01*
X360633206Y-108189529D01*
X360595111Y-108265719D01*
X360595111Y-108341910D01*
X360633206Y-108456195D01*
X361090349Y-108913338D01*
X360595111Y-108913338D01*
X361490349Y-95794291D02*
X361757016Y-95794291D01*
X361757016Y-96213338D02*
X361757016Y-95413338D01*
X361376063Y-95413338D01*
X360690349Y-95413338D02*
X361071302Y-95413338D01*
X361109397Y-95794291D01*
X361071302Y-95756195D01*
X360995111Y-95718100D01*
X360804635Y-95718100D01*
X360728444Y-95756195D01*
X360690349Y-95794291D01*
X360652254Y-95870481D01*
X360652254Y-96060957D01*
X360690349Y-96137148D01*
X360728444Y-96175243D01*
X360804635Y-96213338D01*
X360995111Y-96213338D01*
X361071302Y-96175243D01*
X361109397Y-96137148D01*
D12*
X338200683Y-128489519D02*
X338450683Y-128132376D01*
X338629254Y-128489519D02*
X338629254Y-127739519D01*
X338343540Y-127739519D01*
X338272111Y-127775234D01*
X338236397Y-127810948D01*
X338200683Y-127882376D01*
X338200683Y-127989519D01*
X338236397Y-128060948D01*
X338272111Y-128096662D01*
X338343540Y-128132376D01*
X338629254Y-128132376D01*
X337486397Y-128489519D02*
X337914968Y-128489519D01*
X337700683Y-128489519D02*
X337700683Y-127739519D01*
X337772111Y-127846662D01*
X337843540Y-127918091D01*
X337914968Y-127953805D01*
D13*
X316552587Y-120501614D02*
X316552587Y-121311138D01*
X316504968Y-121406376D01*
X316457349Y-121453995D01*
X316362111Y-121501614D01*
X316171635Y-121501614D01*
X316076397Y-121453995D01*
X316028778Y-121406376D01*
X315981159Y-121311138D01*
X315981159Y-120501614D01*
X315076397Y-120834948D02*
X315076397Y-121501614D01*
X315314492Y-120453995D02*
X315552587Y-121168281D01*
X314933540Y-121168281D01*
D12*
X317118683Y-134218091D02*
X317154397Y-134253805D01*
X317261540Y-134289519D01*
X317332968Y-134289519D01*
X317440111Y-134253805D01*
X317511540Y-134182376D01*
X317547254Y-134110948D01*
X317582968Y-133968091D01*
X317582968Y-133860948D01*
X317547254Y-133718091D01*
X317511540Y-133646662D01*
X317440111Y-133575234D01*
X317332968Y-133539519D01*
X317261540Y-133539519D01*
X317154397Y-133575234D01*
X317118683Y-133610948D01*
X316868683Y-133539519D02*
X316404397Y-133539519D01*
X316654397Y-133825234D01*
X316547254Y-133825234D01*
X316475825Y-133860948D01*
X316440111Y-133896662D01*
X316404397Y-133968091D01*
X316404397Y-134146662D01*
X316440111Y-134218091D01*
X316475825Y-134253805D01*
X316547254Y-134289519D01*
X316761540Y-134289519D01*
X316832968Y-134253805D01*
X316868683Y-134218091D01*
X342787111Y-140823519D02*
X342787111Y-141430662D01*
X342751397Y-141502091D01*
X342715683Y-141537805D01*
X342644254Y-141573519D01*
X342501397Y-141573519D01*
X342429968Y-141537805D01*
X342394254Y-141502091D01*
X342358540Y-141430662D01*
X342358540Y-140823519D01*
X341608540Y-141573519D02*
X342037111Y-141573519D01*
X341822825Y-141573519D02*
X341822825Y-140823519D01*
X341894254Y-140930662D01*
X341965683Y-141002091D01*
X342037111Y-141037805D01*
X338200683Y-142346091D02*
X338236397Y-142381805D01*
X338343540Y-142417519D01*
X338414968Y-142417519D01*
X338522111Y-142381805D01*
X338593540Y-142310376D01*
X338629254Y-142238948D01*
X338664968Y-142096091D01*
X338664968Y-141988948D01*
X338629254Y-141846091D01*
X338593540Y-141774662D01*
X338522111Y-141703234D01*
X338414968Y-141667519D01*
X338343540Y-141667519D01*
X338236397Y-141703234D01*
X338200683Y-141738948D01*
X337486397Y-142417519D02*
X337914968Y-142417519D01*
X337700683Y-142417519D02*
X337700683Y-141667519D01*
X337772111Y-141774662D01*
X337843540Y-141846091D01*
X337914968Y-141881805D01*
X340047825Y-119573519D02*
X340047825Y-118823519D01*
X339262111Y-119502091D02*
X339297825Y-119537805D01*
X339404968Y-119573519D01*
X339476397Y-119573519D01*
X339583540Y-119537805D01*
X339654968Y-119466376D01*
X339690683Y-119394948D01*
X339726397Y-119252091D01*
X339726397Y-119144948D01*
X339690683Y-119002091D01*
X339654968Y-118930662D01*
X339583540Y-118859234D01*
X339476397Y-118823519D01*
X339404968Y-118823519D01*
X339297825Y-118859234D01*
X339262111Y-118894948D01*
X338547825Y-119573519D02*
X338976397Y-119573519D01*
X338762111Y-119573519D02*
X338762111Y-118823519D01*
X338833540Y-118930662D01*
X338904968Y-119002091D01*
X338976397Y-119037805D01*
X338200683Y-124312091D02*
X338236397Y-124347805D01*
X338343540Y-124383519D01*
X338414968Y-124383519D01*
X338522111Y-124347805D01*
X338593540Y-124276376D01*
X338629254Y-124204948D01*
X338664968Y-124062091D01*
X338664968Y-123954948D01*
X338629254Y-123812091D01*
X338593540Y-123740662D01*
X338522111Y-123669234D01*
X338414968Y-123633519D01*
X338343540Y-123633519D01*
X338236397Y-123669234D01*
X338200683Y-123704948D01*
X337557825Y-123883519D02*
X337557825Y-124383519D01*
X337736397Y-123597805D02*
X337914968Y-124133519D01*
X337450683Y-124133519D01*
X334340683Y-118573519D02*
X334590683Y-118216376D01*
X334769254Y-118573519D02*
X334769254Y-117823519D01*
X334483540Y-117823519D01*
X334412111Y-117859234D01*
X334376397Y-117894948D01*
X334340683Y-117966376D01*
X334340683Y-118073519D01*
X334376397Y-118144948D01*
X334412111Y-118180662D01*
X334483540Y-118216376D01*
X334769254Y-118216376D01*
X334090683Y-117823519D02*
X333626397Y-117823519D01*
X333876397Y-118109234D01*
X333769254Y-118109234D01*
X333697825Y-118144948D01*
X333662111Y-118180662D01*
X333626397Y-118252091D01*
X333626397Y-118430662D01*
X333662111Y-118502091D01*
X333697825Y-118537805D01*
X333769254Y-118573519D01*
X333983540Y-118573519D01*
X334054968Y-118537805D01*
X334090683Y-118502091D01*
X338040683Y-118502091D02*
X338076397Y-118537805D01*
X338183540Y-118573519D01*
X338254968Y-118573519D01*
X338362111Y-118537805D01*
X338433540Y-118466376D01*
X338469254Y-118394948D01*
X338504968Y-118252091D01*
X338504968Y-118144948D01*
X338469254Y-118002091D01*
X338433540Y-117930662D01*
X338362111Y-117859234D01*
X338254968Y-117823519D01*
X338183540Y-117823519D01*
X338076397Y-117859234D01*
X338040683Y-117894948D01*
X337362111Y-117823519D02*
X337719254Y-117823519D01*
X337754968Y-118180662D01*
X337719254Y-118144948D01*
X337647825Y-118109234D01*
X337469254Y-118109234D01*
X337397825Y-118144948D01*
X337362111Y-118180662D01*
X337326397Y-118252091D01*
X337326397Y-118430662D01*
X337362111Y-118502091D01*
X337397825Y-118537805D01*
X337469254Y-118573519D01*
X337647825Y-118573519D01*
X337719254Y-118537805D01*
X337754968Y-118502091D01*
X331640683Y-118573519D02*
X331890683Y-118216376D01*
X332069254Y-118573519D02*
X332069254Y-117823519D01*
X331783540Y-117823519D01*
X331712111Y-117859234D01*
X331676397Y-117894948D01*
X331640683Y-117966376D01*
X331640683Y-118073519D01*
X331676397Y-118144948D01*
X331712111Y-118180662D01*
X331783540Y-118216376D01*
X332069254Y-118216376D01*
X331354968Y-117894948D02*
X331319254Y-117859234D01*
X331247825Y-117823519D01*
X331069254Y-117823519D01*
X330997825Y-117859234D01*
X330962111Y-117894948D01*
X330926397Y-117966376D01*
X330926397Y-118037805D01*
X330962111Y-118144948D01*
X331390683Y-118573519D01*
X330926397Y-118573519D01*
X338200683Y-132694091D02*
X338236397Y-132729805D01*
X338343540Y-132765519D01*
X338414968Y-132765519D01*
X338522111Y-132729805D01*
X338593540Y-132658376D01*
X338629254Y-132586948D01*
X338664968Y-132444091D01*
X338664968Y-132336948D01*
X338629254Y-132194091D01*
X338593540Y-132122662D01*
X338522111Y-132051234D01*
X338414968Y-132015519D01*
X338343540Y-132015519D01*
X338236397Y-132051234D01*
X338200683Y-132086948D01*
X337914968Y-132086948D02*
X337879254Y-132051234D01*
X337807825Y-132015519D01*
X337629254Y-132015519D01*
X337557825Y-132051234D01*
X337522111Y-132086948D01*
X337486397Y-132158376D01*
X337486397Y-132229805D01*
X337522111Y-132336948D01*
X337950683Y-132765519D01*
X337486397Y-132765519D01*
X330090683Y-142443519D02*
X330340683Y-142086376D01*
X330519254Y-142443519D02*
X330519254Y-141693519D01*
X330233540Y-141693519D01*
X330162111Y-141729234D01*
X330126397Y-141764948D01*
X330090683Y-141836376D01*
X330090683Y-141943519D01*
X330126397Y-142014948D01*
X330162111Y-142050662D01*
X330233540Y-142086376D01*
X330519254Y-142086376D01*
X329447825Y-141943519D02*
X329447825Y-142443519D01*
X329626397Y-141657805D02*
X329804968Y-142193519D01*
X329340683Y-142193519D01*
D14*
X349412683Y-81881434D02*
X346872683Y-81881434D01*
X349412683Y-84421434D02*
X346872683Y-84421434D01*
X364652683Y-79341434D02*
X346872683Y-79341434D01*
X349412683Y-81881434D02*
X349412683Y-84421434D01*
X346872683Y-79341434D02*
X346872683Y-112361434D01*
X346872683Y-112361434D02*
X364652683Y-112361434D01*
X364652683Y-112361434D02*
X364652683Y-79341434D01*
D13*
X361607318Y-87770464D02*
X361607318Y-87870464D01*
X361607318Y-87870464D02*
X362107318Y-87870464D01*
X362107318Y-87870464D02*
X362107318Y-87770464D01*
X362107318Y-87770464D02*
X361607318Y-87770464D01*
G36*
X362107318Y-87870464D02*
G01*
X361607318Y-87870464D01*
X361607318Y-87770464D01*
X362107318Y-87770464D01*
X362107318Y-87870464D01*
G37*
X362107318Y-87870464D02*
X361607318Y-87870464D01*
X361607318Y-87770464D01*
X362107318Y-87770464D01*
X362107318Y-87870464D01*
X361807318Y-88170464D02*
X361807318Y-88270464D01*
X361807318Y-88270464D02*
X361907318Y-88270464D01*
X361907318Y-88270464D02*
X361907318Y-88170464D01*
X361907318Y-88170464D02*
X361807318Y-88170464D01*
G36*
X361907318Y-88270464D02*
G01*
X361807318Y-88270464D01*
X361807318Y-88170464D01*
X361907318Y-88170464D01*
X361907318Y-88270464D01*
G37*
X361907318Y-88270464D02*
X361807318Y-88270464D01*
X361807318Y-88170464D01*
X361907318Y-88170464D01*
X361907318Y-88270464D01*
X361607318Y-88370464D02*
X361607318Y-88570464D01*
X361607318Y-88570464D02*
X361707318Y-88570464D01*
X361707318Y-88570464D02*
X361707318Y-88370464D01*
X361707318Y-88370464D02*
X361607318Y-88370464D01*
G36*
X361707318Y-88570464D02*
G01*
X361607318Y-88570464D01*
X361607318Y-88370464D01*
X361707318Y-88370464D01*
X361707318Y-88570464D01*
G37*
X361707318Y-88570464D02*
X361607318Y-88570464D01*
X361607318Y-88370464D01*
X361707318Y-88370464D01*
X361707318Y-88570464D01*
X361607318Y-87770464D02*
X361607318Y-88070464D01*
X361607318Y-88070464D02*
X361707318Y-88070464D01*
X361707318Y-88070464D02*
X361707318Y-87770464D01*
X361707318Y-87770464D02*
X361607318Y-87770464D01*
G36*
X361707318Y-88070464D02*
G01*
X361607318Y-88070464D01*
X361607318Y-87770464D01*
X361707318Y-87770464D01*
X361707318Y-88070464D01*
G37*
X361707318Y-88070464D02*
X361607318Y-88070464D01*
X361607318Y-87770464D01*
X361707318Y-87770464D01*
X361707318Y-88070464D01*
X362007318Y-87770464D02*
X362007318Y-88570464D01*
X362007318Y-88570464D02*
X362107318Y-88570464D01*
X362107318Y-88570464D02*
X362107318Y-87770464D01*
X362107318Y-87770464D02*
X362007318Y-87770464D01*
G36*
X362107318Y-88570464D02*
G01*
X362007318Y-88570464D01*
X362007318Y-87770464D01*
X362107318Y-87770464D01*
X362107318Y-88570464D01*
G37*
X362107318Y-88570464D02*
X362007318Y-88570464D01*
X362007318Y-87770464D01*
X362107318Y-87770464D01*
X362107318Y-88570464D01*
D11*
X337473619Y-130838234D02*
X338677747Y-130838234D01*
X337473619Y-129018234D02*
X338677747Y-129018234D01*
D15*
X316535683Y-130809234D02*
X314195683Y-130809234D01*
X316535683Y-122159234D02*
X314195683Y-122159234D01*
D16*
X319515683Y-122384234D02*
G75*
G03*
X319515683Y-122384234I-100000J0D01*
G01*
D11*
X317595747Y-134860234D02*
X316391619Y-134860234D01*
X317595747Y-136680234D02*
X316391619Y-136680234D01*
X343665683Y-138584234D02*
X343665683Y-137534234D01*
X343665683Y-137534234D02*
X341815683Y-137534234D01*
X343645683Y-140594234D02*
X341215683Y-140594234D01*
X343665683Y-140584234D02*
X343665683Y-139584234D01*
X338677747Y-144808234D02*
X337473619Y-144808234D01*
X338677747Y-142988234D02*
X337473619Y-142988234D01*
X338677747Y-126774234D02*
X337473619Y-126774234D01*
X338677747Y-124954234D02*
X337473619Y-124954234D01*
X333305683Y-114582170D02*
X333305683Y-115786298D01*
X335125683Y-114582170D02*
X335125683Y-115786298D01*
X338925683Y-115836298D02*
X338925683Y-114632170D01*
X337105683Y-115836298D02*
X337105683Y-114632170D01*
X332475683Y-115786298D02*
X332475683Y-114582170D01*
X330655683Y-115786298D02*
X330655683Y-114582170D01*
X338677747Y-135156234D02*
X337473619Y-135156234D01*
X338677747Y-133336234D02*
X337473619Y-133336234D01*
X329363619Y-141194234D02*
X330567747Y-141194234D01*
X329363619Y-139374234D02*
X330567747Y-139374234D01*
D17*
X348142683Y-83151434D03*
D18*
X348142683Y-85691434D03*
X348142683Y-88231434D03*
X348142683Y-90771434D03*
X348142683Y-93311434D03*
X348142683Y-95851434D03*
X348142683Y-98391434D03*
X348142683Y-100931434D03*
X348142683Y-103471434D03*
X348142683Y-106011434D03*
X348142683Y-108551434D03*
X348371283Y-111091434D03*
X363382683Y-111091434D03*
X363382683Y-108551434D03*
X363382683Y-106011434D03*
X363382683Y-103471434D03*
X363382683Y-100931434D03*
X363382683Y-98391434D03*
X363382683Y-95851434D03*
X363382683Y-93311434D03*
X363382683Y-90771434D03*
X363382683Y-88231434D03*
X363382683Y-85691434D03*
X363382683Y-83151434D03*
X350682683Y-111091434D03*
X353222683Y-111091434D03*
X355762683Y-111091434D03*
X358302683Y-111091434D03*
X360842683Y-111091434D03*
M02*
