G04 #@! TF.GenerationSoftware,KiCad,Pcbnew,7.0.1*
G04 #@! TF.CreationDate,2023-04-17T11:26:59-07:00*
G04 #@! TF.ProjectId,_autosave-keyboard,5f617574-6f73-4617-9665-2d6b6579626f,rev?*
G04 #@! TF.SameCoordinates,Original*
G04 #@! TF.FileFunction,Legend,Bot*
G04 #@! TF.FilePolarity,Positive*
%FSLAX46Y46*%
G04 Gerber Fmt 4.6, Leading zero omitted, Abs format (unit mm)*
G04 Created by KiCad (PCBNEW 7.0.1) date 2023-04-17 11:26:59*
%MOMM*%
%LPD*%
G01*
G04 APERTURE LIST*
%ADD10C,0.150000*%
%ADD11C,0.200000*%
%ADD12R,1.600000X1.600000*%
%ADD13C,1.600000*%
G04 APERTURE END LIST*
D10*
X396705537Y-231235819D02*
X396705537Y-230235819D01*
X396134109Y-231235819D02*
X396562680Y-230664390D01*
X396134109Y-230235819D02*
X396705537Y-230807247D01*
X395943633Y-231331057D02*
X395181728Y-231331057D01*
X394467442Y-230235819D02*
X394943632Y-230235819D01*
X394943632Y-230235819D02*
X394991251Y-230712009D01*
X394991251Y-230712009D02*
X394943632Y-230664390D01*
X394943632Y-230664390D02*
X394848394Y-230616771D01*
X394848394Y-230616771D02*
X394610299Y-230616771D01*
X394610299Y-230616771D02*
X394515061Y-230664390D01*
X394515061Y-230664390D02*
X394467442Y-230712009D01*
X394467442Y-230712009D02*
X394419823Y-230807247D01*
X394419823Y-230807247D02*
X394419823Y-231045342D01*
X394419823Y-231045342D02*
X394467442Y-231140580D01*
X394467442Y-231140580D02*
X394515061Y-231188200D01*
X394515061Y-231188200D02*
X394610299Y-231235819D01*
X394610299Y-231235819D02*
X394848394Y-231235819D01*
X394848394Y-231235819D02*
X394943632Y-231188200D01*
X394943632Y-231188200D02*
X394991251Y-231140580D01*
X393515061Y-230235819D02*
X393991251Y-230235819D01*
X393991251Y-230235819D02*
X394038870Y-230712009D01*
X394038870Y-230712009D02*
X393991251Y-230664390D01*
X393991251Y-230664390D02*
X393896013Y-230616771D01*
X393896013Y-230616771D02*
X393657918Y-230616771D01*
X393657918Y-230616771D02*
X393562680Y-230664390D01*
X393562680Y-230664390D02*
X393515061Y-230712009D01*
X393515061Y-230712009D02*
X393467442Y-230807247D01*
X393467442Y-230807247D02*
X393467442Y-231045342D01*
X393467442Y-231045342D02*
X393515061Y-231140580D01*
X393515061Y-231140580D02*
X393562680Y-231188200D01*
X393562680Y-231188200D02*
X393657918Y-231235819D01*
X393657918Y-231235819D02*
X393896013Y-231235819D01*
X393896013Y-231235819D02*
X393991251Y-231188200D01*
X393991251Y-231188200D02*
X394038870Y-231140580D01*
X168158987Y-231177619D02*
X168158987Y-230177619D01*
X167587559Y-231177619D02*
X168016130Y-230606190D01*
X167587559Y-230177619D02*
X168158987Y-230749047D01*
X167397083Y-231272857D02*
X166635178Y-231272857D01*
X165920892Y-230177619D02*
X166397082Y-230177619D01*
X166397082Y-230177619D02*
X166444701Y-230653809D01*
X166444701Y-230653809D02*
X166397082Y-230606190D01*
X166397082Y-230606190D02*
X166301844Y-230558571D01*
X166301844Y-230558571D02*
X166063749Y-230558571D01*
X166063749Y-230558571D02*
X165968511Y-230606190D01*
X165968511Y-230606190D02*
X165920892Y-230653809D01*
X165920892Y-230653809D02*
X165873273Y-230749047D01*
X165873273Y-230749047D02*
X165873273Y-230987142D01*
X165873273Y-230987142D02*
X165920892Y-231082380D01*
X165920892Y-231082380D02*
X165968511Y-231130000D01*
X165968511Y-231130000D02*
X166063749Y-231177619D01*
X166063749Y-231177619D02*
X166301844Y-231177619D01*
X166301844Y-231177619D02*
X166397082Y-231130000D01*
X166397082Y-231130000D02*
X166444701Y-231082380D01*
X165539939Y-230177619D02*
X164873273Y-230177619D01*
X164873273Y-230177619D02*
X165301844Y-231177619D01*
X413427737Y-174027619D02*
X413427737Y-173027619D01*
X412856309Y-174027619D02*
X413284880Y-173456190D01*
X412856309Y-173027619D02*
X413427737Y-173599047D01*
X412665833Y-174122857D02*
X411903928Y-174122857D01*
X411713451Y-173122857D02*
X411665832Y-173075238D01*
X411665832Y-173075238D02*
X411570594Y-173027619D01*
X411570594Y-173027619D02*
X411332499Y-173027619D01*
X411332499Y-173027619D02*
X411237261Y-173075238D01*
X411237261Y-173075238D02*
X411189642Y-173122857D01*
X411189642Y-173122857D02*
X411142023Y-173218095D01*
X411142023Y-173218095D02*
X411142023Y-173313333D01*
X411142023Y-173313333D02*
X411189642Y-173456190D01*
X411189642Y-173456190D02*
X411761070Y-174027619D01*
X411761070Y-174027619D02*
X411142023Y-174027619D01*
X410284880Y-173027619D02*
X410475356Y-173027619D01*
X410475356Y-173027619D02*
X410570594Y-173075238D01*
X410570594Y-173075238D02*
X410618213Y-173122857D01*
X410618213Y-173122857D02*
X410713451Y-173265714D01*
X410713451Y-173265714D02*
X410761070Y-173456190D01*
X410761070Y-173456190D02*
X410761070Y-173837142D01*
X410761070Y-173837142D02*
X410713451Y-173932380D01*
X410713451Y-173932380D02*
X410665832Y-173980000D01*
X410665832Y-173980000D02*
X410570594Y-174027619D01*
X410570594Y-174027619D02*
X410380118Y-174027619D01*
X410380118Y-174027619D02*
X410284880Y-173980000D01*
X410284880Y-173980000D02*
X410237261Y-173932380D01*
X410237261Y-173932380D02*
X410189642Y-173837142D01*
X410189642Y-173837142D02*
X410189642Y-173599047D01*
X410189642Y-173599047D02*
X410237261Y-173503809D01*
X410237261Y-173503809D02*
X410284880Y-173456190D01*
X410284880Y-173456190D02*
X410380118Y-173408571D01*
X410380118Y-173408571D02*
X410570594Y-173408571D01*
X410570594Y-173408571D02*
X410665832Y-173456190D01*
X410665832Y-173456190D02*
X410713451Y-173503809D01*
X410713451Y-173503809D02*
X410761070Y-173599047D01*
X411046487Y-212127619D02*
X411046487Y-211127619D01*
X410475059Y-212127619D02*
X410903630Y-211556190D01*
X410475059Y-211127619D02*
X411046487Y-211699047D01*
X410284583Y-212222857D02*
X409522678Y-212222857D01*
X408808392Y-211127619D02*
X409284582Y-211127619D01*
X409284582Y-211127619D02*
X409332201Y-211603809D01*
X409332201Y-211603809D02*
X409284582Y-211556190D01*
X409284582Y-211556190D02*
X409189344Y-211508571D01*
X409189344Y-211508571D02*
X408951249Y-211508571D01*
X408951249Y-211508571D02*
X408856011Y-211556190D01*
X408856011Y-211556190D02*
X408808392Y-211603809D01*
X408808392Y-211603809D02*
X408760773Y-211699047D01*
X408760773Y-211699047D02*
X408760773Y-211937142D01*
X408760773Y-211937142D02*
X408808392Y-212032380D01*
X408808392Y-212032380D02*
X408856011Y-212080000D01*
X408856011Y-212080000D02*
X408951249Y-212127619D01*
X408951249Y-212127619D02*
X409189344Y-212127619D01*
X409189344Y-212127619D02*
X409284582Y-212080000D01*
X409284582Y-212080000D02*
X409332201Y-212032380D01*
X407856011Y-211127619D02*
X408332201Y-211127619D01*
X408332201Y-211127619D02*
X408379820Y-211603809D01*
X408379820Y-211603809D02*
X408332201Y-211556190D01*
X408332201Y-211556190D02*
X408236963Y-211508571D01*
X408236963Y-211508571D02*
X407998868Y-211508571D01*
X407998868Y-211508571D02*
X407903630Y-211556190D01*
X407903630Y-211556190D02*
X407856011Y-211603809D01*
X407856011Y-211603809D02*
X407808392Y-211699047D01*
X407808392Y-211699047D02*
X407808392Y-211937142D01*
X407808392Y-211937142D02*
X407856011Y-212032380D01*
X407856011Y-212032380D02*
X407903630Y-212080000D01*
X407903630Y-212080000D02*
X407998868Y-212127619D01*
X407998868Y-212127619D02*
X408236963Y-212127619D01*
X408236963Y-212127619D02*
X408332201Y-212080000D01*
X408332201Y-212080000D02*
X408379820Y-212032380D01*
X385735095Y-241440952D02*
X384935095Y-241440952D01*
X384935095Y-241440952D02*
X384935095Y-241631428D01*
X384935095Y-241631428D02*
X384973190Y-241745714D01*
X384973190Y-241745714D02*
X385049380Y-241821904D01*
X385049380Y-241821904D02*
X385125571Y-241859999D01*
X385125571Y-241859999D02*
X385277952Y-241898095D01*
X385277952Y-241898095D02*
X385392238Y-241898095D01*
X385392238Y-241898095D02*
X385544619Y-241859999D01*
X385544619Y-241859999D02*
X385620809Y-241821904D01*
X385620809Y-241821904D02*
X385697000Y-241745714D01*
X385697000Y-241745714D02*
X385735095Y-241631428D01*
X385735095Y-241631428D02*
X385735095Y-241440952D01*
X384935095Y-242355237D02*
X385125571Y-242355237D01*
X385049380Y-242164761D02*
X385125571Y-242355237D01*
X385125571Y-242355237D02*
X385049380Y-242545714D01*
X385277952Y-242240952D02*
X385125571Y-242355237D01*
X385125571Y-242355237D02*
X385277952Y-242469523D01*
X384935095Y-242964761D02*
X385125571Y-242964761D01*
X385049380Y-242774285D02*
X385125571Y-242964761D01*
X385125571Y-242964761D02*
X385049380Y-243155238D01*
X385277952Y-242850476D02*
X385125571Y-242964761D01*
X385125571Y-242964761D02*
X385277952Y-243079047D01*
X402645095Y-184050952D02*
X401845095Y-184050952D01*
X401845095Y-184050952D02*
X401845095Y-184241428D01*
X401845095Y-184241428D02*
X401883190Y-184355714D01*
X401883190Y-184355714D02*
X401959380Y-184431904D01*
X401959380Y-184431904D02*
X402035571Y-184469999D01*
X402035571Y-184469999D02*
X402187952Y-184508095D01*
X402187952Y-184508095D02*
X402302238Y-184508095D01*
X402302238Y-184508095D02*
X402454619Y-184469999D01*
X402454619Y-184469999D02*
X402530809Y-184431904D01*
X402530809Y-184431904D02*
X402607000Y-184355714D01*
X402607000Y-184355714D02*
X402645095Y-184241428D01*
X402645095Y-184241428D02*
X402645095Y-184050952D01*
X401845095Y-184965237D02*
X402035571Y-184965237D01*
X401959380Y-184774761D02*
X402035571Y-184965237D01*
X402035571Y-184965237D02*
X401959380Y-185155714D01*
X402187952Y-184850952D02*
X402035571Y-184965237D01*
X402035571Y-184965237D02*
X402187952Y-185079523D01*
X401845095Y-185574761D02*
X402035571Y-185574761D01*
X401959380Y-185384285D02*
X402035571Y-185574761D01*
X402035571Y-185574761D02*
X401959380Y-185765238D01*
X402187952Y-185460476D02*
X402035571Y-185574761D01*
X402035571Y-185574761D02*
X402187952Y-185689047D01*
X157155095Y-241600952D02*
X156355095Y-241600952D01*
X156355095Y-241600952D02*
X156355095Y-241791428D01*
X156355095Y-241791428D02*
X156393190Y-241905714D01*
X156393190Y-241905714D02*
X156469380Y-241981904D01*
X156469380Y-241981904D02*
X156545571Y-242019999D01*
X156545571Y-242019999D02*
X156697952Y-242058095D01*
X156697952Y-242058095D02*
X156812238Y-242058095D01*
X156812238Y-242058095D02*
X156964619Y-242019999D01*
X156964619Y-242019999D02*
X157040809Y-241981904D01*
X157040809Y-241981904D02*
X157117000Y-241905714D01*
X157117000Y-241905714D02*
X157155095Y-241791428D01*
X157155095Y-241791428D02*
X157155095Y-241600952D01*
X156355095Y-242515237D02*
X156545571Y-242515237D01*
X156469380Y-242324761D02*
X156545571Y-242515237D01*
X156545571Y-242515237D02*
X156469380Y-242705714D01*
X156697952Y-242400952D02*
X156545571Y-242515237D01*
X156545571Y-242515237D02*
X156697952Y-242629523D01*
X156355095Y-243124761D02*
X156545571Y-243124761D01*
X156469380Y-242934285D02*
X156545571Y-243124761D01*
X156545571Y-243124761D02*
X156469380Y-243315238D01*
X156697952Y-243010476D02*
X156545571Y-243124761D01*
X156545571Y-243124761D02*
X156697952Y-243239047D01*
X400185095Y-222210952D02*
X399385095Y-222210952D01*
X399385095Y-222210952D02*
X399385095Y-222401428D01*
X399385095Y-222401428D02*
X399423190Y-222515714D01*
X399423190Y-222515714D02*
X399499380Y-222591904D01*
X399499380Y-222591904D02*
X399575571Y-222629999D01*
X399575571Y-222629999D02*
X399727952Y-222668095D01*
X399727952Y-222668095D02*
X399842238Y-222668095D01*
X399842238Y-222668095D02*
X399994619Y-222629999D01*
X399994619Y-222629999D02*
X400070809Y-222591904D01*
X400070809Y-222591904D02*
X400147000Y-222515714D01*
X400147000Y-222515714D02*
X400185095Y-222401428D01*
X400185095Y-222401428D02*
X400185095Y-222210952D01*
X399385095Y-223125237D02*
X399575571Y-223125237D01*
X399499380Y-222934761D02*
X399575571Y-223125237D01*
X399575571Y-223125237D02*
X399499380Y-223315714D01*
X399727952Y-223010952D02*
X399575571Y-223125237D01*
X399575571Y-223125237D02*
X399727952Y-223239523D01*
X399385095Y-223734761D02*
X399575571Y-223734761D01*
X399499380Y-223544285D02*
X399575571Y-223734761D01*
X399575571Y-223734761D02*
X399499380Y-223925238D01*
X399727952Y-223620476D02*
X399575571Y-223734761D01*
X399575571Y-223734761D02*
X399727952Y-223849047D01*
D11*
X206290000Y-239195000D02*
X206290000Y-244995000D01*
X206290000Y-245020000D02*
X208690000Y-245020000D01*
X208690000Y-239195000D02*
X206290000Y-239195000D01*
X208690000Y-244270000D02*
X206290000Y-244270000D01*
X208690000Y-244445000D02*
X206290000Y-244445000D01*
X208690000Y-244620000D02*
X206290000Y-244620000D01*
X208690000Y-244795000D02*
X206290000Y-244795000D01*
X208690000Y-244920000D02*
X206290000Y-244920000D01*
X208690000Y-244995000D02*
X208690000Y-239195000D01*
D10*
X210160000Y-234585000D02*
X210160000Y-234966000D01*
X210160000Y-238014000D02*
X210160000Y-238395000D01*
X210541000Y-238395000D02*
X210160000Y-238395000D01*
X212700000Y-232045000D02*
X221590000Y-232045000D01*
X214045838Y-238395000D02*
X212319000Y-238395000D01*
X221590000Y-232045000D02*
X221590000Y-232426000D01*
X221590000Y-235474000D02*
X221590000Y-236490000D01*
X221590000Y-236490000D02*
X216510000Y-236490000D01*
X212700000Y-232045000D02*
G75*
G03*
X210160000Y-234585000I1J-2540001D01*
G01*
X216510000Y-236490000D02*
G75*
G03*
X214045839Y-238413960I0J-2539999D01*
G01*
D11*
X187240000Y-158232500D02*
X187240000Y-164032500D01*
X187240000Y-164057500D02*
X189640000Y-164057500D01*
X189640000Y-158232500D02*
X187240000Y-158232500D01*
X189640000Y-163307500D02*
X187240000Y-163307500D01*
X189640000Y-163482500D02*
X187240000Y-163482500D01*
X189640000Y-163657500D02*
X187240000Y-163657500D01*
X189640000Y-163832500D02*
X187240000Y-163832500D01*
X189640000Y-163957500D02*
X187240000Y-163957500D01*
X189640000Y-164032500D02*
X189640000Y-158232500D01*
D10*
X191110000Y-153622500D02*
X191110000Y-154003500D01*
X191110000Y-157051500D02*
X191110000Y-157432500D01*
X191491000Y-157432500D02*
X191110000Y-157432500D01*
X193650000Y-151082500D02*
X202540000Y-151082500D01*
X194995838Y-157432500D02*
X193269000Y-157432500D01*
X202540000Y-151082500D02*
X202540000Y-151463500D01*
X202540000Y-154511500D02*
X202540000Y-155527500D01*
X202540000Y-155527500D02*
X197460000Y-155527500D01*
X193650000Y-151082500D02*
G75*
G03*
X191110000Y-153622500I1J-2540001D01*
G01*
X197460000Y-155527500D02*
G75*
G03*
X194995839Y-157451460I0J-2539999D01*
G01*
D11*
X225340000Y-239195000D02*
X225340000Y-244995000D01*
X225340000Y-245020000D02*
X227740000Y-245020000D01*
X227740000Y-239195000D02*
X225340000Y-239195000D01*
X227740000Y-244270000D02*
X225340000Y-244270000D01*
X227740000Y-244445000D02*
X225340000Y-244445000D01*
X227740000Y-244620000D02*
X225340000Y-244620000D01*
X227740000Y-244795000D02*
X225340000Y-244795000D01*
X227740000Y-244920000D02*
X225340000Y-244920000D01*
X227740000Y-244995000D02*
X227740000Y-239195000D01*
D10*
X229210000Y-234585000D02*
X229210000Y-234966000D01*
X229210000Y-238014000D02*
X229210000Y-238395000D01*
X229591000Y-238395000D02*
X229210000Y-238395000D01*
X231750000Y-232045000D02*
X240640000Y-232045000D01*
X233095838Y-238395000D02*
X231369000Y-238395000D01*
X240640000Y-232045000D02*
X240640000Y-232426000D01*
X240640000Y-235474000D02*
X240640000Y-236490000D01*
X240640000Y-236490000D02*
X235560000Y-236490000D01*
X231750000Y-232045000D02*
G75*
G03*
X229210000Y-234585000I1J-2540001D01*
G01*
X235560000Y-236490000D02*
G75*
G03*
X233095839Y-238413960I0J-2539999D01*
G01*
D11*
X334877500Y-258245000D02*
X334877500Y-264045000D01*
X334877500Y-264070000D02*
X337277500Y-264070000D01*
X337277500Y-258245000D02*
X334877500Y-258245000D01*
X337277500Y-263320000D02*
X334877500Y-263320000D01*
X337277500Y-263495000D02*
X334877500Y-263495000D01*
X337277500Y-263670000D02*
X334877500Y-263670000D01*
X337277500Y-263845000D02*
X334877500Y-263845000D01*
X337277500Y-263970000D02*
X334877500Y-263970000D01*
X337277500Y-264045000D02*
X337277500Y-258245000D01*
D10*
X338747500Y-253635000D02*
X338747500Y-254016000D01*
X338747500Y-257064000D02*
X338747500Y-257445000D01*
X339128500Y-257445000D02*
X338747500Y-257445000D01*
X341287500Y-251095000D02*
X350177500Y-251095000D01*
X342633338Y-257445000D02*
X340906500Y-257445000D01*
X350177500Y-251095000D02*
X350177500Y-251476000D01*
X350177500Y-254524000D02*
X350177500Y-255540000D01*
X350177500Y-255540000D02*
X345097500Y-255540000D01*
X341287500Y-251095000D02*
G75*
G03*
X338747500Y-253635000I1J-2540001D01*
G01*
X345097500Y-255540000D02*
G75*
G03*
X342633339Y-257463960I0J-2539999D01*
G01*
D11*
X349165000Y-158232500D02*
X349165000Y-164032500D01*
X349165000Y-164057500D02*
X351565000Y-164057500D01*
X351565000Y-158232500D02*
X349165000Y-158232500D01*
X351565000Y-163307500D02*
X349165000Y-163307500D01*
X351565000Y-163482500D02*
X349165000Y-163482500D01*
X351565000Y-163657500D02*
X349165000Y-163657500D01*
X351565000Y-163832500D02*
X349165000Y-163832500D01*
X351565000Y-163957500D02*
X349165000Y-163957500D01*
X351565000Y-164032500D02*
X351565000Y-158232500D01*
D10*
X353035000Y-153622500D02*
X353035000Y-154003500D01*
X353035000Y-157051500D02*
X353035000Y-157432500D01*
X353416000Y-157432500D02*
X353035000Y-157432500D01*
X355575000Y-151082500D02*
X364465000Y-151082500D01*
X356920838Y-157432500D02*
X355194000Y-157432500D01*
X364465000Y-151082500D02*
X364465000Y-151463500D01*
X364465000Y-154511500D02*
X364465000Y-155527500D01*
X364465000Y-155527500D02*
X359385000Y-155527500D01*
X355575000Y-151082500D02*
G75*
G03*
X353035000Y-153622500I1J-2540001D01*
G01*
X359385000Y-155527500D02*
G75*
G03*
X356920839Y-157451460I0J-2539999D01*
G01*
D11*
X306302500Y-201095000D02*
X306302500Y-206895000D01*
X306302500Y-206920000D02*
X308702500Y-206920000D01*
X308702500Y-201095000D02*
X306302500Y-201095000D01*
X308702500Y-206170000D02*
X306302500Y-206170000D01*
X308702500Y-206345000D02*
X306302500Y-206345000D01*
X308702500Y-206520000D02*
X306302500Y-206520000D01*
X308702500Y-206695000D02*
X306302500Y-206695000D01*
X308702500Y-206820000D02*
X306302500Y-206820000D01*
X308702500Y-206895000D02*
X308702500Y-201095000D01*
D10*
X310172500Y-196485000D02*
X310172500Y-196866000D01*
X310172500Y-199914000D02*
X310172500Y-200295000D01*
X310553500Y-200295000D02*
X310172500Y-200295000D01*
X312712500Y-193945000D02*
X321602500Y-193945000D01*
X314058338Y-200295000D02*
X312331500Y-200295000D01*
X321602500Y-193945000D02*
X321602500Y-194326000D01*
X321602500Y-197374000D02*
X321602500Y-198390000D01*
X321602500Y-198390000D02*
X316522500Y-198390000D01*
X312712500Y-193945000D02*
G75*
G03*
X310172500Y-196485000I1J-2540001D01*
G01*
X316522500Y-198390000D02*
G75*
G03*
X314058339Y-200313960I0J-2539999D01*
G01*
D11*
X434890000Y-220145000D02*
X434890000Y-225945000D01*
X434890000Y-225970000D02*
X437290000Y-225970000D01*
X437290000Y-220145000D02*
X434890000Y-220145000D01*
X437290000Y-225220000D02*
X434890000Y-225220000D01*
X437290000Y-225395000D02*
X434890000Y-225395000D01*
X437290000Y-225570000D02*
X434890000Y-225570000D01*
X437290000Y-225745000D02*
X434890000Y-225745000D01*
X437290000Y-225870000D02*
X434890000Y-225870000D01*
X437290000Y-225945000D02*
X437290000Y-220145000D01*
D10*
X438760000Y-215535000D02*
X438760000Y-215916000D01*
X438760000Y-218964000D02*
X438760000Y-219345000D01*
X439141000Y-219345000D02*
X438760000Y-219345000D01*
X441300000Y-212995000D02*
X450190000Y-212995000D01*
X442645838Y-219345000D02*
X440919000Y-219345000D01*
X450190000Y-212995000D02*
X450190000Y-213376000D01*
X450190000Y-216424000D02*
X450190000Y-217440000D01*
X450190000Y-217440000D02*
X445110000Y-217440000D01*
X441300000Y-212995000D02*
G75*
G03*
X438760000Y-215535000I1J-2540001D01*
G01*
X445110000Y-217440000D02*
G75*
G03*
X442645839Y-219363960I0J-2539999D01*
G01*
D11*
X372977500Y-182045000D02*
X372977500Y-187845000D01*
X372977500Y-187870000D02*
X375377500Y-187870000D01*
X375377500Y-182045000D02*
X372977500Y-182045000D01*
X375377500Y-187120000D02*
X372977500Y-187120000D01*
X375377500Y-187295000D02*
X372977500Y-187295000D01*
X375377500Y-187470000D02*
X372977500Y-187470000D01*
X375377500Y-187645000D02*
X372977500Y-187645000D01*
X375377500Y-187770000D02*
X372977500Y-187770000D01*
X375377500Y-187845000D02*
X375377500Y-182045000D01*
D10*
X376847500Y-177435000D02*
X376847500Y-177816000D01*
X376847500Y-180864000D02*
X376847500Y-181245000D01*
X377228500Y-181245000D02*
X376847500Y-181245000D01*
X379387500Y-174895000D02*
X388277500Y-174895000D01*
X380733338Y-181245000D02*
X379006500Y-181245000D01*
X388277500Y-174895000D02*
X388277500Y-175276000D01*
X388277500Y-178324000D02*
X388277500Y-179340000D01*
X388277500Y-179340000D02*
X383197500Y-179340000D01*
X379387500Y-174895000D02*
G75*
G03*
X376847500Y-177435000I1J-2540001D01*
G01*
X383197500Y-179340000D02*
G75*
G03*
X380733339Y-181263960I0J-2539999D01*
G01*
D11*
X339640000Y-239195000D02*
X339640000Y-244995000D01*
X339640000Y-245020000D02*
X342040000Y-245020000D01*
X342040000Y-239195000D02*
X339640000Y-239195000D01*
X342040000Y-244270000D02*
X339640000Y-244270000D01*
X342040000Y-244445000D02*
X339640000Y-244445000D01*
X342040000Y-244620000D02*
X339640000Y-244620000D01*
X342040000Y-244795000D02*
X339640000Y-244795000D01*
X342040000Y-244920000D02*
X339640000Y-244920000D01*
X342040000Y-244995000D02*
X342040000Y-239195000D01*
D10*
X343510000Y-234585000D02*
X343510000Y-234966000D01*
X343510000Y-238014000D02*
X343510000Y-238395000D01*
X343891000Y-238395000D02*
X343510000Y-238395000D01*
X346050000Y-232045000D02*
X354940000Y-232045000D01*
X347395838Y-238395000D02*
X345669000Y-238395000D01*
X354940000Y-232045000D02*
X354940000Y-232426000D01*
X354940000Y-235474000D02*
X354940000Y-236490000D01*
X354940000Y-236490000D02*
X349860000Y-236490000D01*
X346050000Y-232045000D02*
G75*
G03*
X343510000Y-234585000I1J-2540001D01*
G01*
X349860000Y-236490000D02*
G75*
G03*
X347395839Y-238413960I0J-2539999D01*
G01*
D11*
X358690000Y-239195000D02*
X358690000Y-244995000D01*
X358690000Y-245020000D02*
X361090000Y-245020000D01*
X361090000Y-239195000D02*
X358690000Y-239195000D01*
X361090000Y-244270000D02*
X358690000Y-244270000D01*
X361090000Y-244445000D02*
X358690000Y-244445000D01*
X361090000Y-244620000D02*
X358690000Y-244620000D01*
X361090000Y-244795000D02*
X358690000Y-244795000D01*
X361090000Y-244920000D02*
X358690000Y-244920000D01*
X361090000Y-244995000D02*
X361090000Y-239195000D01*
D10*
X362560000Y-234585000D02*
X362560000Y-234966000D01*
X362560000Y-238014000D02*
X362560000Y-238395000D01*
X362941000Y-238395000D02*
X362560000Y-238395000D01*
X365100000Y-232045000D02*
X373990000Y-232045000D01*
X366445838Y-238395000D02*
X364719000Y-238395000D01*
X373990000Y-232045000D02*
X373990000Y-232426000D01*
X373990000Y-235474000D02*
X373990000Y-236490000D01*
X373990000Y-236490000D02*
X368910000Y-236490000D01*
X365100000Y-232045000D02*
G75*
G03*
X362560000Y-234585000I1J-2540001D01*
G01*
X368910000Y-236490000D02*
G75*
G03*
X366445839Y-238413960I0J-2539999D01*
G01*
D11*
X172952500Y-201095000D02*
X172952500Y-206895000D01*
X172952500Y-206920000D02*
X175352500Y-206920000D01*
X175352500Y-201095000D02*
X172952500Y-201095000D01*
X175352500Y-206170000D02*
X172952500Y-206170000D01*
X175352500Y-206345000D02*
X172952500Y-206345000D01*
X175352500Y-206520000D02*
X172952500Y-206520000D01*
X175352500Y-206695000D02*
X172952500Y-206695000D01*
X175352500Y-206820000D02*
X172952500Y-206820000D01*
X175352500Y-206895000D02*
X175352500Y-201095000D01*
D10*
X176822500Y-196485000D02*
X176822500Y-196866000D01*
X176822500Y-199914000D02*
X176822500Y-200295000D01*
X177203500Y-200295000D02*
X176822500Y-200295000D01*
X179362500Y-193945000D02*
X188252500Y-193945000D01*
X180708338Y-200295000D02*
X178981500Y-200295000D01*
X188252500Y-193945000D02*
X188252500Y-194326000D01*
X188252500Y-197374000D02*
X188252500Y-198390000D01*
X188252500Y-198390000D02*
X183172500Y-198390000D01*
X179362500Y-193945000D02*
G75*
G03*
X176822500Y-196485000I1J-2540001D01*
G01*
X183172500Y-198390000D02*
G75*
G03*
X180708339Y-200313960I0J-2539999D01*
G01*
D11*
X406315000Y-201095000D02*
X406315000Y-206895000D01*
X406315000Y-206920000D02*
X408715000Y-206920000D01*
X408715000Y-201095000D02*
X406315000Y-201095000D01*
X408715000Y-206170000D02*
X406315000Y-206170000D01*
X408715000Y-206345000D02*
X406315000Y-206345000D01*
X408715000Y-206520000D02*
X406315000Y-206520000D01*
X408715000Y-206695000D02*
X406315000Y-206695000D01*
X408715000Y-206820000D02*
X406315000Y-206820000D01*
X408715000Y-206895000D02*
X408715000Y-201095000D01*
D10*
X410185000Y-196485000D02*
X410185000Y-196866000D01*
X410185000Y-199914000D02*
X410185000Y-200295000D01*
X410566000Y-200295000D02*
X410185000Y-200295000D01*
X412725000Y-193945000D02*
X421615000Y-193945000D01*
X414070838Y-200295000D02*
X412344000Y-200295000D01*
X421615000Y-193945000D02*
X421615000Y-194326000D01*
X421615000Y-197374000D02*
X421615000Y-198390000D01*
X421615000Y-198390000D02*
X416535000Y-198390000D01*
X412725000Y-193945000D02*
G75*
G03*
X410185000Y-196485000I1J-2540001D01*
G01*
X416535000Y-198390000D02*
G75*
G03*
X414070839Y-200313960I0J-2539999D01*
G01*
D11*
X151521250Y-220145000D02*
X151521250Y-225945000D01*
X151521250Y-225970000D02*
X153921250Y-225970000D01*
X153921250Y-220145000D02*
X151521250Y-220145000D01*
X153921250Y-225220000D02*
X151521250Y-225220000D01*
X153921250Y-225395000D02*
X151521250Y-225395000D01*
X153921250Y-225570000D02*
X151521250Y-225570000D01*
X153921250Y-225745000D02*
X151521250Y-225745000D01*
X153921250Y-225870000D02*
X151521250Y-225870000D01*
X153921250Y-225945000D02*
X153921250Y-220145000D01*
D10*
X155391250Y-215535000D02*
X155391250Y-215916000D01*
X155391250Y-218964000D02*
X155391250Y-219345000D01*
X155772250Y-219345000D02*
X155391250Y-219345000D01*
X157931250Y-212995000D02*
X166821250Y-212995000D01*
X159277088Y-219345000D02*
X157550250Y-219345000D01*
X166821250Y-212995000D02*
X166821250Y-213376000D01*
X166821250Y-216424000D02*
X166821250Y-217440000D01*
X166821250Y-217440000D02*
X161741250Y-217440000D01*
X157931250Y-212995000D02*
G75*
G03*
X155391250Y-215535000I1J-2540001D01*
G01*
X161741250Y-217440000D02*
G75*
G03*
X159277089Y-219363960I0J-2539999D01*
G01*
D11*
X320590000Y-239195000D02*
X320590000Y-244995000D01*
X320590000Y-245020000D02*
X322990000Y-245020000D01*
X322990000Y-239195000D02*
X320590000Y-239195000D01*
X322990000Y-244270000D02*
X320590000Y-244270000D01*
X322990000Y-244445000D02*
X320590000Y-244445000D01*
X322990000Y-244620000D02*
X320590000Y-244620000D01*
X322990000Y-244795000D02*
X320590000Y-244795000D01*
X322990000Y-244920000D02*
X320590000Y-244920000D01*
X322990000Y-244995000D02*
X322990000Y-239195000D01*
D10*
X324460000Y-234585000D02*
X324460000Y-234966000D01*
X324460000Y-238014000D02*
X324460000Y-238395000D01*
X324841000Y-238395000D02*
X324460000Y-238395000D01*
X327000000Y-232045000D02*
X335890000Y-232045000D01*
X328345838Y-238395000D02*
X326619000Y-238395000D01*
X335890000Y-232045000D02*
X335890000Y-232426000D01*
X335890000Y-235474000D02*
X335890000Y-236490000D01*
X335890000Y-236490000D02*
X330810000Y-236490000D01*
X327000000Y-232045000D02*
G75*
G03*
X324460000Y-234585000I1J-2540001D01*
G01*
X330810000Y-236490000D02*
G75*
G03*
X328345839Y-238413960I0J-2539999D01*
G01*
D11*
X330115000Y-220145000D02*
X330115000Y-225945000D01*
X330115000Y-225970000D02*
X332515000Y-225970000D01*
X332515000Y-220145000D02*
X330115000Y-220145000D01*
X332515000Y-225220000D02*
X330115000Y-225220000D01*
X332515000Y-225395000D02*
X330115000Y-225395000D01*
X332515000Y-225570000D02*
X330115000Y-225570000D01*
X332515000Y-225745000D02*
X330115000Y-225745000D01*
X332515000Y-225870000D02*
X330115000Y-225870000D01*
X332515000Y-225945000D02*
X332515000Y-220145000D01*
D10*
X333985000Y-215535000D02*
X333985000Y-215916000D01*
X333985000Y-218964000D02*
X333985000Y-219345000D01*
X334366000Y-219345000D02*
X333985000Y-219345000D01*
X336525000Y-212995000D02*
X345415000Y-212995000D01*
X337870838Y-219345000D02*
X336144000Y-219345000D01*
X345415000Y-212995000D02*
X345415000Y-213376000D01*
X345415000Y-216424000D02*
X345415000Y-217440000D01*
X345415000Y-217440000D02*
X340335000Y-217440000D01*
X336525000Y-212995000D02*
G75*
G03*
X333985000Y-215535000I1J-2540001D01*
G01*
X340335000Y-217440000D02*
G75*
G03*
X337870839Y-219363960I0J-2539999D01*
G01*
D11*
X263440000Y-239195000D02*
X263440000Y-244995000D01*
X263440000Y-245020000D02*
X265840000Y-245020000D01*
X265840000Y-239195000D02*
X263440000Y-239195000D01*
X265840000Y-244270000D02*
X263440000Y-244270000D01*
X265840000Y-244445000D02*
X263440000Y-244445000D01*
X265840000Y-244620000D02*
X263440000Y-244620000D01*
X265840000Y-244795000D02*
X263440000Y-244795000D01*
X265840000Y-244920000D02*
X263440000Y-244920000D01*
X265840000Y-244995000D02*
X265840000Y-239195000D01*
D10*
X267310000Y-234585000D02*
X267310000Y-234966000D01*
X267310000Y-238014000D02*
X267310000Y-238395000D01*
X267691000Y-238395000D02*
X267310000Y-238395000D01*
X269850000Y-232045000D02*
X278740000Y-232045000D01*
X271195838Y-238395000D02*
X269469000Y-238395000D01*
X278740000Y-232045000D02*
X278740000Y-232426000D01*
X278740000Y-235474000D02*
X278740000Y-236490000D01*
X278740000Y-236490000D02*
X273660000Y-236490000D01*
X269850000Y-232045000D02*
G75*
G03*
X267310000Y-234585000I1J-2540001D01*
G01*
X273660000Y-236490000D02*
G75*
G03*
X271195839Y-238413960I0J-2539999D01*
G01*
D11*
X244390000Y-239195000D02*
X244390000Y-244995000D01*
X244390000Y-245020000D02*
X246790000Y-245020000D01*
X246790000Y-239195000D02*
X244390000Y-239195000D01*
X246790000Y-244270000D02*
X244390000Y-244270000D01*
X246790000Y-244445000D02*
X244390000Y-244445000D01*
X246790000Y-244620000D02*
X244390000Y-244620000D01*
X246790000Y-244795000D02*
X244390000Y-244795000D01*
X246790000Y-244920000D02*
X244390000Y-244920000D01*
X246790000Y-244995000D02*
X246790000Y-239195000D01*
D10*
X248260000Y-234585000D02*
X248260000Y-234966000D01*
X248260000Y-238014000D02*
X248260000Y-238395000D01*
X248641000Y-238395000D02*
X248260000Y-238395000D01*
X250800000Y-232045000D02*
X259690000Y-232045000D01*
X252145838Y-238395000D02*
X250419000Y-238395000D01*
X259690000Y-232045000D02*
X259690000Y-232426000D01*
X259690000Y-235474000D02*
X259690000Y-236490000D01*
X259690000Y-236490000D02*
X254610000Y-236490000D01*
X250800000Y-232045000D02*
G75*
G03*
X248260000Y-234585000I1J-2540001D01*
G01*
X254610000Y-236490000D02*
G75*
G03*
X252145839Y-238413960I0J-2539999D01*
G01*
D11*
X330115000Y-158232500D02*
X330115000Y-164032500D01*
X330115000Y-164057500D02*
X332515000Y-164057500D01*
X332515000Y-158232500D02*
X330115000Y-158232500D01*
X332515000Y-163307500D02*
X330115000Y-163307500D01*
X332515000Y-163482500D02*
X330115000Y-163482500D01*
X332515000Y-163657500D02*
X330115000Y-163657500D01*
X332515000Y-163832500D02*
X330115000Y-163832500D01*
X332515000Y-163957500D02*
X330115000Y-163957500D01*
X332515000Y-164032500D02*
X332515000Y-158232500D01*
D10*
X333985000Y-153622500D02*
X333985000Y-154003500D01*
X333985000Y-157051500D02*
X333985000Y-157432500D01*
X334366000Y-157432500D02*
X333985000Y-157432500D01*
X336525000Y-151082500D02*
X345415000Y-151082500D01*
X337870838Y-157432500D02*
X336144000Y-157432500D01*
X345415000Y-151082500D02*
X345415000Y-151463500D01*
X345415000Y-154511500D02*
X345415000Y-155527500D01*
X345415000Y-155527500D02*
X340335000Y-155527500D01*
X336525000Y-151082500D02*
G75*
G03*
X333985000Y-153622500I1J-2540001D01*
G01*
X340335000Y-155527500D02*
G75*
G03*
X337870839Y-157451460I0J-2539999D01*
G01*
X388760300Y-234583200D02*
X388760300Y-234964200D01*
X388760300Y-238012200D02*
X388760300Y-238393200D01*
X389141300Y-238393200D02*
X388760300Y-238393200D01*
X391300300Y-232043200D02*
X400190300Y-232043200D01*
X392646138Y-238393200D02*
X390919300Y-238393200D01*
X400190300Y-232043200D02*
X400190300Y-232424200D01*
X400190300Y-235472200D02*
X400190300Y-236488200D01*
X400190300Y-236488200D02*
X395110300Y-236488200D01*
X391300300Y-232043200D02*
G75*
G03*
X388760300Y-234583200I1J-2540001D01*
G01*
X395110300Y-236488200D02*
G75*
G03*
X392646139Y-238412160I0J-2539999D01*
G01*
D11*
X396790000Y-263007500D02*
X396790000Y-268807500D01*
X396790000Y-268832500D02*
X399190000Y-268832500D01*
X399190000Y-263007500D02*
X396790000Y-263007500D01*
X399190000Y-268082500D02*
X396790000Y-268082500D01*
X399190000Y-268257500D02*
X396790000Y-268257500D01*
X399190000Y-268432500D02*
X396790000Y-268432500D01*
X399190000Y-268607500D02*
X396790000Y-268607500D01*
X399190000Y-268732500D02*
X396790000Y-268732500D01*
X399190000Y-268807500D02*
X399190000Y-263007500D01*
D10*
X400660000Y-258397500D02*
X400660000Y-258778500D01*
X400660000Y-261826500D02*
X400660000Y-262207500D01*
X401041000Y-262207500D02*
X400660000Y-262207500D01*
X403200000Y-255857500D02*
X412090000Y-255857500D01*
X404545838Y-262207500D02*
X402819000Y-262207500D01*
X412090000Y-255857500D02*
X412090000Y-256238500D01*
X412090000Y-259286500D02*
X412090000Y-260302500D01*
X412090000Y-260302500D02*
X407010000Y-260302500D01*
X403200000Y-255857500D02*
G75*
G03*
X400660000Y-258397500I1J-2540001D01*
G01*
X407010000Y-260302500D02*
G75*
G03*
X404545839Y-262226460I0J-2539999D01*
G01*
D11*
X182477500Y-182045000D02*
X182477500Y-187845000D01*
X182477500Y-187870000D02*
X184877500Y-187870000D01*
X184877500Y-182045000D02*
X182477500Y-182045000D01*
X184877500Y-187120000D02*
X182477500Y-187120000D01*
X184877500Y-187295000D02*
X182477500Y-187295000D01*
X184877500Y-187470000D02*
X182477500Y-187470000D01*
X184877500Y-187645000D02*
X182477500Y-187645000D01*
X184877500Y-187770000D02*
X182477500Y-187770000D01*
X184877500Y-187845000D02*
X184877500Y-182045000D01*
D10*
X186347500Y-177435000D02*
X186347500Y-177816000D01*
X186347500Y-180864000D02*
X186347500Y-181245000D01*
X186728500Y-181245000D02*
X186347500Y-181245000D01*
X188887500Y-174895000D02*
X197777500Y-174895000D01*
X190233338Y-181245000D02*
X188506500Y-181245000D01*
X197777500Y-174895000D02*
X197777500Y-175276000D01*
X197777500Y-178324000D02*
X197777500Y-179340000D01*
X197777500Y-179340000D02*
X192697500Y-179340000D01*
X188887500Y-174895000D02*
G75*
G03*
X186347500Y-177435000I1J-2540001D01*
G01*
X192697500Y-179340000D02*
G75*
G03*
X190233339Y-181263960I0J-2539999D01*
G01*
D11*
X315827500Y-182045000D02*
X315827500Y-187845000D01*
X315827500Y-187870000D02*
X318227500Y-187870000D01*
X318227500Y-182045000D02*
X315827500Y-182045000D01*
X318227500Y-187120000D02*
X315827500Y-187120000D01*
X318227500Y-187295000D02*
X315827500Y-187295000D01*
X318227500Y-187470000D02*
X315827500Y-187470000D01*
X318227500Y-187645000D02*
X315827500Y-187645000D01*
X318227500Y-187770000D02*
X315827500Y-187770000D01*
X318227500Y-187845000D02*
X318227500Y-182045000D01*
D10*
X319697500Y-177435000D02*
X319697500Y-177816000D01*
X319697500Y-180864000D02*
X319697500Y-181245000D01*
X320078500Y-181245000D02*
X319697500Y-181245000D01*
X322237500Y-174895000D02*
X331127500Y-174895000D01*
X323583338Y-181245000D02*
X321856500Y-181245000D01*
X331127500Y-174895000D02*
X331127500Y-175276000D01*
X331127500Y-178324000D02*
X331127500Y-179340000D01*
X331127500Y-179340000D02*
X326047500Y-179340000D01*
X322237500Y-174895000D02*
G75*
G03*
X319697500Y-177435000I1J-2540001D01*
G01*
X326047500Y-179340000D02*
G75*
G03*
X323583339Y-181263960I0J-2539999D01*
G01*
D11*
X282490000Y-239195000D02*
X282490000Y-244995000D01*
X282490000Y-245020000D02*
X284890000Y-245020000D01*
X284890000Y-239195000D02*
X282490000Y-239195000D01*
X284890000Y-244270000D02*
X282490000Y-244270000D01*
X284890000Y-244445000D02*
X282490000Y-244445000D01*
X284890000Y-244620000D02*
X282490000Y-244620000D01*
X284890000Y-244795000D02*
X282490000Y-244795000D01*
X284890000Y-244920000D02*
X282490000Y-244920000D01*
X284890000Y-244995000D02*
X284890000Y-239195000D01*
D10*
X286360000Y-234585000D02*
X286360000Y-234966000D01*
X286360000Y-238014000D02*
X286360000Y-238395000D01*
X286741000Y-238395000D02*
X286360000Y-238395000D01*
X288900000Y-232045000D02*
X297790000Y-232045000D01*
X290245838Y-238395000D02*
X288519000Y-238395000D01*
X297790000Y-232045000D02*
X297790000Y-232426000D01*
X297790000Y-235474000D02*
X297790000Y-236490000D01*
X297790000Y-236490000D02*
X292710000Y-236490000D01*
X288900000Y-232045000D02*
G75*
G03*
X286360000Y-234585000I1J-2540001D01*
G01*
X292710000Y-236490000D02*
G75*
G03*
X290245839Y-238413960I0J-2539999D01*
G01*
D11*
X325352500Y-201095000D02*
X325352500Y-206895000D01*
X325352500Y-206920000D02*
X327752500Y-206920000D01*
X327752500Y-201095000D02*
X325352500Y-201095000D01*
X327752500Y-206170000D02*
X325352500Y-206170000D01*
X327752500Y-206345000D02*
X325352500Y-206345000D01*
X327752500Y-206520000D02*
X325352500Y-206520000D01*
X327752500Y-206695000D02*
X325352500Y-206695000D01*
X327752500Y-206820000D02*
X325352500Y-206820000D01*
X327752500Y-206895000D02*
X327752500Y-201095000D01*
D10*
X329222500Y-196485000D02*
X329222500Y-196866000D01*
X329222500Y-199914000D02*
X329222500Y-200295000D01*
X329603500Y-200295000D02*
X329222500Y-200295000D01*
X331762500Y-193945000D02*
X340652500Y-193945000D01*
X333108338Y-200295000D02*
X331381500Y-200295000D01*
X340652500Y-193945000D02*
X340652500Y-194326000D01*
X340652500Y-197374000D02*
X340652500Y-198390000D01*
X340652500Y-198390000D02*
X335572500Y-198390000D01*
X331762500Y-193945000D02*
G75*
G03*
X329222500Y-196485000I1J-2540001D01*
G01*
X335572500Y-198390000D02*
G75*
G03*
X333108339Y-200313960I0J-2539999D01*
G01*
D11*
X258677500Y-182045000D02*
X258677500Y-187845000D01*
X258677500Y-187870000D02*
X261077500Y-187870000D01*
X261077500Y-182045000D02*
X258677500Y-182045000D01*
X261077500Y-187120000D02*
X258677500Y-187120000D01*
X261077500Y-187295000D02*
X258677500Y-187295000D01*
X261077500Y-187470000D02*
X258677500Y-187470000D01*
X261077500Y-187645000D02*
X258677500Y-187645000D01*
X261077500Y-187770000D02*
X258677500Y-187770000D01*
X261077500Y-187845000D02*
X261077500Y-182045000D01*
D10*
X262547500Y-177435000D02*
X262547500Y-177816000D01*
X262547500Y-180864000D02*
X262547500Y-181245000D01*
X262928500Y-181245000D02*
X262547500Y-181245000D01*
X265087500Y-174895000D02*
X273977500Y-174895000D01*
X266433338Y-181245000D02*
X264706500Y-181245000D01*
X273977500Y-174895000D02*
X273977500Y-175276000D01*
X273977500Y-178324000D02*
X273977500Y-179340000D01*
X273977500Y-179340000D02*
X268897500Y-179340000D01*
X265087500Y-174895000D02*
G75*
G03*
X262547500Y-177435000I1J-2540001D01*
G01*
X268897500Y-179340000D02*
G75*
G03*
X266433339Y-181263960I0J-2539999D01*
G01*
D11*
X368215000Y-158232500D02*
X368215000Y-164032500D01*
X368215000Y-164057500D02*
X370615000Y-164057500D01*
X370615000Y-158232500D02*
X368215000Y-158232500D01*
X370615000Y-163307500D02*
X368215000Y-163307500D01*
X370615000Y-163482500D02*
X368215000Y-163482500D01*
X370615000Y-163657500D02*
X368215000Y-163657500D01*
X370615000Y-163832500D02*
X368215000Y-163832500D01*
X370615000Y-163957500D02*
X368215000Y-163957500D01*
X370615000Y-164032500D02*
X370615000Y-158232500D01*
D10*
X372085000Y-153622500D02*
X372085000Y-154003500D01*
X372085000Y-157051500D02*
X372085000Y-157432500D01*
X372466000Y-157432500D02*
X372085000Y-157432500D01*
X374625000Y-151082500D02*
X383515000Y-151082500D01*
X375970838Y-157432500D02*
X374244000Y-157432500D01*
X383515000Y-151082500D02*
X383515000Y-151463500D01*
X383515000Y-154511500D02*
X383515000Y-155527500D01*
X383515000Y-155527500D02*
X378435000Y-155527500D01*
X374625000Y-151082500D02*
G75*
G03*
X372085000Y-153622500I1J-2540001D01*
G01*
X378435000Y-155527500D02*
G75*
G03*
X375970839Y-157451460I0J-2539999D01*
G01*
D11*
X372977500Y-258245000D02*
X372977500Y-264045000D01*
X372977500Y-264070000D02*
X375377500Y-264070000D01*
X375377500Y-258245000D02*
X372977500Y-258245000D01*
X375377500Y-263320000D02*
X372977500Y-263320000D01*
X375377500Y-263495000D02*
X372977500Y-263495000D01*
X375377500Y-263670000D02*
X372977500Y-263670000D01*
X375377500Y-263845000D02*
X372977500Y-263845000D01*
X375377500Y-263970000D02*
X372977500Y-263970000D01*
X375377500Y-264045000D02*
X375377500Y-258245000D01*
D10*
X376847500Y-253635000D02*
X376847500Y-254016000D01*
X376847500Y-257064000D02*
X376847500Y-257445000D01*
X377228500Y-257445000D02*
X376847500Y-257445000D01*
X379387500Y-251095000D02*
X388277500Y-251095000D01*
X380733338Y-257445000D02*
X379006500Y-257445000D01*
X388277500Y-251095000D02*
X388277500Y-251476000D01*
X388277500Y-254524000D02*
X388277500Y-255540000D01*
X388277500Y-255540000D02*
X383197500Y-255540000D01*
X379387500Y-251095000D02*
G75*
G03*
X376847500Y-253635000I1J-2540001D01*
G01*
X383197500Y-255540000D02*
G75*
G03*
X380733339Y-257463960I0J-2539999D01*
G01*
D11*
X201527500Y-182045000D02*
X201527500Y-187845000D01*
X201527500Y-187870000D02*
X203927500Y-187870000D01*
X203927500Y-182045000D02*
X201527500Y-182045000D01*
X203927500Y-187120000D02*
X201527500Y-187120000D01*
X203927500Y-187295000D02*
X201527500Y-187295000D01*
X203927500Y-187470000D02*
X201527500Y-187470000D01*
X203927500Y-187645000D02*
X201527500Y-187645000D01*
X203927500Y-187770000D02*
X201527500Y-187770000D01*
X203927500Y-187845000D02*
X203927500Y-182045000D01*
D10*
X205397500Y-177435000D02*
X205397500Y-177816000D01*
X205397500Y-180864000D02*
X205397500Y-181245000D01*
X205778500Y-181245000D02*
X205397500Y-181245000D01*
X207937500Y-174895000D02*
X216827500Y-174895000D01*
X209283338Y-181245000D02*
X207556500Y-181245000D01*
X216827500Y-174895000D02*
X216827500Y-175276000D01*
X216827500Y-178324000D02*
X216827500Y-179340000D01*
X216827500Y-179340000D02*
X211747500Y-179340000D01*
X207937500Y-174895000D02*
G75*
G03*
X205397500Y-177435000I1J-2540001D01*
G01*
X211747500Y-179340000D02*
G75*
G03*
X209283339Y-181263960I0J-2539999D01*
G01*
D11*
X192002500Y-201095000D02*
X192002500Y-206895000D01*
X192002500Y-206920000D02*
X194402500Y-206920000D01*
X194402500Y-201095000D02*
X192002500Y-201095000D01*
X194402500Y-206170000D02*
X192002500Y-206170000D01*
X194402500Y-206345000D02*
X192002500Y-206345000D01*
X194402500Y-206520000D02*
X192002500Y-206520000D01*
X194402500Y-206695000D02*
X192002500Y-206695000D01*
X194402500Y-206820000D02*
X192002500Y-206820000D01*
X194402500Y-206895000D02*
X194402500Y-201095000D01*
D10*
X195872500Y-196485000D02*
X195872500Y-196866000D01*
X195872500Y-199914000D02*
X195872500Y-200295000D01*
X196253500Y-200295000D02*
X195872500Y-200295000D01*
X198412500Y-193945000D02*
X207302500Y-193945000D01*
X199758338Y-200295000D02*
X198031500Y-200295000D01*
X207302500Y-193945000D02*
X207302500Y-194326000D01*
X207302500Y-197374000D02*
X207302500Y-198390000D01*
X207302500Y-198390000D02*
X202222500Y-198390000D01*
X198412500Y-193945000D02*
G75*
G03*
X195872500Y-196485000I1J-2540001D01*
G01*
X202222500Y-198390000D02*
G75*
G03*
X199758339Y-200313960I0J-2539999D01*
G01*
D11*
X363452500Y-201095000D02*
X363452500Y-206895000D01*
X363452500Y-206920000D02*
X365852500Y-206920000D01*
X365852500Y-201095000D02*
X363452500Y-201095000D01*
X365852500Y-206170000D02*
X363452500Y-206170000D01*
X365852500Y-206345000D02*
X363452500Y-206345000D01*
X365852500Y-206520000D02*
X363452500Y-206520000D01*
X365852500Y-206695000D02*
X363452500Y-206695000D01*
X365852500Y-206820000D02*
X363452500Y-206820000D01*
X365852500Y-206895000D02*
X365852500Y-201095000D01*
D10*
X367322500Y-196485000D02*
X367322500Y-196866000D01*
X367322500Y-199914000D02*
X367322500Y-200295000D01*
X367703500Y-200295000D02*
X367322500Y-200295000D01*
X369862500Y-193945000D02*
X378752500Y-193945000D01*
X371208338Y-200295000D02*
X369481500Y-200295000D01*
X378752500Y-193945000D02*
X378752500Y-194326000D01*
X378752500Y-197374000D02*
X378752500Y-198390000D01*
X378752500Y-198390000D02*
X373672500Y-198390000D01*
X369862500Y-193945000D02*
G75*
G03*
X367322500Y-196485000I1J-2540001D01*
G01*
X373672500Y-198390000D02*
G75*
G03*
X371208339Y-200313960I0J-2539999D01*
G01*
D11*
X415840000Y-263007500D02*
X415840000Y-268807500D01*
X415840000Y-268832500D02*
X418240000Y-268832500D01*
X418240000Y-263007500D02*
X415840000Y-263007500D01*
X418240000Y-268082500D02*
X415840000Y-268082500D01*
X418240000Y-268257500D02*
X415840000Y-268257500D01*
X418240000Y-268432500D02*
X415840000Y-268432500D01*
X418240000Y-268607500D02*
X415840000Y-268607500D01*
X418240000Y-268732500D02*
X415840000Y-268732500D01*
X418240000Y-268807500D02*
X418240000Y-263007500D01*
D10*
X419710000Y-258397500D02*
X419710000Y-258778500D01*
X419710000Y-261826500D02*
X419710000Y-262207500D01*
X420091000Y-262207500D02*
X419710000Y-262207500D01*
X422250000Y-255857500D02*
X431140000Y-255857500D01*
X423595838Y-262207500D02*
X421869000Y-262207500D01*
X431140000Y-255857500D02*
X431140000Y-256238500D01*
X431140000Y-259286500D02*
X431140000Y-260302500D01*
X431140000Y-260302500D02*
X426060000Y-260302500D01*
X422250000Y-255857500D02*
G75*
G03*
X419710000Y-258397500I1J-2540001D01*
G01*
X426060000Y-260302500D02*
G75*
G03*
X423595839Y-262226460I0J-2539999D01*
G01*
D11*
X301540000Y-239195000D02*
X301540000Y-244995000D01*
X301540000Y-245020000D02*
X303940000Y-245020000D01*
X303940000Y-239195000D02*
X301540000Y-239195000D01*
X303940000Y-244270000D02*
X301540000Y-244270000D01*
X303940000Y-244445000D02*
X301540000Y-244445000D01*
X303940000Y-244620000D02*
X301540000Y-244620000D01*
X303940000Y-244795000D02*
X301540000Y-244795000D01*
X303940000Y-244920000D02*
X301540000Y-244920000D01*
X303940000Y-244995000D02*
X303940000Y-239195000D01*
D10*
X305410000Y-234585000D02*
X305410000Y-234966000D01*
X305410000Y-238014000D02*
X305410000Y-238395000D01*
X305791000Y-238395000D02*
X305410000Y-238395000D01*
X307950000Y-232045000D02*
X316840000Y-232045000D01*
X309295838Y-238395000D02*
X307569000Y-238395000D01*
X316840000Y-232045000D02*
X316840000Y-232426000D01*
X316840000Y-235474000D02*
X316840000Y-236490000D01*
X316840000Y-236490000D02*
X311760000Y-236490000D01*
X307950000Y-232045000D02*
G75*
G03*
X305410000Y-234585000I1J-2540001D01*
G01*
X311760000Y-236490000D02*
G75*
G03*
X309295839Y-238413960I0J-2539999D01*
G01*
D11*
X434890000Y-263007500D02*
X434890000Y-268807500D01*
X434890000Y-268832500D02*
X437290000Y-268832500D01*
X437290000Y-263007500D02*
X434890000Y-263007500D01*
X437290000Y-268082500D02*
X434890000Y-268082500D01*
X437290000Y-268257500D02*
X434890000Y-268257500D01*
X437290000Y-268432500D02*
X434890000Y-268432500D01*
X437290000Y-268607500D02*
X434890000Y-268607500D01*
X437290000Y-268732500D02*
X434890000Y-268732500D01*
X437290000Y-268807500D02*
X437290000Y-263007500D01*
D10*
X438760000Y-258397500D02*
X438760000Y-258778500D01*
X438760000Y-261826500D02*
X438760000Y-262207500D01*
X439141000Y-262207500D02*
X438760000Y-262207500D01*
X441300000Y-255857500D02*
X450190000Y-255857500D01*
X442645838Y-262207500D02*
X440919000Y-262207500D01*
X450190000Y-255857500D02*
X450190000Y-256238500D01*
X450190000Y-259286500D02*
X450190000Y-260302500D01*
X450190000Y-260302500D02*
X445110000Y-260302500D01*
X441300000Y-255857500D02*
G75*
G03*
X438760000Y-258397500I1J-2540001D01*
G01*
X445110000Y-260302500D02*
G75*
G03*
X442645839Y-262226460I0J-2539999D01*
G01*
D11*
X225340000Y-158232500D02*
X225340000Y-164032500D01*
X225340000Y-164057500D02*
X227740000Y-164057500D01*
X227740000Y-158232500D02*
X225340000Y-158232500D01*
X227740000Y-163307500D02*
X225340000Y-163307500D01*
X227740000Y-163482500D02*
X225340000Y-163482500D01*
X227740000Y-163657500D02*
X225340000Y-163657500D01*
X227740000Y-163832500D02*
X225340000Y-163832500D01*
X227740000Y-163957500D02*
X225340000Y-163957500D01*
X227740000Y-164032500D02*
X227740000Y-158232500D01*
D10*
X229210000Y-153622500D02*
X229210000Y-154003500D01*
X229210000Y-157051500D02*
X229210000Y-157432500D01*
X229591000Y-157432500D02*
X229210000Y-157432500D01*
X231750000Y-151082500D02*
X240640000Y-151082500D01*
X233095838Y-157432500D02*
X231369000Y-157432500D01*
X240640000Y-151082500D02*
X240640000Y-151463500D01*
X240640000Y-154511500D02*
X240640000Y-155527500D01*
X240640000Y-155527500D02*
X235560000Y-155527500D01*
X231750000Y-151082500D02*
G75*
G03*
X229210000Y-153622500I1J-2540001D01*
G01*
X235560000Y-155527500D02*
G75*
G03*
X233095839Y-157451460I0J-2539999D01*
G01*
D11*
X144377500Y-182045000D02*
X144377500Y-187845000D01*
X144377500Y-187870000D02*
X146777500Y-187870000D01*
X146777500Y-182045000D02*
X144377500Y-182045000D01*
X146777500Y-187120000D02*
X144377500Y-187120000D01*
X146777500Y-187295000D02*
X144377500Y-187295000D01*
X146777500Y-187470000D02*
X144377500Y-187470000D01*
X146777500Y-187645000D02*
X144377500Y-187645000D01*
X146777500Y-187770000D02*
X144377500Y-187770000D01*
X146777500Y-187845000D02*
X146777500Y-182045000D01*
D10*
X148247500Y-177435000D02*
X148247500Y-177816000D01*
X148247500Y-180864000D02*
X148247500Y-181245000D01*
X148628500Y-181245000D02*
X148247500Y-181245000D01*
X150787500Y-174895000D02*
X159677500Y-174895000D01*
X152133338Y-181245000D02*
X150406500Y-181245000D01*
X159677500Y-174895000D02*
X159677500Y-175276000D01*
X159677500Y-178324000D02*
X159677500Y-179340000D01*
X159677500Y-179340000D02*
X154597500Y-179340000D01*
X150787500Y-174895000D02*
G75*
G03*
X148247500Y-177435000I1J-2540001D01*
G01*
X154597500Y-179340000D02*
G75*
G03*
X152133339Y-181263960I0J-2539999D01*
G01*
D11*
X211052500Y-201095000D02*
X211052500Y-206895000D01*
X211052500Y-206920000D02*
X213452500Y-206920000D01*
X213452500Y-201095000D02*
X211052500Y-201095000D01*
X213452500Y-206170000D02*
X211052500Y-206170000D01*
X213452500Y-206345000D02*
X211052500Y-206345000D01*
X213452500Y-206520000D02*
X211052500Y-206520000D01*
X213452500Y-206695000D02*
X211052500Y-206695000D01*
X213452500Y-206820000D02*
X211052500Y-206820000D01*
X213452500Y-206895000D02*
X213452500Y-201095000D01*
D10*
X214922500Y-196485000D02*
X214922500Y-196866000D01*
X214922500Y-199914000D02*
X214922500Y-200295000D01*
X215303500Y-200295000D02*
X214922500Y-200295000D01*
X217462500Y-193945000D02*
X226352500Y-193945000D01*
X218808338Y-200295000D02*
X217081500Y-200295000D01*
X226352500Y-193945000D02*
X226352500Y-194326000D01*
X226352500Y-197374000D02*
X226352500Y-198390000D01*
X226352500Y-198390000D02*
X221272500Y-198390000D01*
X217462500Y-193945000D02*
G75*
G03*
X214922500Y-196485000I1J-2540001D01*
G01*
X221272500Y-198390000D02*
G75*
G03*
X218808339Y-200313960I0J-2539999D01*
G01*
D11*
X163427500Y-182045000D02*
X163427500Y-187845000D01*
X163427500Y-187870000D02*
X165827500Y-187870000D01*
X165827500Y-182045000D02*
X163427500Y-182045000D01*
X165827500Y-187120000D02*
X163427500Y-187120000D01*
X165827500Y-187295000D02*
X163427500Y-187295000D01*
X165827500Y-187470000D02*
X163427500Y-187470000D01*
X165827500Y-187645000D02*
X163427500Y-187645000D01*
X165827500Y-187770000D02*
X163427500Y-187770000D01*
X165827500Y-187845000D02*
X165827500Y-182045000D01*
D10*
X167297500Y-177435000D02*
X167297500Y-177816000D01*
X167297500Y-180864000D02*
X167297500Y-181245000D01*
X167678500Y-181245000D02*
X167297500Y-181245000D01*
X169837500Y-174895000D02*
X178727500Y-174895000D01*
X171183338Y-181245000D02*
X169456500Y-181245000D01*
X178727500Y-174895000D02*
X178727500Y-175276000D01*
X178727500Y-178324000D02*
X178727500Y-179340000D01*
X178727500Y-179340000D02*
X173647500Y-179340000D01*
X169837500Y-174895000D02*
G75*
G03*
X167297500Y-177435000I1J-2540001D01*
G01*
X173647500Y-179340000D02*
G75*
G03*
X171183339Y-181263960I0J-2539999D01*
G01*
D11*
X349165000Y-220145000D02*
X349165000Y-225945000D01*
X349165000Y-225970000D02*
X351565000Y-225970000D01*
X351565000Y-220145000D02*
X349165000Y-220145000D01*
X351565000Y-225220000D02*
X349165000Y-225220000D01*
X351565000Y-225395000D02*
X349165000Y-225395000D01*
X351565000Y-225570000D02*
X349165000Y-225570000D01*
X351565000Y-225745000D02*
X349165000Y-225745000D01*
X351565000Y-225870000D02*
X349165000Y-225870000D01*
X351565000Y-225945000D02*
X351565000Y-220145000D01*
D10*
X353035000Y-215535000D02*
X353035000Y-215916000D01*
X353035000Y-218964000D02*
X353035000Y-219345000D01*
X353416000Y-219345000D02*
X353035000Y-219345000D01*
X355575000Y-212995000D02*
X364465000Y-212995000D01*
X356920838Y-219345000D02*
X355194000Y-219345000D01*
X364465000Y-212995000D02*
X364465000Y-213376000D01*
X364465000Y-216424000D02*
X364465000Y-217440000D01*
X364465000Y-217440000D02*
X359385000Y-217440000D01*
X355575000Y-212995000D02*
G75*
G03*
X353035000Y-215535000I1J-2540001D01*
G01*
X359385000Y-217440000D02*
G75*
G03*
X356920839Y-219363960I0J-2539999D01*
G01*
D11*
X272965000Y-220145000D02*
X272965000Y-225945000D01*
X272965000Y-225970000D02*
X275365000Y-225970000D01*
X275365000Y-220145000D02*
X272965000Y-220145000D01*
X275365000Y-225220000D02*
X272965000Y-225220000D01*
X275365000Y-225395000D02*
X272965000Y-225395000D01*
X275365000Y-225570000D02*
X272965000Y-225570000D01*
X275365000Y-225745000D02*
X272965000Y-225745000D01*
X275365000Y-225870000D02*
X272965000Y-225870000D01*
X275365000Y-225945000D02*
X275365000Y-220145000D01*
D10*
X276835000Y-215535000D02*
X276835000Y-215916000D01*
X276835000Y-218964000D02*
X276835000Y-219345000D01*
X277216000Y-219345000D02*
X276835000Y-219345000D01*
X279375000Y-212995000D02*
X288265000Y-212995000D01*
X280720838Y-219345000D02*
X278994000Y-219345000D01*
X288265000Y-212995000D02*
X288265000Y-213376000D01*
X288265000Y-216424000D02*
X288265000Y-217440000D01*
X288265000Y-217440000D02*
X283185000Y-217440000D01*
X279375000Y-212995000D02*
G75*
G03*
X276835000Y-215535000I1J-2540001D01*
G01*
X283185000Y-217440000D02*
G75*
G03*
X280720839Y-219363960I0J-2539999D01*
G01*
D11*
X249152500Y-158232500D02*
X249152500Y-164032500D01*
X249152500Y-164057500D02*
X251552500Y-164057500D01*
X251552500Y-158232500D02*
X249152500Y-158232500D01*
X251552500Y-163307500D02*
X249152500Y-163307500D01*
X251552500Y-163482500D02*
X249152500Y-163482500D01*
X251552500Y-163657500D02*
X249152500Y-163657500D01*
X251552500Y-163832500D02*
X249152500Y-163832500D01*
X251552500Y-163957500D02*
X249152500Y-163957500D01*
X251552500Y-164032500D02*
X251552500Y-158232500D01*
D10*
X253022500Y-153622500D02*
X253022500Y-154003500D01*
X253022500Y-157051500D02*
X253022500Y-157432500D01*
X253403500Y-157432500D02*
X253022500Y-157432500D01*
X255562500Y-151082500D02*
X264452500Y-151082500D01*
X256908338Y-157432500D02*
X255181500Y-157432500D01*
X264452500Y-151082500D02*
X264452500Y-151463500D01*
X264452500Y-154511500D02*
X264452500Y-155527500D01*
X264452500Y-155527500D02*
X259372500Y-155527500D01*
X255562500Y-151082500D02*
G75*
G03*
X253022500Y-153622500I1J-2540001D01*
G01*
X259372500Y-155527500D02*
G75*
G03*
X256908339Y-157451460I0J-2539999D01*
G01*
D11*
X249152500Y-201095000D02*
X249152500Y-206895000D01*
X249152500Y-206920000D02*
X251552500Y-206920000D01*
X251552500Y-201095000D02*
X249152500Y-201095000D01*
X251552500Y-206170000D02*
X249152500Y-206170000D01*
X251552500Y-206345000D02*
X249152500Y-206345000D01*
X251552500Y-206520000D02*
X249152500Y-206520000D01*
X251552500Y-206695000D02*
X249152500Y-206695000D01*
X251552500Y-206820000D02*
X249152500Y-206820000D01*
X251552500Y-206895000D02*
X251552500Y-201095000D01*
D10*
X253022500Y-196485000D02*
X253022500Y-196866000D01*
X253022500Y-199914000D02*
X253022500Y-200295000D01*
X253403500Y-200295000D02*
X253022500Y-200295000D01*
X255562500Y-193945000D02*
X264452500Y-193945000D01*
X256908338Y-200295000D02*
X255181500Y-200295000D01*
X264452500Y-193945000D02*
X264452500Y-194326000D01*
X264452500Y-197374000D02*
X264452500Y-198390000D01*
X264452500Y-198390000D02*
X259372500Y-198390000D01*
X255562500Y-193945000D02*
G75*
G03*
X253022500Y-196485000I1J-2540001D01*
G01*
X259372500Y-198390000D02*
G75*
G03*
X256908339Y-200313960I0J-2539999D01*
G01*
D11*
X239627500Y-182045000D02*
X239627500Y-187845000D01*
X239627500Y-187870000D02*
X242027500Y-187870000D01*
X242027500Y-182045000D02*
X239627500Y-182045000D01*
X242027500Y-187120000D02*
X239627500Y-187120000D01*
X242027500Y-187295000D02*
X239627500Y-187295000D01*
X242027500Y-187470000D02*
X239627500Y-187470000D01*
X242027500Y-187645000D02*
X239627500Y-187645000D01*
X242027500Y-187770000D02*
X239627500Y-187770000D01*
X242027500Y-187845000D02*
X242027500Y-182045000D01*
D10*
X243497500Y-177435000D02*
X243497500Y-177816000D01*
X243497500Y-180864000D02*
X243497500Y-181245000D01*
X243878500Y-181245000D02*
X243497500Y-181245000D01*
X246037500Y-174895000D02*
X254927500Y-174895000D01*
X247383338Y-181245000D02*
X245656500Y-181245000D01*
X254927500Y-174895000D02*
X254927500Y-175276000D01*
X254927500Y-178324000D02*
X254927500Y-179340000D01*
X254927500Y-179340000D02*
X249847500Y-179340000D01*
X246037500Y-174895000D02*
G75*
G03*
X243497500Y-177435000I1J-2540001D01*
G01*
X249847500Y-179340000D02*
G75*
G03*
X247383339Y-181263960I0J-2539999D01*
G01*
D11*
X177715000Y-220145000D02*
X177715000Y-225945000D01*
X177715000Y-225970000D02*
X180115000Y-225970000D01*
X180115000Y-220145000D02*
X177715000Y-220145000D01*
X180115000Y-225220000D02*
X177715000Y-225220000D01*
X180115000Y-225395000D02*
X177715000Y-225395000D01*
X180115000Y-225570000D02*
X177715000Y-225570000D01*
X180115000Y-225745000D02*
X177715000Y-225745000D01*
X180115000Y-225870000D02*
X177715000Y-225870000D01*
X180115000Y-225945000D02*
X180115000Y-220145000D01*
D10*
X181585000Y-215535000D02*
X181585000Y-215916000D01*
X181585000Y-218964000D02*
X181585000Y-219345000D01*
X181966000Y-219345000D02*
X181585000Y-219345000D01*
X184125000Y-212995000D02*
X193015000Y-212995000D01*
X185470838Y-219345000D02*
X183744000Y-219345000D01*
X193015000Y-212995000D02*
X193015000Y-213376000D01*
X193015000Y-216424000D02*
X193015000Y-217440000D01*
X193015000Y-217440000D02*
X187935000Y-217440000D01*
X184125000Y-212995000D02*
G75*
G03*
X181585000Y-215535000I1J-2540001D01*
G01*
X187935000Y-217440000D02*
G75*
G03*
X185470839Y-219363960I0J-2539999D01*
G01*
D11*
X170571250Y-258245000D02*
X170571250Y-264045000D01*
X170571250Y-264070000D02*
X172971250Y-264070000D01*
X172971250Y-258245000D02*
X170571250Y-258245000D01*
X172971250Y-263320000D02*
X170571250Y-263320000D01*
X172971250Y-263495000D02*
X170571250Y-263495000D01*
X172971250Y-263670000D02*
X170571250Y-263670000D01*
X172971250Y-263845000D02*
X170571250Y-263845000D01*
X172971250Y-263970000D02*
X170571250Y-263970000D01*
X172971250Y-264045000D02*
X172971250Y-258245000D01*
D10*
X174441250Y-253635000D02*
X174441250Y-254016000D01*
X174441250Y-257064000D02*
X174441250Y-257445000D01*
X174822250Y-257445000D02*
X174441250Y-257445000D01*
X176981250Y-251095000D02*
X185871250Y-251095000D01*
X178327088Y-257445000D02*
X176600250Y-257445000D01*
X185871250Y-251095000D02*
X185871250Y-251476000D01*
X185871250Y-254524000D02*
X185871250Y-255540000D01*
X185871250Y-255540000D02*
X180791250Y-255540000D01*
X176981250Y-251095000D02*
G75*
G03*
X174441250Y-253635000I1J-2540001D01*
G01*
X180791250Y-255540000D02*
G75*
G03*
X178327089Y-257463960I0J-2539999D01*
G01*
D11*
X387265000Y-158232500D02*
X387265000Y-164032500D01*
X387265000Y-164057500D02*
X389665000Y-164057500D01*
X389665000Y-158232500D02*
X387265000Y-158232500D01*
X389665000Y-163307500D02*
X387265000Y-163307500D01*
X389665000Y-163482500D02*
X387265000Y-163482500D01*
X389665000Y-163657500D02*
X387265000Y-163657500D01*
X389665000Y-163832500D02*
X387265000Y-163832500D01*
X389665000Y-163957500D02*
X387265000Y-163957500D01*
X389665000Y-164032500D02*
X389665000Y-158232500D01*
D10*
X391135000Y-153622500D02*
X391135000Y-154003500D01*
X391135000Y-157051500D02*
X391135000Y-157432500D01*
X391516000Y-157432500D02*
X391135000Y-157432500D01*
X393675000Y-151082500D02*
X402565000Y-151082500D01*
X395020838Y-157432500D02*
X393294000Y-157432500D01*
X402565000Y-151082500D02*
X402565000Y-151463500D01*
X402565000Y-154511500D02*
X402565000Y-155527500D01*
X402565000Y-155527500D02*
X397485000Y-155527500D01*
X393675000Y-151082500D02*
G75*
G03*
X391135000Y-153622500I1J-2540001D01*
G01*
X397485000Y-155527500D02*
G75*
G03*
X395020839Y-157451460I0J-2539999D01*
G01*
D11*
X168190000Y-158232500D02*
X168190000Y-164032500D01*
X168190000Y-164057500D02*
X170590000Y-164057500D01*
X170590000Y-158232500D02*
X168190000Y-158232500D01*
X170590000Y-163307500D02*
X168190000Y-163307500D01*
X170590000Y-163482500D02*
X168190000Y-163482500D01*
X170590000Y-163657500D02*
X168190000Y-163657500D01*
X170590000Y-163832500D02*
X168190000Y-163832500D01*
X170590000Y-163957500D02*
X168190000Y-163957500D01*
X170590000Y-164032500D02*
X170590000Y-158232500D01*
D10*
X172060000Y-153622500D02*
X172060000Y-154003500D01*
X172060000Y-157051500D02*
X172060000Y-157432500D01*
X172441000Y-157432500D02*
X172060000Y-157432500D01*
X174600000Y-151082500D02*
X183490000Y-151082500D01*
X175945838Y-157432500D02*
X174219000Y-157432500D01*
X183490000Y-151082500D02*
X183490000Y-151463500D01*
X183490000Y-154511500D02*
X183490000Y-155527500D01*
X183490000Y-155527500D02*
X178410000Y-155527500D01*
X174600000Y-151082500D02*
G75*
G03*
X172060000Y-153622500I1J-2540001D01*
G01*
X178410000Y-155527500D02*
G75*
G03*
X175945839Y-157451460I0J-2539999D01*
G01*
D11*
X215815000Y-220145000D02*
X215815000Y-225945000D01*
X215815000Y-225970000D02*
X218215000Y-225970000D01*
X218215000Y-220145000D02*
X215815000Y-220145000D01*
X218215000Y-225220000D02*
X215815000Y-225220000D01*
X218215000Y-225395000D02*
X215815000Y-225395000D01*
X218215000Y-225570000D02*
X215815000Y-225570000D01*
X218215000Y-225745000D02*
X215815000Y-225745000D01*
X218215000Y-225870000D02*
X215815000Y-225870000D01*
X218215000Y-225945000D02*
X218215000Y-220145000D01*
D10*
X219685000Y-215535000D02*
X219685000Y-215916000D01*
X219685000Y-218964000D02*
X219685000Y-219345000D01*
X220066000Y-219345000D02*
X219685000Y-219345000D01*
X222225000Y-212995000D02*
X231115000Y-212995000D01*
X223570838Y-219345000D02*
X221844000Y-219345000D01*
X231115000Y-212995000D02*
X231115000Y-213376000D01*
X231115000Y-216424000D02*
X231115000Y-217440000D01*
X231115000Y-217440000D02*
X226035000Y-217440000D01*
X222225000Y-212995000D02*
G75*
G03*
X219685000Y-215535000I1J-2540001D01*
G01*
X226035000Y-217440000D02*
G75*
G03*
X223570839Y-219363960I0J-2539999D01*
G01*
X160213750Y-234525000D02*
X160213750Y-234906000D01*
X160213750Y-237954000D02*
X160213750Y-238335000D01*
X160594750Y-238335000D02*
X160213750Y-238335000D01*
X162753750Y-231985000D02*
X171643750Y-231985000D01*
X164099588Y-238335000D02*
X162372750Y-238335000D01*
X171643750Y-231985000D02*
X171643750Y-232366000D01*
X171643750Y-235414000D02*
X171643750Y-236430000D01*
X171643750Y-236430000D02*
X166563750Y-236430000D01*
X162753750Y-231985000D02*
G75*
G03*
X160213750Y-234525000I1J-2540001D01*
G01*
X166563750Y-236430000D02*
G75*
G03*
X164099589Y-238353960I0J-2539999D01*
G01*
D11*
X268202500Y-158232500D02*
X268202500Y-164032500D01*
X268202500Y-164057500D02*
X270602500Y-164057500D01*
X270602500Y-158232500D02*
X268202500Y-158232500D01*
X270602500Y-163307500D02*
X268202500Y-163307500D01*
X270602500Y-163482500D02*
X268202500Y-163482500D01*
X270602500Y-163657500D02*
X268202500Y-163657500D01*
X270602500Y-163832500D02*
X268202500Y-163832500D01*
X270602500Y-163957500D02*
X268202500Y-163957500D01*
X270602500Y-164032500D02*
X270602500Y-158232500D01*
D10*
X272072500Y-153622500D02*
X272072500Y-154003500D01*
X272072500Y-157051500D02*
X272072500Y-157432500D01*
X272453500Y-157432500D02*
X272072500Y-157432500D01*
X274612500Y-151082500D02*
X283502500Y-151082500D01*
X275958338Y-157432500D02*
X274231500Y-157432500D01*
X283502500Y-151082500D02*
X283502500Y-151463500D01*
X283502500Y-154511500D02*
X283502500Y-155527500D01*
X283502500Y-155527500D02*
X278422500Y-155527500D01*
X274612500Y-151082500D02*
G75*
G03*
X272072500Y-153622500I1J-2540001D01*
G01*
X278422500Y-155527500D02*
G75*
G03*
X275958339Y-157451460I0J-2539999D01*
G01*
D11*
X411077500Y-158232500D02*
X411077500Y-164032500D01*
X411077500Y-164057500D02*
X413477500Y-164057500D01*
X413477500Y-158232500D02*
X411077500Y-158232500D01*
X413477500Y-163307500D02*
X411077500Y-163307500D01*
X413477500Y-163482500D02*
X411077500Y-163482500D01*
X413477500Y-163657500D02*
X411077500Y-163657500D01*
X413477500Y-163832500D02*
X411077500Y-163832500D01*
X413477500Y-163957500D02*
X411077500Y-163957500D01*
X413477500Y-164032500D02*
X413477500Y-158232500D01*
D10*
X414947500Y-153622500D02*
X414947500Y-154003500D01*
X414947500Y-157051500D02*
X414947500Y-157432500D01*
X415328500Y-157432500D02*
X414947500Y-157432500D01*
X417487500Y-151082500D02*
X426377500Y-151082500D01*
X418833338Y-157432500D02*
X417106500Y-157432500D01*
X426377500Y-151082500D02*
X426377500Y-151463500D01*
X426377500Y-154511500D02*
X426377500Y-155527500D01*
X426377500Y-155527500D02*
X421297500Y-155527500D01*
X417487500Y-151082500D02*
G75*
G03*
X414947500Y-153622500I1J-2540001D01*
G01*
X421297500Y-155527500D02*
G75*
G03*
X418833339Y-157451460I0J-2539999D01*
G01*
D11*
X206290000Y-158232500D02*
X206290000Y-164032500D01*
X206290000Y-164057500D02*
X208690000Y-164057500D01*
X208690000Y-158232500D02*
X206290000Y-158232500D01*
X208690000Y-163307500D02*
X206290000Y-163307500D01*
X208690000Y-163482500D02*
X206290000Y-163482500D01*
X208690000Y-163657500D02*
X206290000Y-163657500D01*
X208690000Y-163832500D02*
X206290000Y-163832500D01*
X208690000Y-163957500D02*
X206290000Y-163957500D01*
X208690000Y-164032500D02*
X208690000Y-158232500D01*
D10*
X210160000Y-153622500D02*
X210160000Y-154003500D01*
X210160000Y-157051500D02*
X210160000Y-157432500D01*
X210541000Y-157432500D02*
X210160000Y-157432500D01*
X212700000Y-151082500D02*
X221590000Y-151082500D01*
X214045838Y-157432500D02*
X212319000Y-157432500D01*
X221590000Y-151082500D02*
X221590000Y-151463500D01*
X221590000Y-154511500D02*
X221590000Y-155527500D01*
X221590000Y-155527500D02*
X216510000Y-155527500D01*
X212700000Y-151082500D02*
G75*
G03*
X210160000Y-153622500I1J-2540001D01*
G01*
X216510000Y-155527500D02*
G75*
G03*
X214045839Y-157451460I0J-2539999D01*
G01*
D11*
X149140000Y-201095000D02*
X149140000Y-206895000D01*
X149140000Y-206920000D02*
X151540000Y-206920000D01*
X151540000Y-201095000D02*
X149140000Y-201095000D01*
X151540000Y-206170000D02*
X149140000Y-206170000D01*
X151540000Y-206345000D02*
X149140000Y-206345000D01*
X151540000Y-206520000D02*
X149140000Y-206520000D01*
X151540000Y-206695000D02*
X149140000Y-206695000D01*
X151540000Y-206820000D02*
X149140000Y-206820000D01*
X151540000Y-206895000D02*
X151540000Y-201095000D01*
D10*
X153010000Y-196485000D02*
X153010000Y-196866000D01*
X153010000Y-199914000D02*
X153010000Y-200295000D01*
X153391000Y-200295000D02*
X153010000Y-200295000D01*
X155550000Y-193945000D02*
X164440000Y-193945000D01*
X156895838Y-200295000D02*
X155169000Y-200295000D01*
X164440000Y-193945000D02*
X164440000Y-194326000D01*
X164440000Y-197374000D02*
X164440000Y-198390000D01*
X164440000Y-198390000D02*
X159360000Y-198390000D01*
X155550000Y-193945000D02*
G75*
G03*
X153010000Y-196485000I1J-2540001D01*
G01*
X159360000Y-198390000D02*
G75*
G03*
X156895839Y-200313960I0J-2539999D01*
G01*
D11*
X353927500Y-258245000D02*
X353927500Y-264045000D01*
X353927500Y-264070000D02*
X356327500Y-264070000D01*
X356327500Y-258245000D02*
X353927500Y-258245000D01*
X356327500Y-263320000D02*
X353927500Y-263320000D01*
X356327500Y-263495000D02*
X353927500Y-263495000D01*
X356327500Y-263670000D02*
X353927500Y-263670000D01*
X356327500Y-263845000D02*
X353927500Y-263845000D01*
X356327500Y-263970000D02*
X353927500Y-263970000D01*
X356327500Y-264045000D02*
X356327500Y-258245000D01*
D10*
X357797500Y-253635000D02*
X357797500Y-254016000D01*
X357797500Y-257064000D02*
X357797500Y-257445000D01*
X358178500Y-257445000D02*
X357797500Y-257445000D01*
X360337500Y-251095000D02*
X369227500Y-251095000D01*
X361683338Y-257445000D02*
X359956500Y-257445000D01*
X369227500Y-251095000D02*
X369227500Y-251476000D01*
X369227500Y-254524000D02*
X369227500Y-255540000D01*
X369227500Y-255540000D02*
X364147500Y-255540000D01*
X360337500Y-251095000D02*
G75*
G03*
X357797500Y-253635000I1J-2540001D01*
G01*
X364147500Y-255540000D02*
G75*
G03*
X361683339Y-257463960I0J-2539999D01*
G01*
D11*
X311065000Y-220145000D02*
X311065000Y-225945000D01*
X311065000Y-225970000D02*
X313465000Y-225970000D01*
X313465000Y-220145000D02*
X311065000Y-220145000D01*
X313465000Y-225220000D02*
X311065000Y-225220000D01*
X313465000Y-225395000D02*
X311065000Y-225395000D01*
X313465000Y-225570000D02*
X311065000Y-225570000D01*
X313465000Y-225745000D02*
X311065000Y-225745000D01*
X313465000Y-225870000D02*
X311065000Y-225870000D01*
X313465000Y-225945000D02*
X313465000Y-220145000D01*
D10*
X314935000Y-215535000D02*
X314935000Y-215916000D01*
X314935000Y-218964000D02*
X314935000Y-219345000D01*
X315316000Y-219345000D02*
X314935000Y-219345000D01*
X317475000Y-212995000D02*
X326365000Y-212995000D01*
X318820838Y-219345000D02*
X317094000Y-219345000D01*
X326365000Y-212995000D02*
X326365000Y-213376000D01*
X326365000Y-216424000D02*
X326365000Y-217440000D01*
X326365000Y-217440000D02*
X321285000Y-217440000D01*
X317475000Y-212995000D02*
G75*
G03*
X314935000Y-215535000I1J-2540001D01*
G01*
X321285000Y-217440000D02*
G75*
G03*
X318820839Y-219363960I0J-2539999D01*
G01*
D11*
X434890000Y-201095000D02*
X434890000Y-206895000D01*
X434890000Y-206920000D02*
X437290000Y-206920000D01*
X437290000Y-201095000D02*
X434890000Y-201095000D01*
X437290000Y-206170000D02*
X434890000Y-206170000D01*
X437290000Y-206345000D02*
X434890000Y-206345000D01*
X437290000Y-206520000D02*
X434890000Y-206520000D01*
X437290000Y-206695000D02*
X434890000Y-206695000D01*
X437290000Y-206820000D02*
X434890000Y-206820000D01*
X437290000Y-206895000D02*
X437290000Y-201095000D01*
D10*
X438760000Y-196485000D02*
X438760000Y-196866000D01*
X438760000Y-199914000D02*
X438760000Y-200295000D01*
X439141000Y-200295000D02*
X438760000Y-200295000D01*
X441300000Y-193945000D02*
X450190000Y-193945000D01*
X442645838Y-200295000D02*
X440919000Y-200295000D01*
X450190000Y-193945000D02*
X450190000Y-194326000D01*
X450190000Y-197374000D02*
X450190000Y-198390000D01*
X450190000Y-198390000D02*
X445110000Y-198390000D01*
X441300000Y-193945000D02*
G75*
G03*
X438760000Y-196485000I1J-2540001D01*
G01*
X445110000Y-198390000D02*
G75*
G03*
X442645839Y-200313960I0J-2539999D01*
G01*
D11*
X344402500Y-201095000D02*
X344402500Y-206895000D01*
X344402500Y-206920000D02*
X346802500Y-206920000D01*
X346802500Y-201095000D02*
X344402500Y-201095000D01*
X346802500Y-206170000D02*
X344402500Y-206170000D01*
X346802500Y-206345000D02*
X344402500Y-206345000D01*
X346802500Y-206520000D02*
X344402500Y-206520000D01*
X346802500Y-206695000D02*
X344402500Y-206695000D01*
X346802500Y-206820000D02*
X344402500Y-206820000D01*
X346802500Y-206895000D02*
X346802500Y-201095000D01*
D10*
X348272500Y-196485000D02*
X348272500Y-196866000D01*
X348272500Y-199914000D02*
X348272500Y-200295000D01*
X348653500Y-200295000D02*
X348272500Y-200295000D01*
X350812500Y-193945000D02*
X359702500Y-193945000D01*
X352158338Y-200295000D02*
X350431500Y-200295000D01*
X359702500Y-193945000D02*
X359702500Y-194326000D01*
X359702500Y-197374000D02*
X359702500Y-198390000D01*
X359702500Y-198390000D02*
X354622500Y-198390000D01*
X350812500Y-193945000D02*
G75*
G03*
X348272500Y-196485000I1J-2540001D01*
G01*
X354622500Y-198390000D02*
G75*
G03*
X352158339Y-200313960I0J-2539999D01*
G01*
D11*
X277727500Y-182045000D02*
X277727500Y-187845000D01*
X277727500Y-187870000D02*
X280127500Y-187870000D01*
X280127500Y-182045000D02*
X277727500Y-182045000D01*
X280127500Y-187120000D02*
X277727500Y-187120000D01*
X280127500Y-187295000D02*
X277727500Y-187295000D01*
X280127500Y-187470000D02*
X277727500Y-187470000D01*
X280127500Y-187645000D02*
X277727500Y-187645000D01*
X280127500Y-187770000D02*
X277727500Y-187770000D01*
X280127500Y-187845000D02*
X280127500Y-182045000D01*
D10*
X281597500Y-177435000D02*
X281597500Y-177816000D01*
X281597500Y-180864000D02*
X281597500Y-181245000D01*
X281978500Y-181245000D02*
X281597500Y-181245000D01*
X284137500Y-174895000D02*
X293027500Y-174895000D01*
X285483338Y-181245000D02*
X283756500Y-181245000D01*
X293027500Y-174895000D02*
X293027500Y-175276000D01*
X293027500Y-178324000D02*
X293027500Y-179340000D01*
X293027500Y-179340000D02*
X287947500Y-179340000D01*
X284137500Y-174895000D02*
G75*
G03*
X281597500Y-177435000I1J-2540001D01*
G01*
X287947500Y-179340000D02*
G75*
G03*
X285483339Y-181263960I0J-2539999D01*
G01*
D11*
X265790000Y-258285000D02*
X265790000Y-264085000D01*
X265790000Y-264110000D02*
X268190000Y-264110000D01*
X268190000Y-258285000D02*
X265790000Y-258285000D01*
X268190000Y-263360000D02*
X265790000Y-263360000D01*
X268190000Y-263535000D02*
X265790000Y-263535000D01*
X268190000Y-263710000D02*
X265790000Y-263710000D01*
X268190000Y-263885000D02*
X265790000Y-263885000D01*
X268190000Y-264010000D02*
X265790000Y-264010000D01*
X268190000Y-264085000D02*
X268190000Y-258285000D01*
D10*
X269660000Y-253675000D02*
X269660000Y-254056000D01*
X269660000Y-257104000D02*
X269660000Y-257485000D01*
X270041000Y-257485000D02*
X269660000Y-257485000D01*
X272200000Y-251135000D02*
X281090000Y-251135000D01*
X273545838Y-257485000D02*
X271819000Y-257485000D01*
X281090000Y-251135000D02*
X281090000Y-251516000D01*
X281090000Y-254564000D02*
X281090000Y-255580000D01*
X281090000Y-255580000D02*
X276010000Y-255580000D01*
X272200000Y-251135000D02*
G75*
G03*
X269660000Y-253675000I1J-2540001D01*
G01*
X276010000Y-255580000D02*
G75*
G03*
X273545839Y-257503960I0J-2539999D01*
G01*
X405482500Y-177375000D02*
X405482500Y-177756000D01*
X405482500Y-180804000D02*
X405482500Y-181185000D01*
X405863500Y-181185000D02*
X405482500Y-181185000D01*
X408022500Y-174835000D02*
X416912500Y-174835000D01*
X409368338Y-181185000D02*
X407641500Y-181185000D01*
X416912500Y-174835000D02*
X416912500Y-175216000D01*
X416912500Y-178264000D02*
X416912500Y-179280000D01*
X416912500Y-179280000D02*
X411832500Y-179280000D01*
X408022500Y-174835000D02*
G75*
G03*
X405482500Y-177375000I1J-2540001D01*
G01*
X411832500Y-179280000D02*
G75*
G03*
X409368339Y-181203960I0J-2539999D01*
G01*
D11*
X292015000Y-220145000D02*
X292015000Y-225945000D01*
X292015000Y-225970000D02*
X294415000Y-225970000D01*
X294415000Y-220145000D02*
X292015000Y-220145000D01*
X294415000Y-225220000D02*
X292015000Y-225220000D01*
X294415000Y-225395000D02*
X292015000Y-225395000D01*
X294415000Y-225570000D02*
X292015000Y-225570000D01*
X294415000Y-225745000D02*
X292015000Y-225745000D01*
X294415000Y-225870000D02*
X292015000Y-225870000D01*
X294415000Y-225945000D02*
X294415000Y-220145000D01*
D10*
X295885000Y-215535000D02*
X295885000Y-215916000D01*
X295885000Y-218964000D02*
X295885000Y-219345000D01*
X296266000Y-219345000D02*
X295885000Y-219345000D01*
X298425000Y-212995000D02*
X307315000Y-212995000D01*
X299770838Y-219345000D02*
X298044000Y-219345000D01*
X307315000Y-212995000D02*
X307315000Y-213376000D01*
X307315000Y-216424000D02*
X307315000Y-217440000D01*
X307315000Y-217440000D02*
X302235000Y-217440000D01*
X298425000Y-212995000D02*
G75*
G03*
X295885000Y-215535000I1J-2540001D01*
G01*
X302235000Y-217440000D02*
G75*
G03*
X299770839Y-219363960I0J-2539999D01*
G01*
D11*
X334877500Y-182045000D02*
X334877500Y-187845000D01*
X334877500Y-187870000D02*
X337277500Y-187870000D01*
X337277500Y-182045000D02*
X334877500Y-182045000D01*
X337277500Y-187120000D02*
X334877500Y-187120000D01*
X337277500Y-187295000D02*
X334877500Y-187295000D01*
X337277500Y-187470000D02*
X334877500Y-187470000D01*
X337277500Y-187645000D02*
X334877500Y-187645000D01*
X337277500Y-187770000D02*
X334877500Y-187770000D01*
X337277500Y-187845000D02*
X337277500Y-182045000D01*
D10*
X338747500Y-177435000D02*
X338747500Y-177816000D01*
X338747500Y-180864000D02*
X338747500Y-181245000D01*
X339128500Y-181245000D02*
X338747500Y-181245000D01*
X341287500Y-174895000D02*
X350177500Y-174895000D01*
X342633338Y-181245000D02*
X340906500Y-181245000D01*
X350177500Y-174895000D02*
X350177500Y-175276000D01*
X350177500Y-178324000D02*
X350177500Y-179340000D01*
X350177500Y-179340000D02*
X345097500Y-179340000D01*
X341287500Y-174895000D02*
G75*
G03*
X338747500Y-177435000I1J-2540001D01*
G01*
X345097500Y-179340000D02*
G75*
G03*
X342633339Y-181263960I0J-2539999D01*
G01*
D11*
X368215000Y-220145000D02*
X368215000Y-225945000D01*
X368215000Y-225970000D02*
X370615000Y-225970000D01*
X370615000Y-220145000D02*
X368215000Y-220145000D01*
X370615000Y-225220000D02*
X368215000Y-225220000D01*
X370615000Y-225395000D02*
X368215000Y-225395000D01*
X370615000Y-225570000D02*
X368215000Y-225570000D01*
X370615000Y-225745000D02*
X368215000Y-225745000D01*
X370615000Y-225870000D02*
X368215000Y-225870000D01*
X370615000Y-225945000D02*
X370615000Y-220145000D01*
D10*
X372085000Y-215535000D02*
X372085000Y-215916000D01*
X372085000Y-218964000D02*
X372085000Y-219345000D01*
X372466000Y-219345000D02*
X372085000Y-219345000D01*
X374625000Y-212995000D02*
X383515000Y-212995000D01*
X375970838Y-219345000D02*
X374244000Y-219345000D01*
X383515000Y-212995000D02*
X383515000Y-213376000D01*
X383515000Y-216424000D02*
X383515000Y-217440000D01*
X383515000Y-217440000D02*
X378435000Y-217440000D01*
X374625000Y-212995000D02*
G75*
G03*
X372085000Y-215535000I1J-2540001D01*
G01*
X378435000Y-217440000D02*
G75*
G03*
X375970839Y-219363960I0J-2539999D01*
G01*
D11*
X353927500Y-182045000D02*
X353927500Y-187845000D01*
X353927500Y-187870000D02*
X356327500Y-187870000D01*
X356327500Y-182045000D02*
X353927500Y-182045000D01*
X356327500Y-187120000D02*
X353927500Y-187120000D01*
X356327500Y-187295000D02*
X353927500Y-187295000D01*
X356327500Y-187470000D02*
X353927500Y-187470000D01*
X356327500Y-187645000D02*
X353927500Y-187645000D01*
X356327500Y-187770000D02*
X353927500Y-187770000D01*
X356327500Y-187845000D02*
X356327500Y-182045000D01*
D10*
X357797500Y-177435000D02*
X357797500Y-177816000D01*
X357797500Y-180864000D02*
X357797500Y-181245000D01*
X358178500Y-181245000D02*
X357797500Y-181245000D01*
X360337500Y-174895000D02*
X369227500Y-174895000D01*
X361683338Y-181245000D02*
X359956500Y-181245000D01*
X369227500Y-174895000D02*
X369227500Y-175276000D01*
X369227500Y-178324000D02*
X369227500Y-179340000D01*
X369227500Y-179340000D02*
X364147500Y-179340000D01*
X360337500Y-174895000D02*
G75*
G03*
X357797500Y-177435000I1J-2540001D01*
G01*
X364147500Y-179340000D02*
G75*
G03*
X361683339Y-181263960I0J-2539999D01*
G01*
D11*
X287252500Y-201095000D02*
X287252500Y-206895000D01*
X287252500Y-206920000D02*
X289652500Y-206920000D01*
X289652500Y-201095000D02*
X287252500Y-201095000D01*
X289652500Y-206170000D02*
X287252500Y-206170000D01*
X289652500Y-206345000D02*
X287252500Y-206345000D01*
X289652500Y-206520000D02*
X287252500Y-206520000D01*
X289652500Y-206695000D02*
X287252500Y-206695000D01*
X289652500Y-206820000D02*
X287252500Y-206820000D01*
X289652500Y-206895000D02*
X289652500Y-201095000D01*
D10*
X291122500Y-196485000D02*
X291122500Y-196866000D01*
X291122500Y-199914000D02*
X291122500Y-200295000D01*
X291503500Y-200295000D02*
X291122500Y-200295000D01*
X293662500Y-193945000D02*
X302552500Y-193945000D01*
X295008338Y-200295000D02*
X293281500Y-200295000D01*
X302552500Y-193945000D02*
X302552500Y-194326000D01*
X302552500Y-197374000D02*
X302552500Y-198390000D01*
X302552500Y-198390000D02*
X297472500Y-198390000D01*
X293662500Y-193945000D02*
G75*
G03*
X291122500Y-196485000I1J-2540001D01*
G01*
X297472500Y-198390000D02*
G75*
G03*
X295008339Y-200313960I0J-2539999D01*
G01*
D11*
X146758750Y-258245000D02*
X146758750Y-264045000D01*
X146758750Y-264070000D02*
X149158750Y-264070000D01*
X149158750Y-258245000D02*
X146758750Y-258245000D01*
X149158750Y-263320000D02*
X146758750Y-263320000D01*
X149158750Y-263495000D02*
X146758750Y-263495000D01*
X149158750Y-263670000D02*
X146758750Y-263670000D01*
X149158750Y-263845000D02*
X146758750Y-263845000D01*
X149158750Y-263970000D02*
X146758750Y-263970000D01*
X149158750Y-264045000D02*
X149158750Y-258245000D01*
D10*
X150628750Y-253635000D02*
X150628750Y-254016000D01*
X150628750Y-257064000D02*
X150628750Y-257445000D01*
X151009750Y-257445000D02*
X150628750Y-257445000D01*
X153168750Y-251095000D02*
X162058750Y-251095000D01*
X154514588Y-257445000D02*
X152787750Y-257445000D01*
X162058750Y-251095000D02*
X162058750Y-251476000D01*
X162058750Y-254524000D02*
X162058750Y-255540000D01*
X162058750Y-255540000D02*
X156978750Y-255540000D01*
X153168750Y-251095000D02*
G75*
G03*
X150628750Y-253635000I1J-2540001D01*
G01*
X156978750Y-255540000D02*
G75*
G03*
X154514589Y-257463960I0J-2539999D01*
G01*
D11*
X415840000Y-243957500D02*
X415840000Y-249757500D01*
X415840000Y-249782500D02*
X418240000Y-249782500D01*
X418240000Y-243957500D02*
X415840000Y-243957500D01*
X418240000Y-249032500D02*
X415840000Y-249032500D01*
X418240000Y-249207500D02*
X415840000Y-249207500D01*
X418240000Y-249382500D02*
X415840000Y-249382500D01*
X418240000Y-249557500D02*
X415840000Y-249557500D01*
X418240000Y-249682500D02*
X415840000Y-249682500D01*
X418240000Y-249757500D02*
X418240000Y-243957500D01*
D10*
X419710000Y-239347500D02*
X419710000Y-239728500D01*
X419710000Y-242776500D02*
X419710000Y-243157500D01*
X420091000Y-243157500D02*
X419710000Y-243157500D01*
X422250000Y-236807500D02*
X431140000Y-236807500D01*
X423595838Y-243157500D02*
X421869000Y-243157500D01*
X431140000Y-236807500D02*
X431140000Y-237188500D01*
X431140000Y-240236500D02*
X431140000Y-241252500D01*
X431140000Y-241252500D02*
X426060000Y-241252500D01*
X422250000Y-236807500D02*
G75*
G03*
X419710000Y-239347500I1J-2540001D01*
G01*
X426060000Y-241252500D02*
G75*
G03*
X423595839Y-243176460I0J-2539999D01*
G01*
D11*
X194383750Y-258245000D02*
X194383750Y-264045000D01*
X194383750Y-264070000D02*
X196783750Y-264070000D01*
X196783750Y-258245000D02*
X194383750Y-258245000D01*
X196783750Y-263320000D02*
X194383750Y-263320000D01*
X196783750Y-263495000D02*
X194383750Y-263495000D01*
X196783750Y-263670000D02*
X194383750Y-263670000D01*
X196783750Y-263845000D02*
X194383750Y-263845000D01*
X196783750Y-263970000D02*
X194383750Y-263970000D01*
X196783750Y-264045000D02*
X196783750Y-258245000D01*
D10*
X198253750Y-253635000D02*
X198253750Y-254016000D01*
X198253750Y-257064000D02*
X198253750Y-257445000D01*
X198634750Y-257445000D02*
X198253750Y-257445000D01*
X200793750Y-251095000D02*
X209683750Y-251095000D01*
X202139588Y-257445000D02*
X200412750Y-257445000D01*
X209683750Y-251095000D02*
X209683750Y-251476000D01*
X209683750Y-254524000D02*
X209683750Y-255540000D01*
X209683750Y-255540000D02*
X204603750Y-255540000D01*
X200793750Y-251095000D02*
G75*
G03*
X198253750Y-253635000I1J-2540001D01*
G01*
X204603750Y-255540000D02*
G75*
G03*
X202139589Y-257463960I0J-2539999D01*
G01*
D11*
X253915000Y-220145000D02*
X253915000Y-225945000D01*
X253915000Y-225970000D02*
X256315000Y-225970000D01*
X256315000Y-220145000D02*
X253915000Y-220145000D01*
X256315000Y-225220000D02*
X253915000Y-225220000D01*
X256315000Y-225395000D02*
X253915000Y-225395000D01*
X256315000Y-225570000D02*
X253915000Y-225570000D01*
X256315000Y-225745000D02*
X253915000Y-225745000D01*
X256315000Y-225870000D02*
X253915000Y-225870000D01*
X256315000Y-225945000D02*
X256315000Y-220145000D01*
D10*
X257785000Y-215535000D02*
X257785000Y-215916000D01*
X257785000Y-218964000D02*
X257785000Y-219345000D01*
X258166000Y-219345000D02*
X257785000Y-219345000D01*
X260325000Y-212995000D02*
X269215000Y-212995000D01*
X261670838Y-219345000D02*
X259944000Y-219345000D01*
X269215000Y-212995000D02*
X269215000Y-213376000D01*
X269215000Y-216424000D02*
X269215000Y-217440000D01*
X269215000Y-217440000D02*
X264135000Y-217440000D01*
X260325000Y-212995000D02*
G75*
G03*
X257785000Y-215535000I1J-2540001D01*
G01*
X264135000Y-217440000D02*
G75*
G03*
X261670839Y-219363960I0J-2539999D01*
G01*
D11*
X296777500Y-182045000D02*
X296777500Y-187845000D01*
X296777500Y-187870000D02*
X299177500Y-187870000D01*
X299177500Y-182045000D02*
X296777500Y-182045000D01*
X299177500Y-187120000D02*
X296777500Y-187120000D01*
X299177500Y-187295000D02*
X296777500Y-187295000D01*
X299177500Y-187470000D02*
X296777500Y-187470000D01*
X299177500Y-187645000D02*
X296777500Y-187645000D01*
X299177500Y-187770000D02*
X296777500Y-187770000D01*
X299177500Y-187845000D02*
X299177500Y-182045000D01*
D10*
X300647500Y-177435000D02*
X300647500Y-177816000D01*
X300647500Y-180864000D02*
X300647500Y-181245000D01*
X301028500Y-181245000D02*
X300647500Y-181245000D01*
X303187500Y-174895000D02*
X312077500Y-174895000D01*
X304533338Y-181245000D02*
X302806500Y-181245000D01*
X312077500Y-174895000D02*
X312077500Y-175276000D01*
X312077500Y-178324000D02*
X312077500Y-179340000D01*
X312077500Y-179340000D02*
X306997500Y-179340000D01*
X303187500Y-174895000D02*
G75*
G03*
X300647500Y-177435000I1J-2540001D01*
G01*
X306997500Y-179340000D02*
G75*
G03*
X304533339Y-181263960I0J-2539999D01*
G01*
D11*
X268202500Y-201095000D02*
X268202500Y-206895000D01*
X268202500Y-206920000D02*
X270602500Y-206920000D01*
X270602500Y-201095000D02*
X268202500Y-201095000D01*
X270602500Y-206170000D02*
X268202500Y-206170000D01*
X270602500Y-206345000D02*
X268202500Y-206345000D01*
X270602500Y-206520000D02*
X268202500Y-206520000D01*
X270602500Y-206695000D02*
X268202500Y-206695000D01*
X270602500Y-206820000D02*
X268202500Y-206820000D01*
X270602500Y-206895000D02*
X270602500Y-201095000D01*
D10*
X272072500Y-196485000D02*
X272072500Y-196866000D01*
X272072500Y-199914000D02*
X272072500Y-200295000D01*
X272453500Y-200295000D02*
X272072500Y-200295000D01*
X274612500Y-193945000D02*
X283502500Y-193945000D01*
X275958338Y-200295000D02*
X274231500Y-200295000D01*
X283502500Y-193945000D02*
X283502500Y-194326000D01*
X283502500Y-197374000D02*
X283502500Y-198390000D01*
X283502500Y-198390000D02*
X278422500Y-198390000D01*
X274612500Y-193945000D02*
G75*
G03*
X272072500Y-196485000I1J-2540001D01*
G01*
X278422500Y-198390000D02*
G75*
G03*
X275958339Y-200313960I0J-2539999D01*
G01*
D11*
X144377500Y-158232500D02*
X144377500Y-164032500D01*
X144377500Y-164057500D02*
X146777500Y-164057500D01*
X146777500Y-158232500D02*
X144377500Y-158232500D01*
X146777500Y-163307500D02*
X144377500Y-163307500D01*
X146777500Y-163482500D02*
X144377500Y-163482500D01*
X146777500Y-163657500D02*
X144377500Y-163657500D01*
X146777500Y-163832500D02*
X144377500Y-163832500D01*
X146777500Y-163957500D02*
X144377500Y-163957500D01*
X146777500Y-164032500D02*
X146777500Y-158232500D01*
D10*
X148247500Y-153622500D02*
X148247500Y-154003500D01*
X148247500Y-157051500D02*
X148247500Y-157432500D01*
X148628500Y-157432500D02*
X148247500Y-157432500D01*
X150787500Y-151082500D02*
X159677500Y-151082500D01*
X152133338Y-157432500D02*
X150406500Y-157432500D01*
X159677500Y-151082500D02*
X159677500Y-151463500D01*
X159677500Y-154511500D02*
X159677500Y-155527500D01*
X159677500Y-155527500D02*
X154597500Y-155527500D01*
X150787500Y-151082500D02*
G75*
G03*
X148247500Y-153622500I1J-2540001D01*
G01*
X154597500Y-155527500D02*
G75*
G03*
X152133339Y-157451460I0J-2539999D01*
G01*
D11*
X434890000Y-182045000D02*
X434890000Y-187845000D01*
X434890000Y-187870000D02*
X437290000Y-187870000D01*
X437290000Y-182045000D02*
X434890000Y-182045000D01*
X437290000Y-187120000D02*
X434890000Y-187120000D01*
X437290000Y-187295000D02*
X434890000Y-187295000D01*
X437290000Y-187470000D02*
X434890000Y-187470000D01*
X437290000Y-187645000D02*
X434890000Y-187645000D01*
X437290000Y-187770000D02*
X434890000Y-187770000D01*
X437290000Y-187845000D02*
X437290000Y-182045000D01*
D10*
X438760000Y-177435000D02*
X438760000Y-177816000D01*
X438760000Y-180864000D02*
X438760000Y-181245000D01*
X439141000Y-181245000D02*
X438760000Y-181245000D01*
X441300000Y-174895000D02*
X450190000Y-174895000D01*
X442645838Y-181245000D02*
X440919000Y-181245000D01*
X450190000Y-174895000D02*
X450190000Y-175276000D01*
X450190000Y-178324000D02*
X450190000Y-179340000D01*
X450190000Y-179340000D02*
X445110000Y-179340000D01*
X441300000Y-174895000D02*
G75*
G03*
X438760000Y-177435000I1J-2540001D01*
G01*
X445110000Y-179340000D02*
G75*
G03*
X442645839Y-181263960I0J-2539999D01*
G01*
D11*
X187240000Y-239195000D02*
X187240000Y-244995000D01*
X187240000Y-245020000D02*
X189640000Y-245020000D01*
X189640000Y-239195000D02*
X187240000Y-239195000D01*
X189640000Y-244270000D02*
X187240000Y-244270000D01*
X189640000Y-244445000D02*
X187240000Y-244445000D01*
X189640000Y-244620000D02*
X187240000Y-244620000D01*
X189640000Y-244795000D02*
X187240000Y-244795000D01*
X189640000Y-244920000D02*
X187240000Y-244920000D01*
X189640000Y-244995000D02*
X189640000Y-239195000D01*
D10*
X191110000Y-234585000D02*
X191110000Y-234966000D01*
X191110000Y-238014000D02*
X191110000Y-238395000D01*
X191491000Y-238395000D02*
X191110000Y-238395000D01*
X193650000Y-232045000D02*
X202540000Y-232045000D01*
X194995838Y-238395000D02*
X193269000Y-238395000D01*
X202540000Y-232045000D02*
X202540000Y-232426000D01*
X202540000Y-235474000D02*
X202540000Y-236490000D01*
X202540000Y-236490000D02*
X197460000Y-236490000D01*
X193650000Y-232045000D02*
G75*
G03*
X191110000Y-234585000I1J-2540001D01*
G01*
X197460000Y-236490000D02*
G75*
G03*
X194995839Y-238413960I0J-2539999D01*
G01*
D11*
X230102500Y-201095000D02*
X230102500Y-206895000D01*
X230102500Y-206920000D02*
X232502500Y-206920000D01*
X232502500Y-201095000D02*
X230102500Y-201095000D01*
X232502500Y-206170000D02*
X230102500Y-206170000D01*
X232502500Y-206345000D02*
X230102500Y-206345000D01*
X232502500Y-206520000D02*
X230102500Y-206520000D01*
X232502500Y-206695000D02*
X230102500Y-206695000D01*
X232502500Y-206820000D02*
X230102500Y-206820000D01*
X232502500Y-206895000D02*
X232502500Y-201095000D01*
D10*
X233972500Y-196485000D02*
X233972500Y-196866000D01*
X233972500Y-199914000D02*
X233972500Y-200295000D01*
X234353500Y-200295000D02*
X233972500Y-200295000D01*
X236512500Y-193945000D02*
X245402500Y-193945000D01*
X237858338Y-200295000D02*
X236131500Y-200295000D01*
X245402500Y-193945000D02*
X245402500Y-194326000D01*
X245402500Y-197374000D02*
X245402500Y-198390000D01*
X245402500Y-198390000D02*
X240322500Y-198390000D01*
X236512500Y-193945000D02*
G75*
G03*
X233972500Y-196485000I1J-2540001D01*
G01*
X240322500Y-198390000D02*
G75*
G03*
X237858339Y-200313960I0J-2539999D01*
G01*
D11*
X220577500Y-182045000D02*
X220577500Y-187845000D01*
X220577500Y-187870000D02*
X222977500Y-187870000D01*
X222977500Y-182045000D02*
X220577500Y-182045000D01*
X222977500Y-187120000D02*
X220577500Y-187120000D01*
X222977500Y-187295000D02*
X220577500Y-187295000D01*
X222977500Y-187470000D02*
X220577500Y-187470000D01*
X222977500Y-187645000D02*
X220577500Y-187645000D01*
X222977500Y-187770000D02*
X220577500Y-187770000D01*
X222977500Y-187845000D02*
X222977500Y-182045000D01*
D10*
X224447500Y-177435000D02*
X224447500Y-177816000D01*
X224447500Y-180864000D02*
X224447500Y-181245000D01*
X224828500Y-181245000D02*
X224447500Y-181245000D01*
X226987500Y-174895000D02*
X235877500Y-174895000D01*
X228333338Y-181245000D02*
X226606500Y-181245000D01*
X235877500Y-174895000D02*
X235877500Y-175276000D01*
X235877500Y-178324000D02*
X235877500Y-179340000D01*
X235877500Y-179340000D02*
X230797500Y-179340000D01*
X226987500Y-174895000D02*
G75*
G03*
X224447500Y-177435000I1J-2540001D01*
G01*
X230797500Y-179340000D02*
G75*
G03*
X228333339Y-181263960I0J-2539999D01*
G01*
D11*
X287252500Y-158232500D02*
X287252500Y-164032500D01*
X287252500Y-164057500D02*
X289652500Y-164057500D01*
X289652500Y-158232500D02*
X287252500Y-158232500D01*
X289652500Y-163307500D02*
X287252500Y-163307500D01*
X289652500Y-163482500D02*
X287252500Y-163482500D01*
X289652500Y-163657500D02*
X287252500Y-163657500D01*
X289652500Y-163832500D02*
X287252500Y-163832500D01*
X289652500Y-163957500D02*
X287252500Y-163957500D01*
X289652500Y-164032500D02*
X289652500Y-158232500D01*
D10*
X291122500Y-153622500D02*
X291122500Y-154003500D01*
X291122500Y-157051500D02*
X291122500Y-157432500D01*
X291503500Y-157432500D02*
X291122500Y-157432500D01*
X293662500Y-151082500D02*
X302552500Y-151082500D01*
X295008338Y-157432500D02*
X293281500Y-157432500D01*
X302552500Y-151082500D02*
X302552500Y-151463500D01*
X302552500Y-154511500D02*
X302552500Y-155527500D01*
X302552500Y-155527500D02*
X297472500Y-155527500D01*
X293662500Y-151082500D02*
G75*
G03*
X291122500Y-153622500I1J-2540001D01*
G01*
X297472500Y-155527500D02*
G75*
G03*
X295008339Y-157451460I0J-2539999D01*
G01*
D11*
X306302500Y-158232500D02*
X306302500Y-164032500D01*
X306302500Y-164057500D02*
X308702500Y-164057500D01*
X308702500Y-158232500D02*
X306302500Y-158232500D01*
X308702500Y-163307500D02*
X306302500Y-163307500D01*
X308702500Y-163482500D02*
X306302500Y-163482500D01*
X308702500Y-163657500D02*
X306302500Y-163657500D01*
X308702500Y-163832500D02*
X306302500Y-163832500D01*
X308702500Y-163957500D02*
X306302500Y-163957500D01*
X308702500Y-164032500D02*
X308702500Y-158232500D01*
D10*
X310172500Y-153622500D02*
X310172500Y-154003500D01*
X310172500Y-157051500D02*
X310172500Y-157432500D01*
X310553500Y-157432500D02*
X310172500Y-157432500D01*
X312712500Y-151082500D02*
X321602500Y-151082500D01*
X314058338Y-157432500D02*
X312331500Y-157432500D01*
X321602500Y-151082500D02*
X321602500Y-151463500D01*
X321602500Y-154511500D02*
X321602500Y-155527500D01*
X321602500Y-155527500D02*
X316522500Y-155527500D01*
X312712500Y-151082500D02*
G75*
G03*
X310172500Y-153622500I1J-2540001D01*
G01*
X316522500Y-155527500D02*
G75*
G03*
X314058339Y-157451460I0J-2539999D01*
G01*
X403101250Y-215475000D02*
X403101250Y-215856000D01*
X403101250Y-218904000D02*
X403101250Y-219285000D01*
X403482250Y-219285000D02*
X403101250Y-219285000D01*
X405641250Y-212935000D02*
X414531250Y-212935000D01*
X406987088Y-219285000D02*
X405260250Y-219285000D01*
X414531250Y-212935000D02*
X414531250Y-213316000D01*
X414531250Y-216364000D02*
X414531250Y-217380000D01*
X414531250Y-217380000D02*
X409451250Y-217380000D01*
X405641250Y-212935000D02*
G75*
G03*
X403101250Y-215475000I1J-2540001D01*
G01*
X409451250Y-217380000D02*
G75*
G03*
X406987089Y-219303960I0J-2539999D01*
G01*
D11*
X196765000Y-220145000D02*
X196765000Y-225945000D01*
X196765000Y-225970000D02*
X199165000Y-225970000D01*
X199165000Y-220145000D02*
X196765000Y-220145000D01*
X199165000Y-225220000D02*
X196765000Y-225220000D01*
X199165000Y-225395000D02*
X196765000Y-225395000D01*
X199165000Y-225570000D02*
X196765000Y-225570000D01*
X199165000Y-225745000D02*
X196765000Y-225745000D01*
X199165000Y-225870000D02*
X196765000Y-225870000D01*
X199165000Y-225945000D02*
X199165000Y-220145000D01*
D10*
X200635000Y-215535000D02*
X200635000Y-215916000D01*
X200635000Y-218964000D02*
X200635000Y-219345000D01*
X201016000Y-219345000D02*
X200635000Y-219345000D01*
X203175000Y-212995000D02*
X212065000Y-212995000D01*
X204520838Y-219345000D02*
X202794000Y-219345000D01*
X212065000Y-212995000D02*
X212065000Y-213376000D01*
X212065000Y-216424000D02*
X212065000Y-217440000D01*
X212065000Y-217440000D02*
X206985000Y-217440000D01*
X203175000Y-212995000D02*
G75*
G03*
X200635000Y-215535000I1J-2540001D01*
G01*
X206985000Y-217440000D02*
G75*
G03*
X204520839Y-219363960I0J-2539999D01*
G01*
D11*
X234865000Y-220145000D02*
X234865000Y-225945000D01*
X234865000Y-225970000D02*
X237265000Y-225970000D01*
X237265000Y-220145000D02*
X234865000Y-220145000D01*
X237265000Y-225220000D02*
X234865000Y-225220000D01*
X237265000Y-225395000D02*
X234865000Y-225395000D01*
X237265000Y-225570000D02*
X234865000Y-225570000D01*
X237265000Y-225745000D02*
X234865000Y-225745000D01*
X237265000Y-225870000D02*
X234865000Y-225870000D01*
X237265000Y-225945000D02*
X237265000Y-220145000D01*
D10*
X238735000Y-215535000D02*
X238735000Y-215916000D01*
X238735000Y-218964000D02*
X238735000Y-219345000D01*
X239116000Y-219345000D02*
X238735000Y-219345000D01*
X241275000Y-212995000D02*
X250165000Y-212995000D01*
X242620838Y-219345000D02*
X240894000Y-219345000D01*
X250165000Y-212995000D02*
X250165000Y-213376000D01*
X250165000Y-216424000D02*
X250165000Y-217440000D01*
X250165000Y-217440000D02*
X245085000Y-217440000D01*
X241275000Y-212995000D02*
G75*
G03*
X238735000Y-215535000I1J-2540001D01*
G01*
X245085000Y-217440000D02*
G75*
G03*
X242620839Y-219363960I0J-2539999D01*
G01*
D11*
X382502500Y-201095000D02*
X382502500Y-206895000D01*
X382502500Y-206920000D02*
X384902500Y-206920000D01*
X384902500Y-201095000D02*
X382502500Y-201095000D01*
X384902500Y-206170000D02*
X382502500Y-206170000D01*
X384902500Y-206345000D02*
X382502500Y-206345000D01*
X384902500Y-206520000D02*
X382502500Y-206520000D01*
X384902500Y-206695000D02*
X382502500Y-206695000D01*
X384902500Y-206820000D02*
X382502500Y-206820000D01*
X384902500Y-206895000D02*
X384902500Y-201095000D01*
D10*
X386372500Y-196485000D02*
X386372500Y-196866000D01*
X386372500Y-199914000D02*
X386372500Y-200295000D01*
X386753500Y-200295000D02*
X386372500Y-200295000D01*
X388912500Y-193945000D02*
X397802500Y-193945000D01*
X390258338Y-200295000D02*
X388531500Y-200295000D01*
X397802500Y-193945000D02*
X397802500Y-194326000D01*
X397802500Y-197374000D02*
X397802500Y-198390000D01*
X397802500Y-198390000D02*
X392722500Y-198390000D01*
X388912500Y-193945000D02*
G75*
G03*
X386372500Y-196485000I1J-2540001D01*
G01*
X392722500Y-198390000D02*
G75*
G03*
X390258339Y-200313960I0J-2539999D01*
G01*
D11*
X386090000Y-245285000D02*
X388490000Y-245285000D01*
X388490000Y-245260000D02*
X388490000Y-239460000D01*
X388490000Y-245185000D02*
X386090000Y-245185000D01*
X388490000Y-245060000D02*
X386090000Y-245060000D01*
X388490000Y-244885000D02*
X386090000Y-244885000D01*
X388490000Y-244710000D02*
X386090000Y-244710000D01*
X388490000Y-244535000D02*
X386090000Y-244535000D01*
X386090000Y-239460000D02*
X386090000Y-245260000D01*
X388490000Y-239460000D02*
X386090000Y-239460000D01*
X403000000Y-187895000D02*
X405400000Y-187895000D01*
X405400000Y-187870000D02*
X405400000Y-182070000D01*
X405400000Y-187795000D02*
X403000000Y-187795000D01*
X405400000Y-187670000D02*
X403000000Y-187670000D01*
X405400000Y-187495000D02*
X403000000Y-187495000D01*
X405400000Y-187320000D02*
X403000000Y-187320000D01*
X405400000Y-187145000D02*
X403000000Y-187145000D01*
X403000000Y-182070000D02*
X403000000Y-187870000D01*
X405400000Y-182070000D02*
X403000000Y-182070000D01*
X157510000Y-245445000D02*
X159910000Y-245445000D01*
X159910000Y-245420000D02*
X159910000Y-239620000D01*
X159910000Y-245345000D02*
X157510000Y-245345000D01*
X159910000Y-245220000D02*
X157510000Y-245220000D01*
X159910000Y-245045000D02*
X157510000Y-245045000D01*
X159910000Y-244870000D02*
X157510000Y-244870000D01*
X159910000Y-244695000D02*
X157510000Y-244695000D01*
X157510000Y-239620000D02*
X157510000Y-245420000D01*
X159910000Y-239620000D02*
X157510000Y-239620000D01*
X400540000Y-226055000D02*
X402940000Y-226055000D01*
X402940000Y-226030000D02*
X402940000Y-220230000D01*
X402940000Y-225955000D02*
X400540000Y-225955000D01*
X402940000Y-225830000D02*
X400540000Y-225830000D01*
X402940000Y-225655000D02*
X400540000Y-225655000D01*
X402940000Y-225480000D02*
X400540000Y-225480000D01*
X402940000Y-225305000D02*
X400540000Y-225305000D01*
X400540000Y-220230000D02*
X400540000Y-226030000D01*
X402940000Y-220230000D02*
X400540000Y-220230000D01*
D12*
X207490000Y-245895000D03*
D13*
X207490000Y-238095000D03*
D12*
X188440000Y-164932500D03*
D13*
X188440000Y-157132500D03*
D12*
X226540000Y-245895000D03*
D13*
X226540000Y-238095000D03*
D12*
X336077500Y-264945000D03*
D13*
X336077500Y-257145000D03*
D12*
X350365000Y-164932500D03*
D13*
X350365000Y-157132500D03*
D12*
X307502500Y-207795000D03*
D13*
X307502500Y-199995000D03*
D12*
X436090000Y-226845000D03*
D13*
X436090000Y-219045000D03*
D12*
X374177500Y-188745000D03*
D13*
X374177500Y-180945000D03*
D12*
X340840000Y-245895000D03*
D13*
X340840000Y-238095000D03*
D12*
X359890000Y-245895000D03*
D13*
X359890000Y-238095000D03*
D12*
X174152500Y-207795000D03*
D13*
X174152500Y-199995000D03*
D12*
X407515000Y-207795000D03*
D13*
X407515000Y-199995000D03*
D12*
X152721250Y-226845000D03*
D13*
X152721250Y-219045000D03*
D12*
X321790000Y-245895000D03*
D13*
X321790000Y-238095000D03*
D12*
X331315000Y-226845000D03*
D13*
X331315000Y-219045000D03*
D12*
X264640000Y-245895000D03*
D13*
X264640000Y-238095000D03*
D12*
X245590000Y-245895000D03*
D13*
X245590000Y-238095000D03*
D12*
X331315000Y-164932500D03*
D13*
X331315000Y-157132500D03*
D12*
X397990000Y-269707500D03*
D13*
X397990000Y-261907500D03*
D12*
X183677500Y-188745000D03*
D13*
X183677500Y-180945000D03*
D12*
X317027500Y-188745000D03*
D13*
X317027500Y-180945000D03*
D12*
X283690000Y-245895000D03*
D13*
X283690000Y-238095000D03*
D12*
X326552500Y-207795000D03*
D13*
X326552500Y-199995000D03*
D12*
X259877500Y-188745000D03*
D13*
X259877500Y-180945000D03*
D12*
X369415000Y-164932500D03*
D13*
X369415000Y-157132500D03*
D12*
X374177500Y-264945000D03*
D13*
X374177500Y-257145000D03*
D12*
X202727500Y-188745000D03*
D13*
X202727500Y-180945000D03*
D12*
X193202500Y-207795000D03*
D13*
X193202500Y-199995000D03*
D12*
X364652500Y-207795000D03*
D13*
X364652500Y-199995000D03*
D12*
X417040000Y-269707500D03*
D13*
X417040000Y-261907500D03*
D12*
X302740000Y-245895000D03*
D13*
X302740000Y-238095000D03*
D12*
X436090000Y-269707500D03*
D13*
X436090000Y-261907500D03*
D12*
X226540000Y-164932500D03*
D13*
X226540000Y-157132500D03*
D12*
X145577500Y-188745000D03*
D13*
X145577500Y-180945000D03*
D12*
X212252500Y-207795000D03*
D13*
X212252500Y-199995000D03*
D12*
X164627500Y-188745000D03*
D13*
X164627500Y-180945000D03*
D12*
X350365000Y-226845000D03*
D13*
X350365000Y-219045000D03*
D12*
X274165000Y-226845000D03*
D13*
X274165000Y-219045000D03*
D12*
X250352500Y-164932500D03*
D13*
X250352500Y-157132500D03*
D12*
X250352500Y-207795000D03*
D13*
X250352500Y-199995000D03*
D12*
X240827500Y-188745000D03*
D13*
X240827500Y-180945000D03*
D12*
X178915000Y-226845000D03*
D13*
X178915000Y-219045000D03*
D12*
X171771250Y-264945000D03*
D13*
X171771250Y-257145000D03*
D12*
X388465000Y-164932500D03*
D13*
X388465000Y-157132500D03*
D12*
X169390000Y-164932500D03*
D13*
X169390000Y-157132500D03*
D12*
X217015000Y-226845000D03*
D13*
X217015000Y-219045000D03*
D12*
X269402500Y-164932500D03*
D13*
X269402500Y-157132500D03*
D12*
X412277500Y-164932500D03*
D13*
X412277500Y-157132500D03*
D12*
X207490000Y-164932500D03*
D13*
X207490000Y-157132500D03*
D12*
X150340000Y-207795000D03*
D13*
X150340000Y-199995000D03*
D12*
X355127500Y-264945000D03*
D13*
X355127500Y-257145000D03*
D12*
X312265000Y-226845000D03*
D13*
X312265000Y-219045000D03*
D12*
X436090000Y-207795000D03*
D13*
X436090000Y-199995000D03*
D12*
X345602500Y-207795000D03*
D13*
X345602500Y-199995000D03*
D12*
X278927500Y-188745000D03*
D13*
X278927500Y-180945000D03*
D12*
X266990000Y-264985000D03*
D13*
X266990000Y-257185000D03*
D12*
X293215000Y-226845000D03*
D13*
X293215000Y-219045000D03*
D12*
X336077500Y-188745000D03*
D13*
X336077500Y-180945000D03*
D12*
X369415000Y-226845000D03*
D13*
X369415000Y-219045000D03*
D12*
X355127500Y-188745000D03*
D13*
X355127500Y-180945000D03*
D12*
X288452500Y-207795000D03*
D13*
X288452500Y-199995000D03*
D12*
X147958750Y-264945000D03*
D13*
X147958750Y-257145000D03*
D12*
X417040000Y-250657500D03*
D13*
X417040000Y-242857500D03*
D12*
X195583750Y-264945000D03*
D13*
X195583750Y-257145000D03*
D12*
X255115000Y-226845000D03*
D13*
X255115000Y-219045000D03*
D12*
X297977500Y-188745000D03*
D13*
X297977500Y-180945000D03*
D12*
X269402500Y-207795000D03*
D13*
X269402500Y-199995000D03*
D12*
X145577500Y-164932500D03*
D13*
X145577500Y-157132500D03*
D12*
X436090000Y-188745000D03*
D13*
X436090000Y-180945000D03*
D12*
X188440000Y-245895000D03*
D13*
X188440000Y-238095000D03*
D12*
X231302500Y-207795000D03*
D13*
X231302500Y-199995000D03*
D12*
X221777500Y-188745000D03*
D13*
X221777500Y-180945000D03*
D12*
X288452500Y-164932500D03*
D13*
X288452500Y-157132500D03*
D12*
X307502500Y-164932500D03*
D13*
X307502500Y-157132500D03*
D12*
X197965000Y-226845000D03*
D13*
X197965000Y-219045000D03*
D12*
X236065000Y-226845000D03*
D13*
X236065000Y-219045000D03*
D12*
X383702500Y-207795000D03*
D13*
X383702500Y-199995000D03*
D12*
X387290000Y-246160000D03*
D13*
X387290000Y-238360000D03*
D12*
X404200000Y-188770000D03*
D13*
X404200000Y-180970000D03*
D12*
X158710000Y-246320000D03*
D13*
X158710000Y-238520000D03*
D12*
X401740000Y-226930000D03*
D13*
X401740000Y-219130000D03*
M02*
