G04 #@! TF.GenerationSoftware,KiCad,Pcbnew,7.0.6*
G04 #@! TF.CreationDate,2023-09-08T00:08:35-07:00*
G04 #@! TF.ProjectId,keyjoy,6b65796a-6f79-42e6-9b69-6361645f7063,rev?*
G04 #@! TF.SameCoordinates,Original*
G04 #@! TF.FileFunction,Paste,Bot*
G04 #@! TF.FilePolarity,Positive*
%FSLAX46Y46*%
G04 Gerber Fmt 4.6, Leading zero omitted, Abs format (unit mm)*
G04 Created by KiCad (PCBNEW 7.0.6) date 2023-09-08 00:08:35*
%MOMM*%
%LPD*%
G01*
G04 APERTURE LIST*
G04 Aperture macros list*
%AMRoundRect*
0 Rectangle with rounded corners*
0 $1 Rounding radius*
0 $2 $3 $4 $5 $6 $7 $8 $9 X,Y pos of 4 corners*
0 Add a 4 corners polygon primitive as box body*
4,1,4,$2,$3,$4,$5,$6,$7,$8,$9,$2,$3,0*
0 Add four circle primitives for the rounded corners*
1,1,$1+$1,$2,$3*
1,1,$1+$1,$4,$5*
1,1,$1+$1,$6,$7*
1,1,$1+$1,$8,$9*
0 Add four rect primitives between the rounded corners*
20,1,$1+$1,$2,$3,$4,$5,0*
20,1,$1+$1,$4,$5,$6,$7,0*
20,1,$1+$1,$6,$7,$8,$9,0*
20,1,$1+$1,$8,$9,$2,$3,0*%
G04 Aperture macros list end*
%ADD10RoundRect,0.250000X-1.025000X-1.000000X1.025000X-1.000000X1.025000X1.000000X-1.025000X1.000000X0*%
%ADD11R,1.200000X1.200000*%
G04 APERTURE END LIST*
D10*
X237562590Y-224002334D03*
D11*
X252367590Y-228152334D03*
D10*
X250489590Y-221462334D03*
D11*
X252367590Y-225002334D03*
D10*
X275662590Y-224002334D03*
D11*
X290467590Y-228152334D03*
D10*
X288589590Y-221462334D03*
D11*
X290467590Y-225002334D03*
D10*
X285187590Y-204952334D03*
D11*
X299992590Y-209102334D03*
D10*
X298114590Y-202412334D03*
D11*
X299992590Y-205952334D03*
D10*
X175650090Y-166852334D03*
D11*
X190455090Y-171002334D03*
D10*
X188577090Y-164312334D03*
D11*
X190455090Y-167852334D03*
D10*
X413865090Y-166782334D03*
X426792090Y-164242334D03*
X189937590Y-204952334D03*
D11*
X204742590Y-209102334D03*
D10*
X202864590Y-202412334D03*
D11*
X204742590Y-205952334D03*
D10*
X304237590Y-204952334D03*
D11*
X319042590Y-209102334D03*
D10*
X317164590Y-202412334D03*
D11*
X319042590Y-205952334D03*
D10*
X318525090Y-185902334D03*
D11*
X333330090Y-190052334D03*
D10*
X331452090Y-183362334D03*
D11*
X333330090Y-186902334D03*
D10*
X182883840Y-242982334D03*
X195810840Y-240442334D03*
X442350090Y-243052334D03*
D11*
X457155090Y-247202334D03*
D10*
X455277090Y-240512334D03*
D11*
X457155090Y-244052334D03*
D10*
X461400090Y-243052334D03*
D11*
X476205090Y-247202334D03*
D10*
X474327090Y-240512334D03*
D11*
X476205090Y-244052334D03*
D10*
X163833840Y-204882334D03*
X176760840Y-202342334D03*
X385200090Y-166852334D03*
D11*
X400005090Y-171002334D03*
D10*
X398127090Y-164312334D03*
D11*
X400005090Y-167852334D03*
D10*
X206696340Y-242982334D03*
X219623340Y-240442334D03*
X313762590Y-224002334D03*
D11*
X328567590Y-228152334D03*
D10*
X326689590Y-221462334D03*
D11*
X328567590Y-225002334D03*
D10*
X411483840Y-204882334D03*
X424410840Y-202342334D03*
X406721340Y-223932334D03*
X419648340Y-221392334D03*
X278133840Y-242982334D03*
X291060840Y-240442334D03*
X251850090Y-166852334D03*
D11*
X266655090Y-171002334D03*
D10*
X264777090Y-164312334D03*
D11*
X266655090Y-167852334D03*
D10*
X218512590Y-224002334D03*
D11*
X233317590Y-228152334D03*
D10*
X231439590Y-221462334D03*
D11*
X233317590Y-225002334D03*
D10*
X351862590Y-224002334D03*
D11*
X366667590Y-228152334D03*
D10*
X364789590Y-221462334D03*
D11*
X366667590Y-225002334D03*
D10*
X213750090Y-166852334D03*
D11*
X228555090Y-171002334D03*
D10*
X226677090Y-164312334D03*
D11*
X228555090Y-167852334D03*
D10*
X270900090Y-166852334D03*
D11*
X285705090Y-171002334D03*
D10*
X283827090Y-164312334D03*
D11*
X285705090Y-167852334D03*
D10*
X161452590Y-185832334D03*
X174379590Y-183292334D03*
X294712590Y-224002334D03*
D11*
X309517590Y-228152334D03*
D10*
X307639590Y-221462334D03*
D11*
X309517590Y-225002334D03*
D10*
X356625090Y-243052334D03*
D11*
X371430090Y-247202334D03*
D10*
X369552090Y-240512334D03*
D11*
X371430090Y-244052334D03*
D10*
X380437590Y-204952334D03*
D11*
X395242590Y-209102334D03*
D10*
X393364590Y-202412334D03*
D11*
X395242590Y-205952334D03*
D10*
X332812590Y-224002334D03*
D11*
X347617590Y-228152334D03*
D10*
X345739590Y-221462334D03*
D11*
X347617590Y-225002334D03*
D10*
X256612590Y-224002334D03*
D11*
X271417590Y-228152334D03*
D10*
X269539590Y-221462334D03*
D11*
X271417590Y-225002334D03*
D10*
X442350090Y-224002334D03*
D11*
X457155090Y-228152334D03*
D10*
X455277090Y-221462334D03*
D11*
X457155090Y-225002334D03*
D10*
X309000090Y-166852334D03*
D11*
X323805090Y-171002334D03*
D10*
X321927090Y-164312334D03*
D11*
X323805090Y-167852334D03*
D10*
X159071340Y-242982334D03*
X171998340Y-240442334D03*
X156600090Y-166852334D03*
D11*
X171405090Y-171002334D03*
D10*
X169527090Y-164312334D03*
D11*
X171405090Y-167852334D03*
D10*
X242325090Y-185902334D03*
D11*
X257130090Y-190052334D03*
D10*
X255252090Y-183362334D03*
D11*
X257130090Y-186902334D03*
D10*
X356625090Y-185902334D03*
D11*
X371430090Y-190052334D03*
D10*
X369552090Y-183362334D03*
D11*
X371430090Y-186902334D03*
D10*
X204225090Y-185902334D03*
D11*
X219030090Y-190052334D03*
D10*
X217152090Y-183362334D03*
D11*
X219030090Y-186902334D03*
D10*
X280425090Y-185902334D03*
D11*
X295230090Y-190052334D03*
D10*
X293352090Y-183362334D03*
D11*
X295230090Y-186902334D03*
D10*
X323287590Y-204952334D03*
D11*
X338092590Y-209102334D03*
D10*
X336214590Y-202412334D03*
D11*
X338092590Y-205952334D03*
D10*
X347100090Y-166852334D03*
D11*
X361905090Y-171002334D03*
D10*
X360027090Y-164312334D03*
D11*
X361905090Y-167852334D03*
D10*
X266137590Y-204952334D03*
D11*
X280942590Y-209102334D03*
D10*
X279064590Y-202412334D03*
D11*
X280942590Y-205952334D03*
D10*
X342337590Y-204952334D03*
D11*
X357142590Y-209102334D03*
D10*
X355264590Y-202412334D03*
D11*
X357142590Y-205952334D03*
D10*
X199462590Y-224002334D03*
D11*
X214267590Y-228152334D03*
D10*
X212389590Y-221462334D03*
D11*
X214267590Y-225002334D03*
D10*
X328050090Y-166852334D03*
D11*
X342855090Y-171002334D03*
D10*
X340977090Y-164312334D03*
D11*
X342855090Y-167852334D03*
D10*
X232800090Y-166852334D03*
D11*
X247605090Y-171002334D03*
D10*
X245727090Y-164312334D03*
D11*
X247605090Y-167852334D03*
D10*
X370912590Y-224002334D03*
D11*
X385717590Y-228152334D03*
D10*
X383839590Y-221462334D03*
D11*
X385717590Y-225002334D03*
D10*
X208987590Y-204952334D03*
D11*
X223792590Y-209102334D03*
D10*
X221914590Y-202412334D03*
D11*
X223792590Y-205952334D03*
D10*
X337575090Y-185902334D03*
D11*
X352380090Y-190052334D03*
D10*
X350502090Y-183362334D03*
D11*
X352380090Y-186902334D03*
D10*
X247087590Y-204952334D03*
D11*
X261892590Y-209102334D03*
D10*
X260014590Y-202412334D03*
D11*
X261892590Y-205952334D03*
D10*
X375675090Y-185902334D03*
D11*
X390480090Y-190052334D03*
D10*
X388602090Y-183362334D03*
D11*
X390480090Y-186902334D03*
D10*
X423300090Y-243052334D03*
D11*
X438105090Y-247202334D03*
D10*
X436227090Y-240512334D03*
D11*
X438105090Y-244052334D03*
D10*
X168596340Y-223932334D03*
X181523340Y-221392334D03*
X418627590Y-185832334D03*
X431554590Y-183292334D03*
X299475090Y-185902334D03*
D11*
X314280090Y-190052334D03*
D10*
X312402090Y-183362334D03*
D11*
X314280090Y-186902334D03*
D10*
X185175090Y-185902334D03*
D11*
X199980090Y-190052334D03*
D10*
X198102090Y-183362334D03*
D11*
X199980090Y-186902334D03*
D10*
X361387590Y-204952334D03*
D11*
X376192590Y-209102334D03*
D10*
X374314590Y-202412334D03*
D11*
X376192590Y-205952334D03*
D10*
X223275090Y-185902334D03*
D11*
X238080090Y-190052334D03*
D10*
X236202090Y-183362334D03*
D11*
X238080090Y-186902334D03*
D10*
X289950090Y-166852334D03*
D11*
X304755090Y-171002334D03*
D10*
X302877090Y-164312334D03*
D11*
X304755090Y-167852334D03*
D10*
X194700090Y-166852334D03*
D11*
X209505090Y-171002334D03*
D10*
X207627090Y-164312334D03*
D11*
X209505090Y-167852334D03*
D10*
X228037590Y-204952334D03*
D11*
X242842590Y-209102334D03*
D10*
X240964590Y-202412334D03*
D11*
X242842590Y-205952334D03*
D10*
X394725090Y-185902334D03*
D11*
X409530090Y-190052334D03*
D10*
X407652090Y-183362334D03*
D11*
X409530090Y-186902334D03*
D10*
X261375090Y-185902334D03*
D11*
X276180090Y-190052334D03*
D10*
X274302090Y-183362334D03*
D11*
X276180090Y-186902334D03*
D10*
X366150090Y-166852334D03*
D11*
X380955090Y-171002334D03*
D10*
X379077090Y-164312334D03*
D11*
X380955090Y-167852334D03*
X428622763Y-170914635D03*
X428622763Y-167764635D03*
X433428817Y-189894003D03*
X433428817Y-186744003D03*
X197534122Y-247064286D03*
X197534122Y-243914286D03*
X183298640Y-228146413D03*
X183298640Y-224996413D03*
X421229467Y-228132573D03*
X421229467Y-224982573D03*
X173734708Y-247162226D03*
X173734708Y-244012226D03*
X176274940Y-189851878D03*
X176274940Y-186701878D03*
X292759326Y-247186273D03*
X292759326Y-244036273D03*
X178632497Y-208768286D03*
X178632497Y-205618286D03*
X426248888Y-208917680D03*
X426248888Y-205767680D03*
X221333537Y-247253170D03*
X221333537Y-244103170D03*
M02*
