M48
; DRILL file {KiCad 7.0.6} date Fri Sep  1 00:30:54 2023
; FORMAT={-:-/ absolute / inch / decimal}
; #@! TF.CreationDate,2023-09-01T00:30:54-07:00
; #@! TF.GenerationSoftware,Kicad,Pcbnew,7.0.6
; #@! TF.FileFunction,Plated,1,2,PTH
FMAT,2
INCH
; #@! TA.AperFunction,Plated,PTH,ViaDrill
T1C0.0157
; #@! TA.AperFunction,Plated,PTH,ComponentDrill
T2C0.0276
; #@! TA.AperFunction,Plated,PTH,ComponentDrill
T3C0.0350
; #@! TA.AperFunction,Plated,PTH,ComponentDrill
T4C0.0354
; #@! TA.AperFunction,Plated,PTH,ComponentDrill
T5C0.0394
; #@! TA.AperFunction,Plated,PTH,ComponentDrill
T6C0.0402
; #@! TA.AperFunction,Plated,PTH,ComponentDrill
T7C0.0550
; #@! TA.AperFunction,Plated,PTH,ComponentDrill
T8C0.0591
%
G90
G05
T1
X13.8474Y-10.2528
X14.0359Y-10.2495
X15.7415Y-10.0503
X15.7425Y-9.989
X16.0487Y-10.0495
X16.6287Y-10.2106
X16.6307Y-9.3537
X16.6317Y-9.4009
X16.6766Y-10.2608
X17.0807Y-9.0273
X17.1323Y-9.0289
X17.1325Y-9.1072
X17.166Y-8.949
X17.177Y-9.0272
X17.2098Y-9.1128
X17.4209Y-10.2582
X17.4404Y-8.1386
X17.7697Y-7.8004
X18.0697Y-9.3685
X18.0697Y-10.106
X18.8123Y-9.414
T2
X6.7474Y-6.5119
X6.7474Y-6.819
X6.8399Y-9.5152
X6.8399Y-9.8223
X6.94Y-7.2589
X6.94Y-7.566
X7.0328Y-8.0037
X7.0328Y-8.3108
X7.2165Y-8.7666
X7.2165Y-9.0737
X7.4974Y-6.5119
X7.4974Y-6.819
X7.7769Y-9.5114
X7.7769Y-9.8185
X7.8724Y-7.2619
X7.8724Y-7.569
X8.0599Y-8.0119
X8.0599Y-8.319
X8.2474Y-6.5119
X8.2474Y-6.819
X8.4349Y-8.7619
X8.4349Y-9.069
X8.6224Y-7.2619
X8.6224Y-7.569
X8.7139Y-9.5188
X8.7139Y-9.8259
X8.8099Y-8.0119
X8.8099Y-8.319
X8.9974Y-6.5119
X8.9974Y-6.819
X9.1849Y-8.7619
X9.1849Y-9.069
X9.3724Y-7.2619
X9.3724Y-7.569
X9.5599Y-8.0119
X9.5599Y-8.319
X9.7474Y-6.5119
X9.7474Y-6.819
X9.9349Y-8.7619
X9.9349Y-9.069
X10.1224Y-7.2619
X10.1224Y-7.569
X10.3099Y-8.0119
X10.3099Y-8.319
X10.4974Y-6.5119
X10.4974Y-6.819
X10.6849Y-8.7619
X10.6849Y-9.069
X10.8724Y-7.2619
X10.8724Y-7.569
X11.0599Y-8.0119
X11.0599Y-8.319
X11.2474Y-6.5119
X11.2474Y-6.819
X11.4349Y-8.7619
X11.4349Y-9.069
X11.526Y-9.5162
X11.526Y-9.8233
X11.6224Y-7.2619
X11.6224Y-7.569
X11.8099Y-8.0119
X11.8099Y-8.319
X11.9974Y-6.5119
X11.9974Y-6.819
X12.1849Y-8.7619
X12.1849Y-9.069
X12.3724Y-7.2619
X12.3724Y-7.569
X12.5599Y-8.0119
X12.5599Y-8.319
X12.7474Y-6.5119
X12.7474Y-6.819
X12.9349Y-8.7619
X12.9349Y-9.069
X13.1224Y-7.2619
X13.1224Y-7.569
X13.3099Y-8.0119
X13.3099Y-8.319
X13.4974Y-6.5119
X13.4974Y-6.819
X13.6849Y-8.7619
X13.6849Y-9.069
X13.8724Y-7.2619
X13.8724Y-7.569
X14.0599Y-8.0119
X14.0599Y-8.319
X14.2474Y-6.5119
X14.2474Y-6.819
X14.4349Y-8.7619
X14.4349Y-9.069
X14.6224Y-7.2619
X14.6224Y-7.569
X14.6224Y-9.5119
X14.6224Y-9.819
X14.8099Y-8.0119
X14.8099Y-8.319
X14.9974Y-6.5119
X14.9974Y-6.819
X15.1849Y-8.7619
X15.1849Y-9.069
X15.3724Y-7.2619
X15.3724Y-7.569
X15.5599Y-8.0119
X15.5599Y-8.319
X15.7474Y-6.5119
X15.7474Y-6.819
X16.1224Y-7.2619
X16.1224Y-7.569
X16.5838Y-8.766
X16.5838Y-9.0731
X16.7815Y-8.0096
X16.7815Y-8.3166
X16.8749Y-6.5134
X16.8749Y-6.8205
X17.0641Y-7.2606
X17.0641Y-7.5677
X17.2474Y-9.5119
X17.2474Y-9.819
X17.9974Y-8.7619
X17.9974Y-9.069
X17.9974Y-9.5119
X17.9974Y-9.819
X18.7474Y-9.5119
X18.7474Y-9.819
T3
X15.2623Y-9.9065
X15.2623Y-10.0065
X15.2628Y-9.8071
X15.5134Y-10.2565
X15.6134Y-10.2573
X15.7134Y-10.2565
T4
X15.4878Y-9.4813
X15.4878Y-9.6758
X15.7378Y-9.4821
X15.7382Y-9.6766
T5
X17.9119Y-7.3229
X17.9119Y-7.4213
X17.9119Y-7.5197
X18.4827Y-7.3229
X18.4827Y-7.5197
T6
X17.6211Y-6.4985
X17.6211Y-6.5985
X17.6211Y-6.6985
X17.6211Y-6.7985
X17.6211Y-6.8985
X17.6211Y-6.9985
X17.6211Y-7.0985
X17.6211Y-7.1985
X17.6211Y-7.2985
X17.6211Y-7.3985
X17.6211Y-7.4985
X17.6211Y-7.5985
X17.6211Y-7.6985
X17.6211Y-7.7985
X17.6211Y-7.8985
X17.6211Y-7.9985
X17.6211Y-8.0985
X17.6211Y-8.1985
X17.6211Y-8.2985
X17.6211Y-8.3985
X17.8711Y-8.3895
X17.9711Y-8.3895
X18.0711Y-8.3895
X18.3211Y-6.4985
X18.3211Y-6.5985
X18.3211Y-6.6985
X18.3211Y-6.7985
X18.3211Y-6.8985
X18.3211Y-6.9985
X18.3211Y-7.0985
X18.3211Y-7.1985
X18.3211Y-7.2985
X18.3211Y-7.3985
X18.3211Y-7.4985
X18.3211Y-7.5985
X18.3211Y-7.6985
X18.3211Y-7.7985
X18.3211Y-7.8985
X18.3211Y-7.9985
X18.3211Y-8.0985
X18.3211Y-8.1985
X18.3211Y-8.2985
X18.3211Y-8.3985
T7
X15.3628Y-9.7077
X15.3628Y-10.1065
X15.8628Y-9.7071
X15.8628Y-10.1071
T8
G00X18.1815Y-7.2008
M15
G01X18.2327Y-7.2008
M16
G05
G00X18.1815Y-7.6418
M15
G01X18.2327Y-7.6418
M16
G05
T0
M30
