G04 #@! TF.GenerationSoftware,KiCad,Pcbnew,(5.1.9-0-10_14)*
G04 #@! TF.CreationDate,2021-10-06T08:57:29-07:00*
G04 #@! TF.ProjectId,adelheid,6164656c-6865-4696-942e-6b696361645f,2.0*
G04 #@! TF.SameCoordinates,Original*
G04 #@! TF.FileFunction,Legend,Top*
G04 #@! TF.FilePolarity,Positive*
%FSLAX46Y46*%
G04 Gerber Fmt 4.6, Leading zero omitted, Abs format (unit mm)*
G04 Created by KiCad (PCBNEW (5.1.9-0-10_14)) date 2021-10-06 08:57:29*
%MOMM*%
%LPD*%
G01*
G04 APERTURE LIST*
%ADD10C,0.150000*%
%ADD11C,0.120000*%
%ADD12C,0.100000*%
%ADD13C,4.089800*%
%ADD14C,3.150000*%
%ADD15C,1.852000*%
%ADD16C,2.102000*%
%ADD17C,0.752000*%
%ADD18O,1.002000X2.502000*%
%ADD19O,1.002000X1.802000*%
%ADD20C,4.502000*%
G04 APERTURE END LIST*
D10*
X302625333Y-147010380D02*
X302625333Y-146010380D01*
X303006285Y-146010380D01*
X303101523Y-146058000D01*
X303149142Y-146105619D01*
X303196761Y-146200857D01*
X303196761Y-146343714D01*
X303149142Y-146438952D01*
X303101523Y-146486571D01*
X303006285Y-146534190D01*
X302625333Y-146534190D01*
X304101523Y-147010380D02*
X303625333Y-147010380D01*
X303625333Y-146010380D01*
X304434857Y-146010380D02*
X304434857Y-146819904D01*
X304482476Y-146915142D01*
X304530095Y-146962761D01*
X304625333Y-147010380D01*
X304815809Y-147010380D01*
X304911047Y-146962761D01*
X304958666Y-146915142D01*
X305006285Y-146819904D01*
X305006285Y-146010380D01*
X305434857Y-146962761D02*
X305577714Y-147010380D01*
X305815809Y-147010380D01*
X305911047Y-146962761D01*
X305958666Y-146915142D01*
X306006285Y-146819904D01*
X306006285Y-146724666D01*
X305958666Y-146629428D01*
X305911047Y-146581809D01*
X305815809Y-146534190D01*
X305625333Y-146486571D01*
X305530095Y-146438952D01*
X305482476Y-146391333D01*
X305434857Y-146296095D01*
X305434857Y-146200857D01*
X305482476Y-146105619D01*
X305530095Y-146058000D01*
X305625333Y-146010380D01*
X305863428Y-146010380D01*
X306006285Y-146058000D01*
D11*
X312455400Y-46793800D02*
X312155400Y-47093800D01*
X312155400Y-47093800D02*
X312155400Y-46493800D01*
X312155400Y-46493800D02*
X312455400Y-46793800D01*
X315755400Y-39293800D02*
X316755400Y-39293800D01*
X316255400Y-39793800D02*
X316255400Y-38793800D01*
D12*
G36*
X300244863Y-137458528D02*
G01*
X300429658Y-137619427D01*
X300540805Y-137838183D01*
X300571570Y-138095067D01*
X300515216Y-138370352D01*
X300406337Y-138585330D01*
X300297278Y-138714821D01*
X300144646Y-138853415D01*
X299981327Y-138975688D01*
X299840211Y-139056214D01*
X299774047Y-139074153D01*
X299688426Y-139038773D01*
X299559928Y-138949482D01*
X299500480Y-138900018D01*
X299301122Y-138672930D01*
X299151447Y-138401142D01*
X299072569Y-138126847D01*
X299065550Y-138030751D01*
X299118054Y-137794707D01*
X299261641Y-137596933D01*
X299475418Y-137452193D01*
X299738494Y-137375253D01*
X299993158Y-137375213D01*
X300244863Y-137458528D01*
G37*
G36*
X269491850Y-137452078D02*
G01*
X269682185Y-137468612D01*
X269848368Y-137509581D01*
X270035475Y-137584668D01*
X270188007Y-137655567D01*
X270640085Y-137924713D01*
X270999979Y-138259511D01*
X271268147Y-138660956D01*
X271445046Y-139130042D01*
X271531134Y-139667765D01*
X271526869Y-140275119D01*
X271502941Y-140513960D01*
X271430641Y-140921286D01*
X271314198Y-141268725D01*
X271141490Y-141571105D01*
X270900392Y-141843259D01*
X270578778Y-142100016D01*
X270164524Y-142356206D01*
X269866250Y-142515927D01*
X269297478Y-142808086D01*
X269902731Y-143021066D01*
X270316149Y-143177119D01*
X270636368Y-143324871D01*
X270882818Y-143476163D01*
X271074925Y-143642839D01*
X271225660Y-143827458D01*
X271267635Y-143880562D01*
X271311809Y-143899374D01*
X271376571Y-143874476D01*
X271480311Y-143796448D01*
X271641421Y-143655873D01*
X271748939Y-143559453D01*
X272185303Y-143167359D01*
X272164196Y-140963436D01*
X272157805Y-140361191D01*
X272150311Y-139860510D01*
X272140352Y-139448541D01*
X272126564Y-139112435D01*
X272107582Y-138839340D01*
X272082043Y-138616407D01*
X272048582Y-138430784D01*
X272005837Y-138269622D01*
X271952444Y-138120069D01*
X271887037Y-137969275D01*
X271834708Y-137858856D01*
X271773348Y-137700393D01*
X271760701Y-137592149D01*
X271770451Y-137571144D01*
X271835204Y-137572744D01*
X271922030Y-137665043D01*
X272019824Y-137829240D01*
X272117482Y-138046535D01*
X272203900Y-138298128D01*
X272207846Y-138311685D01*
X272327815Y-138727624D01*
X272532144Y-138453932D01*
X272788946Y-138193305D01*
X273137821Y-137964052D01*
X273558643Y-137775142D01*
X274031286Y-137635541D01*
X274535624Y-137554217D01*
X274555643Y-137552351D01*
X274780508Y-137541368D01*
X274927274Y-137551625D01*
X274987986Y-137576908D01*
X274954690Y-137611001D01*
X274819430Y-137647690D01*
X274701546Y-137666346D01*
X274403931Y-137748496D01*
X274192788Y-137905038D01*
X274066860Y-138136922D01*
X274063628Y-138147605D01*
X274046355Y-138264899D01*
X274032899Y-138487649D01*
X274023233Y-138817448D01*
X274017331Y-139255889D01*
X274015169Y-139804566D01*
X274016721Y-140465071D01*
X274019346Y-140904784D01*
X274023838Y-141511998D01*
X274028268Y-142015506D01*
X274033164Y-142426014D01*
X274039054Y-142754229D01*
X274046466Y-143010857D01*
X274055928Y-143206604D01*
X274067967Y-143352178D01*
X274083111Y-143458284D01*
X274101887Y-143535629D01*
X274124825Y-143594920D01*
X274152450Y-143646863D01*
X274154708Y-143650730D01*
X274286695Y-143812555D01*
X274432276Y-143861848D01*
X274600050Y-143800030D01*
X274683101Y-143738009D01*
X274798289Y-143655767D01*
X274874077Y-143628708D01*
X274884873Y-143634952D01*
X274851755Y-143684045D01*
X274743877Y-143794959D01*
X274573929Y-143955737D01*
X274354601Y-144154426D01*
X274098586Y-144379068D01*
X274055677Y-144416095D01*
X273762082Y-144667937D01*
X273541448Y-144853370D01*
X273380525Y-144981203D01*
X273266061Y-145060249D01*
X273184807Y-145099318D01*
X273123511Y-145107222D01*
X273068923Y-145092771D01*
X273050250Y-145084656D01*
X272718596Y-144876367D01*
X272467752Y-144589541D01*
X272296337Y-144222043D01*
X272203547Y-143776899D01*
X272176168Y-143594547D01*
X272144564Y-143471018D01*
X272117593Y-143433982D01*
X272063039Y-143476000D01*
X271937975Y-143583217D01*
X271756188Y-143743470D01*
X271531464Y-143944596D01*
X271277591Y-144174433D01*
X271255883Y-144194198D01*
X270993958Y-144432011D01*
X270754291Y-144648162D01*
X270552308Y-144828851D01*
X270403438Y-144960280D01*
X270323106Y-145028649D01*
X270321987Y-145029526D01*
X270261547Y-145068519D01*
X270202759Y-145071403D01*
X270124933Y-145026552D01*
X270007377Y-144922335D01*
X269842168Y-144759858D01*
X269504306Y-144465101D01*
X269159518Y-144241823D01*
X268827046Y-144100393D01*
X268527092Y-144051180D01*
X268230323Y-144103341D01*
X267947568Y-144245176D01*
X267717862Y-144454717D01*
X267656518Y-144541123D01*
X267561218Y-144670049D01*
X267492125Y-144699545D01*
X267468287Y-144684458D01*
X267461648Y-144601967D01*
X267525382Y-144458182D01*
X267646450Y-144270127D01*
X267811814Y-144054823D01*
X268008434Y-143829293D01*
X268223272Y-143610557D01*
X268435012Y-143422390D01*
X268797583Y-143119921D01*
X269078580Y-142863900D01*
X269288306Y-142632590D01*
X269437065Y-142404257D01*
X269535162Y-142157164D01*
X269592900Y-141869577D01*
X269620584Y-141519759D01*
X269628518Y-141085974D01*
X269628523Y-140904784D01*
X269611100Y-140207041D01*
X269561078Y-139613466D01*
X269476466Y-139117984D01*
X269355271Y-138714518D01*
X269195501Y-138396992D01*
X268995164Y-138159329D01*
X268752268Y-137995454D01*
X268661781Y-137956283D01*
X268350931Y-137892782D01*
X268047141Y-137930776D01*
X267775217Y-138062301D01*
X267559968Y-138279391D01*
X267534456Y-138318269D01*
X267449102Y-138549210D01*
X267474150Y-138779321D01*
X267605749Y-139001732D01*
X267840047Y-139209571D01*
X268126390Y-139374132D01*
X268496765Y-139607541D01*
X268774702Y-139908080D01*
X268959194Y-140274093D01*
X269049232Y-140703925D01*
X269058646Y-140904784D01*
X269050582Y-141168128D01*
X269017525Y-141366293D01*
X268949934Y-141547464D01*
X268918865Y-141610874D01*
X268684454Y-141950035D01*
X268362062Y-142219696D01*
X267948913Y-142421982D01*
X267787509Y-142475717D01*
X267679693Y-142494572D01*
X267657595Y-142469058D01*
X267709639Y-142415011D01*
X267824248Y-142348264D01*
X267906345Y-142313174D01*
X268162826Y-142182548D01*
X268359992Y-142017472D01*
X268479361Y-141837379D01*
X268505505Y-141683193D01*
X268480289Y-141572317D01*
X268412092Y-141496757D01*
X268271408Y-141428710D01*
X268211077Y-141405760D01*
X267775500Y-141190661D01*
X267421888Y-140902341D01*
X267156600Y-140549606D01*
X266985994Y-140141261D01*
X266916429Y-139686112D01*
X266915099Y-139611043D01*
X266970316Y-139163716D01*
X267128035Y-138734577D01*
X267376360Y-138339969D01*
X267703394Y-137996237D01*
X268097238Y-137719723D01*
X268393760Y-137579739D01*
X268627245Y-137506337D01*
X268882975Y-137465528D01*
X269204656Y-137450564D01*
X269232289Y-137450299D01*
X269491850Y-137452078D01*
G37*
G36*
X303711699Y-137427288D02*
G01*
X303765273Y-137459147D01*
X303742196Y-137505765D01*
X303669420Y-137532920D01*
X303526181Y-137561519D01*
X303460927Y-137570853D01*
X303169058Y-137635257D01*
X302961501Y-137738745D01*
X302846853Y-137873697D01*
X302833709Y-138032492D01*
X302860063Y-138103537D01*
X302948775Y-138228475D01*
X303093579Y-138345720D01*
X303309298Y-138463702D01*
X303610756Y-138590853D01*
X303907332Y-138699158D01*
X304515264Y-138928950D01*
X305016789Y-139157567D01*
X305419747Y-139390016D01*
X305731980Y-139631299D01*
X305961328Y-139886422D01*
X306082500Y-140087483D01*
X306245054Y-140418523D01*
X306245054Y-141991721D01*
X306243681Y-142494897D01*
X306239202Y-142895640D01*
X306231079Y-143205905D01*
X306218773Y-143437645D01*
X306201747Y-143602813D01*
X306179460Y-143713363D01*
X306165699Y-143753029D01*
X306040891Y-143929321D01*
X305816776Y-144095323D01*
X305487685Y-144254621D01*
X305208172Y-144358524D01*
X304817089Y-144505093D01*
X304513877Y-144652536D01*
X304272775Y-144815092D01*
X304104118Y-144968863D01*
X303979023Y-145093432D01*
X303888364Y-145175685D01*
X303859018Y-145195325D01*
X303807648Y-145157445D01*
X303713963Y-145064240D01*
X303695004Y-145043775D01*
X303507603Y-144876699D01*
X303245267Y-144692046D01*
X302941241Y-144509494D01*
X302628768Y-144348721D01*
X302341094Y-144229407D01*
X302291129Y-144212778D01*
X302043824Y-144122781D01*
X301904924Y-144044214D01*
X301875972Y-143978541D01*
X301958511Y-143927220D01*
X301982428Y-143920370D01*
X302048011Y-143891381D01*
X302100018Y-143834557D01*
X302139963Y-143737940D01*
X302169366Y-143589571D01*
X302189741Y-143377492D01*
X302202605Y-143089743D01*
X302209476Y-142714368D01*
X302211869Y-142239406D01*
X302211946Y-142110643D01*
X302211946Y-141929968D01*
X303756541Y-141929968D01*
X303756541Y-143527225D01*
X303927483Y-143564770D01*
X304060323Y-143623359D01*
X304231226Y-143737228D01*
X304370839Y-143853080D01*
X304512329Y-143981780D01*
X304615861Y-144073042D01*
X304657554Y-144106116D01*
X304661298Y-144051962D01*
X304664677Y-143898009D01*
X304667555Y-143658875D01*
X304669800Y-143349174D01*
X304671277Y-142983524D01*
X304671853Y-142576541D01*
X304671856Y-142543649D01*
X304671582Y-142079511D01*
X304670057Y-141715549D01*
X304666223Y-141437526D01*
X304659027Y-141231204D01*
X304647410Y-141082344D01*
X304630318Y-140976710D01*
X304606694Y-140900062D01*
X304575483Y-140838164D01*
X304541448Y-140785399D01*
X304405307Y-140633509D01*
X304222027Y-140490624D01*
X304030377Y-140382320D01*
X303869125Y-140334171D01*
X303856653Y-140333653D01*
X303827197Y-140340194D01*
X303804136Y-140368681D01*
X303786694Y-140431486D01*
X303774096Y-140540977D01*
X303765565Y-140709525D01*
X303760327Y-140949500D01*
X303757604Y-141273271D01*
X303756622Y-141693209D01*
X303756541Y-141929968D01*
X302211946Y-141929968D01*
X302211946Y-140635211D01*
X302508361Y-140693819D01*
X302766071Y-140718948D01*
X303028975Y-140701440D01*
X303272492Y-140648421D01*
X303472039Y-140567016D01*
X303603036Y-140464351D01*
X303642126Y-140365179D01*
X303593428Y-140312459D01*
X303465170Y-140233681D01*
X303284109Y-140145069D01*
X303266030Y-140137119D01*
X302946278Y-139963686D01*
X302640459Y-139736762D01*
X302378317Y-139482369D01*
X302189597Y-139226528D01*
X302158908Y-139168576D01*
X302053826Y-138830793D01*
X302055673Y-138493170D01*
X302158478Y-138174416D01*
X302356271Y-137893242D01*
X302636440Y-137672225D01*
X302798760Y-137595538D01*
X302996271Y-137528917D01*
X303207646Y-137475571D01*
X303411560Y-137438710D01*
X303586686Y-137421546D01*
X303711699Y-137427288D01*
G37*
G36*
X288426206Y-137404153D02*
G01*
X288372211Y-137455089D01*
X288255674Y-137510424D01*
X288185334Y-137532479D01*
X287898199Y-137665650D01*
X287678546Y-137885737D01*
X287538427Y-138179565D01*
X287517290Y-138262751D01*
X287501593Y-138394397D01*
X287488000Y-138623347D01*
X287476521Y-138934870D01*
X287467166Y-139314237D01*
X287459947Y-139746717D01*
X287454873Y-140217581D01*
X287451954Y-140712097D01*
X287451200Y-141215536D01*
X287452623Y-141713168D01*
X287456231Y-142190263D01*
X287462036Y-142632089D01*
X287470047Y-143023918D01*
X287480275Y-143351019D01*
X287492730Y-143598662D01*
X287507422Y-143752117D01*
X287513454Y-143782170D01*
X287605408Y-143970956D01*
X287756445Y-144069505D01*
X287975241Y-144081615D01*
X288130314Y-144052126D01*
X288285511Y-144018957D01*
X288387253Y-144008278D01*
X288405297Y-144012399D01*
X288372326Y-144051586D01*
X288263613Y-144133664D01*
X288101246Y-144242193D01*
X288069397Y-144262406D01*
X287854984Y-144406196D01*
X287598757Y-144590838D01*
X287346216Y-144783244D01*
X287272335Y-144842080D01*
X287081325Y-144992251D01*
X286921917Y-145110106D01*
X286815693Y-145180087D01*
X286786074Y-145192615D01*
X286726275Y-145154624D01*
X286603851Y-145054334D01*
X286438773Y-144908623D01*
X286312510Y-144792361D01*
X286101839Y-144606543D01*
X285890253Y-144438863D01*
X285710228Y-144314310D01*
X285640325Y-144275103D01*
X285468280Y-144177986D01*
X285402166Y-144106246D01*
X285443105Y-144063061D01*
X285561405Y-144051180D01*
X285644609Y-144049096D01*
X285713298Y-144036172D01*
X285768863Y-144002401D01*
X285812696Y-143937776D01*
X285846187Y-143832289D01*
X285870728Y-143675934D01*
X285887710Y-143458703D01*
X285898525Y-143170590D01*
X285904563Y-142801586D01*
X285907216Y-142341685D01*
X285907875Y-141780879D01*
X285907892Y-141558894D01*
X285907502Y-140986466D01*
X285905995Y-140516352D01*
X285902864Y-140136453D01*
X285897600Y-139834672D01*
X285889697Y-139598909D01*
X285878648Y-139417065D01*
X285863945Y-139277043D01*
X285845081Y-139166743D01*
X285821549Y-139074067D01*
X285801037Y-139010314D01*
X285689462Y-138727183D01*
X285548512Y-138427391D01*
X285401160Y-138157297D01*
X285303802Y-138006970D01*
X285255029Y-137906379D01*
X285266157Y-137851896D01*
X285332482Y-137874304D01*
X285437109Y-137986033D01*
X285569167Y-138173095D01*
X285717789Y-138421502D01*
X285740074Y-138461794D01*
X285890348Y-138736146D01*
X285988273Y-138479733D01*
X286121082Y-138228855D01*
X286318220Y-138018080D01*
X286590513Y-137841246D01*
X286948787Y-137692187D01*
X287403869Y-137564740D01*
X287709919Y-137499562D01*
X287942407Y-137454048D01*
X288144784Y-137413928D01*
X288279868Y-137386585D01*
X288296293Y-137383139D01*
X288405089Y-137374531D01*
X288426206Y-137404153D01*
G37*
G36*
X277396383Y-137427288D02*
G01*
X277449957Y-137459147D01*
X277426881Y-137505765D01*
X277354104Y-137532920D01*
X277210866Y-137561519D01*
X277145612Y-137570853D01*
X276853743Y-137635257D01*
X276646186Y-137738745D01*
X276531537Y-137873697D01*
X276518394Y-138032492D01*
X276544748Y-138103537D01*
X276633460Y-138228475D01*
X276778263Y-138345720D01*
X276993982Y-138463702D01*
X277295440Y-138590853D01*
X277592017Y-138699158D01*
X278199948Y-138928950D01*
X278701473Y-139157567D01*
X279104432Y-139390016D01*
X279416665Y-139631299D01*
X279646013Y-139886422D01*
X279767185Y-140087483D01*
X279929739Y-140418523D01*
X279929739Y-141991721D01*
X279928366Y-142494897D01*
X279923887Y-142895640D01*
X279915764Y-143205905D01*
X279903458Y-143437645D01*
X279886431Y-143602813D01*
X279864145Y-143713363D01*
X279850384Y-143753029D01*
X279725576Y-143929321D01*
X279501461Y-144095323D01*
X279172370Y-144254621D01*
X278892857Y-144358524D01*
X278501774Y-144505093D01*
X278198562Y-144652536D01*
X277957460Y-144815092D01*
X277788802Y-144968863D01*
X277663708Y-145093432D01*
X277573049Y-145175685D01*
X277543703Y-145195325D01*
X277492332Y-145157445D01*
X277398648Y-145064240D01*
X277379688Y-145043775D01*
X277192287Y-144876699D01*
X276929952Y-144692046D01*
X276625925Y-144509494D01*
X276313453Y-144348721D01*
X276025778Y-144229407D01*
X275975814Y-144212778D01*
X275728508Y-144122781D01*
X275589609Y-144044214D01*
X275560657Y-143978541D01*
X275643196Y-143927220D01*
X275667113Y-143920370D01*
X275732696Y-143891381D01*
X275784702Y-143834557D01*
X275824648Y-143737940D01*
X275854050Y-143589571D01*
X275874425Y-143377492D01*
X275887290Y-143089743D01*
X275894160Y-142714368D01*
X275896554Y-142239406D01*
X275896631Y-142110643D01*
X275896631Y-141929968D01*
X277441225Y-141929968D01*
X277441225Y-143527225D01*
X277612168Y-143564770D01*
X277745008Y-143623359D01*
X277915911Y-143737228D01*
X278055524Y-143853080D01*
X278197014Y-143981780D01*
X278300545Y-144073042D01*
X278342239Y-144106116D01*
X278345983Y-144051962D01*
X278349361Y-143898009D01*
X278352240Y-143658875D01*
X278354484Y-143349174D01*
X278355961Y-142983524D01*
X278356537Y-142576541D01*
X278356541Y-142543649D01*
X278356267Y-142079511D01*
X278354741Y-141715549D01*
X278350908Y-141437526D01*
X278343711Y-141231204D01*
X278332095Y-141082344D01*
X278315003Y-140976710D01*
X278291379Y-140900062D01*
X278260167Y-140838164D01*
X278226133Y-140785399D01*
X278089992Y-140633509D01*
X277906712Y-140490624D01*
X277715062Y-140382320D01*
X277553810Y-140334171D01*
X277541338Y-140333653D01*
X277511882Y-140340194D01*
X277488821Y-140368681D01*
X277471379Y-140431486D01*
X277458781Y-140540977D01*
X277450250Y-140709525D01*
X277445011Y-140949500D01*
X277442289Y-141273271D01*
X277441306Y-141693209D01*
X277441225Y-141929968D01*
X275896631Y-141929968D01*
X275896631Y-140635211D01*
X276193045Y-140693819D01*
X276450756Y-140718948D01*
X276713660Y-140701440D01*
X276957177Y-140648421D01*
X277156724Y-140567016D01*
X277287721Y-140464351D01*
X277326811Y-140365179D01*
X277278113Y-140312459D01*
X277149855Y-140233681D01*
X276968794Y-140145069D01*
X276950714Y-140137119D01*
X276630962Y-139963686D01*
X276325144Y-139736762D01*
X276063002Y-139482369D01*
X275874281Y-139226528D01*
X275843592Y-139168576D01*
X275738510Y-138830793D01*
X275740358Y-138493170D01*
X275843163Y-138174416D01*
X276040956Y-137893242D01*
X276321124Y-137672225D01*
X276483445Y-137595538D01*
X276680956Y-137528917D01*
X276892331Y-137475571D01*
X277096244Y-137438710D01*
X277271370Y-137421546D01*
X277396383Y-137427288D01*
G37*
G36*
X300230991Y-139705607D02*
G01*
X300442043Y-139903073D01*
X300679506Y-140098083D01*
X300893628Y-140249904D01*
X300902699Y-140255550D01*
X301107579Y-140390291D01*
X301212136Y-140482125D01*
X301219628Y-140536745D01*
X301133309Y-140559844D01*
X301077774Y-140561541D01*
X300900346Y-140612680D01*
X300777436Y-140709053D01*
X300733808Y-140758100D01*
X300700250Y-140810622D01*
X300675218Y-140881613D01*
X300657168Y-140986066D01*
X300644556Y-141138974D01*
X300635839Y-141355330D01*
X300629471Y-141650129D01*
X300623910Y-142038362D01*
X300621572Y-142222561D01*
X300617337Y-142731148D01*
X300619899Y-143137685D01*
X300630903Y-143454424D01*
X300651992Y-143693613D01*
X300684808Y-143867501D01*
X300730995Y-143988339D01*
X300792195Y-144068375D01*
X300870052Y-144119860D01*
X300876454Y-144122841D01*
X301004164Y-144158456D01*
X301129942Y-144125220D01*
X301192840Y-144091695D01*
X301343479Y-144012763D01*
X301402208Y-144001651D01*
X301368999Y-144058406D01*
X301243829Y-144183075D01*
X301053215Y-144352789D01*
X300716632Y-144643045D01*
X300453470Y-144864529D01*
X300251044Y-145023810D01*
X300096668Y-145127456D01*
X299977657Y-145182038D01*
X299881325Y-145194124D01*
X299794988Y-145170284D01*
X299705959Y-145117087D01*
X299652134Y-145078345D01*
X299522877Y-144972610D01*
X299416308Y-144855505D01*
X299330289Y-144715407D01*
X299262681Y-144540695D01*
X299211345Y-144319748D01*
X299174141Y-144040943D01*
X299148931Y-143692660D01*
X299133576Y-143263276D01*
X299125937Y-142741171D01*
X299123907Y-142208261D01*
X299123260Y-141740937D01*
X299121462Y-141374990D01*
X299117592Y-141097382D01*
X299110729Y-140895076D01*
X299099951Y-140755034D01*
X299084338Y-140664219D01*
X299062967Y-140609594D01*
X299034918Y-140578120D01*
X299007509Y-140561095D01*
X298854803Y-140528184D01*
X298680290Y-140557944D01*
X298504856Y-140588293D01*
X298420952Y-140566727D01*
X298435542Y-140505634D01*
X298555590Y-140417400D01*
X298590746Y-140398666D01*
X298815330Y-140264184D01*
X299086245Y-140071646D01*
X299370862Y-139845795D01*
X299636550Y-139611374D01*
X299666703Y-139582799D01*
X299896009Y-139363503D01*
X300230991Y-139705607D01*
G37*
G36*
X296889226Y-139491674D02*
G01*
X296979707Y-139616367D01*
X297105984Y-139801591D01*
X297256233Y-140028854D01*
X297418635Y-140279667D01*
X297581367Y-140535540D01*
X297732610Y-140777981D01*
X297860542Y-140988501D01*
X297953342Y-141148609D01*
X297999189Y-141239816D01*
X298001639Y-141253062D01*
X297950330Y-141292154D01*
X297816083Y-141383876D01*
X297612405Y-141519298D01*
X297352798Y-141689488D01*
X297050768Y-141885517D01*
X296833743Y-142025359D01*
X296472368Y-142258061D01*
X296196362Y-142438154D01*
X295994663Y-142574611D01*
X295856212Y-142676405D01*
X295769947Y-142752507D01*
X295724810Y-142811891D01*
X295709738Y-142863529D01*
X295713673Y-142916394D01*
X295716496Y-142931715D01*
X295765579Y-143083599D01*
X295851456Y-143270134D01*
X295892470Y-143344528D01*
X296127708Y-143643173D01*
X296421003Y-143855680D01*
X296752742Y-143979048D01*
X297103310Y-144010275D01*
X297453094Y-143946362D01*
X297782479Y-143784307D01*
X297941597Y-143658042D01*
X298044743Y-143569207D01*
X298086355Y-143557120D01*
X298084705Y-143616541D01*
X298084615Y-143617029D01*
X298034603Y-143683785D01*
X297905913Y-143807812D01*
X297711511Y-143977884D01*
X297464366Y-144182773D01*
X297177445Y-144411256D01*
X297076863Y-144489439D01*
X296788010Y-144712073D01*
X296531249Y-144908895D01*
X296319767Y-145069885D01*
X296166749Y-145185024D01*
X296085383Y-145244293D01*
X296075737Y-145250114D01*
X296020134Y-145228704D01*
X295889601Y-145175592D01*
X295747532Y-145116856D01*
X295246779Y-144859411D01*
X294837269Y-144538448D01*
X294510049Y-144145693D01*
X294306435Y-143784711D01*
X294172394Y-143403361D01*
X294087304Y-142948781D01*
X294052236Y-142451655D01*
X294068262Y-141942667D01*
X294136453Y-141452504D01*
X294168571Y-141324303D01*
X295575910Y-141324303D01*
X295576968Y-141686997D01*
X295579928Y-142007811D01*
X295584471Y-142270292D01*
X295590278Y-142457986D01*
X295597028Y-142554440D01*
X295599982Y-142563793D01*
X295655865Y-142535783D01*
X295786749Y-142460402D01*
X295970429Y-142350625D01*
X296100545Y-142271312D01*
X296314007Y-142137826D01*
X296495299Y-142019945D01*
X296618674Y-141934632D01*
X296652802Y-141907467D01*
X296670669Y-141865556D01*
X296655663Y-141791635D01*
X296601122Y-141672762D01*
X296500389Y-141495996D01*
X296346803Y-141248394D01*
X296179594Y-140987814D01*
X296000476Y-140711842D01*
X295842690Y-140470264D01*
X295716762Y-140279071D01*
X295633216Y-140154255D01*
X295603265Y-140112169D01*
X295595279Y-140158388D01*
X295588212Y-140303048D01*
X295582424Y-140530174D01*
X295578276Y-140823794D01*
X295576129Y-141167935D01*
X295575910Y-141324303D01*
X294168571Y-141324303D01*
X294214142Y-141142411D01*
X294291243Y-140926776D01*
X294387250Y-140744688D01*
X294516210Y-140584967D01*
X294692172Y-140436434D01*
X294929183Y-140287912D01*
X295241292Y-140128221D01*
X295642546Y-139946182D01*
X295806800Y-139875054D01*
X296121021Y-139740985D01*
X296399005Y-139624037D01*
X296623763Y-139531224D01*
X296778303Y-139469557D01*
X296845637Y-139446049D01*
X296846359Y-139446000D01*
X296889226Y-139491674D01*
G37*
G36*
X283731568Y-139491674D02*
G01*
X283822050Y-139616367D01*
X283948326Y-139801591D01*
X284098575Y-140028854D01*
X284260977Y-140279667D01*
X284423710Y-140535540D01*
X284574953Y-140777981D01*
X284702885Y-140988501D01*
X284795685Y-141148609D01*
X284841532Y-141239816D01*
X284843981Y-141253062D01*
X284792672Y-141292154D01*
X284658426Y-141383876D01*
X284454747Y-141519298D01*
X284195140Y-141689488D01*
X283893110Y-141885517D01*
X283676085Y-142025359D01*
X283314711Y-142258061D01*
X283038704Y-142438154D01*
X282837006Y-142574611D01*
X282698554Y-142676405D01*
X282612290Y-142752507D01*
X282567152Y-142811891D01*
X282552081Y-142863529D01*
X282556015Y-142916394D01*
X282558838Y-142931715D01*
X282607921Y-143083599D01*
X282693799Y-143270134D01*
X282734813Y-143344528D01*
X282970051Y-143643173D01*
X283263346Y-143855680D01*
X283595084Y-143979048D01*
X283945652Y-144010275D01*
X284295436Y-143946362D01*
X284624822Y-143784307D01*
X284783940Y-143658042D01*
X284887085Y-143569207D01*
X284928698Y-143557120D01*
X284927048Y-143616541D01*
X284926958Y-143617029D01*
X284876946Y-143683785D01*
X284748255Y-143807812D01*
X284553854Y-143977884D01*
X284306709Y-144182773D01*
X284019787Y-144411256D01*
X283919205Y-144489439D01*
X283630352Y-144712073D01*
X283373591Y-144908895D01*
X283162109Y-145069885D01*
X283009092Y-145185024D01*
X282927725Y-145244293D01*
X282918079Y-145250114D01*
X282862477Y-145228704D01*
X282731943Y-145175592D01*
X282589874Y-145116856D01*
X282089122Y-144859411D01*
X281679611Y-144538448D01*
X281352391Y-144145693D01*
X281148777Y-143784711D01*
X281014737Y-143403361D01*
X280929647Y-142948781D01*
X280894578Y-142451655D01*
X280910604Y-141942667D01*
X280978795Y-141452504D01*
X281010914Y-141324303D01*
X282418252Y-141324303D01*
X282419310Y-141686997D01*
X282422270Y-142007811D01*
X282426814Y-142270292D01*
X282432620Y-142457986D01*
X282439371Y-142554440D01*
X282442325Y-142563793D01*
X282498207Y-142535783D01*
X282629091Y-142460402D01*
X282812772Y-142350625D01*
X282942888Y-142271312D01*
X283156350Y-142137826D01*
X283337641Y-142019945D01*
X283461016Y-141934632D01*
X283495144Y-141907467D01*
X283513012Y-141865556D01*
X283498005Y-141791635D01*
X283443464Y-141672762D01*
X283342731Y-141495996D01*
X283189145Y-141248394D01*
X283021936Y-140987814D01*
X282842818Y-140711842D01*
X282685033Y-140470264D01*
X282559104Y-140279071D01*
X282475559Y-140154255D01*
X282445608Y-140112169D01*
X282437622Y-140158388D01*
X282430554Y-140303048D01*
X282424767Y-140530174D01*
X282420619Y-140823794D01*
X282418471Y-141167935D01*
X282418252Y-141324303D01*
X281010914Y-141324303D01*
X281056485Y-141142411D01*
X281133585Y-140926776D01*
X281229592Y-140744688D01*
X281358552Y-140584967D01*
X281534514Y-140436434D01*
X281771525Y-140287912D01*
X282083634Y-140128221D01*
X282484888Y-139946182D01*
X282649142Y-139875054D01*
X282963363Y-139740985D01*
X283241348Y-139624037D01*
X283466105Y-139531224D01*
X283620646Y-139469557D01*
X283687979Y-139446049D01*
X283688702Y-139446000D01*
X283731568Y-139491674D01*
G37*
G36*
X291595280Y-137366049D02*
G01*
X291742828Y-137387656D01*
X291792190Y-137418669D01*
X291738317Y-137454996D01*
X291576158Y-137492545D01*
X291529843Y-137499908D01*
X291202873Y-137584568D01*
X290918119Y-137725931D01*
X290741901Y-137872597D01*
X290705045Y-137920321D01*
X290676674Y-137981746D01*
X290655400Y-138071979D01*
X290639838Y-138206123D01*
X290628601Y-138399285D01*
X290620302Y-138666571D01*
X290613556Y-139023085D01*
X290609232Y-139318034D01*
X290590978Y-140637087D01*
X290752250Y-140531459D01*
X290855298Y-140461019D01*
X291029980Y-140338503D01*
X291255186Y-140178838D01*
X291509809Y-139996950D01*
X291620615Y-139917399D01*
X291871814Y-139738315D01*
X292093617Y-139583071D01*
X292267927Y-139464113D01*
X292376648Y-139393887D01*
X292400485Y-139381040D01*
X292479125Y-139407219D01*
X292595608Y-139513910D01*
X292733519Y-139680892D01*
X292876445Y-139887944D01*
X293007974Y-140114846D01*
X293028270Y-140154438D01*
X293182887Y-140462425D01*
X293176084Y-142499253D01*
X293173030Y-143099797D01*
X293167302Y-143598703D01*
X293157480Y-144008742D01*
X293142143Y-144342683D01*
X293119872Y-144613297D01*
X293089247Y-144833354D01*
X293048849Y-145015624D01*
X292997256Y-145172876D01*
X292933050Y-145317881D01*
X292854809Y-145463409D01*
X292844499Y-145481361D01*
X292573989Y-145862134D01*
X292206619Y-146244847D01*
X291758860Y-146615722D01*
X291247181Y-146960980D01*
X290741901Y-147240285D01*
X290441068Y-147386221D01*
X290229520Y-147478480D01*
X290097442Y-147520563D01*
X290035016Y-147515970D01*
X290026811Y-147495321D01*
X290074419Y-147445768D01*
X290199798Y-147365064D01*
X290376777Y-147269883D01*
X290394178Y-147261258D01*
X290763145Y-147026355D01*
X291091285Y-146715640D01*
X291350596Y-146358816D01*
X291465604Y-146124751D01*
X291498627Y-146038586D01*
X291525721Y-145953682D01*
X291547597Y-145857937D01*
X291564963Y-145739251D01*
X291578526Y-145585521D01*
X291588997Y-145384649D01*
X291597082Y-145124531D01*
X291603491Y-144793068D01*
X291608933Y-144378159D01*
X291614115Y-143867702D01*
X291617161Y-143536316D01*
X291622287Y-142889980D01*
X291624595Y-142348111D01*
X291623534Y-141900780D01*
X291618556Y-141538064D01*
X291609111Y-141250034D01*
X291594650Y-141026765D01*
X291574624Y-140858332D01*
X291548484Y-140734806D01*
X291515680Y-140646263D01*
X291475662Y-140582777D01*
X291452287Y-140556837D01*
X291332694Y-140471158D01*
X291200690Y-140459161D01*
X291031766Y-140523736D01*
X290862812Y-140626332D01*
X290592260Y-140805539D01*
X290609873Y-142376285D01*
X290627487Y-143947032D01*
X290768356Y-144061023D01*
X290954072Y-144149003D01*
X291068694Y-144151608D01*
X291191963Y-144146735D01*
X291214855Y-144184192D01*
X291136305Y-144265872D01*
X290955251Y-144393671D01*
X290920060Y-144416376D01*
X290720227Y-144554216D01*
X290483961Y-144731687D01*
X290260037Y-144912062D01*
X290245238Y-144924565D01*
X289878518Y-145235664D01*
X289563228Y-144943760D01*
X289343254Y-144759252D01*
X289089947Y-144574498D01*
X288895382Y-144451631D01*
X288679363Y-144315398D01*
X288566219Y-144211560D01*
X288557232Y-144142457D01*
X288653687Y-144110426D01*
X288706959Y-144108388D01*
X288790951Y-144108041D01*
X288860453Y-144100432D01*
X288916757Y-144075708D01*
X288961150Y-144024015D01*
X288994923Y-143935499D01*
X289019364Y-143800307D01*
X289035763Y-143608586D01*
X289045410Y-143350482D01*
X289049593Y-143016142D01*
X289049603Y-142595712D01*
X289046728Y-142079339D01*
X289042863Y-141541402D01*
X289025685Y-139159964D01*
X288845186Y-138714819D01*
X288740557Y-138477864D01*
X288628443Y-138257118D01*
X288530375Y-138094453D01*
X288516016Y-138074755D01*
X288436717Y-137949617D01*
X288411595Y-137863359D01*
X288420406Y-137847043D01*
X288488244Y-137869607D01*
X288594916Y-137989061D01*
X288734149Y-138197147D01*
X288884708Y-138458126D01*
X289041074Y-138744064D01*
X289106578Y-138545585D01*
X289264621Y-138241423D01*
X289518803Y-137968870D01*
X289853226Y-137736326D01*
X290251996Y-137552189D01*
X290699214Y-137424856D01*
X291178986Y-137362726D01*
X291354596Y-137357937D01*
X291595280Y-137366049D01*
G37*
%LPC*%
D13*
X145028937Y-143670541D03*
X121674685Y-138706442D03*
D14*
X141860363Y-158577511D03*
X118506111Y-153613411D03*
D15*
X136604490Y-150319291D03*
X126666510Y-148206909D03*
D13*
X131635500Y-149263100D03*
X142707377Y-143175241D03*
X119353125Y-138211142D03*
D14*
X139538803Y-158082211D03*
X116184551Y-153118111D03*
D15*
X134282930Y-149823991D03*
X124344950Y-147711609D03*
D13*
X129313940Y-148767800D03*
D15*
X101666790Y-142884711D03*
X91728810Y-140772329D03*
D13*
X96697800Y-141828520D03*
D16*
X318755400Y-32293800D03*
X313755400Y-32293800D03*
G36*
G01*
X322855400Y-40944800D02*
X320855400Y-40944800D01*
G75*
G02*
X320804400Y-40893800I0J51000D01*
G01*
X320804400Y-37693800D01*
G75*
G02*
X320855400Y-37642800I51000J0D01*
G01*
X322855400Y-37642800D01*
G75*
G02*
X322906400Y-37693800I0J-51000D01*
G01*
X322906400Y-40893800D01*
G75*
G02*
X322855400Y-40944800I-51000J0D01*
G01*
G37*
G36*
G01*
X311655400Y-40944800D02*
X309655400Y-40944800D01*
G75*
G02*
X309604400Y-40893800I0J51000D01*
G01*
X309604400Y-37693800D01*
G75*
G02*
X309655400Y-37642800I51000J0D01*
G01*
X311655400Y-37642800D01*
G75*
G02*
X311706400Y-37693800I0J-51000D01*
G01*
X311706400Y-40893800D01*
G75*
G02*
X311655400Y-40944800I-51000J0D01*
G01*
G37*
X318755400Y-46793800D03*
X316255400Y-46793800D03*
G36*
G01*
X314755400Y-47844800D02*
X312755400Y-47844800D01*
G75*
G02*
X312704400Y-47793800I0J51000D01*
G01*
X312704400Y-45793800D01*
G75*
G02*
X312755400Y-45742800I51000J0D01*
G01*
X314755400Y-45742800D01*
G75*
G02*
X314806400Y-45793800I0J-51000D01*
G01*
X314806400Y-47793800D01*
G75*
G02*
X314755400Y-47844800I-51000J0D01*
G01*
G37*
D17*
X174251700Y-30535000D03*
X172551700Y-30535000D03*
X173401700Y-30535000D03*
X175101700Y-30535000D03*
X175951700Y-30535000D03*
X176801700Y-30535000D03*
X177651700Y-30535000D03*
X178501700Y-30535000D03*
X172551700Y-29210000D03*
X173406700Y-29210000D03*
X174256700Y-29210000D03*
X175106700Y-29210000D03*
X175956700Y-29210000D03*
X176806700Y-29210000D03*
X177656700Y-29210000D03*
X178506700Y-29210000D03*
D18*
X171201700Y-29555000D03*
X179851700Y-29555000D03*
D19*
X171201700Y-26175000D03*
X179851700Y-26175000D03*
D15*
X187820220Y-136489258D03*
X177882240Y-138601640D03*
D13*
X182851230Y-137545449D03*
D15*
X303377600Y-82130900D03*
X293217600Y-82130900D03*
D13*
X298297600Y-82130900D03*
X313182000Y-63080900D03*
D15*
X308102000Y-63080900D03*
X318262000Y-63080900D03*
D14*
X301244000Y-56095900D03*
X325120000Y-56095900D03*
D13*
X301244000Y-71335900D03*
X325120000Y-71335900D03*
D15*
X194287890Y-52360009D03*
X184349910Y-54472391D03*
D13*
X189318900Y-53416200D03*
X331177900Y-92925900D03*
X307301900Y-92925900D03*
D14*
X331177900Y-108165900D03*
X307301900Y-108165900D03*
D15*
X324319900Y-101180900D03*
X314159900Y-101180900D03*
D13*
X319239900Y-101180900D03*
D15*
X46596300Y-101180900D03*
X36436300Y-101180900D03*
D13*
X41516300Y-101180900D03*
D15*
X53060600Y-82143600D03*
X42900600Y-82143600D03*
D13*
X47980600Y-82143600D03*
D15*
X257000490Y-141247309D03*
X247062510Y-143359691D03*
D13*
X252031500Y-142303500D03*
D15*
X44856400Y-139293600D03*
X34696400Y-139293600D03*
D13*
X39776400Y-139293600D03*
D15*
X360045000Y-144043400D03*
X349885000Y-144043400D03*
D13*
X354965000Y-144043400D03*
D15*
X360032300Y-96418400D03*
X349872300Y-96418400D03*
D13*
X354952300Y-96418400D03*
D15*
X355765100Y-77368400D03*
X345605100Y-77368400D03*
D13*
X350685100Y-77368400D03*
D15*
X351612200Y-58331100D03*
X341452200Y-58331100D03*
D13*
X346532200Y-58331100D03*
D15*
X327787000Y-63080900D03*
X317627000Y-63080900D03*
D13*
X322707000Y-63080900D03*
D15*
X347395800Y-39281100D03*
X337235800Y-39281100D03*
D13*
X342315800Y-39281100D03*
D15*
X340995000Y-144043400D03*
X330835000Y-144043400D03*
D13*
X335915000Y-144043400D03*
D15*
X340995000Y-124993400D03*
X330835000Y-124993400D03*
D13*
X335915000Y-124993400D03*
D15*
X327190100Y-82143600D03*
X317030100Y-82143600D03*
D13*
X322110100Y-82143600D03*
D15*
X308749700Y-63093600D03*
X298589700Y-63093600D03*
D13*
X303669700Y-63093600D03*
D15*
X321335400Y-39293800D03*
X311175400Y-39293800D03*
D13*
X316255400Y-39293800D03*
D15*
X321932300Y-144043400D03*
X311772300Y-144043400D03*
D13*
X316852300Y-144043400D03*
D15*
X289687000Y-63093600D03*
X279527000Y-63093600D03*
D13*
X284607000Y-63093600D03*
D15*
X294767000Y-37795200D03*
X284607000Y-37795200D03*
D13*
X289687000Y-37795200D03*
D15*
X310057800Y-120243600D03*
X299897800Y-120243600D03*
D13*
X304977800Y-120243600D03*
D15*
X293370000Y-101206300D03*
X283210000Y-101206300D03*
D13*
X288290000Y-101206300D03*
D15*
X284340300Y-82130900D03*
X274180300Y-82130900D03*
D13*
X279260300Y-82130900D03*
D15*
X270649700Y-61595000D03*
X260489700Y-61595000D03*
D13*
X265569700Y-61595000D03*
D15*
X275704300Y-37795200D03*
X265544300Y-37795200D03*
D13*
X270624300Y-37795200D03*
D15*
X283845000Y-120230900D03*
X273685000Y-120230900D03*
D13*
X278765000Y-120230900D03*
D15*
X274320000Y-101206300D03*
X264160000Y-101206300D03*
D13*
X269240000Y-101206300D03*
D15*
X263731490Y-81404909D03*
X253793510Y-83517291D03*
D13*
X258762500Y-82461100D03*
D15*
X250485390Y-64767909D03*
X240547410Y-66880291D03*
D13*
X245516400Y-65824100D03*
D15*
X254828790Y-39482209D03*
X244890810Y-41594591D03*
D13*
X249859800Y-40538400D03*
D15*
X262359890Y-120635209D03*
X252421910Y-122747591D03*
D13*
X257390900Y-121691400D03*
D15*
X253711190Y-102994909D03*
X243773210Y-105107291D03*
D13*
X248742200Y-104051100D03*
D15*
X245100590Y-85354609D03*
X235162610Y-87466991D03*
D13*
X240131600Y-86410800D03*
D15*
X231829090Y-68704909D03*
X221891110Y-70817291D03*
D13*
X226860100Y-69761100D03*
D15*
X236197890Y-43444609D03*
X226259910Y-45556991D03*
D13*
X231228900Y-44500800D03*
D15*
X243716290Y-124597609D03*
X233778310Y-126709991D03*
D13*
X238747300Y-125653800D03*
D15*
X235105690Y-106931909D03*
X225167710Y-109044291D03*
D13*
X230136700Y-107988100D03*
D15*
X226469690Y-89317009D03*
X216531710Y-91429391D03*
D13*
X221500700Y-90373200D03*
D15*
X213223590Y-72680009D03*
X203285610Y-74792391D03*
D13*
X208254600Y-73736200D03*
D15*
X212918790Y-48397609D03*
X202980810Y-50509991D03*
D13*
X207949800Y-49453800D03*
X222406415Y-140154242D03*
X199052163Y-145118341D03*
D14*
X225574989Y-155061211D03*
X202220737Y-160025311D03*
D15*
X217414590Y-149654709D03*
X207476610Y-151767091D03*
D13*
X212445600Y-150710900D03*
D15*
X225098090Y-128560009D03*
X215160110Y-130672391D03*
D13*
X220129100Y-129616200D03*
D15*
X216474790Y-110907009D03*
X206536810Y-113019391D03*
D13*
X211505800Y-111963200D03*
D15*
X207851490Y-93266709D03*
X197913510Y-95379091D03*
D13*
X202882500Y-94322900D03*
D15*
X194579990Y-76629709D03*
X184642010Y-78742091D03*
D13*
X189611000Y-77685900D03*
D15*
X206454490Y-132535109D03*
X196516510Y-134647491D03*
D13*
X201485500Y-133591300D03*
D15*
X197843890Y-114882109D03*
X187905910Y-116994491D03*
D13*
X192874900Y-115938300D03*
D15*
X189233290Y-97241809D03*
X179295310Y-99354191D03*
D13*
X184264300Y-98298000D03*
D15*
X166462190Y-78742091D03*
X156524210Y-76629709D03*
D13*
X161493200Y-77685900D03*
D15*
X166703490Y-54485091D03*
X156765510Y-52372709D03*
D13*
X161734500Y-53428900D03*
D15*
X164557190Y-156250191D03*
X154619210Y-154137809D03*
D13*
X159588200Y-155194000D03*
D15*
X159185090Y-135625391D03*
X149247110Y-133513009D03*
D13*
X154216100Y-134569200D03*
D15*
X153825690Y-115013291D03*
X143887710Y-112900909D03*
D13*
X148856700Y-113957100D03*
D15*
X153152590Y-95379091D03*
X143214610Y-93266709D03*
D13*
X148183600Y-94322900D03*
D15*
X147818590Y-74805091D03*
X137880610Y-72692709D03*
D13*
X142849600Y-73748900D03*
D15*
X148085290Y-50522691D03*
X138147310Y-48410309D03*
D13*
X143116300Y-49466500D03*
D15*
X140554190Y-131675691D03*
X130616210Y-129563309D03*
D13*
X135585200Y-130619500D03*
D15*
X135182090Y-111050891D03*
X125244110Y-108938509D03*
D13*
X130213100Y-109994700D03*
D15*
X134508990Y-91467491D03*
X124571010Y-89355109D03*
D13*
X129540000Y-90411300D03*
D15*
X129174990Y-70842691D03*
X119237010Y-68730309D03*
D13*
X124206000Y-69786500D03*
D15*
X124818890Y-45556991D03*
X114880910Y-43444609D03*
D13*
X119849900Y-44500800D03*
D15*
X121910590Y-127713291D03*
X111972610Y-125600909D03*
D13*
X116941600Y-126657100D03*
D15*
X116589290Y-107126591D03*
X106651310Y-105014209D03*
D13*
X111620300Y-106070400D03*
D15*
X115890790Y-87492391D03*
X105952810Y-85380009D03*
D13*
X110921800Y-86436200D03*
D15*
X110544090Y-66867591D03*
X100606110Y-64755209D03*
D13*
X105575100Y-65811400D03*
D15*
X106200690Y-41607291D03*
X96262710Y-39494909D03*
D13*
X101231700Y-40551100D03*
D15*
X104003590Y-143385091D03*
X94065610Y-141272709D03*
D13*
X99034600Y-142328900D03*
D15*
X103292390Y-123763591D03*
X93354410Y-121651209D03*
D13*
X98323400Y-122707400D03*
D15*
X97958390Y-103164191D03*
X88020410Y-101051809D03*
D13*
X92989400Y-102108000D03*
D15*
X97259890Y-83529991D03*
X87321910Y-81417609D03*
D13*
X92290900Y-82473800D03*
D15*
X90563700Y-61607700D03*
X80403700Y-61607700D03*
D13*
X85483700Y-61607700D03*
D15*
X85509100Y-37769800D03*
X75349100Y-37769800D03*
D13*
X80429100Y-37769800D03*
D15*
X82918300Y-120230900D03*
X72758300Y-120230900D03*
D13*
X77838300Y-120230900D03*
D15*
X77546200Y-101193600D03*
X67386200Y-101193600D03*
D13*
X72466200Y-101193600D03*
X71793100Y-82143600D03*
D15*
X66713100Y-82143600D03*
X76873100Y-82143600D03*
X71518368Y-63093600D03*
X61358368Y-63093600D03*
D13*
X66438368Y-63093600D03*
D15*
X66446400Y-37782500D03*
X56286400Y-37782500D03*
D13*
X61366400Y-37782500D03*
X58851800Y-128498600D03*
X34975800Y-128498600D03*
D14*
X58851800Y-113258600D03*
X34975800Y-113258600D03*
D15*
X51993800Y-120243600D03*
X41833800Y-120243600D03*
D13*
X46913800Y-120243600D03*
D15*
X51358800Y-101180900D03*
X41198800Y-101180900D03*
D13*
X46278800Y-101180900D03*
D15*
X52463700Y-63093600D03*
X42303700Y-63093600D03*
D13*
X47383700Y-63093600D03*
D15*
X42506900Y-39293800D03*
X32346900Y-39293800D03*
D13*
X37426900Y-39293800D03*
D20*
X56896000Y-72644000D03*
X345440000Y-134493000D03*
X240665000Y-144526000D03*
X337058000Y-48768000D03*
X52324000Y-139573000D03*
X111760000Y-145034000D03*
G36*
G01*
X219825000Y-27266000D02*
X219825000Y-25566000D01*
G75*
G02*
X219876000Y-25515000I51000J0D01*
G01*
X221576000Y-25515000D01*
G75*
G02*
X221627000Y-25566000I0J-51000D01*
G01*
X221627000Y-27266000D01*
G75*
G02*
X221576000Y-27317000I-51000J0D01*
G01*
X219876000Y-27317000D01*
G75*
G02*
X219825000Y-27266000I0J51000D01*
G01*
G37*
G36*
G01*
X217285000Y-27266000D02*
X217285000Y-25566000D01*
G75*
G02*
X217336000Y-25515000I51000J0D01*
G01*
X219036000Y-25515000D01*
G75*
G02*
X219087000Y-25566000I0J-51000D01*
G01*
X219087000Y-27266000D01*
G75*
G02*
X219036000Y-27317000I-51000J0D01*
G01*
X217336000Y-27317000D01*
G75*
G02*
X217285000Y-27266000I0J51000D01*
G01*
G37*
G36*
G01*
X214745000Y-27266000D02*
X214745000Y-25566000D01*
G75*
G02*
X214796000Y-25515000I51000J0D01*
G01*
X216496000Y-25515000D01*
G75*
G02*
X216547000Y-25566000I0J-51000D01*
G01*
X216547000Y-27266000D01*
G75*
G02*
X216496000Y-27317000I-51000J0D01*
G01*
X214796000Y-27317000D01*
G75*
G02*
X214745000Y-27266000I0J51000D01*
G01*
G37*
G36*
G01*
X212205000Y-27266000D02*
X212205000Y-25566000D01*
G75*
G02*
X212256000Y-25515000I51000J0D01*
G01*
X213956000Y-25515000D01*
G75*
G02*
X214007000Y-25566000I0J-51000D01*
G01*
X214007000Y-27266000D01*
G75*
G02*
X213956000Y-27317000I-51000J0D01*
G01*
X212256000Y-27317000D01*
G75*
G02*
X212205000Y-27266000I0J51000D01*
G01*
G37*
G36*
G01*
X209665000Y-27266000D02*
X209665000Y-25566000D01*
G75*
G02*
X209716000Y-25515000I51000J0D01*
G01*
X211416000Y-25515000D01*
G75*
G02*
X211467000Y-25566000I0J-51000D01*
G01*
X211467000Y-27266000D01*
G75*
G02*
X211416000Y-27317000I-51000J0D01*
G01*
X209716000Y-27317000D01*
G75*
G02*
X209665000Y-27266000I0J51000D01*
G01*
G37*
G36*
G01*
X207125000Y-27266000D02*
X207125000Y-25566000D01*
G75*
G02*
X207176000Y-25515000I51000J0D01*
G01*
X208876000Y-25515000D01*
G75*
G02*
X208927000Y-25566000I0J-51000D01*
G01*
X208927000Y-27266000D01*
G75*
G02*
X208876000Y-27317000I-51000J0D01*
G01*
X207176000Y-27317000D01*
G75*
G02*
X207125000Y-27266000I0J51000D01*
G01*
G37*
G36*
G01*
X140323000Y-27266000D02*
X140323000Y-25566000D01*
G75*
G02*
X140374000Y-25515000I51000J0D01*
G01*
X142074000Y-25515000D01*
G75*
G02*
X142125000Y-25566000I0J-51000D01*
G01*
X142125000Y-27266000D01*
G75*
G02*
X142074000Y-27317000I-51000J0D01*
G01*
X140374000Y-27317000D01*
G75*
G02*
X140323000Y-27266000I0J51000D01*
G01*
G37*
G36*
G01*
X137783000Y-27266000D02*
X137783000Y-25566000D01*
G75*
G02*
X137834000Y-25515000I51000J0D01*
G01*
X139534000Y-25515000D01*
G75*
G02*
X139585000Y-25566000I0J-51000D01*
G01*
X139585000Y-27266000D01*
G75*
G02*
X139534000Y-27317000I-51000J0D01*
G01*
X137834000Y-27317000D01*
G75*
G02*
X137783000Y-27266000I0J51000D01*
G01*
G37*
G36*
G01*
X150483000Y-27266000D02*
X150483000Y-25566000D01*
G75*
G02*
X150534000Y-25515000I51000J0D01*
G01*
X152234000Y-25515000D01*
G75*
G02*
X152285000Y-25566000I0J-51000D01*
G01*
X152285000Y-27266000D01*
G75*
G02*
X152234000Y-27317000I-51000J0D01*
G01*
X150534000Y-27317000D01*
G75*
G02*
X150483000Y-27266000I0J51000D01*
G01*
G37*
G36*
G01*
X145403000Y-27266000D02*
X145403000Y-25566000D01*
G75*
G02*
X145454000Y-25515000I51000J0D01*
G01*
X147154000Y-25515000D01*
G75*
G02*
X147205000Y-25566000I0J-51000D01*
G01*
X147205000Y-27266000D01*
G75*
G02*
X147154000Y-27317000I-51000J0D01*
G01*
X145454000Y-27317000D01*
G75*
G02*
X145403000Y-27266000I0J51000D01*
G01*
G37*
G36*
G01*
X147943000Y-27266000D02*
X147943000Y-25566000D01*
G75*
G02*
X147994000Y-25515000I51000J0D01*
G01*
X149694000Y-25515000D01*
G75*
G02*
X149745000Y-25566000I0J-51000D01*
G01*
X149745000Y-27266000D01*
G75*
G02*
X149694000Y-27317000I-51000J0D01*
G01*
X147994000Y-27317000D01*
G75*
G02*
X147943000Y-27266000I0J51000D01*
G01*
G37*
G36*
G01*
X142863000Y-27266000D02*
X142863000Y-25566000D01*
G75*
G02*
X142914000Y-25515000I51000J0D01*
G01*
X144614000Y-25515000D01*
G75*
G02*
X144665000Y-25566000I0J-51000D01*
G01*
X144665000Y-27266000D01*
G75*
G02*
X144614000Y-27317000I-51000J0D01*
G01*
X142914000Y-27317000D01*
G75*
G02*
X142863000Y-27266000I0J51000D01*
G01*
G37*
X121827220Y-27932509D03*
X229192785Y-27932509D03*
M02*
