%TF.GenerationSoftware,KiCad,Pcbnew,7.0.1*%
%TF.CreationDate,2023-04-17T11:26:53-07:00*%
%TF.ProjectId,_autosave-keyboard,5f617574-6f73-4617-9665-2d6b6579626f,rev?*%
%TF.SameCoordinates,Original*%
%TF.FileFunction,Drillmap*%
%TF.FilePolarity,Positive*%
%FSLAX45Y45*%
G04 Gerber Fmt 4.5, Leading zero omitted, Abs format (unit mm)*
G04 Created by KiCad (PCBNEW 7.0.1) date 2023-04-17 11:26:53*
%MOMM*%
%LPD*%
G01*
G04 APERTURE LIST*
%ADD10C,0.200000*%
%ADD11C,0.050000*%
%ADD12C,0.030000*%
%ADD13C,0.070000*%
%ADD14C,0.100000*%
%ADD15C,0.120000*%
%ADD16C,0.140000*%
%ADD17C,0.150000*%
G04 APERTURE END LIST*
D10*
X45969500Y-14348250D02*
G75*
G03*
X45969500Y-14348250I0J0D01*
G01*
D11*
X45969500Y-14655250D02*
X45969500Y-27430750D01*
D10*
X14013250Y-14348250D02*
G75*
G03*
X14013250Y-14348250I0J0D01*
G01*
D11*
X45669500Y-27730750D02*
G75*
G03*
X45969500Y-27430750I0J300000D01*
G01*
X45669500Y-27730750D02*
X14313250Y-27730750D01*
X45969500Y-14655250D02*
G75*
G03*
X45669500Y-14355250I-300000J0D01*
G01*
X14013250Y-27430750D02*
G75*
G03*
X14313250Y-27730750I300000J0D01*
G01*
D10*
X45969500Y-27730750D02*
G75*
G03*
X45969500Y-27730750I0J0D01*
G01*
D11*
X14313250Y-14355250D02*
X45669500Y-14355250D01*
X14313250Y-14355250D02*
G75*
G03*
X14013250Y-14655250I0J-300000D01*
G01*
X14013250Y-27430750D02*
X14013250Y-14655250D01*
D10*
X14013250Y-27730750D02*
G75*
G03*
X14013250Y-27730750I0J0D01*
G01*
D12*
X25376000Y-26727000D02*
X25406000Y-26757000D01*
X25406000Y-26727000D02*
X25376000Y-26757000D01*
X25594000Y-26841000D02*
X25624000Y-26871000D01*
X25624000Y-26841000D02*
X25594000Y-26871000D01*
X25906000Y-26957000D02*
X25936000Y-26987000D01*
X25936000Y-26957000D02*
X25906000Y-26987000D01*
X26137000Y-27017000D02*
X26167000Y-27047000D01*
X26167000Y-27017000D02*
X26137000Y-27047000D01*
X26373000Y-27118000D02*
X26403000Y-27148000D01*
X26403000Y-27118000D02*
X26373000Y-27148000D01*
X29167000Y-27196000D02*
X29197000Y-27226000D01*
X29197000Y-27196000D02*
X29167000Y-27226000D01*
X29367000Y-27266000D02*
X29397000Y-27296000D01*
X29397000Y-27266000D02*
X29367000Y-27296000D01*
X29575000Y-27381000D02*
X29605000Y-27411000D01*
X29605000Y-27381000D02*
X29575000Y-27411000D01*
X44953000Y-23080000D02*
X44983000Y-23110000D01*
X44983000Y-23080000D02*
X44953000Y-23110000D01*
X44958466Y-23254952D02*
X44988466Y-23284952D01*
X44988466Y-23254952D02*
X44958466Y-23284952D01*
D13*
X14592750Y-15713250D02*
G75*
G03*
X14592750Y-15713250I-35000J0D01*
G01*
X14592750Y-16493250D02*
G75*
G03*
X14592750Y-16493250I-35000J0D01*
G01*
X14592750Y-18094500D02*
G75*
G03*
X14592750Y-18094500I-35000J0D01*
G01*
X14592750Y-18874500D02*
G75*
G03*
X14592750Y-18874500I-35000J0D01*
G01*
X14830875Y-25714500D02*
G75*
G03*
X14830875Y-25714500I-35000J0D01*
G01*
X14830875Y-26494500D02*
G75*
G03*
X14830875Y-26494500I-35000J0D01*
G01*
X15069000Y-19999500D02*
G75*
G03*
X15069000Y-19999500I-35000J0D01*
G01*
X15069000Y-20779500D02*
G75*
G03*
X15069000Y-20779500I-35000J0D01*
G01*
X15307125Y-21904500D02*
G75*
G03*
X15307125Y-21904500I-35000J0D01*
G01*
X15307125Y-22684500D02*
G75*
G03*
X15307125Y-22684500I-35000J0D01*
G01*
X15906000Y-23852000D02*
G75*
G03*
X15906000Y-23852000I-35000J0D01*
G01*
X15906000Y-24632000D02*
G75*
G03*
X15906000Y-24632000I-35000J0D01*
G01*
X16497750Y-18094500D02*
G75*
G03*
X16497750Y-18094500I-35000J0D01*
G01*
X16497750Y-18874500D02*
G75*
G03*
X16497750Y-18874500I-35000J0D01*
G01*
X16974000Y-15713250D02*
G75*
G03*
X16974000Y-15713250I-35000J0D01*
G01*
X16974000Y-16493250D02*
G75*
G03*
X16974000Y-16493250I-35000J0D01*
G01*
X17212125Y-25714500D02*
G75*
G03*
X17212125Y-25714500I-35000J0D01*
G01*
X17212125Y-26494500D02*
G75*
G03*
X17212125Y-26494500I-35000J0D01*
G01*
X17450250Y-19999500D02*
G75*
G03*
X17450250Y-19999500I-35000J0D01*
G01*
X17450250Y-20779500D02*
G75*
G03*
X17450250Y-20779500I-35000J0D01*
G01*
X17926500Y-21904500D02*
G75*
G03*
X17926500Y-21904500I-35000J0D01*
G01*
X17926500Y-22684500D02*
G75*
G03*
X17926500Y-22684500I-35000J0D01*
G01*
X18402750Y-18094500D02*
G75*
G03*
X18402750Y-18094500I-35000J0D01*
G01*
X18402750Y-18874500D02*
G75*
G03*
X18402750Y-18874500I-35000J0D01*
G01*
X18879000Y-15713250D02*
G75*
G03*
X18879000Y-15713250I-35000J0D01*
G01*
X18879000Y-16493250D02*
G75*
G03*
X18879000Y-16493250I-35000J0D01*
G01*
X18879000Y-23809500D02*
G75*
G03*
X18879000Y-23809500I-35000J0D01*
G01*
X18879000Y-24589500D02*
G75*
G03*
X18879000Y-24589500I-35000J0D01*
G01*
X19355250Y-19999500D02*
G75*
G03*
X19355250Y-19999500I-35000J0D01*
G01*
X19355250Y-20779500D02*
G75*
G03*
X19355250Y-20779500I-35000J0D01*
G01*
X19593375Y-25714500D02*
G75*
G03*
X19593375Y-25714500I-35000J0D01*
G01*
X19593375Y-26494500D02*
G75*
G03*
X19593375Y-26494500I-35000J0D01*
G01*
X19831500Y-21904500D02*
G75*
G03*
X19831500Y-21904500I-35000J0D01*
G01*
X19831500Y-22684500D02*
G75*
G03*
X19831500Y-22684500I-35000J0D01*
G01*
X20307750Y-18094500D02*
G75*
G03*
X20307750Y-18094500I-35000J0D01*
G01*
X20307750Y-18874500D02*
G75*
G03*
X20307750Y-18874500I-35000J0D01*
G01*
X20784000Y-15713250D02*
G75*
G03*
X20784000Y-15713250I-35000J0D01*
G01*
X20784000Y-16493250D02*
G75*
G03*
X20784000Y-16493250I-35000J0D01*
G01*
X20784000Y-23809500D02*
G75*
G03*
X20784000Y-23809500I-35000J0D01*
G01*
X20784000Y-24589500D02*
G75*
G03*
X20784000Y-24589500I-35000J0D01*
G01*
X21260250Y-19999500D02*
G75*
G03*
X21260250Y-19999500I-35000J0D01*
G01*
X21260250Y-20779500D02*
G75*
G03*
X21260250Y-20779500I-35000J0D01*
G01*
X21736500Y-21904500D02*
G75*
G03*
X21736500Y-21904500I-35000J0D01*
G01*
X21736500Y-22684500D02*
G75*
G03*
X21736500Y-22684500I-35000J0D01*
G01*
X22212750Y-18094500D02*
G75*
G03*
X22212750Y-18094500I-35000J0D01*
G01*
X22212750Y-18874500D02*
G75*
G03*
X22212750Y-18874500I-35000J0D01*
G01*
X22689000Y-15713250D02*
G75*
G03*
X22689000Y-15713250I-35000J0D01*
G01*
X22689000Y-16493250D02*
G75*
G03*
X22689000Y-16493250I-35000J0D01*
G01*
X22689000Y-23809500D02*
G75*
G03*
X22689000Y-23809500I-35000J0D01*
G01*
X22689000Y-24589500D02*
G75*
G03*
X22689000Y-24589500I-35000J0D01*
G01*
X23165250Y-19999500D02*
G75*
G03*
X23165250Y-19999500I-35000J0D01*
G01*
X23165250Y-20779500D02*
G75*
G03*
X23165250Y-20779500I-35000J0D01*
G01*
X23641500Y-21904500D02*
G75*
G03*
X23641500Y-21904500I-35000J0D01*
G01*
X23641500Y-22684500D02*
G75*
G03*
X23641500Y-22684500I-35000J0D01*
G01*
X24117750Y-18094500D02*
G75*
G03*
X24117750Y-18094500I-35000J0D01*
G01*
X24117750Y-18874500D02*
G75*
G03*
X24117750Y-18874500I-35000J0D01*
G01*
X24594000Y-23809500D02*
G75*
G03*
X24594000Y-23809500I-35000J0D01*
G01*
X24594000Y-24589500D02*
G75*
G03*
X24594000Y-24589500I-35000J0D01*
G01*
X25070250Y-15713250D02*
G75*
G03*
X25070250Y-15713250I-35000J0D01*
G01*
X25070250Y-16493250D02*
G75*
G03*
X25070250Y-16493250I-35000J0D01*
G01*
X25070250Y-19999500D02*
G75*
G03*
X25070250Y-19999500I-35000J0D01*
G01*
X25070250Y-20779500D02*
G75*
G03*
X25070250Y-20779500I-35000J0D01*
G01*
X25546500Y-21904500D02*
G75*
G03*
X25546500Y-21904500I-35000J0D01*
G01*
X25546500Y-22684500D02*
G75*
G03*
X25546500Y-22684500I-35000J0D01*
G01*
X26022750Y-18094500D02*
G75*
G03*
X26022750Y-18094500I-35000J0D01*
G01*
X26022750Y-18874500D02*
G75*
G03*
X26022750Y-18874500I-35000J0D01*
G01*
X26499000Y-23809500D02*
G75*
G03*
X26499000Y-23809500I-35000J0D01*
G01*
X26499000Y-24589500D02*
G75*
G03*
X26499000Y-24589500I-35000J0D01*
G01*
X26734000Y-25718500D02*
G75*
G03*
X26734000Y-25718500I-35000J0D01*
G01*
X26734000Y-26498500D02*
G75*
G03*
X26734000Y-26498500I-35000J0D01*
G01*
X26975250Y-15713250D02*
G75*
G03*
X26975250Y-15713250I-35000J0D01*
G01*
X26975250Y-16493250D02*
G75*
G03*
X26975250Y-16493250I-35000J0D01*
G01*
X26975250Y-19999500D02*
G75*
G03*
X26975250Y-19999500I-35000J0D01*
G01*
X26975250Y-20779500D02*
G75*
G03*
X26975250Y-20779500I-35000J0D01*
G01*
X27451500Y-21904500D02*
G75*
G03*
X27451500Y-21904500I-35000J0D01*
G01*
X27451500Y-22684500D02*
G75*
G03*
X27451500Y-22684500I-35000J0D01*
G01*
X27927750Y-18094500D02*
G75*
G03*
X27927750Y-18094500I-35000J0D01*
G01*
X27927750Y-18874500D02*
G75*
G03*
X27927750Y-18874500I-35000J0D01*
G01*
X28404000Y-23809500D02*
G75*
G03*
X28404000Y-23809500I-35000J0D01*
G01*
X28404000Y-24589500D02*
G75*
G03*
X28404000Y-24589500I-35000J0D01*
G01*
X28880250Y-15713250D02*
G75*
G03*
X28880250Y-15713250I-35000J0D01*
G01*
X28880250Y-16493250D02*
G75*
G03*
X28880250Y-16493250I-35000J0D01*
G01*
X28880250Y-19999500D02*
G75*
G03*
X28880250Y-19999500I-35000J0D01*
G01*
X28880250Y-20779500D02*
G75*
G03*
X28880250Y-20779500I-35000J0D01*
G01*
X29356500Y-21904500D02*
G75*
G03*
X29356500Y-21904500I-35000J0D01*
G01*
X29356500Y-22684500D02*
G75*
G03*
X29356500Y-22684500I-35000J0D01*
G01*
X29832750Y-18094500D02*
G75*
G03*
X29832750Y-18094500I-35000J0D01*
G01*
X29832750Y-18874500D02*
G75*
G03*
X29832750Y-18874500I-35000J0D01*
G01*
X30309000Y-23809500D02*
G75*
G03*
X30309000Y-23809500I-35000J0D01*
G01*
X30309000Y-24589500D02*
G75*
G03*
X30309000Y-24589500I-35000J0D01*
G01*
X30785250Y-15713250D02*
G75*
G03*
X30785250Y-15713250I-35000J0D01*
G01*
X30785250Y-16493250D02*
G75*
G03*
X30785250Y-16493250I-35000J0D01*
G01*
X30785250Y-19999500D02*
G75*
G03*
X30785250Y-19999500I-35000J0D01*
G01*
X30785250Y-20779500D02*
G75*
G03*
X30785250Y-20779500I-35000J0D01*
G01*
X31261500Y-21904500D02*
G75*
G03*
X31261500Y-21904500I-35000J0D01*
G01*
X31261500Y-22684500D02*
G75*
G03*
X31261500Y-22684500I-35000J0D01*
G01*
X31737750Y-18094500D02*
G75*
G03*
X31737750Y-18094500I-35000J0D01*
G01*
X31737750Y-18874500D02*
G75*
G03*
X31737750Y-18874500I-35000J0D01*
G01*
X32214000Y-23809500D02*
G75*
G03*
X32214000Y-23809500I-35000J0D01*
G01*
X32214000Y-24589500D02*
G75*
G03*
X32214000Y-24589500I-35000J0D01*
G01*
X32690250Y-19999500D02*
G75*
G03*
X32690250Y-19999500I-35000J0D01*
G01*
X32690250Y-20779500D02*
G75*
G03*
X32690250Y-20779500I-35000J0D01*
G01*
X33166500Y-15713250D02*
G75*
G03*
X33166500Y-15713250I-35000J0D01*
G01*
X33166500Y-16493250D02*
G75*
G03*
X33166500Y-16493250I-35000J0D01*
G01*
X33166500Y-21904500D02*
G75*
G03*
X33166500Y-21904500I-35000J0D01*
G01*
X33166500Y-22684500D02*
G75*
G03*
X33166500Y-22684500I-35000J0D01*
G01*
X33642750Y-18094500D02*
G75*
G03*
X33642750Y-18094500I-35000J0D01*
G01*
X33642750Y-18874500D02*
G75*
G03*
X33642750Y-18874500I-35000J0D01*
G01*
X33642750Y-25714500D02*
G75*
G03*
X33642750Y-25714500I-35000J0D01*
G01*
X33642750Y-26494500D02*
G75*
G03*
X33642750Y-26494500I-35000J0D01*
G01*
X34119000Y-23809500D02*
G75*
G03*
X34119000Y-23809500I-35000J0D01*
G01*
X34119000Y-24589500D02*
G75*
G03*
X34119000Y-24589500I-35000J0D01*
G01*
X34595250Y-19999500D02*
G75*
G03*
X34595250Y-19999500I-35000J0D01*
G01*
X34595250Y-20779500D02*
G75*
G03*
X34595250Y-20779500I-35000J0D01*
G01*
X35071500Y-15713250D02*
G75*
G03*
X35071500Y-15713250I-35000J0D01*
G01*
X35071500Y-16493250D02*
G75*
G03*
X35071500Y-16493250I-35000J0D01*
G01*
X35071500Y-21904500D02*
G75*
G03*
X35071500Y-21904500I-35000J0D01*
G01*
X35071500Y-22684500D02*
G75*
G03*
X35071500Y-22684500I-35000J0D01*
G01*
X35547750Y-18094500D02*
G75*
G03*
X35547750Y-18094500I-35000J0D01*
G01*
X35547750Y-18874500D02*
G75*
G03*
X35547750Y-18874500I-35000J0D01*
G01*
X35547750Y-25714500D02*
G75*
G03*
X35547750Y-25714500I-35000J0D01*
G01*
X35547750Y-26494500D02*
G75*
G03*
X35547750Y-26494500I-35000J0D01*
G01*
X36024000Y-23809500D02*
G75*
G03*
X36024000Y-23809500I-35000J0D01*
G01*
X36024000Y-24589500D02*
G75*
G03*
X36024000Y-24589500I-35000J0D01*
G01*
X36500250Y-19999500D02*
G75*
G03*
X36500250Y-19999500I-35000J0D01*
G01*
X36500250Y-20779500D02*
G75*
G03*
X36500250Y-20779500I-35000J0D01*
G01*
X36976500Y-15713250D02*
G75*
G03*
X36976500Y-15713250I-35000J0D01*
G01*
X36976500Y-16493250D02*
G75*
G03*
X36976500Y-16493250I-35000J0D01*
G01*
X36976500Y-21904500D02*
G75*
G03*
X36976500Y-21904500I-35000J0D01*
G01*
X36976500Y-22684500D02*
G75*
G03*
X36976500Y-22684500I-35000J0D01*
G01*
X37452750Y-18094500D02*
G75*
G03*
X37452750Y-18094500I-35000J0D01*
G01*
X37452750Y-18874500D02*
G75*
G03*
X37452750Y-18874500I-35000J0D01*
G01*
X37452750Y-25714500D02*
G75*
G03*
X37452750Y-25714500I-35000J0D01*
G01*
X37452750Y-26494500D02*
G75*
G03*
X37452750Y-26494500I-35000J0D01*
G01*
X38405250Y-19999500D02*
G75*
G03*
X38405250Y-19999500I-35000J0D01*
G01*
X38405250Y-20779500D02*
G75*
G03*
X38405250Y-20779500I-35000J0D01*
G01*
X38764000Y-23836000D02*
G75*
G03*
X38764000Y-23836000I-35000J0D01*
G01*
X38764000Y-24616000D02*
G75*
G03*
X38764000Y-24616000I-35000J0D01*
G01*
X38881500Y-15713250D02*
G75*
G03*
X38881500Y-15713250I-35000J0D01*
G01*
X38881500Y-16493250D02*
G75*
G03*
X38881500Y-16493250I-35000J0D01*
G01*
X39834000Y-26190750D02*
G75*
G03*
X39834000Y-26190750I-35000J0D01*
G01*
X39834000Y-26970750D02*
G75*
G03*
X39834000Y-26970750I-35000J0D01*
G01*
X40209000Y-21913000D02*
G75*
G03*
X40209000Y-21913000I-35000J0D01*
G01*
X40209000Y-22693000D02*
G75*
G03*
X40209000Y-22693000I-35000J0D01*
G01*
X40455000Y-18097000D02*
G75*
G03*
X40455000Y-18097000I-35000J0D01*
G01*
X40455000Y-18877000D02*
G75*
G03*
X40455000Y-18877000I-35000J0D01*
G01*
X40786500Y-19999500D02*
G75*
G03*
X40786500Y-19999500I-35000J0D01*
G01*
X40786500Y-20779500D02*
G75*
G03*
X40786500Y-20779500I-35000J0D01*
G01*
X41262750Y-15713250D02*
G75*
G03*
X41262750Y-15713250I-35000J0D01*
G01*
X41262750Y-16493250D02*
G75*
G03*
X41262750Y-16493250I-35000J0D01*
G01*
X41739000Y-24285750D02*
G75*
G03*
X41739000Y-24285750I-35000J0D01*
G01*
X41739000Y-25065750D02*
G75*
G03*
X41739000Y-25065750I-35000J0D01*
G01*
X41739000Y-26190750D02*
G75*
G03*
X41739000Y-26190750I-35000J0D01*
G01*
X41739000Y-26970750D02*
G75*
G03*
X41739000Y-26970750I-35000J0D01*
G01*
X43644000Y-18094500D02*
G75*
G03*
X43644000Y-18094500I-35000J0D01*
G01*
X43644000Y-18874500D02*
G75*
G03*
X43644000Y-18874500I-35000J0D01*
G01*
X43644000Y-19999500D02*
G75*
G03*
X43644000Y-19999500I-35000J0D01*
G01*
X43644000Y-20779500D02*
G75*
G03*
X43644000Y-20779500I-35000J0D01*
G01*
X43644000Y-21904500D02*
G75*
G03*
X43644000Y-21904500I-35000J0D01*
G01*
X43644000Y-22684500D02*
G75*
G03*
X43644000Y-22684500I-35000J0D01*
G01*
X43644000Y-26190750D02*
G75*
G03*
X43644000Y-26190750I-35000J0D01*
G01*
X43644000Y-26970750D02*
G75*
G03*
X43644000Y-26970750I-35000J0D01*
G01*
D14*
X23414000Y-26360000D02*
X23414000Y-26460000D01*
X23364000Y-26410000D02*
X23464000Y-26410000D01*
X23575000Y-26761000D02*
X23575000Y-26861000D01*
X23525000Y-26811000D02*
X23625000Y-26811000D01*
X23668000Y-26360000D02*
X23668000Y-26460000D01*
X23618000Y-26410000D02*
X23718000Y-26410000D01*
X23829000Y-26761000D02*
X23829000Y-26861000D01*
X23779000Y-26811000D02*
X23879000Y-26811000D01*
X23922000Y-26360000D02*
X23922000Y-26460000D01*
X23872000Y-26410000D02*
X23972000Y-26410000D01*
X24083000Y-26761000D02*
X24083000Y-26861000D01*
X24033000Y-26811000D02*
X24133000Y-26811000D01*
X24176000Y-26360000D02*
X24176000Y-26460000D01*
X24126000Y-26410000D02*
X24226000Y-26410000D01*
X24337000Y-26761000D02*
X24337000Y-26861000D01*
X24287000Y-26811000D02*
X24387000Y-26811000D01*
X24430000Y-26360000D02*
X24430000Y-26460000D01*
X24380000Y-26410000D02*
X24480000Y-26410000D01*
X24591000Y-26761000D02*
X24591000Y-26861000D01*
X24541000Y-26811000D02*
X24641000Y-26811000D01*
X24684000Y-26360000D02*
X24684000Y-26460000D01*
X24634000Y-26410000D02*
X24734000Y-26410000D01*
X24845000Y-26761000D02*
X24845000Y-26861000D01*
X24795000Y-26811000D02*
X24895000Y-26811000D01*
X24938000Y-26360000D02*
X24938000Y-26460000D01*
X24888000Y-26410000D02*
X24988000Y-26410000D01*
X25192000Y-26360000D02*
X25192000Y-26460000D01*
X25142000Y-26410000D02*
X25242000Y-26410000D01*
X25446000Y-26360000D02*
X25446000Y-26460000D01*
X25396000Y-26410000D02*
X25496000Y-26410000D01*
X25700000Y-26360000D02*
X25700000Y-26460000D01*
X25650000Y-26410000D02*
X25750000Y-26410000D01*
X25954000Y-26360000D02*
X25954000Y-26460000D01*
X25904000Y-26410000D02*
X26004000Y-26410000D01*
X26208000Y-26360000D02*
X26208000Y-26460000D01*
X26158000Y-26410000D02*
X26258000Y-26410000D01*
X28993000Y-26346000D02*
X28993000Y-26446000D01*
X28943000Y-26396000D02*
X29043000Y-26396000D01*
X29247000Y-26346000D02*
X29247000Y-26446000D01*
X29197000Y-26396000D02*
X29297000Y-26396000D01*
X29501000Y-26346000D02*
X29501000Y-26446000D01*
X29451000Y-26396000D02*
X29551000Y-26396000D01*
X29755000Y-26346000D02*
X29755000Y-26446000D01*
X29705000Y-26396000D02*
X29805000Y-26396000D01*
X30009000Y-26346000D02*
X30009000Y-26446000D01*
X29959000Y-26396000D02*
X30059000Y-26396000D01*
X43778000Y-15505000D02*
X43778000Y-15605000D01*
X43728000Y-15555000D02*
X43828000Y-15555000D01*
X43778000Y-15755000D02*
X43778000Y-15855000D01*
X43728000Y-15805000D02*
X43828000Y-15805000D01*
X43778000Y-16005000D02*
X43778000Y-16105000D01*
X43728000Y-16055000D02*
X43828000Y-16055000D01*
X45228000Y-15505000D02*
X45228000Y-15605000D01*
X45178000Y-15555000D02*
X45278000Y-15555000D01*
X45228000Y-16005000D02*
X45228000Y-16105000D01*
X45178000Y-16055000D02*
X45278000Y-16055000D01*
D15*
X16569262Y-24449967D02*
X16569262Y-24365113D01*
X16484408Y-24365113D01*
X16484408Y-24449967D01*
X16569262Y-24449967D01*
X16825802Y-24449967D02*
X16825802Y-24365113D01*
X16740948Y-24365113D01*
X16740948Y-24449967D01*
X16825802Y-24449967D01*
X39423917Y-24455787D02*
X39423917Y-24370933D01*
X39339063Y-24370933D01*
X39339063Y-24455787D01*
X39423917Y-24455787D01*
X39680457Y-24455787D02*
X39680457Y-24370933D01*
X39595603Y-24370933D01*
X39595603Y-24455787D01*
X39680457Y-24455787D01*
X40858012Y-22544967D02*
X40858012Y-22460113D01*
X40773158Y-22460113D01*
X40773158Y-22544967D01*
X40858012Y-22544967D01*
X41096137Y-18734967D02*
X41096137Y-18650113D01*
X41011283Y-18650113D01*
X41011283Y-18734967D01*
X41096137Y-18734967D01*
X41114552Y-22544967D02*
X41114552Y-22460113D01*
X41029698Y-22460113D01*
X41029698Y-22544967D01*
X41114552Y-22544967D01*
X41352677Y-18734967D02*
X41352677Y-18650113D01*
X41267823Y-18650113D01*
X41267823Y-18734967D01*
X41352677Y-18734967D01*
D16*
X44706000Y-16898000D02*
X44776000Y-16828000D01*
X44706000Y-16758000D01*
X44636000Y-16828000D01*
X44706000Y-16898000D01*
X45214000Y-16898000D02*
X45284000Y-16828000D01*
X45214000Y-16758000D01*
X45144000Y-16828000D01*
X45214000Y-16898000D01*
D17*
X44453000Y-15170000D02*
X44603000Y-15320000D01*
X44603000Y-15170000D02*
X44453000Y-15320000D01*
X44603000Y-15245000D02*
G75*
G03*
X44603000Y-15245000I-75000J0D01*
G01*
D10*
X44463000Y-15320000D02*
X44593000Y-15320000D01*
X44593000Y-15320000D02*
G75*
G03*
X44593000Y-15170000I0J75000D01*
G01*
X44593000Y-15170000D02*
X44463000Y-15170000D01*
X44463000Y-15170000D02*
G75*
G03*
X44463000Y-15320000I0J-75000D01*
G01*
D17*
X44453000Y-16290000D02*
X44603000Y-16440000D01*
X44603000Y-16290000D02*
X44453000Y-16440000D01*
X44603000Y-16365000D02*
G75*
G03*
X44603000Y-16365000I-75000J0D01*
G01*
D10*
X44463000Y-16440000D02*
X44593000Y-16440000D01*
X44593000Y-16440000D02*
G75*
G03*
X44593000Y-16290000I0J75000D01*
G01*
X44593000Y-16290000D02*
X44463000Y-16290000D01*
X44463000Y-16290000D02*
G75*
G03*
X44463000Y-16440000I0J-75000D01*
G01*
X14250869Y-28053274D02*
X14250869Y-27853274D01*
X14250869Y-27853274D02*
X14298488Y-27853274D01*
X14298488Y-27853274D02*
X14327059Y-27862798D01*
X14327059Y-27862798D02*
X14346107Y-27881845D01*
X14346107Y-27881845D02*
X14355631Y-27900893D01*
X14355631Y-27900893D02*
X14365155Y-27938988D01*
X14365155Y-27938988D02*
X14365155Y-27967560D01*
X14365155Y-27967560D02*
X14355631Y-28005655D01*
X14355631Y-28005655D02*
X14346107Y-28024702D01*
X14346107Y-28024702D02*
X14327059Y-28043750D01*
X14327059Y-28043750D02*
X14298488Y-28053274D01*
X14298488Y-28053274D02*
X14250869Y-28053274D01*
X14450869Y-28053274D02*
X14450869Y-27919940D01*
X14450869Y-27958036D02*
X14460393Y-27938988D01*
X14460393Y-27938988D02*
X14469916Y-27929464D01*
X14469916Y-27929464D02*
X14488964Y-27919940D01*
X14488964Y-27919940D02*
X14508012Y-27919940D01*
X14574678Y-28053274D02*
X14574678Y-27919940D01*
X14574678Y-27853274D02*
X14565155Y-27862798D01*
X14565155Y-27862798D02*
X14574678Y-27872321D01*
X14574678Y-27872321D02*
X14584202Y-27862798D01*
X14584202Y-27862798D02*
X14574678Y-27853274D01*
X14574678Y-27853274D02*
X14574678Y-27872321D01*
X14698488Y-28053274D02*
X14679440Y-28043750D01*
X14679440Y-28043750D02*
X14669916Y-28024702D01*
X14669916Y-28024702D02*
X14669916Y-27853274D01*
X14803250Y-28053274D02*
X14784202Y-28043750D01*
X14784202Y-28043750D02*
X14774678Y-28024702D01*
X14774678Y-28024702D02*
X14774678Y-27853274D01*
X15031821Y-28053274D02*
X15031821Y-27853274D01*
X15031821Y-27853274D02*
X15098488Y-27996131D01*
X15098488Y-27996131D02*
X15165155Y-27853274D01*
X15165155Y-27853274D02*
X15165155Y-28053274D01*
X15346107Y-28053274D02*
X15346107Y-27948512D01*
X15346107Y-27948512D02*
X15336583Y-27929464D01*
X15336583Y-27929464D02*
X15317536Y-27919940D01*
X15317536Y-27919940D02*
X15279440Y-27919940D01*
X15279440Y-27919940D02*
X15260393Y-27929464D01*
X15346107Y-28043750D02*
X15327059Y-28053274D01*
X15327059Y-28053274D02*
X15279440Y-28053274D01*
X15279440Y-28053274D02*
X15260393Y-28043750D01*
X15260393Y-28043750D02*
X15250869Y-28024702D01*
X15250869Y-28024702D02*
X15250869Y-28005655D01*
X15250869Y-28005655D02*
X15260393Y-27986607D01*
X15260393Y-27986607D02*
X15279440Y-27977083D01*
X15279440Y-27977083D02*
X15327059Y-27977083D01*
X15327059Y-27977083D02*
X15346107Y-27967560D01*
X15441345Y-27919940D02*
X15441345Y-28119940D01*
X15441345Y-27929464D02*
X15460393Y-27919940D01*
X15460393Y-27919940D02*
X15498488Y-27919940D01*
X15498488Y-27919940D02*
X15517536Y-27929464D01*
X15517536Y-27929464D02*
X15527059Y-27938988D01*
X15527059Y-27938988D02*
X15536583Y-27958036D01*
X15536583Y-27958036D02*
X15536583Y-28015179D01*
X15536583Y-28015179D02*
X15527059Y-28034226D01*
X15527059Y-28034226D02*
X15517536Y-28043750D01*
X15517536Y-28043750D02*
X15498488Y-28053274D01*
X15498488Y-28053274D02*
X15460393Y-28053274D01*
X15460393Y-28053274D02*
X15441345Y-28043750D01*
X15622297Y-28034226D02*
X15631821Y-28043750D01*
X15631821Y-28043750D02*
X15622297Y-28053274D01*
X15622297Y-28053274D02*
X15612774Y-28043750D01*
X15612774Y-28043750D02*
X15622297Y-28034226D01*
X15622297Y-28034226D02*
X15622297Y-28053274D01*
X15622297Y-27929464D02*
X15631821Y-27938988D01*
X15631821Y-27938988D02*
X15622297Y-27948512D01*
X15622297Y-27948512D02*
X15612774Y-27938988D01*
X15612774Y-27938988D02*
X15622297Y-27929464D01*
X15622297Y-27929464D02*
X15622297Y-27948512D01*
D12*
X13973250Y-28365750D02*
X14003250Y-28395750D01*
X14003250Y-28365750D02*
X13973250Y-28395750D01*
D10*
X14288964Y-28273274D02*
X14308012Y-28273274D01*
X14308012Y-28273274D02*
X14327059Y-28282798D01*
X14327059Y-28282798D02*
X14336583Y-28292321D01*
X14336583Y-28292321D02*
X14346107Y-28311369D01*
X14346107Y-28311369D02*
X14355631Y-28349464D01*
X14355631Y-28349464D02*
X14355631Y-28397083D01*
X14355631Y-28397083D02*
X14346107Y-28435179D01*
X14346107Y-28435179D02*
X14336583Y-28454226D01*
X14336583Y-28454226D02*
X14327059Y-28463750D01*
X14327059Y-28463750D02*
X14308012Y-28473274D01*
X14308012Y-28473274D02*
X14288964Y-28473274D01*
X14288964Y-28473274D02*
X14269916Y-28463750D01*
X14269916Y-28463750D02*
X14260393Y-28454226D01*
X14260393Y-28454226D02*
X14250869Y-28435179D01*
X14250869Y-28435179D02*
X14241345Y-28397083D01*
X14241345Y-28397083D02*
X14241345Y-28349464D01*
X14241345Y-28349464D02*
X14250869Y-28311369D01*
X14250869Y-28311369D02*
X14260393Y-28292321D01*
X14260393Y-28292321D02*
X14269916Y-28282798D01*
X14269916Y-28282798D02*
X14288964Y-28273274D01*
X14441345Y-28454226D02*
X14450869Y-28463750D01*
X14450869Y-28463750D02*
X14441345Y-28473274D01*
X14441345Y-28473274D02*
X14431821Y-28463750D01*
X14431821Y-28463750D02*
X14441345Y-28454226D01*
X14441345Y-28454226D02*
X14441345Y-28473274D01*
X14517536Y-28273274D02*
X14641345Y-28273274D01*
X14641345Y-28273274D02*
X14574678Y-28349464D01*
X14574678Y-28349464D02*
X14603250Y-28349464D01*
X14603250Y-28349464D02*
X14622297Y-28358988D01*
X14622297Y-28358988D02*
X14631821Y-28368512D01*
X14631821Y-28368512D02*
X14641345Y-28387560D01*
X14641345Y-28387560D02*
X14641345Y-28435179D01*
X14641345Y-28435179D02*
X14631821Y-28454226D01*
X14631821Y-28454226D02*
X14622297Y-28463750D01*
X14622297Y-28463750D02*
X14603250Y-28473274D01*
X14603250Y-28473274D02*
X14546107Y-28473274D01*
X14546107Y-28473274D02*
X14527059Y-28463750D01*
X14527059Y-28463750D02*
X14517536Y-28454226D01*
X14765155Y-28273274D02*
X14784202Y-28273274D01*
X14784202Y-28273274D02*
X14803250Y-28282798D01*
X14803250Y-28282798D02*
X14812774Y-28292321D01*
X14812774Y-28292321D02*
X14822297Y-28311369D01*
X14822297Y-28311369D02*
X14831821Y-28349464D01*
X14831821Y-28349464D02*
X14831821Y-28397083D01*
X14831821Y-28397083D02*
X14822297Y-28435179D01*
X14822297Y-28435179D02*
X14812774Y-28454226D01*
X14812774Y-28454226D02*
X14803250Y-28463750D01*
X14803250Y-28463750D02*
X14784202Y-28473274D01*
X14784202Y-28473274D02*
X14765155Y-28473274D01*
X14765155Y-28473274D02*
X14746107Y-28463750D01*
X14746107Y-28463750D02*
X14736583Y-28454226D01*
X14736583Y-28454226D02*
X14727059Y-28435179D01*
X14727059Y-28435179D02*
X14717536Y-28397083D01*
X14717536Y-28397083D02*
X14717536Y-28349464D01*
X14717536Y-28349464D02*
X14727059Y-28311369D01*
X14727059Y-28311369D02*
X14736583Y-28292321D01*
X14736583Y-28292321D02*
X14746107Y-28282798D01*
X14746107Y-28282798D02*
X14765155Y-28273274D01*
X14955631Y-28273274D02*
X14974678Y-28273274D01*
X14974678Y-28273274D02*
X14993726Y-28282798D01*
X14993726Y-28282798D02*
X15003250Y-28292321D01*
X15003250Y-28292321D02*
X15012774Y-28311369D01*
X15012774Y-28311369D02*
X15022297Y-28349464D01*
X15022297Y-28349464D02*
X15022297Y-28397083D01*
X15022297Y-28397083D02*
X15012774Y-28435179D01*
X15012774Y-28435179D02*
X15003250Y-28454226D01*
X15003250Y-28454226D02*
X14993726Y-28463750D01*
X14993726Y-28463750D02*
X14974678Y-28473274D01*
X14974678Y-28473274D02*
X14955631Y-28473274D01*
X14955631Y-28473274D02*
X14936583Y-28463750D01*
X14936583Y-28463750D02*
X14927059Y-28454226D01*
X14927059Y-28454226D02*
X14917536Y-28435179D01*
X14917536Y-28435179D02*
X14908012Y-28397083D01*
X14908012Y-28397083D02*
X14908012Y-28349464D01*
X14908012Y-28349464D02*
X14917536Y-28311369D01*
X14917536Y-28311369D02*
X14927059Y-28292321D01*
X14927059Y-28292321D02*
X14936583Y-28282798D01*
X14936583Y-28282798D02*
X14955631Y-28273274D01*
X15108012Y-28473274D02*
X15108012Y-28339940D01*
X15108012Y-28358988D02*
X15117536Y-28349464D01*
X15117536Y-28349464D02*
X15136583Y-28339940D01*
X15136583Y-28339940D02*
X15165155Y-28339940D01*
X15165155Y-28339940D02*
X15184202Y-28349464D01*
X15184202Y-28349464D02*
X15193726Y-28368512D01*
X15193726Y-28368512D02*
X15193726Y-28473274D01*
X15193726Y-28368512D02*
X15203250Y-28349464D01*
X15203250Y-28349464D02*
X15222297Y-28339940D01*
X15222297Y-28339940D02*
X15250869Y-28339940D01*
X15250869Y-28339940D02*
X15269917Y-28349464D01*
X15269917Y-28349464D02*
X15279440Y-28368512D01*
X15279440Y-28368512D02*
X15279440Y-28473274D01*
X15374678Y-28473274D02*
X15374678Y-28339940D01*
X15374678Y-28358988D02*
X15384202Y-28349464D01*
X15384202Y-28349464D02*
X15403250Y-28339940D01*
X15403250Y-28339940D02*
X15431821Y-28339940D01*
X15431821Y-28339940D02*
X15450869Y-28349464D01*
X15450869Y-28349464D02*
X15460393Y-28368512D01*
X15460393Y-28368512D02*
X15460393Y-28473274D01*
X15460393Y-28368512D02*
X15469917Y-28349464D01*
X15469917Y-28349464D02*
X15488964Y-28339940D01*
X15488964Y-28339940D02*
X15517536Y-28339940D01*
X15517536Y-28339940D02*
X15536583Y-28349464D01*
X15536583Y-28349464D02*
X15546107Y-28368512D01*
X15546107Y-28368512D02*
X15546107Y-28473274D01*
X15936583Y-28263750D02*
X15765155Y-28520893D01*
X16193726Y-28273274D02*
X16212774Y-28273274D01*
X16212774Y-28273274D02*
X16231821Y-28282798D01*
X16231821Y-28282798D02*
X16241345Y-28292321D01*
X16241345Y-28292321D02*
X16250869Y-28311369D01*
X16250869Y-28311369D02*
X16260393Y-28349464D01*
X16260393Y-28349464D02*
X16260393Y-28397083D01*
X16260393Y-28397083D02*
X16250869Y-28435179D01*
X16250869Y-28435179D02*
X16241345Y-28454226D01*
X16241345Y-28454226D02*
X16231821Y-28463750D01*
X16231821Y-28463750D02*
X16212774Y-28473274D01*
X16212774Y-28473274D02*
X16193726Y-28473274D01*
X16193726Y-28473274D02*
X16174679Y-28463750D01*
X16174679Y-28463750D02*
X16165155Y-28454226D01*
X16165155Y-28454226D02*
X16155631Y-28435179D01*
X16155631Y-28435179D02*
X16146107Y-28397083D01*
X16146107Y-28397083D02*
X16146107Y-28349464D01*
X16146107Y-28349464D02*
X16155631Y-28311369D01*
X16155631Y-28311369D02*
X16165155Y-28292321D01*
X16165155Y-28292321D02*
X16174679Y-28282798D01*
X16174679Y-28282798D02*
X16193726Y-28273274D01*
X16346107Y-28454226D02*
X16355631Y-28463750D01*
X16355631Y-28463750D02*
X16346107Y-28473274D01*
X16346107Y-28473274D02*
X16336583Y-28463750D01*
X16336583Y-28463750D02*
X16346107Y-28454226D01*
X16346107Y-28454226D02*
X16346107Y-28473274D01*
X16479440Y-28273274D02*
X16498488Y-28273274D01*
X16498488Y-28273274D02*
X16517536Y-28282798D01*
X16517536Y-28282798D02*
X16527060Y-28292321D01*
X16527060Y-28292321D02*
X16536583Y-28311369D01*
X16536583Y-28311369D02*
X16546107Y-28349464D01*
X16546107Y-28349464D02*
X16546107Y-28397083D01*
X16546107Y-28397083D02*
X16536583Y-28435179D01*
X16536583Y-28435179D02*
X16527060Y-28454226D01*
X16527060Y-28454226D02*
X16517536Y-28463750D01*
X16517536Y-28463750D02*
X16498488Y-28473274D01*
X16498488Y-28473274D02*
X16479440Y-28473274D01*
X16479440Y-28473274D02*
X16460393Y-28463750D01*
X16460393Y-28463750D02*
X16450869Y-28454226D01*
X16450869Y-28454226D02*
X16441345Y-28435179D01*
X16441345Y-28435179D02*
X16431821Y-28397083D01*
X16431821Y-28397083D02*
X16431821Y-28349464D01*
X16431821Y-28349464D02*
X16441345Y-28311369D01*
X16441345Y-28311369D02*
X16450869Y-28292321D01*
X16450869Y-28292321D02*
X16460393Y-28282798D01*
X16460393Y-28282798D02*
X16479440Y-28273274D01*
X16736583Y-28473274D02*
X16622298Y-28473274D01*
X16679440Y-28473274D02*
X16679440Y-28273274D01*
X16679440Y-28273274D02*
X16660393Y-28301845D01*
X16660393Y-28301845D02*
X16641345Y-28320893D01*
X16641345Y-28320893D02*
X16622298Y-28330417D01*
X16927060Y-28473274D02*
X16812774Y-28473274D01*
X16869917Y-28473274D02*
X16869917Y-28273274D01*
X16869917Y-28273274D02*
X16850869Y-28301845D01*
X16850869Y-28301845D02*
X16831822Y-28320893D01*
X16831822Y-28320893D02*
X16812774Y-28330417D01*
X17041345Y-28358988D02*
X17022298Y-28349464D01*
X17022298Y-28349464D02*
X17012774Y-28339940D01*
X17012774Y-28339940D02*
X17003250Y-28320893D01*
X17003250Y-28320893D02*
X17003250Y-28311369D01*
X17003250Y-28311369D02*
X17012774Y-28292321D01*
X17012774Y-28292321D02*
X17022298Y-28282798D01*
X17022298Y-28282798D02*
X17041345Y-28273274D01*
X17041345Y-28273274D02*
X17079441Y-28273274D01*
X17079441Y-28273274D02*
X17098488Y-28282798D01*
X17098488Y-28282798D02*
X17108012Y-28292321D01*
X17108012Y-28292321D02*
X17117536Y-28311369D01*
X17117536Y-28311369D02*
X17117536Y-28320893D01*
X17117536Y-28320893D02*
X17108012Y-28339940D01*
X17108012Y-28339940D02*
X17098488Y-28349464D01*
X17098488Y-28349464D02*
X17079441Y-28358988D01*
X17079441Y-28358988D02*
X17041345Y-28358988D01*
X17041345Y-28358988D02*
X17022298Y-28368512D01*
X17022298Y-28368512D02*
X17012774Y-28378036D01*
X17012774Y-28378036D02*
X17003250Y-28397083D01*
X17003250Y-28397083D02*
X17003250Y-28435179D01*
X17003250Y-28435179D02*
X17012774Y-28454226D01*
X17012774Y-28454226D02*
X17022298Y-28463750D01*
X17022298Y-28463750D02*
X17041345Y-28473274D01*
X17041345Y-28473274D02*
X17079441Y-28473274D01*
X17079441Y-28473274D02*
X17098488Y-28463750D01*
X17098488Y-28463750D02*
X17108012Y-28454226D01*
X17108012Y-28454226D02*
X17117536Y-28435179D01*
X17117536Y-28435179D02*
X17117536Y-28397083D01*
X17117536Y-28397083D02*
X17108012Y-28378036D01*
X17108012Y-28378036D02*
X17098488Y-28368512D01*
X17098488Y-28368512D02*
X17079441Y-28358988D01*
X17193726Y-28273274D02*
X17193726Y-28311369D01*
X17269917Y-28273274D02*
X17269917Y-28311369D01*
X17565155Y-28549464D02*
X17555631Y-28539940D01*
X17555631Y-28539940D02*
X17536584Y-28511369D01*
X17536584Y-28511369D02*
X17527060Y-28492321D01*
X17527060Y-28492321D02*
X17517536Y-28463750D01*
X17517536Y-28463750D02*
X17508012Y-28416131D01*
X17508012Y-28416131D02*
X17508012Y-28378036D01*
X17508012Y-28378036D02*
X17517536Y-28330417D01*
X17517536Y-28330417D02*
X17527060Y-28301845D01*
X17527060Y-28301845D02*
X17536584Y-28282798D01*
X17536584Y-28282798D02*
X17555631Y-28254226D01*
X17555631Y-28254226D02*
X17565155Y-28244702D01*
X17746107Y-28473274D02*
X17631822Y-28473274D01*
X17688964Y-28473274D02*
X17688964Y-28273274D01*
X17688964Y-28273274D02*
X17669917Y-28301845D01*
X17669917Y-28301845D02*
X17650869Y-28320893D01*
X17650869Y-28320893D02*
X17631822Y-28330417D01*
X17869917Y-28273274D02*
X17888965Y-28273274D01*
X17888965Y-28273274D02*
X17908012Y-28282798D01*
X17908012Y-28282798D02*
X17917536Y-28292321D01*
X17917536Y-28292321D02*
X17927060Y-28311369D01*
X17927060Y-28311369D02*
X17936584Y-28349464D01*
X17936584Y-28349464D02*
X17936584Y-28397083D01*
X17936584Y-28397083D02*
X17927060Y-28435179D01*
X17927060Y-28435179D02*
X17917536Y-28454226D01*
X17917536Y-28454226D02*
X17908012Y-28463750D01*
X17908012Y-28463750D02*
X17888965Y-28473274D01*
X17888965Y-28473274D02*
X17869917Y-28473274D01*
X17869917Y-28473274D02*
X17850869Y-28463750D01*
X17850869Y-28463750D02*
X17841345Y-28454226D01*
X17841345Y-28454226D02*
X17831822Y-28435179D01*
X17831822Y-28435179D02*
X17822298Y-28397083D01*
X17822298Y-28397083D02*
X17822298Y-28349464D01*
X17822298Y-28349464D02*
X17831822Y-28311369D01*
X17831822Y-28311369D02*
X17841345Y-28292321D01*
X17841345Y-28292321D02*
X17850869Y-28282798D01*
X17850869Y-28282798D02*
X17869917Y-28273274D01*
X18174679Y-28473274D02*
X18174679Y-28273274D01*
X18260393Y-28473274D02*
X18260393Y-28368512D01*
X18260393Y-28368512D02*
X18250869Y-28349464D01*
X18250869Y-28349464D02*
X18231822Y-28339940D01*
X18231822Y-28339940D02*
X18203250Y-28339940D01*
X18203250Y-28339940D02*
X18184203Y-28349464D01*
X18184203Y-28349464D02*
X18174679Y-28358988D01*
X18384203Y-28473274D02*
X18365155Y-28463750D01*
X18365155Y-28463750D02*
X18355631Y-28454226D01*
X18355631Y-28454226D02*
X18346107Y-28435179D01*
X18346107Y-28435179D02*
X18346107Y-28378036D01*
X18346107Y-28378036D02*
X18355631Y-28358988D01*
X18355631Y-28358988D02*
X18365155Y-28349464D01*
X18365155Y-28349464D02*
X18384203Y-28339940D01*
X18384203Y-28339940D02*
X18412774Y-28339940D01*
X18412774Y-28339940D02*
X18431822Y-28349464D01*
X18431822Y-28349464D02*
X18441346Y-28358988D01*
X18441346Y-28358988D02*
X18450869Y-28378036D01*
X18450869Y-28378036D02*
X18450869Y-28435179D01*
X18450869Y-28435179D02*
X18441346Y-28454226D01*
X18441346Y-28454226D02*
X18431822Y-28463750D01*
X18431822Y-28463750D02*
X18412774Y-28473274D01*
X18412774Y-28473274D02*
X18384203Y-28473274D01*
X18565155Y-28473274D02*
X18546107Y-28463750D01*
X18546107Y-28463750D02*
X18536584Y-28444702D01*
X18536584Y-28444702D02*
X18536584Y-28273274D01*
X18717536Y-28463750D02*
X18698488Y-28473274D01*
X18698488Y-28473274D02*
X18660393Y-28473274D01*
X18660393Y-28473274D02*
X18641346Y-28463750D01*
X18641346Y-28463750D02*
X18631822Y-28444702D01*
X18631822Y-28444702D02*
X18631822Y-28368512D01*
X18631822Y-28368512D02*
X18641346Y-28349464D01*
X18641346Y-28349464D02*
X18660393Y-28339940D01*
X18660393Y-28339940D02*
X18698488Y-28339940D01*
X18698488Y-28339940D02*
X18717536Y-28349464D01*
X18717536Y-28349464D02*
X18727060Y-28368512D01*
X18727060Y-28368512D02*
X18727060Y-28387560D01*
X18727060Y-28387560D02*
X18631822Y-28406607D01*
X18803250Y-28463750D02*
X18822298Y-28473274D01*
X18822298Y-28473274D02*
X18860393Y-28473274D01*
X18860393Y-28473274D02*
X18879441Y-28463750D01*
X18879441Y-28463750D02*
X18888965Y-28444702D01*
X18888965Y-28444702D02*
X18888965Y-28435179D01*
X18888965Y-28435179D02*
X18879441Y-28416131D01*
X18879441Y-28416131D02*
X18860393Y-28406607D01*
X18860393Y-28406607D02*
X18831822Y-28406607D01*
X18831822Y-28406607D02*
X18812774Y-28397083D01*
X18812774Y-28397083D02*
X18803250Y-28378036D01*
X18803250Y-28378036D02*
X18803250Y-28368512D01*
X18803250Y-28368512D02*
X18812774Y-28349464D01*
X18812774Y-28349464D02*
X18831822Y-28339940D01*
X18831822Y-28339940D02*
X18860393Y-28339940D01*
X18860393Y-28339940D02*
X18879441Y-28349464D01*
X18955631Y-28549464D02*
X18965155Y-28539940D01*
X18965155Y-28539940D02*
X18984203Y-28511369D01*
X18984203Y-28511369D02*
X18993727Y-28492321D01*
X18993727Y-28492321D02*
X19003250Y-28463750D01*
X19003250Y-28463750D02*
X19012774Y-28416131D01*
X19012774Y-28416131D02*
X19012774Y-28378036D01*
X19012774Y-28378036D02*
X19003250Y-28330417D01*
X19003250Y-28330417D02*
X18993727Y-28301845D01*
X18993727Y-28301845D02*
X18984203Y-28282798D01*
X18984203Y-28282798D02*
X18965155Y-28254226D01*
X18965155Y-28254226D02*
X18955631Y-28244702D01*
D13*
X14003250Y-28644750D02*
G75*
G03*
X14003250Y-28644750I-35000J0D01*
G01*
D10*
X14288964Y-28537274D02*
X14308012Y-28537274D01*
X14308012Y-28537274D02*
X14327059Y-28546798D01*
X14327059Y-28546798D02*
X14336583Y-28556321D01*
X14336583Y-28556321D02*
X14346107Y-28575369D01*
X14346107Y-28575369D02*
X14355631Y-28613464D01*
X14355631Y-28613464D02*
X14355631Y-28661083D01*
X14355631Y-28661083D02*
X14346107Y-28699179D01*
X14346107Y-28699179D02*
X14336583Y-28718226D01*
X14336583Y-28718226D02*
X14327059Y-28727750D01*
X14327059Y-28727750D02*
X14308012Y-28737274D01*
X14308012Y-28737274D02*
X14288964Y-28737274D01*
X14288964Y-28737274D02*
X14269916Y-28727750D01*
X14269916Y-28727750D02*
X14260393Y-28718226D01*
X14260393Y-28718226D02*
X14250869Y-28699179D01*
X14250869Y-28699179D02*
X14241345Y-28661083D01*
X14241345Y-28661083D02*
X14241345Y-28613464D01*
X14241345Y-28613464D02*
X14250869Y-28575369D01*
X14250869Y-28575369D02*
X14260393Y-28556321D01*
X14260393Y-28556321D02*
X14269916Y-28546798D01*
X14269916Y-28546798D02*
X14288964Y-28537274D01*
X14441345Y-28718226D02*
X14450869Y-28727750D01*
X14450869Y-28727750D02*
X14441345Y-28737274D01*
X14441345Y-28737274D02*
X14431821Y-28727750D01*
X14431821Y-28727750D02*
X14441345Y-28718226D01*
X14441345Y-28718226D02*
X14441345Y-28737274D01*
X14517536Y-28537274D02*
X14650869Y-28537274D01*
X14650869Y-28537274D02*
X14565155Y-28737274D01*
X14765155Y-28537274D02*
X14784202Y-28537274D01*
X14784202Y-28537274D02*
X14803250Y-28546798D01*
X14803250Y-28546798D02*
X14812774Y-28556321D01*
X14812774Y-28556321D02*
X14822297Y-28575369D01*
X14822297Y-28575369D02*
X14831821Y-28613464D01*
X14831821Y-28613464D02*
X14831821Y-28661083D01*
X14831821Y-28661083D02*
X14822297Y-28699179D01*
X14822297Y-28699179D02*
X14812774Y-28718226D01*
X14812774Y-28718226D02*
X14803250Y-28727750D01*
X14803250Y-28727750D02*
X14784202Y-28737274D01*
X14784202Y-28737274D02*
X14765155Y-28737274D01*
X14765155Y-28737274D02*
X14746107Y-28727750D01*
X14746107Y-28727750D02*
X14736583Y-28718226D01*
X14736583Y-28718226D02*
X14727059Y-28699179D01*
X14727059Y-28699179D02*
X14717536Y-28661083D01*
X14717536Y-28661083D02*
X14717536Y-28613464D01*
X14717536Y-28613464D02*
X14727059Y-28575369D01*
X14727059Y-28575369D02*
X14736583Y-28556321D01*
X14736583Y-28556321D02*
X14746107Y-28546798D01*
X14746107Y-28546798D02*
X14765155Y-28537274D01*
X14955631Y-28537274D02*
X14974678Y-28537274D01*
X14974678Y-28537274D02*
X14993726Y-28546798D01*
X14993726Y-28546798D02*
X15003250Y-28556321D01*
X15003250Y-28556321D02*
X15012774Y-28575369D01*
X15012774Y-28575369D02*
X15022297Y-28613464D01*
X15022297Y-28613464D02*
X15022297Y-28661083D01*
X15022297Y-28661083D02*
X15012774Y-28699179D01*
X15012774Y-28699179D02*
X15003250Y-28718226D01*
X15003250Y-28718226D02*
X14993726Y-28727750D01*
X14993726Y-28727750D02*
X14974678Y-28737274D01*
X14974678Y-28737274D02*
X14955631Y-28737274D01*
X14955631Y-28737274D02*
X14936583Y-28727750D01*
X14936583Y-28727750D02*
X14927059Y-28718226D01*
X14927059Y-28718226D02*
X14917536Y-28699179D01*
X14917536Y-28699179D02*
X14908012Y-28661083D01*
X14908012Y-28661083D02*
X14908012Y-28613464D01*
X14908012Y-28613464D02*
X14917536Y-28575369D01*
X14917536Y-28575369D02*
X14927059Y-28556321D01*
X14927059Y-28556321D02*
X14936583Y-28546798D01*
X14936583Y-28546798D02*
X14955631Y-28537274D01*
X15108012Y-28737274D02*
X15108012Y-28603940D01*
X15108012Y-28622988D02*
X15117536Y-28613464D01*
X15117536Y-28613464D02*
X15136583Y-28603940D01*
X15136583Y-28603940D02*
X15165155Y-28603940D01*
X15165155Y-28603940D02*
X15184202Y-28613464D01*
X15184202Y-28613464D02*
X15193726Y-28632512D01*
X15193726Y-28632512D02*
X15193726Y-28737274D01*
X15193726Y-28632512D02*
X15203250Y-28613464D01*
X15203250Y-28613464D02*
X15222297Y-28603940D01*
X15222297Y-28603940D02*
X15250869Y-28603940D01*
X15250869Y-28603940D02*
X15269917Y-28613464D01*
X15269917Y-28613464D02*
X15279440Y-28632512D01*
X15279440Y-28632512D02*
X15279440Y-28737274D01*
X15374678Y-28737274D02*
X15374678Y-28603940D01*
X15374678Y-28622988D02*
X15384202Y-28613464D01*
X15384202Y-28613464D02*
X15403250Y-28603940D01*
X15403250Y-28603940D02*
X15431821Y-28603940D01*
X15431821Y-28603940D02*
X15450869Y-28613464D01*
X15450869Y-28613464D02*
X15460393Y-28632512D01*
X15460393Y-28632512D02*
X15460393Y-28737274D01*
X15460393Y-28632512D02*
X15469917Y-28613464D01*
X15469917Y-28613464D02*
X15488964Y-28603940D01*
X15488964Y-28603940D02*
X15517536Y-28603940D01*
X15517536Y-28603940D02*
X15536583Y-28613464D01*
X15536583Y-28613464D02*
X15546107Y-28632512D01*
X15546107Y-28632512D02*
X15546107Y-28737274D01*
X15936583Y-28527750D02*
X15765155Y-28784893D01*
X16193726Y-28537274D02*
X16212774Y-28537274D01*
X16212774Y-28537274D02*
X16231821Y-28546798D01*
X16231821Y-28546798D02*
X16241345Y-28556321D01*
X16241345Y-28556321D02*
X16250869Y-28575369D01*
X16250869Y-28575369D02*
X16260393Y-28613464D01*
X16260393Y-28613464D02*
X16260393Y-28661083D01*
X16260393Y-28661083D02*
X16250869Y-28699179D01*
X16250869Y-28699179D02*
X16241345Y-28718226D01*
X16241345Y-28718226D02*
X16231821Y-28727750D01*
X16231821Y-28727750D02*
X16212774Y-28737274D01*
X16212774Y-28737274D02*
X16193726Y-28737274D01*
X16193726Y-28737274D02*
X16174679Y-28727750D01*
X16174679Y-28727750D02*
X16165155Y-28718226D01*
X16165155Y-28718226D02*
X16155631Y-28699179D01*
X16155631Y-28699179D02*
X16146107Y-28661083D01*
X16146107Y-28661083D02*
X16146107Y-28613464D01*
X16146107Y-28613464D02*
X16155631Y-28575369D01*
X16155631Y-28575369D02*
X16165155Y-28556321D01*
X16165155Y-28556321D02*
X16174679Y-28546798D01*
X16174679Y-28546798D02*
X16193726Y-28537274D01*
X16346107Y-28718226D02*
X16355631Y-28727750D01*
X16355631Y-28727750D02*
X16346107Y-28737274D01*
X16346107Y-28737274D02*
X16336583Y-28727750D01*
X16336583Y-28727750D02*
X16346107Y-28718226D01*
X16346107Y-28718226D02*
X16346107Y-28737274D01*
X16479440Y-28537274D02*
X16498488Y-28537274D01*
X16498488Y-28537274D02*
X16517536Y-28546798D01*
X16517536Y-28546798D02*
X16527060Y-28556321D01*
X16527060Y-28556321D02*
X16536583Y-28575369D01*
X16536583Y-28575369D02*
X16546107Y-28613464D01*
X16546107Y-28613464D02*
X16546107Y-28661083D01*
X16546107Y-28661083D02*
X16536583Y-28699179D01*
X16536583Y-28699179D02*
X16527060Y-28718226D01*
X16527060Y-28718226D02*
X16517536Y-28727750D01*
X16517536Y-28727750D02*
X16498488Y-28737274D01*
X16498488Y-28737274D02*
X16479440Y-28737274D01*
X16479440Y-28737274D02*
X16460393Y-28727750D01*
X16460393Y-28727750D02*
X16450869Y-28718226D01*
X16450869Y-28718226D02*
X16441345Y-28699179D01*
X16441345Y-28699179D02*
X16431821Y-28661083D01*
X16431821Y-28661083D02*
X16431821Y-28613464D01*
X16431821Y-28613464D02*
X16441345Y-28575369D01*
X16441345Y-28575369D02*
X16450869Y-28556321D01*
X16450869Y-28556321D02*
X16460393Y-28546798D01*
X16460393Y-28546798D02*
X16479440Y-28537274D01*
X16622298Y-28556321D02*
X16631821Y-28546798D01*
X16631821Y-28546798D02*
X16650869Y-28537274D01*
X16650869Y-28537274D02*
X16698488Y-28537274D01*
X16698488Y-28537274D02*
X16717536Y-28546798D01*
X16717536Y-28546798D02*
X16727060Y-28556321D01*
X16727060Y-28556321D02*
X16736583Y-28575369D01*
X16736583Y-28575369D02*
X16736583Y-28594417D01*
X16736583Y-28594417D02*
X16727060Y-28622988D01*
X16727060Y-28622988D02*
X16612774Y-28737274D01*
X16612774Y-28737274D02*
X16736583Y-28737274D01*
X16803250Y-28537274D02*
X16936583Y-28537274D01*
X16936583Y-28537274D02*
X16850869Y-28737274D01*
X17098488Y-28537274D02*
X17060393Y-28537274D01*
X17060393Y-28537274D02*
X17041345Y-28546798D01*
X17041345Y-28546798D02*
X17031822Y-28556321D01*
X17031822Y-28556321D02*
X17012774Y-28584893D01*
X17012774Y-28584893D02*
X17003250Y-28622988D01*
X17003250Y-28622988D02*
X17003250Y-28699179D01*
X17003250Y-28699179D02*
X17012774Y-28718226D01*
X17012774Y-28718226D02*
X17022298Y-28727750D01*
X17022298Y-28727750D02*
X17041345Y-28737274D01*
X17041345Y-28737274D02*
X17079441Y-28737274D01*
X17079441Y-28737274D02*
X17098488Y-28727750D01*
X17098488Y-28727750D02*
X17108012Y-28718226D01*
X17108012Y-28718226D02*
X17117536Y-28699179D01*
X17117536Y-28699179D02*
X17117536Y-28651560D01*
X17117536Y-28651560D02*
X17108012Y-28632512D01*
X17108012Y-28632512D02*
X17098488Y-28622988D01*
X17098488Y-28622988D02*
X17079441Y-28613464D01*
X17079441Y-28613464D02*
X17041345Y-28613464D01*
X17041345Y-28613464D02*
X17022298Y-28622988D01*
X17022298Y-28622988D02*
X17012774Y-28632512D01*
X17012774Y-28632512D02*
X17003250Y-28651560D01*
X17193726Y-28537274D02*
X17193726Y-28575369D01*
X17269917Y-28537274D02*
X17269917Y-28575369D01*
X17565155Y-28813464D02*
X17555631Y-28803940D01*
X17555631Y-28803940D02*
X17536584Y-28775369D01*
X17536584Y-28775369D02*
X17527060Y-28756321D01*
X17527060Y-28756321D02*
X17517536Y-28727750D01*
X17517536Y-28727750D02*
X17508012Y-28680131D01*
X17508012Y-28680131D02*
X17508012Y-28642036D01*
X17508012Y-28642036D02*
X17517536Y-28594417D01*
X17517536Y-28594417D02*
X17527060Y-28565845D01*
X17527060Y-28565845D02*
X17536584Y-28546798D01*
X17536584Y-28546798D02*
X17555631Y-28518226D01*
X17555631Y-28518226D02*
X17565155Y-28508702D01*
X17746107Y-28737274D02*
X17631822Y-28737274D01*
X17688964Y-28737274D02*
X17688964Y-28537274D01*
X17688964Y-28537274D02*
X17669917Y-28565845D01*
X17669917Y-28565845D02*
X17650869Y-28584893D01*
X17650869Y-28584893D02*
X17631822Y-28594417D01*
X17917536Y-28537274D02*
X17879441Y-28537274D01*
X17879441Y-28537274D02*
X17860393Y-28546798D01*
X17860393Y-28546798D02*
X17850869Y-28556321D01*
X17850869Y-28556321D02*
X17831822Y-28584893D01*
X17831822Y-28584893D02*
X17822298Y-28622988D01*
X17822298Y-28622988D02*
X17822298Y-28699179D01*
X17822298Y-28699179D02*
X17831822Y-28718226D01*
X17831822Y-28718226D02*
X17841345Y-28727750D01*
X17841345Y-28727750D02*
X17860393Y-28737274D01*
X17860393Y-28737274D02*
X17898488Y-28737274D01*
X17898488Y-28737274D02*
X17917536Y-28727750D01*
X17917536Y-28727750D02*
X17927060Y-28718226D01*
X17927060Y-28718226D02*
X17936584Y-28699179D01*
X17936584Y-28699179D02*
X17936584Y-28651560D01*
X17936584Y-28651560D02*
X17927060Y-28632512D01*
X17927060Y-28632512D02*
X17917536Y-28622988D01*
X17917536Y-28622988D02*
X17898488Y-28613464D01*
X17898488Y-28613464D02*
X17860393Y-28613464D01*
X17860393Y-28613464D02*
X17841345Y-28622988D01*
X17841345Y-28622988D02*
X17831822Y-28632512D01*
X17831822Y-28632512D02*
X17822298Y-28651560D01*
X18012774Y-28556321D02*
X18022298Y-28546798D01*
X18022298Y-28546798D02*
X18041345Y-28537274D01*
X18041345Y-28537274D02*
X18088965Y-28537274D01*
X18088965Y-28537274D02*
X18108012Y-28546798D01*
X18108012Y-28546798D02*
X18117536Y-28556321D01*
X18117536Y-28556321D02*
X18127060Y-28575369D01*
X18127060Y-28575369D02*
X18127060Y-28594417D01*
X18127060Y-28594417D02*
X18117536Y-28622988D01*
X18117536Y-28622988D02*
X18003250Y-28737274D01*
X18003250Y-28737274D02*
X18127060Y-28737274D01*
X18365155Y-28737274D02*
X18365155Y-28537274D01*
X18450869Y-28737274D02*
X18450869Y-28632512D01*
X18450869Y-28632512D02*
X18441346Y-28613464D01*
X18441346Y-28613464D02*
X18422298Y-28603940D01*
X18422298Y-28603940D02*
X18393726Y-28603940D01*
X18393726Y-28603940D02*
X18374679Y-28613464D01*
X18374679Y-28613464D02*
X18365155Y-28622988D01*
X18574679Y-28737274D02*
X18555631Y-28727750D01*
X18555631Y-28727750D02*
X18546107Y-28718226D01*
X18546107Y-28718226D02*
X18536584Y-28699179D01*
X18536584Y-28699179D02*
X18536584Y-28642036D01*
X18536584Y-28642036D02*
X18546107Y-28622988D01*
X18546107Y-28622988D02*
X18555631Y-28613464D01*
X18555631Y-28613464D02*
X18574679Y-28603940D01*
X18574679Y-28603940D02*
X18603250Y-28603940D01*
X18603250Y-28603940D02*
X18622298Y-28613464D01*
X18622298Y-28613464D02*
X18631822Y-28622988D01*
X18631822Y-28622988D02*
X18641346Y-28642036D01*
X18641346Y-28642036D02*
X18641346Y-28699179D01*
X18641346Y-28699179D02*
X18631822Y-28718226D01*
X18631822Y-28718226D02*
X18622298Y-28727750D01*
X18622298Y-28727750D02*
X18603250Y-28737274D01*
X18603250Y-28737274D02*
X18574679Y-28737274D01*
X18755631Y-28737274D02*
X18736584Y-28727750D01*
X18736584Y-28727750D02*
X18727060Y-28708702D01*
X18727060Y-28708702D02*
X18727060Y-28537274D01*
X18908012Y-28727750D02*
X18888965Y-28737274D01*
X18888965Y-28737274D02*
X18850869Y-28737274D01*
X18850869Y-28737274D02*
X18831822Y-28727750D01*
X18831822Y-28727750D02*
X18822298Y-28708702D01*
X18822298Y-28708702D02*
X18822298Y-28632512D01*
X18822298Y-28632512D02*
X18831822Y-28613464D01*
X18831822Y-28613464D02*
X18850869Y-28603940D01*
X18850869Y-28603940D02*
X18888965Y-28603940D01*
X18888965Y-28603940D02*
X18908012Y-28613464D01*
X18908012Y-28613464D02*
X18917536Y-28632512D01*
X18917536Y-28632512D02*
X18917536Y-28651560D01*
X18917536Y-28651560D02*
X18822298Y-28670607D01*
X18993727Y-28727750D02*
X19012774Y-28737274D01*
X19012774Y-28737274D02*
X19050869Y-28737274D01*
X19050869Y-28737274D02*
X19069917Y-28727750D01*
X19069917Y-28727750D02*
X19079441Y-28708702D01*
X19079441Y-28708702D02*
X19079441Y-28699179D01*
X19079441Y-28699179D02*
X19069917Y-28680131D01*
X19069917Y-28680131D02*
X19050869Y-28670607D01*
X19050869Y-28670607D02*
X19022298Y-28670607D01*
X19022298Y-28670607D02*
X19003250Y-28661083D01*
X19003250Y-28661083D02*
X18993727Y-28642036D01*
X18993727Y-28642036D02*
X18993727Y-28632512D01*
X18993727Y-28632512D02*
X19003250Y-28613464D01*
X19003250Y-28613464D02*
X19022298Y-28603940D01*
X19022298Y-28603940D02*
X19050869Y-28603940D01*
X19050869Y-28603940D02*
X19069917Y-28613464D01*
X19146108Y-28813464D02*
X19155631Y-28803940D01*
X19155631Y-28803940D02*
X19174679Y-28775369D01*
X19174679Y-28775369D02*
X19184203Y-28756321D01*
X19184203Y-28756321D02*
X19193727Y-28727750D01*
X19193727Y-28727750D02*
X19203250Y-28680131D01*
X19203250Y-28680131D02*
X19203250Y-28642036D01*
X19203250Y-28642036D02*
X19193727Y-28594417D01*
X19193727Y-28594417D02*
X19184203Y-28565845D01*
X19184203Y-28565845D02*
X19174679Y-28546798D01*
X19174679Y-28546798D02*
X19155631Y-28518226D01*
X19155631Y-28518226D02*
X19146108Y-28508702D01*
D14*
X13953250Y-28858750D02*
X13953250Y-28958750D01*
X13903250Y-28908750D02*
X14003250Y-28908750D01*
D10*
X14355631Y-29001274D02*
X14241345Y-29001274D01*
X14298488Y-29001274D02*
X14298488Y-28801274D01*
X14298488Y-28801274D02*
X14279440Y-28829845D01*
X14279440Y-28829845D02*
X14260393Y-28848893D01*
X14260393Y-28848893D02*
X14241345Y-28858417D01*
X14441345Y-28982226D02*
X14450869Y-28991750D01*
X14450869Y-28991750D02*
X14441345Y-29001274D01*
X14441345Y-29001274D02*
X14431821Y-28991750D01*
X14431821Y-28991750D02*
X14441345Y-28982226D01*
X14441345Y-28982226D02*
X14441345Y-29001274D01*
X14574678Y-28801274D02*
X14593726Y-28801274D01*
X14593726Y-28801274D02*
X14612774Y-28810798D01*
X14612774Y-28810798D02*
X14622297Y-28820321D01*
X14622297Y-28820321D02*
X14631821Y-28839369D01*
X14631821Y-28839369D02*
X14641345Y-28877464D01*
X14641345Y-28877464D02*
X14641345Y-28925083D01*
X14641345Y-28925083D02*
X14631821Y-28963179D01*
X14631821Y-28963179D02*
X14622297Y-28982226D01*
X14622297Y-28982226D02*
X14612774Y-28991750D01*
X14612774Y-28991750D02*
X14593726Y-29001274D01*
X14593726Y-29001274D02*
X14574678Y-29001274D01*
X14574678Y-29001274D02*
X14555631Y-28991750D01*
X14555631Y-28991750D02*
X14546107Y-28982226D01*
X14546107Y-28982226D02*
X14536583Y-28963179D01*
X14536583Y-28963179D02*
X14527059Y-28925083D01*
X14527059Y-28925083D02*
X14527059Y-28877464D01*
X14527059Y-28877464D02*
X14536583Y-28839369D01*
X14536583Y-28839369D02*
X14546107Y-28820321D01*
X14546107Y-28820321D02*
X14555631Y-28810798D01*
X14555631Y-28810798D02*
X14574678Y-28801274D01*
X14765155Y-28801274D02*
X14784202Y-28801274D01*
X14784202Y-28801274D02*
X14803250Y-28810798D01*
X14803250Y-28810798D02*
X14812774Y-28820321D01*
X14812774Y-28820321D02*
X14822297Y-28839369D01*
X14822297Y-28839369D02*
X14831821Y-28877464D01*
X14831821Y-28877464D02*
X14831821Y-28925083D01*
X14831821Y-28925083D02*
X14822297Y-28963179D01*
X14822297Y-28963179D02*
X14812774Y-28982226D01*
X14812774Y-28982226D02*
X14803250Y-28991750D01*
X14803250Y-28991750D02*
X14784202Y-29001274D01*
X14784202Y-29001274D02*
X14765155Y-29001274D01*
X14765155Y-29001274D02*
X14746107Y-28991750D01*
X14746107Y-28991750D02*
X14736583Y-28982226D01*
X14736583Y-28982226D02*
X14727059Y-28963179D01*
X14727059Y-28963179D02*
X14717536Y-28925083D01*
X14717536Y-28925083D02*
X14717536Y-28877464D01*
X14717536Y-28877464D02*
X14727059Y-28839369D01*
X14727059Y-28839369D02*
X14736583Y-28820321D01*
X14736583Y-28820321D02*
X14746107Y-28810798D01*
X14746107Y-28810798D02*
X14765155Y-28801274D01*
X14955631Y-28801274D02*
X14974678Y-28801274D01*
X14974678Y-28801274D02*
X14993726Y-28810798D01*
X14993726Y-28810798D02*
X15003250Y-28820321D01*
X15003250Y-28820321D02*
X15012774Y-28839369D01*
X15012774Y-28839369D02*
X15022297Y-28877464D01*
X15022297Y-28877464D02*
X15022297Y-28925083D01*
X15022297Y-28925083D02*
X15012774Y-28963179D01*
X15012774Y-28963179D02*
X15003250Y-28982226D01*
X15003250Y-28982226D02*
X14993726Y-28991750D01*
X14993726Y-28991750D02*
X14974678Y-29001274D01*
X14974678Y-29001274D02*
X14955631Y-29001274D01*
X14955631Y-29001274D02*
X14936583Y-28991750D01*
X14936583Y-28991750D02*
X14927059Y-28982226D01*
X14927059Y-28982226D02*
X14917536Y-28963179D01*
X14917536Y-28963179D02*
X14908012Y-28925083D01*
X14908012Y-28925083D02*
X14908012Y-28877464D01*
X14908012Y-28877464D02*
X14917536Y-28839369D01*
X14917536Y-28839369D02*
X14927059Y-28820321D01*
X14927059Y-28820321D02*
X14936583Y-28810798D01*
X14936583Y-28810798D02*
X14955631Y-28801274D01*
X15108012Y-29001274D02*
X15108012Y-28867940D01*
X15108012Y-28886988D02*
X15117536Y-28877464D01*
X15117536Y-28877464D02*
X15136583Y-28867940D01*
X15136583Y-28867940D02*
X15165155Y-28867940D01*
X15165155Y-28867940D02*
X15184202Y-28877464D01*
X15184202Y-28877464D02*
X15193726Y-28896512D01*
X15193726Y-28896512D02*
X15193726Y-29001274D01*
X15193726Y-28896512D02*
X15203250Y-28877464D01*
X15203250Y-28877464D02*
X15222297Y-28867940D01*
X15222297Y-28867940D02*
X15250869Y-28867940D01*
X15250869Y-28867940D02*
X15269917Y-28877464D01*
X15269917Y-28877464D02*
X15279440Y-28896512D01*
X15279440Y-28896512D02*
X15279440Y-29001274D01*
X15374678Y-29001274D02*
X15374678Y-28867940D01*
X15374678Y-28886988D02*
X15384202Y-28877464D01*
X15384202Y-28877464D02*
X15403250Y-28867940D01*
X15403250Y-28867940D02*
X15431821Y-28867940D01*
X15431821Y-28867940D02*
X15450869Y-28877464D01*
X15450869Y-28877464D02*
X15460393Y-28896512D01*
X15460393Y-28896512D02*
X15460393Y-29001274D01*
X15460393Y-28896512D02*
X15469917Y-28877464D01*
X15469917Y-28877464D02*
X15488964Y-28867940D01*
X15488964Y-28867940D02*
X15517536Y-28867940D01*
X15517536Y-28867940D02*
X15536583Y-28877464D01*
X15536583Y-28877464D02*
X15546107Y-28896512D01*
X15546107Y-28896512D02*
X15546107Y-29001274D01*
X15936583Y-28791750D02*
X15765155Y-29048893D01*
X16193726Y-28801274D02*
X16212774Y-28801274D01*
X16212774Y-28801274D02*
X16231821Y-28810798D01*
X16231821Y-28810798D02*
X16241345Y-28820321D01*
X16241345Y-28820321D02*
X16250869Y-28839369D01*
X16250869Y-28839369D02*
X16260393Y-28877464D01*
X16260393Y-28877464D02*
X16260393Y-28925083D01*
X16260393Y-28925083D02*
X16250869Y-28963179D01*
X16250869Y-28963179D02*
X16241345Y-28982226D01*
X16241345Y-28982226D02*
X16231821Y-28991750D01*
X16231821Y-28991750D02*
X16212774Y-29001274D01*
X16212774Y-29001274D02*
X16193726Y-29001274D01*
X16193726Y-29001274D02*
X16174679Y-28991750D01*
X16174679Y-28991750D02*
X16165155Y-28982226D01*
X16165155Y-28982226D02*
X16155631Y-28963179D01*
X16155631Y-28963179D02*
X16146107Y-28925083D01*
X16146107Y-28925083D02*
X16146107Y-28877464D01*
X16146107Y-28877464D02*
X16155631Y-28839369D01*
X16155631Y-28839369D02*
X16165155Y-28820321D01*
X16165155Y-28820321D02*
X16174679Y-28810798D01*
X16174679Y-28810798D02*
X16193726Y-28801274D01*
X16346107Y-28982226D02*
X16355631Y-28991750D01*
X16355631Y-28991750D02*
X16346107Y-29001274D01*
X16346107Y-29001274D02*
X16336583Y-28991750D01*
X16336583Y-28991750D02*
X16346107Y-28982226D01*
X16346107Y-28982226D02*
X16346107Y-29001274D01*
X16479440Y-28801274D02*
X16498488Y-28801274D01*
X16498488Y-28801274D02*
X16517536Y-28810798D01*
X16517536Y-28810798D02*
X16527060Y-28820321D01*
X16527060Y-28820321D02*
X16536583Y-28839369D01*
X16536583Y-28839369D02*
X16546107Y-28877464D01*
X16546107Y-28877464D02*
X16546107Y-28925083D01*
X16546107Y-28925083D02*
X16536583Y-28963179D01*
X16536583Y-28963179D02*
X16527060Y-28982226D01*
X16527060Y-28982226D02*
X16517536Y-28991750D01*
X16517536Y-28991750D02*
X16498488Y-29001274D01*
X16498488Y-29001274D02*
X16479440Y-29001274D01*
X16479440Y-29001274D02*
X16460393Y-28991750D01*
X16460393Y-28991750D02*
X16450869Y-28982226D01*
X16450869Y-28982226D02*
X16441345Y-28963179D01*
X16441345Y-28963179D02*
X16431821Y-28925083D01*
X16431821Y-28925083D02*
X16431821Y-28877464D01*
X16431821Y-28877464D02*
X16441345Y-28839369D01*
X16441345Y-28839369D02*
X16450869Y-28820321D01*
X16450869Y-28820321D02*
X16460393Y-28810798D01*
X16460393Y-28810798D02*
X16479440Y-28801274D01*
X16612774Y-28801274D02*
X16736583Y-28801274D01*
X16736583Y-28801274D02*
X16669917Y-28877464D01*
X16669917Y-28877464D02*
X16698488Y-28877464D01*
X16698488Y-28877464D02*
X16717536Y-28886988D01*
X16717536Y-28886988D02*
X16727060Y-28896512D01*
X16727060Y-28896512D02*
X16736583Y-28915560D01*
X16736583Y-28915560D02*
X16736583Y-28963179D01*
X16736583Y-28963179D02*
X16727060Y-28982226D01*
X16727060Y-28982226D02*
X16717536Y-28991750D01*
X16717536Y-28991750D02*
X16698488Y-29001274D01*
X16698488Y-29001274D02*
X16641345Y-29001274D01*
X16641345Y-29001274D02*
X16622298Y-28991750D01*
X16622298Y-28991750D02*
X16612774Y-28982226D01*
X16831822Y-29001274D02*
X16869917Y-29001274D01*
X16869917Y-29001274D02*
X16888964Y-28991750D01*
X16888964Y-28991750D02*
X16898488Y-28982226D01*
X16898488Y-28982226D02*
X16917536Y-28953655D01*
X16917536Y-28953655D02*
X16927060Y-28915560D01*
X16927060Y-28915560D02*
X16927060Y-28839369D01*
X16927060Y-28839369D02*
X16917536Y-28820321D01*
X16917536Y-28820321D02*
X16908012Y-28810798D01*
X16908012Y-28810798D02*
X16888964Y-28801274D01*
X16888964Y-28801274D02*
X16850869Y-28801274D01*
X16850869Y-28801274D02*
X16831822Y-28810798D01*
X16831822Y-28810798D02*
X16822298Y-28820321D01*
X16822298Y-28820321D02*
X16812774Y-28839369D01*
X16812774Y-28839369D02*
X16812774Y-28886988D01*
X16812774Y-28886988D02*
X16822298Y-28906036D01*
X16822298Y-28906036D02*
X16831822Y-28915560D01*
X16831822Y-28915560D02*
X16850869Y-28925083D01*
X16850869Y-28925083D02*
X16888964Y-28925083D01*
X16888964Y-28925083D02*
X16908012Y-28915560D01*
X16908012Y-28915560D02*
X16917536Y-28906036D01*
X16917536Y-28906036D02*
X16927060Y-28886988D01*
X17098488Y-28867940D02*
X17098488Y-29001274D01*
X17050869Y-28791750D02*
X17003250Y-28934607D01*
X17003250Y-28934607D02*
X17127060Y-28934607D01*
X17193726Y-28801274D02*
X17193726Y-28839369D01*
X17269917Y-28801274D02*
X17269917Y-28839369D01*
X17565155Y-29077464D02*
X17555631Y-29067940D01*
X17555631Y-29067940D02*
X17536584Y-29039369D01*
X17536584Y-29039369D02*
X17527060Y-29020321D01*
X17527060Y-29020321D02*
X17517536Y-28991750D01*
X17517536Y-28991750D02*
X17508012Y-28944131D01*
X17508012Y-28944131D02*
X17508012Y-28906036D01*
X17508012Y-28906036D02*
X17517536Y-28858417D01*
X17517536Y-28858417D02*
X17527060Y-28829845D01*
X17527060Y-28829845D02*
X17536584Y-28810798D01*
X17536584Y-28810798D02*
X17555631Y-28782226D01*
X17555631Y-28782226D02*
X17565155Y-28772702D01*
X17631822Y-28820321D02*
X17641345Y-28810798D01*
X17641345Y-28810798D02*
X17660393Y-28801274D01*
X17660393Y-28801274D02*
X17708012Y-28801274D01*
X17708012Y-28801274D02*
X17727060Y-28810798D01*
X17727060Y-28810798D02*
X17736584Y-28820321D01*
X17736584Y-28820321D02*
X17746107Y-28839369D01*
X17746107Y-28839369D02*
X17746107Y-28858417D01*
X17746107Y-28858417D02*
X17736584Y-28886988D01*
X17736584Y-28886988D02*
X17622298Y-29001274D01*
X17622298Y-29001274D02*
X17746107Y-29001274D01*
X17860393Y-28886988D02*
X17841345Y-28877464D01*
X17841345Y-28877464D02*
X17831822Y-28867940D01*
X17831822Y-28867940D02*
X17822298Y-28848893D01*
X17822298Y-28848893D02*
X17822298Y-28839369D01*
X17822298Y-28839369D02*
X17831822Y-28820321D01*
X17831822Y-28820321D02*
X17841345Y-28810798D01*
X17841345Y-28810798D02*
X17860393Y-28801274D01*
X17860393Y-28801274D02*
X17898488Y-28801274D01*
X17898488Y-28801274D02*
X17917536Y-28810798D01*
X17917536Y-28810798D02*
X17927060Y-28820321D01*
X17927060Y-28820321D02*
X17936584Y-28839369D01*
X17936584Y-28839369D02*
X17936584Y-28848893D01*
X17936584Y-28848893D02*
X17927060Y-28867940D01*
X17927060Y-28867940D02*
X17917536Y-28877464D01*
X17917536Y-28877464D02*
X17898488Y-28886988D01*
X17898488Y-28886988D02*
X17860393Y-28886988D01*
X17860393Y-28886988D02*
X17841345Y-28896512D01*
X17841345Y-28896512D02*
X17831822Y-28906036D01*
X17831822Y-28906036D02*
X17822298Y-28925083D01*
X17822298Y-28925083D02*
X17822298Y-28963179D01*
X17822298Y-28963179D02*
X17831822Y-28982226D01*
X17831822Y-28982226D02*
X17841345Y-28991750D01*
X17841345Y-28991750D02*
X17860393Y-29001274D01*
X17860393Y-29001274D02*
X17898488Y-29001274D01*
X17898488Y-29001274D02*
X17917536Y-28991750D01*
X17917536Y-28991750D02*
X17927060Y-28982226D01*
X17927060Y-28982226D02*
X17936584Y-28963179D01*
X17936584Y-28963179D02*
X17936584Y-28925083D01*
X17936584Y-28925083D02*
X17927060Y-28906036D01*
X17927060Y-28906036D02*
X17917536Y-28896512D01*
X17917536Y-28896512D02*
X17898488Y-28886988D01*
X18174679Y-29001274D02*
X18174679Y-28801274D01*
X18260393Y-29001274D02*
X18260393Y-28896512D01*
X18260393Y-28896512D02*
X18250869Y-28877464D01*
X18250869Y-28877464D02*
X18231822Y-28867940D01*
X18231822Y-28867940D02*
X18203250Y-28867940D01*
X18203250Y-28867940D02*
X18184203Y-28877464D01*
X18184203Y-28877464D02*
X18174679Y-28886988D01*
X18384203Y-29001274D02*
X18365155Y-28991750D01*
X18365155Y-28991750D02*
X18355631Y-28982226D01*
X18355631Y-28982226D02*
X18346107Y-28963179D01*
X18346107Y-28963179D02*
X18346107Y-28906036D01*
X18346107Y-28906036D02*
X18355631Y-28886988D01*
X18355631Y-28886988D02*
X18365155Y-28877464D01*
X18365155Y-28877464D02*
X18384203Y-28867940D01*
X18384203Y-28867940D02*
X18412774Y-28867940D01*
X18412774Y-28867940D02*
X18431822Y-28877464D01*
X18431822Y-28877464D02*
X18441346Y-28886988D01*
X18441346Y-28886988D02*
X18450869Y-28906036D01*
X18450869Y-28906036D02*
X18450869Y-28963179D01*
X18450869Y-28963179D02*
X18441346Y-28982226D01*
X18441346Y-28982226D02*
X18431822Y-28991750D01*
X18431822Y-28991750D02*
X18412774Y-29001274D01*
X18412774Y-29001274D02*
X18384203Y-29001274D01*
X18565155Y-29001274D02*
X18546107Y-28991750D01*
X18546107Y-28991750D02*
X18536584Y-28972702D01*
X18536584Y-28972702D02*
X18536584Y-28801274D01*
X18717536Y-28991750D02*
X18698488Y-29001274D01*
X18698488Y-29001274D02*
X18660393Y-29001274D01*
X18660393Y-29001274D02*
X18641346Y-28991750D01*
X18641346Y-28991750D02*
X18631822Y-28972702D01*
X18631822Y-28972702D02*
X18631822Y-28896512D01*
X18631822Y-28896512D02*
X18641346Y-28877464D01*
X18641346Y-28877464D02*
X18660393Y-28867940D01*
X18660393Y-28867940D02*
X18698488Y-28867940D01*
X18698488Y-28867940D02*
X18717536Y-28877464D01*
X18717536Y-28877464D02*
X18727060Y-28896512D01*
X18727060Y-28896512D02*
X18727060Y-28915560D01*
X18727060Y-28915560D02*
X18631822Y-28934607D01*
X18803250Y-28991750D02*
X18822298Y-29001274D01*
X18822298Y-29001274D02*
X18860393Y-29001274D01*
X18860393Y-29001274D02*
X18879441Y-28991750D01*
X18879441Y-28991750D02*
X18888965Y-28972702D01*
X18888965Y-28972702D02*
X18888965Y-28963179D01*
X18888965Y-28963179D02*
X18879441Y-28944131D01*
X18879441Y-28944131D02*
X18860393Y-28934607D01*
X18860393Y-28934607D02*
X18831822Y-28934607D01*
X18831822Y-28934607D02*
X18812774Y-28925083D01*
X18812774Y-28925083D02*
X18803250Y-28906036D01*
X18803250Y-28906036D02*
X18803250Y-28896512D01*
X18803250Y-28896512D02*
X18812774Y-28877464D01*
X18812774Y-28877464D02*
X18831822Y-28867940D01*
X18831822Y-28867940D02*
X18860393Y-28867940D01*
X18860393Y-28867940D02*
X18879441Y-28877464D01*
X18955631Y-29077464D02*
X18965155Y-29067940D01*
X18965155Y-29067940D02*
X18984203Y-29039369D01*
X18984203Y-29039369D02*
X18993727Y-29020321D01*
X18993727Y-29020321D02*
X19003250Y-28991750D01*
X19003250Y-28991750D02*
X19012774Y-28944131D01*
X19012774Y-28944131D02*
X19012774Y-28906036D01*
X19012774Y-28906036D02*
X19003250Y-28858417D01*
X19003250Y-28858417D02*
X18993727Y-28829845D01*
X18993727Y-28829845D02*
X18984203Y-28810798D01*
X18984203Y-28810798D02*
X18965155Y-28782226D01*
X18965155Y-28782226D02*
X18955631Y-28772702D01*
D15*
X13985677Y-29215177D02*
X13985677Y-29130323D01*
X13900823Y-29130323D01*
X13900823Y-29215177D01*
X13985677Y-29215177D01*
D10*
X14355631Y-29265274D02*
X14241345Y-29265274D01*
X14298488Y-29265274D02*
X14298488Y-29065274D01*
X14298488Y-29065274D02*
X14279440Y-29093845D01*
X14279440Y-29093845D02*
X14260393Y-29112893D01*
X14260393Y-29112893D02*
X14241345Y-29122417D01*
X14441345Y-29246226D02*
X14450869Y-29255750D01*
X14450869Y-29255750D02*
X14441345Y-29265274D01*
X14441345Y-29265274D02*
X14431821Y-29255750D01*
X14431821Y-29255750D02*
X14441345Y-29246226D01*
X14441345Y-29246226D02*
X14441345Y-29265274D01*
X14527059Y-29084321D02*
X14536583Y-29074798D01*
X14536583Y-29074798D02*
X14555631Y-29065274D01*
X14555631Y-29065274D02*
X14603250Y-29065274D01*
X14603250Y-29065274D02*
X14622297Y-29074798D01*
X14622297Y-29074798D02*
X14631821Y-29084321D01*
X14631821Y-29084321D02*
X14641345Y-29103369D01*
X14641345Y-29103369D02*
X14641345Y-29122417D01*
X14641345Y-29122417D02*
X14631821Y-29150988D01*
X14631821Y-29150988D02*
X14517536Y-29265274D01*
X14517536Y-29265274D02*
X14641345Y-29265274D01*
X14765155Y-29065274D02*
X14784202Y-29065274D01*
X14784202Y-29065274D02*
X14803250Y-29074798D01*
X14803250Y-29074798D02*
X14812774Y-29084321D01*
X14812774Y-29084321D02*
X14822297Y-29103369D01*
X14822297Y-29103369D02*
X14831821Y-29141464D01*
X14831821Y-29141464D02*
X14831821Y-29189083D01*
X14831821Y-29189083D02*
X14822297Y-29227179D01*
X14822297Y-29227179D02*
X14812774Y-29246226D01*
X14812774Y-29246226D02*
X14803250Y-29255750D01*
X14803250Y-29255750D02*
X14784202Y-29265274D01*
X14784202Y-29265274D02*
X14765155Y-29265274D01*
X14765155Y-29265274D02*
X14746107Y-29255750D01*
X14746107Y-29255750D02*
X14736583Y-29246226D01*
X14736583Y-29246226D02*
X14727059Y-29227179D01*
X14727059Y-29227179D02*
X14717536Y-29189083D01*
X14717536Y-29189083D02*
X14717536Y-29141464D01*
X14717536Y-29141464D02*
X14727059Y-29103369D01*
X14727059Y-29103369D02*
X14736583Y-29084321D01*
X14736583Y-29084321D02*
X14746107Y-29074798D01*
X14746107Y-29074798D02*
X14765155Y-29065274D01*
X14955631Y-29065274D02*
X14974678Y-29065274D01*
X14974678Y-29065274D02*
X14993726Y-29074798D01*
X14993726Y-29074798D02*
X15003250Y-29084321D01*
X15003250Y-29084321D02*
X15012774Y-29103369D01*
X15012774Y-29103369D02*
X15022297Y-29141464D01*
X15022297Y-29141464D02*
X15022297Y-29189083D01*
X15022297Y-29189083D02*
X15012774Y-29227179D01*
X15012774Y-29227179D02*
X15003250Y-29246226D01*
X15003250Y-29246226D02*
X14993726Y-29255750D01*
X14993726Y-29255750D02*
X14974678Y-29265274D01*
X14974678Y-29265274D02*
X14955631Y-29265274D01*
X14955631Y-29265274D02*
X14936583Y-29255750D01*
X14936583Y-29255750D02*
X14927059Y-29246226D01*
X14927059Y-29246226D02*
X14917536Y-29227179D01*
X14917536Y-29227179D02*
X14908012Y-29189083D01*
X14908012Y-29189083D02*
X14908012Y-29141464D01*
X14908012Y-29141464D02*
X14917536Y-29103369D01*
X14917536Y-29103369D02*
X14927059Y-29084321D01*
X14927059Y-29084321D02*
X14936583Y-29074798D01*
X14936583Y-29074798D02*
X14955631Y-29065274D01*
X15108012Y-29265274D02*
X15108012Y-29131940D01*
X15108012Y-29150988D02*
X15117536Y-29141464D01*
X15117536Y-29141464D02*
X15136583Y-29131940D01*
X15136583Y-29131940D02*
X15165155Y-29131940D01*
X15165155Y-29131940D02*
X15184202Y-29141464D01*
X15184202Y-29141464D02*
X15193726Y-29160512D01*
X15193726Y-29160512D02*
X15193726Y-29265274D01*
X15193726Y-29160512D02*
X15203250Y-29141464D01*
X15203250Y-29141464D02*
X15222297Y-29131940D01*
X15222297Y-29131940D02*
X15250869Y-29131940D01*
X15250869Y-29131940D02*
X15269917Y-29141464D01*
X15269917Y-29141464D02*
X15279440Y-29160512D01*
X15279440Y-29160512D02*
X15279440Y-29265274D01*
X15374678Y-29265274D02*
X15374678Y-29131940D01*
X15374678Y-29150988D02*
X15384202Y-29141464D01*
X15384202Y-29141464D02*
X15403250Y-29131940D01*
X15403250Y-29131940D02*
X15431821Y-29131940D01*
X15431821Y-29131940D02*
X15450869Y-29141464D01*
X15450869Y-29141464D02*
X15460393Y-29160512D01*
X15460393Y-29160512D02*
X15460393Y-29265274D01*
X15460393Y-29160512D02*
X15469917Y-29141464D01*
X15469917Y-29141464D02*
X15488964Y-29131940D01*
X15488964Y-29131940D02*
X15517536Y-29131940D01*
X15517536Y-29131940D02*
X15536583Y-29141464D01*
X15536583Y-29141464D02*
X15546107Y-29160512D01*
X15546107Y-29160512D02*
X15546107Y-29265274D01*
X15936583Y-29055750D02*
X15765155Y-29312893D01*
X16193726Y-29065274D02*
X16212774Y-29065274D01*
X16212774Y-29065274D02*
X16231821Y-29074798D01*
X16231821Y-29074798D02*
X16241345Y-29084321D01*
X16241345Y-29084321D02*
X16250869Y-29103369D01*
X16250869Y-29103369D02*
X16260393Y-29141464D01*
X16260393Y-29141464D02*
X16260393Y-29189083D01*
X16260393Y-29189083D02*
X16250869Y-29227179D01*
X16250869Y-29227179D02*
X16241345Y-29246226D01*
X16241345Y-29246226D02*
X16231821Y-29255750D01*
X16231821Y-29255750D02*
X16212774Y-29265274D01*
X16212774Y-29265274D02*
X16193726Y-29265274D01*
X16193726Y-29265274D02*
X16174679Y-29255750D01*
X16174679Y-29255750D02*
X16165155Y-29246226D01*
X16165155Y-29246226D02*
X16155631Y-29227179D01*
X16155631Y-29227179D02*
X16146107Y-29189083D01*
X16146107Y-29189083D02*
X16146107Y-29141464D01*
X16146107Y-29141464D02*
X16155631Y-29103369D01*
X16155631Y-29103369D02*
X16165155Y-29084321D01*
X16165155Y-29084321D02*
X16174679Y-29074798D01*
X16174679Y-29074798D02*
X16193726Y-29065274D01*
X16346107Y-29246226D02*
X16355631Y-29255750D01*
X16355631Y-29255750D02*
X16346107Y-29265274D01*
X16346107Y-29265274D02*
X16336583Y-29255750D01*
X16336583Y-29255750D02*
X16346107Y-29246226D01*
X16346107Y-29246226D02*
X16346107Y-29265274D01*
X16479440Y-29065274D02*
X16498488Y-29065274D01*
X16498488Y-29065274D02*
X16517536Y-29074798D01*
X16517536Y-29074798D02*
X16527060Y-29084321D01*
X16527060Y-29084321D02*
X16536583Y-29103369D01*
X16536583Y-29103369D02*
X16546107Y-29141464D01*
X16546107Y-29141464D02*
X16546107Y-29189083D01*
X16546107Y-29189083D02*
X16536583Y-29227179D01*
X16536583Y-29227179D02*
X16527060Y-29246226D01*
X16527060Y-29246226D02*
X16517536Y-29255750D01*
X16517536Y-29255750D02*
X16498488Y-29265274D01*
X16498488Y-29265274D02*
X16479440Y-29265274D01*
X16479440Y-29265274D02*
X16460393Y-29255750D01*
X16460393Y-29255750D02*
X16450869Y-29246226D01*
X16450869Y-29246226D02*
X16441345Y-29227179D01*
X16441345Y-29227179D02*
X16431821Y-29189083D01*
X16431821Y-29189083D02*
X16431821Y-29141464D01*
X16431821Y-29141464D02*
X16441345Y-29103369D01*
X16441345Y-29103369D02*
X16450869Y-29084321D01*
X16450869Y-29084321D02*
X16460393Y-29074798D01*
X16460393Y-29074798D02*
X16479440Y-29065274D01*
X16717536Y-29131940D02*
X16717536Y-29265274D01*
X16669917Y-29055750D02*
X16622298Y-29198607D01*
X16622298Y-29198607D02*
X16746107Y-29198607D01*
X16803250Y-29065274D02*
X16936583Y-29065274D01*
X16936583Y-29065274D02*
X16850869Y-29265274D01*
X17003250Y-29084321D02*
X17012774Y-29074798D01*
X17012774Y-29074798D02*
X17031822Y-29065274D01*
X17031822Y-29065274D02*
X17079441Y-29065274D01*
X17079441Y-29065274D02*
X17098488Y-29074798D01*
X17098488Y-29074798D02*
X17108012Y-29084321D01*
X17108012Y-29084321D02*
X17117536Y-29103369D01*
X17117536Y-29103369D02*
X17117536Y-29122417D01*
X17117536Y-29122417D02*
X17108012Y-29150988D01*
X17108012Y-29150988D02*
X16993726Y-29265274D01*
X16993726Y-29265274D02*
X17117536Y-29265274D01*
X17193726Y-29065274D02*
X17193726Y-29103369D01*
X17269917Y-29065274D02*
X17269917Y-29103369D01*
X17565155Y-29341464D02*
X17555631Y-29331940D01*
X17555631Y-29331940D02*
X17536584Y-29303369D01*
X17536584Y-29303369D02*
X17527060Y-29284321D01*
X17527060Y-29284321D02*
X17517536Y-29255750D01*
X17517536Y-29255750D02*
X17508012Y-29208131D01*
X17508012Y-29208131D02*
X17508012Y-29170036D01*
X17508012Y-29170036D02*
X17517536Y-29122417D01*
X17517536Y-29122417D02*
X17527060Y-29093845D01*
X17527060Y-29093845D02*
X17536584Y-29074798D01*
X17536584Y-29074798D02*
X17555631Y-29046226D01*
X17555631Y-29046226D02*
X17565155Y-29036702D01*
X17669917Y-29150988D02*
X17650869Y-29141464D01*
X17650869Y-29141464D02*
X17641345Y-29131940D01*
X17641345Y-29131940D02*
X17631822Y-29112893D01*
X17631822Y-29112893D02*
X17631822Y-29103369D01*
X17631822Y-29103369D02*
X17641345Y-29084321D01*
X17641345Y-29084321D02*
X17650869Y-29074798D01*
X17650869Y-29074798D02*
X17669917Y-29065274D01*
X17669917Y-29065274D02*
X17708012Y-29065274D01*
X17708012Y-29065274D02*
X17727060Y-29074798D01*
X17727060Y-29074798D02*
X17736584Y-29084321D01*
X17736584Y-29084321D02*
X17746107Y-29103369D01*
X17746107Y-29103369D02*
X17746107Y-29112893D01*
X17746107Y-29112893D02*
X17736584Y-29131940D01*
X17736584Y-29131940D02*
X17727060Y-29141464D01*
X17727060Y-29141464D02*
X17708012Y-29150988D01*
X17708012Y-29150988D02*
X17669917Y-29150988D01*
X17669917Y-29150988D02*
X17650869Y-29160512D01*
X17650869Y-29160512D02*
X17641345Y-29170036D01*
X17641345Y-29170036D02*
X17631822Y-29189083D01*
X17631822Y-29189083D02*
X17631822Y-29227179D01*
X17631822Y-29227179D02*
X17641345Y-29246226D01*
X17641345Y-29246226D02*
X17650869Y-29255750D01*
X17650869Y-29255750D02*
X17669917Y-29265274D01*
X17669917Y-29265274D02*
X17708012Y-29265274D01*
X17708012Y-29265274D02*
X17727060Y-29255750D01*
X17727060Y-29255750D02*
X17736584Y-29246226D01*
X17736584Y-29246226D02*
X17746107Y-29227179D01*
X17746107Y-29227179D02*
X17746107Y-29189083D01*
X17746107Y-29189083D02*
X17736584Y-29170036D01*
X17736584Y-29170036D02*
X17727060Y-29160512D01*
X17727060Y-29160512D02*
X17708012Y-29150988D01*
X17984203Y-29265274D02*
X17984203Y-29065274D01*
X18069917Y-29265274D02*
X18069917Y-29160512D01*
X18069917Y-29160512D02*
X18060393Y-29141464D01*
X18060393Y-29141464D02*
X18041346Y-29131940D01*
X18041346Y-29131940D02*
X18012774Y-29131940D01*
X18012774Y-29131940D02*
X17993726Y-29141464D01*
X17993726Y-29141464D02*
X17984203Y-29150988D01*
X18193726Y-29265274D02*
X18174679Y-29255750D01*
X18174679Y-29255750D02*
X18165155Y-29246226D01*
X18165155Y-29246226D02*
X18155631Y-29227179D01*
X18155631Y-29227179D02*
X18155631Y-29170036D01*
X18155631Y-29170036D02*
X18165155Y-29150988D01*
X18165155Y-29150988D02*
X18174679Y-29141464D01*
X18174679Y-29141464D02*
X18193726Y-29131940D01*
X18193726Y-29131940D02*
X18222298Y-29131940D01*
X18222298Y-29131940D02*
X18241346Y-29141464D01*
X18241346Y-29141464D02*
X18250869Y-29150988D01*
X18250869Y-29150988D02*
X18260393Y-29170036D01*
X18260393Y-29170036D02*
X18260393Y-29227179D01*
X18260393Y-29227179D02*
X18250869Y-29246226D01*
X18250869Y-29246226D02*
X18241346Y-29255750D01*
X18241346Y-29255750D02*
X18222298Y-29265274D01*
X18222298Y-29265274D02*
X18193726Y-29265274D01*
X18374679Y-29265274D02*
X18355631Y-29255750D01*
X18355631Y-29255750D02*
X18346107Y-29236702D01*
X18346107Y-29236702D02*
X18346107Y-29065274D01*
X18527060Y-29255750D02*
X18508012Y-29265274D01*
X18508012Y-29265274D02*
X18469917Y-29265274D01*
X18469917Y-29265274D02*
X18450869Y-29255750D01*
X18450869Y-29255750D02*
X18441346Y-29236702D01*
X18441346Y-29236702D02*
X18441346Y-29160512D01*
X18441346Y-29160512D02*
X18450869Y-29141464D01*
X18450869Y-29141464D02*
X18469917Y-29131940D01*
X18469917Y-29131940D02*
X18508012Y-29131940D01*
X18508012Y-29131940D02*
X18527060Y-29141464D01*
X18527060Y-29141464D02*
X18536584Y-29160512D01*
X18536584Y-29160512D02*
X18536584Y-29179560D01*
X18536584Y-29179560D02*
X18441346Y-29198607D01*
X18612774Y-29255750D02*
X18631822Y-29265274D01*
X18631822Y-29265274D02*
X18669917Y-29265274D01*
X18669917Y-29265274D02*
X18688965Y-29255750D01*
X18688965Y-29255750D02*
X18698488Y-29236702D01*
X18698488Y-29236702D02*
X18698488Y-29227179D01*
X18698488Y-29227179D02*
X18688965Y-29208131D01*
X18688965Y-29208131D02*
X18669917Y-29198607D01*
X18669917Y-29198607D02*
X18641346Y-29198607D01*
X18641346Y-29198607D02*
X18622298Y-29189083D01*
X18622298Y-29189083D02*
X18612774Y-29170036D01*
X18612774Y-29170036D02*
X18612774Y-29160512D01*
X18612774Y-29160512D02*
X18622298Y-29141464D01*
X18622298Y-29141464D02*
X18641346Y-29131940D01*
X18641346Y-29131940D02*
X18669917Y-29131940D01*
X18669917Y-29131940D02*
X18688965Y-29141464D01*
X18765155Y-29341464D02*
X18774679Y-29331940D01*
X18774679Y-29331940D02*
X18793727Y-29303369D01*
X18793727Y-29303369D02*
X18803250Y-29284321D01*
X18803250Y-29284321D02*
X18812774Y-29255750D01*
X18812774Y-29255750D02*
X18822298Y-29208131D01*
X18822298Y-29208131D02*
X18822298Y-29170036D01*
X18822298Y-29170036D02*
X18812774Y-29122417D01*
X18812774Y-29122417D02*
X18803250Y-29093845D01*
X18803250Y-29093845D02*
X18793727Y-29074798D01*
X18793727Y-29074798D02*
X18774679Y-29046226D01*
X18774679Y-29046226D02*
X18765155Y-29036702D01*
D16*
X13933250Y-29506750D02*
X14003250Y-29436750D01*
X13933250Y-29366750D01*
X13863250Y-29436750D01*
X13933250Y-29506750D01*
D10*
X14355631Y-29529274D02*
X14241345Y-29529274D01*
X14298488Y-29529274D02*
X14298488Y-29329274D01*
X14298488Y-29329274D02*
X14279440Y-29357845D01*
X14279440Y-29357845D02*
X14260393Y-29376893D01*
X14260393Y-29376893D02*
X14241345Y-29386417D01*
X14441345Y-29510226D02*
X14450869Y-29519750D01*
X14450869Y-29519750D02*
X14441345Y-29529274D01*
X14441345Y-29529274D02*
X14431821Y-29519750D01*
X14431821Y-29519750D02*
X14441345Y-29510226D01*
X14441345Y-29510226D02*
X14441345Y-29529274D01*
X14622297Y-29395940D02*
X14622297Y-29529274D01*
X14574678Y-29319750D02*
X14527059Y-29462607D01*
X14527059Y-29462607D02*
X14650869Y-29462607D01*
X14765155Y-29329274D02*
X14784202Y-29329274D01*
X14784202Y-29329274D02*
X14803250Y-29338798D01*
X14803250Y-29338798D02*
X14812774Y-29348321D01*
X14812774Y-29348321D02*
X14822297Y-29367369D01*
X14822297Y-29367369D02*
X14831821Y-29405464D01*
X14831821Y-29405464D02*
X14831821Y-29453083D01*
X14831821Y-29453083D02*
X14822297Y-29491179D01*
X14822297Y-29491179D02*
X14812774Y-29510226D01*
X14812774Y-29510226D02*
X14803250Y-29519750D01*
X14803250Y-29519750D02*
X14784202Y-29529274D01*
X14784202Y-29529274D02*
X14765155Y-29529274D01*
X14765155Y-29529274D02*
X14746107Y-29519750D01*
X14746107Y-29519750D02*
X14736583Y-29510226D01*
X14736583Y-29510226D02*
X14727059Y-29491179D01*
X14727059Y-29491179D02*
X14717536Y-29453083D01*
X14717536Y-29453083D02*
X14717536Y-29405464D01*
X14717536Y-29405464D02*
X14727059Y-29367369D01*
X14727059Y-29367369D02*
X14736583Y-29348321D01*
X14736583Y-29348321D02*
X14746107Y-29338798D01*
X14746107Y-29338798D02*
X14765155Y-29329274D01*
X14955631Y-29329274D02*
X14974678Y-29329274D01*
X14974678Y-29329274D02*
X14993726Y-29338798D01*
X14993726Y-29338798D02*
X15003250Y-29348321D01*
X15003250Y-29348321D02*
X15012774Y-29367369D01*
X15012774Y-29367369D02*
X15022297Y-29405464D01*
X15022297Y-29405464D02*
X15022297Y-29453083D01*
X15022297Y-29453083D02*
X15012774Y-29491179D01*
X15012774Y-29491179D02*
X15003250Y-29510226D01*
X15003250Y-29510226D02*
X14993726Y-29519750D01*
X14993726Y-29519750D02*
X14974678Y-29529274D01*
X14974678Y-29529274D02*
X14955631Y-29529274D01*
X14955631Y-29529274D02*
X14936583Y-29519750D01*
X14936583Y-29519750D02*
X14927059Y-29510226D01*
X14927059Y-29510226D02*
X14917536Y-29491179D01*
X14917536Y-29491179D02*
X14908012Y-29453083D01*
X14908012Y-29453083D02*
X14908012Y-29405464D01*
X14908012Y-29405464D02*
X14917536Y-29367369D01*
X14917536Y-29367369D02*
X14927059Y-29348321D01*
X14927059Y-29348321D02*
X14936583Y-29338798D01*
X14936583Y-29338798D02*
X14955631Y-29329274D01*
X15108012Y-29529274D02*
X15108012Y-29395940D01*
X15108012Y-29414988D02*
X15117536Y-29405464D01*
X15117536Y-29405464D02*
X15136583Y-29395940D01*
X15136583Y-29395940D02*
X15165155Y-29395940D01*
X15165155Y-29395940D02*
X15184202Y-29405464D01*
X15184202Y-29405464D02*
X15193726Y-29424512D01*
X15193726Y-29424512D02*
X15193726Y-29529274D01*
X15193726Y-29424512D02*
X15203250Y-29405464D01*
X15203250Y-29405464D02*
X15222297Y-29395940D01*
X15222297Y-29395940D02*
X15250869Y-29395940D01*
X15250869Y-29395940D02*
X15269917Y-29405464D01*
X15269917Y-29405464D02*
X15279440Y-29424512D01*
X15279440Y-29424512D02*
X15279440Y-29529274D01*
X15374678Y-29529274D02*
X15374678Y-29395940D01*
X15374678Y-29414988D02*
X15384202Y-29405464D01*
X15384202Y-29405464D02*
X15403250Y-29395940D01*
X15403250Y-29395940D02*
X15431821Y-29395940D01*
X15431821Y-29395940D02*
X15450869Y-29405464D01*
X15450869Y-29405464D02*
X15460393Y-29424512D01*
X15460393Y-29424512D02*
X15460393Y-29529274D01*
X15460393Y-29424512D02*
X15469917Y-29405464D01*
X15469917Y-29405464D02*
X15488964Y-29395940D01*
X15488964Y-29395940D02*
X15517536Y-29395940D01*
X15517536Y-29395940D02*
X15536583Y-29405464D01*
X15536583Y-29405464D02*
X15546107Y-29424512D01*
X15546107Y-29424512D02*
X15546107Y-29529274D01*
X15936583Y-29319750D02*
X15765155Y-29576893D01*
X16193726Y-29329274D02*
X16212774Y-29329274D01*
X16212774Y-29329274D02*
X16231821Y-29338798D01*
X16231821Y-29338798D02*
X16241345Y-29348321D01*
X16241345Y-29348321D02*
X16250869Y-29367369D01*
X16250869Y-29367369D02*
X16260393Y-29405464D01*
X16260393Y-29405464D02*
X16260393Y-29453083D01*
X16260393Y-29453083D02*
X16250869Y-29491179D01*
X16250869Y-29491179D02*
X16241345Y-29510226D01*
X16241345Y-29510226D02*
X16231821Y-29519750D01*
X16231821Y-29519750D02*
X16212774Y-29529274D01*
X16212774Y-29529274D02*
X16193726Y-29529274D01*
X16193726Y-29529274D02*
X16174679Y-29519750D01*
X16174679Y-29519750D02*
X16165155Y-29510226D01*
X16165155Y-29510226D02*
X16155631Y-29491179D01*
X16155631Y-29491179D02*
X16146107Y-29453083D01*
X16146107Y-29453083D02*
X16146107Y-29405464D01*
X16146107Y-29405464D02*
X16155631Y-29367369D01*
X16155631Y-29367369D02*
X16165155Y-29348321D01*
X16165155Y-29348321D02*
X16174679Y-29338798D01*
X16174679Y-29338798D02*
X16193726Y-29329274D01*
X16346107Y-29510226D02*
X16355631Y-29519750D01*
X16355631Y-29519750D02*
X16346107Y-29529274D01*
X16346107Y-29529274D02*
X16336583Y-29519750D01*
X16336583Y-29519750D02*
X16346107Y-29510226D01*
X16346107Y-29510226D02*
X16346107Y-29529274D01*
X16479440Y-29329274D02*
X16498488Y-29329274D01*
X16498488Y-29329274D02*
X16517536Y-29338798D01*
X16517536Y-29338798D02*
X16527060Y-29348321D01*
X16527060Y-29348321D02*
X16536583Y-29367369D01*
X16536583Y-29367369D02*
X16546107Y-29405464D01*
X16546107Y-29405464D02*
X16546107Y-29453083D01*
X16546107Y-29453083D02*
X16536583Y-29491179D01*
X16536583Y-29491179D02*
X16527060Y-29510226D01*
X16527060Y-29510226D02*
X16517536Y-29519750D01*
X16517536Y-29519750D02*
X16498488Y-29529274D01*
X16498488Y-29529274D02*
X16479440Y-29529274D01*
X16479440Y-29529274D02*
X16460393Y-29519750D01*
X16460393Y-29519750D02*
X16450869Y-29510226D01*
X16450869Y-29510226D02*
X16441345Y-29491179D01*
X16441345Y-29491179D02*
X16431821Y-29453083D01*
X16431821Y-29453083D02*
X16431821Y-29405464D01*
X16431821Y-29405464D02*
X16441345Y-29367369D01*
X16441345Y-29367369D02*
X16450869Y-29348321D01*
X16450869Y-29348321D02*
X16460393Y-29338798D01*
X16460393Y-29338798D02*
X16479440Y-29329274D01*
X16727060Y-29329274D02*
X16631821Y-29329274D01*
X16631821Y-29329274D02*
X16622298Y-29424512D01*
X16622298Y-29424512D02*
X16631821Y-29414988D01*
X16631821Y-29414988D02*
X16650869Y-29405464D01*
X16650869Y-29405464D02*
X16698488Y-29405464D01*
X16698488Y-29405464D02*
X16717536Y-29414988D01*
X16717536Y-29414988D02*
X16727060Y-29424512D01*
X16727060Y-29424512D02*
X16736583Y-29443560D01*
X16736583Y-29443560D02*
X16736583Y-29491179D01*
X16736583Y-29491179D02*
X16727060Y-29510226D01*
X16727060Y-29510226D02*
X16717536Y-29519750D01*
X16717536Y-29519750D02*
X16698488Y-29529274D01*
X16698488Y-29529274D02*
X16650869Y-29529274D01*
X16650869Y-29529274D02*
X16631821Y-29519750D01*
X16631821Y-29519750D02*
X16622298Y-29510226D01*
X16917536Y-29329274D02*
X16822298Y-29329274D01*
X16822298Y-29329274D02*
X16812774Y-29424512D01*
X16812774Y-29424512D02*
X16822298Y-29414988D01*
X16822298Y-29414988D02*
X16841345Y-29405464D01*
X16841345Y-29405464D02*
X16888964Y-29405464D01*
X16888964Y-29405464D02*
X16908012Y-29414988D01*
X16908012Y-29414988D02*
X16917536Y-29424512D01*
X16917536Y-29424512D02*
X16927060Y-29443560D01*
X16927060Y-29443560D02*
X16927060Y-29491179D01*
X16927060Y-29491179D02*
X16917536Y-29510226D01*
X16917536Y-29510226D02*
X16908012Y-29519750D01*
X16908012Y-29519750D02*
X16888964Y-29529274D01*
X16888964Y-29529274D02*
X16841345Y-29529274D01*
X16841345Y-29529274D02*
X16822298Y-29519750D01*
X16822298Y-29519750D02*
X16812774Y-29510226D01*
X17117536Y-29529274D02*
X17003250Y-29529274D01*
X17060393Y-29529274D02*
X17060393Y-29329274D01*
X17060393Y-29329274D02*
X17041345Y-29357845D01*
X17041345Y-29357845D02*
X17022298Y-29376893D01*
X17022298Y-29376893D02*
X17003250Y-29386417D01*
X17193726Y-29329274D02*
X17193726Y-29367369D01*
X17269917Y-29329274D02*
X17269917Y-29367369D01*
X17565155Y-29605464D02*
X17555631Y-29595940D01*
X17555631Y-29595940D02*
X17536584Y-29567369D01*
X17536584Y-29567369D02*
X17527060Y-29548321D01*
X17527060Y-29548321D02*
X17517536Y-29519750D01*
X17517536Y-29519750D02*
X17508012Y-29472131D01*
X17508012Y-29472131D02*
X17508012Y-29434036D01*
X17508012Y-29434036D02*
X17517536Y-29386417D01*
X17517536Y-29386417D02*
X17527060Y-29357845D01*
X17527060Y-29357845D02*
X17536584Y-29338798D01*
X17536584Y-29338798D02*
X17555631Y-29310226D01*
X17555631Y-29310226D02*
X17565155Y-29300702D01*
X17631822Y-29348321D02*
X17641345Y-29338798D01*
X17641345Y-29338798D02*
X17660393Y-29329274D01*
X17660393Y-29329274D02*
X17708012Y-29329274D01*
X17708012Y-29329274D02*
X17727060Y-29338798D01*
X17727060Y-29338798D02*
X17736584Y-29348321D01*
X17736584Y-29348321D02*
X17746107Y-29367369D01*
X17746107Y-29367369D02*
X17746107Y-29386417D01*
X17746107Y-29386417D02*
X17736584Y-29414988D01*
X17736584Y-29414988D02*
X17622298Y-29529274D01*
X17622298Y-29529274D02*
X17746107Y-29529274D01*
X17984203Y-29529274D02*
X17984203Y-29329274D01*
X18069917Y-29529274D02*
X18069917Y-29424512D01*
X18069917Y-29424512D02*
X18060393Y-29405464D01*
X18060393Y-29405464D02*
X18041346Y-29395940D01*
X18041346Y-29395940D02*
X18012774Y-29395940D01*
X18012774Y-29395940D02*
X17993726Y-29405464D01*
X17993726Y-29405464D02*
X17984203Y-29414988D01*
X18193726Y-29529274D02*
X18174679Y-29519750D01*
X18174679Y-29519750D02*
X18165155Y-29510226D01*
X18165155Y-29510226D02*
X18155631Y-29491179D01*
X18155631Y-29491179D02*
X18155631Y-29434036D01*
X18155631Y-29434036D02*
X18165155Y-29414988D01*
X18165155Y-29414988D02*
X18174679Y-29405464D01*
X18174679Y-29405464D02*
X18193726Y-29395940D01*
X18193726Y-29395940D02*
X18222298Y-29395940D01*
X18222298Y-29395940D02*
X18241346Y-29405464D01*
X18241346Y-29405464D02*
X18250869Y-29414988D01*
X18250869Y-29414988D02*
X18260393Y-29434036D01*
X18260393Y-29434036D02*
X18260393Y-29491179D01*
X18260393Y-29491179D02*
X18250869Y-29510226D01*
X18250869Y-29510226D02*
X18241346Y-29519750D01*
X18241346Y-29519750D02*
X18222298Y-29529274D01*
X18222298Y-29529274D02*
X18193726Y-29529274D01*
X18374679Y-29529274D02*
X18355631Y-29519750D01*
X18355631Y-29519750D02*
X18346107Y-29500702D01*
X18346107Y-29500702D02*
X18346107Y-29329274D01*
X18527060Y-29519750D02*
X18508012Y-29529274D01*
X18508012Y-29529274D02*
X18469917Y-29529274D01*
X18469917Y-29529274D02*
X18450869Y-29519750D01*
X18450869Y-29519750D02*
X18441346Y-29500702D01*
X18441346Y-29500702D02*
X18441346Y-29424512D01*
X18441346Y-29424512D02*
X18450869Y-29405464D01*
X18450869Y-29405464D02*
X18469917Y-29395940D01*
X18469917Y-29395940D02*
X18508012Y-29395940D01*
X18508012Y-29395940D02*
X18527060Y-29405464D01*
X18527060Y-29405464D02*
X18536584Y-29424512D01*
X18536584Y-29424512D02*
X18536584Y-29443560D01*
X18536584Y-29443560D02*
X18441346Y-29462607D01*
X18612774Y-29519750D02*
X18631822Y-29529274D01*
X18631822Y-29529274D02*
X18669917Y-29529274D01*
X18669917Y-29529274D02*
X18688965Y-29519750D01*
X18688965Y-29519750D02*
X18698488Y-29500702D01*
X18698488Y-29500702D02*
X18698488Y-29491179D01*
X18698488Y-29491179D02*
X18688965Y-29472131D01*
X18688965Y-29472131D02*
X18669917Y-29462607D01*
X18669917Y-29462607D02*
X18641346Y-29462607D01*
X18641346Y-29462607D02*
X18622298Y-29453083D01*
X18622298Y-29453083D02*
X18612774Y-29434036D01*
X18612774Y-29434036D02*
X18612774Y-29424512D01*
X18612774Y-29424512D02*
X18622298Y-29405464D01*
X18622298Y-29405464D02*
X18641346Y-29395940D01*
X18641346Y-29395940D02*
X18669917Y-29395940D01*
X18669917Y-29395940D02*
X18688965Y-29405464D01*
X18765155Y-29605464D02*
X18774679Y-29595940D01*
X18774679Y-29595940D02*
X18793727Y-29567369D01*
X18793727Y-29567369D02*
X18803250Y-29548321D01*
X18803250Y-29548321D02*
X18812774Y-29519750D01*
X18812774Y-29519750D02*
X18822298Y-29472131D01*
X18822298Y-29472131D02*
X18822298Y-29434036D01*
X18822298Y-29434036D02*
X18812774Y-29386417D01*
X18812774Y-29386417D02*
X18803250Y-29357845D01*
X18803250Y-29357845D02*
X18793727Y-29338798D01*
X18793727Y-29338798D02*
X18774679Y-29310226D01*
X18774679Y-29310226D02*
X18765155Y-29300702D01*
D17*
X13853250Y-29625750D02*
X14003250Y-29775750D01*
X14003250Y-29625750D02*
X13853250Y-29775750D01*
X14003250Y-29700750D02*
G75*
G03*
X14003250Y-29700750I-75000J0D01*
G01*
D10*
X14355631Y-29793274D02*
X14241345Y-29793274D01*
X14298488Y-29793274D02*
X14298488Y-29593274D01*
X14298488Y-29593274D02*
X14279440Y-29621845D01*
X14279440Y-29621845D02*
X14260393Y-29640893D01*
X14260393Y-29640893D02*
X14241345Y-29650417D01*
X14441345Y-29774226D02*
X14450869Y-29783750D01*
X14450869Y-29783750D02*
X14441345Y-29793274D01*
X14441345Y-29793274D02*
X14431821Y-29783750D01*
X14431821Y-29783750D02*
X14441345Y-29774226D01*
X14441345Y-29774226D02*
X14441345Y-29793274D01*
X14631821Y-29593274D02*
X14536583Y-29593274D01*
X14536583Y-29593274D02*
X14527059Y-29688512D01*
X14527059Y-29688512D02*
X14536583Y-29678988D01*
X14536583Y-29678988D02*
X14555631Y-29669464D01*
X14555631Y-29669464D02*
X14603250Y-29669464D01*
X14603250Y-29669464D02*
X14622297Y-29678988D01*
X14622297Y-29678988D02*
X14631821Y-29688512D01*
X14631821Y-29688512D02*
X14641345Y-29707560D01*
X14641345Y-29707560D02*
X14641345Y-29755179D01*
X14641345Y-29755179D02*
X14631821Y-29774226D01*
X14631821Y-29774226D02*
X14622297Y-29783750D01*
X14622297Y-29783750D02*
X14603250Y-29793274D01*
X14603250Y-29793274D02*
X14555631Y-29793274D01*
X14555631Y-29793274D02*
X14536583Y-29783750D01*
X14536583Y-29783750D02*
X14527059Y-29774226D01*
X14765155Y-29593274D02*
X14784202Y-29593274D01*
X14784202Y-29593274D02*
X14803250Y-29602798D01*
X14803250Y-29602798D02*
X14812774Y-29612321D01*
X14812774Y-29612321D02*
X14822297Y-29631369D01*
X14822297Y-29631369D02*
X14831821Y-29669464D01*
X14831821Y-29669464D02*
X14831821Y-29717083D01*
X14831821Y-29717083D02*
X14822297Y-29755179D01*
X14822297Y-29755179D02*
X14812774Y-29774226D01*
X14812774Y-29774226D02*
X14803250Y-29783750D01*
X14803250Y-29783750D02*
X14784202Y-29793274D01*
X14784202Y-29793274D02*
X14765155Y-29793274D01*
X14765155Y-29793274D02*
X14746107Y-29783750D01*
X14746107Y-29783750D02*
X14736583Y-29774226D01*
X14736583Y-29774226D02*
X14727059Y-29755179D01*
X14727059Y-29755179D02*
X14717536Y-29717083D01*
X14717536Y-29717083D02*
X14717536Y-29669464D01*
X14717536Y-29669464D02*
X14727059Y-29631369D01*
X14727059Y-29631369D02*
X14736583Y-29612321D01*
X14736583Y-29612321D02*
X14746107Y-29602798D01*
X14746107Y-29602798D02*
X14765155Y-29593274D01*
X14955631Y-29593274D02*
X14974678Y-29593274D01*
X14974678Y-29593274D02*
X14993726Y-29602798D01*
X14993726Y-29602798D02*
X15003250Y-29612321D01*
X15003250Y-29612321D02*
X15012774Y-29631369D01*
X15012774Y-29631369D02*
X15022297Y-29669464D01*
X15022297Y-29669464D02*
X15022297Y-29717083D01*
X15022297Y-29717083D02*
X15012774Y-29755179D01*
X15012774Y-29755179D02*
X15003250Y-29774226D01*
X15003250Y-29774226D02*
X14993726Y-29783750D01*
X14993726Y-29783750D02*
X14974678Y-29793274D01*
X14974678Y-29793274D02*
X14955631Y-29793274D01*
X14955631Y-29793274D02*
X14936583Y-29783750D01*
X14936583Y-29783750D02*
X14927059Y-29774226D01*
X14927059Y-29774226D02*
X14917536Y-29755179D01*
X14917536Y-29755179D02*
X14908012Y-29717083D01*
X14908012Y-29717083D02*
X14908012Y-29669464D01*
X14908012Y-29669464D02*
X14917536Y-29631369D01*
X14917536Y-29631369D02*
X14927059Y-29612321D01*
X14927059Y-29612321D02*
X14936583Y-29602798D01*
X14936583Y-29602798D02*
X14955631Y-29593274D01*
X15108012Y-29793274D02*
X15108012Y-29659940D01*
X15108012Y-29678988D02*
X15117536Y-29669464D01*
X15117536Y-29669464D02*
X15136583Y-29659940D01*
X15136583Y-29659940D02*
X15165155Y-29659940D01*
X15165155Y-29659940D02*
X15184202Y-29669464D01*
X15184202Y-29669464D02*
X15193726Y-29688512D01*
X15193726Y-29688512D02*
X15193726Y-29793274D01*
X15193726Y-29688512D02*
X15203250Y-29669464D01*
X15203250Y-29669464D02*
X15222297Y-29659940D01*
X15222297Y-29659940D02*
X15250869Y-29659940D01*
X15250869Y-29659940D02*
X15269917Y-29669464D01*
X15269917Y-29669464D02*
X15279440Y-29688512D01*
X15279440Y-29688512D02*
X15279440Y-29793274D01*
X15374678Y-29793274D02*
X15374678Y-29659940D01*
X15374678Y-29678988D02*
X15384202Y-29669464D01*
X15384202Y-29669464D02*
X15403250Y-29659940D01*
X15403250Y-29659940D02*
X15431821Y-29659940D01*
X15431821Y-29659940D02*
X15450869Y-29669464D01*
X15450869Y-29669464D02*
X15460393Y-29688512D01*
X15460393Y-29688512D02*
X15460393Y-29793274D01*
X15460393Y-29688512D02*
X15469917Y-29669464D01*
X15469917Y-29669464D02*
X15488964Y-29659940D01*
X15488964Y-29659940D02*
X15517536Y-29659940D01*
X15517536Y-29659940D02*
X15536583Y-29669464D01*
X15536583Y-29669464D02*
X15546107Y-29688512D01*
X15546107Y-29688512D02*
X15546107Y-29793274D01*
X15936583Y-29583750D02*
X15765155Y-29840893D01*
X16193726Y-29593274D02*
X16212774Y-29593274D01*
X16212774Y-29593274D02*
X16231821Y-29602798D01*
X16231821Y-29602798D02*
X16241345Y-29612321D01*
X16241345Y-29612321D02*
X16250869Y-29631369D01*
X16250869Y-29631369D02*
X16260393Y-29669464D01*
X16260393Y-29669464D02*
X16260393Y-29717083D01*
X16260393Y-29717083D02*
X16250869Y-29755179D01*
X16250869Y-29755179D02*
X16241345Y-29774226D01*
X16241345Y-29774226D02*
X16231821Y-29783750D01*
X16231821Y-29783750D02*
X16212774Y-29793274D01*
X16212774Y-29793274D02*
X16193726Y-29793274D01*
X16193726Y-29793274D02*
X16174679Y-29783750D01*
X16174679Y-29783750D02*
X16165155Y-29774226D01*
X16165155Y-29774226D02*
X16155631Y-29755179D01*
X16155631Y-29755179D02*
X16146107Y-29717083D01*
X16146107Y-29717083D02*
X16146107Y-29669464D01*
X16146107Y-29669464D02*
X16155631Y-29631369D01*
X16155631Y-29631369D02*
X16165155Y-29612321D01*
X16165155Y-29612321D02*
X16174679Y-29602798D01*
X16174679Y-29602798D02*
X16193726Y-29593274D01*
X16346107Y-29774226D02*
X16355631Y-29783750D01*
X16355631Y-29783750D02*
X16346107Y-29793274D01*
X16346107Y-29793274D02*
X16336583Y-29783750D01*
X16336583Y-29783750D02*
X16346107Y-29774226D01*
X16346107Y-29774226D02*
X16346107Y-29793274D01*
X16479440Y-29593274D02*
X16498488Y-29593274D01*
X16498488Y-29593274D02*
X16517536Y-29602798D01*
X16517536Y-29602798D02*
X16527060Y-29612321D01*
X16527060Y-29612321D02*
X16536583Y-29631369D01*
X16536583Y-29631369D02*
X16546107Y-29669464D01*
X16546107Y-29669464D02*
X16546107Y-29717083D01*
X16546107Y-29717083D02*
X16536583Y-29755179D01*
X16536583Y-29755179D02*
X16527060Y-29774226D01*
X16527060Y-29774226D02*
X16517536Y-29783750D01*
X16517536Y-29783750D02*
X16498488Y-29793274D01*
X16498488Y-29793274D02*
X16479440Y-29793274D01*
X16479440Y-29793274D02*
X16460393Y-29783750D01*
X16460393Y-29783750D02*
X16450869Y-29774226D01*
X16450869Y-29774226D02*
X16441345Y-29755179D01*
X16441345Y-29755179D02*
X16431821Y-29717083D01*
X16431821Y-29717083D02*
X16431821Y-29669464D01*
X16431821Y-29669464D02*
X16441345Y-29631369D01*
X16441345Y-29631369D02*
X16450869Y-29612321D01*
X16450869Y-29612321D02*
X16460393Y-29602798D01*
X16460393Y-29602798D02*
X16479440Y-29593274D01*
X16727060Y-29593274D02*
X16631821Y-29593274D01*
X16631821Y-29593274D02*
X16622298Y-29688512D01*
X16622298Y-29688512D02*
X16631821Y-29678988D01*
X16631821Y-29678988D02*
X16650869Y-29669464D01*
X16650869Y-29669464D02*
X16698488Y-29669464D01*
X16698488Y-29669464D02*
X16717536Y-29678988D01*
X16717536Y-29678988D02*
X16727060Y-29688512D01*
X16727060Y-29688512D02*
X16736583Y-29707560D01*
X16736583Y-29707560D02*
X16736583Y-29755179D01*
X16736583Y-29755179D02*
X16727060Y-29774226D01*
X16727060Y-29774226D02*
X16717536Y-29783750D01*
X16717536Y-29783750D02*
X16698488Y-29793274D01*
X16698488Y-29793274D02*
X16650869Y-29793274D01*
X16650869Y-29793274D02*
X16631821Y-29783750D01*
X16631821Y-29783750D02*
X16622298Y-29774226D01*
X16831822Y-29793274D02*
X16869917Y-29793274D01*
X16869917Y-29793274D02*
X16888964Y-29783750D01*
X16888964Y-29783750D02*
X16898488Y-29774226D01*
X16898488Y-29774226D02*
X16917536Y-29745655D01*
X16917536Y-29745655D02*
X16927060Y-29707560D01*
X16927060Y-29707560D02*
X16927060Y-29631369D01*
X16927060Y-29631369D02*
X16917536Y-29612321D01*
X16917536Y-29612321D02*
X16908012Y-29602798D01*
X16908012Y-29602798D02*
X16888964Y-29593274D01*
X16888964Y-29593274D02*
X16850869Y-29593274D01*
X16850869Y-29593274D02*
X16831822Y-29602798D01*
X16831822Y-29602798D02*
X16822298Y-29612321D01*
X16822298Y-29612321D02*
X16812774Y-29631369D01*
X16812774Y-29631369D02*
X16812774Y-29678988D01*
X16812774Y-29678988D02*
X16822298Y-29698036D01*
X16822298Y-29698036D02*
X16831822Y-29707560D01*
X16831822Y-29707560D02*
X16850869Y-29717083D01*
X16850869Y-29717083D02*
X16888964Y-29717083D01*
X16888964Y-29717083D02*
X16908012Y-29707560D01*
X16908012Y-29707560D02*
X16917536Y-29698036D01*
X16917536Y-29698036D02*
X16927060Y-29678988D01*
X17117536Y-29793274D02*
X17003250Y-29793274D01*
X17060393Y-29793274D02*
X17060393Y-29593274D01*
X17060393Y-29593274D02*
X17041345Y-29621845D01*
X17041345Y-29621845D02*
X17022298Y-29640893D01*
X17022298Y-29640893D02*
X17003250Y-29650417D01*
X17193726Y-29593274D02*
X17193726Y-29631369D01*
X17269917Y-29593274D02*
X17269917Y-29631369D01*
X17565155Y-29869464D02*
X17555631Y-29859940D01*
X17555631Y-29859940D02*
X17536584Y-29831369D01*
X17536584Y-29831369D02*
X17527060Y-29812321D01*
X17527060Y-29812321D02*
X17517536Y-29783750D01*
X17517536Y-29783750D02*
X17508012Y-29736131D01*
X17508012Y-29736131D02*
X17508012Y-29698036D01*
X17508012Y-29698036D02*
X17517536Y-29650417D01*
X17517536Y-29650417D02*
X17527060Y-29621845D01*
X17527060Y-29621845D02*
X17536584Y-29602798D01*
X17536584Y-29602798D02*
X17555631Y-29574226D01*
X17555631Y-29574226D02*
X17565155Y-29564702D01*
X17679441Y-29593274D02*
X17698488Y-29593274D01*
X17698488Y-29593274D02*
X17717536Y-29602798D01*
X17717536Y-29602798D02*
X17727060Y-29612321D01*
X17727060Y-29612321D02*
X17736584Y-29631369D01*
X17736584Y-29631369D02*
X17746107Y-29669464D01*
X17746107Y-29669464D02*
X17746107Y-29717083D01*
X17746107Y-29717083D02*
X17736584Y-29755179D01*
X17736584Y-29755179D02*
X17727060Y-29774226D01*
X17727060Y-29774226D02*
X17717536Y-29783750D01*
X17717536Y-29783750D02*
X17698488Y-29793274D01*
X17698488Y-29793274D02*
X17679441Y-29793274D01*
X17679441Y-29793274D02*
X17660393Y-29783750D01*
X17660393Y-29783750D02*
X17650869Y-29774226D01*
X17650869Y-29774226D02*
X17641345Y-29755179D01*
X17641345Y-29755179D02*
X17631822Y-29717083D01*
X17631822Y-29717083D02*
X17631822Y-29669464D01*
X17631822Y-29669464D02*
X17641345Y-29631369D01*
X17641345Y-29631369D02*
X17650869Y-29612321D01*
X17650869Y-29612321D02*
X17660393Y-29602798D01*
X17660393Y-29602798D02*
X17679441Y-29593274D01*
X17984203Y-29793274D02*
X17984203Y-29593274D01*
X18069917Y-29793274D02*
X18069917Y-29688512D01*
X18069917Y-29688512D02*
X18060393Y-29669464D01*
X18060393Y-29669464D02*
X18041346Y-29659940D01*
X18041346Y-29659940D02*
X18012774Y-29659940D01*
X18012774Y-29659940D02*
X17993726Y-29669464D01*
X17993726Y-29669464D02*
X17984203Y-29678988D01*
X18193726Y-29793274D02*
X18174679Y-29783750D01*
X18174679Y-29783750D02*
X18165155Y-29774226D01*
X18165155Y-29774226D02*
X18155631Y-29755179D01*
X18155631Y-29755179D02*
X18155631Y-29698036D01*
X18155631Y-29698036D02*
X18165155Y-29678988D01*
X18165155Y-29678988D02*
X18174679Y-29669464D01*
X18174679Y-29669464D02*
X18193726Y-29659940D01*
X18193726Y-29659940D02*
X18222298Y-29659940D01*
X18222298Y-29659940D02*
X18241346Y-29669464D01*
X18241346Y-29669464D02*
X18250869Y-29678988D01*
X18250869Y-29678988D02*
X18260393Y-29698036D01*
X18260393Y-29698036D02*
X18260393Y-29755179D01*
X18260393Y-29755179D02*
X18250869Y-29774226D01*
X18250869Y-29774226D02*
X18241346Y-29783750D01*
X18241346Y-29783750D02*
X18222298Y-29793274D01*
X18222298Y-29793274D02*
X18193726Y-29793274D01*
X18374679Y-29793274D02*
X18355631Y-29783750D01*
X18355631Y-29783750D02*
X18346107Y-29764702D01*
X18346107Y-29764702D02*
X18346107Y-29593274D01*
X18527060Y-29783750D02*
X18508012Y-29793274D01*
X18508012Y-29793274D02*
X18469917Y-29793274D01*
X18469917Y-29793274D02*
X18450869Y-29783750D01*
X18450869Y-29783750D02*
X18441346Y-29764702D01*
X18441346Y-29764702D02*
X18441346Y-29688512D01*
X18441346Y-29688512D02*
X18450869Y-29669464D01*
X18450869Y-29669464D02*
X18469917Y-29659940D01*
X18469917Y-29659940D02*
X18508012Y-29659940D01*
X18508012Y-29659940D02*
X18527060Y-29669464D01*
X18527060Y-29669464D02*
X18536584Y-29688512D01*
X18536584Y-29688512D02*
X18536584Y-29707560D01*
X18536584Y-29707560D02*
X18441346Y-29726607D01*
X18612774Y-29783750D02*
X18631822Y-29793274D01*
X18631822Y-29793274D02*
X18669917Y-29793274D01*
X18669917Y-29793274D02*
X18688965Y-29783750D01*
X18688965Y-29783750D02*
X18698488Y-29764702D01*
X18698488Y-29764702D02*
X18698488Y-29755179D01*
X18698488Y-29755179D02*
X18688965Y-29736131D01*
X18688965Y-29736131D02*
X18669917Y-29726607D01*
X18669917Y-29726607D02*
X18641346Y-29726607D01*
X18641346Y-29726607D02*
X18622298Y-29717083D01*
X18622298Y-29717083D02*
X18612774Y-29698036D01*
X18612774Y-29698036D02*
X18612774Y-29688512D01*
X18612774Y-29688512D02*
X18622298Y-29669464D01*
X18622298Y-29669464D02*
X18641346Y-29659940D01*
X18641346Y-29659940D02*
X18669917Y-29659940D01*
X18669917Y-29659940D02*
X18688965Y-29669464D01*
X18936584Y-29717083D02*
X19088965Y-29717083D01*
X19012774Y-29793274D02*
X19012774Y-29640893D01*
X19327060Y-29612321D02*
X19336584Y-29602798D01*
X19336584Y-29602798D02*
X19355631Y-29593274D01*
X19355631Y-29593274D02*
X19403250Y-29593274D01*
X19403250Y-29593274D02*
X19422298Y-29602798D01*
X19422298Y-29602798D02*
X19431822Y-29612321D01*
X19431822Y-29612321D02*
X19441346Y-29631369D01*
X19441346Y-29631369D02*
X19441346Y-29650417D01*
X19441346Y-29650417D02*
X19431822Y-29678988D01*
X19431822Y-29678988D02*
X19317536Y-29793274D01*
X19317536Y-29793274D02*
X19441346Y-29793274D01*
X19669917Y-29783750D02*
X19688965Y-29793274D01*
X19688965Y-29793274D02*
X19727060Y-29793274D01*
X19727060Y-29793274D02*
X19746108Y-29783750D01*
X19746108Y-29783750D02*
X19755631Y-29764702D01*
X19755631Y-29764702D02*
X19755631Y-29755179D01*
X19755631Y-29755179D02*
X19746108Y-29736131D01*
X19746108Y-29736131D02*
X19727060Y-29726607D01*
X19727060Y-29726607D02*
X19698489Y-29726607D01*
X19698489Y-29726607D02*
X19679441Y-29717083D01*
X19679441Y-29717083D02*
X19669917Y-29698036D01*
X19669917Y-29698036D02*
X19669917Y-29688512D01*
X19669917Y-29688512D02*
X19679441Y-29669464D01*
X19679441Y-29669464D02*
X19698489Y-29659940D01*
X19698489Y-29659940D02*
X19727060Y-29659940D01*
X19727060Y-29659940D02*
X19746108Y-29669464D01*
X19869917Y-29793274D02*
X19850870Y-29783750D01*
X19850870Y-29783750D02*
X19841346Y-29764702D01*
X19841346Y-29764702D02*
X19841346Y-29593274D01*
X19974679Y-29793274D02*
X19955631Y-29783750D01*
X19955631Y-29783750D02*
X19946108Y-29774226D01*
X19946108Y-29774226D02*
X19936584Y-29755179D01*
X19936584Y-29755179D02*
X19936584Y-29698036D01*
X19936584Y-29698036D02*
X19946108Y-29678988D01*
X19946108Y-29678988D02*
X19955631Y-29669464D01*
X19955631Y-29669464D02*
X19974679Y-29659940D01*
X19974679Y-29659940D02*
X20003251Y-29659940D01*
X20003251Y-29659940D02*
X20022298Y-29669464D01*
X20022298Y-29669464D02*
X20031822Y-29678988D01*
X20031822Y-29678988D02*
X20041346Y-29698036D01*
X20041346Y-29698036D02*
X20041346Y-29755179D01*
X20041346Y-29755179D02*
X20031822Y-29774226D01*
X20031822Y-29774226D02*
X20022298Y-29783750D01*
X20022298Y-29783750D02*
X20003251Y-29793274D01*
X20003251Y-29793274D02*
X19974679Y-29793274D01*
X20098489Y-29659940D02*
X20174679Y-29659940D01*
X20127060Y-29593274D02*
X20127060Y-29764702D01*
X20127060Y-29764702D02*
X20136584Y-29783750D01*
X20136584Y-29783750D02*
X20155631Y-29793274D01*
X20155631Y-29793274D02*
X20174679Y-29793274D01*
X20231822Y-29783750D02*
X20250870Y-29793274D01*
X20250870Y-29793274D02*
X20288965Y-29793274D01*
X20288965Y-29793274D02*
X20308012Y-29783750D01*
X20308012Y-29783750D02*
X20317536Y-29764702D01*
X20317536Y-29764702D02*
X20317536Y-29755179D01*
X20317536Y-29755179D02*
X20308012Y-29736131D01*
X20308012Y-29736131D02*
X20288965Y-29726607D01*
X20288965Y-29726607D02*
X20260393Y-29726607D01*
X20260393Y-29726607D02*
X20241346Y-29717083D01*
X20241346Y-29717083D02*
X20231822Y-29698036D01*
X20231822Y-29698036D02*
X20231822Y-29688512D01*
X20231822Y-29688512D02*
X20241346Y-29669464D01*
X20241346Y-29669464D02*
X20260393Y-29659940D01*
X20260393Y-29659940D02*
X20288965Y-29659940D01*
X20288965Y-29659940D02*
X20308012Y-29669464D01*
X20384203Y-29869464D02*
X20393727Y-29859940D01*
X20393727Y-29859940D02*
X20412774Y-29831369D01*
X20412774Y-29831369D02*
X20422298Y-29812321D01*
X20422298Y-29812321D02*
X20431822Y-29783750D01*
X20431822Y-29783750D02*
X20441346Y-29736131D01*
X20441346Y-29736131D02*
X20441346Y-29698036D01*
X20441346Y-29698036D02*
X20431822Y-29650417D01*
X20431822Y-29650417D02*
X20422298Y-29621845D01*
X20422298Y-29621845D02*
X20412774Y-29602798D01*
X20412774Y-29602798D02*
X20393727Y-29574226D01*
X20393727Y-29574226D02*
X20384203Y-29564702D01*
M02*
