G04 #@! TF.GenerationSoftware,KiCad,Pcbnew,7.0.1*
G04 #@! TF.CreationDate,2023-04-17T11:26:59-07:00*
G04 #@! TF.ProjectId,_autosave-keyboard,5f617574-6f73-4617-9665-2d6b6579626f,rev?*
G04 #@! TF.SameCoordinates,Original*
G04 #@! TF.FileFunction,Paste,Bot*
G04 #@! TF.FilePolarity,Positive*
%FSLAX46Y46*%
G04 Gerber Fmt 4.6, Leading zero omitted, Abs format (unit mm)*
G04 Created by KiCad (PCBNEW 7.0.1) date 2023-04-17 11:26:59*
%MOMM*%
%LPD*%
G01*
G04 APERTURE LIST*
%ADD10R,1.200000X1.200000*%
%ADD11R,2.550000X2.500000*%
G04 APERTURE END LIST*
D10*
X207490000Y-243570000D03*
D11*
X222800000Y-233950000D03*
D10*
X207490000Y-240420000D03*
D11*
X208950000Y-236490000D03*
D10*
X188440000Y-162607500D03*
D11*
X203750000Y-152987500D03*
D10*
X188440000Y-159457500D03*
D11*
X189900000Y-155527500D03*
D10*
X226540000Y-243570000D03*
D11*
X241850000Y-233950000D03*
D10*
X226540000Y-240420000D03*
D11*
X228000000Y-236490000D03*
D10*
X336077500Y-262620000D03*
D11*
X351387500Y-253000000D03*
D10*
X336077500Y-259470000D03*
D11*
X337537500Y-255540000D03*
D10*
X350365000Y-162607500D03*
D11*
X365675000Y-152987500D03*
D10*
X350365000Y-159457500D03*
D11*
X351825000Y-155527500D03*
D10*
X307502500Y-205470000D03*
D11*
X322812500Y-195850000D03*
D10*
X307502500Y-202320000D03*
D11*
X308962500Y-198390000D03*
D10*
X436090000Y-224520000D03*
D11*
X451400000Y-214900000D03*
D10*
X436090000Y-221370000D03*
D11*
X437550000Y-217440000D03*
D10*
X374177500Y-186420000D03*
D11*
X389487500Y-176800000D03*
D10*
X374177500Y-183270000D03*
D11*
X375637500Y-179340000D03*
D10*
X340840000Y-243570000D03*
D11*
X356150000Y-233950000D03*
D10*
X340840000Y-240420000D03*
D11*
X342300000Y-236490000D03*
D10*
X359890000Y-243570000D03*
D11*
X375200000Y-233950000D03*
D10*
X359890000Y-240420000D03*
D11*
X361350000Y-236490000D03*
D10*
X174152500Y-205470000D03*
D11*
X189462500Y-195850000D03*
D10*
X174152500Y-202320000D03*
D11*
X175612500Y-198390000D03*
D10*
X407515000Y-205470000D03*
D11*
X422825000Y-195850000D03*
D10*
X407515000Y-202320000D03*
D11*
X408975000Y-198390000D03*
D10*
X152721250Y-224520000D03*
D11*
X168031250Y-214900000D03*
D10*
X152721250Y-221370000D03*
D11*
X154181250Y-217440000D03*
D10*
X321790000Y-243570000D03*
D11*
X337100000Y-233950000D03*
D10*
X321790000Y-240420000D03*
D11*
X323250000Y-236490000D03*
D10*
X331315000Y-224520000D03*
D11*
X346625000Y-214900000D03*
D10*
X331315000Y-221370000D03*
D11*
X332775000Y-217440000D03*
D10*
X264640000Y-243570000D03*
D11*
X279950000Y-233950000D03*
D10*
X264640000Y-240420000D03*
D11*
X266100000Y-236490000D03*
D10*
X245590000Y-243570000D03*
D11*
X260900000Y-233950000D03*
D10*
X245590000Y-240420000D03*
D11*
X247050000Y-236490000D03*
D10*
X331315000Y-162607500D03*
D11*
X346625000Y-152987500D03*
D10*
X331315000Y-159457500D03*
D11*
X332775000Y-155527500D03*
X401400300Y-233948200D03*
X387550300Y-236488200D03*
D10*
X397990000Y-267382500D03*
D11*
X413300000Y-257762500D03*
D10*
X397990000Y-264232500D03*
D11*
X399450000Y-260302500D03*
D10*
X183677500Y-186420000D03*
D11*
X198987500Y-176800000D03*
D10*
X183677500Y-183270000D03*
D11*
X185137500Y-179340000D03*
D10*
X317027500Y-186420000D03*
D11*
X332337500Y-176800000D03*
D10*
X317027500Y-183270000D03*
D11*
X318487500Y-179340000D03*
D10*
X283690000Y-243570000D03*
D11*
X299000000Y-233950000D03*
D10*
X283690000Y-240420000D03*
D11*
X285150000Y-236490000D03*
D10*
X326552500Y-205470000D03*
D11*
X341862500Y-195850000D03*
D10*
X326552500Y-202320000D03*
D11*
X328012500Y-198390000D03*
D10*
X259877500Y-186420000D03*
D11*
X275187500Y-176800000D03*
D10*
X259877500Y-183270000D03*
D11*
X261337500Y-179340000D03*
D10*
X369415000Y-162607500D03*
D11*
X384725000Y-152987500D03*
D10*
X369415000Y-159457500D03*
D11*
X370875000Y-155527500D03*
D10*
X374177500Y-262620000D03*
D11*
X389487500Y-253000000D03*
D10*
X374177500Y-259470000D03*
D11*
X375637500Y-255540000D03*
D10*
X202727500Y-186420000D03*
D11*
X218037500Y-176800000D03*
D10*
X202727500Y-183270000D03*
D11*
X204187500Y-179340000D03*
D10*
X193202500Y-205470000D03*
D11*
X208512500Y-195850000D03*
D10*
X193202500Y-202320000D03*
D11*
X194662500Y-198390000D03*
D10*
X364652500Y-205470000D03*
D11*
X379962500Y-195850000D03*
D10*
X364652500Y-202320000D03*
D11*
X366112500Y-198390000D03*
D10*
X417040000Y-267382500D03*
D11*
X432350000Y-257762500D03*
D10*
X417040000Y-264232500D03*
D11*
X418500000Y-260302500D03*
D10*
X302740000Y-243570000D03*
D11*
X318050000Y-233950000D03*
D10*
X302740000Y-240420000D03*
D11*
X304200000Y-236490000D03*
D10*
X436090000Y-267382500D03*
D11*
X451400000Y-257762500D03*
D10*
X436090000Y-264232500D03*
D11*
X437550000Y-260302500D03*
D10*
X226540000Y-162607500D03*
D11*
X241850000Y-152987500D03*
D10*
X226540000Y-159457500D03*
D11*
X228000000Y-155527500D03*
D10*
X145577500Y-186420000D03*
D11*
X160887500Y-176800000D03*
D10*
X145577500Y-183270000D03*
D11*
X147037500Y-179340000D03*
D10*
X212252500Y-205470000D03*
D11*
X227562500Y-195850000D03*
D10*
X212252500Y-202320000D03*
D11*
X213712500Y-198390000D03*
D10*
X164627500Y-186420000D03*
D11*
X179937500Y-176800000D03*
D10*
X164627500Y-183270000D03*
D11*
X166087500Y-179340000D03*
D10*
X350365000Y-224520000D03*
D11*
X365675000Y-214900000D03*
D10*
X350365000Y-221370000D03*
D11*
X351825000Y-217440000D03*
D10*
X274165000Y-224520000D03*
D11*
X289475000Y-214900000D03*
D10*
X274165000Y-221370000D03*
D11*
X275625000Y-217440000D03*
D10*
X250352500Y-162607500D03*
D11*
X265662500Y-152987500D03*
D10*
X250352500Y-159457500D03*
D11*
X251812500Y-155527500D03*
D10*
X250352500Y-205470000D03*
D11*
X265662500Y-195850000D03*
D10*
X250352500Y-202320000D03*
D11*
X251812500Y-198390000D03*
D10*
X240827500Y-186420000D03*
D11*
X256137500Y-176800000D03*
D10*
X240827500Y-183270000D03*
D11*
X242287500Y-179340000D03*
D10*
X178915000Y-224520000D03*
D11*
X194225000Y-214900000D03*
D10*
X178915000Y-221370000D03*
D11*
X180375000Y-217440000D03*
D10*
X171771250Y-262620000D03*
D11*
X187081250Y-253000000D03*
D10*
X171771250Y-259470000D03*
D11*
X173231250Y-255540000D03*
D10*
X388465000Y-162607500D03*
D11*
X403775000Y-152987500D03*
D10*
X388465000Y-159457500D03*
D11*
X389925000Y-155527500D03*
D10*
X169390000Y-162607500D03*
D11*
X184700000Y-152987500D03*
D10*
X169390000Y-159457500D03*
D11*
X170850000Y-155527500D03*
D10*
X217015000Y-224520000D03*
D11*
X232325000Y-214900000D03*
D10*
X217015000Y-221370000D03*
D11*
X218475000Y-217440000D03*
X172853750Y-233890000D03*
X159003750Y-236430000D03*
D10*
X269402500Y-162607500D03*
D11*
X284712500Y-152987500D03*
D10*
X269402500Y-159457500D03*
D11*
X270862500Y-155527500D03*
D10*
X412277500Y-162607500D03*
D11*
X427587500Y-152987500D03*
D10*
X412277500Y-159457500D03*
D11*
X413737500Y-155527500D03*
D10*
X207490000Y-162607500D03*
D11*
X222800000Y-152987500D03*
D10*
X207490000Y-159457500D03*
D11*
X208950000Y-155527500D03*
D10*
X150340000Y-205470000D03*
D11*
X165650000Y-195850000D03*
D10*
X150340000Y-202320000D03*
D11*
X151800000Y-198390000D03*
D10*
X355127500Y-262620000D03*
D11*
X370437500Y-253000000D03*
D10*
X355127500Y-259470000D03*
D11*
X356587500Y-255540000D03*
D10*
X312265000Y-224520000D03*
D11*
X327575000Y-214900000D03*
D10*
X312265000Y-221370000D03*
D11*
X313725000Y-217440000D03*
D10*
X436090000Y-205470000D03*
D11*
X451400000Y-195850000D03*
D10*
X436090000Y-202320000D03*
D11*
X437550000Y-198390000D03*
D10*
X345602500Y-205470000D03*
D11*
X360912500Y-195850000D03*
D10*
X345602500Y-202320000D03*
D11*
X347062500Y-198390000D03*
D10*
X278927500Y-186420000D03*
D11*
X294237500Y-176800000D03*
D10*
X278927500Y-183270000D03*
D11*
X280387500Y-179340000D03*
D10*
X266990000Y-262660000D03*
D11*
X282300000Y-253040000D03*
D10*
X266990000Y-259510000D03*
D11*
X268450000Y-255580000D03*
X418122500Y-176740000D03*
X404272500Y-179280000D03*
D10*
X293215000Y-224520000D03*
D11*
X308525000Y-214900000D03*
D10*
X293215000Y-221370000D03*
D11*
X294675000Y-217440000D03*
D10*
X336077500Y-186420000D03*
D11*
X351387500Y-176800000D03*
D10*
X336077500Y-183270000D03*
D11*
X337537500Y-179340000D03*
D10*
X369415000Y-224520000D03*
D11*
X384725000Y-214900000D03*
D10*
X369415000Y-221370000D03*
D11*
X370875000Y-217440000D03*
D10*
X355127500Y-186420000D03*
D11*
X370437500Y-176800000D03*
D10*
X355127500Y-183270000D03*
D11*
X356587500Y-179340000D03*
D10*
X288452500Y-205470000D03*
D11*
X303762500Y-195850000D03*
D10*
X288452500Y-202320000D03*
D11*
X289912500Y-198390000D03*
D10*
X147958750Y-262620000D03*
D11*
X163268750Y-253000000D03*
D10*
X147958750Y-259470000D03*
D11*
X149418750Y-255540000D03*
D10*
X417040000Y-248332500D03*
D11*
X432350000Y-238712500D03*
D10*
X417040000Y-245182500D03*
D11*
X418500000Y-241252500D03*
D10*
X195583750Y-262620000D03*
D11*
X210893750Y-253000000D03*
D10*
X195583750Y-259470000D03*
D11*
X197043750Y-255540000D03*
D10*
X255115000Y-224520000D03*
D11*
X270425000Y-214900000D03*
D10*
X255115000Y-221370000D03*
D11*
X256575000Y-217440000D03*
D10*
X297977500Y-186420000D03*
D11*
X313287500Y-176800000D03*
D10*
X297977500Y-183270000D03*
D11*
X299437500Y-179340000D03*
D10*
X269402500Y-205470000D03*
D11*
X284712500Y-195850000D03*
D10*
X269402500Y-202320000D03*
D11*
X270862500Y-198390000D03*
D10*
X145577500Y-162607500D03*
D11*
X160887500Y-152987500D03*
D10*
X145577500Y-159457500D03*
D11*
X147037500Y-155527500D03*
D10*
X436090000Y-186420000D03*
D11*
X451400000Y-176800000D03*
D10*
X436090000Y-183270000D03*
D11*
X437550000Y-179340000D03*
D10*
X188440000Y-243570000D03*
D11*
X203750000Y-233950000D03*
D10*
X188440000Y-240420000D03*
D11*
X189900000Y-236490000D03*
D10*
X231302500Y-205470000D03*
D11*
X246612500Y-195850000D03*
D10*
X231302500Y-202320000D03*
D11*
X232762500Y-198390000D03*
D10*
X221777500Y-186420000D03*
D11*
X237087500Y-176800000D03*
D10*
X221777500Y-183270000D03*
D11*
X223237500Y-179340000D03*
D10*
X288452500Y-162607500D03*
D11*
X303762500Y-152987500D03*
D10*
X288452500Y-159457500D03*
D11*
X289912500Y-155527500D03*
D10*
X307502500Y-162607500D03*
D11*
X322812500Y-152987500D03*
D10*
X307502500Y-159457500D03*
D11*
X308962500Y-155527500D03*
X415741250Y-214840000D03*
X401891250Y-217380000D03*
D10*
X197965000Y-224520000D03*
D11*
X213275000Y-214900000D03*
D10*
X197965000Y-221370000D03*
D11*
X199425000Y-217440000D03*
D10*
X236065000Y-224520000D03*
D11*
X251375000Y-214900000D03*
D10*
X236065000Y-221370000D03*
D11*
X237525000Y-217440000D03*
D10*
X383702500Y-205470000D03*
D11*
X399012500Y-195850000D03*
D10*
X383702500Y-202320000D03*
D11*
X385162500Y-198390000D03*
D10*
X387290000Y-243835000D03*
X387290000Y-240685000D03*
X404200000Y-186445000D03*
X404200000Y-183295000D03*
X158710000Y-243995000D03*
X158710000Y-240845000D03*
X401740000Y-224605000D03*
X401740000Y-221455000D03*
M02*
