%TF.GenerationSoftware,KiCad,Pcbnew,7.0.1*%
%TF.CreationDate,2023-07-11T18:08:57-07:00*%
%TF.ProjectId,switchplate,73776974-6368-4706-9c61-74652e6b6963,rev?*%
%TF.SameCoordinates,Original*%
%TF.FileFunction,Legend,Top*%
%TF.FilePolarity,Positive*%
%FSLAX46Y46*%
G04 Gerber Fmt 4.6, Leading zero omitted, Abs format (unit mm)*
G04 Created by KiCad (PCBNEW 7.0.1) date 2023-07-11 18:08:57*
%MOMM*%
%LPD*%
G01*
G04 APERTURE LIST*
%ADD10C,0.150000*%
G04 APERTURE END LIST*
D10*
%TO.C,REF\u002A\u002A*%
X120436667Y-132132620D02*
X120103334Y-131656429D01*
X119865239Y-132132620D02*
X119865239Y-131132620D01*
X119865239Y-131132620D02*
X120246191Y-131132620D01*
X120246191Y-131132620D02*
X120341429Y-131180239D01*
X120341429Y-131180239D02*
X120389048Y-131227858D01*
X120389048Y-131227858D02*
X120436667Y-131323096D01*
X120436667Y-131323096D02*
X120436667Y-131465953D01*
X120436667Y-131465953D02*
X120389048Y-131561191D01*
X120389048Y-131561191D02*
X120341429Y-131608810D01*
X120341429Y-131608810D02*
X120246191Y-131656429D01*
X120246191Y-131656429D02*
X119865239Y-131656429D01*
X120865239Y-131608810D02*
X121198572Y-131608810D01*
X121341429Y-132132620D02*
X120865239Y-132132620D01*
X120865239Y-132132620D02*
X120865239Y-131132620D01*
X120865239Y-131132620D02*
X121341429Y-131132620D01*
X122103334Y-131608810D02*
X121770001Y-131608810D01*
X121770001Y-132132620D02*
X121770001Y-131132620D01*
X121770001Y-131132620D02*
X122246191Y-131132620D01*
X122770001Y-131132620D02*
X122770001Y-131370715D01*
X122531906Y-131275477D02*
X122770001Y-131370715D01*
X122770001Y-131370715D02*
X123008096Y-131275477D01*
X122627144Y-131561191D02*
X122770001Y-131370715D01*
X122770001Y-131370715D02*
X122912858Y-131561191D01*
X123531906Y-131132620D02*
X123531906Y-131370715D01*
X123293811Y-131275477D02*
X123531906Y-131370715D01*
X123531906Y-131370715D02*
X123770001Y-131275477D01*
X123389049Y-131561191D02*
X123531906Y-131370715D01*
X123531906Y-131370715D02*
X123674763Y-131561191D01*
X308116667Y-56332620D02*
X307783334Y-55856429D01*
X307545239Y-56332620D02*
X307545239Y-55332620D01*
X307545239Y-55332620D02*
X307926191Y-55332620D01*
X307926191Y-55332620D02*
X308021429Y-55380239D01*
X308021429Y-55380239D02*
X308069048Y-55427858D01*
X308069048Y-55427858D02*
X308116667Y-55523096D01*
X308116667Y-55523096D02*
X308116667Y-55665953D01*
X308116667Y-55665953D02*
X308069048Y-55761191D01*
X308069048Y-55761191D02*
X308021429Y-55808810D01*
X308021429Y-55808810D02*
X307926191Y-55856429D01*
X307926191Y-55856429D02*
X307545239Y-55856429D01*
X308545239Y-55808810D02*
X308878572Y-55808810D01*
X309021429Y-56332620D02*
X308545239Y-56332620D01*
X308545239Y-56332620D02*
X308545239Y-55332620D01*
X308545239Y-55332620D02*
X309021429Y-55332620D01*
X309783334Y-55808810D02*
X309450001Y-55808810D01*
X309450001Y-56332620D02*
X309450001Y-55332620D01*
X309450001Y-55332620D02*
X309926191Y-55332620D01*
X310450001Y-55332620D02*
X310450001Y-55570715D01*
X310211906Y-55475477D02*
X310450001Y-55570715D01*
X310450001Y-55570715D02*
X310688096Y-55475477D01*
X310307144Y-55761191D02*
X310450001Y-55570715D01*
X310450001Y-55570715D02*
X310592858Y-55761191D01*
X311211906Y-55332620D02*
X311211906Y-55570715D01*
X310973811Y-55475477D02*
X311211906Y-55570715D01*
X311211906Y-55570715D02*
X311450001Y-55475477D01*
X311069049Y-55761191D02*
X311211906Y-55570715D01*
X311211906Y-55570715D02*
X311354763Y-55761191D01*
X-31553332Y-131722620D02*
X-31886665Y-131246429D01*
X-32124760Y-131722620D02*
X-32124760Y-130722620D01*
X-32124760Y-130722620D02*
X-31743808Y-130722620D01*
X-31743808Y-130722620D02*
X-31648570Y-130770239D01*
X-31648570Y-130770239D02*
X-31600951Y-130817858D01*
X-31600951Y-130817858D02*
X-31553332Y-130913096D01*
X-31553332Y-130913096D02*
X-31553332Y-131055953D01*
X-31553332Y-131055953D02*
X-31600951Y-131151191D01*
X-31600951Y-131151191D02*
X-31648570Y-131198810D01*
X-31648570Y-131198810D02*
X-31743808Y-131246429D01*
X-31743808Y-131246429D02*
X-32124760Y-131246429D01*
X-31124760Y-131198810D02*
X-30791427Y-131198810D01*
X-30648570Y-131722620D02*
X-31124760Y-131722620D01*
X-31124760Y-131722620D02*
X-31124760Y-130722620D01*
X-31124760Y-130722620D02*
X-30648570Y-130722620D01*
X-29886665Y-131198810D02*
X-30219998Y-131198810D01*
X-30219998Y-131722620D02*
X-30219998Y-130722620D01*
X-30219998Y-130722620D02*
X-29743808Y-130722620D01*
X-29219998Y-130722620D02*
X-29219998Y-130960715D01*
X-29458093Y-130865477D02*
X-29219998Y-130960715D01*
X-29219998Y-130960715D02*
X-28981903Y-130865477D01*
X-29362855Y-131151191D02*
X-29219998Y-130960715D01*
X-29219998Y-130960715D02*
X-29077141Y-131151191D01*
X-28458093Y-130722620D02*
X-28458093Y-130960715D01*
X-28696188Y-130865477D02*
X-28458093Y-130960715D01*
X-28458093Y-130960715D02*
X-28219998Y-130865477D01*
X-28600950Y-131151191D02*
X-28458093Y-130960715D01*
X-28458093Y-130960715D02*
X-28315236Y-131151191D01*
X307786667Y-132082620D02*
X307453334Y-131606429D01*
X307215239Y-132082620D02*
X307215239Y-131082620D01*
X307215239Y-131082620D02*
X307596191Y-131082620D01*
X307596191Y-131082620D02*
X307691429Y-131130239D01*
X307691429Y-131130239D02*
X307739048Y-131177858D01*
X307739048Y-131177858D02*
X307786667Y-131273096D01*
X307786667Y-131273096D02*
X307786667Y-131415953D01*
X307786667Y-131415953D02*
X307739048Y-131511191D01*
X307739048Y-131511191D02*
X307691429Y-131558810D01*
X307691429Y-131558810D02*
X307596191Y-131606429D01*
X307596191Y-131606429D02*
X307215239Y-131606429D01*
X308215239Y-131558810D02*
X308548572Y-131558810D01*
X308691429Y-132082620D02*
X308215239Y-132082620D01*
X308215239Y-132082620D02*
X308215239Y-131082620D01*
X308215239Y-131082620D02*
X308691429Y-131082620D01*
X309453334Y-131558810D02*
X309120001Y-131558810D01*
X309120001Y-132082620D02*
X309120001Y-131082620D01*
X309120001Y-131082620D02*
X309596191Y-131082620D01*
X310120001Y-131082620D02*
X310120001Y-131320715D01*
X309881906Y-131225477D02*
X310120001Y-131320715D01*
X310120001Y-131320715D02*
X310358096Y-131225477D01*
X309977144Y-131511191D02*
X310120001Y-131320715D01*
X310120001Y-131320715D02*
X310262858Y-131511191D01*
X310881906Y-131082620D02*
X310881906Y-131320715D01*
X310643811Y-131225477D02*
X310881906Y-131320715D01*
X310881906Y-131320715D02*
X311120001Y-131225477D01*
X310739049Y-131511191D02*
X310881906Y-131320715D01*
X310881906Y-131320715D02*
X311024763Y-131511191D01*
X118769167Y-57912620D02*
X118435834Y-57436429D01*
X118197739Y-57912620D02*
X118197739Y-56912620D01*
X118197739Y-56912620D02*
X118578691Y-56912620D01*
X118578691Y-56912620D02*
X118673929Y-56960239D01*
X118673929Y-56960239D02*
X118721548Y-57007858D01*
X118721548Y-57007858D02*
X118769167Y-57103096D01*
X118769167Y-57103096D02*
X118769167Y-57245953D01*
X118769167Y-57245953D02*
X118721548Y-57341191D01*
X118721548Y-57341191D02*
X118673929Y-57388810D01*
X118673929Y-57388810D02*
X118578691Y-57436429D01*
X118578691Y-57436429D02*
X118197739Y-57436429D01*
X119197739Y-57388810D02*
X119531072Y-57388810D01*
X119673929Y-57912620D02*
X119197739Y-57912620D01*
X119197739Y-57912620D02*
X119197739Y-56912620D01*
X119197739Y-56912620D02*
X119673929Y-56912620D01*
X120435834Y-57388810D02*
X120102501Y-57388810D01*
X120102501Y-57912620D02*
X120102501Y-56912620D01*
X120102501Y-56912620D02*
X120578691Y-56912620D01*
X121102501Y-56912620D02*
X121102501Y-57150715D01*
X120864406Y-57055477D02*
X121102501Y-57150715D01*
X121102501Y-57150715D02*
X121340596Y-57055477D01*
X120959644Y-57341191D02*
X121102501Y-57150715D01*
X121102501Y-57150715D02*
X121245358Y-57341191D01*
X121864406Y-56912620D02*
X121864406Y-57150715D01*
X121626311Y-57055477D02*
X121864406Y-57150715D01*
X121864406Y-57150715D02*
X122102501Y-57055477D01*
X121721549Y-57341191D02*
X121864406Y-57150715D01*
X121864406Y-57150715D02*
X122007263Y-57341191D01*
X-32363332Y-56242620D02*
X-32696665Y-55766429D01*
X-32934760Y-56242620D02*
X-32934760Y-55242620D01*
X-32934760Y-55242620D02*
X-32553808Y-55242620D01*
X-32553808Y-55242620D02*
X-32458570Y-55290239D01*
X-32458570Y-55290239D02*
X-32410951Y-55337858D01*
X-32410951Y-55337858D02*
X-32363332Y-55433096D01*
X-32363332Y-55433096D02*
X-32363332Y-55575953D01*
X-32363332Y-55575953D02*
X-32410951Y-55671191D01*
X-32410951Y-55671191D02*
X-32458570Y-55718810D01*
X-32458570Y-55718810D02*
X-32553808Y-55766429D01*
X-32553808Y-55766429D02*
X-32934760Y-55766429D01*
X-31934760Y-55718810D02*
X-31601427Y-55718810D01*
X-31458570Y-56242620D02*
X-31934760Y-56242620D01*
X-31934760Y-56242620D02*
X-31934760Y-55242620D01*
X-31934760Y-55242620D02*
X-31458570Y-55242620D01*
X-30696665Y-55718810D02*
X-31029998Y-55718810D01*
X-31029998Y-56242620D02*
X-31029998Y-55242620D01*
X-31029998Y-55242620D02*
X-30553808Y-55242620D01*
X-30029998Y-55242620D02*
X-30029998Y-55480715D01*
X-30268093Y-55385477D02*
X-30029998Y-55480715D01*
X-30029998Y-55480715D02*
X-29791903Y-55385477D01*
X-30172855Y-55671191D02*
X-30029998Y-55480715D01*
X-30029998Y-55480715D02*
X-29887141Y-55671191D01*
X-29268093Y-55242620D02*
X-29268093Y-55480715D01*
X-29506188Y-55385477D02*
X-29268093Y-55480715D01*
X-29268093Y-55480715D02*
X-29029998Y-55385477D01*
X-29410950Y-55671191D02*
X-29268093Y-55480715D01*
X-29268093Y-55480715D02*
X-29125236Y-55671191D01*
%TD*%
M02*
