%TF.GenerationSoftware,KiCad,Pcbnew,7.0.1*%
%TF.CreationDate,2023-03-31T11:37:31-07:00*%
%TF.ProjectId,leaf springs,6c656166-2073-4707-9269-6e67732e6b69,rev?*%
%TF.SameCoordinates,Original*%
%TF.FileFunction,Copper,L2,Bot*%
%TF.FilePolarity,Positive*%
%FSLAX46Y46*%
G04 Gerber Fmt 4.6, Leading zero omitted, Abs format (unit mm)*
G04 Created by KiCad (PCBNEW 7.0.1) date 2023-03-31 11:37:31*
%MOMM*%
%LPD*%
G01*
G04 APERTURE LIST*
G04 APERTURE END LIST*
%TA.AperFunction,NonConductor*%
G36*
X207667500Y-46577113D02*
G01*
X207712887Y-46622500D01*
X207729500Y-46684500D01*
X207729500Y-97225500D01*
X207712887Y-97287500D01*
X207667500Y-97332887D01*
X207605500Y-97349500D01*
X119474500Y-97349500D01*
X119412500Y-97332887D01*
X119367113Y-97287500D01*
X119350500Y-97225500D01*
X119350500Y-93100000D01*
X120929459Y-93100000D01*
X120929500Y-93100099D01*
X120929617Y-93100383D01*
X120929618Y-93100384D01*
X120929808Y-93100462D01*
X120930000Y-93100541D01*
X120930002Y-93100539D01*
X120954616Y-93100524D01*
X120954616Y-93100528D01*
X120954760Y-93100500D01*
X206005240Y-93100500D01*
X206005383Y-93100528D01*
X206005384Y-93100524D01*
X206029997Y-93100539D01*
X206030000Y-93100541D01*
X206030383Y-93100383D01*
X206030500Y-93100099D01*
X206030541Y-93100000D01*
X206030541Y-93075446D01*
X206030500Y-93075240D01*
X206030500Y-51734760D01*
X206030528Y-51734616D01*
X206030524Y-51734616D01*
X206030539Y-51710002D01*
X206030541Y-51710000D01*
X206030462Y-51709808D01*
X206030384Y-51709618D01*
X206030380Y-51709614D01*
X206030194Y-51709538D01*
X206030002Y-51709459D01*
X206005446Y-51709459D01*
X206005240Y-51709500D01*
X120954760Y-51709500D01*
X120954554Y-51709459D01*
X120929998Y-51709459D01*
X120929807Y-51709538D01*
X120929619Y-51709615D01*
X120929615Y-51709618D01*
X120929459Y-51709999D01*
X120929476Y-51734616D01*
X120929471Y-51734616D01*
X120929500Y-51734760D01*
X120929500Y-93075240D01*
X120929459Y-93075446D01*
X120929459Y-93100000D01*
X119350500Y-93100000D01*
X119350500Y-46684500D01*
X119367113Y-46622500D01*
X119412500Y-46577113D01*
X119474500Y-46560500D01*
X207605500Y-46560500D01*
X207667500Y-46577113D01*
G37*
%TD.AperFunction*%
%TA.AperFunction,NonConductor*%
G36*
X126493379Y-52187490D02*
G01*
X126673908Y-52197628D01*
X126686309Y-52198955D01*
X126834990Y-52222504D01*
X126836245Y-52222709D01*
X126995324Y-52249738D01*
X127006606Y-52252202D01*
X127155635Y-52292134D01*
X127157761Y-52292725D01*
X127309174Y-52336347D01*
X127319260Y-52339729D01*
X127464710Y-52395562D01*
X127467599Y-52396714D01*
X127611768Y-52456430D01*
X127620589Y-52460497D01*
X127638714Y-52469733D01*
X127760064Y-52531565D01*
X127763748Y-52533521D01*
X127845171Y-52578521D01*
X127899548Y-52608574D01*
X127907061Y-52613081D01*
X128038754Y-52698604D01*
X128042947Y-52701452D01*
X128169147Y-52790996D01*
X128175426Y-52795757D01*
X128295635Y-52893101D01*
X128297567Y-52894665D01*
X128302154Y-52898567D01*
X128375939Y-52964506D01*
X128417424Y-53001579D01*
X128422478Y-53006358D01*
X128533640Y-53117520D01*
X128538419Y-53122574D01*
X128641427Y-53237840D01*
X128645333Y-53242431D01*
X128744239Y-53364570D01*
X128749002Y-53370851D01*
X128838546Y-53497051D01*
X128841409Y-53501266D01*
X128926907Y-53632921D01*
X128931430Y-53640460D01*
X129006477Y-53776250D01*
X129008433Y-53779934D01*
X129079498Y-53919404D01*
X129083575Y-53928247D01*
X129143259Y-54072337D01*
X129144462Y-54075353D01*
X129200265Y-54220727D01*
X129203655Y-54230836D01*
X129247258Y-54382185D01*
X129247879Y-54384419D01*
X129287791Y-54533370D01*
X129290264Y-54544694D01*
X129317282Y-54703715D01*
X129317507Y-54705087D01*
X129341040Y-54853666D01*
X129342372Y-54866111D01*
X129352498Y-55046421D01*
X129352523Y-55046884D01*
X129359330Y-55176757D01*
X129359500Y-55183247D01*
X129359500Y-89176753D01*
X129359330Y-89183243D01*
X129352523Y-89313114D01*
X129352498Y-89313577D01*
X129342372Y-89493887D01*
X129341040Y-89506332D01*
X129317507Y-89654911D01*
X129317282Y-89656283D01*
X129290264Y-89815304D01*
X129287791Y-89826628D01*
X129247879Y-89975579D01*
X129247258Y-89977813D01*
X129203655Y-90129162D01*
X129200265Y-90139271D01*
X129144462Y-90284645D01*
X129143259Y-90287661D01*
X129083575Y-90431751D01*
X129079498Y-90440594D01*
X129008433Y-90580064D01*
X129006477Y-90583748D01*
X128931430Y-90719538D01*
X128926897Y-90727094D01*
X128841412Y-90858728D01*
X128838546Y-90862947D01*
X128749002Y-90989147D01*
X128744239Y-90995428D01*
X128645333Y-91117567D01*
X128641427Y-91122158D01*
X128538419Y-91237424D01*
X128533640Y-91242478D01*
X128422478Y-91353640D01*
X128417424Y-91358419D01*
X128302158Y-91461427D01*
X128297567Y-91465333D01*
X128175428Y-91564239D01*
X128169147Y-91569002D01*
X128042947Y-91658546D01*
X128038728Y-91661412D01*
X127907094Y-91746897D01*
X127899538Y-91751430D01*
X127763748Y-91826477D01*
X127760064Y-91828433D01*
X127620594Y-91899498D01*
X127611751Y-91903575D01*
X127467661Y-91963259D01*
X127464645Y-91964462D01*
X127319271Y-92020265D01*
X127309162Y-92023655D01*
X127157813Y-92067258D01*
X127155579Y-92067879D01*
X127006628Y-92107791D01*
X126995304Y-92110264D01*
X126836283Y-92137282D01*
X126834911Y-92137507D01*
X126686332Y-92161040D01*
X126673887Y-92162372D01*
X126493577Y-92172498D01*
X126493114Y-92172523D01*
X126366489Y-92179159D01*
X126353509Y-92179159D01*
X126226884Y-92172523D01*
X126226421Y-92172498D01*
X126046111Y-92162372D01*
X126033666Y-92161040D01*
X125885087Y-92137507D01*
X125883715Y-92137282D01*
X125724694Y-92110264D01*
X125713370Y-92107791D01*
X125564419Y-92067879D01*
X125562185Y-92067258D01*
X125410836Y-92023655D01*
X125400727Y-92020265D01*
X125255353Y-91964462D01*
X125252337Y-91963259D01*
X125108247Y-91903575D01*
X125099404Y-91899498D01*
X124959934Y-91828433D01*
X124956250Y-91826477D01*
X124820460Y-91751430D01*
X124812921Y-91746907D01*
X124681266Y-91661409D01*
X124677051Y-91658546D01*
X124550851Y-91569002D01*
X124544570Y-91564239D01*
X124422431Y-91465333D01*
X124417840Y-91461427D01*
X124302574Y-91358419D01*
X124297520Y-91353640D01*
X124186358Y-91242478D01*
X124181579Y-91237424D01*
X124152986Y-91205428D01*
X124078567Y-91122154D01*
X124074665Y-91117567D01*
X124024241Y-91055299D01*
X123975757Y-90995426D01*
X123970996Y-90989147D01*
X123881452Y-90862947D01*
X123878604Y-90858754D01*
X123793081Y-90727061D01*
X123788568Y-90719538D01*
X123785365Y-90713743D01*
X123758461Y-90665063D01*
X123713521Y-90583748D01*
X123711565Y-90580064D01*
X123652968Y-90465063D01*
X123640497Y-90440589D01*
X123636430Y-90431768D01*
X123576714Y-90287599D01*
X123575562Y-90284710D01*
X123519729Y-90139260D01*
X123516347Y-90129174D01*
X123472725Y-89977761D01*
X123472134Y-89975635D01*
X123432202Y-89826606D01*
X123429738Y-89815324D01*
X123402709Y-89656245D01*
X123402491Y-89654911D01*
X123378955Y-89506309D01*
X123377628Y-89493908D01*
X123367483Y-89313243D01*
X123367476Y-89313114D01*
X123360669Y-89183243D01*
X123360500Y-89176755D01*
X123360500Y-89050000D01*
X124994340Y-89050000D01*
X125014936Y-89285407D01*
X125063661Y-89467250D01*
X125076097Y-89513663D01*
X125175965Y-89727829D01*
X125311505Y-89921401D01*
X125478599Y-90088495D01*
X125672171Y-90224035D01*
X125886337Y-90323903D01*
X126114592Y-90385063D01*
X126291032Y-90400500D01*
X126291034Y-90400500D01*
X126408966Y-90400500D01*
X126408968Y-90400500D01*
X126526593Y-90390208D01*
X126585408Y-90385063D01*
X126813663Y-90323903D01*
X127027829Y-90224035D01*
X127221401Y-90088495D01*
X127388495Y-89921401D01*
X127524035Y-89727830D01*
X127623903Y-89513663D01*
X127685063Y-89285408D01*
X127705659Y-89050000D01*
X127685063Y-88814592D01*
X127623903Y-88586337D01*
X127524035Y-88372171D01*
X127388495Y-88178599D01*
X127221401Y-88011505D01*
X127027829Y-87875965D01*
X126813663Y-87776097D01*
X126585407Y-87714936D01*
X126408968Y-87699500D01*
X126408966Y-87699500D01*
X126291034Y-87699500D01*
X126291032Y-87699500D01*
X126114592Y-87714936D01*
X125886336Y-87776097D01*
X125672170Y-87875965D01*
X125478598Y-88011505D01*
X125311508Y-88178595D01*
X125311505Y-88178598D01*
X125311505Y-88178599D01*
X125198362Y-88340185D01*
X125175964Y-88372172D01*
X125076097Y-88586337D01*
X125014936Y-88814592D01*
X124994340Y-89050000D01*
X123360500Y-89050000D01*
X123360500Y-55577764D01*
X124515787Y-55577764D01*
X124545413Y-55847016D01*
X124577987Y-55971613D01*
X124613928Y-56109088D01*
X124719870Y-56358390D01*
X124719871Y-56358392D01*
X124860982Y-56589611D01*
X125027423Y-56789611D01*
X125034255Y-56797820D01*
X125235998Y-56978582D01*
X125461910Y-57128044D01*
X125555438Y-57171888D01*
X125707177Y-57243021D01*
X125963089Y-57320013D01*
X125966569Y-57321060D01*
X126234561Y-57360500D01*
X126437631Y-57360500D01*
X126437634Y-57360500D01*
X126640156Y-57345677D01*
X126665578Y-57340014D01*
X126904553Y-57286780D01*
X127157558Y-57190014D01*
X127393777Y-57057441D01*
X127608177Y-56891888D01*
X127796186Y-56696881D01*
X127953799Y-56476579D01*
X128077656Y-56235675D01*
X128165118Y-55979305D01*
X128214319Y-55712933D01*
X128224212Y-55442235D01*
X128194586Y-55172982D01*
X128126072Y-54910912D01*
X128020130Y-54661610D01*
X127941143Y-54532185D01*
X127879017Y-54430388D01*
X127705746Y-54222181D01*
X127704019Y-54220634D01*
X127504002Y-54041418D01*
X127278090Y-53891956D01*
X127277305Y-53891588D01*
X127032822Y-53776978D01*
X126773437Y-53698941D01*
X126773431Y-53698940D01*
X126505439Y-53659500D01*
X126302369Y-53659500D01*
X126302366Y-53659500D01*
X126099843Y-53674322D01*
X125835449Y-53733219D01*
X125582441Y-53829986D01*
X125346223Y-53962559D01*
X125131825Y-54128109D01*
X124943813Y-54323120D01*
X124786201Y-54543420D01*
X124662342Y-54784329D01*
X124574881Y-55040695D01*
X124525680Y-55307066D01*
X124515787Y-55577764D01*
X123360500Y-55577764D01*
X123360500Y-55183245D01*
X123360670Y-55176756D01*
X123363283Y-55126898D01*
X123367501Y-55046421D01*
X123377628Y-54866087D01*
X123378954Y-54853694D01*
X123402513Y-54704947D01*
X123402700Y-54703809D01*
X123429739Y-54544666D01*
X123432199Y-54533402D01*
X123472150Y-54384305D01*
X123472709Y-54382293D01*
X123516351Y-54230811D01*
X123519724Y-54220753D01*
X123575583Y-54075233D01*
X123576692Y-54072452D01*
X123636439Y-53928212D01*
X123640488Y-53919429D01*
X123711569Y-53779925D01*
X123713521Y-53776250D01*
X123716721Y-53770460D01*
X123788588Y-53640426D01*
X123793065Y-53632962D01*
X123878633Y-53501199D01*
X123881434Y-53497077D01*
X123971010Y-53370832D01*
X123975733Y-53364603D01*
X124074702Y-53242386D01*
X124078532Y-53237885D01*
X124181613Y-53122537D01*
X124186323Y-53117556D01*
X124297556Y-53006323D01*
X124302537Y-53001613D01*
X124417885Y-52898532D01*
X124422386Y-52894702D01*
X124544603Y-52795733D01*
X124550832Y-52791010D01*
X124677077Y-52701434D01*
X124681199Y-52698633D01*
X124812962Y-52613065D01*
X124820426Y-52608588D01*
X124956255Y-52533517D01*
X124959934Y-52531565D01*
X125099429Y-52460488D01*
X125108212Y-52456439D01*
X125252452Y-52396692D01*
X125255233Y-52395583D01*
X125400753Y-52339724D01*
X125410811Y-52336351D01*
X125562293Y-52292709D01*
X125564305Y-52292150D01*
X125713402Y-52252199D01*
X125724666Y-52249739D01*
X125883809Y-52222700D01*
X125884947Y-52222513D01*
X126033694Y-52198954D01*
X126046087Y-52197628D01*
X126226554Y-52187493D01*
X126353513Y-52180840D01*
X126366487Y-52180840D01*
X126493379Y-52187490D01*
G37*
%TD.AperFunction*%
%TA.AperFunction,NonConductor*%
G36*
X134693379Y-52257490D02*
G01*
X134873908Y-52267628D01*
X134886309Y-52268955D01*
X135034990Y-52292504D01*
X135036245Y-52292709D01*
X135195324Y-52319738D01*
X135206606Y-52322202D01*
X135355635Y-52362134D01*
X135357761Y-52362725D01*
X135509174Y-52406347D01*
X135519260Y-52409729D01*
X135664710Y-52465562D01*
X135667599Y-52466714D01*
X135811768Y-52526430D01*
X135820589Y-52530497D01*
X135832263Y-52536446D01*
X135960064Y-52601565D01*
X135963748Y-52603521D01*
X136053848Y-52653316D01*
X136099548Y-52678574D01*
X136107061Y-52683081D01*
X136238754Y-52768604D01*
X136242947Y-52771452D01*
X136369147Y-52860996D01*
X136375426Y-52865757D01*
X136497370Y-52964506D01*
X136497567Y-52964665D01*
X136502154Y-52968567D01*
X136602990Y-53058680D01*
X136617424Y-53071579D01*
X136622478Y-53076358D01*
X136733640Y-53187520D01*
X136738419Y-53192574D01*
X136841427Y-53307840D01*
X136845333Y-53312431D01*
X136944239Y-53434570D01*
X136949002Y-53440851D01*
X137038546Y-53567051D01*
X137041409Y-53571266D01*
X137126907Y-53702921D01*
X137131430Y-53710460D01*
X137206477Y-53846250D01*
X137208433Y-53849934D01*
X137279498Y-53989404D01*
X137283575Y-53998247D01*
X137343259Y-54142337D01*
X137344462Y-54145353D01*
X137400265Y-54290727D01*
X137403655Y-54300836D01*
X137447258Y-54452185D01*
X137447879Y-54454419D01*
X137487791Y-54603370D01*
X137490264Y-54614694D01*
X137517282Y-54773715D01*
X137517507Y-54775087D01*
X137541040Y-54923666D01*
X137542372Y-54936111D01*
X137552498Y-55116421D01*
X137552523Y-55116884D01*
X137559330Y-55246757D01*
X137559500Y-55253247D01*
X137559500Y-89246753D01*
X137559330Y-89253243D01*
X137552523Y-89383114D01*
X137552498Y-89383577D01*
X137542372Y-89563887D01*
X137541040Y-89576332D01*
X137517507Y-89724911D01*
X137517282Y-89726283D01*
X137490264Y-89885304D01*
X137487791Y-89896628D01*
X137447879Y-90045579D01*
X137447258Y-90047813D01*
X137403655Y-90199162D01*
X137400265Y-90209271D01*
X137344462Y-90354645D01*
X137343259Y-90357661D01*
X137283575Y-90501751D01*
X137279498Y-90510594D01*
X137208433Y-90650064D01*
X137206477Y-90653748D01*
X137131430Y-90789538D01*
X137126897Y-90797094D01*
X137041412Y-90928728D01*
X137038546Y-90932947D01*
X136949002Y-91059147D01*
X136944239Y-91065428D01*
X136845333Y-91187567D01*
X136841427Y-91192158D01*
X136738419Y-91307424D01*
X136733640Y-91312478D01*
X136622478Y-91423640D01*
X136617424Y-91428419D01*
X136502158Y-91531427D01*
X136497567Y-91535333D01*
X136375428Y-91634239D01*
X136369147Y-91639002D01*
X136242947Y-91728546D01*
X136238728Y-91731412D01*
X136107094Y-91816897D01*
X136099538Y-91821430D01*
X135963748Y-91896477D01*
X135960064Y-91898433D01*
X135820594Y-91969498D01*
X135811751Y-91973575D01*
X135667661Y-92033259D01*
X135664645Y-92034462D01*
X135519271Y-92090265D01*
X135509162Y-92093655D01*
X135357813Y-92137258D01*
X135355579Y-92137879D01*
X135206628Y-92177791D01*
X135195304Y-92180264D01*
X135036283Y-92207282D01*
X135034911Y-92207507D01*
X134886332Y-92231040D01*
X134873887Y-92232372D01*
X134693577Y-92242498D01*
X134693114Y-92242523D01*
X134566489Y-92249159D01*
X134553509Y-92249159D01*
X134426884Y-92242523D01*
X134426421Y-92242498D01*
X134246111Y-92232372D01*
X134233666Y-92231040D01*
X134085087Y-92207507D01*
X134083715Y-92207282D01*
X133924694Y-92180264D01*
X133913370Y-92177791D01*
X133764419Y-92137879D01*
X133762185Y-92137258D01*
X133610836Y-92093655D01*
X133600727Y-92090265D01*
X133455353Y-92034462D01*
X133452337Y-92033259D01*
X133308247Y-91973575D01*
X133299404Y-91969498D01*
X133159934Y-91898433D01*
X133156250Y-91896477D01*
X133020460Y-91821430D01*
X133012921Y-91816907D01*
X132881266Y-91731409D01*
X132877051Y-91728546D01*
X132750851Y-91639002D01*
X132744570Y-91634239D01*
X132622431Y-91535333D01*
X132617840Y-91531427D01*
X132502574Y-91428419D01*
X132497520Y-91423640D01*
X132386358Y-91312478D01*
X132381579Y-91307424D01*
X132352986Y-91275428D01*
X132278567Y-91192154D01*
X132274665Y-91187567D01*
X132246723Y-91153062D01*
X132175757Y-91065426D01*
X132170996Y-91059147D01*
X132081452Y-90932947D01*
X132078604Y-90928754D01*
X131993081Y-90797061D01*
X131988568Y-90789538D01*
X131913521Y-90653748D01*
X131911565Y-90650064D01*
X131850392Y-90530007D01*
X131840497Y-90510589D01*
X131836430Y-90501768D01*
X131776714Y-90357599D01*
X131775562Y-90354710D01*
X131719729Y-90209260D01*
X131716347Y-90199174D01*
X131672725Y-90047761D01*
X131672134Y-90045635D01*
X131632202Y-89896606D01*
X131629738Y-89885324D01*
X131602709Y-89726245D01*
X131602491Y-89724911D01*
X131578955Y-89576309D01*
X131577628Y-89563908D01*
X131567483Y-89383243D01*
X131567476Y-89383114D01*
X131560669Y-89253243D01*
X131560500Y-89246755D01*
X131560500Y-89119999D01*
X133194340Y-89119999D01*
X133214936Y-89355407D01*
X133257341Y-89513663D01*
X133276097Y-89583663D01*
X133375965Y-89797829D01*
X133511505Y-89991401D01*
X133678599Y-90158495D01*
X133872171Y-90294035D01*
X134086337Y-90393903D01*
X134310259Y-90453902D01*
X134314592Y-90455063D01*
X134491032Y-90470500D01*
X134491034Y-90470500D01*
X134608966Y-90470500D01*
X134608968Y-90470500D01*
X134726594Y-90460208D01*
X134785408Y-90455063D01*
X135013663Y-90393903D01*
X135227829Y-90294035D01*
X135421401Y-90158495D01*
X135588495Y-89991401D01*
X135724035Y-89797830D01*
X135823903Y-89583663D01*
X135885063Y-89355408D01*
X135905659Y-89120000D01*
X135885063Y-88884592D01*
X135823903Y-88656337D01*
X135724035Y-88442171D01*
X135588495Y-88248599D01*
X135421401Y-88081505D01*
X135227829Y-87945965D01*
X135013663Y-87846097D01*
X135009330Y-87844936D01*
X134785407Y-87784936D01*
X134608968Y-87769500D01*
X134608966Y-87769500D01*
X134491034Y-87769500D01*
X134491032Y-87769500D01*
X134314592Y-87784936D01*
X134086336Y-87846097D01*
X133872170Y-87945965D01*
X133678598Y-88081505D01*
X133511508Y-88248595D01*
X133511505Y-88248598D01*
X133511505Y-88248599D01*
X133379391Y-88437278D01*
X133375964Y-88442172D01*
X133276097Y-88656337D01*
X133214936Y-88884592D01*
X133194340Y-89119999D01*
X131560500Y-89119999D01*
X131560500Y-55647764D01*
X132715787Y-55647764D01*
X132745413Y-55917016D01*
X132777987Y-56041613D01*
X132813928Y-56179088D01*
X132919870Y-56428390D01*
X132919871Y-56428392D01*
X133060982Y-56659611D01*
X133218002Y-56848290D01*
X133234255Y-56867820D01*
X133435998Y-57048582D01*
X133661910Y-57198044D01*
X133757855Y-57243021D01*
X133907177Y-57313021D01*
X134152160Y-57386725D01*
X134166569Y-57391060D01*
X134434561Y-57430500D01*
X134637631Y-57430500D01*
X134637634Y-57430500D01*
X134840156Y-57415677D01*
X134874417Y-57408045D01*
X135104553Y-57356780D01*
X135357558Y-57260014D01*
X135593777Y-57127441D01*
X135808177Y-56961888D01*
X135996186Y-56766881D01*
X136153799Y-56546579D01*
X136277656Y-56305675D01*
X136365118Y-56049305D01*
X136414319Y-55782933D01*
X136424212Y-55512235D01*
X136394586Y-55242982D01*
X136326072Y-54980912D01*
X136220130Y-54731610D01*
X136128701Y-54581799D01*
X136079017Y-54500388D01*
X135905746Y-54292181D01*
X135898125Y-54285353D01*
X135704002Y-54111418D01*
X135478090Y-53961956D01*
X135477305Y-53961588D01*
X135232822Y-53846978D01*
X134973437Y-53768941D01*
X134973431Y-53768940D01*
X134705439Y-53729500D01*
X134502369Y-53729500D01*
X134502366Y-53729500D01*
X134299843Y-53744322D01*
X134035449Y-53803219D01*
X133782441Y-53899986D01*
X133546223Y-54032559D01*
X133331825Y-54198109D01*
X133143813Y-54393120D01*
X132986201Y-54613420D01*
X132862342Y-54854329D01*
X132774881Y-55110695D01*
X132725680Y-55377066D01*
X132715787Y-55647764D01*
X131560500Y-55647764D01*
X131560500Y-55253245D01*
X131560670Y-55246756D01*
X131563283Y-55196898D01*
X131567501Y-55116421D01*
X131577628Y-54936087D01*
X131578954Y-54923694D01*
X131602513Y-54774947D01*
X131602700Y-54773809D01*
X131629739Y-54614666D01*
X131632199Y-54603402D01*
X131672150Y-54454305D01*
X131672709Y-54452293D01*
X131716351Y-54300811D01*
X131719724Y-54290753D01*
X131775583Y-54145233D01*
X131776692Y-54142452D01*
X131836439Y-53998212D01*
X131840488Y-53989429D01*
X131911569Y-53849925D01*
X131913521Y-53846250D01*
X131924419Y-53826531D01*
X131988588Y-53710426D01*
X131993065Y-53702962D01*
X132078633Y-53571199D01*
X132081434Y-53567077D01*
X132171010Y-53440832D01*
X132175733Y-53434603D01*
X132274702Y-53312386D01*
X132278532Y-53307885D01*
X132381613Y-53192537D01*
X132386323Y-53187556D01*
X132497556Y-53076323D01*
X132502537Y-53071613D01*
X132617885Y-52968532D01*
X132622386Y-52964702D01*
X132744603Y-52865733D01*
X132750832Y-52861010D01*
X132877077Y-52771434D01*
X132881199Y-52768633D01*
X133012962Y-52683065D01*
X133020426Y-52678588D01*
X133156255Y-52603517D01*
X133159934Y-52601565D01*
X133165808Y-52598572D01*
X133299429Y-52530488D01*
X133308212Y-52526439D01*
X133452452Y-52466692D01*
X133455233Y-52465583D01*
X133600753Y-52409724D01*
X133610811Y-52406351D01*
X133762293Y-52362709D01*
X133764305Y-52362150D01*
X133913402Y-52322199D01*
X133924666Y-52319739D01*
X134083809Y-52292700D01*
X134084947Y-52292513D01*
X134233694Y-52268954D01*
X134246087Y-52267628D01*
X134426554Y-52257493D01*
X134553513Y-52250840D01*
X134566487Y-52250840D01*
X134693379Y-52257490D01*
G37*
%TD.AperFunction*%
%TA.AperFunction,NonConductor*%
G36*
X142743379Y-52267490D02*
G01*
X142923908Y-52277628D01*
X142936309Y-52278955D01*
X143084990Y-52302504D01*
X143086245Y-52302709D01*
X143245324Y-52329738D01*
X143256606Y-52332202D01*
X143405635Y-52372134D01*
X143407761Y-52372725D01*
X143559174Y-52416347D01*
X143569260Y-52419729D01*
X143714710Y-52475562D01*
X143717599Y-52476714D01*
X143861768Y-52536430D01*
X143870589Y-52540497D01*
X143890926Y-52550860D01*
X144010064Y-52611565D01*
X144013748Y-52613521D01*
X144087414Y-52654234D01*
X144149548Y-52688574D01*
X144157061Y-52693081D01*
X144288754Y-52778604D01*
X144292947Y-52781452D01*
X144419147Y-52870996D01*
X144425426Y-52875757D01*
X144540036Y-52968567D01*
X144547567Y-52974665D01*
X144552154Y-52978567D01*
X144641800Y-53058680D01*
X144667424Y-53081579D01*
X144672478Y-53086358D01*
X144783640Y-53197520D01*
X144788419Y-53202574D01*
X144891427Y-53317840D01*
X144895333Y-53322431D01*
X144994239Y-53444570D01*
X144999002Y-53450851D01*
X145088546Y-53577051D01*
X145091409Y-53581266D01*
X145176907Y-53712921D01*
X145181430Y-53720460D01*
X145256477Y-53856250D01*
X145258433Y-53859934D01*
X145329498Y-53999404D01*
X145333575Y-54008247D01*
X145393259Y-54152337D01*
X145394462Y-54155353D01*
X145450265Y-54300727D01*
X145453655Y-54310836D01*
X145497258Y-54462185D01*
X145497879Y-54464419D01*
X145537791Y-54613370D01*
X145540264Y-54624694D01*
X145567282Y-54783715D01*
X145567507Y-54785087D01*
X145591040Y-54933666D01*
X145592372Y-54946111D01*
X145602498Y-55126421D01*
X145602523Y-55126884D01*
X145609330Y-55256757D01*
X145609500Y-55263247D01*
X145609500Y-89256753D01*
X145609330Y-89263243D01*
X145602523Y-89393114D01*
X145602498Y-89393577D01*
X145592372Y-89573887D01*
X145591040Y-89586332D01*
X145567507Y-89734911D01*
X145567282Y-89736283D01*
X145540264Y-89895304D01*
X145537791Y-89906628D01*
X145497879Y-90055579D01*
X145497258Y-90057813D01*
X145453655Y-90209162D01*
X145450265Y-90219271D01*
X145394462Y-90364645D01*
X145393259Y-90367661D01*
X145333575Y-90511751D01*
X145329498Y-90520594D01*
X145258433Y-90660064D01*
X145256477Y-90663748D01*
X145181430Y-90799538D01*
X145176897Y-90807094D01*
X145091412Y-90938728D01*
X145088546Y-90942947D01*
X144999002Y-91069147D01*
X144994239Y-91075428D01*
X144895333Y-91197567D01*
X144891427Y-91202158D01*
X144788419Y-91317424D01*
X144783640Y-91322478D01*
X144672478Y-91433640D01*
X144667424Y-91438419D01*
X144552158Y-91541427D01*
X144547567Y-91545333D01*
X144425428Y-91644239D01*
X144419147Y-91649002D01*
X144292947Y-91738546D01*
X144288728Y-91741412D01*
X144157094Y-91826897D01*
X144149538Y-91831430D01*
X144013748Y-91906477D01*
X144010064Y-91908433D01*
X143870594Y-91979498D01*
X143861751Y-91983575D01*
X143717661Y-92043259D01*
X143714645Y-92044462D01*
X143569271Y-92100265D01*
X143559162Y-92103655D01*
X143407813Y-92147258D01*
X143405579Y-92147879D01*
X143256628Y-92187791D01*
X143245304Y-92190264D01*
X143086283Y-92217282D01*
X143084911Y-92217507D01*
X142936332Y-92241040D01*
X142923887Y-92242372D01*
X142743577Y-92252498D01*
X142743114Y-92252523D01*
X142616489Y-92259159D01*
X142603509Y-92259159D01*
X142476884Y-92252523D01*
X142476421Y-92252498D01*
X142296111Y-92242372D01*
X142283666Y-92241040D01*
X142135087Y-92217507D01*
X142133715Y-92217282D01*
X141974694Y-92190264D01*
X141963370Y-92187791D01*
X141814419Y-92147879D01*
X141812185Y-92147258D01*
X141660836Y-92103655D01*
X141650727Y-92100265D01*
X141505353Y-92044462D01*
X141502337Y-92043259D01*
X141358247Y-91983575D01*
X141349404Y-91979498D01*
X141209934Y-91908433D01*
X141206250Y-91906477D01*
X141070460Y-91831430D01*
X141062921Y-91826907D01*
X140931266Y-91741409D01*
X140927051Y-91738546D01*
X140800851Y-91649002D01*
X140794570Y-91644239D01*
X140672431Y-91545333D01*
X140667840Y-91541427D01*
X140552574Y-91438419D01*
X140547520Y-91433640D01*
X140436358Y-91322478D01*
X140431579Y-91317424D01*
X140424189Y-91309155D01*
X140328567Y-91202154D01*
X140324665Y-91197567D01*
X140319869Y-91191645D01*
X140225757Y-91075426D01*
X140220996Y-91069147D01*
X140131452Y-90942947D01*
X140128604Y-90938754D01*
X140043081Y-90807061D01*
X140038568Y-90799538D01*
X140037217Y-90797094D01*
X139991154Y-90713748D01*
X139963521Y-90663748D01*
X139961565Y-90660064D01*
X139898737Y-90536759D01*
X139890497Y-90520589D01*
X139886430Y-90511768D01*
X139826714Y-90367599D01*
X139825562Y-90364710D01*
X139769729Y-90219260D01*
X139766347Y-90209174D01*
X139722725Y-90057761D01*
X139722134Y-90055635D01*
X139682202Y-89906606D01*
X139679738Y-89895324D01*
X139652709Y-89736245D01*
X139652491Y-89734911D01*
X139628955Y-89586309D01*
X139627628Y-89573908D01*
X139617483Y-89393243D01*
X139617476Y-89393114D01*
X139610669Y-89263243D01*
X139610500Y-89256755D01*
X139610500Y-89130000D01*
X141244340Y-89130000D01*
X141264936Y-89365407D01*
X141313661Y-89547250D01*
X141326097Y-89593663D01*
X141425965Y-89807829D01*
X141561505Y-90001401D01*
X141728599Y-90168495D01*
X141922171Y-90304035D01*
X142136337Y-90403903D01*
X142322942Y-90453903D01*
X142364592Y-90465063D01*
X142541032Y-90480500D01*
X142541034Y-90480500D01*
X142658966Y-90480500D01*
X142658968Y-90480500D01*
X142802364Y-90467954D01*
X142835408Y-90465063D01*
X143063663Y-90403903D01*
X143277829Y-90304035D01*
X143471401Y-90168495D01*
X143638495Y-90001401D01*
X143774035Y-89807830D01*
X143873903Y-89593663D01*
X143935063Y-89365408D01*
X143955659Y-89130000D01*
X143935063Y-88894592D01*
X143873903Y-88666337D01*
X143774035Y-88452171D01*
X143638495Y-88258599D01*
X143471401Y-88091505D01*
X143277829Y-87955965D01*
X143063663Y-87856097D01*
X143063662Y-87856096D01*
X142835407Y-87794936D01*
X142658968Y-87779500D01*
X142658966Y-87779500D01*
X142541034Y-87779500D01*
X142541032Y-87779500D01*
X142364592Y-87794936D01*
X142136336Y-87856097D01*
X141922170Y-87955965D01*
X141728598Y-88091505D01*
X141561508Y-88258595D01*
X141561505Y-88258598D01*
X141561505Y-88258599D01*
X141432967Y-88442171D01*
X141425964Y-88452172D01*
X141326097Y-88666337D01*
X141264936Y-88894592D01*
X141244340Y-89130000D01*
X139610500Y-89130000D01*
X139610500Y-55657764D01*
X140765787Y-55657764D01*
X140795413Y-55927016D01*
X140826786Y-56047018D01*
X140863928Y-56189088D01*
X140965621Y-56428392D01*
X140969871Y-56438392D01*
X141110982Y-56669611D01*
X141277423Y-56869611D01*
X141284255Y-56877820D01*
X141485998Y-57058582D01*
X141711910Y-57208044D01*
X141774238Y-57237262D01*
X141957177Y-57323021D01*
X142213089Y-57400013D01*
X142216569Y-57401060D01*
X142484561Y-57440500D01*
X142687631Y-57440500D01*
X142687634Y-57440500D01*
X142890156Y-57425677D01*
X142890155Y-57425677D01*
X143154553Y-57366780D01*
X143407558Y-57270014D01*
X143643777Y-57137441D01*
X143858177Y-56971888D01*
X144046186Y-56776881D01*
X144203799Y-56556579D01*
X144327656Y-56315675D01*
X144415118Y-56059305D01*
X144464319Y-55792933D01*
X144474212Y-55522235D01*
X144444586Y-55252982D01*
X144376072Y-54990912D01*
X144270130Y-54741610D01*
X144185763Y-54603370D01*
X144129017Y-54510388D01*
X143955746Y-54302181D01*
X143940663Y-54288667D01*
X143754002Y-54121418D01*
X143528090Y-53971956D01*
X143528086Y-53971954D01*
X143282822Y-53856978D01*
X143023437Y-53778941D01*
X143023431Y-53778940D01*
X142755439Y-53739500D01*
X142552369Y-53739500D01*
X142552366Y-53739500D01*
X142349843Y-53754322D01*
X142085449Y-53813219D01*
X141832441Y-53909986D01*
X141596223Y-54042559D01*
X141381825Y-54208109D01*
X141193813Y-54403120D01*
X141036201Y-54623420D01*
X140912342Y-54864329D01*
X140824881Y-55120695D01*
X140775680Y-55387066D01*
X140765787Y-55657764D01*
X139610500Y-55657764D01*
X139610500Y-55263245D01*
X139610670Y-55256756D01*
X139611512Y-55240695D01*
X139617501Y-55126421D01*
X139627628Y-54946087D01*
X139628954Y-54933694D01*
X139652513Y-54784947D01*
X139652700Y-54783809D01*
X139679739Y-54624666D01*
X139682199Y-54613402D01*
X139722150Y-54464305D01*
X139722709Y-54462293D01*
X139766351Y-54310811D01*
X139769724Y-54300753D01*
X139825583Y-54155233D01*
X139826692Y-54152452D01*
X139886439Y-54008212D01*
X139890488Y-53999429D01*
X139961569Y-53859925D01*
X139963521Y-53856250D01*
X139967012Y-53849934D01*
X140038588Y-53720426D01*
X140043065Y-53712962D01*
X140128633Y-53581199D01*
X140131434Y-53577077D01*
X140221010Y-53450832D01*
X140225733Y-53444603D01*
X140324702Y-53322386D01*
X140328532Y-53317885D01*
X140431613Y-53202537D01*
X140436323Y-53197556D01*
X140547556Y-53086323D01*
X140552537Y-53081613D01*
X140667885Y-52978532D01*
X140672386Y-52974702D01*
X140794603Y-52875733D01*
X140800832Y-52871010D01*
X140927077Y-52781434D01*
X140931199Y-52778633D01*
X141062962Y-52693065D01*
X141070426Y-52688588D01*
X141206255Y-52613517D01*
X141209934Y-52611565D01*
X141349429Y-52540488D01*
X141358212Y-52536439D01*
X141502452Y-52476692D01*
X141505233Y-52475583D01*
X141650753Y-52419724D01*
X141660811Y-52416351D01*
X141812293Y-52372709D01*
X141814305Y-52372150D01*
X141963402Y-52332199D01*
X141974666Y-52329739D01*
X142133809Y-52302700D01*
X142134947Y-52302513D01*
X142283694Y-52278954D01*
X142296087Y-52277628D01*
X142476554Y-52267493D01*
X142603513Y-52260840D01*
X142616487Y-52260840D01*
X142743379Y-52267490D01*
G37*
%TD.AperFunction*%
%TA.AperFunction,NonConductor*%
G36*
X158953379Y-52317490D02*
G01*
X159133908Y-52327628D01*
X159146309Y-52328955D01*
X159294990Y-52352504D01*
X159296245Y-52352709D01*
X159455324Y-52379738D01*
X159466606Y-52382202D01*
X159615635Y-52422134D01*
X159617761Y-52422725D01*
X159769174Y-52466347D01*
X159779260Y-52469729D01*
X159924710Y-52525562D01*
X159927599Y-52526714D01*
X160071768Y-52586430D01*
X160080589Y-52590497D01*
X160096436Y-52598572D01*
X160220064Y-52661565D01*
X160223748Y-52663521D01*
X160307534Y-52709827D01*
X160359548Y-52738574D01*
X160367061Y-52743081D01*
X160498754Y-52828604D01*
X160502947Y-52831452D01*
X160629147Y-52920996D01*
X160635426Y-52925757D01*
X160734959Y-53006358D01*
X160757567Y-53024665D01*
X160762154Y-53028567D01*
X160874180Y-53128680D01*
X160877424Y-53131579D01*
X160882478Y-53136358D01*
X160993640Y-53247520D01*
X160998419Y-53252574D01*
X161101427Y-53367840D01*
X161105333Y-53372431D01*
X161204239Y-53494570D01*
X161209002Y-53500851D01*
X161298546Y-53627051D01*
X161301409Y-53631266D01*
X161386907Y-53762921D01*
X161391430Y-53770460D01*
X161466477Y-53906250D01*
X161468433Y-53909934D01*
X161539498Y-54049404D01*
X161543575Y-54058247D01*
X161603259Y-54202337D01*
X161604462Y-54205353D01*
X161660265Y-54350727D01*
X161663655Y-54360836D01*
X161707258Y-54512185D01*
X161707879Y-54514419D01*
X161747791Y-54663370D01*
X161750264Y-54674694D01*
X161777282Y-54833715D01*
X161777507Y-54835087D01*
X161801040Y-54983666D01*
X161802372Y-54996111D01*
X161812498Y-55176421D01*
X161812523Y-55176884D01*
X161819330Y-55306757D01*
X161819500Y-55313247D01*
X161819500Y-89306753D01*
X161819330Y-89313243D01*
X161812523Y-89443114D01*
X161812498Y-89443577D01*
X161802372Y-89623887D01*
X161801040Y-89636332D01*
X161777507Y-89784911D01*
X161777282Y-89786283D01*
X161750264Y-89945304D01*
X161747791Y-89956628D01*
X161707879Y-90105579D01*
X161707258Y-90107813D01*
X161663655Y-90259162D01*
X161660265Y-90269271D01*
X161604462Y-90414645D01*
X161603259Y-90417661D01*
X161543575Y-90561751D01*
X161539498Y-90570594D01*
X161468433Y-90710064D01*
X161466477Y-90713748D01*
X161391430Y-90849538D01*
X161386897Y-90857094D01*
X161301412Y-90988728D01*
X161298546Y-90992947D01*
X161209002Y-91119147D01*
X161204239Y-91125428D01*
X161105333Y-91247567D01*
X161101427Y-91252158D01*
X160998419Y-91367424D01*
X160993640Y-91372478D01*
X160882478Y-91483640D01*
X160877424Y-91488419D01*
X160762158Y-91591427D01*
X160757567Y-91595333D01*
X160635428Y-91694239D01*
X160629147Y-91699002D01*
X160502947Y-91788546D01*
X160498728Y-91791412D01*
X160367094Y-91876897D01*
X160359538Y-91881430D01*
X160223748Y-91956477D01*
X160220064Y-91958433D01*
X160080594Y-92029498D01*
X160071751Y-92033575D01*
X159927661Y-92093259D01*
X159924645Y-92094462D01*
X159779271Y-92150265D01*
X159769162Y-92153655D01*
X159617813Y-92197258D01*
X159615579Y-92197879D01*
X159466628Y-92237791D01*
X159455304Y-92240264D01*
X159296283Y-92267282D01*
X159294911Y-92267507D01*
X159146332Y-92291040D01*
X159133887Y-92292372D01*
X158953577Y-92302498D01*
X158953114Y-92302523D01*
X158826489Y-92309159D01*
X158813509Y-92309159D01*
X158686884Y-92302523D01*
X158686421Y-92302498D01*
X158506111Y-92292372D01*
X158493666Y-92291040D01*
X158345087Y-92267507D01*
X158343715Y-92267282D01*
X158184694Y-92240264D01*
X158173370Y-92237791D01*
X158024419Y-92197879D01*
X158022185Y-92197258D01*
X157870836Y-92153655D01*
X157860727Y-92150265D01*
X157715353Y-92094462D01*
X157712337Y-92093259D01*
X157568247Y-92033575D01*
X157559404Y-92029498D01*
X157419934Y-91958433D01*
X157416250Y-91956477D01*
X157280460Y-91881430D01*
X157272921Y-91876907D01*
X157141266Y-91791409D01*
X157137051Y-91788546D01*
X157010851Y-91699002D01*
X157004570Y-91694239D01*
X156882431Y-91595333D01*
X156877840Y-91591427D01*
X156762574Y-91488419D01*
X156757520Y-91483640D01*
X156646358Y-91372478D01*
X156641579Y-91367424D01*
X156602870Y-91324109D01*
X156538567Y-91252154D01*
X156534665Y-91247567D01*
X156534484Y-91247344D01*
X156435757Y-91125426D01*
X156430996Y-91119147D01*
X156341452Y-90992947D01*
X156338604Y-90988754D01*
X156253081Y-90857061D01*
X156248568Y-90849538D01*
X156244636Y-90842424D01*
X156223316Y-90803848D01*
X156173521Y-90713748D01*
X156171565Y-90710064D01*
X156108061Y-90585433D01*
X156100497Y-90570589D01*
X156096430Y-90561768D01*
X156036714Y-90417599D01*
X156035562Y-90414710D01*
X155979729Y-90269260D01*
X155976347Y-90259174D01*
X155932725Y-90107761D01*
X155932134Y-90105635D01*
X155892202Y-89956606D01*
X155889738Y-89945324D01*
X155862709Y-89786245D01*
X155862491Y-89784911D01*
X155838955Y-89636309D01*
X155837628Y-89623908D01*
X155827485Y-89443285D01*
X155827476Y-89443114D01*
X155820669Y-89313243D01*
X155820500Y-89306755D01*
X155820500Y-89179999D01*
X157454340Y-89179999D01*
X157474936Y-89415407D01*
X157522699Y-89593662D01*
X157536097Y-89643663D01*
X157635965Y-89857829D01*
X157771505Y-90051401D01*
X157938599Y-90218495D01*
X158132171Y-90354035D01*
X158346337Y-90453903D01*
X158557913Y-90510594D01*
X158574592Y-90515063D01*
X158751032Y-90530500D01*
X158751034Y-90530500D01*
X158868966Y-90530500D01*
X158868968Y-90530500D01*
X158986593Y-90520208D01*
X159045408Y-90515063D01*
X159273663Y-90453903D01*
X159487829Y-90354035D01*
X159681401Y-90218495D01*
X159848495Y-90051401D01*
X159984035Y-89857830D01*
X160083903Y-89643663D01*
X160145063Y-89415408D01*
X160165659Y-89180000D01*
X160161284Y-89130000D01*
X160145063Y-88944592D01*
X160124095Y-88866337D01*
X160083903Y-88716337D01*
X159984035Y-88502171D01*
X159848495Y-88308599D01*
X159681401Y-88141505D01*
X159487829Y-88005965D01*
X159273663Y-87906097D01*
X159273662Y-87906096D01*
X159045407Y-87844936D01*
X158868968Y-87829500D01*
X158868966Y-87829500D01*
X158751034Y-87829500D01*
X158751032Y-87829500D01*
X158574592Y-87844936D01*
X158346336Y-87906097D01*
X158132170Y-88005965D01*
X157938598Y-88141505D01*
X157771508Y-88308595D01*
X157771505Y-88308598D01*
X157771505Y-88308599D01*
X157666475Y-88458598D01*
X157635964Y-88502172D01*
X157536097Y-88716337D01*
X157474936Y-88944592D01*
X157454340Y-89179999D01*
X155820500Y-89179999D01*
X155820500Y-55707764D01*
X156975787Y-55707764D01*
X157005413Y-55977016D01*
X157039998Y-56109304D01*
X157073928Y-56239088D01*
X157157469Y-56435675D01*
X157179871Y-56488392D01*
X157320982Y-56719611D01*
X157486324Y-56918290D01*
X157494255Y-56927820D01*
X157695998Y-57108582D01*
X157921910Y-57258044D01*
X158028211Y-57307876D01*
X158167177Y-57373021D01*
X158426562Y-57451058D01*
X158426569Y-57451060D01*
X158694561Y-57490500D01*
X158897631Y-57490500D01*
X158897634Y-57490500D01*
X159100156Y-57475677D01*
X159125578Y-57470014D01*
X159364553Y-57416780D01*
X159617558Y-57320014D01*
X159853777Y-57187441D01*
X160068177Y-57021888D01*
X160256186Y-56826881D01*
X160413799Y-56606579D01*
X160537656Y-56365675D01*
X160625118Y-56109305D01*
X160674319Y-55842933D01*
X160684212Y-55572235D01*
X160654586Y-55302982D01*
X160586072Y-55040912D01*
X160480130Y-54791610D01*
X160388171Y-54640930D01*
X160339017Y-54560388D01*
X160165746Y-54352181D01*
X160131413Y-54321419D01*
X159964002Y-54171418D01*
X159738090Y-54021956D01*
X159725240Y-54015932D01*
X159492822Y-53906978D01*
X159233437Y-53828941D01*
X159233431Y-53828940D01*
X158965439Y-53789500D01*
X158762369Y-53789500D01*
X158762366Y-53789500D01*
X158559843Y-53804322D01*
X158295449Y-53863219D01*
X158042441Y-53959986D01*
X157806223Y-54092559D01*
X157591825Y-54258109D01*
X157403813Y-54453120D01*
X157246201Y-54673420D01*
X157122342Y-54914329D01*
X157034881Y-55170695D01*
X156985680Y-55437066D01*
X156975787Y-55707764D01*
X155820500Y-55707764D01*
X155820500Y-55313245D01*
X155820670Y-55306756D01*
X155823120Y-55260000D01*
X155827486Y-55176701D01*
X155837628Y-54996087D01*
X155838954Y-54983694D01*
X155862513Y-54834947D01*
X155862700Y-54833809D01*
X155889739Y-54674666D01*
X155892199Y-54663402D01*
X155932150Y-54514305D01*
X155932709Y-54512293D01*
X155976351Y-54360811D01*
X155979724Y-54350753D01*
X156035583Y-54205233D01*
X156036692Y-54202452D01*
X156096439Y-54058212D01*
X156100488Y-54049429D01*
X156171569Y-53909925D01*
X156173521Y-53906250D01*
X156177450Y-53899141D01*
X156248588Y-53770426D01*
X156253065Y-53762962D01*
X156338633Y-53631199D01*
X156341434Y-53627077D01*
X156431010Y-53500832D01*
X156435733Y-53494603D01*
X156534702Y-53372386D01*
X156538532Y-53367885D01*
X156641613Y-53252537D01*
X156646323Y-53247556D01*
X156757556Y-53136323D01*
X156762537Y-53131613D01*
X156877885Y-53028532D01*
X156882386Y-53024702D01*
X157004603Y-52925733D01*
X157010832Y-52921010D01*
X157137077Y-52831434D01*
X157141199Y-52828633D01*
X157272962Y-52743065D01*
X157280426Y-52738588D01*
X157416255Y-52663517D01*
X157419934Y-52661565D01*
X157559429Y-52590488D01*
X157568212Y-52586439D01*
X157712452Y-52526692D01*
X157715233Y-52525583D01*
X157860753Y-52469724D01*
X157870811Y-52466351D01*
X158022293Y-52422709D01*
X158024305Y-52422150D01*
X158173402Y-52382199D01*
X158184666Y-52379739D01*
X158343809Y-52352700D01*
X158344947Y-52352513D01*
X158493694Y-52328954D01*
X158506087Y-52327628D01*
X158686554Y-52317493D01*
X158813513Y-52310840D01*
X158826487Y-52310840D01*
X158953379Y-52317490D01*
G37*
%TD.AperFunction*%
%TA.AperFunction,NonConductor*%
G36*
X150943379Y-52337490D02*
G01*
X151123908Y-52347628D01*
X151136309Y-52348955D01*
X151284990Y-52372504D01*
X151286245Y-52372709D01*
X151445324Y-52399738D01*
X151456606Y-52402202D01*
X151605635Y-52442134D01*
X151607761Y-52442725D01*
X151759174Y-52486347D01*
X151769260Y-52489729D01*
X151914710Y-52545562D01*
X151917599Y-52546714D01*
X152061768Y-52606430D01*
X152070589Y-52610497D01*
X152076515Y-52613517D01*
X152210064Y-52681565D01*
X152213748Y-52683521D01*
X152287414Y-52724234D01*
X152349548Y-52758574D01*
X152357061Y-52763081D01*
X152488754Y-52848604D01*
X152492947Y-52851452D01*
X152619147Y-52940996D01*
X152625426Y-52945757D01*
X152728959Y-53029597D01*
X152747567Y-53044665D01*
X152752154Y-53048567D01*
X152841800Y-53128680D01*
X152867424Y-53151579D01*
X152872478Y-53156358D01*
X152983640Y-53267520D01*
X152988419Y-53272574D01*
X153091427Y-53387840D01*
X153095333Y-53392431D01*
X153194239Y-53514570D01*
X153199002Y-53520851D01*
X153288546Y-53647051D01*
X153291409Y-53651266D01*
X153376907Y-53782921D01*
X153381430Y-53790460D01*
X153456477Y-53926250D01*
X153458433Y-53929934D01*
X153529498Y-54069404D01*
X153533575Y-54078247D01*
X153593259Y-54222337D01*
X153594462Y-54225353D01*
X153650265Y-54370727D01*
X153653655Y-54380836D01*
X153697258Y-54532185D01*
X153697879Y-54534419D01*
X153737791Y-54683370D01*
X153740264Y-54694694D01*
X153767282Y-54853715D01*
X153767507Y-54855087D01*
X153791040Y-55003666D01*
X153792372Y-55016111D01*
X153802498Y-55196421D01*
X153802523Y-55196884D01*
X153809330Y-55326757D01*
X153809500Y-55333247D01*
X153809500Y-89326753D01*
X153809330Y-89333243D01*
X153802523Y-89463114D01*
X153802498Y-89463577D01*
X153792372Y-89643887D01*
X153791040Y-89656332D01*
X153767507Y-89804911D01*
X153767282Y-89806283D01*
X153740264Y-89965304D01*
X153737791Y-89976628D01*
X153697879Y-90125579D01*
X153697258Y-90127813D01*
X153653655Y-90279162D01*
X153650265Y-90289271D01*
X153594462Y-90434645D01*
X153593259Y-90437661D01*
X153533575Y-90581751D01*
X153529498Y-90590594D01*
X153458433Y-90730064D01*
X153456477Y-90733748D01*
X153381430Y-90869538D01*
X153376897Y-90877094D01*
X153291412Y-91008728D01*
X153288546Y-91012947D01*
X153199002Y-91139147D01*
X153194239Y-91145428D01*
X153095333Y-91267567D01*
X153091427Y-91272158D01*
X152988419Y-91387424D01*
X152983640Y-91392478D01*
X152872478Y-91503640D01*
X152867424Y-91508419D01*
X152752158Y-91611427D01*
X152747567Y-91615333D01*
X152625428Y-91714239D01*
X152619147Y-91719002D01*
X152492947Y-91808546D01*
X152488728Y-91811412D01*
X152357094Y-91896897D01*
X152349538Y-91901430D01*
X152213748Y-91976477D01*
X152210064Y-91978433D01*
X152070594Y-92049498D01*
X152061751Y-92053575D01*
X151917661Y-92113259D01*
X151914645Y-92114462D01*
X151769271Y-92170265D01*
X151759162Y-92173655D01*
X151607813Y-92217258D01*
X151605579Y-92217879D01*
X151456628Y-92257791D01*
X151445304Y-92260264D01*
X151286283Y-92287282D01*
X151284911Y-92287507D01*
X151136332Y-92311040D01*
X151123887Y-92312372D01*
X150943577Y-92322498D01*
X150943114Y-92322523D01*
X150816489Y-92329159D01*
X150803509Y-92329159D01*
X150676884Y-92322523D01*
X150676421Y-92322498D01*
X150496111Y-92312372D01*
X150483666Y-92311040D01*
X150335087Y-92287507D01*
X150333715Y-92287282D01*
X150174694Y-92260264D01*
X150163370Y-92257791D01*
X150014419Y-92217879D01*
X150012185Y-92217258D01*
X149860836Y-92173655D01*
X149850727Y-92170265D01*
X149705353Y-92114462D01*
X149702337Y-92113259D01*
X149558247Y-92053575D01*
X149549404Y-92049498D01*
X149409934Y-91978433D01*
X149406250Y-91976477D01*
X149270460Y-91901430D01*
X149262921Y-91896907D01*
X149131266Y-91811409D01*
X149127051Y-91808546D01*
X149000851Y-91719002D01*
X148994570Y-91714239D01*
X148872431Y-91615333D01*
X148867840Y-91611427D01*
X148752574Y-91508419D01*
X148747520Y-91503640D01*
X148636358Y-91392478D01*
X148631579Y-91387424D01*
X148624189Y-91379155D01*
X148528567Y-91272154D01*
X148524665Y-91267567D01*
X148508469Y-91247567D01*
X148425757Y-91145426D01*
X148420996Y-91139147D01*
X148331452Y-91012947D01*
X148328604Y-91008754D01*
X148243081Y-90877061D01*
X148238568Y-90869538D01*
X148234925Y-90862947D01*
X148198530Y-90797094D01*
X148163521Y-90733748D01*
X148161565Y-90730064D01*
X148100392Y-90610007D01*
X148090497Y-90590589D01*
X148086430Y-90581768D01*
X148026714Y-90437599D01*
X148025562Y-90434710D01*
X147969729Y-90289260D01*
X147966347Y-90279174D01*
X147922725Y-90127761D01*
X147922134Y-90125635D01*
X147882202Y-89976606D01*
X147879738Y-89965324D01*
X147852709Y-89806245D01*
X147852491Y-89804911D01*
X147828955Y-89656309D01*
X147827628Y-89643908D01*
X147817483Y-89463243D01*
X147817476Y-89463114D01*
X147810669Y-89333243D01*
X147810500Y-89326755D01*
X147810500Y-89199999D01*
X149444340Y-89199999D01*
X149464936Y-89435407D01*
X149513661Y-89617250D01*
X149526097Y-89663663D01*
X149625965Y-89877829D01*
X149761505Y-90071401D01*
X149928599Y-90238495D01*
X150122171Y-90374035D01*
X150336337Y-90473903D01*
X150560259Y-90533902D01*
X150564592Y-90535063D01*
X150741032Y-90550500D01*
X150741034Y-90550500D01*
X150858966Y-90550500D01*
X150858968Y-90550500D01*
X150976594Y-90540208D01*
X151035408Y-90535063D01*
X151263663Y-90473903D01*
X151477829Y-90374035D01*
X151671401Y-90238495D01*
X151838495Y-90071401D01*
X151974035Y-89877830D01*
X152073903Y-89663663D01*
X152135063Y-89435408D01*
X152155659Y-89200000D01*
X152153865Y-89179500D01*
X152135063Y-88964592D01*
X152129704Y-88944592D01*
X152073903Y-88736337D01*
X151974035Y-88522171D01*
X151838495Y-88328599D01*
X151671401Y-88161505D01*
X151477829Y-88025965D01*
X151263663Y-87926097D01*
X151222013Y-87914937D01*
X151035407Y-87864936D01*
X150858968Y-87849500D01*
X150858966Y-87849500D01*
X150741034Y-87849500D01*
X150741032Y-87849500D01*
X150564592Y-87864936D01*
X150336336Y-87926097D01*
X150122170Y-88025965D01*
X149928598Y-88161505D01*
X149761508Y-88328595D01*
X149761505Y-88328598D01*
X149761505Y-88328599D01*
X149639969Y-88502171D01*
X149625964Y-88522172D01*
X149526097Y-88736337D01*
X149464936Y-88964592D01*
X149444340Y-89199999D01*
X147810500Y-89199999D01*
X147810500Y-55727764D01*
X148965787Y-55727764D01*
X148995413Y-55997016D01*
X149029400Y-56127016D01*
X149063928Y-56259088D01*
X149139859Y-56437768D01*
X149169871Y-56508392D01*
X149310982Y-56739611D01*
X149467609Y-56927818D01*
X149484255Y-56947820D01*
X149685998Y-57128582D01*
X149911910Y-57278044D01*
X150007855Y-57323021D01*
X150157177Y-57393021D01*
X150413089Y-57470013D01*
X150416569Y-57471060D01*
X150684561Y-57510500D01*
X150887631Y-57510500D01*
X150887634Y-57510500D01*
X151090156Y-57495677D01*
X151113396Y-57490500D01*
X151354553Y-57436780D01*
X151607558Y-57340014D01*
X151843777Y-57207441D01*
X152058177Y-57041888D01*
X152246186Y-56846881D01*
X152403799Y-56626579D01*
X152527656Y-56385675D01*
X152615118Y-56129305D01*
X152664319Y-55862933D01*
X152674212Y-55592235D01*
X152644586Y-55322982D01*
X152576072Y-55060912D01*
X152470130Y-54811610D01*
X152372599Y-54651800D01*
X152329017Y-54580388D01*
X152155746Y-54372181D01*
X152144298Y-54361924D01*
X151954002Y-54191418D01*
X151728090Y-54041956D01*
X151728086Y-54041954D01*
X151482822Y-53926978D01*
X151223437Y-53848941D01*
X151223431Y-53848940D01*
X150955439Y-53809500D01*
X150752369Y-53809500D01*
X150752366Y-53809500D01*
X150549843Y-53824322D01*
X150285449Y-53883219D01*
X150032441Y-53979986D01*
X149796223Y-54112559D01*
X149581825Y-54278109D01*
X149393813Y-54473120D01*
X149236201Y-54693420D01*
X149112342Y-54934329D01*
X149024881Y-55190695D01*
X148975680Y-55457066D01*
X148965787Y-55727764D01*
X147810500Y-55727764D01*
X147810500Y-55333245D01*
X147810670Y-55326756D01*
X147813045Y-55281431D01*
X147817501Y-55196421D01*
X147827628Y-55016087D01*
X147828954Y-55003694D01*
X147852513Y-54854947D01*
X147852700Y-54853809D01*
X147879739Y-54694666D01*
X147882199Y-54683402D01*
X147922150Y-54534305D01*
X147922709Y-54532293D01*
X147966351Y-54380811D01*
X147969724Y-54370753D01*
X148025583Y-54225233D01*
X148026692Y-54222452D01*
X148086439Y-54078212D01*
X148090488Y-54069429D01*
X148161569Y-53929925D01*
X148163521Y-53926250D01*
X148172510Y-53909986D01*
X148238588Y-53790426D01*
X148243065Y-53782962D01*
X148328633Y-53651199D01*
X148331434Y-53647077D01*
X148421010Y-53520832D01*
X148425733Y-53514603D01*
X148524702Y-53392386D01*
X148528532Y-53387885D01*
X148631613Y-53272537D01*
X148636323Y-53267556D01*
X148747556Y-53156323D01*
X148752537Y-53151613D01*
X148867885Y-53048532D01*
X148872386Y-53044702D01*
X148994603Y-52945733D01*
X149000832Y-52941010D01*
X149127077Y-52851434D01*
X149131199Y-52848633D01*
X149262962Y-52763065D01*
X149270426Y-52758588D01*
X149406255Y-52683517D01*
X149409934Y-52681565D01*
X149415804Y-52678574D01*
X149549429Y-52610488D01*
X149558212Y-52606439D01*
X149702452Y-52546692D01*
X149705233Y-52545583D01*
X149850753Y-52489724D01*
X149860811Y-52486351D01*
X150012293Y-52442709D01*
X150014305Y-52442150D01*
X150163402Y-52402199D01*
X150174666Y-52399739D01*
X150333809Y-52372700D01*
X150334947Y-52372513D01*
X150483694Y-52348954D01*
X150496087Y-52347628D01*
X150676554Y-52337493D01*
X150803513Y-52330840D01*
X150816487Y-52330840D01*
X150943379Y-52337490D01*
G37*
%TD.AperFunction*%
%TA.AperFunction,NonConductor*%
G36*
X167153379Y-52387490D02*
G01*
X167333908Y-52397628D01*
X167346309Y-52398955D01*
X167494990Y-52422504D01*
X167496245Y-52422709D01*
X167655324Y-52449738D01*
X167666606Y-52452202D01*
X167815635Y-52492134D01*
X167817761Y-52492725D01*
X167969174Y-52536347D01*
X167979260Y-52539729D01*
X168124710Y-52595562D01*
X168127599Y-52596714D01*
X168271768Y-52656430D01*
X168280589Y-52660497D01*
X168296436Y-52668572D01*
X168420064Y-52731565D01*
X168423748Y-52733521D01*
X168505289Y-52778586D01*
X168559548Y-52808574D01*
X168567061Y-52813081D01*
X168698754Y-52898604D01*
X168702947Y-52901452D01*
X168829147Y-52990996D01*
X168835426Y-52995757D01*
X168947308Y-53086358D01*
X168957567Y-53094665D01*
X168962154Y-53098567D01*
X169026822Y-53156358D01*
X169077424Y-53201579D01*
X169082478Y-53206358D01*
X169193640Y-53317520D01*
X169198419Y-53322574D01*
X169301427Y-53437840D01*
X169305333Y-53442431D01*
X169404239Y-53564570D01*
X169409002Y-53570851D01*
X169498546Y-53697051D01*
X169501409Y-53701266D01*
X169586907Y-53832921D01*
X169591430Y-53840460D01*
X169666477Y-53976250D01*
X169668433Y-53979934D01*
X169739498Y-54119404D01*
X169743575Y-54128247D01*
X169803259Y-54272337D01*
X169804462Y-54275353D01*
X169860265Y-54420727D01*
X169863655Y-54430836D01*
X169907258Y-54582185D01*
X169907879Y-54584419D01*
X169947791Y-54733370D01*
X169950264Y-54744694D01*
X169977282Y-54903715D01*
X169977507Y-54905087D01*
X170001040Y-55053666D01*
X170002372Y-55066111D01*
X170012498Y-55246421D01*
X170012523Y-55246884D01*
X170019330Y-55376757D01*
X170019500Y-55383247D01*
X170019500Y-89376753D01*
X170019330Y-89383243D01*
X170012523Y-89513114D01*
X170012498Y-89513577D01*
X170002372Y-89693887D01*
X170001040Y-89706332D01*
X169977507Y-89854911D01*
X169977282Y-89856283D01*
X169950264Y-90015304D01*
X169947791Y-90026628D01*
X169907879Y-90175579D01*
X169907258Y-90177813D01*
X169863655Y-90329162D01*
X169860265Y-90339271D01*
X169804462Y-90484645D01*
X169803259Y-90487661D01*
X169743575Y-90631751D01*
X169739498Y-90640594D01*
X169668433Y-90780064D01*
X169666477Y-90783748D01*
X169591430Y-90919538D01*
X169586897Y-90927094D01*
X169501412Y-91058728D01*
X169498546Y-91062947D01*
X169409002Y-91189147D01*
X169404239Y-91195428D01*
X169305333Y-91317567D01*
X169301427Y-91322158D01*
X169198419Y-91437424D01*
X169193640Y-91442478D01*
X169082478Y-91553640D01*
X169077424Y-91558419D01*
X168962158Y-91661427D01*
X168957567Y-91665333D01*
X168835428Y-91764239D01*
X168829147Y-91769002D01*
X168702947Y-91858546D01*
X168698728Y-91861412D01*
X168567094Y-91946897D01*
X168559538Y-91951430D01*
X168423748Y-92026477D01*
X168420064Y-92028433D01*
X168280594Y-92099498D01*
X168271751Y-92103575D01*
X168127661Y-92163259D01*
X168124645Y-92164462D01*
X167979271Y-92220265D01*
X167969162Y-92223655D01*
X167817813Y-92267258D01*
X167815579Y-92267879D01*
X167666628Y-92307791D01*
X167655304Y-92310264D01*
X167496283Y-92337282D01*
X167494911Y-92337507D01*
X167346332Y-92361040D01*
X167333887Y-92362372D01*
X167153577Y-92372498D01*
X167153114Y-92372523D01*
X167026489Y-92379159D01*
X167013509Y-92379159D01*
X166886884Y-92372523D01*
X166886421Y-92372498D01*
X166706111Y-92362372D01*
X166693666Y-92361040D01*
X166545087Y-92337507D01*
X166543715Y-92337282D01*
X166384694Y-92310264D01*
X166373370Y-92307791D01*
X166224419Y-92267879D01*
X166222185Y-92267258D01*
X166070836Y-92223655D01*
X166060727Y-92220265D01*
X165915353Y-92164462D01*
X165912337Y-92163259D01*
X165768247Y-92103575D01*
X165759404Y-92099498D01*
X165619934Y-92028433D01*
X165616250Y-92026477D01*
X165480460Y-91951430D01*
X165472921Y-91946907D01*
X165341266Y-91861409D01*
X165337051Y-91858546D01*
X165210851Y-91769002D01*
X165204570Y-91764239D01*
X165082431Y-91665333D01*
X165077840Y-91661427D01*
X164962574Y-91558419D01*
X164957520Y-91553640D01*
X164846358Y-91442478D01*
X164841579Y-91437424D01*
X164791576Y-91381471D01*
X164738567Y-91322154D01*
X164734665Y-91317567D01*
X164734484Y-91317344D01*
X164635757Y-91195426D01*
X164630996Y-91189147D01*
X164541452Y-91062947D01*
X164538604Y-91058754D01*
X164453081Y-90927061D01*
X164448568Y-90919538D01*
X164444636Y-90912424D01*
X164423316Y-90873848D01*
X164373521Y-90783748D01*
X164371565Y-90780064D01*
X164309721Y-90658690D01*
X164300497Y-90640589D01*
X164296430Y-90631768D01*
X164236714Y-90487599D01*
X164235562Y-90484710D01*
X164179729Y-90339260D01*
X164176347Y-90329174D01*
X164132725Y-90177761D01*
X164132134Y-90175635D01*
X164092202Y-90026606D01*
X164089738Y-90015324D01*
X164062709Y-89856245D01*
X164062491Y-89854911D01*
X164038955Y-89706309D01*
X164037628Y-89693908D01*
X164027485Y-89513285D01*
X164027476Y-89513114D01*
X164020669Y-89383243D01*
X164020500Y-89376755D01*
X164020500Y-89249999D01*
X165654340Y-89249999D01*
X165674936Y-89485407D01*
X165720712Y-89656245D01*
X165736097Y-89713663D01*
X165835965Y-89927829D01*
X165971505Y-90121401D01*
X166138599Y-90288495D01*
X166332171Y-90424035D01*
X166546337Y-90523903D01*
X166769684Y-90583748D01*
X166774592Y-90585063D01*
X166951032Y-90600500D01*
X166951034Y-90600500D01*
X167068966Y-90600500D01*
X167068968Y-90600500D01*
X167186593Y-90590208D01*
X167245408Y-90585063D01*
X167473663Y-90523903D01*
X167687829Y-90424035D01*
X167881401Y-90288495D01*
X168048495Y-90121401D01*
X168184035Y-89927830D01*
X168283903Y-89713663D01*
X168345063Y-89485408D01*
X168365659Y-89250000D01*
X168361284Y-89200000D01*
X168345063Y-89014592D01*
X168310230Y-88884592D01*
X168283903Y-88786337D01*
X168184035Y-88572171D01*
X168048495Y-88378599D01*
X167881401Y-88211505D01*
X167687829Y-88075965D01*
X167473663Y-87976097D01*
X167245407Y-87914936D01*
X167068968Y-87899500D01*
X167068966Y-87899500D01*
X166951034Y-87899500D01*
X166951032Y-87899500D01*
X166774592Y-87914936D01*
X166546336Y-87976097D01*
X166332170Y-88075965D01*
X166138598Y-88211505D01*
X165971508Y-88378595D01*
X165971505Y-88378598D01*
X165971505Y-88378599D01*
X165870976Y-88522170D01*
X165835964Y-88572172D01*
X165736097Y-88786337D01*
X165674936Y-89014592D01*
X165654340Y-89249999D01*
X164020500Y-89249999D01*
X164020500Y-55777764D01*
X165175787Y-55777764D01*
X165205413Y-56047016D01*
X165239998Y-56179304D01*
X165273928Y-56309088D01*
X165379870Y-56558390D01*
X165379871Y-56558392D01*
X165520982Y-56789611D01*
X165678243Y-56978580D01*
X165694255Y-56997820D01*
X165895998Y-57178582D01*
X166121910Y-57328044D01*
X166217855Y-57373021D01*
X166367177Y-57443021D01*
X166626562Y-57521058D01*
X166626569Y-57521060D01*
X166894561Y-57560500D01*
X167097631Y-57560500D01*
X167097634Y-57560500D01*
X167300156Y-57545677D01*
X167301130Y-57545460D01*
X167564553Y-57486780D01*
X167817558Y-57390014D01*
X168053777Y-57257441D01*
X168268177Y-57091888D01*
X168456186Y-56896881D01*
X168613799Y-56676579D01*
X168737656Y-56435675D01*
X168825118Y-56179305D01*
X168874319Y-55912933D01*
X168884212Y-55642235D01*
X168854586Y-55372982D01*
X168786072Y-55110912D01*
X168680130Y-54861610D01*
X168588171Y-54710930D01*
X168539017Y-54630388D01*
X168365746Y-54422181D01*
X168344471Y-54403119D01*
X168164002Y-54241418D01*
X167938090Y-54091956D01*
X167931072Y-54088666D01*
X167692822Y-53976978D01*
X167433437Y-53898941D01*
X167433431Y-53898940D01*
X167165439Y-53859500D01*
X166962369Y-53859500D01*
X166962366Y-53859500D01*
X166759843Y-53874322D01*
X166495449Y-53933219D01*
X166242441Y-54029986D01*
X166006223Y-54162559D01*
X165791825Y-54328109D01*
X165603813Y-54523120D01*
X165446201Y-54743420D01*
X165348051Y-54934325D01*
X165330401Y-54968655D01*
X165322342Y-54984329D01*
X165234881Y-55240695D01*
X165185680Y-55507066D01*
X165175787Y-55777764D01*
X164020500Y-55777764D01*
X164020500Y-55383245D01*
X164020670Y-55376756D01*
X164023120Y-55330000D01*
X164027486Y-55246701D01*
X164037628Y-55066087D01*
X164038954Y-55053694D01*
X164062513Y-54904947D01*
X164062700Y-54903809D01*
X164089739Y-54744666D01*
X164092199Y-54733402D01*
X164132150Y-54584305D01*
X164132709Y-54582293D01*
X164176351Y-54430811D01*
X164179724Y-54420753D01*
X164235583Y-54275233D01*
X164236692Y-54272452D01*
X164296439Y-54128212D01*
X164300488Y-54119429D01*
X164371569Y-53979925D01*
X164373521Y-53976250D01*
X164381422Y-53961954D01*
X164448588Y-53840426D01*
X164453065Y-53832962D01*
X164538633Y-53701199D01*
X164541434Y-53697077D01*
X164631010Y-53570832D01*
X164635733Y-53564603D01*
X164734702Y-53442386D01*
X164738532Y-53437885D01*
X164841613Y-53322537D01*
X164846323Y-53317556D01*
X164957556Y-53206323D01*
X164962537Y-53201613D01*
X165077885Y-53098532D01*
X165082386Y-53094702D01*
X165204603Y-52995733D01*
X165210832Y-52991010D01*
X165337077Y-52901434D01*
X165341199Y-52898633D01*
X165472962Y-52813065D01*
X165480426Y-52808588D01*
X165616255Y-52733517D01*
X165619934Y-52731565D01*
X165632071Y-52725381D01*
X165759429Y-52660488D01*
X165768212Y-52656439D01*
X165912452Y-52596692D01*
X165915233Y-52595583D01*
X166060753Y-52539724D01*
X166070811Y-52536351D01*
X166222293Y-52492709D01*
X166224305Y-52492150D01*
X166373402Y-52452199D01*
X166384666Y-52449739D01*
X166543809Y-52422700D01*
X166544947Y-52422513D01*
X166693694Y-52398954D01*
X166706087Y-52397628D01*
X166886554Y-52387493D01*
X167013513Y-52380840D01*
X167026487Y-52380840D01*
X167153379Y-52387490D01*
G37*
%TD.AperFunction*%
%TA.AperFunction,NonConductor*%
G36*
X175203379Y-52397490D02*
G01*
X175383908Y-52407628D01*
X175396309Y-52408955D01*
X175544990Y-52432504D01*
X175546245Y-52432709D01*
X175705324Y-52459738D01*
X175716606Y-52462202D01*
X175865635Y-52502134D01*
X175867761Y-52502725D01*
X176019174Y-52546347D01*
X176029260Y-52549729D01*
X176174710Y-52605562D01*
X176177599Y-52606714D01*
X176321768Y-52666430D01*
X176330594Y-52670500D01*
X176470064Y-52741565D01*
X176473748Y-52743521D01*
X176559649Y-52790996D01*
X176609548Y-52818574D01*
X176617061Y-52823081D01*
X176748754Y-52908604D01*
X176752947Y-52911452D01*
X176879147Y-53000996D01*
X176885426Y-53005757D01*
X177006324Y-53103659D01*
X177007567Y-53104665D01*
X177012154Y-53108567D01*
X177065632Y-53156358D01*
X177127424Y-53211579D01*
X177132478Y-53216358D01*
X177243640Y-53327520D01*
X177248419Y-53332574D01*
X177351427Y-53447840D01*
X177355333Y-53452431D01*
X177454239Y-53574570D01*
X177459002Y-53580851D01*
X177548546Y-53707051D01*
X177551409Y-53711266D01*
X177636907Y-53842921D01*
X177641430Y-53850460D01*
X177716477Y-53986250D01*
X177718433Y-53989934D01*
X177789498Y-54129404D01*
X177793575Y-54138247D01*
X177853259Y-54282337D01*
X177854462Y-54285353D01*
X177910265Y-54430727D01*
X177913655Y-54440836D01*
X177957258Y-54592185D01*
X177957879Y-54594419D01*
X177997791Y-54743370D01*
X178000264Y-54754694D01*
X178027282Y-54913715D01*
X178027507Y-54915087D01*
X178051040Y-55063666D01*
X178052372Y-55076111D01*
X178062498Y-55256421D01*
X178062523Y-55256884D01*
X178069330Y-55386757D01*
X178069500Y-55393247D01*
X178069500Y-89386753D01*
X178069330Y-89393243D01*
X178062523Y-89523114D01*
X178062498Y-89523577D01*
X178052372Y-89703887D01*
X178051040Y-89716332D01*
X178027507Y-89864911D01*
X178027282Y-89866283D01*
X178000264Y-90025304D01*
X177997791Y-90036628D01*
X177957879Y-90185579D01*
X177957258Y-90187813D01*
X177913655Y-90339162D01*
X177910265Y-90349271D01*
X177854462Y-90494645D01*
X177853259Y-90497661D01*
X177793575Y-90641751D01*
X177789498Y-90650594D01*
X177718433Y-90790064D01*
X177716477Y-90793749D01*
X177641429Y-90929539D01*
X177636896Y-90937093D01*
X177551416Y-91068722D01*
X177548550Y-91072943D01*
X177459002Y-91199148D01*
X177454239Y-91205428D01*
X177355333Y-91327567D01*
X177351427Y-91332158D01*
X177248419Y-91447424D01*
X177243640Y-91452478D01*
X177132478Y-91563640D01*
X177127424Y-91568419D01*
X177012158Y-91671427D01*
X177007567Y-91675333D01*
X176885428Y-91774239D01*
X176879147Y-91779002D01*
X176752947Y-91868546D01*
X176748728Y-91871412D01*
X176617094Y-91956897D01*
X176609538Y-91961430D01*
X176473748Y-92036477D01*
X176470064Y-92038433D01*
X176330594Y-92109498D01*
X176321751Y-92113575D01*
X176177661Y-92173259D01*
X176174645Y-92174462D01*
X176029271Y-92230265D01*
X176019162Y-92233655D01*
X175867813Y-92277258D01*
X175865579Y-92277879D01*
X175716628Y-92317791D01*
X175705304Y-92320264D01*
X175546283Y-92347282D01*
X175544911Y-92347507D01*
X175396332Y-92371040D01*
X175383887Y-92372372D01*
X175203577Y-92382498D01*
X175203114Y-92382523D01*
X175076489Y-92389159D01*
X175063509Y-92389159D01*
X174936884Y-92382523D01*
X174936421Y-92382498D01*
X174756111Y-92372372D01*
X174743666Y-92371040D01*
X174595087Y-92347507D01*
X174593715Y-92347282D01*
X174434694Y-92320264D01*
X174423370Y-92317791D01*
X174274419Y-92277879D01*
X174272185Y-92277258D01*
X174120836Y-92233655D01*
X174110727Y-92230265D01*
X173965353Y-92174462D01*
X173962337Y-92173259D01*
X173818247Y-92113575D01*
X173809404Y-92109498D01*
X173669934Y-92038433D01*
X173666250Y-92036477D01*
X173530460Y-91961430D01*
X173522921Y-91956907D01*
X173391266Y-91871409D01*
X173387051Y-91868546D01*
X173260851Y-91779002D01*
X173254570Y-91774239D01*
X173132431Y-91675333D01*
X173127840Y-91671427D01*
X173012574Y-91568419D01*
X173007520Y-91563640D01*
X172896358Y-91452478D01*
X172891579Y-91447424D01*
X172883532Y-91438419D01*
X172788567Y-91332154D01*
X172784665Y-91327566D01*
X172685754Y-91205420D01*
X172680991Y-91199140D01*
X172591464Y-91072964D01*
X172588598Y-91068744D01*
X172503098Y-90937086D01*
X172498565Y-90929532D01*
X172489682Y-90913460D01*
X172450995Y-90843460D01*
X172423521Y-90793749D01*
X172421565Y-90790064D01*
X172362461Y-90674068D01*
X172350497Y-90650589D01*
X172346430Y-90641768D01*
X172286714Y-90497599D01*
X172285562Y-90494710D01*
X172229729Y-90349260D01*
X172226347Y-90339174D01*
X172182725Y-90187761D01*
X172182134Y-90185635D01*
X172142202Y-90036606D01*
X172139738Y-90025324D01*
X172112709Y-89866245D01*
X172112491Y-89864911D01*
X172088955Y-89716309D01*
X172087628Y-89703908D01*
X172077485Y-89523285D01*
X172077476Y-89523114D01*
X172070669Y-89393243D01*
X172070500Y-89386755D01*
X172070500Y-89259999D01*
X173704340Y-89259999D01*
X173724936Y-89495407D01*
X173778024Y-89693533D01*
X173786097Y-89723663D01*
X173885965Y-89937829D01*
X174021505Y-90131401D01*
X174188599Y-90298495D01*
X174382171Y-90434035D01*
X174596337Y-90533903D01*
X174787271Y-90585063D01*
X174824592Y-90595063D01*
X175001032Y-90610500D01*
X175001034Y-90610500D01*
X175118966Y-90610500D01*
X175118968Y-90610500D01*
X175238899Y-90600007D01*
X175295408Y-90595063D01*
X175523663Y-90533903D01*
X175737829Y-90434035D01*
X175931401Y-90298495D01*
X176098495Y-90131401D01*
X176234035Y-89937830D01*
X176333903Y-89723663D01*
X176395063Y-89495408D01*
X176415659Y-89260000D01*
X176410409Y-89199999D01*
X176395063Y-89024592D01*
X176373627Y-88944592D01*
X176333903Y-88796337D01*
X176234035Y-88582171D01*
X176098495Y-88388599D01*
X175931401Y-88221505D01*
X175737829Y-88085965D01*
X175523663Y-87986097D01*
X175523662Y-87986096D01*
X175295407Y-87924936D01*
X175118968Y-87909500D01*
X175118966Y-87909500D01*
X175001034Y-87909500D01*
X175001032Y-87909500D01*
X174824592Y-87924936D01*
X174596336Y-87986097D01*
X174382170Y-88085965D01*
X174188598Y-88221505D01*
X174021508Y-88388595D01*
X174021505Y-88388598D01*
X174021505Y-88388599D01*
X173892967Y-88572171D01*
X173885964Y-88582172D01*
X173786097Y-88796337D01*
X173724936Y-89024592D01*
X173704340Y-89259999D01*
X172070500Y-89259999D01*
X172070500Y-55787764D01*
X173225787Y-55787764D01*
X173255413Y-56057016D01*
X173289998Y-56189304D01*
X173323928Y-56319088D01*
X173425621Y-56558392D01*
X173429871Y-56568392D01*
X173570982Y-56799611D01*
X173718507Y-56976881D01*
X173744255Y-57007820D01*
X173945998Y-57188582D01*
X174171910Y-57338044D01*
X174246521Y-57373020D01*
X174417177Y-57453021D01*
X174676562Y-57531058D01*
X174676569Y-57531060D01*
X174944561Y-57570500D01*
X175147631Y-57570500D01*
X175147634Y-57570500D01*
X175350156Y-57555677D01*
X175395047Y-57545677D01*
X175614553Y-57496780D01*
X175867558Y-57400014D01*
X176103777Y-57267441D01*
X176318177Y-57101888D01*
X176506186Y-56906881D01*
X176663799Y-56686579D01*
X176787656Y-56445675D01*
X176875118Y-56189305D01*
X176924319Y-55922933D01*
X176934212Y-55652235D01*
X176904586Y-55382982D01*
X176836072Y-55120912D01*
X176730130Y-54871610D01*
X176622142Y-54694666D01*
X176589017Y-54640388D01*
X176415746Y-54432181D01*
X176381086Y-54401126D01*
X176214002Y-54251418D01*
X175988090Y-54101956D01*
X175975240Y-54095932D01*
X175742822Y-53986978D01*
X175483437Y-53908941D01*
X175483431Y-53908940D01*
X175215439Y-53869500D01*
X175012369Y-53869500D01*
X175012366Y-53869500D01*
X174809843Y-53884322D01*
X174545449Y-53943219D01*
X174292441Y-54039986D01*
X174056223Y-54172559D01*
X173841825Y-54338109D01*
X173653813Y-54533120D01*
X173496201Y-54753420D01*
X173372342Y-54994329D01*
X173284881Y-55250695D01*
X173235680Y-55517066D01*
X173225787Y-55787764D01*
X172070500Y-55787764D01*
X172070500Y-55393245D01*
X172070670Y-55386756D01*
X172073618Y-55330500D01*
X172077486Y-55256701D01*
X172087628Y-55076087D01*
X172088954Y-55063694D01*
X172112513Y-54914947D01*
X172112700Y-54913809D01*
X172139739Y-54754666D01*
X172142199Y-54743402D01*
X172182150Y-54594305D01*
X172182709Y-54592293D01*
X172226351Y-54440811D01*
X172229724Y-54430753D01*
X172285583Y-54285233D01*
X172286692Y-54282452D01*
X172346439Y-54138212D01*
X172350488Y-54129429D01*
X172421569Y-53989925D01*
X172423521Y-53986250D01*
X172427012Y-53979934D01*
X172498588Y-53850426D01*
X172503065Y-53842962D01*
X172588633Y-53711199D01*
X172591434Y-53707077D01*
X172681010Y-53580832D01*
X172685733Y-53574603D01*
X172784702Y-53452386D01*
X172788532Y-53447885D01*
X172891613Y-53332537D01*
X172896323Y-53327556D01*
X173007556Y-53216323D01*
X173012537Y-53211613D01*
X173127885Y-53108532D01*
X173132386Y-53104702D01*
X173254603Y-53005733D01*
X173260832Y-53001010D01*
X173387077Y-52911434D01*
X173391199Y-52908633D01*
X173522962Y-52823065D01*
X173530426Y-52818588D01*
X173666255Y-52743517D01*
X173669934Y-52741565D01*
X173809429Y-52670488D01*
X173818212Y-52666439D01*
X173962452Y-52606692D01*
X173965233Y-52605583D01*
X174110753Y-52549724D01*
X174120811Y-52546351D01*
X174272293Y-52502709D01*
X174274305Y-52502150D01*
X174423402Y-52462199D01*
X174434666Y-52459739D01*
X174593809Y-52432700D01*
X174594947Y-52432513D01*
X174743694Y-52408954D01*
X174756087Y-52407628D01*
X174936554Y-52397493D01*
X175063513Y-52390840D01*
X175076487Y-52390840D01*
X175203379Y-52397490D01*
G37*
%TD.AperFunction*%
%TA.AperFunction,NonConductor*%
G36*
X191398029Y-52445958D02*
G01*
X191582974Y-52456365D01*
X191595359Y-52457691D01*
X191740210Y-52480632D01*
X191741367Y-52480822D01*
X191904397Y-52508521D01*
X191915719Y-52510994D01*
X192027898Y-52541051D01*
X192047678Y-52546351D01*
X192062223Y-52550248D01*
X192064426Y-52550860D01*
X192218291Y-52595186D01*
X192228373Y-52598567D01*
X192371981Y-52653692D01*
X192374920Y-52654865D01*
X192520902Y-52715331D01*
X192529725Y-52719398D01*
X192667686Y-52789691D01*
X192671349Y-52791636D01*
X192758545Y-52839827D01*
X192808716Y-52867555D01*
X192816270Y-52872088D01*
X192946611Y-52956732D01*
X192950830Y-52959597D01*
X193078345Y-53050072D01*
X193084603Y-53054819D01*
X193205641Y-53152833D01*
X193210232Y-53156739D01*
X193217453Y-53163192D01*
X193326617Y-53260746D01*
X193331651Y-53265504D01*
X193441872Y-53375724D01*
X193446635Y-53380762D01*
X193452549Y-53387380D01*
X193550629Y-53497131D01*
X193554535Y-53501721D01*
X193652547Y-53622753D01*
X193657311Y-53629034D01*
X193747777Y-53756531D01*
X193750643Y-53760751D01*
X193835301Y-53891111D01*
X193839833Y-53898665D01*
X193915728Y-54035984D01*
X193917673Y-54039647D01*
X193985744Y-54173241D01*
X193987977Y-54177623D01*
X193992053Y-54186465D01*
X194052509Y-54332416D01*
X194053712Y-54335431D01*
X194108815Y-54478978D01*
X194112204Y-54489087D01*
X194156514Y-54642885D01*
X194157136Y-54645120D01*
X194196395Y-54791634D01*
X194198868Y-54802957D01*
X194226553Y-54965894D01*
X194226778Y-54967266D01*
X194249696Y-55111954D01*
X194251028Y-55124399D01*
X194261768Y-55315621D01*
X194261793Y-55316084D01*
X194268010Y-55434690D01*
X194268180Y-55441181D01*
X194268180Y-89435435D01*
X194268010Y-89441925D01*
X194261204Y-89571781D01*
X194261179Y-89572242D01*
X194251054Y-89752568D01*
X194249722Y-89765015D01*
X194226192Y-89913577D01*
X194225967Y-89914949D01*
X194198946Y-90073991D01*
X194196473Y-90085314D01*
X194156571Y-90234234D01*
X194155950Y-90236468D01*
X194112340Y-90387844D01*
X194108950Y-90397954D01*
X194053145Y-90543333D01*
X194051942Y-90546348D01*
X193992259Y-90690437D01*
X193988183Y-90699280D01*
X193917126Y-90838738D01*
X193915169Y-90842424D01*
X193840115Y-90978224D01*
X193835582Y-90985778D01*
X193750090Y-91117425D01*
X193747225Y-91121645D01*
X193657693Y-91247829D01*
X193652929Y-91254109D01*
X193554012Y-91376262D01*
X193550105Y-91380854D01*
X193447116Y-91496098D01*
X193442338Y-91501152D01*
X193331152Y-91612338D01*
X193326098Y-91617116D01*
X193210854Y-91720105D01*
X193206262Y-91724012D01*
X193084109Y-91822929D01*
X193077829Y-91827693D01*
X192951645Y-91917225D01*
X192947425Y-91920090D01*
X192815778Y-92005582D01*
X192808224Y-92010115D01*
X192672424Y-92085169D01*
X192668738Y-92087126D01*
X192529280Y-92158183D01*
X192520437Y-92162259D01*
X192376348Y-92221942D01*
X192373333Y-92223145D01*
X192227954Y-92278950D01*
X192217844Y-92282340D01*
X192066468Y-92325950D01*
X192064234Y-92326571D01*
X191915314Y-92366473D01*
X191903991Y-92368946D01*
X191744949Y-92395967D01*
X191743577Y-92396192D01*
X191595015Y-92419722D01*
X191582568Y-92421054D01*
X191402242Y-92431179D01*
X191401780Y-92431204D01*
X191275170Y-92437839D01*
X191262191Y-92437839D01*
X191131291Y-92430978D01*
X191130841Y-92430954D01*
X190955166Y-92421107D01*
X190942708Y-92419774D01*
X190790273Y-92395630D01*
X190788900Y-92395405D01*
X190633792Y-92369051D01*
X190622468Y-92366578D01*
X190471049Y-92326004D01*
X190468815Y-92325382D01*
X190319959Y-92282496D01*
X190309850Y-92279107D01*
X190162612Y-92222587D01*
X190159596Y-92221384D01*
X190017385Y-92162477D01*
X190008543Y-92158400D01*
X189867569Y-92086569D01*
X189863883Y-92084612D01*
X189729632Y-92010413D01*
X189722078Y-92005881D01*
X189589140Y-91919549D01*
X189584920Y-91916683D01*
X189460041Y-91828075D01*
X189453761Y-91823312D01*
X189330482Y-91723482D01*
X189325890Y-91719575D01*
X189211781Y-91617599D01*
X189206727Y-91612820D01*
X189094547Y-91500637D01*
X189089769Y-91495584D01*
X188987792Y-91381471D01*
X188983905Y-91376903D01*
X188884052Y-91253592D01*
X188879313Y-91247344D01*
X188790658Y-91122396D01*
X188787840Y-91118245D01*
X188719460Y-91012947D01*
X188701506Y-90985299D01*
X188696974Y-90977746D01*
X188637170Y-90869538D01*
X188622747Y-90843442D01*
X188620800Y-90839773D01*
X188615693Y-90829750D01*
X188548974Y-90698803D01*
X188544901Y-90689967D01*
X188485989Y-90547738D01*
X188484821Y-90544811D01*
X188428276Y-90397502D01*
X188424889Y-90387401D01*
X188381991Y-90238494D01*
X188381408Y-90236399D01*
X188340804Y-90084857D01*
X188338342Y-90073587D01*
X188311977Y-89918404D01*
X188311786Y-89917241D01*
X188287610Y-89764596D01*
X188286285Y-89752210D01*
X188276761Y-89582605D01*
X188270507Y-89463243D01*
X188269350Y-89441153D01*
X188269180Y-89434666D01*
X188269180Y-89308679D01*
X189903020Y-89308679D01*
X189923616Y-89544087D01*
X189979478Y-89752568D01*
X189984777Y-89772343D01*
X190084645Y-89986509D01*
X190220185Y-90180081D01*
X190387279Y-90347175D01*
X190580851Y-90482715D01*
X190795017Y-90582583D01*
X191011520Y-90640594D01*
X191023272Y-90643743D01*
X191199712Y-90659180D01*
X191199714Y-90659180D01*
X191317646Y-90659180D01*
X191317648Y-90659180D01*
X191435273Y-90648888D01*
X191494088Y-90643743D01*
X191722343Y-90582583D01*
X191936509Y-90482715D01*
X192130081Y-90347175D01*
X192297175Y-90180081D01*
X192432715Y-89986510D01*
X192532583Y-89772343D01*
X192593743Y-89544088D01*
X192614339Y-89308680D01*
X192593743Y-89073272D01*
X192532583Y-88845017D01*
X192432715Y-88630851D01*
X192297175Y-88437279D01*
X192130081Y-88270185D01*
X191936509Y-88134645D01*
X191722343Y-88034777D01*
X191494087Y-87973616D01*
X191317648Y-87958180D01*
X191317646Y-87958180D01*
X191199714Y-87958180D01*
X191199712Y-87958180D01*
X191023272Y-87973616D01*
X190795016Y-88034777D01*
X190580850Y-88134645D01*
X190387278Y-88270185D01*
X190220188Y-88437275D01*
X190220185Y-88437278D01*
X190220185Y-88437279D01*
X190115814Y-88586337D01*
X190084644Y-88630852D01*
X189984777Y-88845017D01*
X189923616Y-89073272D01*
X189903020Y-89308679D01*
X188269180Y-89308679D01*
X188269180Y-55836444D01*
X189424467Y-55836444D01*
X189454093Y-56105696D01*
X189488073Y-56235670D01*
X189522608Y-56367768D01*
X189606149Y-56564355D01*
X189628551Y-56617072D01*
X189769662Y-56848291D01*
X189942933Y-57056498D01*
X189942935Y-57056500D01*
X190144678Y-57237262D01*
X190370590Y-57386724D01*
X190453684Y-57425677D01*
X190615857Y-57501701D01*
X190875242Y-57579738D01*
X190875249Y-57579740D01*
X191143241Y-57619180D01*
X191346311Y-57619180D01*
X191346314Y-57619180D01*
X191548836Y-57604357D01*
X191563646Y-57601058D01*
X191813233Y-57545460D01*
X192066238Y-57448694D01*
X192302457Y-57316121D01*
X192516857Y-57150568D01*
X192704866Y-56955561D01*
X192862479Y-56735259D01*
X192986336Y-56494355D01*
X193073798Y-56237985D01*
X193122999Y-55971613D01*
X193132892Y-55700915D01*
X193103266Y-55431662D01*
X193034752Y-55169592D01*
X192928810Y-54920290D01*
X192850292Y-54791634D01*
X192787697Y-54689068D01*
X192614426Y-54480861D01*
X192612814Y-54479417D01*
X192412682Y-54300098D01*
X192186770Y-54150636D01*
X192186766Y-54150634D01*
X191941502Y-54035658D01*
X191682117Y-53957621D01*
X191682111Y-53957620D01*
X191414119Y-53918180D01*
X191211049Y-53918180D01*
X191211046Y-53918180D01*
X191008523Y-53933002D01*
X190744129Y-53991899D01*
X190491121Y-54088666D01*
X190254903Y-54221239D01*
X190040505Y-54386789D01*
X189852493Y-54581800D01*
X189694881Y-54802100D01*
X189584863Y-55016087D01*
X189573261Y-55038655D01*
X189571022Y-55043009D01*
X189483561Y-55299375D01*
X189434360Y-55565746D01*
X189424467Y-55836444D01*
X188269180Y-55836444D01*
X188269180Y-55441926D01*
X188269350Y-55435437D01*
X188271731Y-55390000D01*
X188276167Y-55305371D01*
X188286310Y-55124759D01*
X188287636Y-55112370D01*
X188311228Y-54963427D01*
X188311341Y-54962737D01*
X188338422Y-54803356D01*
X188340888Y-54792064D01*
X188380840Y-54642966D01*
X188381407Y-54640930D01*
X188425027Y-54489524D01*
X188428416Y-54479417D01*
X188428585Y-54478978D01*
X188484270Y-54333913D01*
X188485381Y-54331126D01*
X188545120Y-54186904D01*
X188549170Y-54178120D01*
X188620286Y-54038548D01*
X188622181Y-54034980D01*
X188697269Y-53899120D01*
X188701776Y-53891608D01*
X188787290Y-53759929D01*
X188790103Y-53755785D01*
X188879712Y-53629494D01*
X188884419Y-53623289D01*
X188983404Y-53501052D01*
X188987217Y-53496572D01*
X189090296Y-53381226D01*
X189095006Y-53376244D01*
X189206244Y-53265006D01*
X189211226Y-53260296D01*
X189326572Y-53157217D01*
X189331052Y-53153404D01*
X189453289Y-53054419D01*
X189459494Y-53049712D01*
X189585785Y-52960103D01*
X189589929Y-52957290D01*
X189721608Y-52871776D01*
X189729120Y-52867269D01*
X189864980Y-52792181D01*
X189868548Y-52790286D01*
X190008120Y-52719170D01*
X190016904Y-52715120D01*
X190161126Y-52655381D01*
X190163913Y-52654270D01*
X190309425Y-52598413D01*
X190319525Y-52595027D01*
X190335238Y-52590500D01*
X190470930Y-52551407D01*
X190472966Y-52550840D01*
X190622064Y-52510888D01*
X190633356Y-52508422D01*
X190792737Y-52481341D01*
X190793427Y-52481228D01*
X190942370Y-52457636D01*
X190954759Y-52456310D01*
X191135359Y-52446167D01*
X191262193Y-52439520D01*
X191275168Y-52439520D01*
X191398029Y-52445958D01*
G37*
%TD.AperFunction*%
%TA.AperFunction,NonConductor*%
G36*
X183403379Y-52467490D02*
G01*
X183583908Y-52477628D01*
X183596309Y-52478955D01*
X183744990Y-52502504D01*
X183746245Y-52502709D01*
X183905324Y-52529738D01*
X183916606Y-52532202D01*
X184065635Y-52572134D01*
X184067761Y-52572725D01*
X184219174Y-52616347D01*
X184229260Y-52619729D01*
X184374710Y-52675562D01*
X184377599Y-52676714D01*
X184521768Y-52736430D01*
X184530589Y-52740497D01*
X184536515Y-52743517D01*
X184670064Y-52811565D01*
X184673748Y-52813521D01*
X184759649Y-52860996D01*
X184809548Y-52888574D01*
X184817061Y-52893081D01*
X184948754Y-52978604D01*
X184952947Y-52981452D01*
X185079147Y-53070996D01*
X185085426Y-53075757D01*
X185206324Y-53173659D01*
X185207567Y-53174665D01*
X185212154Y-53178567D01*
X185308918Y-53265041D01*
X185327424Y-53281579D01*
X185332478Y-53286358D01*
X185443640Y-53397520D01*
X185448419Y-53402574D01*
X185551427Y-53517840D01*
X185555333Y-53522431D01*
X185654239Y-53644570D01*
X185659002Y-53650851D01*
X185748546Y-53777051D01*
X185751409Y-53781266D01*
X185836907Y-53912921D01*
X185841430Y-53920460D01*
X185916477Y-54056250D01*
X185918433Y-54059934D01*
X185989498Y-54199404D01*
X185993575Y-54208247D01*
X186053259Y-54352337D01*
X186054462Y-54355353D01*
X186110265Y-54500727D01*
X186113655Y-54510836D01*
X186157258Y-54662185D01*
X186157879Y-54664419D01*
X186197791Y-54813370D01*
X186200264Y-54824694D01*
X186227282Y-54983715D01*
X186227507Y-54985087D01*
X186251040Y-55133666D01*
X186252372Y-55146111D01*
X186262498Y-55326421D01*
X186262523Y-55326884D01*
X186269330Y-55456757D01*
X186269500Y-55463247D01*
X186269500Y-89456753D01*
X186269330Y-89463243D01*
X186262523Y-89593114D01*
X186262498Y-89593577D01*
X186252372Y-89773887D01*
X186251040Y-89786332D01*
X186227507Y-89934911D01*
X186227282Y-89936283D01*
X186200264Y-90095304D01*
X186197791Y-90106628D01*
X186157879Y-90255579D01*
X186157258Y-90257813D01*
X186113655Y-90409162D01*
X186110265Y-90419271D01*
X186054462Y-90564645D01*
X186053259Y-90567661D01*
X185993575Y-90711751D01*
X185989498Y-90720594D01*
X185918433Y-90860064D01*
X185916477Y-90863749D01*
X185841429Y-90999539D01*
X185836896Y-91007093D01*
X185751416Y-91138722D01*
X185748550Y-91142943D01*
X185659002Y-91269148D01*
X185654239Y-91275428D01*
X185555333Y-91397567D01*
X185551427Y-91402158D01*
X185448419Y-91517424D01*
X185443640Y-91522478D01*
X185332478Y-91633640D01*
X185327424Y-91638419D01*
X185212158Y-91741427D01*
X185207567Y-91745333D01*
X185085428Y-91844239D01*
X185079147Y-91849002D01*
X184952947Y-91938546D01*
X184948728Y-91941412D01*
X184817094Y-92026897D01*
X184809538Y-92031430D01*
X184673748Y-92106477D01*
X184670064Y-92108433D01*
X184530594Y-92179498D01*
X184521751Y-92183575D01*
X184377661Y-92243259D01*
X184374645Y-92244462D01*
X184229271Y-92300265D01*
X184219162Y-92303655D01*
X184067813Y-92347258D01*
X184065579Y-92347879D01*
X183916628Y-92387791D01*
X183905304Y-92390264D01*
X183746283Y-92417282D01*
X183744911Y-92417507D01*
X183596332Y-92441040D01*
X183583887Y-92442372D01*
X183403577Y-92452498D01*
X183403114Y-92452523D01*
X183276489Y-92459159D01*
X183263509Y-92459159D01*
X183136884Y-92452523D01*
X183136421Y-92452498D01*
X182956111Y-92442372D01*
X182943666Y-92441040D01*
X182795087Y-92417507D01*
X182793715Y-92417282D01*
X182634694Y-92390264D01*
X182623370Y-92387791D01*
X182474419Y-92347879D01*
X182472185Y-92347258D01*
X182320836Y-92303655D01*
X182310727Y-92300265D01*
X182165353Y-92244462D01*
X182162337Y-92243259D01*
X182018247Y-92183575D01*
X182009404Y-92179498D01*
X181869934Y-92108433D01*
X181866250Y-92106477D01*
X181730460Y-92031430D01*
X181722921Y-92026907D01*
X181591266Y-91941409D01*
X181587051Y-91938546D01*
X181460851Y-91849002D01*
X181454570Y-91844239D01*
X181332431Y-91745333D01*
X181327840Y-91741427D01*
X181212574Y-91638419D01*
X181207520Y-91633640D01*
X181096358Y-91522478D01*
X181091579Y-91517424D01*
X181077188Y-91501320D01*
X180988567Y-91402154D01*
X180984665Y-91397566D01*
X180885754Y-91275420D01*
X180880991Y-91269140D01*
X180791464Y-91142964D01*
X180788598Y-91138744D01*
X180703098Y-91007086D01*
X180698565Y-90999532D01*
X180692825Y-90989147D01*
X180664056Y-90937093D01*
X180623521Y-90863749D01*
X180621565Y-90860064D01*
X180562461Y-90744068D01*
X180550497Y-90720589D01*
X180546430Y-90711768D01*
X180486714Y-90567599D01*
X180485562Y-90564710D01*
X180429729Y-90419260D01*
X180426347Y-90409174D01*
X180382725Y-90257761D01*
X180382134Y-90255635D01*
X180342202Y-90106606D01*
X180339738Y-90095324D01*
X180312709Y-89936245D01*
X180312491Y-89934911D01*
X180288955Y-89786309D01*
X180287628Y-89773908D01*
X180277485Y-89593285D01*
X180277476Y-89593114D01*
X180270669Y-89463243D01*
X180270500Y-89456755D01*
X180270500Y-89330000D01*
X181904340Y-89330000D01*
X181924936Y-89565407D01*
X181970712Y-89736245D01*
X181986097Y-89793663D01*
X182085965Y-90007829D01*
X182221505Y-90201401D01*
X182388599Y-90368495D01*
X182582171Y-90504035D01*
X182796337Y-90603903D01*
X183002636Y-90659180D01*
X183024592Y-90665063D01*
X183201032Y-90680500D01*
X183201034Y-90680500D01*
X183318966Y-90680500D01*
X183318968Y-90680500D01*
X183436594Y-90670208D01*
X183495408Y-90665063D01*
X183723663Y-90603903D01*
X183937829Y-90504035D01*
X184131401Y-90368495D01*
X184298495Y-90201401D01*
X184434035Y-90007830D01*
X184533903Y-89793663D01*
X184595063Y-89565408D01*
X184615659Y-89330000D01*
X184595063Y-89094592D01*
X184533903Y-88866337D01*
X184434035Y-88652171D01*
X184298495Y-88458599D01*
X184131401Y-88291505D01*
X183937829Y-88155965D01*
X183723663Y-88056097D01*
X183723662Y-88056096D01*
X183495407Y-87994936D01*
X183318968Y-87979500D01*
X183318966Y-87979500D01*
X183201034Y-87979500D01*
X183201032Y-87979500D01*
X183024592Y-87994936D01*
X182796336Y-88056097D01*
X182582170Y-88155965D01*
X182388598Y-88291505D01*
X182221508Y-88458595D01*
X182221505Y-88458598D01*
X182221505Y-88458599D01*
X182100894Y-88630850D01*
X182085964Y-88652172D01*
X181986097Y-88866337D01*
X181924936Y-89094592D01*
X181904340Y-89330000D01*
X180270500Y-89330000D01*
X180270500Y-55857764D01*
X181425787Y-55857764D01*
X181455413Y-56127016D01*
X181489998Y-56259304D01*
X181523928Y-56389088D01*
X181600123Y-56568390D01*
X181629871Y-56638392D01*
X181770982Y-56869611D01*
X181928243Y-57058580D01*
X181944255Y-57077820D01*
X182145998Y-57258582D01*
X182371910Y-57408044D01*
X182467855Y-57453021D01*
X182617177Y-57523021D01*
X182876562Y-57601058D01*
X182876569Y-57601060D01*
X183144561Y-57640500D01*
X183347631Y-57640500D01*
X183347634Y-57640500D01*
X183550156Y-57625677D01*
X183579322Y-57619180D01*
X183814553Y-57566780D01*
X184067558Y-57470014D01*
X184303777Y-57337441D01*
X184518177Y-57171888D01*
X184706186Y-56976881D01*
X184863799Y-56756579D01*
X184987656Y-56515675D01*
X185075118Y-56259305D01*
X185124319Y-55992933D01*
X185134212Y-55722235D01*
X185104586Y-55452982D01*
X185036072Y-55190912D01*
X184930130Y-54941610D01*
X184834605Y-54785087D01*
X184789017Y-54710388D01*
X184615746Y-54502181D01*
X184591951Y-54480861D01*
X184414002Y-54321418D01*
X184188090Y-54171956D01*
X184188086Y-54171954D01*
X183942822Y-54056978D01*
X183683437Y-53978941D01*
X183683431Y-53978940D01*
X183415439Y-53939500D01*
X183212369Y-53939500D01*
X183212366Y-53939500D01*
X183009843Y-53954322D01*
X182745449Y-54013219D01*
X182492441Y-54109986D01*
X182256223Y-54242559D01*
X182041825Y-54408109D01*
X181853813Y-54603120D01*
X181696201Y-54823420D01*
X181572342Y-55064329D01*
X181484881Y-55320695D01*
X181435680Y-55587066D01*
X181425787Y-55857764D01*
X180270500Y-55857764D01*
X180270500Y-55463245D01*
X180270670Y-55456756D01*
X180271617Y-55438680D01*
X180277486Y-55326701D01*
X180287628Y-55146087D01*
X180288954Y-55133694D01*
X180312513Y-54984947D01*
X180312700Y-54983809D01*
X180339739Y-54824666D01*
X180342199Y-54813402D01*
X180382150Y-54664305D01*
X180382709Y-54662293D01*
X180426351Y-54510811D01*
X180429724Y-54500753D01*
X180485583Y-54355233D01*
X180486692Y-54352452D01*
X180546439Y-54208212D01*
X180550488Y-54199429D01*
X180621569Y-54059925D01*
X180623521Y-54056250D01*
X180632684Y-54039671D01*
X180698588Y-53920426D01*
X180703065Y-53912962D01*
X180788633Y-53781199D01*
X180791434Y-53777077D01*
X180881010Y-53650832D01*
X180885733Y-53644603D01*
X180984702Y-53522386D01*
X180988532Y-53517885D01*
X181091613Y-53402537D01*
X181096323Y-53397556D01*
X181207556Y-53286323D01*
X181212537Y-53281613D01*
X181327885Y-53178532D01*
X181332386Y-53174702D01*
X181454603Y-53075733D01*
X181460832Y-53071010D01*
X181587077Y-52981434D01*
X181591199Y-52978633D01*
X181722962Y-52893065D01*
X181730426Y-52888588D01*
X181866255Y-52813517D01*
X181869934Y-52811565D01*
X181875804Y-52808574D01*
X182009429Y-52740488D01*
X182018212Y-52736439D01*
X182162452Y-52676692D01*
X182165233Y-52675583D01*
X182310753Y-52619724D01*
X182320811Y-52616351D01*
X182472293Y-52572709D01*
X182474305Y-52572150D01*
X182623402Y-52532199D01*
X182634666Y-52529739D01*
X182793809Y-52502700D01*
X182794947Y-52502513D01*
X182943694Y-52478954D01*
X182956087Y-52477628D01*
X183136554Y-52467493D01*
X183263513Y-52460840D01*
X183276487Y-52460840D01*
X183403379Y-52467490D01*
G37*
%TD.AperFunction*%
%TA.AperFunction,NonConductor*%
G36*
X199598029Y-52515958D02*
G01*
X199782974Y-52526365D01*
X199795359Y-52527691D01*
X199940210Y-52550632D01*
X199941367Y-52550822D01*
X200104397Y-52578521D01*
X200115719Y-52580994D01*
X200229816Y-52611565D01*
X200247678Y-52616351D01*
X200262223Y-52620248D01*
X200264426Y-52620860D01*
X200418291Y-52665186D01*
X200428373Y-52668567D01*
X200571981Y-52723692D01*
X200574920Y-52724865D01*
X200720902Y-52785331D01*
X200729725Y-52789398D01*
X200867686Y-52859691D01*
X200871349Y-52861636D01*
X200967011Y-52914506D01*
X201008716Y-52937555D01*
X201016270Y-52942088D01*
X201146611Y-53026732D01*
X201150830Y-53029597D01*
X201278345Y-53120072D01*
X201284603Y-53124819D01*
X201405641Y-53222833D01*
X201410232Y-53226739D01*
X201422654Y-53237840D01*
X201526617Y-53330746D01*
X201531651Y-53335504D01*
X201641872Y-53445724D01*
X201646635Y-53450762D01*
X201648126Y-53452431D01*
X201750629Y-53567131D01*
X201754535Y-53571721D01*
X201852547Y-53692753D01*
X201857311Y-53699034D01*
X201947777Y-53826531D01*
X201950643Y-53830751D01*
X202035301Y-53961111D01*
X202039833Y-53968665D01*
X202115728Y-54105984D01*
X202117673Y-54109647D01*
X202187977Y-54247623D01*
X202192053Y-54256465D01*
X202252509Y-54402416D01*
X202253712Y-54405431D01*
X202308815Y-54548978D01*
X202312204Y-54559087D01*
X202356514Y-54712885D01*
X202357136Y-54715120D01*
X202396395Y-54861634D01*
X202398868Y-54872957D01*
X202426553Y-55035894D01*
X202426778Y-55037266D01*
X202449696Y-55181954D01*
X202451028Y-55194399D01*
X202461768Y-55385621D01*
X202461793Y-55386084D01*
X202468010Y-55504690D01*
X202468180Y-55511181D01*
X202468180Y-89505435D01*
X202468010Y-89511925D01*
X202461204Y-89641781D01*
X202461179Y-89642242D01*
X202451054Y-89822568D01*
X202449722Y-89835015D01*
X202426192Y-89983577D01*
X202425967Y-89984949D01*
X202398946Y-90143991D01*
X202396473Y-90155314D01*
X202356571Y-90304234D01*
X202355950Y-90306468D01*
X202312340Y-90457844D01*
X202308950Y-90467954D01*
X202253145Y-90613333D01*
X202251942Y-90616348D01*
X202192259Y-90760437D01*
X202188183Y-90769280D01*
X202117126Y-90908738D01*
X202115169Y-90912424D01*
X202040115Y-91048224D01*
X202035582Y-91055778D01*
X201950090Y-91187425D01*
X201947225Y-91191645D01*
X201857693Y-91317829D01*
X201852929Y-91324109D01*
X201754012Y-91446262D01*
X201750105Y-91450854D01*
X201647116Y-91566098D01*
X201642338Y-91571152D01*
X201531152Y-91682338D01*
X201526098Y-91687116D01*
X201410854Y-91790105D01*
X201406262Y-91794012D01*
X201284109Y-91892929D01*
X201277829Y-91897693D01*
X201151645Y-91987225D01*
X201147425Y-91990090D01*
X201015778Y-92075582D01*
X201008224Y-92080115D01*
X200872424Y-92155169D01*
X200868738Y-92157126D01*
X200729280Y-92228183D01*
X200720437Y-92232259D01*
X200576348Y-92291942D01*
X200573333Y-92293145D01*
X200427954Y-92348950D01*
X200417844Y-92352340D01*
X200266468Y-92395950D01*
X200264234Y-92396571D01*
X200115314Y-92436473D01*
X200103991Y-92438946D01*
X199944949Y-92465967D01*
X199943577Y-92466192D01*
X199795015Y-92489722D01*
X199782568Y-92491054D01*
X199602242Y-92501179D01*
X199601780Y-92501204D01*
X199475170Y-92507839D01*
X199462191Y-92507839D01*
X199331291Y-92500978D01*
X199330841Y-92500954D01*
X199155166Y-92491107D01*
X199142708Y-92489774D01*
X198990273Y-92465630D01*
X198988900Y-92465405D01*
X198833792Y-92439051D01*
X198822468Y-92436578D01*
X198671049Y-92396004D01*
X198668815Y-92395382D01*
X198519959Y-92352496D01*
X198509850Y-92349107D01*
X198362612Y-92292587D01*
X198359596Y-92291384D01*
X198217385Y-92232477D01*
X198208543Y-92228400D01*
X198067569Y-92156569D01*
X198063883Y-92154612D01*
X197929632Y-92080413D01*
X197922078Y-92075881D01*
X197789140Y-91989549D01*
X197784920Y-91986683D01*
X197660041Y-91898075D01*
X197653761Y-91893312D01*
X197530482Y-91793482D01*
X197525890Y-91789575D01*
X197411781Y-91687599D01*
X197406727Y-91682820D01*
X197294547Y-91570637D01*
X197289769Y-91565584D01*
X197187792Y-91451471D01*
X197183905Y-91446903D01*
X197084052Y-91323592D01*
X197079313Y-91317344D01*
X196990658Y-91192396D01*
X196987840Y-91188245D01*
X196926029Y-91093062D01*
X196901506Y-91055299D01*
X196896974Y-91047746D01*
X196836722Y-90938728D01*
X196822747Y-90913442D01*
X196820800Y-90909773D01*
X196808907Y-90886432D01*
X196748974Y-90768803D01*
X196744901Y-90759967D01*
X196685989Y-90617738D01*
X196684821Y-90614811D01*
X196628276Y-90467502D01*
X196624889Y-90457401D01*
X196581991Y-90308495D01*
X196581408Y-90306400D01*
X196540804Y-90154857D01*
X196538342Y-90143587D01*
X196511977Y-89988404D01*
X196511786Y-89987241D01*
X196487610Y-89834596D01*
X196486285Y-89822210D01*
X196476761Y-89652605D01*
X196470001Y-89523577D01*
X196469350Y-89511153D01*
X196469180Y-89504666D01*
X196469180Y-89378679D01*
X198103020Y-89378679D01*
X198123616Y-89614087D01*
X198179478Y-89822568D01*
X198184777Y-89842343D01*
X198284645Y-90056509D01*
X198420185Y-90250081D01*
X198587279Y-90417175D01*
X198780851Y-90552715D01*
X198995017Y-90652583D01*
X199169295Y-90699280D01*
X199223272Y-90713743D01*
X199399712Y-90729180D01*
X199399714Y-90729180D01*
X199517646Y-90729180D01*
X199517648Y-90729180D01*
X199635274Y-90718888D01*
X199694088Y-90713743D01*
X199922343Y-90652583D01*
X200136509Y-90552715D01*
X200330081Y-90417175D01*
X200497175Y-90250081D01*
X200632715Y-90056510D01*
X200732583Y-89842343D01*
X200793743Y-89614088D01*
X200814339Y-89378680D01*
X200806178Y-89285407D01*
X200793743Y-89143272D01*
X200761943Y-89024592D01*
X200732583Y-88915017D01*
X200632715Y-88700851D01*
X200497175Y-88507279D01*
X200330081Y-88340185D01*
X200136509Y-88204645D01*
X199922343Y-88104777D01*
X199872811Y-88091505D01*
X199694087Y-88043616D01*
X199517648Y-88028180D01*
X199517646Y-88028180D01*
X199399714Y-88028180D01*
X199399712Y-88028180D01*
X199223272Y-88043616D01*
X198995016Y-88104777D01*
X198780850Y-88204645D01*
X198587278Y-88340185D01*
X198420188Y-88507275D01*
X198420185Y-88507278D01*
X198420185Y-88507279D01*
X198308812Y-88666337D01*
X198284644Y-88700852D01*
X198184777Y-88915017D01*
X198123616Y-89143272D01*
X198103020Y-89378679D01*
X196469180Y-89378679D01*
X196469180Y-55906444D01*
X197624467Y-55906444D01*
X197654093Y-56175696D01*
X197688073Y-56305670D01*
X197722608Y-56437768D01*
X197794345Y-56606579D01*
X197828551Y-56687072D01*
X197969662Y-56918291D01*
X198142933Y-57126498D01*
X198142935Y-57126500D01*
X198344678Y-57307262D01*
X198570590Y-57456724D01*
X198666535Y-57501701D01*
X198815857Y-57571701D01*
X199075242Y-57649738D01*
X199075249Y-57649740D01*
X199343241Y-57689180D01*
X199546311Y-57689180D01*
X199546314Y-57689180D01*
X199748836Y-57674357D01*
X199748836Y-57674356D01*
X200013233Y-57615460D01*
X200266238Y-57518694D01*
X200502457Y-57386121D01*
X200716857Y-57220568D01*
X200904866Y-57025561D01*
X201062479Y-56805259D01*
X201186336Y-56564355D01*
X201273798Y-56307985D01*
X201322999Y-56041613D01*
X201332892Y-55770915D01*
X201303266Y-55501662D01*
X201234752Y-55239592D01*
X201128810Y-54990290D01*
X201050292Y-54861634D01*
X200987697Y-54759068D01*
X200814426Y-54550861D01*
X200812814Y-54549417D01*
X200612682Y-54370098D01*
X200386770Y-54220636D01*
X200360342Y-54208247D01*
X200141502Y-54105658D01*
X199882117Y-54027621D01*
X199882111Y-54027620D01*
X199614119Y-53988180D01*
X199411049Y-53988180D01*
X199411046Y-53988180D01*
X199208523Y-54003002D01*
X198944129Y-54061899D01*
X198691121Y-54158666D01*
X198454903Y-54291239D01*
X198240505Y-54456789D01*
X198052493Y-54651800D01*
X197894881Y-54872100D01*
X197771022Y-55113009D01*
X197683561Y-55369375D01*
X197634360Y-55635746D01*
X197624467Y-55906444D01*
X196469180Y-55906444D01*
X196469180Y-55511926D01*
X196469350Y-55505437D01*
X196471731Y-55460000D01*
X196476167Y-55375371D01*
X196486310Y-55194759D01*
X196487636Y-55182370D01*
X196511228Y-55033427D01*
X196511341Y-55032737D01*
X196538422Y-54873356D01*
X196540888Y-54862064D01*
X196580840Y-54712966D01*
X196581407Y-54710930D01*
X196625027Y-54559524D01*
X196628416Y-54549417D01*
X196630718Y-54543420D01*
X196684270Y-54403913D01*
X196685381Y-54401126D01*
X196745120Y-54256904D01*
X196749170Y-54248120D01*
X196820286Y-54108548D01*
X196822181Y-54104980D01*
X196897269Y-53969120D01*
X196901776Y-53961608D01*
X196987290Y-53829929D01*
X196990103Y-53825785D01*
X197079712Y-53699494D01*
X197084419Y-53693289D01*
X197183404Y-53571052D01*
X197187217Y-53566572D01*
X197290296Y-53451226D01*
X197295006Y-53446244D01*
X197406244Y-53335006D01*
X197411226Y-53330296D01*
X197526572Y-53227217D01*
X197531052Y-53223404D01*
X197653289Y-53124419D01*
X197659494Y-53119712D01*
X197785785Y-53030103D01*
X197789929Y-53027290D01*
X197921608Y-52941776D01*
X197929120Y-52937269D01*
X198064980Y-52862181D01*
X198068548Y-52860286D01*
X198208120Y-52789170D01*
X198216904Y-52785120D01*
X198361126Y-52725381D01*
X198363913Y-52724270D01*
X198509425Y-52668413D01*
X198519525Y-52665027D01*
X198535238Y-52660500D01*
X198670930Y-52621407D01*
X198672966Y-52620840D01*
X198822064Y-52580888D01*
X198833356Y-52578422D01*
X198992737Y-52551341D01*
X198993427Y-52551228D01*
X199142370Y-52527636D01*
X199154759Y-52526310D01*
X199335359Y-52516167D01*
X199462193Y-52509520D01*
X199475168Y-52509520D01*
X199598029Y-52515958D01*
G37*
%TD.AperFunction*%
M02*
