%TF.GenerationSoftware,KiCad,Pcbnew,7.0.6*%
%TF.CreationDate,2023-09-01T00:58:10-07:00*%
%TF.ProjectId,top_plate,746f705f-706c-4617-9465-2e6b69636164,rev?*%
%TF.SameCoordinates,Original*%
%TF.FileFunction,Profile,NP*%
%FSLAX46Y46*%
G04 Gerber Fmt 4.6, Leading zero omitted, Abs format (unit mm)*
G04 Created by KiCad (PCBNEW 7.0.6) date 2023-09-01 00:58:10*
%MOMM*%
%LPD*%
G01*
G04 APERTURE LIST*
%TA.AperFunction,Profile*%
%ADD10C,0.200000*%
%TD*%
%TA.AperFunction,Profile*%
%ADD11C,0.100000*%
%TD*%
%TA.AperFunction,Profile*%
%ADD12C,0.050000*%
%TD*%
G04 APERTURE END LIST*
D10*
X77825700Y-81442770D02*
G75*
G03*
X77825700Y-81442770I-1J0D01*
G01*
D11*
X33748096Y-85987676D02*
G75*
G03*
X31208096Y-88527670I-26J-2539974D01*
G01*
D12*
X364954872Y-96369089D02*
X386795621Y-96369089D01*
X386795621Y-117955876D01*
X364954872Y-117955876D01*
X364954872Y-96369089D01*
D11*
X400449155Y-200642025D02*
X33748096Y-200642025D01*
D12*
X315967525Y-182907188D02*
G75*
G03*
X315967525Y-182907188I-15979145J0D01*
G01*
D11*
X402989155Y-88527670D02*
X402989155Y-198102025D01*
X402989130Y-88527670D02*
G75*
G03*
X400449155Y-85987670I-2540030J-30D01*
G01*
X400449155Y-200642055D02*
G75*
G03*
X402989155Y-198102025I145J2539855D01*
G01*
X33748096Y-85987670D02*
X400449155Y-85987670D01*
X31208096Y-198102025D02*
X31208096Y-88527670D01*
X31208075Y-198102025D02*
G75*
G03*
X33748096Y-200642025I2540125J125D01*
G01*
D12*
%TO.C,REF\u002A\u002A*%
X201809151Y-175934714D02*
X208513542Y-175348156D01*
X208513542Y-175348156D02*
X209584686Y-187591389D01*
X209584686Y-187591389D02*
X202880295Y-188177947D01*
X202880295Y-188177947D02*
X201809151Y-175934714D01*
X239765041Y-172624042D02*
X246469431Y-172037484D01*
X246469431Y-172037484D02*
X247539704Y-184270755D01*
X247539704Y-184270755D02*
X240835313Y-184857313D01*
X240835313Y-184857313D02*
X239765041Y-172624042D01*
X119148382Y-172947182D02*
X125852772Y-173533741D01*
X125852772Y-173533741D02*
X124781628Y-185776973D01*
X124781628Y-185776973D02*
X118077238Y-185190415D01*
X118077238Y-185190415D02*
X119148382Y-172947182D01*
X157102528Y-176277778D02*
X163806918Y-176864336D01*
X163806918Y-176864336D02*
X162736646Y-189097607D01*
X162736646Y-189097607D02*
X156032256Y-188511049D01*
X156032256Y-188511049D02*
X157102528Y-176277778D01*
%TO.C,K_CTRL*%
X37663199Y-165967770D02*
X51613199Y-165967770D01*
X51613199Y-165967770D02*
X51613199Y-179917770D01*
X51613199Y-179917770D02*
X37663199Y-179917770D01*
X37663199Y-179917770D02*
X37663199Y-165967770D01*
%TO.C,K_B*%
X164735447Y-156211673D02*
X178632365Y-157427496D01*
X178632365Y-157427496D02*
X177416542Y-171324412D01*
X177416542Y-171324412D02*
X163519625Y-170108589D01*
X163519625Y-170108589D02*
X164735447Y-156211673D01*
%TO.C,K_UP*%
X342677649Y-157957376D02*
X356627649Y-157957376D01*
X356627649Y-157957376D02*
X356627649Y-171907376D01*
X356627649Y-171907376D02*
X342677649Y-171907376D01*
X342677649Y-171907376D02*
X342677649Y-157957376D01*
%TO.C,K_MINUS*%
X274220149Y-90597376D02*
X288170149Y-90597376D01*
X288170149Y-90597376D02*
X288170149Y-104547376D01*
X288170149Y-104547376D02*
X274220149Y-104547376D01*
X274220149Y-104547376D02*
X274220149Y-90597376D01*
%TO.C,K_CAPS*%
X42425699Y-127867770D02*
X56375699Y-127867770D01*
X56375699Y-127867770D02*
X56375699Y-141817770D01*
X56375699Y-141817770D02*
X42425699Y-141817770D01*
X42425699Y-141817770D02*
X42425699Y-127867770D01*
%TO.C,K_COMMA*%
X239172034Y-152077489D02*
X253068950Y-150861667D01*
X253068950Y-150861667D02*
X254284773Y-164758584D01*
X254284773Y-164758584D02*
X240387857Y-165974407D01*
X240387857Y-165974407D02*
X239172034Y-152077489D01*
%TO.C,K_W*%
X96890423Y-112030467D02*
X110787341Y-113246290D01*
X110787341Y-113246290D02*
X109571518Y-127143206D01*
X109571518Y-127143206D02*
X95674601Y-125927383D01*
X95674601Y-125927383D02*
X96890423Y-112030467D01*
%TO.C,K_T*%
X153822950Y-117011417D02*
X167719868Y-118227240D01*
X167719868Y-118227240D02*
X166504045Y-132124156D01*
X166504045Y-132124156D02*
X152607128Y-130908333D01*
X152607128Y-130908333D02*
X153822950Y-117011417D01*
%TO.C,K_5*%
X145994513Y-97203750D02*
X159891431Y-98419573D01*
X159891431Y-98419573D02*
X158675608Y-112316489D01*
X158675608Y-112316489D02*
X144778691Y-111100666D01*
X144778691Y-111100666D02*
X145994513Y-97203750D01*
%TO.C,K_X*%
X107802921Y-151230722D02*
X121699839Y-152446545D01*
X121699839Y-152446545D02*
X120484016Y-166343461D01*
X120484016Y-166343461D02*
X106587099Y-165127638D01*
X106587099Y-165127638D02*
X107802921Y-151230722D01*
%TO.C,K_Z*%
X78144449Y-146917770D02*
X92094449Y-146917770D01*
X92094449Y-146917770D02*
X92094449Y-160867770D01*
X92094449Y-160867770D02*
X78144449Y-160867770D01*
X78144449Y-160867770D02*
X78144449Y-146917770D01*
%TO.C,K_1*%
X54331949Y-89767770D02*
X68281949Y-89767770D01*
X68281949Y-89767770D02*
X68281949Y-103717770D01*
X68281949Y-103717770D02*
X54331949Y-103717770D01*
X54331949Y-103717770D02*
X54331949Y-89767770D01*
%TO.C,K_E*%
X115867931Y-113690783D02*
X129764849Y-114906606D01*
X129764849Y-114906606D02*
X128549026Y-128803522D01*
X128549026Y-128803522D02*
X114652109Y-127587699D01*
X114652109Y-127587699D02*
X115867931Y-113690783D01*
%TO.C,K_TAB*%
X40044449Y-108817770D02*
X53994449Y-108817770D01*
X53994449Y-108817770D02*
X53994449Y-122767770D01*
X53994449Y-122767770D02*
X40044449Y-122767770D01*
X40044449Y-122767770D02*
X40044449Y-108817770D01*
%TO.C,K_ENTER*%
X319463899Y-128697376D02*
X333413899Y-128697376D01*
X333413899Y-128697376D02*
X333413899Y-142647376D01*
X333413899Y-142647376D02*
X319463899Y-142647376D01*
X319463899Y-142647376D02*
X319463899Y-128697376D01*
%TO.C,REF\u002A\u002A*%
X282739649Y-149442376D02*
X289479649Y-149442376D01*
X289479649Y-149442376D02*
X289479649Y-161782376D01*
X289479649Y-161782376D02*
X282739649Y-161782376D01*
X282739649Y-161782376D02*
X282739649Y-149442376D01*
X306579649Y-149482376D02*
X313349649Y-149482376D01*
X313349649Y-149482376D02*
X313349649Y-161782376D01*
X313349649Y-161782376D02*
X306579649Y-161782376D01*
X306579649Y-161782376D02*
X306579649Y-149482376D01*
%TO.C,K_D*%
X118951992Y-133083372D02*
X132848910Y-134299195D01*
X132848910Y-134299195D02*
X131633087Y-148196111D01*
X131633087Y-148196111D02*
X117736170Y-146980288D01*
X117736170Y-146980288D02*
X118951992Y-133083372D01*
%TO.C,K_3*%
X108039495Y-93883116D02*
X121936413Y-95098939D01*
X121936413Y-95098939D02*
X120720590Y-108995855D01*
X120720590Y-108995855D02*
X106823673Y-107780032D01*
X106823673Y-107780032D02*
X108039495Y-93883116D01*
%TO.C,K_U*%
X202640759Y-117028026D02*
X216537675Y-115812204D01*
X216537675Y-115812204D02*
X217753498Y-129709121D01*
X217753498Y-129709121D02*
X203856582Y-130924944D01*
X203856582Y-130924944D02*
X202640759Y-117028026D01*
%TO.C,K_ALT*%
X94281661Y-169170532D02*
X108178579Y-170386355D01*
X108178579Y-170386355D02*
X106962756Y-184283271D01*
X106962756Y-184283271D02*
X93065839Y-183067448D01*
X93065839Y-183067448D02*
X94281661Y-169170532D01*
%TO.C,REF\u002A\u002A*%
X38821449Y-148022770D02*
X45561449Y-148022770D01*
X45561449Y-148022770D02*
X45561449Y-160362770D01*
X45561449Y-160362770D02*
X38821449Y-160362770D01*
X38821449Y-160362770D02*
X38821449Y-148022770D01*
X62661449Y-148062770D02*
X69431449Y-148062770D01*
X69431449Y-148062770D02*
X69431449Y-160362770D01*
X69431449Y-160362770D02*
X62661449Y-160362770D01*
X62661449Y-160362770D02*
X62661449Y-148062770D01*
%TO.C,K_I*%
X221618268Y-115367709D02*
X235515184Y-114151887D01*
X235515184Y-114151887D02*
X236731007Y-128048804D01*
X236731007Y-128048804D02*
X222834091Y-129264627D01*
X222834091Y-129264627D02*
X221618268Y-115367709D01*
%TO.C,K_G*%
X156907010Y-136404005D02*
X170803928Y-137619828D01*
X170803928Y-137619828D02*
X169588105Y-151516744D01*
X169588105Y-151516744D02*
X155691188Y-150300921D01*
X155691188Y-150300921D02*
X156907010Y-136404005D01*
%TO.C,K_O*%
X240595777Y-113707392D02*
X254492693Y-112491570D01*
X254492693Y-112491570D02*
X255708516Y-126388487D01*
X255708516Y-126388487D02*
X241811600Y-127604310D01*
X241811600Y-127604310D02*
X240595777Y-113707392D01*
%TO.C,K_BACKSPACE*%
X321845149Y-90597376D02*
X335795149Y-90597376D01*
X335795149Y-90597376D02*
X335795149Y-104547376D01*
X335795149Y-104547376D02*
X321845149Y-104547376D01*
X321845149Y-104547376D02*
X321845149Y-90597376D01*
%TO.C,K_`*%
X35281949Y-89767770D02*
X49231949Y-89767770D01*
X49231949Y-89767770D02*
X49231949Y-103717770D01*
X49231949Y-103717770D02*
X35281949Y-103717770D01*
X35281949Y-103717770D02*
X35281949Y-89767770D01*
%TO.C,K_P*%
X264695149Y-109647376D02*
X278645149Y-109647376D01*
X278645149Y-109647376D02*
X278645149Y-123597376D01*
X278645149Y-123597376D02*
X264695149Y-123597376D01*
X264695149Y-123597376D02*
X264695149Y-109647376D01*
%TO.C,K_QUOTE*%
X288507649Y-128697376D02*
X302457649Y-128697376D01*
X302457649Y-128697376D02*
X302457649Y-142647376D01*
X302457649Y-142647376D02*
X288507649Y-142647376D01*
X288507649Y-142647376D02*
X288507649Y-128697376D01*
%TO.C,K_N*%
X201217015Y-155398122D02*
X215113931Y-154182300D01*
X215113931Y-154182300D02*
X216329754Y-168079217D01*
X216329754Y-168079217D02*
X202432838Y-169295040D01*
X202432838Y-169295040D02*
X201217015Y-155398122D01*
%TO.C,K_9*%
X229446706Y-95560041D02*
X243343622Y-94344219D01*
X243343622Y-94344219D02*
X244559445Y-108241136D01*
X244559445Y-108241136D02*
X230662529Y-109456959D01*
X230662529Y-109456959D02*
X229446706Y-95560041D01*
%TO.C,K_4*%
X127017004Y-95543433D02*
X140913922Y-96759256D01*
X140913922Y-96759256D02*
X139698099Y-110656172D01*
X139698099Y-110656172D02*
X125801182Y-109440349D01*
X125801182Y-109440349D02*
X127017004Y-95543433D01*
%TO.C,K_R*%
X134845440Y-115351100D02*
X148742358Y-116566923D01*
X148742358Y-116566923D02*
X147526535Y-130463839D01*
X147526535Y-130463839D02*
X133629618Y-129248016D01*
X133629618Y-129248016D02*
X134845440Y-115351100D01*
%TO.C,K_0*%
X255170149Y-90597376D02*
X269120149Y-90597376D01*
X269120149Y-90597376D02*
X269120149Y-104547376D01*
X269120149Y-104547376D02*
X255170149Y-104547376D01*
X255170149Y-104547376D02*
X255170149Y-90597376D01*
%TO.C,K_Y*%
X183663250Y-118688342D02*
X197560166Y-117472520D01*
X197560166Y-117472520D02*
X198775989Y-131369437D01*
X198775989Y-131369437D02*
X184879073Y-132585260D01*
X184879073Y-132585260D02*
X183663250Y-118688342D01*
%TO.C,K_8*%
X210469197Y-97220358D02*
X224366113Y-96004536D01*
X224366113Y-96004536D02*
X225581936Y-109901453D01*
X225581936Y-109901453D02*
X211685020Y-111117276D01*
X211685020Y-111117276D02*
X210469197Y-97220358D01*
%TO.C,K_RIGHT*%
X361727649Y-177007376D02*
X375677649Y-177007376D01*
X375677649Y-177007376D02*
X375677649Y-190957376D01*
X375677649Y-190957376D02*
X361727649Y-190957376D01*
X361727649Y-190957376D02*
X361727649Y-177007376D01*
%TO.C,K_OBRAC*%
X302795149Y-109647376D02*
X316745149Y-109647376D01*
X316745149Y-109647376D02*
X316745149Y-123597376D01*
X316745149Y-123597376D02*
X302795149Y-123597376D01*
X302795149Y-123597376D02*
X302795149Y-109647376D01*
%TO.C,K_WIN*%
X61475699Y-165967770D02*
X75425699Y-165967770D01*
X75425699Y-165967770D02*
X75425699Y-179917770D01*
X75425699Y-179917770D02*
X61475699Y-179917770D01*
X61475699Y-179917770D02*
X61475699Y-165967770D01*
%TO.C,K_CBRAC*%
X283745149Y-109647376D02*
X297695149Y-109647376D01*
X297695149Y-109647376D02*
X297695149Y-123597376D01*
X297695149Y-123597376D02*
X283745149Y-123597376D01*
X283745149Y-123597376D02*
X283745149Y-109647376D01*
%TO.C,K_S*%
X99974483Y-131423055D02*
X113871401Y-132638878D01*
X113871401Y-132638878D02*
X112655578Y-146535794D01*
X112655578Y-146535794D02*
X98758661Y-145319971D01*
X98758661Y-145319971D02*
X99974483Y-131423055D01*
%TO.C,K_V*%
X145757938Y-154551356D02*
X159654856Y-155767179D01*
X159654856Y-155767179D02*
X158439033Y-169664095D01*
X158439033Y-169664095D02*
X144542116Y-168448272D01*
X144542116Y-168448272D02*
X145757938Y-154551356D01*
%TO.C,K_SHIFT1*%
X290965649Y-147737376D02*
X304915649Y-147737376D01*
X304915649Y-147737376D02*
X304915649Y-161687376D01*
X304915649Y-161687376D02*
X290965649Y-161687376D01*
X290965649Y-161687376D02*
X290965649Y-147737376D01*
%TO.C,K_A*%
X68619449Y-127867770D02*
X82569449Y-127867770D01*
X82569449Y-127867770D02*
X82569449Y-141817770D01*
X82569449Y-141817770D02*
X68619449Y-141817770D01*
X68619449Y-141817770D02*
X68619449Y-127867770D01*
%TO.C,K_F*%
X137929501Y-134743689D02*
X151826419Y-135959512D01*
X151826419Y-135959512D02*
X150610596Y-149856428D01*
X150610596Y-149856428D02*
X136713679Y-148640605D01*
X136713679Y-148640605D02*
X137929501Y-134743689D01*
%TO.C,K_LEFT*%
X323627649Y-177007376D02*
X337577649Y-177007376D01*
X337577649Y-177007376D02*
X337577649Y-190957376D01*
X337577649Y-190957376D02*
X323627649Y-190957376D01*
X323627649Y-190957376D02*
X323627649Y-177007376D01*
%TO.C,K_ALT1*%
X257437671Y-169602220D02*
X271334587Y-168386398D01*
X271334587Y-168386398D02*
X272550410Y-182283315D01*
X272550410Y-182283315D02*
X258653494Y-183499138D01*
X258653494Y-183499138D02*
X257437671Y-169602220D01*
%TO.C,K_6*%
X172514178Y-100540992D02*
X186411094Y-99325170D01*
X186411094Y-99325170D02*
X187626917Y-113222087D01*
X187626917Y-113222087D02*
X173730001Y-114437910D01*
X173730001Y-114437910D02*
X172514178Y-100540992D01*
%TO.C,K_K*%
X228022961Y-133930138D02*
X241919877Y-132714316D01*
X241919877Y-132714316D02*
X243135700Y-146611233D01*
X243135700Y-146611233D02*
X229238784Y-147827056D01*
X229238784Y-147827056D02*
X228022961Y-133930138D01*
%TO.C,K_L*%
X247000471Y-132269821D02*
X260897387Y-131053999D01*
X260897387Y-131053999D02*
X262113210Y-144950916D01*
X262113210Y-144950916D02*
X248216294Y-146166739D01*
X248216294Y-146166739D02*
X247000471Y-132269821D01*
%TO.C,K_DOWN*%
X342677649Y-177007376D02*
X356627649Y-177007376D01*
X356627649Y-177007376D02*
X356627649Y-190957376D01*
X356627649Y-190957376D02*
X342677649Y-190957376D01*
X342677649Y-190957376D02*
X342677649Y-177007376D01*
%TO.C,K_BSLSH*%
X326607649Y-109647376D02*
X340557649Y-109647376D01*
X340557649Y-109647376D02*
X340557649Y-123597376D01*
X340557649Y-123597376D02*
X326607649Y-123597376D01*
X326607649Y-123597376D02*
X326607649Y-109647376D01*
%TO.C,K_H*%
X190067943Y-137250772D02*
X203964859Y-136034950D01*
X203964859Y-136034950D02*
X205180682Y-149931867D01*
X205180682Y-149931867D02*
X191283766Y-151147690D01*
X191283766Y-151147690D02*
X190067943Y-137250772D01*
%TO.C,K_7*%
X191491687Y-98880675D02*
X205388603Y-97664853D01*
X205388603Y-97664853D02*
X206604426Y-111561770D01*
X206604426Y-111561770D02*
X192707510Y-112777593D01*
X192707510Y-112777593D02*
X191491687Y-98880675D01*
%TO.C,K_SHIFT*%
X47188199Y-146917770D02*
X61138199Y-146917770D01*
X61138199Y-146917770D02*
X61138199Y-160867770D01*
X61138199Y-160867770D02*
X47188199Y-160867770D01*
X47188199Y-160867770D02*
X47188199Y-146917770D01*
%TO.C,REF\u002A\u002A*%
X134770625Y-172742973D02*
X148667543Y-173958796D01*
X148667543Y-173958796D02*
X147451720Y-187855712D01*
X147451720Y-187855712D02*
X133554803Y-186639889D01*
X133554803Y-186639889D02*
X134770625Y-172742973D01*
%TO.C,K_M*%
X220194524Y-153737806D02*
X234091440Y-152521984D01*
X234091440Y-152521984D02*
X235307263Y-166418901D01*
X235307263Y-166418901D02*
X221410347Y-167634724D01*
X221410347Y-167634724D02*
X220194524Y-153737806D01*
%TO.C,REF\u002A\u002A*%
X311029649Y-130242376D02*
X317769649Y-130242376D01*
X317769649Y-130242376D02*
X317769649Y-142582376D01*
X317769649Y-142582376D02*
X311029649Y-142582376D01*
X311029649Y-142582376D02*
X311029649Y-130242376D01*
X334869649Y-130282376D02*
X341639649Y-130282376D01*
X341639649Y-130282376D02*
X341639649Y-142582376D01*
X341639649Y-142582376D02*
X334869649Y-142582376D01*
X334869649Y-142582376D02*
X334869649Y-130282376D01*
%TO.C,K_DOT*%
X258149543Y-150417172D02*
X272046459Y-149201350D01*
X272046459Y-149201350D02*
X273262282Y-163098267D01*
X273262282Y-163098267D02*
X259365366Y-164314090D01*
X259365366Y-164314090D02*
X258149543Y-150417172D01*
%TO.C,K_C*%
X126780430Y-152891039D02*
X140677348Y-154106862D01*
X140677348Y-154106862D02*
X139461525Y-168003778D01*
X139461525Y-168003778D02*
X125564608Y-166787955D01*
X125564608Y-166787955D02*
X126780430Y-152891039D01*
%TO.C,REF\u002A\u002A*%
X217093907Y-173141931D02*
X230990823Y-171926109D01*
X230990823Y-171926109D02*
X232206646Y-185823026D01*
X232206646Y-185823026D02*
X218309730Y-187038849D01*
X218309730Y-187038849D02*
X217093907Y-173141931D01*
X313377649Y-92047376D02*
X320117649Y-92047376D01*
X320117649Y-92047376D02*
X320117649Y-104387376D01*
X320117649Y-104387376D02*
X313377649Y-104387376D01*
X313377649Y-104387376D02*
X313377649Y-92047376D01*
X337217649Y-92087376D02*
X343987649Y-92087376D01*
X343987649Y-92087376D02*
X343987649Y-104387376D01*
X343987649Y-104387376D02*
X337217649Y-104387376D01*
X337217649Y-104387376D02*
X337217649Y-92087376D01*
%TO.C,K_2*%
X89061985Y-92222800D02*
X102958903Y-93438623D01*
X102958903Y-93438623D02*
X101743080Y-107335539D01*
X101743080Y-107335539D02*
X87846163Y-106119716D01*
X87846163Y-106119716D02*
X89061985Y-92222800D01*
%TO.C,K_SEMIC*%
X269457649Y-128697376D02*
X283407649Y-128697376D01*
X283407649Y-128697376D02*
X283407649Y-142647376D01*
X283407649Y-142647376D02*
X269457649Y-142647376D01*
X269457649Y-142647376D02*
X269457649Y-128697376D01*
%TO.C,K_J*%
X209045453Y-135590454D02*
X222942369Y-134374632D01*
X222942369Y-134374632D02*
X224158192Y-148271549D01*
X224158192Y-148271549D02*
X210261276Y-149487372D01*
X210261276Y-149487372D02*
X209045453Y-135590454D01*
%TO.C,K_Q*%
X63856949Y-108817770D02*
X77806949Y-108817770D01*
X77806949Y-108817770D02*
X77806949Y-122767770D01*
X77806949Y-122767770D02*
X63856949Y-122767770D01*
X63856949Y-122767770D02*
X63856949Y-108817770D01*
%TO.C,K_EQUAL*%
X293270149Y-90597376D02*
X307220149Y-90597376D01*
X307220149Y-90597376D02*
X307220149Y-104547376D01*
X307220149Y-104547376D02*
X293270149Y-104547376D01*
X293270149Y-104547376D02*
X293270149Y-90597376D01*
%TD*%
M02*
