M48
; DRILL file {KiCad (6.0.7)} date Thu Nov  3 11:15:32 2022
; FORMAT={-:-/ absolute / inch / decimal}
; #@! TF.CreationDate,2022-11-03T11:15:32-07:00
; #@! TF.GenerationSoftware,Kicad,Pcbnew,(6.0.7)
; #@! TF.FileFunction,Plated,1,2,PTH
FMAT,2
INCH
; #@! TA.AperFunction,Plated,PTH,ViaDrill
T1C0.0118
; #@! TA.AperFunction,Plated,PTH,ComponentDrill
T2C0.0276
; #@! TA.AperFunction,Plated,PTH,ComponentDrill
T3C0.0300
; #@! TA.AperFunction,Plated,PTH,ComponentDrill
T4C0.0354
; #@! TA.AperFunction,Plated,PTH,ComponentDrill
T5C0.0394
; #@! TA.AperFunction,Plated,PTH,ComponentDrill
T6C0.0430
; #@! TA.AperFunction,Plated,PTH,ComponentDrill
T7C0.0591
%
G90
G05
T1
X12.4295Y-5.9558
X12.5214Y-5.7927
X12.5358Y-5.3475
X12.5634Y-5.4223
X12.5791Y-5.6428
X12.587Y-5.4578
X12.65Y-5.2255
X12.7366Y-5.5759
X12.8198Y-5.9898
X12.8225Y-4.8395
X13.1925Y-5.0545
X13.3252Y-5.6369
X13.3414Y-5.8627
X13.3705Y-5.3967
X13.4571Y-5.2078
X13.5875Y-5.0595
X13.5968Y-5.5027
X13.7725Y-5.2745
X13.8375Y-5.3395
X13.9425Y-5.0445
T2
X12.8119Y-5.3793
X12.8119Y-5.4494
X12.8119Y-5.5195
X12.8119Y-5.5896
X12.8119Y-5.6596
X12.8119Y-5.7297
X12.8119Y-5.7998
X12.8119Y-5.8699
X13.2331Y-5.3443
X13.2331Y-5.4144
X13.2331Y-5.4844
X13.2331Y-5.5545
X13.2331Y-5.6246
X13.2331Y-5.6947
X13.2331Y-5.7648
X13.2331Y-5.8348
T3
X11.9075Y-6.8395
X12.0825Y-6.8395
X12.2575Y-6.8395
X12.4175Y-6.8395
X12.5925Y-6.8395
X12.7675Y-6.8395
T4
X3.3575Y-4.682
X3.3575Y-4.997
X3.3575Y-5.437
X3.3575Y-5.752
X3.3575Y-6.232
X3.3575Y-6.547
X4.1175Y-4.682
X4.1175Y-4.997
X4.1175Y-5.437
X4.1175Y-5.752
X4.1175Y-6.232
X4.1175Y-6.547
X4.8775Y-4.687
X4.8775Y-5.002
X4.8775Y-5.442
X4.8775Y-5.757
X4.8775Y-6.237
X4.8775Y-6.552
X5.6375Y-4.687
X5.6375Y-5.002
X5.6375Y-5.442
X5.6375Y-5.757
X5.6375Y-6.237
X5.6375Y-6.552
X6.4025Y-4.682
X6.4025Y-4.997
X6.4025Y-5.437
X6.4025Y-5.752
X6.4025Y-6.232
X6.4025Y-6.547
X7.1625Y-4.682
X7.1625Y-4.997
X7.1625Y-5.437
X7.1625Y-5.752
X7.5475Y-6.237
X7.5475Y-6.552
X7.9225Y-4.687
X7.9225Y-5.002
X7.9225Y-5.442
X7.9225Y-5.757
X8.6825Y-4.687
X8.6825Y-5.002
X8.6825Y-5.442
X8.6825Y-5.757
X8.6825Y-6.237
X8.6825Y-6.552
X9.4475Y-4.687
X9.4475Y-5.002
X9.4475Y-5.442
X9.4475Y-5.757
X9.4475Y-6.237
X9.4475Y-6.552
X10.2075Y-4.687
X10.2075Y-5.002
X10.2075Y-5.442
X10.2075Y-5.757
X10.2075Y-6.237
X10.2075Y-6.552
X10.9675Y-4.692
X10.9675Y-5.007
X10.9675Y-5.447
X10.9675Y-5.762
X10.9675Y-6.242
X10.9675Y-6.557
X11.7275Y-4.692
X11.7275Y-5.007
X11.7275Y-5.447
X11.7275Y-5.762
X11.7275Y-6.242
X11.7275Y-6.557
X12.2575Y-6.327
X12.2575Y-6.642
X12.7675Y-6.327
X12.7675Y-6.642
T5
X13.7278Y-5.3731
X13.7278Y-5.4731
X13.7278Y-5.5731
X13.7278Y-5.6731
X13.7278Y-5.7731
X13.7278Y-5.8731
X14.0781Y-6.8245
X14.1781Y-6.8245
X14.2781Y-6.8245
T6
X13.0875Y-4.3585
X13.0875Y-4.4495
X13.0875Y-4.5495
X13.0875Y-4.6495
X13.0875Y-4.7495
X13.0875Y-4.8495
X13.0875Y-4.9495
X13.1875Y-4.3495
X13.1875Y-4.9495
X13.2875Y-4.3495
X13.2875Y-4.9495
X13.3875Y-4.3495
X13.3875Y-4.9495
X13.4875Y-4.3495
X13.4875Y-4.9495
X13.5875Y-4.3495
X13.5875Y-4.9495
X13.6875Y-4.3495
X13.6875Y-4.9495
X13.7875Y-4.3495
X13.7875Y-4.9495
X13.8875Y-4.3495
X13.8875Y-4.9495
X13.9875Y-4.3495
X13.9875Y-4.9495
X14.0875Y-4.3495
X14.0875Y-4.9495
X14.1875Y-4.3495
X14.1875Y-4.9495
T7
X2.8825Y-4.7395
X2.8825Y-5.4995
X2.8825Y-6.2595
X3.1325Y-4.6395
X3.1325Y-5.3995
X3.1325Y-6.1595
X3.6425Y-4.7395
X3.6425Y-5.4995
X3.6425Y-6.2595
X3.8925Y-4.6395
X3.8925Y-5.3995
X3.8925Y-6.1595
X4.4025Y-4.7395
X4.4025Y-5.4995
X4.4025Y-6.2595
X4.6525Y-4.6395
X4.6525Y-5.3995
X4.6525Y-6.1595
X5.1625Y-4.7395
X5.1625Y-5.4995
X5.1625Y-6.2595
X5.4125Y-4.6395
X5.4125Y-5.3995
X5.4125Y-6.1595
X5.9275Y-4.7395
X5.9275Y-5.4995
X5.9275Y-6.2595
X6.1775Y-4.6395
X6.1775Y-5.3995
X6.1775Y-6.1595
X6.6875Y-4.7395
X6.6875Y-5.4995
X6.9375Y-4.6395
X6.9375Y-5.3995
X7.0675Y-6.2595
X7.3175Y-6.1595
X7.4475Y-4.7395
X7.4475Y-5.4995
X7.6975Y-4.6395
X7.6975Y-5.3995
X8.2075Y-4.7395
X8.2075Y-5.4995
X8.2075Y-6.2595
X8.4575Y-4.6395
X8.4575Y-5.3995
X8.4575Y-6.1595
X8.9725Y-4.7395
X8.9725Y-5.4995
X8.9725Y-6.2595
X9.2225Y-4.6395
X9.2225Y-5.3995
X9.2225Y-6.1595
X9.7325Y-4.7395
X9.7325Y-5.4995
X9.7325Y-6.2595
X9.9825Y-4.6395
X9.9825Y-5.3995
X9.9825Y-6.1595
X10.4925Y-4.7395
X10.4925Y-5.4995
X10.4925Y-6.2595
X10.7425Y-4.6395
X10.7425Y-5.3995
X10.7425Y-6.1595
X11.2525Y-4.7395
X11.2525Y-5.4995
X11.2525Y-6.2595
X11.5025Y-4.6395
X11.5025Y-5.3995
X11.5025Y-6.1595
T0
M30
