M48
; DRILL file {KiCad (6.0.1)} date Fri Jun 24 19:37:21 2022
; FORMAT={-:-/ absolute / metric / decimal}
; #@! TF.CreationDate,2022-06-24T19:37:21-07:00
; #@! TF.GenerationSoftware,Kicad,Pcbnew,(6.0.1)
; #@! TF.FileFunction,NonPlated,1,2,NPTH
FMAT,2
METRIC
; #@! TA.AperFunction,NonPlated,NPTH,ComponentDrill
T1C1.700
; #@! TA.AperFunction,NonPlated,NPTH,ComponentDrill
T2C2.200
; #@! TA.AperFunction,NonPlated,NPTH,ComponentDrill
T3C3.050
; #@! TA.AperFunction,NonPlated,NPTH,ComponentDrill
T4C3.200
; #@! TA.AperFunction,NonPlated,NPTH,ComponentDrill
T5C4.000
%
G90
G05
T1
X94.102Y-113.068
X94.183Y-151.689
X94.183Y-170.942
X94.234Y-132.182
X94.234Y-190.348
X104.262Y-113.068
X104.343Y-151.689
X104.343Y-170.942
X104.394Y-132.182
X104.394Y-190.348
X113.406Y-113.068
X113.487Y-151.689
X113.487Y-170.942
X113.538Y-132.182
X113.538Y-190.348
X123.566Y-113.068
X123.647Y-151.689
X123.647Y-170.942
X123.698Y-132.182
X123.698Y-190.348
X132.71Y-113.068
X132.791Y-151.689
X132.791Y-170.942
X132.842Y-132.182
X132.842Y-190.348
X142.87Y-113.068
X142.951Y-151.689
X142.951Y-170.942
X143.002Y-132.182
X143.002Y-190.348
X152.141Y-113.068
X152.222Y-151.689
X152.222Y-170.942
X152.273Y-132.182
X152.273Y-190.348
X162.301Y-113.068
X162.382Y-151.689
X162.382Y-170.942
X162.433Y-132.182
X162.433Y-190.348
X171.445Y-113.068
X171.526Y-151.689
X171.526Y-170.942
X171.577Y-132.182
X171.577Y-190.348
X181.605Y-113.068
X181.686Y-151.689
X181.686Y-170.942
X181.737Y-132.182
X181.737Y-190.348
X190.749Y-113.068
X190.83Y-151.689
X190.881Y-132.182
X190.962Y-170.904
X200.909Y-113.068
X200.99Y-151.689
X201.041Y-132.182
X201.122Y-170.904
X210.18Y-113.068
X210.261Y-151.689
X210.266Y-170.904
X210.312Y-132.182
X220.218Y-190.409
X220.34Y-113.068
X220.421Y-151.689
X220.426Y-170.904
X220.472Y-132.182
X229.484Y-113.068
X229.565Y-151.689
X229.57Y-170.904
X229.616Y-132.182
X230.378Y-190.409
X239.644Y-113.068
X239.725Y-151.689
X239.73Y-170.904
X239.776Y-132.182
X248.788Y-113.068
X248.869Y-151.689
X248.92Y-132.182
X249.001Y-170.904
X258.948Y-113.068
X259.029Y-151.689
X259.08Y-132.182
X259.161Y-170.904
X268.219Y-113.068
X268.3Y-151.689
X268.3Y-170.942
X268.351Y-132.182
X268.351Y-190.348
X278.379Y-113.068
X278.46Y-151.689
X278.46Y-170.942
X278.511Y-132.182
X278.511Y-190.348
X287.523Y-113.068
X287.604Y-151.689
X287.604Y-170.942
X287.655Y-132.182
X287.655Y-190.348
X297.683Y-113.068
X297.764Y-151.689
X297.764Y-170.942
X297.815Y-132.182
X297.815Y-190.348
X306.7Y-113.068
X306.781Y-151.689
X306.781Y-170.942
X306.832Y-132.182
X306.832Y-190.348
X316.86Y-113.068
X316.941Y-151.689
X316.941Y-170.942
X316.992Y-132.182
X316.992Y-190.348
X326.131Y-113.068
X326.212Y-151.689
X326.212Y-170.942
X326.263Y-132.182
X326.263Y-190.348
X336.291Y-113.068
X336.372Y-151.689
X336.372Y-170.942
X336.423Y-132.182
X336.423Y-190.348
X345.435Y-113.068
X345.516Y-151.689
X345.516Y-170.942
X345.567Y-132.182
X345.567Y-190.348
X355.595Y-113.068
X355.676Y-151.689
X355.676Y-170.942
X355.727Y-132.182
X355.727Y-190.348
T2
X147.879Y-142.24
X202.514Y-190.551
X225.247Y-141.986
X247.929Y-190.449
X302.463Y-142.596
T3
X213.398Y-183.409
X237.198Y-183.409
T4
X86.36Y-152.197
X86.614Y-101.6
X86.665Y-199.187
X363.626Y-199.644
X363.728Y-101.194
T5
X99.182Y-113.068
X99.263Y-151.689
X99.263Y-170.942
X99.314Y-132.182
X99.314Y-190.348
X118.486Y-113.068
X118.567Y-151.689
X118.567Y-170.942
X118.618Y-132.182
X118.618Y-190.348
X137.79Y-113.068
X137.871Y-151.689
X137.871Y-170.942
X137.922Y-132.182
X137.922Y-190.348
X157.221Y-113.068
X157.302Y-151.689
X157.302Y-170.942
X157.353Y-132.182
X157.353Y-190.348
X176.525Y-113.068
X176.606Y-151.689
X176.606Y-170.942
X176.657Y-132.182
X176.657Y-190.348
X195.829Y-113.068
X195.91Y-151.689
X195.961Y-132.182
X196.042Y-170.904
X213.398Y-198.649
X215.26Y-113.068
X215.341Y-151.689
X215.346Y-170.904
X215.392Y-132.182
X225.298Y-190.409
X234.564Y-113.068
X234.645Y-151.689
X234.65Y-170.904
X234.696Y-132.182
X237.198Y-198.649
X253.868Y-113.068
X253.949Y-151.689
X254.0Y-132.182
X254.081Y-170.904
X273.299Y-113.068
X273.38Y-151.689
X273.38Y-170.942
X273.431Y-132.182
X273.431Y-190.348
X292.603Y-113.068
X292.684Y-151.689
X292.684Y-170.942
X292.735Y-132.182
X292.735Y-190.348
X311.78Y-113.068
X311.861Y-151.689
X311.861Y-170.942
X311.912Y-132.182
X311.912Y-190.348
X331.211Y-113.068
X331.292Y-151.689
X331.292Y-170.942
X331.343Y-132.182
X331.343Y-190.348
X350.515Y-113.068
X350.596Y-151.689
X350.596Y-170.942
X350.647Y-132.182
X350.647Y-190.348
T0
M30
