<?xml version="1.0"?>
<!-- Generated by SVGo -->
<svg width="356.902mm" height="99.727mm"
     viewBox="0.000 0.000 356.902 99.727"
     xmlns="http://www.w3.org/2000/svg" 
     xmlns:xlink="http://www.w3.org/1999/xlink">
<polygon points="346.902,5.001 347.294,5.016 347.684,5.062 348.069,5.139 348.447,5.245 348.815,5.381 349.171,5.545 349.514,5.737 349.840,5.955 350.149,6.198 350.437,6.465 350.704,6.753 350.947,7.062 351.165,7.388 351.357,7.731 351.521,8.087 351.657,8.455 351.763,8.833 351.840,9.218 351.886,9.608 351.901,10.001 351.902,89.727 351.886,90.119 351.840,90.509 351.763,90.894 351.657,91.272 351.521,91.640 351.357,91.996 351.165,92.339 350.947,92.665 350.704,92.974 350.437,93.262 350.149,93.529 349.840,93.772 349.514,93.990 349.171,94.182 348.815,94.346 348.447,94.482 348.069,94.588 347.684,94.665 347.294,94.711 346.902,94.727 10.001,94.727 9.608,94.711 9.218,94.665 8.833,94.588 8.455,94.482 8.087,94.346 7.731,94.182 7.388,93.990 7.062,93.772 6.753,93.529 6.465,93.262 6.198,92.974 5.955,92.665 5.737,92.339 5.545,91.996 5.381,91.640 5.245,91.272 5.139,90.894 5.062,90.509 5.016,90.119 5.000,89.726 5.001,10.001 5.016,9.608 5.062,9.218 5.139,8.833 5.245,8.455 5.381,8.087 5.545,7.731 5.737,7.388 5.955,7.062 6.198,6.753 6.465,6.465 6.753,6.198 7.062,5.955 7.388,5.737 7.731,5.545 8.087,5.381 8.455,5.245 8.833,5.139 9.218,5.062 9.608,5.016 10.001,5.000" style="fill:none;stroke-width:0.050000mm;stroke:black"/>
<polygon points="247.651,76.201 247.651,90.201 261.650,90.201 261.650,76.201" style="fill:none;stroke-width:0.050000mm;stroke:black"/>
<polygon points="266.701,76.201 266.701,90.201 280.701,90.201 280.701,76.201" style="fill:none;stroke-width:0.050000mm;stroke:black"/>
<polygon points="285.751,76.201 285.751,90.201 299.751,90.201 299.751,76.201" style="fill:none;stroke-width:0.050000mm;stroke:black"/>
<polygon points="114.301,66.676 114.301,71.376 67.526,71.376 67.526,68.146 65.801,68.146 65.801,67.226 62.501,67.226 62.501,68.146 60.776,68.146 60.776,71.376 59.950,71.376 59.950,74.176 60.776,74.176 60.776,80.446 62.501,80.446 62.501,81.426 65.801,81.426 65.801,80.446 67.526,80.446 67.526,75.976 114.301,75.976 114.301,80.676 128.301,80.676 128.301,75.976 175.076,75.976 175.076,80.446 176.801,80.446 176.801,81.426 180.101,81.426 180.101,80.446 181.826,80.446 181.826,74.176 182.651,74.176 182.651,71.376 181.826,71.376 181.826,68.146 180.101,68.146 180.101,67.226 176.801,67.226 176.801,68.146 175.076,68.146 175.076,71.376 128.301,71.376 128.301,66.676" style="fill:none;stroke-width:0.050000mm;stroke:black"/>
<polygon points="11.907,66.676 11.907,80.676 25.907,80.676 25.907,66.676" style="fill:none;stroke-width:0.050000mm;stroke:black"/>
<polygon points="35.719,66.676 35.719,80.676 49.719,80.676 49.719,66.676" style="fill:none;stroke-width:0.050000mm;stroke:black"/>
<polygon points="192.882,66.676 192.882,80.676 206.882,80.676 206.882,66.676" style="fill:none;stroke-width:0.050000mm;stroke:black"/>
<polygon points="216.694,66.676 216.694,80.676 230.694,80.676 230.694,66.676" style="fill:none;stroke-width:0.050000mm;stroke:black"/>
<polygon points="314.326,66.676 314.326,80.676 328.326,80.676 328.326,66.676" style="fill:none;stroke-width:0.050000mm;stroke:black"/>
<polygon points="333.376,66.676 333.376,80.676 347.376,80.676 347.376,66.676" style="fill:none;stroke-width:0.050000mm;stroke:black"/>
<polygon points="266.701,57.151 266.701,71.151 280.701,71.151 280.701,57.151" style="fill:none;stroke-width:0.050000mm;stroke:black"/>
<polygon points="16.669,47.626 16.669,61.626 30.669,61.626 30.669,47.626" style="fill:none;stroke-width:0.050000mm;stroke:black"/>
<polygon points="42.863,47.626 42.863,61.626 56.863,61.626 56.863,47.626" style="fill:none;stroke-width:0.050000mm;stroke:black"/>
<polygon points="61.913,47.626 61.913,61.626 75.913,61.626 75.913,47.626" style="fill:none;stroke-width:0.050000mm;stroke:black"/>
<polygon points="80.963,47.626 80.963,61.626 94.963,61.626 94.963,47.626" style="fill:none;stroke-width:0.050000mm;stroke:black"/>
<polygon points="100.013,47.626 100.013,61.626 114.013,61.626 114.013,47.626" style="fill:none;stroke-width:0.050000mm;stroke:black"/>
<polygon points="119.063,47.626 119.063,61.626 133.063,61.626 133.063,47.626" style="fill:none;stroke-width:0.050000mm;stroke:black"/>
<polygon points="138.113,47.626 138.113,61.626 152.113,61.626 152.113,47.626" style="fill:none;stroke-width:0.050000mm;stroke:black"/>
<polygon points="157.163,47.626 157.163,61.626 171.163,61.626 171.163,47.626" style="fill:none;stroke-width:0.050000mm;stroke:black"/>
<polygon points="176.213,47.626 176.213,61.626 190.213,61.626 190.213,47.626" style="fill:none;stroke-width:0.050000mm;stroke:black"/>
<polygon points="195.263,47.626 195.263,61.626 209.263,61.626 209.263,47.626" style="fill:none;stroke-width:0.050000mm;stroke:black"/>
<polygon points="214.313,47.626 214.313,61.626 228.313,61.626 228.313,47.626" style="fill:none;stroke-width:0.050000mm;stroke:black"/>
<polygon points="235.744,47.626 235.744,61.626 249.744,61.626 249.744,47.626" style="fill:none;stroke-width:0.050000mm;stroke:black"/>
<polygon points="295.276,47.626 295.276,61.626 309.276,61.626 309.276,47.626" style="fill:none;stroke-width:0.050000mm;stroke:black"/>
<polygon points="314.326,47.626 314.326,61.626 328.326,61.626 328.326,47.626" style="fill:none;stroke-width:0.050000mm;stroke:black"/>
<polygon points="333.376,47.626 333.376,61.626 347.376,61.626 347.376,47.626" style="fill:none;stroke-width:0.050000mm;stroke:black"/>
<polygon points="11.907,28.576 11.907,42.576 25.907,42.576 25.907,28.576" style="fill:none;stroke-width:0.050000mm;stroke:black"/>
<polygon points="33.338,28.576 33.338,42.576 47.338,42.576 47.338,28.576" style="fill:none;stroke-width:0.050000mm;stroke:black"/>
<polygon points="52.388,28.576 52.388,42.576 66.388,42.576 66.388,28.576" style="fill:none;stroke-width:0.050000mm;stroke:black"/>
<polygon points="71.438,28.576 71.438,42.576 85.438,42.576 85.438,28.576" style="fill:none;stroke-width:0.050000mm;stroke:black"/>
<polygon points="90.488,28.576 90.488,42.576 104.488,42.576 104.488,28.576" style="fill:none;stroke-width:0.050000mm;stroke:black"/>
<polygon points="109.538,28.576 109.538,42.576 123.538,42.576 123.538,28.576" style="fill:none;stroke-width:0.050000mm;stroke:black"/>
<polygon points="128.587,28.576 128.587,42.576 142.588,42.576 142.588,28.576" style="fill:none;stroke-width:0.050000mm;stroke:black"/>
<polygon points="147.638,28.576 147.638,42.576 161.638,42.576 161.638,28.576" style="fill:none;stroke-width:0.050000mm;stroke:black"/>
<polygon points="166.688,28.576 166.688,42.576 180.688,42.576 180.688,28.576" style="fill:none;stroke-width:0.050000mm;stroke:black"/>
<polygon points="185.738,28.576 185.738,42.576 199.738,42.576 199.738,28.576" style="fill:none;stroke-width:0.050000mm;stroke:black"/>
<polygon points="204.788,28.576 204.788,42.576 218.788,42.576 218.788,28.576" style="fill:none;stroke-width:0.050000mm;stroke:black"/>
<polygon points="230.982,28.576 230.982,42.576 244.982,42.576 244.982,28.576" style="fill:none;stroke-width:0.050000mm;stroke:black"/>
<polygon points="295.276,28.576 295.276,42.576 309.276,42.576 309.276,28.576" style="fill:none;stroke-width:0.050000mm;stroke:black"/>
<polygon points="314.326,28.576 314.326,42.576 328.326,42.576 328.326,28.576" style="fill:none;stroke-width:0.050000mm;stroke:black"/>
<polygon points="333.376,28.576 333.376,42.576 347.376,42.576 347.376,28.576" style="fill:none;stroke-width:0.050000mm;stroke:black"/>
<polygon points="9.525,9.525 9.525,23.526 23.526,23.526 23.526,9.525" style="fill:none;stroke-width:0.050000mm;stroke:black"/>
<polygon points="28.576,9.525 28.576,23.526 42.576,23.526 42.576,9.525" style="fill:none;stroke-width:0.050000mm;stroke:black"/>
<polygon points="47.626,9.525 47.626,23.526 61.626,23.526 61.626,9.525" style="fill:none;stroke-width:0.050000mm;stroke:black"/>
<polygon points="66.676,9.525 66.676,23.526 80.676,23.526 80.676,9.525" style="fill:none;stroke-width:0.050000mm;stroke:black"/>
<polygon points="85.726,9.525 85.726,23.526 99.726,23.526 99.726,9.525" style="fill:none;stroke-width:0.050000mm;stroke:black"/>
<polygon points="104.775,9.525 104.775,23.526 118.775,23.526 118.775,9.525" style="fill:none;stroke-width:0.050000mm;stroke:black"/>
<polygon points="123.825,9.525 123.825,23.526 137.826,23.526 137.826,9.525" style="fill:none;stroke-width:0.050000mm;stroke:black"/>
<polygon points="142.876,9.525 142.876,23.526 156.876,23.526 156.876,9.525" style="fill:none;stroke-width:0.050000mm;stroke:black"/>
<polygon points="161.926,9.525 161.926,23.526 175.926,23.526 175.926,9.525" style="fill:none;stroke-width:0.050000mm;stroke:black"/>
<polygon points="180.976,9.525 180.976,23.526 194.976,23.526 194.976,9.525" style="fill:none;stroke-width:0.050000mm;stroke:black"/>
<polygon points="200.026,9.525 200.026,23.526 214.026,23.526 214.026,9.525" style="fill:none;stroke-width:0.050000mm;stroke:black"/>
<polygon points="219.076,9.525 219.076,23.526 233.076,23.526 233.076,9.525" style="fill:none;stroke-width:0.050000mm;stroke:black"/>
<polygon points="238.126,9.525 238.126,23.526 252.126,23.526 252.126,9.525" style="fill:none;stroke-width:0.050000mm;stroke:black"/>
<polygon points="295.276,9.525 295.276,23.526 309.276,23.526 309.276,9.525" style="fill:none;stroke-width:0.050000mm;stroke:black"/>
<polygon points="314.326,9.525 314.326,23.526 328.326,23.526 328.326,9.525" style="fill:none;stroke-width:0.050000mm;stroke:black"/>
<polygon points="333.376,9.525 333.376,23.526 347.376,23.526 347.376,9.525" style="fill:none;stroke-width:0.050000mm;stroke:black"/>
</svg>
