<?xml version="1.0" encoding="utf-8"?>

<!DOCTYPE svg PUBLIC "-//W3C//DTD SVG 1.1//EN" "http://www.w3.org/Graphics/SVG/1.1/DTD/svg11.dtd">
<svg version="1.1" id="Layer_1" xmlns="http://www.w3.org/2000/svg" xmlns:xlink="http://www.w3.org/1999/xlink" x="0px" y="0px"
	 viewBox="0 0 1698.096 1645.666" enable-background="new 0 0 1698.096 1645.666" xml:space="preserve">
<g>
	<path fill="none" stroke="#000000" stroke-width="2.3606" stroke-miterlimit="10" d="M837.642,874.224
		c-5.562-1.807-5.562-4.737,0-6.545l0.025-0.008v-0.026c0-5.849,2.787-6.754,6.224-2.022l0.015,0.021l0.025-0.008
		c5.562-1.807,7.285,0.563,3.847,5.295l-0.015,0.021l0.015,0.021c3.438,4.732,1.715,7.102-3.847,5.295l-0.025-0.008l-0.015,0.021
		c-3.438,4.732-6.224,3.826-6.224-2.022v-0.026L837.642,874.224z"/>
	<path fill="none" stroke="#000000" stroke-width="2.3606" stroke-miterlimit="10" d="M834.133,876.622
		c-9.892-3.351-9.826-8.583,0.146-11.686l0.044-0.014l0.001-0.046c0.13-10.443,5.126-11.998,11.159-3.473l0.027,0.038l0.044-0.014
		c9.972-3.103,12.995,1.168,6.751,9.54l-0.028,0.037l0.027,0.038c6.033,8.525,2.905,12.72-6.987,9.369l-0.044-0.015l-0.028,0.037
		c-6.244,8.372-11.199,6.693-11.069-3.75l0.001-0.046L834.133,876.622z"/>
	<path fill="none" stroke="#000000" stroke-width="2.3606" stroke-miterlimit="10" d="M830.564,878.932
		c-14.183-5.003-13.995-12.535,0.42-16.824l0.064-0.019l0.002-0.066c0.375-15.034,7.597-17.183,16.13-4.8l0.038,0.055l0.064-0.019
		c14.414-4.289,18.69,1.915,9.55,13.858l-0.04,0.053l0.038,0.055c8.534,12.383,3.954,18.367-10.229,13.365l-0.063-0.022l-0.04,0.053
		c-9.14,11.943-16.246,9.436-15.871-5.598l0.002-0.066L830.564,878.932z"/>
	<path fill="none" stroke="#000000" stroke-width="2.3606" stroke-miterlimit="10" d="M826.937,881.154
		c-18.433-6.761-18.066-16.592,0.822-21.956l0.083-0.024l0.003-0.087c0.734-19.621,10.197-22.309,21.136-6.004l0.048,0.072
		l0.083-0.024c18.887-5.365,24.368,2.804,12.241,18.246l-0.054,0.068l0.048,0.072c10.939,16.305,4.863,24.042-13.57,17.28
		l-0.081-0.03l-0.054,0.068c-12.127,15.442-21.362,12.054-20.628-7.566l0.003-0.087L826.937,881.154z"/>
	<path fill="none" stroke="#000000" stroke-width="2.3606" stroke-miterlimit="10" d="M823.253,883.286
		c-22.642-8.627-22.037-20.751,1.352-27.081l0.103-0.028l0.005-0.107c1.208-24.2,12.926-27.371,26.173-7.083l0.059,0.09l0.103-0.028
		c23.388-6.329,30.025,3.835,14.824,22.703l-0.067,0.083l0.059,0.09c13.247,20.288,5.631,29.741-17.011,21.114l-0.1-0.038
		l-0.067,0.083c-15.201,18.868-26.545,14.546-25.337-9.654l0.005-0.107L823.253,883.286z"/>
	<path fill="none" stroke="#000000" stroke-width="2.3606" stroke-miterlimit="10" d="M819.514,885.327
		c-26.806-10.598-25.906-25.011,2.009-32.194l0.123-0.032l0.008-0.127c1.796-28.769,15.782-32.367,31.239-8.037l0.068,0.108
		l0.123-0.032c27.916-7.182,35.66,5.007,17.297,27.226l-0.081,0.098l0.068,0.108c15.457,24.33,6.257,35.462-20.549,24.864
		l-0.118-0.047l-0.081,0.098c-18.363,22.219-31.793,16.909-29.997-11.859l0.008-0.127L819.514,885.327z"/>
	<path fill="none" stroke="#000000" stroke-width="2.3606" stroke-miterlimit="10" d="M815.721,887.277
		c-30.924-12.674-29.673-29.371,2.795-37.294l0.143-0.035l0.011-0.147c2.497-33.327,18.764-37.296,36.333-8.867l0.078,0.126
		l0.143-0.035c32.467-7.923,41.269,6.321,19.66,31.815l-0.096,0.113l0.078,0.126c17.568,28.43,6.742,41.203-24.182,28.529
		l-0.137-0.056l-0.095,0.113c-21.609,25.494-37.103,19.144-34.605-14.183l0.011-0.147L815.721,887.277z"/>
	<path fill="none" stroke="#000000" stroke-width="2.3606" stroke-miterlimit="10" d="M811.878,889.134
		c-34.993-14.854-33.333-33.828,3.708-42.379l0.164-0.038l0.015-0.167c3.313-37.871,21.871-42.155,41.451-9.57l0.087,0.144
		l0.164-0.038c37.041-8.552,46.851,7.774,21.91,36.465l-0.11,0.127l0.087,0.144c19.579,32.586,7.084,46.96-27.91,32.106
		l-0.155-0.066l-0.11,0.127c-24.94,28.691-42.473,21.249-39.159-16.622l0.015-0.167L811.878,889.134z"/>
	<path fill="none" stroke="#000000" stroke-width="2.3606" stroke-miterlimit="10" d="M807.984,890.898
		c-39.013-17.137-36.887-38.38,4.748-47.447l0.184-0.04l0.019-0.187c4.243-42.399,25.102-46.942,46.591-10.146l0.095,0.163
		l0.184-0.04c41.635-9.067,52.401,9.368,24.047,41.176l-0.125,0.141l0.095,0.163c21.489,36.795,7.283,52.732-31.729,35.594
		l-0.172-0.076l-0.125,0.141c-28.354,31.808-47.9,23.222-43.657-19.177l0.019-0.187L807.984,890.898z"/>
	<path fill="none" stroke="#000000" stroke-width="2.3606" stroke-miterlimit="10" d="M804.043,892.567
		c-42.98-19.522-40.332-43.025,5.915-52.494l0.204-0.042l0.023-0.207c5.285-46.909,28.456-51.653,51.752-10.596l0.103,0.181
		l0.204-0.042c46.247-9.469,57.919,11.101,26.07,45.945l-0.141,0.154l0.103,0.181c23.297,41.057,7.34,58.514-35.64,38.992
		l-0.19-0.086l-0.141,0.154c-31.849,34.844-53.382,25.063-48.097-21.847l0.023-0.207L804.043,892.567z"/>
	<path fill="none" stroke="#000000" stroke-width="2.3606" stroke-miterlimit="10" d="M800.055,894.14
		c-46.893-22.009-43.666-47.761,7.208-57.518l0.225-0.043l0.028-0.227c6.441-51.399,31.93-56.288,56.931-10.919l0.11,0.201
		l0.225-0.043c50.874-9.757,63.4,12.973,27.977,50.77l-0.157,0.167l0.111,0.201c25.001,45.369,7.253,64.306-39.64,42.297
		l-0.207-0.097l-0.157,0.167c-35.423,37.797-58.917,26.77-52.476-24.629l0.029-0.227L800.055,894.14z"/>
	<path fill="none" stroke="#000000" stroke-width="2.3606" stroke-miterlimit="10" d="M796.022,895.617
		c-50.75-24.596-46.888-52.586,8.627-62.518l0.245-0.044l0.034-0.247c7.71-55.867,35.524-60.843,62.124-11.114l0.118,0.22
		l0.245-0.044c55.515-9.932,68.843,14.983,29.767,55.649l-0.173,0.18l0.118,0.22c26.601,49.729,7.023,70.103-43.727,45.507
		l-0.224-0.109l-0.173,0.18c-39.075,40.666-64.502,28.343-56.792-27.524l0.034-0.247L796.022,895.617z"/>
	<path fill="none" stroke="#000000" stroke-width="2.3606" stroke-miterlimit="10" d="M791.947,896.997
		c-54.55-27.282-49.995-57.499,10.173-67.491l0.266-0.044l0.04-0.267c9.09-60.311,39.235-65.317,67.331-11.181l0.124,0.239
		l0.266-0.044c60.168-9.992,74.244,17.131,31.44,60.58l-0.189,0.192l0.124,0.239c28.095,54.135,6.65,75.904-47.9,48.622
		l-0.241-0.121l-0.189,0.192c-42.804,43.449-70.134,29.78-61.044-30.53l0.04-0.267L791.947,896.997z"/>
	<path fill="none" stroke="#000000" stroke-width="2.3606" stroke-miterlimit="10" d="M787.831,898.279
		c-58.289-30.067-52.987-62.497,11.843-72.433l0.287-0.044l0.047-0.286c10.583-64.728,43.064-69.706,72.548-11.12l0.13,0.259
		l0.287-0.044c64.83-9.937,79.602,19.416,32.994,65.561l-0.206,0.204l0.13,0.259c29.484,58.586,6.133,81.706-52.156,51.639
		l-0.258-0.133l-0.206,0.204c-46.608,46.145-75.812,31.081-65.229-33.646l0.047-0.286L787.831,898.279z"/>
	<path fill="none" stroke="#000000" stroke-width="2.3606" stroke-miterlimit="10" d="M783.675,899.462
		c-61.967-32.949-55.861-67.577,13.638-77.344l0.307-0.043l0.054-0.305c12.187-69.116,47.007-74.01,77.773-10.93l0.136,0.279
		l0.307-0.043c69.499-9.768,84.914,21.836,34.429,70.589l-0.223,0.216l0.136,0.279c30.766,63.08,5.472,87.505-56.495,54.557
		l-0.274-0.146l-0.223,0.215c-50.485,48.753-81.532,32.245-69.345-36.871l0.054-0.305L783.675,899.462z"/>
	<path fill="none" stroke="#000000" stroke-width="2.3606" stroke-miterlimit="10" d="M779.482,900.545
		c-65.582-35.926-58.617-72.738,15.557-82.221l0.328-0.042l0.061-0.325c13.902-73.474,51.064-78.225,83.004-10.612l0.141,0.299
		l0.328-0.042c74.174-9.483,90.176,24.392,35.742,75.663l-0.241,0.227l0.141,0.299c31.94,67.613,4.668,93.3-60.914,57.374
		l-0.29-0.159l-0.241,0.227c-54.434,51.27-87.292,33.271-73.389-40.203l0.061-0.325L779.482,900.545z"/>
	<path fill="none" stroke="#000000" stroke-width="2.3606" stroke-miterlimit="10" d="M775.254,901.527
		c-69.131-38.999-61.252-77.978,17.6-87.061l0.349-0.04l0.07-0.344c15.727-77.799,55.233-82.35,88.239-10.165l0.146,0.319
		l0.349-0.04c78.851-9.084,95.388,27.082,36.935,80.779l-0.258,0.237l0.146,0.319c33.005,72.185,3.72,99.088-65.412,60.089
		l-0.306-0.172l-0.258,0.237c-58.453,53.696-93.089,34.157-77.361-43.642l0.07-0.344L775.254,901.527z"/>
	<path fill="none" stroke="#000000" stroke-width="2.3606" stroke-miterlimit="10" d="M770.992,902.409
		c-72.614-42.165-63.764-83.293,19.766-91.862l0.369-0.038l0.078-0.363c17.663-82.09,59.513-86.383,93.474-9.589l0.15,0.339
		l0.369-0.038c83.53-8.569,100.545,29.906,38.005,85.936l-0.276,0.248l0.15,0.339c33.962,76.794,2.628,104.866-69.986,62.7
		l-0.321-0.186l-0.276,0.248c-62.54,56.03-98.921,34.904-81.258-47.185l0.078-0.363L770.992,902.409z"/>
	<path fill="none" stroke="#000000" stroke-width="2.3606" stroke-miterlimit="10" d="M766.699,903.189
		c-76.027-45.424-66.154-88.683,22.053-96.622l0.39-0.035l0.087-0.382c19.707-86.343,63.9-90.32,98.708-8.884l0.154,0.36l0.39-0.035
		c88.207-7.939,105.646,32.862,38.951,91.132l-0.295,0.258l0.154,0.36c34.808,81.437,1.393,110.63-74.635,65.206l-0.336-0.201
		l-0.295,0.258c-66.695,58.269-104.786,35.511-85.078-50.832l0.087-0.382L766.699,903.189z"/>
	<path fill="none" stroke="#000000" stroke-width="2.3606" stroke-miterlimit="10" d="M762.376,903.866
		c-79.37-48.774-68.418-94.145,24.463-101.338l0.411-0.032l0.097-0.4c21.86-90.558,68.395-94.162,103.938-8.05l0.157,0.381
		l0.411-0.032c92.881-7.193,110.688,35.95,39.774,96.363l-0.313,0.267l0.157,0.381c35.543,86.112,0.014,116.38-79.356,67.606
		l-0.351-0.216l-0.313,0.267c-70.914,60.413-110.68,35.977-88.819-54.581l0.097-0.4L762.376,903.866z"/>
	<path fill="none" stroke="#000000" stroke-width="2.3606" stroke-miterlimit="10" d="M758.024,904.441
		c-82.641-52.215-70.556-99.676,26.993-106.009l0.431-0.028l0.107-0.419c24.122-94.731,72.995-97.904,109.162-7.086l0.16,0.401
		l0.431-0.028c97.549-6.333,115.669,39.168,40.472,101.629l-0.332,0.276l0.16,0.401c36.167,90.818-1.508,122.111-84.148,69.897
		l-0.365-0.231l-0.332,0.276c-75.196,62.461-116.601,36.301-92.479-58.431l0.107-0.419L758.024,904.441z"/>
	<path fill="none" stroke="#000000" stroke-width="2.3606" stroke-miterlimit="10" d="M753.647,904.911
		c-85.837-55.743-72.565-105.275,29.644-110.631l0.452-0.024l0.117-0.437c26.49-98.862,77.698-101.546,114.377-5.994l0.162,0.422
		l0.452-0.024c102.209-5.357,120.586,42.516,41.045,106.927l-0.352,0.285l0.162,0.422c36.679,95.551-3.172,127.822-89.01,72.079
		l-0.379-0.246l-0.352,0.285c-79.54,64.411-122.546,36.482-96.056-62.38l0.117-0.437L753.647,904.911z"/>
	<path fill="none" stroke="#000000" stroke-width="2.3606" stroke-miterlimit="10" d="M749.245,905.278
		c-88.958-59.36-74.446-110.938,32.413-115.203l0.472-0.019l0.128-0.455c28.965-102.947,82.503-105.084,119.581-4.773l0.164,0.443
		l0.472-0.019c106.86-4.265,125.436,45.992,41.492,112.253l-0.371,0.293l0.164,0.443c37.078,100.311-4.979,133.509-93.938,74.149
		l-0.393-0.262l-0.371,0.293c-83.944,66.261-128.514,36.521-99.549-66.427l0.128-0.455L749.245,905.278z"/>
	<path fill="none" stroke="#000000" stroke-width="2.3606" stroke-miterlimit="10" d="M744.821,905.54
		c-92.002-63.062-76.197-116.664,35.301-119.723l0.493-0.013l0.139-0.473c31.546-106.986,87.408-108.519,124.772-3.423l0.165,0.465
		l0.493-0.013c111.498-3.059,130.218,49.596,41.812,117.607l-0.391,0.301l0.165,0.465c37.364,105.096-6.929,139.17-98.931,76.108
		l-0.407-0.279l-0.391,0.301c-88.406,68.011-134.5,36.416-102.954-70.57l0.139-0.473L744.821,905.54z"/>
	<path fill="none" stroke="#000000" stroke-width="2.3606" stroke-miterlimit="10" d="M740.377,905.696
		c-94.966-66.849-77.815-122.45,38.307-124.187l0.513-0.008l0.151-0.491c34.231-110.976,92.41-111.846,129.946-1.944l0.166,0.486
		l0.513-0.008c116.122-1.737,134.928,53.325,42.005,122.986l-0.411,0.308l0.166,0.486c37.536,109.902-9.02,144.803-103.986,77.953
		l-0.42-0.295l-0.411,0.308c-92.924,69.66-140.503,36.168-106.272-74.808l0.151-0.49L740.377,905.696z"/>
	<path fill="none" stroke="#000000" stroke-width="2.3606" stroke-miterlimit="10" d="M735.914,905.747
		c-97.85-70.72-79.301-128.294,41.429-128.595l0.534-0.001l0.164-0.508c37.021-114.914,97.509-115.065,135.103-0.337l0.166,0.507
		l0.534-0.001c120.73-0.301,139.565,57.18,42.069,128.386l-0.431,0.315l0.166,0.507c37.594,114.728-11.253,150.404-109.103,79.684
		l-0.432-0.313l-0.431,0.315c-97.496,71.207-146.52,35.775-109.499-79.139l0.164-0.508L735.914,905.747z"/>
	<path fill="none" stroke="#000000" stroke-width="2.3606" stroke-miterlimit="10" d="M731.435,905.692
		c-100.651-74.672-80.653-134.193,44.666-132.943l0.554,0.006l0.176-0.525c39.915-118.8,102.702-118.173,140.239,1.399l0.166,0.529
		l0.554,0.006c125.319,1.25,144.126,61.157,42.006,133.807l-0.451,0.321l0.166,0.529c37.537,119.572-13.627,155.971-114.278,81.299
		l-0.445-0.33l-0.451,0.321c-102.12,72.65-152.548,35.238-112.633-83.562l0.176-0.525L731.435,905.692z"/>
	<path fill="none" stroke="#000000" stroke-width="2.3606" stroke-miterlimit="10" d="M726.942,905.53
		c-103.368-78.705-81.87-140.145,48.019-137.229l0.574,0.013l0.19-0.542c42.91-122.63,107.986-121.17,145.351,3.262l0.165,0.55
		l0.574,0.013c129.888,2.915,148.609,65.258,41.813,139.245l-0.472,0.327l0.165,0.55c37.365,124.432-16.141,161.501-119.509,82.796
		l-0.457-0.348l-0.472,0.327c-106.795,73.988-158.585,34.556-115.674-88.075l0.19-0.542L726.942,905.53z"/>
	<path fill="none" stroke="#000000" stroke-width="2.3606" stroke-miterlimit="10" d="M722.435,905.262
		c-106-82.817-82.95-146.147,51.484-141.452l0.594,0.021l0.203-0.559c46.007-126.404,113.361-124.052,150.439,5.253l0.164,0.572
		l0.594,0.021c134.434,4.695,153.011,69.479,41.492,144.699l-0.493,0.332l0.164,0.572c37.078,129.305-18.795,166.992-124.795,84.175
		l-0.469-0.366l-0.493,0.332c-111.519,75.221-164.627,33.728-118.62-92.676l0.203-0.559L722.435,905.262z"/>
	<path fill="none" stroke="#000000" stroke-width="2.3606" stroke-miterlimit="10" d="M717.919,904.886
		c-108.545-87.006-83.893-152.197,55.063-145.609l0.614,0.029l0.217-0.575c49.205-130.119,118.824-126.818,155.498,7.372
		l0.162,0.593l0.614,0.029c138.956,6.588,157.33,73.819,41.04,150.166l-0.514,0.337l0.162,0.593
		c36.674,134.19-21.589,172.441-130.134,85.435l-0.48-0.385l-0.514,0.337c-116.29,76.346-170.672,32.755-121.467-97.364l0.217-0.575
		L717.919,904.886z"/>
	<path fill="none" stroke="#000000" stroke-width="2.3606" stroke-miterlimit="10" d="M713.394,904.403
		c-111.002-91.271-84.697-158.293,58.752-149.698l0.634,0.038l0.232-0.591c52.502-133.773,124.372-129.467,160.527,9.617l0.16,0.615
		l0.634,0.038c143.45,8.594,161.564,78.278,40.459,155.642l-0.535,0.342l0.16,0.615c36.155,139.084-24.521,177.845-135.522,86.575
		l-0.491-0.403l-0.535,0.342c-121.105,77.365-176.718,31.637-124.216-102.136l0.232-0.591L713.394,904.403z"/>
	<path fill="none" stroke="#000000" stroke-width="2.3606" stroke-miterlimit="10" d="M708.862,903.812
		c-113.368-95.61-85.362-164.431,62.552-153.718l0.654,0.047l0.247-0.607c55.898-137.364,130.005-131.997,165.524,11.989
		l0.157,0.636l0.654,0.047c147.915,10.714,165.71,82.853,39.747,161.127l-0.557,0.346l0.157,0.636
		c35.519,143.986-27.591,183.203-140.959,87.593l-0.501-0.423l-0.557,0.346c-125.963,78.274-182.762,30.372-126.864-106.992
		l0.247-0.607L708.862,903.812z"/>
	<path fill="none" stroke="#000000" stroke-width="2.3606" stroke-miterlimit="10" d="M704.325,903.113
		c-115.643-100.022-85.887-170.61,66.461-157.664l0.673,0.057l0.263-0.623c59.391-140.891,135.72-134.405,170.485,14.487
		l0.154,0.658l0.673,0.057c152.348,12.946,169.767,87.544,38.905,166.618l-0.578,0.35l0.154,0.658
		c34.766,148.893-30.798,188.51-146.441,88.488l-0.511-0.442l-0.578,0.349c-130.862,79.074-188.801,28.962-129.41-111.929
		l0.263-0.623L704.325,903.113z"/>
	<path fill="none" stroke="#000000" stroke-width="2.3606" stroke-miterlimit="10" d="M699.786,902.306
		c-117.825-104.505-86.271-176.827,70.478-161.537l0.693,0.068l0.278-0.638c62.98-144.352,141.514-136.691,175.409,17.111l0.15,0.68
		l0.693,0.068c156.749,15.29,173.731,92.348,37.931,172.112l-0.6,0.353l0.15,0.68c33.896,153.802-34.142,193.765-151.967,89.26
		l-0.521-0.462l-0.6,0.353c-135.8,79.764-194.832,27.406-131.852-116.946l0.278-0.638L699.786,902.306z"/>
	<path fill="none" stroke="#000000" stroke-width="2.3606" stroke-miterlimit="10" d="M695.247,901.391
		c-119.912-109.057-86.512-183.079,74.601-165.333l0.712,0.078l0.295-0.653c66.665-147.744,147.385-138.853,180.294,19.859
		l0.145,0.701l0.712,0.078c161.114,17.747,177.601,97.264,36.827,177.607l-0.622,0.355l0.145,0.702
		c32.909,158.712-37.621,198.965-157.534,89.908l-0.53-0.482l-0.622,0.355c-140.775,80.343-200.853,25.704-134.188-122.041
		l0.295-0.653L695.247,901.391z"/>
	<path fill="none" stroke="#000000" stroke-width="2.3606" stroke-miterlimit="10" d="M690.708,900.367
		c-121.904-113.678-86.611-189.364,78.83-169.051l0.731,0.09l0.311-0.668c70.443-151.066,153.332-140.889,185.136,22.732
		l0.141,0.723l0.731,0.09c165.441,20.314,181.375,102.29,35.591,183.1l-0.644,0.357l0.141,0.723
		c31.805,163.621-41.236,204.108-163.14,90.43l-0.539-0.502l-0.644,0.357c-145.784,80.81-206.86,23.855-136.417-127.211l0.311-0.668
		L690.708,900.367z"/>
	<path fill="none" stroke="#000000" stroke-width="2.3606" stroke-miterlimit="10" d="M686.173,899.235
		c-123.799-118.364-86.566-195.679,83.162-172.688l0.75,0.102l0.328-0.682c74.315-154.317,159.352-142.798,189.934,25.728
		l0.135,0.745l0.75,0.102c169.728,22.991,185.051,107.425,34.224,188.589l-0.667,0.359l0.135,0.745
		c30.583,168.526-44.984,209.19-168.783,90.826l-0.547-0.523l-0.667,0.359c-150.827,81.163-212.852,21.861-138.537-132.455
		l0.328-0.682L686.173,899.235z"/>
	<path fill="none" stroke="#000000" stroke-width="2.3606" stroke-miterlimit="10" d="M681.644,897.994
		c-125.596-123.115-86.377-202.022,87.597-176.243l0.769,0.114l0.346-0.696c78.278-157.493,165.442-144.578,194.686,28.848
		l0.129,0.767l0.769,0.114c173.974,25.779,188.626,112.668,32.725,194.072l-0.689,0.36l0.129,0.767
		c29.244,173.425-48.865,214.21-174.461,91.095l-0.555-0.544l-0.689,0.36c-155.901,81.404-218.826,19.721-140.548-137.772
		l0.346-0.696L681.644,897.994z"/>
	<path fill="none" stroke="#000000" stroke-width="2.3606" stroke-miterlimit="10" d="M677.121,896.645
		c-127.292-127.929-86.043-208.389,92.134-179.713l0.788,0.127l0.364-0.71c82.332-160.594,171.601-146.227,199.388,32.09
		l0.123,0.788l0.788,0.127c178.176,28.676,192.098,118.016,31.095,199.546l-0.712,0.36l0.123,0.788
		c27.787,178.317-52.878,219.165-180.17,91.236l-0.563-0.565l-0.712,0.36c-161.003,81.53-224.778,17.436-142.446-143.159l0.364-0.71
		L677.121,896.645z"/>
	<path fill="none" stroke="#000000" stroke-width="2.3606" stroke-miterlimit="10" d="M672.609,895.186
		c-128.888-132.803-85.563-214.778,96.77-183.097l0.806,0.14l0.382-0.723c86.475-163.618,177.826-147.745,204.039,35.453l0.116,0.81
		l0.806,0.14c182.332,31.682,195.465,123.467,29.333,205.008l-0.734,0.36l0.116,0.81c26.213,183.198-57.022,224.052-185.91,91.249
		l-0.57-0.587l-0.734,0.36c-166.132,81.541-230.707,15.005-144.232-148.613l0.382-0.723L672.609,895.186z"/>
	<path fill="none" stroke="#000000" stroke-width="2.3606" stroke-miterlimit="10" d="M668.107,893.619
		c-130.381-137.737-84.937-221.188,101.504-186.392l0.824,0.154l0.401-0.736c90.706-166.563,184.115-149.13,208.636,38.938
		l0.108,0.831l0.824,0.154c186.44,34.795,198.726,129.02,27.44,210.457l-0.757,0.36l0.108,0.831
		c24.521,188.068-61.296,228.869-191.677,91.132l-0.576-0.609l-0.757,0.36c-171.286,81.437-236.609,12.429-145.903-154.134
		l0.401-0.736L668.107,893.619z"/>
	<path fill="none" stroke="#000000" stroke-width="2.3606" stroke-miterlimit="10" d="M663.619,891.944
		C531.848,749.216,579.455,664.33,769.954,702.346l0.842,0.168l0.42-0.749c95.023-169.427,190.466-150.381,213.177,42.542l0.1,0.853
		l0.842,0.168c190.499,38.016,201.878,134.673,25.416,215.89l-0.78,0.359l0.1,0.853c22.712,192.923-65.698,233.613-197.47,90.885
		l-0.582-0.631l-0.78,0.359c-176.462,81.217-242.481,9.708-147.459-159.72l0.42-0.749L663.619,891.944z"/>
	<path fill="none" stroke="#000000" stroke-width="2.3606" stroke-miterlimit="10" d="M659.146,890.16
		C526.09,742.385,575.903,656.106,770.408,697.449l0.86,0.183l0.439-0.761c99.425-172.209,196.875-151.496,217.661,46.265
		l0.092,0.874l0.86,0.183c194.505,41.343,204.919,140.425,23.26,221.304l-0.803,0.357l0.092,0.874
		c20.785,197.761-70.228,238.283-203.285,90.508l-0.588-0.653l-0.803,0.357c-181.659,80.88-248.322,6.842-148.897-165.367
		l0.439-0.761L659.146,890.16z"/>
	<path fill="none" stroke="#000000" stroke-width="2.3606" stroke-miterlimit="10" d="M654.691,888.268
		c-134.236-152.875-82.175-240.506,116.282-195.73l0.877,0.198l0.459-0.773c103.911-174.907,203.341-152.474,222.083,50.107
		l0.083,0.895l0.877,0.198c198.457,44.776,207.847,146.272,20.973,226.697l-0.826,0.355l0.083,0.895
		c18.742,202.58-74.885,242.875-209.121,90l-0.593-0.676l-0.826,0.355c-186.874,80.425-254.128,3.833-150.217-171.074l0.459-0.773
		L654.691,888.268z"/>
	<path fill="none" stroke="#000000" stroke-width="2.3606" stroke-miterlimit="10" d="M650.255,886.267
		C514.946,728.24,569.297,639.3,771.649,687.614l0.894,0.214l0.479-0.785c108.48-177.519,209.862-153.313,226.443,54.066
		l0.073,0.917l0.894,0.214c202.353,48.314,210.66,152.214,18.555,232.067l-0.849,0.353l0.073,0.917
		c16.581,207.379-79.667,247.387-214.975,89.36l-0.598-0.698l-0.849,0.353c-192.105,79.853-259.897,0.679-151.417-176.84
		l0.479-0.785L650.255,886.267z"/>
	<path fill="none" stroke="#000000" stroke-width="2.3606" stroke-miterlimit="10" d="M645.841,884.159
		C509.568,720.93,566.247,630.725,772.438,682.681l0.911,0.23l0.5-0.796c113.129-180.044,216.434-154.013,230.738,58.141
		l0.063,0.938l0.911,0.23c206.191,51.956,213.357,158.248,16.007,237.411l-0.872,0.35l0.063,0.938
		c14.304,212.154-84.572,251.816-220.845,88.587l-0.602-0.722l-0.872,0.35c-197.351,79.163-265.626-2.617-152.496-182.661l0.5-0.796
		L645.841,884.159z"/>
	<path fill="none" stroke="#000000" stroke-width="2.3606" stroke-miterlimit="10" d="M641.45,881.943
		c-137.129-168.479-78.08-259.904,131.889-204.204l0.928,0.246l0.521-0.807c117.858-182.48,223.056-154.573,234.966,62.331
		l0.053,0.959l0.928,0.246c209.969,55.7,215.936,164.373,13.328,242.727l-0.896,0.346l0.053,0.959
		c11.91,216.905-89.6,256.161-226.729,87.682l-0.606-0.745l-0.896,0.346c-202.608,78.354-271.312-6.057-153.454-188.536l0.521-0.807
		L641.45,881.943z"/>
	<path fill="none" stroke="#000000" stroke-width="2.3606" stroke-miterlimit="10" d="M637.084,879.619
		C499.21,705.844,560.667,613.243,774.352,672.79l0.944,0.263l0.542-0.817c122.665-184.825,229.724-154.991,239.124,66.636
		l0.042,0.98l0.944,0.263c213.685,59.547,218.394,170.586,10.519,248.012l-0.919,0.342l0.042,0.98
		c9.4,221.627-94.749,260.419-232.623,86.644l-0.609-0.768l-0.919,0.342c-207.875,77.426-276.952-9.638-154.288-194.463l0.542-0.817
		L637.084,879.619z"/>
	<path fill="none" stroke="#000000" stroke-width="2.3606" stroke-miterlimit="10" d="M632.746,877.188
		c-138.508-179.116-74.604-272.845,142.733-209.35l0.961,0.281l0.564-0.827c127.548-187.078,236.437-155.267,243.211,71.054l0.03,1
		l0.961,0.281c217.337,63.495,220.73,176.885,7.58,253.264l-0.942,0.338l0.03,1c6.773,226.32-100.018,264.587-238.526,85.472
		l-0.612-0.792l-0.942,0.338c-213.15,76.379-282.545-13.361-154.997-200.439l0.564-0.827L632.746,877.188z"/>
	<path fill="none" stroke="#000000" stroke-width="2.3606" stroke-miterlimit="10" d="M628.437,874.65
		c-139.03-184.498-72.642-279.31,148.281-211.767l0.977,0.299l0.586-0.836c132.506-189.238,243.192-155.398,247.223,75.584
		l0.018,1.021l0.976,0.299c220.923,67.543,222.943,183.268,4.512,258.48l-0.966,0.332l0.018,1.021
		c4.032,230.982-105.406,268.664-244.435,84.166l-0.615-0.815l-0.965,0.332c-218.431,75.212-288.087-17.225-155.581-206.463
		l0.586-0.836L628.437,874.65z"/>
	<path fill="none" stroke="#000000" stroke-width="2.3606" stroke-miterlimit="10" d="M624.16,872.006
		c-139.438-189.922-70.53-285.767,153.911-214.077l0.992,0.317l0.608-0.846c137.537-191.303,249.986-155.385,251.161,80.225
		l0.005,1.041l0.992,0.317c224.441,71.69,225.03,189.734,1.315,263.659l-0.989,0.327l0.005,1.041
		c1.175,235.609-110.91,272.647-250.348,82.725l-0.616-0.839l-0.989,0.327c-223.715,73.925-293.576-21.229-156.038-212.532
		l0.608-0.846L624.16,872.006z"/>
	<path fill="none" stroke="#000000" stroke-width="2.3606" stroke-miterlimit="10" d="M619.916,869.256
		c-139.733-195.383-68.268-292.214,159.621-216.279l1.007,0.336l0.63-0.854c142.64-193.271,256.816-155.226,255.02,84.975
		l-0.008,1.062l1.007,0.336c227.889,75.935,226.989,196.279-2.011,268.797l-1.012,0.32l-0.008,1.062
		c-1.797,240.201-116.529,276.533-256.262,81.151l-0.618-0.864l-1.012,0.321c-229,72.517-299.008-25.372-156.368-218.643l0.63-0.854
		L619.916,869.256z"/>
	<path fill="none" stroke="#000000" stroke-width="2.3606" stroke-miterlimit="10" d="M615.707,866.4
		c-139.913-200.88-65.856-298.649,165.41-218.372l1.022,0.355l0.653-0.863c147.813-195.14,263.681-154.92,258.798,89.834
		l-0.022,1.082l1.022,0.355c231.266,80.277,228.82,202.903-5.464,273.892l-1.036,0.314l-0.022,1.082
		c-4.883,244.754-122.263,280.321-262.175,79.441l-0.618-0.888l-1.036,0.314c-234.284,70.99-304.382-29.655-156.569-224.795
		l0.653-0.863L615.707,866.4z"/>
	<path fill="none" stroke="#000000" stroke-width="2.3606" stroke-miterlimit="10" d="M611.536,863.439
		c-139.977-206.412-63.294-305.067,171.276-220.353l1.037,0.374l0.677-0.87c153.054-196.911,270.577-154.467,262.495,94.8
		l-0.036,1.102l1.037,0.374c234.57,84.715,230.52,209.601-9.045,278.942l-1.059,0.307l-0.036,1.102
		c-8.082,249.267-128.108,284.008-268.085,77.596l-0.619-0.912l-1.059,0.306c-239.565,69.341-309.695-34.075-156.641-230.985
		l0.677-0.87L611.536,863.439z"/>
	<path fill="none" stroke="#000000" stroke-width="2.3606" stroke-miterlimit="10" d="M607.404,860.373
		C467.48,648.397,546.822,548.905,784.62,638.152l1.051,0.394l0.7-0.878c158.362-198.58,277.503-153.866,266.107,99.872l-0.05,1.122
		l1.051,0.394c237.798,89.247,232.088,216.374-12.752,283.945l-1.082,0.299l-0.05,1.122
		c-11.396,253.738-134.064,287.592-273.988,75.616l-0.618-0.937l-1.082,0.299c-244.84,67.572-314.944-38.632-156.582-237.212
		l0.7-0.878L607.404,860.373z"/>
	<path fill="none" stroke="#000000" stroke-width="2.3606" stroke-miterlimit="10" d="M603.314,857.203
		c-139.754-217.57-57.72-317.847,183.228-223.975l1.065,0.415l0.724-0.885c163.735-200.147,284.454-153.116,269.633,105.048
		l-0.065,1.141l1.065,0.415c240.948,93.873,233.523,223.217-16.585,288.898l-1.106,0.29l-0.065,1.141
		c-14.821,258.164-140.129,291.071-279.883,73.5l-0.618-0.962l-1.105,0.29c-250.108,65.681-320.127-43.325-156.392-243.472
		l0.724-0.885L603.314,857.203z"/>
	<path fill="none" stroke="#000000" stroke-width="2.3606" stroke-miterlimit="10" d="M599.266,853.93
		C459.8,630.737,544.557,529.727,788.577,628.317l1.079,0.436l0.748-0.891c169.171-201.611,291.429-152.215,273.07,110.328
		l-0.081,1.16l1.079,0.436c244.02,98.591,234.822,230.129-20.544,293.799l-1.129,0.281l-0.081,1.16
		c-18.359,262.543-146.301,294.443-285.768,71.25l-0.616-0.986l-1.129,0.281c-255.366,63.67-325.241-48.153-156.07-249.764
		l0.748-0.891L599.266,853.93z"/>
	<path fill="none" stroke="#000000" stroke-width="2.3606" stroke-miterlimit="10" d="M595.264,850.553
		C456.205,621.712,543.717,520.021,790.727,623.42l1.092,0.457l0.772-0.897c174.669-202.969,298.425-151.164,276.417,115.709
		l-0.097,1.18l1.092,0.457c247.011,103.399,235.984,237.107-24.628,298.645l-1.152,0.272l-0.097,1.18
		c-22.008,266.873-152.579,297.705-291.638,68.864l-0.615-1.011l-1.152,0.272c-260.613,61.537-330.283-53.115-155.614-256.085
		l0.772-0.897L595.264,850.553z"/>
	<path fill="none" stroke="#000000" stroke-width="2.3606" stroke-miterlimit="10" d="M591.309,847.074
		C452.776,612.561,543.072,510.243,792.991,618.54l1.105,0.479l0.797-0.903c180.227-204.221,305.44-149.963,279.672,121.19
		l-0.114,1.198l1.105,0.479c249.919,108.298,237.009,244.149-28.836,303.434l-1.175,0.262l-0.114,1.199
		c-25.768,271.153-158.96,300.855-297.493,66.342l-0.612-1.037l-1.175,0.262c-265.845,59.284-335.252-58.211-155.025-262.432
		l0.797-0.903L591.309,847.074z"/>
	<path fill="none" stroke="#000000" stroke-width="2.3606" stroke-miterlimit="10" d="M587.403,843.493
		c-137.886-240.208-44.777-343.099,207.966-229.815l1.117,0.501l0.821-0.908c185.842-205.366,312.47-148.609,282.832,126.771
		l-0.131,1.217l1.117,0.501c252.743,113.284,237.894,251.254-33.166,308.163l-1.198,0.252l-0.131,1.217
		c-29.638,275.38-165.443,303.892-303.33,63.685l-0.609-1.062l-1.198,0.252c-271.06,56.91-340.143-63.438-154.302-268.804
		l0.821-0.908L587.403,843.493z"/>
	<path fill="none" stroke="#000000" stroke-width="2.3606" stroke-miterlimit="10" d="M583.548,839.811
		C446.429,593.89,542.38,490.48,797.86,608.838l1.129,0.523l0.846-0.912c191.513-206.402,319.513-147.103,285.895,132.448
		l-0.149,1.236l1.129,0.523c255.481,118.358,238.638,258.417-37.619,312.832l-1.221,0.24l-0.149,1.236
		c-33.617,279.551-172.026,306.813-309.145,60.892l-0.606-1.087l-1.221,0.24c-276.257,54.414-344.956-68.796-153.443-275.198
		l0.846-0.912L583.548,839.811z"/>
	<path fill="none" stroke="#000000" stroke-width="2.3606" stroke-miterlimit="10" d="M579.746,836.029
		c-136.23-251.653-37.411-355.527,220.72-232.01l1.141,0.546l0.872-0.916c197.238-207.328,326.566-145.444,288.861,138.222
		l-0.167,1.254l1.141,0.546c258.13,123.517,239.24,265.638-42.194,317.436l-1.244,0.229l-0.167,1.254
		c-37.705,283.666-178.708,309.617-314.938,57.964l-0.602-1.112l-1.244,0.229c-281.433,51.798-349.687-74.284-152.448-281.612
		l0.872-0.916L579.746,836.029z"/>
	<path fill="none" stroke="#000000" stroke-width="2.3606" stroke-miterlimit="10" d="M575.998,832.148
		c-135.22-257.4-33.505-361.682,227.185-232.922l1.152,0.569l0.897-0.92c203.016-208.142,333.626-143.631,291.726,144.089
		l-0.185,1.272l1.152,0.569c260.691,128.76,239.698,272.913-46.889,321.974l-1.267,0.217l-0.185,1.272
		c-41.901,287.721-185.485,312.301-320.705,54.901l-0.598-1.138l-1.267,0.217c-286.587,49.061-354.334-79.901-151.317-288.043
		l0.897-0.92L575.998,832.148z"/>
	<path fill="none" stroke="#000000" stroke-width="2.3606" stroke-miterlimit="10" d="M572.307,828.167
		c-134.086-263.16-29.452-367.794,233.708-233.708l1.163,0.593l0.923-0.923c208.845-208.845,340.692-141.665,294.489,150.049
		l-0.204,1.289l1.163,0.593c263.16,134.087,240.011,280.24-51.704,326.443l-1.289,0.204l-0.204,1.289
		c-46.203,291.715-192.357,314.863-326.443,51.703l-0.593-1.163l-1.289,0.204c-291.715,46.203-358.894-85.644-150.049-294.489
		l0.923-0.923L572.307,828.167z"/>
	<path fill="none" stroke="#000000" stroke-width="2.3606" stroke-miterlimit="10" d="M568.675,824.089
		c-132.83-268.931-25.252-373.86,240.284-234.366l1.174,0.617l0.949-0.926c214.722-209.433,347.759-139.545,297.148,156.101
		l-0.224,1.307l1.174,0.617c265.536,139.494,240.179,287.617-56.637,330.842l-1.312,0.191l-0.224,1.307
		c-50.612,295.646-199.321,317.302-332.151,48.371l-0.587-1.189l-1.312,0.191c-296.815,43.225-363.365-91.514-148.644-300.947
		l0.949-0.926L568.675,824.089z"/>
	<path fill="none" stroke="#000000" stroke-width="2.3606" stroke-miterlimit="10" d="M565.103,819.913
		c-131.451-274.711-20.904-379.878,246.913-234.897l1.184,0.641l0.975-0.928c220.645-209.908,354.826-137.27,299.701,162.241
		l-0.244,1.324l1.184,0.641c267.817,144.981,240.199,295.041-61.688,335.168l-1.334,0.177l-0.244,1.324
		c-55.125,299.511-206.375,319.615-337.826,44.904l-0.581-1.214l-1.334,0.177c-301.886,40.127-367.745-97.508-147.1-307.415
		l0.975-0.928L565.103,819.913z"/>
	<path fill="none" stroke="#000000" stroke-width="2.3606" stroke-miterlimit="10" d="M561.594,815.642
		c-129.948-280.498-16.411-385.845,253.592-235.299l1.193,0.665l1.002-0.929c226.613-210.266,361.889-134.84,302.146,168.469
		l-0.264,1.341l1.193,0.665c270.003,150.546,240.071,302.509-66.855,339.418l-1.357,0.163l-0.264,1.341
		c-59.743,303.309-213.517,321.801-343.465,41.303l-0.574-1.24l-1.357,0.163c-306.926,36.909-372.031-103.625-145.418-313.891
		l1.002-0.929L561.594,815.642z"/>
	<path fill="none" stroke="#000000" stroke-width="2.3606" stroke-miterlimit="10" d="M558.148,811.275
		c-128.32-286.289-11.772-391.757,260.318-235.569l1.203,0.69l1.028-0.93c232.624-210.508,368.946-132.256,304.482,174.782
		l-0.285,1.357l1.203,0.69c272.09,156.188,239.793,310.019-72.138,343.591l-1.379,0.148l-0.285,1.357
		c-64.463,307.038-220.745,323.858-349.066,37.568l-0.567-1.265l-1.379,0.148c-311.931,33.572-376.221-109.864-143.597-320.372
		l1.028-0.93L558.148,811.275z"/>
	<path fill="none" stroke="#000000" stroke-width="2.3606" stroke-miterlimit="10" d="M554.769,806.813
		C428.2,514.73,547.781,409.199,821.859,571.105l1.211,0.716l1.055-0.931c238.676-210.633,375.994-129.516,306.707,181.18
		l-0.306,1.373l1.211,0.716c274.079,161.905,239.365,317.569-77.535,347.684l-1.401,0.133l-0.306,1.373
		c-69.286,310.696-228.058,325.784-354.626,33.7l-0.559-1.291l-1.401,0.133c-316.9,30.115-380.313-116.223-141.637-326.856
		l1.055-0.931L554.769,806.813z"/>
	<path fill="none" stroke="#000000" stroke-width="2.3606" stroke-miterlimit="10" d="M551.457,802.258
		c-124.692-297.877-2.06-403.41,273.906-235.715l1.22,0.741l1.082-0.931c244.766-210.638,383.029-126.62,308.82,187.66l-0.328,1.389
		l1.22,0.741c275.966,167.696,238.786,325.155-83.045,351.695l-1.422,0.117l-0.328,1.389
		c-74.21,314.28-235.452,327.577-360.144,29.699l-0.551-1.317l-1.422,0.117c-321.83,26.54-384.303-122.701-139.537-333.34
		l1.082-0.931L551.457,802.258z"/>
	<path fill="none" stroke="#000000" stroke-width="2.3606" stroke-miterlimit="10" d="M548.215,797.611
		c-122.69-303.669,3.011-409.145,280.762-235.587l1.228,0.767l1.109-0.93c250.893-210.524,390.051-123.569,310.817,194.22
		l-0.35,1.405l1.228,0.767c277.751,173.558,238.054,332.775-88.667,355.622l-1.444,0.101l-0.35,1.405
		c-79.234,317.789-242.926,329.236-365.616,25.566l-0.542-1.342l-1.444,0.101c-326.72,22.847-388.19-129.297-137.297-339.821
		l1.109-0.931L548.215,797.611z"/>
	<path fill="none" stroke="#000000" stroke-width="2.3606" stroke-miterlimit="10" d="M545.045,792.872
		c-120.563-309.457,8.225-414.816,287.657-235.325l1.235,0.793l1.136-0.93c257.055-210.29,397.055-120.362,312.698,200.859
		l-0.373,1.42l1.235,0.793c279.432,179.491,237.168,340.427-94.399,359.463l-1.466,0.084l-0.373,1.42
		c-84.356,321.221-250.477,330.758-371.04,21.301l-0.533-1.368l-1.466,0.084C347.79,1160.502,287.386,1005.46,544.441,795.17
		l1.136-0.93L545.045,792.872z"/>
	<path fill="none" stroke="#000000" stroke-width="2.3606" stroke-miterlimit="10" d="M541.947,788.043
		c-118.311-315.238,13.581-420.419,294.589-234.927l1.242,0.82l1.164-0.928c263.249-209.934,404.039-117,314.462,207.574
		l-0.396,1.435l1.242,0.82c281.008,185.492,236.128,348.109-100.241,363.215l-1.487,0.067l-0.396,1.435
		c-89.577,324.574-258.103,332.143-376.414,16.905l-0.523-1.393l-1.487,0.067c-336.369,15.106-395.645-142.833-132.396-352.767
		l1.164-0.928L541.947,788.043z"/>
	<path fill="none" stroke="#000000" stroke-width="2.3606" stroke-miterlimit="10" d="M538.924,783.125
		c-115.933-321.011,19.078-425.952,301.555-234.392l1.249,0.847l1.191-0.926c269.474-209.456,410.999-113.482,316.106,214.365
		l-0.419,1.449l1.249,0.847c282.477,191.56,234.934,355.816-106.191,366.877l-1.508,0.049l-0.419,1.449
		c-94.894,327.847-265.802,333.388-381.735,12.378l-0.512-1.419l-1.508,0.049c-341.125,11.061-399.209-149.771-129.734-359.227
		l1.191-0.926L538.924,783.125z"/>
	<path fill="none" stroke="#000000" stroke-width="2.3606" stroke-miterlimit="10" d="M535.978,778.119
		C422.549,451.347,560.693,346.707,844.531,544.4l1.255,0.874l1.219-0.923c275.727-208.855,417.934-109.808,317.628,221.228
		l-0.443,1.463l1.255,0.874c283.838,197.692,233.583,363.547-112.247,370.446l-1.529,0.031l-0.443,1.463
		c-100.306,331.036-273.572,334.493-387.001,7.72l-0.501-1.444l-1.529,0.031c-345.83,6.899-402.66-156.819-126.932-365.674
		l1.219-0.923L535.978,778.119z"/>
	<path fill="none" stroke="#000000" stroke-width="2.3606" stroke-miterlimit="10" d="M533.11,773.026
		c-110.799-332.52,30.491-436.797,315.58-232.908l1.26,0.901l1.246-0.92c282.007-208.131,424.841-105.979,319.029,228.161
		l-0.468,1.477l1.26,0.901c285.089,203.889,232.075,371.298-118.409,373.92l-1.549,0.012l-0.468,1.477
		c-105.812,334.141-281.411,335.454-392.21,2.934l-0.49-1.47l-1.549,0.012c-350.485,2.622-405.997-163.976-123.99-372.107
		l1.246-0.92L533.11,773.026z"/>
	<path fill="none" stroke="#000000" stroke-width="2.3606" stroke-miterlimit="10" d="M530.322,767.847
		c-108.043-338.253,36.405-442.104,322.634-231.958l1.265,0.929l1.274-0.916c288.311-207.281,431.716-101.995,320.305,235.164
		l-0.492,1.49l1.265,0.929c286.229,210.146,230.41,379.068-124.675,377.297l-1.569-0.008l-0.493,1.49
		c-111.411,337.159-289.315,336.272-397.358-1.982l-0.478-1.495l-1.569-0.008c-355.085-1.771-409.217-171.241-120.906-378.522
		l1.274-0.916L530.322,767.847z"/>
	<path fill="none" stroke="#000000" stroke-width="2.3606" stroke-miterlimit="10" d="M527.616,762.584
		c-105.162-343.968,42.456-447.331,329.713-230.867l1.27,0.957l1.302-0.912c294.637-206.307,438.557-97.855,321.455,242.234
		l-0.518,1.503l1.27,0.957c287.257,216.464,228.587,386.854-131.043,380.576l-1.59-0.028l-0.518,1.503
		c-117.102,340.089-297.282,336.944-402.444-7.025l-0.465-1.52l-1.59-0.028c-359.63-6.277-412.318-178.611-117.681-384.918
		l1.302-0.912L527.616,762.584z"/>
	<path fill="none" stroke="#000000" stroke-width="2.3606" stroke-miterlimit="10" d="M524.994,757.237
		C422.84,407.573,573.637,304.762,861.808,527.601l1.274,0.985l1.33-0.907c300.982-205.206,445.361-93.56,322.478,249.368
		l-0.543,1.516l1.274,0.985c288.171,222.839,226.605,394.651-137.512,383.754l-1.609-0.048l-0.543,1.516
		c-122.883,342.928-305.311,337.469-407.465-12.195l-0.452-1.546l-1.609-0.048c-364.117-10.898-415.298-186.085-114.315-391.291
		l1.33-0.907L524.994,757.237z"/>
	<path fill="none" stroke="#000000" stroke-width="2.3606" stroke-miterlimit="10" d="M522.456,751.808
		c-99.021-355.336,54.964-457.533,343.935-228.263l1.277,1.013l1.358-0.902c307.346-203.979,452.125-89.111,323.373,256.565
		l-0.569,1.528l1.277,1.013c288.971,229.27,224.464,402.459-144.08,386.829l-1.629-0.069l-0.569,1.528
		c-128.752,345.676-313.398,337.845-412.419-17.492l-0.438-1.571l-1.629-0.069C263.8,1136.289,214.19,958.26,521.536,754.28
		l1.358-0.902L522.456,751.808z"/>
	<path fill="none" stroke="#000000" stroke-width="2.3606" stroke-miterlimit="10" d="M520.005,746.299
		c-95.762-360.985,61.42-462.503,351.074-226.747l1.28,1.042l1.387-0.896c313.725-202.625,458.846-84.508,324.138,263.822
		l-0.595,1.54l1.28,1.042c289.654,235.756,222.163,410.274-150.746,389.799l-1.648-0.09l-0.595,1.54
		c-134.709,348.33-321.542,338.071-417.304-22.913l-0.423-1.596l-1.648-0.09c-372.909-20.476-420.887-201.335-107.162-403.96
		l1.387-0.896L520.005,746.299z"/>
	<path fill="none" stroke="#000000" stroke-width="2.3606" stroke-miterlimit="10" d="M517.643,740.71
		C425.266,374.103,585.65,273.328,875.87,515.621l1.283,1.071l1.415-0.889c320.118-201.143,465.523-79.751,324.771,271.138
		l-0.622,1.551l1.283,1.071c290.22,242.293,219.702,418.094-157.508,392.662l-1.667-0.112l-0.622,1.551
		c-140.752,350.889-329.74,338.147-422.116-28.46l-0.408-1.62l-1.667-0.112c-377.21-25.432-423.492-209.108-103.374-410.251
		l1.415-0.889L517.643,740.71z"/>
	<path fill="none" stroke="#000000" stroke-width="2.3606" stroke-miterlimit="10" d="M515.37,735.043
		c-88.867-372.199,74.726-472.168,365.394-223.287l1.285,1.1l1.443-0.882c326.521-199.533,472.15-74.84,325.272,278.51l-0.649,1.562
		l1.285,1.1c290.668,248.881,217.079,425.915-164.365,395.416l-1.686-0.135l-0.649,1.562
		c-146.879,353.35-337.988,338.07-426.855-34.13l-0.393-1.645l-1.686-0.135c-381.444-30.499-425.967-216.977-99.446-416.51
		l1.443-0.882L515.37,735.043z"/>
	<path fill="none" stroke="#000000" stroke-width="2.3606" stroke-miterlimit="10" d="M513.189,729.3
		c-85.231-377.761,81.574-476.859,372.57-221.341l1.286,1.129l1.472-0.874c332.934-197.794,478.727-69.776,325.639,285.937
		l-0.677,1.572l1.286,1.129c290.996,255.517,214.296,433.735-171.314,398.06l-1.704-0.158l-0.677,1.572
		c-153.089,355.713-346.285,337.839-431.516-39.922l-0.377-1.67l-1.704-0.158c-385.61-35.675-428.312-224.939-95.378-422.733
		l1.472-0.874L513.189,729.3z"/>
	<path fill="none" stroke="#000000" stroke-width="2.3606" stroke-miterlimit="10" d="M511.101,723.481
		C429.631,340.192,599.652,242.03,890.855,504.23l1.287,1.159l1.5-0.866c339.354-195.926,485.251-64.56,325.87,293.415l-0.704,1.582
		l1.287,1.159c291.203,262.2,211.35,441.551-178.355,400.591l-1.722-0.181l-0.704,1.582
		c-159.381,357.974-354.629,337.453-436.099-45.836l-0.36-1.694l-1.723-0.181c-389.705-40.96-430.523-232.993-91.17-428.919
		l1.5-0.866L511.101,723.481z"/>
	<path fill="none" stroke="#000000" stroke-width="2.3606" stroke-miterlimit="10" d="M509.108,717.588
		c-77.585-388.781,95.655-485.942,386.942-217.015l1.287,1.189l1.528-0.857c345.778-193.928,491.717-59.191,325.965,300.943
		l-0.733,1.592l1.287,1.189c291.288,268.927,208.243,449.36-185.485,403.008l-1.74-0.205l-0.733,1.592
		c-165.752,360.134-363.016,336.911-440.601-51.87l-0.343-1.718l-1.74-0.205c-393.728-46.352-432.6-241.137-86.822-435.065
		l1.528-0.857L509.108,717.588z"/>
	<path fill="none" stroke="#000000" stroke-width="2.3606" stroke-miterlimit="10" d="M507.21,711.623
		c-73.576-394.235,102.884-490.33,394.134-214.634l1.287,1.219l1.557-0.848c352.204-191.8,498.125-53.672,325.923,308.518
		l-0.761,1.601l1.287,1.219c291.25,275.696,204.974,457.159-192.702,405.308l-1.758-0.229l-0.761,1.601
		c-172.202,362.19-371.444,336.212-445.019-58.024l-0.325-1.743l-1.758-0.229c-397.676-51.851-434.539-249.369-82.335-441.169
		l1.557-0.848L507.21,711.623z"/>
	<path fill="none" stroke="#000000" stroke-width="2.3606" stroke-miterlimit="10" d="M505.411,705.587
		c-69.442-399.65,110.237-494.613,401.325-212.107l1.287,1.249l1.585-0.838c358.63-189.542,504.47-48.002,325.742,316.138
		l-0.79,1.61l1.287,1.249c291.088,282.506,201.542,464.946-200.006,407.491l-1.775-0.254l-0.79,1.609
		c-178.728,364.14-379.91,335.354-449.352-64.295l-0.307-1.766l-1.775-0.254c-401.548-57.455-436.339-257.686-77.709-447.228
		l1.585-0.838L505.411,705.587z"/>
	<path fill="none" stroke="#000000" stroke-width="2.3606" stroke-miterlimit="10" d="M503.71,699.482
		c-65.185-405.021,117.713-498.787,408.514-209.433l1.285,1.279l1.614-0.827c365.055-187.153,510.75-42.182,325.421,323.802
		l-0.819,1.618l1.285,1.279c290.801,289.354,197.948,472.718-207.393,409.554l-1.792-0.279l-0.819,1.618
		c-185.33,365.984-388.412,334.337-453.597-70.684l-0.288-1.79l-1.792-0.279c-405.341-63.164-438-266.086-72.945-453.239
		l1.614-0.827L503.71,699.482z"/>
	<path fill="none" stroke="#000000" stroke-width="2.3606" stroke-miterlimit="10" d="M502.109,693.309
		C441.306,282.961,627.42,190.457,917.808,486.696l1.284,1.309l1.642-0.816c371.475-184.632,516.963-36.212,324.958,331.506
		l-0.849,1.625l1.284,1.309c290.388,296.239,194.19,480.471-214.863,411.495l-1.808-0.305l-0.849,1.625
		c-192.005,367.718-396.947,333.16-457.751-77.188l-0.269-1.814l-1.808-0.305c-409.053-68.976-439.517-274.567-68.043-459.199
		l1.642-0.816L502.109,693.309z"/>
	<path fill="none" stroke="#000000" stroke-width="2.3606" stroke-miterlimit="10" d="M500.611,687.07
		c-56.301-415.628,133.027-506.803,422.875-203.646l1.281,1.34l1.67-0.804c377.888-181.981,523.106-30.095,324.354,339.248
		l-0.878,1.633l1.281,1.34c289.848,303.157,190.27,488.203-222.413,413.312l-1.824-0.331l-0.878,1.633
		c-198.752,369.342-405.512,331.821-461.813-83.807l-0.249-1.837l-1.824-0.331c-412.683-74.891-440.891-283.127-63.003-465.108
		l1.67-0.804L500.611,687.07z"/>
	<path fill="none" stroke="#000000" stroke-width="2.3606" stroke-miterlimit="10" d="M499.216,680.766
		c-51.675-420.858,140.861-510.639,430.041-200.531l1.278,1.371l1.699-0.792c384.292-179.198,529.175-23.829,323.607,347.026
		l-0.909,1.639l1.278,1.371c289.18,310.108,186.187,495.912-230.041,415.005l-1.84-0.358l-0.909,1.639
		c-205.568,370.855-414.105,330.32-465.78-90.539l-0.228-1.86l-1.84-0.358c-416.228-80.907-442.118-291.763-57.827-470.961
		l1.699-0.792L499.216,680.766z"/>
	<path fill="none" stroke="#000000" stroke-width="2.3606" stroke-miterlimit="10" d="M497.926,674.399
		c-46.927-426.037,148.811-514.358,437.195-197.27l1.275,1.402l1.727-0.779c390.684-176.283,535.169-17.417,322.715,354.837
		l-0.939,1.645l1.275,1.401c288.384,317.088,181.941,503.594-237.746,416.571l-1.855-0.385l-0.939,1.645
		c-212.453,372.255-422.723,328.655-469.65-97.382l-0.207-1.883l-1.855-0.385c-419.687-87.022-443.198-300.474-52.514-476.757
		l1.727-0.779L497.926,674.399z"/>
	<path fill="none" stroke="#000000" stroke-width="2.3606" stroke-miterlimit="10" d="M496.741,667.97
		C454.683,236.807,653.617,150.013,941.075,474.11l1.271,1.432l1.755-0.766c397.063-173.237,541.084-10.86,321.679,362.68
		l-0.97,1.651l1.271,1.433c287.457,324.096,177.532,511.246-245.525,418.009l-1.87-0.412l-0.97,1.651
		c-219.405,373.54-431.363,326.827-473.422-104.336l-0.186-1.906l-1.87-0.412c-423.057-93.236-444.129-309.256-47.066-482.493
		l1.755-0.766L496.741,667.97z"/>
	<path fill="none" stroke="#000000" stroke-width="2.3606" stroke-miterlimit="10" d="M495.664,661.482
		c-37.07-436.232,165.053-521.434,451.454-190.304l1.266,1.464l1.783-0.752c403.427-170.059,546.918-4.157,320.497,370.551
		l-1.001,1.656l1.266,1.464c286.401,331.13,172.961,518.865-253.376,419.317l-1.884-0.44l-1.001,1.656
		c-226.421,374.708-440.022,324.833-477.092-111.399l-0.164-1.928l-1.884-0.44C109.191,1052.78,90.619,834.22,494.045,664.162
		l1.783-0.752L495.664,661.482z"/>
	<path fill="none" stroke="#000000" stroke-width="2.3606" stroke-miterlimit="10" d="M494.696,654.936
		c-31.96-441.244,173.341-524.787,458.555-186.599l1.261,1.495l1.811-0.737c409.772-166.748,552.668,2.689,319.168,378.449
		l-1.032,1.661l1.261,1.495c285.213,338.188,168.226,526.449-261.298,420.494l-1.898-0.468l-1.032,1.661
		c-233.5,375.76-448.698,322.674-480.659-118.57l-0.141-1.95l-1.898-0.468C99.267,1045.441,83.255,824.371,493.026,657.623
		l1.811-0.737L494.696,654.936z"/>
	<path fill="none" stroke="#000000" stroke-width="2.3606" stroke-miterlimit="10" d="M493.838,648.333
		C467.106,202.138,675.576,120.319,959.47,465.586l1.255,1.526l1.839-0.722c416.096-163.306,558.331,9.678,317.691,386.37
		l-1.064,1.665l1.255,1.526c283.894,345.267,163.329,533.995-269.288,421.537l-1.912-0.497l-1.064,1.665
		c-240.64,376.692-457.388,320.349-484.12-125.846l-0.118-1.972l-1.912-0.497C89.414,1037.883,76.021,814.333,492.117,651.027
		l1.839-0.722L493.838,648.333z"/>
	<path fill="none" stroke="#000000" stroke-width="2.3606" stroke-miterlimit="10" d="M493.091,641.676
		c-21.385-451.084,190.243-531.112,472.684-178.747l1.248,1.557l1.867-0.706c422.398-159.731,563.905,16.809,316.066,394.313
		l-1.095,1.669l1.248,1.557c282.441,352.365,158.27,541.5-277.345,422.446l-1.925-0.526l-1.095,1.669
		c-247.839,377.504-466.089,317.856-487.474-133.227l-0.095-1.994l-1.925-0.526C79.635,1030.107,68.92,804.107,491.318,644.376
		l1.867-0.706L493.091,641.676z"/>
	<path fill="none" stroke="#000000" stroke-width="2.3606" stroke-miterlimit="10" d="M492.456,634.966
		c-15.921-455.908,198.852-534.079,479.708-174.599l1.241,1.589l1.895-0.69c428.674-156.025,569.388,24.08,314.292,402.275
		l-1.128,1.672l1.241,1.589c280.856,359.479,153.049,548.961-285.465,423.219l-1.938-0.556l-1.128,1.672
		c-255.096,378.195-474.798,315.197-490.719-140.711l-0.07-2.015l-1.938-0.556c-438.514-125.742-446.49-354.159-17.816-510.183
		l1.895-0.69L492.456,634.966z"/>
	<path fill="none" stroke="#000000" stroke-width="2.3606" stroke-miterlimit="10" d="M491.935,628.205
		C481.596,167.54,699.499,91.292,978.636,457.901l1.234,1.62l1.922-0.673c434.923-152.186,574.775,31.49,312.368,410.253
		l-1.16,1.674l1.234,1.62c279.136,366.609,147.666,556.375-293.647,423.854l-1.951-0.586l-1.16,1.674
		c-262.408,378.763-483.512,312.368-493.851-148.297l-0.046-2.036l-1.951-0.586C60.315,1013.9,55.135,783.1,490.058,630.913
		l1.922-0.673L491.935,628.205z"/>
	<path fill="none" stroke="#000000" stroke-width="2.3606" stroke-miterlimit="10" d="M491.529,621.394
		c-4.641-465.353,216.378-539.612,493.661-165.861l1.226,1.652l1.95-0.655c441.143-148.216,580.066,39.039,310.293,418.245
		l-1.192,1.676l1.226,1.652c277.282,373.751,142.122,563.739-301.889,424.351l-1.963-0.616l-1.192,1.676
		c-269.773,379.207-492.229,309.371-496.871-155.982l-0.021-2.057l-1.963-0.616c-444.011-139.388-446.337-372.537-5.194-520.753
		l1.95-0.655L491.529,621.394z"/>
	<path fill="none" stroke="#000000" stroke-width="2.3606" stroke-miterlimit="10" d="M491.238,614.536
		c1.172-469.97,225.291-542.174,500.585-161.271l1.217,1.684l1.977-0.637c447.33-144.114,585.257,46.724,308.067,426.249
		l-1.225,1.678l1.217,1.684c275.293,380.903,136.417,571.05-310.189,424.707l-1.974-0.647l-1.225,1.677
		c-277.189,379.525-500.946,306.205-499.774-163.765l0.005-2.077l-1.974-0.647C41.339,996.827,41.926,761.364,489.256,617.25
		l1.977-0.637L491.238,614.536z"/>
	<path fill="none" stroke="#000000" stroke-width="2.3606" stroke-miterlimit="10" d="M491.065,607.632
		c7.099-474.514,234.301-544.596,507.47-156.534l1.207,1.715l2.004-0.618c453.483-139.881,590.345,54.544,305.689,434.261
		l-1.258,1.678l1.207,1.715c273.169,388.063,130.552,578.306-318.544,424.922l-1.985-0.678l-1.258,1.678
		c-284.656,379.717-509.659,302.869-502.56-171.645l0.031-2.097l-1.985-0.678C31.989,987.968,35.546,750.229,489.029,610.348
		l2.004-0.618L491.065,607.632z"/>
	<path fill="none" stroke="#000000" stroke-width="2.3606" stroke-miterlimit="10" d="M491.01,600.685
		c13.14-478.982,243.407-546.878,514.314-151.65l1.197,1.747l2.031-0.599c459.599-135.517,595.328,62.499,303.159,442.28
		l-1.291,1.679l1.197,1.747c270.908,395.228,124.527,585.504-326.952,424.994l-1.996-0.709l-1.291,1.679
		c-292.169,379.781-518.367,299.363-505.227-179.619l0.058-2.117l-1.996-0.709C22.737,978.895,29.321,738.917,488.92,603.401
		l2.031-0.599L491.01,600.685z"/>
	<path fill="none" stroke="#000000" stroke-width="2.3606" stroke-miterlimit="10" d="M491.074,593.695
		c19.294-483.372,252.605-549.016,521.115-146.619l1.187,1.779l2.058-0.579c465.677-131.021,600.204,70.586,300.476,450.302
		l-1.325,1.678l1.187,1.779c268.51,402.397,118.342,592.641-335.41,424.921l-2.006-0.741l-1.325,1.678
		c-299.728,379.716-527.065,295.686-507.771-187.687l0.085-2.136l-2.006-0.741C13.587,969.609,23.254,727.432,488.93,596.411
		l2.058-0.579L491.074,593.695z"/>
	<path fill="none" stroke="#000000" stroke-width="2.3606" stroke-miterlimit="10" d="M491.258,586.666
		c25.558-487.683,261.894-551.009,527.87-141.442l1.176,1.81l2.085-0.559c471.712-126.395,604.971,78.804,297.64,458.326
		l-1.358,1.677l1.176,1.81c265.976,409.567,111.999,599.713-343.918,424.703l-2.015-0.774l-1.358,1.677
		c-307.33,379.521-535.751,291.839-510.193-195.845l0.113-2.156l-2.015-0.774C4.543,960.112,17.348,715.775,489.06,589.38
		l2.085-0.559L491.258,586.666z"/>
	<path fill="none" stroke="#000000" stroke-width="2.3606" stroke-miterlimit="10" d="M491.564,579.598
		c31.934-491.912,271.271-552.855,534.575-136.12l1.164,1.842l2.111-0.538c477.705-121.639,609.624,87.153,294.65,466.348
		l-1.392,1.676l1.164,1.842c263.304,416.736,105.497,606.718-352.471,424.338l-2.024-0.806l-1.392,1.676
		c-314.974,379.195-544.423,287.82-512.489-204.092l0.141-2.174l-2.024-0.806C-4.393,950.405,11.606,703.949,489.311,582.31
		l2.111-0.538L491.564,579.598z"/>
	<path fill="none" stroke="#000000" stroke-width="2.3606" stroke-miterlimit="10" d="M491.991,572.495
		C530.41,76.437,772.726,17.942,1033.221,441.843l1.151,1.874l2.138-0.516c483.651-116.752,614.163,95.629,291.506,474.366
		l-1.426,1.674l1.151,1.874c260.494,423.901,98.838,613.654-361.069,423.826l-2.033-0.839l-1.426,1.674
		c-322.657,378.737-553.077,283.63-514.659-212.427l0.17-2.193l-2.033-0.839C-13.215,940.488,6.033,691.956,489.684,575.203
		l2.138-0.516L491.991,572.495z"/>
	<path fill="none" stroke="#000000" stroke-width="2.3606" stroke-miterlimit="10" d="M492.542,565.357
		C537.554,65.24,782.825,9.258,1040.371,440.319l1.138,1.905l2.164-0.494c489.549-111.736,618.583,104.232,288.207,482.378
		l-1.46,1.671l1.138,1.905c257.546,431.06,92.023,620.517-369.708,423.164l-2.041-0.872l-1.46,1.671
		c-330.376,378.146-561.71,279.269-516.699-220.848l0.199-2.21l-2.041-0.872c-461.73-197.353-439.179-447.919,50.37-559.656
		l2.164-0.494L492.542,565.357z"/>
	<path fill="none" stroke="#000000" stroke-width="2.3606" stroke-miterlimit="10" d="M493.217,558.187
		C544.928,54.099,793.13,0.695,1047.59,438.906l1.125,1.937l2.19-0.471c495.396-106.591,622.885,112.959,284.754,490.38
		l-1.495,1.668l1.125,1.937c254.46,438.211,85.051,627.305-378.385,422.352l-2.048-0.906l-1.495,1.668
		c-338.131,377.421-570.32,274.737-518.609-229.352l0.229-2.228l-2.048-0.906c-463.437-204.952-437.529-457.508,57.868-564.1
		l2.19-0.471L493.217,558.187z"/>
	<path fill="none" stroke="#000000" stroke-width="2.3606" stroke-miterlimit="10" d="M494.017,550.987
		c58.517-507.97,309.622-558.731,560.857-113.38l1.11,1.968l2.215-0.448c501.191-101.318,627.063,121.81,281.145,498.371
		l-1.529,1.664l1.11,1.968c251.235,445.352,77.925,634.014-387.1,421.39l-2.055-0.94l-1.529,1.664
		c-345.919,376.56-578.903,270.032-520.386-237.937l0.259-2.245l-2.055-0.94C-38.966,909.498-9.648,654.997,491.543,553.68
		l2.215-0.448L494.017,550.987z"/>
	<path fill="none" stroke="#000000" stroke-width="2.3606" stroke-miterlimit="10" d="M494.943,543.758
		c65.428-511.759,319.408-559.814,567.28-107.335l1.096,2l2.241-0.424c506.93-95.916,631.118,130.783,277.381,506.347l-1.563,1.66
		l1.096,2c247.872,452.479,70.644,640.643-395.849,420.275l-2.062-0.974l-1.563,1.66
		C589.26,1744.53,355.54,1634.122,420.968,1122.363l0.289-2.262l-2.062-0.974C-47.298,898.759-14.517,642.36,492.413,546.444
		l2.241-0.424L494.943,543.758z"/>
	<path fill="none" stroke="#000000" stroke-width="2.3606" stroke-miterlimit="10" d="M495.995,536.503
		c72.442-515.454,329.269-560.739,573.638-101.148l1.08,2.031l2.266-0.4c512.612-90.387,635.044,139.875,273.461,514.306
		l-1.598,1.655l1.08,2.031c244.369,459.591,63.21,647.187-404.63,419.006l-2.068-1.009l-1.598,1.655
		c-361.583,374.43-595.978,260.108-523.536-255.346l0.32-2.278l-2.068-1.009c-467.84-228.181-431.545-486.431,81.067-576.818
		l2.266-0.4L495.995,536.503z"/>
	<path fill="none" stroke="#000000" stroke-width="2.3606" stroke-miterlimit="10" d="M497.175,529.224
		c79.559-519.053,339.202-561.505,579.929-94.819l1.064,2.063l2.291-0.375c518.234-84.731,638.842,149.086,269.386,522.245
		l-1.633,1.649l1.064,2.063c240.727,466.686,55.624,653.645-413.44,417.584l-2.073-1.043l-1.633,1.649
		C562.673,1753.4,327.665,1635.13,407.224,1116.077l0.352-2.294l-2.073-1.043c-469.064-236.061-429.204-496.115,89.03-580.846
		l2.291-0.375L497.175,529.224z"/>
	<path fill="none" stroke="#000000" stroke-width="2.3606" stroke-miterlimit="10" d="M498.482,521.923
		c86.776-522.554,349.205-562.109,586.151-88.348l1.047,2.094l2.315-0.349c523.794-78.949,642.507,158.412,265.155,530.162
		l-1.668,1.643l1.047,2.094c236.946,473.761,47.887,660.013-422.277,416.006l-2.078-1.079l-1.668,1.643
		c-377.353,371.749-612.912,249.498-526.136-273.056l0.384-2.31l-2.078-1.078C-71.486,865.339-28.01,603.531,495.784,524.582
		l2.315-0.349L498.482,521.923z"/>
	<path fill="none" stroke="#000000" stroke-width="2.3606" stroke-miterlimit="10" d="M499.919,514.602
		c94.093-525.955,359.275-562.55,592.301-81.737l1.03,2.125l2.339-0.323c529.289-73.041,646.039,167.853,260.768,538.054
		l-1.703,1.636l1.03,2.125c233.026,480.813,39.999,666.289-431.138,414.272l-2.082-1.114l-1.703,1.636
		c-385.271,370.2-621.318,243.936-527.225-282.019l0.416-2.325l-2.082-1.114C-79.268,853.803-32.126,590.291,497.164,517.25
		l2.339-0.323L499.919,514.602z"/>
	<path fill="none" stroke="#000000" stroke-width="2.3606" stroke-miterlimit="10" d="M501.486,507.263
		c101.508-529.254,369.41-562.827,598.376-74.986l1.012,2.156l2.364-0.296c534.718-67.009,649.434,177.407,256.225,545.918
		l-1.738,1.629l1.012,2.156c228.966,487.841,31.962,672.47-440.021,412.382l-2.086-1.15l-1.738,1.629
		c-393.209,368.511-629.68,238.203-528.172-291.052l0.449-2.339l-2.086-1.15C-86.902,842.072-36.045,576.907,498.673,509.898
		l2.363-0.296L501.486,507.263z"/>
	<path fill="none" stroke="#000000" stroke-width="2.3606" stroke-miterlimit="10" d="M503.182,499.908
		c109.02-532.45,379.607-562.938,604.375-68.097l0.993,2.187l2.387-0.269c540.079-60.852,652.691,187.071,251.526,553.751
		l-1.773,1.621l0.993,2.187c224.767,494.841,23.778,678.554-448.923,410.334l-2.089-1.186l-1.773,1.621
		c-401.165,366.681-637.995,232.298-528.976-300.151l0.482-2.354l-2.089-1.186C-94.386,830.148-39.765,563.383,500.313,502.53
		l2.387-0.269L503.182,499.908z"/>
	<path fill="none" stroke="#000000" stroke-width="2.3606" stroke-miterlimit="10" d="M505.01,492.539
		C621.636-43,894.874-70.341,1115.303,431.47l0.974,2.218l2.411-0.241c545.368-54.572,655.806,196.843,246.671,561.552l-1.808,1.612
		l0.974,2.218c220.429,501.812,15.446,684.536-457.842,408.127l-2.092-1.222l-1.808,1.612
		c-409.135,364.709-646.26,226.224-529.633-309.316l0.516-2.367l-2.092-1.222C-101.716,818.033-43.284,549.72,502.084,495.148
		l2.411-0.241L505.01,492.539z"/>
	<path fill="none" stroke="#000000" stroke-width="2.3606" stroke-miterlimit="10" d="M506.969,485.159
		c124.327-538.521,400.178-562.655,616.13-53.904l0.954,2.249l2.434-0.213c550.583-48.17,658.779,206.722,241.661,569.317
		l-1.844,1.603l0.954,2.249c215.952,508.751,6.969,690.416-466.776,405.762l-2.094-1.258l-1.844,1.603
		c-417.118,362.595-654.471,219.979-530.144-318.543l0.55-2.38l-2.094-1.258C-108.888,805.73-46.598,535.922,503.986,487.752
		l2.434-0.213L506.969,485.159z"/>
	<path fill="none" stroke="#000000" stroke-width="2.3606" stroke-miterlimit="10" d="M509.06,477.769
		C641.18-63.624,919.607-84.49,1130.942,431.166l0.934,2.279l2.456-0.184c555.724-41.646,661.606,216.706,236.495,577.044
		l-1.879,1.593l0.934,2.279c211.335,515.655-1.652,696.19-475.72,403.236l-2.095-1.295l-1.879,1.593
		c-425.111,360.338-662.627,213.564-530.506-327.83l0.584-2.393l-2.095-1.295C-115.898,793.239-49.704,521.992,506.02,480.346
		l2.456-0.184L509.06,477.769z"/>
	<path fill="none" stroke="#000000" stroke-width="2.3606" stroke-miterlimit="10" d="M511.284,470.372
		C651.288-73.783,932.25-91.319,1138.831,431.204l0.913,2.31l2.479-0.155c560.786-35.001,664.286,226.791,231.173,584.729
		l-1.914,1.582l0.913,2.31c206.58,522.523-10.416,701.856-484.674,400.55l-2.096-1.332l-1.914,1.582
		c-433.112,357.938-670.723,206.979-530.719-337.176l0.619-2.405l-2.096-1.332C-122.744,780.563-52.6,507.933,508.186,472.932
		l2.479-0.155L511.284,470.372z"/>
	<path fill="none" stroke="#000000" stroke-width="2.3606" stroke-miterlimit="10" d="M513.64,462.97
		c147.978-546.803,431.436-560.95,633.123-31.598l0.891,2.34l2.501-0.125c565.768-28.236,666.816,236.977,225.697,592.371
		l-1.95,1.571l0.891,2.34c201.686,529.352-19.321,707.41-493.634,397.703l-2.096-1.369l-1.95,1.571
		C435.994,1783.168,198.356,1628,346.334,1081.197l0.654-2.417l-2.096-1.369c-474.313-309.707-400.174-583.663,165.594-611.9
		l2.501-0.125L513.64,462.97z"/>
	<path fill="none" stroke="#000000" stroke-width="2.3606" stroke-miterlimit="10" d="M516.131,455.565
		C672.169-93.772,958.083-104.47,1154.737,431.67l0.869,2.37l2.522-0.094c570.668-21.353,669.195,247.261,220.066,599.967
		l-1.985,1.559l0.869,2.37c196.654,536.139-28.367,712.85-502.598,394.695l-2.096-1.406l-1.985,1.559
		c-449.129,352.705-686.727,193.304-530.688-356.032l0.69-2.428l-2.096-1.406C-135.927,754.666-57.75,479.44,512.919,458.087
		l2.522-0.094L516.131,455.565z"/>
	<path fill="none" stroke="#000000" stroke-width="2.3606" stroke-miterlimit="10" d="M518.755,448.159
		c164.185-551.753,452.511-558.943,643.995-16.06l0.846,2.4l2.544-0.063c575.484-14.352,671.42,257.641,214.28,607.513l-2.021,1.546
		l0.846,2.4c191.484,542.883-37.551,718.174-511.563,391.524l-2.095-1.444l-2.021,1.546
		c-457.141,349.872-694.628,186.215-530.443-365.538l0.726-2.439l-2.095-1.444c-474.012-326.65-391.753-603.087,183.731-617.439
		l2.544-0.063L518.755,448.159z"/>
	<path fill="none" stroke="#000000" stroke-width="2.3606" stroke-miterlimit="10" d="M521.514,440.754
		c172.416-554.051,463.112-557.675,649.287-8.095l0.823,2.429l2.565-0.032c580.213-7.234,673.49,268.114,208.339,615.007
		l-2.056,1.533l0.823,2.429c186.175,549.58-46.872,723.379-520.526,388.19l-2.094-1.482l-2.056,1.533
		c-465.15,346.893-702.458,178.958-530.042-375.093l0.762-2.449l-2.094-1.482c-473.654-335.189-387.271-612.777,192.942-620.01
		l2.565-0.032L521.514,440.754z"/>
</g>
</svg>
