<?xml version="1.0" encoding="utf-8"?>

<!DOCTYPE svg PUBLIC "-//W3C//DTD SVG 1.1//EN" "http://www.w3.org/Graphics/SVG/1.1/DTD/svg11.dtd">
<svg version="1.1" id="Layer_1" xmlns="http://www.w3.org/2000/svg" xmlns:xlink="http://www.w3.org/1999/xlink" x="0px" y="0px"
	 viewBox="0 0 1632.099 1625.842" enable-background="new 0 0 1632.099 1625.842" xml:space="preserve">
<g>
	<g>
		<path d="M825.244,818.229c-0.133,0.225-0.125,0.534,0.149,0.786c-0.679,0.206-0.68,0.15-0.713,0.23
			c-2.492,5.601-1.338,3.288-4.579,8.924c-5.625-3.261-3.469-1.835-8.427-5.439c-0.068-0.052-0.042-0.003-0.733,0.158
			c0.105-0.334-0.02-0.594-0.224-0.731c-0.22-0.108-0.508-0.086-0.745,0.172c-0.206-0.679-0.15-0.681-0.23-0.713
			c-5.601-2.492-3.288-1.338-8.924-4.579c3.261-5.625,1.835-3.469,5.439-8.427c0.052-0.068,0.003-0.042-0.158-0.733
			c0.355,0.112,0.627-0.036,0.755-0.264c0.133-0.225,0.125-0.534-0.149-0.786c0.679-0.206,0.68-0.15,0.713-0.23
			c2.493-5.601,1.338-3.288,4.579-8.924c5.625,3.261,3.469,1.835,8.427,5.439c0.068,0.052,0.042,0.003,0.733-0.158
			c-0.105,0.334,0.02,0.594,0.224,0.731c0.22,0.108,0.508,0.086,0.745-0.172c0.206,0.679,0.15,0.681,0.23,0.713
			c5.601,2.492,3.288,1.338,8.924,4.579c-3.261,5.625-1.835,3.469-5.439,8.427c-0.052,0.068-0.003,0.042,0.158,0.733
			C825.644,817.854,825.372,818.002,825.244,818.229z M810.115,823.201c0.226,0.11,0.519,0.084,0.73-0.156
			c0.081,0.051,0.009-0.064,0.22,0.662c4.897,2.169,2.594,0.961,9.105,4.721c3.758-6.512,2.369-4.314,5.525-8.641
			c-0.18-0.735-0.185-0.599-0.14-0.684c0.322,0.108,0.603-0.039,0.735-0.27c0.134-0.231,0.121-0.547-0.134-0.772
			c0.051-0.081-0.064-0.009,0.662-0.22c2.169-4.897,0.961-2.594,4.721-9.105c-6.512-3.758-4.314-2.369-8.641-5.525
			c-0.735,0.18-0.599,0.185-0.684,0.14c0.102-0.303-0.022-0.57-0.23-0.71c-0.226-0.11-0.519-0.084-0.73,0.156
			c-0.081-0.051-0.009,0.064-0.22-0.662c-4.897-2.169-2.594-0.961-9.105-4.721c-3.758,6.512-2.369,4.314-5.525,8.641
			c0.18,0.735,0.185,0.599,0.14,0.684c-0.322-0.108-0.603,0.039-0.735,0.27c-0.134,0.231-0.121,0.547,0.134,0.772
			c-0.051,0.081,0.064,0.009-0.662,0.22c-2.169,4.897-0.961,2.594-4.721,9.105c6.512,3.758,4.314,2.369,8.641,5.525
			c0.735-0.18,0.599-0.185,0.684-0.14C809.782,822.794,809.907,823.06,810.115,823.201z"/>
	</g>
	<g>
		<path d="M825.593,819.855c-0.173,0.233-0.2,0.576,0.074,0.886c-0.774,0.149-0.769,0.087-0.815,0.171
			c-3.405,5.899-1.86,3.477-6.096,9.33c-5.837-4.257-3.62-2.431-8.681-6.989c-0.069-0.066-0.046-0.008-0.828,0.089
			c0.155-0.357,0.047-0.659-0.162-0.833c-0.231-0.145-0.551-0.154-0.843,0.103c-0.149-0.774-0.087-0.769-0.171-0.815
			c-5.899-3.405-3.477-1.86-9.33-6.096c4.257-5.837,2.431-3.62,6.989-8.681c0.066-0.069,0.008-0.046-0.089-0.828
			c0.38,0.165,0.697,0.032,0.865-0.204c0.173-0.233,0.2-0.576-0.074-0.886c0.774-0.149,0.769-0.087,0.815-0.171
			c3.405-5.899,1.86-3.477,6.096-9.33c5.837,4.257,3.62,2.431,8.681,6.989c0.069,0.066,0.046,0.008,0.828-0.089
			c-0.155,0.357-0.047,0.659,0.162,0.833c0.231,0.145,0.551,0.154,0.843-0.103c0.149,0.774,0.087,0.769,0.171,0.815
			c5.899,3.405,3.478,1.86,9.33,6.096c-4.257,5.837-2.431,3.62-6.989,8.681c-0.066,0.069-0.008,0.046,0.089,0.828
			C826.079,819.486,825.761,819.619,825.593,819.855z M808.297,823.591c0.237,0.147,0.563,0.153,0.825-0.087
			c0.083,0.066,0.017-0.07,0.167,0.757c5.159,2.966,2.755,1.363,9.513,6.274c4.909-6.759,3.118-4.492,7.109-8.907
			c-0.113-0.833-0.134-0.683-0.076-0.772c0.344,0.157,0.671,0.027,0.844-0.213c0.175-0.239,0.198-0.59-0.058-0.869
			c0.066-0.083-0.07-0.017,0.757-0.167c2.966-5.159,1.363-2.755,6.274-9.513c-6.759-4.909-4.492-3.118-8.907-7.109
			c-0.833,0.113-0.683,0.134-0.772,0.076c0.148-0.323,0.041-0.632-0.172-0.812c-0.237-0.147-0.563-0.153-0.825,0.087
			c-0.083-0.066-0.017,0.07-0.167-0.757c-5.159-2.966-2.755-1.363-9.513-6.274c-4.909,6.759-3.118,4.492-7.109,8.907
			c0.113,0.833,0.134,0.683,0.076,0.772c-0.344-0.157-0.671-0.027-0.844,0.213c-0.175,0.239-0.198,0.59,0.058,0.869
			c-0.066,0.083,0.07,0.017-0.757,0.167c-2.966,5.159-1.363,2.755-6.274,9.513c6.759,4.909,4.492,3.118,8.907,7.109
			c0.833-0.113,0.683-0.134,0.772-0.076C807.977,823.103,808.084,823.412,808.297,823.591z"/>
	</g>
	<g>
		<path d="M825.79,821.691c-0.218,0.237-0.288,0.613-0.021,0.988c-0.873,0.075-0.86,0.007-0.92,0.095
			c-4.448,6.124-2.46,3.627-7.82,9.601c-5.955-5.382-3.718-3.106-8.781-8.731c-0.069-0.081-0.05-0.014-0.925,0.002
			c0.213-0.376,0.129-0.723-0.082-0.94c-0.238-0.187-0.591-0.234-0.943,0.016c-0.075-0.873-0.007-0.86-0.095-0.92
			c-6.124-4.448-3.627-2.46-9.601-7.82c5.382-5.955,3.106-3.718,8.731-8.781c0.081-0.069,0.014-0.05-0.002-0.925
			c0.4,0.226,0.767,0.117,0.98-0.125c0.218-0.237,0.288-0.613,0.021-0.988c0.873-0.075,0.86-0.007,0.92-0.095
			c4.448-6.124,2.46-3.627,7.82-9.601c5.955,5.382,3.718,3.106,8.781,8.731c0.069,0.081,0.05,0.014,0.925-0.002
			c-0.213,0.376-0.129,0.723,0.082,0.94c0.238,0.187,0.591,0.234,0.943-0.016c0.075,0.873,0.007,0.86,0.095,0.92
			c6.124,4.448,3.627,2.46,9.601,7.82c-5.382,5.955-3.106,3.718-8.731,8.781c-0.081,0.069-0.014,0.05,0.002,0.925
			C826.37,821.341,826.003,821.45,825.79,821.691z M806.244,823.812c0.245,0.19,0.605,0.235,0.922-0.001
			c0.084,0.083,0.027-0.075,0.096,0.856c5.357,3.877,2.886,1.826,9.783,8.038c6.21-6.898,3.968-4.601,8.89-9.017
			c-0.029-0.934-0.069-0.771,0.006-0.862c0.361,0.214,0.738,0.108,0.957-0.138c0.221-0.244,0.287-0.63,0.037-0.967
			c0.083-0.084-0.075-0.027,0.856-0.096c3.877-5.357,1.826-2.886,8.038-9.783c-6.898-6.21-4.601-3.968-9.017-8.89
			c-0.934,0.029-0.771,0.069-0.862-0.006c0.201-0.34,0.119-0.693-0.096-0.917c-0.245-0.19-0.605-0.235-0.922,0.001
			c-0.084-0.083-0.027,0.075-0.096-0.856c-5.357-3.877-2.886-1.826-9.783-8.038c-6.21,6.898-3.968,4.601-8.89,9.017
			c0.029,0.934,0.069,0.771-0.006,0.862c-0.361-0.214-0.738-0.108-0.957,0.138c-0.221,0.244-0.287,0.63-0.037,0.967
			c-0.083,0.084,0.075,0.027-0.856,0.096c-3.877,5.357-1.826,2.886-8.038,9.783c6.898,6.21,4.601,3.968,9.017,8.89
			c0.934-0.029,0.771-0.069,0.862,0.006C805.947,823.235,806.029,823.588,806.244,823.812z"/>
	</g>
	<g>
		<path d="M825.794,823.744c-0.268,0.237-0.39,0.644-0.138,1.089c-0.973-0.018-0.952-0.092-1.028-0.002
			c-5.626,6.25-3.139,3.722-9.756,9.702c-5.956-6.639-3.747-3.864-8.689-10.668c-0.067-0.097-0.053-0.022-1.023-0.105
			c0.279-0.391,0.226-0.784,0.018-1.048c-0.241-0.235-0.626-0.328-1.044-0.092c0.018-0.973,0.092-0.952,0.002-1.028
			c-6.25-5.626-3.722-3.139-9.702-9.756c6.639-5.956,3.864-3.747,10.668-8.689c0.097-0.067,0.022-0.053,0.105-1.023
			c0.416,0.297,0.834,0.218,1.097-0.024c0.268-0.237,0.39-0.644,0.138-1.089c0.973,0.018,0.952,0.092,1.028,0.002
			c5.626-6.25,3.139-3.722,9.756-9.702c5.956,6.639,3.747,3.864,8.689,10.668c0.067,0.097,0.053,0.022,1.023,0.105
			c-0.279,0.391-0.226,0.784-0.018,1.048c0.241,0.235,0.626,0.328,1.044,0.092c-0.018,0.973-0.092,0.952-0.002,1.028
			c6.25,5.626,3.722,3.139,9.702,9.756c-6.639,5.956-3.864,3.747-10.668,8.689c-0.097,0.067-0.022,0.053-0.105,1.023
			C826.476,823.423,826.058,823.502,825.794,823.744z M803.949,823.817c0.248,0.239,0.641,0.33,1.019,0.106
			c0.084,0.101,0.039-0.08,0.007,0.957c5.469,4.906,2.977,2.353,9.877,10.018c7.663-6.902,4.919-4.624,10.87-8.931
			c0.077-1.035,0.013-0.86,0.107-0.951c0.375,0.278,0.803,0.205,1.074-0.041c0.273-0.244,0.39-0.662,0.153-1.064
			c0.101-0.084-0.08-0.039,0.957-0.007c4.906-5.469,2.353-2.977,10.018-9.877c-6.902-7.663-4.624-4.919-8.931-10.87
			c-1.035-0.077-0.86-0.013-0.951-0.107c0.261-0.352,0.212-0.752,0.001-1.024c-0.248-0.239-0.641-0.33-1.019-0.106
			c-0.084-0.101-0.039,0.08-0.007-0.957c-5.469-4.906-2.977-2.353-9.877-10.018c-7.663,6.902-4.919,4.624-10.87,8.931
			c-0.077,1.035-0.013,0.86-0.107,0.951c-0.375-0.278-0.803-0.205-1.074,0.041c-0.273,0.244-0.39,0.662-0.153,1.064
			c-0.101,0.084,0.08,0.039-0.957,0.007c-4.906,5.469-2.353,2.977-10.018,9.877c6.902,7.663,4.624,4.919,8.931,10.87
			c1.035,0.077,0.86,0.013,0.951,0.107C803.688,823.145,803.738,823.545,803.949,823.817z"/>
	</g>
	<g>
		<path d="M825.561,826.012c-0.324,0.231-0.505,0.666-0.279,1.187c-1.073-0.133-1.041-0.212-1.136-0.122
			c-6.943,6.253-3.901,3.748-11.908,9.587c-5.81-8.028-3.692-4.705-8.362-12.798c-0.062-0.115-0.056-0.03-1.118-0.235
			c0.353-0.4,0.341-0.84,0.142-1.156c-0.24-0.287-0.654-0.435-1.143-0.222c0.133-1.073,0.212-1.041,0.122-1.136
			c-6.253-6.943-3.748-3.901-9.587-11.908c8.028-5.81,4.705-3.692,12.798-8.362c0.115-0.062,0.03-0.056,0.235-1.118
			c0.425,0.376,0.896,0.338,1.215,0.101c0.324-0.231,0.505-0.666,0.279-1.187c1.073,0.133,1.041,0.212,1.136,0.122
			c6.943-6.253,3.901-3.748,11.908-9.587c5.81,8.028,3.692,4.705,8.362,12.798c0.062,0.115,0.056,0.03,1.118,0.235
			c-0.353,0.4-0.341,0.84-0.142,1.156c0.24,0.287,0.654,0.435,1.143,0.222c-0.133,1.073-0.212,1.041-0.122,1.136
			c6.253,6.943,3.748,3.901,9.587,11.908c-8.028,5.81-4.705,3.692-12.798,8.362c-0.115,0.062-0.03,0.056-0.235,1.118
			C826.351,825.737,825.88,825.775,825.561,826.012z M801.413,823.555c0.247,0.293,0.67,0.439,1.114,0.236
			c0.081,0.121,0.052-0.084-0.104,1.059c5.473,6.056,3.017,2.946,9.751,12.218c9.27-6.737,5.972-4.538,13.049-8.607
			c0.205-1.135,0.114-0.948,0.229-1.039c0.382,0.351,0.863,0.319,1.191,0.079c0.33-0.238,0.508-0.687,0.293-1.158
			c0.121-0.081-0.084-0.052,1.059,0.104c6.056-5.473,2.946-3.017,12.218-9.751c-6.737-9.27-4.538-5.972-8.607-13.049
			c-1.135-0.205-0.948-0.114-1.039-0.229c0.33-0.359,0.322-0.807,0.12-1.132c-0.247-0.293-0.67-0.439-1.114-0.236
			c-0.081-0.121-0.052,0.084,0.104-1.059c-5.473-6.056-3.017-2.946-9.751-12.218c-9.27,6.737-5.972,4.538-13.049,8.607
			c-0.205,1.135-0.114,0.948-0.229,1.039c-0.382-0.351-0.863-0.319-1.191-0.079c-0.33,0.238-0.508,0.687-0.293,1.158
			c-0.121,0.081,0.084,0.052-1.059-0.104c-6.056,5.473-2.946,3.017-12.218,9.751c6.737,9.27,4.538,5.972,8.607,13.049
			c1.135,0.205,0.948,0.114,1.039,0.229C801.203,822.783,801.211,823.23,801.413,823.555z"/>
	</g>
	<g>
		<path d="M825.039,828.492c-0.385,0.217-0.636,0.678-0.447,1.279c-1.17-0.272-1.125-0.356-1.241-0.267
			c-8.398,6.104-4.746,3.689-14.272,9.211c-5.488-9.546-3.533-5.628-7.754-15.113c-0.056-0.135-0.059-0.04-1.208-0.389
			c0.437-0.401,0.474-0.888,0.291-1.261c-0.231-0.345-0.672-0.557-1.238-0.379c0.272-1.17,0.356-1.125,0.267-1.241
			c-6.104-8.398-3.689-4.746-9.211-14.272c9.546-5.488,5.628-3.533,15.113-7.754c0.135-0.056,0.04-0.059,0.389-1.208
			c0.426,0.465,0.951,0.478,1.331,0.253c0.385-0.217,0.636-0.678,0.447-1.279c1.17,0.272,1.125,0.356,1.241,0.267
			c8.398-6.104,4.746-3.689,14.272-9.211c5.488,9.546,3.533,5.628,7.754,15.113c0.056,0.135,0.059,0.04,1.208,0.389
			c-0.437,0.401-0.474,0.888-0.291,1.261c0.231,0.345,0.672,0.557,1.238,0.379c-0.272,1.17-0.355,1.125-0.267,1.241
			c6.104,8.398,3.689,4.746,9.211,14.272c-9.546,5.488-5.628,3.533-15.113,7.754c-0.135,0.056-0.04,0.059-0.389,1.208
			C825.944,828.28,825.42,828.267,825.039,828.492z M798.641,822.972c0.239,0.352,0.689,0.563,1.203,0.39
			c0.075,0.143,0.067-0.087-0.237,1.158c5.345,7.328,2.991,3.606,9.356,14.633c11.026-6.367,7.127-4.321,15.419-7.995
			c0.358-1.23,0.237-1.035,0.373-1.121c0.381,0.432,0.917,0.453,1.307,0.226c0.392-0.225,0.641-0.7,0.458-1.245
			c0.143-0.075-0.087-0.067,1.158,0.237c7.328-5.345,3.606-2.991,14.633-9.356c-6.367-11.026-4.321-7.127-7.995-15.419
			c-1.23-0.358-1.035-0.237-1.121-0.373c0.406-0.358,0.449-0.854,0.264-1.237c-0.239-0.352-0.69-0.563-1.203-0.39
			c-0.075-0.143-0.067,0.087,0.237-1.158c-5.345-7.328-2.991-3.606-9.356-14.633c-11.026,6.367-7.127,4.321-15.419,7.995
			c-0.358,1.23-0.237,1.035-0.373,1.121c-0.381-0.432-0.917-0.453-1.307-0.226c-0.392,0.225-0.641,0.7-0.458,1.245
			c-0.143,0.075,0.087,0.067-1.158-0.237c-7.328,5.345-3.606,2.991-14.633,9.356c6.367,11.026,4.321,7.127,7.995,15.419
			c1.23,0.358,1.035,0.237,1.121,0.373C798.498,822.094,798.455,822.59,798.641,822.972z"/>
	</g>
	<g>
		<path d="M824.175,831.171c-0.45,0.195-0.781,0.675-0.642,1.362c-1.262-0.436-1.202-0.524-1.34-0.439
			c-9.989,5.769-5.673,3.525-16.841,8.521c-4.956-11.185-3.251-6.63-6.813-17.601c-0.046-0.155-0.06-0.051-1.29-0.571
			c0.529-0.392,0.627-0.926,0.468-1.36c-0.216-0.408-0.678-0.693-1.324-0.562c0.436-1.262,0.524-1.202,0.439-1.34
			c-5.769-9.989-3.525-5.673-8.521-16.841c11.185-4.956,6.63-3.251,17.601-6.813c0.155-0.046,0.051-0.06,0.571-1.29
			c0.417,0.563,0.995,0.638,1.442,0.434c0.45-0.195,0.781-0.675,0.642-1.362c1.262,0.436,1.202,0.524,1.34,0.439
			c9.989-5.769,5.673-3.525,16.841-8.521c4.956,11.185,3.251,6.63,6.813,17.601c0.046,0.155,0.06,0.051,1.29,0.571
			c-0.529,0.392-0.627,0.926-0.468,1.36c0.216,0.408,0.678,0.693,1.324,0.562c-0.436,1.262-0.524,1.202-0.439,1.34
			c5.769,9.989,3.525,5.673,8.521,16.841c-11.185,4.956-6.63,3.251-17.601,6.813c-0.155,0.046-0.051,0.06-0.571,1.29
			C825.2,831.042,824.621,830.967,824.175,831.171z M795.645,822.006c0.223,0.417,0.697,0.702,1.284,0.571
			c0.066,0.167,0.084-0.088-0.397,1.252c5.055,8.719,2.887,4.332,8.639,17.257c12.923-5.756,8.377-3.947,17.967-7.044
			c0.539-1.318,0.382-1.116,0.543-1.196c0.371,0.521,0.961,0.607,1.418,0.402c0.459-0.203,0.79-0.699,0.65-1.323
			c0.167-0.066-0.088-0.084,1.252,0.397c8.719-5.055,4.332-2.887,17.257-8.639c-5.756-12.923-3.947-8.377-7.044-17.967
			c-1.318-0.539-1.116-0.382-1.196-0.543c0.491-0.349,0.596-0.892,0.435-1.336c-0.223-0.417-0.697-0.702-1.284-0.571
			c-0.066-0.167-0.084,0.088,0.397-1.252c-5.055-8.719-2.887-4.332-8.639-17.257c-12.923,5.756-8.377,3.947-17.967,7.044
			c-0.539,1.318-0.382,1.116-0.543,1.196c-0.371-0.521-0.961-0.607-1.418-0.402c-0.459,0.203-0.79,0.699-0.651,1.323
			c-0.167,0.066,0.088,0.084-1.252-0.397c-8.719,5.055-4.332,2.887-17.257,8.639c5.756,12.923,3.947,8.377,7.044,17.967
			c1.318,0.539,1.116,0.382,1.196,0.543C795.589,821.019,795.484,821.562,795.645,822.006z"/>
	</g>
	<g>
		<path d="M822.909,834.031c-0.52,0.163-0.942,0.655-0.868,1.43c-1.343-0.629-1.268-0.718-1.43-0.641
			c-11.708,5.215-6.678,3.236-19.599,7.46c-4.177-12.936-2.822-7.704-5.485-20.241c-0.033-0.177-0.061-0.063-1.359-0.78
			c0.63-0.372,0.801-0.951,0.675-1.448c-0.191-0.476-0.669-0.845-1.397-0.775c0.629-1.343,0.718-1.268,0.641-1.43
			c-5.215-11.708-3.236-6.678-7.46-19.599c12.936-4.177,7.704-2.822,20.241-5.485c0.177-0.033,0.063-0.061,0.78-1.359
			c0.396,0.671,1.026,0.821,1.543,0.647c0.52-0.163,0.942-0.655,0.868-1.43c1.343,0.629,1.268,0.718,1.43,0.641
			c11.708-5.215,6.678-3.236,19.599-7.46c4.177,12.936,2.822,7.704,5.485,20.241c0.033,0.177,0.061,0.063,1.359,0.78
			c-0.63,0.372-0.801,0.951-0.675,1.448c0.191,0.476,0.669,0.845,1.397,0.775c-0.629,1.343-0.718,1.268-0.641,1.43
			c5.215,11.708,3.236,6.678,7.46,19.599c-12.936,4.177-7.704,2.822-20.241,5.485c-0.177,0.033-0.063,0.061-0.78,1.359
			C824.056,834.008,823.426,833.858,822.909,834.031z M792.447,820.59c0.198,0.486,0.688,0.856,1.353,0.78
			c0.054,0.193,0.103-0.087-0.584,1.337c4.573,10.221,2.687,5.122,7.542,20.073c14.949-4.859,9.715-3.388,20.672-5.697
			c0.749-1.393,0.551-1.189,0.739-1.258c0.349,0.619,0.991,0.783,1.521,0.609c0.531-0.171,0.954-0.68,0.872-1.386
			c0.192-0.054-0.088-0.103,1.337,0.584c10.221-4.573,5.122-2.687,20.073-7.542c-4.859-14.949-3.388-9.715-5.697-20.672
			c-1.393-0.749-1.189-0.551-1.258-0.739c0.583-0.329,0.762-0.916,0.636-1.426c-0.198-0.486-0.688-0.856-1.353-0.78
			c-0.054-0.193-0.103,0.087,0.584-1.337c-4.573-10.221-2.687-5.122-7.542-20.073c-14.949,4.859-9.715,3.389-20.672,5.697
			c-0.749,1.393-0.551,1.189-0.739,1.258c-0.349-0.619-0.991-0.783-1.521-0.609c-0.531,0.171-0.954,0.68-0.872,1.386
			c-0.192,0.054,0.088,0.103-1.337-0.584c-10.221,4.573-5.122,2.687-20.073,7.542c4.859,14.949,3.388,9.715,5.697,20.672
			c1.393,0.749,1.189,0.551,1.258,0.739C792.5,819.493,792.321,820.081,792.447,820.59z"/>
	</g>
	<g>
		<path d="M821.177,837.045c-0.594,0.12-1.117,0.615-1.125,1.48c-1.411-0.851-1.318-0.941-1.506-0.874
			c-13.543,4.403-7.756,2.8-22.524,5.967c-3.114-14.78-2.224-8.841-3.71-23.004c-0.016-0.199-0.06-0.077-1.411-1.02
			c0.74-0.338,0.995-0.958,0.914-1.522c-0.155-0.549-0.641-1.011-1.454-1.018c0.851-1.411,0.941-1.318,0.874-1.506
			c-4.403-13.543-2.8-7.756-5.967-22.524c14.78-3.114,8.841-2.224,23.004-3.71c0.199-0.016,0.077-0.06,1.02-1.411
			c0.359,0.787,1.038,1.026,1.63,0.894c0.594-0.12,1.117-0.615,1.125-1.48c1.411,0.851,1.318,0.941,1.506,0.874
			c13.543-4.403,7.756-2.8,22.524-5.967c3.114,14.78,2.224,8.841,3.71,23.004c0.016,0.199,0.06,0.077,1.411,1.02
			c-0.74,0.338-0.995,0.958-0.914,1.522c0.155,0.549,0.641,1.011,1.454,1.018c-0.851,1.411-0.941,1.318-0.874,1.506
			c4.403,13.543,2.8,7.756,5.967,22.524c-14.78,3.114-8.841,2.224-23.004,3.71c-0.199,0.016-0.077,0.06-1.02,1.411
			C822.448,837.152,821.769,836.913,821.177,837.045z M789.077,818.654c0.162,0.56,0.661,1.026,1.404,1.019
			c0.037,0.219,0.124-0.085-0.801,1.41c3.866,11.826,2.374,5.972,6.003,23.057c17.083-3.633,11.129-2.616,23.505-3.894
			c0.989-1.453,0.747-1.25,0.962-1.305c0.314,0.725,1.004,0.98,1.61,0.849c0.607-0.127,1.133-0.641,1.125-1.431
			c0.219-0.037-0.085-0.124,1.41,0.801c11.826-3.866,5.972-2.374,23.057-6.003c-3.633-17.083-2.616-11.129-3.894-23.505
			c-1.453-0.989-1.25-0.747-1.305-0.962c0.682-0.295,0.948-0.924,0.868-1.502c-0.162-0.56-0.661-1.026-1.404-1.019
			c-0.037-0.219-0.124,0.085,0.801-1.41c-3.867-11.826-2.374-5.972-6.003-23.057c-17.083,3.633-11.129,2.616-23.505,3.894
			c-0.989,1.453-0.747,1.25-0.962,1.305c-0.314-0.725-1.004-0.98-1.61-0.849c-0.607,0.127-1.133,0.641-1.125,1.431
			c-0.219,0.037,0.085,0.124-1.41-0.801c-11.826,3.866-5.973,2.374-23.057,6.003c3.633,17.083,2.616,11.129,3.894,23.505
			c1.453,0.989,1.25,0.747,1.305,0.962C789.263,817.448,788.997,818.077,789.077,818.654z"/>
	</g>
	<g>
		<path d="M818.914,840.174c-0.67,0.064-1.306,0.549-1.415,1.505c-1.461-1.104-1.347-1.193-1.563-1.141
			c-15.477,3.292-8.895,2.194-25.582,3.978c-1.724-16.693-1.43-10.027-1.428-25.85c0.006-0.222-0.057-0.092-1.441-1.291
			c0.857-0.287,1.211-0.943,1.187-1.576c-0.108-0.624-0.591-1.192-1.489-1.294c1.104-1.461,1.193-1.347,1.141-1.563
			c-3.292-15.477-2.194-8.895-3.978-25.582c16.693-1.724,10.027-1.43,25.85-1.428c0.222,0.006,0.092-0.057,1.291-1.441
			c0.305,0.912,1.028,1.254,1.697,1.178c0.67-0.064,1.306-0.549,1.415-1.505c1.461,1.104,1.347,1.193,1.563,1.141
			c15.477-3.292,8.895-2.194,25.582-3.978c1.724,16.693,1.43,10.027,1.428,25.85c-0.006,0.222,0.057,0.092,1.441,1.291
			c-0.857,0.287-1.211,0.943-1.187,1.576c0.108,0.624,0.591,1.192,1.489,1.294c-1.104,1.461-1.193,1.347-1.141,1.563
			c3.292,15.477,2.194,8.895,3.978,25.582c-16.693,1.724-10.027,1.43-25.85,1.428c-0.222-0.006-0.092,0.057-1.291,1.441
			C820.305,840.44,819.583,840.097,818.914,840.174z M785.578,816.124c0.114,0.638,0.611,1.211,1.433,1.289
			c0.016,0.246,0.147-0.079-1.048,1.465c2.899,13.517,1.929,6.875,3.956,26.175c19.3-2.031,12.602-1.598,26.426-1.573
			c1.262-1.491,0.971-1.294,1.215-1.33c0.263,0.837,0.996,1.2,1.68,1.125c0.685-0.07,1.326-0.577,1.409-1.45
			c0.246-0.016-0.079-0.147,1.465,1.048c13.517-2.899,6.875-1.929,26.176-3.956c-2.031-19.3-1.598-12.602-1.573-26.426
			c-1.49-1.262-1.294-0.971-1.33-1.215c0.788-0.247,1.155-0.911,1.134-1.559c-0.114-0.638-0.611-1.211-1.433-1.289
			c-0.016-0.246-0.147,0.079,1.048-1.465c-2.899-13.517-1.929-6.875-3.956-26.175c-19.3,2.031-12.602,1.598-26.426,1.573
			c-1.262,1.491-0.971,1.294-1.215,1.33c-0.263-0.837-0.996-1.2-1.68-1.125c-0.685,0.07-1.327,0.577-1.409,1.45
			c-0.246,0.016,0.079,0.147-1.465-1.048c-13.517,2.899-6.875,1.929-26.176,3.956c2.031,19.3,1.598,12.602,1.573,26.426
			c1.491,1.262,1.294,0.971,1.33,1.215C785.925,814.812,785.557,815.476,785.578,816.124z"/>
	</g>
	<g>
		<path d="M816.05,843.369c-0.748-0.007-1.507,0.456-1.738,1.498c-1.486-1.39-1.35-1.474-1.594-1.442
			c-17.485,1.841-10.084,1.391-28.731,1.425c0.034-18.647-0.416-11.246,1.424-28.731c0.032-0.245-0.052-0.108-1.442-1.594
			c0.98-0.218,1.448-0.901,1.495-1.603c-0.047-0.702-0.515-1.385-1.495-1.603c1.39-1.486,1.474-1.35,1.442-1.594
			c-1.841-17.485-1.391-10.084-1.424-28.731c18.647,0.034,11.246-0.416,28.731,1.425c0.244,0.032,0.108-0.052,1.594-1.442
			c0.232,1.043,0.99,1.506,1.738,1.498c0.748,0.007,1.507-0.456,1.738-1.498c1.486,1.39,1.35,1.474,1.594,1.442
			c17.485-1.841,10.084-1.391,28.731-1.425c-0.034,18.647,0.416,11.246-1.424,28.731c-0.032,0.245,0.052,0.108,1.442,1.594
			c-0.98,0.218-1.448,0.901-1.495,1.603c0.047,0.702,0.515,1.385,1.495,1.603c-1.39,1.486-1.474,1.35-1.442,1.594
			c1.841,17.485,1.391,10.084,1.424,28.731c-18.647-0.034-11.246,0.416-28.731-1.425c-0.245-0.032-0.108,0.052-1.594,1.442
			C817.556,843.824,816.798,843.362,816.05,843.369z M782.006,812.921c0.052,0.718,0.535,1.409,1.434,1.591
			c-0.011,0.274,0.172-0.07-1.329,1.497c1.634,15.273,1.334,7.822,1.331,29.384c21.562-0.003,14.111-0.303,29.384,1.331
			c1.567-1.5,1.223-1.317,1.497-1.329c0.193,0.956,0.961,1.441,1.726,1.439c0.765,0.002,1.533-0.483,1.726-1.439
			c0.274,0.011-0.07-0.172,1.497,1.329c15.273-1.634,7.822-1.334,29.384-1.331c-0.003-21.562-0.303-14.111,1.331-29.384
			c-1.501-1.567-1.317-1.223-1.329-1.497c0.899-0.182,1.382-0.872,1.434-1.591c-0.052-0.718-0.535-1.409-1.434-1.591
			c0.011-0.274-0.172,0.07,1.329-1.497c-1.634-15.273-1.334-7.822-1.331-29.384c-21.562,0.003-14.111,0.303-29.384-1.331
			c-1.567,1.5-1.223,1.317-1.497,1.329c-0.193-0.956-0.961-1.441-1.726-1.439c-0.765-0.002-1.533,0.483-1.726,1.439
			c-0.274-0.011,0.07,0.172-1.497-1.329c-15.273,1.634-7.822,1.334-29.384,1.331c0.003,21.562,0.303,14.111-1.331,29.384
			c1.501,1.567,1.317,1.223,1.329,1.497C782.541,811.512,782.058,812.203,782.006,812.921z"/>
	</g>
	<g>
		<path d="M812.513,846.567c-0.826-0.095-1.718,0.328-2.095,1.454c-1.481-1.708-1.32-1.786-1.594-1.779
			c-19.535,0.003-11.305,0.366-31.914-1.763c2.203-20.601,0.846-12.476,4.911-31.583c0.064-0.266-0.045-0.125-1.408-1.929
			c1.108-0.127,1.704-0.827,1.838-1.598c0.03-0.781-0.408-1.591-1.465-1.945c1.708-1.481,1.786-1.32,1.779-1.594
			c-0.003-19.535-0.366-11.305,1.763-31.914c20.601,2.203,12.476,0.846,31.583,4.911c0.266,0.064,0.125-0.045,1.929-1.408
			c0.135,1.179,0.919,1.779,1.747,1.858c0.826,0.095,1.718-0.328,2.095-1.454c1.481,1.708,1.32,1.786,1.594,1.779
			c19.535-0.003,11.305-0.366,31.914,1.763c-2.203,20.601-0.846,12.476-4.911,31.583c-0.064,0.266,0.045,0.125,1.408,1.929
			c-1.108,0.127-1.704,0.827-1.838,1.598c-0.03,0.781,0.408,1.591,1.465,1.945c-1.708,1.481-1.786,1.32-1.779,1.594
			c0.003,19.535,0.366,11.305-1.763,31.914c-20.601-2.203-12.476-0.846-31.583-4.911c-0.266-0.064-0.125,0.045-1.929,1.408
			C814.125,847.245,813.341,846.645,812.513,846.567z M778.431,808.967c-0.026,0.8,0.427,1.619,1.4,1.924
			c-0.044,0.301,0.198-0.058-1.642,1.5c0.031,17.067,0.565,8.798-1.942,32.625c23.827,2.502,15.628,1.305,32.315,4.884
			c1.906-1.476,1.505-1.313,1.808-1.294c0.102,1.078,0.894,1.704,1.74,1.79c0.845,0.091,1.75-0.356,2.074-1.389
			c0.301,0.044-0.058-0.198,1.5,1.642c17.067-0.031,8.798-0.565,32.625,1.942c2.502-23.827,1.305-15.628,4.884-32.315
			c-1.476-1.906-1.313-1.504-1.294-1.808c1.015-0.096,1.629-0.803,1.77-1.591c0.026-0.8-0.427-1.619-1.4-1.924
			c0.044-0.301-0.198,0.058,1.642-1.5c-0.031-17.067-0.565-8.798,1.942-32.625c-23.827-2.502-15.628-1.305-32.315-4.884
			c-1.906,1.476-1.505,1.313-1.808,1.294c-0.102-1.078-0.894-1.704-1.74-1.79c-0.845-0.091-1.75,0.356-2.074,1.389
			c-0.301-0.044,0.058,0.198-1.5-1.642c-17.067,0.031-8.798,0.565-32.625-1.942c-2.502,23.827-1.304,15.628-4.884,32.315
			c1.476,1.906,1.313,1.504,1.294,1.808C779.185,807.472,778.572,808.18,778.431,808.967z"/>
	</g>
	<g>
		<path d="M808.234,849.689c-0.901-0.201-1.936,0.163-2.484,1.363c-1.438-2.06-1.251-2.127-1.555-2.151
			c-21.587-2.265-12.535-0.909-35.061-5.654c4.827-22.509,2.384-13.688,9.095-34.33c0.102-0.287-0.036-0.144-1.332-2.295
			c1.239-0.011,1.979-0.716,2.216-1.552c0.124-0.86-0.266-1.805-1.393-2.32c2.06-1.438,2.127-1.251,2.151-1.555
			c2.265-21.587,0.909-12.535,5.654-35.061c22.509,4.827,13.688,2.384,34.33,9.095c0.287,0.102,0.144-0.036,2.295-1.332
			c0.012,1.319,0.809,2.072,1.715,2.256c0.901,0.201,1.936-0.163,2.484-1.363c1.438,2.06,1.251,2.127,1.555,2.151
			c21.587,2.265,12.535,0.909,35.061,5.654c-4.827,22.509-2.384,13.688-9.095,34.33c-0.102,0.287,0.036,0.144,1.332,2.295
			c-1.239,0.011-1.979,0.716-2.216,1.552c-0.124,0.86,0.266,1.805,1.393,2.32c-2.06,1.438-2.127,1.251-2.151,1.555
			c-2.265,21.587-0.909,12.535-5.655,35.061c-22.509-4.827-13.688-2.384-34.33-9.095c-0.287-0.102-0.144,0.036-2.295,1.332
			C809.937,850.626,809.139,849.873,808.234,849.689z M774.939,804.183c-0.122,0.881,0.284,1.839,1.324,2.289
			c-0.084,0.328,0.226-0.041-1.989,1.467c-1.948,18.863-0.397,9.788-5.935,35.826c26.039,5.532,17.117,3.257,35.142,9.15
			c2.278-1.41,1.815-1.277,2.149-1.22c-0.012,1.204,0.79,1.987,1.715,2.18c0.923,0.199,1.975-0.19,2.453-1.294
			c0.328,0.084-0.041-0.226,1.467,1.989c18.863,1.948,9.788,0.397,35.825,5.935c5.532-26.039,3.257-17.118,9.15-35.142
			c-1.41-2.278-1.277-1.815-1.22-2.149c1.133,0.011,1.893-0.699,2.14-1.553c0.122-0.881-0.284-1.839-1.324-2.289
			c0.084-0.328-0.226,0.041,1.989-1.467c1.948-18.863,0.397-9.788,5.935-35.826c-26.039-5.532-17.117-3.257-35.142-9.15
			c-2.278,1.41-1.815,1.277-2.149,1.22c0.012-1.204-0.79-1.987-1.715-2.18c-0.923-0.199-1.975,0.19-2.453,1.294
			c-0.328-0.084,0.041,0.226-1.467-1.989c-18.863-1.948-9.788-0.397-35.825-5.935c-5.532,26.039-3.257,17.118-9.15,35.142
			c1.41,2.278,1.277,1.815,1.22,2.149C775.947,802.619,775.186,803.329,774.939,804.183z"/>
	</g>
	<g>
		<path d="M803.143,852.643c-0.973-0.326-2.159-0.044-2.903,1.218c-1.35-2.443-1.136-2.496-1.468-2.557
			c-23.591-5.01-13.746-2.46-38.087-10.32c7.948-24.313,4.225-14.849,14.037-36.879c0.146-0.305-0.023-0.163-1.206-2.691
			c1.371,0.131,2.271-0.561,2.629-1.458c0.237-0.936-0.084-2.025-1.27-2.725c2.443-1.35,2.496-1.136,2.557-1.468
			c5.01-23.591,2.46-13.746,10.32-38.087c24.313,7.948,14.849,4.225,36.879,14.037c0.305,0.146,0.163-0.023,2.691-1.206
			c-0.14,1.459,0.654,2.384,1.633,2.692c0.973,0.326,2.159,0.044,2.903-1.218c1.35,2.443,1.136,2.496,1.468,2.557
			c23.591,5.01,13.746,2.46,38.087,10.32c-7.948,24.313-4.225,14.849-14.037,36.879c-0.146,0.305,0.023,0.163,1.206,2.691
			c-1.371-0.131-2.271,0.561-2.629,1.458c-0.237,0.936,0.084,2.025,1.27,2.725c-2.443,1.35-2.496,1.136-2.557,1.468
			c-5.01,23.591-2.46,13.746-10.32,38.087c-24.313-7.948-14.849-4.225-36.879-14.037c-0.305-0.146-0.163,0.023-2.691,1.206
			C804.916,853.876,804.122,852.951,803.143,852.643z M771.636,798.49c-0.237,0.959,0.1,2.065,1.197,2.683
			c-0.131,0.352,0.254-0.019-2.368,1.39c-4.343,20.618-1.576,10.769-10.719,38.899c28.131,9.137,18.537,5.587,37.77,14.192
			c2.681-1.293,2.154-1.2,2.516-1.099c-0.153,1.329,0.643,2.287,1.642,2.609c0.997,0.327,2.205,0.019,2.862-1.146
			c0.352,0.131-0.019-0.254,1.39,2.368c20.618,4.343,10.769,1.576,38.899,10.719c9.137-28.131,5.587-18.537,14.192-37.77
			c-1.293-2.681-1.2-2.154-1.099-2.516c1.25,0.144,2.173-0.552,2.545-1.467c0.237-0.959-0.101-2.065-1.197-2.683
			c0.131-0.352-0.254,0.019,2.368-1.39c4.343-20.618,1.576-10.769,10.719-38.899c-28.131-9.137-18.537-5.587-37.77-14.192
			c-2.681,1.293-2.154,1.2-2.516,1.099c0.153-1.329-0.643-2.287-1.642-2.609c-0.997-0.327-2.205-0.019-2.862,1.146
			c-0.352-0.131,0.019,0.254-1.39-2.368c-20.618-4.343-10.769-1.576-38.899-10.719c-9.137,28.131-5.587,18.537-14.192,37.77
			c1.293,2.681,1.2,2.154,1.099,2.516C772.931,796.879,772.009,797.575,771.636,798.49z"/>
	</g>
	<g>
		<path d="M797.174,855.316c-1.037-0.474-2.38-0.3-3.349,1.009c-1.208-2.856-0.965-2.89-1.326-2.996
			c-25.487-8.277-14.904-4.315-40.888-15.828c11.607-25.943,6.393-15.917,19.795-39.122c0.197-0.32-0.006-0.183-1.02-3.114
			c1.5,0.304,2.574-0.357,3.075-1.306c0.37-1.007,0.142-2.248-1.087-3.159c2.856-1.208,2.89-0.965,2.996-1.326
			c8.277-25.487,4.315-14.904,15.828-40.888c25.943,11.607,15.917,6.393,39.122,19.795c0.32,0.197,0.183-0.006,3.114-1.02
			c-0.324,1.596,0.445,2.71,1.492,3.164c1.037,0.474,2.38,0.3,3.349-1.009c1.208,2.856,0.965,2.89,1.326,2.996
			c25.487,8.277,14.904,4.315,40.888,15.828c-11.607,25.943-6.393,15.917-19.795,39.122c-0.197,0.32,0.006,0.183,1.02,3.114
			c-1.5-0.304-2.574,0.357-3.075,1.306c-0.37,1.007-0.142,2.248,1.087,3.159c-2.856,1.208-2.89,0.965-2.996,1.326
			c-8.277,25.487-4.315,14.904-15.828,40.888c-25.943-11.607-15.917-6.393-39.122-19.795c-0.32-0.197-0.183,0.006-3.114,1.02
			C798.99,856.884,798.22,855.77,797.174,855.316z M768.648,791.817c-0.373,1.032-0.129,2.293,1.011,3.104
			c-0.186,0.374,0.283,0.009-2.778,1.261c-7.194,22.279-2.992,11.718-16.363,41.739c30.025,13.364,19.835,8.326,40.089,20.069
			c3.112-1.118,2.519-1.076,2.908-0.922c-0.324,1.45,0.444,2.602,1.511,3.073c1.064,0.478,2.434,0.278,3.295-0.933
			c0.374,0.186,0.009-0.283,1.261,2.778c22.279,7.194,11.717,2.992,41.739,16.363c13.364-30.025,8.326-19.835,20.069-40.089
			c-1.118-3.112-1.076-2.52-0.922-2.908c1.365,0.305,2.466-0.358,2.983-1.326c0.373-1.032,0.129-2.293-1.011-3.104
			c0.186-0.374-0.283-0.009,2.778-1.261c7.194-22.279,2.992-11.717,16.363-41.739c-30.025-13.364-19.835-8.326-40.089-20.069
			c-3.112,1.118-2.519,1.076-2.908,0.922c0.324-1.45-0.444-2.602-1.511-3.073c-1.064-0.478-2.434-0.278-3.295,0.933
			c-0.374-0.186-0.009,0.283-1.261-2.778c-22.279-7.194-11.717-2.992-41.739-16.363c-13.364,30.025-8.326,19.835-20.069,40.089
			c1.118,3.112,1.076,2.52,0.922,2.908C770.266,790.186,769.166,790.849,768.648,791.817z"/>
	</g>
	<g>
		<path d="M790.268,857.576c-1.091-0.644-2.595-0.608-3.818,0.726c-1.003-3.296-0.731-3.305-1.117-3.465
			c-27.202-12.106-15.968-6.499-43.344-22.239c15.839-27.319,8.913-16.847,26.418-40.932c0.255-0.331,0.015-0.203-0.765-3.559
			c1.622,0.51,2.886-0.095,3.549-1.086c0.526-1.07,0.418-2.468-0.834-3.617c3.297-1.003,3.305-0.731,3.465-1.117
			c12.106-27.202,6.499-15.968,22.239-43.344c27.319,15.839,16.847,8.913,40.932,26.418c0.331,0.254,0.203,0.015,3.559-0.765
			c-0.543,1.726,0.178,3.047,1.281,3.669c1.091,0.644,2.595,0.608,3.818-0.726c1.003,3.296,0.731,3.305,1.117,3.465
			c27.202,12.106,15.968,6.499,43.344,22.239c-15.839,27.319-8.913,16.847-26.418,40.932c-0.255,0.331-0.015,0.203,0.765,3.559
			c-1.622-0.51-2.886,0.095-3.549,1.086c-0.526,1.07-0.418,2.468,0.834,3.617c-3.296,1.003-3.305,0.731-3.465,1.117
			c-12.106,27.202-6.499,15.968-22.239,43.344c-27.319-15.839-16.847-8.913-40.932-26.418c-0.331-0.254-0.203-0.015-3.559,0.765
			C792.092,859.52,791.371,858.199,790.268,857.576z M766.121,784.095c-0.532,1.097-0.409,2.519,0.756,3.547
			c-0.249,0.392,0.312,0.042-3.216,1.07c-10.537,23.784-4.667,12.601-22.929,44.222c31.626,18.254,20.951,11.504,41.968,26.833
			c3.569-0.874,2.909-0.896,3.32-0.681c-0.526,1.565,0.189,2.927,1.313,3.572c1.12,0.651,2.657,0.589,3.75-0.649
			c0.392,0.249,0.042-0.312,1.07,3.216c23.784,10.537,12.601,4.667,44.222,22.929c18.254-31.626,11.504-20.951,26.833-41.968
			c-0.874-3.569-0.896-2.909-0.681-3.32c1.473,0.495,2.766-0.109,3.45-1.119c0.532-1.097,0.409-2.519-0.756-3.547
			c0.249-0.392-0.312-0.042,3.216-1.07c10.537-23.784,4.667-12.601,22.929-44.222c-31.626-18.254-20.951-11.504-41.968-26.833
			c-3.569,0.874-2.909,0.896-3.32,0.681c0.526-1.565-0.189-2.927-1.313-3.572c-1.12-0.651-2.657-0.589-3.75,0.649
			c-0.392-0.249-0.042,0.312-1.07-3.216c-23.784-10.537-12.601-4.667-44.222-22.929c-18.254,31.626-11.504,20.951-26.833,41.968
			c0.874,3.569,0.896,2.909,0.681,3.32C768.098,782.481,766.805,783.085,766.121,784.095z"/>
	</g>
	<g>
		<path d="M782.374,859.272c-1.131-0.838-2.797-0.973-4.303,0.358c-0.725-3.759-0.424-3.737-0.832-3.958
			c-28.653-16.537-16.89-9.036-45.313-29.609c20.675-28.349,11.805-17.581,33.946-42.162c0.32-0.336,0.04-0.222-0.432-4.022
			c1.733,0.752,3.2,0.23,4.048-0.788c0.706-1.121,0.749-2.678-0.502-4.093c3.759-0.725,3.737-0.424,3.958-0.832
			c16.537-28.653,9.036-16.89,29.609-45.313c28.349,20.675,17.581,11.806,42.162,33.946c0.336,0.32,0.222,0.04,4.022-0.432
			c-0.801,1.844-0.158,3.387,0.989,4.204c1.131,0.838,2.797,0.973,4.303-0.358c0.725,3.759,0.424,3.737,0.832,3.958
			c28.653,16.537,16.89,9.036,45.313,29.609c-20.675,28.349-11.805,17.581-33.946,42.162c-0.32,0.336-0.04,0.222,0.432,4.022
			c-1.733-0.752-3.2-0.23-4.048,0.788c-0.706,1.121-0.749,2.678,0.502,4.093c-3.759,0.725-3.737,0.424-3.958,0.832
			c-16.537,28.653-9.036,16.89-29.609,45.313c-28.349-20.675-17.581-11.806-42.162-33.946c-0.336-0.32-0.222-0.04-4.022,0.432
			C784.164,861.632,783.521,860.088,782.374,859.272z M764.225,775.268c-0.716,1.151-0.744,2.737,0.424,4.008
			c-0.32,0.404,0.339,0.083-3.678,0.809c-14.406,25.058-6.621,13.382-30.473,46.204c32.827,23.845,21.815,15.146,43.259,34.526
			c4.045-0.551,3.319-0.652,3.748-0.367c-0.763,1.668-0.131,3.257,1.036,4.099c1.162,0.85,2.868,0.96,4.219-0.281
			c0.404,0.32,0.083-0.34,0.809,3.678c25.058,14.406,13.382,6.621,46.204,30.473c23.845-32.827,15.146-21.815,34.526-43.259
			c-0.551-4.045-0.652-3.319-0.367-3.748c1.57,0.718,3.069,0.201,3.943-0.835c0.716-1.151,0.744-2.737-0.424-4.008
			c0.32-0.404-0.339-0.083,3.678-0.809c14.406-25.058,6.621-13.382,30.473-46.204c-32.827-23.845-21.815-15.146-43.259-34.526
			c-4.045,0.551-3.319,0.652-3.748,0.367c0.763-1.668,0.131-3.257-1.036-4.099c-1.162-0.85-2.868-0.96-4.219,0.281
			c-0.404-0.32-0.083,0.34-0.809-3.678c-25.058-14.406-13.382-6.621-46.204-30.473c-23.845,32.827-15.146,21.815-34.526,43.259
			c0.551,4.045,0.652,3.319,0.367,3.748C766.598,773.715,765.099,774.232,764.225,775.268z"/>
	</g>
	<g>
		<path d="M773.454,860.229c-1.152-1.058-2.978-1.4-4.797-0.104c-0.365-4.238-0.034-4.179-0.459-4.471
			c-29.742-21.601-17.614-11.947-46.633-37.981c26.139-28.925,15.087-18.056,42.408-42.648c0.392-0.335,0.07-0.241-0.01-4.494
			c1.827,1.033,3.51,0.626,4.565-0.4c0.91-1.157,1.139-2.872-0.079-4.582c4.238-0.365,4.179-0.034,4.471-0.459
			c21.601-29.742,11.947-17.614,37.981-46.634c28.925,26.139,18.056,15.087,42.648,42.408c0.335,0.392,0.241,0.07,4.494-0.01
			c-1.099,1.944-0.568,3.725,0.605,4.76c1.152,1.058,2.978,1.4,4.797,0.104c0.365,4.238,0.034,4.179,0.459,4.471
			c29.742,21.601,17.614,11.947,46.633,37.981c-26.139,28.925-15.087,18.056-42.408,42.648c-0.392,0.335-0.07,0.241,0.01,4.494
			c-1.827-1.033-3.51-0.626-4.565,0.4c-0.91,1.157-1.139,2.872,0.079,4.582c-4.238,0.365-4.179,0.034-4.471,0.459
			c-21.601,29.742-11.947,17.614-37.981,46.633c-28.925-26.139-18.056-15.087-42.648-42.408c-0.335-0.392-0.241-0.07-4.494,0.01
			C775.157,863.044,774.626,861.264,773.454,860.229z M763.155,765.295c-0.924,1.189-1.14,2.937,0.003,4.478
			c-0.401,0.409,0.365,0.131-4.159,0.467c-18.829,26.016-8.87,14.018-39.04,47.517c33.506,30.161,22.347,19.27,43.793,43.176
			c4.534-0.139,3.743-0.335,4.185,0.03c-1.037,1.755-0.523,3.583,0.669,4.65c1.185,1.074,3.058,1.394,4.694,0.179
			c0.41,0.401,0.131-0.366,0.467,4.158c26.016,18.829,14.018,8.87,47.517,39.04c30.161-33.506,19.27-22.347,43.176-43.793
			c-0.139-4.534-0.335-3.743,0.03-4.185c1.651,0.976,3.368,0.578,4.454-0.465c0.924-1.189,1.14-2.937-0.003-4.478
			c0.401-0.409-0.365-0.131,4.158-0.467c18.829-26.016,8.87-14.018,39.04-47.517c-33.506-30.161-22.347-19.27-43.793-43.176
			c-4.534,0.139-3.743,0.335-4.185-0.03c1.037-1.755,0.523-3.583-0.669-4.65c-1.185-1.074-3.058-1.394-4.694-0.179
			c-0.41-0.401-0.131,0.366-0.467-4.158c-26.016-18.829-14.018-8.87-47.517-39.04c-30.161,33.506-19.27,22.347-43.176,43.793
			c0.139,4.534,0.335,3.743-0.03,4.185C765.957,763.854,764.241,764.251,763.155,765.295z"/>
	</g>
	<g>
		<path d="M763.486,860.25c-1.15-1.303-3.128-1.893-5.289-0.672c0.089-4.726,0.448-4.622,0.012-4.994
			c-30.356-27.324-18.077-15.247-47.12-47.386c32.243-28.927,18.769-18.2,51.815-42.201c0.472-0.324,0.105-0.258,0.51-4.967
			c1.899,1.353,3.806,1.099,5.091,0.088c1.14-1.172,1.592-3.042,0.444-5.072c4.726,0.089,4.622,0.448,4.994,0.012
			c27.324-30.356,15.247-18.077,47.386-47.12c28.927,32.244,18.2,18.769,42.201,51.815c0.324,0.472,0.258,0.105,4.967,0.51
			c-1.44,2.021-1.06,4.05,0.115,5.33c1.15,1.303,3.128,1.893,5.289,0.672c-0.089,4.726-0.448,4.622-0.012,4.994
			c30.356,27.324,18.077,15.247,47.12,47.386c-32.243,28.927-18.769,18.2-51.815,42.201c-0.472,0.324-0.105,0.258-0.51,4.967
			c-1.899-1.353-3.806-1.099-5.091-0.088c-1.14,1.172-1.592,3.042-0.444,5.072c-4.726-0.089-4.622-0.448-4.994-0.012
			c-27.324,30.356-15.247,18.077-47.386,47.12c-28.927-32.244-18.2-18.769-42.201-51.815c-0.324-0.472-0.258-0.105-4.967-0.51
			C765.041,863.559,764.661,861.53,763.486,860.25z M763.132,754.15c-1.16,1.206-1.601,3.114-0.517,4.949
			c-0.491,0.406,0.389,0.188-4.649,0.033c-23.828,26.562-11.43,14.46-48.659,47.973c33.521,37.221,22.456,23.89,43.378,52.797
			c5.027,0.373,4.175,0.064,4.621,0.519c-1.35,1.819-0.994,3.899,0.199,5.216c1.185,1.324,3.217,1.895,5.167,0.743
			c0.406,0.491,0.188-0.389,0.033,4.649c26.562,23.828,14.46,11.43,47.973,48.659c37.221-33.521,23.89-22.456,52.797-43.378
			c0.373-5.027,0.064-4.175,0.519-4.621c1.712,1.27,3.655,1.03,4.975,0.003c1.16-1.206,1.601-3.114,0.517-4.949
			c0.491-0.406-0.389-0.188,4.649-0.033c23.828-26.562,11.43-14.46,48.659-47.973c-33.521-37.221-22.456-23.89-43.378-52.797
			c-5.027-0.373-4.175-0.064-4.621-0.519c1.35-1.819,0.994-3.899-0.199-5.216c-1.185-1.324-3.217-1.895-5.167-0.743
			c-0.406-0.491-0.188,0.389-0.033-4.649c-26.562-23.828-14.46-11.43-47.973-48.659c-37.221,33.521-23.89,22.456-52.797,43.378
			c-0.373,5.027-0.064,4.175-0.519,4.621C766.395,752.883,764.452,753.123,763.132,754.15z"/>
	</g>
	<g>
		<path d="M752.468,859.116c-1.12-1.573-3.237-2.455-5.766-1.357c0.647-5.212,1.031-5.055,0.593-5.517
			c-30.371-33.72-18.204-18.948-46.565-57.836c38.99-28.22,22.854-17.932,62.158-40.616c0.56-0.303,0.146-0.273,1.141-5.43
			c1.942,1.716,4.078,1.656,5.615,0.689c1.396-1.163,2.112-3.176,1.08-5.553c5.212,0.647,5.055,1.031,5.517,0.593
			c33.72-30.371,18.948-18.204,57.836-46.565c28.22,38.99,17.932,22.854,40.616,62.158c0.303,0.56,0.273,0.146,5.43,1.141
			c-1.826,2.066-1.642,4.352-0.492,5.903c1.12,1.573,3.237,2.455,5.766,1.357c-0.647,5.212-1.031,5.055-0.593,5.517
			c30.371,33.72,18.204,18.948,46.565,57.836c-38.99,28.22-22.854,17.932-62.158,40.616c-0.56,0.303-0.146,0.273-1.141,5.43
			c-1.942-1.716-4.078-1.656-5.615-0.689c-1.396,1.163-2.112,3.176-1.08,5.553c-5.212-0.647-5.055-1.031-5.517-0.593
			c-33.72,30.371-18.948,18.204-57.836,46.565c-28.22-38.99-17.932-22.854-40.616-62.158c-0.303-0.56-0.273-0.146-5.43-1.141
			C753.803,862.953,753.618,860.667,752.468,859.116z M764.4,741.831c-1.421,1.198-2.131,3.255-1.146,5.408
			c-0.589,0.392,0.408,0.252-5.142-0.503c-29.416,26.584-14.31,14.652-59.341,47.36c32.719,45.023,22.04,29.007,41.801,63.38
			c5.511,0.996,4.606,0.556,5.046,1.11c-1.703,1.853-1.552,4.193-0.386,5.787c1.156,1.601,3.335,2.468,5.623,1.421
			c0.392,0.589,0.252-0.408-0.503,5.142c26.584,29.416,14.652,14.31,47.36,59.341c45.023-32.719,29.007-22.04,63.379-41.801
			c0.996-5.511,0.556-4.606,1.11-5.046c1.744,1.602,3.919,1.563,5.498,0.581c1.421-1.198,2.131-3.255,1.146-5.408
			c0.589-0.392-0.408-0.252,5.142,0.503c29.416-26.584,14.31-14.652,59.341-47.36c-32.719-45.023-22.04-29.007-41.801-63.379
			c-5.511-0.996-4.606-0.556-5.046-1.11c1.703-1.853,1.552-4.193,0.386-5.787c-1.156-1.601-3.335-2.468-5.623-1.421
			c-0.392-0.589-0.252,0.408,0.503-5.142c-26.584-29.416-14.652-14.31-47.36-59.341c-45.023,32.719-29.007,22.04-63.379,41.801
			c-0.996,5.511-0.556,4.606-1.11,5.046C768.154,740.81,765.979,740.85,764.4,741.831z"/>
	</g>
	<g>
		<path d="M740.426,856.583c-1.055-1.868-3.292-3.089-6.214-2.169c1.32-5.684,1.727-5.466,1.296-6.027
			c-29.644-40.788-17.916-23.052-44.738-69.318c46.362-26.656,27.337-17.161,73.404-37.662c0.654-0.27,0.193-0.285,1.891-5.868
			c1.946,2.122,4.313,2.304,6.125,1.413c1.677-1.123,2.703-3.265,1.839-6.011c5.684,1.32,5.466,1.727,6.027,1.296
			c40.788-29.644,23.052-17.916,69.318-44.738c26.656,46.362,17.161,27.337,37.662,73.404c0.27,0.654,0.285,0.193,5.868,1.891
			c-2.258,2.071-2.319,4.619-1.229,6.466c1.055,1.868,3.292,3.089,6.214,2.169c-1.321,5.684-1.727,5.466-1.296,6.027
			c29.644,40.788,17.916,23.052,44.738,69.318c-46.362,26.656-27.337,17.161-73.404,37.662c-0.654,0.27-0.193,0.285-1.891,5.868
			c-1.946-2.122-4.313-2.304-6.125-1.413c-1.677,1.123-2.703,3.265-1.839,6.011c-5.684-1.32-5.466-1.727-6.027-1.296
			c-40.788,29.644-23.052,17.916-69.318,44.738c-26.656-46.362-17.161-27.337-37.662-73.404c-0.27-0.654-0.285-0.193-5.868-1.891
			C741.455,860.978,741.516,858.43,740.426,856.583z M767.232,728.366c-1.71,1.159-2.733,3.349-1.894,5.843
			c-0.697,0.364,0.421,0.326-5.623-1.153c-35.593,25.959-17.515,14.528-71.073,45.442c30.926,53.552,20.986,34.613,38.83,74.891
			c5.974,1.741,5.025,1.149,5.446,1.813c-2.097,1.85-2.202,4.453-1.099,6.35c1.091,1.904,3.398,3.114,6.049,2.223
			c0.364,0.697,0.326-0.421-1.153,5.623c25.959,35.592,14.528,17.515,45.442,71.073c53.552-30.926,34.613-20.986,74.891-38.83
			c1.741-5.974,1.149-5.025,1.813-5.446c1.741,1.973,4.149,2.182,6.007,1.281c1.71-1.159,2.733-3.349,1.894-5.843
			c0.697-0.364-0.421-0.326,5.623,1.153c35.592-25.959,17.515-14.528,71.073-45.442c-30.926-53.552-20.986-34.613-38.83-74.891
			c-5.974-1.741-5.025-1.149-5.446-1.813c2.097-1.85,2.202-4.453,1.099-6.35c-1.091-1.904-3.398-3.114-6.049-2.223
			c-0.364-0.697-0.326,0.421,1.153-5.623c-25.959-35.592-14.528-17.515-45.442-71.073c-53.552,30.926-34.613,20.986-74.891,38.83
			c-1.741,5.974-1.149,5.025-1.813,5.446C771.498,727.674,769.09,727.465,767.232,728.366z"/>
	</g>
	<g>
		<path d="M727.412,852.385c-0.948-2.187-3.279-3.796-6.615-3.118c2.119-6.127,2.543-5.84,2.132-6.51
			c-28.02-48.515-17.12-27.554-41.386-81.794c54.327-24.071,32.201-15.788,85.487-33.092c0.754-0.223,0.246-0.293,2.772-6.264
			c1.904,2.571,4.499,3.047,6.604,2.273c1.984-1.047,3.366-3.293,2.73-6.429c6.127,2.119,5.84,2.543,6.51,2.132
			c48.515-28.021,27.554-17.12,81.794-41.386c24.071,54.327,15.788,32.201,33.092,85.487c0.223,0.754,0.293,0.246,6.264,2.772
			c-2.735,2.026-3.099,4.834-2.109,7.003c0.948,2.187,3.279,3.796,6.615,3.118c-2.119,6.127-2.543,5.84-2.132,6.51
			c28.02,48.515,17.12,27.554,41.386,81.794c-54.327,24.071-32.201,15.788-85.487,33.092c-0.754,0.223-0.247,0.293-2.772,6.264
			c-1.904-2.571-4.499-3.047-6.604-2.273c-1.984,1.047-3.366,3.293-2.73,6.429c-6.127-2.119-5.84-2.543-6.51-2.132
			c-48.515,28.021-27.554,17.12-81.794,41.386c-24.071-54.327-15.788-32.201-33.092-85.487c-0.223-0.754-0.292-0.246-6.264-2.772
			C728.039,857.361,728.403,854.553,727.412,852.385z M771.925,713.816c-2.024,1.082-3.409,3.383-2.772,6.237
			c-0.812,0.322,0.427,0.409-6.08-1.927c-42.346,24.552-21.041,14.02-83.816,41.96c27.955,62.768,19.17,40.686,34.21,87.266
			c6.4,2.618,5.42,1.853,5.808,2.636c-2.532,1.801-2.95,4.665-1.952,6.889c0.985,2.23,3.393,3.836,6.426,3.159
			c0.322,0.812,0.409-0.427-1.927,6.08c24.552,42.346,14.02,21.042,41.96,83.816c62.768-27.955,40.686-19.17,87.266-34.21
			c2.618-6.4,1.853-5.42,2.636-5.808c1.695,2.383,4.331,2.893,6.49,2.113c2.024-1.082,3.409-3.383,2.772-6.237
			c0.812-0.322-0.428-0.409,6.08,1.927c42.346-24.552,21.041-14.02,83.816-41.96c-27.955-62.768-19.17-40.686-34.21-87.266
			c-6.4-2.618-5.42-1.853-5.808-2.636c2.532-1.801,2.95-4.665,1.952-6.889c-0.985-2.23-3.393-3.836-6.426-3.159
			c-0.322-0.812-0.409,0.427,1.927-6.08c-24.552-42.346-14.02-21.042-41.96-83.816c-62.768,27.955-40.686,19.17-87.266,34.21
			c-2.618,6.4-1.853,5.42-2.636,5.808C776.72,713.547,774.084,713.036,771.925,713.816z"/>
	</g>
	<g>
		<path d="M713.52,846.235c-0.794-2.527-3.182-4.575-6.948-4.214c3.054-6.525,3.488-6.158,3.112-6.946
			c-25.329-56.865-15.718-32.436-36.233-95.191c62.828-20.289,37.416-13.706,98.309-26.639c0.859-0.158,0.306-0.295,3.79-6.6
			c1.805,3.062,4.617,3.889,7.034,3.279c2.314-0.926,4.102-3.248,3.763-6.787c6.525,3.054,6.158,3.488,6.946,3.112
			c56.865-25.329,32.436-15.718,95.191-36.233c20.289,62.828,13.706,37.416,26.639,98.308c0.158,0.859,0.295,0.306,6.6,3.79
			c-3.258,1.921-3.986,4.982-3.144,7.493c0.794,2.527,3.182,4.575,6.948,4.214c-3.054,6.525-3.488,6.158-3.112,6.946
			c25.329,56.865,15.718,32.436,36.233,95.191c-62.828,20.289-37.416,13.706-98.309,26.639c-0.859,0.158-0.306,0.295-3.79,6.6
			c-1.805-3.062-4.617-3.889-7.034-3.279c-2.314,0.926-4.102,3.248-3.763,6.787c-6.525-3.054-6.158-3.488-6.946-3.112
			c-56.865,25.329-32.436,15.718-95.191,36.233c-20.289-62.828-13.706-37.416-26.639-98.308c-0.158-0.859-0.295-0.306-6.6-3.79
			C713.634,851.807,714.363,848.746,713.52,846.235z M778.801,698.283c-2.362,0.961-4.16,3.343-3.787,6.57
			c-0.935,0.261,0.425,0.502-6.495-2.836c-49.644,22.212-24.88,13.049-97.492,36.632c23.601,72.607,16.458,47.185,27.668,100.404
			c6.768,3.636,5.773,2.677,6.112,3.587c-3.007,1.696-3.802,4.812-2.957,7.386c0.829,2.579,3.304,4.633,6.733,4.238
			c0.261,0.935,0.502-0.425-2.836,6.495c22.212,49.644,13.049,24.88,36.632,97.492c72.607-23.601,47.185-16.458,100.404-27.668
			c3.636-6.768,2.677-5.773,3.587-6.112c1.596,2.83,4.45,3.7,6.926,3.089c2.362-0.961,4.16-3.343,3.787-6.57
			c0.935-0.261-0.425-0.502,6.495,2.836c49.644-22.212,24.88-13.049,97.492-36.632c-23.601-72.607-16.458-47.185-27.668-100.404
			c-6.768-3.636-5.773-2.677-6.112-3.587c3.007-1.696,3.802-4.812,2.957-7.386c-0.829-2.579-3.304-4.633-6.733-4.238
			c-0.261-0.935-0.502,0.425,2.836-6.495c-22.212-49.644-13.049-24.88-36.632-97.492c-72.607,23.601-47.185,16.458-100.404,27.668
			c-3.636,6.768-2.677,5.773-3.587,6.112C784.131,698.542,781.277,697.672,778.801,698.283z"/>
	</g>
	<g>
		<path d="M698.883,837.826c-0.584-2.884-2.985-5.425-7.188-5.464c4.132-6.855,4.57-6.4,4.245-7.314
			c-21.384-65.779-13.601-37.669-28.982-109.397c71.783-15.123,42.938-10.8,111.727-18.019c0.967-0.075,0.373-0.29,4.955-6.853
			c1.639,3.593,4.651,4.834,7.392,4.44c2.664-0.755,4.91-3.113,4.947-7.062c6.855,4.132,6.4,4.57,7.314,4.245
			c65.779-21.384,37.669-13.601,109.397-28.983c15.123,71.783,10.8,42.938,18.019,111.727c0.075,0.967,0.29,0.373,6.853,4.955
			c-3.823,1.745-4.984,5.042-4.344,7.915c0.584,2.884,2.985,5.425,7.188,5.464c-4.132,6.855-4.57,6.4-4.245,7.314
			c21.384,65.779,13.601,37.669,28.983,109.397c-71.783,15.123-42.938,10.8-111.727,18.019c-0.967,0.075-0.373,0.29-4.955,6.853
			c-1.639-3.593-4.651-4.834-7.392-4.44c-2.664,0.755-4.91,3.113-4.947,7.062c-6.855-4.132-6.4-4.57-7.314-4.245
			c-65.779,21.384-37.669,13.601-109.397,28.983c-15.123-71.783-10.8-42.938-18.019-111.727c-0.075-0.967-0.29-0.373-6.853-4.955
			C698.362,843.996,699.522,840.698,698.883,837.826z M788.204,681.917c-2.722,0.787-4.985,3.211-4.948,6.82
			c-1.063,0.18,0.411,0.604-6.847-3.888c-57.438,18.779-29.008,11.529-111.985,29.157c17.647,82.973,12.706,54.052,18.913,114.163
			c7.056,4.804,6.069,3.629,6.337,4.674c-3.52,1.525-4.76,4.876-4.125,7.818c0.617,2.946,3.113,5.503,6.948,5.465
			c0.18,1.063,0.604-0.411-3.888,6.847c18.779,57.438,11.529,29.008,29.157,111.985c82.973-17.647,54.052-12.706,114.163-18.913
			c4.804-7.056,3.629-6.069,4.674-6.337c1.435,3.312,4.488,4.606,7.294,4.218c2.722-0.787,4.985-3.211,4.948-6.82
			c1.063-0.18-0.411-0.604,6.847,3.888c57.438-18.779,29.008-11.529,111.985-29.157c-17.647-82.973-12.706-54.052-18.913-114.163
			c-7.056-4.804-6.069-3.629-6.337-4.674c3.52-1.525,4.76-4.876,4.125-7.818c-0.617-2.946-3.113-5.503-6.948-5.465
			c-0.18-1.063-0.604,0.411,3.888-6.847c-18.779-57.438-11.529-29.008-29.157-111.985c-82.973,17.647-54.052,12.706-114.163,18.913
			c-4.804,7.056-3.629,6.069-4.674,6.337C794.063,682.823,791.011,681.529,788.204,681.917z"/>
	</g>
	<g>
		<path d="M683.685,826.833c-0.31-3.255-2.669-6.342-7.308-6.872c5.362-7.096,5.793-6.541,5.541-7.589
			c-15.991-75.17-10.655-43.204-19.321-124.252c81.079-8.374,48.702-6.947,125.554-6.935c1.078,0.029,0.446-0.277,6.271-6.997
			c1.394,4.161,4.578,5.882,7.652,5.765c3.032-0.524,5.788-2.87,6.286-7.23c7.096,5.362,6.541,5.793,7.589,5.541
			c75.17-15.991,43.204-10.655,124.252-19.321c8.374,81.079,6.947,48.702,6.935,125.554c-0.029,1.078,0.277,0.446,6.997,6.271
			c-4.428,1.484-6.093,4.993-5.72,8.242c0.31,3.255,2.669,6.342,7.308,6.872c-5.362,7.096-5.793,6.541-5.541,7.589
			c15.991,75.17,10.655,43.204,19.321,124.252c-81.079,8.374-48.702,6.947-125.554,6.935c-1.078-0.029-0.446,0.277-6.271,6.997
			c-1.394-4.161-4.578-5.882-7.652-5.765c-3.032,0.524-5.788,2.87-6.286,7.23c-7.096-5.362-6.541-5.793-7.589-5.541
			c-75.17,15.991-43.204,10.655-124.252,19.321c-8.374-81.079-6.947-48.702-6.935-125.554c0.029-1.078-0.277-0.446-6.997-6.271
			C682.393,833.591,684.058,830.082,683.685,826.833z M800.495,664.924c-3.099,0.554-5.881,2.969-6.26,6.962
			c-1.196,0.075,0.384,0.715-7.115-5.092c-65.651,14.08-33.394,9.371-127.133,19.212c9.863,93.737,7.763,61.205,7.64,128.349
			c7.239,6.128,6.285,4.715,6.46,5.901c-4.066,1.276-5.826,4.836-5.466,8.16c0.339,3.327,2.801,6.443,7.044,6.846
			c0.075,1.196,0.715-0.384-5.092,7.115c14.081,65.651,9.371,33.394,19.213,127.133c93.737-9.863,61.205-7.763,128.349-7.64
			c6.128-7.239,4.715-6.285,5.901-6.46c1.201,3.827,4.424,5.611,7.571,5.508c3.099-0.554,5.881-2.969,6.26-6.962
			c1.196-0.075-0.384-0.715,7.115,5.092c65.651-14.081,33.394-9.371,127.133-19.213c-9.863-93.737-7.763-61.205-7.64-128.349
			c-7.239-6.128-6.285-4.715-6.46-5.901c4.066-1.276,5.826-4.836,5.466-8.16c-0.339-3.327-2.801-6.443-7.044-6.846
			c-0.075-1.196-0.715,0.384,5.092-7.115c-14.08-65.651-9.371-33.394-19.212-127.133c-93.737,9.863-61.205,7.763-128.349,7.64
			c-6.128,7.239-4.715,6.285-5.901,6.46C806.864,666.606,803.641,664.821,800.495,664.924z"/>
	</g>
	<g>
		<path d="M668.167,812.921c0.035-3.633-2.212-7.318-7.277-8.443c6.75-7.218,7.161-6.555,7.004-7.742
			c-8.939-84.922-6.756-48.979-6.919-139.546c90.566,0.163,54.623-2.021,139.546,6.919c1.187,0.157,0.524-0.254,7.742-7.004
			c1.058,4.76,4.375,7.031,7.786,7.259c3.411-0.227,6.729-2.499,7.786-7.259c7.218,6.75,6.555,7.161,7.742,7.004
			c84.922-8.939,48.979-6.756,139.546-6.919c-0.163,90.566,2.021,54.623-6.919,139.546c-0.157,1.187,0.254,0.525,7.004,7.742
			c-5.065,1.125-7.313,4.81-7.277,8.443c-0.035,3.633,2.213,7.318,7.277,8.443c-6.75,7.218-7.161,6.555-7.004,7.742
			c8.939,84.922,6.756,48.979,6.919,139.546c-90.566-0.163-54.623,2.021-139.546-6.919c-1.187-0.157-0.525,0.254-7.742,7.004
			c-1.058-4.76-4.375-7.031-7.786-7.259c-3.411,0.227-6.729,2.499-7.786,7.259c-7.218-6.75-6.555-7.161-7.742-7.004
			c-84.922,8.939-48.979,6.756-139.546,6.919c0.163-90.566-2.021-54.623,6.919-139.546c0.157-1.187-0.254-0.525-7.004-7.742
			C665.955,820.239,668.203,816.554,668.167,812.921z M816.05,647.574c-3.489,0.252-6.844,2.598-7.726,6.966
			c-1.33-0.056,0.341,0.835-7.271-6.453c-74.182,7.934-37.989,6.477-142.716,6.465c0.012,104.727,1.47,68.534-6.465,142.716
			c7.288,7.612,6.397,5.94,6.453,7.271c-4.642,0.938-7,4.667-6.988,8.383c-0.011,3.716,2.347,7.445,6.988,8.383
			c-0.056,1.33,0.835-0.341-6.453,7.271c7.934,74.182,6.477,37.989,6.465,142.716c104.727-0.012,68.534-1.47,142.716,6.465
			c7.612-7.288,5.94-6.397,7.271-6.453c0.883,4.368,4.237,6.714,7.726,6.966c3.489-0.252,6.844-2.598,7.726-6.966
			c1.33,0.056-0.341-0.835,7.271,6.453c74.182-7.934,37.989-6.477,142.716-6.465c-0.012-104.727-1.47-68.534,6.465-142.716
			c-7.288-7.612-6.397-5.94-6.453-7.271c4.642-0.938,7-4.667,6.988-8.383c0.011-3.716-2.347-7.445-6.988-8.383
			c0.056-1.33-0.835,0.341,6.453-7.271c-7.934-74.182-6.477-37.989-6.465-142.716c-104.727,0.012-68.534,1.47-142.716-6.465
			c-7.612,7.288-5.94,6.397-7.271,6.453C822.893,650.172,819.539,647.826,816.05,647.574z"/>
	</g>
	<g>
		<path d="M652.636,795.746c0.461-4.011-1.595-8.343-7.061-10.175c8.297-7.192,8.675-6.412,8.639-7.742
			c-0.015-94.88-1.777-54.908,8.562-155.005c100.059,10.699,60.595,4.111,153.398,23.853c1.294,0.312,0.609-0.22,9.369-6.84
			c0.616,5.383,4.018,8.278,7.761,8.925c3.796,0.145,7.726-1.98,9.447-7.117c7.192,8.297,6.412,8.675,7.742,8.639
			c94.88-0.015,54.908-1.777,155.005,8.562c-10.699,100.059-4.111,60.595-23.853,153.398c-0.312,1.294,0.22,0.609,6.84,9.369
			c-5.728,0.655-8.639,4.466-9.022,8.484c-0.461,4.011,1.595,8.343,7.061,10.175c-8.297,7.192-8.675,6.412-8.639,7.742
			c0.015,94.88,1.777,54.908-8.562,155.005c-100.059-10.699-60.595-4.111-153.398-23.853c-1.294-0.312-0.609,0.22-9.369,6.84
			c-0.616-5.383-4.018-8.278-7.761-8.925c-3.796-0.145-7.726,1.98-9.447,7.117c-7.192-8.297-6.412-8.675-7.742-8.639
			c-94.88,0.015-54.908,1.777-155.005-8.562c10.699-100.059,4.111-60.595,23.853-153.398c0.312-1.294-0.22-0.609-6.84-9.369
			C649.341,803.575,652.253,799.765,652.636,795.746z M835.253,630.209c-3.885-0.127-7.864,2.076-9.346,6.8
			c-1.464-0.216,0.28,0.962-7.285-7.975c-82.894,0.152-42.731,2.745-158.456-9.432c-12.15,115.727-6.336,75.903-23.719,156.954
			c7.169,9.258,6.379,7.307,6.286,8.784c-5.238,0.497-8.277,4.344-8.696,8.451c-0.444,4.105,1.729,8.499,6.749,10.075
			c-0.216,1.464,0.962-0.28-7.975,7.285c0.152,82.894,2.745,42.731-9.432,158.456c115.727,12.15,75.903,6.336,156.954,23.719
			c9.258-7.169,7.307-6.379,8.784-6.286c0.468,4.929,3.902,7.911,7.728,8.594c3.885,0.127,7.864-2.076,9.346-6.8
			c1.464,0.216-0.28-0.962,7.285,7.975c82.894-0.152,42.731-2.745,158.456,9.432c12.15-115.727,6.336-75.903,23.719-156.954
			c-7.169-9.258-6.379-7.307-6.286-8.784c5.238-0.497,8.277-4.344,8.696-8.451c0.444-4.105-1.728-8.499-6.749-10.075
			c0.216-1.464-0.962,0.28,7.975-7.285c-0.152-82.894-2.745-42.731,9.432-158.456c-115.727-12.15-75.903-6.336-156.954-23.719
			c-9.258,7.169-7.307,6.379-8.784,6.286C842.514,633.874,839.08,630.892,835.253,630.209z"/>
	</g>
	<g>
		<path d="M637.469,774.963c0.975-4.378-0.794-9.405-6.621-12.064c10.003-6.984,10.33-6.078,10.445-7.552
			c11.003-104.846,4.414-60.881,27.464-170.29c109.325,23.444,66.481,11.581,166.738,44.174c1.393,0.495,0.699-0.173,11.148-6.471
			c0.055,6.019,3.479,9.614,7.539,10.764c4.178,0.601,8.767-1.291,11.266-6.767c6.984,10.003,6.078,10.33,7.552,10.445
			c104.846,11.003,60.881,4.414,170.29,27.464c-23.444,109.325-11.581,66.481-44.174,166.738c-0.495,1.393,0.173,0.699,6.471,11.148
			c-6.405,0.059-10.065,3.931-10.955,8.328c-0.975,4.378,0.794,9.405,6.621,12.064c-10.003,6.984-10.33,6.078-10.445,7.552
			c-11.003,104.846-4.414,60.881-27.464,170.29c-109.325-23.444-66.481-11.581-166.738-44.174
			c-1.393-0.495-0.699,0.173-11.148,6.471c-0.055-6.019-3.479-9.614-7.539-10.764c-4.178-0.601-8.767,1.291-11.266,6.767
			c-6.984-10.003-6.078-10.33-7.552-10.445c-104.846-11.003-60.881-4.414-170.29-27.464
			c23.444-109.325,11.581-66.481,44.174-166.738c0.495-1.393-0.173-0.699-6.471-11.148
			C632.919,783.231,636.578,779.359,637.469,774.963z M858.491,613.25c-4.278-0.591-8.931,1.38-11.118,6.428
			c-1.592-0.409,0.198,1.096-7.123-9.659c-91.618-9.46-47.538-1.93-174.002-28.826c-26.867,126.47-15.817,83.139-44.439,170.683
			c6.847,11.063,6.2,8.815,5.926,10.436c-5.846-0.059-9.651,3.839-10.591,8.329c-0.968,4.484,0.923,9.593,6.287,11.917
			c-0.409,1.592,1.096-0.198-9.659,7.123c-9.46,91.618-1.93,47.538-28.826,174.002c126.47,26.867,83.139,15.817,170.683,44.439
			c11.063-6.847,8.815-6.2,10.436-5.926c-0.056,5.501,3.393,9.195,7.542,10.395c4.278,0.591,8.931-1.38,11.118-6.428
			c1.592,0.409-0.198-1.096,7.124,9.659c91.618,9.46,47.538,1.93,174.002,28.826c26.867-126.47,15.817-83.139,44.439-170.683
			c-6.847-11.063-6.2-8.815-5.926-10.436c5.846,0.059,9.651-3.839,10.591-8.329c0.968-4.484-0.923-9.593-6.287-11.917
			c0.409-1.592-1.096,0.198,9.659-7.123c9.46-91.618,1.93-47.538,28.826-174.002c-126.47-26.867-83.139-15.817-170.683-44.439
			c-11.063,6.847-8.815,6.2-10.436,5.926C866.088,618.144,862.64,614.45,858.491,613.25z"/>
	</g>
	<g>
		<path d="M623.122,750.235c1.586-4.725,0.215-10.484-5.915-14.099c11.865-6.555,12.121-5.516,12.419-7.132
			c24.336-114.579,11.948-66.762,50.126-184.985c118.084,38.603,72.118,20.518,179.119,68.179c1.482,0.708,0.792-0.11,13.07-5.856
			c-0.638,6.658,2.727,11.028,7.081,12.77c4.547,1.149,9.838-0.408,13.235-6.169c6.555,11.865,5.516,12.121,7.132,12.419
			c114.579,24.335,66.762,11.948,184.985,50.126c-38.603,118.084-20.518,72.118-68.179,179.119c-0.708,1.482,0.11,0.792,5.856,13.07
			c-7.085-0.679-11.579,3.175-13.073,7.93c-1.586,4.725-0.215,10.484,5.915,14.099c-11.865,6.555-12.121,5.516-12.419,7.132
			c-24.336,114.579-11.948,66.762-50.126,184.985c-118.084-38.603-72.118-20.518-179.119-68.179
			c-1.482-0.708-0.792,0.11-13.07,5.856c0.638-6.658-2.727-11.028-7.081-12.77c-4.547-1.149-9.838,0.408-13.235,6.169
			c-6.555-11.865-5.516-12.121-7.132-12.419c-114.58-24.335-66.762-11.948-184.985-50.126
			c38.603-118.084,20.518-72.118,68.179-179.119c0.708-1.482-0.11-0.792-5.856-13.07
			C617.134,758.844,621.628,754.99,623.122,750.235z M886.139,597.209c-4.659-1.151-10.029,0.488-13.032,5.812
			c-1.712-0.637,0.091,1.234-6.75-11.5c-100.141-21.094-52.306-7.654-188.928-52.062c-44.377,136.632-27.134,90.033-68.93,183.448
			c6.281,13.02,5.828,10.461,5.337,12.221c-6.453-0.744-11.11,3.121-12.67,7.974c-1.59,4.843-0.094,10.707,5.564,13.898
			c-0.637,1.712,1.234-0.091-11.5,6.75c-21.094,100.141-7.653,52.307-52.062,188.929c136.632,44.377,90.033,27.134,183.448,68.93
			c13.02-6.281,10.461-5.828,12.221-5.336c-0.7,6.073,2.682,10.555,7.127,12.362c4.659,1.151,10.029-0.488,13.032-5.812
			c1.712,0.637-0.091-1.234,6.75,11.5c100.141,21.094,52.306,7.653,188.928,52.062c44.377-136.632,27.134-90.033,68.93-183.448
			c-6.281-13.02-5.828-10.461-5.337-12.221c6.453,0.744,11.11-3.121,12.67-7.974c1.59-4.843,0.094-10.707-5.564-13.898
			c0.637-1.712-1.234,0.091,11.5-6.75c21.094-100.141,7.653-52.307,52.062-188.929c-136.632-44.377-90.033-27.134-183.448-68.93
			c-13.02,6.281-10.461,5.828-12.221,5.336C893.966,603.499,890.584,599.017,886.139,597.209z"/>
	</g>
	<g>
		<path d="M610.14,721.244c2.301-5.037,1.456-11.56-4.899-16.267c13.873-5.866,14.035-4.688,14.552-6.438
			c40.199-123.787,20.957-72.386,76.875-198.591c126.002,56.372,77.309,31.049,190.013,96.142c1.556,0.955,0.888-0.029,15.122-4.953
			c-1.478,7.283,1.733,12.503,6.342,14.934c4.891,1.798,10.918,0.692,15.342-5.28c5.866,13.873,4.688,14.035,6.438,14.552
			c123.787,40.199,72.386,20.957,198.591,76.875c-56.372,126.002-31.049,77.309-96.142,190.012
			c-0.955,1.556,0.029,0.888,4.953,15.122c-7.75-1.573-13.164,2.164-15.367,7.244c-2.301,5.037-1.456,11.56,4.899,16.267
			c-13.873,5.866-14.035,4.688-14.552,6.438c-40.199,123.787-20.957,72.386-76.875,198.591
			c-126.002-56.372-77.309-31.049-190.012-96.142c-1.556-0.955-0.888,0.029-15.122,4.953c1.478-7.283-1.733-12.503-6.342-14.934
			c-4.891-1.798-10.918-0.692-15.342,5.28c-5.866-13.873-4.688-14.035-6.438-14.552c-123.787-40.199-72.386-20.957-198.591-76.875
			c56.372-126.002,31.049-77.309,96.142-190.012c0.955-1.556-0.029-0.888-4.953-15.122
			C602.523,730.062,607.937,726.325,610.14,721.244z M918.553,582.694c-5.014-1.812-11.139-0.626-15.076,4.909
			c-1.818-0.902-0.042,1.374-6.123-13.492c-108.209-34.94-56.911-14.532-202.724-79.473
			c-64.906,145.828-40.44,96.337-97.476,194.709c5.429,15.117,5.225,12.237,4.478,14.124c-7.044-1.572-12.639,2.159-14.927,7.34
			c-2.319,5.167-1.348,11.821,4.534,16.004c-0.902,1.818,1.374,0.042-13.492,6.123c-34.94,108.209-14.532,56.911-79.473,202.724
			c145.828,64.906,96.337,40.44,194.709,97.476c15.117-5.429,12.237-5.225,14.124-4.478c-1.479,6.629,1.737,11.975,6.439,14.488
			c5.014,1.812,11.139,0.626,15.076-4.909c1.818,0.902,0.042-1.374,6.123,13.492c108.209,34.94,56.911,14.532,202.724,79.473
			c64.906-145.828,40.44-96.337,97.476-194.709c-5.429-15.117-5.225-12.237-4.478-14.124c7.044,1.572,12.639-2.159,14.927-7.34
			c2.319-5.167,1.348-11.821-4.534-16.004c0.902-1.818-1.374-0.042,13.492-6.123c34.94-108.209,14.532-56.911,79.473-202.724
			c-145.828-64.906-96.337-40.44-194.709-97.476c-15.117,5.429-12.237,5.225-14.124,4.478
			C926.472,590.554,923.255,585.208,918.553,582.694z"/>
	</g>
	<g>
		<path d="M599.162,687.701c3.128-5.299,2.951-12.606-3.524-18.545c16.011-4.871,16.053-3.55,16.828-5.425
			c58.798-132.119,31.565-77.555,108.014-210.519c132.689,76.927,81.823,43.289,198.802,128.308
			c1.608,1.236,0.985,0.071,17.286-3.716c-2.479,7.876,0.463,14.017,5.273,17.239c5.195,2.555,11.985,2.033,17.566-4.053
			c4.871,16.011,3.55,16.053,5.424,16.828c132.119,58.798,77.555,31.565,210.519,108.014
			c-76.927,132.689-43.289,81.823-128.308,198.802c-1.236,1.608-0.071,0.985,3.716,17.286c-8.381-2.638-14.797,0.862-17.822,6.22
			c-3.128,5.299-2.951,12.606,3.524,18.545c-16.011,4.871-16.053,3.55-16.828,5.425c-58.798,132.119-31.565,77.555-108.014,210.519
			c-132.688-76.927-81.823-43.289-198.802-128.308c-1.608-1.236-0.985-0.071-17.286,3.716c2.479-7.876-0.463-14.017-5.273-17.239
			c-5.195-2.555-11.985-2.033-17.566,4.053c-4.871-16.011-3.55-16.053-5.424-16.828c-132.119-58.798-77.555-31.565-210.519-108.014
			c76.927-132.689,43.289-81.823,128.308-198.802c1.236-1.608,0.071-0.985-3.716-17.286
			C589.721,696.56,596.138,693.059,599.162,687.701z M956.058,570.42c-5.33-2.585-12.236-1.985-17.229,3.674
			c-1.904-1.208-0.206,1.514-5.199-15.62c-115.515-51.177-61.2-22.668-214.785-111.364
			c-88.66,153.605-55.876,101.758-130.327,203.837c4.243,17.335,4.352,14.129,3.308,16.127c-7.601-2.555-14.218,0.917-17.347,6.377
			c-3.163,5.44-2.862,12.906,3.151,18.211c-1.208,1.904,1.514,0.206-15.62,5.199c-51.177,115.515-22.668,61.2-111.364,214.785
			c153.605,88.66,101.758,55.876,203.837,130.327c17.335-4.243,14.129-4.352,16.127-3.308c-2.404,7.153,0.529,13.434,5.433,16.758
			c5.33,2.585,12.236,1.985,17.229-3.674c1.904,1.208,0.206-1.514,5.199,15.62c115.515,51.177,61.2,22.668,214.785,111.364
			c88.66-153.605,55.876-101.758,130.327-203.837c-4.243-17.335-4.352-14.129-3.308-16.127c7.601,2.555,14.218-0.917,17.347-6.377
			c3.163-5.44,2.862-12.906-3.151-18.211c1.208-1.904-1.514-0.206,15.62-5.199c51.177-115.515,22.668-61.2,111.364-214.785
			c-153.605-88.66-101.758-55.876-203.837-130.327c-17.335,4.243-14.129,4.352-16.127,3.308
			C963.895,580.025,960.962,573.744,956.058,570.42z"/>
	</g>
	<g>
		<path d="M590.927,649.36c4.072-5.492,4.725-13.587-1.74-20.902c18.258-3.523,18.152-2.058,19.226-4.04
			C688.73,485.254,652.3,542.385,752.22,404.335C889.91,504.752,837.609,461.673,957,569.208c1.634,1.553,1.08,0.193,19.533-2.099
			c-3.655,8.416-1.117,15.543,3.825,19.662c5.444,3.427,13.007,3.638,19.882-2.438c3.523,18.258,2.058,18.152,4.04,19.226
			c139.165,80.318,82.034,43.888,220.084,143.808c-100.417,137.69-57.339,85.388-164.873,204.779
			c-1.553,1.634-0.193,1.08,2.099,19.533c-8.955-3.889-16.452-0.766-20.417,4.804c-4.072,5.492-4.725,13.587,1.74,20.902
			c-18.258,3.523-18.152,2.058-19.226,4.04c-80.317,139.165-43.888,82.034-143.808,220.084
			c-137.69-100.417-85.388-57.339-204.779-164.873c-1.634-1.553-1.08-0.193-19.533,2.099c3.655-8.416,1.117-15.543-3.825-19.662
			c-5.444-3.427-13.007-3.638-19.882,2.438c-3.523-18.258-2.058-18.152-4.04-19.226c-139.165-80.317-82.034-43.888-220.084-143.808
			c100.417-137.69,57.339-85.388,164.873-204.779c1.553-1.634,0.193-1.08-2.099-19.533
			C579.466,658.053,586.962,654.93,590.927,649.36z M998.927,561.212c-5.59-3.476-13.291-3.615-19.465,2.059
			c-1.964-1.556-0.404,1.649-3.931-17.865c-121.703-69.968-64.995-32.157-224.408-148.006
			c-115.812,159.44-73.563,105.956-167.689,210.108c2.675,19.648,3.168,16.118,1.782,18.205c-8.103-3.706-15.817-0.637-19.91,5.032
			c-4.127,5.644-4.662,13.929,1.367,20.49c-1.556,1.964,1.649,0.404-17.865,3.931c-69.968,121.703-32.157,64.995-148.006,224.408
			c159.44,115.812,105.956,73.563,210.108,167.689c19.648-2.676,16.118-3.168,18.205-1.782c-3.488,7.625-0.976,14.907,4.057,19.149
			c5.59,3.476,13.291,3.615,19.465-2.059c1.963,1.556,0.404-1.649,3.931,17.865c121.703,69.968,64.995,32.157,224.408,148.006
			c115.812-159.44,73.563-105.956,167.688-210.108c-2.675-19.648-3.168-16.118-1.782-18.205c8.103,3.706,15.817,0.637,19.91-5.032
			c4.127-5.644,4.662-13.929-1.367-20.49c1.556-1.964-1.649-0.404,17.865-3.931c69.968-121.703,32.157-64.995,148.006-224.408
			c-159.44-115.812-105.956-73.563-210.108-167.689c-19.648,2.675-16.118,3.168-18.205,1.782
			C1006.472,572.736,1003.96,565.455,998.927,561.212z"/>
	</g>
	<g>
		<path d="M586.28,606.036c5.137-5.596,6.8-14.465,0.504-23.299c20.585-1.772,20.297-0.166,21.714-2.231
			c104.916-144.453,58.025-85.552,184.472-226.496c140.488,126.955,87.697,73.278,207.137,205.973
			c1.625,1.905,1.171,0.338,21.828-0.051c-5.016,8.875-3.039,17.046,1.943,22.171c5.618,4.419,13.951,5.531,22.253-0.385
			c1.772,20.585,0.166,20.297,2.231,21.714c144.453,104.916,85.552,58.025,226.496,184.472
			c-126.955,140.488-73.278,87.697-205.973,207.137c-1.905,1.625-0.338,1.171,0.051,21.828c-9.444-5.337-18.09-2.757-23.119,2.937
			c-5.137,5.596-6.8,14.465-0.504,23.299c-20.585,1.772-20.297,0.166-21.714,2.231c-104.916,144.453-58.025,85.552-184.472,226.496
			c-140.488-126.955-87.697-73.278-207.137-205.973c-1.625-1.905-1.171-0.338-21.828,0.051c5.016-8.875,3.039-17.046-1.943-22.171
			c-5.618-4.419-13.951-5.531-22.253,0.385c-1.772-20.585-0.166-20.297-2.231-21.714
			c-144.453-104.916-85.552-58.025-226.496-184.472c126.955-140.488,73.278-87.697,205.973-207.137
			c1.905-1.625,0.338-1.171-0.051-21.828C572.606,614.31,581.252,611.73,586.28,606.036z M1047.367,556.017
			c-5.773-4.49-14.267-5.538-21.749,0.014c-1.989-1.948-0.638,1.775-2.269-20.197c-126.359-91.452-68.086-43.083-230.787-189.614
			C646.07,508.954,698.968,454.76,582.86,558.918c0.674,22.023,1.629,18.179-0.145,20.324c-8.524-5.036-17.405-2.542-22.585,3.248
			c-5.216,5.757-6.769,14.85-0.869,22.801c-1.948,1.989,1.775,0.638-20.197,2.269c-91.452,126.359-43.083,68.086-189.614,230.787
			c162.735,146.492,108.54,93.595,212.699,209.702c22.023-0.674,18.179-1.629,20.324,0.145c-4.74,8.021-2.809,16.359,2.259,21.631
			c5.773,4.49,14.267,5.538,21.749-0.014c1.989,1.948,0.638-1.775,2.269,20.198c126.359,91.452,68.086,43.083,230.787,189.614
			c146.492-162.735,93.595-108.54,209.702-212.699c-0.674-22.023-1.629-18.179,0.145-20.324c8.524,5.036,17.405,2.542,22.585-3.248
			c5.216-5.757,6.769-14.85,0.869-22.801c1.948-1.989-1.775-0.638,20.198-2.269c91.452-126.359,43.083-68.086,189.614-230.787
			c-162.735-146.492-108.54-93.595-212.699-209.702c-22.023,0.674-18.179,1.629-20.324-0.145
			C1054.366,569.627,1052.436,561.289,1047.367,556.017z"/>
	</g>
	<g>
		<path d="M586.177,557.622c6.327-5.587,9.194-15.194,3.263-25.687c22.953,0.432,22.448,2.174,24.254,0.056
			c132.712-147.439,74.055-87.798,230.152-228.858c140.497,156.605,88.396,91.159,204.969,251.662
			c1.574,2.294,1.255,0.51,24.127,2.479c-6.573,9.224-5.338,18.483-0.428,24.725c5.695,5.536,14.774,7.732,24.635,2.159
			c-0.432,22.953-2.174,22.448-0.056,24.254c147.439,132.712,87.798,74.055,228.858,230.152
			c-156.605,140.497-91.159,88.396-251.662,204.969c-2.294,1.574-0.51,1.255-2.479,24.127c-9.816-6.995-19.67-5.148-25.888,0.56
			c-6.327,5.587-9.194,15.194-3.263,25.687c-22.953-0.432-22.448-2.174-24.254-0.056
			c-132.712,147.439-74.055,87.798-230.152,228.858c-140.497-156.605-88.396-91.159-204.969-251.662
			c-1.574-2.294-1.255-0.51-24.127-2.479c6.573-9.224,5.338-18.483,0.428-24.725c-5.695-5.536-14.774-7.732-24.635-2.159
			c0.432-22.953,2.174-22.448,0.056-24.254c-147.439-132.712-87.798-74.055-228.858-230.152
			c156.605-140.497,91.159-88.396,251.662-204.969c2.294-1.574,0.51-1.255,2.479-24.127
			C570.105,565.177,579.96,563.33,586.177,557.622z M1101.499,555.901c-5.858-5.632-15.122-7.777-24.035-2.51
			c-1.972-2.383-0.911,1.888-0.161-22.582C948.295,415.077,1007.07,475.293,844.3,294.477
			c-180.778,162.812-116.031,109.069-256.43,210.682c-1.813,24.414-0.311,20.278-2.521,22.442
			c-8.834-6.555-18.937-4.83-25.334,0.966c-6.433,5.756-9.205,15.624-3.609,25.094c-2.383,1.972,1.888,0.911-22.582,0.161
			c-115.732,129.008-55.516,70.233-236.332,233.003c162.812,180.778,109.069,116.031,210.682,256.43
			c24.414,1.813,20.278,0.311,22.442,2.521c-6.169,8.313-5.004,17.751-0.016,24.166c5.858,5.632,15.122,7.777,24.035,2.51
			c1.972,2.383,0.911-1.888,0.162,22.582c129.008,115.732,70.233,55.516,233.003,236.332
			c180.778-162.812,116.031-109.069,256.43-210.682c1.813-24.414,0.311-20.278,2.521-22.442c8.834,6.555,18.937,4.83,25.334-0.966
			c6.432-5.756,9.205-15.624,3.609-25.094c2.383-1.972-1.888-0.911,22.582-0.161c115.732-129.008,55.516-70.233,236.332-233.003
			c-162.812-180.778-109.069-116.031-210.682-256.43c-24.414-1.813-20.278-0.311-22.442-2.521
			C1107.652,571.754,1106.488,562.316,1101.499,555.901z"/>
	</g>
	<g>
		<path d="M591.686,504.111c7.64-5.439,11.924-15.722,6.589-28.006c25.313,3.144,24.553,5.009,26.794,2.879
			c163.773-147.51,92.03-88.418,280.904-226.164c137.064,189.37,87.093,111,197.267,301.898c1.473,2.718,1.327,0.709,26.373,5.542
			c-8.335,9.43-8.045,19.804-3.345,27.272c5.65,6.778,15.427,10.26,26.971,5.247c-3.144,25.313-5.009,24.553-2.879,26.794
			c147.51,163.773,88.417,92.03,226.163,280.904c-189.37,137.065-111,87.093-301.898,197.267c-2.718,1.473-0.709,1.327-5.542,26.373
			c-10.034-8.869-21.138-7.973-28.672-2.387c-7.64,5.439-11.924,15.722-6.589,28.006c-25.313-3.144-24.553-5.009-26.794-2.879
			c-163.773,147.51-92.03,88.418-280.904,226.164c-137.065-189.37-87.093-111-197.267-301.899
			c-1.473-2.718-1.327-0.709-26.373-5.542c8.335-9.43,8.045-19.804,3.345-27.272c-5.65-6.778-15.427-10.26-26.971-5.247
			c3.144-25.313,5.009-24.553,2.879-26.794c-147.51-163.773-88.418-92.03-226.164-280.904
			c189.37-137.065,111-87.093,301.898-197.267c2.718-1.473,0.709-1.327,5.542-26.373
			C573.049,510.593,584.153,509.697,591.686,504.111z M1161.329,562.061c-5.819-6.904-15.807-10.35-26.267-5.566
			c-1.902-2.862-1.226,1.98,2.444-24.973c-129.115-142.87-71.162-69.503-230.025-288.214
			c-218.674,158.915-140.885,107.048-307.83,203.026c-4.838,26.768-2.699,22.371-5.392,24.506c-9-8.27-20.365-7.536-28.107-1.875
			c-7.777,5.613-11.986,16.196-6.902,27.311c-2.862,1.902,1.98,1.226-24.973-2.444c-142.87,129.115-69.503,71.162-288.214,230.025
			c158.915,218.674,107.048,140.885,203.026,307.83c26.768,4.838,22.371,2.699,24.506,5.392c-7.782,8.47-7.592,19.034-2.824,26.702
			c5.819,6.904,15.807,10.35,26.267,5.565c1.902,2.862,1.226-1.98-2.444,24.973c129.115,142.87,71.162,69.503,230.025,288.214
			c218.674-158.915,140.885-107.048,307.83-203.026c4.838-26.768,2.699-22.371,5.392-24.506c9,8.27,20.365,7.536,28.107,1.875
			c7.777-5.614,11.986-16.196,6.902-27.311c2.862-1.902-1.98-1.226,24.973,2.444c142.87-129.115,69.503-71.162,288.214-230.025
			c-158.915-218.674-107.047-140.885-203.026-307.83c-26.768-4.838-22.371-2.699-24.506-5.392
			C1166.288,580.293,1166.097,569.729,1161.329,562.061z"/>
	</g>
	<g>
		<path d="M603.989,445.621c9.074-5.123,15.002-15.989,10.534-30.182c27.606,6.414,26.55,8.387,29.274,6.294
			c198.106-143.981,111.964-87.015,336.673-217.291c129.466,225.177,83.348,132.772,182.922,356.516
			c1.312,3.175,1.384,0.938,28.499,9.187c-10.306,9.452-11.191,20.95-6.864,29.748c5.456,8.147,15.856,13.129,29.194,8.93
			c-6.414,27.606-8.387,26.55-6.294,29.274c143.981,198.106,87.015,111.964,217.291,336.673
			c-225.177,129.466-132.772,83.348-356.516,182.922c-3.175,1.312-0.938,1.384-9.187,28.499
			c-10.058-10.966-22.432-11.265-31.406-5.968c-9.074,5.123-15.002,15.989-10.534,30.182c-27.606-6.414-26.55-8.387-29.274-6.294
			c-198.106,143.981-111.964,87.015-336.673,217.291c-129.466-225.177-83.348-132.772-182.922-356.516
			c-1.312-3.175-1.384-0.938-28.499-9.187c10.306-9.452,11.19-20.95,6.863-29.748c-5.456-8.147-15.856-13.129-29.194-8.93
			c6.414-27.606,8.387-26.55,6.294-29.274C280.191,789.641,337.156,875.782,206.88,651.073
			c225.177-129.466,132.772-83.348,356.516-182.922c3.175-1.312,0.938-1.384,9.187-28.499
			C582.641,450.619,595.015,450.918,603.989,445.621z M1226.728,575.816c-5.629-8.305-16.265-13.273-28.38-9.201
			c-1.769-3.384-1.584,2.046,5.601-27.312c-126.083-172.87-70.563-85.067-220.71-345.199
			C723.143,344.312,815.125,296.032,619.5,382.701c-8.455,29.017-5.581,24.407-8.805,26.453
			c-8.985-10.184-21.629-10.693-30.841-5.336c-9.245,5.3-15.126,16.504-10.799,29.378c-3.384,1.769,2.046,1.584-27.312-5.601
			c-172.87,126.082-85.067,70.563-345.199,220.71C346.751,908.4,298.471,816.418,385.14,1012.043
			c29.017,8.455,24.407,5.581,26.453,8.805c-9.583,8.456-10.6,20.151-6.222,29.178c5.629,8.305,16.265,13.273,28.38,9.201
			c1.769,3.384,1.585-2.046-5.601,27.312c126.082,172.87,70.563,85.068,220.71,345.199
			c260.097-150.207,168.114-101.927,363.74-188.596c8.455-29.017,5.581-24.407,8.805-26.453
			c8.985,10.184,21.629,10.693,30.841,5.336c9.245-5.3,15.126-16.504,10.799-29.377c3.384-1.769-2.046-1.584,27.312,5.601
			c172.87-126.082,85.068-70.563,345.199-220.71c-150.207-260.097-101.927-168.114-188.596-363.74
			c-29.017-8.455-24.407-5.581-26.453-8.805C1230.089,596.539,1231.105,584.843,1226.728,575.816z"/>
	</g>
	<g>
		<path d="M624.376,382.416c10.622-4.607,18.435-15.925,15.146-32.129c29.761,10.294,28.365,12.351,31.617,10.355
			c235.634-136.094,133.829-83.15,397.269-201.01c116.91,263.863,76.68,156.397,160.726,415.204
			c1.081,3.66,1.421,1.197,30.425,13.461c-12.486,9.248-14.799,21.85-11.039,32.075c5.083,9.636,15.996,16.349,31.223,13.259
			c-10.293,29.761-12.351,28.365-10.354,31.617c136.094,235.634,83.15,133.829,201.01,397.269
			c-263.863,116.91-156.397,76.681-415.204,160.726c-3.66,1.081-1.197,1.421-13.461,30.425
			c-9.841-13.286-23.48-15.054-34.011-10.243c-10.622,4.607-18.435,15.925-15.146,32.129
			c-29.761-10.294-28.365-12.351-31.617-10.355c-235.634,136.094-133.829,83.15-397.269,201.01
			c-116.91-263.863-76.681-156.397-160.726-415.204c-1.081-3.66-1.421-1.197-30.425-13.461c12.486-9.248,14.799-21.85,11.039-32.075
			c-5.083-9.636-15.996-16.349-31.223-13.259c10.294-29.761,12.351-28.365,10.355-31.617
			C226.616,724.959,279.56,826.764,161.7,563.325c263.863-116.91,156.397-76.681,415.204-160.726
			c3.66-1.081,1.197-1.421,13.461-30.425C600.206,385.459,613.845,387.227,624.376,382.416z M1297.397,598.612
			c-5.255-9.831-16.432-16.556-30.292-13.463c-1.562-3.945-1.988,2.076,9.362-29.529
			c-119.246-205.67-68.094-102.197-203.797-407.087C767.811,284.306,875.061,241.639,648.824,314.69
			c-12.714,31.082-9.002,26.322-12.802,28.209c-8.746-12.297-22.658-14.328-33.46-9.479c-10.832,4.783-18.631,16.481-15.345,31.209
			c-3.945,1.562,2.076,1.988-29.529-9.362C352.018,474.513,455.49,423.361,150.6,559.064
			c135.774,304.858,93.107,197.608,166.158,423.845c31.082,12.714,26.322,9.001,28.209,12.802
			c-11.572,8.23-14.053,21.036-10.264,31.52c5.255,9.831,16.432,16.556,30.292,13.463c1.562,3.945,1.988-2.076-9.362,29.529
			c119.247,205.67,68.094,102.197,203.797,407.087c304.859-135.774,197.608-93.107,423.845-166.158
			c12.714-31.082,9.002-26.323,12.802-28.209c8.746,12.297,22.658,14.328,33.46,9.479c10.832-4.783,18.631-16.481,15.345-31.209
			c3.945-1.562-2.076-1.989,29.529,9.362c205.67-119.247,102.197-68.094,407.087-203.797
			c-135.774-304.858-93.107-197.608-166.158-423.845c-31.082-12.714-26.322-9.001-28.209-12.802
			C1298.705,621.901,1301.186,609.095,1297.397,598.612z"/>
	</g>
	<g>
		<path d="M654.246,314.941c12.273-3.857,22.221-15.457,20.468-33.744c31.691,14.831,29.909,16.943,33.735,15.114
			c276.188-123.02,157.542-76.339,462.338-175.981c98.543,305.153,66.57,181.728,129.384,477.478
			c0.77,4.17,1.431,1.488,32.057,18.409c-14.871,8.769-18.891,22.426-15.924,34.162c4.498,11.238,15.777,19.924,32.963,18.278
			c-14.831,31.691-16.943,29.909-15.114,33.735c123.02,276.188,76.339,157.542,175.981,462.338
			c-305.153,98.543-181.728,66.569-477.478,129.384c-4.17,0.77-1.488,1.431-18.409,32.057
			c-9.331-15.824-24.197-19.362-36.393-15.268c-12.273,3.857-22.22,15.457-20.468,33.744
			c-31.691-14.831-29.909-16.943-33.735-15.114c-276.188,123.02-157.542,76.339-462.338,175.981
			c-98.543-305.153-66.569-181.728-129.384-477.478c-0.77-4.17-1.431-1.488-32.057-18.409c14.871-8.769,18.891-22.426,15.924-34.162
			c-4.498-11.238-15.777-19.924-32.963-18.278c14.831-31.691,16.943-29.909,15.114-33.735
			c-123.02-276.188-76.339-157.542-175.981-462.338c305.153-98.543,181.728-66.569,477.478-129.384
			c4.17-0.77,1.488-1.431,18.409-32.057C627.184,315.497,642.05,319.034,654.246,314.941z M1372.84,632.009
			c-4.665-11.474-16.235-20.203-31.909-18.395c-1.268-4.541-2.438,2.063,13.775-31.543
			c-107.883-241.12-63.376-120.839-177.921-473.511C824.14,223.186,947.609,188.494,689.127,242.941
			c-17.659,32.87-13.004,28.041-17.423,29.685c-8.236-14.604-23.374-18.465-35.874-14.361
			c-12.525,4.027-22.502,16.048-20.581,32.704c-4.541,1.268,2.064,2.438-31.543-13.775
			c-241.12,107.883-120.839,63.376-473.511,177.921c114.627,352.645,79.935,229.176,134.382,487.658
			c32.87,17.659,28.041,13.004,29.685,17.423c-13.743,7.751-17.972,21.613-15.003,33.638c4.665,11.474,16.235,20.203,31.909,18.395
			c1.268,4.541,2.438-2.063-13.775,31.543c107.883,241.12,63.376,120.839,177.921,473.511
			c352.645-114.627,229.176-79.935,487.657-134.382c17.659-32.87,13.004-28.042,17.423-29.685
			c8.236,14.604,23.374,18.465,35.874,14.361c12.525-4.027,22.502-16.048,20.581-32.704c4.541-1.268-2.064-2.438,31.543,13.775
			c241.12-107.883,120.839-63.376,473.511-177.921c-114.627-352.645-79.935-229.176-134.382-487.657
			c-32.87-17.659-28.041-13.004-29.684-17.423C1371.581,657.896,1375.81,644.034,1372.84,632.009z"/>
	</g>
	<g>
		<path d="M695.09,243.849c14.01-2.837,26.349-14.499,26.537-34.911c33.297,20.069,31.083,22.196,35.523,20.62
			c319.482-103.862,182.954-66.06,531.333-140.766c73.451,348.646,52.454,208.546,87.516,542.652
			c0.366,4.698,1.408,1.81,33.285,24.065c-17.451,7.963-23.48,22.588-21.564,35.9c3.665,12.941,15.12,23.849,34.302,24.026
			c-20.069,33.297-22.196,31.083-20.62,35.523c103.862,319.482,66.06,182.954,140.766,531.333
			c-348.646,73.451-208.546,52.454-542.652,87.516c-4.698,0.366-1.81,1.408-24.065,33.285c-8.473-18.57-24.49-24.205-38.442-21.099
			c-14.01,2.837-26.349,14.5-26.537,34.911c-33.296-20.069-31.082-22.196-35.523-20.62
			c-319.482,103.863-182.954,66.06-531.333,140.766c-73.451-348.646-52.454-208.546-87.516-542.652
			c-0.366-4.698-1.408-1.81-33.285-24.065c17.451-7.963,23.48-22.588,21.564-35.9c-3.665-12.941-15.12-23.849-34.302-24.026
			c20.069-33.297,22.196-31.083,20.62-35.523C126.834,555.403,164.637,691.931,89.93,343.552
			c348.646-73.451,208.546-52.454,542.652-87.516c4.698-0.366,1.81-1.408,24.065-33.285
			C665.121,241.32,681.137,246.955,695.09,243.849z M1452.329,677.676c-3.823-13.22-15.594-24.21-33.124-24.033
			c-0.874-5.165-2.934,1.997,18.885-33.256c-91.209-278.973-55.998-140.891-141.612-543.905
			c-402.995,85.708-262.528,61.713-554.481,91.857c-23.331,34.271-17.627,29.476-22.7,30.779
			c-7.405-17.094-23.684-23.119-37.974-20.035c-14.308,2.995-26.729,15.12-26.541,33.748c-5.165,0.874,1.997,2.934-33.256-18.885
			C342.552,285.155,480.635,249.943,77.62,335.557c85.708,402.995,61.713,262.528,91.857,554.481
			c34.271,23.331,29.476,17.627,30.779,22.7c-16.087,6.969-22.37,21.796-20.485,35.428c3.823,13.22,15.594,24.21,33.124,24.033
			c0.874,5.165,2.934-1.997-18.885,33.256c91.209,278.973,55.998,140.891,141.612,543.905
			c402.995-85.708,262.528-61.713,554.481-91.857c23.331-34.271,17.627-29.476,22.7-30.779
			c7.405,17.094,23.684,23.119,37.973,20.035c14.308-2.995,26.729-15.12,26.541-33.748c5.165-0.874-1.997-2.934,33.256,18.885
			c278.973-91.209,140.891-55.998,543.905-141.612c-85.708-402.995-61.713-262.528-91.857-554.481
			c-34.271-23.331-29.476-17.627-30.779-22.7C1447.93,706.136,1454.214,691.308,1452.329,677.676z"/>
	</g>
	<g>
		<path d="M748.479,170.033c15.81-1.508,30.801-12.962,33.379-35.495c34.462,26.044,31.769,28.137,36.859,26.911
			c365.098-77.665,209.841-51.749,603.485-93.84c40.672,393.794,33.742,236.54,33.683,609.808
			c-0.141,5.234,1.346,2.164,33.986,30.458c-20.209,6.772-28.569,22.233-27.998,37.166c2.547,14.726,13.938,28.11,35.114,30.533
			c-26.044,34.462-28.137,31.769-26.911,36.859c77.665,365.098,51.749,209.841,93.839,603.485
			c-393.794,40.672-236.54,33.742-609.808,33.683c-5.234-0.141-2.164,1.346-30.458,33.986
			c-7.206-21.505-24.251-29.592-40.029-27.779c-15.81,1.507-30.801,12.962-33.379,35.495
			c-34.462-26.044-31.769-28.137-36.859-26.911c-365.098,77.665-209.841,51.749-603.485,93.839
			c-40.672-393.794-33.742-236.54-33.683-609.808c0.141-5.234-1.346-2.164-33.986-30.458c20.209-6.772,28.569-22.233,27.998-37.166
			c-2.547-14.726-13.938-28.11-35.114-30.533c26.044-34.462,28.137-31.769,26.911-36.859
			c-77.665-365.098-51.749-209.841-93.84-603.485c393.794-40.672,236.54-33.742,609.808-33.683
			c5.234,0.141,2.164-1.346,30.458-33.986C715.657,163.759,732.701,171.846,748.479,170.033z M1534.861,737.371
			c-2.689-15.053-14.42-28.564-33.812-30.405c-0.366-5.809-3.474,1.866,24.731-34.556
			c-68.388-318.865-45.515-162.191-93.314-617.476c-455.273,47.905-297.268,37.703-623.383,37.106
			c-29.762,35.161-22.901,30.525-28.659,31.375c-6.197-19.75-23.486-28.297-39.635-26.55c-16.159,1.648-31.293,13.604-33.249,34.21
			c-5.808,0.366,1.866,3.474-34.556-24.731c-318.865,68.388-162.191,45.515-617.476,93.314
			c47.905,455.273,37.703,297.268,37.106,623.383c35.161,29.762,30.525,22.901,31.375,28.659
			c-18.586,5.832-27.251,21.487-26.751,36.77c2.689,15.053,14.42,28.564,33.812,30.405c0.366,5.809,3.474-1.866-24.731,34.556
			c68.388,318.865,45.515,162.191,93.314,617.476c455.273-47.905,297.268-37.703,623.383-37.106
			c29.762-35.161,22.901-30.525,28.659-31.375c6.197,19.75,23.486,28.297,39.635,26.55c16.159-1.648,31.293-13.604,33.248-34.21
			c5.809-0.366-1.866-3.474,34.556,24.731c318.865-68.388,162.191-45.515,617.476-93.314
			c-47.905-455.273-37.703-297.268-37.106-623.383c-35.161-29.762-30.525-22.901-31.375-28.659
			C1526.695,768.309,1535.361,752.654,1534.861,737.371z"/>
	</g>
	<g>
		<path d="M816.05,94.667c17.646,0.17,35.541-10.746,41.007-35.346c35.057,32.782,31.838,34.782,37.605,34.018
			c412.463-43.418,237.889-32.812,677.765-33.605c-0.792,439.875,9.814,265.302-33.604,677.765
			c-0.764,5.767,1.236,2.547,34.018,37.605c-23.118,5.136-34.152,21.25-35.256,37.818c1.104,16.568,12.137,32.681,35.256,37.818
			c-32.782,35.057-34.782,31.838-34.018,37.605c43.418,412.463,32.812,237.889,33.604,677.765
			c-439.875-0.792-265.302,9.814-677.765-33.604c-5.767-0.764-2.547,1.236-37.605,34.018c-5.466-24.6-23.361-35.516-41.007-35.346
			c-17.646-0.17-35.541,10.746-41.007,35.346c-35.057-32.782-31.838-34.782-37.605-34.018
			c-412.463,43.418-237.889,32.812-677.765,33.604c0.793-439.875-9.814-265.302,33.605-677.765
			c0.764-5.767-1.236-2.547-34.018-37.605c23.118-5.136,34.152-21.25,35.256-37.818c-1.104-16.568-12.137-32.681-35.256-37.818
			c32.782-35.057,34.782-31.838,34.018-37.605C49.86,325.036,60.466,499.61,59.674,59.734
			c439.875,0.793,265.302-9.814,677.765,33.605c5.767,0.764,2.547-1.236,37.605-34.018C780.509,83.921,798.404,94.837,816.05,94.667
			z M1619.128,812.921c-1.223-16.946-12.617-33.239-33.832-37.525c0.271-6.461-4.056,1.658,31.341-35.313
			c-38.536-360.296-31.458-184.511-31.399-693.163c-508.652,0.059-332.867,7.138-693.163-31.399
			c-36.971,35.397-28.852,31.071-35.313,31.341c-4.555-22.544-22.667-33.997-40.714-33.942
			c-18.047-0.056-36.159,11.398-40.714,33.942c-6.461-0.271,1.658,4.056-35.313-31.341C379.727,54.058,555.512,46.98,46.86,46.92
			c0.059,508.652,7.138,332.867-31.399,693.163c35.397,36.971,31.071,28.852,31.341,35.313
			c-21.215,4.286-32.609,20.579-33.832,37.525c1.223,16.946,12.617,33.239,33.832,37.525c-0.271,6.461,4.056-1.658-31.341,35.313
			c38.536,360.296,31.458,184.512,31.399,693.163c508.652-0.059,332.867-7.138,693.163,31.399
			c36.971-35.397,28.852-31.071,35.313-31.341c4.555,22.544,22.667,33.997,40.714,33.942c18.047,0.056,36.159-11.398,40.714-33.942
			c6.461,0.271-1.658-4.056,35.313,31.341c360.296-38.536,184.512-31.458,693.163-31.399
			c-0.059-508.652-7.138-332.867,31.399-693.163c-35.397-36.971-31.071-28.852-31.341-35.313
			C1606.512,846.16,1617.905,829.867,1619.128,812.921z"/>
	</g>
</g>
</svg>
