<?xml version="1.0" standalone="no"?>
<!DOCTYPE svg PUBLIC "-//W3C//DTD SVG 20010904//EN"
 "http://www.w3.org/TR/2001/REC-SVG-20010904/DTD/svg10.dtd">
<svg version="1.0" xmlns="http://www.w3.org/2000/svg"
 width="1024.000000pt" height="1024.000000pt" viewBox="0 0 1024.000000 1024.000000"
 preserveAspectRatio="xMidYMid meet">
<metadata>
Created by potrace 1.16, written by Peter Selinger 2001-2019
</metadata>
<g transform="translate(0.000000,1024.000000) scale(0.100000,-0.100000)"
fill="#000000" stroke="none">
<path d="M8265 8940 c-126 -5 -311 -13 -410 -19 -99 -6 -322 -15 -495 -21
-173 -5 -373 -14 -445 -20 -71 -5 -292 -14 -490 -20 -198 -6 -439 -15 -535
-20 -96 -5 -247 -12 -335 -15 -283 -9 -417 -16 -535 -25 -63 -6 -257 -15 -430
-20 -173 -6 -448 -17 -610 -25 -162 -8 -430 -19 -595 -25 -165 -5 -392 -14
-505 -19 -262 -13 -607 -27 -1130 -46 -228 -8 -491 -22 -585 -31 l-170 -15
-110 -55 c-122 -61 -232 -140 -301 -218 -62 -68 -169 -233 -212 -326 -46 -100
-91 -280 -103 -415 -9 -99 -5 -556 6 -645 6 -49 13 -225 25 -590 5 -173 12
-353 15 -400 3 -47 10 -229 15 -405 11 -337 24 -684 40 -1050 5 -121 12 -326
15 -455 3 -129 8 -248 10 -265 3 -16 9 -138 15 -270 5 -132 12 -296 15 -365 8
-188 25 -463 30 -476 2 -7 -10 -31 -27 -54 -17 -23 -47 -84 -67 -135 l-37 -95
-89 -67 c-96 -73 -165 -160 -185 -232 -5 -21 -19 -46 -30 -56 -19 -18 -20 -31
-20 -442 l0 -424 28 15 c26 14 75 62 139 138 17 21 34 34 37 29 3 -5 15 -82
26 -171 12 -89 28 -179 36 -201 22 -54 72 -84 126 -75 55 9 75 21 98 59 25 40
25 95 1 292 -17 137 -17 151 -3 163 9 6 19 12 24 12 11 0 56 -92 128 -263 34
-82 74 -162 87 -178 23 -27 29 -29 98 -29 69 0 75 2 99 31 38 45 39 102 2 189
-13 30 -49 124 -81 208 l-58 152 27 70 c15 39 33 70 39 70 49 2 216 20 234 26
21 6 23 3 23 -33 0 -48 18 -67 83 -89 46 -15 49 -15 95 8 66 32 74 53 67 168
l-6 95 98 -3 c54 -2 208 1 343 7 135 6 364 16 510 21 146 5 400 17 565 25 165
9 482 22 705 30 223 8 502 19 620 25 118 5 330 14 470 20 253 10 419 16 1220
45 828 30 958 35 1130 45 96 6 344 15 550 20 206 6 463 15 570 20 107 5 305
12 440 15 357 9 476 19 618 55 151 38 221 68 337 145 202 134 363 348 444 592
23 68 41 129 41 137 0 7 34 47 76 87 41 41 93 100 115 133 l39 58 0 583 c0
545 -1 585 -19 637 -51 150 -160 354 -257 484 -42 56 -44 61 -44 129 0 38 -4
237 -10 440 -5 204 -12 474 -15 600 -3 127 -8 266 -11 310 -3 44 -11 339 -19
655 -12 475 -18 599 -35 713 -23 154 -73 319 -124 412 -18 33 -46 83 -61 110
-16 28 -58 84 -93 125 -150 172 -292 272 -522 365 l-95 38 -220 3 c-121 1
-323 -2 -450 -6z m822 -662 c44 -22 64 -60 74 -139 5 -41 16 -294 25 -564 8
-269 20 -625 25 -790 6 -165 9 -344 7 -397 -3 -91 -5 -98 -32 -127 -55 -57
-89 -63 -441 -72 -176 -5 -432 -13 -570 -19 -137 -6 -356 -15 -485 -20 l-235
-10 -52 27 c-81 41 -86 49 -94 171 -11 159 -11 212 2 212 16 0 207 -189 214
-211 3 -9 27 -33 52 -53 39 -31 54 -36 97 -36 96 0 162 66 151 152 -7 59 -52
171 -96 240 -91 142 -250 285 -371 335 -60 25 -69 32 -73 58 -5 34 -11 259
-21 742 l-7 331 27 47 c18 30 40 52 61 61 38 15 248 30 550 39 116 3 257 8
315 10 138 6 549 25 625 29 99 6 224 -2 252 -16z m-2130 -93 c23 -14 49 -39
58 -54 16 -33 31 -249 40 -601 3 -124 8 -282 11 -352 l7 -128 -73 0 c-39 0
-118 -9 -173 -20 -258 -52 -460 -216 -589 -477 -48 -96 -52 -111 -53 -176 0
-89 29 -150 88 -180 61 -31 97 -15 195 90 45 49 89 99 98 111 24 34 164 136
230 167 69 33 203 58 262 50 l42 -6 0 -206 0 -206 -42 -42 c-51 -51 -58 -52
-333 -60 -464 -13 -625 -19 -1184 -44 -197 -9 -258 -2 -311 37 -41 31 -48 57
-54 211 -4 80 -11 225 -16 321 -5 96 -14 355 -20 575 -6 220 -15 483 -20 585
-8 152 -7 193 4 232 21 67 31 84 70 108 45 27 139 34 916 60 333 11 612 22
620 24 8 2 53 4 99 5 73 1 90 -2 128 -24z m-2151 -83 c31 -16 48 -34 65 -69
22 -45 24 -64 31 -313 4 -146 12 -357 17 -470 17 -334 35 -1083 27 -1113 -10
-42 -47 -73 -107 -93 -41 -13 -114 -18 -309 -25 -283 -8 -722 -25 -1050 -39
-235 -10 -291 -5 -339 29 -62 44 -64 57 -73 376 -4 160 -12 398 -18 530 -5
132 -15 416 -21 630 -13 436 -12 445 52 484 37 23 88 28 329 36 96 3 231 10
300 15 69 5 274 15 455 20 182 6 355 15 385 20 92 15 209 6 256 -18z m-2089
-91 c29 -21 45 -42 53 -68 13 -46 26 -282 40 -733 5 -184 17 -471 26 -638 18
-343 16 -492 -8 -537 -9 -17 -35 -41 -59 -54 -45 -26 -104 -30 -599 -45 -107
-3 -283 -11 -390 -16 -818 -41 -824 -41 -882 68 -25 46 -26 52 -32 342 -4 162
-15 484 -26 715 -35 773 -34 737 -16 792 19 56 55 95 105 112 18 6 169 15 335
21 287 10 394 15 796 40 208 13 424 24 535 28 76 3 83 1 122 -27z m6456 -2112
c34 -18 68 -52 79 -79 6 -14 14 -146 18 -295 4 -148 14 -455 21 -681 14 -452
15 -446 -46 -506 -31 -31 -62 -38 -171 -38 l-83 0 -15 53 c-30 105 -36 137
-56 263 -34 222 -25 288 67 493 54 119 57 131 57 206 1 75 -1 84 -30 123 -51
70 -80 87 -146 87 l-58 0 -29 47 c-76 119 -240 118 -388 -1 l-60 -49 9 40 c11
51 28 84 95 185 29 45 59 96 64 113 6 16 18 31 27 31 206 17 618 22 645 8z
m-1063 -35 c0 -4 -9 -21 -20 -39 -27 -44 -60 -188 -60 -266 0 -122 52 -278
124 -372 l37 -48 -11 -80 c-14 -104 -15 -321 -1 -431 10 -75 51 -281 66 -329
5 -14 -16 -18 -157 -28 -190 -14 -447 -26 -1003 -46 -220 -8 -468 -18 -552
-21 -179 -8 -203 -2 -235 60 -20 39 -22 66 -34 471 -7 237 -18 539 -24 672 -6
134 -9 257 -5 275 10 47 51 104 88 121 24 11 94 16 282 21 138 4 374 11 525
17 230 9 607 20 913 27 37 1 67 -1 67 -4z m-2153 -80 c57 -41 60 -61 72 -414
33 -979 35 -1093 18 -1133 -9 -20 -26 -41 -39 -46 -35 -13 -262 -31 -468 -38
-223 -7 -249 0 -279 70 -17 39 -21 99 -36 543 -9 275 -20 582 -25 684 -11 238
2 292 77 321 13 5 124 14 246 20 122 5 227 12 232 13 6 2 47 3 92 2 65 -1 87
-5 110 -22z m-1048 -32 c55 -28 68 -65 75 -215 13 -293 16 -373 25 -637 24
-680 24 -645 2 -695 -28 -63 -53 -71 -246 -79 -88 -4 -224 -11 -303 -17 -151
-10 -163 -8 -211 35 -47 42 -42 -13 -71 776 -7 179 -13 425 -14 548 l-1 224
27 23 c34 29 62 33 298 44 319 14 381 13 419 -7z m-1028 -35 c20 -13 39 -37
45 -57 7 -19 15 -111 18 -205 4 -93 11 -253 16 -355 5 -102 15 -345 21 -541
12 -346 12 -357 -7 -389 -34 -58 -61 -71 -170 -80 -146 -13 -517 -24 -547 -16
-15 3 -39 25 -57 51 -29 43 -32 54 -40 173 -5 70 -14 307 -20 527 -6 220 -15
485 -19 590 -8 177 -8 193 10 227 29 56 56 65 219 73 80 4 206 11 280 15 221
12 214 12 251 -13z m-1059 -43 c62 -30 71 -53 80 -209 4 -77 12 -228 17 -335
6 -107 16 -366 22 -576 11 -356 11 -383 -6 -417 -32 -69 -61 -81 -220 -89
-159 -9 -696 -27 -797 -28 l-68 0 21 52 c11 29 24 57 28 63 5 5 17 35 29 65
22 61 148 346 188 426 57 115 67 214 33 318 -52 157 -234 270 -382 237 -176
-40 -276 -156 -398 -463 -22 -57 -44 -107 -49 -113 -4 -5 -38 -82 -75 -170
-160 -381 -184 -425 -231 -425 -49 0 -56 37 -70 380 -14 341 -22 517 -33 735
-5 77 -7 192 -7 255 1 106 3 119 28 161 42 71 58 75 338 89 135 6 265 13 290
15 25 2 240 9 479 15 239 6 469 15 510 19 133 14 237 12 273 -5z m6423 -1678
c56 -24 90 -95 100 -211 5 -53 4 -55 -15 -45 -42 23 -200 231 -200 265 0 11
82 4 115 -9z m-1351 -27 c42 -19 62 -94 71 -264 17 -333 40 -882 40 -960 -1
-114 -15 -144 -83 -173 -45 -20 -77 -22 -493 -31 -244 -6 -475 -13 -514 -16
-38 -3 -218 -10 -400 -15 -181 -6 -474 -17 -650 -25 -176 -8 -549 -22 -830
-30 -641 -20 -1004 -32 -1310 -45 -532 -22 -923 -34 -1162 -34 l-251 -1 -21
24 c-35 40 -40 84 -51 401 -6 168 -15 420 -20 560 -6 171 -6 268 1 293 16 60
52 94 112 106 29 6 232 18 452 26 220 8 499 20 620 25 367 16 963 40 1280 50
165 5 352 12 415 15 153 6 341 13 722 25 174 6 327 13 340 15 13 3 178 9 368
15 388 11 547 17 900 35 326 16 434 17 464 4z m491 -99 c43 -108 152 -304 233
-420 141 -201 299 -348 459 -429 83 -41 200 -81 238 -81 21 0 25 -7 36 -57 17
-81 14 -164 -6 -206 -39 -82 -127 -95 -693 -99 l-353 -3 -29 32 c-16 18 -33
49 -39 70 -5 21 -12 184 -15 363 -3 179 -10 377 -15 440 -5 63 -11 188 -13
276 -3 150 -2 163 17 184 27 30 52 40 99 37 l40 -2 41 -105z m-6456 -137 c14
-11 36 -39 48 -64 21 -42 23 -63 32 -449 6 -223 13 -486 16 -585 6 -210 0
-235 -71 -271 -39 -19 -64 -21 -385 -28 -189 -4 -383 -9 -432 -13 l-88 -5 52
103 c28 57 56 118 62 134 6 17 24 55 40 85 48 88 97 190 97 199 0 5 16 37 35
71 19 34 35 64 35 66 0 3 15 37 34 77 18 40 47 101 64 137 16 36 55 121 87
190 32 69 87 183 122 254 l65 129 80 -6 c57 -4 89 -11 107 -24z"/>
<path d="M7975 7850 c-98 -24 -174 -86 -216 -174 -65 -138 -41 -287 64 -383
61 -57 127 -84 219 -90 70 -5 81 -3 140 25 85 40 131 85 167 162 53 111 40
240 -33 335 -84 111 -211 158 -341 125z"/>
<path d="M5879 7674 c-61 -18 -138 -71 -166 -112 -39 -58 -63 -138 -63 -208 0
-226 256 -390 452 -288 82 43 128 86 160 152 29 59 33 76 33 147 -1 70 -5 88
-35 149 -25 50 -47 78 -80 102 -93 69 -199 90 -301 58z"/>
<path d="M3895 7733 c-65 -7 -67 -12 -62 -142 2 -64 9 -303 16 -531 6 -228 14
-479 17 -558 l6 -143 132 7 c72 4 132 8 133 9 2 1 -1 89 -7 196 -5 107 -11
284 -15 394 -13 494 -16 566 -21 657 -6 97 -7 97 -37 107 -29 11 -82 12 -162
4z"/>
<path d="M2218 7545 c-2 -2 -86 -6 -188 -9 -102 -4 -264 -11 -360 -16 -96 -5
-264 -12 -373 -16 -229 -7 -233 -9 -223 -82 3 -25 6 -58 6 -73 0 -18 5 -27 13
-24 6 2 134 6 282 10 149 4 358 10 465 15 431 19 685 31 686 33 1 1 -1 38 -4
82 l-7 80 -147 1 c-81 1 -148 1 -150 -1z"/>
<path d="M2040 7134 c-157 -7 -390 -17 -519 -23 -129 -6 -279 -11 -334 -11
l-100 0 7 -82 c4 -46 10 -86 15 -91 10 -10 732 10 1034 28 131 8 277 15 324
15 l85 0 -6 83 c-3 45 -6 86 -6 90 0 9 -122 7 -500 -9z"/>
<path d="M2295 6740 c-239 -9 -400 -16 -665 -30 -102 -5 -247 -10 -322 -10
-164 0 -168 -2 -168 -112 l0 -68 53 0 c52 0 479 15 697 24 63 3 239 11 390 17
151 6 277 14 281 18 3 3 3 42 0 86 -7 95 27 85 -266 75z"/>
<path d="M10080 80 l0 -80 80 0 80 0 0 80 0 80 -80 0 -80 0 0 -80z"/>
</g>
</svg>
