%TF.GenerationSoftware,KiCad,Pcbnew,(6.0.10)*%
%TF.CreationDate,2023-03-07T00:12:56-08:00*%
%TF.ProjectId,fr4 plate,66723420-706c-4617-9465-2e6b69636164,rev?*%
%TF.SameCoordinates,Original*%
%TF.FileFunction,Drillmap*%
%TF.FilePolarity,Positive*%
%FSLAX45Y45*%
G04 Gerber Fmt 4.5, Leading zero omitted, Abs format (unit mm)*
G04 Created by KiCad (PCBNEW (6.0.10)) date 2023-03-07 00:12:56*
%MOMM*%
%LPD*%
G01*
G04 APERTURE LIST*
%ADD10C,0.188976*%
%ADD11C,0.050000*%
%ADD12C,0.200000*%
%ADD13C,0.640000*%
G04 APERTURE END LIST*
D10*
X19228100Y-18715000D02*
X23190600Y-18715000D01*
X23276301Y-12070000D02*
X23276301Y-12070000D01*
X27353100Y-19185000D02*
X28753100Y-19185000D01*
X33473101Y-14725000D02*
X33473101Y-14725000D01*
X9465001Y-9183800D02*
X9465001Y-9183800D01*
X16608701Y-10165000D02*
X16608701Y-10165000D01*
X19942501Y-15375000D02*
X19942501Y-13975000D01*
X21371301Y-13470000D02*
X21371301Y-13470000D01*
X23276301Y-9183800D02*
X23276301Y-7783800D01*
X18990000Y-17280000D02*
X18990000Y-17280000D01*
X32953802Y-10312000D02*
X32953802Y-10635000D01*
X16132501Y-13975000D02*
X16132501Y-13975000D01*
X23781301Y-12070000D02*
X23781301Y-13470000D01*
X33390600Y-14725000D02*
X33390600Y-14725000D01*
X31935601Y-15935000D02*
X31935601Y-15935000D01*
X31010601Y-14122000D02*
X30838000Y-14122000D01*
X35211300Y-19185000D02*
X36611300Y-19185000D01*
X30746200Y-10220000D02*
X30746200Y-10220000D01*
X6219401Y-17355000D02*
X6549400Y-17355000D01*
X31935601Y-15935000D02*
X31935601Y-16027000D01*
X30896200Y-13470000D02*
X30896200Y-12070000D01*
X30335601Y-14445000D02*
X30253100Y-14445000D01*
X13693101Y-17932000D02*
X13693101Y-17932000D01*
X26162501Y-15375000D02*
X26162501Y-15375000D01*
X10893801Y-11565000D02*
X10893801Y-10165000D01*
X19466300Y-12070000D02*
X18066300Y-12070000D01*
X20923800Y-11565000D02*
X20923800Y-11565000D01*
X34706301Y-19185000D02*
X34706301Y-17785000D01*
X21876301Y-7783800D02*
X21876301Y-9183800D01*
X30253100Y-14445000D02*
X30253100Y-14725000D01*
X20418801Y-11565000D02*
X20418801Y-11565000D01*
X24705001Y-17280000D02*
X24705001Y-17280000D01*
X6046901Y-16027000D02*
X6046901Y-16350000D01*
X28515000Y-17280000D02*
X28515000Y-17280000D01*
X17561301Y-9183800D02*
X17561301Y-7783800D01*
X34925500Y-9183800D02*
X34925500Y-9183800D01*
X27115000Y-15880000D02*
X27115000Y-17280000D01*
X13303800Y-10165000D02*
X13303800Y-11565000D01*
X15208701Y-11565000D02*
X15208701Y-11565000D01*
X31248800Y-11542000D02*
X31248800Y-11095000D01*
X13780000Y-15880000D02*
X13780000Y-17280000D01*
X31010601Y-14905000D02*
X31010601Y-14905000D01*
X28753100Y-19185000D02*
X28753100Y-17785000D01*
X32520602Y-16630000D02*
X32520602Y-16630000D01*
X31877502Y-12070000D02*
X31877502Y-13470000D01*
X31248800Y-11095000D02*
X31401299Y-11095000D01*
X16608701Y-11565000D02*
X16608701Y-10165000D01*
X31163101Y-15375000D02*
X32563101Y-15375000D01*
X17590000Y-17280000D02*
X17590000Y-17280000D01*
X26638801Y-11565000D02*
X26638801Y-11565000D01*
X33218099Y-15352000D02*
X33390600Y-15352000D01*
X17828001Y-18715000D02*
X17828001Y-18715000D01*
X8599401Y-15935000D02*
X8599401Y-16027000D01*
X28543801Y-11565000D02*
X29943801Y-11565000D01*
X30058100Y-16810000D02*
X30210601Y-16810000D01*
X30335601Y-14122000D02*
X30335601Y-14122000D01*
X35211300Y-17785000D02*
X35211300Y-19185000D01*
X23363101Y-19260000D02*
X23363101Y-19260000D01*
X31010601Y-15352000D02*
X31010601Y-15352000D01*
X6160001Y-12070000D02*
X6160001Y-13470000D01*
X33277502Y-13470000D02*
X33277502Y-13470000D01*
X24971900Y-19185000D02*
X24971900Y-19185000D01*
X24257501Y-15375000D02*
X24257501Y-15375000D01*
X11846301Y-12070000D02*
X10446301Y-12070000D01*
X27562501Y-15375000D02*
X27562501Y-15375000D01*
X15685001Y-17280000D02*
X17085001Y-17280000D01*
X30573800Y-10312000D02*
X30573800Y-10312000D01*
X27086300Y-13470000D02*
X27086300Y-13470000D01*
X23276301Y-13470000D02*
X23276301Y-12070000D01*
X12322501Y-15375000D02*
X12322501Y-13975000D01*
X14703800Y-11565000D02*
X14703800Y-11565000D01*
X28753100Y-17785000D02*
X28753100Y-17785000D01*
X7083800Y-7783800D02*
X7083800Y-7783800D01*
X31610601Y-17280000D02*
X31610601Y-17280000D01*
X31763101Y-16810000D02*
X31763101Y-17257000D01*
X13190601Y-18255000D02*
X13108100Y-18255000D01*
X13865601Y-18715000D02*
X13865601Y-18715000D01*
X31401299Y-10635000D02*
X31248800Y-10635000D01*
X33218099Y-15352000D02*
X33218099Y-15352000D01*
X30573800Y-10915000D02*
X30573800Y-11542000D01*
X13303800Y-11565000D02*
X13303800Y-11565000D01*
X17561301Y-13470000D02*
X17561301Y-13470000D01*
X33456301Y-10312000D02*
X33456301Y-10312000D01*
X28515000Y-17280000D02*
X28515000Y-15880000D01*
X31010601Y-14445000D02*
X31010601Y-14122000D01*
X6549400Y-15935000D02*
X6219401Y-15935000D01*
X31763101Y-17257000D02*
X31763101Y-17257000D01*
X28067501Y-9183800D02*
X28067501Y-9183800D01*
X8274400Y-16810000D02*
X8274400Y-16810000D01*
X27562501Y-9183800D02*
X27562501Y-9183800D01*
X30896200Y-12070000D02*
X30896200Y-12070000D01*
X15208701Y-11565000D02*
X16608701Y-11565000D01*
X36325500Y-11593800D02*
X36325500Y-11593800D01*
X11370001Y-17280000D02*
X11370001Y-15880000D01*
X27591300Y-13470000D02*
X27591300Y-13470000D01*
X33218099Y-15450000D02*
X33218099Y-15450000D01*
X32888101Y-14030000D02*
X32888101Y-14122000D01*
X7083800Y-11565000D02*
X7083800Y-11565000D01*
X30508100Y-14030000D02*
X30508100Y-14122000D01*
X29383100Y-16027000D02*
X29383100Y-16350000D01*
X32563101Y-15375000D02*
X32563101Y-15375000D01*
X13190601Y-18255000D02*
X13190601Y-18255000D01*
X32953802Y-10635000D02*
X32953802Y-10635000D01*
X31401299Y-17785000D02*
X31401299Y-19185000D01*
X10922500Y-15375000D02*
X12322501Y-15375000D01*
X8065000Y-7783800D02*
X8065000Y-9183800D01*
X22352500Y-15375000D02*
X22352500Y-15375000D01*
X31610601Y-16810000D02*
X31763101Y-16810000D01*
X8599401Y-15935000D02*
X8599401Y-15935000D01*
X7083800Y-11565000D02*
X7083800Y-10165000D01*
X8426901Y-16027000D02*
X8426901Y-16027000D01*
X33306301Y-19185000D02*
X34706301Y-19185000D01*
X17561301Y-7783800D02*
X16161301Y-7783800D01*
X7798101Y-15375000D02*
X7798101Y-15375000D01*
X27591300Y-13470000D02*
X28991300Y-13470000D01*
X6549400Y-16027000D02*
X6549400Y-15935000D01*
X7321901Y-19185000D02*
X7321901Y-19185000D01*
X28515000Y-15880000D02*
X28515000Y-15880000D01*
X31610601Y-17280000D02*
X31610601Y-16810000D01*
X28515000Y-15880000D02*
X27115000Y-15880000D01*
X14227500Y-15375000D02*
X14227500Y-13975000D01*
X23305001Y-15880000D02*
X23305001Y-17280000D01*
X30838000Y-14122000D02*
X30838000Y-14122000D01*
X23865600Y-18255000D02*
X23865600Y-17932000D01*
X19018801Y-11565000D02*
X20418801Y-11565000D01*
X28067501Y-7783800D02*
X28067501Y-9183800D01*
X25657501Y-15375000D02*
X25657501Y-13975000D01*
X17828001Y-19185000D02*
X17828001Y-19185000D01*
X11846301Y-13470000D02*
X11846301Y-12070000D01*
X23190600Y-19162000D02*
X23363101Y-19162000D01*
X31372500Y-9183800D02*
X31372500Y-9183800D01*
X15180000Y-9183800D02*
X15180000Y-7783800D01*
X20895001Y-17280000D02*
X20895001Y-15880000D01*
X32953802Y-11095000D02*
X32953802Y-11542000D01*
X27562501Y-7783800D02*
X26162501Y-7783800D01*
X32801299Y-11565000D02*
X32801299Y-11095000D01*
X10893801Y-11565000D02*
X10893801Y-11565000D01*
X23276301Y-7783800D02*
X21876301Y-7783800D01*
X31372500Y-7783800D02*
X31372500Y-7783800D01*
X33277502Y-12070000D02*
X33277502Y-12070000D01*
X19942501Y-13975000D02*
X19942501Y-13975000D01*
X13303800Y-11565000D02*
X14703800Y-11565000D01*
X29885601Y-17257000D02*
X29885601Y-17257000D01*
X6549400Y-17257000D02*
X6721901Y-17257000D01*
X20895001Y-17280000D02*
X20895001Y-17280000D01*
X24733801Y-11565000D02*
X26133801Y-11565000D01*
X7321901Y-17785000D02*
X5921901Y-17785000D01*
X30573800Y-11542000D02*
X30746200Y-11542000D01*
X24705001Y-17280000D02*
X24705001Y-15880000D01*
X11846301Y-12070000D02*
X11846301Y-12070000D01*
X13190601Y-17932000D02*
X13190601Y-17932000D01*
X9703101Y-17785000D02*
X9703101Y-17785000D01*
X8929400Y-16027000D02*
X8929400Y-15935000D01*
X30491300Y-10635000D02*
X30491300Y-10635000D01*
X23276301Y-7783800D02*
X23276301Y-7783800D01*
X23865600Y-18535000D02*
X23948101Y-18535000D01*
X32888101Y-15450000D02*
X32888101Y-15450000D01*
X31010601Y-15352000D02*
X31010601Y-14905000D01*
X21371301Y-9183800D02*
X21371301Y-9183800D01*
X26162501Y-15375000D02*
X27562501Y-15375000D01*
X13780000Y-17280000D02*
X15180000Y-17280000D01*
X18542501Y-13975000D02*
X18542501Y-15375000D01*
X34706301Y-19185000D02*
X34706301Y-19185000D01*
X30838000Y-14030000D02*
X30838000Y-14030000D01*
X24228800Y-10165000D02*
X24228800Y-10165000D01*
X13108100Y-18255000D02*
X13108100Y-18535000D01*
X6549400Y-17355000D02*
X6549400Y-17355000D01*
X27562501Y-13975000D02*
X27562501Y-13975000D01*
X26371900Y-17785000D02*
X24971900Y-17785000D01*
X21847500Y-13975000D02*
X21847500Y-13975000D01*
X17590000Y-17280000D02*
X18990000Y-17280000D01*
X6398101Y-13975000D02*
X6398101Y-15375000D01*
X9101901Y-16027000D02*
X9101901Y-16027000D01*
X23865600Y-17932000D02*
X23865600Y-17932000D01*
X6721901Y-16350000D02*
X6721901Y-16350000D01*
X19228100Y-17785000D02*
X19228100Y-17785000D01*
X32265600Y-17355000D02*
X32265600Y-17355000D01*
X9970001Y-9183800D02*
X9970001Y-9183800D01*
X26162501Y-13975000D02*
X26162501Y-15375000D01*
X19971301Y-9183800D02*
X21371301Y-9183800D01*
X32715600Y-15352000D02*
X32715600Y-15352000D01*
X26162501Y-9183800D02*
X26162501Y-9183800D01*
X33628802Y-11542000D02*
X33628802Y-10915000D01*
X6219401Y-16027000D02*
X6046901Y-16027000D01*
X22352500Y-13975000D02*
X22352500Y-15375000D01*
X16161301Y-13470000D02*
X16161301Y-13470000D01*
X31401299Y-19185000D02*
X31401299Y-19185000D01*
X8988801Y-10165000D02*
X7588801Y-10165000D01*
X13751300Y-13470000D02*
X13751300Y-13470000D01*
X29555601Y-17355000D02*
X29885601Y-17355000D01*
X31372500Y-7783800D02*
X29972500Y-7783800D01*
X16161301Y-12070000D02*
X16161301Y-13470000D01*
X33218099Y-15450000D02*
X33218099Y-15352000D01*
X31010601Y-14445000D02*
X31010601Y-14445000D01*
X7083800Y-7783800D02*
X5683801Y-7783800D01*
X33126299Y-11542000D02*
X33126299Y-11640000D01*
X8065000Y-9183800D02*
X8065000Y-9183800D01*
X30058100Y-16027000D02*
X29885601Y-16027000D01*
X31163101Y-15375000D02*
X31163101Y-15375000D01*
X32438101Y-16350000D02*
X32438101Y-16350000D01*
X8599401Y-16027000D02*
X8426901Y-16027000D01*
X13275001Y-17280000D02*
X13275001Y-17280000D01*
X23693101Y-19260000D02*
X23693101Y-19260000D01*
X32438101Y-16630000D02*
X32438101Y-16630000D01*
X8599401Y-16027000D02*
X8599401Y-16027000D01*
X14256300Y-13470000D02*
X14256300Y-13470000D01*
X17561301Y-12070000D02*
X16161301Y-12070000D01*
X26371900Y-17785000D02*
X26371900Y-17785000D01*
X13275001Y-15880000D02*
X13275001Y-15880000D01*
X6398101Y-15375000D02*
X6398101Y-15375000D01*
X33456301Y-11640000D02*
X33456301Y-11542000D01*
X21876301Y-9183800D02*
X21876301Y-9183800D01*
X25210000Y-17280000D02*
X26610000Y-17280000D01*
X26610000Y-17280000D02*
X26610000Y-15880000D01*
X11370001Y-9183800D02*
X11370001Y-9183800D01*
X31163101Y-14905000D02*
X31163101Y-14905000D01*
X12827500Y-15375000D02*
X12827500Y-15375000D01*
X30335601Y-14122000D02*
X30335601Y-14445000D01*
X23693101Y-17932000D02*
X23693101Y-17840000D01*
X29555601Y-17355000D02*
X29555601Y-17355000D01*
X8599401Y-17355000D02*
X8929400Y-17355000D01*
X33126299Y-10220000D02*
X33126299Y-10220000D01*
X9017501Y-15375000D02*
X9017501Y-15375000D01*
X28038801Y-10165000D02*
X26638801Y-10165000D01*
X18066300Y-12070000D02*
X18066300Y-13470000D01*
X25181301Y-12070000D02*
X25181301Y-12070000D01*
X31076299Y-11640000D02*
X31076299Y-11640000D01*
X28991300Y-13470000D02*
X28991300Y-13470000D01*
X33473101Y-14445000D02*
X33390600Y-14445000D01*
X6046901Y-16630000D02*
X6046901Y-16630000D01*
X19971301Y-12070000D02*
X19971301Y-13470000D01*
X30058100Y-16027000D02*
X30058100Y-16027000D01*
X30058100Y-16350000D02*
X30058100Y-16350000D01*
X6219401Y-17257000D02*
X6219401Y-17257000D01*
X25210000Y-15880000D02*
X25210000Y-17280000D01*
X18513801Y-11565000D02*
X18513801Y-10165000D01*
X22323800Y-10165000D02*
X20923800Y-10165000D01*
X28038801Y-10165000D02*
X28038801Y-10165000D01*
X31163101Y-14445000D02*
X31163101Y-14445000D01*
X18513801Y-11565000D02*
X18513801Y-11565000D01*
X11370001Y-7783800D02*
X11370001Y-7783800D01*
X9101901Y-16350000D02*
X9101901Y-16350000D01*
X7588801Y-11565000D02*
X8988801Y-11565000D01*
X10893801Y-10165000D02*
X9493801Y-10165000D01*
X6721901Y-16810000D02*
X6721901Y-16810000D01*
X23190600Y-18715000D02*
X23190600Y-19162000D01*
X30573800Y-10635000D02*
X30491300Y-10635000D01*
X34925500Y-13498800D02*
X34925500Y-14898800D01*
X20418801Y-10165000D02*
X20418801Y-10165000D01*
X9493801Y-11565000D02*
X10893801Y-11565000D01*
X31610601Y-15880000D02*
X30210601Y-15880000D01*
X30210601Y-16350000D02*
X30210601Y-16350000D01*
X18037501Y-15375000D02*
X18037501Y-15375000D01*
X23752500Y-13975000D02*
X23752500Y-13975000D01*
X5683801Y-9183800D02*
X5683801Y-9183800D01*
X10417501Y-13975000D02*
X10417501Y-13975000D01*
X33390600Y-14445000D02*
X33390600Y-14122000D01*
X33456301Y-11542000D02*
X33456301Y-11542000D01*
X10893801Y-10165000D02*
X10893801Y-10165000D01*
X9970001Y-17280000D02*
X9970001Y-17280000D01*
X16637501Y-15375000D02*
X18037501Y-15375000D01*
X19971301Y-13470000D02*
X19971301Y-13470000D01*
X25657501Y-7783800D02*
X25657501Y-7783800D01*
X13751300Y-12070000D02*
X12351300Y-12070000D01*
X32888101Y-15352000D02*
X32888101Y-15352000D01*
X23190600Y-18255000D02*
X19228100Y-18255000D01*
X22323800Y-11565000D02*
X22323800Y-11565000D01*
X30746200Y-11640000D02*
X31076299Y-11640000D01*
X13275001Y-9183800D02*
X13275001Y-7783800D01*
X20447500Y-13975000D02*
X20447500Y-15375000D01*
X29943801Y-10165000D02*
X28543801Y-10165000D01*
X31401299Y-11095000D02*
X31401299Y-11095000D01*
X6046901Y-17257000D02*
X6219401Y-17257000D01*
X11875001Y-17280000D02*
X13275001Y-17280000D01*
X11370001Y-15880000D02*
X11370001Y-15880000D01*
X36611300Y-19185000D02*
X36611300Y-17785000D01*
X12351300Y-13470000D02*
X12351300Y-13470000D01*
X31401299Y-11565000D02*
X32801299Y-11565000D01*
X6721901Y-16810000D02*
X6874400Y-16810000D01*
X33473101Y-14445000D02*
X33473101Y-14445000D01*
X31163101Y-13975000D02*
X31163101Y-14445000D01*
X13751300Y-13470000D02*
X13751300Y-12070000D01*
X32953802Y-10635000D02*
X32801299Y-10635000D01*
X31401299Y-10635000D02*
X31401299Y-10635000D01*
X9703101Y-19185000D02*
X9703101Y-19185000D01*
X32801299Y-10635000D02*
X32801299Y-10635000D01*
X32563101Y-14445000D02*
X32563101Y-14445000D01*
X29467501Y-9183800D02*
X29467501Y-9183800D01*
X12351300Y-12070000D02*
X12351300Y-13470000D01*
X23948101Y-18535000D02*
X23948101Y-18255000D01*
X24705001Y-15880000D02*
X24705001Y-15880000D01*
X5964401Y-16350000D02*
X5964401Y-16630000D01*
X8541301Y-13470000D02*
X9941301Y-13470000D01*
X18513801Y-10165000D02*
X18513801Y-10165000D01*
X29496301Y-13470000D02*
X29496301Y-13470000D01*
X17561301Y-12070000D02*
X17561301Y-12070000D01*
X22800001Y-17280000D02*
X22800001Y-15880000D01*
X31076299Y-11640000D02*
X31076299Y-11542000D01*
X32801299Y-11565000D02*
X32801299Y-11565000D01*
X23693101Y-17932000D02*
X23693101Y-17932000D01*
X29885601Y-17355000D02*
X29885601Y-17355000D01*
X32953802Y-11542000D02*
X32953802Y-11542000D01*
X25181301Y-13470000D02*
X25181301Y-13470000D01*
X29383100Y-17257000D02*
X29383100Y-17257000D01*
X29885601Y-17257000D02*
X30058100Y-17257000D01*
X13363101Y-17840000D02*
X13363101Y-17840000D01*
X17085001Y-17280000D02*
X17085001Y-17280000D01*
X13363101Y-19162000D02*
X13363101Y-19260000D01*
X16608701Y-10165000D02*
X15208701Y-10165000D01*
X9017501Y-13975000D02*
X9017501Y-15375000D01*
X14227500Y-15375000D02*
X14227500Y-15375000D01*
X26133801Y-10165000D02*
X26133801Y-10165000D01*
X32801299Y-10635000D02*
X32801299Y-10165000D01*
X19971301Y-13470000D02*
X21371301Y-13470000D01*
X27086300Y-12070000D02*
X25686300Y-12070000D01*
X33306301Y-17280000D02*
X34706301Y-17280000D01*
X32520602Y-16630000D02*
X32520602Y-16350000D01*
X15685001Y-15880000D02*
X15685001Y-17280000D01*
X12827500Y-13975000D02*
X12827500Y-15375000D01*
X8274400Y-17280000D02*
X8274400Y-17280000D01*
X32715600Y-14445000D02*
X32715600Y-14445000D01*
X32438101Y-16630000D02*
X32520602Y-16630000D01*
X30746200Y-10312000D02*
X30746200Y-10312000D01*
X24257501Y-13975000D02*
X24257501Y-15375000D01*
X29885601Y-16027000D02*
X29885601Y-16027000D01*
X15180000Y-17280000D02*
X15180000Y-15880000D01*
X36325500Y-11088800D02*
X36325500Y-9688800D01*
X22323800Y-11565000D02*
X22323800Y-10165000D01*
X32953802Y-10312000D02*
X32953802Y-10312000D01*
X20895001Y-15880000D02*
X19495001Y-15880000D01*
X9184401Y-16630000D02*
X9184401Y-16630000D01*
X23363101Y-19162000D02*
X23363101Y-19260000D01*
X12798801Y-11565000D02*
X12798801Y-11565000D01*
X13865601Y-19162000D02*
X13865601Y-19162000D01*
X29383100Y-16630000D02*
X29383100Y-16630000D01*
X19018801Y-10165000D02*
X19018801Y-11565000D01*
X8426901Y-16810000D02*
X8426901Y-16810000D01*
X5921901Y-19185000D02*
X7321901Y-19185000D01*
X18990000Y-15880000D02*
X18990000Y-15880000D01*
X9941301Y-13470000D02*
X9941301Y-13470000D01*
X31401299Y-10165000D02*
X31401299Y-10635000D01*
X31401299Y-19185000D02*
X32801299Y-19185000D01*
X28991300Y-12070000D02*
X27591300Y-12070000D01*
X29885601Y-15935000D02*
X29885601Y-15935000D01*
X26133801Y-11565000D02*
X26133801Y-10165000D01*
X6219401Y-16027000D02*
X6219401Y-16027000D01*
X36325500Y-14898800D02*
X36325500Y-14898800D01*
X20923800Y-11565000D02*
X22323800Y-11565000D01*
X21371301Y-13470000D02*
X21371301Y-12070000D01*
X18037501Y-13975000D02*
X16637501Y-13975000D01*
X33126299Y-10312000D02*
X32953802Y-10312000D01*
X36611300Y-19185000D02*
X36611300Y-19185000D01*
X11398801Y-11565000D02*
X12798801Y-11565000D01*
X33456301Y-10220000D02*
X33126299Y-10220000D01*
X17085001Y-15880000D02*
X17085001Y-15880000D01*
X26162501Y-7783800D02*
X26162501Y-9183800D01*
X33628802Y-10635000D02*
X33628802Y-10635000D01*
X32265600Y-17257000D02*
X32438101Y-17257000D01*
X36325500Y-11088800D02*
X36325500Y-11088800D01*
X29555601Y-16027000D02*
X29555601Y-16027000D01*
X29467501Y-7783800D02*
X29467501Y-7783800D01*
X23363101Y-17840000D02*
X23363101Y-17932000D01*
X18542501Y-15375000D02*
X18542501Y-15375000D01*
X21371301Y-7783800D02*
X21371301Y-7783800D01*
X30058100Y-16350000D02*
X30058100Y-16027000D01*
X13693101Y-19260000D02*
X13693101Y-19260000D01*
X17113700Y-10165000D02*
X17113700Y-11565000D01*
X25657501Y-13975000D02*
X24257501Y-13975000D01*
X18066300Y-13470000D02*
X18066300Y-13470000D01*
X13693101Y-19260000D02*
X13693101Y-19162000D01*
X13363101Y-17932000D02*
X13363101Y-17932000D01*
X13363101Y-17932000D02*
X13190601Y-17932000D01*
D11*
X5139500Y-7262800D02*
X37149500Y-7262800D01*
X37149500Y-7262800D02*
X37149500Y-19745800D01*
X37149500Y-19745800D02*
X5139500Y-19745800D01*
X5139500Y-19745800D02*
X5139500Y-7262800D01*
D10*
X33306301Y-17280000D02*
X33306301Y-17280000D01*
X9184401Y-16350000D02*
X9101901Y-16350000D01*
X18513801Y-10165000D02*
X17113700Y-10165000D01*
X30335601Y-14725000D02*
X30335601Y-15352000D01*
X36325500Y-9183800D02*
X36325500Y-7783800D01*
X6874400Y-16810000D02*
X6874400Y-17280000D01*
X33473101Y-14725000D02*
X33473101Y-14445000D01*
X34925500Y-11088800D02*
X34925500Y-11088800D01*
X8929400Y-15935000D02*
X8929400Y-15935000D01*
X30508100Y-15450000D02*
X30508100Y-15450000D01*
X15656300Y-12070000D02*
X14256300Y-12070000D01*
X30508100Y-14030000D02*
X30508100Y-14030000D01*
X33628802Y-10915000D02*
X33628802Y-10915000D01*
X23190600Y-17932000D02*
X23190600Y-18255000D01*
X31935601Y-16027000D02*
X31763101Y-16027000D01*
X30210601Y-16350000D02*
X30058100Y-16350000D01*
X10684401Y-17785000D02*
X10684401Y-19185000D01*
X11370001Y-15880000D02*
X9970001Y-15880000D01*
X33277502Y-12070000D02*
X31877502Y-12070000D01*
X17828001Y-18255000D02*
X13865601Y-18255000D01*
X23752500Y-13975000D02*
X22352500Y-13975000D01*
X7083800Y-9183800D02*
X7083800Y-7783800D01*
X8274400Y-15880000D02*
X6874400Y-15880000D01*
X24705001Y-15880000D02*
X23305001Y-15880000D01*
X28067501Y-9183800D02*
X29467501Y-9183800D01*
X23865600Y-18535000D02*
X23865600Y-18535000D01*
X30253100Y-14725000D02*
X30335601Y-14725000D01*
X34925500Y-14898800D02*
X34925500Y-14898800D01*
X16161301Y-9183800D02*
X16161301Y-9183800D01*
X29467501Y-9183800D02*
X29467501Y-7783800D01*
X12084400Y-17785000D02*
X12084400Y-17785000D01*
X13190601Y-18535000D02*
X13190601Y-19162000D01*
X33628802Y-10915000D02*
X33711300Y-10915000D01*
X36325500Y-12993800D02*
X36325500Y-12993800D01*
X6721901Y-16027000D02*
X6549400Y-16027000D01*
X36325500Y-14898800D02*
X36325500Y-13498800D01*
X24971900Y-17785000D02*
X24971900Y-19185000D01*
X31076299Y-10312000D02*
X31076299Y-10220000D01*
X12798801Y-10165000D02*
X11398801Y-10165000D01*
X6219401Y-15935000D02*
X6219401Y-15935000D01*
X21400001Y-17280000D02*
X21400001Y-17280000D01*
X18066300Y-9183800D02*
X19466300Y-9183800D01*
X8274400Y-16350000D02*
X8274400Y-16350000D01*
X8929400Y-17257000D02*
X8929400Y-17257000D01*
X24228800Y-10165000D02*
X22828800Y-10165000D01*
X31076299Y-10312000D02*
X31076299Y-10312000D01*
X23781301Y-13470000D02*
X23781301Y-13470000D01*
X31877502Y-13470000D02*
X33277502Y-13470000D01*
X22323800Y-10165000D02*
X22323800Y-10165000D01*
X29300601Y-16630000D02*
X29383100Y-16630000D01*
X34925500Y-11088800D02*
X36325500Y-11088800D01*
X29383100Y-16350000D02*
X29383100Y-16350000D01*
X23865600Y-18255000D02*
X23865600Y-18255000D01*
X6874400Y-17280000D02*
X8274400Y-17280000D01*
X13693101Y-19162000D02*
X13865601Y-19162000D01*
X23276301Y-13470000D02*
X23276301Y-13470000D01*
X30508100Y-15352000D02*
X30508100Y-15450000D01*
X7588801Y-11565000D02*
X7588801Y-11565000D01*
X33711300Y-10635000D02*
X33711300Y-10635000D01*
X33456301Y-11640000D02*
X33456301Y-11640000D01*
X12084400Y-19185000D02*
X12084400Y-17785000D01*
X33456301Y-11542000D02*
X33628802Y-11542000D01*
X12827500Y-15375000D02*
X14227500Y-15375000D01*
X32265600Y-16027000D02*
X32265600Y-16027000D01*
X32265600Y-15935000D02*
X32265600Y-15935000D01*
X24971900Y-19185000D02*
X26371900Y-19185000D01*
X8541301Y-12070000D02*
X8541301Y-13470000D01*
X25657501Y-9183800D02*
X25657501Y-9183800D01*
X21847500Y-13975000D02*
X20447500Y-13975000D01*
X29555601Y-15935000D02*
X29555601Y-15935000D01*
X20895001Y-15880000D02*
X20895001Y-15880000D01*
X26133801Y-10165000D02*
X24733801Y-10165000D01*
X5921901Y-19185000D02*
X5921901Y-19185000D01*
X36325500Y-7783800D02*
X34925500Y-7783800D01*
X21371301Y-9183800D02*
X21371301Y-7783800D01*
X10446301Y-13470000D02*
X10446301Y-13470000D01*
X19971301Y-9183800D02*
X19971301Y-9183800D01*
X9941301Y-12070000D02*
X8541301Y-12070000D01*
X35211300Y-19185000D02*
X35211300Y-19185000D01*
X8303101Y-19185000D02*
X8303101Y-19185000D01*
X31610601Y-16810000D02*
X31610601Y-16810000D01*
X21876301Y-13470000D02*
X23276301Y-13470000D01*
X11875001Y-7783800D02*
X11875001Y-9183800D01*
X19228100Y-19185000D02*
X19228100Y-19185000D01*
X29972500Y-9183800D02*
X31372500Y-9183800D01*
X30491300Y-10915000D02*
X30491300Y-10915000D01*
X14256300Y-12070000D02*
X14256300Y-13470000D01*
X26638801Y-10165000D02*
X26638801Y-11565000D01*
X30746200Y-11542000D02*
X30746200Y-11542000D01*
X17085001Y-15880000D02*
X15685001Y-15880000D01*
X9703101Y-19185000D02*
X9703101Y-17785000D01*
X6549400Y-15935000D02*
X6549400Y-15935000D01*
X30573800Y-10635000D02*
X30573800Y-10635000D01*
X18037501Y-13975000D02*
X18037501Y-13975000D01*
X30335601Y-14725000D02*
X30335601Y-14725000D01*
X30508100Y-15352000D02*
X30508100Y-15352000D01*
X30335601Y-15352000D02*
X30508100Y-15352000D01*
X31763101Y-16027000D02*
X31763101Y-16027000D01*
X23693101Y-19162000D02*
X23865600Y-19162000D01*
X36611300Y-17785000D02*
X35211300Y-17785000D01*
X29885601Y-16027000D02*
X29885601Y-15935000D01*
X23190600Y-18715000D02*
X23190600Y-18715000D01*
X33456301Y-10312000D02*
X33456301Y-10220000D01*
X32265600Y-16027000D02*
X32265600Y-15935000D01*
X27591300Y-12070000D02*
X27591300Y-13470000D01*
X23948101Y-18255000D02*
X23865600Y-18255000D01*
X30746200Y-10312000D02*
X30573800Y-10312000D01*
X33628802Y-11542000D02*
X33628802Y-11542000D01*
X25657501Y-15375000D02*
X25657501Y-15375000D01*
X23693101Y-17840000D02*
X23363101Y-17840000D01*
X25657501Y-7783800D02*
X24257501Y-7783800D01*
X25657501Y-9183800D02*
X25657501Y-7783800D01*
X6549400Y-16027000D02*
X6549400Y-16027000D01*
X6721901Y-16350000D02*
X6721901Y-16027000D01*
X33126299Y-11542000D02*
X33126299Y-11542000D01*
X13275001Y-17280000D02*
X13275001Y-15880000D01*
X9101901Y-16630000D02*
X9184401Y-16630000D01*
X9941301Y-13470000D02*
X9941301Y-12070000D01*
X14703800Y-10165000D02*
X14703800Y-10165000D01*
X31935601Y-17257000D02*
X31935601Y-17355000D01*
X33628802Y-10312000D02*
X33628802Y-10312000D01*
X15180000Y-7783800D02*
X13780000Y-7783800D01*
X32801299Y-10165000D02*
X31401299Y-10165000D01*
X6160001Y-13470000D02*
X7560001Y-13470000D01*
X19942501Y-13975000D02*
X18542501Y-13975000D01*
X6549400Y-17257000D02*
X6549400Y-17257000D01*
X27353100Y-17785000D02*
X27353100Y-19185000D01*
X19495001Y-17280000D02*
X19495001Y-17280000D01*
X34925500Y-12993800D02*
X36325500Y-12993800D01*
X32801299Y-17785000D02*
X32801299Y-17785000D01*
X8426901Y-16027000D02*
X8426901Y-16350000D01*
X31076299Y-11542000D02*
X31248800Y-11542000D01*
X20418801Y-11565000D02*
X20418801Y-10165000D01*
X26638801Y-11565000D02*
X28038801Y-11565000D01*
X27115000Y-17280000D02*
X28515000Y-17280000D01*
X19228100Y-17785000D02*
X17828001Y-17785000D01*
X33390600Y-14445000D02*
X33390600Y-14445000D01*
X28067501Y-13975000D02*
X28067501Y-15375000D01*
X11370001Y-17280000D02*
X11370001Y-17280000D01*
X6219401Y-17257000D02*
X6219401Y-17355000D01*
X33306301Y-17785000D02*
X33306301Y-19185000D01*
X8599401Y-17257000D02*
X8599401Y-17355000D01*
X17113700Y-11565000D02*
X18513801Y-11565000D01*
X29972500Y-9183800D02*
X29972500Y-9183800D01*
X34706301Y-17280000D02*
X34706301Y-17280000D01*
X13275001Y-9183800D02*
X13275001Y-9183800D01*
X10446301Y-12070000D02*
X10446301Y-13470000D01*
X8929400Y-17257000D02*
X9101901Y-17257000D01*
X11875001Y-15880000D02*
X11875001Y-17280000D01*
X8929400Y-16027000D02*
X8929400Y-16027000D01*
X24733801Y-10165000D02*
X24733801Y-11565000D01*
X7560001Y-12070000D02*
X6160001Y-12070000D01*
X7321901Y-19185000D02*
X7321901Y-17785000D01*
X19228100Y-18715000D02*
X19228100Y-18715000D01*
X25686300Y-13470000D02*
X25686300Y-13470000D01*
X23865600Y-17932000D02*
X23693101Y-17932000D01*
X5964401Y-16350000D02*
X5964401Y-16350000D01*
X7560001Y-13470000D02*
X7560001Y-13470000D01*
X10922500Y-15375000D02*
X10922500Y-15375000D01*
X12084400Y-19185000D02*
X12084400Y-19185000D01*
X29885601Y-17355000D02*
X29885601Y-17257000D01*
X13275001Y-7783800D02*
X13275001Y-7783800D01*
X19466300Y-9183800D02*
X19466300Y-7783800D01*
X21400001Y-17280000D02*
X22800001Y-17280000D01*
X20447500Y-15375000D02*
X21847500Y-15375000D01*
X14227500Y-13975000D02*
X14227500Y-13975000D01*
X27562501Y-7783800D02*
X27562501Y-7783800D01*
X15180000Y-9183800D02*
X15180000Y-9183800D01*
X13693101Y-19162000D02*
X13693101Y-19162000D01*
X32438101Y-16350000D02*
X32438101Y-16027000D01*
X36325500Y-11593800D02*
X34925500Y-11593800D01*
X7798101Y-13975000D02*
X7798101Y-13975000D01*
X11846301Y-13470000D02*
X11846301Y-13470000D01*
X33218099Y-14122000D02*
X33218099Y-14122000D01*
X8274400Y-17280000D02*
X8274400Y-16810000D01*
X20418801Y-10165000D02*
X19018801Y-10165000D01*
X6046901Y-16027000D02*
X6046901Y-16027000D01*
X34706301Y-17280000D02*
X34706301Y-15880000D01*
X32438101Y-16027000D02*
X32265600Y-16027000D01*
X30573800Y-10312000D02*
X30573800Y-10635000D01*
X30058100Y-16810000D02*
X30058100Y-16810000D01*
X30508100Y-14122000D02*
X30335601Y-14122000D01*
X12798801Y-10165000D02*
X12798801Y-10165000D01*
X31248800Y-10312000D02*
X31076299Y-10312000D01*
X15208701Y-10165000D02*
X15208701Y-11565000D01*
X24257501Y-15375000D02*
X25657501Y-15375000D01*
X18066300Y-13470000D02*
X19466300Y-13470000D01*
X30838000Y-14122000D02*
X30838000Y-14030000D01*
X13108100Y-18535000D02*
X13108100Y-18535000D01*
X8303101Y-17785000D02*
X8303101Y-19185000D01*
X19228100Y-18255000D02*
X19228100Y-17785000D01*
X6721901Y-17257000D02*
X6721901Y-16810000D01*
X30335601Y-15352000D02*
X30335601Y-15352000D01*
X33126299Y-11640000D02*
X33126299Y-11640000D01*
X13363101Y-17840000D02*
X13363101Y-17932000D01*
X19466300Y-7783800D02*
X18066300Y-7783800D01*
X29496301Y-12070000D02*
X29496301Y-13470000D01*
X23305001Y-17280000D02*
X23305001Y-17280000D01*
X21847500Y-15375000D02*
X21847500Y-15375000D01*
X9970001Y-7783800D02*
X9970001Y-9183800D01*
X10417501Y-13975000D02*
X9017501Y-13975000D01*
X29555601Y-16027000D02*
X29383100Y-16027000D01*
X8274400Y-16350000D02*
X8274400Y-15880000D01*
X31076299Y-11542000D02*
X31076299Y-11542000D01*
X27086300Y-12070000D02*
X27086300Y-12070000D01*
X32265600Y-17355000D02*
X32265600Y-17257000D01*
X26162501Y-9183800D02*
X27562501Y-9183800D01*
X36325500Y-9688800D02*
X34925500Y-9688800D01*
X30838000Y-15450000D02*
X30838000Y-15352000D01*
X17828001Y-18715000D02*
X17828001Y-19185000D01*
X36325500Y-9688800D02*
X36325500Y-9688800D01*
X13363101Y-19162000D02*
X13363101Y-19162000D01*
X30491300Y-10915000D02*
X30573800Y-10915000D01*
X30210601Y-17280000D02*
X31610601Y-17280000D01*
X31610601Y-15880000D02*
X31610601Y-15880000D01*
X32265600Y-15935000D02*
X31935601Y-15935000D01*
X6721901Y-17257000D02*
X6721901Y-17257000D01*
X30838000Y-15352000D02*
X30838000Y-15352000D01*
X27353100Y-19185000D02*
X27353100Y-19185000D01*
X13190601Y-17932000D02*
X13190601Y-18255000D01*
X29467501Y-15375000D02*
X29467501Y-13975000D01*
X34925500Y-14898800D02*
X36325500Y-14898800D01*
X13865601Y-19162000D02*
X13865601Y-18715000D01*
X33218099Y-14030000D02*
X33218099Y-14030000D01*
X22828800Y-11565000D02*
X24228800Y-11565000D01*
X19466300Y-13470000D02*
X19466300Y-12070000D01*
X6874400Y-15880000D02*
X6874400Y-16350000D01*
X30058100Y-17257000D02*
X30058100Y-17257000D01*
X21847500Y-15375000D02*
X21847500Y-13975000D01*
X29555601Y-15935000D02*
X29555601Y-16027000D01*
X11370001Y-7783800D02*
X9970001Y-7783800D01*
X30491300Y-10635000D02*
X30491300Y-10915000D01*
X34925500Y-11593800D02*
X34925500Y-12993800D01*
X14732501Y-15375000D02*
X16132501Y-15375000D01*
X9493801Y-10165000D02*
X9493801Y-11565000D01*
X23363101Y-17932000D02*
X23363101Y-17932000D01*
X18990000Y-15880000D02*
X17590000Y-15880000D01*
X13865601Y-18255000D02*
X13865601Y-18255000D01*
X31763101Y-16350000D02*
X31610601Y-16350000D01*
X34925500Y-9688800D02*
X34925500Y-11088800D01*
X30896200Y-12070000D02*
X29496301Y-12070000D01*
X13865601Y-17932000D02*
X13865601Y-17932000D01*
X12322501Y-13975000D02*
X10922500Y-13975000D01*
X32953802Y-11095000D02*
X32953802Y-11095000D01*
X34706301Y-15880000D02*
X34706301Y-15880000D01*
X16132501Y-15375000D02*
X16132501Y-15375000D01*
X33711300Y-10915000D02*
X33711300Y-10915000D01*
X9493801Y-11565000D02*
X9493801Y-11565000D01*
X30746200Y-11542000D02*
X30746200Y-11640000D01*
X31248800Y-11095000D02*
X31248800Y-11095000D01*
X13780000Y-17280000D02*
X13780000Y-17280000D01*
X23276301Y-9183800D02*
X23276301Y-9183800D01*
X26371900Y-19185000D02*
X26371900Y-17785000D01*
X15180000Y-15880000D02*
X15180000Y-15880000D01*
X18542501Y-15375000D02*
X19942501Y-15375000D01*
X21371301Y-7783800D02*
X19971301Y-7783800D01*
X8426901Y-17257000D02*
X8426901Y-17257000D01*
X30335601Y-14445000D02*
X30335601Y-14445000D01*
X32715600Y-14122000D02*
X32715600Y-14445000D01*
X13780000Y-7783800D02*
X13780000Y-9183800D01*
X27562501Y-13975000D02*
X26162501Y-13975000D01*
X8988801Y-10165000D02*
X8988801Y-10165000D01*
X33390600Y-14725000D02*
X33473101Y-14725000D01*
X5683801Y-11565000D02*
X5683801Y-11565000D01*
X16161301Y-9183800D02*
X17561301Y-9183800D01*
X13108100Y-18255000D02*
X13108100Y-18255000D01*
X30838000Y-15450000D02*
X30838000Y-15450000D01*
X25210000Y-17280000D02*
X25210000Y-17280000D01*
X13190601Y-18535000D02*
X13190601Y-18535000D01*
X30210601Y-16810000D02*
X30210601Y-17280000D01*
X30573800Y-11542000D02*
X30573800Y-11542000D01*
X29467501Y-15375000D02*
X29467501Y-15375000D01*
X32888101Y-15450000D02*
X33218099Y-15450000D01*
X7083800Y-10165000D02*
X7083800Y-10165000D01*
X23752500Y-15375000D02*
X23752500Y-15375000D01*
X5683801Y-9183800D02*
X7083800Y-9183800D01*
X32563101Y-14445000D02*
X32563101Y-13975000D01*
X13865601Y-17932000D02*
X13693101Y-17932000D01*
X7560001Y-13470000D02*
X7560001Y-12070000D01*
X13363101Y-19260000D02*
X13693101Y-19260000D01*
X14703800Y-11565000D02*
X14703800Y-10165000D01*
X11875001Y-9183800D02*
X11875001Y-9183800D01*
X19971301Y-7783800D02*
X19971301Y-9183800D01*
X11875001Y-17280000D02*
X11875001Y-17280000D01*
X31935601Y-17355000D02*
X32265600Y-17355000D01*
X29300601Y-16350000D02*
X29300601Y-16630000D01*
X14703800Y-10165000D02*
X13303800Y-10165000D01*
X23865600Y-19162000D02*
X23865600Y-19162000D01*
X32438101Y-17257000D02*
X32438101Y-17257000D01*
X29885601Y-15935000D02*
X29555601Y-15935000D01*
X12322501Y-13975000D02*
X12322501Y-13975000D01*
X8065000Y-9183800D02*
X9465001Y-9183800D01*
X9101901Y-17257000D02*
X9101901Y-17257000D01*
X31076299Y-10220000D02*
X30746200Y-10220000D01*
X9101901Y-16027000D02*
X8929400Y-16027000D01*
X28753100Y-19185000D02*
X28753100Y-19185000D01*
X9970001Y-9183800D02*
X11370001Y-9183800D01*
X32953802Y-11542000D02*
X33126299Y-11542000D01*
X33218099Y-14122000D02*
X33218099Y-14030000D01*
X5683801Y-7783800D02*
X5683801Y-9183800D01*
X13865601Y-18255000D02*
X13865601Y-17932000D01*
X6046901Y-16630000D02*
X6046901Y-17257000D01*
X31010601Y-14122000D02*
X31010601Y-14122000D01*
X25181301Y-13470000D02*
X25181301Y-12070000D01*
X13780000Y-9183800D02*
X15180000Y-9183800D01*
X33306301Y-19185000D02*
X33306301Y-19185000D01*
X23190600Y-17932000D02*
X23190600Y-17932000D01*
X9941301Y-12070000D02*
X9941301Y-12070000D01*
X23276301Y-12070000D02*
X21876301Y-12070000D01*
X7798101Y-15375000D02*
X7798101Y-13975000D01*
X6721901Y-16027000D02*
X6721901Y-16027000D01*
X32520602Y-16350000D02*
X32520602Y-16350000D01*
X5683801Y-11565000D02*
X7083800Y-11565000D01*
X9017501Y-15375000D02*
X10417501Y-15375000D01*
X24228800Y-11565000D02*
X24228800Y-11565000D01*
X15180000Y-17280000D02*
X15180000Y-17280000D01*
X28753100Y-17785000D02*
X27353100Y-17785000D01*
X23190600Y-18255000D02*
X23190600Y-18255000D01*
X7798101Y-13975000D02*
X6398101Y-13975000D01*
X32888101Y-15352000D02*
X32888101Y-15450000D01*
X6219401Y-15935000D02*
X6219401Y-16027000D01*
X13693101Y-17840000D02*
X13363101Y-17840000D01*
X28991300Y-12070000D02*
X28991300Y-12070000D01*
X27086300Y-13470000D02*
X27086300Y-12070000D01*
X30210601Y-17280000D02*
X30210601Y-17280000D01*
X28038801Y-11565000D02*
X28038801Y-10165000D01*
X33218099Y-14030000D02*
X32888101Y-14030000D01*
X29383100Y-16630000D02*
X29383100Y-17257000D01*
X30210601Y-15880000D02*
X30210601Y-16350000D01*
X6046901Y-16350000D02*
X5964401Y-16350000D01*
X17085001Y-17280000D02*
X17085001Y-15880000D01*
X18037501Y-15375000D02*
X18037501Y-13975000D01*
X10446301Y-13470000D02*
X11846301Y-13470000D01*
X31076299Y-10220000D02*
X31076299Y-10220000D01*
X13780000Y-9183800D02*
X13780000Y-9183800D01*
X7560001Y-12070000D02*
X7560001Y-12070000D01*
X9101901Y-16350000D02*
X9101901Y-16027000D01*
X22828800Y-11565000D02*
X22828800Y-11565000D01*
X7083800Y-9183800D02*
X7083800Y-9183800D01*
X22800001Y-15880000D02*
X22800001Y-15880000D01*
X17828001Y-17785000D02*
X17828001Y-18255000D01*
X21400001Y-15880000D02*
X21400001Y-17280000D01*
X32563101Y-14905000D02*
X32563101Y-14905000D01*
X30210601Y-16810000D02*
X30210601Y-16810000D01*
X11398801Y-10165000D02*
X11398801Y-11565000D01*
X8426901Y-16350000D02*
X8274400Y-16350000D01*
X6219401Y-17355000D02*
X6219401Y-17355000D01*
X33628802Y-10312000D02*
X33456301Y-10312000D01*
X6398101Y-15375000D02*
X7798101Y-15375000D01*
X19466300Y-12070000D02*
X19466300Y-12070000D01*
X12084400Y-17785000D02*
X10684401Y-17785000D01*
X13865601Y-18715000D02*
X17828001Y-18715000D01*
X24228800Y-11565000D02*
X24228800Y-10165000D01*
X33390600Y-14122000D02*
X33218099Y-14122000D01*
X29555601Y-17257000D02*
X29555601Y-17257000D01*
X33390600Y-14122000D02*
X33390600Y-14122000D01*
X18066300Y-7783800D02*
X18066300Y-9183800D01*
X16161301Y-7783800D02*
X16161301Y-9183800D01*
X31248800Y-10635000D02*
X31248800Y-10312000D01*
X22800001Y-17280000D02*
X22800001Y-17280000D01*
X12322501Y-15375000D02*
X12322501Y-15375000D01*
X36325500Y-13498800D02*
X34925500Y-13498800D01*
X8929400Y-17355000D02*
X8929400Y-17257000D01*
X29383100Y-17257000D02*
X29555601Y-17257000D01*
X17828001Y-19185000D02*
X19228100Y-19185000D01*
X34706301Y-15880000D02*
X33306301Y-15880000D01*
X36325500Y-13498800D02*
X36325500Y-13498800D01*
X17828001Y-18255000D02*
X17828001Y-18255000D01*
X17561301Y-13470000D02*
X17561301Y-12070000D01*
X31163101Y-14905000D02*
X31163101Y-15375000D01*
X33126299Y-10312000D02*
X33126299Y-10312000D01*
X13275001Y-15880000D02*
X11875001Y-15880000D01*
X23693101Y-19260000D02*
X23693101Y-19162000D01*
X23948101Y-18535000D02*
X23948101Y-18535000D01*
X10922500Y-13975000D02*
X10922500Y-15375000D01*
X13190601Y-19162000D02*
X13190601Y-19162000D01*
X29555601Y-17257000D02*
X29555601Y-17355000D01*
X6874400Y-16810000D02*
X6874400Y-16810000D01*
X33628802Y-10635000D02*
X33628802Y-10312000D01*
X12351300Y-13470000D02*
X13751300Y-13470000D01*
X9465001Y-9183800D02*
X9465001Y-7783800D01*
X32715600Y-14905000D02*
X32715600Y-14905000D01*
X34925500Y-12993800D02*
X34925500Y-12993800D01*
X8929400Y-17355000D02*
X8929400Y-17355000D01*
X32801299Y-19185000D02*
X32801299Y-19185000D01*
X32563101Y-14905000D02*
X32715600Y-14905000D01*
X32265600Y-17257000D02*
X32265600Y-17257000D01*
X8274400Y-16810000D02*
X8426901Y-16810000D01*
X23363101Y-17932000D02*
X23190600Y-17932000D01*
X29383100Y-16027000D02*
X29383100Y-16027000D01*
X8599401Y-17355000D02*
X8599401Y-17355000D01*
X5921901Y-17785000D02*
X5921901Y-19185000D01*
X24257501Y-9183800D02*
X25657501Y-9183800D01*
X26610000Y-17280000D02*
X26610000Y-17280000D01*
X9703101Y-17785000D02*
X8303101Y-17785000D01*
X9101901Y-17257000D02*
X9101901Y-16630000D01*
X29943801Y-10165000D02*
X29943801Y-10165000D01*
X8599401Y-17257000D02*
X8599401Y-17257000D01*
X14256300Y-13470000D02*
X15656300Y-13470000D01*
X15656300Y-12070000D02*
X15656300Y-12070000D01*
X8988801Y-11565000D02*
X8988801Y-11565000D01*
X30573800Y-10915000D02*
X30573800Y-10915000D01*
X31935601Y-16027000D02*
X31935601Y-16027000D01*
X33306301Y-15880000D02*
X33306301Y-17280000D01*
X13751300Y-12070000D02*
X13751300Y-12070000D01*
X12798801Y-11565000D02*
X12798801Y-10165000D01*
X32438101Y-17257000D02*
X32438101Y-16630000D01*
X32563101Y-13975000D02*
X32563101Y-13975000D01*
X21371301Y-12070000D02*
X19971301Y-12070000D01*
X30253100Y-14445000D02*
X30253100Y-14445000D01*
X30746200Y-10220000D02*
X30746200Y-10312000D01*
X16132501Y-15375000D02*
X16132501Y-13975000D01*
X23693101Y-19162000D02*
X23693101Y-19162000D01*
X36325500Y-7783800D02*
X36325500Y-7783800D01*
X28543801Y-11565000D02*
X28543801Y-11565000D01*
X26610000Y-15880000D02*
X26610000Y-15880000D01*
X26133801Y-11565000D02*
X26133801Y-11565000D01*
X23865600Y-19162000D02*
X23865600Y-18535000D01*
X33126299Y-10220000D02*
X33126299Y-10312000D01*
X28067501Y-15375000D02*
X29467501Y-15375000D01*
X31610601Y-16350000D02*
X31610601Y-16350000D01*
X29943801Y-11565000D02*
X29943801Y-10165000D01*
X22828800Y-10165000D02*
X22828800Y-11565000D01*
X16637501Y-15375000D02*
X16637501Y-15375000D01*
X17590000Y-15880000D02*
X17590000Y-17280000D01*
X31248800Y-10312000D02*
X31248800Y-10312000D01*
X13108100Y-18535000D02*
X13190601Y-18535000D01*
X18990000Y-17280000D02*
X18990000Y-15880000D01*
X31401299Y-11095000D02*
X31401299Y-11565000D01*
X16161301Y-13470000D02*
X17561301Y-13470000D01*
X6874400Y-16350000D02*
X6874400Y-16350000D01*
X17561301Y-9183800D02*
X17561301Y-9183800D01*
X8426901Y-16810000D02*
X8426901Y-17257000D01*
X13275001Y-7783800D02*
X11875001Y-7783800D01*
X19466300Y-9183800D02*
X19466300Y-9183800D01*
X28991300Y-13470000D02*
X28991300Y-12070000D01*
X10684401Y-19185000D02*
X10684401Y-19185000D01*
X34925500Y-7783800D02*
X34925500Y-9183800D01*
X31763101Y-17257000D02*
X31935601Y-17257000D01*
X6046901Y-17257000D02*
X6046901Y-17257000D01*
X24257501Y-9183800D02*
X24257501Y-9183800D01*
X32715600Y-15352000D02*
X32888101Y-15352000D01*
X9101901Y-16630000D02*
X9101901Y-16630000D01*
X30508100Y-15450000D02*
X30838000Y-15450000D01*
X32563101Y-13975000D02*
X31163101Y-13975000D01*
X32801299Y-19185000D02*
X32801299Y-17785000D01*
X31935601Y-17257000D02*
X31935601Y-17257000D01*
X20447500Y-15375000D02*
X20447500Y-15375000D01*
X16132501Y-13975000D02*
X14732501Y-13975000D01*
X23693101Y-17840000D02*
X23693101Y-17840000D01*
X17561301Y-7783800D02*
X17561301Y-7783800D01*
X32438101Y-16027000D02*
X32438101Y-16027000D01*
X29496301Y-13470000D02*
X30896200Y-13470000D01*
X29383100Y-16350000D02*
X29300601Y-16350000D01*
X22800001Y-15880000D02*
X21400001Y-15880000D01*
X5964401Y-16630000D02*
X6046901Y-16630000D01*
X32563101Y-15375000D02*
X32563101Y-14905000D01*
X29467501Y-13975000D02*
X29467501Y-13975000D01*
X25181301Y-12070000D02*
X23781301Y-12070000D01*
X24733801Y-11565000D02*
X24733801Y-11565000D01*
X27562501Y-9183800D02*
X27562501Y-7783800D01*
X17113700Y-11565000D02*
X17113700Y-11565000D01*
X29300601Y-16350000D02*
X29300601Y-16350000D01*
X29972500Y-7783800D02*
X29972500Y-9183800D01*
X27562501Y-15375000D02*
X27562501Y-13975000D01*
X30508100Y-14122000D02*
X30508100Y-14122000D01*
X19466300Y-7783800D02*
X19466300Y-7783800D01*
X31877502Y-13470000D02*
X31877502Y-13470000D01*
X19466300Y-13470000D02*
X19466300Y-13470000D01*
X7588801Y-10165000D02*
X7588801Y-11565000D01*
X31401299Y-11565000D02*
X31401299Y-11565000D01*
X14732501Y-13975000D02*
X14732501Y-15375000D01*
X14732501Y-15375000D02*
X14732501Y-15375000D01*
X19018801Y-11565000D02*
X19018801Y-11565000D01*
X6549400Y-17355000D02*
X6549400Y-17257000D01*
X8988801Y-11565000D02*
X8988801Y-10165000D01*
X15656300Y-13470000D02*
X15656300Y-12070000D01*
X27115000Y-17280000D02*
X27115000Y-17280000D01*
X30838000Y-15352000D02*
X31010601Y-15352000D01*
X32715600Y-14905000D02*
X32715600Y-15352000D01*
X29467501Y-7783800D02*
X28067501Y-7783800D01*
X10684401Y-19185000D02*
X12084400Y-19185000D01*
X8929400Y-15935000D02*
X8599401Y-15935000D01*
X30058100Y-17257000D02*
X30058100Y-16810000D01*
X21876301Y-12070000D02*
X21876301Y-13470000D01*
X13363101Y-19260000D02*
X13363101Y-19260000D01*
X18066300Y-9183800D02*
X18066300Y-9183800D01*
X31372500Y-9183800D02*
X31372500Y-7783800D01*
X31248800Y-10635000D02*
X31248800Y-10635000D01*
X28038801Y-11565000D02*
X28038801Y-11565000D01*
X19228100Y-18255000D02*
X19228100Y-18255000D01*
X10417501Y-15375000D02*
X10417501Y-15375000D01*
X9970001Y-15880000D02*
X9970001Y-17280000D01*
X29300601Y-16630000D02*
X29300601Y-16630000D01*
X25657501Y-13975000D02*
X25657501Y-13975000D01*
X28067501Y-15375000D02*
X28067501Y-15375000D01*
X7321901Y-17785000D02*
X7321901Y-17785000D01*
X14227500Y-13975000D02*
X12827500Y-13975000D01*
X5683801Y-10165000D02*
X5683801Y-11565000D01*
X28543801Y-10165000D02*
X28543801Y-11565000D01*
X31935601Y-17355000D02*
X31935601Y-17355000D01*
X11875001Y-9183800D02*
X13275001Y-9183800D01*
X32801299Y-11095000D02*
X32801299Y-11095000D01*
X34925500Y-9183800D02*
X36325500Y-9183800D01*
X8426901Y-16350000D02*
X8426901Y-16350000D01*
X23363101Y-19162000D02*
X23363101Y-19162000D01*
X15180000Y-15880000D02*
X13780000Y-15880000D01*
X34706301Y-17785000D02*
X34706301Y-17785000D01*
X31610601Y-16350000D02*
X31610601Y-15880000D01*
X32715600Y-14445000D02*
X32563101Y-14445000D01*
X23363101Y-17840000D02*
X23363101Y-17840000D01*
X25686300Y-13470000D02*
X27086300Y-13470000D01*
X29943801Y-11565000D02*
X29943801Y-11565000D01*
X19942501Y-15375000D02*
X19942501Y-15375000D01*
X26610000Y-15880000D02*
X25210000Y-15880000D01*
X33390600Y-15352000D02*
X33390600Y-15352000D01*
X32888101Y-14122000D02*
X32888101Y-14122000D01*
X19228100Y-19185000D02*
X19228100Y-18715000D01*
X33456301Y-10220000D02*
X33456301Y-10220000D01*
X32801299Y-10165000D02*
X32801299Y-10165000D01*
X13693101Y-17840000D02*
X13693101Y-17840000D01*
X30838000Y-14030000D02*
X30508100Y-14030000D01*
X30746200Y-11640000D02*
X30746200Y-11640000D01*
X23190600Y-19162000D02*
X23190600Y-19162000D01*
X34706301Y-17785000D02*
X33306301Y-17785000D01*
X31763101Y-16027000D02*
X31763101Y-16350000D01*
X16608701Y-11565000D02*
X16608701Y-11565000D01*
X16637501Y-13975000D02*
X16637501Y-15375000D01*
X33711300Y-10915000D02*
X33711300Y-10635000D01*
X23305001Y-17280000D02*
X24705001Y-17280000D01*
X8541301Y-13470000D02*
X8541301Y-13470000D01*
X23752500Y-15375000D02*
X23752500Y-13975000D01*
X23948101Y-18255000D02*
X23948101Y-18255000D01*
X11398801Y-11565000D02*
X11398801Y-11565000D01*
X7083800Y-10165000D02*
X5683801Y-10165000D01*
X5964401Y-16630000D02*
X5964401Y-16630000D01*
X9184401Y-16630000D02*
X9184401Y-16350000D01*
X9970001Y-17280000D02*
X11370001Y-17280000D01*
X31163101Y-14445000D02*
X31010601Y-14445000D01*
X31763101Y-16810000D02*
X31763101Y-16810000D01*
X23363101Y-19260000D02*
X23693101Y-19260000D01*
X6874400Y-17280000D02*
X6874400Y-17280000D01*
X8274400Y-15880000D02*
X8274400Y-15880000D01*
X6046901Y-16350000D02*
X6046901Y-16350000D01*
X31248800Y-11542000D02*
X31248800Y-11542000D01*
X10417501Y-15375000D02*
X10417501Y-13975000D01*
X13693101Y-17932000D02*
X13693101Y-17840000D01*
X13190601Y-19162000D02*
X13363101Y-19162000D01*
X32715600Y-14122000D02*
X32715600Y-14122000D01*
X32888101Y-14122000D02*
X32715600Y-14122000D01*
X9465001Y-7783800D02*
X8065000Y-7783800D01*
X8303101Y-19185000D02*
X9703101Y-19185000D01*
X19495001Y-15880000D02*
X19495001Y-17280000D01*
X36611300Y-17785000D02*
X36611300Y-17785000D01*
X33126299Y-11640000D02*
X33456301Y-11640000D01*
X33711300Y-10635000D02*
X33628802Y-10635000D01*
X25686300Y-12070000D02*
X25686300Y-13470000D01*
X22352500Y-15375000D02*
X23752500Y-15375000D01*
X6874400Y-16350000D02*
X6721901Y-16350000D01*
X15656300Y-13470000D02*
X15656300Y-13470000D01*
X31763101Y-16350000D02*
X31763101Y-16350000D01*
X21876301Y-9183800D02*
X23276301Y-9183800D01*
X11370001Y-9183800D02*
X11370001Y-7783800D01*
X36325500Y-9183800D02*
X36325500Y-9183800D01*
X9184401Y-16350000D02*
X9184401Y-16350000D01*
X32801299Y-11095000D02*
X32953802Y-11095000D01*
X21371301Y-12070000D02*
X21371301Y-12070000D01*
X6160001Y-13470000D02*
X6160001Y-13470000D01*
X8426901Y-17257000D02*
X8599401Y-17257000D01*
X30253100Y-14725000D02*
X30253100Y-14725000D01*
X15180000Y-7783800D02*
X15180000Y-7783800D01*
X19495001Y-17280000D02*
X20895001Y-17280000D01*
X20923800Y-10165000D02*
X20923800Y-11565000D01*
X32520602Y-16350000D02*
X32438101Y-16350000D01*
X33277502Y-13470000D02*
X33277502Y-12070000D01*
X36325500Y-12993800D02*
X36325500Y-11593800D01*
X23781301Y-13470000D02*
X25181301Y-13470000D01*
X33390600Y-15352000D02*
X33390600Y-14725000D01*
X29467501Y-13975000D02*
X28067501Y-13975000D01*
X21876301Y-13470000D02*
X21876301Y-13470000D01*
X24257501Y-7783800D02*
X24257501Y-9183800D01*
X9465001Y-7783800D02*
X9465001Y-7783800D01*
X32888101Y-14030000D02*
X32888101Y-14030000D01*
X15685001Y-17280000D02*
X15685001Y-17280000D01*
X31010601Y-14905000D02*
X31163101Y-14905000D01*
X32801299Y-17785000D02*
X31401299Y-17785000D01*
X30896200Y-13470000D02*
X30896200Y-13470000D01*
X26371900Y-19185000D02*
X26371900Y-19185000D01*
D12*
D13*
X4824000Y-19427000D02*
X5464000Y-20067000D01*
X5464000Y-19427000D02*
X4824000Y-20067000D01*
X4832000Y-6939000D02*
X5472000Y-7579000D01*
X5472000Y-6939000D02*
X4832000Y-7579000D01*
X36829500Y-6942800D02*
X37469500Y-7582800D01*
X37469500Y-6942800D02*
X36829500Y-7582800D01*
X36829500Y-19425800D02*
X37469500Y-20065800D01*
X37469500Y-19425800D02*
X36829500Y-20065800D01*
D12*
X5394619Y-20058776D02*
X5394619Y-19858776D01*
X5442238Y-19858776D01*
X5470809Y-19868300D01*
X5489857Y-19887348D01*
X5499381Y-19906395D01*
X5508905Y-19944490D01*
X5508905Y-19973062D01*
X5499381Y-20011157D01*
X5489857Y-20030205D01*
X5470809Y-20049252D01*
X5442238Y-20058776D01*
X5394619Y-20058776D01*
X5594619Y-20058776D02*
X5594619Y-19925443D01*
X5594619Y-19963538D02*
X5604143Y-19944490D01*
X5613666Y-19934967D01*
X5632714Y-19925443D01*
X5651762Y-19925443D01*
X5718428Y-20058776D02*
X5718428Y-19925443D01*
X5718428Y-19858776D02*
X5708905Y-19868300D01*
X5718428Y-19877824D01*
X5727952Y-19868300D01*
X5718428Y-19858776D01*
X5718428Y-19877824D01*
X5842238Y-20058776D02*
X5823190Y-20049252D01*
X5813666Y-20030205D01*
X5813666Y-19858776D01*
X5947000Y-20058776D02*
X5927952Y-20049252D01*
X5918428Y-20030205D01*
X5918428Y-19858776D01*
X6175571Y-20058776D02*
X6175571Y-19858776D01*
X6242238Y-20001633D01*
X6308905Y-19858776D01*
X6308905Y-20058776D01*
X6489857Y-20058776D02*
X6489857Y-19954014D01*
X6480333Y-19934967D01*
X6461286Y-19925443D01*
X6423190Y-19925443D01*
X6404143Y-19934967D01*
X6489857Y-20049252D02*
X6470809Y-20058776D01*
X6423190Y-20058776D01*
X6404143Y-20049252D01*
X6394619Y-20030205D01*
X6394619Y-20011157D01*
X6404143Y-19992110D01*
X6423190Y-19982586D01*
X6470809Y-19982586D01*
X6489857Y-19973062D01*
X6585095Y-19925443D02*
X6585095Y-20125443D01*
X6585095Y-19934967D02*
X6604143Y-19925443D01*
X6642238Y-19925443D01*
X6661286Y-19934967D01*
X6670809Y-19944490D01*
X6680333Y-19963538D01*
X6680333Y-20020681D01*
X6670809Y-20039729D01*
X6661286Y-20049252D01*
X6642238Y-20058776D01*
X6604143Y-20058776D01*
X6585095Y-20049252D01*
X6766047Y-20039729D02*
X6775571Y-20049252D01*
X6766047Y-20058776D01*
X6756524Y-20049252D01*
X6766047Y-20039729D01*
X6766047Y-20058776D01*
X6766047Y-19934967D02*
X6775571Y-19944490D01*
X6766047Y-19954014D01*
X6756524Y-19944490D01*
X6766047Y-19934967D01*
X6766047Y-19954014D01*
X4937000Y-20288300D02*
X5137000Y-20488300D01*
X5137000Y-20288300D02*
X4937000Y-20488300D01*
X5480333Y-20278776D02*
X5442238Y-20278776D01*
X5423190Y-20288300D01*
X5413667Y-20297824D01*
X5394619Y-20326395D01*
X5385095Y-20364490D01*
X5385095Y-20440681D01*
X5394619Y-20459729D01*
X5404143Y-20469252D01*
X5423190Y-20478776D01*
X5461286Y-20478776D01*
X5480333Y-20469252D01*
X5489857Y-20459729D01*
X5499381Y-20440681D01*
X5499381Y-20393062D01*
X5489857Y-20374014D01*
X5480333Y-20364490D01*
X5461286Y-20354967D01*
X5423190Y-20354967D01*
X5404143Y-20364490D01*
X5394619Y-20374014D01*
X5385095Y-20393062D01*
X5585095Y-20459729D02*
X5594619Y-20469252D01*
X5585095Y-20478776D01*
X5575571Y-20469252D01*
X5585095Y-20459729D01*
X5585095Y-20478776D01*
X5766047Y-20345443D02*
X5766047Y-20478776D01*
X5718428Y-20269252D02*
X5670809Y-20412110D01*
X5794619Y-20412110D01*
X5908905Y-20278776D02*
X5927952Y-20278776D01*
X5947000Y-20288300D01*
X5956524Y-20297824D01*
X5966047Y-20316871D01*
X5975571Y-20354967D01*
X5975571Y-20402586D01*
X5966047Y-20440681D01*
X5956524Y-20459729D01*
X5947000Y-20469252D01*
X5927952Y-20478776D01*
X5908905Y-20478776D01*
X5889857Y-20469252D01*
X5880333Y-20459729D01*
X5870809Y-20440681D01*
X5861286Y-20402586D01*
X5861286Y-20354967D01*
X5870809Y-20316871D01*
X5880333Y-20297824D01*
X5889857Y-20288300D01*
X5908905Y-20278776D01*
X6099381Y-20278776D02*
X6118428Y-20278776D01*
X6137476Y-20288300D01*
X6147000Y-20297824D01*
X6156524Y-20316871D01*
X6166047Y-20354967D01*
X6166047Y-20402586D01*
X6156524Y-20440681D01*
X6147000Y-20459729D01*
X6137476Y-20469252D01*
X6118428Y-20478776D01*
X6099381Y-20478776D01*
X6080333Y-20469252D01*
X6070809Y-20459729D01*
X6061286Y-20440681D01*
X6051762Y-20402586D01*
X6051762Y-20354967D01*
X6061286Y-20316871D01*
X6070809Y-20297824D01*
X6080333Y-20288300D01*
X6099381Y-20278776D01*
X6251762Y-20478776D02*
X6251762Y-20345443D01*
X6251762Y-20364490D02*
X6261286Y-20354967D01*
X6280333Y-20345443D01*
X6308905Y-20345443D01*
X6327952Y-20354967D01*
X6337476Y-20374014D01*
X6337476Y-20478776D01*
X6337476Y-20374014D02*
X6347000Y-20354967D01*
X6366047Y-20345443D01*
X6394619Y-20345443D01*
X6413666Y-20354967D01*
X6423190Y-20374014D01*
X6423190Y-20478776D01*
X6518428Y-20478776D02*
X6518428Y-20345443D01*
X6518428Y-20364490D02*
X6527952Y-20354967D01*
X6547000Y-20345443D01*
X6575571Y-20345443D01*
X6594619Y-20354967D01*
X6604143Y-20374014D01*
X6604143Y-20478776D01*
X6604143Y-20374014D02*
X6613666Y-20354967D01*
X6632714Y-20345443D01*
X6661286Y-20345443D01*
X6680333Y-20354967D01*
X6689857Y-20374014D01*
X6689857Y-20478776D01*
X7080333Y-20269252D02*
X6908905Y-20526395D01*
X7337476Y-20278776D02*
X7356524Y-20278776D01*
X7375571Y-20288300D01*
X7385095Y-20297824D01*
X7394619Y-20316871D01*
X7404143Y-20354967D01*
X7404143Y-20402586D01*
X7394619Y-20440681D01*
X7385095Y-20459729D01*
X7375571Y-20469252D01*
X7356524Y-20478776D01*
X7337476Y-20478776D01*
X7318428Y-20469252D01*
X7308905Y-20459729D01*
X7299381Y-20440681D01*
X7289857Y-20402586D01*
X7289857Y-20354967D01*
X7299381Y-20316871D01*
X7308905Y-20297824D01*
X7318428Y-20288300D01*
X7337476Y-20278776D01*
X7489857Y-20459729D02*
X7499381Y-20469252D01*
X7489857Y-20478776D01*
X7480333Y-20469252D01*
X7489857Y-20459729D01*
X7489857Y-20478776D01*
X7575571Y-20297824D02*
X7585095Y-20288300D01*
X7604143Y-20278776D01*
X7651762Y-20278776D01*
X7670809Y-20288300D01*
X7680333Y-20297824D01*
X7689857Y-20316871D01*
X7689857Y-20335919D01*
X7680333Y-20364490D01*
X7566047Y-20478776D01*
X7689857Y-20478776D01*
X7870809Y-20278776D02*
X7775571Y-20278776D01*
X7766047Y-20374014D01*
X7775571Y-20364490D01*
X7794619Y-20354967D01*
X7842238Y-20354967D01*
X7861286Y-20364490D01*
X7870809Y-20374014D01*
X7880333Y-20393062D01*
X7880333Y-20440681D01*
X7870809Y-20459729D01*
X7861286Y-20469252D01*
X7842238Y-20478776D01*
X7794619Y-20478776D01*
X7775571Y-20469252D01*
X7766047Y-20459729D01*
X7956524Y-20297824D02*
X7966047Y-20288300D01*
X7985095Y-20278776D01*
X8032714Y-20278776D01*
X8051762Y-20288300D01*
X8061286Y-20297824D01*
X8070809Y-20316871D01*
X8070809Y-20335919D01*
X8061286Y-20364490D01*
X7947000Y-20478776D01*
X8070809Y-20478776D01*
X8194619Y-20278776D02*
X8213666Y-20278776D01*
X8232714Y-20288300D01*
X8242238Y-20297824D01*
X8251762Y-20316871D01*
X8261286Y-20354967D01*
X8261286Y-20402586D01*
X8251762Y-20440681D01*
X8242238Y-20459729D01*
X8232714Y-20469252D01*
X8213666Y-20478776D01*
X8194619Y-20478776D01*
X8175571Y-20469252D01*
X8166047Y-20459729D01*
X8156524Y-20440681D01*
X8147000Y-20402586D01*
X8147000Y-20354967D01*
X8156524Y-20316871D01*
X8166047Y-20297824D01*
X8175571Y-20288300D01*
X8194619Y-20278776D01*
X8337476Y-20278776D02*
X8337476Y-20316871D01*
X8413667Y-20278776D02*
X8413667Y-20316871D01*
X8708905Y-20554967D02*
X8699381Y-20545443D01*
X8680333Y-20516871D01*
X8670809Y-20497824D01*
X8661286Y-20469252D01*
X8651762Y-20421633D01*
X8651762Y-20383538D01*
X8661286Y-20335919D01*
X8670809Y-20307348D01*
X8680333Y-20288300D01*
X8699381Y-20259729D01*
X8708905Y-20250205D01*
X8870809Y-20345443D02*
X8870809Y-20478776D01*
X8823190Y-20269252D02*
X8775571Y-20412110D01*
X8899381Y-20412110D01*
X9127952Y-20478776D02*
X9127952Y-20278776D01*
X9213667Y-20478776D02*
X9213667Y-20374014D01*
X9204143Y-20354967D01*
X9185095Y-20345443D01*
X9156524Y-20345443D01*
X9137476Y-20354967D01*
X9127952Y-20364490D01*
X9337476Y-20478776D02*
X9318428Y-20469252D01*
X9308905Y-20459729D01*
X9299381Y-20440681D01*
X9299381Y-20383538D01*
X9308905Y-20364490D01*
X9318428Y-20354967D01*
X9337476Y-20345443D01*
X9366048Y-20345443D01*
X9385095Y-20354967D01*
X9394619Y-20364490D01*
X9404143Y-20383538D01*
X9404143Y-20440681D01*
X9394619Y-20459729D01*
X9385095Y-20469252D01*
X9366048Y-20478776D01*
X9337476Y-20478776D01*
X9518428Y-20478776D02*
X9499381Y-20469252D01*
X9489857Y-20450205D01*
X9489857Y-20278776D01*
X9670809Y-20469252D02*
X9651762Y-20478776D01*
X9613667Y-20478776D01*
X9594619Y-20469252D01*
X9585095Y-20450205D01*
X9585095Y-20374014D01*
X9594619Y-20354967D01*
X9613667Y-20345443D01*
X9651762Y-20345443D01*
X9670809Y-20354967D01*
X9680333Y-20374014D01*
X9680333Y-20393062D01*
X9585095Y-20412110D01*
X9756524Y-20469252D02*
X9775571Y-20478776D01*
X9813667Y-20478776D01*
X9832714Y-20469252D01*
X9842238Y-20450205D01*
X9842238Y-20440681D01*
X9832714Y-20421633D01*
X9813667Y-20412110D01*
X9785095Y-20412110D01*
X9766048Y-20402586D01*
X9756524Y-20383538D01*
X9756524Y-20374014D01*
X9766048Y-20354967D01*
X9785095Y-20345443D01*
X9813667Y-20345443D01*
X9832714Y-20354967D01*
X9908905Y-20554967D02*
X9918428Y-20545443D01*
X9937476Y-20516871D01*
X9947000Y-20497824D01*
X9956524Y-20469252D01*
X9966048Y-20421633D01*
X9966048Y-20383538D01*
X9956524Y-20335919D01*
X9947000Y-20307348D01*
X9937476Y-20288300D01*
X9918428Y-20259729D01*
X9908905Y-20250205D01*
X10270809Y-20554967D02*
X10261286Y-20545443D01*
X10242238Y-20516871D01*
X10232714Y-20497824D01*
X10223190Y-20469252D01*
X10213667Y-20421633D01*
X10213667Y-20383538D01*
X10223190Y-20335919D01*
X10232714Y-20307348D01*
X10242238Y-20288300D01*
X10261286Y-20259729D01*
X10270809Y-20250205D01*
X10347000Y-20345443D02*
X10347000Y-20478776D01*
X10347000Y-20364490D02*
X10356524Y-20354967D01*
X10375571Y-20345443D01*
X10404143Y-20345443D01*
X10423190Y-20354967D01*
X10432714Y-20374014D01*
X10432714Y-20478776D01*
X10556524Y-20478776D02*
X10537476Y-20469252D01*
X10527952Y-20459729D01*
X10518428Y-20440681D01*
X10518428Y-20383538D01*
X10527952Y-20364490D01*
X10537476Y-20354967D01*
X10556524Y-20345443D01*
X10585095Y-20345443D01*
X10604143Y-20354967D01*
X10613667Y-20364490D01*
X10623190Y-20383538D01*
X10623190Y-20440681D01*
X10613667Y-20459729D01*
X10604143Y-20469252D01*
X10585095Y-20478776D01*
X10556524Y-20478776D01*
X10680333Y-20345443D02*
X10756524Y-20345443D01*
X10708905Y-20278776D02*
X10708905Y-20450205D01*
X10718428Y-20469252D01*
X10737476Y-20478776D01*
X10756524Y-20478776D01*
X10975571Y-20345443D02*
X10975571Y-20545443D01*
X10975571Y-20354967D02*
X10994619Y-20345443D01*
X11032714Y-20345443D01*
X11051762Y-20354967D01*
X11061286Y-20364490D01*
X11070809Y-20383538D01*
X11070809Y-20440681D01*
X11061286Y-20459729D01*
X11051762Y-20469252D01*
X11032714Y-20478776D01*
X10994619Y-20478776D01*
X10975571Y-20469252D01*
X11185095Y-20478776D02*
X11166048Y-20469252D01*
X11156524Y-20450205D01*
X11156524Y-20278776D01*
X11347000Y-20478776D02*
X11347000Y-20374014D01*
X11337476Y-20354967D01*
X11318428Y-20345443D01*
X11280333Y-20345443D01*
X11261286Y-20354967D01*
X11347000Y-20469252D02*
X11327952Y-20478776D01*
X11280333Y-20478776D01*
X11261286Y-20469252D01*
X11251762Y-20450205D01*
X11251762Y-20431157D01*
X11261286Y-20412110D01*
X11280333Y-20402586D01*
X11327952Y-20402586D01*
X11347000Y-20393062D01*
X11413666Y-20345443D02*
X11489857Y-20345443D01*
X11442238Y-20278776D02*
X11442238Y-20450205D01*
X11451762Y-20469252D01*
X11470809Y-20478776D01*
X11489857Y-20478776D01*
X11632714Y-20469252D02*
X11613666Y-20478776D01*
X11575571Y-20478776D01*
X11556524Y-20469252D01*
X11547000Y-20450205D01*
X11547000Y-20374014D01*
X11556524Y-20354967D01*
X11575571Y-20345443D01*
X11613666Y-20345443D01*
X11632714Y-20354967D01*
X11642238Y-20374014D01*
X11642238Y-20393062D01*
X11547000Y-20412110D01*
X11813666Y-20478776D02*
X11813666Y-20278776D01*
X11813666Y-20469252D02*
X11794619Y-20478776D01*
X11756524Y-20478776D01*
X11737476Y-20469252D01*
X11727952Y-20459729D01*
X11718428Y-20440681D01*
X11718428Y-20383538D01*
X11727952Y-20364490D01*
X11737476Y-20354967D01*
X11756524Y-20345443D01*
X11794619Y-20345443D01*
X11813666Y-20354967D01*
X11889857Y-20554967D02*
X11899381Y-20545443D01*
X11918428Y-20516871D01*
X11927952Y-20497824D01*
X11937476Y-20469252D01*
X11947000Y-20421633D01*
X11947000Y-20383538D01*
X11937476Y-20335919D01*
X11927952Y-20307348D01*
X11918428Y-20288300D01*
X11899381Y-20259729D01*
X11889857Y-20250205D01*
M02*
