M48
; DRILL file {KiCad 7.0.1} date Mon Apr 17 11:26:54 2023
; FORMAT={-:-/ absolute / inch / decimal}
; #@! TF.CreationDate,2023-04-17T11:26:54-07:00
; #@! TF.GenerationSoftware,Kicad,Pcbnew,7.0.1
; #@! TF.FileFunction,NonPlated,1,2,NPTH
FMAT,2
INCH
; #@! TA.AperFunction,NonPlated,NPTH,ComponentDrill
T1C0.0670
; #@! TA.AperFunction,NonPlated,NPTH,ComponentDrill
T2C0.0866
; #@! TA.AperFunction,NonPlated,NPTH,ComponentDrill
T3C0.1181
; #@! TA.AperFunction,NonPlated,NPTH,ComponentDrill
T4C0.1200
; #@! TA.AperFunction,NonPlated,NPTH,ComponentDrill
T5C0.1201
; #@! TA.AperFunction,NonPlated,NPTH,ComponentDrill
T6C0.1570
; #@! TA.AperFunction,NonPlated,NPTH,ComponentDrill
T7C0.1575
%
G90
G05
T1
X5.8865Y-6.2231
X5.8865Y-7.1606
X5.9803Y-10.1606
X6.074Y-7.9106
X6.1678Y-8.6606
X6.2865Y-6.2231
X6.2865Y-7.1606
X6.3576Y-9.4083
X6.3803Y-10.1606
X6.474Y-7.9106
X6.5678Y-8.6606
X6.6365Y-7.1606
X6.7576Y-9.4083
X6.824Y-6.2231
X6.9178Y-10.1606
X7.0115Y-7.9106
X7.0365Y-7.1606
X7.199Y-8.6606
X7.224Y-6.2231
X7.3178Y-10.1606
X7.3865Y-7.1606
X7.4115Y-7.9106
X7.574Y-6.2231
X7.574Y-9.4106
X7.599Y-8.6606
X7.7615Y-7.9106
X7.7865Y-7.1606
X7.8553Y-10.1606
X7.949Y-8.6606
X7.974Y-6.2231
X7.974Y-9.4106
X8.1365Y-7.1606
X8.1615Y-7.9106
X8.2553Y-10.1606
X8.324Y-6.2231
X8.324Y-9.4106
X8.349Y-8.6606
X8.5115Y-7.9106
X8.5365Y-7.1606
X8.699Y-8.6606
X8.724Y-6.2231
X8.724Y-9.4106
X8.8865Y-7.1606
X8.9115Y-7.9106
X9.074Y-6.2231
X9.074Y-9.4106
X9.099Y-8.6606
X9.2615Y-7.9106
X9.2865Y-7.1606
X9.449Y-8.6606
X9.474Y-6.2231
X9.474Y-9.4106
X9.6365Y-7.1606
X9.6615Y-7.9106
X9.824Y-9.4106
X9.849Y-8.6606
X10.0115Y-6.2231
X10.0115Y-7.9106
X10.0365Y-7.1606
X10.199Y-8.6606
X10.224Y-9.4106
X10.3865Y-7.1606
X10.4115Y-6.2231
X10.4115Y-7.9106
X10.574Y-9.4106
X10.599Y-8.6606
X10.6665Y-10.1622
X10.7615Y-6.2231
X10.7615Y-7.9106
X10.7865Y-7.1606
X10.949Y-8.6606
X10.974Y-9.4106
X11.0665Y-10.1622
X11.1365Y-7.1606
X11.1615Y-6.2231
X11.1615Y-7.9106
X11.324Y-9.4106
X11.349Y-8.6606
X11.5115Y-6.2231
X11.5115Y-7.9106
X11.5365Y-7.1606
X11.699Y-8.6606
X11.724Y-9.4106
X11.8865Y-7.1606
X11.9115Y-6.2231
X11.9115Y-7.9106
X12.074Y-9.4106
X12.099Y-8.6606
X12.2615Y-6.2231
X12.2615Y-7.9106
X12.2865Y-7.1606
X12.449Y-8.6606
X12.474Y-9.4106
X12.6365Y-7.1606
X12.6615Y-6.2231
X12.6615Y-7.9106
X12.824Y-9.4106
X12.849Y-8.6606
X13.0115Y-7.9106
X13.0365Y-7.1606
X13.199Y-6.2231
X13.199Y-8.6606
X13.224Y-9.4106
X13.3865Y-7.1606
X13.3865Y-10.1606
X13.4115Y-7.9106
X13.574Y-9.4106
X13.599Y-6.2231
X13.599Y-8.6606
X13.7615Y-7.9106
X13.7865Y-7.1606
X13.7865Y-10.1606
X13.949Y-6.2231
X13.949Y-8.6606
X13.974Y-9.4106
X14.1365Y-7.1606
X14.1365Y-10.1606
X14.1615Y-7.9106
X14.324Y-9.4106
X14.349Y-6.2231
X14.349Y-8.6606
X14.5115Y-7.9106
X14.5365Y-7.1606
X14.5365Y-10.1606
X14.699Y-6.2231
X14.699Y-8.6606
X14.724Y-9.4106
X14.8865Y-7.1606
X14.8865Y-10.1606
X14.9115Y-7.9106
X15.099Y-6.2231
X15.099Y-8.6606
X15.2615Y-7.9106
X15.2865Y-7.1606
X15.2865Y-10.1606
X15.3555Y-9.4106
X15.449Y-6.2231
X15.6615Y-7.9106
X15.7555Y-9.4106
X15.824Y-10.3481
X15.849Y-6.2231
X15.9201Y-8.6583
X16.0139Y-7.1583
X16.199Y-7.9106
X16.224Y-10.3481
X16.3201Y-8.6583
X16.3865Y-6.2231
X16.4139Y-7.1583
X16.574Y-9.5981
X16.574Y-10.3481
X16.599Y-7.9106
X16.7865Y-6.2231
X16.974Y-9.5981
X16.974Y-10.3481
X17.324Y-7.1606
X17.324Y-7.9106
X17.324Y-8.6606
X17.324Y-10.3481
X17.724Y-7.1606
X17.724Y-7.9106
X17.724Y-8.6606
X17.724Y-10.3481
T2
X5.6512Y-10.7874
X5.6543Y-5.7854
X17.9606Y-5.7909
X17.965Y-10.7823
T3
X5.9365Y-6.1231
X5.9365Y-7.0606
X6.0303Y-10.0606
X6.124Y-7.8106
X6.1865Y-6.0231
X6.1865Y-6.9606
X6.2178Y-8.5606
X6.2803Y-9.9606
X6.374Y-7.7106
X6.4076Y-9.3083
X6.4678Y-8.4606
X6.6576Y-9.2083
X6.6865Y-7.0606
X6.874Y-6.1231
X6.9365Y-6.9606
X6.9678Y-10.0606
X7.0615Y-7.8106
X7.124Y-6.0231
X7.2178Y-9.9606
X7.249Y-8.5606
X7.3115Y-7.7106
X7.4365Y-7.0606
X7.499Y-8.4606
X7.624Y-6.1231
X7.624Y-9.3106
X7.6865Y-6.9606
X7.8115Y-7.8106
X7.874Y-6.0231
X7.874Y-9.2106
X7.9053Y-10.0606
X7.999Y-8.5606
X8.0615Y-7.7106
X8.1553Y-9.9606
X8.1865Y-7.0606
X8.249Y-8.4606
X8.374Y-6.1231
X8.374Y-9.3106
X8.4365Y-6.9606
X8.5615Y-7.8106
X8.624Y-6.0231
X8.624Y-9.2106
X8.749Y-8.5606
X8.8115Y-7.7106
X8.9365Y-7.0606
X8.999Y-8.4606
X9.124Y-6.1231
X9.124Y-9.3106
X9.1865Y-6.9606
X9.3115Y-7.8106
X9.374Y-6.0231
X9.374Y-9.2106
X9.499Y-8.5606
X9.5615Y-7.7106
X9.6865Y-7.0606
X9.749Y-8.4606
X9.874Y-9.3106
X9.9365Y-6.9606
X10.0615Y-6.1231
X10.0615Y-7.8106
X10.124Y-9.2106
X10.249Y-8.5606
X10.3115Y-6.0231
X10.3115Y-7.7106
X10.4365Y-7.0606
X10.499Y-8.4606
X10.624Y-9.3106
X10.6865Y-6.9606
X10.7165Y-10.0622
X10.8115Y-6.1231
X10.8115Y-7.8106
X10.874Y-9.2106
X10.9665Y-9.9622
X10.999Y-8.5606
X11.0615Y-6.0231
X11.0615Y-7.7106
X11.1865Y-7.0606
X11.249Y-8.4606
X11.374Y-9.3106
X11.4365Y-6.9606
X11.5615Y-6.1231
X11.5615Y-7.8106
X11.624Y-9.2106
X11.749Y-8.5606
X11.8115Y-6.0231
X11.8115Y-7.7106
X11.9365Y-7.0606
X11.999Y-8.4606
X12.124Y-9.3106
X12.1865Y-6.9606
X12.3115Y-6.1231
X12.3115Y-7.8106
X12.374Y-9.2106
X12.499Y-8.5606
X12.5615Y-6.0231
X12.5615Y-7.7106
X12.6865Y-7.0606
X12.749Y-8.4606
X12.874Y-9.3106
X12.9365Y-6.9606
X13.0615Y-7.8106
X13.124Y-9.2106
X13.249Y-6.1231
X13.249Y-8.5606
X13.3115Y-7.7106
X13.4365Y-7.0606
X13.4365Y-10.0606
X13.499Y-6.0231
X13.499Y-8.4606
X13.624Y-9.3106
X13.6865Y-6.9606
X13.6865Y-9.9606
X13.8115Y-7.8106
X13.874Y-9.2106
X13.999Y-6.1231
X13.999Y-8.5606
X14.0615Y-7.7106
X14.1865Y-7.0606
X14.1865Y-10.0606
X14.249Y-6.0231
X14.249Y-8.4606
X14.374Y-9.3106
X14.4365Y-6.9606
X14.4365Y-9.9606
X14.5615Y-7.8106
X14.624Y-9.2106
X14.749Y-6.1231
X14.749Y-8.5606
X14.8115Y-7.7106
X14.9365Y-7.0606
X14.9365Y-10.0606
X14.999Y-6.0231
X14.999Y-8.4606
X15.1865Y-6.9606
X15.1865Y-9.9606
X15.3115Y-7.8106
X15.4055Y-9.3106
X15.499Y-6.1231
X15.5615Y-7.7106
X15.6555Y-9.2106
X15.749Y-6.0231
X15.874Y-10.2481
X15.9701Y-8.5583
X16.0639Y-7.0583
X16.124Y-10.1481
X16.2201Y-8.4583
X16.249Y-7.8106
X16.3139Y-6.9583
X16.4365Y-6.1231
X16.499Y-7.7106
X16.624Y-9.4981
X16.624Y-10.2481
X16.6865Y-6.0231
X16.874Y-9.3981
X16.874Y-10.1481
X17.374Y-7.0606
X17.374Y-7.8106
X17.374Y-8.5606
X17.374Y-10.2481
X17.624Y-6.9606
X17.624Y-7.7106
X17.624Y-8.4606
X17.624Y-10.1481
T4
X8.9014Y-9.8833
X12.8389Y-9.8833
T5
X6.0886Y-9.1253
X7.0256Y-9.1253
X15.0865Y-9.1276
X15.6511Y-8.3753
X15.7449Y-6.8753
X16.0235Y-9.1276
X16.5881Y-8.3753
X16.6819Y-6.8753
T6
X6.0865Y-6.2231
X6.0865Y-7.1606
X6.1803Y-10.1606
X6.274Y-7.9106
X6.3678Y-8.6606
X6.5576Y-9.4083
X6.8365Y-7.1606
X7.024Y-6.2231
X7.1178Y-10.1606
X7.2115Y-7.9106
X7.399Y-8.6606
X7.5865Y-7.1606
X7.774Y-6.2231
X7.774Y-9.4106
X7.9615Y-7.9106
X8.0553Y-10.1606
X8.149Y-8.6606
X8.3365Y-7.1606
X8.524Y-6.2231
X8.524Y-9.4106
X8.7115Y-7.9106
X8.899Y-8.6606
X8.9014Y-10.4833
X9.0865Y-7.1606
X9.274Y-6.2231
X9.274Y-9.4106
X9.4615Y-7.9106
X9.649Y-8.6606
X9.8365Y-7.1606
X10.024Y-9.4106
X10.2115Y-6.2231
X10.2115Y-7.9106
X10.399Y-8.6606
X10.5865Y-7.1606
X10.774Y-9.4106
X10.8665Y-10.1622
X10.9615Y-6.2231
X10.9615Y-7.9106
X11.149Y-8.6606
X11.3365Y-7.1606
X11.524Y-9.4106
X11.7115Y-6.2231
X11.7115Y-7.9106
X11.899Y-8.6606
X12.0865Y-7.1606
X12.274Y-9.4106
X12.4615Y-6.2231
X12.4615Y-7.9106
X12.649Y-8.6606
X12.8365Y-7.1606
X12.8389Y-10.4833
X13.024Y-9.4106
X13.2115Y-7.9106
X13.399Y-6.2231
X13.399Y-8.6606
X13.5865Y-7.1606
X13.5865Y-10.1606
X13.774Y-9.4106
X13.9615Y-7.9106
X14.149Y-6.2231
X14.149Y-8.6606
X14.3365Y-7.1606
X14.3365Y-10.1606
X14.524Y-9.4106
X14.7115Y-7.9106
X14.899Y-6.2231
X14.899Y-8.6606
X15.0865Y-7.1606
X15.0865Y-10.1606
X15.4615Y-7.9106
X15.5555Y-9.4106
X15.649Y-6.2231
X16.024Y-10.3481
X16.1201Y-8.6583
X16.2139Y-7.1583
X16.399Y-7.9106
X16.5865Y-6.2231
X16.774Y-9.5981
X16.774Y-10.3481
X17.524Y-7.1606
X17.524Y-7.9106
X17.524Y-8.6606
X17.524Y-10.3481
T7
X6.0886Y-9.7253
X7.0256Y-9.7253
X15.0865Y-9.7276
X15.6511Y-8.9753
X15.7449Y-7.4753
X16.0235Y-9.7276
X16.5881Y-8.9753
X16.6819Y-7.4753
T0
M30
