M48
; DRILL file {KiCad 7.0.1} date Sun Apr 16 01:49:01 2023
; FORMAT={-:-/ absolute / metric / decimal}
; #@! TF.CreationDate,2023-04-16T01:49:01-07:00
; #@! TF.GenerationSoftware,Kicad,Pcbnew,7.0.1
; #@! TF.FileFunction,NonPlated,1,2,NPTH
FMAT,2
METRIC
; #@! TA.AperFunction,NonPlated,NPTH,ComponentDrill
T1C1.702
; #@! TA.AperFunction,NonPlated,NPTH,ComponentDrill
T2C2.200
; #@! TA.AperFunction,NonPlated,NPTH,ComponentDrill
T3C3.000
; #@! TA.AperFunction,NonPlated,NPTH,ComponentDrill
T4C3.048
; #@! TA.AperFunction,NonPlated,NPTH,ComponentDrill
T5C3.050
; #@! TA.AperFunction,NonPlated,NPTH,ComponentDrill
T6C3.988
; #@! TA.AperFunction,NonPlated,NPTH,ComponentDrill
T7C4.000
%
G90
G05
T1
X149.517Y-158.067
X149.517Y-181.88
X151.899Y-258.08
X154.28Y-200.93
X156.661Y-219.98
X159.677Y-158.067
X159.677Y-181.88
X161.484Y-238.97
X162.059Y-258.08
X164.44Y-200.93
X166.821Y-219.98
X168.567Y-181.88
X171.644Y-238.97
X173.33Y-158.067
X175.711Y-258.08
X178.093Y-200.93
X178.727Y-181.88
X182.855Y-219.98
X183.49Y-158.067
X185.871Y-258.08
X187.617Y-181.88
X188.252Y-200.93
X192.38Y-158.067
X192.38Y-239.03
X193.015Y-219.98
X197.142Y-200.93
X197.778Y-181.88
X199.524Y-258.08
X201.905Y-219.98
X202.54Y-158.067
X202.54Y-239.03
X206.667Y-181.88
X207.302Y-200.93
X209.684Y-258.08
X211.43Y-158.067
X211.43Y-239.03
X212.065Y-219.98
X216.192Y-200.93
X216.827Y-181.88
X220.955Y-219.98
X221.59Y-158.067
X221.59Y-239.03
X225.718Y-181.88
X226.352Y-200.93
X230.48Y-158.067
X230.48Y-239.03
X231.115Y-219.98
X235.242Y-200.93
X235.877Y-181.88
X240.005Y-219.98
X240.64Y-158.067
X240.64Y-239.03
X244.767Y-181.88
X245.402Y-200.93
X249.53Y-239.03
X250.165Y-219.98
X254.292Y-158.067
X254.292Y-200.93
X254.927Y-181.88
X259.055Y-219.98
X259.69Y-239.03
X263.817Y-181.88
X264.452Y-158.067
X264.452Y-200.93
X268.58Y-239.03
X269.215Y-219.98
X270.93Y-258.12
X273.342Y-158.067
X273.342Y-200.93
X273.977Y-181.88
X278.105Y-219.98
X278.74Y-239.03
X281.09Y-258.12
X282.868Y-181.88
X283.502Y-158.067
X283.502Y-200.93
X287.63Y-239.03
X288.265Y-219.98
X292.392Y-158.067
X292.392Y-200.93
X293.027Y-181.88
X297.155Y-219.98
X297.79Y-239.03
X301.917Y-181.88
X302.553Y-158.067
X302.553Y-200.93
X306.68Y-239.03
X307.315Y-219.98
X311.442Y-158.067
X311.442Y-200.93
X312.077Y-181.88
X316.205Y-219.98
X316.84Y-239.03
X320.967Y-181.88
X321.602Y-158.067
X321.602Y-200.93
X325.73Y-239.03
X326.365Y-219.98
X330.493Y-200.93
X331.127Y-181.88
X335.255Y-158.067
X335.255Y-219.98
X335.89Y-239.03
X340.017Y-181.88
X340.017Y-258.08
X340.652Y-200.93
X344.78Y-239.03
X345.415Y-158.067
X345.415Y-219.98
X349.542Y-200.93
X350.178Y-181.88
X350.178Y-258.08
X354.305Y-158.067
X354.305Y-219.98
X354.94Y-239.03
X359.067Y-181.88
X359.067Y-258.08
X359.702Y-200.93
X363.83Y-239.03
X364.465Y-158.067
X364.465Y-219.98
X368.592Y-200.93
X369.227Y-181.88
X369.227Y-258.08
X373.355Y-158.067
X373.355Y-219.98
X373.99Y-239.03
X378.118Y-181.88
X378.118Y-258.08
X378.752Y-200.93
X383.515Y-158.067
X383.515Y-219.98
X387.642Y-200.93
X388.277Y-181.88
X388.277Y-258.08
X390.03Y-239.028
X392.405Y-158.067
X397.803Y-200.93
X400.19Y-239.028
X401.93Y-262.842
X402.565Y-158.067
X404.371Y-219.92
X406.752Y-181.82
X411.455Y-200.93
X412.09Y-262.842
X414.531Y-219.92
X416.217Y-158.067
X416.912Y-181.82
X420.98Y-243.792
X420.98Y-262.842
X421.615Y-200.93
X426.377Y-158.067
X431.14Y-243.792
X431.14Y-262.842
X440.03Y-181.88
X440.03Y-200.93
X440.03Y-219.98
X440.03Y-262.842
X450.19Y-181.88
X450.19Y-200.93
X450.19Y-219.98
X450.19Y-262.842
T2
X143.54Y-274.0
X143.62Y-146.95
X456.2Y-147.09
X456.31Y-273.87
T3
X150.787Y-155.528
X150.787Y-179.34
X153.169Y-255.54
X155.55Y-198.39
X157.137Y-152.987
X157.137Y-176.8
X157.931Y-217.44
X159.519Y-253.0
X161.9Y-195.85
X162.754Y-236.43
X164.281Y-214.9
X169.104Y-233.89
X169.838Y-179.34
X174.6Y-155.528
X176.188Y-176.8
X176.981Y-255.54
X179.362Y-198.39
X180.95Y-152.987
X183.331Y-253.0
X184.125Y-217.44
X185.713Y-195.85
X188.887Y-179.34
X190.475Y-214.9
X193.65Y-155.528
X193.65Y-236.49
X195.237Y-176.8
X198.412Y-198.39
X200.0Y-152.987
X200.0Y-233.95
X200.794Y-255.54
X203.175Y-217.44
X204.762Y-195.85
X207.144Y-253.0
X207.938Y-179.34
X209.525Y-214.9
X212.7Y-155.528
X212.7Y-236.49
X214.287Y-176.8
X217.462Y-198.39
X219.05Y-152.987
X219.05Y-233.95
X222.225Y-217.44
X223.812Y-195.85
X226.987Y-179.34
X228.575Y-214.9
X231.75Y-155.528
X231.75Y-236.49
X233.337Y-176.8
X236.512Y-198.39
X238.1Y-152.987
X238.1Y-233.95
X241.275Y-217.44
X242.862Y-195.85
X246.037Y-179.34
X247.625Y-214.9
X250.8Y-236.49
X252.387Y-176.8
X255.562Y-155.528
X255.562Y-198.39
X257.15Y-233.95
X260.325Y-217.44
X261.912Y-152.987
X261.912Y-195.85
X265.087Y-179.34
X266.675Y-214.9
X269.85Y-236.49
X271.438Y-176.8
X272.2Y-255.58
X274.613Y-155.528
X274.613Y-198.39
X276.2Y-233.95
X278.55Y-253.04
X279.375Y-217.44
X280.962Y-152.987
X280.962Y-195.85
X284.137Y-179.34
X285.725Y-214.9
X288.9Y-236.49
X290.488Y-176.8
X293.662Y-155.528
X293.662Y-198.39
X295.25Y-233.95
X298.425Y-217.44
X300.012Y-152.987
X300.012Y-195.85
X303.188Y-179.34
X304.775Y-214.9
X307.95Y-236.49
X309.537Y-176.8
X312.712Y-155.528
X312.712Y-198.39
X314.3Y-233.95
X317.475Y-217.44
X319.062Y-152.987
X319.062Y-195.85
X322.238Y-179.34
X323.825Y-214.9
X327.0Y-236.49
X328.587Y-176.8
X331.762Y-198.39
X333.35Y-233.95
X336.525Y-155.528
X336.525Y-217.44
X338.113Y-195.85
X341.287Y-179.34
X341.287Y-255.54
X342.875Y-152.987
X342.875Y-214.9
X346.05Y-236.49
X347.637Y-176.8
X347.637Y-253.0
X350.812Y-198.39
X352.4Y-233.95
X355.575Y-155.528
X355.575Y-217.44
X357.162Y-195.85
X360.337Y-179.34
X360.337Y-255.54
X361.925Y-152.987
X361.925Y-214.9
X365.1Y-236.49
X366.688Y-176.8
X366.688Y-253.0
X369.863Y-198.39
X371.45Y-233.95
X374.625Y-155.528
X374.625Y-217.44
X376.212Y-195.85
X379.387Y-179.34
X379.387Y-255.54
X380.975Y-152.987
X380.975Y-214.9
X385.737Y-176.8
X385.737Y-253.0
X388.912Y-198.39
X391.3Y-236.488
X393.675Y-155.528
X395.262Y-195.85
X397.65Y-233.948
X400.025Y-152.987
X403.2Y-260.303
X405.641Y-217.38
X408.022Y-179.28
X409.55Y-257.762
X411.991Y-214.84
X412.725Y-198.39
X414.373Y-176.74
X417.487Y-155.528
X419.075Y-195.85
X422.25Y-241.252
X422.25Y-260.303
X423.837Y-152.987
X428.6Y-238.712
X428.6Y-257.762
X441.3Y-179.34
X441.3Y-198.39
X441.3Y-217.44
X441.3Y-260.303
X447.65Y-176.8
X447.65Y-195.85
X447.65Y-214.9
X447.65Y-257.762
T4
X226.095Y-251.035
X326.107Y-251.035
T5
X154.651Y-231.782
X178.451Y-231.782
X383.197Y-231.84
X397.538Y-212.732
X399.92Y-174.632
X406.998Y-231.84
X421.338Y-212.732
X423.72Y-174.632
T6
X154.597Y-158.067
X154.597Y-181.88
X156.979Y-258.08
X159.36Y-200.93
X161.741Y-219.98
X166.564Y-238.97
X173.647Y-181.88
X178.41Y-158.067
X180.791Y-258.08
X183.172Y-200.93
X187.935Y-219.98
X192.697Y-181.88
X197.46Y-158.067
X197.46Y-239.03
X202.222Y-200.93
X204.604Y-258.08
X206.985Y-219.98
X211.748Y-181.88
X216.51Y-158.067
X216.51Y-239.03
X221.272Y-200.93
X226.035Y-219.98
X226.095Y-266.275
X230.797Y-181.88
X235.56Y-158.067
X235.56Y-239.03
X240.322Y-200.93
X245.085Y-219.98
X249.847Y-181.88
X254.61Y-239.03
X259.373Y-158.067
X259.373Y-200.93
X264.135Y-219.98
X268.897Y-181.88
X273.66Y-239.03
X276.01Y-258.12
X278.423Y-158.067
X278.423Y-200.93
X283.185Y-219.98
X287.947Y-181.88
X292.71Y-239.03
X297.472Y-158.067
X297.472Y-200.93
X302.235Y-219.98
X306.998Y-181.88
X311.76Y-239.03
X316.522Y-158.067
X316.522Y-200.93
X321.285Y-219.98
X326.048Y-181.88
X326.107Y-266.275
X330.81Y-239.03
X335.572Y-200.93
X340.335Y-158.067
X340.335Y-219.98
X345.097Y-181.88
X345.097Y-258.08
X349.86Y-239.03
X354.623Y-200.93
X359.385Y-158.067
X359.385Y-219.98
X364.147Y-181.88
X364.147Y-258.08
X368.91Y-239.03
X373.672Y-200.93
X378.435Y-158.067
X378.435Y-219.98
X383.197Y-181.88
X383.197Y-258.08
X392.722Y-200.93
X395.11Y-239.028
X397.485Y-158.067
X407.01Y-262.842
X409.451Y-219.92
X411.832Y-181.82
X416.535Y-200.93
X421.297Y-158.067
X426.06Y-243.792
X426.06Y-262.842
X445.11Y-181.88
X445.11Y-200.93
X445.11Y-219.98
X445.11Y-262.842
T7
X154.651Y-247.022
X178.451Y-247.022
X383.197Y-247.08
X397.538Y-227.972
X399.92Y-189.872
X406.998Y-247.08
X421.338Y-227.972
X423.72Y-189.872
T0
M30
