G04 #@! TF.GenerationSoftware,KiCad,Pcbnew,(6.0.10)*
G04 #@! TF.CreationDate,2023-03-11T21:04:29-08:00*
G04 #@! TF.ProjectId,keyboard,6b657962-6f61-4726-942e-6b696361645f,rev?*
G04 #@! TF.SameCoordinates,Original*
G04 #@! TF.FileFunction,Soldermask,Bot*
G04 #@! TF.FilePolarity,Negative*
%FSLAX46Y46*%
G04 Gerber Fmt 4.6, Leading zero omitted, Abs format (unit mm)*
G04 Created by KiCad (PCBNEW (6.0.10)) date 2023-03-11 21:04:29*
%MOMM*%
%LPD*%
G01*
G04 APERTURE LIST*
%ADD10R,1.600000X1.600000*%
%ADD11C,1.600000*%
%ADD12C,4.000000*%
%ADD13C,3.050000*%
%ADD14C,3.000000*%
%ADD15C,3.987800*%
%ADD16C,1.701800*%
%ADD17R,2.550000X2.500000*%
%ADD18C,3.800000*%
%ADD19C,3.048000*%
%ADD20R,1.752600X1.752600*%
%ADD21C,1.752600*%
G04 APERTURE END LIST*
D10*
X232320000Y-144850000D03*
D11*
X232320000Y-137050000D03*
D10*
X274950000Y-202100000D03*
D11*
X274950000Y-194300000D03*
D12*
X395623450Y-186731800D03*
D13*
X395623450Y-171491800D03*
D14*
X386276250Y-173600000D03*
D12*
X371823450Y-186731800D03*
D15*
X383736250Y-178680000D03*
D14*
X379926250Y-176140000D03*
D16*
X388816250Y-178680000D03*
X378656250Y-178680000D03*
D13*
X371823450Y-171491800D03*
D17*
X390026250Y-173600000D03*
X376176250Y-176140000D03*
D10*
X382450000Y-202330000D03*
D11*
X382450000Y-194530000D03*
D10*
X429507500Y-121070000D03*
D11*
X429507500Y-113270000D03*
D10*
X218052500Y-121070000D03*
D11*
X218052500Y-113270000D03*
D16*
X285787500Y-159630000D03*
D15*
X290867500Y-159630000D03*
D14*
X287057500Y-157090000D03*
X293407500Y-154550000D03*
D16*
X295947500Y-159630000D03*
D17*
X297157500Y-154550000D03*
X283307500Y-157090000D03*
D14*
X334682500Y-138040000D03*
D16*
X343572500Y-140580000D03*
X333412500Y-140580000D03*
D14*
X341032500Y-135500000D03*
D15*
X338492500Y-140580000D03*
D17*
X344782500Y-135500000D03*
X330932500Y-138040000D03*
D14*
X298170000Y-173600000D03*
X291820000Y-176140000D03*
D15*
X295630000Y-178680000D03*
D16*
X290550000Y-178680000D03*
X300710000Y-178680000D03*
D17*
X301920000Y-173600000D03*
X288070000Y-176140000D03*
D14*
X245782500Y-135500000D03*
D16*
X248322500Y-140580000D03*
D14*
X239432500Y-138040000D03*
D16*
X238162500Y-140580000D03*
D15*
X243242500Y-140580000D03*
D17*
X249532500Y-135500000D03*
X235682500Y-138040000D03*
D10*
X203745000Y-163900000D03*
D11*
X203745000Y-156100000D03*
D10*
X170330000Y-183000000D03*
D11*
X170330000Y-175200000D03*
D10*
X194220000Y-144850000D03*
D11*
X194220000Y-137050000D03*
D10*
X251370000Y-144850000D03*
D11*
X251370000Y-137050000D03*
D10*
X198750000Y-202100000D03*
D11*
X198750000Y-194300000D03*
D14*
X345795000Y-192650000D03*
D16*
X338175000Y-197730000D03*
X348335000Y-197730000D03*
D15*
X343255000Y-197730000D03*
D14*
X339445000Y-195190000D03*
D17*
X349545000Y-192650000D03*
X335695000Y-195190000D03*
D10*
X298995000Y-163900000D03*
D11*
X298995000Y-156100000D03*
D10*
X289470000Y-144850000D03*
D11*
X289470000Y-137050000D03*
D10*
X227480000Y-183000000D03*
D11*
X227480000Y-175200000D03*
D15*
X195617500Y-159630000D03*
D16*
X200697500Y-159630000D03*
D14*
X198157500Y-154550000D03*
X191807500Y-157090000D03*
D16*
X190537500Y-159630000D03*
D17*
X201907500Y-154550000D03*
X188057500Y-157090000D03*
D10*
X284630000Y-183000000D03*
D11*
X284630000Y-175200000D03*
D10*
X429487500Y-140087500D03*
D11*
X429487500Y-132287500D03*
D15*
X257530000Y-178680000D03*
D16*
X262610000Y-178680000D03*
X252450000Y-178680000D03*
D14*
X253720000Y-176140000D03*
X260070000Y-173600000D03*
D17*
X263820000Y-173600000D03*
X249970000Y-176140000D03*
D15*
X271817500Y-116767500D03*
D14*
X274357500Y-111687500D03*
D16*
X266737500Y-116767500D03*
X276897500Y-116767500D03*
D14*
X268007500Y-114227500D03*
D17*
X278107500Y-111687500D03*
X264257500Y-114227500D03*
D10*
X217800000Y-202100000D03*
D11*
X217800000Y-194300000D03*
D16*
X153072500Y-140580000D03*
D14*
X150532500Y-135500000D03*
D15*
X147992500Y-140580000D03*
D16*
X142912500Y-140580000D03*
D14*
X144182500Y-138040000D03*
D17*
X154282500Y-135500000D03*
X140432500Y-138040000D03*
D10*
X137070000Y-144850000D03*
D11*
X137070000Y-137050000D03*
D14*
X274357500Y-154550000D03*
X268007500Y-157090000D03*
D16*
X276897500Y-159630000D03*
X266737500Y-159630000D03*
D15*
X271817500Y-159630000D03*
D17*
X278107500Y-154550000D03*
X264257500Y-157090000D03*
D15*
X390880000Y-159630000D03*
D14*
X387070000Y-157090000D03*
X393420000Y-154550000D03*
D16*
X385800000Y-159630000D03*
X395960000Y-159630000D03*
D17*
X397170000Y-154550000D03*
X383320000Y-157090000D03*
D10*
X165645000Y-163900000D03*
D11*
X165645000Y-156100000D03*
D10*
X413460000Y-220870000D03*
D11*
X413460000Y-213070000D03*
D16*
X255430000Y-216760000D03*
D14*
X252890000Y-211680000D03*
D15*
X250350000Y-216760000D03*
D14*
X246540000Y-214220000D03*
D16*
X245270000Y-216760000D03*
D17*
X256640000Y-211680000D03*
X242790000Y-214220000D03*
D15*
X309917500Y-159630000D03*
D14*
X306107500Y-157090000D03*
D16*
X304837500Y-159630000D03*
X314997500Y-159630000D03*
D14*
X312457500Y-154550000D03*
D17*
X316207500Y-154550000D03*
X302357500Y-157090000D03*
D10*
X329890000Y-220900000D03*
D11*
X329890000Y-213100000D03*
D16*
X171487500Y-159630000D03*
D14*
X172757500Y-157090000D03*
D15*
X176567500Y-159630000D03*
D14*
X179107500Y-154550000D03*
D16*
X181647500Y-159630000D03*
D17*
X182857500Y-154550000D03*
X169007500Y-157090000D03*
D14*
X321982500Y-135500000D03*
D16*
X314362500Y-140580000D03*
D15*
X319442500Y-140580000D03*
D14*
X315632500Y-138040000D03*
D16*
X324522500Y-140580000D03*
D17*
X325732500Y-135500000D03*
X311882500Y-138040000D03*
D14*
X132276250Y-176140000D03*
D16*
X141166250Y-178680000D03*
D14*
X138626250Y-173600000D03*
D15*
X136086250Y-178680000D03*
D16*
X131006250Y-178680000D03*
D17*
X142376250Y-173600000D03*
X128526250Y-176140000D03*
D15*
X371830000Y-116767500D03*
D16*
X366750000Y-116767500D03*
D14*
X368020000Y-114227500D03*
X374370000Y-111687500D03*
D16*
X376910000Y-116767500D03*
D17*
X378120000Y-111687500D03*
X364270000Y-114227500D03*
D15*
X157517500Y-159630000D03*
D16*
X162597500Y-159630000D03*
X152437500Y-159630000D03*
D14*
X160057500Y-154550000D03*
X153707500Y-157090000D03*
D17*
X163807500Y-154550000D03*
X149957500Y-157090000D03*
D15*
X214667500Y-159630000D03*
D16*
X219747500Y-159630000D03*
D14*
X217207500Y-154550000D03*
D16*
X209587500Y-159630000D03*
D14*
X210857500Y-157090000D03*
D17*
X220957500Y-154550000D03*
X207107500Y-157090000D03*
D10*
X365670000Y-144850000D03*
D11*
X365670000Y-137050000D03*
D16*
X281660000Y-178680000D03*
X271500000Y-178680000D03*
D14*
X272770000Y-176140000D03*
D15*
X276580000Y-178680000D03*
D14*
X279120000Y-173600000D03*
D17*
X282870000Y-173600000D03*
X269020000Y-176140000D03*
D10*
X179952500Y-121070000D03*
D11*
X179952500Y-113270000D03*
D16*
X323887500Y-159630000D03*
D14*
X331507500Y-154550000D03*
X325157500Y-157090000D03*
D16*
X334047500Y-159630000D03*
D15*
X328967500Y-159630000D03*
D17*
X335257500Y-154550000D03*
X321407500Y-157090000D03*
D16*
X195300000Y-178680000D03*
D14*
X202920000Y-173600000D03*
D16*
X205460000Y-178680000D03*
D14*
X196570000Y-176140000D03*
D15*
X200380000Y-178680000D03*
D17*
X206670000Y-173600000D03*
X192820000Y-176140000D03*
D10*
X144250000Y-182970000D03*
D11*
X144250000Y-175170000D03*
D15*
X209905000Y-116767500D03*
D14*
X206095000Y-114227500D03*
X212445000Y-111687500D03*
D16*
X214985000Y-116767500D03*
X204825000Y-116767500D03*
D17*
X216195000Y-111687500D03*
X202345000Y-114227500D03*
D14*
X250545000Y-192650000D03*
D16*
X253085000Y-197730000D03*
X242925000Y-197730000D03*
D15*
X248005000Y-197730000D03*
D14*
X244195000Y-195190000D03*
D17*
X254295000Y-192650000D03*
X240445000Y-195190000D03*
D14*
X326745000Y-192650000D03*
X320395000Y-195190000D03*
D16*
X329285000Y-197730000D03*
D15*
X324205000Y-197730000D03*
D16*
X319125000Y-197730000D03*
D17*
X330495000Y-192650000D03*
X316645000Y-195190000D03*
D16*
X238797500Y-116767500D03*
D14*
X229907500Y-114227500D03*
D15*
X233717500Y-116767500D03*
D16*
X228637500Y-116767500D03*
D14*
X236257500Y-111687500D03*
D17*
X240007500Y-111687500D03*
X226157500Y-114227500D03*
D10*
X327570000Y-144850000D03*
D11*
X327570000Y-137050000D03*
D10*
X303680000Y-183000000D03*
D11*
X303680000Y-175200000D03*
D10*
X360927500Y-121070000D03*
D11*
X360927500Y-113270000D03*
D10*
X351150000Y-202100000D03*
D11*
X351150000Y-194300000D03*
D10*
X318045000Y-163900000D03*
D11*
X318045000Y-156100000D03*
D10*
X341780000Y-183000000D03*
D11*
X341780000Y-175200000D03*
D10*
X265580000Y-183000000D03*
D11*
X265580000Y-175200000D03*
D10*
X294000000Y-202100000D03*
D11*
X294000000Y-194300000D03*
D10*
X199002500Y-121070000D03*
D11*
X199002500Y-113270000D03*
D14*
X177520000Y-176140000D03*
D16*
X186410000Y-178680000D03*
X176250000Y-178680000D03*
D14*
X183870000Y-173600000D03*
D15*
X181330000Y-178680000D03*
D17*
X187620000Y-173600000D03*
X173770000Y-176140000D03*
D16*
X157835000Y-116767500D03*
D14*
X155295000Y-111687500D03*
D16*
X147675000Y-116767500D03*
D14*
X148945000Y-114227500D03*
D15*
X152755000Y-116767500D03*
D17*
X159045000Y-111687500D03*
X145195000Y-114227500D03*
D14*
X187045000Y-114227500D03*
D16*
X185775000Y-116767500D03*
D15*
X190855000Y-116767500D03*
D14*
X193395000Y-111687500D03*
D16*
X195935000Y-116767500D03*
D17*
X197145000Y-111687500D03*
X183295000Y-114227500D03*
D15*
X367067500Y-159630000D03*
D14*
X363257500Y-157090000D03*
D16*
X372147500Y-159630000D03*
X361987500Y-159630000D03*
D14*
X369607500Y-154550000D03*
D17*
X373357500Y-154550000D03*
X359507500Y-157090000D03*
D18*
X117110000Y-105010000D03*
D14*
X163232500Y-138040000D03*
D16*
X161962500Y-140580000D03*
D14*
X169582500Y-135500000D03*
D16*
X172122500Y-140580000D03*
D15*
X167042500Y-140580000D03*
D17*
X173332500Y-135500000D03*
X159482500Y-138040000D03*
D10*
X360830000Y-183000000D03*
D11*
X360830000Y-175200000D03*
D10*
X148630000Y-202200000D03*
D11*
X148630000Y-194400000D03*
D10*
X394410000Y-220870000D03*
D11*
X394410000Y-213070000D03*
D10*
X337095000Y-163900000D03*
D11*
X337095000Y-156100000D03*
D16*
X195935000Y-197730000D03*
D15*
X190855000Y-197730000D03*
D14*
X187045000Y-195190000D03*
D16*
X185775000Y-197730000D03*
D14*
X193395000Y-192650000D03*
D17*
X197145000Y-192650000D03*
X183295000Y-195190000D03*
D10*
X139390000Y-220900000D03*
D11*
X139390000Y-213100000D03*
D14*
X182282500Y-138040000D03*
X188632500Y-135500000D03*
D16*
X191172500Y-140580000D03*
X181012500Y-140580000D03*
D15*
X186092500Y-140580000D03*
D17*
X192382500Y-135500000D03*
X178532500Y-138040000D03*
D14*
X151326250Y-214240000D03*
D16*
X150056250Y-216780000D03*
D14*
X157676250Y-211700000D03*
D15*
X155136250Y-216780000D03*
D16*
X160216250Y-216780000D03*
D17*
X161426250Y-211700000D03*
X147576250Y-214240000D03*
D10*
X179700000Y-202100000D03*
D11*
X179700000Y-194300000D03*
D15*
X178948750Y-216780000D03*
D14*
X175138750Y-214240000D03*
X181488750Y-211700000D03*
D16*
X184028750Y-216780000D03*
X173868750Y-216780000D03*
D17*
X185238750Y-211700000D03*
X171388750Y-214240000D03*
D10*
X184695000Y-163900000D03*
D11*
X184695000Y-156100000D03*
D10*
X299015000Y-121070000D03*
D11*
X299015000Y-113270000D03*
D14*
X407707500Y-192650000D03*
D16*
X400087500Y-197730000D03*
D14*
X401357500Y-195190000D03*
D16*
X410247500Y-197730000D03*
D15*
X405167500Y-197730000D03*
D17*
X411457500Y-192650000D03*
X397607500Y-195190000D03*
D10*
X341877500Y-121070000D03*
D11*
X341877500Y-113270000D03*
D10*
X353702500Y-220900000D03*
D11*
X353702500Y-213100000D03*
D16*
X369131250Y-197730000D03*
D15*
X374211250Y-197730000D03*
D14*
X376751250Y-192650000D03*
D16*
X379291250Y-197730000D03*
D14*
X370401250Y-195190000D03*
D12*
X362298450Y-205781800D03*
D13*
X362298450Y-190541800D03*
X386098450Y-190541800D03*
D12*
X386098450Y-205781800D03*
D17*
X380501250Y-192650000D03*
X366651250Y-195190000D03*
D10*
X236850000Y-202100000D03*
D11*
X236850000Y-194300000D03*
D16*
X128625000Y-159630000D03*
D14*
X136245000Y-154550000D03*
D16*
X138785000Y-159630000D03*
D15*
X133705000Y-159630000D03*
D14*
X129895000Y-157090000D03*
D17*
X139995000Y-154550000D03*
X126145000Y-157090000D03*
D10*
X189380000Y-183000000D03*
D11*
X189380000Y-175200000D03*
D10*
X246530000Y-183000000D03*
D11*
X246530000Y-175200000D03*
D10*
X241865000Y-121070000D03*
D11*
X241865000Y-113270000D03*
D14*
X226732500Y-135500000D03*
D15*
X224192500Y-140580000D03*
D16*
X219112500Y-140580000D03*
X229272500Y-140580000D03*
D14*
X220382500Y-138040000D03*
D17*
X230482500Y-135500000D03*
X216632500Y-138040000D03*
D10*
X258500000Y-220690000D03*
D11*
X258500000Y-212890000D03*
D10*
X141860000Y-163960000D03*
D11*
X141860000Y-156160000D03*
D14*
X423900000Y-149787500D03*
D15*
X421360000Y-154867500D03*
D16*
X416280000Y-154867500D03*
D14*
X417550000Y-152327500D03*
D16*
X426440000Y-154867500D03*
D17*
X427650000Y-149787500D03*
X413800000Y-152327500D03*
D10*
X260895000Y-163900000D03*
D11*
X260895000Y-156100000D03*
D14*
X248957500Y-114227500D03*
D15*
X252767500Y-116767500D03*
D14*
X255307500Y-111687500D03*
D16*
X257847500Y-116767500D03*
X247687500Y-116767500D03*
D17*
X259057500Y-111687500D03*
X245207500Y-114227500D03*
D16*
X214985000Y-197730000D03*
D14*
X206095000Y-195190000D03*
X212445000Y-192650000D03*
D15*
X209905000Y-197730000D03*
D16*
X204825000Y-197730000D03*
D17*
X216195000Y-192650000D03*
X202345000Y-195190000D03*
D10*
X175170000Y-144850000D03*
D11*
X175170000Y-137050000D03*
D18*
X436070000Y-228700000D03*
X117020000Y-228770000D03*
D10*
X163202500Y-220900000D03*
D11*
X163202500Y-213100000D03*
D10*
X255900000Y-202100000D03*
D11*
X255900000Y-194300000D03*
D16*
X426440000Y-116767500D03*
D15*
X421360000Y-116767500D03*
D16*
X416280000Y-116767500D03*
D14*
X417550000Y-114227500D03*
X423900000Y-111687500D03*
D17*
X427650000Y-111687500D03*
X413800000Y-114227500D03*
D10*
X356145000Y-163900000D03*
D11*
X356145000Y-156100000D03*
D16*
X416280000Y-173917500D03*
D14*
X417550000Y-171377500D03*
D16*
X426440000Y-173917500D03*
D15*
X421360000Y-173917500D03*
D14*
X423900000Y-168837500D03*
D17*
X427650000Y-168837500D03*
X413800000Y-171377500D03*
D16*
X176885000Y-116767500D03*
D14*
X174345000Y-111687500D03*
D15*
X171805000Y-116767500D03*
D14*
X167995000Y-114227500D03*
D16*
X166725000Y-116767500D03*
D17*
X178095000Y-111687500D03*
X164245000Y-114227500D03*
D10*
X332100000Y-202100000D03*
D11*
X332100000Y-194300000D03*
D15*
X314680000Y-116767500D03*
D14*
X310870000Y-114227500D03*
X317220000Y-111687500D03*
D16*
X319760000Y-116767500D03*
X309600000Y-116767500D03*
D17*
X320970000Y-111687500D03*
X307120000Y-114227500D03*
D15*
X352780000Y-116767500D03*
D14*
X355320000Y-111687500D03*
X348970000Y-114227500D03*
D16*
X347700000Y-116767500D03*
X357860000Y-116767500D03*
D17*
X359070000Y-111687500D03*
X345220000Y-114227500D03*
D16*
X416280000Y-135817500D03*
D15*
X421360000Y-135817500D03*
D14*
X417550000Y-133277500D03*
D16*
X426440000Y-135817500D03*
D14*
X423900000Y-130737500D03*
D17*
X427650000Y-130737500D03*
X413800000Y-133277500D03*
D10*
X241845000Y-163900000D03*
D11*
X241845000Y-156100000D03*
D14*
X420407500Y-214240000D03*
D16*
X429297500Y-216780000D03*
X419137500Y-216780000D03*
D15*
X424217500Y-216780000D03*
D14*
X426757500Y-211700000D03*
D17*
X430507500Y-211700000D03*
X416657500Y-214240000D03*
D10*
X208430000Y-183000000D03*
D11*
X208430000Y-175200000D03*
D15*
X262292500Y-140580000D03*
D16*
X267372500Y-140580000D03*
D14*
X264832500Y-135500000D03*
D16*
X257212500Y-140580000D03*
D14*
X258482500Y-138040000D03*
D17*
X268582500Y-135500000D03*
X254732500Y-138040000D03*
D14*
X293407500Y-111687500D03*
D16*
X285787500Y-116767500D03*
D14*
X287057500Y-114227500D03*
D15*
X290867500Y-116767500D03*
D16*
X295947500Y-116767500D03*
D17*
X297157500Y-111687500D03*
X283307500Y-114227500D03*
D18*
X436180000Y-104790000D03*
D14*
X355320000Y-173600000D03*
D16*
X347700000Y-178680000D03*
D15*
X352780000Y-178680000D03*
D14*
X348970000Y-176140000D03*
D16*
X357860000Y-178680000D03*
D17*
X359070000Y-173600000D03*
X345220000Y-176140000D03*
D10*
X137090000Y-121070000D03*
D11*
X137090000Y-113270000D03*
D14*
X353732500Y-138040000D03*
D16*
X362622500Y-140580000D03*
D15*
X357542500Y-140580000D03*
D14*
X360082500Y-135500000D03*
D16*
X352462500Y-140580000D03*
D17*
X363832500Y-135500000D03*
X349982500Y-138040000D03*
D14*
X310870000Y-176140000D03*
X317220000Y-173600000D03*
D16*
X309600000Y-178680000D03*
D15*
X314680000Y-178680000D03*
D16*
X319760000Y-178680000D03*
D17*
X320970000Y-173600000D03*
X307120000Y-176140000D03*
D16*
X234035000Y-197730000D03*
D14*
X231495000Y-192650000D03*
D15*
X228955000Y-197730000D03*
D16*
X223875000Y-197730000D03*
D14*
X225145000Y-195190000D03*
D17*
X235245000Y-192650000D03*
X221395000Y-195190000D03*
D10*
X392060000Y-183000000D03*
D11*
X392060000Y-175200000D03*
D10*
X156120000Y-144850000D03*
D11*
X156120000Y-137050000D03*
D10*
X279965000Y-121070000D03*
D11*
X279965000Y-113270000D03*
D16*
X340556250Y-216780000D03*
D15*
X345636250Y-216780000D03*
D14*
X341826250Y-214240000D03*
X348176250Y-211700000D03*
D16*
X350716250Y-216780000D03*
D17*
X351926250Y-211700000D03*
X338076250Y-214240000D03*
D10*
X222795000Y-163900000D03*
D11*
X222795000Y-156100000D03*
D16*
X176885000Y-197730000D03*
D14*
X167995000Y-195190000D03*
D15*
X171805000Y-197730000D03*
D14*
X174345000Y-192650000D03*
D16*
X166725000Y-197730000D03*
D17*
X178095000Y-192650000D03*
X164245000Y-195190000D03*
D10*
X413062500Y-202100000D03*
D11*
X413062500Y-194300000D03*
D16*
X316743750Y-216780000D03*
D15*
X321823750Y-216780000D03*
D14*
X318013750Y-214240000D03*
X324363750Y-211700000D03*
D16*
X326903750Y-216780000D03*
D17*
X328113750Y-211700000D03*
X314263750Y-214240000D03*
D16*
X135768750Y-197730000D03*
D13*
X152735950Y-190541800D03*
D15*
X140848750Y-197730000D03*
D14*
X137038750Y-195190000D03*
X143388750Y-192650000D03*
D12*
X152735950Y-205781800D03*
D16*
X145928750Y-197730000D03*
D13*
X128935950Y-190541800D03*
D12*
X128935950Y-205781800D03*
D17*
X147138750Y-192650000D03*
X133288750Y-195190000D03*
D10*
X313050000Y-202100000D03*
D11*
X313050000Y-194300000D03*
D10*
X213270000Y-144850000D03*
D11*
X213270000Y-137050000D03*
D10*
X394340000Y-144770000D03*
D11*
X394340000Y-136970000D03*
D16*
X272135000Y-197730000D03*
D15*
X267055000Y-197730000D03*
D14*
X263245000Y-195190000D03*
X269595000Y-192650000D03*
D16*
X261975000Y-197730000D03*
D17*
X273345000Y-192650000D03*
X259495000Y-195190000D03*
D10*
X429487500Y-159137500D03*
D11*
X429487500Y-151337500D03*
D10*
X270420000Y-144850000D03*
D11*
X270420000Y-137050000D03*
D16*
X391197500Y-216780000D03*
D14*
X388657500Y-211700000D03*
X382307500Y-214240000D03*
D16*
X381037500Y-216780000D03*
D15*
X386117500Y-216780000D03*
D17*
X392407500Y-211700000D03*
X378557500Y-214240000D03*
D19*
X200376250Y-209324999D03*
X300546856Y-209394999D03*
D15*
X200376250Y-224564999D03*
X300546856Y-224634999D03*
D14*
X127513750Y-214240000D03*
D15*
X131323750Y-216780000D03*
D14*
X133863750Y-211700000D03*
D16*
X136403750Y-216780000D03*
X126243750Y-216780000D03*
D17*
X137613750Y-211700000D03*
X123763750Y-214240000D03*
D16*
X338810000Y-116767500D03*
D14*
X336270000Y-111687500D03*
D15*
X333730000Y-116767500D03*
D16*
X328650000Y-116767500D03*
D14*
X329920000Y-114227500D03*
D17*
X340020000Y-111687500D03*
X326170000Y-114227500D03*
D10*
X429410000Y-178237500D03*
D11*
X429410000Y-170437500D03*
D10*
X379977500Y-121070000D03*
D11*
X379977500Y-113270000D03*
D15*
X333730000Y-178680000D03*
D14*
X336270000Y-173600000D03*
D16*
X338810000Y-178680000D03*
X328650000Y-178680000D03*
D14*
X329920000Y-176140000D03*
D17*
X340020000Y-173600000D03*
X326170000Y-176140000D03*
D14*
X301345000Y-195190000D03*
D15*
X305155000Y-197730000D03*
D14*
X307695000Y-192650000D03*
D16*
X310235000Y-197730000D03*
X300075000Y-197730000D03*
D17*
X311445000Y-192650000D03*
X297595000Y-195190000D03*
D14*
X236257500Y-154550000D03*
D16*
X228637500Y-159630000D03*
X238797500Y-159630000D03*
D15*
X233717500Y-159630000D03*
D14*
X229907500Y-157090000D03*
D17*
X240007500Y-154550000D03*
X226157500Y-157090000D03*
D10*
X322730000Y-183000000D03*
D11*
X322730000Y-175200000D03*
D10*
X322827500Y-121070000D03*
D11*
X322827500Y-113270000D03*
D16*
X210222500Y-140580000D03*
D14*
X201332500Y-138040000D03*
D15*
X205142500Y-140580000D03*
D14*
X207682500Y-135500000D03*
D16*
X200062500Y-140580000D03*
D17*
X211432500Y-135500000D03*
X197582500Y-138040000D03*
D16*
X400087500Y-216780000D03*
X410247500Y-216780000D03*
D15*
X405167500Y-216780000D03*
D14*
X401357500Y-214240000D03*
X407707500Y-211700000D03*
D17*
X411457500Y-211700000D03*
X397607500Y-214240000D03*
D10*
X375195000Y-163900000D03*
D11*
X375195000Y-156100000D03*
D10*
X399200000Y-163930000D03*
D11*
X399200000Y-156130000D03*
D14*
X282295000Y-195190000D03*
D15*
X286105000Y-197730000D03*
D16*
X291185000Y-197730000D03*
D14*
X288645000Y-192650000D03*
D16*
X281025000Y-197730000D03*
D17*
X292395000Y-192650000D03*
X278545000Y-195190000D03*
D10*
X187015000Y-220900000D03*
D11*
X187015000Y-213100000D03*
D10*
X279945000Y-163900000D03*
D11*
X279945000Y-156100000D03*
D14*
X125132500Y-114227500D03*
D16*
X123862500Y-116767500D03*
X134022500Y-116767500D03*
D14*
X131482500Y-111687500D03*
D15*
X128942500Y-116767500D03*
D17*
X135232500Y-111687500D03*
X121382500Y-114227500D03*
D10*
X308520000Y-144850000D03*
D11*
X308520000Y-137050000D03*
D10*
X432510000Y-220870000D03*
D11*
X432510000Y-213070000D03*
D10*
X346620000Y-144850000D03*
D11*
X346620000Y-137050000D03*
D15*
X348017500Y-159630000D03*
D14*
X350557500Y-154550000D03*
D16*
X342937500Y-159630000D03*
D14*
X344207500Y-157090000D03*
D16*
X353097500Y-159630000D03*
D17*
X354307500Y-154550000D03*
X340457500Y-157090000D03*
D14*
X277532500Y-138040000D03*
D16*
X286422500Y-140580000D03*
D15*
X281342500Y-140580000D03*
D14*
X283882500Y-135500000D03*
D16*
X276262500Y-140580000D03*
D17*
X287632500Y-135500000D03*
X273782500Y-138040000D03*
D14*
X221970000Y-173600000D03*
X215620000Y-176140000D03*
D16*
X214350000Y-178680000D03*
X224510000Y-178680000D03*
D15*
X219430000Y-178680000D03*
D17*
X225720000Y-173600000D03*
X211870000Y-176140000D03*
D16*
X247687500Y-159630000D03*
D14*
X255307500Y-154550000D03*
D15*
X252767500Y-159630000D03*
D16*
X257847500Y-159630000D03*
D14*
X248957500Y-157090000D03*
D17*
X259057500Y-154550000D03*
X245207500Y-157090000D03*
D16*
X295312500Y-140580000D03*
D14*
X302932500Y-135500000D03*
X296582500Y-138040000D03*
D15*
X300392500Y-140580000D03*
D16*
X305472500Y-140580000D03*
D17*
X306682500Y-135500000D03*
X292832500Y-138040000D03*
D10*
X260915000Y-121070000D03*
D11*
X260915000Y-113270000D03*
D10*
X160902500Y-121070000D03*
D11*
X160902500Y-113270000D03*
D16*
X157200000Y-178680000D03*
D15*
X162280000Y-178680000D03*
D14*
X164820000Y-173600000D03*
X158470000Y-176140000D03*
D16*
X167360000Y-178680000D03*
D17*
X168570000Y-173600000D03*
X154720000Y-176140000D03*
D16*
X123862500Y-140580000D03*
X134022500Y-140580000D03*
D15*
X128942500Y-140580000D03*
D14*
X125132500Y-138040000D03*
X131482500Y-135500000D03*
D17*
X135232500Y-135500000D03*
X121382500Y-138040000D03*
D16*
X381037500Y-140580000D03*
D14*
X388657500Y-135500000D03*
D12*
X398004700Y-148631800D03*
D16*
X391197500Y-140580000D03*
D15*
X386117500Y-140580000D03*
D12*
X374204700Y-148631800D03*
D14*
X382307500Y-138040000D03*
D13*
X398004700Y-133391800D03*
X374204700Y-133391800D03*
D17*
X392407500Y-135500000D03*
X378557500Y-138040000D03*
D15*
X238480000Y-178680000D03*
D14*
X241020000Y-173600000D03*
D16*
X233400000Y-178680000D03*
D14*
X234670000Y-176140000D03*
D16*
X243560000Y-178680000D03*
D17*
X244770000Y-173600000D03*
X230920000Y-176140000D03*
D20*
X390380000Y-101770000D03*
D21*
X390380000Y-104310000D03*
X390380000Y-106850000D03*
X390380000Y-109390000D03*
X390380000Y-111930000D03*
X390380000Y-114470000D03*
X390380000Y-117010000D03*
X390380000Y-119550000D03*
X390380000Y-122090000D03*
X390380000Y-124630000D03*
X390380000Y-127170000D03*
X390608600Y-129710000D03*
X405620000Y-129710000D03*
X405620000Y-127170000D03*
X405620000Y-124630000D03*
X405620000Y-122090000D03*
X405620000Y-119550000D03*
X405620000Y-117010000D03*
X405620000Y-114470000D03*
X405620000Y-111930000D03*
X405620000Y-109390000D03*
X405620000Y-106850000D03*
X405620000Y-104310000D03*
X405620000Y-101770000D03*
X392920000Y-129710000D03*
X395460000Y-129710000D03*
X398000000Y-129710000D03*
X400540000Y-129710000D03*
X403080000Y-129710000D03*
M02*
