%FSLAX45Y45*%
G04 Gerber Fmt 4.5, Leading zero omitted, Abs format (unit mm)*
G04 Created by KiCad (PCBNEW (6.0.1)) date 2022-07-08 00:12:48*
%MOMM*%
%LPD*%
G01*
G04 APERTURE LIST*
%TA.AperFunction,Profile*%
%ADD10C,0.100000*%
%TD*%
%ADD11C,0.200000*%
%ADD12C,0.040000*%
%ADD13C,0.088900*%
%ADD14C,0.100000*%
%ADD15C,0.150000*%
G04 APERTURE END LIST*
D10*
X7198360Y-12854909D02*
X7198360Y-5189251D01*
X7343171Y-5044440D02*
G75*
G03*
X7198360Y-5189251I-2446J-142365D01*
G01*
X7198360Y-12854909D02*
G75*
G03*
X7343171Y-12999720I142365J-2446D01*
G01*
X16339789Y-12999720D02*
X7343171Y-12999720D01*
X16339789Y-12999720D02*
G75*
G03*
X16484600Y-12854909I2446J142365D01*
G01*
X14315097Y-9255417D02*
G75*
G03*
X14315097Y-9255417I-2341537J0D01*
G01*
X16484600Y-5189251D02*
G75*
G03*
X16339789Y-5044440I-142366J2446D01*
G01*
X7343171Y-5044440D02*
X16339789Y-5044440D01*
X16484600Y-5189251D02*
X16484600Y-12854909D01*
D11*
D12*
X8748080Y-9865680D02*
X8788080Y-9905680D01*
X8788080Y-9865680D02*
X8748080Y-9905680D01*
X8875080Y-10769920D02*
X8915080Y-10809920D01*
X8915080Y-10769920D02*
X8875080Y-10809920D01*
D13*
X7725410Y-8113315D02*
G75*
G03*
X7725410Y-8113315I-44450J0D01*
G01*
X7725410Y-8367315D02*
G75*
G03*
X7725410Y-8367315I-44450J0D01*
G01*
X7725410Y-8621315D02*
G75*
G03*
X7725410Y-8621315I-44450J0D01*
G01*
X7725410Y-8875315D02*
G75*
G03*
X7725410Y-8875315I-44450J0D01*
G01*
X7725410Y-9129315D02*
G75*
G03*
X7725410Y-9129315I-44450J0D01*
G01*
X7725410Y-9383315D02*
G75*
G03*
X7725410Y-9383315I-44450J0D01*
G01*
X7725410Y-9637315D02*
G75*
G03*
X7725410Y-9637315I-44450J0D01*
G01*
X7725410Y-9891315D02*
G75*
G03*
X7725410Y-9891315I-44450J0D01*
G01*
X7725410Y-10145315D02*
G75*
G03*
X7725410Y-10145315I-44450J0D01*
G01*
X7725410Y-10399315D02*
G75*
G03*
X7725410Y-10399315I-44450J0D01*
G01*
X7725410Y-10653315D02*
G75*
G03*
X7725410Y-10653315I-44450J0D01*
G01*
X7725410Y-10907315D02*
G75*
G03*
X7725410Y-10907315I-44450J0D01*
G01*
X7877810Y-7910115D02*
G75*
G03*
X7877810Y-7910115I-44450J0D01*
G01*
X9097010Y-7910115D02*
G75*
G03*
X9097010Y-7910115I-44450J0D01*
G01*
X9249410Y-8113315D02*
G75*
G03*
X9249410Y-8113315I-44450J0D01*
G01*
X9249410Y-8367315D02*
G75*
G03*
X9249410Y-8367315I-44450J0D01*
G01*
X9249410Y-8621315D02*
G75*
G03*
X9249410Y-8621315I-44450J0D01*
G01*
X9249410Y-8875315D02*
G75*
G03*
X9249410Y-8875315I-44450J0D01*
G01*
X9249410Y-9129315D02*
G75*
G03*
X9249410Y-9129315I-44450J0D01*
G01*
X9249410Y-9383315D02*
G75*
G03*
X9249410Y-9383315I-44450J0D01*
G01*
X9249410Y-9637315D02*
G75*
G03*
X9249410Y-9637315I-44450J0D01*
G01*
X9249410Y-9891315D02*
G75*
G03*
X9249410Y-9891315I-44450J0D01*
G01*
X9249410Y-10145315D02*
G75*
G03*
X9249410Y-10145315I-44450J0D01*
G01*
X9249410Y-10399315D02*
G75*
G03*
X9249410Y-10399315I-44450J0D01*
G01*
X9249410Y-10653315D02*
G75*
G03*
X9249410Y-10653315I-44450J0D01*
G01*
X9249410Y-10907315D02*
G75*
G03*
X9249410Y-10907315I-44450J0D01*
G01*
D14*
X7376160Y-9591840D02*
X7376160Y-9691840D01*
X7326160Y-9641840D02*
X7426160Y-9641840D01*
X7376160Y-9845840D02*
X7376160Y-9945840D01*
X7326160Y-9895840D02*
X7426160Y-9895840D01*
X7376160Y-10099840D02*
X7376160Y-10199840D01*
X7326160Y-10149840D02*
X7426160Y-10149840D01*
X7376160Y-10353840D02*
X7376160Y-10453840D01*
X7326160Y-10403840D02*
X7426160Y-10403840D01*
X7376160Y-10607840D02*
X7376160Y-10707840D01*
X7326160Y-10657840D02*
X7426160Y-10657840D01*
X7376160Y-10861840D02*
X7376160Y-10961840D01*
X7326160Y-10911840D02*
X7426160Y-10911840D01*
X9540240Y-11740680D02*
X9540240Y-11840680D01*
X9490240Y-11790680D02*
X9590240Y-11790680D01*
X9540240Y-11994680D02*
X9540240Y-12094680D01*
X9490240Y-12044680D02*
X9590240Y-12044680D01*
X9555480Y-6046000D02*
X9555480Y-6146000D01*
X9505480Y-6096000D02*
X9605480Y-6096000D01*
X9555480Y-6300000D02*
X9555480Y-6400000D01*
X9505480Y-6350000D02*
X9605480Y-6350000D01*
X11602720Y-11882920D02*
X11602720Y-11982920D01*
X11552720Y-11932920D02*
X11652720Y-11932920D01*
X11856720Y-11882920D02*
X11856720Y-11982920D01*
X11806720Y-11932920D02*
X11906720Y-11932920D01*
X12110720Y-11882920D02*
X12110720Y-11982920D01*
X12060720Y-11932920D02*
X12160720Y-11932920D01*
X15819120Y-10648480D02*
X15819120Y-10748480D01*
X15769120Y-10698480D02*
X15869120Y-10698480D01*
X15819120Y-10902480D02*
X15819120Y-11002480D01*
X15769120Y-10952480D02*
X15869120Y-10952480D01*
X15834360Y-6625120D02*
X15834360Y-6725120D01*
X15784360Y-6675120D02*
X15884360Y-6675120D01*
X15834360Y-6879120D02*
X15834360Y-6979120D01*
X15784360Y-6929120D02*
X15884360Y-6929120D01*
D15*
X8084513Y-11813233D02*
X8084513Y-11707166D01*
X7978446Y-11707166D01*
X7978446Y-11813233D01*
X8084513Y-11813233D01*
X8089593Y-5803593D02*
X8089593Y-5697526D01*
X7983526Y-5697526D01*
X7983526Y-5803593D01*
X8089593Y-5803593D01*
X8215513Y-11667233D02*
X8215513Y-11561166D01*
X8109446Y-11561166D01*
X8109446Y-11667233D01*
X8215513Y-11667233D01*
X8220593Y-5657593D02*
X8220593Y-5551527D01*
X8114526Y-5551527D01*
X8114526Y-5657593D01*
X8220593Y-5657593D01*
X8717514Y-11588233D02*
X8717514Y-11482166D01*
X8611447Y-11482166D01*
X8611447Y-11588233D01*
X8717514Y-11588233D01*
D11*
X8727294Y-11568732D02*
X8731349Y-11510736D01*
X8597611Y-11559663D02*
X8601666Y-11501668D01*
X8731349Y-11510736D02*
G75*
G03*
X8601666Y-11501668I-64842J4534D01*
G01*
X8597611Y-11559663D02*
G75*
G03*
X8727294Y-11568732I64842J-4534D01*
G01*
D15*
X8722594Y-5578594D02*
X8722594Y-5472527D01*
X8616527Y-5472527D01*
X8616527Y-5578594D01*
X8722594Y-5578594D01*
D11*
X8732374Y-5559092D02*
X8736429Y-5501097D01*
X8602691Y-5550024D02*
X8606746Y-5492028D01*
X8736429Y-5501097D02*
G75*
G03*
X8606746Y-5492028I-64842J4534D01*
G01*
X8602691Y-5550024D02*
G75*
G03*
X8732374Y-5559092I64842J-4534D01*
G01*
D15*
X15064433Y-11813233D02*
X15064433Y-11707166D01*
X14958366Y-11707166D01*
X14958366Y-11813233D01*
X15064433Y-11813233D01*
X15074593Y-5818833D02*
X15074593Y-5712766D01*
X14968526Y-5712766D01*
X14968526Y-5818833D01*
X15074593Y-5818833D01*
X15195433Y-11667233D02*
X15195433Y-11561166D01*
X15089366Y-11561166D01*
X15089366Y-11667233D01*
X15195433Y-11667233D01*
X15205593Y-5672833D02*
X15205593Y-5566767D01*
X15099526Y-5566767D01*
X15099526Y-5672833D01*
X15205593Y-5672833D01*
X15697433Y-11588233D02*
X15697433Y-11482166D01*
X15591366Y-11482166D01*
X15591366Y-11588233D01*
X15697433Y-11588233D01*
D11*
X15707214Y-11568732D02*
X15711269Y-11510736D01*
X15577531Y-11559663D02*
X15581586Y-11501668D01*
X15711269Y-11510736D02*
G75*
G03*
X15581586Y-11501668I-64842J4534D01*
G01*
X15577531Y-11559663D02*
G75*
G03*
X15707214Y-11568732I64842J-4534D01*
G01*
D15*
X15707593Y-5593833D02*
X15707593Y-5487767D01*
X15601526Y-5487767D01*
X15601526Y-5593833D01*
X15707593Y-5593833D01*
D11*
X15717374Y-5574332D02*
X15721429Y-5516337D01*
X15587691Y-5565264D02*
X15591746Y-5507268D01*
X15721429Y-5516337D02*
G75*
G03*
X15591746Y-5507268I-64842J4534D01*
G01*
X15587691Y-5565264D02*
G75*
G03*
X15717374Y-5574332I64842J-4534D01*
G01*
X7450958Y-13315217D02*
X7450958Y-13115217D01*
X7498577Y-13115217D01*
X7527148Y-13124741D01*
X7546196Y-13143789D01*
X7555720Y-13162836D01*
X7565244Y-13200931D01*
X7565244Y-13229503D01*
X7555720Y-13267598D01*
X7546196Y-13286646D01*
X7527148Y-13305693D01*
X7498577Y-13315217D01*
X7450958Y-13315217D01*
X7650958Y-13315217D02*
X7650958Y-13181884D01*
X7650958Y-13219979D02*
X7660482Y-13200931D01*
X7670006Y-13191408D01*
X7689053Y-13181884D01*
X7708101Y-13181884D01*
X7774767Y-13315217D02*
X7774767Y-13181884D01*
X7774767Y-13115217D02*
X7765244Y-13124741D01*
X7774767Y-13134265D01*
X7784291Y-13124741D01*
X7774767Y-13115217D01*
X7774767Y-13134265D01*
X7898577Y-13315217D02*
X7879529Y-13305693D01*
X7870006Y-13286646D01*
X7870006Y-13115217D01*
X8003339Y-13315217D02*
X7984291Y-13305693D01*
X7974767Y-13286646D01*
X7974767Y-13115217D01*
X8231910Y-13315217D02*
X8231910Y-13115217D01*
X8298577Y-13258074D01*
X8365244Y-13115217D01*
X8365244Y-13315217D01*
X8546196Y-13315217D02*
X8546196Y-13210455D01*
X8536672Y-13191408D01*
X8517625Y-13181884D01*
X8479529Y-13181884D01*
X8460482Y-13191408D01*
X8546196Y-13305693D02*
X8527149Y-13315217D01*
X8479529Y-13315217D01*
X8460482Y-13305693D01*
X8450958Y-13286646D01*
X8450958Y-13267598D01*
X8460482Y-13248550D01*
X8479529Y-13239027D01*
X8527149Y-13239027D01*
X8546196Y-13229503D01*
X8641434Y-13181884D02*
X8641434Y-13381884D01*
X8641434Y-13191408D02*
X8660482Y-13181884D01*
X8698577Y-13181884D01*
X8717625Y-13191408D01*
X8727149Y-13200931D01*
X8736672Y-13219979D01*
X8736672Y-13277122D01*
X8727149Y-13296169D01*
X8717625Y-13305693D01*
X8698577Y-13315217D01*
X8660482Y-13315217D01*
X8641434Y-13305693D01*
X8822387Y-13296169D02*
X8831910Y-13305693D01*
X8822387Y-13315217D01*
X8812863Y-13305693D01*
X8822387Y-13296169D01*
X8822387Y-13315217D01*
X8822387Y-13191408D02*
X8831910Y-13200931D01*
X8822387Y-13210455D01*
X8812863Y-13200931D01*
X8822387Y-13191408D01*
X8822387Y-13210455D01*
D12*
X7153339Y-13624741D02*
X7193339Y-13664741D01*
X7193339Y-13624741D02*
X7153339Y-13664741D01*
D11*
X7489053Y-13535217D02*
X7508101Y-13535217D01*
X7527148Y-13544741D01*
X7536672Y-13554265D01*
X7546196Y-13573312D01*
X7555720Y-13611408D01*
X7555720Y-13659027D01*
X7546196Y-13697122D01*
X7536672Y-13716169D01*
X7527148Y-13725693D01*
X7508101Y-13735217D01*
X7489053Y-13735217D01*
X7470006Y-13725693D01*
X7460482Y-13716169D01*
X7450958Y-13697122D01*
X7441434Y-13659027D01*
X7441434Y-13611408D01*
X7450958Y-13573312D01*
X7460482Y-13554265D01*
X7470006Y-13544741D01*
X7489053Y-13535217D01*
X7641434Y-13716169D02*
X7650958Y-13725693D01*
X7641434Y-13735217D01*
X7631910Y-13725693D01*
X7641434Y-13716169D01*
X7641434Y-13735217D01*
X7822387Y-13601884D02*
X7822387Y-13735217D01*
X7774767Y-13525693D02*
X7727148Y-13668550D01*
X7850958Y-13668550D01*
X7965244Y-13535217D02*
X7984291Y-13535217D01*
X8003339Y-13544741D01*
X8012863Y-13554265D01*
X8022387Y-13573312D01*
X8031910Y-13611408D01*
X8031910Y-13659027D01*
X8022387Y-13697122D01*
X8012863Y-13716169D01*
X8003339Y-13725693D01*
X7984291Y-13735217D01*
X7965244Y-13735217D01*
X7946196Y-13725693D01*
X7936672Y-13716169D01*
X7927148Y-13697122D01*
X7917625Y-13659027D01*
X7917625Y-13611408D01*
X7927148Y-13573312D01*
X7936672Y-13554265D01*
X7946196Y-13544741D01*
X7965244Y-13535217D01*
X8155720Y-13535217D02*
X8174767Y-13535217D01*
X8193815Y-13544741D01*
X8203339Y-13554265D01*
X8212863Y-13573312D01*
X8222387Y-13611408D01*
X8222387Y-13659027D01*
X8212863Y-13697122D01*
X8203339Y-13716169D01*
X8193815Y-13725693D01*
X8174767Y-13735217D01*
X8155720Y-13735217D01*
X8136672Y-13725693D01*
X8127148Y-13716169D01*
X8117625Y-13697122D01*
X8108101Y-13659027D01*
X8108101Y-13611408D01*
X8117625Y-13573312D01*
X8127148Y-13554265D01*
X8136672Y-13544741D01*
X8155720Y-13535217D01*
X8308101Y-13735217D02*
X8308101Y-13601884D01*
X8308101Y-13620931D02*
X8317625Y-13611408D01*
X8336672Y-13601884D01*
X8365244Y-13601884D01*
X8384291Y-13611408D01*
X8393815Y-13630455D01*
X8393815Y-13735217D01*
X8393815Y-13630455D02*
X8403339Y-13611408D01*
X8422387Y-13601884D01*
X8450958Y-13601884D01*
X8470006Y-13611408D01*
X8479529Y-13630455D01*
X8479529Y-13735217D01*
X8574768Y-13735217D02*
X8574768Y-13601884D01*
X8574768Y-13620931D02*
X8584291Y-13611408D01*
X8603339Y-13601884D01*
X8631910Y-13601884D01*
X8650958Y-13611408D01*
X8660482Y-13630455D01*
X8660482Y-13735217D01*
X8660482Y-13630455D02*
X8670006Y-13611408D01*
X8689053Y-13601884D01*
X8717625Y-13601884D01*
X8736672Y-13611408D01*
X8746196Y-13630455D01*
X8746196Y-13735217D01*
X9136672Y-13525693D02*
X8965244Y-13782836D01*
X9393815Y-13535217D02*
X9412863Y-13535217D01*
X9431910Y-13544741D01*
X9441434Y-13554265D01*
X9450958Y-13573312D01*
X9460482Y-13611408D01*
X9460482Y-13659027D01*
X9450958Y-13697122D01*
X9441434Y-13716169D01*
X9431910Y-13725693D01*
X9412863Y-13735217D01*
X9393815Y-13735217D01*
X9374768Y-13725693D01*
X9365244Y-13716169D01*
X9355720Y-13697122D01*
X9346196Y-13659027D01*
X9346196Y-13611408D01*
X9355720Y-13573312D01*
X9365244Y-13554265D01*
X9374768Y-13544741D01*
X9393815Y-13535217D01*
X9546196Y-13716169D02*
X9555720Y-13725693D01*
X9546196Y-13735217D01*
X9536672Y-13725693D01*
X9546196Y-13716169D01*
X9546196Y-13735217D01*
X9679529Y-13535217D02*
X9698577Y-13535217D01*
X9717625Y-13544741D01*
X9727149Y-13554265D01*
X9736672Y-13573312D01*
X9746196Y-13611408D01*
X9746196Y-13659027D01*
X9736672Y-13697122D01*
X9727149Y-13716169D01*
X9717625Y-13725693D01*
X9698577Y-13735217D01*
X9679529Y-13735217D01*
X9660482Y-13725693D01*
X9650958Y-13716169D01*
X9641434Y-13697122D01*
X9631910Y-13659027D01*
X9631910Y-13611408D01*
X9641434Y-13573312D01*
X9650958Y-13554265D01*
X9660482Y-13544741D01*
X9679529Y-13535217D01*
X9936672Y-13735217D02*
X9822387Y-13735217D01*
X9879529Y-13735217D02*
X9879529Y-13535217D01*
X9860482Y-13563789D01*
X9841434Y-13582836D01*
X9822387Y-13592360D01*
X10117625Y-13535217D02*
X10022387Y-13535217D01*
X10012863Y-13630455D01*
X10022387Y-13620931D01*
X10041434Y-13611408D01*
X10089053Y-13611408D01*
X10108101Y-13620931D01*
X10117625Y-13630455D01*
X10127149Y-13649503D01*
X10127149Y-13697122D01*
X10117625Y-13716169D01*
X10108101Y-13725693D01*
X10089053Y-13735217D01*
X10041434Y-13735217D01*
X10022387Y-13725693D01*
X10012863Y-13716169D01*
X10193815Y-13535217D02*
X10327149Y-13535217D01*
X10241434Y-13735217D01*
X10393815Y-13535217D02*
X10393815Y-13573312D01*
X10470006Y-13535217D02*
X10470006Y-13573312D01*
X10765244Y-13811408D02*
X10755720Y-13801884D01*
X10736672Y-13773312D01*
X10727149Y-13754265D01*
X10717625Y-13725693D01*
X10708101Y-13678074D01*
X10708101Y-13639979D01*
X10717625Y-13592360D01*
X10727149Y-13563789D01*
X10736672Y-13544741D01*
X10755720Y-13516169D01*
X10765244Y-13506646D01*
X10831910Y-13554265D02*
X10841434Y-13544741D01*
X10860482Y-13535217D01*
X10908101Y-13535217D01*
X10927149Y-13544741D01*
X10936672Y-13554265D01*
X10946196Y-13573312D01*
X10946196Y-13592360D01*
X10936672Y-13620931D01*
X10822387Y-13735217D01*
X10946196Y-13735217D01*
X11184291Y-13735217D02*
X11184291Y-13535217D01*
X11270006Y-13735217D02*
X11270006Y-13630455D01*
X11260482Y-13611408D01*
X11241434Y-13601884D01*
X11212863Y-13601884D01*
X11193815Y-13611408D01*
X11184291Y-13620931D01*
X11393815Y-13735217D02*
X11374767Y-13725693D01*
X11365244Y-13716169D01*
X11355720Y-13697122D01*
X11355720Y-13639979D01*
X11365244Y-13620931D01*
X11374767Y-13611408D01*
X11393815Y-13601884D01*
X11422387Y-13601884D01*
X11441434Y-13611408D01*
X11450958Y-13620931D01*
X11460482Y-13639979D01*
X11460482Y-13697122D01*
X11450958Y-13716169D01*
X11441434Y-13725693D01*
X11422387Y-13735217D01*
X11393815Y-13735217D01*
X11574767Y-13735217D02*
X11555720Y-13725693D01*
X11546196Y-13706646D01*
X11546196Y-13535217D01*
X11727148Y-13725693D02*
X11708101Y-13735217D01*
X11670006Y-13735217D01*
X11650958Y-13725693D01*
X11641434Y-13706646D01*
X11641434Y-13630455D01*
X11650958Y-13611408D01*
X11670006Y-13601884D01*
X11708101Y-13601884D01*
X11727148Y-13611408D01*
X11736672Y-13630455D01*
X11736672Y-13649503D01*
X11641434Y-13668550D01*
X11812863Y-13725693D02*
X11831910Y-13735217D01*
X11870006Y-13735217D01*
X11889053Y-13725693D01*
X11898577Y-13706646D01*
X11898577Y-13697122D01*
X11889053Y-13678074D01*
X11870006Y-13668550D01*
X11841434Y-13668550D01*
X11822387Y-13659027D01*
X11812863Y-13639979D01*
X11812863Y-13630455D01*
X11822387Y-13611408D01*
X11841434Y-13601884D01*
X11870006Y-13601884D01*
X11889053Y-13611408D01*
X11965244Y-13811408D02*
X11974767Y-13801884D01*
X11993815Y-13773312D01*
X12003339Y-13754265D01*
X12012863Y-13725693D01*
X12022387Y-13678074D01*
X12022387Y-13639979D01*
X12012863Y-13592360D01*
X12003339Y-13563789D01*
X11993815Y-13544741D01*
X11974767Y-13516169D01*
X11965244Y-13506646D01*
D13*
X7193339Y-13908741D02*
G75*
G03*
X7193339Y-13908741I-44450J0D01*
G01*
D11*
X7489053Y-13799217D02*
X7508101Y-13799217D01*
X7527148Y-13808741D01*
X7536672Y-13818265D01*
X7546196Y-13837312D01*
X7555720Y-13875408D01*
X7555720Y-13923027D01*
X7546196Y-13961122D01*
X7536672Y-13980169D01*
X7527148Y-13989693D01*
X7508101Y-13999217D01*
X7489053Y-13999217D01*
X7470006Y-13989693D01*
X7460482Y-13980169D01*
X7450958Y-13961122D01*
X7441434Y-13923027D01*
X7441434Y-13875408D01*
X7450958Y-13837312D01*
X7460482Y-13818265D01*
X7470006Y-13808741D01*
X7489053Y-13799217D01*
X7641434Y-13980169D02*
X7650958Y-13989693D01*
X7641434Y-13999217D01*
X7631910Y-13989693D01*
X7641434Y-13980169D01*
X7641434Y-13999217D01*
X7765244Y-13884931D02*
X7746196Y-13875408D01*
X7736672Y-13865884D01*
X7727148Y-13846836D01*
X7727148Y-13837312D01*
X7736672Y-13818265D01*
X7746196Y-13808741D01*
X7765244Y-13799217D01*
X7803339Y-13799217D01*
X7822387Y-13808741D01*
X7831910Y-13818265D01*
X7841434Y-13837312D01*
X7841434Y-13846836D01*
X7831910Y-13865884D01*
X7822387Y-13875408D01*
X7803339Y-13884931D01*
X7765244Y-13884931D01*
X7746196Y-13894455D01*
X7736672Y-13903979D01*
X7727148Y-13923027D01*
X7727148Y-13961122D01*
X7736672Y-13980169D01*
X7746196Y-13989693D01*
X7765244Y-13999217D01*
X7803339Y-13999217D01*
X7822387Y-13989693D01*
X7831910Y-13980169D01*
X7841434Y-13961122D01*
X7841434Y-13923027D01*
X7831910Y-13903979D01*
X7822387Y-13894455D01*
X7803339Y-13884931D01*
X7955720Y-13884931D02*
X7936672Y-13875408D01*
X7927148Y-13865884D01*
X7917625Y-13846836D01*
X7917625Y-13837312D01*
X7927148Y-13818265D01*
X7936672Y-13808741D01*
X7955720Y-13799217D01*
X7993815Y-13799217D01*
X8012863Y-13808741D01*
X8022387Y-13818265D01*
X8031910Y-13837312D01*
X8031910Y-13846836D01*
X8022387Y-13865884D01*
X8012863Y-13875408D01*
X7993815Y-13884931D01*
X7955720Y-13884931D01*
X7936672Y-13894455D01*
X7927148Y-13903979D01*
X7917625Y-13923027D01*
X7917625Y-13961122D01*
X7927148Y-13980169D01*
X7936672Y-13989693D01*
X7955720Y-13999217D01*
X7993815Y-13999217D01*
X8012863Y-13989693D01*
X8022387Y-13980169D01*
X8031910Y-13961122D01*
X8031910Y-13923027D01*
X8022387Y-13903979D01*
X8012863Y-13894455D01*
X7993815Y-13884931D01*
X8127148Y-13999217D02*
X8165244Y-13999217D01*
X8184291Y-13989693D01*
X8193815Y-13980169D01*
X8212863Y-13951598D01*
X8222387Y-13913503D01*
X8222387Y-13837312D01*
X8212863Y-13818265D01*
X8203339Y-13808741D01*
X8184291Y-13799217D01*
X8146196Y-13799217D01*
X8127148Y-13808741D01*
X8117625Y-13818265D01*
X8108101Y-13837312D01*
X8108101Y-13884931D01*
X8117625Y-13903979D01*
X8127148Y-13913503D01*
X8146196Y-13923027D01*
X8184291Y-13923027D01*
X8203339Y-13913503D01*
X8212863Y-13903979D01*
X8222387Y-13884931D01*
X8308101Y-13999217D02*
X8308101Y-13865884D01*
X8308101Y-13884931D02*
X8317625Y-13875408D01*
X8336672Y-13865884D01*
X8365244Y-13865884D01*
X8384291Y-13875408D01*
X8393815Y-13894455D01*
X8393815Y-13999217D01*
X8393815Y-13894455D02*
X8403339Y-13875408D01*
X8422387Y-13865884D01*
X8450958Y-13865884D01*
X8470006Y-13875408D01*
X8479529Y-13894455D01*
X8479529Y-13999217D01*
X8574768Y-13999217D02*
X8574768Y-13865884D01*
X8574768Y-13884931D02*
X8584291Y-13875408D01*
X8603339Y-13865884D01*
X8631910Y-13865884D01*
X8650958Y-13875408D01*
X8660482Y-13894455D01*
X8660482Y-13999217D01*
X8660482Y-13894455D02*
X8670006Y-13875408D01*
X8689053Y-13865884D01*
X8717625Y-13865884D01*
X8736672Y-13875408D01*
X8746196Y-13894455D01*
X8746196Y-13999217D01*
X9136672Y-13789693D02*
X8965244Y-14046836D01*
X9393815Y-13799217D02*
X9412863Y-13799217D01*
X9431910Y-13808741D01*
X9441434Y-13818265D01*
X9450958Y-13837312D01*
X9460482Y-13875408D01*
X9460482Y-13923027D01*
X9450958Y-13961122D01*
X9441434Y-13980169D01*
X9431910Y-13989693D01*
X9412863Y-13999217D01*
X9393815Y-13999217D01*
X9374768Y-13989693D01*
X9365244Y-13980169D01*
X9355720Y-13961122D01*
X9346196Y-13923027D01*
X9346196Y-13875408D01*
X9355720Y-13837312D01*
X9365244Y-13818265D01*
X9374768Y-13808741D01*
X9393815Y-13799217D01*
X9546196Y-13980169D02*
X9555720Y-13989693D01*
X9546196Y-13999217D01*
X9536672Y-13989693D01*
X9546196Y-13980169D01*
X9546196Y-13999217D01*
X9679529Y-13799217D02*
X9698577Y-13799217D01*
X9717625Y-13808741D01*
X9727149Y-13818265D01*
X9736672Y-13837312D01*
X9746196Y-13875408D01*
X9746196Y-13923027D01*
X9736672Y-13961122D01*
X9727149Y-13980169D01*
X9717625Y-13989693D01*
X9698577Y-13999217D01*
X9679529Y-13999217D01*
X9660482Y-13989693D01*
X9650958Y-13980169D01*
X9641434Y-13961122D01*
X9631910Y-13923027D01*
X9631910Y-13875408D01*
X9641434Y-13837312D01*
X9650958Y-13818265D01*
X9660482Y-13808741D01*
X9679529Y-13799217D01*
X9812863Y-13799217D02*
X9936672Y-13799217D01*
X9870006Y-13875408D01*
X9898577Y-13875408D01*
X9917625Y-13884931D01*
X9927149Y-13894455D01*
X9936672Y-13913503D01*
X9936672Y-13961122D01*
X9927149Y-13980169D01*
X9917625Y-13989693D01*
X9898577Y-13999217D01*
X9841434Y-13999217D01*
X9822387Y-13989693D01*
X9812863Y-13980169D01*
X10117625Y-13799217D02*
X10022387Y-13799217D01*
X10012863Y-13894455D01*
X10022387Y-13884931D01*
X10041434Y-13875408D01*
X10089053Y-13875408D01*
X10108101Y-13884931D01*
X10117625Y-13894455D01*
X10127149Y-13913503D01*
X10127149Y-13961122D01*
X10117625Y-13980169D01*
X10108101Y-13989693D01*
X10089053Y-13999217D01*
X10041434Y-13999217D01*
X10022387Y-13989693D01*
X10012863Y-13980169D01*
X10250958Y-13799217D02*
X10270006Y-13799217D01*
X10289053Y-13808741D01*
X10298577Y-13818265D01*
X10308101Y-13837312D01*
X10317625Y-13875408D01*
X10317625Y-13923027D01*
X10308101Y-13961122D01*
X10298577Y-13980169D01*
X10289053Y-13989693D01*
X10270006Y-13999217D01*
X10250958Y-13999217D01*
X10231910Y-13989693D01*
X10222387Y-13980169D01*
X10212863Y-13961122D01*
X10203339Y-13923027D01*
X10203339Y-13875408D01*
X10212863Y-13837312D01*
X10222387Y-13818265D01*
X10231910Y-13808741D01*
X10250958Y-13799217D01*
X10393815Y-13799217D02*
X10393815Y-13837312D01*
X10470006Y-13799217D02*
X10470006Y-13837312D01*
X10765244Y-14075408D02*
X10755720Y-14065884D01*
X10736672Y-14037312D01*
X10727149Y-14018265D01*
X10717625Y-13989693D01*
X10708101Y-13942074D01*
X10708101Y-13903979D01*
X10717625Y-13856360D01*
X10727149Y-13827789D01*
X10736672Y-13808741D01*
X10755720Y-13780169D01*
X10765244Y-13770646D01*
X10831910Y-13818265D02*
X10841434Y-13808741D01*
X10860482Y-13799217D01*
X10908101Y-13799217D01*
X10927149Y-13808741D01*
X10936672Y-13818265D01*
X10946196Y-13837312D01*
X10946196Y-13856360D01*
X10936672Y-13884931D01*
X10822387Y-13999217D01*
X10946196Y-13999217D01*
X11117625Y-13799217D02*
X11079529Y-13799217D01*
X11060482Y-13808741D01*
X11050958Y-13818265D01*
X11031910Y-13846836D01*
X11022387Y-13884931D01*
X11022387Y-13961122D01*
X11031910Y-13980169D01*
X11041434Y-13989693D01*
X11060482Y-13999217D01*
X11098577Y-13999217D01*
X11117625Y-13989693D01*
X11127149Y-13980169D01*
X11136672Y-13961122D01*
X11136672Y-13913503D01*
X11127149Y-13894455D01*
X11117625Y-13884931D01*
X11098577Y-13875408D01*
X11060482Y-13875408D01*
X11041434Y-13884931D01*
X11031910Y-13894455D01*
X11022387Y-13913503D01*
X11374767Y-13999217D02*
X11374767Y-13799217D01*
X11460482Y-13999217D02*
X11460482Y-13894455D01*
X11450958Y-13875408D01*
X11431910Y-13865884D01*
X11403339Y-13865884D01*
X11384291Y-13875408D01*
X11374767Y-13884931D01*
X11584291Y-13999217D02*
X11565244Y-13989693D01*
X11555720Y-13980169D01*
X11546196Y-13961122D01*
X11546196Y-13903979D01*
X11555720Y-13884931D01*
X11565244Y-13875408D01*
X11584291Y-13865884D01*
X11612863Y-13865884D01*
X11631910Y-13875408D01*
X11641434Y-13884931D01*
X11650958Y-13903979D01*
X11650958Y-13961122D01*
X11641434Y-13980169D01*
X11631910Y-13989693D01*
X11612863Y-13999217D01*
X11584291Y-13999217D01*
X11765244Y-13999217D02*
X11746196Y-13989693D01*
X11736672Y-13970646D01*
X11736672Y-13799217D01*
X11917625Y-13989693D02*
X11898577Y-13999217D01*
X11860482Y-13999217D01*
X11841434Y-13989693D01*
X11831910Y-13970646D01*
X11831910Y-13894455D01*
X11841434Y-13875408D01*
X11860482Y-13865884D01*
X11898577Y-13865884D01*
X11917625Y-13875408D01*
X11927148Y-13894455D01*
X11927148Y-13913503D01*
X11831910Y-13932550D01*
X12003339Y-13989693D02*
X12022387Y-13999217D01*
X12060482Y-13999217D01*
X12079529Y-13989693D01*
X12089053Y-13970646D01*
X12089053Y-13961122D01*
X12079529Y-13942074D01*
X12060482Y-13932550D01*
X12031910Y-13932550D01*
X12012863Y-13923027D01*
X12003339Y-13903979D01*
X12003339Y-13894455D01*
X12012863Y-13875408D01*
X12031910Y-13865884D01*
X12060482Y-13865884D01*
X12079529Y-13875408D01*
X12155720Y-14075408D02*
X12165244Y-14065884D01*
X12184291Y-14037312D01*
X12193815Y-14018265D01*
X12203339Y-13989693D01*
X12212863Y-13942074D01*
X12212863Y-13903979D01*
X12203339Y-13856360D01*
X12193815Y-13827789D01*
X12184291Y-13808741D01*
X12165244Y-13780169D01*
X12155720Y-13770646D01*
D14*
X7143339Y-14122741D02*
X7143339Y-14222741D01*
X7093339Y-14172741D02*
X7193339Y-14172741D01*
D11*
X7555720Y-14263217D02*
X7441434Y-14263217D01*
X7498577Y-14263217D02*
X7498577Y-14063217D01*
X7479529Y-14091789D01*
X7460482Y-14110836D01*
X7441434Y-14120360D01*
X7641434Y-14244169D02*
X7650958Y-14253693D01*
X7641434Y-14263217D01*
X7631910Y-14253693D01*
X7641434Y-14244169D01*
X7641434Y-14263217D01*
X7774767Y-14063217D02*
X7793815Y-14063217D01*
X7812863Y-14072741D01*
X7822387Y-14082265D01*
X7831910Y-14101312D01*
X7841434Y-14139408D01*
X7841434Y-14187027D01*
X7831910Y-14225122D01*
X7822387Y-14244169D01*
X7812863Y-14253693D01*
X7793815Y-14263217D01*
X7774767Y-14263217D01*
X7755720Y-14253693D01*
X7746196Y-14244169D01*
X7736672Y-14225122D01*
X7727148Y-14187027D01*
X7727148Y-14139408D01*
X7736672Y-14101312D01*
X7746196Y-14082265D01*
X7755720Y-14072741D01*
X7774767Y-14063217D01*
X7965244Y-14063217D02*
X7984291Y-14063217D01*
X8003339Y-14072741D01*
X8012863Y-14082265D01*
X8022387Y-14101312D01*
X8031910Y-14139408D01*
X8031910Y-14187027D01*
X8022387Y-14225122D01*
X8012863Y-14244169D01*
X8003339Y-14253693D01*
X7984291Y-14263217D01*
X7965244Y-14263217D01*
X7946196Y-14253693D01*
X7936672Y-14244169D01*
X7927148Y-14225122D01*
X7917625Y-14187027D01*
X7917625Y-14139408D01*
X7927148Y-14101312D01*
X7936672Y-14082265D01*
X7946196Y-14072741D01*
X7965244Y-14063217D01*
X8155720Y-14063217D02*
X8174767Y-14063217D01*
X8193815Y-14072741D01*
X8203339Y-14082265D01*
X8212863Y-14101312D01*
X8222387Y-14139408D01*
X8222387Y-14187027D01*
X8212863Y-14225122D01*
X8203339Y-14244169D01*
X8193815Y-14253693D01*
X8174767Y-14263217D01*
X8155720Y-14263217D01*
X8136672Y-14253693D01*
X8127148Y-14244169D01*
X8117625Y-14225122D01*
X8108101Y-14187027D01*
X8108101Y-14139408D01*
X8117625Y-14101312D01*
X8127148Y-14082265D01*
X8136672Y-14072741D01*
X8155720Y-14063217D01*
X8308101Y-14263217D02*
X8308101Y-14129884D01*
X8308101Y-14148931D02*
X8317625Y-14139408D01*
X8336672Y-14129884D01*
X8365244Y-14129884D01*
X8384291Y-14139408D01*
X8393815Y-14158455D01*
X8393815Y-14263217D01*
X8393815Y-14158455D02*
X8403339Y-14139408D01*
X8422387Y-14129884D01*
X8450958Y-14129884D01*
X8470006Y-14139408D01*
X8479529Y-14158455D01*
X8479529Y-14263217D01*
X8574768Y-14263217D02*
X8574768Y-14129884D01*
X8574768Y-14148931D02*
X8584291Y-14139408D01*
X8603339Y-14129884D01*
X8631910Y-14129884D01*
X8650958Y-14139408D01*
X8660482Y-14158455D01*
X8660482Y-14263217D01*
X8660482Y-14158455D02*
X8670006Y-14139408D01*
X8689053Y-14129884D01*
X8717625Y-14129884D01*
X8736672Y-14139408D01*
X8746196Y-14158455D01*
X8746196Y-14263217D01*
X9136672Y-14053693D02*
X8965244Y-14310836D01*
X9393815Y-14063217D02*
X9412863Y-14063217D01*
X9431910Y-14072741D01*
X9441434Y-14082265D01*
X9450958Y-14101312D01*
X9460482Y-14139408D01*
X9460482Y-14187027D01*
X9450958Y-14225122D01*
X9441434Y-14244169D01*
X9431910Y-14253693D01*
X9412863Y-14263217D01*
X9393815Y-14263217D01*
X9374768Y-14253693D01*
X9365244Y-14244169D01*
X9355720Y-14225122D01*
X9346196Y-14187027D01*
X9346196Y-14139408D01*
X9355720Y-14101312D01*
X9365244Y-14082265D01*
X9374768Y-14072741D01*
X9393815Y-14063217D01*
X9546196Y-14244169D02*
X9555720Y-14253693D01*
X9546196Y-14263217D01*
X9536672Y-14253693D01*
X9546196Y-14244169D01*
X9546196Y-14263217D01*
X9679529Y-14063217D02*
X9698577Y-14063217D01*
X9717625Y-14072741D01*
X9727149Y-14082265D01*
X9736672Y-14101312D01*
X9746196Y-14139408D01*
X9746196Y-14187027D01*
X9736672Y-14225122D01*
X9727149Y-14244169D01*
X9717625Y-14253693D01*
X9698577Y-14263217D01*
X9679529Y-14263217D01*
X9660482Y-14253693D01*
X9650958Y-14244169D01*
X9641434Y-14225122D01*
X9631910Y-14187027D01*
X9631910Y-14139408D01*
X9641434Y-14101312D01*
X9650958Y-14082265D01*
X9660482Y-14072741D01*
X9679529Y-14063217D01*
X9812863Y-14063217D02*
X9936672Y-14063217D01*
X9870006Y-14139408D01*
X9898577Y-14139408D01*
X9917625Y-14148931D01*
X9927149Y-14158455D01*
X9936672Y-14177503D01*
X9936672Y-14225122D01*
X9927149Y-14244169D01*
X9917625Y-14253693D01*
X9898577Y-14263217D01*
X9841434Y-14263217D01*
X9822387Y-14253693D01*
X9812863Y-14244169D01*
X10031910Y-14263217D02*
X10070006Y-14263217D01*
X10089053Y-14253693D01*
X10098577Y-14244169D01*
X10117625Y-14215598D01*
X10127149Y-14177503D01*
X10127149Y-14101312D01*
X10117625Y-14082265D01*
X10108101Y-14072741D01*
X10089053Y-14063217D01*
X10050958Y-14063217D01*
X10031910Y-14072741D01*
X10022387Y-14082265D01*
X10012863Y-14101312D01*
X10012863Y-14148931D01*
X10022387Y-14167979D01*
X10031910Y-14177503D01*
X10050958Y-14187027D01*
X10089053Y-14187027D01*
X10108101Y-14177503D01*
X10117625Y-14167979D01*
X10127149Y-14148931D01*
X10298577Y-14129884D02*
X10298577Y-14263217D01*
X10250958Y-14053693D02*
X10203339Y-14196550D01*
X10327149Y-14196550D01*
X10393815Y-14063217D02*
X10393815Y-14101312D01*
X10470006Y-14063217D02*
X10470006Y-14101312D01*
X10765244Y-14339408D02*
X10755720Y-14329884D01*
X10736672Y-14301312D01*
X10727149Y-14282265D01*
X10717625Y-14253693D01*
X10708101Y-14206074D01*
X10708101Y-14167979D01*
X10717625Y-14120360D01*
X10727149Y-14091789D01*
X10736672Y-14072741D01*
X10755720Y-14044169D01*
X10765244Y-14034646D01*
X10946196Y-14263217D02*
X10831910Y-14263217D01*
X10889053Y-14263217D02*
X10889053Y-14063217D01*
X10870006Y-14091789D01*
X10850958Y-14110836D01*
X10831910Y-14120360D01*
X11012863Y-14063217D02*
X11146196Y-14063217D01*
X11060482Y-14263217D01*
X11374767Y-14263217D02*
X11374767Y-14063217D01*
X11460482Y-14263217D02*
X11460482Y-14158455D01*
X11450958Y-14139408D01*
X11431910Y-14129884D01*
X11403339Y-14129884D01*
X11384291Y-14139408D01*
X11374767Y-14148931D01*
X11584291Y-14263217D02*
X11565244Y-14253693D01*
X11555720Y-14244169D01*
X11546196Y-14225122D01*
X11546196Y-14167979D01*
X11555720Y-14148931D01*
X11565244Y-14139408D01*
X11584291Y-14129884D01*
X11612863Y-14129884D01*
X11631910Y-14139408D01*
X11641434Y-14148931D01*
X11650958Y-14167979D01*
X11650958Y-14225122D01*
X11641434Y-14244169D01*
X11631910Y-14253693D01*
X11612863Y-14263217D01*
X11584291Y-14263217D01*
X11765244Y-14263217D02*
X11746196Y-14253693D01*
X11736672Y-14234646D01*
X11736672Y-14063217D01*
X11917625Y-14253693D02*
X11898577Y-14263217D01*
X11860482Y-14263217D01*
X11841434Y-14253693D01*
X11831910Y-14234646D01*
X11831910Y-14158455D01*
X11841434Y-14139408D01*
X11860482Y-14129884D01*
X11898577Y-14129884D01*
X11917625Y-14139408D01*
X11927148Y-14158455D01*
X11927148Y-14177503D01*
X11831910Y-14196550D01*
X12003339Y-14253693D02*
X12022387Y-14263217D01*
X12060482Y-14263217D01*
X12079529Y-14253693D01*
X12089053Y-14234646D01*
X12089053Y-14225122D01*
X12079529Y-14206074D01*
X12060482Y-14196550D01*
X12031910Y-14196550D01*
X12012863Y-14187027D01*
X12003339Y-14167979D01*
X12003339Y-14158455D01*
X12012863Y-14139408D01*
X12031910Y-14129884D01*
X12060482Y-14129884D01*
X12079529Y-14139408D01*
X12155720Y-14339408D02*
X12165244Y-14329884D01*
X12184291Y-14301312D01*
X12193815Y-14282265D01*
X12203339Y-14253693D01*
X12212863Y-14206074D01*
X12212863Y-14167979D01*
X12203339Y-14120360D01*
X12193815Y-14091789D01*
X12184291Y-14072741D01*
X12165244Y-14044169D01*
X12155720Y-14034646D01*
D15*
X7171372Y-14489774D02*
X7171372Y-14383707D01*
X7065305Y-14383707D01*
X7065305Y-14489774D01*
X7171372Y-14489774D01*
D11*
X7555720Y-14527217D02*
X7441434Y-14527217D01*
X7498577Y-14527217D02*
X7498577Y-14327217D01*
X7479529Y-14355789D01*
X7460482Y-14374836D01*
X7441434Y-14384360D01*
X7641434Y-14508169D02*
X7650958Y-14517693D01*
X7641434Y-14527217D01*
X7631910Y-14517693D01*
X7641434Y-14508169D01*
X7641434Y-14527217D01*
X7831910Y-14327217D02*
X7736672Y-14327217D01*
X7727148Y-14422455D01*
X7736672Y-14412931D01*
X7755720Y-14403408D01*
X7803339Y-14403408D01*
X7822387Y-14412931D01*
X7831910Y-14422455D01*
X7841434Y-14441503D01*
X7841434Y-14489122D01*
X7831910Y-14508169D01*
X7822387Y-14517693D01*
X7803339Y-14527217D01*
X7755720Y-14527217D01*
X7736672Y-14517693D01*
X7727148Y-14508169D01*
X7965244Y-14327217D02*
X7984291Y-14327217D01*
X8003339Y-14336741D01*
X8012863Y-14346265D01*
X8022387Y-14365312D01*
X8031910Y-14403408D01*
X8031910Y-14451027D01*
X8022387Y-14489122D01*
X8012863Y-14508169D01*
X8003339Y-14517693D01*
X7984291Y-14527217D01*
X7965244Y-14527217D01*
X7946196Y-14517693D01*
X7936672Y-14508169D01*
X7927148Y-14489122D01*
X7917625Y-14451027D01*
X7917625Y-14403408D01*
X7927148Y-14365312D01*
X7936672Y-14346265D01*
X7946196Y-14336741D01*
X7965244Y-14327217D01*
X8155720Y-14327217D02*
X8174767Y-14327217D01*
X8193815Y-14336741D01*
X8203339Y-14346265D01*
X8212863Y-14365312D01*
X8222387Y-14403408D01*
X8222387Y-14451027D01*
X8212863Y-14489122D01*
X8203339Y-14508169D01*
X8193815Y-14517693D01*
X8174767Y-14527217D01*
X8155720Y-14527217D01*
X8136672Y-14517693D01*
X8127148Y-14508169D01*
X8117625Y-14489122D01*
X8108101Y-14451027D01*
X8108101Y-14403408D01*
X8117625Y-14365312D01*
X8127148Y-14346265D01*
X8136672Y-14336741D01*
X8155720Y-14327217D01*
X8308101Y-14527217D02*
X8308101Y-14393884D01*
X8308101Y-14412931D02*
X8317625Y-14403408D01*
X8336672Y-14393884D01*
X8365244Y-14393884D01*
X8384291Y-14403408D01*
X8393815Y-14422455D01*
X8393815Y-14527217D01*
X8393815Y-14422455D02*
X8403339Y-14403408D01*
X8422387Y-14393884D01*
X8450958Y-14393884D01*
X8470006Y-14403408D01*
X8479529Y-14422455D01*
X8479529Y-14527217D01*
X8574768Y-14527217D02*
X8574768Y-14393884D01*
X8574768Y-14412931D02*
X8584291Y-14403408D01*
X8603339Y-14393884D01*
X8631910Y-14393884D01*
X8650958Y-14403408D01*
X8660482Y-14422455D01*
X8660482Y-14527217D01*
X8660482Y-14422455D02*
X8670006Y-14403408D01*
X8689053Y-14393884D01*
X8717625Y-14393884D01*
X8736672Y-14403408D01*
X8746196Y-14422455D01*
X8746196Y-14527217D01*
X9136672Y-14317693D02*
X8965244Y-14574836D01*
X9393815Y-14327217D02*
X9412863Y-14327217D01*
X9431910Y-14336741D01*
X9441434Y-14346265D01*
X9450958Y-14365312D01*
X9460482Y-14403408D01*
X9460482Y-14451027D01*
X9450958Y-14489122D01*
X9441434Y-14508169D01*
X9431910Y-14517693D01*
X9412863Y-14527217D01*
X9393815Y-14527217D01*
X9374768Y-14517693D01*
X9365244Y-14508169D01*
X9355720Y-14489122D01*
X9346196Y-14451027D01*
X9346196Y-14403408D01*
X9355720Y-14365312D01*
X9365244Y-14346265D01*
X9374768Y-14336741D01*
X9393815Y-14327217D01*
X9546196Y-14508169D02*
X9555720Y-14517693D01*
X9546196Y-14527217D01*
X9536672Y-14517693D01*
X9546196Y-14508169D01*
X9546196Y-14527217D01*
X9679529Y-14327217D02*
X9698577Y-14327217D01*
X9717625Y-14336741D01*
X9727149Y-14346265D01*
X9736672Y-14365312D01*
X9746196Y-14403408D01*
X9746196Y-14451027D01*
X9736672Y-14489122D01*
X9727149Y-14508169D01*
X9717625Y-14517693D01*
X9698577Y-14527217D01*
X9679529Y-14527217D01*
X9660482Y-14517693D01*
X9650958Y-14508169D01*
X9641434Y-14489122D01*
X9631910Y-14451027D01*
X9631910Y-14403408D01*
X9641434Y-14365312D01*
X9650958Y-14346265D01*
X9660482Y-14336741D01*
X9679529Y-14327217D01*
X9927149Y-14327217D02*
X9831910Y-14327217D01*
X9822387Y-14422455D01*
X9831910Y-14412931D01*
X9850958Y-14403408D01*
X9898577Y-14403408D01*
X9917625Y-14412931D01*
X9927149Y-14422455D01*
X9936672Y-14441503D01*
X9936672Y-14489122D01*
X9927149Y-14508169D01*
X9917625Y-14517693D01*
X9898577Y-14527217D01*
X9850958Y-14527217D01*
X9831910Y-14517693D01*
X9822387Y-14508169D01*
X10031910Y-14527217D02*
X10070006Y-14527217D01*
X10089053Y-14517693D01*
X10098577Y-14508169D01*
X10117625Y-14479598D01*
X10127149Y-14441503D01*
X10127149Y-14365312D01*
X10117625Y-14346265D01*
X10108101Y-14336741D01*
X10089053Y-14327217D01*
X10050958Y-14327217D01*
X10031910Y-14336741D01*
X10022387Y-14346265D01*
X10012863Y-14365312D01*
X10012863Y-14412931D01*
X10022387Y-14431979D01*
X10031910Y-14441503D01*
X10050958Y-14451027D01*
X10089053Y-14451027D01*
X10108101Y-14441503D01*
X10117625Y-14431979D01*
X10127149Y-14412931D01*
X10317625Y-14527217D02*
X10203339Y-14527217D01*
X10260482Y-14527217D02*
X10260482Y-14327217D01*
X10241434Y-14355789D01*
X10222387Y-14374836D01*
X10203339Y-14384360D01*
X10393815Y-14327217D02*
X10393815Y-14365312D01*
X10470006Y-14327217D02*
X10470006Y-14365312D01*
X10765244Y-14603408D02*
X10755720Y-14593884D01*
X10736672Y-14565312D01*
X10727149Y-14546265D01*
X10717625Y-14517693D01*
X10708101Y-14470074D01*
X10708101Y-14431979D01*
X10717625Y-14384360D01*
X10727149Y-14355789D01*
X10736672Y-14336741D01*
X10755720Y-14308169D01*
X10765244Y-14298646D01*
X10870006Y-14412931D02*
X10850958Y-14403408D01*
X10841434Y-14393884D01*
X10831910Y-14374836D01*
X10831910Y-14365312D01*
X10841434Y-14346265D01*
X10850958Y-14336741D01*
X10870006Y-14327217D01*
X10908101Y-14327217D01*
X10927149Y-14336741D01*
X10936672Y-14346265D01*
X10946196Y-14365312D01*
X10946196Y-14374836D01*
X10936672Y-14393884D01*
X10927149Y-14403408D01*
X10908101Y-14412931D01*
X10870006Y-14412931D01*
X10850958Y-14422455D01*
X10841434Y-14431979D01*
X10831910Y-14451027D01*
X10831910Y-14489122D01*
X10841434Y-14508169D01*
X10850958Y-14517693D01*
X10870006Y-14527217D01*
X10908101Y-14527217D01*
X10927149Y-14517693D01*
X10936672Y-14508169D01*
X10946196Y-14489122D01*
X10946196Y-14451027D01*
X10936672Y-14431979D01*
X10927149Y-14422455D01*
X10908101Y-14412931D01*
X11184291Y-14527217D02*
X11184291Y-14327217D01*
X11270006Y-14527217D02*
X11270006Y-14422455D01*
X11260482Y-14403408D01*
X11241434Y-14393884D01*
X11212863Y-14393884D01*
X11193815Y-14403408D01*
X11184291Y-14412931D01*
X11393815Y-14527217D02*
X11374767Y-14517693D01*
X11365244Y-14508169D01*
X11355720Y-14489122D01*
X11355720Y-14431979D01*
X11365244Y-14412931D01*
X11374767Y-14403408D01*
X11393815Y-14393884D01*
X11422387Y-14393884D01*
X11441434Y-14403408D01*
X11450958Y-14412931D01*
X11460482Y-14431979D01*
X11460482Y-14489122D01*
X11450958Y-14508169D01*
X11441434Y-14517693D01*
X11422387Y-14527217D01*
X11393815Y-14527217D01*
X11574767Y-14527217D02*
X11555720Y-14517693D01*
X11546196Y-14498646D01*
X11546196Y-14327217D01*
X11727148Y-14517693D02*
X11708101Y-14527217D01*
X11670006Y-14527217D01*
X11650958Y-14517693D01*
X11641434Y-14498646D01*
X11641434Y-14422455D01*
X11650958Y-14403408D01*
X11670006Y-14393884D01*
X11708101Y-14393884D01*
X11727148Y-14403408D01*
X11736672Y-14422455D01*
X11736672Y-14441503D01*
X11641434Y-14460550D01*
X11812863Y-14517693D02*
X11831910Y-14527217D01*
X11870006Y-14527217D01*
X11889053Y-14517693D01*
X11898577Y-14498646D01*
X11898577Y-14489122D01*
X11889053Y-14470074D01*
X11870006Y-14460550D01*
X11841434Y-14460550D01*
X11822387Y-14451027D01*
X11812863Y-14431979D01*
X11812863Y-14422455D01*
X11822387Y-14403408D01*
X11841434Y-14393884D01*
X11870006Y-14393884D01*
X11889053Y-14403408D01*
X12136672Y-14451027D02*
X12289053Y-14451027D01*
X12212863Y-14527217D02*
X12212863Y-14374836D01*
X12622387Y-14393884D02*
X12622387Y-14527217D01*
X12574767Y-14317693D02*
X12527148Y-14460550D01*
X12650958Y-14460550D01*
X12870006Y-14517693D02*
X12889053Y-14527217D01*
X12927148Y-14527217D01*
X12946196Y-14517693D01*
X12955720Y-14498646D01*
X12955720Y-14489122D01*
X12946196Y-14470074D01*
X12927148Y-14460550D01*
X12898577Y-14460550D01*
X12879529Y-14451027D01*
X12870006Y-14431979D01*
X12870006Y-14422455D01*
X12879529Y-14403408D01*
X12898577Y-14393884D01*
X12927148Y-14393884D01*
X12946196Y-14403408D01*
X13070006Y-14527217D02*
X13050958Y-14517693D01*
X13041434Y-14498646D01*
X13041434Y-14327217D01*
X13174767Y-14527217D02*
X13155720Y-14517693D01*
X13146196Y-14508169D01*
X13136672Y-14489122D01*
X13136672Y-14431979D01*
X13146196Y-14412931D01*
X13155720Y-14403408D01*
X13174767Y-14393884D01*
X13203339Y-14393884D01*
X13222387Y-14403408D01*
X13231910Y-14412931D01*
X13241434Y-14431979D01*
X13241434Y-14489122D01*
X13231910Y-14508169D01*
X13222387Y-14517693D01*
X13203339Y-14527217D01*
X13174767Y-14527217D01*
X13298577Y-14393884D02*
X13374767Y-14393884D01*
X13327148Y-14327217D02*
X13327148Y-14498646D01*
X13336672Y-14517693D01*
X13355720Y-14527217D01*
X13374767Y-14527217D01*
X13431910Y-14517693D02*
X13450958Y-14527217D01*
X13489053Y-14527217D01*
X13508101Y-14517693D01*
X13517625Y-14498646D01*
X13517625Y-14489122D01*
X13508101Y-14470074D01*
X13489053Y-14460550D01*
X13460482Y-14460550D01*
X13441434Y-14451027D01*
X13431910Y-14431979D01*
X13431910Y-14422455D01*
X13441434Y-14403408D01*
X13460482Y-14393884D01*
X13489053Y-14393884D01*
X13508101Y-14403408D01*
X13584291Y-14603408D02*
X13593815Y-14593884D01*
X13612863Y-14565312D01*
X13622387Y-14546265D01*
X13631910Y-14517693D01*
X13641434Y-14470074D01*
X13641434Y-14431979D01*
X13631910Y-14384360D01*
X13622387Y-14355789D01*
X13612863Y-14336741D01*
X13593815Y-14308169D01*
X13584291Y-14298646D01*
M02*
