%TF.GenerationSoftware,KiCad,Pcbnew,(6.0.1)*%
%TF.CreationDate,2022-07-08T00:12:44-07:00*%
%TF.ProjectId,OpenEx Rev2,4f70656e-4578-4205-9265-76322e6b6963,rev?*%
%TF.SameCoordinates,Original*%
%TF.FileFunction,Legend,Bot*%
%TF.FilePolarity,Positive*%
%FSLAX46Y46*%
G04 Gerber Fmt 4.6, Leading zero omitted, Abs format (unit mm)*
G04 Created by KiCad (PCBNEW (6.0.1)) date 2022-07-08 00:12:44*
%MOMM*%
%LPD*%
G01*
G04 APERTURE LIST*
%ADD10C,0.150000*%
%ADD11C,0.381000*%
G04 APERTURE END LIST*
D10*
%TO.C,U1*%
X90481076Y-101815054D02*
X90481076Y-101015054D01*
X90290600Y-101015054D01*
X90176314Y-101053150D01*
X90100123Y-101129340D01*
X90062028Y-101205530D01*
X90023933Y-101357911D01*
X90023933Y-101472197D01*
X90062028Y-101624578D01*
X90100123Y-101700769D01*
X90176314Y-101776959D01*
X90290600Y-101815054D01*
X90481076Y-101815054D01*
X89757266Y-101015054D02*
X89223933Y-101015054D01*
X89566790Y-101815054D01*
X90372933Y-91655054D02*
X90372933Y-90855054D01*
X90182457Y-90855054D01*
X90068171Y-90893150D01*
X89991980Y-90969340D01*
X89953885Y-91045530D01*
X89915790Y-91197911D01*
X89915790Y-91312197D01*
X89953885Y-91464578D01*
X89991980Y-91540769D01*
X90068171Y-91616959D01*
X90182457Y-91655054D01*
X90372933Y-91655054D01*
X89153885Y-91655054D02*
X89611028Y-91655054D01*
X89382457Y-91655054D02*
X89382457Y-90855054D01*
X89458647Y-90969340D01*
X89534838Y-91045530D01*
X89611028Y-91083626D01*
X88239600Y-90816959D02*
X88925314Y-91845530D01*
X88011028Y-91616959D02*
X87896742Y-91655054D01*
X87706266Y-91655054D01*
X87630076Y-91616959D01*
X87591980Y-91578864D01*
X87553885Y-91502673D01*
X87553885Y-91426483D01*
X87591980Y-91350292D01*
X87630076Y-91312197D01*
X87706266Y-91274102D01*
X87858647Y-91236007D01*
X87934838Y-91197911D01*
X87972933Y-91159816D01*
X88011028Y-91083626D01*
X88011028Y-91007435D01*
X87972933Y-90931245D01*
X87934838Y-90893150D01*
X87858647Y-90855054D01*
X87668171Y-90855054D01*
X87553885Y-90893150D01*
X87211028Y-91655054D02*
X87211028Y-90855054D01*
X87020552Y-90855054D01*
X86906266Y-90893150D01*
X86830076Y-90969340D01*
X86791980Y-91045530D01*
X86753885Y-91197911D01*
X86753885Y-91312197D01*
X86791980Y-91464578D01*
X86830076Y-91540769D01*
X86906266Y-91616959D01*
X87020552Y-91655054D01*
X87211028Y-91655054D01*
X86449123Y-91426483D02*
X86068171Y-91426483D01*
X86525314Y-91655054D02*
X86258647Y-90855054D01*
X85991980Y-91655054D01*
X79235266Y-98856007D02*
X79501933Y-98856007D01*
X79501933Y-99275054D02*
X79501933Y-98475054D01*
X79120980Y-98475054D01*
X78892409Y-98475054D02*
X78359076Y-98475054D01*
X78701933Y-99275054D01*
X79235266Y-91236007D02*
X79501933Y-91236007D01*
X79501933Y-91655054D02*
X79501933Y-90855054D01*
X79120980Y-90855054D01*
X78473361Y-91121721D02*
X78473361Y-91655054D01*
X78663838Y-90816959D02*
X78854314Y-91388388D01*
X78359076Y-91388388D01*
X90500123Y-85813150D02*
X90576314Y-85775054D01*
X90690600Y-85775054D01*
X90804885Y-85813150D01*
X90881076Y-85889340D01*
X90919171Y-85965530D01*
X90957266Y-86117911D01*
X90957266Y-86232197D01*
X90919171Y-86384578D01*
X90881076Y-86460769D01*
X90804885Y-86536959D01*
X90690600Y-86575054D01*
X90614409Y-86575054D01*
X90500123Y-86536959D01*
X90462028Y-86498864D01*
X90462028Y-86232197D01*
X90614409Y-86232197D01*
X90119171Y-86575054D02*
X90119171Y-85775054D01*
X89662028Y-86575054D01*
X89662028Y-85775054D01*
X89281076Y-86575054D02*
X89281076Y-85775054D01*
X89090600Y-85775054D01*
X88976314Y-85813150D01*
X88900123Y-85889340D01*
X88862028Y-85965530D01*
X88823933Y-86117911D01*
X88823933Y-86232197D01*
X88862028Y-86384578D01*
X88900123Y-86460769D01*
X88976314Y-86536959D01*
X89090600Y-86575054D01*
X89281076Y-86575054D01*
X80035266Y-88315054D02*
X79768600Y-89115054D01*
X79501933Y-88315054D01*
X78778123Y-89038864D02*
X78816219Y-89076959D01*
X78930504Y-89115054D01*
X79006695Y-89115054D01*
X79120980Y-89076959D01*
X79197171Y-89000769D01*
X79235266Y-88924578D01*
X79273361Y-88772197D01*
X79273361Y-88657911D01*
X79235266Y-88505530D01*
X79197171Y-88429340D01*
X79120980Y-88353150D01*
X79006695Y-88315054D01*
X78930504Y-88315054D01*
X78816219Y-88353150D01*
X78778123Y-88391245D01*
X77978123Y-89038864D02*
X78016219Y-89076959D01*
X78130504Y-89115054D01*
X78206695Y-89115054D01*
X78320980Y-89076959D01*
X78397171Y-89000769D01*
X78435266Y-88924578D01*
X78473361Y-88772197D01*
X78473361Y-88657911D01*
X78435266Y-88505530D01*
X78397171Y-88429340D01*
X78320980Y-88353150D01*
X78206695Y-88315054D01*
X78130504Y-88315054D01*
X78016219Y-88353150D01*
X77978123Y-88391245D01*
X90353885Y-94195054D02*
X90353885Y-93395054D01*
X90163409Y-93395054D01*
X90049123Y-93433150D01*
X89972933Y-93509340D01*
X89934838Y-93585530D01*
X89896742Y-93737911D01*
X89896742Y-93852197D01*
X89934838Y-94004578D01*
X89972933Y-94080769D01*
X90049123Y-94156959D01*
X90163409Y-94195054D01*
X90353885Y-94195054D01*
X89401504Y-93395054D02*
X89325314Y-93395054D01*
X89249123Y-93433150D01*
X89211028Y-93471245D01*
X89172933Y-93547435D01*
X89134838Y-93699816D01*
X89134838Y-93890292D01*
X89172933Y-94042673D01*
X89211028Y-94118864D01*
X89249123Y-94156959D01*
X89325314Y-94195054D01*
X89401504Y-94195054D01*
X89477695Y-94156959D01*
X89515790Y-94118864D01*
X89553885Y-94042673D01*
X89591980Y-93890292D01*
X89591980Y-93699816D01*
X89553885Y-93547435D01*
X89515790Y-93471245D01*
X89477695Y-93433150D01*
X89401504Y-93395054D01*
X88220552Y-93356959D02*
X88906266Y-94385530D01*
X87991980Y-94156959D02*
X87877695Y-94195054D01*
X87687219Y-94195054D01*
X87611028Y-94156959D01*
X87572933Y-94118864D01*
X87534838Y-94042673D01*
X87534838Y-93966483D01*
X87572933Y-93890292D01*
X87611028Y-93852197D01*
X87687219Y-93814102D01*
X87839600Y-93776007D01*
X87915790Y-93737911D01*
X87953885Y-93699816D01*
X87991980Y-93623626D01*
X87991980Y-93547435D01*
X87953885Y-93471245D01*
X87915790Y-93433150D01*
X87839600Y-93395054D01*
X87649123Y-93395054D01*
X87534838Y-93433150D01*
X86734838Y-94118864D02*
X86772933Y-94156959D01*
X86887219Y-94195054D01*
X86963409Y-94195054D01*
X87077695Y-94156959D01*
X87153885Y-94080769D01*
X87191980Y-94004578D01*
X87230076Y-93852197D01*
X87230076Y-93737911D01*
X87191980Y-93585530D01*
X87153885Y-93509340D01*
X87077695Y-93433150D01*
X86963409Y-93395054D01*
X86887219Y-93395054D01*
X86772933Y-93433150D01*
X86734838Y-93471245D01*
X86011028Y-94195054D02*
X86391980Y-94195054D01*
X86391980Y-93395054D01*
X90191948Y-80695055D02*
X89734805Y-80695055D01*
X89963376Y-81495055D02*
X89963376Y-80695055D01*
X89544329Y-80695055D02*
X89010995Y-81495055D01*
X89010995Y-80695055D02*
X89544329Y-81495055D01*
X88553852Y-80695055D02*
X88477662Y-80695055D01*
X88401472Y-80733151D01*
X88363376Y-80771246D01*
X88325281Y-80847436D01*
X88287186Y-80999817D01*
X88287186Y-81190293D01*
X88325281Y-81342674D01*
X88363376Y-81418865D01*
X88401472Y-81456960D01*
X88477662Y-81495055D01*
X88553852Y-81495055D01*
X88630043Y-81456960D01*
X88668138Y-81418865D01*
X88706233Y-81342674D01*
X88744329Y-81190293D01*
X88744329Y-80999817D01*
X88706233Y-80847436D01*
X88668138Y-80771246D01*
X88630043Y-80733151D01*
X88553852Y-80695055D01*
X87372900Y-80656960D02*
X88058614Y-81685531D01*
X87106233Y-81495055D02*
X87106233Y-80695055D01*
X86915757Y-80695055D01*
X86801472Y-80733151D01*
X86725281Y-80809341D01*
X86687186Y-80885531D01*
X86649091Y-81037912D01*
X86649091Y-81152198D01*
X86687186Y-81304579D01*
X86725281Y-81380770D01*
X86801472Y-81456960D01*
X86915757Y-81495055D01*
X87106233Y-81495055D01*
X86382424Y-80695055D02*
X85887186Y-80695055D01*
X86153852Y-80999817D01*
X86039567Y-80999817D01*
X85963376Y-81037912D01*
X85925281Y-81076008D01*
X85887186Y-81152198D01*
X85887186Y-81342674D01*
X85925281Y-81418865D01*
X85963376Y-81456960D01*
X86039567Y-81495055D01*
X86268138Y-81495055D01*
X86344329Y-81456960D01*
X86382424Y-81418865D01*
X90214409Y-109016007D02*
X90100123Y-109054102D01*
X90062028Y-109092197D01*
X90023933Y-109168388D01*
X90023933Y-109282673D01*
X90062028Y-109358864D01*
X90100123Y-109396959D01*
X90176314Y-109435054D01*
X90481076Y-109435054D01*
X90481076Y-108635054D01*
X90214409Y-108635054D01*
X90138219Y-108673150D01*
X90100123Y-108711245D01*
X90062028Y-108787435D01*
X90062028Y-108863626D01*
X90100123Y-108939816D01*
X90138219Y-108977911D01*
X90214409Y-109016007D01*
X90481076Y-109016007D01*
X89300123Y-108635054D02*
X89681076Y-108635054D01*
X89719171Y-109016007D01*
X89681076Y-108977911D01*
X89604885Y-108939816D01*
X89414409Y-108939816D01*
X89338219Y-108977911D01*
X89300123Y-109016007D01*
X89262028Y-109092197D01*
X89262028Y-109282673D01*
X89300123Y-109358864D01*
X89338219Y-109396959D01*
X89414409Y-109435054D01*
X89604885Y-109435054D01*
X89681076Y-109396959D01*
X89719171Y-109358864D01*
X90481076Y-84035054D02*
X90481076Y-83235054D01*
X90290600Y-83235054D01*
X90176314Y-83273150D01*
X90100123Y-83349340D01*
X90062028Y-83425530D01*
X90023933Y-83577911D01*
X90023933Y-83692197D01*
X90062028Y-83844578D01*
X90100123Y-83920769D01*
X90176314Y-83996959D01*
X90290600Y-84035054D01*
X90481076Y-84035054D01*
X89719171Y-83311245D02*
X89681076Y-83273150D01*
X89604885Y-83235054D01*
X89414409Y-83235054D01*
X89338219Y-83273150D01*
X89300123Y-83311245D01*
X89262028Y-83387435D01*
X89262028Y-83463626D01*
X89300123Y-83577911D01*
X89757266Y-84035054D01*
X89262028Y-84035054D01*
X79292409Y-101396007D02*
X79178123Y-101434102D01*
X79140028Y-101472197D01*
X79101933Y-101548388D01*
X79101933Y-101662673D01*
X79140028Y-101738864D01*
X79178123Y-101776959D01*
X79254314Y-101815054D01*
X79559076Y-101815054D01*
X79559076Y-101015054D01*
X79292409Y-101015054D01*
X79216219Y-101053150D01*
X79178123Y-101091245D01*
X79140028Y-101167435D01*
X79140028Y-101243626D01*
X79178123Y-101319816D01*
X79216219Y-101357911D01*
X79292409Y-101396007D01*
X79559076Y-101396007D01*
X78340028Y-101815054D02*
X78797171Y-101815054D01*
X78568600Y-101815054D02*
X78568600Y-101015054D01*
X78644790Y-101129340D01*
X78720980Y-101205530D01*
X78797171Y-101243626D01*
X80913219Y-79029721D02*
X80770361Y-79077340D01*
X80722742Y-79124959D01*
X80675123Y-79220197D01*
X80675123Y-79363054D01*
X80722742Y-79458292D01*
X80770361Y-79505911D01*
X80865600Y-79553530D01*
X81246552Y-79553530D01*
X81246552Y-78553530D01*
X80913219Y-78553530D01*
X80817980Y-78601150D01*
X80770361Y-78648769D01*
X80722742Y-78744007D01*
X80722742Y-78839245D01*
X80770361Y-78934483D01*
X80817980Y-78982102D01*
X80913219Y-79029721D01*
X81246552Y-79029721D01*
X80246552Y-79172578D02*
X79484647Y-79172578D01*
X79865600Y-79553530D02*
X79865600Y-78791626D01*
X79292409Y-106476007D02*
X79178123Y-106514102D01*
X79140028Y-106552197D01*
X79101933Y-106628388D01*
X79101933Y-106742673D01*
X79140028Y-106818864D01*
X79178123Y-106856959D01*
X79254314Y-106895054D01*
X79559076Y-106895054D01*
X79559076Y-106095054D01*
X79292409Y-106095054D01*
X79216219Y-106133150D01*
X79178123Y-106171245D01*
X79140028Y-106247435D01*
X79140028Y-106323626D01*
X79178123Y-106399816D01*
X79216219Y-106437911D01*
X79292409Y-106476007D01*
X79559076Y-106476007D01*
X78797171Y-106171245D02*
X78759076Y-106133150D01*
X78682885Y-106095054D01*
X78492409Y-106095054D01*
X78416219Y-106133150D01*
X78378123Y-106171245D01*
X78340028Y-106247435D01*
X78340028Y-106323626D01*
X78378123Y-106437911D01*
X78835266Y-106895054D01*
X78340028Y-106895054D01*
X90442980Y-103936007D02*
X90176314Y-103936007D01*
X90062028Y-104355054D02*
X90442980Y-104355054D01*
X90442980Y-103555054D01*
X90062028Y-103555054D01*
X89376314Y-103555054D02*
X89528695Y-103555054D01*
X89604885Y-103593150D01*
X89642980Y-103631245D01*
X89719171Y-103745530D01*
X89757266Y-103897911D01*
X89757266Y-104202673D01*
X89719171Y-104278864D01*
X89681076Y-104316959D01*
X89604885Y-104355054D01*
X89452504Y-104355054D01*
X89376314Y-104316959D01*
X89338219Y-104278864D01*
X89300123Y-104202673D01*
X89300123Y-104012197D01*
X89338219Y-103936007D01*
X89376314Y-103897911D01*
X89452504Y-103859816D01*
X89604885Y-103859816D01*
X89681076Y-103897911D01*
X89719171Y-103936007D01*
X89757266Y-104012197D01*
X79292409Y-109016007D02*
X79178123Y-109054102D01*
X79140028Y-109092197D01*
X79101933Y-109168388D01*
X79101933Y-109282673D01*
X79140028Y-109358864D01*
X79178123Y-109396959D01*
X79254314Y-109435054D01*
X79559076Y-109435054D01*
X79559076Y-108635054D01*
X79292409Y-108635054D01*
X79216219Y-108673150D01*
X79178123Y-108711245D01*
X79140028Y-108787435D01*
X79140028Y-108863626D01*
X79178123Y-108939816D01*
X79216219Y-108977911D01*
X79292409Y-109016007D01*
X79559076Y-109016007D01*
X78416219Y-108635054D02*
X78568600Y-108635054D01*
X78644790Y-108673150D01*
X78682885Y-108711245D01*
X78759076Y-108825530D01*
X78797171Y-108977911D01*
X78797171Y-109282673D01*
X78759076Y-109358864D01*
X78720980Y-109396959D01*
X78644790Y-109435054D01*
X78492409Y-109435054D01*
X78416219Y-109396959D01*
X78378123Y-109358864D01*
X78340028Y-109282673D01*
X78340028Y-109092197D01*
X78378123Y-109016007D01*
X78416219Y-108977911D01*
X78492409Y-108939816D01*
X78644790Y-108939816D01*
X78720980Y-108977911D01*
X78759076Y-109016007D01*
X78797171Y-109092197D01*
X79578123Y-83273150D02*
X79654314Y-83235054D01*
X79768600Y-83235054D01*
X79882885Y-83273150D01*
X79959076Y-83349340D01*
X79997171Y-83425530D01*
X80035266Y-83577911D01*
X80035266Y-83692197D01*
X79997171Y-83844578D01*
X79959076Y-83920769D01*
X79882885Y-83996959D01*
X79768600Y-84035054D01*
X79692409Y-84035054D01*
X79578123Y-83996959D01*
X79540028Y-83958864D01*
X79540028Y-83692197D01*
X79692409Y-83692197D01*
X79197171Y-84035054D02*
X79197171Y-83235054D01*
X78740028Y-84035054D01*
X78740028Y-83235054D01*
X78359076Y-84035054D02*
X78359076Y-83235054D01*
X78168600Y-83235054D01*
X78054314Y-83273150D01*
X77978123Y-83349340D01*
X77940028Y-83425530D01*
X77901933Y-83577911D01*
X77901933Y-83692197D01*
X77940028Y-83844578D01*
X77978123Y-83920769D01*
X78054314Y-83996959D01*
X78168600Y-84035054D01*
X78359076Y-84035054D01*
X79520980Y-81495054D02*
X79787647Y-81114102D01*
X79978123Y-81495054D02*
X79978123Y-80695054D01*
X79673361Y-80695054D01*
X79597171Y-80733150D01*
X79559076Y-80771245D01*
X79520980Y-80847435D01*
X79520980Y-80961721D01*
X79559076Y-81037911D01*
X79597171Y-81076007D01*
X79673361Y-81114102D01*
X79978123Y-81114102D01*
X79216219Y-81266483D02*
X78835266Y-81266483D01*
X79292409Y-81495054D02*
X79025742Y-80695054D01*
X78759076Y-81495054D01*
X78568600Y-80695054D02*
X78378123Y-81495054D01*
X78225742Y-80923626D01*
X78073361Y-81495054D01*
X77882885Y-80695054D01*
X89041219Y-79029721D02*
X88898361Y-79077340D01*
X88850742Y-79124959D01*
X88803123Y-79220197D01*
X88803123Y-79363054D01*
X88850742Y-79458292D01*
X88898361Y-79505911D01*
X88993600Y-79553530D01*
X89374552Y-79553530D01*
X89374552Y-78553530D01*
X89041219Y-78553530D01*
X88945980Y-78601150D01*
X88898361Y-78648769D01*
X88850742Y-78744007D01*
X88850742Y-78839245D01*
X88898361Y-78934483D01*
X88945980Y-78982102D01*
X89041219Y-79029721D01*
X89374552Y-79029721D01*
X88374552Y-79172578D02*
X87612647Y-79172578D01*
X79279695Y-86575054D02*
X79546361Y-86194102D01*
X79736838Y-86575054D02*
X79736838Y-85775054D01*
X79432076Y-85775054D01*
X79355885Y-85813150D01*
X79317790Y-85851245D01*
X79279695Y-85927435D01*
X79279695Y-86041721D01*
X79317790Y-86117911D01*
X79355885Y-86156007D01*
X79432076Y-86194102D01*
X79736838Y-86194102D01*
X78974933Y-86536959D02*
X78860647Y-86575054D01*
X78670171Y-86575054D01*
X78593980Y-86536959D01*
X78555885Y-86498864D01*
X78517790Y-86422673D01*
X78517790Y-86346483D01*
X78555885Y-86270292D01*
X78593980Y-86232197D01*
X78670171Y-86194102D01*
X78822552Y-86156007D01*
X78898742Y-86117911D01*
X78936838Y-86079816D01*
X78974933Y-86003626D01*
X78974933Y-85927435D01*
X78936838Y-85851245D01*
X78898742Y-85813150D01*
X78822552Y-85775054D01*
X78632076Y-85775054D01*
X78517790Y-85813150D01*
X78289219Y-85775054D02*
X77832076Y-85775054D01*
X78060647Y-86575054D02*
X78060647Y-85775054D01*
X90023933Y-99198864D02*
X90062028Y-99236959D01*
X90176314Y-99275054D01*
X90252504Y-99275054D01*
X90366790Y-99236959D01*
X90442980Y-99160769D01*
X90481076Y-99084578D01*
X90519171Y-98932197D01*
X90519171Y-98817911D01*
X90481076Y-98665530D01*
X90442980Y-98589340D01*
X90366790Y-98513150D01*
X90252504Y-98475054D01*
X90176314Y-98475054D01*
X90062028Y-98513150D01*
X90023933Y-98551245D01*
X89338219Y-98475054D02*
X89490600Y-98475054D01*
X89566790Y-98513150D01*
X89604885Y-98551245D01*
X89681076Y-98665530D01*
X89719171Y-98817911D01*
X89719171Y-99122673D01*
X89681076Y-99198864D01*
X89642980Y-99236959D01*
X89566790Y-99275054D01*
X89414409Y-99275054D01*
X89338219Y-99236959D01*
X89300123Y-99198864D01*
X89262028Y-99122673D01*
X89262028Y-98932197D01*
X89300123Y-98856007D01*
X89338219Y-98817911D01*
X89414409Y-98779816D01*
X89566790Y-98779816D01*
X89642980Y-98817911D01*
X89681076Y-98856007D01*
X89719171Y-98932197D01*
X79292409Y-103936007D02*
X79178123Y-103974102D01*
X79140028Y-104012197D01*
X79101933Y-104088388D01*
X79101933Y-104202673D01*
X79140028Y-104278864D01*
X79178123Y-104316959D01*
X79254314Y-104355054D01*
X79559076Y-104355054D01*
X79559076Y-103555054D01*
X79292409Y-103555054D01*
X79216219Y-103593150D01*
X79178123Y-103631245D01*
X79140028Y-103707435D01*
X79140028Y-103783626D01*
X79178123Y-103859816D01*
X79216219Y-103897911D01*
X79292409Y-103936007D01*
X79559076Y-103936007D01*
X78835266Y-103555054D02*
X78340028Y-103555054D01*
X78606695Y-103859816D01*
X78492409Y-103859816D01*
X78416219Y-103897911D01*
X78378123Y-103936007D01*
X78340028Y-104012197D01*
X78340028Y-104202673D01*
X78378123Y-104278864D01*
X78416219Y-104316959D01*
X78492409Y-104355054D01*
X78720980Y-104355054D01*
X78797171Y-104316959D01*
X78835266Y-104278864D01*
X79235266Y-93776007D02*
X79501933Y-93776007D01*
X79501933Y-94195054D02*
X79501933Y-93395054D01*
X79120980Y-93395054D01*
X78435266Y-93395054D02*
X78816219Y-93395054D01*
X78854314Y-93776007D01*
X78816219Y-93737911D01*
X78740028Y-93699816D01*
X78549552Y-93699816D01*
X78473361Y-93737911D01*
X78435266Y-93776007D01*
X78397171Y-93852197D01*
X78397171Y-94042673D01*
X78435266Y-94118864D01*
X78473361Y-94156959D01*
X78549552Y-94195054D01*
X78740028Y-94195054D01*
X78816219Y-94156959D01*
X78854314Y-94118864D01*
X79235266Y-96316007D02*
X79501933Y-96316007D01*
X79501933Y-96735054D02*
X79501933Y-95935054D01*
X79120980Y-95935054D01*
X78473361Y-95935054D02*
X78625742Y-95935054D01*
X78701933Y-95973150D01*
X78740028Y-96011245D01*
X78816219Y-96125530D01*
X78854314Y-96277911D01*
X78854314Y-96582673D01*
X78816219Y-96658864D01*
X78778123Y-96696959D01*
X78701933Y-96735054D01*
X78549552Y-96735054D01*
X78473361Y-96696959D01*
X78435266Y-96658864D01*
X78397171Y-96582673D01*
X78397171Y-96392197D01*
X78435266Y-96316007D01*
X78473361Y-96277911D01*
X78549552Y-96239816D01*
X78701933Y-96239816D01*
X78778123Y-96277911D01*
X78816219Y-96316007D01*
X78854314Y-96392197D01*
X90214409Y-106476008D02*
X90100123Y-106514103D01*
X90062028Y-106552198D01*
X90023933Y-106628389D01*
X90023933Y-106742674D01*
X90062028Y-106818865D01*
X90100123Y-106856960D01*
X90176314Y-106895055D01*
X90481076Y-106895055D01*
X90481076Y-106095055D01*
X90214409Y-106095055D01*
X90138219Y-106133151D01*
X90100123Y-106171246D01*
X90062028Y-106247436D01*
X90062028Y-106323627D01*
X90100123Y-106399817D01*
X90138219Y-106437912D01*
X90214409Y-106476008D01*
X90481076Y-106476008D01*
X89338219Y-106361722D02*
X89338219Y-106895055D01*
X89528695Y-106056960D02*
X89719171Y-106628389D01*
X89223933Y-106628389D01*
X90500123Y-88353150D02*
X90576314Y-88315054D01*
X90690600Y-88315054D01*
X90804885Y-88353150D01*
X90881076Y-88429340D01*
X90919171Y-88505530D01*
X90957266Y-88657911D01*
X90957266Y-88772197D01*
X90919171Y-88924578D01*
X90881076Y-89000769D01*
X90804885Y-89076959D01*
X90690600Y-89115054D01*
X90614409Y-89115054D01*
X90500123Y-89076959D01*
X90462028Y-89038864D01*
X90462028Y-88772197D01*
X90614409Y-88772197D01*
X90119171Y-89115054D02*
X90119171Y-88315054D01*
X89662028Y-89115054D01*
X89662028Y-88315054D01*
X89281076Y-89115054D02*
X89281076Y-88315054D01*
X89090600Y-88315054D01*
X88976314Y-88353150D01*
X88900123Y-88429340D01*
X88862028Y-88505530D01*
X88823933Y-88657911D01*
X88823933Y-88772197D01*
X88862028Y-88924578D01*
X88900123Y-89000769D01*
X88976314Y-89076959D01*
X89090600Y-89115054D01*
X89281076Y-89115054D01*
X90481076Y-96735054D02*
X90481076Y-95935054D01*
X90290600Y-95935054D01*
X90176314Y-95973150D01*
X90100123Y-96049340D01*
X90062028Y-96125530D01*
X90023933Y-96277911D01*
X90023933Y-96392197D01*
X90062028Y-96544578D01*
X90100123Y-96620769D01*
X90176314Y-96696959D01*
X90290600Y-96735054D01*
X90481076Y-96735054D01*
X89338219Y-96201721D02*
X89338219Y-96735054D01*
X89528695Y-95896959D02*
X89719171Y-96468388D01*
X89223933Y-96468388D01*
D11*
X90779600Y-77323150D02*
X93319600Y-77323150D01*
X90779600Y-110343150D02*
X93319600Y-110343150D01*
X75539600Y-77323150D02*
X78079600Y-77323150D01*
X93319600Y-110343150D02*
X93319600Y-107803150D01*
X75539600Y-110343150D02*
X75539600Y-107803150D01*
X93319600Y-77323150D02*
X93319600Y-79863150D01*
X75539600Y-110343150D02*
X78079600Y-110343150D01*
X75539600Y-79863150D02*
X75539600Y-77323150D01*
%TD*%
M02*
