M48
; DRILL file {KiCad (6.0.7)} date Tue Nov  8 23:53:10 2022
; FORMAT={-:-/ absolute / inch / decimal}
; #@! TF.CreationDate,2022-11-08T23:53:10-08:00
; #@! TF.GenerationSoftware,Kicad,Pcbnew,(6.0.7)
; #@! TF.FileFunction,Plated,1,2,PTH
FMAT,2
INCH
; #@! TA.AperFunction,Plated,PTH,ViaDrill
T1C0.0157
; #@! TA.AperFunction,Plated,PTH,ComponentDrill
T2C0.0315
; #@! TA.AperFunction,Plated,PTH,ComponentDrill
T3C0.0390
; #@! TA.AperFunction,Plated,PTH,ComponentDrill
T4C0.0394
; #@! TA.AperFunction,Plated,PTH,ComponentDrill
T5C0.0430
; #@! TA.AperFunction,Plated,PTH,ComponentDrill
T6C0.0472
; #@! TA.AperFunction,Plated,PTH,ComponentDrill
T7C0.0579
; #@! TA.AperFunction,Plated,PTH,ComponentDrill
T8C0.0591
%
G90
G05
T1
X3.9127Y-5.7713
X4.045Y-5.025
X4.1687Y-4.2893
X4.3029Y-3.527
X4.6631Y-5.9029
X4.7835Y-5.1552
X4.91Y-4.42
X5.0443Y-3.6577
X5.2683Y-6.7821
X5.3884Y-6.0316
X5.5319Y-5.2872
X5.6575Y-4.5518
X5.7941Y-3.7899
X6.0212Y-6.9148
X6.1527Y-6.1663
X6.2824Y-5.4195
X6.4083Y-4.6822
X6.5439Y-3.9221
X6.7454Y-7.0426
X6.8352Y-6.2772
X6.9685Y-5.5364
X7.1271Y-4.8109
X7.2691Y-4.05
X7.795Y-4.53
X7.87Y-4.55
X7.922Y-4.557
X7.9766Y-4.5806
X8.0306Y-4.6266
X8.0836Y-4.6736
X8.1356Y-4.7216
X8.147Y-3.574
X8.1936Y-4.766
X8.65Y-3.785
X8.715Y-5.31
X8.806Y-4.566
X8.822Y-4.766
X8.998Y-4.616
X9.154Y-5.346
X9.284Y-6.088
X9.8345Y-3.9345
X9.9734Y-4.696
X10.1027Y-5.4307
X10.235Y-6.177
X10.3627Y-6.9227
X10.5776Y-3.8035
X10.7101Y-4.5661
X10.8416Y-5.3004
X10.985Y-6.0448
X11.1152Y-6.79
X11.3281Y-3.6712
X11.4566Y-4.4344
X11.59Y-5.1684
X11.7091Y-5.9171
X11.84Y-6.6622
X12.0711Y-3.5389
X12.209Y-4.3018
X12.3381Y-5.0339
X12.4691Y-5.7831
X12.798Y-3.412
X12.9298Y-4.1747
X13.0244Y-4.9124
X13.1565Y-5.6485
T2
X3.5686Y-5.4914
X3.6207Y-5.1959
X3.6975Y-4.7261
X3.7496Y-4.4307
X3.8277Y-3.9875
X3.8798Y-3.692
X3.964Y-3.2378
X4.0161Y-2.9423
X4.3128Y-5.6246
X4.3649Y-5.3292
X4.4417Y-4.8593
X4.4937Y-4.5639
X4.5719Y-4.1207
X4.624Y-3.8253
X4.7082Y-3.371
X4.7602Y-3.0756
X4.9267Y-6.4965
X4.9788Y-6.201
X5.0574Y-5.7437
X5.1095Y-5.4483
X5.1863Y-4.9785
X5.2384Y-4.683
X5.3165Y-4.2399
X5.3686Y-3.9444
X5.4528Y-3.4901
X5.5049Y-3.1947
X5.6702Y-6.6336
X5.7223Y-6.3382
X5.8009Y-5.8809
X5.853Y-5.5855
X5.9298Y-5.1156
X5.9819Y-4.8202
X6.06Y-4.377
X6.1121Y-4.0816
X6.1963Y-3.6273
X6.2483Y-3.3319
X6.4144Y-6.7669
X6.4665Y-6.4714
X6.5451Y-6.0141
X6.5972Y-5.7187
X6.6739Y-5.2489
X6.726Y-4.9535
X6.8042Y-4.5103
X6.8563Y-4.2148
X6.9404Y-3.7606
X6.9404Y-3.7606
X6.9925Y-3.4651
X7.159Y-6.886
X7.2111Y-6.5906
X7.2897Y-6.1333
X7.3418Y-5.8378
X7.4186Y-5.368
X7.4706Y-5.0726
X7.5488Y-4.6294
X7.6009Y-4.334
X7.685Y-3.8797
X7.7371Y-3.5842
X9.3636Y-3.4834
X9.4157Y-3.7789
X9.492Y-4.2345
X9.5441Y-4.53
X9.6222Y-4.9732
X9.6743Y-5.2686
X9.7629Y-5.7363
X9.815Y-6.0318
X9.89Y-6.476
X9.9421Y-6.7714
X10.1085Y-3.3541
X10.1606Y-3.6496
X10.2369Y-4.1052
X10.289Y-4.4007
X10.3671Y-4.8438
X10.4192Y-5.1393
X10.5078Y-5.607
X10.5599Y-5.9025
X10.6356Y-6.3506
X10.6877Y-6.6461
X10.8489Y-3.2114
X10.901Y-3.5068
X10.9773Y-3.9625
X11.0294Y-4.2579
X11.1076Y-4.7011
X11.1597Y-4.9965
X11.2482Y-5.4643
X11.3003Y-5.7597
X11.3805Y-6.2213
X11.4326Y-6.5168
X11.5945Y-3.086
X11.6466Y-3.3814
X11.7229Y-3.8371
X11.775Y-4.1326
X11.8531Y-4.5757
X11.9052Y-4.8712
X11.9938Y-5.3389
X12.0459Y-5.6343
X12.1209Y-6.0786
X12.173Y-6.374
X12.3394Y-2.9567
X12.3915Y-3.2521
X12.3915Y-3.2521
X12.4677Y-3.7078
X12.5198Y-4.0033
X12.598Y-4.4464
X12.6501Y-4.7419
X12.7386Y-5.2096
X12.7907Y-5.505
X13.0798Y-2.8139
X13.1319Y-3.1094
X13.2082Y-3.5651
X13.2603Y-3.8605
X13.3384Y-4.3037
X13.3905Y-4.5991
X13.4791Y-5.0668
X13.5312Y-5.3623
T3
X3.1882Y-5.5011
X3.2867Y-5.5185
X3.3218Y-4.7492
X3.4202Y-4.7666
X3.45Y-4.0103
X3.5485Y-4.0276
X3.5807Y-3.2575
X3.6792Y-3.2749
X3.9376Y-5.6336
X4.036Y-5.6509
X4.0683Y-4.8808
X4.1667Y-4.8982
X4.1965Y-4.1419
X4.295Y-4.1592
X4.3272Y-3.3891
X4.4257Y-3.4065
X4.5485Y-6.511
X4.647Y-6.5284
X4.6801Y-5.7645
X4.7786Y-5.7819
X4.8108Y-5.0118
X4.9093Y-5.0291
X4.9391Y-4.2728
X5.0375Y-4.2902
X5.0698Y-3.5201
X5.1682Y-3.5374
X5.295Y-6.6426
X5.3934Y-6.66
X5.4266Y-5.8961
X5.5251Y-5.9135
X5.5573Y-5.1434
X5.6558Y-5.1608
X5.6855Y-4.4044
X5.784Y-4.4218
X5.8162Y-3.6517
X5.9147Y-3.6691
X6.0434Y-6.7746
X6.1419Y-6.7919
X6.175Y-6.0281
X6.2735Y-6.0455
X6.3057Y-5.2754
X6.4042Y-5.2927
X6.434Y-4.5364
X6.5325Y-4.5538
X6.5647Y-3.7837
X6.6632Y-3.801
X6.7899Y-6.9062
X6.8884Y-6.9236
X6.9215Y-6.1597
X7.02Y-6.1771
X7.0522Y-5.407
X7.1507Y-5.4243
X7.1805Y-4.668
X7.279Y-4.6854
X7.3112Y-3.9153
X7.4097Y-3.9327
X9.0623Y-3.9285
X9.1608Y-3.9111
X9.197Y-4.6806
X9.2955Y-4.6632
X9.3292Y-5.4188
X9.4277Y-5.4014
X9.4606Y-6.17
X9.559Y-6.1527
X9.5916Y-6.9145
X9.6901Y-6.8971
X9.8088Y-3.7969
X9.9073Y-3.7795
X9.9435Y-4.5489
X10.0419Y-4.5316
X10.0757Y-5.2872
X10.1741Y-5.2698
X10.2103Y-6.0392
X10.3088Y-6.0219
X10.3381Y-6.7828
X10.4366Y-6.7655
X10.5514Y-3.666
X10.6498Y-3.6486
X10.686Y-4.418
X10.7845Y-4.4006
X10.8182Y-5.1563
X10.9167Y-5.1389
X10.9528Y-5.9083
X11.0513Y-5.8909
X11.0866Y-6.6509
X11.1851Y-6.6335
X11.2978Y-3.5343
X11.3963Y-3.517
X11.4325Y-4.2864
X11.531Y-4.269
X11.5647Y-5.0246
X11.6632Y-5.0073
X11.6993Y-5.7767
X11.7978Y-5.7593
X11.8331Y-6.5192
X11.9316Y-6.5019
X12.0463Y-3.4024
X12.1448Y-3.385
X12.1809Y-4.1544
X12.2794Y-4.137
X12.3131Y-4.8927
X12.4116Y-4.8753
X12.4478Y-5.6447
X12.5463Y-5.6273
X12.7928Y-3.2707
X12.8913Y-3.2534
X12.9274Y-4.0228
X13.0259Y-4.0054
X13.0596Y-4.761
X13.1581Y-4.7437
X13.2091Y-5.5116
X13.3076Y-5.4942
T4
X7.9987Y-5.3624
X7.9987Y-5.5593
X8.5696Y-5.3624
X8.5696Y-5.4608
X8.5696Y-5.5593
T5
X7.9622Y-3.395
X7.9622Y-3.495
X7.9622Y-3.595
X7.9622Y-3.695
X7.9622Y-3.795
X7.9622Y-3.895
X7.9622Y-3.995
X7.9622Y-4.095
X7.9622Y-4.195
X7.9622Y-4.295
X7.9622Y-4.395
X7.9712Y-4.495
X8.0622Y-4.495
X8.1622Y-4.495
X8.2622Y-4.495
X8.3622Y-4.495
X8.4622Y-4.495
X8.5622Y-3.395
X8.5622Y-3.495
X8.5622Y-3.595
X8.5622Y-3.695
X8.5622Y-3.795
X8.5622Y-3.895
X8.5622Y-3.995
X8.5622Y-4.095
X8.5622Y-4.195
X8.5622Y-4.295
X8.5622Y-4.395
X8.5622Y-4.495
T6
X3.3125Y-5.0841
X3.4461Y-4.3322
X3.492Y-5.1997
X3.5743Y-3.5932
X3.6256Y-4.4478
X3.705Y-2.8405
X3.7538Y-3.7088
X3.8845Y-2.9561
X4.0619Y-5.2165
X4.1926Y-4.4638
X4.2414Y-5.3321
X4.3208Y-3.7248
X4.3721Y-4.5794
X4.4515Y-2.9721
X4.5003Y-3.8404
X4.631Y-3.0877
X4.6728Y-6.094
X4.8044Y-5.3475
X4.8523Y-6.2096
X4.9351Y-4.5947
X4.9839Y-5.4631
X5.0634Y-3.8558
X5.1146Y-4.7103
X5.1941Y-3.103
X5.2429Y-3.9714
X5.3736Y-3.2186
X5.4193Y-6.2256
X5.5509Y-5.4791
X5.5988Y-6.3412
X5.6816Y-4.7264
X5.7304Y-5.5947
X5.8099Y-3.9874
X5.8611Y-4.842
X5.9406Y-3.2347
X5.9894Y-4.103
X6.1201Y-3.3503
X6.1677Y-6.3576
X6.2993Y-5.6111
X6.3472Y-6.4732
X6.43Y-4.8583
X6.4788Y-5.7267
X6.5583Y-4.1194
X6.6095Y-4.9739
X6.689Y-3.3666
X6.7378Y-4.235
X6.8685Y-3.4822
X6.9142Y-6.4892
X7.0458Y-5.7427
X7.0937Y-6.6048
X7.1765Y-4.99
X7.2253Y-5.8583
X7.3048Y-4.251
X7.356Y-5.1056
X7.4355Y-3.4983
X7.4843Y-4.3666
X7.615Y-3.6139
X9.0365Y-3.4941
X9.1711Y-4.2462
X9.2447Y-3.5414
X9.3034Y-4.9844
X9.3794Y-4.2934
X9.4347Y-5.7356
X9.5116Y-5.0317
X9.5658Y-6.4801
X9.643Y-5.7829
X9.774Y-6.5273
X9.783Y-3.3625
X9.9176Y-4.1145
X9.9912Y-3.4097
X10.0498Y-4.8528
X10.1258Y-4.1618
X10.1845Y-5.6048
X10.2581Y-4.9
X10.3123Y-6.3484
X10.3927Y-5.6521
X10.5205Y-6.3957
X10.5255Y-3.2316
X10.6602Y-3.9836
X10.7338Y-3.2788
X10.7924Y-4.7219
X10.8684Y-4.0308
X10.927Y-5.4739
X11.0006Y-4.7691
X11.0608Y-6.2165
X11.1352Y-5.5211
X11.269Y-6.2637
X11.272Y-3.0999
X11.4067Y-3.852
X11.4802Y-3.1472
X11.5389Y-4.5902
X11.6149Y-3.8992
X11.6735Y-5.3423
X11.7471Y-4.6375
X11.8072Y-6.0848
X11.8817Y-5.3895
X12.0155Y-6.1321
X12.0205Y-2.968
X12.1551Y-3.72
X12.2287Y-3.0152
X12.2873Y-4.4583
X12.3633Y-3.7672
X12.422Y-5.2103
X12.4955Y-4.5055
X12.6302Y-5.2575
X12.767Y-2.8363
X12.9016Y-3.5884
X12.9752Y-2.8836
X13.0338Y-4.3266
X13.1098Y-3.6356
X13.1833Y-5.0772
X13.242Y-4.3739
X13.3915Y-5.1244
T7
X3.1418Y-5.1883
X3.2026Y-5.1406
X3.2754Y-4.4364
X3.3362Y-4.3887
X3.3999Y-5.1554
X3.4036Y-3.6974
X3.4054Y-5.1332
X3.4644Y-3.6498
X3.5334Y-4.4035
X3.5343Y-2.9447
X3.5389Y-4.3813
X3.5951Y-2.8971
X3.6617Y-3.6646
X3.6672Y-3.6424
X3.7924Y-2.9119
X3.7979Y-2.8896
X3.8912Y-5.3208
X3.9519Y-5.2731
X4.0219Y-4.568
X4.0826Y-4.5204
X4.1492Y-5.2879
X4.1501Y-3.8291
X4.1547Y-5.2657
X4.2109Y-3.7814
X4.2799Y-4.5352
X4.2808Y-3.0763
X4.2854Y-4.513
X4.3416Y-3.0287
X4.4082Y-3.7962
X4.4137Y-3.774
X4.5021Y-6.1982
X4.5389Y-3.0435
X4.5444Y-3.0213
X4.5629Y-6.1505
X4.6337Y-5.4517
X4.6945Y-5.404
X4.7601Y-6.1653
X4.7644Y-4.699
X4.7657Y-6.1431
X4.8252Y-4.6513
X4.8918Y-5.4188
X4.8927Y-3.96
X4.8973Y-5.3966
X4.9534Y-3.9124
X5.0225Y-4.6661
X5.0234Y-3.2073
X5.028Y-4.6439
X5.0841Y-3.1596
X5.1507Y-3.9271
X5.1562Y-3.9049
X5.2486Y-6.3298
X5.2814Y-3.1744
X5.2869Y-3.1522
X5.3093Y-6.2822
X5.3802Y-5.5833
X5.441Y-5.5357
X5.5066Y-6.297
X5.5109Y-4.8306
X5.5121Y-6.2747
X5.5717Y-4.7829
X5.6382Y-5.5505
X5.6392Y-4.0916
X5.6438Y-5.5283
X5.6999Y-4.044
X5.7689Y-4.7977
X5.7699Y-3.3389
X5.7745Y-4.7755
X5.8306Y-3.2912
X5.8972Y-4.0588
X5.9027Y-4.0366
X5.997Y-6.4618
X6.0279Y-3.306
X6.0334Y-3.2838
X6.0578Y-6.4141
X6.1287Y-5.7153
X6.1894Y-5.6676
X6.2551Y-6.4289
X6.2593Y-4.9626
X6.2606Y-6.4067
X6.3201Y-4.9149
X6.3867Y-5.6824
X6.3876Y-4.2236
X6.3922Y-5.6602
X6.4484Y-4.1759
X6.5174Y-4.9297
X6.5183Y-3.4709
X6.5229Y-4.9075
X6.5791Y-3.4232
X6.6457Y-4.1907
X6.6512Y-4.1685
X6.7435Y-6.5934
X6.7764Y-3.438
X6.7819Y-3.4158
X6.8043Y-6.5458
X6.8751Y-5.8469
X6.9359Y-5.7993
X7.0016Y-6.5605
X7.0058Y-5.0942
X7.0071Y-6.5383
X7.0666Y-5.0465
X7.1332Y-5.8141
X7.1341Y-4.3552
X7.1387Y-5.7918
X7.1949Y-4.3076
X7.2639Y-5.0613
X7.2648Y-3.6025
X7.2694Y-5.0391
X7.3256Y-3.5548
X7.3921Y-4.3224
X7.3977Y-4.3002
X7.5228Y-3.5696
X7.5284Y-3.5474
X8.9118Y-3.6504
X8.9526Y-3.5849
X9.0464Y-4.4025
X9.0872Y-4.3369
X9.1406Y-3.5085
X9.143Y-3.5313
X9.1786Y-5.1407
X9.2194Y-5.0752
X9.2752Y-4.2606
X9.2776Y-4.2833
X9.31Y-5.892
X9.3508Y-5.8264
X9.4074Y-4.9988
X9.4099Y-5.0216
X9.4411Y-6.6364
X9.4819Y-6.5708
X9.5388Y-5.7501
X9.5412Y-5.7728
X9.6582Y-3.5188
X9.6699Y-6.4945
X9.6723Y-6.5173
X9.6991Y-3.4532
X9.7929Y-4.2709
X9.8337Y-4.2053
X9.8871Y-3.3769
X9.8895Y-3.3997
X9.9251Y-5.0091
X9.9659Y-4.9435
X10.0217Y-4.129
X10.0241Y-4.1517
X10.0597Y-5.7612
X10.1005Y-5.6956
X10.1539Y-4.8672
X10.1563Y-4.89
X10.1876Y-6.5048
X10.2284Y-6.4392
X10.2886Y-5.6193
X10.291Y-5.642
X10.4008Y-3.3879
X10.4164Y-6.3629
X10.4188Y-6.3856
X10.4416Y-3.3223
X10.5354Y-4.1399
X10.5762Y-4.0744
X10.6296Y-3.246
X10.632Y-3.2687
X10.6676Y-4.8782
X10.7084Y-4.8126
X10.7643Y-3.998
X10.7667Y-4.0208
X10.8023Y-5.6302
X10.8431Y-5.5647
X10.8965Y-4.7363
X10.8989Y-4.759
X10.936Y-6.3728
X10.9768Y-6.3072
X11.0311Y-5.4883
X11.0335Y-5.5111
X11.1473Y-3.2563
X11.1648Y-6.2309
X11.1673Y-6.2537
X11.1881Y-3.1907
X11.2819Y-4.0083
X11.3227Y-3.9427
X11.3761Y-3.1144
X11.3785Y-3.1371
X11.4141Y-4.7466
X11.4549Y-4.681
X11.5107Y-3.8664
X11.5132Y-3.8892
X11.5488Y-5.4986
X11.5896Y-5.433
X11.643Y-4.6047
X11.6454Y-4.6274
X11.6825Y-6.2412
X11.7233Y-6.1756
X11.7776Y-5.3567
X11.78Y-5.3795
X11.8957Y-3.1243
X11.9113Y-6.0993
X11.9137Y-6.122
X11.9365Y-3.0587
X12.0304Y-3.8763
X12.0712Y-3.8108
X12.1246Y-2.9824
X12.127Y-3.0051
X12.1626Y-4.6146
X12.2034Y-4.549
X12.2592Y-3.7344
X12.2616Y-3.7572
X12.2972Y-5.3666
X12.338Y-5.3011
X12.3914Y-4.4727
X12.3938Y-4.4955
X12.526Y-5.2247
X12.5285Y-5.2475
X12.6422Y-2.9927
X12.683Y-2.9271
X12.7768Y-3.7447
X12.8177Y-3.6791
X12.871Y-2.8508
X12.8735Y-2.8735
X12.9091Y-4.483
X12.9499Y-4.4174
X13.0057Y-3.6028
X13.0081Y-3.6256
X13.0585Y-5.2335
X13.0993Y-5.1679
X13.1379Y-4.3411
X13.1403Y-4.3638
X13.2874Y-5.0916
X13.2898Y-5.1144
T8
X7.8122Y-6.4538
X7.8122Y-6.5838
X7.8122Y-6.7138
X7.8122Y-6.8438
X7.8122Y-6.9738
T8
G00X8.2999Y-5.2404
M15
G01X8.2487Y-5.2404
M16
G05
G00X8.2999Y-5.6813
M15
G01X8.2487Y-5.6813
M16
G05
T0
M30
