M48
; DRILL file {KiCad (6.0.7)} date Tue Nov  8 23:53:10 2022
; FORMAT={-:-/ absolute / inch / decimal}
; #@! TF.CreationDate,2022-11-08T23:53:10-08:00
; #@! TF.GenerationSoftware,Kicad,Pcbnew,(6.0.7)
; #@! TF.FileFunction,NonPlated,1,2,NPTH
FMAT,2
INCH
; #@! TA.AperFunction,NonPlated,NPTH,ComponentDrill
T1C0.0315
; #@! TA.AperFunction,NonPlated,NPTH,ComponentDrill
T2C0.0669
; #@! TA.AperFunction,NonPlated,NPTH,ComponentDrill
T3C0.0689
; #@! TA.AperFunction,NonPlated,NPTH,ComponentDrill
T4C0.0866
; #@! TA.AperFunction,NonPlated,NPTH,ComponentDrill
T5C0.1260
; #@! TA.AperFunction,NonPlated,NPTH,ComponentDrill
T6C0.1570
%
G90
G05
T1
X3.0411Y-5.44
X3.1746Y-4.6881
X3.3029Y-3.9491
X3.4336Y-3.1964
X3.7904Y-5.5724
X3.9211Y-4.8197
X4.0494Y-4.0808
X4.1801Y-3.328
X4.4013Y-6.4499
X4.533Y-5.7034
X4.6637Y-4.9506
X4.7919Y-4.2117
X4.9226Y-3.4589
X5.1478Y-6.5815
X5.2795Y-5.835
X5.4101Y-5.0823
X5.5384Y-4.3433
X5.6691Y-3.5906
X5.8963Y-6.7135
X6.0279Y-5.967
X6.1586Y-5.2142
X6.2869Y-4.4753
X6.4176Y-3.7225
X6.6428Y-6.8451
X6.7744Y-6.0986
X6.9051Y-5.3459
X7.0334Y-4.6069
X7.164Y-3.8542
X8.9032Y-3.9214
X9.0378Y-4.6734
X9.17Y-5.4117
X9.3014Y-6.1629
X9.4325Y-6.9074
X9.6497Y-3.7898
X9.7843Y-4.5418
X9.9165Y-5.2801
X10.0511Y-6.0321
X10.179Y-6.7757
X10.3922Y-3.6588
X10.5268Y-4.4109
X10.659Y-5.1491
X10.7937Y-5.9012
X10.9274Y-6.6438
X11.1387Y-3.5272
X11.2733Y-4.2793
X11.4055Y-5.0175
X11.5402Y-5.7696
X11.6739Y-6.5121
X11.8871Y-3.3952
X12.0218Y-4.1473
X12.154Y-4.8855
X12.2886Y-5.6376
X12.6336Y-3.2636
X12.7683Y-4.0157
X12.9005Y-4.7539
X13.0499Y-5.5044
T2
X3.0589Y-5.2752
X3.1925Y-4.5233
X3.3208Y-3.7844
X3.4515Y-3.0316
X3.4854Y-5.3504
X3.619Y-4.5985
X3.7472Y-3.8596
X3.8083Y-5.4077
X3.8779Y-3.1068
X3.939Y-4.655
X4.0672Y-3.916
X4.1979Y-3.1633
X4.2348Y-5.4829
X4.3655Y-4.7302
X4.4192Y-6.2851
X4.4937Y-3.9912
X4.5508Y-5.5386
X4.6244Y-3.2385
X4.6815Y-4.7859
X4.8098Y-4.0469
X4.8457Y-6.3603
X4.9405Y-3.2942
X4.9773Y-5.6138
X5.108Y-4.8611
X5.1657Y-6.4167
X5.2363Y-4.1221
X5.2973Y-5.6702
X5.367Y-3.3694
X5.428Y-4.9175
X5.5563Y-4.1786
X5.5922Y-6.4919
X5.687Y-3.4258
X5.7238Y-5.7454
X5.8545Y-4.9927
X5.9141Y-6.5487
X5.9828Y-4.2538
X6.0458Y-5.8022
X6.1135Y-3.501
X6.1765Y-5.0495
X6.3047Y-4.3105
X6.3406Y-6.6239
X6.4354Y-3.5578
X6.4723Y-5.8774
X6.603Y-5.1247
X6.6606Y-6.6803
X6.7312Y-4.3857
X6.7922Y-5.9338
X6.8619Y-3.633
X6.9229Y-5.1811
X7.0512Y-4.4422
X7.0871Y-6.7555
X7.1819Y-3.6894
X7.2187Y-6.009
X7.3494Y-5.2563
X7.4777Y-4.5174
X7.6084Y-3.7646
X8.8636Y-3.7605
X8.9982Y-4.5125
X9.1304Y-5.2508
X9.2618Y-6.002
X9.2901Y-3.6853
X9.3929Y-6.7464
X9.4247Y-4.4373
X9.5569Y-5.1756
X9.6101Y-3.6288
X9.6883Y-5.9268
X9.7447Y-4.3809
X9.8194Y-6.6712
X9.8769Y-5.1191
X10.0116Y-5.8712
X10.0366Y-3.5536
X10.1394Y-6.6148
X10.1712Y-4.3057
X10.3034Y-5.0439
X10.3526Y-3.4979
X10.4381Y-5.796
X10.4873Y-4.25
X10.5659Y-6.5396
X10.6195Y-4.9882
X10.7541Y-5.7403
X10.7791Y-3.4227
X10.8879Y-6.4828
X10.9138Y-4.1748
X11.046Y-4.913
X11.0991Y-3.3663
X11.1806Y-5.6651
X11.2337Y-4.1183
X11.3143Y-6.4076
X11.366Y-4.8566
X11.5006Y-5.6086
X11.5256Y-3.2911
X11.6343Y-6.3512
X11.6602Y-4.0431
X11.7924Y-4.7814
X11.8476Y-3.2343
X11.9271Y-5.5334
X11.9822Y-3.9864
X12.0608Y-6.276
X12.1144Y-4.7246
X12.249Y-5.4767
X12.2741Y-3.1591
X12.4087Y-3.9112
X12.5409Y-4.6494
X12.5941Y-3.1027
X12.6755Y-5.4015
X12.7287Y-3.8547
X12.8609Y-4.593
X13.0104Y-5.3435
X13.0205Y-3.0275
X13.1552Y-3.7795
X13.2874Y-4.5178
X13.4369Y-5.2683
T3
X3.0752Y-5.2781
X3.2088Y-4.5262
X3.337Y-3.7872
X3.4677Y-3.0345
X3.4691Y-5.3476
X3.6027Y-4.5957
X3.731Y-3.8567
X3.8246Y-5.4106
X3.8617Y-3.104
X3.9553Y-4.6578
X4.0835Y-3.9189
X4.2142Y-3.1661
X4.2185Y-5.48
X4.3492Y-4.7273
X4.4355Y-6.288
X4.4774Y-3.9883
X4.5671Y-5.5415
X4.6081Y-3.2356
X4.6978Y-4.7888
X4.8261Y-4.0498
X4.8294Y-6.3574
X4.9568Y-3.2971
X4.961Y-5.611
X5.0917Y-4.8582
X5.182Y-6.4196
X5.22Y-4.1193
X5.3136Y-5.6731
X5.3507Y-3.3665
X5.4443Y-4.9204
X5.5726Y-4.1814
X5.5759Y-6.4891
X5.7033Y-3.4287
X5.7075Y-5.7426
X5.8382Y-4.9898
X5.9304Y-6.5516
X5.9665Y-4.2509
X6.062Y-5.8051
X6.0972Y-3.4981
X6.1927Y-5.0524
X6.321Y-4.3134
X6.3243Y-6.621
X6.4517Y-3.5607
X6.456Y-5.8746
X6.5867Y-5.1218
X6.6769Y-6.6832
X6.7149Y-4.3829
X6.8085Y-5.9367
X6.8456Y-3.6301
X6.9392Y-5.184
X7.0675Y-4.445
X7.0708Y-6.7527
X7.1982Y-3.6923
X7.2025Y-6.0062
X7.3332Y-5.2534
X7.4614Y-4.5145
X7.5921Y-3.7617
X8.8799Y-3.7576
X9.0145Y-4.5096
X9.1467Y-5.2479
X9.2738Y-3.6881
X9.2781Y-5.9991
X9.4084Y-4.4402
X9.4092Y-6.7436
X9.5406Y-5.1784
X9.6264Y-3.626
X9.672Y-5.9297
X9.761Y-4.378
X9.8031Y-6.6741
X9.8932Y-5.1163
X10.0203Y-3.5565
X10.0278Y-5.8683
X10.1549Y-4.3086
X10.1557Y-6.6119
X10.2871Y-5.0468
X10.3689Y-3.495
X10.4218Y-5.7989
X10.5035Y-4.2471
X10.5496Y-6.5425
X10.6358Y-4.9853
X10.7628Y-3.4256
X10.7704Y-5.7374
X10.8975Y-4.1776
X10.9041Y-6.48
X11.0297Y-4.9159
X11.1154Y-3.3634
X11.1643Y-5.6679
X11.25Y-4.1155
X11.2981Y-6.4105
X11.3822Y-4.8537
X11.5093Y-3.294
X11.5169Y-5.6058
X11.644Y-4.046
X11.6506Y-6.3483
X11.7762Y-4.7843
X11.8639Y-3.2314
X11.9108Y-5.5363
X11.9985Y-3.9835
X12.0445Y-6.2789
X12.1307Y-4.7217
X12.2578Y-3.162
X12.2653Y-5.4738
X12.3924Y-3.914
X12.5246Y-4.6523
X12.6103Y-3.0998
X12.6593Y-5.4043
X12.745Y-3.8519
X12.8772Y-4.5901
X13.0043Y-3.0304
X13.0267Y-5.3406
X13.1389Y-3.7824
X13.2711Y-4.5207
X13.4206Y-5.2712
T4
X3.3022Y-2.5608
X3.7683Y-6.0598
X7.406Y-7.144
X8.0122Y-7.1138
X8.0222Y-6.3138
X8.5322Y-6.3138
X8.5322Y-7.1138
X9.084Y-7.136
X12.8702Y-6.0828
X13.1902Y-2.5748
T5
X8.2802Y-5.0248
X8.2842Y-5.8808
T6
X3.2722Y-5.3128
X3.4057Y-4.5609
X3.534Y-3.822
X3.6647Y-3.0692
X4.0215Y-5.4453
X4.1522Y-4.6926
X4.2805Y-3.9536
X4.4112Y-3.2009
X4.6324Y-6.3227
X4.7641Y-5.5762
X4.8948Y-4.8235
X5.023Y-4.0845
X5.1537Y-3.3318
X5.3789Y-6.4543
X5.5106Y-5.7078
X5.6413Y-4.9551
X5.7695Y-4.2162
X5.9002Y-3.4634
X6.1274Y-6.5863
X6.259Y-5.8398
X6.3897Y-5.0871
X6.518Y-4.3481
X6.6487Y-3.5954
X6.8739Y-6.7179
X7.0055Y-5.9714
X7.1362Y-5.2187
X7.2645Y-4.4798
X7.3952Y-3.727
X9.0768Y-3.7229
X9.2115Y-4.4749
X9.3437Y-5.2132
X9.4751Y-5.9644
X9.6062Y-6.7088
X9.8233Y-3.5912
X9.958Y-4.3433
X10.0902Y-5.0815
X10.2248Y-5.8336
X10.3526Y-6.5772
X10.5659Y-3.4603
X10.7005Y-4.2124
X10.8327Y-4.9506
X10.9674Y-5.7027
X11.1011Y-6.4452
X11.3124Y-3.3287
X11.447Y-4.0807
X11.5792Y-4.819
X11.7138Y-5.571
X11.8476Y-6.3136
X12.0608Y-3.1967
X12.1954Y-3.9488
X12.3277Y-4.687
X12.4623Y-5.4391
X12.8073Y-3.0651
X12.9419Y-3.8171
X13.0741Y-4.5554
X13.2236Y-5.3059
T0
M30
