%TF.GenerationSoftware,KiCad,Pcbnew,(6.0.7)*%
%TF.CreationDate,2022-11-08T23:53:27-08:00*%
%TF.ProjectId,Anguirus,416e6775-6972-4757-932e-6b696361645f,rev?*%
%TF.SameCoordinates,Original*%
%TF.FileFunction,Soldermask,Bot*%
%TF.FilePolarity,Negative*%
%FSLAX46Y46*%
G04 Gerber Fmt 4.6, Leading zero omitted, Abs format (unit mm)*
G04 Created by KiCad (PCBNEW (6.0.7)) date 2022-11-08 23:53:27*
%MOMM*%
%LPD*%
G01*
G04 APERTURE LIST*
G04 Aperture macros list*
%AMHorizOval*
0 Thick line with rounded ends*
0 $1 width*
0 $2 $3 position (X,Y) of the first rounded end (center of the circle)*
0 $4 $5 position (X,Y) of the second rounded end (center of the circle)*
0 Add line between two ends*
20,1,$1,$2,$3,$4,$5,0*
0 Add two circle primitives to create the rounded ends*
1,1,$1,$2,$3*
1,1,$1,$4,$5*%
%AMRotRect*
0 Rectangle, with rotation*
0 The origin of the aperture is its center*
0 $1 length*
0 $2 width*
0 $3 Rotation angle, in degrees counterclockwise*
0 Add horizontal line*
21,1,$1,$2,0,0,$3*%
G04 Aperture macros list end*
%ADD10RotRect,1.600000X1.600000X100.000000*%
%ADD11C,1.700000*%
%ADD12C,0.800000*%
%ADD13C,1.750000*%
%ADD14C,3.987800*%
%ADD15HorizOval,2.250000X0.518281X0.832653X-0.518281X-0.832653X0*%
%ADD16C,2.250000*%
%ADD17C,2.000000*%
%ADD18HorizOval,2.250000X-0.030890X0.289043X0.030890X-0.289043X0*%
%ADD19C,1.905000*%
%ADD20RotRect,1.905000X1.905000X10.000000*%
%ADD21HorizOval,1.600000X0.000000X0.000000X0.000000X0.000000X0*%
%ADD22RotRect,1.600000X1.600000X80.000000*%
%ADD23HorizOval,1.600000X0.000000X0.000000X0.000000X0.000000X0*%
%ADD24HorizOval,2.250000X0.771809X0.605175X-0.771809X-0.605175X0*%
%ADD25HorizOval,2.250000X0.069832X0.282177X-0.069832X-0.282177X0*%
%ADD26RotRect,1.905000X1.905000X350.000000*%
%ADD27C,2.200000*%
%ADD28R,1.752600X1.752600*%
%ADD29C,1.752600*%
%ADD30R,2.000000X2.000000*%
%ADD31R,3.200000X2.000000*%
%ADD32C,3.200000*%
%ADD33C,3.000000*%
G04 APERTURE END LIST*
D10*
%TO.C,*%
X314743083Y-82604302D03*
%TD*%
D11*
%TO.C,REF\u002A\u002A*%
X311125762Y-139107251D03*
D12*
X312130831Y-143194822D03*
D13*
X321545028Y-137270053D03*
D11*
X321958648Y-137197121D03*
D13*
X311539382Y-139034319D03*
D14*
X316542205Y-138152186D03*
D15*
X312867302Y-135479721D03*
D16*
X313385593Y-134647075D03*
D17*
X315517681Y-132341820D03*
X320806381Y-133541676D03*
D18*
X318191918Y-132997388D03*
D16*
X318161484Y-132708296D03*
D19*
X316173632Y-143375543D03*
D20*
X318675044Y-142934476D03*
%TD*%
D10*
%TO.C,REF\u002A\u002A*%
X305965215Y-143112215D03*
D21*
X304642016Y-135607980D03*
%TD*%
D11*
%TO.C,REF\u002A\u002A*%
X238579981Y-171359259D03*
D13*
X248999247Y-169522061D03*
D14*
X243996424Y-170404194D03*
D12*
X239585050Y-175446830D03*
D11*
X249412867Y-169449129D03*
D13*
X238993601Y-171286327D03*
D17*
X242971900Y-164593828D03*
D15*
X240321521Y-167731729D03*
D16*
X240839812Y-166899083D03*
X245615703Y-164960304D03*
D17*
X248260600Y-165793684D03*
D18*
X245646137Y-165249396D03*
D19*
X243627851Y-175627551D03*
D20*
X246129263Y-175186484D03*
%TD*%
D11*
%TO.C,REF\u002A\u002A*%
X257540682Y-168015975D03*
X268373568Y-166105845D03*
D14*
X262957125Y-167060910D03*
D12*
X258545751Y-172103546D03*
D13*
X267959948Y-166178777D03*
X257954302Y-167943043D03*
D17*
X261932601Y-161250544D03*
D16*
X259800513Y-163555799D03*
D15*
X259282222Y-164388445D03*
D17*
X267221301Y-162450400D03*
D18*
X264606838Y-161906112D03*
D16*
X264576404Y-161617020D03*
D19*
X262588552Y-172284267D03*
D20*
X265089964Y-171843200D03*
%TD*%
D22*
%TO.C,REF\u002A\u002A*%
X191739243Y-117586769D03*
D23*
X193062442Y-110082534D03*
%TD*%
D11*
%TO.C,REF\u002A\u002A*%
X273154330Y-145802638D03*
D13*
X273567950Y-145729706D03*
D12*
X274159399Y-149890209D03*
D13*
X283573596Y-143965440D03*
D14*
X278570773Y-144847573D03*
D11*
X283987216Y-143892508D03*
D16*
X275414161Y-141342462D03*
D17*
X277546249Y-139037207D03*
D15*
X274895870Y-142175108D03*
D18*
X280220486Y-139692775D03*
D16*
X280190052Y-139403683D03*
D17*
X282834949Y-140237063D03*
D19*
X278202200Y-150070930D03*
D20*
X280703612Y-149629863D03*
%TD*%
D14*
%TO.C,REF\u002A\u002A*%
X89763693Y-97078128D03*
D12*
X83893674Y-100307877D03*
D13*
X94766516Y-97960261D03*
D11*
X95180136Y-98033193D03*
D13*
X84760870Y-96195995D03*
D11*
X84347250Y-96123063D03*
D24*
X87224451Y-93309942D03*
D16*
X87996266Y-92704777D03*
D17*
X90788217Y-91267762D03*
X95347595Y-94204099D03*
D16*
X93147237Y-92516371D03*
D25*
X93076961Y-92798437D03*
D19*
X87630854Y-101860418D03*
D26*
X90132266Y-102301485D03*
%TD*%
D13*
%TO.C,REF\u002A\u002A*%
X148290592Y-126741875D03*
D11*
X148704212Y-126814807D03*
D14*
X143287769Y-125859742D03*
D12*
X137417750Y-129089491D03*
D11*
X137871326Y-124904677D03*
D13*
X138284946Y-124977609D03*
D16*
X141520342Y-121486391D03*
D24*
X140748527Y-122091556D03*
D17*
X144312293Y-120049376D03*
D16*
X146671313Y-121297985D03*
D25*
X146601037Y-121580051D03*
D17*
X148871671Y-122985713D03*
D19*
X141154930Y-130642032D03*
D26*
X143656342Y-131083099D03*
%TD*%
D10*
%TO.C,REF\u002A\u002A*%
X336811668Y-98056893D03*
D21*
X335488469Y-90552658D03*
%TD*%
D22*
%TO.C,REF\u002A\u002A*%
X128459023Y-145890266D03*
D23*
X129782222Y-138386031D03*
%TD*%
D11*
%TO.C,REF\u002A\u002A*%
X246083441Y-150540811D03*
D12*
X236255624Y-156538512D03*
D13*
X245669821Y-150613743D03*
D11*
X235250555Y-152450941D03*
D13*
X235664175Y-152378009D03*
D14*
X240666998Y-151495876D03*
D16*
X237510386Y-147990765D03*
D15*
X236992095Y-148823411D03*
D17*
X239642474Y-145685510D03*
D18*
X242316711Y-146341078D03*
D17*
X244931174Y-146885366D03*
D16*
X242286277Y-146051986D03*
D19*
X240298425Y-156719233D03*
D20*
X242799837Y-156278166D03*
%TD*%
D27*
%TO.C,REF\u002A\u002A*%
X95713997Y-153918773D03*
%TD*%
D11*
%TO.C,REF\u002A\u002A*%
X164395223Y-149286520D03*
D14*
X158978780Y-148331455D03*
D13*
X153975957Y-147449322D03*
D12*
X153108761Y-151561204D03*
D11*
X153562337Y-147376390D03*
D13*
X163981603Y-149213588D03*
D24*
X156439538Y-144563269D03*
D17*
X160003304Y-142521089D03*
D16*
X157211353Y-143958104D03*
D25*
X162292048Y-144051764D03*
D16*
X162362324Y-143769698D03*
D17*
X164562682Y-145457426D03*
D19*
X156845941Y-153113745D03*
D26*
X159347353Y-153554812D03*
%TD*%
D27*
%TO.C,REF\u002A\u002A*%
X188112400Y-181457600D03*
%TD*%
D10*
%TO.C,REF\u002A\u002A*%
X321311950Y-120443289D03*
D21*
X319988751Y-112939054D03*
%TD*%
D22*
%TO.C,REF\u002A\u002A*%
X90643601Y-139480306D03*
D23*
X91966800Y-131976071D03*
%TD*%
D22*
%TO.C,REF\u002A\u002A*%
X181838936Y-174904382D03*
D23*
X183162135Y-167400147D03*
%TD*%
D13*
%TO.C,REF\u002A\u002A*%
X169593373Y-169753304D03*
D11*
X169179753Y-169680372D03*
D14*
X174596196Y-170635437D03*
D11*
X180012639Y-171590502D03*
D13*
X179599019Y-171517570D03*
D12*
X168726177Y-173865186D03*
D24*
X172056954Y-166867251D03*
D16*
X172828769Y-166262086D03*
D17*
X175620720Y-164825071D03*
D25*
X177909464Y-166355746D03*
D16*
X177979740Y-166073680D03*
D17*
X180180098Y-167761408D03*
D19*
X172463357Y-175417727D03*
D26*
X174964769Y-175858794D03*
%TD*%
D10*
%TO.C,REF\u002A\u002A*%
X318003950Y-101682702D03*
D21*
X316680751Y-94178467D03*
%TD*%
D11*
%TO.C,REF\u002A\u002A*%
X319888885Y-78808272D03*
X330721771Y-76898142D03*
D12*
X320893954Y-82895843D03*
D13*
X330308151Y-76971074D03*
X320302505Y-78735340D03*
D14*
X325305328Y-77853207D03*
D17*
X324280804Y-72042841D03*
D15*
X321630425Y-75180742D03*
D16*
X322148716Y-74348096D03*
X326924607Y-72409317D03*
D18*
X326955041Y-72698409D03*
D17*
X329569504Y-73242697D03*
D19*
X324936755Y-83076564D03*
D20*
X327438167Y-82635497D03*
%TD*%
D22*
%TO.C,REF\u002A\u002A*%
X119587021Y-85623676D03*
D23*
X120910220Y-78119441D03*
%TD*%
D10*
%TO.C,REF\u002A\u002A*%
X295823589Y-85888735D03*
D21*
X294500390Y-78384500D03*
%TD*%
D14*
%TO.C,REF\u002A\u002A*%
X281967853Y-163708805D03*
D12*
X277556479Y-168751441D03*
D11*
X276551410Y-164663870D03*
D13*
X286970676Y-162826672D03*
X276965030Y-164590938D03*
D11*
X287384296Y-162753740D03*
D15*
X278292950Y-161036340D03*
D17*
X280943329Y-157898439D03*
D16*
X278811241Y-160203694D03*
D17*
X286232029Y-159098295D03*
D16*
X283587132Y-158264915D03*
D18*
X283617566Y-158554007D03*
D19*
X281599280Y-168932162D03*
D20*
X284100692Y-168491095D03*
%TD*%
D10*
%TO.C,REF\u002A\u002A*%
X333550798Y-78978492D03*
D21*
X332227599Y-71474257D03*
%TD*%
D13*
%TO.C,REF\u002A\u002A*%
X144970873Y-145861482D03*
D14*
X139968050Y-144979349D03*
D13*
X134965227Y-144097216D03*
D11*
X145384493Y-145934414D03*
D12*
X134098031Y-148209098D03*
D11*
X134551607Y-144024284D03*
D16*
X138200623Y-140605998D03*
D24*
X137428808Y-141211163D03*
D17*
X140992574Y-139168983D03*
D25*
X143281318Y-140699658D03*
D17*
X145551952Y-142105320D03*
D16*
X143351594Y-140417592D03*
D19*
X137835211Y-149761639D03*
D26*
X140336623Y-150202706D03*
%TD*%
D22*
%TO.C,REF\u002A\u002A*%
X172825670Y-114561296D03*
D23*
X174148869Y-107057061D03*
%TD*%
D13*
%TO.C,REF\u002A\u002A*%
X122582215Y-102864917D03*
D14*
X127585038Y-103747050D03*
D11*
X122168595Y-102791985D03*
D12*
X121715019Y-106976799D03*
D11*
X133001481Y-104702115D03*
D13*
X132587861Y-104629183D03*
D16*
X125817611Y-99373699D03*
D17*
X128609562Y-97936684D03*
D24*
X125045796Y-99978864D03*
D16*
X130968582Y-99185293D03*
D17*
X133168940Y-100873021D03*
D25*
X130898306Y-99467359D03*
D19*
X125452199Y-108529340D03*
D26*
X127953611Y-108970407D03*
%TD*%
D10*
%TO.C,REF\u002A\u002A*%
X299084457Y-104967135D03*
D21*
X297761258Y-97462900D03*
%TD*%
D10*
%TO.C,REF\u002A\u002A*%
X249300870Y-153206835D03*
D21*
X247977671Y-145702600D03*
%TD*%
D12*
%TO.C,REF\u002A\u002A*%
X106174093Y-84531552D03*
D11*
X117460555Y-82256868D03*
X106627669Y-80346738D03*
D13*
X107041289Y-80419670D03*
X117046935Y-82183936D03*
D14*
X112044112Y-81301803D03*
D24*
X109504870Y-77533617D03*
D16*
X110276685Y-76928452D03*
D17*
X113068636Y-75491437D03*
D16*
X115427656Y-76740046D03*
D17*
X117628014Y-78427774D03*
D25*
X115357380Y-77022112D03*
D19*
X109911273Y-86084093D03*
D26*
X112412685Y-86525160D03*
%TD*%
D22*
%TO.C,REF\u002A\u002A*%
X125139304Y-165009873D03*
D23*
X126462503Y-157505638D03*
%TD*%
D12*
%TO.C,REF\u002A\u002A*%
X77242805Y-138175543D03*
D13*
X78110001Y-134063661D03*
D11*
X88529267Y-135900859D03*
D13*
X88115647Y-135827927D03*
D14*
X83112824Y-134945794D03*
D11*
X77696381Y-133990729D03*
D16*
X81345397Y-130572443D03*
D17*
X84137348Y-129135428D03*
D24*
X80573582Y-131177608D03*
D16*
X86496368Y-130384037D03*
D17*
X88696726Y-132071765D03*
D25*
X86426092Y-130666103D03*
D19*
X80979985Y-139728084D03*
D26*
X83481397Y-140169151D03*
%TD*%
D11*
%TO.C,REF\u002A\u002A*%
X247515885Y-111274549D03*
D13*
X257935151Y-109437351D03*
D12*
X248520954Y-115362120D03*
D14*
X252932328Y-110319484D03*
D13*
X247929505Y-111201617D03*
D11*
X258348771Y-109364419D03*
D15*
X249257425Y-107647019D03*
D16*
X249775716Y-106814373D03*
D17*
X251907804Y-104509118D03*
X257196504Y-105708974D03*
D16*
X254551607Y-104875594D03*
D18*
X254582041Y-105164686D03*
D19*
X252563755Y-115542841D03*
D20*
X255065167Y-115101774D03*
%TD*%
D22*
%TO.C,REF\u002A\u002A*%
X150615823Y-129937394D03*
D23*
X151939022Y-122433159D03*
%TD*%
D10*
%TO.C,REF\u002A\u002A*%
X268220362Y-149922400D03*
D21*
X266897163Y-142418165D03*
%TD*%
D28*
%TO.C,U1*%
X202238824Y-86234144D03*
D29*
X202238824Y-88774144D03*
X202238824Y-91314144D03*
X202238824Y-93854144D03*
X202238824Y-96394144D03*
X202238824Y-98934144D03*
X202238824Y-101474144D03*
X202238824Y-104014144D03*
X202238824Y-106554144D03*
X202238824Y-109094144D03*
X202238824Y-111634144D03*
X202467424Y-114174144D03*
X217478824Y-114174144D03*
X217478824Y-111634144D03*
X217478824Y-109094144D03*
X217478824Y-106554144D03*
X217478824Y-104014144D03*
X217478824Y-101474144D03*
X217478824Y-98934144D03*
X217478824Y-96394144D03*
X217478824Y-93854144D03*
X217478824Y-91314144D03*
X217478824Y-88774144D03*
X217478824Y-86234144D03*
X204778824Y-114174144D03*
X207318824Y-114174144D03*
X209858824Y-114174144D03*
X212398824Y-114174144D03*
X214938824Y-114174144D03*
%TD*%
D22*
%TO.C,*%
X176286654Y-95518182D03*
%TD*%
%TO.C,REF\u002A\u002A*%
X162925363Y-171878911D03*
D23*
X164248562Y-164374676D03*
%TD*%
D22*
%TO.C,REF\u002A\u002A*%
X97224188Y-101282299D03*
D23*
X98547387Y-93778064D03*
%TD*%
D13*
%TO.C,REF\u002A\u002A*%
X254515375Y-90335386D03*
D12*
X245101178Y-96260155D03*
D11*
X244096109Y-92172584D03*
D14*
X249512552Y-91217519D03*
D13*
X244509729Y-92099652D03*
D11*
X254928995Y-90262454D03*
D16*
X246355940Y-87712408D03*
D15*
X245837649Y-88545054D03*
D17*
X248488028Y-85407153D03*
D18*
X251162265Y-86062721D03*
D17*
X253776728Y-86607009D03*
D16*
X251131831Y-85773629D03*
D19*
X249143979Y-96440876D03*
D20*
X251645391Y-95999809D03*
%TD*%
D13*
%TO.C,REF\u002A\u002A*%
X182942302Y-152556871D03*
D11*
X172523036Y-150719673D03*
D13*
X172936656Y-150792605D03*
D14*
X177939479Y-151674738D03*
D12*
X172069460Y-154904487D03*
D11*
X183355922Y-152629803D03*
D24*
X175400237Y-147906552D03*
D17*
X178964003Y-145864372D03*
D16*
X176172052Y-147301387D03*
X181323023Y-147112981D03*
D17*
X183523381Y-148800709D03*
D25*
X181252747Y-147395047D03*
D19*
X175806640Y-156457028D03*
D26*
X178308052Y-156898095D03*
%TD*%
D27*
%TO.C,REF\u002A\u002A*%
X230733600Y-181254400D03*
%TD*%
D13*
%TO.C,REF\u002A\u002A*%
X311347449Y-80314358D03*
D11*
X300928183Y-82151556D03*
D13*
X301341803Y-82078624D03*
D14*
X306344626Y-81196491D03*
D12*
X301933252Y-86239127D03*
D11*
X311761069Y-80241426D03*
D15*
X302669723Y-78524026D03*
D17*
X305320102Y-75386125D03*
D16*
X303188014Y-77691380D03*
X307963905Y-75752601D03*
D18*
X307994339Y-76041693D03*
D17*
X310608802Y-76585981D03*
D19*
X305976053Y-86419848D03*
D20*
X308477465Y-85978781D03*
%TD*%
D22*
%TO.C,REF\u002A\u002A*%
X112818041Y-123427378D03*
D23*
X114141240Y-115923143D03*
%TD*%
D10*
%TO.C,REF\u002A\u002A*%
X276886452Y-89073114D03*
D21*
X275563253Y-81568879D03*
%TD*%
D13*
%TO.C,REF\u002A\u002A*%
X225549029Y-95442935D03*
X235554675Y-93678669D03*
D11*
X225135409Y-95515867D03*
D14*
X230551852Y-94560802D03*
D11*
X235968295Y-93605737D03*
D12*
X226140478Y-99603438D03*
D15*
X226876949Y-91888337D03*
D16*
X227395240Y-91055691D03*
D17*
X229527328Y-88750436D03*
D16*
X232171131Y-89116912D03*
D18*
X232201565Y-89406004D03*
D17*
X234816028Y-89950292D03*
D19*
X230183279Y-99784159D03*
D20*
X232684691Y-99343092D03*
%TD*%
D14*
%TO.C,REF\u002A\u002A*%
X268373197Y-87891880D03*
D12*
X263961823Y-92934516D03*
D11*
X262956754Y-88846945D03*
D13*
X263370374Y-88774013D03*
D11*
X273789640Y-86936815D03*
D13*
X273376020Y-87009747D03*
D17*
X267348673Y-82081514D03*
D16*
X265216585Y-84386769D03*
D15*
X264698294Y-85219415D03*
D18*
X270022910Y-82737082D03*
D16*
X269992476Y-82447990D03*
D17*
X272637373Y-83281370D03*
D19*
X268004624Y-93115237D03*
D20*
X270506036Y-92674170D03*
%TD*%
D10*
%TO.C,REF\u002A\u002A*%
X239159242Y-95983358D03*
D21*
X237836043Y-88479123D03*
%TD*%
D13*
%TO.C,REF\u002A\u002A*%
X289108876Y-123284458D03*
D11*
X299528142Y-121447260D03*
D12*
X289700325Y-127444961D03*
D11*
X288695256Y-123357390D03*
D13*
X299114522Y-121520192D03*
D14*
X294111699Y-122402325D03*
D17*
X293087175Y-116591959D03*
D15*
X290436796Y-119729860D03*
D16*
X290955087Y-118897214D03*
D18*
X295761412Y-117247527D03*
D17*
X298375875Y-117791815D03*
D16*
X295730978Y-116958435D03*
D19*
X293743126Y-127625682D03*
D20*
X296244538Y-127184615D03*
%TD*%
D13*
%TO.C,REF\u002A\u002A*%
X228968805Y-114544900D03*
D12*
X229560254Y-118705403D03*
D11*
X228555185Y-114617832D03*
X239388071Y-112707702D03*
D13*
X238974451Y-112780634D03*
D14*
X233971628Y-113662767D03*
D15*
X230296725Y-110990302D03*
D17*
X232947104Y-107852401D03*
D16*
X230815016Y-110157656D03*
D18*
X235621341Y-108507969D03*
D16*
X235590907Y-108218877D03*
D17*
X238235804Y-109052257D03*
D19*
X233603055Y-118886124D03*
D20*
X236104467Y-118445057D03*
%TD*%
D22*
%TO.C,REF\u002A\u002A*%
X185158654Y-155784775D03*
D23*
X186481853Y-148280540D03*
%TD*%
D22*
%TO.C,REF\u002A\u002A*%
X100685170Y-82239186D03*
D23*
X102008369Y-74734951D03*
%TD*%
D11*
%TO.C,REF\u002A\u002A*%
X167714942Y-130166912D03*
D14*
X162298499Y-129211847D03*
D13*
X167301322Y-130093980D03*
X157295676Y-128329714D03*
D12*
X156428480Y-132441596D03*
D11*
X156882056Y-128256782D03*
D24*
X159759257Y-125443661D03*
D17*
X163323023Y-123401481D03*
D16*
X160531072Y-124838496D03*
X165682043Y-124650090D03*
D17*
X167882401Y-126337818D03*
D25*
X165611767Y-124932156D03*
D19*
X160165660Y-133994137D03*
D26*
X162667072Y-134435204D03*
%TD*%
D22*
%TO.C,REF\u002A\u002A*%
X144023512Y-168494421D03*
D23*
X145346711Y-160990186D03*
%TD*%
D22*
%TO.C,REF\u002A\u002A*%
X131731613Y-126452849D03*
D23*
X133054812Y-118948614D03*
%TD*%
D13*
%TO.C,REF\u002A\u002A*%
X129329891Y-123398592D03*
D11*
X118910625Y-121561394D03*
D13*
X119324245Y-121634326D03*
D11*
X129743511Y-123471524D03*
D14*
X124327068Y-122516459D03*
D12*
X118457049Y-125746208D03*
D16*
X122559641Y-118143108D03*
D17*
X125351592Y-116706093D03*
D24*
X121787826Y-118748273D03*
D25*
X127640336Y-118236768D03*
D17*
X129910970Y-119642430D03*
D16*
X127710612Y-117954702D03*
D19*
X122194229Y-127298749D03*
D26*
X124695641Y-127739816D03*
%TD*%
D27*
%TO.C,REF\u002A\u002A*%
X83874824Y-65044994D03*
%TD*%
D30*
%TO.C,REF\u002A\u002A*%
X217667624Y-141204994D03*
D17*
X217667624Y-136204994D03*
X217667624Y-138704994D03*
D31*
X210167624Y-133104994D03*
X210167624Y-144304994D03*
D17*
X203167624Y-136204994D03*
X203167624Y-141204994D03*
%TD*%
D10*
%TO.C,REF\u002A\u002A*%
X261339605Y-111777322D03*
D21*
X260016406Y-104273087D03*
%TD*%
D27*
%TO.C,REF\u002A\u002A*%
X335030024Y-65400594D03*
%TD*%
D10*
%TO.C,REF\u002A\u002A*%
X258078736Y-92698924D03*
D21*
X256755537Y-85194689D03*
%TD*%
D14*
%TO.C,REF\u002A\u002A*%
X271792972Y-106993842D03*
D11*
X266376529Y-107948907D03*
D13*
X266790149Y-107875975D03*
X276795795Y-106111709D03*
D11*
X277209415Y-106038777D03*
D12*
X267381598Y-112036478D03*
D15*
X268118069Y-104321377D03*
D16*
X268636360Y-103488731D03*
D17*
X270768448Y-101183476D03*
D18*
X273442685Y-101839044D03*
D16*
X273412251Y-101549952D03*
D17*
X276057148Y-102383332D03*
D19*
X271424399Y-112217199D03*
D20*
X273925811Y-111776132D03*
%TD*%
D12*
%TO.C,REF\u002A\u002A*%
X324313729Y-101997808D03*
D14*
X328725103Y-96955172D03*
D13*
X323722280Y-97837305D03*
X333727926Y-96073039D03*
D11*
X334141546Y-96000107D03*
X323308660Y-97910237D03*
D15*
X325050200Y-94282707D03*
D16*
X325568491Y-93450061D03*
D17*
X327700579Y-91144806D03*
D18*
X330374816Y-91800374D03*
D17*
X332989279Y-92344662D03*
D16*
X330344382Y-91511282D03*
D19*
X328356530Y-102178529D03*
D20*
X330857942Y-101737462D03*
%TD*%
D22*
%TO.C,REF\u002A\u002A*%
X153923819Y-111176806D03*
D23*
X155247018Y-103672571D03*
%TD*%
D14*
%TO.C,REF\u002A\u002A*%
X335879812Y-134770286D03*
D13*
X340882635Y-133888153D03*
D11*
X341296255Y-133815221D03*
D13*
X330876989Y-135652419D03*
D11*
X330463369Y-135725351D03*
D12*
X331468438Y-139812922D03*
D17*
X334855288Y-128959920D03*
D15*
X332204909Y-132097821D03*
D16*
X332723200Y-131265175D03*
X337499091Y-129326396D03*
D18*
X337529525Y-129615488D03*
D17*
X340143988Y-130159776D03*
D19*
X335511239Y-139993643D03*
D20*
X338012651Y-139552576D03*
%TD*%
D13*
%TO.C,REF\u002A\u002A*%
X305931376Y-159483389D03*
D11*
X306344996Y-159410457D03*
D13*
X295925730Y-161247655D03*
D12*
X296517179Y-165408158D03*
D11*
X295512110Y-161320587D03*
D14*
X300928553Y-160365522D03*
D15*
X297253650Y-157693057D03*
D16*
X297771941Y-156860411D03*
D17*
X299904029Y-154555156D03*
D18*
X302578266Y-155210724D03*
D17*
X305192729Y-155755012D03*
D16*
X302547832Y-154921632D03*
D19*
X300559980Y-165588879D03*
D20*
X303061392Y-165147812D03*
%TD*%
D14*
%TO.C,REF\u002A\u002A*%
X256290354Y-129071249D03*
D13*
X251287531Y-129953382D03*
D11*
X250873911Y-130026314D03*
D13*
X261293177Y-128189116D03*
D12*
X251878980Y-134113885D03*
D11*
X261706797Y-128116184D03*
D17*
X255265830Y-123260883D03*
D15*
X252615451Y-126398784D03*
D16*
X253133742Y-125566138D03*
D17*
X260554530Y-124460739D03*
D18*
X257940067Y-123916451D03*
D16*
X257909633Y-123627359D03*
D19*
X255921781Y-134294606D03*
D20*
X258423193Y-133853539D03*
%TD*%
D10*
%TO.C,REF\u002A\u002A*%
X280147321Y-108151513D03*
D21*
X278824122Y-100647278D03*
%TD*%
D10*
%TO.C,REF\u002A\u002A*%
X242420111Y-115061756D03*
D21*
X241096912Y-107557521D03*
%TD*%
D12*
%TO.C,REF\u002A\u002A*%
X143995438Y-91200477D03*
D11*
X155281900Y-88925793D03*
X144449014Y-87015663D03*
D14*
X149865457Y-87970728D03*
D13*
X154868280Y-88852861D03*
X144862634Y-87088595D03*
D24*
X147326215Y-84202542D03*
D16*
X148098030Y-83597377D03*
D17*
X150889981Y-82160362D03*
D16*
X153249001Y-83408971D03*
D17*
X155449359Y-85096699D03*
D25*
X153178725Y-83691037D03*
D19*
X147732618Y-92753018D03*
D26*
X150234030Y-93194085D03*
%TD*%
D13*
%TO.C,REF\u002A\u002A*%
X103721570Y-99539278D03*
X113727216Y-101303544D03*
D11*
X114140836Y-101376476D03*
D12*
X102854374Y-103651160D03*
D11*
X103307950Y-99466346D03*
D14*
X108724393Y-100421411D03*
D24*
X106185151Y-96653225D03*
D17*
X109748917Y-94611045D03*
D16*
X106956966Y-96048060D03*
X112107937Y-95859654D03*
D25*
X112037661Y-96141720D03*
D17*
X114308295Y-97547382D03*
D19*
X106591554Y-105203701D03*
D26*
X109092966Y-105644768D03*
%TD*%
D32*
%TO.C,REF\u002A\u002A*%
X210417624Y-149372994D03*
%TD*%
D11*
%TO.C,REF\u002A\u002A*%
X292115031Y-142459355D03*
D12*
X293120100Y-146546926D03*
D11*
X302947917Y-140549225D03*
D13*
X302534297Y-140622157D03*
D14*
X297531474Y-141504290D03*
D13*
X292528651Y-142386423D03*
D15*
X293856571Y-138831825D03*
D16*
X294374862Y-137999179D03*
D17*
X296506950Y-135693924D03*
D16*
X299150753Y-136060400D03*
D18*
X299181187Y-136349492D03*
D17*
X301795650Y-136893780D03*
D19*
X297162901Y-146727647D03*
D20*
X299664313Y-146286580D03*
%TD*%
D13*
%TO.C,REF\u002A\u002A*%
X304761579Y-101180589D03*
X314767225Y-99416323D03*
D11*
X304347959Y-101253521D03*
D12*
X305353028Y-105341092D03*
D11*
X315180845Y-99343391D03*
D14*
X309764402Y-100298456D03*
D16*
X306607790Y-96793345D03*
D17*
X308739878Y-94488090D03*
D15*
X306089499Y-97625991D03*
D18*
X311414115Y-95143658D03*
D16*
X311383681Y-94854566D03*
D17*
X314028578Y-95687946D03*
D19*
X309395829Y-105521813D03*
D20*
X311897241Y-105080746D03*
%TD*%
D11*
%TO.C,REF\u002A\u002A*%
X269734555Y-126700673D03*
X280567441Y-124790543D03*
D12*
X270739624Y-130788244D03*
D14*
X275150998Y-125745608D03*
D13*
X280153821Y-124863475D03*
X270148175Y-126627741D03*
D16*
X271994386Y-122240497D03*
D17*
X274126474Y-119935242D03*
D15*
X271476095Y-123073143D03*
D17*
X279415174Y-121135098D03*
D16*
X276770277Y-120301718D03*
D18*
X276800711Y-120590810D03*
D19*
X274782425Y-130968965D03*
D20*
X277283837Y-130527898D03*
%TD*%
D10*
%TO.C,REF\u002A\u002A*%
X283455319Y-126912102D03*
D21*
X282132120Y-119407867D03*
%TD*%
D11*
%TO.C,REF\u002A\u002A*%
X307705986Y-120005286D03*
X318538872Y-118095156D03*
D13*
X308119606Y-119932354D03*
D12*
X308711055Y-124092857D03*
D14*
X313122429Y-119050221D03*
D13*
X318125252Y-118168088D03*
D17*
X312097905Y-113239855D03*
D16*
X309965817Y-115545110D03*
D15*
X309447526Y-116377756D03*
D18*
X314772142Y-113895423D03*
D16*
X314741708Y-113606331D03*
D17*
X317386605Y-114439711D03*
D19*
X312753856Y-124273578D03*
D20*
X315255268Y-123832511D03*
%TD*%
D22*
%TO.C,REF\u002A\u002A*%
X169517674Y-133321884D03*
D23*
X170840873Y-125817649D03*
%TD*%
D10*
%TO.C,REF\u002A\u002A*%
X271467357Y-168810098D03*
D21*
X270144158Y-161305863D03*
%TD*%
D10*
%TO.C,REF\u002A\u002A*%
X252530221Y-171994474D03*
D21*
X251207022Y-164490239D03*
%TD*%
D11*
%TO.C,REF\u002A\u002A*%
X112247623Y-159641703D03*
X123080509Y-161551833D03*
D13*
X122666889Y-161478901D03*
D14*
X117664066Y-160596768D03*
D12*
X111794047Y-163826517D03*
D13*
X112661243Y-159714635D03*
D17*
X118688590Y-154786402D03*
D24*
X115124824Y-156828582D03*
D16*
X115896639Y-156223417D03*
D25*
X120977334Y-156317077D03*
D16*
X121047610Y-156035011D03*
D17*
X123247968Y-157722739D03*
D19*
X115531227Y-165379058D03*
D26*
X118032639Y-165820125D03*
%TD*%
D22*
%TO.C,REF\u002A\u002A*%
X176286654Y-95518182D03*
D23*
X177609853Y-88013947D03*
%TD*%
D22*
%TO.C,REF\u002A\u002A*%
X166245082Y-152759304D03*
D23*
X167568281Y-145255069D03*
%TD*%
D22*
%TO.C,REF\u002A\u002A*%
X109545451Y-142864795D03*
D23*
X110868650Y-135360560D03*
%TD*%
D11*
%TO.C,REF\u002A\u002A*%
X326666685Y-116662003D03*
D13*
X327080305Y-116589071D03*
D11*
X337499571Y-114751873D03*
D13*
X337085951Y-114824805D03*
D12*
X327671754Y-120749574D03*
D14*
X332083128Y-115706938D03*
D17*
X331058604Y-109896572D03*
D15*
X328408225Y-113034473D03*
D16*
X328926516Y-112201827D03*
D18*
X333732841Y-110552140D03*
D16*
X333702407Y-110263048D03*
D17*
X336347304Y-111096428D03*
D19*
X331714555Y-120930295D03*
D20*
X334215967Y-120489228D03*
%TD*%
D10*
%TO.C,REF\u002A\u002A*%
X302392456Y-123727723D03*
D21*
X301069257Y-116223488D03*
%TD*%
D11*
%TO.C,REF\u002A\u002A*%
X91922166Y-116802602D03*
X81089280Y-114892472D03*
D12*
X80635704Y-119077286D03*
D14*
X86505723Y-115847537D03*
D13*
X91508546Y-116729670D03*
X81502900Y-114965404D03*
D16*
X84738296Y-111474186D03*
D17*
X87530247Y-110037171D03*
D24*
X83966481Y-112079351D03*
D17*
X92089625Y-112973508D03*
D25*
X89818991Y-111567846D03*
D16*
X89889267Y-111285780D03*
D19*
X84372884Y-120629827D03*
D26*
X86874296Y-121070894D03*
%TD*%
D22*
%TO.C,REF\u002A\u002A*%
X93916190Y-120042888D03*
D23*
X95239389Y-112538653D03*
%TD*%
D10*
%TO.C,REF\u002A\u002A*%
X314743083Y-82604302D03*
D21*
X313419884Y-75100067D03*
%TD*%
D14*
%TO.C,REF\u002A\u002A*%
X130904756Y-84627445D03*
D12*
X125034737Y-87857194D03*
D13*
X135907579Y-85509578D03*
D11*
X136321199Y-85582510D03*
D13*
X125901933Y-83745312D03*
D11*
X125488313Y-83672380D03*
D24*
X128365514Y-80859259D03*
D16*
X129137329Y-80254094D03*
D17*
X131929280Y-78817079D03*
X136488658Y-81753416D03*
D25*
X134218024Y-80347754D03*
D16*
X134288300Y-80065688D03*
D19*
X128771917Y-89409735D03*
D26*
X131273329Y-89850802D03*
%TD*%
D11*
%TO.C,REF\u002A\u002A*%
X189933611Y-114740786D03*
D13*
X179514345Y-112903588D03*
X189519991Y-114667854D03*
D12*
X178647149Y-117015470D03*
D14*
X184517168Y-113785721D03*
D11*
X179100725Y-112830656D03*
D17*
X185541692Y-107975355D03*
D16*
X182749741Y-109412370D03*
D24*
X181977926Y-110017535D03*
D17*
X190101070Y-110911692D03*
D16*
X187900712Y-109223964D03*
D25*
X187830436Y-109506030D03*
D19*
X182384329Y-118568011D03*
D26*
X184885741Y-119009078D03*
%TD*%
D11*
%TO.C,REF\u002A\u002A*%
X87666969Y-77003455D03*
D13*
X88080589Y-77076387D03*
X98086235Y-78840653D03*
D11*
X98499855Y-78913585D03*
D12*
X87213393Y-81188269D03*
D14*
X93083412Y-77958520D03*
D17*
X94107936Y-72148154D03*
D16*
X91315985Y-73585169D03*
D24*
X90544170Y-74190334D03*
D16*
X96466956Y-73396763D03*
D25*
X96396680Y-73678829D03*
D17*
X98667314Y-75084491D03*
D19*
X90950573Y-82740810D03*
D26*
X93451985Y-83181877D03*
%TD*%
D11*
%TO.C,REF\u002A\u002A*%
X292750341Y-83593531D03*
D13*
X292336721Y-83666463D03*
D12*
X282922524Y-89591232D03*
D13*
X282331075Y-85430729D03*
D14*
X287333898Y-84548596D03*
D11*
X281917455Y-85503661D03*
D15*
X283658995Y-81876131D03*
D16*
X284177286Y-81043485D03*
D17*
X286309374Y-78738230D03*
D18*
X288983611Y-79393798D03*
D17*
X291598074Y-79938086D03*
D16*
X288953177Y-79104706D03*
D19*
X286965325Y-89771953D03*
D20*
X289466737Y-89330886D03*
%TD*%
D27*
%TO.C,REF\u002A\u002A*%
X326902024Y-154503794D03*
%TD*%
D11*
%TO.C,REF\u002A\u002A*%
X242746097Y-131459468D03*
D14*
X237329654Y-132414533D03*
D11*
X231913211Y-133369598D03*
D12*
X232918280Y-137457169D03*
D13*
X242332477Y-131532400D03*
X232326831Y-133296666D03*
D16*
X234173042Y-128909422D03*
D17*
X236305130Y-126604167D03*
D15*
X233654751Y-129742068D03*
D18*
X238979367Y-127259735D03*
D16*
X238948933Y-126970643D03*
D17*
X241593830Y-127804023D03*
D19*
X236961081Y-137637890D03*
D20*
X239462493Y-137196823D03*
%TD*%
D10*
%TO.C,REF\u002A\u002A*%
X245728109Y-133822345D03*
D21*
X244404910Y-126318110D03*
%TD*%
D14*
%TO.C,REF\u002A\u002A*%
X165556467Y-110442439D03*
D11*
X170972910Y-111397504D03*
D13*
X160553644Y-109560306D03*
D11*
X160140024Y-109487374D03*
D12*
X159686448Y-113672188D03*
D13*
X170559290Y-111324572D03*
D16*
X163789040Y-106069088D03*
D17*
X166580991Y-104632073D03*
D24*
X163017225Y-106674253D03*
D17*
X171140369Y-107568410D03*
D25*
X168869735Y-106162748D03*
D16*
X168940011Y-105880682D03*
D19*
X163423628Y-115224729D03*
D26*
X165925040Y-115665796D03*
%TD*%
D22*
%TO.C,REF\u002A\u002A*%
X195200225Y-98543653D03*
D23*
X196523424Y-91039418D03*
%TD*%
D13*
%TO.C,REF\u002A\u002A*%
X116004526Y-140753933D03*
D12*
X115137330Y-144865815D03*
D13*
X126010172Y-142518199D03*
D11*
X115590906Y-140681001D03*
X126423792Y-142591131D03*
D14*
X121007349Y-141636066D03*
D24*
X118468107Y-137867880D03*
D17*
X122031873Y-135825700D03*
D16*
X119239922Y-137262715D03*
D25*
X124320617Y-137356375D03*
D16*
X124390893Y-137074309D03*
D17*
X126591251Y-138762037D03*
D19*
X118874510Y-146418356D03*
D26*
X121375922Y-146859423D03*
%TD*%
D10*
%TO.C,REF\u002A\u002A*%
X287028078Y-146296591D03*
D21*
X285704879Y-138792356D03*
%TD*%
D10*
%TO.C,REF\u002A\u002A*%
X343692425Y-136201972D03*
D21*
X342369226Y-128697737D03*
%TD*%
D10*
%TO.C,REF\u002A\u002A*%
X340119665Y-116817480D03*
D21*
X338796466Y-109313245D03*
%TD*%
D11*
%TO.C,REF\u002A\u002A*%
X107563148Y-139265492D03*
X96730262Y-137355362D03*
D12*
X96276686Y-141540176D03*
D14*
X102146705Y-138310427D03*
D13*
X107149528Y-139192560D03*
X97143882Y-137428294D03*
D16*
X100379278Y-133937076D03*
D24*
X99607463Y-134542241D03*
D17*
X103171229Y-132500061D03*
X107730607Y-135436398D03*
D16*
X105530249Y-133748670D03*
D25*
X105459973Y-134030736D03*
D19*
X100013866Y-143092717D03*
D26*
X102515278Y-143533784D03*
%TD*%
D13*
%TO.C,REF\u002A\u002A*%
X151548561Y-107972466D03*
D14*
X146545738Y-107090333D03*
D13*
X141542915Y-106208200D03*
D11*
X151962181Y-108045398D03*
D12*
X140675719Y-110320082D03*
D11*
X141129295Y-106135268D03*
D24*
X144006496Y-103322147D03*
D17*
X147570262Y-101279967D03*
D16*
X144778311Y-102716982D03*
D17*
X152129640Y-104216304D03*
D16*
X149929282Y-102528576D03*
D25*
X149859006Y-102810642D03*
D19*
X144412899Y-111872623D03*
D26*
X146914311Y-112313690D03*
%TD*%
D22*
%TO.C,REF\u002A\u002A*%
X147343231Y-149374814D03*
D23*
X148666430Y-141870579D03*
%TD*%
D22*
%TO.C,REF\u002A\u002A*%
X116126039Y-104666789D03*
D23*
X117449238Y-97162554D03*
%TD*%
D27*
%TO.C,REF\u002A\u002A*%
X198428824Y-167229194D03*
D33*
X203508824Y-180691194D03*
X216716824Y-160371194D03*
X216716824Y-180691194D03*
D27*
X198428824Y-177135194D03*
X198428824Y-170531194D03*
D33*
X203762824Y-160371194D03*
D27*
X198428824Y-173833194D03*
X198428824Y-163927194D03*
%TD*%
D12*
%TO.C,REF\u002A\u002A*%
X163006167Y-94552580D03*
D11*
X174292629Y-92277896D03*
D13*
X163873363Y-90440698D03*
D14*
X168876186Y-91322831D03*
D11*
X163459743Y-90367766D03*
D13*
X173879009Y-92204964D03*
D17*
X169900710Y-85512465D03*
D24*
X166336944Y-87554645D03*
D16*
X167108759Y-86949480D03*
D17*
X174460088Y-88448802D03*
D16*
X172259730Y-86761074D03*
D25*
X172189454Y-87043140D03*
D19*
X166743347Y-96105121D03*
D26*
X169244759Y-96546188D03*
%TD*%
D11*
%TO.C,REF\u002A\u002A*%
X285337229Y-104605624D03*
D13*
X295756495Y-102768426D03*
X285750849Y-104532692D03*
D11*
X296170115Y-102695494D03*
D12*
X286342298Y-108693195D03*
D14*
X290753672Y-103650559D03*
D16*
X287597060Y-100145448D03*
D17*
X289729148Y-97840193D03*
D15*
X287078769Y-100978094D03*
D16*
X292372951Y-98206669D03*
D17*
X295017848Y-99040049D03*
D18*
X292403385Y-98495761D03*
D19*
X290385099Y-108873916D03*
D20*
X292886511Y-108432849D03*
%TD*%
D22*
%TO.C,REF\u002A\u002A*%
X135039611Y-107692260D03*
D23*
X136362810Y-100188025D03*
%TD*%
D22*
%TO.C,REF\u002A\u002A*%
X138500593Y-88649147D03*
D23*
X139823792Y-81144912D03*
%TD*%
D22*
%TO.C,REF\u002A\u002A*%
X188431245Y-136347355D03*
D23*
X189754444Y-128843120D03*
%TD*%
D32*
%TO.C,REF\u002A\u002A*%
X210316024Y-127630594D03*
%TD*%
D22*
%TO.C,REF\u002A\u002A*%
X157384803Y-92133692D03*
D23*
X158708002Y-84629457D03*
%TD*%
D10*
%TO.C,REF\u002A\u002A*%
X264647603Y-130537911D03*
D21*
X263324404Y-123033676D03*
%TD*%
D14*
%TO.C,REF\u002A\u002A*%
X136624767Y-163940051D03*
D12*
X130754748Y-167169800D03*
D13*
X131621944Y-163057918D03*
D11*
X142041210Y-164895116D03*
X131208324Y-162984986D03*
D13*
X141627590Y-164822184D03*
D16*
X134857340Y-159566700D03*
D17*
X137649291Y-158129685D03*
D24*
X134085525Y-160171865D03*
D25*
X139938035Y-159660360D03*
D16*
X140008311Y-159378294D03*
D17*
X142208669Y-161066022D03*
D19*
X134491928Y-168722341D03*
D26*
X136993340Y-169163408D03*
%TD*%
D10*
%TO.C,REF\u002A\u002A*%
X324884709Y-139827782D03*
D21*
X323561510Y-132323547D03*
%TD*%
D11*
%TO.C,REF\u002A\u002A*%
X182420445Y-93711049D03*
D13*
X192839711Y-95548247D03*
X182834065Y-93783981D03*
D11*
X193253331Y-95621179D03*
D12*
X181966869Y-97895863D03*
D14*
X187836888Y-94666114D03*
D24*
X185297646Y-90897928D03*
D16*
X186069461Y-90292763D03*
D17*
X188861412Y-88855748D03*
X193420790Y-91792085D03*
D25*
X191150156Y-90386423D03*
D16*
X191220432Y-90104357D03*
D19*
X185704049Y-99448404D03*
D26*
X188205461Y-99889471D03*
%TD*%
D10*
%TO.C,REF\u002A\u002A*%
X309194568Y-161899855D03*
D21*
X307871369Y-154395620D03*
%TD*%
D14*
%TO.C,REF\u002A\u002A*%
X259710130Y-148173215D03*
D12*
X255298756Y-153215851D03*
D13*
X264712953Y-147291082D03*
X254707307Y-149055348D03*
D11*
X254293687Y-149128280D03*
X265126573Y-147218150D03*
D17*
X258685606Y-142362849D03*
D15*
X256035227Y-145500750D03*
D16*
X256553518Y-144668104D03*
D17*
X263974306Y-143562705D03*
D18*
X261359843Y-143018417D03*
D16*
X261329409Y-142729325D03*
D19*
X259341557Y-153396572D03*
D20*
X261842969Y-152955505D03*
%TD*%
D11*
%TO.C,REF\u002A\u002A*%
X186675641Y-133510195D03*
D13*
X186262021Y-133437263D03*
D14*
X181259198Y-132555130D03*
D11*
X175842755Y-131600065D03*
D13*
X176256375Y-131672997D03*
D12*
X175389179Y-135784879D03*
D17*
X182283722Y-126744764D03*
D16*
X179491771Y-128181779D03*
D24*
X178719956Y-128786944D03*
D16*
X184642742Y-127993373D03*
D25*
X184572466Y-128275439D03*
D17*
X186843100Y-129681101D03*
D19*
X179126359Y-137337420D03*
D26*
X181627771Y-137778487D03*
%TD*%
D13*
%TO.C,REF\u002A\u002A*%
X110469247Y-120072952D03*
D14*
X105466424Y-119190819D03*
D11*
X110882867Y-120145884D03*
X100049981Y-118235754D03*
D13*
X100463601Y-118308686D03*
D12*
X99596405Y-122420568D03*
D24*
X102927182Y-115422633D03*
D16*
X103698997Y-114817468D03*
D17*
X106490948Y-113380453D03*
D16*
X108849968Y-114629062D03*
D17*
X111050326Y-116316790D03*
D25*
X108779692Y-114911128D03*
D19*
X103333585Y-123973109D03*
D26*
X105834997Y-124414176D03*
%TD*%
D10*
%TO.C,REF\u002A\u002A*%
X290386851Y-165525665D03*
D21*
X289063652Y-158021430D03*
%TD*%
D13*
%TO.C,REF\u002A\u002A*%
X160638319Y-168174287D03*
D12*
X149765477Y-170521903D03*
D11*
X161051939Y-168247219D03*
D13*
X150632673Y-166410021D03*
D14*
X155635496Y-167292154D03*
D11*
X150219053Y-166337089D03*
D16*
X153868069Y-162918803D03*
D17*
X156660020Y-161481788D03*
D24*
X153096254Y-163523968D03*
D17*
X161219398Y-164418125D03*
D25*
X158948764Y-163012463D03*
D16*
X159019040Y-162730397D03*
D19*
X153502657Y-172074444D03*
D26*
X156004069Y-172515511D03*
%TD*%
M02*
