%TF.GenerationSoftware,KiCad,Pcbnew,(6.0.7)*%
%TF.CreationDate,2022-11-08T23:53:27-08:00*%
%TF.ProjectId,Anguirus,416e6775-6972-4757-932e-6b696361645f,rev?*%
%TF.SameCoordinates,Original*%
%TF.FileFunction,Legend,Bot*%
%TF.FilePolarity,Positive*%
%FSLAX46Y46*%
G04 Gerber Fmt 4.6, Leading zero omitted, Abs format (unit mm)*
G04 Created by KiCad (PCBNEW (6.0.7)) date 2022-11-08 23:53:27*
%MOMM*%
%LPD*%
G01*
G04 APERTURE LIST*
%ADD10C,0.150000*%
%ADD11C,0.381000*%
%ADD12R,1.752600X1.752600*%
%ADD13C,1.752600*%
G04 APERTURE END LIST*
D10*
%TO.C,REF\u002A\u002A*%
X316286836Y-141823737D02*
X315536506Y-141956041D01*
X315977823Y-142265054D02*
X315845519Y-141514724D01*
X318788247Y-141382671D02*
X318037917Y-141514975D01*
X246242466Y-173634679D02*
X245492136Y-173766983D01*
X243741055Y-174075745D02*
X242990725Y-174208049D01*
X243432042Y-174517062D02*
X243299738Y-173766732D01*
X262701756Y-170732461D02*
X261951426Y-170864765D01*
X262392743Y-171173778D02*
X262260439Y-170423448D01*
X265203167Y-170291395D02*
X264452837Y-170423699D01*
X278315404Y-148519124D02*
X277565074Y-148651428D01*
X278006391Y-148960441D02*
X277874087Y-148210111D01*
X280816815Y-148078058D02*
X280066485Y-148210362D01*
X88292787Y-100300230D02*
X87542457Y-100167926D01*
X87983774Y-99858913D02*
X87851470Y-100609243D01*
X90794198Y-100741296D02*
X90043868Y-100608992D01*
X141816863Y-129081844D02*
X141066533Y-128949540D01*
X141507850Y-128640527D02*
X141375546Y-129390857D01*
X144318274Y-129522910D02*
X143567944Y-129390606D01*
X240411629Y-155167427D02*
X239661299Y-155299731D01*
X240102616Y-155608744D02*
X239970312Y-154858414D01*
X242913040Y-154726361D02*
X242162710Y-154858665D01*
X157507874Y-151553557D02*
X156757544Y-151421253D01*
X157198861Y-151112240D02*
X157066557Y-151862570D01*
X160009285Y-151994623D02*
X159258955Y-151862319D01*
X173125290Y-173857539D02*
X172374960Y-173725235D01*
X172816277Y-173416222D02*
X172683973Y-174166552D01*
X175626701Y-174298605D02*
X174876371Y-174166301D01*
X325049959Y-81524758D02*
X324299629Y-81657062D01*
X324740946Y-81966075D02*
X324608642Y-81215745D01*
X327551370Y-81083692D02*
X326801040Y-81215996D01*
X284213895Y-166939290D02*
X283463565Y-167071594D01*
X281712484Y-167380356D02*
X280962154Y-167512660D01*
X281403471Y-167821673D02*
X281271167Y-167071343D01*
X138497144Y-148201451D02*
X137746814Y-148069147D01*
X138188131Y-147760134D02*
X138055827Y-148510464D01*
X140998555Y-148642517D02*
X140248225Y-148510213D01*
X126114132Y-106969152D02*
X125363802Y-106836848D01*
X125805119Y-106527835D02*
X125672815Y-107278165D01*
X128615543Y-107410218D02*
X127865213Y-107277914D01*
X110573206Y-84523905D02*
X109822876Y-84391601D01*
X110264193Y-84082588D02*
X110131889Y-84832918D01*
X113074617Y-84964971D02*
X112324287Y-84832667D01*
X84143329Y-138608962D02*
X83392999Y-138476658D01*
X81641918Y-138167896D02*
X80891588Y-138035592D01*
X81332905Y-137726579D02*
X81200601Y-138476909D01*
X255178370Y-113549969D02*
X254428040Y-113682273D01*
X252676959Y-113991035D02*
X251926629Y-114123339D01*
X252367946Y-114432352D02*
X252235642Y-113682022D01*
%TO.C,U1*%
X204988300Y-96756048D02*
X204988300Y-95956048D01*
X204797824Y-95956048D01*
X204683538Y-95994144D01*
X204607347Y-96070334D01*
X204569252Y-96146524D01*
X204531157Y-96298905D01*
X204531157Y-96413191D01*
X204569252Y-96565572D01*
X204607347Y-96641763D01*
X204683538Y-96717953D01*
X204797824Y-96756048D01*
X204988300Y-96756048D01*
X203769252Y-96756048D02*
X204226395Y-96756048D01*
X203997824Y-96756048D02*
X203997824Y-95956048D01*
X204074014Y-96070334D01*
X204150204Y-96146524D01*
X204226395Y-96184620D01*
X205007347Y-93454144D02*
X205083538Y-93416048D01*
X205197824Y-93416048D01*
X205312109Y-93454144D01*
X205388300Y-93530334D01*
X205426395Y-93606524D01*
X205464490Y-93758905D01*
X205464490Y-93873191D01*
X205426395Y-94025572D01*
X205388300Y-94101763D01*
X205312109Y-94177953D01*
X205197824Y-94216048D01*
X205121633Y-94216048D01*
X205007347Y-94177953D01*
X204969252Y-94139858D01*
X204969252Y-93873191D01*
X205121633Y-93873191D01*
X204626395Y-94216048D02*
X204626395Y-93416048D01*
X204169252Y-94216048D01*
X204169252Y-93416048D01*
X203788300Y-94216048D02*
X203788300Y-93416048D01*
X203597824Y-93416048D01*
X203483538Y-93454144D01*
X203407347Y-93530334D01*
X203369252Y-93606524D01*
X203331157Y-93758905D01*
X203331157Y-93873191D01*
X203369252Y-94025572D01*
X203407347Y-94101763D01*
X203483538Y-94177953D01*
X203597824Y-94216048D01*
X203788300Y-94216048D01*
X215432157Y-91617953D02*
X215317871Y-91656048D01*
X215127395Y-91656048D01*
X215051204Y-91617953D01*
X215013109Y-91579858D01*
X214975014Y-91503667D01*
X214975014Y-91427477D01*
X215013109Y-91351286D01*
X215051204Y-91313191D01*
X215127395Y-91275096D01*
X215279776Y-91237001D01*
X215355966Y-91198905D01*
X215394062Y-91160810D01*
X215432157Y-91084620D01*
X215432157Y-91008429D01*
X215394062Y-90932239D01*
X215355966Y-90894144D01*
X215279776Y-90856048D01*
X215089300Y-90856048D01*
X214975014Y-90894144D01*
X214746443Y-90856048D02*
X214289300Y-90856048D01*
X214517871Y-91656048D02*
X214517871Y-90856048D01*
X204988300Y-101836048D02*
X204988300Y-101036048D01*
X204797824Y-101036048D01*
X204683538Y-101074144D01*
X204607347Y-101150334D01*
X204569252Y-101226524D01*
X204531157Y-101378905D01*
X204531157Y-101493191D01*
X204569252Y-101645572D01*
X204607347Y-101721763D01*
X204683538Y-101797953D01*
X204797824Y-101836048D01*
X204988300Y-101836048D01*
X203845443Y-101302715D02*
X203845443Y-101836048D01*
X204035919Y-100997953D02*
X204226395Y-101569382D01*
X203731157Y-101569382D01*
X215643633Y-109037001D02*
X215529347Y-109075096D01*
X215491252Y-109113191D01*
X215453157Y-109189382D01*
X215453157Y-109303667D01*
X215491252Y-109379858D01*
X215529347Y-109417953D01*
X215605538Y-109456048D01*
X215910300Y-109456048D01*
X215910300Y-108656048D01*
X215643633Y-108656048D01*
X215567443Y-108694144D01*
X215529347Y-108732239D01*
X215491252Y-108808429D01*
X215491252Y-108884620D01*
X215529347Y-108960810D01*
X215567443Y-108998905D01*
X215643633Y-109037001D01*
X215910300Y-109037001D01*
X215186490Y-108656048D02*
X214691252Y-108656048D01*
X214957919Y-108960810D01*
X214843633Y-108960810D01*
X214767443Y-108998905D01*
X214729347Y-109037001D01*
X214691252Y-109113191D01*
X214691252Y-109303667D01*
X214729347Y-109379858D01*
X214767443Y-109417953D01*
X214843633Y-109456048D01*
X215072204Y-109456048D01*
X215148395Y-109417953D01*
X215186490Y-109379858D01*
X208477428Y-85796048D02*
X208020285Y-85796048D01*
X208248856Y-86596048D02*
X208248856Y-85796048D01*
X207829809Y-85796048D02*
X207296475Y-86596048D01*
X207296475Y-85796048D02*
X207829809Y-86596048D01*
X206839332Y-85796048D02*
X206763142Y-85796048D01*
X206686952Y-85834144D01*
X206648856Y-85872239D01*
X206610761Y-85948429D01*
X206572666Y-86100810D01*
X206572666Y-86291286D01*
X206610761Y-86443667D01*
X206648856Y-86519858D01*
X206686952Y-86557953D01*
X206763142Y-86596048D01*
X206839332Y-86596048D01*
X206915523Y-86557953D01*
X206953618Y-86519858D01*
X206991713Y-86443667D01*
X207029809Y-86291286D01*
X207029809Y-86100810D01*
X206991713Y-85948429D01*
X206953618Y-85872239D01*
X206915523Y-85834144D01*
X206839332Y-85796048D01*
X205658380Y-85757953D02*
X206344094Y-86786524D01*
X205391713Y-86596048D02*
X205391713Y-85796048D01*
X205201237Y-85796048D01*
X205086952Y-85834144D01*
X205010761Y-85910334D01*
X204972666Y-85986524D01*
X204934571Y-86138905D01*
X204934571Y-86253191D01*
X204972666Y-86405572D01*
X205010761Y-86481763D01*
X205086952Y-86557953D01*
X205201237Y-86596048D01*
X205391713Y-86596048D01*
X204667904Y-85796048D02*
X204172666Y-85796048D01*
X204439332Y-86100810D01*
X204325047Y-86100810D01*
X204248856Y-86138905D01*
X204210761Y-86177001D01*
X204172666Y-86253191D01*
X204172666Y-86443667D01*
X204210761Y-86519858D01*
X204248856Y-86557953D01*
X204325047Y-86596048D01*
X204553618Y-86596048D01*
X204629809Y-86557953D01*
X204667904Y-86519858D01*
X214592157Y-112754144D02*
X214825490Y-112754144D01*
X214825490Y-113120810D02*
X214825490Y-112420810D01*
X214492157Y-112420810D01*
X214092157Y-112420810D02*
X214025490Y-112420810D01*
X213958824Y-112454144D01*
X213925490Y-112487477D01*
X213892157Y-112554144D01*
X213858824Y-112687477D01*
X213858824Y-112854144D01*
X213892157Y-112987477D01*
X213925490Y-113054144D01*
X213958824Y-113087477D01*
X214025490Y-113120810D01*
X214092157Y-113120810D01*
X214158824Y-113087477D01*
X214192157Y-113054144D01*
X214225490Y-112987477D01*
X214258824Y-112854144D01*
X214258824Y-112687477D01*
X214225490Y-112554144D01*
X214192157Y-112487477D01*
X214158824Y-112454144D01*
X214092157Y-112420810D01*
X205007347Y-90914144D02*
X205083538Y-90876048D01*
X205197824Y-90876048D01*
X205312109Y-90914144D01*
X205388300Y-90990334D01*
X205426395Y-91066524D01*
X205464490Y-91218905D01*
X205464490Y-91333191D01*
X205426395Y-91485572D01*
X205388300Y-91561763D01*
X205312109Y-91637953D01*
X205197824Y-91676048D01*
X205121633Y-91676048D01*
X205007347Y-91637953D01*
X204969252Y-91599858D01*
X204969252Y-91333191D01*
X205121633Y-91333191D01*
X204626395Y-91676048D02*
X204626395Y-90876048D01*
X204169252Y-91676048D01*
X204169252Y-90876048D01*
X203788300Y-91676048D02*
X203788300Y-90876048D01*
X203597824Y-90876048D01*
X203483538Y-90914144D01*
X203407347Y-90990334D01*
X203369252Y-91066524D01*
X203331157Y-91218905D01*
X203331157Y-91333191D01*
X203369252Y-91485572D01*
X203407347Y-91561763D01*
X203483538Y-91637953D01*
X203597824Y-91676048D01*
X203788300Y-91676048D01*
X203223121Y-112739152D02*
X203317402Y-112786292D01*
X203364543Y-112786292D01*
X203435253Y-112762722D01*
X203505964Y-112692011D01*
X203529534Y-112621301D01*
X203529534Y-112574160D01*
X203505964Y-112503450D01*
X203317402Y-112314888D01*
X202822427Y-112809863D01*
X202987419Y-112974854D01*
X203058130Y-112998424D01*
X203105270Y-112998424D01*
X203175981Y-112974854D01*
X203223121Y-112927714D01*
X203246691Y-112857003D01*
X203246691Y-112809863D01*
X203223121Y-112739152D01*
X203058130Y-112574160D01*
X203553104Y-113540540D02*
X203317402Y-113304837D01*
X203529534Y-113045565D01*
X203529534Y-113092705D01*
X203553104Y-113163416D01*
X203670956Y-113281267D01*
X203741666Y-113304837D01*
X203788807Y-113304837D01*
X203859517Y-113281267D01*
X203977368Y-113163416D01*
X204000939Y-113092705D01*
X204000939Y-113045565D01*
X203977368Y-112974854D01*
X203859517Y-112857003D01*
X203788807Y-112833433D01*
X203741666Y-112833433D01*
X204531157Y-104299858D02*
X204569252Y-104337953D01*
X204683538Y-104376048D01*
X204759728Y-104376048D01*
X204874014Y-104337953D01*
X204950204Y-104261763D01*
X204988300Y-104185572D01*
X205026395Y-104033191D01*
X205026395Y-103918905D01*
X204988300Y-103766524D01*
X204950204Y-103690334D01*
X204874014Y-103614144D01*
X204759728Y-103576048D01*
X204683538Y-103576048D01*
X204569252Y-103614144D01*
X204531157Y-103652239D01*
X203845443Y-103576048D02*
X203997824Y-103576048D01*
X204074014Y-103614144D01*
X204112109Y-103652239D01*
X204188300Y-103766524D01*
X204226395Y-103918905D01*
X204226395Y-104223667D01*
X204188300Y-104299858D01*
X204150204Y-104337953D01*
X204074014Y-104376048D01*
X203921633Y-104376048D01*
X203845443Y-104337953D01*
X203807347Y-104299858D01*
X203769252Y-104223667D01*
X203769252Y-104033191D01*
X203807347Y-103957001D01*
X203845443Y-103918905D01*
X203921633Y-103880810D01*
X204074014Y-103880810D01*
X204150204Y-103918905D01*
X204188300Y-103957001D01*
X204226395Y-104033191D01*
X204950204Y-109037001D02*
X204683538Y-109037001D01*
X204569252Y-109456048D02*
X204950204Y-109456048D01*
X204950204Y-108656048D01*
X204569252Y-108656048D01*
X203883538Y-108656048D02*
X204035919Y-108656048D01*
X204112109Y-108694144D01*
X204150204Y-108732239D01*
X204226395Y-108846524D01*
X204264490Y-108998905D01*
X204264490Y-109303667D01*
X204226395Y-109379858D01*
X204188300Y-109417953D01*
X204112109Y-109456048D01*
X203959728Y-109456048D01*
X203883538Y-109417953D01*
X203845443Y-109379858D01*
X203807347Y-109303667D01*
X203807347Y-109113191D01*
X203845443Y-109037001D01*
X203883538Y-108998905D01*
X203959728Y-108960810D01*
X204112109Y-108960810D01*
X204188300Y-108998905D01*
X204226395Y-109037001D01*
X204264490Y-109113191D01*
X216423815Y-112668441D02*
X216376675Y-112762722D01*
X216376675Y-112809863D01*
X216400245Y-112880573D01*
X216470956Y-112951284D01*
X216541666Y-112974854D01*
X216588807Y-112974854D01*
X216659517Y-112951284D01*
X216848079Y-112762722D01*
X216353104Y-112267747D01*
X216188113Y-112432739D01*
X216164543Y-112503450D01*
X216164543Y-112550590D01*
X216188113Y-112621301D01*
X216235253Y-112668441D01*
X216305964Y-112692011D01*
X216353104Y-112692011D01*
X216423815Y-112668441D01*
X216588807Y-112503450D01*
X215645998Y-112974854D02*
X215740279Y-112880573D01*
X215810989Y-112857003D01*
X215858130Y-112857003D01*
X215975981Y-112880573D01*
X216093832Y-112951284D01*
X216282394Y-113139846D01*
X216305964Y-113210556D01*
X216305964Y-113257697D01*
X216282394Y-113328408D01*
X216188113Y-113422688D01*
X216117402Y-113446259D01*
X216070262Y-113446259D01*
X215999551Y-113422688D01*
X215881700Y-113304837D01*
X215858130Y-113234127D01*
X215858130Y-113186986D01*
X215881700Y-113116276D01*
X215975981Y-113021995D01*
X216046691Y-112998424D01*
X216093832Y-112998424D01*
X216164543Y-113021995D01*
X215643633Y-111577001D02*
X215529347Y-111615096D01*
X215491252Y-111653191D01*
X215453157Y-111729382D01*
X215453157Y-111843667D01*
X215491252Y-111919858D01*
X215529347Y-111957953D01*
X215605538Y-111996048D01*
X215910300Y-111996048D01*
X215910300Y-111196048D01*
X215643633Y-111196048D01*
X215567443Y-111234144D01*
X215529347Y-111272239D01*
X215491252Y-111348429D01*
X215491252Y-111424620D01*
X215529347Y-111500810D01*
X215567443Y-111538905D01*
X215643633Y-111577001D01*
X215910300Y-111577001D01*
X215148395Y-111272239D02*
X215110300Y-111234144D01*
X215034109Y-111196048D01*
X214843633Y-111196048D01*
X214767443Y-111234144D01*
X214729347Y-111272239D01*
X214691252Y-111348429D01*
X214691252Y-111424620D01*
X214729347Y-111538905D01*
X215186490Y-111996048D01*
X214691252Y-111996048D01*
X204988300Y-99296048D02*
X204988300Y-98496048D01*
X204797824Y-98496048D01*
X204683538Y-98534144D01*
X204607347Y-98610334D01*
X204569252Y-98686524D01*
X204531157Y-98838905D01*
X204531157Y-98953191D01*
X204569252Y-99105572D01*
X204607347Y-99181763D01*
X204683538Y-99257953D01*
X204797824Y-99296048D01*
X204988300Y-99296048D01*
X204035919Y-98496048D02*
X203959728Y-98496048D01*
X203883538Y-98534144D01*
X203845443Y-98572239D01*
X203807347Y-98648429D01*
X203769252Y-98800810D01*
X203769252Y-98991286D01*
X203807347Y-99143667D01*
X203845443Y-99219858D01*
X203883538Y-99257953D01*
X203959728Y-99296048D01*
X204035919Y-99296048D01*
X204112109Y-99257953D01*
X204150204Y-99219858D01*
X204188300Y-99143667D01*
X204226395Y-98991286D01*
X204226395Y-98800810D01*
X204188300Y-98648429D01*
X204150204Y-98572239D01*
X204112109Y-98534144D01*
X204035919Y-98496048D01*
X209992157Y-112889858D02*
X210030252Y-112927953D01*
X210144538Y-112966048D01*
X210220728Y-112966048D01*
X210335014Y-112927953D01*
X210411204Y-112851763D01*
X210449300Y-112775572D01*
X210487395Y-112623191D01*
X210487395Y-112508905D01*
X210449300Y-112356524D01*
X210411204Y-112280334D01*
X210335014Y-112204144D01*
X210220728Y-112166048D01*
X210144538Y-112166048D01*
X210030252Y-112204144D01*
X209992157Y-112242239D01*
X209725490Y-112166048D02*
X209192157Y-112166048D01*
X209535014Y-112966048D01*
X204988300Y-89136048D02*
X204988300Y-88336048D01*
X204797824Y-88336048D01*
X204683538Y-88374144D01*
X204607347Y-88450334D01*
X204569252Y-88526524D01*
X204531157Y-88678905D01*
X204531157Y-88793191D01*
X204569252Y-88945572D01*
X204607347Y-89021763D01*
X204683538Y-89097953D01*
X204797824Y-89136048D01*
X204988300Y-89136048D01*
X204226395Y-88412239D02*
X204188300Y-88374144D01*
X204112109Y-88336048D01*
X203921633Y-88336048D01*
X203845443Y-88374144D01*
X203807347Y-88412239D01*
X203769252Y-88488429D01*
X203769252Y-88564620D01*
X203807347Y-88678905D01*
X204264490Y-89136048D01*
X203769252Y-89136048D01*
X216386490Y-93416048D02*
X216119824Y-94216048D01*
X215853157Y-93416048D01*
X215129347Y-94139858D02*
X215167443Y-94177953D01*
X215281728Y-94216048D01*
X215357919Y-94216048D01*
X215472204Y-94177953D01*
X215548395Y-94101763D01*
X215586490Y-94025572D01*
X215624585Y-93873191D01*
X215624585Y-93758905D01*
X215586490Y-93606524D01*
X215548395Y-93530334D01*
X215472204Y-93454144D01*
X215357919Y-93416048D01*
X215281728Y-93416048D01*
X215167443Y-93454144D01*
X215129347Y-93492239D01*
X214329347Y-94139858D02*
X214367443Y-94177953D01*
X214481728Y-94216048D01*
X214557919Y-94216048D01*
X214672204Y-94177953D01*
X214748395Y-94101763D01*
X214786490Y-94025572D01*
X214824585Y-93873191D01*
X214824585Y-93758905D01*
X214786490Y-93606524D01*
X214748395Y-93530334D01*
X214672204Y-93454144D01*
X214557919Y-93416048D01*
X214481728Y-93416048D01*
X214367443Y-93454144D01*
X214329347Y-93492239D01*
X215643633Y-86177001D02*
X215529347Y-86215096D01*
X215491252Y-86253191D01*
X215453157Y-86329382D01*
X215453157Y-86443667D01*
X215491252Y-86519858D01*
X215529347Y-86557953D01*
X215605538Y-86596048D01*
X215910300Y-86596048D01*
X215910300Y-85796048D01*
X215643633Y-85796048D01*
X215567443Y-85834144D01*
X215529347Y-85872239D01*
X215491252Y-85948429D01*
X215491252Y-86024620D01*
X215529347Y-86100810D01*
X215567443Y-86138905D01*
X215643633Y-86177001D01*
X215910300Y-86177001D01*
X214957919Y-85796048D02*
X214881728Y-85796048D01*
X214805538Y-85834144D01*
X214767443Y-85872239D01*
X214729347Y-85948429D01*
X214691252Y-86100810D01*
X214691252Y-86291286D01*
X214729347Y-86443667D01*
X214767443Y-86519858D01*
X214805538Y-86557953D01*
X214881728Y-86596048D01*
X214957919Y-86596048D01*
X215034109Y-86557953D01*
X215072204Y-86519858D01*
X215110300Y-86443667D01*
X215148395Y-86291286D01*
X215148395Y-86100810D01*
X215110300Y-85948429D01*
X215072204Y-85872239D01*
X215034109Y-85834144D01*
X214957919Y-85796048D01*
X215929347Y-88374144D02*
X216005538Y-88336048D01*
X216119824Y-88336048D01*
X216234109Y-88374144D01*
X216310300Y-88450334D01*
X216348395Y-88526524D01*
X216386490Y-88678905D01*
X216386490Y-88793191D01*
X216348395Y-88945572D01*
X216310300Y-89021763D01*
X216234109Y-89097953D01*
X216119824Y-89136048D01*
X216043633Y-89136048D01*
X215929347Y-89097953D01*
X215891252Y-89059858D01*
X215891252Y-88793191D01*
X216043633Y-88793191D01*
X215548395Y-89136048D02*
X215548395Y-88336048D01*
X215091252Y-89136048D01*
X215091252Y-88336048D01*
X214710300Y-89136048D02*
X214710300Y-88336048D01*
X214519824Y-88336048D01*
X214405538Y-88374144D01*
X214329347Y-88450334D01*
X214291252Y-88526524D01*
X214253157Y-88678905D01*
X214253157Y-88793191D01*
X214291252Y-88945572D01*
X214329347Y-89021763D01*
X214405538Y-89097953D01*
X214519824Y-89136048D01*
X214710300Y-89136048D01*
X215586490Y-96337001D02*
X215853157Y-96337001D01*
X215853157Y-96756048D02*
X215853157Y-95956048D01*
X215472204Y-95956048D01*
X214824585Y-96222715D02*
X214824585Y-96756048D01*
X215015062Y-95917953D02*
X215205538Y-96489382D01*
X214710300Y-96489382D01*
X207909300Y-112966048D02*
X207909300Y-112166048D01*
X207718824Y-112166048D01*
X207604538Y-112204144D01*
X207528347Y-112280334D01*
X207490252Y-112356524D01*
X207452157Y-112508905D01*
X207452157Y-112623191D01*
X207490252Y-112775572D01*
X207528347Y-112851763D01*
X207604538Y-112927953D01*
X207718824Y-112966048D01*
X207909300Y-112966048D01*
X206728347Y-112166048D02*
X207109300Y-112166048D01*
X207147395Y-112547001D01*
X207109300Y-112508905D01*
X207033109Y-112470810D01*
X206842633Y-112470810D01*
X206766443Y-112508905D01*
X206728347Y-112547001D01*
X206690252Y-112623191D01*
X206690252Y-112813667D01*
X206728347Y-112889858D01*
X206766443Y-112927953D01*
X206842633Y-112966048D01*
X207033109Y-112966048D01*
X207109300Y-112927953D01*
X207147395Y-112889858D01*
X204721633Y-111577001D02*
X204607347Y-111615096D01*
X204569252Y-111653191D01*
X204531157Y-111729382D01*
X204531157Y-111843667D01*
X204569252Y-111919858D01*
X204607347Y-111957953D01*
X204683538Y-111996048D01*
X204988300Y-111996048D01*
X204988300Y-111196048D01*
X204721633Y-111196048D01*
X204645443Y-111234144D01*
X204607347Y-111272239D01*
X204569252Y-111348429D01*
X204569252Y-111424620D01*
X204607347Y-111500810D01*
X204645443Y-111538905D01*
X204721633Y-111577001D01*
X204988300Y-111577001D01*
X203845443Y-111462715D02*
X203845443Y-111996048D01*
X204035919Y-111157953D02*
X204226395Y-111729382D01*
X203731157Y-111729382D01*
X215586490Y-103957001D02*
X215853157Y-103957001D01*
X215853157Y-104376048D02*
X215853157Y-103576048D01*
X215472204Y-103576048D01*
X215243633Y-103576048D02*
X214710300Y-103576048D01*
X215053157Y-104376048D01*
X215586490Y-98877001D02*
X215853157Y-98877001D01*
X215853157Y-99296048D02*
X215853157Y-98496048D01*
X215472204Y-98496048D01*
X214786490Y-98496048D02*
X215167443Y-98496048D01*
X215205538Y-98877001D01*
X215167443Y-98838905D01*
X215091252Y-98800810D01*
X214900776Y-98800810D01*
X214824585Y-98838905D01*
X214786490Y-98877001D01*
X214748395Y-98953191D01*
X214748395Y-99143667D01*
X214786490Y-99219858D01*
X214824585Y-99257953D01*
X214900776Y-99296048D01*
X215091252Y-99296048D01*
X215167443Y-99257953D01*
X215205538Y-99219858D01*
X204988300Y-106916048D02*
X204988300Y-106116048D01*
X204797824Y-106116048D01*
X204683538Y-106154144D01*
X204607347Y-106230334D01*
X204569252Y-106306524D01*
X204531157Y-106458905D01*
X204531157Y-106573191D01*
X204569252Y-106725572D01*
X204607347Y-106801763D01*
X204683538Y-106877953D01*
X204797824Y-106916048D01*
X204988300Y-106916048D01*
X204264490Y-106116048D02*
X203731157Y-106116048D01*
X204074014Y-106916048D01*
X215586490Y-101417001D02*
X215853157Y-101417001D01*
X215853157Y-101836048D02*
X215853157Y-101036048D01*
X215472204Y-101036048D01*
X214824585Y-101036048D02*
X214976966Y-101036048D01*
X215053157Y-101074144D01*
X215091252Y-101112239D01*
X215167443Y-101226524D01*
X215205538Y-101378905D01*
X215205538Y-101683667D01*
X215167443Y-101759858D01*
X215129347Y-101797953D01*
X215053157Y-101836048D01*
X214900776Y-101836048D01*
X214824585Y-101797953D01*
X214786490Y-101759858D01*
X214748395Y-101683667D01*
X214748395Y-101493191D01*
X214786490Y-101417001D01*
X214824585Y-101378905D01*
X214900776Y-101340810D01*
X215053157Y-101340810D01*
X215129347Y-101378905D01*
X215167443Y-101417001D01*
X215205538Y-101493191D01*
X215643633Y-106497001D02*
X215529347Y-106535096D01*
X215491252Y-106573191D01*
X215453157Y-106649382D01*
X215453157Y-106763667D01*
X215491252Y-106839858D01*
X215529347Y-106877953D01*
X215605538Y-106916048D01*
X215910300Y-106916048D01*
X215910300Y-106116048D01*
X215643633Y-106116048D01*
X215567443Y-106154144D01*
X215529347Y-106192239D01*
X215491252Y-106268429D01*
X215491252Y-106344620D01*
X215529347Y-106420810D01*
X215567443Y-106458905D01*
X215643633Y-106497001D01*
X215910300Y-106497001D01*
X214691252Y-106916048D02*
X215148395Y-106916048D01*
X214919824Y-106916048D02*
X214919824Y-106116048D01*
X214996014Y-106230334D01*
X215072204Y-106306524D01*
X215148395Y-106344620D01*
X205642157Y-112754144D02*
X205542157Y-112787477D01*
X205508824Y-112820810D01*
X205475490Y-112887477D01*
X205475490Y-112987477D01*
X205508824Y-113054144D01*
X205542157Y-113087477D01*
X205608824Y-113120810D01*
X205875490Y-113120810D01*
X205875490Y-112420810D01*
X205642157Y-112420810D01*
X205575490Y-112454144D01*
X205542157Y-112487477D01*
X205508824Y-112554144D01*
X205508824Y-112620810D01*
X205542157Y-112687477D01*
X205575490Y-112720810D01*
X205642157Y-112754144D01*
X205875490Y-112754144D01*
X205242157Y-112420810D02*
X204775490Y-112420810D01*
X205075490Y-113120810D01*
X212665490Y-112547001D02*
X212932157Y-112547001D01*
X212932157Y-112966048D02*
X212932157Y-112166048D01*
X212551204Y-112166048D01*
X211827395Y-112966048D02*
X212284538Y-112966048D01*
X212055966Y-112966048D02*
X212055966Y-112166048D01*
X212132157Y-112280334D01*
X212208347Y-112356524D01*
X212284538Y-112394620D01*
%TO.C,REF\u002A\u002A*%
X251758594Y-94448004D02*
X251008264Y-94580308D01*
X249257183Y-94889070D02*
X248506853Y-95021374D01*
X248948170Y-95330387D02*
X248815866Y-94580057D01*
X178969984Y-155337906D02*
X178219654Y-155205602D01*
X176468573Y-154896840D02*
X175718243Y-154764536D01*
X176159560Y-154455523D02*
X176027256Y-155205853D01*
X306089257Y-84868042D02*
X305338927Y-85000346D01*
X305780244Y-85309359D02*
X305647940Y-84559029D01*
X308590668Y-84426976D02*
X307840338Y-84559280D01*
X230296483Y-98232353D02*
X229546153Y-98364657D01*
X229987470Y-98673670D02*
X229855166Y-97923340D01*
X232797894Y-97791287D02*
X232047564Y-97923591D01*
X270619239Y-91122365D02*
X269868909Y-91254669D01*
X268117828Y-91563431D02*
X267367498Y-91695735D01*
X267808815Y-92004748D02*
X267676511Y-91254418D01*
X296357741Y-125632810D02*
X295607411Y-125765114D01*
X293856330Y-126073876D02*
X293106000Y-126206180D01*
X293547317Y-126515193D02*
X293415013Y-125764863D01*
X233716259Y-117334318D02*
X232965929Y-117466622D01*
X233407246Y-117775635D02*
X233274942Y-117025305D01*
X236217670Y-116893252D02*
X235467340Y-117025556D01*
X160827593Y-132433949D02*
X160077263Y-132301645D01*
X160518580Y-131992632D02*
X160386276Y-132742962D01*
X163329004Y-132875015D02*
X162578674Y-132742711D01*
X122856162Y-125738561D02*
X122105832Y-125606257D01*
X122547149Y-125297244D02*
X122414845Y-126047574D01*
X125357573Y-126179627D02*
X124607243Y-126047323D01*
X274039014Y-110224327D02*
X273288684Y-110356631D01*
X271537603Y-110665393D02*
X270787273Y-110797697D01*
X271228590Y-111106710D02*
X271096286Y-110356380D01*
X328469734Y-100626723D02*
X327719404Y-100759027D01*
X328160721Y-101068040D02*
X328028417Y-100317710D01*
X330971145Y-100185657D02*
X330220815Y-100317961D01*
X335624443Y-138441837D02*
X334874113Y-138574141D01*
X335315430Y-138883154D02*
X335183126Y-138132824D01*
X338125854Y-138000771D02*
X337375524Y-138133075D01*
X303174595Y-163596007D02*
X302424265Y-163728311D01*
X300673184Y-164037073D02*
X299922854Y-164169377D01*
X300364171Y-164478390D02*
X300231867Y-163728060D01*
X256034985Y-132742800D02*
X255284655Y-132875104D01*
X255725972Y-133184117D02*
X255593668Y-132433787D01*
X258536396Y-132301734D02*
X257786066Y-132434038D01*
X148394551Y-91192830D02*
X147644221Y-91060526D01*
X148085538Y-90751513D02*
X147953234Y-91501843D01*
X150895962Y-91633896D02*
X150145632Y-91501592D01*
X107253487Y-103643513D02*
X106503157Y-103511209D01*
X106944474Y-103202196D02*
X106812170Y-103952526D01*
X109754898Y-104084579D02*
X109004568Y-103952275D01*
X299777516Y-144734775D02*
X299027186Y-144867079D01*
X297276105Y-145175841D02*
X296525775Y-145308145D01*
X296967092Y-145617158D02*
X296834788Y-144866828D01*
X312010444Y-103528941D02*
X311260114Y-103661245D01*
X309509033Y-103970007D02*
X308758703Y-104102311D01*
X309200020Y-104411324D02*
X309067716Y-103660994D01*
X274895629Y-129417159D02*
X274145299Y-129549463D01*
X274586616Y-129858476D02*
X274454312Y-129108146D01*
X277397040Y-128976093D02*
X276646710Y-129108397D01*
X312867060Y-122721772D02*
X312116730Y-122854076D01*
X312558047Y-123163089D02*
X312425743Y-122412759D01*
X315368471Y-122280706D02*
X314618141Y-122413010D01*
X116193160Y-163818870D02*
X115442830Y-163686566D01*
X115884147Y-163377553D02*
X115751843Y-164127883D01*
X118694571Y-164259936D02*
X117944241Y-164127632D01*
X334329170Y-118937423D02*
X333578840Y-119069727D01*
X331827759Y-119378489D02*
X331077429Y-119510793D01*
X331518746Y-119819806D02*
X331386442Y-119069476D01*
X85034817Y-119069639D02*
X84284487Y-118937335D01*
X84725804Y-118628322D02*
X84593500Y-119378652D01*
X87536228Y-119510705D02*
X86785898Y-119378401D01*
X129433850Y-87849547D02*
X128683520Y-87717243D01*
X129124837Y-87408230D02*
X128992533Y-88158560D01*
X131935261Y-88290613D02*
X131184931Y-88158309D01*
X183046262Y-117007823D02*
X182295932Y-116875519D01*
X182737249Y-116566506D02*
X182604945Y-117316836D01*
X185547673Y-117448889D02*
X184797343Y-117316585D01*
X91612506Y-81180622D02*
X90862176Y-81048318D01*
X91303493Y-80739305D02*
X91171189Y-81489635D01*
X94113917Y-81621688D02*
X93363587Y-81489384D01*
X289579940Y-87779081D02*
X288829610Y-87911385D01*
X287078529Y-88220147D02*
X286328199Y-88352451D01*
X286769516Y-88661464D02*
X286637212Y-87911134D01*
X237074285Y-136086084D02*
X236323955Y-136218388D01*
X236765272Y-136527401D02*
X236632968Y-135777071D01*
X239575696Y-135645018D02*
X238825366Y-135777322D01*
X164085561Y-113664541D02*
X163335231Y-113532237D01*
X163776548Y-113223224D02*
X163644244Y-113973554D01*
X166586972Y-114105607D02*
X165836642Y-113973303D01*
X119536443Y-144858168D02*
X118786113Y-144725864D01*
X119227430Y-144416851D02*
X119095126Y-145167181D01*
X122037854Y-145299234D02*
X121287524Y-145166930D01*
X103177210Y-141973595D02*
X102426880Y-141841291D01*
X100675799Y-141532529D02*
X99925469Y-141400225D01*
X100366786Y-141091212D02*
X100234482Y-141841542D01*
X145074832Y-110312435D02*
X144324502Y-110180131D01*
X144765819Y-109871118D02*
X144633515Y-110621448D01*
X147576243Y-110753501D02*
X146825913Y-110621197D01*
X167405280Y-94544933D02*
X166654950Y-94412629D01*
X167096267Y-94103616D02*
X166963963Y-94853946D01*
X169906691Y-94985999D02*
X169156361Y-94853695D01*
X292999714Y-106881044D02*
X292249384Y-107013348D01*
X290498303Y-107322110D02*
X289747973Y-107454414D01*
X290189290Y-107763427D02*
X290056986Y-107013097D01*
X137655272Y-167603219D02*
X136904942Y-167470915D01*
X135153861Y-167162153D02*
X134403531Y-167029849D01*
X134844848Y-166720836D02*
X134712544Y-167471166D01*
X186365982Y-97888216D02*
X185615652Y-97755912D01*
X186056969Y-97446899D02*
X185924665Y-98197229D01*
X188867393Y-98329282D02*
X188117063Y-98196978D01*
X259454761Y-151844766D02*
X258704431Y-151977070D01*
X259145748Y-152286083D02*
X259013444Y-151535753D01*
X261956172Y-151403700D02*
X261205842Y-151536004D01*
X179788292Y-135777232D02*
X179037962Y-135644928D01*
X179479279Y-135335915D02*
X179346975Y-136086245D01*
X182289703Y-136218298D02*
X181539373Y-136085994D01*
X103995518Y-122412921D02*
X103245188Y-122280617D01*
X103686505Y-121971604D02*
X103554201Y-122721934D01*
X106496929Y-122853987D02*
X105746599Y-122721683D01*
X156666001Y-170955322D02*
X155915671Y-170823018D01*
X154164590Y-170514256D02*
X153414260Y-170381952D01*
X153855577Y-170072939D02*
X153723273Y-170823269D01*
D11*
%TO.C,U1*%
X218748824Y-115444144D02*
X218748824Y-82424144D01*
X218748824Y-82424144D02*
X200968824Y-82424144D01*
X200968824Y-82424144D02*
X200968824Y-115444144D01*
X203508824Y-84964144D02*
X200968824Y-84964144D01*
X203508824Y-87504144D02*
X200968824Y-87504144D01*
X203508824Y-84964144D02*
X203508824Y-87504144D01*
X200968824Y-115444144D02*
X218748824Y-115444144D01*
G36*
X216203459Y-91653174D02*
G01*
X216103459Y-91653174D01*
X216103459Y-90853174D01*
X216203459Y-90853174D01*
X216203459Y-91653174D01*
G37*
D10*
X216203459Y-91653174D02*
X216103459Y-91653174D01*
X216103459Y-90853174D01*
X216203459Y-90853174D01*
X216203459Y-91653174D01*
G36*
X215803459Y-91153174D02*
G01*
X215703459Y-91153174D01*
X215703459Y-90853174D01*
X215803459Y-90853174D01*
X215803459Y-91153174D01*
G37*
X215803459Y-91153174D02*
X215703459Y-91153174D01*
X215703459Y-90853174D01*
X215803459Y-90853174D01*
X215803459Y-91153174D01*
G36*
X216003459Y-91353174D02*
G01*
X215903459Y-91353174D01*
X215903459Y-91253174D01*
X216003459Y-91253174D01*
X216003459Y-91353174D01*
G37*
X216003459Y-91353174D02*
X215903459Y-91353174D01*
X215903459Y-91253174D01*
X216003459Y-91253174D01*
X216003459Y-91353174D01*
G36*
X216203459Y-90953174D02*
G01*
X215703459Y-90953174D01*
X215703459Y-90853174D01*
X216203459Y-90853174D01*
X216203459Y-90953174D01*
G37*
X216203459Y-90953174D02*
X215703459Y-90953174D01*
X215703459Y-90853174D01*
X216203459Y-90853174D01*
X216203459Y-90953174D01*
G36*
X215803459Y-91653174D02*
G01*
X215703459Y-91653174D01*
X215703459Y-91453174D01*
X215803459Y-91453174D01*
X215803459Y-91653174D01*
G37*
X215803459Y-91653174D02*
X215703459Y-91653174D01*
X215703459Y-91453174D01*
X215803459Y-91453174D01*
X215803459Y-91653174D01*
%TD*%
D12*
%TO.C,U1*%
X202238824Y-86234144D03*
D13*
X202238824Y-88774144D03*
X202238824Y-91314144D03*
X202238824Y-93854144D03*
X202238824Y-96394144D03*
X202238824Y-98934144D03*
X202238824Y-101474144D03*
X202238824Y-104014144D03*
X202238824Y-106554144D03*
X202238824Y-109094144D03*
X202238824Y-111634144D03*
X202467424Y-114174144D03*
X217478824Y-114174144D03*
X217478824Y-111634144D03*
X217478824Y-109094144D03*
X217478824Y-106554144D03*
X217478824Y-104014144D03*
X217478824Y-101474144D03*
X217478824Y-98934144D03*
X217478824Y-96394144D03*
X217478824Y-93854144D03*
X217478824Y-91314144D03*
X217478824Y-88774144D03*
X217478824Y-86234144D03*
X204778824Y-114174144D03*
X207318824Y-114174144D03*
X209858824Y-114174144D03*
X212398824Y-114174144D03*
X214938824Y-114174144D03*
%TD*%
M02*
