%TF.GenerationSoftware,KiCad,Pcbnew,8.0.4*%
%TF.CreationDate,2024-08-19T00:10:14-07:00*%
%TF.ProjectId,LED2,4c454432-2e6b-4696-9361-645f70636258,rev?*%
%TF.SameCoordinates,Original*%
%TF.FileFunction,Legend,Top*%
%TF.FilePolarity,Positive*%
%FSLAX46Y46*%
G04 Gerber Fmt 4.6, Leading zero omitted, Abs format (unit mm)*
G04 Created by KiCad (PCBNEW 8.0.4) date 2024-08-19 00:10:14*
%MOMM*%
%LPD*%
G01*
G04 APERTURE LIST*
%ADD10C,0.150000*%
%ADD11C,0.120000*%
G04 APERTURE END LIST*
D10*
X158730112Y-103036009D02*
X158872969Y-103083628D01*
X158872969Y-103083628D02*
X158920588Y-103131247D01*
X158920588Y-103131247D02*
X158968207Y-103226485D01*
X158968207Y-103226485D02*
X158968207Y-103369342D01*
X158968207Y-103369342D02*
X158920588Y-103464580D01*
X158920588Y-103464580D02*
X158872969Y-103512200D01*
X158872969Y-103512200D02*
X158777731Y-103559819D01*
X158777731Y-103559819D02*
X158396779Y-103559819D01*
X158396779Y-103559819D02*
X158396779Y-102559819D01*
X158396779Y-102559819D02*
X158730112Y-102559819D01*
X158730112Y-102559819D02*
X158825350Y-102607438D01*
X158825350Y-102607438D02*
X158872969Y-102655057D01*
X158872969Y-102655057D02*
X158920588Y-102750295D01*
X158920588Y-102750295D02*
X158920588Y-102845533D01*
X158920588Y-102845533D02*
X158872969Y-102940771D01*
X158872969Y-102940771D02*
X158825350Y-102988390D01*
X158825350Y-102988390D02*
X158730112Y-103036009D01*
X158730112Y-103036009D02*
X158396779Y-103036009D01*
X159825350Y-103559819D02*
X159825350Y-103036009D01*
X159825350Y-103036009D02*
X159777731Y-102940771D01*
X159777731Y-102940771D02*
X159682493Y-102893152D01*
X159682493Y-102893152D02*
X159492017Y-102893152D01*
X159492017Y-102893152D02*
X159396779Y-102940771D01*
X159825350Y-103512200D02*
X159730112Y-103559819D01*
X159730112Y-103559819D02*
X159492017Y-103559819D01*
X159492017Y-103559819D02*
X159396779Y-103512200D01*
X159396779Y-103512200D02*
X159349160Y-103416961D01*
X159349160Y-103416961D02*
X159349160Y-103321723D01*
X159349160Y-103321723D02*
X159396779Y-103226485D01*
X159396779Y-103226485D02*
X159492017Y-103178866D01*
X159492017Y-103178866D02*
X159730112Y-103178866D01*
X159730112Y-103178866D02*
X159825350Y-103131247D01*
X160158684Y-102893152D02*
X160539636Y-102893152D01*
X160301541Y-102559819D02*
X160301541Y-103416961D01*
X160301541Y-103416961D02*
X160349160Y-103512200D01*
X160349160Y-103512200D02*
X160444398Y-103559819D01*
X160444398Y-103559819D02*
X160539636Y-103559819D01*
X160872970Y-103178866D02*
X161634875Y-103178866D01*
X157396779Y-97678866D02*
X158158684Y-97678866D01*
X157777731Y-98059819D02*
X157777731Y-97297914D01*
X158730112Y-95036009D02*
X158872969Y-95083628D01*
X158872969Y-95083628D02*
X158920588Y-95131247D01*
X158920588Y-95131247D02*
X158968207Y-95226485D01*
X158968207Y-95226485D02*
X158968207Y-95369342D01*
X158968207Y-95369342D02*
X158920588Y-95464580D01*
X158920588Y-95464580D02*
X158872969Y-95512200D01*
X158872969Y-95512200D02*
X158777731Y-95559819D01*
X158777731Y-95559819D02*
X158396779Y-95559819D01*
X158396779Y-95559819D02*
X158396779Y-94559819D01*
X158396779Y-94559819D02*
X158730112Y-94559819D01*
X158730112Y-94559819D02*
X158825350Y-94607438D01*
X158825350Y-94607438D02*
X158872969Y-94655057D01*
X158872969Y-94655057D02*
X158920588Y-94750295D01*
X158920588Y-94750295D02*
X158920588Y-94845533D01*
X158920588Y-94845533D02*
X158872969Y-94940771D01*
X158872969Y-94940771D02*
X158825350Y-94988390D01*
X158825350Y-94988390D02*
X158730112Y-95036009D01*
X158730112Y-95036009D02*
X158396779Y-95036009D01*
X159825350Y-95559819D02*
X159825350Y-95036009D01*
X159825350Y-95036009D02*
X159777731Y-94940771D01*
X159777731Y-94940771D02*
X159682493Y-94893152D01*
X159682493Y-94893152D02*
X159492017Y-94893152D01*
X159492017Y-94893152D02*
X159396779Y-94940771D01*
X159825350Y-95512200D02*
X159730112Y-95559819D01*
X159730112Y-95559819D02*
X159492017Y-95559819D01*
X159492017Y-95559819D02*
X159396779Y-95512200D01*
X159396779Y-95512200D02*
X159349160Y-95416961D01*
X159349160Y-95416961D02*
X159349160Y-95321723D01*
X159349160Y-95321723D02*
X159396779Y-95226485D01*
X159396779Y-95226485D02*
X159492017Y-95178866D01*
X159492017Y-95178866D02*
X159730112Y-95178866D01*
X159730112Y-95178866D02*
X159825350Y-95131247D01*
X160158684Y-94893152D02*
X160539636Y-94893152D01*
X160301541Y-94559819D02*
X160301541Y-95416961D01*
X160301541Y-95416961D02*
X160349160Y-95512200D01*
X160349160Y-95512200D02*
X160444398Y-95559819D01*
X160444398Y-95559819D02*
X160539636Y-95559819D01*
X160872970Y-95178866D02*
X161634875Y-95178866D01*
X161253922Y-95559819D02*
X161253922Y-94797914D01*
X157396779Y-100178866D02*
X158158684Y-100178866D01*
D11*
%TO.C,R1*%
X150690000Y-96040000D02*
X151020000Y-96040000D01*
X150690000Y-102580000D02*
X150690000Y-96040000D01*
X151020000Y-102580000D02*
X150690000Y-102580000D01*
X153100000Y-102580000D02*
X153430000Y-102580000D01*
X153430000Y-96040000D02*
X153100000Y-96040000D01*
X153430000Y-102580000D02*
X153430000Y-96040000D01*
%TO.C,BatteryChargeModule1*%
X154730000Y-93860000D02*
X156060000Y-93860000D01*
X154730000Y-95190000D02*
X154730000Y-93860000D01*
X154730000Y-96460000D02*
X154730000Y-104140000D01*
X154730000Y-96460000D02*
X157390000Y-96460000D01*
X154730000Y-104140000D02*
X157390000Y-104140000D01*
X157390000Y-96460000D02*
X157390000Y-104140000D01*
%TO.C,BT1*%
X158320000Y-96420000D02*
X159650000Y-96420000D01*
X158320000Y-97750000D02*
X158320000Y-96420000D01*
X158320000Y-99020000D02*
X158320000Y-101620000D01*
X158320000Y-99020000D02*
X160980000Y-99020000D01*
X158320000Y-101620000D02*
X160980000Y-101620000D01*
X160980000Y-99020000D02*
X160980000Y-101620000D01*
%TO.C,R1*%
X146190000Y-96350000D02*
X146520000Y-96350000D01*
X146190000Y-102890000D02*
X146190000Y-96350000D01*
X146520000Y-102890000D02*
X146190000Y-102890000D01*
X148600000Y-102890000D02*
X148930000Y-102890000D01*
X148930000Y-96350000D02*
X148600000Y-96350000D01*
X148930000Y-102890000D02*
X148930000Y-96350000D01*
%TO.C,SW1*%
X150660000Y-97660000D02*
X150660000Y-100960000D01*
X150660000Y-100960000D02*
X150960000Y-100960000D01*
X150960000Y-97660000D02*
X150660000Y-97660000D01*
X153160000Y-97660000D02*
X153460000Y-97660000D01*
X153460000Y-97660000D02*
X153460000Y-100960000D01*
X153460000Y-100960000D02*
X153160000Y-100960000D01*
%TD*%
M02*
