%TF.GenerationSoftware,KiCad,Pcbnew,8.0.4*%
%TF.CreationDate,2024-08-16T16:06:08-07:00*%
%TF.ProjectId,LED2,4c454432-2e6b-4696-9361-645f70636258,rev?*%
%TF.SameCoordinates,Original*%
%TF.FileFunction,Drillmap*%
%TF.FilePolarity,Positive*%
%FSLAX45Y45*%
G04 Gerber Fmt 4.5, Leading zero omitted, Abs format (unit mm)*
G04 Created by KiCad (PCBNEW 8.0.4) date 2024-08-16 16:06:08*
%MOMM*%
%LPD*%
G01*
G04 APERTURE LIST*
%ADD10C,0.050000*%
%ADD11C,0.200000*%
G04 APERTURE END LIST*
D10*
X16006000Y-9281000D02*
G75*
G02*
X16306000Y-9581000I0J-300000D01*
G01*
X16006000Y-10531000D02*
X14506000Y-10531000D01*
X16306000Y-9581000D02*
X16306000Y-10231000D01*
X14206000Y-9581000D02*
G75*
G02*
X14506000Y-9281000I300000J0D01*
G01*
X14206000Y-10231000D02*
X14206000Y-9581000D01*
X14506000Y-10531000D02*
G75*
G02*
X14206000Y-10231000I0J300000D01*
G01*
X14506000Y-9281000D02*
X16006000Y-9281000D01*
X16306000Y-10231000D02*
G75*
G02*
X16006000Y-10531000I-300000J0D01*
G01*
D11*
X14464277Y-10844984D02*
X14464277Y-10644984D01*
X14464277Y-10644984D02*
X14511896Y-10644984D01*
X14511896Y-10644984D02*
X14540467Y-10654508D01*
X14540467Y-10654508D02*
X14559515Y-10673555D01*
X14559515Y-10673555D02*
X14569039Y-10692603D01*
X14569039Y-10692603D02*
X14578562Y-10730698D01*
X14578562Y-10730698D02*
X14578562Y-10759270D01*
X14578562Y-10759270D02*
X14569039Y-10797365D01*
X14569039Y-10797365D02*
X14559515Y-10816412D01*
X14559515Y-10816412D02*
X14540467Y-10835460D01*
X14540467Y-10835460D02*
X14511896Y-10844984D01*
X14511896Y-10844984D02*
X14464277Y-10844984D01*
X14664277Y-10844984D02*
X14664277Y-10711650D01*
X14664277Y-10749746D02*
X14673801Y-10730698D01*
X14673801Y-10730698D02*
X14683324Y-10721174D01*
X14683324Y-10721174D02*
X14702372Y-10711650D01*
X14702372Y-10711650D02*
X14721420Y-10711650D01*
X14788086Y-10844984D02*
X14788086Y-10711650D01*
X14788086Y-10644984D02*
X14778562Y-10654508D01*
X14778562Y-10654508D02*
X14788086Y-10664031D01*
X14788086Y-10664031D02*
X14797610Y-10654508D01*
X14797610Y-10654508D02*
X14788086Y-10644984D01*
X14788086Y-10644984D02*
X14788086Y-10664031D01*
X14911896Y-10844984D02*
X14892848Y-10835460D01*
X14892848Y-10835460D02*
X14883324Y-10816412D01*
X14883324Y-10816412D02*
X14883324Y-10644984D01*
X15016658Y-10844984D02*
X14997610Y-10835460D01*
X14997610Y-10835460D02*
X14988086Y-10816412D01*
X14988086Y-10816412D02*
X14988086Y-10644984D01*
X15245229Y-10844984D02*
X15245229Y-10644984D01*
X15245229Y-10644984D02*
X15311896Y-10787841D01*
X15311896Y-10787841D02*
X15378562Y-10644984D01*
X15378562Y-10644984D02*
X15378562Y-10844984D01*
X15559515Y-10844984D02*
X15559515Y-10740222D01*
X15559515Y-10740222D02*
X15549991Y-10721174D01*
X15549991Y-10721174D02*
X15530943Y-10711650D01*
X15530943Y-10711650D02*
X15492848Y-10711650D01*
X15492848Y-10711650D02*
X15473801Y-10721174D01*
X15559515Y-10835460D02*
X15540467Y-10844984D01*
X15540467Y-10844984D02*
X15492848Y-10844984D01*
X15492848Y-10844984D02*
X15473801Y-10835460D01*
X15473801Y-10835460D02*
X15464277Y-10816412D01*
X15464277Y-10816412D02*
X15464277Y-10797365D01*
X15464277Y-10797365D02*
X15473801Y-10778317D01*
X15473801Y-10778317D02*
X15492848Y-10768793D01*
X15492848Y-10768793D02*
X15540467Y-10768793D01*
X15540467Y-10768793D02*
X15559515Y-10759270D01*
X15654753Y-10711650D02*
X15654753Y-10911650D01*
X15654753Y-10721174D02*
X15673801Y-10711650D01*
X15673801Y-10711650D02*
X15711896Y-10711650D01*
X15711896Y-10711650D02*
X15730943Y-10721174D01*
X15730943Y-10721174D02*
X15740467Y-10730698D01*
X15740467Y-10730698D02*
X15749991Y-10749746D01*
X15749991Y-10749746D02*
X15749991Y-10806889D01*
X15749991Y-10806889D02*
X15740467Y-10825936D01*
X15740467Y-10825936D02*
X15730943Y-10835460D01*
X15730943Y-10835460D02*
X15711896Y-10844984D01*
X15711896Y-10844984D02*
X15673801Y-10844984D01*
X15673801Y-10844984D02*
X15654753Y-10835460D01*
X15835705Y-10825936D02*
X15845229Y-10835460D01*
X15845229Y-10835460D02*
X15835705Y-10844984D01*
X15835705Y-10844984D02*
X15826182Y-10835460D01*
X15826182Y-10835460D02*
X15835705Y-10825936D01*
X15835705Y-10825936D02*
X15835705Y-10844984D01*
X15835705Y-10721174D02*
X15845229Y-10730698D01*
X15845229Y-10730698D02*
X15835705Y-10740222D01*
X15835705Y-10740222D02*
X15826182Y-10730698D01*
X15826182Y-10730698D02*
X15835705Y-10721174D01*
X15835705Y-10721174D02*
X15835705Y-10740222D01*
M02*
