%TF.GenerationSoftware,KiCad,Pcbnew,7.0.1*%
%TF.CreationDate,2023-04-14T22:42:18-07:00*%
%TF.ProjectId,switchplate,73776974-6368-4706-9c61-74652e6b6963,rev?*%
%TF.SameCoordinates,Original*%
%TF.FileFunction,Profile,NP*%
%FSLAX46Y46*%
G04 Gerber Fmt 4.6, Leading zero omitted, Abs format (unit mm)*
G04 Created by KiCad (PCBNEW 7.0.1) date 2023-04-14 22:42:18*
%MOMM*%
%LPD*%
G01*
G04 APERTURE LIST*
%TA.AperFunction,Profile*%
%ADD10C,0.188976*%
%TD*%
%TA.AperFunction,Profile*%
%ADD11C,0.200000*%
%TD*%
%TA.AperFunction,Profile*%
%ADD12C,0.150000*%
%TD*%
G04 APERTURE END LIST*
D10*
X217949956Y-143821744D02*
G75*
G03*
X222948256Y-148821744I5000044J44D01*
G01*
D11*
X270278256Y-148838300D02*
G75*
G03*
X275280000Y-143838255I1744J5000000D01*
G01*
X-25400387Y-135590387D02*
G75*
G03*
X-20400387Y-140590000I5000000J387D01*
G01*
D10*
X-20405615Y-63084003D02*
G75*
G03*
X-25405615Y-68084390I0J-5000000D01*
G01*
X321982617Y-139480017D02*
G75*
G03*
X326982616Y-134482618I-17J5000017D01*
G01*
X327017396Y-68086621D02*
G75*
G03*
X322017381Y-63084003I-4999996J2621D01*
G01*
X157805995Y-103709002D02*
X143805995Y-103709002D01*
X105419002Y-79609002D02*
X105419002Y-65609003D01*
X186380992Y-84659003D02*
X172380992Y-84659003D01*
X324493999Y-98659003D02*
X324493999Y-84659003D01*
X-6500002Y-98659003D02*
X-6500002Y-84659003D01*
X89036998Y-132059001D02*
X89036998Y-136759006D01*
X174475002Y-136759006D02*
X174475002Y-122759006D01*
D11*
X-20400387Y-140590000D02*
X217950000Y-140590000D01*
D10*
X272393993Y-98659003D02*
X286393993Y-98659003D01*
X124755992Y-103709002D02*
X124755992Y-117709002D01*
X129518993Y-65609003D02*
X129518993Y-79609002D01*
X42661998Y-124229007D02*
X42661998Y-127459002D01*
X72368000Y-65609003D02*
X72368000Y-79609002D01*
X286393993Y-79609002D02*
X286393993Y-65609003D01*
X258105998Y-146283999D02*
X272105998Y-146283999D01*
X222100002Y-79609002D02*
X222100002Y-65609003D01*
X305444011Y-98659003D02*
X305444011Y-84659003D01*
X144387004Y-137509006D02*
X147686992Y-137509006D01*
X174475002Y-122759006D02*
X160475002Y-122759006D01*
X197706005Y-85209002D02*
X194406002Y-85209002D01*
X-6500002Y-136759006D02*
X-6500002Y-122759006D01*
X-3831002Y-65609003D02*
X-3831002Y-79609002D01*
X208100002Y-65609003D02*
X208100002Y-79609002D01*
X162568996Y-79609002D02*
X162568996Y-65609003D01*
X218206005Y-86129003D02*
X216480998Y-86129003D01*
X199430995Y-98429004D02*
X199430995Y-93959002D01*
X62555995Y-103709002D02*
X48555995Y-103709002D01*
X191855998Y-92159003D02*
X192680995Y-92159003D01*
X162855998Y-117709002D02*
X176855998Y-117709002D01*
X86368000Y-65609003D02*
X72368000Y-65609003D01*
X253056011Y-127234004D02*
X253056011Y-113234004D01*
X324493999Y-103709002D02*
X310493999Y-103709002D01*
X14930999Y-136759006D02*
X14930999Y-122759006D01*
X19980998Y-136759006D02*
X33980998Y-136759006D01*
X105419002Y-65609003D02*
X91417995Y-65609003D01*
X272393993Y-103709002D02*
X272393993Y-117709002D01*
X310493999Y-84659003D02*
X310493999Y-98659003D01*
X218206005Y-99409003D02*
X221505992Y-99409003D01*
X197706005Y-86129003D02*
X197706005Y-85209002D01*
X162855998Y-103709002D02*
X162855998Y-117709002D01*
X91131000Y-98659003D02*
X91131000Y-84659003D01*
X-6500002Y-84659003D02*
X-20500002Y-84659003D01*
X291444011Y-79609002D02*
X305444011Y-79609002D01*
X103036998Y-127459002D02*
X103036998Y-122759006D01*
X-15738002Y-117709002D02*
X-1738001Y-117709002D01*
X194406002Y-99409003D02*
X197706005Y-99409003D01*
X153331005Y-98659003D02*
X167331005Y-98659003D01*
X305444011Y-117709002D02*
X305444011Y-103709002D01*
X214956005Y-84659003D02*
X200956005Y-84659003D01*
X103036998Y-122759006D02*
X89036998Y-122759006D01*
X162568996Y-65609003D02*
X148568996Y-65609003D01*
X41837001Y-127459002D02*
X41837001Y-130259006D01*
X53318996Y-65609003D02*
X53318996Y-79609002D01*
X110469005Y-65609003D02*
X110469005Y-79609002D01*
X19980998Y-122759006D02*
X19980998Y-136759006D01*
X105706005Y-103709002D02*
X105706005Y-117709002D01*
X15218997Y-79609002D02*
X29218997Y-79609002D01*
X216480998Y-86129003D02*
X216480998Y-89359002D01*
X24455997Y-103709002D02*
X10455997Y-103709002D01*
X-1738001Y-103709002D02*
X-15738002Y-103709002D01*
X272105998Y-146283999D02*
X272105998Y-132283999D01*
X144387004Y-124229007D02*
X142661998Y-124229007D01*
X86656002Y-103709002D02*
X86656002Y-117709002D01*
X142661998Y-124229007D02*
X142661998Y-127459002D01*
X149411998Y-136529002D02*
X149411998Y-130259006D01*
X181906002Y-117709002D02*
X195906002Y-117709002D01*
X-22881002Y-79609002D02*
X-8881003Y-79609002D01*
X10455997Y-117709002D02*
X24455997Y-117709002D01*
X208100002Y-79609002D02*
X222100002Y-79609002D01*
X291444011Y-103709002D02*
X291444011Y-117709002D01*
X48555995Y-117709002D02*
X62555995Y-117709002D01*
X-8881003Y-65609003D02*
X-22881002Y-65609003D01*
X67605998Y-117709002D02*
X81605998Y-117709002D01*
X223230998Y-98429004D02*
X223230998Y-92159003D01*
X138755992Y-117709002D02*
X138755992Y-103709002D01*
X198286998Y-122759006D02*
X184286998Y-122759006D01*
X324493999Y-122759006D02*
X310493999Y-122759006D01*
X44386997Y-136529002D02*
X44386997Y-137509006D01*
X72080997Y-98659003D02*
X72080997Y-84659003D01*
X234005992Y-132283999D02*
X220005992Y-132283999D01*
X48555995Y-103709002D02*
X48555995Y-117709002D01*
X223230998Y-86129003D02*
X221505992Y-86129003D01*
X39031002Y-84659003D02*
X39031002Y-98659003D01*
X129518993Y-79609002D02*
X143518993Y-79609002D01*
X62555995Y-117709002D02*
X62555995Y-103709002D01*
X143805995Y-117709002D02*
X157805995Y-117709002D01*
X286393993Y-98659003D02*
X286393993Y-84659003D01*
X149411998Y-127459002D02*
X149411998Y-124229007D01*
X198286998Y-136759006D02*
X198286998Y-122759006D01*
X10168998Y-79609002D02*
X10168998Y-65609003D01*
X272393993Y-79609002D02*
X286393993Y-79609002D01*
X214956005Y-93959002D02*
X216480998Y-93959002D01*
X86656002Y-117709002D02*
X100656002Y-117709002D01*
X49411998Y-127459002D02*
X49411998Y-124229007D01*
X310493999Y-79609002D02*
X324493999Y-79609002D01*
X324493999Y-84659003D02*
X310493999Y-84659003D01*
X192680995Y-92159003D02*
X192680995Y-98429004D01*
D12*
X265473998Y-83244003D02*
G75*
G03*
X265473998Y-83244003I-17000000J0D01*
G01*
D10*
X43506000Y-103709002D02*
X29505996Y-103709002D01*
X291444011Y-84659003D02*
X291444011Y-98659003D01*
X197706005Y-99409003D02*
X197706005Y-98429004D01*
X89036998Y-127459002D02*
X49411998Y-127459002D01*
X199430995Y-89359002D02*
X199430995Y-86129003D01*
X239056011Y-132283999D02*
X239056011Y-146283999D01*
X-15738002Y-103709002D02*
X-15738002Y-117709002D01*
X29505996Y-103709002D02*
X29505996Y-117709002D01*
X33980998Y-136759006D02*
X33980998Y-122759006D01*
X81605998Y-117709002D02*
X81605998Y-103709002D01*
X253056011Y-113234004D02*
X239056011Y-113234004D01*
X53318996Y-79609002D02*
X67318996Y-79609002D01*
X148568996Y-79609002D02*
X162568996Y-79609002D01*
X234005992Y-146283999D02*
X234005992Y-132283999D01*
X110180995Y-98659003D02*
X110180995Y-84659003D01*
X191855998Y-89359002D02*
X191855998Y-92159003D01*
X42661998Y-127459002D02*
X41837001Y-127459002D01*
X160475002Y-122759006D02*
X160475002Y-136759006D01*
X239056011Y-127234004D02*
X253056011Y-127234004D01*
X150236995Y-127459002D02*
X149411998Y-127459002D01*
X291444011Y-117709002D02*
X305444011Y-117709002D01*
X194406002Y-85209002D02*
X194406002Y-86129003D01*
X48269001Y-65609003D02*
X34269001Y-65609003D01*
X239056011Y-146283999D02*
X253056011Y-146283999D01*
X96180995Y-84659003D02*
X96180995Y-98659003D01*
X194406002Y-86129003D02*
X192680995Y-86129003D01*
X143518993Y-79609002D02*
X143518993Y-65609003D01*
X89036998Y-122759006D02*
X89036998Y-127459002D01*
X47687000Y-124229007D02*
X47687000Y-123308001D01*
X24455997Y-117709002D02*
X24455997Y-103709002D01*
X143805995Y-103709002D02*
X143805995Y-117709002D01*
X-22881002Y-65609003D02*
X-22881002Y-79609002D01*
X91417995Y-79609002D02*
X105419002Y-79609002D01*
X147686992Y-136529002D02*
X149411998Y-136529002D01*
X216480998Y-98429004D02*
X218206005Y-98429004D01*
X47687000Y-123308001D02*
X44386997Y-123308001D01*
X81605998Y-103709002D02*
X67605998Y-103709002D01*
X291444011Y-122759006D02*
X291444011Y-136759006D01*
X176855998Y-103709002D02*
X162855998Y-103709002D01*
X272393993Y-117709002D02*
X286393993Y-117709002D01*
X272105998Y-132283999D02*
X258105998Y-132283999D01*
X930997Y-136759006D02*
X14930999Y-136759006D01*
X148281002Y-84659003D02*
X134281002Y-84659003D01*
X148281002Y-98659003D02*
X148281002Y-84659003D01*
X110180995Y-84659003D02*
X96180995Y-84659003D01*
X272393993Y-84659003D02*
X272393993Y-98659003D01*
X29218997Y-79609002D02*
X29218997Y-65609003D01*
X44386997Y-137509006D02*
X47687000Y-137509006D01*
X222100002Y-65609003D02*
X208100002Y-65609003D01*
X157805995Y-117709002D02*
X157805995Y-103709002D01*
X72368000Y-79609002D02*
X86368000Y-79609002D01*
X-6500002Y-122759006D02*
X-20500002Y-122759006D01*
X181618999Y-79609002D02*
X181618999Y-65609003D01*
X42661998Y-130259006D02*
X42661998Y-136529002D01*
X138755992Y-103709002D02*
X124755992Y-103709002D01*
X144387004Y-123308001D02*
X144387004Y-124229007D01*
X34269001Y-65609003D02*
X34269001Y-79609002D01*
X49411998Y-124229007D02*
X47687000Y-124229007D01*
X100656002Y-117709002D02*
X100656002Y-103709002D01*
X195906002Y-117709002D02*
X195906002Y-103709002D01*
X324493999Y-117709002D02*
X324493999Y-103709002D01*
D11*
X275280000Y-143838255D02*
X275280000Y-139480000D01*
D10*
X186380992Y-98659003D02*
X186380992Y-84659003D01*
X149411998Y-124229007D02*
X147686992Y-124229007D01*
X115230998Y-98659003D02*
X129230998Y-98659003D01*
X214956005Y-89359002D02*
X214956005Y-84659003D01*
X124755992Y-117709002D02*
X138755992Y-117709002D01*
X200956005Y-84659003D02*
X200956005Y-89359002D01*
X194406002Y-98429004D02*
X194406002Y-99409003D01*
X203337001Y-103709002D02*
X203337001Y-117709002D01*
X134281002Y-98659003D02*
X148281002Y-98659003D01*
X200956005Y-93959002D02*
X200956005Y-98659003D01*
X327017381Y-68086621D02*
X326982617Y-134482618D01*
X144387004Y-136529002D02*
X144387004Y-137509006D01*
X142661998Y-127459002D02*
X103036998Y-127459002D01*
X147686992Y-124229007D02*
X147686992Y-123308001D01*
X-20500002Y-136759006D02*
X-6500002Y-136759006D01*
X253056011Y-132283999D02*
X239056011Y-132283999D01*
X48269001Y-79609002D02*
X48269001Y-65609003D01*
X29505996Y-117709002D02*
X43506000Y-117709002D01*
X286393993Y-103709002D02*
X272393993Y-103709002D01*
X186669002Y-65609003D02*
X186669002Y-79609002D01*
X10455997Y-103709002D02*
X10455997Y-117709002D01*
X49411998Y-132059001D02*
X89036998Y-132059001D01*
X100656002Y-103709002D02*
X86656002Y-103709002D01*
X200669002Y-65609003D02*
X186669002Y-65609003D01*
X222948256Y-148821744D02*
X270278256Y-148838255D01*
X58080997Y-84659003D02*
X58080997Y-98659003D01*
X19980998Y-98659003D02*
X33980998Y-98659003D01*
X310493999Y-122759006D02*
X310493999Y-136759006D01*
X176855998Y-117709002D02*
X176855998Y-103709002D01*
X272393993Y-65609003D02*
X272393993Y-79609002D01*
X310493999Y-103709002D02*
X310493999Y-117709002D01*
X119706005Y-103709002D02*
X105706005Y-103709002D01*
X110469005Y-79609002D02*
X124469005Y-79609002D01*
X39031002Y-98659003D02*
X53031002Y-98659003D01*
X291444011Y-65609003D02*
X291444011Y-79609002D01*
X192680995Y-89359002D02*
X191855998Y-89359002D01*
X103036998Y-136759006D02*
X103036998Y-132059001D01*
X184286998Y-122759006D02*
X184286998Y-136759006D01*
X129230998Y-84659003D02*
X115230998Y-84659003D01*
X29218997Y-65609003D02*
X15218997Y-65609003D01*
X195906002Y-103709002D02*
X181906002Y-103709002D01*
X72080997Y-84659003D02*
X58080997Y-84659003D01*
X147686992Y-123308001D02*
X144387004Y-123308001D01*
X-20405615Y-63084003D02*
X322017381Y-63084003D01*
X216480998Y-93959002D02*
X216480998Y-98429004D01*
X143518993Y-65609003D02*
X129518993Y-65609003D01*
X124469005Y-65609003D02*
X110469005Y-65609003D01*
X224055995Y-89359002D02*
X223230998Y-89359002D01*
X-1738001Y-117709002D02*
X-1738001Y-103709002D01*
X53031002Y-84659003D02*
X39031002Y-84659003D01*
X224055995Y-92159003D02*
X224055995Y-89359002D01*
X119706005Y-117709002D02*
X119706005Y-103709002D01*
X286393993Y-117709002D02*
X286393993Y-103709002D01*
X-20500002Y-84659003D02*
X-20500002Y-98659003D01*
X172380992Y-84659003D02*
X172380992Y-98659003D01*
X167331005Y-84659003D02*
X153331005Y-84659003D01*
X258105998Y-132283999D02*
X258105998Y-146283999D01*
X310493999Y-136759006D02*
X324493999Y-136759006D01*
X15218997Y-65609003D02*
X15218997Y-79609002D01*
X134281002Y-84659003D02*
X134281002Y-98659003D01*
X203337001Y-117709002D02*
X217337001Y-117709002D01*
X291444011Y-136759006D02*
X305444011Y-136759006D01*
X33980998Y-98659003D02*
X33980998Y-84659003D01*
X186669002Y-79609002D02*
X200669002Y-79609002D01*
X86368000Y-79609002D02*
X86368000Y-65609003D01*
X115230998Y-84659003D02*
X115230998Y-98659003D01*
X221505992Y-99409003D02*
X221505992Y-98429004D01*
X305444011Y-103709002D02*
X291444011Y-103709002D01*
X67605998Y-103709002D02*
X67605998Y-117709002D01*
X192680995Y-98429004D02*
X194406002Y-98429004D01*
X-3831002Y-79609002D02*
X10168998Y-79609002D01*
X217337001Y-103709002D02*
X203337001Y-103709002D01*
X200956005Y-98659003D02*
X214956005Y-98659003D01*
X47687000Y-137509006D02*
X47687000Y-136529002D01*
X220005992Y-132283999D02*
X220005992Y-146283999D01*
X44386997Y-123308001D02*
X44386997Y-124229007D01*
X149411998Y-130259006D02*
X150236995Y-130259006D01*
X305444011Y-122759006D02*
X291444011Y-122759006D01*
X96180995Y-98659003D02*
X110180995Y-98659003D01*
X172380992Y-98659003D02*
X186380992Y-98659003D01*
X199430995Y-86129003D02*
X197706005Y-86129003D01*
X214956005Y-98659003D02*
X214956005Y-93959002D01*
X310493999Y-117709002D02*
X324493999Y-117709002D01*
X930997Y-84659003D02*
X930997Y-98659003D01*
D11*
X-25400387Y-135590387D02*
X-25405615Y-68084390D01*
D10*
X930997Y-122759006D02*
X930997Y-136759006D01*
X43506000Y-117709002D02*
X43506000Y-103709002D01*
X930997Y-98659003D02*
X14930999Y-98659003D01*
X184286998Y-136759006D02*
X198286998Y-136759006D01*
X49411998Y-136529002D02*
X49411998Y-132059001D01*
X77131000Y-98659003D02*
X91131000Y-98659003D01*
X58080997Y-98659003D02*
X72080997Y-98659003D01*
X167618999Y-79609002D02*
X181618999Y-79609002D01*
X-20500002Y-98659003D02*
X-6500002Y-98659003D01*
X14930999Y-84659003D02*
X930997Y-84659003D01*
D11*
X275280000Y-139480000D02*
X321982617Y-139480000D01*
D10*
X239056011Y-113234004D02*
X239056011Y-127234004D01*
X221505992Y-98429004D02*
X223230998Y-98429004D01*
X200956005Y-89359002D02*
X199430995Y-89359002D01*
X44386997Y-124229007D02*
X42661998Y-124229007D01*
X67318996Y-65609003D02*
X53318996Y-65609003D01*
X324493999Y-79609002D02*
X324493999Y-65609003D01*
X77131000Y-84659003D02*
X77131000Y-98659003D01*
X291444011Y-98659003D02*
X305444011Y-98659003D01*
X305444011Y-65609003D02*
X291444011Y-65609003D01*
X41837001Y-130259006D02*
X42661998Y-130259006D01*
X305444011Y-84659003D02*
X291444011Y-84659003D01*
X305444011Y-79609002D02*
X305444011Y-65609003D01*
X148568996Y-65609003D02*
X148568996Y-79609002D01*
X216480998Y-89359002D02*
X214956005Y-89359002D01*
X10168998Y-65609003D02*
X-3831002Y-65609003D01*
D11*
X217950000Y-140590000D02*
X217950000Y-143821744D01*
D10*
X324493999Y-136759006D02*
X324493999Y-122759006D01*
X223230998Y-89359002D02*
X223230998Y-86129003D01*
X34269001Y-79609002D02*
X48269001Y-79609002D01*
X142661998Y-132059001D02*
X142661998Y-136529002D01*
X310493999Y-65609003D02*
X310493999Y-79609002D01*
X150236995Y-130259006D02*
X150236995Y-127459002D01*
X-8881003Y-79609002D02*
X-8881003Y-65609003D01*
X310493999Y-98659003D02*
X324493999Y-98659003D01*
X91131000Y-84659003D02*
X77131000Y-84659003D01*
X221505992Y-85209002D02*
X218206005Y-85209002D01*
X33980998Y-122759006D02*
X19980998Y-122759006D01*
X181618999Y-65609003D02*
X167618999Y-65609003D01*
X124469005Y-79609002D02*
X124469005Y-65609003D01*
X42661998Y-136529002D02*
X44386997Y-136529002D01*
X286393993Y-65609003D02*
X272393993Y-65609003D01*
X167618999Y-65609003D02*
X167618999Y-79609002D01*
X223230998Y-92159003D02*
X224055995Y-92159003D01*
X160475002Y-136759006D02*
X174475002Y-136759006D01*
X14930999Y-98659003D02*
X14930999Y-84659003D01*
X47687000Y-136529002D02*
X49411998Y-136529002D01*
X218206005Y-85209002D02*
X218206005Y-86129003D01*
X-20500002Y-122759006D02*
X-20500002Y-136759006D01*
X192680995Y-86129003D02*
X192680995Y-89359002D01*
X103036998Y-132059001D02*
X142661998Y-132059001D01*
X153331005Y-84659003D02*
X153331005Y-98659003D01*
X19980998Y-84659003D02*
X19980998Y-98659003D01*
X67318996Y-79609002D02*
X67318996Y-65609003D01*
X53031002Y-98659003D02*
X53031002Y-84659003D01*
X218206005Y-98429004D02*
X218206005Y-99409003D01*
X286393993Y-84659003D02*
X272393993Y-84659003D01*
X199430995Y-93959002D02*
X200956005Y-93959002D01*
X197706005Y-98429004D02*
X199430995Y-98429004D01*
X200669002Y-79609002D02*
X200669002Y-65609003D01*
X33980998Y-84659003D02*
X19980998Y-84659003D01*
X181906002Y-103709002D02*
X181906002Y-117709002D01*
X129230998Y-98659003D02*
X129230998Y-84659003D01*
X142661998Y-136529002D02*
X144387004Y-136529002D01*
X167331005Y-98659003D02*
X167331005Y-84659003D01*
X305444011Y-136759006D02*
X305444011Y-122759006D01*
X14930999Y-122759006D02*
X930997Y-122759006D01*
X147686992Y-137509006D02*
X147686992Y-136529002D01*
X217337001Y-117709002D02*
X217337001Y-103709002D01*
X91417995Y-65609003D02*
X91417995Y-79609002D01*
X221505992Y-86129003D02*
X221505992Y-85209002D01*
X220005992Y-146283999D02*
X234005992Y-146283999D01*
X89036998Y-136759006D02*
X103036998Y-136759006D01*
X253056011Y-146283999D02*
X253056011Y-132283999D01*
X324493999Y-65609003D02*
X310493999Y-65609003D01*
X105706005Y-117709002D02*
X119706005Y-117709002D01*
M02*
