G04 #@! TF.GenerationSoftware,KiCad,Pcbnew,7.0.1*
G04 #@! TF.CreationDate,2023-03-23T13:52:39-07:00*
G04 #@! TF.ProjectId,mcu daughterboard,6d637520-6461-4756-9768-746572626f61,rev?*
G04 #@! TF.SameCoordinates,Original*
G04 #@! TF.FileFunction,Legend,Bot*
G04 #@! TF.FilePolarity,Positive*
%FSLAX46Y46*%
G04 Gerber Fmt 4.6, Leading zero omitted, Abs format (unit mm)*
G04 Created by KiCad (PCBNEW 7.0.1) date 2023-03-23 13:52:39*
%MOMM*%
%LPD*%
G01*
G04 APERTURE LIST*
%ADD10C,0.000000*%
%ADD11C,0.150000*%
%ADD12C,0.120000*%
G04 APERTURE END LIST*
D10*
G36*
X142859164Y-109995220D02*
G01*
X142914617Y-109996854D01*
X142980735Y-109999302D01*
X143148773Y-110005555D01*
X143718068Y-110028706D01*
X144321759Y-110058472D01*
X144467804Y-110064949D01*
X144623605Y-110070599D01*
X144770476Y-110074595D01*
X144889731Y-110076111D01*
X144985519Y-110076641D01*
X145024498Y-110077715D01*
X145058073Y-110079694D01*
X145086644Y-110082850D01*
X145099180Y-110084956D01*
X145110617Y-110087459D01*
X145121005Y-110090393D01*
X145130394Y-110093794D01*
X145138834Y-110097694D01*
X145146377Y-110102128D01*
X145153072Y-110107131D01*
X145158971Y-110112736D01*
X145164122Y-110118979D01*
X145168577Y-110125892D01*
X145172387Y-110133511D01*
X145175600Y-110141870D01*
X145178269Y-110151002D01*
X145180442Y-110160943D01*
X145183507Y-110183385D01*
X145185196Y-110209470D01*
X145185915Y-110239473D01*
X145186065Y-110273666D01*
X145186065Y-110393611D01*
X145092578Y-110393611D01*
X144915859Y-110389229D01*
X144587665Y-110378397D01*
X143863148Y-110351277D01*
X143577398Y-110338268D01*
X143175231Y-110321290D01*
X142986413Y-110312857D01*
X142830171Y-110304093D01*
X142722546Y-110295990D01*
X142691977Y-110292497D01*
X142679579Y-110289541D01*
X142679098Y-110288860D01*
X142678648Y-110287818D01*
X142677842Y-110284687D01*
X142677160Y-110280227D01*
X142676602Y-110274520D01*
X142676168Y-110267645D01*
X142675858Y-110259682D01*
X142675610Y-110240814D01*
X142675858Y-110218555D01*
X142676602Y-110193547D01*
X142677842Y-110166431D01*
X142679579Y-110137847D01*
X142681205Y-110108553D01*
X142682086Y-110083328D01*
X142683175Y-110061902D01*
X142684094Y-110052528D01*
X142685421Y-110044002D01*
X142687276Y-110036291D01*
X142689776Y-110029359D01*
X142693041Y-110023173D01*
X142697190Y-110017699D01*
X142702341Y-110012904D01*
X142708614Y-110008753D01*
X142716126Y-110005212D01*
X142724998Y-110002248D01*
X142735348Y-109999826D01*
X142747295Y-109997914D01*
X142760957Y-109996475D01*
X142776454Y-109995478D01*
X142793905Y-109994888D01*
X142813427Y-109994671D01*
X142859164Y-109995220D01*
G37*
G36*
X143261855Y-108583612D02*
G01*
X143278071Y-108584463D01*
X143282609Y-108585004D01*
X143284593Y-108585624D01*
X143286921Y-108586326D01*
X143292475Y-108587102D01*
X143312594Y-108588849D01*
X143343628Y-108590802D01*
X143384252Y-108592900D01*
X143488983Y-108597282D01*
X143616203Y-108601499D01*
X143937672Y-108614949D01*
X144251203Y-108629722D01*
X144571570Y-108644494D01*
X144909134Y-108657943D01*
X145042732Y-108662422D01*
X145143483Y-108667645D01*
X145182905Y-108671026D01*
X145215751Y-108675183D01*
X145242566Y-108680311D01*
X145263896Y-108686607D01*
X145272675Y-108690254D01*
X145280286Y-108694267D01*
X145286798Y-108698670D01*
X145292280Y-108703488D01*
X145296800Y-108708745D01*
X145300425Y-108714466D01*
X145303224Y-108720675D01*
X145305265Y-108727397D01*
X145307345Y-108742478D01*
X145307211Y-108759905D01*
X145302481Y-108802583D01*
X145298595Y-108837585D01*
X145295205Y-108873579D01*
X145293851Y-108890605D01*
X145292808Y-108906266D01*
X145292136Y-108920026D01*
X145291898Y-108931346D01*
X145291796Y-108937112D01*
X145291492Y-108942498D01*
X145290991Y-108947496D01*
X145290300Y-108952099D01*
X145289422Y-108956299D01*
X145288363Y-108960089D01*
X145287129Y-108963459D01*
X145285724Y-108966404D01*
X145284154Y-108968914D01*
X145283309Y-108970004D01*
X145282424Y-108970982D01*
X145281500Y-108971848D01*
X145280539Y-108972601D01*
X145279539Y-108973240D01*
X145278503Y-108973763D01*
X145277431Y-108974169D01*
X145276324Y-108974459D01*
X145275181Y-108974630D01*
X145274004Y-108974683D01*
X145272794Y-108974615D01*
X145271550Y-108974426D01*
X145270275Y-108974114D01*
X145268967Y-108973680D01*
X145255263Y-108972199D01*
X145223492Y-108970428D01*
X145114186Y-108966183D01*
X144957917Y-108961277D01*
X144771551Y-108956041D01*
X144333665Y-108943473D01*
X144122164Y-108936446D01*
X143951343Y-108929583D01*
X143061901Y-108889234D01*
X142824217Y-108877245D01*
X142741314Y-108871375D01*
X142741045Y-108870312D01*
X142740894Y-108867836D01*
X142740929Y-108858944D01*
X142741377Y-108845298D01*
X142742197Y-108827497D01*
X142744787Y-108781829D01*
X142748370Y-108726736D01*
X142760717Y-108585624D01*
X143020009Y-108583860D01*
X143121130Y-108582896D01*
X143204556Y-108582758D01*
X143261855Y-108583612D01*
G37*
G36*
X129416898Y-121894166D02*
G01*
X129134676Y-121894166D01*
X129134676Y-121611944D01*
X129416898Y-121611944D01*
X129416898Y-121894166D01*
G37*
G36*
X140187613Y-108244928D02*
G01*
X140208050Y-108245489D01*
X140229564Y-108246434D01*
X140252164Y-108247762D01*
X140275856Y-108249469D01*
X140326550Y-108254014D01*
X140346770Y-108256342D01*
X140364529Y-108258916D01*
X140372532Y-108260397D01*
X140379974Y-108262063D01*
X140386873Y-108263955D01*
X140393248Y-108266112D01*
X140399116Y-108268578D01*
X140404496Y-108271391D01*
X140409406Y-108274595D01*
X140413863Y-108278229D01*
X140417887Y-108282334D01*
X140421494Y-108286952D01*
X140424704Y-108292124D01*
X140427533Y-108297890D01*
X140430001Y-108304291D01*
X140432126Y-108311370D01*
X140433924Y-108319166D01*
X140435416Y-108327721D01*
X140436618Y-108337075D01*
X140437548Y-108347270D01*
X140438226Y-108358347D01*
X140438668Y-108370347D01*
X140438919Y-108397278D01*
X140438447Y-108428393D01*
X140437397Y-108464019D01*
X140435912Y-108504485D01*
X140407690Y-109441111D01*
X140390712Y-110031793D01*
X140377703Y-110425361D01*
X140367120Y-110677596D01*
X140134287Y-110665249D01*
X139970025Y-110655327D01*
X139919230Y-110651607D01*
X139905067Y-110650274D01*
X139899690Y-110649375D01*
X139899131Y-110647275D01*
X139898773Y-110641754D01*
X139898642Y-110621152D01*
X139899256Y-110588975D01*
X139900572Y-110546628D01*
X139905147Y-110437046D01*
X139912037Y-110303652D01*
X139925928Y-109958151D01*
X139938495Y-109608680D01*
X139962308Y-108762674D01*
X139975537Y-108449805D01*
X139979209Y-108393295D01*
X139982758Y-108350614D01*
X139984705Y-108333768D01*
X139986885Y-108319549D01*
X139989385Y-108307682D01*
X139992294Y-108297890D01*
X139995698Y-108289896D01*
X139999687Y-108283424D01*
X140004347Y-108278197D01*
X140009767Y-108273939D01*
X140016035Y-108270374D01*
X140023237Y-108267225D01*
X140040801Y-108261068D01*
X140050889Y-108257637D01*
X140061978Y-108254616D01*
X140074074Y-108252003D01*
X140087185Y-108249796D01*
X140101320Y-108247992D01*
X140116486Y-108246589D01*
X140132690Y-108245583D01*
X140149941Y-108244973D01*
X140168246Y-108244756D01*
X140187613Y-108244928D01*
G37*
G36*
X142859982Y-109285456D02*
G01*
X142907561Y-109286109D01*
X143026507Y-109288972D01*
X143179476Y-109293964D01*
X143369238Y-109301146D01*
X143598565Y-109310582D01*
X144514023Y-109351152D01*
X144688427Y-109358649D01*
X144857540Y-109364822D01*
X145002179Y-109369012D01*
X145103162Y-109370555D01*
X145279551Y-109370555D01*
X145267203Y-109515194D01*
X145264403Y-109545025D01*
X145261333Y-109573265D01*
X145258057Y-109599313D01*
X145254636Y-109622571D01*
X145251132Y-109642438D01*
X145247608Y-109658317D01*
X145245857Y-109664573D01*
X145244125Y-109669606D01*
X145242418Y-109673343D01*
X145240745Y-109675708D01*
X145223208Y-109678409D01*
X145179161Y-109679952D01*
X145023236Y-109679897D01*
X144521960Y-109669534D01*
X143924112Y-109649911D01*
X143416884Y-109626319D01*
X143241763Y-109616232D01*
X143075572Y-109607798D01*
X142937161Y-109602011D01*
X142845384Y-109599861D01*
X142695454Y-109599861D01*
X142706037Y-109453458D01*
X142713313Y-109346963D01*
X142716620Y-109294708D01*
X142717258Y-109293277D01*
X142719200Y-109291960D01*
X142722489Y-109290759D01*
X142727169Y-109289675D01*
X142740875Y-109287859D01*
X142760662Y-109286522D01*
X142786879Y-109285671D01*
X142819870Y-109285313D01*
X142859982Y-109285456D01*
G37*
G36*
X146678127Y-108195709D02*
G01*
X146696505Y-108289760D01*
X146711856Y-108387204D01*
X146717775Y-108434267D01*
X146722412Y-108479791D01*
X146727311Y-108572375D01*
X146730184Y-108709152D01*
X146730349Y-109055260D01*
X146723900Y-109398061D01*
X146718505Y-109530704D01*
X146711829Y-109617500D01*
X146707763Y-109660625D01*
X146703450Y-109726034D01*
X146693749Y-109928826D01*
X146682063Y-110236128D01*
X146667731Y-110658194D01*
X146653179Y-111094315D01*
X146641273Y-111363749D01*
X146636147Y-111466689D01*
X146629367Y-111635609D01*
X146621925Y-111847193D01*
X146614815Y-112078125D01*
X146603311Y-112404444D01*
X146582844Y-112984984D01*
X146544259Y-113930208D01*
X146529707Y-114326201D01*
X146517801Y-114732777D01*
X146515156Y-114829791D01*
X146513308Y-114897591D01*
X146508320Y-115040576D01*
X146503662Y-115146519D01*
X146500162Y-115200208D01*
X146497940Y-115219225D01*
X146495284Y-115253786D01*
X146488917Y-115361604D01*
X146481558Y-115507786D01*
X146473704Y-115676458D01*
X146447245Y-116320277D01*
X146434264Y-116588140D01*
X146418803Y-116855838D01*
X146404333Y-117065658D01*
X146398556Y-117130828D01*
X146394329Y-117159887D01*
X146394070Y-117161132D01*
X146393953Y-117162546D01*
X146393974Y-117164125D01*
X146394132Y-117165861D01*
X146394844Y-117169786D01*
X146396065Y-117174274D01*
X146397771Y-117179279D01*
X146399941Y-117184755D01*
X146402549Y-117190653D01*
X146405573Y-117196930D01*
X146408990Y-117203537D01*
X146412777Y-117210428D01*
X146416910Y-117217557D01*
X146421366Y-117224877D01*
X146426121Y-117232341D01*
X146431153Y-117239904D01*
X146436438Y-117247519D01*
X146441954Y-117255139D01*
X146447835Y-117263510D01*
X146454194Y-117273329D01*
X146460972Y-117284470D01*
X146468109Y-117296810D01*
X146483222Y-117324592D01*
X146499059Y-117355680D01*
X146515145Y-117389084D01*
X146531002Y-117423811D01*
X146546157Y-117458868D01*
X146560134Y-117493263D01*
X146625398Y-117660833D01*
X146782384Y-117779014D01*
X146813567Y-117803434D01*
X146816019Y-117805472D01*
X146843576Y-117828358D01*
X146872355Y-117853711D01*
X146899848Y-117879418D01*
X146925997Y-117905404D01*
X146950746Y-117931594D01*
X146974037Y-117957913D01*
X146995815Y-117984286D01*
X147016021Y-118010639D01*
X147034600Y-118036897D01*
X147051493Y-118062983D01*
X147066646Y-118088825D01*
X147080000Y-118114346D01*
X147091499Y-118139471D01*
X147101086Y-118164127D01*
X147108704Y-118188237D01*
X147110538Y-118195256D01*
X147112714Y-118202392D01*
X147115199Y-118209595D01*
X147117964Y-118216817D01*
X147120977Y-118224007D01*
X147124206Y-118231117D01*
X147127622Y-118238098D01*
X147131193Y-118244901D01*
X147134888Y-118251476D01*
X147138676Y-118257775D01*
X147142526Y-118263749D01*
X147146407Y-118269347D01*
X147150288Y-118274522D01*
X147154137Y-118279224D01*
X147157925Y-118283404D01*
X147161620Y-118287013D01*
X147164670Y-118289985D01*
X147167539Y-118293036D01*
X147170234Y-118296296D01*
X147172758Y-118299894D01*
X147175119Y-118303962D01*
X147177321Y-118308628D01*
X147179370Y-118314024D01*
X147181271Y-118320279D01*
X147183030Y-118327524D01*
X147184653Y-118335889D01*
X147186144Y-118345503D01*
X147187510Y-118356498D01*
X147188756Y-118369002D01*
X147189887Y-118383148D01*
X147190909Y-118399063D01*
X147191827Y-118416880D01*
X147192647Y-118436727D01*
X147193374Y-118458736D01*
X147194014Y-118483035D01*
X147194573Y-118509756D01*
X147195055Y-118539029D01*
X147195466Y-118570983D01*
X147196099Y-118643457D01*
X147196514Y-118728220D01*
X147196757Y-118826313D01*
X147196898Y-119066653D01*
X147196898Y-119814541D01*
X147147509Y-119788083D01*
X147138438Y-119782752D01*
X147128437Y-119776032D01*
X147117526Y-119767937D01*
X147105727Y-119758483D01*
X147093059Y-119747685D01*
X147079544Y-119735560D01*
X147065202Y-119722121D01*
X147050054Y-119707386D01*
X147034121Y-119691369D01*
X147017422Y-119674086D01*
X146999980Y-119655552D01*
X146981814Y-119635783D01*
X146962945Y-119614795D01*
X146943394Y-119592602D01*
X146923182Y-119569221D01*
X146902329Y-119544667D01*
X146896712Y-119537891D01*
X146891132Y-119531472D01*
X146885624Y-119525435D01*
X146880225Y-119519807D01*
X146874970Y-119514612D01*
X146869896Y-119509878D01*
X146865040Y-119505629D01*
X146860436Y-119501892D01*
X146856122Y-119498693D01*
X146852134Y-119496056D01*
X146848507Y-119494009D01*
X146845278Y-119492577D01*
X146843824Y-119492099D01*
X146842483Y-119491785D01*
X146841260Y-119491638D01*
X146840158Y-119491660D01*
X146839184Y-119491856D01*
X146838340Y-119492228D01*
X146837632Y-119492779D01*
X146837065Y-119493513D01*
X146835891Y-119496629D01*
X146834371Y-119502567D01*
X146830395Y-119522287D01*
X146825344Y-119551432D01*
X146819426Y-119588763D01*
X146812846Y-119633039D01*
X146805811Y-119683021D01*
X146798528Y-119737467D01*
X146791204Y-119795138D01*
X146774336Y-119911307D01*
X146756808Y-120016727D01*
X146748415Y-120061841D01*
X146740602Y-120099988D01*
X146733615Y-120129743D01*
X146727704Y-120149679D01*
X146723922Y-120158484D01*
X146719859Y-120167036D01*
X146715522Y-120175331D01*
X146710919Y-120183362D01*
X146706058Y-120191127D01*
X146700945Y-120198619D01*
X146695591Y-120205834D01*
X146690000Y-120212767D01*
X146684183Y-120219413D01*
X146678146Y-120225767D01*
X146671897Y-120231825D01*
X146665444Y-120237582D01*
X146658794Y-120243032D01*
X146651956Y-120248172D01*
X146644937Y-120252995D01*
X146637745Y-120257498D01*
X146630388Y-120261675D01*
X146622873Y-120265522D01*
X146615208Y-120269033D01*
X146607401Y-120272205D01*
X146599459Y-120275031D01*
X146591391Y-120277508D01*
X146583205Y-120279630D01*
X146574907Y-120281393D01*
X146566505Y-120282791D01*
X146558008Y-120283820D01*
X146549424Y-120284475D01*
X146540759Y-120284752D01*
X146532022Y-120284644D01*
X146523220Y-120284148D01*
X146514361Y-120283259D01*
X146505454Y-120281971D01*
X146487971Y-120278923D01*
X146471836Y-120275691D01*
X146456953Y-120272217D01*
X146443221Y-120268440D01*
X146430544Y-120264301D01*
X146418823Y-120259741D01*
X146407960Y-120254700D01*
X146397856Y-120249120D01*
X146388414Y-120242940D01*
X146379535Y-120236101D01*
X146371122Y-120228543D01*
X146363075Y-120220208D01*
X146355296Y-120211036D01*
X146347689Y-120200967D01*
X146340154Y-120189942D01*
X146332592Y-120177902D01*
X146324841Y-120164308D01*
X146321351Y-120157176D01*
X146318120Y-120149766D01*
X146315145Y-120142037D01*
X146312427Y-120133947D01*
X146309966Y-120125457D01*
X146307760Y-120116524D01*
X146305811Y-120107109D01*
X146304117Y-120097169D01*
X146301494Y-120075552D01*
X146299889Y-120051346D01*
X146299299Y-120024223D01*
X146299722Y-119993855D01*
X146301156Y-119959914D01*
X146303597Y-119922071D01*
X146307044Y-119879998D01*
X146311492Y-119833367D01*
X146316941Y-119781850D01*
X146323388Y-119725119D01*
X146330828Y-119662846D01*
X146340678Y-119581980D01*
X146347778Y-119518952D01*
X146352192Y-119471261D01*
X146353980Y-119436408D01*
X146353909Y-119423013D01*
X146353204Y-119411889D01*
X146351875Y-119402724D01*
X146349928Y-119395205D01*
X146347371Y-119389019D01*
X146344213Y-119383853D01*
X146340460Y-119379396D01*
X146336120Y-119375334D01*
X146330105Y-119371385D01*
X146324049Y-119367561D01*
X146318075Y-119363985D01*
X146312308Y-119360781D01*
X146309540Y-119359357D01*
X146306871Y-119358073D01*
X146304316Y-119356944D01*
X146301890Y-119355986D01*
X146299608Y-119355213D01*
X146297487Y-119354642D01*
X146295541Y-119354288D01*
X146293787Y-119354167D01*
X146291793Y-119354642D01*
X146289449Y-119356063D01*
X146286759Y-119358427D01*
X146283724Y-119361729D01*
X146276629Y-119371131D01*
X146268183Y-119384236D01*
X146258404Y-119401009D01*
X146247309Y-119421418D01*
X146234918Y-119445429D01*
X146221247Y-119473009D01*
X146206315Y-119504123D01*
X146190141Y-119538738D01*
X146154137Y-119618336D01*
X146113378Y-119711536D01*
X146068009Y-119818069D01*
X146045137Y-119871930D01*
X146021955Y-119924178D01*
X145999145Y-119973532D01*
X145977389Y-120018711D01*
X145957370Y-120058433D01*
X145939769Y-120091416D01*
X145925268Y-120116379D01*
X145914551Y-120132040D01*
X145907261Y-120140463D01*
X145900467Y-120147912D01*
X145897192Y-120151290D01*
X145893963Y-120154446D01*
X145890755Y-120157389D01*
X145887541Y-120160125D01*
X145884297Y-120162662D01*
X145880996Y-120165008D01*
X145877612Y-120167170D01*
X145874119Y-120169155D01*
X145870492Y-120170970D01*
X145866705Y-120172624D01*
X145862732Y-120174124D01*
X145858547Y-120175477D01*
X145854125Y-120176690D01*
X145849438Y-120177771D01*
X145844463Y-120178727D01*
X145839172Y-120179566D01*
X145833540Y-120180295D01*
X145827541Y-120180922D01*
X145821150Y-120181454D01*
X145814340Y-120181898D01*
X145799361Y-120182554D01*
X145782397Y-120182949D01*
X145763242Y-120183142D01*
X145741690Y-120183194D01*
X145700979Y-120182942D01*
X145684007Y-120182531D01*
X145669012Y-120181843D01*
X145655784Y-120180814D01*
X145644114Y-120179380D01*
X145633793Y-120177475D01*
X145624612Y-120175036D01*
X145616360Y-120171997D01*
X145608830Y-120168294D01*
X145601811Y-120163862D01*
X145595094Y-120158637D01*
X145588470Y-120152555D01*
X145581730Y-120145550D01*
X145574665Y-120137558D01*
X145567065Y-120128514D01*
X145560972Y-120121009D01*
X145555262Y-120113375D01*
X145549935Y-120105605D01*
X145544992Y-120097694D01*
X145540432Y-120089636D01*
X145536256Y-120081424D01*
X145532465Y-120073053D01*
X145529058Y-120064518D01*
X145526037Y-120055812D01*
X145523400Y-120046930D01*
X145521149Y-120037865D01*
X145519285Y-120028613D01*
X145517806Y-120019167D01*
X145516714Y-120009521D01*
X145516009Y-119999670D01*
X145515691Y-119989608D01*
X145515761Y-119979328D01*
X145516219Y-119968826D01*
X145517065Y-119958095D01*
X145518299Y-119947130D01*
X145521935Y-119924472D01*
X145527129Y-119900807D01*
X145533884Y-119876087D01*
X145542201Y-119850267D01*
X145552085Y-119823299D01*
X145563537Y-119795138D01*
X145587597Y-119736324D01*
X145622407Y-119647413D01*
X145706412Y-119428250D01*
X145808717Y-119160139D01*
X145761092Y-119036667D01*
X145750974Y-119011610D01*
X145740670Y-118988352D01*
X145730490Y-118967368D01*
X145720743Y-118949133D01*
X145716130Y-118941195D01*
X145711741Y-118934123D01*
X145707616Y-118927975D01*
X145703794Y-118922813D01*
X145700312Y-118918694D01*
X145697210Y-118915678D01*
X145694527Y-118913825D01*
X145693354Y-118913353D01*
X145692301Y-118913194D01*
X145651053Y-118910645D01*
X145595810Y-118906028D01*
X145465421Y-118892909D01*
X145345283Y-118878468D01*
X145302857Y-118872198D01*
X145279551Y-118867334D01*
X145272991Y-118865545D01*
X145267172Y-118864191D01*
X145264528Y-118863696D01*
X145262052Y-118863333D01*
X145259739Y-118863110D01*
X145257585Y-118863033D01*
X145255583Y-118863112D01*
X145253728Y-118863354D01*
X145252014Y-118863766D01*
X145250436Y-118864356D01*
X145248989Y-118865132D01*
X145247667Y-118866103D01*
X145246464Y-118867274D01*
X145245375Y-118868655D01*
X145244395Y-118870253D01*
X145243518Y-118872076D01*
X145242738Y-118874132D01*
X145242051Y-118876427D01*
X145241450Y-118878971D01*
X145240930Y-118881771D01*
X145240486Y-118884834D01*
X145240111Y-118888168D01*
X145239551Y-118895682D01*
X145239205Y-118904374D01*
X145239030Y-118914307D01*
X145238981Y-118925541D01*
X145238597Y-118940831D01*
X145237393Y-118955004D01*
X145236461Y-118961698D01*
X145235296Y-118968143D01*
X145233888Y-118974351D01*
X145232229Y-118980332D01*
X145230309Y-118986096D01*
X145228119Y-118991653D01*
X145225648Y-118997013D01*
X145222889Y-119002188D01*
X145219832Y-119007187D01*
X145216466Y-119012020D01*
X145212784Y-119016699D01*
X145208775Y-119021232D01*
X145204430Y-119025632D01*
X145199739Y-119029907D01*
X145194695Y-119034069D01*
X145189286Y-119038127D01*
X145183504Y-119042092D01*
X145177339Y-119045975D01*
X145170782Y-119049785D01*
X145163823Y-119053533D01*
X145148664Y-119060885D01*
X145131787Y-119068113D01*
X145113117Y-119075299D01*
X145092578Y-119082527D01*
X145065410Y-119091181D01*
X145053937Y-119094526D01*
X145043575Y-119097189D01*
X145034102Y-119099150D01*
X145025296Y-119100387D01*
X145021073Y-119100727D01*
X145016934Y-119100879D01*
X145012850Y-119100840D01*
X145008794Y-119100607D01*
X145004738Y-119100178D01*
X145000654Y-119099549D01*
X144996514Y-119098720D01*
X144992292Y-119097686D01*
X144983485Y-119094995D01*
X144974012Y-119091457D01*
X144963650Y-119087050D01*
X144952177Y-119081755D01*
X144925009Y-119068416D01*
X144904361Y-119058014D01*
X144886000Y-119047797D01*
X144877642Y-119042672D01*
X144869815Y-119037491D01*
X144862503Y-119032221D01*
X144855694Y-119026827D01*
X144849373Y-119021275D01*
X144843526Y-119015531D01*
X144838140Y-119009563D01*
X144833201Y-119003335D01*
X144828694Y-118996813D01*
X144824607Y-118989965D01*
X144820924Y-118982755D01*
X144817632Y-118975150D01*
X144814718Y-118967117D01*
X144812167Y-118958620D01*
X144809966Y-118949627D01*
X144808100Y-118940103D01*
X144806556Y-118930015D01*
X144805319Y-118919328D01*
X144804377Y-118908009D01*
X144803714Y-118896023D01*
X144803318Y-118883337D01*
X144803174Y-118869917D01*
X144803587Y-118840740D01*
X144804842Y-118808218D01*
X144806829Y-118772082D01*
X144817412Y-118604513D01*
X144644551Y-118609805D01*
X144600974Y-118610721D01*
X144543320Y-118610852D01*
X144395622Y-118608923D01*
X144221135Y-118604348D01*
X144039537Y-118597458D01*
X143597021Y-118578276D01*
X143139954Y-118560417D01*
X142654223Y-118540352D01*
X142143356Y-118516319D01*
X141559950Y-118489199D01*
X140899815Y-118463403D01*
X140283556Y-118440031D01*
X139806204Y-118419305D01*
X138977176Y-118384027D01*
X138263683Y-118356908D01*
X136825231Y-118304652D01*
X135394718Y-118251736D01*
X134832037Y-118225277D01*
X134660112Y-118216541D01*
X134419727Y-118206977D01*
X134142962Y-118197744D01*
X133861897Y-118189999D01*
X133293705Y-118171700D01*
X132856481Y-118154722D01*
X132486946Y-118140170D01*
X132275555Y-118133390D01*
X132080370Y-118128264D01*
X131863009Y-118122142D01*
X131679609Y-118115337D01*
X131524776Y-118107334D01*
X131393115Y-118097616D01*
X131279230Y-118085665D01*
X131177727Y-118070965D01*
X131083211Y-118052998D01*
X130990286Y-118031250D01*
X130896666Y-118006586D01*
X130813815Y-117982109D01*
X130775608Y-117969585D01*
X130739108Y-117956681D01*
X130703988Y-117943255D01*
X130669920Y-117929165D01*
X130636576Y-117914269D01*
X130603626Y-117898424D01*
X130570744Y-117881489D01*
X130537601Y-117863322D01*
X130503869Y-117843780D01*
X130469219Y-117822722D01*
X130395856Y-117775486D01*
X130329913Y-117729537D01*
X130265766Y-117680408D01*
X130203515Y-117628232D01*
X130143262Y-117573135D01*
X130085107Y-117515248D01*
X130029150Y-117454699D01*
X129975493Y-117391618D01*
X129924237Y-117326135D01*
X129875481Y-117258377D01*
X129829328Y-117188476D01*
X129785877Y-117116558D01*
X129745229Y-117042755D01*
X129719913Y-116992072D01*
X130683230Y-116992072D01*
X130683591Y-117016352D01*
X130684716Y-117039825D01*
X130686598Y-117062382D01*
X130689230Y-117083909D01*
X130692603Y-117104298D01*
X130696710Y-117123436D01*
X130701543Y-117141212D01*
X130707094Y-117157515D01*
X130713356Y-117172235D01*
X130720082Y-117185441D01*
X130727452Y-117197954D01*
X130735606Y-117209793D01*
X130744682Y-117220976D01*
X130754819Y-117231524D01*
X130766155Y-117241456D01*
X130778829Y-117250791D01*
X130792979Y-117259548D01*
X130808744Y-117267747D01*
X130826263Y-117275407D01*
X130845673Y-117282548D01*
X130867114Y-117289190D01*
X130890724Y-117295350D01*
X130916642Y-117301049D01*
X130945006Y-117306307D01*
X130975955Y-117311142D01*
X131009627Y-117315574D01*
X131046161Y-117319622D01*
X131085696Y-117323306D01*
X131128370Y-117326645D01*
X131174321Y-117329658D01*
X131223688Y-117332365D01*
X131333226Y-117336938D01*
X131458090Y-117340519D01*
X131599390Y-117343263D01*
X131758235Y-117345325D01*
X131935732Y-117346859D01*
X132558383Y-117352153D01*
X132609537Y-117295707D01*
X132614844Y-117289496D01*
X132620161Y-117282806D01*
X132625458Y-117275697D01*
X132630703Y-117268230D01*
X132635865Y-117260462D01*
X132640914Y-117252455D01*
X132645818Y-117244266D01*
X132650547Y-117235956D01*
X132655068Y-117227584D01*
X132659352Y-117219209D01*
X132663368Y-117210892D01*
X132667083Y-117202690D01*
X132670468Y-117194664D01*
X132673491Y-117186873D01*
X132676121Y-117179377D01*
X132678328Y-117172235D01*
X132680020Y-117162408D01*
X132681780Y-117147037D01*
X132685439Y-117100963D01*
X132688269Y-117052292D01*
X133076967Y-117052292D01*
X133077584Y-117088294D01*
X133078845Y-117121039D01*
X133080854Y-117150739D01*
X133083719Y-117177611D01*
X133087546Y-117201867D01*
X133092439Y-117223723D01*
X133098505Y-117243393D01*
X133105851Y-117261092D01*
X133110036Y-117269269D01*
X133114581Y-117277034D01*
X133119499Y-117284413D01*
X133124802Y-117291433D01*
X133130505Y-117298121D01*
X133136621Y-117304504D01*
X133150141Y-117316462D01*
X133165471Y-117327520D01*
X133182715Y-117337894D01*
X133201979Y-117347797D01*
X133223370Y-117357444D01*
X133238155Y-117363698D01*
X133253429Y-117369271D01*
X133261569Y-117371823D01*
X133270216Y-117374230D01*
X133279498Y-117376499D01*
X133289544Y-117378638D01*
X133300480Y-117380656D01*
X133312437Y-117382561D01*
X133339921Y-117386062D01*
X133373023Y-117389207D01*
X133412768Y-117392060D01*
X133460181Y-117394686D01*
X133516289Y-117397148D01*
X133582118Y-117399513D01*
X133658692Y-117401844D01*
X133848183Y-117406664D01*
X134092967Y-117412124D01*
X134681886Y-117428220D01*
X134889446Y-117435193D01*
X134999606Y-117440347D01*
X135092982Y-117445473D01*
X135257134Y-117452253D01*
X135468911Y-117459695D01*
X135705162Y-117466806D01*
X136281733Y-117487530D01*
X136851689Y-117510902D01*
X137514250Y-117537361D01*
X138315717Y-117563820D01*
X139692653Y-117608137D01*
X140626412Y-117643194D01*
X141283267Y-117668936D01*
X141845038Y-117687733D01*
X142309906Y-117699254D01*
X142676050Y-117703167D01*
X143118787Y-117704930D01*
X143155829Y-117662596D01*
X143161463Y-117655946D01*
X143166799Y-117649168D01*
X143171849Y-117642175D01*
X143176623Y-117634880D01*
X143181134Y-117627196D01*
X143185393Y-117619037D01*
X143189411Y-117610314D01*
X143193201Y-117600943D01*
X143196774Y-117590835D01*
X143200141Y-117579903D01*
X143203315Y-117568062D01*
X143206306Y-117555223D01*
X143209127Y-117541301D01*
X143211789Y-117526207D01*
X143214304Y-117509856D01*
X143216683Y-117492161D01*
X143221080Y-117452388D01*
X143223661Y-117422541D01*
X143621918Y-117422541D01*
X143622515Y-117468349D01*
X143624155Y-117508534D01*
X143626976Y-117543603D01*
X143631115Y-117574063D01*
X143636709Y-117600420D01*
X143643894Y-117623180D01*
X143652808Y-117642850D01*
X143663587Y-117659936D01*
X143676369Y-117674944D01*
X143691290Y-117688382D01*
X143708487Y-117700755D01*
X143728098Y-117712570D01*
X143750259Y-117724333D01*
X143763001Y-117730275D01*
X143775966Y-117735571D01*
X143782782Y-117737995D01*
X143789954Y-117740278D01*
X143797582Y-117742428D01*
X143805766Y-117744453D01*
X143814607Y-117746358D01*
X143824204Y-117748152D01*
X143834657Y-117749841D01*
X143846067Y-117751432D01*
X143872158Y-117754351D01*
X143903276Y-117756965D01*
X143940224Y-117759331D01*
X143983802Y-117761506D01*
X144034811Y-117763546D01*
X144094052Y-117765509D01*
X144162326Y-117767452D01*
X144240434Y-117769430D01*
X144429356Y-117773723D01*
X144902960Y-117785187D01*
X145082712Y-117791085D01*
X145191356Y-117796652D01*
X145346579Y-117805472D01*
X145254856Y-117623791D01*
X145218421Y-117548412D01*
X145185624Y-117478491D01*
X145160102Y-117422129D01*
X145151207Y-117401565D01*
X145145495Y-117387430D01*
X145140582Y-117374549D01*
X145133975Y-117358794D01*
X145125961Y-117340766D01*
X145116832Y-117321064D01*
X145106876Y-117300286D01*
X145096382Y-117279034D01*
X145085640Y-117257905D01*
X145074940Y-117237500D01*
X145043279Y-117178502D01*
X145012487Y-117119401D01*
X144983596Y-117062409D01*
X144957641Y-117009737D01*
X144935654Y-116963597D01*
X144918670Y-116926200D01*
X144907722Y-116899759D01*
X144904834Y-116891338D01*
X144903842Y-116886485D01*
X144903517Y-116884284D01*
X144902564Y-116881031D01*
X144901017Y-116876792D01*
X144898909Y-116871630D01*
X144893145Y-116858797D01*
X144885542Y-116843050D01*
X144876368Y-116824904D01*
X144865891Y-116804878D01*
X144854381Y-116783488D01*
X144842106Y-116761250D01*
X144818321Y-116718255D01*
X144798671Y-116681875D01*
X144785304Y-116656078D01*
X144781648Y-116648388D01*
X144780370Y-116644833D01*
X144780065Y-116643211D01*
X144779168Y-116640372D01*
X144775712Y-116631301D01*
X144770231Y-116618137D01*
X144762952Y-116601397D01*
X144754101Y-116581598D01*
X144743907Y-116559256D01*
X144732597Y-116534889D01*
X144720398Y-116509012D01*
X144693581Y-116450418D01*
X144663292Y-116385541D01*
X144607509Y-116267360D01*
X144541363Y-116121620D01*
X144454051Y-115932222D01*
X144405296Y-115828483D01*
X144348438Y-115709530D01*
X144238856Y-115484194D01*
X144124204Y-115256652D01*
X143983093Y-115267235D01*
X143947419Y-115270139D01*
X143915651Y-115273602D01*
X143887563Y-115277684D01*
X143874828Y-115279977D01*
X143862927Y-115282449D01*
X143851833Y-115285106D01*
X143841516Y-115287958D01*
X143831949Y-115291011D01*
X143823102Y-115294273D01*
X143814948Y-115297752D01*
X143807458Y-115301456D01*
X143800604Y-115305392D01*
X143794356Y-115309569D01*
X143789568Y-115313549D01*
X143784496Y-115318181D01*
X143779187Y-115323413D01*
X143773686Y-115329192D01*
X143768040Y-115335467D01*
X143762296Y-115342187D01*
X143756501Y-115349299D01*
X143750700Y-115356753D01*
X143744941Y-115364496D01*
X143739269Y-115372476D01*
X143733732Y-115380643D01*
X143728376Y-115388944D01*
X143723247Y-115397327D01*
X143718392Y-115405742D01*
X143713858Y-115414136D01*
X143709690Y-115422458D01*
X143703126Y-115436080D01*
X143697281Y-115449832D01*
X143694606Y-115457069D01*
X143692086Y-115464711D01*
X143689712Y-115472884D01*
X143687476Y-115481714D01*
X143685368Y-115491323D01*
X143683382Y-115501837D01*
X143681508Y-115513381D01*
X143679738Y-115526080D01*
X143678064Y-115540057D01*
X143676476Y-115555438D01*
X143673530Y-115590909D01*
X143672161Y-115612517D01*
X143670831Y-115633492D01*
X143668314Y-115684182D01*
X143665910Y-115743978D01*
X143663553Y-115813876D01*
X143661175Y-115894874D01*
X143658709Y-115987970D01*
X143653245Y-116214444D01*
X143625023Y-117246319D01*
X143622229Y-117370604D01*
X143621918Y-117422541D01*
X143223661Y-117422541D01*
X143225075Y-117406195D01*
X143228759Y-117352887D01*
X143232227Y-117291767D01*
X143235570Y-117222141D01*
X143238883Y-117143314D01*
X143245787Y-116955278D01*
X143281065Y-115967499D01*
X143286990Y-115765700D01*
X143288782Y-115612517D01*
X143288075Y-115554053D01*
X143286274Y-115507620D01*
X143283356Y-115473176D01*
X143279301Y-115450679D01*
X143273594Y-115431371D01*
X143267050Y-115413128D01*
X143259659Y-115395939D01*
X143251409Y-115379793D01*
X143242292Y-115364681D01*
X143232296Y-115350593D01*
X143226965Y-115343929D01*
X143221411Y-115337517D01*
X143215632Y-115331356D01*
X143209627Y-115325444D01*
X143203395Y-115319780D01*
X143196934Y-115314362D01*
X143190243Y-115309191D01*
X143183320Y-115304263D01*
X143168777Y-115295135D01*
X143153293Y-115286969D01*
X143136858Y-115279753D01*
X143119462Y-115273478D01*
X143101095Y-115268133D01*
X143081745Y-115263707D01*
X143048717Y-115259277D01*
X142990161Y-115254061D01*
X142909322Y-115248267D01*
X142809445Y-115242100D01*
X142565560Y-115229478D01*
X142284467Y-115217847D01*
X141190856Y-115173749D01*
X140028894Y-115125684D01*
X138933079Y-115085555D01*
X138499603Y-115071003D01*
X138201064Y-115059097D01*
X137715113Y-115041017D01*
X136927537Y-115015000D01*
X136521180Y-114999124D01*
X136388035Y-114992675D01*
X136327815Y-114988541D01*
X136307086Y-114986319D01*
X136263846Y-114983662D01*
X136120337Y-114977296D01*
X135918289Y-114969938D01*
X135678703Y-114962083D01*
X135229491Y-114948716D01*
X134861802Y-114935845D01*
X134505690Y-114920659D01*
X134091203Y-114900347D01*
X133728172Y-114884114D01*
X133593497Y-114879666D01*
X133486189Y-114877637D01*
X133403355Y-114878005D01*
X133342101Y-114880751D01*
X133299534Y-114885853D01*
X133272759Y-114893291D01*
X133265926Y-114896725D01*
X133259318Y-114900749D01*
X133252930Y-114905378D01*
X133246759Y-114910623D01*
X133240800Y-114916498D01*
X133235052Y-114923014D01*
X133229509Y-114930185D01*
X133224169Y-114938022D01*
X133219028Y-114946539D01*
X133214082Y-114955749D01*
X133209328Y-114965663D01*
X133204763Y-114976294D01*
X133200382Y-114987655D01*
X133196183Y-114999759D01*
X133192161Y-115012618D01*
X133188313Y-115026244D01*
X133184635Y-115040651D01*
X133181125Y-115055851D01*
X133174591Y-115088680D01*
X133170800Y-115111876D01*
X133168682Y-115124831D01*
X133163370Y-115164407D01*
X133158627Y-115207506D01*
X133154424Y-115254231D01*
X133150732Y-115304681D01*
X133147524Y-115358958D01*
X133101000Y-116374296D01*
X133083775Y-116812265D01*
X133076967Y-117052292D01*
X132688269Y-117052292D01*
X132689180Y-117036615D01*
X132692880Y-116956600D01*
X132696415Y-116863520D01*
X132699660Y-116759982D01*
X132702492Y-116648588D01*
X132704787Y-116531944D01*
X132709913Y-116293102D01*
X132716692Y-116067159D01*
X132724133Y-115879581D01*
X132731244Y-115755833D01*
X132738052Y-115654712D01*
X132744695Y-115528952D01*
X132750345Y-115394924D01*
X132754176Y-115269000D01*
X132755781Y-115180609D01*
X132756436Y-115111876D01*
X132755850Y-115059803D01*
X132755001Y-115039078D01*
X132753734Y-115021394D01*
X132752013Y-115006376D01*
X132749800Y-114993650D01*
X132747060Y-114982842D01*
X132743757Y-114973576D01*
X132739855Y-114965478D01*
X132735317Y-114958173D01*
X132730108Y-114951286D01*
X132724190Y-114944444D01*
X132715291Y-114934933D01*
X132706413Y-114926230D01*
X132697494Y-114918318D01*
X132688471Y-114911178D01*
X132679283Y-114904793D01*
X132674607Y-114901878D01*
X132669867Y-114899144D01*
X132665055Y-114896590D01*
X132660162Y-114894214D01*
X132655182Y-114892012D01*
X132650106Y-114889984D01*
X132644927Y-114888126D01*
X132639636Y-114886436D01*
X132634227Y-114884912D01*
X132628691Y-114883552D01*
X132623021Y-114882353D01*
X132617209Y-114881314D01*
X132605127Y-114879704D01*
X132592383Y-114878703D01*
X132578916Y-114878294D01*
X132564664Y-114878459D01*
X132549564Y-114879180D01*
X132479009Y-114882708D01*
X132406690Y-115067917D01*
X132373114Y-115146051D01*
X132330567Y-115235265D01*
X132280992Y-115332086D01*
X132226332Y-115433041D01*
X132168530Y-115534658D01*
X132109530Y-115633463D01*
X132051273Y-115725985D01*
X131995703Y-115808750D01*
X131948725Y-115874105D01*
X131901083Y-115937197D01*
X131852816Y-115997994D01*
X131803963Y-116056466D01*
X131754561Y-116112581D01*
X131704651Y-116166309D01*
X131654270Y-116217619D01*
X131603458Y-116266479D01*
X131552253Y-116312858D01*
X131500694Y-116356726D01*
X131448820Y-116398052D01*
X131396670Y-116436804D01*
X131344281Y-116472952D01*
X131291694Y-116506464D01*
X131238947Y-116537310D01*
X131186078Y-116565458D01*
X131128755Y-116592361D01*
X131068146Y-116618292D01*
X131006586Y-116642445D01*
X130946410Y-116664015D01*
X130889956Y-116682195D01*
X130839557Y-116696178D01*
X130817359Y-116701345D01*
X130797551Y-116705160D01*
X130780426Y-116707523D01*
X130766274Y-116708333D01*
X130759669Y-116708493D01*
X130756611Y-116708710D01*
X130753706Y-116709035D01*
X130750945Y-116709479D01*
X130748321Y-116710053D01*
X130745826Y-116710770D01*
X130743453Y-116711640D01*
X130741193Y-116712675D01*
X130739040Y-116713888D01*
X130736984Y-116715289D01*
X130735019Y-116716890D01*
X130733137Y-116718703D01*
X130731329Y-116720740D01*
X130729589Y-116723012D01*
X130727908Y-116725531D01*
X130726279Y-116728308D01*
X130724694Y-116731354D01*
X130723145Y-116734683D01*
X130721624Y-116738305D01*
X130720125Y-116742232D01*
X130718638Y-116746475D01*
X130717156Y-116751046D01*
X130715671Y-116755958D01*
X130712664Y-116766846D01*
X130709553Y-116779233D01*
X130706276Y-116793211D01*
X130702773Y-116808874D01*
X130697563Y-116835686D01*
X130693171Y-116862470D01*
X130689592Y-116889114D01*
X130686815Y-116915507D01*
X130684835Y-116941539D01*
X130683642Y-116967097D01*
X130683230Y-116992072D01*
X129719913Y-116992072D01*
X129707486Y-116967194D01*
X129672748Y-116890006D01*
X129641115Y-116811320D01*
X129612689Y-116731263D01*
X129584274Y-116644888D01*
X129561316Y-116570749D01*
X129552555Y-116540646D01*
X129545965Y-116516455D01*
X129541814Y-116499126D01*
X129540370Y-116489610D01*
X129540196Y-116488284D01*
X129539679Y-116486627D01*
X129537649Y-116482365D01*
X129534347Y-116476910D01*
X129529842Y-116470346D01*
X129524200Y-116462758D01*
X129517488Y-116454233D01*
X129509773Y-116444855D01*
X129501123Y-116434710D01*
X129491605Y-116423883D01*
X129481286Y-116412458D01*
X129470234Y-116400522D01*
X129458514Y-116388160D01*
X129446195Y-116375457D01*
X129433344Y-116362498D01*
X129420028Y-116349368D01*
X129406314Y-116336153D01*
X129378426Y-116307696D01*
X129349567Y-116277173D01*
X129320583Y-116245491D01*
X129292323Y-116213562D01*
X129265634Y-116182294D01*
X129241363Y-116152598D01*
X129220358Y-116125381D01*
X129211346Y-116112987D01*
X129203467Y-116101555D01*
X129134676Y-115999250D01*
X129134676Y-115281234D01*
X130708834Y-115281234D01*
X130709015Y-115288695D01*
X130709630Y-115294652D01*
X130710110Y-115297098D01*
X130710710Y-115299206D01*
X130711434Y-115300989D01*
X130712286Y-115302458D01*
X130713270Y-115303627D01*
X130714390Y-115304508D01*
X130715649Y-115305114D01*
X130717051Y-115305458D01*
X130718601Y-115305551D01*
X130720302Y-115305407D01*
X130724172Y-115304458D01*
X130728694Y-115302710D01*
X130733898Y-115300264D01*
X130739815Y-115297222D01*
X130747345Y-115292482D01*
X130755985Y-115285946D01*
X130776243Y-115267949D01*
X130799881Y-115244159D01*
X130826190Y-115215504D01*
X130854463Y-115182911D01*
X130883992Y-115147308D01*
X130914068Y-115109623D01*
X130943985Y-115070783D01*
X130973033Y-115031715D01*
X131000505Y-114993347D01*
X131025693Y-114956607D01*
X131047888Y-114922423D01*
X131066384Y-114891722D01*
X131080472Y-114865431D01*
X131089444Y-114844478D01*
X131091790Y-114836293D01*
X131092592Y-114829791D01*
X131092175Y-114828064D01*
X131090953Y-114826520D01*
X131088969Y-114825154D01*
X131086263Y-114823962D01*
X131082880Y-114822941D01*
X131078860Y-114822086D01*
X131069083Y-114820861D01*
X131057269Y-114820257D01*
X131043758Y-114820241D01*
X131028888Y-114820784D01*
X131012997Y-114821854D01*
X130996424Y-114823420D01*
X130979507Y-114825450D01*
X130962585Y-114827916D01*
X130945997Y-114830784D01*
X130930080Y-114834024D01*
X130915173Y-114837605D01*
X130901615Y-114841497D01*
X130889745Y-114845667D01*
X130880598Y-114849878D01*
X130871679Y-114854575D01*
X130862990Y-114859756D01*
X130854529Y-114865421D01*
X130846298Y-114871569D01*
X130838298Y-114878200D01*
X130830529Y-114885312D01*
X130822993Y-114892906D01*
X130815688Y-114900980D01*
X130808617Y-114909534D01*
X130801780Y-114918568D01*
X130795177Y-114928080D01*
X130788809Y-114938070D01*
X130782677Y-114948538D01*
X130776782Y-114959482D01*
X130771123Y-114970903D01*
X130765703Y-114982798D01*
X130760520Y-114995169D01*
X130755577Y-115008014D01*
X130750873Y-115021332D01*
X130746410Y-115035123D01*
X130742187Y-115049386D01*
X130738206Y-115064121D01*
X130734468Y-115079327D01*
X130730972Y-115095003D01*
X130727720Y-115111148D01*
X130721948Y-115144846D01*
X130717159Y-115180414D01*
X130713356Y-115217847D01*
X130710586Y-115248822D01*
X130709651Y-115261398D01*
X130709057Y-115272169D01*
X130708834Y-115281234D01*
X129134676Y-115281234D01*
X129134676Y-114970903D01*
X129135447Y-114402682D01*
X129136544Y-114316686D01*
X132652486Y-114316686D01*
X132652500Y-114317711D01*
X132652604Y-114318714D01*
X132652801Y-114319696D01*
X132653096Y-114320657D01*
X132653492Y-114321599D01*
X132653993Y-114322521D01*
X132654604Y-114323424D01*
X132655326Y-114324309D01*
X132656166Y-114325177D01*
X132657126Y-114326027D01*
X132658210Y-114326862D01*
X132659421Y-114327681D01*
X132660765Y-114328486D01*
X132662244Y-114329276D01*
X132663862Y-114330052D01*
X132667532Y-114331567D01*
X132671804Y-114333036D01*
X132676709Y-114334463D01*
X132682278Y-114335854D01*
X132688540Y-114337214D01*
X132695527Y-114338548D01*
X132703268Y-114339862D01*
X132711793Y-114341160D01*
X132721134Y-114342447D01*
X132731321Y-114343730D01*
X132742384Y-114345012D01*
X132754352Y-114346300D01*
X132767258Y-114347598D01*
X132781130Y-114348911D01*
X132811898Y-114351605D01*
X132846897Y-114354423D01*
X132886372Y-114357407D01*
X132930565Y-114360597D01*
X133210472Y-114378732D01*
X133573061Y-114397197D01*
X134056697Y-114417648D01*
X134699745Y-114441736D01*
X135673412Y-114478777D01*
X135779559Y-114482767D01*
X135824073Y-114483622D01*
X135863443Y-114483573D01*
X135898090Y-114482511D01*
X135928435Y-114480328D01*
X135954899Y-114476915D01*
X135977903Y-114472163D01*
X135997869Y-114465964D01*
X136015217Y-114458210D01*
X136030369Y-114448792D01*
X136043746Y-114437601D01*
X136055769Y-114424530D01*
X136066859Y-114409469D01*
X136077438Y-114392309D01*
X136087926Y-114372944D01*
X136094180Y-114360125D01*
X136097051Y-114353587D01*
X136099763Y-114346795D01*
X136102325Y-114339624D01*
X136104746Y-114331946D01*
X136107036Y-114323637D01*
X136109203Y-114314570D01*
X136111256Y-114304619D01*
X136113204Y-114293659D01*
X136115057Y-114281563D01*
X136116823Y-114268206D01*
X136120132Y-114237203D01*
X136122148Y-114212551D01*
X136512182Y-114212551D01*
X136514787Y-114321378D01*
X136521029Y-114385267D01*
X136530662Y-114420569D01*
X136533799Y-114427197D01*
X136537235Y-114433822D01*
X136540940Y-114440401D01*
X136544883Y-114446889D01*
X136549033Y-114453244D01*
X136553358Y-114459420D01*
X136557828Y-114465373D01*
X136562412Y-114471061D01*
X136567078Y-114476438D01*
X136571796Y-114481462D01*
X136576535Y-114486087D01*
X136581263Y-114490271D01*
X136585950Y-114493969D01*
X136590565Y-114497137D01*
X136595077Y-114499732D01*
X136599454Y-114501709D01*
X136614906Y-114506104D01*
X136637746Y-114510665D01*
X136703385Y-114520118D01*
X136791969Y-114529737D01*
X136899094Y-114539190D01*
X137020358Y-114548147D01*
X137151358Y-114556278D01*
X137287690Y-114563250D01*
X137424954Y-114568734D01*
X137556863Y-114572039D01*
X137611899Y-114572506D01*
X137660350Y-114572015D01*
X137702734Y-114570438D01*
X137739570Y-114567650D01*
X137771378Y-114563523D01*
X137798677Y-114557931D01*
X137821987Y-114550748D01*
X137841827Y-114541846D01*
X137858716Y-114531099D01*
X137873174Y-114518381D01*
X137885719Y-114503565D01*
X137896872Y-114486524D01*
X137907152Y-114467132D01*
X137917078Y-114445263D01*
X137922442Y-114431774D01*
X137927331Y-114416479D01*
X137931806Y-114398440D01*
X137935930Y-114376719D01*
X137939764Y-114350379D01*
X137943371Y-114318480D01*
X137946751Y-114280781D01*
X138329387Y-114280781D01*
X138330951Y-114366632D01*
X138336277Y-114416931D01*
X138345324Y-114448212D01*
X138358051Y-114477013D01*
X138362675Y-114487150D01*
X138367323Y-114496736D01*
X138372050Y-114505789D01*
X138376913Y-114514327D01*
X138381965Y-114522368D01*
X138387262Y-114529929D01*
X138392860Y-114537028D01*
X138398813Y-114543683D01*
X138405177Y-114549911D01*
X138412007Y-114555731D01*
X138419359Y-114561161D01*
X138427287Y-114566217D01*
X138435846Y-114570918D01*
X138445093Y-114575281D01*
X138455082Y-114579325D01*
X138465868Y-114583067D01*
X138477507Y-114586524D01*
X138490054Y-114589716D01*
X138503564Y-114592658D01*
X138518092Y-114595369D01*
X138533694Y-114597868D01*
X138550425Y-114600171D01*
X138568340Y-114602296D01*
X138587494Y-114604261D01*
X138629741Y-114607784D01*
X138677607Y-114610880D01*
X138731535Y-114613691D01*
X138791967Y-114616361D01*
X139065149Y-114630031D01*
X139205957Y-114638188D01*
X139326425Y-114646346D01*
X139415416Y-114651869D01*
X139485038Y-114654807D01*
X139513716Y-114655121D01*
X139538909Y-114654563D01*
X139561068Y-114653060D01*
X139580646Y-114650536D01*
X139598095Y-114646916D01*
X139613867Y-114642126D01*
X139628415Y-114636091D01*
X139642189Y-114628735D01*
X139655644Y-114619984D01*
X139669230Y-114609763D01*
X139698606Y-114584610D01*
X139725692Y-114561608D01*
X139731328Y-114556084D01*
X139736565Y-114550043D01*
X139739043Y-114546734D01*
X139741432Y-114543181D01*
X139743735Y-114539347D01*
X139745956Y-114535194D01*
X139748098Y-114530684D01*
X139750164Y-114525779D01*
X139752159Y-114520440D01*
X139754086Y-114514630D01*
X139755947Y-114508311D01*
X139757747Y-114501445D01*
X139761176Y-114485919D01*
X139764402Y-114467749D01*
X139767451Y-114446630D01*
X139770351Y-114422259D01*
X139772231Y-114403371D01*
X140160525Y-114403371D01*
X140162988Y-114457762D01*
X140168159Y-114493550D01*
X140171805Y-114506767D01*
X140176183Y-114518093D01*
X140187203Y-114538749D01*
X140198342Y-114557019D01*
X140209421Y-114573535D01*
X140215010Y-114581167D01*
X140220670Y-114588401D01*
X140226431Y-114595250D01*
X140232320Y-114601726D01*
X140238367Y-114607843D01*
X140244601Y-114613613D01*
X140251049Y-114619052D01*
X140257742Y-114624170D01*
X140264707Y-114628983D01*
X140271973Y-114633503D01*
X140279569Y-114637743D01*
X140287525Y-114641716D01*
X140295867Y-114645437D01*
X140304626Y-114648917D01*
X140313831Y-114652171D01*
X140323509Y-114655211D01*
X140333689Y-114658051D01*
X140344401Y-114660703D01*
X140355673Y-114663183D01*
X140367533Y-114665501D01*
X140393136Y-114669710D01*
X140421439Y-114673435D01*
X140452672Y-114676783D01*
X140487064Y-114679860D01*
X140600291Y-114688236D01*
X140739025Y-114695929D01*
X141046217Y-114707862D01*
X141315045Y-114712851D01*
X141405823Y-114711862D01*
X141451912Y-114708082D01*
X141454438Y-114707489D01*
X141457052Y-114706704D01*
X141459750Y-114705732D01*
X141462526Y-114704579D01*
X141468294Y-114701746D01*
X141474319Y-114698243D01*
X141480560Y-114694111D01*
X141486979Y-114689386D01*
X141493538Y-114684109D01*
X141500198Y-114678317D01*
X141506920Y-114672050D01*
X141513665Y-114665346D01*
X141520395Y-114658245D01*
X141527070Y-114650784D01*
X141533652Y-114643003D01*
X141540103Y-114634940D01*
X141546383Y-114626635D01*
X141552454Y-114618125D01*
X141561521Y-114604504D01*
X141569593Y-114591845D01*
X141576751Y-114579786D01*
X141583073Y-114567964D01*
X141585947Y-114562029D01*
X141588642Y-114556018D01*
X141591168Y-114549885D01*
X141593536Y-114543586D01*
X141595755Y-114537075D01*
X141597836Y-114530307D01*
X141599788Y-114523236D01*
X141601622Y-114515819D01*
X141604973Y-114499759D01*
X141607971Y-114481767D01*
X141610695Y-114461481D01*
X141612824Y-114442176D01*
X141996071Y-114442176D01*
X141998242Y-114503444D01*
X142002851Y-114545034D01*
X142010024Y-114573890D01*
X142019884Y-114596958D01*
X142030463Y-114618623D01*
X142035813Y-114628614D01*
X142041261Y-114638068D01*
X142046850Y-114647001D01*
X142052622Y-114655431D01*
X142058622Y-114663374D01*
X142064891Y-114670848D01*
X142071473Y-114677870D01*
X142078410Y-114684456D01*
X142085746Y-114690625D01*
X142093523Y-114696393D01*
X142101785Y-114701778D01*
X142110574Y-114706795D01*
X142119934Y-114711464D01*
X142129907Y-114715800D01*
X142140536Y-114719820D01*
X142151864Y-114723543D01*
X142163935Y-114726985D01*
X142176791Y-114730162D01*
X142190475Y-114733093D01*
X142205030Y-114735795D01*
X142220499Y-114738283D01*
X142236925Y-114740577D01*
X142272820Y-114744646D01*
X142313058Y-114748139D01*
X142357984Y-114751192D01*
X142407940Y-114753943D01*
X142720864Y-114768110D01*
X143149214Y-114783930D01*
X143813759Y-114803333D01*
X143933704Y-114803333D01*
X143896662Y-114711610D01*
X143889258Y-114692583D01*
X143881752Y-114674155D01*
X143874369Y-114656761D01*
X143867337Y-114640834D01*
X143860885Y-114626809D01*
X143855238Y-114615120D01*
X143850625Y-114606201D01*
X143847273Y-114600486D01*
X143845478Y-114598326D01*
X143843411Y-114595197D01*
X143841091Y-114591165D01*
X143838536Y-114586292D01*
X143835764Y-114580644D01*
X143832793Y-114574286D01*
X143826327Y-114559696D01*
X143819282Y-114543039D01*
X143811802Y-114524831D01*
X143796120Y-114485833D01*
X143773624Y-114428441D01*
X143737857Y-114342875D01*
X143642221Y-114122693D01*
X143540632Y-113896226D01*
X143497423Y-113802805D01*
X143464509Y-113734417D01*
X143446628Y-113696705D01*
X143430682Y-113659600D01*
X143416663Y-113623047D01*
X143404564Y-113586994D01*
X143394378Y-113551385D01*
X143386095Y-113516166D01*
X143379709Y-113481283D01*
X143375212Y-113446682D01*
X143372596Y-113412308D01*
X143371853Y-113378107D01*
X143372976Y-113344025D01*
X143375956Y-113310008D01*
X143380787Y-113276001D01*
X143387459Y-113241950D01*
X143395967Y-113207801D01*
X143406300Y-113173499D01*
X143415562Y-113147770D01*
X143426115Y-113122528D01*
X143437905Y-113097807D01*
X143450880Y-113073640D01*
X143464987Y-113050059D01*
X143480172Y-113027098D01*
X143496383Y-113004789D01*
X143513567Y-112983165D01*
X143531671Y-112962260D01*
X143550642Y-112942105D01*
X143570426Y-112922735D01*
X143590972Y-112904183D01*
X143612225Y-112886480D01*
X143634133Y-112869660D01*
X143656644Y-112853756D01*
X143679703Y-112838802D01*
X143703259Y-112824829D01*
X143727258Y-112811870D01*
X143751647Y-112799960D01*
X143776373Y-112789130D01*
X143801383Y-112779414D01*
X143826625Y-112770844D01*
X143852045Y-112763454D01*
X143877590Y-112757277D01*
X143903207Y-112752344D01*
X143928844Y-112748690D01*
X143954448Y-112746348D01*
X143979964Y-112745349D01*
X144005342Y-112745728D01*
X144030526Y-112747517D01*
X144055466Y-112750749D01*
X144080106Y-112755457D01*
X144108823Y-112762471D01*
X144136786Y-112770307D01*
X144164027Y-112779003D01*
X144190577Y-112788596D01*
X144216468Y-112799122D01*
X144241732Y-112810621D01*
X144266401Y-112823127D01*
X144290505Y-112836679D01*
X144314077Y-112851313D01*
X144337149Y-112867068D01*
X144359752Y-112883979D01*
X144381917Y-112902084D01*
X144403677Y-112921421D01*
X144425063Y-112942025D01*
X144446106Y-112963936D01*
X144466839Y-112987189D01*
X144487293Y-113011821D01*
X144507499Y-113037871D01*
X144527489Y-113065374D01*
X144547296Y-113094369D01*
X144586483Y-113156981D01*
X144625313Y-113226003D01*
X144664040Y-113301732D01*
X144702917Y-113384467D01*
X144742198Y-113474503D01*
X144782134Y-113572138D01*
X144796628Y-113609135D01*
X144810770Y-113644210D01*
X144836594Y-113705533D01*
X144847574Y-113730251D01*
X144856796Y-113749988D01*
X144863910Y-113763979D01*
X144868565Y-113771458D01*
X144870496Y-113774574D01*
X144873598Y-113780508D01*
X144883034Y-113800204D01*
X144896315Y-113829284D01*
X144912882Y-113866487D01*
X144953645Y-113960222D01*
X145000856Y-114071319D01*
X145095993Y-114296480D01*
X145171926Y-114471970D01*
X145231943Y-114603845D01*
X145279330Y-114698161D01*
X145299315Y-114733128D01*
X145317374Y-114760976D01*
X145333920Y-114782462D01*
X145349362Y-114798345D01*
X145364112Y-114809380D01*
X145378580Y-114816325D01*
X145393177Y-114819936D01*
X145408315Y-114820972D01*
X145416203Y-114820766D01*
X145423673Y-114820092D01*
X145430741Y-114818860D01*
X145437422Y-114816986D01*
X145440623Y-114815781D01*
X145443733Y-114814382D01*
X145446754Y-114812779D01*
X145449688Y-114810961D01*
X145452538Y-114808917D01*
X145455304Y-114806636D01*
X145457990Y-114804108D01*
X145460597Y-114801321D01*
X145463128Y-114798265D01*
X145465583Y-114794929D01*
X145467965Y-114791301D01*
X145470277Y-114787372D01*
X145472519Y-114783129D01*
X145474695Y-114778563D01*
X145478853Y-114768417D01*
X145482767Y-114756846D01*
X145486452Y-114743763D01*
X145489925Y-114729081D01*
X145493202Y-114712713D01*
X145496297Y-114694573D01*
X145499228Y-114674574D01*
X145502009Y-114652628D01*
X145504657Y-114628650D01*
X145507187Y-114602551D01*
X145509616Y-114574245D01*
X145511958Y-114543645D01*
X145514231Y-114510665D01*
X145518629Y-114437215D01*
X145522936Y-114353200D01*
X145527280Y-114257925D01*
X145531787Y-114150694D01*
X145562875Y-113421106D01*
X145589995Y-112854236D01*
X145593058Y-112800471D01*
X145595645Y-112742284D01*
X145599476Y-112620079D01*
X145601653Y-112502505D01*
X145602342Y-112404444D01*
X145601522Y-112341598D01*
X145600082Y-112291610D01*
X145598988Y-112270649D01*
X145597567Y-112251957D01*
X145595765Y-112235218D01*
X145593523Y-112220117D01*
X145590785Y-112206339D01*
X145587494Y-112193569D01*
X145583593Y-112181492D01*
X145579026Y-112169791D01*
X145573735Y-112158153D01*
X145567664Y-112146261D01*
X145552953Y-112120457D01*
X145539475Y-112098327D01*
X145532905Y-112088239D01*
X145526323Y-112078768D01*
X145519635Y-112069891D01*
X145512747Y-112061581D01*
X145505565Y-112053815D01*
X145497997Y-112046567D01*
X145489949Y-112039813D01*
X145481326Y-112033527D01*
X145472035Y-112027685D01*
X145461982Y-112022262D01*
X145451075Y-112017233D01*
X145439218Y-112012573D01*
X145426319Y-112008257D01*
X145412283Y-112004261D01*
X145397018Y-112000560D01*
X145380429Y-111997128D01*
X145362423Y-111993941D01*
X145342906Y-111990974D01*
X145321785Y-111988202D01*
X145298965Y-111985600D01*
X145274353Y-111983143D01*
X145247856Y-111980807D01*
X145188830Y-111976397D01*
X145121138Y-111972170D01*
X145044031Y-111967928D01*
X144956759Y-111963472D01*
X144628235Y-111947597D01*
X144445231Y-111937014D01*
X144353895Y-111932879D01*
X144164332Y-111926430D01*
X143903993Y-111918658D01*
X143600329Y-111910555D01*
X143292089Y-111901846D01*
X143019568Y-111892475D01*
X142812532Y-111883766D01*
X142700745Y-111877041D01*
X142615303Y-111869100D01*
X142535463Y-111863784D01*
X142462031Y-111861073D01*
X142395813Y-111860945D01*
X142337615Y-111863381D01*
X142311775Y-111865553D01*
X142288243Y-111868359D01*
X142267119Y-111871795D01*
X142248504Y-111875859D01*
X142232498Y-111880548D01*
X142219203Y-111885860D01*
X142199771Y-111895698D01*
X142190833Y-111900621D01*
X142182393Y-111905607D01*
X142174431Y-111910703D01*
X142166931Y-111915951D01*
X142159877Y-111921399D01*
X142153250Y-111927091D01*
X142147035Y-111933072D01*
X142141213Y-111939388D01*
X142135768Y-111946084D01*
X142130682Y-111953205D01*
X142125938Y-111960796D01*
X142121520Y-111968902D01*
X142117410Y-111977570D01*
X142113591Y-111986843D01*
X142110045Y-111996767D01*
X142106757Y-112007388D01*
X142103708Y-112018750D01*
X142100882Y-112030899D01*
X142098261Y-112043880D01*
X142095828Y-112057738D01*
X142093567Y-112072518D01*
X142091459Y-112088267D01*
X142090756Y-112094630D01*
X142087638Y-112122847D01*
X142084228Y-112161840D01*
X142081092Y-112205608D01*
X142078092Y-112254513D01*
X142048106Y-112845416D01*
X142039066Y-113031699D01*
X142028704Y-113285285D01*
X142018341Y-113572937D01*
X142009301Y-113861416D01*
X141998552Y-114232825D01*
X141996216Y-114354285D01*
X141996071Y-114442176D01*
X141612824Y-114442176D01*
X141613225Y-114438538D01*
X141615641Y-114412578D01*
X141618024Y-114383237D01*
X141623009Y-114312971D01*
X141630754Y-114170206D01*
X141639986Y-113947406D01*
X141649550Y-113674995D01*
X141658287Y-113383403D01*
X141676367Y-112786987D01*
X141691801Y-112342708D01*
X141699462Y-112156865D01*
X141700792Y-112094630D01*
X141700179Y-112047918D01*
X141699079Y-112029227D01*
X141697416Y-112013029D01*
X141695164Y-111998863D01*
X141692296Y-111986265D01*
X141688789Y-111974772D01*
X141684614Y-111963923D01*
X141674162Y-111942305D01*
X141669369Y-111933285D01*
X141664552Y-111924736D01*
X141659667Y-111916643D01*
X141654669Y-111908991D01*
X141649514Y-111901765D01*
X141644156Y-111894951D01*
X141638551Y-111888534D01*
X141632655Y-111882498D01*
X141626423Y-111876829D01*
X141619811Y-111871513D01*
X141612774Y-111866533D01*
X141605267Y-111861876D01*
X141597246Y-111857526D01*
X141588666Y-111853469D01*
X141579483Y-111849690D01*
X141569651Y-111846173D01*
X141559128Y-111842905D01*
X141547867Y-111839870D01*
X141535825Y-111837053D01*
X141522957Y-111834439D01*
X141509217Y-111832014D01*
X141494563Y-111829763D01*
X141478949Y-111827671D01*
X141462330Y-111825723D01*
X141425900Y-111822200D01*
X141384918Y-111819074D01*
X141339027Y-111816227D01*
X141287870Y-111813541D01*
X140793981Y-111787083D01*
X140569527Y-111775535D01*
X140499798Y-111773409D01*
X140473098Y-111773376D01*
X140450905Y-111774074D01*
X140432515Y-111775537D01*
X140417226Y-111777798D01*
X140404334Y-111780892D01*
X140393138Y-111784850D01*
X140382933Y-111789708D01*
X140373018Y-111795499D01*
X140351245Y-111810013D01*
X140344657Y-111814534D01*
X140338140Y-111819470D01*
X140331727Y-111824784D01*
X140325448Y-111830436D01*
X140319335Y-111836388D01*
X140313418Y-111842600D01*
X140307728Y-111849035D01*
X140303564Y-111854110D01*
X140302297Y-111855654D01*
X140297155Y-111862417D01*
X140292334Y-111869286D01*
X140287864Y-111876222D01*
X140283776Y-111883187D01*
X140280102Y-111890142D01*
X140276872Y-111897047D01*
X140274118Y-111903864D01*
X140271870Y-111910555D01*
X140269537Y-111918317D01*
X140267178Y-111928914D01*
X140264808Y-111942161D01*
X140262444Y-111957877D01*
X140257793Y-111995976D01*
X140253349Y-112041744D01*
X140249236Y-112093713D01*
X140245577Y-112150416D01*
X140242497Y-112210385D01*
X140240120Y-112272152D01*
X140211898Y-112898333D01*
X140194038Y-113313287D01*
X140174856Y-113852596D01*
X140163143Y-114209343D01*
X140160625Y-114323017D01*
X140160525Y-114403371D01*
X139772231Y-114403371D01*
X139773131Y-114394331D01*
X139775818Y-114362544D01*
X139778439Y-114326592D01*
X139781023Y-114286172D01*
X139783597Y-114240980D01*
X139786189Y-114190712D01*
X139788828Y-114135064D01*
X139794353Y-114006414D01*
X139800395Y-113852596D01*
X139807175Y-113671182D01*
X139823843Y-113215833D01*
X139832662Y-112962108D01*
X139840158Y-112695486D01*
X139845670Y-112447384D01*
X139848537Y-112249222D01*
X139850301Y-111854110D01*
X139802676Y-111813541D01*
X139791463Y-111804453D01*
X139785777Y-111800271D01*
X139779945Y-111796316D01*
X139773899Y-111792578D01*
X139767569Y-111789047D01*
X139760887Y-111785712D01*
X139753783Y-111782563D01*
X139746188Y-111779590D01*
X139738033Y-111776782D01*
X139729248Y-111774129D01*
X139719766Y-111771621D01*
X139709516Y-111769248D01*
X139698430Y-111766998D01*
X139686438Y-111764862D01*
X139673471Y-111762830D01*
X139659460Y-111760890D01*
X139644337Y-111759033D01*
X139610474Y-111755526D01*
X139571330Y-111752225D01*
X139526352Y-111749049D01*
X139474986Y-111745914D01*
X139416681Y-111742737D01*
X139277037Y-111735930D01*
X138933602Y-111722480D01*
X138813592Y-111719683D01*
X138721632Y-111719614D01*
X138652906Y-111722356D01*
X138602598Y-111727992D01*
X138582845Y-111731922D01*
X138565890Y-111736605D01*
X138537968Y-111748277D01*
X138529088Y-111752959D01*
X138520630Y-111757768D01*
X138512584Y-111762737D01*
X138504936Y-111767900D01*
X138497676Y-111773291D01*
X138490792Y-111778942D01*
X138484273Y-111784888D01*
X138478106Y-111791162D01*
X138472280Y-111797797D01*
X138466783Y-111804828D01*
X138461605Y-111812288D01*
X138456732Y-111820211D01*
X138452154Y-111828629D01*
X138447859Y-111837577D01*
X138443836Y-111847089D01*
X138440072Y-111857197D01*
X138436556Y-111867936D01*
X138433276Y-111879339D01*
X138430222Y-111891439D01*
X138427380Y-111904271D01*
X138424740Y-111917868D01*
X138422290Y-111932263D01*
X138420018Y-111947490D01*
X138417913Y-111963582D01*
X138415963Y-111980574D01*
X138414156Y-111998498D01*
X138410926Y-112037280D01*
X138408325Y-112077213D01*
X138408130Y-112080195D01*
X138405676Y-112127514D01*
X138380981Y-112708494D01*
X138361578Y-113251111D01*
X138337710Y-113936271D01*
X138329387Y-114280781D01*
X137946751Y-114280781D01*
X137946813Y-114280086D01*
X137950151Y-114234258D01*
X137953448Y-114180058D01*
X137956766Y-114116549D01*
X137963711Y-113957851D01*
X137971484Y-113750660D01*
X137980579Y-113487472D01*
X138005273Y-112769790D01*
X138024676Y-112280972D01*
X138029836Y-112138211D01*
X138030683Y-112077213D01*
X138030243Y-112022590D01*
X138028418Y-111973930D01*
X138025110Y-111930823D01*
X138020220Y-111892857D01*
X138013651Y-111859623D01*
X138005305Y-111830708D01*
X137995082Y-111805703D01*
X137982886Y-111784197D01*
X137968617Y-111765778D01*
X137952178Y-111750036D01*
X137933470Y-111736560D01*
X137912395Y-111724939D01*
X137888856Y-111714763D01*
X137882568Y-111713029D01*
X137872454Y-111711149D01*
X137841644Y-111707018D01*
X137798226Y-111702516D01*
X137743997Y-111697786D01*
X137680755Y-111692973D01*
X137610300Y-111688222D01*
X137534428Y-111683678D01*
X137454940Y-111679485D01*
X137301454Y-111672430D01*
X137172938Y-111665374D01*
X137083117Y-111659642D01*
X137045718Y-111656555D01*
X137043023Y-111655915D01*
X137038962Y-111655318D01*
X137027059Y-111654267D01*
X137010650Y-111653423D01*
X136990375Y-111652807D01*
X136966876Y-111652438D01*
X136940793Y-111652338D01*
X136912768Y-111652528D01*
X136883440Y-111653027D01*
X136843849Y-111653971D01*
X136810459Y-111655618D01*
X136795805Y-111656769D01*
X136782360Y-111658174D01*
X136770011Y-111659858D01*
X136758644Y-111661846D01*
X136748145Y-111664166D01*
X136738401Y-111666842D01*
X136729297Y-111669900D01*
X136720720Y-111673367D01*
X136712557Y-111677267D01*
X136704694Y-111681628D01*
X136697016Y-111686474D01*
X136689411Y-111691832D01*
X136680261Y-111698523D01*
X136671649Y-111705111D01*
X136663554Y-111711710D01*
X136655956Y-111718436D01*
X136648835Y-111725401D01*
X136642170Y-111732722D01*
X136635941Y-111740511D01*
X136630128Y-111748884D01*
X136624710Y-111757954D01*
X136619668Y-111767836D01*
X136614979Y-111778644D01*
X136610626Y-111790494D01*
X136606586Y-111803498D01*
X136602839Y-111817771D01*
X136599366Y-111833428D01*
X136596146Y-111850583D01*
X136593158Y-111869350D01*
X136590383Y-111889844D01*
X136587799Y-111912179D01*
X136586258Y-111927698D01*
X136585387Y-111936469D01*
X136583126Y-111962829D01*
X136580996Y-111991373D01*
X136578976Y-112022215D01*
X136577046Y-112055470D01*
X136573376Y-112129675D01*
X136569822Y-112214902D01*
X136566222Y-112312067D01*
X136562412Y-112422083D01*
X136528677Y-113452939D01*
X136513464Y-114042436D01*
X136512182Y-114212551D01*
X136122148Y-114212551D01*
X136123203Y-114199642D01*
X136126109Y-114154515D01*
X136128922Y-114100816D01*
X136131714Y-114037535D01*
X136134558Y-113963667D01*
X136140690Y-113780132D01*
X136147897Y-113542152D01*
X136169726Y-112880694D01*
X136190231Y-112356819D01*
X136197066Y-112185777D01*
X136201255Y-112037555D01*
X136202137Y-111927698D01*
X136201132Y-111892014D01*
X136199051Y-111871750D01*
X136195118Y-111856020D01*
X136189994Y-111840006D01*
X136183769Y-111823838D01*
X136176534Y-111807643D01*
X136168379Y-111791552D01*
X136159394Y-111775693D01*
X136149671Y-111760196D01*
X136139299Y-111745190D01*
X136128369Y-111730804D01*
X136116971Y-111717168D01*
X136105196Y-111704410D01*
X136093135Y-111692660D01*
X136080877Y-111682046D01*
X136068513Y-111672699D01*
X136056133Y-111664747D01*
X136043829Y-111658320D01*
X136034909Y-111654803D01*
X136023902Y-111651519D01*
X136010621Y-111648451D01*
X135994880Y-111645586D01*
X135976494Y-111642906D01*
X135955276Y-111640397D01*
X135931039Y-111638043D01*
X135903599Y-111635829D01*
X135838363Y-111631757D01*
X135758078Y-111628057D01*
X135661258Y-111624605D01*
X135546412Y-111621277D01*
X135091990Y-111607607D01*
X134620370Y-111591291D01*
X133865426Y-111566155D01*
X133009940Y-111543667D01*
X132986124Y-111543246D01*
X132963941Y-111543280D01*
X132943866Y-111543728D01*
X132926375Y-111544548D01*
X132911944Y-111545698D01*
X132901047Y-111547139D01*
X132897073Y-111547954D01*
X132894160Y-111548827D01*
X132892369Y-111549751D01*
X132891913Y-111550231D01*
X132891759Y-111550721D01*
X132891805Y-111551449D01*
X132891942Y-111552308D01*
X132892479Y-111554401D01*
X132893352Y-111556969D01*
X132894543Y-111559982D01*
X132896033Y-111563408D01*
X132897805Y-111567217D01*
X132899841Y-111571377D01*
X132902122Y-111575857D01*
X132907348Y-111585655D01*
X132913339Y-111596362D01*
X132919950Y-111607731D01*
X132927037Y-111619513D01*
X132936074Y-111636061D01*
X132945258Y-111656314D01*
X132954489Y-111679843D01*
X132963665Y-111706219D01*
X132972686Y-111735014D01*
X132981452Y-111765799D01*
X132989861Y-111798144D01*
X132997813Y-111831621D01*
X133005207Y-111865800D01*
X133011941Y-111900254D01*
X133017917Y-111934552D01*
X133023031Y-111968267D01*
X133027185Y-112000969D01*
X133030276Y-112032229D01*
X133032205Y-112061618D01*
X133032871Y-112088707D01*
X133031810Y-112129718D01*
X133030010Y-112153972D01*
X133028681Y-112171886D01*
X133023569Y-112214963D01*
X133016555Y-112258702D01*
X133007721Y-112302855D01*
X132997152Y-112347172D01*
X132984929Y-112391407D01*
X132971134Y-112435312D01*
X132955852Y-112478637D01*
X132939164Y-112521136D01*
X132921153Y-112562560D01*
X132901902Y-112602661D01*
X132881493Y-112641191D01*
X132860009Y-112677902D01*
X132837533Y-112712545D01*
X132814148Y-112744874D01*
X132748883Y-112829541D01*
X132768286Y-112970652D01*
X132776465Y-113048029D01*
X132782453Y-113139544D01*
X132786208Y-113240651D01*
X132787689Y-113346801D01*
X132786856Y-113453447D01*
X132783665Y-113556042D01*
X132778077Y-113650038D01*
X132770050Y-113730887D01*
X132761069Y-113790333D01*
X132748139Y-113865467D01*
X132715149Y-114038907D01*
X132680506Y-114203417D01*
X132665510Y-114267389D01*
X132653635Y-114311207D01*
X132652947Y-114313472D01*
X132652559Y-114315638D01*
X132652486Y-114316686D01*
X129136544Y-114316686D01*
X129139526Y-114083005D01*
X129143633Y-113989653D01*
X129146901Y-113954750D01*
X130795056Y-113954750D01*
X130796599Y-114009825D01*
X130799566Y-114055443D01*
X130804083Y-114092959D01*
X130810277Y-114123725D01*
X130818274Y-114149096D01*
X130828201Y-114170427D01*
X130840186Y-114189070D01*
X130854353Y-114206380D01*
X130889745Y-114242415D01*
X130900031Y-114252179D01*
X130905237Y-114256703D01*
X130910518Y-114260995D01*
X130915901Y-114265061D01*
X130921409Y-114268906D01*
X130927069Y-114272537D01*
X130932905Y-114275957D01*
X130938942Y-114279174D01*
X130945206Y-114282192D01*
X130951722Y-114285016D01*
X130958515Y-114287654D01*
X130965611Y-114290109D01*
X130973034Y-114292387D01*
X130980810Y-114294494D01*
X130988963Y-114296435D01*
X130997520Y-114298216D01*
X131006505Y-114299843D01*
X131025860Y-114302654D01*
X131047231Y-114304912D01*
X131070819Y-114306660D01*
X131096825Y-114307944D01*
X131125451Y-114308807D01*
X131156899Y-114309292D01*
X131191370Y-114309444D01*
X131337772Y-114309444D01*
X131364230Y-114215957D01*
X131382221Y-114151965D01*
X131397028Y-114096592D01*
X131409438Y-114046386D01*
X131420235Y-113997897D01*
X131430205Y-113947671D01*
X131440134Y-113892257D01*
X131463010Y-113752056D01*
X131473348Y-113681731D01*
X131481806Y-113617094D01*
X131488279Y-113557381D01*
X131492665Y-113501831D01*
X131494859Y-113449681D01*
X131494759Y-113400169D01*
X131492262Y-113352534D01*
X131487263Y-113306011D01*
X131479659Y-113259841D01*
X131469348Y-113213259D01*
X131456226Y-113165504D01*
X131440189Y-113115815D01*
X131421134Y-113063427D01*
X131398958Y-113007580D01*
X131373557Y-112947511D01*
X131344829Y-112882457D01*
X131313161Y-112812005D01*
X131288935Y-112755733D01*
X131279302Y-112731817D01*
X131271158Y-112710127D01*
X131264378Y-112690226D01*
X131258838Y-112671673D01*
X131254414Y-112654030D01*
X131250983Y-112636857D01*
X131248420Y-112619715D01*
X131246601Y-112602165D01*
X131245402Y-112583767D01*
X131244699Y-112564083D01*
X131244286Y-112519097D01*
X131243955Y-112474614D01*
X131244131Y-112455845D01*
X131244617Y-112439060D01*
X131245475Y-112424012D01*
X131246767Y-112410452D01*
X131248555Y-112398133D01*
X131250902Y-112386805D01*
X131253868Y-112376222D01*
X131257516Y-112366134D01*
X131261909Y-112356295D01*
X131267107Y-112346456D01*
X131273174Y-112336369D01*
X131280171Y-112325786D01*
X131297203Y-112302139D01*
X131313641Y-112280068D01*
X131329322Y-112260095D01*
X131344398Y-112242127D01*
X131359022Y-112226071D01*
X131373346Y-112211834D01*
X131387523Y-112199323D01*
X131394604Y-112193686D01*
X131401706Y-112188445D01*
X131408846Y-112183590D01*
X131416045Y-112179107D01*
X131423322Y-112174987D01*
X131430695Y-112171216D01*
X131438184Y-112167784D01*
X131445808Y-112164679D01*
X131453585Y-112161889D01*
X131461535Y-112159403D01*
X131469677Y-112157208D01*
X131478030Y-112155295D01*
X131495445Y-112152261D01*
X131513931Y-112150209D01*
X131533643Y-112149047D01*
X131554732Y-112148680D01*
X131657037Y-112148680D01*
X131708190Y-112065777D01*
X131721206Y-112046719D01*
X131735099Y-112028900D01*
X131749834Y-112012320D01*
X131765378Y-111996978D01*
X131781697Y-111982875D01*
X131798758Y-111970008D01*
X131816526Y-111958377D01*
X131834969Y-111947982D01*
X131854053Y-111938822D01*
X131873744Y-111930897D01*
X131894008Y-111924205D01*
X131914812Y-111918747D01*
X131936123Y-111914521D01*
X131957907Y-111911527D01*
X131980130Y-111909764D01*
X132002759Y-111909232D01*
X132025759Y-111909929D01*
X132049099Y-111911856D01*
X132072743Y-111915011D01*
X132096658Y-111919395D01*
X132120811Y-111925005D01*
X132145168Y-111931843D01*
X132169696Y-111939906D01*
X132194361Y-111949195D01*
X132219129Y-111959708D01*
X132243967Y-111971446D01*
X132268841Y-111984407D01*
X132293718Y-111998590D01*
X132318563Y-112013996D01*
X132343344Y-112030624D01*
X132368027Y-112048472D01*
X132392578Y-112067540D01*
X132498412Y-112153972D01*
X132482536Y-112083416D01*
X132478756Y-112066884D01*
X132474613Y-112050874D01*
X132469995Y-112035163D01*
X132464788Y-112019530D01*
X132458878Y-112003753D01*
X132452151Y-111987608D01*
X132444495Y-111970874D01*
X132435794Y-111953329D01*
X132425936Y-111934751D01*
X132414807Y-111914916D01*
X132402292Y-111893604D01*
X132388279Y-111870592D01*
X132372654Y-111845657D01*
X132355303Y-111818578D01*
X132314967Y-111757097D01*
X132295792Y-111726973D01*
X132276988Y-111696684D01*
X132259095Y-111667056D01*
X132242648Y-111638916D01*
X132228185Y-111613092D01*
X132216245Y-111590409D01*
X132207363Y-111571695D01*
X132204238Y-111564085D01*
X132202078Y-111557777D01*
X132199974Y-111552512D01*
X132197644Y-111547325D01*
X132195114Y-111542251D01*
X132192404Y-111537327D01*
X132189540Y-111532589D01*
X132186544Y-111528073D01*
X132183440Y-111523816D01*
X132180250Y-111519853D01*
X132176998Y-111516221D01*
X132173708Y-111512956D01*
X132170402Y-111510094D01*
X132167104Y-111507672D01*
X132163837Y-111505724D01*
X132162222Y-111504940D01*
X132160624Y-111504288D01*
X132159045Y-111503774D01*
X132157489Y-111503401D01*
X132155957Y-111503173D01*
X132154454Y-111503096D01*
X132003197Y-111492868D01*
X131830091Y-111484769D01*
X131647352Y-111478943D01*
X131467198Y-111475536D01*
X131301844Y-111474692D01*
X131163506Y-111476556D01*
X131064401Y-111481272D01*
X131033378Y-111484745D01*
X131016745Y-111488985D01*
X131005510Y-111495259D01*
X130994334Y-111502135D01*
X130983278Y-111509554D01*
X130972399Y-111517455D01*
X130961759Y-111525781D01*
X130951415Y-111534471D01*
X130941428Y-111543466D01*
X130931857Y-111552706D01*
X130922762Y-111562132D01*
X130914201Y-111571685D01*
X130906235Y-111581305D01*
X130898922Y-111590933D01*
X130892323Y-111600509D01*
X130886496Y-111609974D01*
X130881501Y-111619269D01*
X130877397Y-111628333D01*
X130875374Y-111635359D01*
X130873284Y-111647002D01*
X130868964Y-111683096D01*
X130864561Y-111734528D01*
X130860200Y-111799209D01*
X130856004Y-111875053D01*
X130852097Y-111959971D01*
X130848604Y-112051876D01*
X130845648Y-112148680D01*
X130808606Y-113349888D01*
X130795735Y-113810814D01*
X130795056Y-113954750D01*
X129146901Y-113954750D01*
X129149558Y-113926377D01*
X129157633Y-113882490D01*
X129168189Y-113847305D01*
X129186225Y-113796635D01*
X129206478Y-113744062D01*
X129252911Y-113634536D01*
X129306041Y-113521371D01*
X129364422Y-113407215D01*
X129426606Y-113294712D01*
X129491146Y-113186508D01*
X129556596Y-113085250D01*
X129589210Y-113038053D01*
X129621509Y-112993583D01*
X129646114Y-112960366D01*
X129656181Y-112946183D01*
X129664889Y-112933225D01*
X129672337Y-112921197D01*
X129678621Y-112909805D01*
X129683842Y-112898754D01*
X129686083Y-112893264D01*
X129688095Y-112887749D01*
X129689891Y-112882173D01*
X129691481Y-112876497D01*
X129694097Y-112864702D01*
X129696041Y-112852069D01*
X129697411Y-112838305D01*
X129698306Y-112823115D01*
X129698823Y-112806204D01*
X129699120Y-112766041D01*
X129700387Y-112666850D01*
X129703970Y-112487126D01*
X129709538Y-112252832D01*
X129716759Y-111989930D01*
X129743218Y-110931597D01*
X129747738Y-110762566D01*
X129752919Y-110603293D01*
X129756251Y-110518516D01*
X130936323Y-110518516D01*
X130937370Y-110626444D01*
X130939362Y-110680057D01*
X130941725Y-110721970D01*
X130943214Y-110739224D01*
X130944998Y-110754374D01*
X130947143Y-110767696D01*
X130949718Y-110779461D01*
X130952788Y-110789946D01*
X130956422Y-110799422D01*
X130960686Y-110808165D01*
X130965648Y-110816448D01*
X130971374Y-110824545D01*
X130977933Y-110832729D01*
X130993814Y-110850457D01*
X131011716Y-110868278D01*
X131020615Y-110876441D01*
X131029626Y-110884130D01*
X131038858Y-110891361D01*
X131048419Y-110898152D01*
X131058421Y-110904521D01*
X131068973Y-110910485D01*
X131080183Y-110916061D01*
X131092161Y-110921267D01*
X131105017Y-110926121D01*
X131118861Y-110930639D01*
X131133802Y-110934839D01*
X131149948Y-110938739D01*
X131167411Y-110942356D01*
X131186299Y-110945708D01*
X131206722Y-110948811D01*
X131228789Y-110951684D01*
X131252609Y-110954344D01*
X131278293Y-110956808D01*
X131305950Y-110959094D01*
X131335689Y-110961218D01*
X131401852Y-110965055D01*
X131477657Y-110968458D01*
X131563981Y-110971566D01*
X131661700Y-110974520D01*
X131771689Y-110977457D01*
X132299533Y-110993553D01*
X132777106Y-111010972D01*
X133632593Y-111046250D01*
X134047107Y-111063888D01*
X134138829Y-111016263D01*
X134164081Y-111003322D01*
X134186395Y-110991366D01*
X134205976Y-110980014D01*
X134214805Y-110974446D01*
X134223027Y-110968886D01*
X134230587Y-110963347D01*
X134673287Y-110963347D01*
X134747370Y-111037430D01*
X134763462Y-111053288D01*
X134771078Y-111060488D01*
X134778541Y-111067227D01*
X134785953Y-111073522D01*
X134793414Y-111079393D01*
X134801025Y-111084857D01*
X134808886Y-111089933D01*
X134817099Y-111094640D01*
X134825763Y-111098996D01*
X134834981Y-111103019D01*
X134844853Y-111106728D01*
X134855479Y-111110141D01*
X134866960Y-111113277D01*
X134879397Y-111116153D01*
X134892891Y-111118789D01*
X134907543Y-111121203D01*
X134923452Y-111123413D01*
X134940721Y-111125438D01*
X134959450Y-111127295D01*
X134979740Y-111129004D01*
X135001691Y-111130583D01*
X135050980Y-111133424D01*
X135108123Y-111135966D01*
X135173928Y-111138354D01*
X135334745Y-111143264D01*
X135867687Y-111158863D01*
X136316129Y-111174131D01*
X137423189Y-111220874D01*
X137542692Y-111225449D01*
X137642352Y-111227047D01*
X137685568Y-111226627D01*
X137724814Y-111225339D01*
X137760423Y-111223141D01*
X137792724Y-111219992D01*
X137822049Y-111215851D01*
X137848728Y-111210677D01*
X137873091Y-111204427D01*
X137895471Y-111197062D01*
X137916197Y-111188539D01*
X137935599Y-111178817D01*
X137954010Y-111167855D01*
X137971759Y-111155611D01*
X137978365Y-111150503D01*
X137984630Y-111145404D01*
X137990566Y-111140271D01*
X137996181Y-111135061D01*
X138001488Y-111129730D01*
X138006497Y-111124237D01*
X138011219Y-111118537D01*
X138015663Y-111112588D01*
X138019842Y-111106348D01*
X138023765Y-111099772D01*
X138027443Y-111092819D01*
X138030887Y-111085444D01*
X138034108Y-111077606D01*
X138037115Y-111069261D01*
X138039921Y-111060367D01*
X138042535Y-111050879D01*
X138044968Y-111040757D01*
X138047231Y-111029955D01*
X138049334Y-111018432D01*
X138051289Y-111006145D01*
X138053002Y-110993794D01*
X138469469Y-110993794D01*
X138472704Y-111069180D01*
X138474497Y-111076069D01*
X138476567Y-111082843D01*
X138478914Y-111089504D01*
X138481537Y-111096052D01*
X138484433Y-111102486D01*
X138487602Y-111108806D01*
X138491042Y-111115012D01*
X138494752Y-111121105D01*
X138498731Y-111127084D01*
X138502977Y-111132949D01*
X138507490Y-111138700D01*
X138512267Y-111144338D01*
X138517308Y-111149862D01*
X138522611Y-111155273D01*
X138528175Y-111160570D01*
X138533999Y-111165753D01*
X138546420Y-111175778D01*
X138559864Y-111185348D01*
X138574322Y-111194464D01*
X138589782Y-111203125D01*
X138606234Y-111211331D01*
X138623668Y-111219083D01*
X138642073Y-111226379D01*
X138661440Y-111233221D01*
X138675700Y-111237360D01*
X138691515Y-111241193D01*
X138709119Y-111244748D01*
X138728743Y-111248049D01*
X138750620Y-111251123D01*
X138774983Y-111253995D01*
X138802064Y-111256692D01*
X138832096Y-111259239D01*
X138901942Y-111263986D01*
X138986381Y-111268444D01*
X139087274Y-111272819D01*
X139206481Y-111277318D01*
X140102757Y-111307746D01*
X141058564Y-111346111D01*
X141199796Y-111351437D01*
X141314962Y-111353993D01*
X141407598Y-111353490D01*
X141446571Y-111352001D01*
X141481237Y-111349638D01*
X141512037Y-111346366D01*
X141539414Y-111342149D01*
X141563809Y-111336949D01*
X141585664Y-111330731D01*
X141605421Y-111323460D01*
X141623522Y-111315098D01*
X141640409Y-111305609D01*
X141656523Y-111294957D01*
X141675817Y-111280901D01*
X141684588Y-111274081D01*
X141692803Y-111267256D01*
X141700485Y-111260315D01*
X141707655Y-111253150D01*
X141714335Y-111245653D01*
X141720547Y-111237714D01*
X141726311Y-111229225D01*
X141731650Y-111220076D01*
X141736585Y-111210160D01*
X141741138Y-111199367D01*
X141745330Y-111187588D01*
X141749184Y-111174714D01*
X141752721Y-111160637D01*
X141755962Y-111145248D01*
X141758929Y-111128437D01*
X141761644Y-111110097D01*
X141764129Y-111090118D01*
X141766404Y-111068391D01*
X141768492Y-111044808D01*
X141770415Y-111019259D01*
X141772193Y-110991636D01*
X141773250Y-110972607D01*
X142173783Y-110972607D01*
X142177180Y-111074038D01*
X142184091Y-111152689D01*
X142188877Y-111184054D01*
X142194557Y-111210422D01*
X142201136Y-111232026D01*
X142208620Y-111249097D01*
X142211940Y-111254856D01*
X142215913Y-111260859D01*
X142220491Y-111267057D01*
X142225625Y-111273406D01*
X142231265Y-111279857D01*
X142237363Y-111286366D01*
X142243868Y-111292885D01*
X142250733Y-111299368D01*
X142257908Y-111305768D01*
X142265344Y-111312039D01*
X142272991Y-111318134D01*
X142280802Y-111324007D01*
X142288726Y-111329611D01*
X142296715Y-111334900D01*
X142304719Y-111339827D01*
X142312690Y-111344346D01*
X142328044Y-111352505D01*
X142336278Y-111356270D01*
X142345067Y-111359839D01*
X142354545Y-111363224D01*
X142364849Y-111366434D01*
X142376116Y-111369482D01*
X142388482Y-111372376D01*
X142402082Y-111375128D01*
X142417055Y-111377749D01*
X142451658Y-111382639D01*
X142493382Y-111387131D01*
X142543318Y-111391310D01*
X142602556Y-111395262D01*
X142672185Y-111399072D01*
X142753297Y-111402825D01*
X142846983Y-111406606D01*
X143076433Y-111414595D01*
X143369259Y-111423721D01*
X143529828Y-111429123D01*
X143713217Y-111436510D01*
X144057176Y-111451944D01*
X144894582Y-111490749D01*
X145156519Y-111496468D01*
X145256110Y-111495291D01*
X145337759Y-111491190D01*
X145403698Y-111483988D01*
X145456160Y-111473510D01*
X145497377Y-111459580D01*
X145529582Y-111442022D01*
X145555007Y-111420661D01*
X145575884Y-111395320D01*
X145612926Y-111332000D01*
X145620710Y-111317473D01*
X145627578Y-111303764D01*
X145630691Y-111296953D01*
X145633603Y-111290033D01*
X145636323Y-111282899D01*
X145638860Y-111275445D01*
X145641225Y-111267567D01*
X145643426Y-111259162D01*
X145645472Y-111250123D01*
X145647373Y-111240346D01*
X145649139Y-111229727D01*
X145650778Y-111218162D01*
X145652301Y-111205544D01*
X145653716Y-111191770D01*
X145655032Y-111176736D01*
X145656260Y-111160336D01*
X145658487Y-111123020D01*
X145660471Y-111078987D01*
X145662287Y-111027398D01*
X145664010Y-110967417D01*
X145665715Y-110898207D01*
X145669370Y-110728750D01*
X145687671Y-110143800D01*
X145700872Y-109796341D01*
X145715231Y-109467569D01*
X145750151Y-108687710D01*
X145764400Y-108294142D01*
X145764755Y-108195709D01*
X145761120Y-108138038D01*
X145753889Y-108102526D01*
X145743454Y-108070569D01*
X145736820Y-108052402D01*
X145729491Y-108034950D01*
X145721474Y-108018227D01*
X145712778Y-108002246D01*
X145703411Y-107987019D01*
X145693379Y-107972560D01*
X145682691Y-107958880D01*
X145671355Y-107945994D01*
X145659377Y-107933914D01*
X145646767Y-107922654D01*
X145633531Y-107912225D01*
X145619678Y-107902641D01*
X145605215Y-107893915D01*
X145590150Y-107886060D01*
X145574491Y-107879088D01*
X145558245Y-107873013D01*
X145549594Y-107870969D01*
X145535749Y-107868817D01*
X145493698Y-107864249D01*
X145434532Y-107859433D01*
X145360690Y-107854492D01*
X145274610Y-107849552D01*
X145178733Y-107844736D01*
X144967342Y-107835972D01*
X144634105Y-107823707D01*
X144341382Y-107810616D01*
X144010625Y-107792564D01*
X143563287Y-107765416D01*
X143027285Y-107734769D01*
X142619606Y-107716028D01*
X142574692Y-107714529D01*
X142555862Y-107714225D01*
X142539101Y-107714291D01*
X142524149Y-107714780D01*
X142510745Y-107715748D01*
X142498627Y-107717248D01*
X142487535Y-107719334D01*
X142477208Y-107722061D01*
X142467385Y-107725484D01*
X142457804Y-107729655D01*
X142448206Y-107734630D01*
X142438328Y-107740463D01*
X142427911Y-107747208D01*
X142404412Y-107763652D01*
X142395087Y-107770599D01*
X142386287Y-107777560D01*
X142377999Y-107784546D01*
X142370209Y-107791571D01*
X142362905Y-107798648D01*
X142356074Y-107805789D01*
X142349702Y-107813008D01*
X142343778Y-107820317D01*
X142338288Y-107827730D01*
X142333219Y-107835258D01*
X142328558Y-107842916D01*
X142324293Y-107850717D01*
X142320410Y-107858672D01*
X142316896Y-107866795D01*
X142313739Y-107875099D01*
X142310926Y-107883597D01*
X142306626Y-107902749D01*
X142302323Y-107929820D01*
X142293700Y-108007978D01*
X142285036Y-108118590D01*
X142283889Y-108137459D01*
X142276309Y-108262171D01*
X142267500Y-108439239D01*
X142258588Y-108650309D01*
X142249551Y-108895900D01*
X142240370Y-109176528D01*
X142231716Y-109447863D01*
X142220085Y-109750452D01*
X142194509Y-110301888D01*
X142184263Y-110513038D01*
X142177366Y-110693968D01*
X142173859Y-110846537D01*
X142173783Y-110972607D01*
X141773250Y-110972607D01*
X141773849Y-110961831D01*
X141776880Y-110895235D01*
X141779681Y-110818601D01*
X141782426Y-110731058D01*
X141785286Y-110631736D01*
X141799839Y-110145785D01*
X141817037Y-109696875D01*
X141834896Y-109195489D01*
X141854079Y-108585624D01*
X141861351Y-108330959D01*
X141865296Y-108137459D01*
X141864900Y-107995676D01*
X141862757Y-107941226D01*
X141859150Y-107896164D01*
X141853951Y-107859308D01*
X141847033Y-107829478D01*
X141838271Y-107805492D01*
X141827537Y-107786169D01*
X141814706Y-107770330D01*
X141799649Y-107756793D01*
X141762356Y-107731902D01*
X141749754Y-107724658D01*
X141736118Y-107718104D01*
X141720994Y-107712186D01*
X141703927Y-107706849D01*
X141684463Y-107702040D01*
X141662145Y-107697703D01*
X141636521Y-107693784D01*
X141607134Y-107690230D01*
X141573531Y-107686986D01*
X141535256Y-107683998D01*
X141491854Y-107681211D01*
X141442872Y-107678572D01*
X141387854Y-107676026D01*
X141326345Y-107673518D01*
X141182037Y-107668402D01*
X141045032Y-107663276D01*
X140899594Y-107656496D01*
X140763086Y-107649055D01*
X140652870Y-107641944D01*
X140521019Y-107633951D01*
X140325669Y-107624305D01*
X140093277Y-107614659D01*
X139850301Y-107606666D01*
X139616199Y-107597929D01*
X139410210Y-107588366D01*
X139254492Y-107579133D01*
X139202409Y-107575002D01*
X139171204Y-107571388D01*
X139140301Y-107566920D01*
X139108610Y-107563420D01*
X139076376Y-107560866D01*
X139043845Y-107559234D01*
X139011263Y-107558501D01*
X138978874Y-107558645D01*
X138946925Y-107559641D01*
X138915660Y-107561466D01*
X138885326Y-107564098D01*
X138856167Y-107567512D01*
X138828429Y-107571686D01*
X138802358Y-107576597D01*
X138778199Y-107582221D01*
X138756197Y-107588534D01*
X138736598Y-107595514D01*
X138719648Y-107603138D01*
X138709679Y-107608478D01*
X138700252Y-107613938D01*
X138691332Y-107619559D01*
X138682882Y-107625380D01*
X138674866Y-107631437D01*
X138667248Y-107637772D01*
X138659992Y-107644421D01*
X138653061Y-107651425D01*
X138646420Y-107658821D01*
X138640032Y-107666649D01*
X138633861Y-107674947D01*
X138627871Y-107683754D01*
X138622025Y-107693109D01*
X138616288Y-107703050D01*
X138610624Y-107713617D01*
X138604995Y-107724847D01*
X138598122Y-107739303D01*
X138592011Y-107753345D01*
X138586597Y-107767635D01*
X138584132Y-107775080D01*
X138581817Y-107782835D01*
X138579644Y-107790982D01*
X138577605Y-107799605D01*
X138575691Y-107808787D01*
X138573896Y-107818608D01*
X138570627Y-107840505D01*
X138567733Y-107865958D01*
X138565149Y-107895627D01*
X138562810Y-107930174D01*
X138562176Y-107941946D01*
X138560652Y-107970261D01*
X138558610Y-108016550D01*
X138556620Y-108069701D01*
X138554617Y-108130376D01*
X138550314Y-108276944D01*
X138535983Y-108713286D01*
X138520329Y-109105972D01*
X138498252Y-109653824D01*
X138479979Y-110288659D01*
X138469975Y-110822952D01*
X138469469Y-110993794D01*
X138053002Y-110993794D01*
X138053105Y-110993050D01*
X138054794Y-110979105D01*
X138057831Y-110948491D01*
X138060486Y-110913960D01*
X138062843Y-110875169D01*
X138064989Y-110831773D01*
X138067008Y-110783429D01*
X138095231Y-110217222D01*
X138102976Y-110041880D01*
X138112208Y-109792124D01*
X138130509Y-109202986D01*
X138148809Y-108608996D01*
X138165787Y-108171111D01*
X138170331Y-108079371D01*
X138173366Y-108003734D01*
X138174871Y-107941946D01*
X138174826Y-107891755D01*
X138173211Y-107850906D01*
X138170003Y-107817148D01*
X138165184Y-107788226D01*
X138158731Y-107761888D01*
X138145612Y-107721508D01*
X138139477Y-107704051D01*
X138133486Y-107688218D01*
X138127536Y-107673864D01*
X138121524Y-107660840D01*
X138115347Y-107649000D01*
X138108901Y-107638195D01*
X138102083Y-107628280D01*
X138094790Y-107619106D01*
X138086918Y-107610526D01*
X138078364Y-107602394D01*
X138069024Y-107594561D01*
X138058796Y-107586881D01*
X138047575Y-107579206D01*
X138035259Y-107571388D01*
X138027530Y-107567025D01*
X138019090Y-107562855D01*
X138009734Y-107558867D01*
X137999257Y-107555048D01*
X137987455Y-107551386D01*
X137974123Y-107547867D01*
X137959056Y-107544479D01*
X137942048Y-107541209D01*
X137901395Y-107534976D01*
X137850526Y-107529065D01*
X137787802Y-107523377D01*
X137711585Y-107517810D01*
X137620238Y-107512264D01*
X137512121Y-107506638D01*
X137385598Y-107500831D01*
X137239029Y-107494742D01*
X136879202Y-107481316D01*
X136419537Y-107465555D01*
X135657757Y-107438435D01*
X135325926Y-107423221D01*
X135322531Y-107422560D01*
X135317699Y-107421902D01*
X135304098Y-107420603D01*
X135285866Y-107419346D01*
X135263749Y-107418150D01*
X135238489Y-107417038D01*
X135210832Y-107416028D01*
X135151300Y-107414402D01*
X135107379Y-107414123D01*
X135071126Y-107414816D01*
X135055378Y-107415623D01*
X135040950Y-107416790D01*
X135027644Y-107418354D01*
X135015260Y-107420355D01*
X135003600Y-107422832D01*
X134992464Y-107425823D01*
X134981654Y-107429366D01*
X134970970Y-107433502D01*
X134960214Y-107438268D01*
X134949187Y-107443703D01*
X134937689Y-107449846D01*
X134925523Y-107456736D01*
X134917863Y-107461584D01*
X134910130Y-107466833D01*
X134902377Y-107472428D01*
X134894655Y-107478315D01*
X134887015Y-107484440D01*
X134879510Y-107490749D01*
X134872191Y-107497186D01*
X134865109Y-107503699D01*
X134858317Y-107510232D01*
X134851866Y-107516731D01*
X134845808Y-107523143D01*
X134840194Y-107529413D01*
X134835077Y-107535486D01*
X134830507Y-107541309D01*
X134826536Y-107546826D01*
X134823217Y-107551985D01*
X134817948Y-107566662D01*
X134812734Y-107588782D01*
X134812074Y-107592555D01*
X134807586Y-107618225D01*
X134802519Y-107654870D01*
X134792676Y-107749276D01*
X134783309Y-107871029D01*
X134774521Y-108019158D01*
X134766414Y-108192691D01*
X134759094Y-108390656D01*
X134752662Y-108612083D01*
X134742960Y-108958246D01*
X134733258Y-109232972D01*
X134720912Y-109458749D01*
X134849676Y-109458749D01*
X134878559Y-109459469D01*
X134912735Y-109461533D01*
X134950879Y-109464796D01*
X134991668Y-109469112D01*
X135033781Y-109474338D01*
X135075894Y-109480329D01*
X135116684Y-109486941D01*
X135154828Y-109494027D01*
X135238991Y-109513534D01*
X135320796Y-109537632D01*
X135400197Y-109566283D01*
X135477151Y-109599447D01*
X135551615Y-109637087D01*
X135623544Y-109679163D01*
X135692894Y-109725637D01*
X135759622Y-109776470D01*
X135823683Y-109831623D01*
X135885034Y-109891057D01*
X135943630Y-109954734D01*
X135999428Y-110022615D01*
X136052384Y-110094661D01*
X136102454Y-110170833D01*
X136149593Y-110251093D01*
X136193759Y-110335402D01*
X136222012Y-110392656D01*
X136243837Y-110439224D01*
X136252603Y-110459346D01*
X136260080Y-110477812D01*
X136266374Y-110494960D01*
X136271590Y-110511130D01*
X136275835Y-110526658D01*
X136279214Y-110541884D01*
X136281834Y-110557146D01*
X136283800Y-110572783D01*
X136285218Y-110589133D01*
X136286194Y-110606534D01*
X136287245Y-110645846D01*
X136286645Y-110674701D01*
X136284844Y-110702391D01*
X136281839Y-110728907D01*
X136277626Y-110754243D01*
X136272205Y-110778390D01*
X136265572Y-110801341D01*
X136257724Y-110823088D01*
X136248660Y-110843623D01*
X136238376Y-110862938D01*
X136226870Y-110881026D01*
X136214139Y-110897879D01*
X136200180Y-110913489D01*
X136184992Y-110927849D01*
X136168572Y-110940950D01*
X136150916Y-110952785D01*
X136132023Y-110963347D01*
X136122060Y-110968228D01*
X136112328Y-110972609D01*
X136102797Y-110976478D01*
X136093441Y-110979821D01*
X136084231Y-110982623D01*
X136075139Y-110984872D01*
X136066136Y-110986554D01*
X136057195Y-110987655D01*
X136048288Y-110988162D01*
X136039386Y-110988060D01*
X136030462Y-110987338D01*
X136021487Y-110985980D01*
X136012433Y-110983974D01*
X136003272Y-110981306D01*
X135993976Y-110977963D01*
X135984518Y-110973930D01*
X135974868Y-110969194D01*
X135964998Y-110963742D01*
X135954881Y-110957559D01*
X135944489Y-110950634D01*
X135933793Y-110942951D01*
X135922766Y-110934498D01*
X135911378Y-110925260D01*
X135899603Y-110915225D01*
X135874776Y-110892707D01*
X135848061Y-110866835D01*
X135819232Y-110837501D01*
X135788065Y-110804596D01*
X135729801Y-110740517D01*
X135677822Y-110682226D01*
X135637748Y-110636173D01*
X135623933Y-110619750D01*
X135615203Y-110608806D01*
X135604950Y-110596215D01*
X135590392Y-110581172D01*
X135572020Y-110564037D01*
X135550325Y-110545167D01*
X135525799Y-110524923D01*
X135498931Y-110503664D01*
X135440137Y-110459536D01*
X135377871Y-110415656D01*
X135346662Y-110394706D01*
X135316059Y-110374897D01*
X135286551Y-110356586D01*
X135258629Y-110340132D01*
X135232785Y-110325896D01*
X135209509Y-110314235D01*
X135185405Y-110303498D01*
X135158976Y-110293155D01*
X135130583Y-110283272D01*
X135100589Y-110273914D01*
X135069354Y-110265145D01*
X135037240Y-110257030D01*
X135004610Y-110249633D01*
X134971825Y-110243019D01*
X134939246Y-110237252D01*
X134907236Y-110232398D01*
X134876156Y-110228520D01*
X134846368Y-110225683D01*
X134818234Y-110223952D01*
X134792115Y-110223392D01*
X134768373Y-110224067D01*
X134747370Y-110226041D01*
X134673287Y-110236624D01*
X134673287Y-110963347D01*
X134230587Y-110963347D01*
X134230668Y-110963288D01*
X134237752Y-110957604D01*
X134244307Y-110951786D01*
X134250357Y-110945787D01*
X134255927Y-110939559D01*
X134261044Y-110933055D01*
X134265732Y-110926228D01*
X134270018Y-110919029D01*
X134273926Y-110911412D01*
X134277483Y-110903328D01*
X134280713Y-110894732D01*
X134283643Y-110885574D01*
X134286298Y-110875807D01*
X134288703Y-110865385D01*
X134290883Y-110854259D01*
X134292866Y-110842383D01*
X134296336Y-110816187D01*
X134299318Y-110786417D01*
X134302016Y-110752695D01*
X134304634Y-110714639D01*
X134310994Y-110618049D01*
X134315493Y-110537892D01*
X134318091Y-110473072D01*
X134318746Y-110422495D01*
X134317416Y-110385064D01*
X134315994Y-110370936D01*
X134314060Y-110359684D01*
X134311610Y-110351170D01*
X134308637Y-110345259D01*
X134305138Y-110341813D01*
X134301106Y-110340694D01*
X134297575Y-110341652D01*
X134292352Y-110344448D01*
X134277290Y-110355095D01*
X134256849Y-110371715D01*
X134231956Y-110393390D01*
X134172525Y-110448222D01*
X134106417Y-110512232D01*
X134041054Y-110578061D01*
X133983855Y-110638350D01*
X133960636Y-110664117D01*
X133942241Y-110685741D01*
X133929598Y-110702300D01*
X133925724Y-110708392D01*
X133923634Y-110712874D01*
X133923031Y-110714439D01*
X133922217Y-110716153D01*
X133919983Y-110720002D01*
X133916984Y-110724374D01*
X133913271Y-110729218D01*
X133908898Y-110734486D01*
X133903915Y-110740128D01*
X133898373Y-110746097D01*
X133892325Y-110752341D01*
X133885823Y-110758813D01*
X133878917Y-110765463D01*
X133871660Y-110772243D01*
X133864103Y-110779103D01*
X133856298Y-110785993D01*
X133848297Y-110792866D01*
X133840151Y-110799671D01*
X133831912Y-110806360D01*
X133819487Y-110816085D01*
X133807920Y-110824788D01*
X133797077Y-110832525D01*
X133786822Y-110839351D01*
X133777023Y-110845318D01*
X133767543Y-110850482D01*
X133758250Y-110854896D01*
X133749008Y-110858616D01*
X133739684Y-110861694D01*
X133730143Y-110864186D01*
X133720250Y-110866146D01*
X133709872Y-110867628D01*
X133698874Y-110868686D01*
X133687121Y-110869375D01*
X133674479Y-110869748D01*
X133660814Y-110869861D01*
X133645097Y-110869522D01*
X133629704Y-110868516D01*
X133614653Y-110866858D01*
X133599957Y-110864562D01*
X133585631Y-110861643D01*
X133571692Y-110858117D01*
X133558153Y-110853998D01*
X133545031Y-110849300D01*
X133532341Y-110844039D01*
X133520097Y-110838230D01*
X133508315Y-110831887D01*
X133497010Y-110825026D01*
X133486198Y-110817661D01*
X133475892Y-110809806D01*
X133466110Y-110801478D01*
X133456865Y-110792690D01*
X133448173Y-110783458D01*
X133440049Y-110773796D01*
X133432508Y-110763720D01*
X133425566Y-110753244D01*
X133419238Y-110742383D01*
X133413538Y-110731151D01*
X133408482Y-110719565D01*
X133404086Y-110707638D01*
X133400364Y-110695385D01*
X133397331Y-110682822D01*
X133395004Y-110669963D01*
X133393396Y-110656822D01*
X133392523Y-110643416D01*
X133392401Y-110629759D01*
X133393044Y-110615865D01*
X133394467Y-110601749D01*
X133397551Y-110581182D01*
X133402105Y-110558672D01*
X133408029Y-110534466D01*
X133415221Y-110508814D01*
X133423581Y-110481963D01*
X133433008Y-110454161D01*
X133443401Y-110425657D01*
X133454660Y-110396697D01*
X133466684Y-110367531D01*
X133479372Y-110338406D01*
X133492623Y-110309571D01*
X133506336Y-110281273D01*
X133520412Y-110253760D01*
X133534748Y-110227281D01*
X133549244Y-110202084D01*
X133563800Y-110178416D01*
X133595257Y-110131472D01*
X133629250Y-110084730D01*
X133665508Y-110038432D01*
X133703754Y-109992822D01*
X133743717Y-109948141D01*
X133785121Y-109904634D01*
X133827693Y-109862543D01*
X133871159Y-109822110D01*
X133915245Y-109783580D01*
X133959677Y-109747193D01*
X134004181Y-109713195D01*
X134048485Y-109681826D01*
X134092312Y-109653331D01*
X134135391Y-109627952D01*
X134177446Y-109605931D01*
X134218204Y-109587513D01*
X134253833Y-109572337D01*
X134268782Y-109565627D01*
X134281979Y-109559374D01*
X134293544Y-109553482D01*
X134303594Y-109547857D01*
X134312249Y-109542402D01*
X134319627Y-109537022D01*
X134325848Y-109531621D01*
X134331030Y-109526104D01*
X134335292Y-109520376D01*
X134338754Y-109514339D01*
X134341533Y-109507900D01*
X134343749Y-109500962D01*
X134345521Y-109493430D01*
X134346967Y-109485208D01*
X134350367Y-109446695D01*
X134353995Y-109375213D01*
X134362180Y-109127799D01*
X134372020Y-108731889D01*
X134384009Y-108176402D01*
X134396356Y-107592555D01*
X134348731Y-107509652D01*
X134342697Y-107499898D01*
X134336511Y-107490487D01*
X134330186Y-107481433D01*
X134323733Y-107472748D01*
X134317168Y-107464446D01*
X134310501Y-107456539D01*
X134303747Y-107449041D01*
X134296917Y-107441963D01*
X134290026Y-107435319D01*
X134283085Y-107429123D01*
X134276108Y-107423386D01*
X134269108Y-107418123D01*
X134262098Y-107413345D01*
X134255091Y-107409065D01*
X134248098Y-107405298D01*
X134241135Y-107402054D01*
X134225046Y-107397096D01*
X134202053Y-107392153D01*
X134172363Y-107387241D01*
X134136183Y-107382376D01*
X134045177Y-107372847D01*
X133930690Y-107363690D01*
X133794374Y-107355029D01*
X133637884Y-107346988D01*
X133462873Y-107339692D01*
X133270995Y-107333264D01*
X132954818Y-107323783D01*
X132715370Y-107315625D01*
X131612940Y-107264472D01*
X131545729Y-107261633D01*
X131476762Y-107260944D01*
X131408580Y-107262239D01*
X131343726Y-107265354D01*
X131284742Y-107270122D01*
X131234172Y-107276378D01*
X131212836Y-107280013D01*
X131194556Y-107283957D01*
X131179651Y-107288191D01*
X131168439Y-107292694D01*
X131161286Y-107296416D01*
X131154377Y-107300312D01*
X131147707Y-107304389D01*
X131141271Y-107308655D01*
X131135065Y-107313119D01*
X131129085Y-107317789D01*
X131123325Y-107322673D01*
X131117782Y-107327779D01*
X131112451Y-107333114D01*
X131107327Y-107338688D01*
X131102406Y-107344508D01*
X131097684Y-107350582D01*
X131093155Y-107356918D01*
X131088815Y-107363525D01*
X131084660Y-107370410D01*
X131080685Y-107377581D01*
X131076886Y-107385047D01*
X131073259Y-107392816D01*
X131069797Y-107400895D01*
X131066498Y-107409293D01*
X131063357Y-107418018D01*
X131060369Y-107427078D01*
X131057529Y-107436481D01*
X131054833Y-107446235D01*
X131049856Y-107466828D01*
X131045400Y-107488923D01*
X131041431Y-107512584D01*
X131037911Y-107537874D01*
X131034135Y-107581851D01*
X131029532Y-107656854D01*
X131018508Y-107883817D01*
X131006161Y-108186517D01*
X130993814Y-108532708D01*
X130949716Y-109926180D01*
X130942827Y-110145233D01*
X130938252Y-110350395D01*
X130936323Y-110518516D01*
X129756251Y-110518516D01*
X129758100Y-110471470D01*
X129762619Y-110384791D01*
X129768104Y-110249909D01*
X129776070Y-109987034D01*
X129796134Y-109229444D01*
X129810493Y-108707746D01*
X129823695Y-108361831D01*
X129830740Y-108237170D01*
X129838550Y-108135309D01*
X129847477Y-108049199D01*
X129857871Y-107971792D01*
X129875227Y-107869303D01*
X129896510Y-107766712D01*
X129921184Y-107665732D01*
X129948710Y-107568081D01*
X129978551Y-107475473D01*
X130010170Y-107389625D01*
X130026478Y-107349772D01*
X130043030Y-107312252D01*
X130059756Y-107277279D01*
X130076592Y-107245069D01*
X130132375Y-107144086D01*
X130184189Y-107051041D01*
X130190004Y-107041221D01*
X130196808Y-107030353D01*
X130213045Y-107005924D01*
X130232217Y-106978643D01*
X130253642Y-106949397D01*
X130276638Y-106919077D01*
X130300523Y-106888570D01*
X130324615Y-106858767D01*
X130348232Y-106830555D01*
X130397717Y-106775130D01*
X130447119Y-106722513D01*
X130496687Y-106672538D01*
X130546669Y-106625034D01*
X130597312Y-106579836D01*
X130648864Y-106536774D01*
X130701574Y-106495682D01*
X130755690Y-106456390D01*
X130811459Y-106418731D01*
X130869130Y-106382538D01*
X130928950Y-106347641D01*
X130991169Y-106313873D01*
X131056033Y-106281067D01*
X131123791Y-106249054D01*
X131194691Y-106217666D01*
X131268981Y-106186736D01*
X131436551Y-106119708D01*
X131824606Y-106114416D01*
X132007168Y-106114333D01*
X132217512Y-106116400D01*
X132429840Y-106120121D01*
X132618356Y-106125000D01*
X132997812Y-106141095D01*
X133186135Y-106150052D01*
X133341551Y-106158513D01*
X133508734Y-106167277D01*
X133729165Y-106177034D01*
X134214676Y-106195555D01*
X134448198Y-106203300D01*
X134673948Y-106212532D01*
X134866295Y-106222096D01*
X134999606Y-106230833D01*
X135138375Y-106238577D01*
X135347754Y-106247810D01*
X135599136Y-106257374D01*
X135863912Y-106266111D01*
X136403220Y-106284411D01*
X136807592Y-106301388D01*
X137108335Y-106315941D01*
X137398495Y-106327847D01*
X137727267Y-106339201D01*
X137979476Y-106349895D01*
X138177114Y-106360589D01*
X138342175Y-106371944D01*
X138394155Y-106376137D01*
X138464656Y-106380681D01*
X138648651Y-106390244D01*
X138869027Y-106399477D01*
X139100648Y-106407222D01*
X139645910Y-106427947D01*
X140176620Y-106451319D01*
X140699392Y-106474690D01*
X141226134Y-106495416D01*
X141705912Y-106512173D01*
X142116898Y-106528929D01*
X142940854Y-106565531D01*
X144110092Y-106610069D01*
X144417671Y-106622333D01*
X144714665Y-106636748D01*
X144967342Y-106651493D01*
X145141967Y-106664749D01*
X145441828Y-106691207D01*
X145635856Y-106788221D01*
X145675945Y-106808760D01*
X145715462Y-106829993D01*
X145754334Y-106851873D01*
X145792484Y-106874349D01*
X145829839Y-106897373D01*
X145866323Y-106920896D01*
X145901861Y-106944868D01*
X145936379Y-106969241D01*
X145969801Y-106993965D01*
X146002053Y-107018991D01*
X146033059Y-107044271D01*
X146062745Y-107069755D01*
X146091036Y-107095393D01*
X146117856Y-107121138D01*
X146143132Y-107146940D01*
X146166787Y-107172749D01*
X146188175Y-107197171D01*
X146211142Y-107225166D01*
X146235407Y-107256299D01*
X146260686Y-107290131D01*
X146313166Y-107364149D01*
X146366327Y-107443727D01*
X146417917Y-107525372D01*
X146465683Y-107605591D01*
X146507372Y-107680891D01*
X146525234Y-107715604D01*
X146540731Y-107747777D01*
X146555910Y-107782450D01*
X146570965Y-107820107D01*
X146585814Y-107860425D01*
X146600373Y-107903082D01*
X146628292Y-107994119D01*
X146654061Y-108090633D01*
X146677019Y-108190041D01*
X146678127Y-108195709D01*
G37*
G36*
X136691203Y-108333140D02*
G01*
X136725245Y-108336134D01*
X136759254Y-108341281D01*
X136793185Y-108348592D01*
X136826994Y-108358082D01*
X136847472Y-108364739D01*
X136868443Y-108372721D01*
X136889739Y-108381907D01*
X136911193Y-108392175D01*
X136932637Y-108403405D01*
X136953902Y-108415474D01*
X136974821Y-108428262D01*
X136995226Y-108441647D01*
X137014948Y-108455507D01*
X137033821Y-108469721D01*
X137051676Y-108484168D01*
X137068344Y-108498725D01*
X137083659Y-108513273D01*
X137097452Y-108527688D01*
X137109555Y-108541851D01*
X137119801Y-108555638D01*
X137132385Y-108575261D01*
X137144326Y-108595711D01*
X137155601Y-108616906D01*
X137166185Y-108638761D01*
X137176057Y-108661196D01*
X137185192Y-108684126D01*
X137193567Y-108707470D01*
X137201160Y-108731145D01*
X137207946Y-108755068D01*
X137213903Y-108779156D01*
X137219008Y-108803327D01*
X137223236Y-108827497D01*
X137226566Y-108851586D01*
X137228972Y-108875508D01*
X137230434Y-108899183D01*
X137230926Y-108922527D01*
X137229620Y-108959568D01*
X137225770Y-108995902D01*
X137219479Y-109031464D01*
X137210848Y-109066188D01*
X137199979Y-109100007D01*
X137186975Y-109132855D01*
X137171937Y-109164668D01*
X137154968Y-109195379D01*
X137136170Y-109224922D01*
X137115644Y-109253231D01*
X137093493Y-109280240D01*
X137069819Y-109305884D01*
X137044724Y-109330096D01*
X137018310Y-109352811D01*
X136990679Y-109373963D01*
X136961932Y-109393485D01*
X136932174Y-109411313D01*
X136901504Y-109427380D01*
X136870025Y-109441620D01*
X136837840Y-109453967D01*
X136805050Y-109464356D01*
X136771758Y-109472721D01*
X136738065Y-109478995D01*
X136704074Y-109483113D01*
X136669886Y-109485009D01*
X136635604Y-109484617D01*
X136601330Y-109481871D01*
X136567166Y-109476705D01*
X136533213Y-109469054D01*
X136499575Y-109458851D01*
X136466352Y-109446030D01*
X136433648Y-109430527D01*
X136407263Y-109416296D01*
X136382309Y-109402005D01*
X136358730Y-109387595D01*
X136336468Y-109373008D01*
X136315468Y-109358182D01*
X136295672Y-109343059D01*
X136277022Y-109327580D01*
X136259464Y-109311685D01*
X136242938Y-109295314D01*
X136227390Y-109278409D01*
X136212761Y-109260909D01*
X136198995Y-109242756D01*
X136186036Y-109223889D01*
X136173825Y-109204250D01*
X136162307Y-109183779D01*
X136151425Y-109162417D01*
X136134238Y-109126532D01*
X136127059Y-109110575D01*
X136120750Y-109095609D01*
X136115258Y-109081388D01*
X136110529Y-109067662D01*
X136106507Y-109054185D01*
X136103139Y-109040708D01*
X136100371Y-109026982D01*
X136098147Y-109012761D01*
X136096415Y-108997796D01*
X136095119Y-108981838D01*
X136094206Y-108964640D01*
X136093621Y-108945954D01*
X136093218Y-108903125D01*
X136094206Y-108860795D01*
X136095035Y-108842241D01*
X136096166Y-108825100D01*
X136097659Y-108809127D01*
X136099574Y-108794077D01*
X136101968Y-108779704D01*
X136104903Y-108765762D01*
X136108437Y-108752006D01*
X136112631Y-108738191D01*
X136117542Y-108724070D01*
X136123231Y-108709400D01*
X136129758Y-108693933D01*
X136137181Y-108677426D01*
X136154954Y-108640305D01*
X136163166Y-108624215D01*
X136171290Y-108608989D01*
X136179363Y-108594579D01*
X136187420Y-108580939D01*
X136195498Y-108568022D01*
X136203633Y-108555783D01*
X136211861Y-108544174D01*
X136220218Y-108533149D01*
X136228740Y-108522661D01*
X136237464Y-108512664D01*
X136246425Y-108503112D01*
X136255661Y-108493957D01*
X136265206Y-108485154D01*
X136275098Y-108476656D01*
X136285372Y-108468416D01*
X136296065Y-108460388D01*
X136327084Y-108438562D01*
X136358597Y-108418733D01*
X136390559Y-108400915D01*
X136422927Y-108385120D01*
X136455656Y-108371360D01*
X136488704Y-108359650D01*
X136522025Y-108350002D01*
X136555576Y-108342428D01*
X136589314Y-108336942D01*
X136623193Y-108333557D01*
X136657171Y-108332285D01*
X136691203Y-108333140D01*
G37*
G36*
X133001923Y-108029593D02*
G01*
X133023054Y-108030581D01*
X133044281Y-108032370D01*
X133065590Y-108034965D01*
X133086969Y-108038371D01*
X133108405Y-108042594D01*
X133129884Y-108047638D01*
X133161836Y-108056356D01*
X133192847Y-108066614D01*
X133222886Y-108078381D01*
X133251923Y-108091625D01*
X133279927Y-108106317D01*
X133306865Y-108122424D01*
X133332709Y-108139917D01*
X133357425Y-108158763D01*
X133380985Y-108178932D01*
X133403355Y-108200394D01*
X133424507Y-108223116D01*
X133444407Y-108247068D01*
X133463026Y-108272219D01*
X133480333Y-108298537D01*
X133496296Y-108325993D01*
X133510884Y-108354554D01*
X133530545Y-108400395D01*
X133546547Y-108446525D01*
X133558912Y-108492779D01*
X133567659Y-108538991D01*
X133572809Y-108584997D01*
X133574384Y-108630631D01*
X133572403Y-108675727D01*
X133566887Y-108720121D01*
X133557857Y-108763646D01*
X133545335Y-108806138D01*
X133529339Y-108847431D01*
X133509892Y-108887360D01*
X133487013Y-108925759D01*
X133460723Y-108962463D01*
X133431044Y-108997307D01*
X133397995Y-109030125D01*
X133377708Y-109048360D01*
X133357160Y-109065378D01*
X133336297Y-109081203D01*
X133315065Y-109095857D01*
X133293408Y-109109364D01*
X133271274Y-109121747D01*
X133248607Y-109133029D01*
X133225354Y-109143234D01*
X133201460Y-109152384D01*
X133176871Y-109160504D01*
X133151533Y-109167616D01*
X133125391Y-109173744D01*
X133098392Y-109178910D01*
X133070480Y-109183139D01*
X133041602Y-109186452D01*
X133011704Y-109188875D01*
X132969911Y-109191538D01*
X132951982Y-109192313D01*
X132935663Y-109192651D01*
X132920678Y-109192503D01*
X132906749Y-109191820D01*
X132893600Y-109190554D01*
X132880955Y-109188654D01*
X132868538Y-109186073D01*
X132856072Y-109182760D01*
X132843279Y-109178666D01*
X132829885Y-109173744D01*
X132815613Y-109167943D01*
X132800185Y-109161214D01*
X132764758Y-109144777D01*
X132737440Y-109131433D01*
X132711659Y-109117813D01*
X132687341Y-109103846D01*
X132664410Y-109089463D01*
X132642792Y-109074594D01*
X132622411Y-109059170D01*
X132603193Y-109043121D01*
X132585063Y-109026376D01*
X132567946Y-109008867D01*
X132551766Y-108990523D01*
X132536450Y-108971275D01*
X132521921Y-108951053D01*
X132508106Y-108929787D01*
X132494929Y-108907407D01*
X132482315Y-108883844D01*
X132470189Y-108859027D01*
X132454022Y-108821967D01*
X132440568Y-108784296D01*
X132429812Y-108746150D01*
X132421737Y-108707663D01*
X132416329Y-108668970D01*
X132413572Y-108630204D01*
X132413451Y-108591500D01*
X132415950Y-108552992D01*
X132421053Y-108514816D01*
X132428745Y-108477104D01*
X132439010Y-108439992D01*
X132451833Y-108403613D01*
X132467199Y-108368103D01*
X132485092Y-108333595D01*
X132505496Y-108300224D01*
X132528397Y-108268124D01*
X132542507Y-108250101D01*
X132557050Y-108232743D01*
X132572011Y-108216058D01*
X132587377Y-108200049D01*
X132603136Y-108184723D01*
X132619275Y-108170084D01*
X132635781Y-108156137D01*
X132652641Y-108142888D01*
X132669842Y-108130342D01*
X132687371Y-108118504D01*
X132705216Y-108107379D01*
X132723362Y-108096972D01*
X132741798Y-108087289D01*
X132760511Y-108078334D01*
X132779487Y-108070113D01*
X132798714Y-108062631D01*
X132818178Y-108055894D01*
X132837867Y-108049905D01*
X132857768Y-108044671D01*
X132877868Y-108040197D01*
X132898154Y-108036487D01*
X132918614Y-108033548D01*
X132939233Y-108031384D01*
X132960000Y-108030000D01*
X132980901Y-108029401D01*
X133001923Y-108029593D01*
G37*
D11*
X129504244Y-116064116D02*
X129571587Y-116064116D01*
X129571587Y-116064116D02*
X129706274Y-115996773D01*
X129706274Y-115996773D02*
X129773618Y-115929429D01*
X129773618Y-115929429D02*
X129840961Y-115794742D01*
X129840961Y-115794742D02*
X129840961Y-115660055D01*
X129840961Y-115660055D02*
X129807290Y-115559040D01*
X129807290Y-115559040D02*
X129706274Y-115390681D01*
X129706274Y-115390681D02*
X129605259Y-115289666D01*
X129605259Y-115289666D02*
X129436900Y-115188651D01*
X129436900Y-115188651D02*
X129335885Y-115154979D01*
X129335885Y-115154979D02*
X129201198Y-115154979D01*
X129201198Y-115154979D02*
X129066511Y-115222322D01*
X129066511Y-115222322D02*
X128999168Y-115289666D01*
X128999168Y-115289666D02*
X128931824Y-115424353D01*
X128931824Y-115424353D02*
X128931824Y-115491696D01*
X128628778Y-115660055D02*
X128157374Y-116131460D01*
X128157374Y-116131460D02*
X129167526Y-116535521D01*
X153465938Y-115868137D02*
X153513558Y-115820518D01*
X153513558Y-115820518D02*
X153561177Y-115677661D01*
X153561177Y-115677661D02*
X153561177Y-115582423D01*
X153561177Y-115582423D02*
X153513558Y-115439566D01*
X153513558Y-115439566D02*
X153418319Y-115344328D01*
X153418319Y-115344328D02*
X153323081Y-115296709D01*
X153323081Y-115296709D02*
X153132605Y-115249090D01*
X153132605Y-115249090D02*
X152989748Y-115249090D01*
X152989748Y-115249090D02*
X152799272Y-115296709D01*
X152799272Y-115296709D02*
X152704034Y-115344328D01*
X152704034Y-115344328D02*
X152608796Y-115439566D01*
X152608796Y-115439566D02*
X152561177Y-115582423D01*
X152561177Y-115582423D02*
X152561177Y-115677661D01*
X152561177Y-115677661D02*
X152608796Y-115820518D01*
X152608796Y-115820518D02*
X152656415Y-115868137D01*
X153561177Y-116820518D02*
X153561177Y-116249090D01*
X153561177Y-116534804D02*
X152561177Y-116534804D01*
X152561177Y-116534804D02*
X152704034Y-116439566D01*
X152704034Y-116439566D02*
X152799272Y-116344328D01*
X152799272Y-116344328D02*
X152846891Y-116249090D01*
X154975938Y-108177033D02*
X155023558Y-108129414D01*
X155023558Y-108129414D02*
X155071177Y-107986557D01*
X155071177Y-107986557D02*
X155071177Y-107891319D01*
X155071177Y-107891319D02*
X155023558Y-107748462D01*
X155023558Y-107748462D02*
X154928319Y-107653224D01*
X154928319Y-107653224D02*
X154833081Y-107605605D01*
X154833081Y-107605605D02*
X154642605Y-107557986D01*
X154642605Y-107557986D02*
X154499748Y-107557986D01*
X154499748Y-107557986D02*
X154309272Y-107605605D01*
X154309272Y-107605605D02*
X154214034Y-107653224D01*
X154214034Y-107653224D02*
X154118796Y-107748462D01*
X154118796Y-107748462D02*
X154071177Y-107891319D01*
X154071177Y-107891319D02*
X154071177Y-107986557D01*
X154071177Y-107986557D02*
X154118796Y-108129414D01*
X154118796Y-108129414D02*
X154166415Y-108177033D01*
X154166415Y-108557986D02*
X154118796Y-108605605D01*
X154118796Y-108605605D02*
X154071177Y-108700843D01*
X154071177Y-108700843D02*
X154071177Y-108938938D01*
X154071177Y-108938938D02*
X154118796Y-109034176D01*
X154118796Y-109034176D02*
X154166415Y-109081795D01*
X154166415Y-109081795D02*
X154261653Y-109129414D01*
X154261653Y-109129414D02*
X154356891Y-109129414D01*
X154356891Y-109129414D02*
X154499748Y-109081795D01*
X154499748Y-109081795D02*
X155071177Y-108510367D01*
X155071177Y-108510367D02*
X155071177Y-109129414D01*
X148466666Y-91977380D02*
X148514285Y-92025000D01*
X148514285Y-92025000D02*
X148657142Y-92072619D01*
X148657142Y-92072619D02*
X148752380Y-92072619D01*
X148752380Y-92072619D02*
X148895237Y-92025000D01*
X148895237Y-92025000D02*
X148990475Y-91929761D01*
X148990475Y-91929761D02*
X149038094Y-91834523D01*
X149038094Y-91834523D02*
X149085713Y-91644047D01*
X149085713Y-91644047D02*
X149085713Y-91501190D01*
X149085713Y-91501190D02*
X149038094Y-91310714D01*
X149038094Y-91310714D02*
X148990475Y-91215476D01*
X148990475Y-91215476D02*
X148895237Y-91120238D01*
X148895237Y-91120238D02*
X148752380Y-91072619D01*
X148752380Y-91072619D02*
X148657142Y-91072619D01*
X148657142Y-91072619D02*
X148514285Y-91120238D01*
X148514285Y-91120238D02*
X148466666Y-91167857D01*
X147609523Y-91405952D02*
X147609523Y-92072619D01*
X147847618Y-91025000D02*
X148085713Y-91739285D01*
X148085713Y-91739285D02*
X147466666Y-91739285D01*
X129811177Y-107008137D02*
X129334986Y-106674804D01*
X129811177Y-106436709D02*
X128811177Y-106436709D01*
X128811177Y-106436709D02*
X128811177Y-106817661D01*
X128811177Y-106817661D02*
X128858796Y-106912899D01*
X128858796Y-106912899D02*
X128906415Y-106960518D01*
X128906415Y-106960518D02*
X129001653Y-107008137D01*
X129001653Y-107008137D02*
X129144510Y-107008137D01*
X129144510Y-107008137D02*
X129239748Y-106960518D01*
X129239748Y-106960518D02*
X129287367Y-106912899D01*
X129287367Y-106912899D02*
X129334986Y-106817661D01*
X129334986Y-106817661D02*
X129334986Y-106436709D01*
X128906415Y-107389090D02*
X128858796Y-107436709D01*
X128858796Y-107436709D02*
X128811177Y-107531947D01*
X128811177Y-107531947D02*
X128811177Y-107770042D01*
X128811177Y-107770042D02*
X128858796Y-107865280D01*
X128858796Y-107865280D02*
X128906415Y-107912899D01*
X128906415Y-107912899D02*
X129001653Y-107960518D01*
X129001653Y-107960518D02*
X129096891Y-107960518D01*
X129096891Y-107960518D02*
X129239748Y-107912899D01*
X129239748Y-107912899D02*
X129811177Y-107341471D01*
X129811177Y-107341471D02*
X129811177Y-107960518D01*
X152445224Y-97282184D02*
X152492843Y-97329804D01*
X152492843Y-97329804D02*
X152635700Y-97377423D01*
X152635700Y-97377423D02*
X152730938Y-97377423D01*
X152730938Y-97377423D02*
X152873795Y-97329804D01*
X152873795Y-97329804D02*
X152969033Y-97234565D01*
X152969033Y-97234565D02*
X153016652Y-97139327D01*
X153016652Y-97139327D02*
X153064271Y-96948851D01*
X153064271Y-96948851D02*
X153064271Y-96805994D01*
X153064271Y-96805994D02*
X153016652Y-96615518D01*
X153016652Y-96615518D02*
X152969033Y-96520280D01*
X152969033Y-96520280D02*
X152873795Y-96425042D01*
X152873795Y-96425042D02*
X152730938Y-96377423D01*
X152730938Y-96377423D02*
X152635700Y-96377423D01*
X152635700Y-96377423D02*
X152492843Y-96425042D01*
X152492843Y-96425042D02*
X152445224Y-96472661D01*
X152111890Y-96377423D02*
X151492843Y-96377423D01*
X151492843Y-96377423D02*
X151826176Y-96758375D01*
X151826176Y-96758375D02*
X151683319Y-96758375D01*
X151683319Y-96758375D02*
X151588081Y-96805994D01*
X151588081Y-96805994D02*
X151540462Y-96853613D01*
X151540462Y-96853613D02*
X151492843Y-96948851D01*
X151492843Y-96948851D02*
X151492843Y-97186946D01*
X151492843Y-97186946D02*
X151540462Y-97282184D01*
X151540462Y-97282184D02*
X151588081Y-97329804D01*
X151588081Y-97329804D02*
X151683319Y-97377423D01*
X151683319Y-97377423D02*
X151969033Y-97377423D01*
X151969033Y-97377423D02*
X152064271Y-97329804D01*
X152064271Y-97329804D02*
X152111890Y-97282184D01*
X152445224Y-104377423D02*
X152778557Y-103901232D01*
X153016652Y-104377423D02*
X153016652Y-103377423D01*
X153016652Y-103377423D02*
X152635700Y-103377423D01*
X152635700Y-103377423D02*
X152540462Y-103425042D01*
X152540462Y-103425042D02*
X152492843Y-103472661D01*
X152492843Y-103472661D02*
X152445224Y-103567899D01*
X152445224Y-103567899D02*
X152445224Y-103710756D01*
X152445224Y-103710756D02*
X152492843Y-103805994D01*
X152492843Y-103805994D02*
X152540462Y-103853613D01*
X152540462Y-103853613D02*
X152635700Y-103901232D01*
X152635700Y-103901232D02*
X153016652Y-103901232D01*
X151588081Y-103710756D02*
X151588081Y-104377423D01*
X151826176Y-103329804D02*
X152064271Y-104044089D01*
X152064271Y-104044089D02*
X151445224Y-104044089D01*
X141680462Y-91017423D02*
X141680462Y-91826946D01*
X141680462Y-91826946D02*
X141632843Y-91922184D01*
X141632843Y-91922184D02*
X141585224Y-91969804D01*
X141585224Y-91969804D02*
X141489986Y-92017423D01*
X141489986Y-92017423D02*
X141299510Y-92017423D01*
X141299510Y-92017423D02*
X141204272Y-91969804D01*
X141204272Y-91969804D02*
X141156653Y-91922184D01*
X141156653Y-91922184D02*
X141109034Y-91826946D01*
X141109034Y-91826946D02*
X141109034Y-91017423D01*
X140109034Y-92017423D02*
X140680462Y-92017423D01*
X140394748Y-92017423D02*
X140394748Y-91017423D01*
X140394748Y-91017423D02*
X140489986Y-91160280D01*
X140489986Y-91160280D02*
X140585224Y-91255518D01*
X140585224Y-91255518D02*
X140680462Y-91303137D01*
X145215224Y-114888434D02*
X145262843Y-114936054D01*
X145262843Y-114936054D02*
X145405700Y-114983673D01*
X145405700Y-114983673D02*
X145500938Y-114983673D01*
X145500938Y-114983673D02*
X145643795Y-114936054D01*
X145643795Y-114936054D02*
X145739033Y-114840815D01*
X145739033Y-114840815D02*
X145786652Y-114745577D01*
X145786652Y-114745577D02*
X145834271Y-114555101D01*
X145834271Y-114555101D02*
X145834271Y-114412244D01*
X145834271Y-114412244D02*
X145786652Y-114221768D01*
X145786652Y-114221768D02*
X145739033Y-114126530D01*
X145739033Y-114126530D02*
X145643795Y-114031292D01*
X145643795Y-114031292D02*
X145500938Y-113983673D01*
X145500938Y-113983673D02*
X145405700Y-113983673D01*
X145405700Y-113983673D02*
X145262843Y-114031292D01*
X145262843Y-114031292D02*
X145215224Y-114078911D01*
X144310462Y-113983673D02*
X144786652Y-113983673D01*
X144786652Y-113983673D02*
X144834271Y-114459863D01*
X144834271Y-114459863D02*
X144786652Y-114412244D01*
X144786652Y-114412244D02*
X144691414Y-114364625D01*
X144691414Y-114364625D02*
X144453319Y-114364625D01*
X144453319Y-114364625D02*
X144358081Y-114412244D01*
X144358081Y-114412244D02*
X144310462Y-114459863D01*
X144310462Y-114459863D02*
X144262843Y-114555101D01*
X144262843Y-114555101D02*
X144262843Y-114793196D01*
X144262843Y-114793196D02*
X144310462Y-114888434D01*
X144310462Y-114888434D02*
X144358081Y-114936054D01*
X144358081Y-114936054D02*
X144453319Y-114983673D01*
X144453319Y-114983673D02*
X144691414Y-114983673D01*
X144691414Y-114983673D02*
X144786652Y-114936054D01*
X144786652Y-114936054D02*
X144834271Y-114888434D01*
X132056666Y-91707380D02*
X132104285Y-91755000D01*
X132104285Y-91755000D02*
X132247142Y-91802619D01*
X132247142Y-91802619D02*
X132342380Y-91802619D01*
X132342380Y-91802619D02*
X132485237Y-91755000D01*
X132485237Y-91755000D02*
X132580475Y-91659761D01*
X132580475Y-91659761D02*
X132628094Y-91564523D01*
X132628094Y-91564523D02*
X132675713Y-91374047D01*
X132675713Y-91374047D02*
X132675713Y-91231190D01*
X132675713Y-91231190D02*
X132628094Y-91040714D01*
X132628094Y-91040714D02*
X132580475Y-90945476D01*
X132580475Y-90945476D02*
X132485237Y-90850238D01*
X132485237Y-90850238D02*
X132342380Y-90802619D01*
X132342380Y-90802619D02*
X132247142Y-90802619D01*
X132247142Y-90802619D02*
X132104285Y-90850238D01*
X132104285Y-90850238D02*
X132056666Y-90897857D01*
X131199523Y-90802619D02*
X131389999Y-90802619D01*
X131389999Y-90802619D02*
X131485237Y-90850238D01*
X131485237Y-90850238D02*
X131532856Y-90897857D01*
X131532856Y-90897857D02*
X131628094Y-91040714D01*
X131628094Y-91040714D02*
X131675713Y-91231190D01*
X131675713Y-91231190D02*
X131675713Y-91612142D01*
X131675713Y-91612142D02*
X131628094Y-91707380D01*
X131628094Y-91707380D02*
X131580475Y-91755000D01*
X131580475Y-91755000D02*
X131485237Y-91802619D01*
X131485237Y-91802619D02*
X131294761Y-91802619D01*
X131294761Y-91802619D02*
X131199523Y-91755000D01*
X131199523Y-91755000D02*
X131151904Y-91707380D01*
X131151904Y-91707380D02*
X131104285Y-91612142D01*
X131104285Y-91612142D02*
X131104285Y-91374047D01*
X131104285Y-91374047D02*
X131151904Y-91278809D01*
X131151904Y-91278809D02*
X131199523Y-91231190D01*
X131199523Y-91231190D02*
X131294761Y-91183571D01*
X131294761Y-91183571D02*
X131485237Y-91183571D01*
X131485237Y-91183571D02*
X131580475Y-91231190D01*
X131580475Y-91231190D02*
X131628094Y-91278809D01*
X131628094Y-91278809D02*
X131675713Y-91374047D01*
X152445224Y-100377423D02*
X152778557Y-99901232D01*
X153016652Y-100377423D02*
X153016652Y-99377423D01*
X153016652Y-99377423D02*
X152635700Y-99377423D01*
X152635700Y-99377423D02*
X152540462Y-99425042D01*
X152540462Y-99425042D02*
X152492843Y-99472661D01*
X152492843Y-99472661D02*
X152445224Y-99567899D01*
X152445224Y-99567899D02*
X152445224Y-99710756D01*
X152445224Y-99710756D02*
X152492843Y-99805994D01*
X152492843Y-99805994D02*
X152540462Y-99853613D01*
X152540462Y-99853613D02*
X152635700Y-99901232D01*
X152635700Y-99901232D02*
X153016652Y-99901232D01*
X152111890Y-99377423D02*
X151492843Y-99377423D01*
X151492843Y-99377423D02*
X151826176Y-99758375D01*
X151826176Y-99758375D02*
X151683319Y-99758375D01*
X151683319Y-99758375D02*
X151588081Y-99805994D01*
X151588081Y-99805994D02*
X151540462Y-99853613D01*
X151540462Y-99853613D02*
X151492843Y-99948851D01*
X151492843Y-99948851D02*
X151492843Y-100186946D01*
X151492843Y-100186946D02*
X151540462Y-100282184D01*
X151540462Y-100282184D02*
X151588081Y-100329804D01*
X151588081Y-100329804D02*
X151683319Y-100377423D01*
X151683319Y-100377423D02*
X151969033Y-100377423D01*
X151969033Y-100377423D02*
X152064271Y-100329804D01*
X152064271Y-100329804D02*
X152111890Y-100282184D01*
X148111177Y-110225280D02*
X149111177Y-110891946D01*
X148111177Y-110891946D02*
X149111177Y-110225280D01*
X149111177Y-111796708D02*
X149111177Y-111225280D01*
X149111177Y-111510994D02*
X148111177Y-111510994D01*
X148111177Y-111510994D02*
X148254034Y-111415756D01*
X148254034Y-111415756D02*
X148349272Y-111320518D01*
X148349272Y-111320518D02*
X148396891Y-111225280D01*
D12*
X130980121Y-117406229D02*
X130610655Y-117775695D01*
X129976029Y-116402137D02*
X129606563Y-116771603D01*
X150738558Y-116296056D02*
X150738558Y-115773552D01*
X152158558Y-116296056D02*
X152158558Y-115773552D01*
X153328558Y-105774952D02*
X153328558Y-105252448D01*
X154748558Y-105774952D02*
X154748558Y-105252448D01*
X148038748Y-90670000D02*
X148561252Y-90670000D01*
X148038748Y-89250000D02*
X148561252Y-89250000D01*
X130288558Y-106913552D02*
X130288558Y-107436056D01*
X131708558Y-106913552D02*
X131708558Y-107436056D01*
X152017306Y-94554804D02*
X152539810Y-94554804D01*
X152017306Y-95974804D02*
X152539810Y-95974804D01*
X152017306Y-101554804D02*
X152539810Y-101554804D01*
X152017306Y-102974804D02*
X152539810Y-102974804D01*
D11*
X135743558Y-93829804D02*
X136418558Y-93829804D01*
X146093558Y-93829804D02*
X146093558Y-94404804D01*
X146093558Y-104179804D02*
X146093558Y-103504804D01*
X146093558Y-94404804D02*
X147368558Y-94404804D01*
X135743558Y-93829804D02*
X135743558Y-94504804D01*
X146093558Y-93829804D02*
X145418558Y-93829804D01*
X135743558Y-104179804D02*
X136418558Y-104179804D01*
X135743558Y-104179804D02*
X135743558Y-103504804D01*
X146093558Y-104179804D02*
X145418558Y-104179804D01*
D12*
X144787306Y-112161054D02*
X145309810Y-112161054D01*
X144787306Y-113581054D02*
X145309810Y-113581054D01*
X132151252Y-93700000D02*
X131628748Y-93700000D01*
X132151252Y-92280000D02*
X131628748Y-92280000D01*
X152017306Y-97554804D02*
X152539810Y-97554804D01*
X152017306Y-98974804D02*
X152539810Y-98974804D01*
X153298558Y-108384804D02*
X153298558Y-113684804D01*
X149598558Y-108384804D02*
X153298558Y-108384804D01*
M02*
