%TF.GenerationSoftware,KiCad,Pcbnew,(6.0.10)*%
%TF.CreationDate,2023-03-05T20:54:49-08:00*%
%TF.ProjectId,fr4 plate,66723420-706c-4617-9465-2e6b69636164,rev?*%
%TF.SameCoordinates,Original*%
%TF.FileFunction,Profile,NP*%
%FSLAX46Y46*%
G04 Gerber Fmt 4.6, Leading zero omitted, Abs format (unit mm)*
G04 Created by KiCad (PCBNEW (6.0.10)) date 2023-03-05 20:54:49*
%MOMM*%
%LPD*%
G01*
G04 APERTURE LIST*
%TA.AperFunction,Profile*%
%ADD10C,0.188976*%
%TD*%
%TA.AperFunction,Profile*%
%ADD11C,0.050000*%
%TD*%
G04 APERTURE END LIST*
D10*
X130506001Y-151121998D02*
X170131001Y-151121998D01*
X170988011Y-84672001D02*
X170988011Y-84672001D01*
X211756001Y-155822003D02*
X225756001Y-155822003D01*
X272956013Y-111222005D02*
X272956013Y-111222005D01*
X32875008Y-55810000D02*
X32875008Y-55810000D01*
X104312009Y-65622000D02*
X104312009Y-65622000D01*
X137650014Y-117722005D02*
X137650014Y-103722005D01*
X151938008Y-98672001D02*
X151938008Y-98672001D01*
X170988011Y-55810000D02*
X170988011Y-41810001D01*
X128125004Y-136772000D02*
X128125004Y-136772000D01*
X267763020Y-67092000D02*
X267763020Y-70321999D01*
X99550007Y-103722005D02*
X99550007Y-103722005D01*
X176038014Y-84672001D02*
X176038014Y-98672001D01*
X272131001Y-111222005D02*
X272131001Y-111222005D01*
X257581013Y-123322003D02*
X257581013Y-123322003D01*
X248331013Y-105191998D02*
X246605000Y-105191998D01*
X290338002Y-155822003D02*
X304338002Y-155822003D01*
X245687001Y-66172001D02*
X245687001Y-66172001D01*
X419007Y-137522000D02*
X3719006Y-137522000D01*
X257581013Y-123322003D02*
X257581013Y-124242001D01*
X247187001Y-98672001D02*
X247187001Y-84672001D01*
X241581013Y-108422001D02*
X240756001Y-108422001D01*
X75156010Y-143292004D02*
X75156010Y-143292004D01*
X199850011Y-117722005D02*
X199850011Y-117722005D01*
X47163006Y-79622002D02*
X47163006Y-65622000D01*
X132888005Y-84672001D02*
X118888005Y-84672001D01*
X147463002Y-79622002D02*
X147463002Y-79622002D01*
X285288014Y-155822003D02*
X285288014Y-141822003D01*
X156988011Y-41810001D02*
X156988011Y-55810000D01*
X240756001Y-108422001D02*
X240756001Y-111222005D01*
X142413014Y-79622002D02*
X142413014Y-79622002D01*
X185275014Y-136772000D02*
X185275014Y-136772000D01*
X-1305993Y-124242001D02*
X-1305993Y-127472005D01*
X223375004Y-136772000D02*
X223375004Y-136772000D01*
X113838010Y-55810000D02*
X113838010Y-41810001D01*
X287480000Y-55810000D02*
X287480000Y-55810000D01*
X209375004Y-122772000D02*
X209375004Y-136772000D01*
X71263005Y-65622000D02*
X71263005Y-79622002D01*
X90312009Y-79622002D02*
X90312009Y-79622002D01*
X250713002Y-79392003D02*
X250713002Y-74922001D01*
X76025006Y-122772000D02*
X76025006Y-136772000D01*
X248331013Y-113022000D02*
X248331013Y-113022000D01*
X225756001Y-155822003D02*
X225756001Y-141822003D01*
X263431019Y-130272000D02*
X263431019Y-130272000D01*
X257000020Y-84672001D02*
X257000020Y-98672001D01*
X250713002Y-74922001D02*
X252237996Y-74922001D01*
X104312009Y-79622002D02*
X104312009Y-65622000D01*
X249856007Y-117722005D02*
X263856007Y-117722005D01*
X114125004Y-136772000D02*
X114125004Y-136772000D01*
X204613011Y-79622002D02*
X204613011Y-79622002D01*
X270405995Y-117492001D02*
X272131001Y-117492001D01*
X116505009Y-151121998D02*
X116505009Y-151121998D01*
X24219006Y-123322003D02*
X24219006Y-124242001D01*
X223663014Y-79622002D02*
X237663014Y-79622002D01*
X238806004Y-132072003D02*
X240331013Y-132072003D01*
X241581013Y-105191998D02*
X241581013Y-105191998D01*
X290338002Y-141822003D02*
X290338002Y-155822003D01*
X171856007Y-156572003D02*
X171856007Y-156572003D01*
X248331013Y-117492001D02*
X248331013Y-117492001D01*
X-174993Y-84672001D02*
X-174993Y-98672001D01*
X271000020Y-98672001D02*
X271000020Y-98672001D01*
X187944005Y-155822003D02*
X187944005Y-155822003D01*
X180800007Y-117722005D02*
X180800007Y-117722005D01*
X56688008Y-84672001D02*
X42688008Y-84672001D01*
X213850011Y-117722005D02*
X213850011Y-117722005D01*
X95075009Y-136772000D02*
X109075009Y-136772000D01*
X243963002Y-67092000D02*
X243963002Y-67092000D01*
X209088002Y-98672001D02*
X209088002Y-98672001D01*
X170988011Y-98672001D02*
X170988011Y-84672001D01*
X61450009Y-117722005D02*
X61450009Y-103722005D01*
X85263005Y-79622002D02*
X85263005Y-79622002D01*
X225756001Y-141822003D02*
X225756001Y-141822003D01*
X9063006Y-41810001D02*
X9063006Y-41810001D01*
X254331013Y-136772000D02*
X254331013Y-136772000D01*
X255856007Y-132072003D02*
X255856007Y-136542004D01*
X70131009Y-146522000D02*
X69306004Y-146522000D01*
X76881009Y-151121998D02*
X76881009Y-151121998D01*
X252237996Y-70321999D02*
X250713002Y-70321999D01*
X270405995Y-117492001D02*
X270405995Y-117492001D01*
X243963002Y-73122002D02*
X243963002Y-79392003D01*
X71263005Y-79622002D02*
X71263005Y-79622002D01*
X113838010Y-98672001D02*
X113838010Y-98672001D01*
X272788014Y-67092000D02*
X272788014Y-67092000D01*
X223375004Y-136772000D02*
X223375004Y-122772000D01*
X248331013Y-108422001D02*
X248331013Y-105191998D01*
X3719006Y-123322003D02*
X419007Y-123322003D01*
X255856007Y-136542004D02*
X255856007Y-136542004D01*
X218900014Y-55810000D02*
X218900014Y-55810000D01*
X20969006Y-132072003D02*
X20969006Y-132072003D01*
X213850011Y-55810000D02*
X213850011Y-55810000D01*
X247187001Y-84672001D02*
X247187001Y-84672001D01*
X90312009Y-79622002D02*
X104312009Y-79622002D01*
X301480000Y-79910000D02*
X301480000Y-79910000D01*
X51925007Y-136772000D02*
X51925007Y-122772000D01*
X214138005Y-98672001D02*
X214138005Y-98672001D01*
X270405995Y-118472005D02*
X270405995Y-118472005D01*
X267106007Y-104272000D02*
X267106007Y-105191998D01*
X9063006Y-79622002D02*
X9063006Y-79622002D01*
X243306004Y-104272000D02*
X243306004Y-105191998D01*
X232056004Y-124242001D02*
X232056004Y-127472005D01*
X263856007Y-117722005D02*
X263856007Y-117722005D01*
X70131009Y-146522000D02*
X70131009Y-146522000D01*
X267763020Y-70321999D02*
X267763020Y-70321999D01*
X252237996Y-141822003D02*
X252237996Y-155822003D01*
X47450005Y-117722005D02*
X61450009Y-117722005D01*
X18875006Y-41810001D02*
X18875006Y-55810000D01*
X161750004Y-117722005D02*
X161750004Y-117722005D01*
X254331013Y-132072003D02*
X255856007Y-132072003D01*
X24219006Y-123322003D02*
X24219006Y-123322003D01*
X9063006Y-79622002D02*
X9063006Y-65622000D01*
X22494008Y-124242001D02*
X22494008Y-124242001D01*
X271288014Y-155822003D02*
X285288014Y-155822003D01*
X113838010Y-41810001D02*
X99838010Y-41810001D01*
X16206008Y-117722005D02*
X16206008Y-117722005D01*
X214138005Y-98672001D02*
X228138005Y-98672001D01*
X3719006Y-124242001D02*
X3719006Y-123322003D01*
X11444007Y-155822003D02*
X11444007Y-155822003D01*
X223375004Y-122772000D02*
X223375004Y-122772000D01*
X254331013Y-136772000D02*
X254331013Y-132072003D01*
X223375004Y-122772000D02*
X209375004Y-122772000D01*
X80500004Y-117722005D02*
X80500004Y-103722005D01*
X171275014Y-122772000D02*
X171275014Y-136772000D01*
X246605000Y-105191998D02*
X246605000Y-105191998D01*
X176881001Y-146522000D02*
X176881001Y-143292004D01*
X128413014Y-79622002D02*
X142413014Y-79622002D01*
X218900014Y-41810001D02*
X218900014Y-55810000D01*
X194800007Y-117722005D02*
X194800007Y-103722005D01*
X116505009Y-155822003D02*
X116505009Y-155822003D01*
X56688008Y-98672001D02*
X56688008Y-84672001D01*
X170131001Y-155592000D02*
X171856007Y-155592000D01*
X251950001Y-55810000D02*
X251950001Y-55810000D01*
X90025006Y-55810000D02*
X90025006Y-41810001D01*
X147175007Y-136772000D02*
X147175007Y-122772000D01*
X267763020Y-74922001D02*
X267763020Y-79392003D01*
X213850011Y-41810001D02*
X199850011Y-41810001D01*
X266237996Y-79622002D02*
X266237996Y-74922001D01*
X47163006Y-79622002D02*
X47163006Y-79622002D01*
X170988011Y-41810001D02*
X156988011Y-41810001D01*
X251950001Y-41810001D02*
X251950001Y-41810001D01*
X271000020Y-84672001D02*
X271000020Y-84672001D01*
X137650014Y-103722005D02*
X137650014Y-103722005D01*
X71263005Y-79622002D02*
X85263005Y-79622002D01*
X237081013Y-136542004D02*
X237081013Y-136542004D01*
X3719006Y-136542004D02*
X5444007Y-136542004D01*
X147175007Y-136772000D02*
X147175007Y-136772000D01*
X185563008Y-79622002D02*
X199563008Y-79622002D01*
X11444007Y-141822003D02*
X-2555993Y-141822003D01*
X243963002Y-79392003D02*
X245687001Y-79392003D01*
X185275014Y-136772000D02*
X185275014Y-122772000D01*
X56688008Y-84672001D02*
X56688008Y-84672001D01*
X70131009Y-143292004D02*
X70131009Y-143292004D01*
X35256009Y-141822003D02*
X35256009Y-141822003D01*
X27519005Y-124242001D02*
X27519005Y-123322003D01*
X243138005Y-70321999D02*
X243138005Y-70321999D01*
X170988011Y-41810001D02*
X170988011Y-41810001D01*
X176881001Y-149322003D02*
X177706013Y-149322003D01*
X267106007Y-118472005D02*
X267106007Y-118472005D01*
X248331013Y-117492001D02*
X248331013Y-113022000D01*
X151938008Y-55810000D02*
X151938008Y-55810000D01*
X199850011Y-117722005D02*
X213850011Y-117722005D01*
X76025006Y-136772000D02*
X90025006Y-136772000D01*
X123650014Y-103722005D02*
X123650014Y-117722005D01*
X285288014Y-155822003D02*
X285288014Y-155822003D01*
X246605000Y-104272000D02*
X246605000Y-104272000D01*
X180513005Y-65622000D02*
X180513005Y-65622000D01*
X69306004Y-146522000D02*
X69306004Y-149322003D01*
X3719006Y-137522000D02*
X3719006Y-137522000D01*
X213850011Y-103722005D02*
X213850011Y-103722005D01*
X201944005Y-141822003D02*
X187944005Y-141822003D01*
X156700001Y-103722005D02*
X156700001Y-103722005D01*
X114125004Y-136772000D02*
X128125004Y-136772000D01*
X2206007Y-103722005D02*
X2206007Y-117722005D01*
X29244008Y-124242001D02*
X29244008Y-124242001D01*
X176881001Y-143292004D02*
X176881001Y-143292004D01*
X5444007Y-127472005D02*
X5444007Y-127472005D01*
X130506001Y-141822003D02*
X130506001Y-141822003D01*
X260881001Y-137522000D02*
X260881001Y-137522000D01*
X37925007Y-55810000D02*
X37925007Y-55810000D01*
X199850011Y-103722005D02*
X199850011Y-117722005D01*
X137938008Y-55810000D02*
X151938008Y-55810000D01*
X265381001Y-117492001D02*
X265381001Y-117492001D01*
X199850011Y-55810000D02*
X199850011Y-55810000D01*
X274513020Y-79392003D02*
X274513020Y-73122002D01*
X419007Y-124242001D02*
X-1305993Y-124242001D01*
X161750004Y-103722005D02*
X161750004Y-117722005D01*
X99838010Y-98672001D02*
X99838010Y-98672001D01*
X252237996Y-155822003D02*
X252237996Y-155822003D01*
X28113007Y-65622000D02*
X14113007Y-65622000D01*
X75738003Y-98672001D02*
X75738003Y-98672001D01*
X233781010Y-137522000D02*
X237081013Y-137522000D01*
X251950001Y-41810001D02*
X237950001Y-41810001D01*
X99838010Y-84672001D02*
X99838010Y-98672001D01*
X270405995Y-118472005D02*
X270405995Y-117492001D01*
X248331013Y-108422001D02*
X248331013Y-108422001D01*
X9063006Y-41810001D02*
X-4936993Y-41810001D01*
X269487996Y-79392003D02*
X269487996Y-80372002D01*
X18875006Y-55810000D02*
X18875006Y-55810000D01*
X238806004Y-124242001D02*
X237081013Y-124242001D01*
X249856007Y-117722005D02*
X249856007Y-117722005D01*
X262606007Y-127472005D02*
X262606007Y-127472005D01*
X24219006Y-124242001D02*
X22494008Y-124242001D01*
X70975011Y-136772000D02*
X70975011Y-136772000D01*
X175156010Y-156572003D02*
X175156010Y-156572003D01*
X262606007Y-130272000D02*
X262606007Y-130272000D01*
X24219006Y-124242001D02*
X24219006Y-124242001D01*
X80788006Y-98672001D02*
X80788006Y-98672001D01*
X113838010Y-84672001D02*
X99838010Y-84672001D01*
X201944005Y-141822003D02*
X201944005Y-141822003D01*
X70975011Y-122772000D02*
X70975011Y-122772000D01*
X2206007Y-117722005D02*
X2206007Y-117722005D01*
X272788014Y-80372002D02*
X272788014Y-79392003D01*
X156988011Y-55810000D02*
X156988011Y-55810000D01*
X190325001Y-136772000D02*
X204325001Y-136772000D01*
X204325001Y-136772000D02*
X204325001Y-122772000D01*
X51925007Y-55810000D02*
X51925007Y-55810000D01*
X249856007Y-113022000D02*
X249856007Y-113022000D01*
X66500004Y-117722005D02*
X66500004Y-117722005D01*
X241581013Y-105191998D02*
X241581013Y-108422001D01*
X175156010Y-143292004D02*
X175156010Y-142371998D01*
X233781010Y-137522000D02*
X233781010Y-137522000D01*
X24219006Y-137522000D02*
X27519005Y-137522000D01*
X269487996Y-66172001D02*
X269487996Y-66172001D01*
X28400006Y-117722005D02*
X28400006Y-117722005D01*
X218613011Y-65622000D02*
X204613011Y-65622000D01*
X118888005Y-84672001D02*
X118888005Y-98672001D01*
X190038014Y-84672001D02*
X190038014Y-84672001D01*
X248987996Y-80372002D02*
X248987996Y-80372002D01*
X228138005Y-98672001D02*
X228138005Y-98672001D01*
X272956013Y-108422001D02*
X272131001Y-108422001D01*
X-1305993Y-130272000D02*
X-1305993Y-130272000D01*
X137938008Y-84672001D02*
X137938008Y-98672001D01*
X238806004Y-124242001D02*
X238806004Y-124242001D01*
X238806004Y-127472005D02*
X238806004Y-127472005D01*
X419007Y-136542004D02*
X419007Y-136542004D01*
X190325001Y-122772000D02*
X190325001Y-136772000D01*
X123363011Y-79622002D02*
X123363011Y-65622000D01*
X161463002Y-65622000D02*
X147463002Y-65622000D01*
X218613011Y-65622000D02*
X218613011Y-65622000D01*
X249856007Y-108422001D02*
X249856007Y-108422001D01*
X123363011Y-79622002D02*
X123363011Y-79622002D01*
X51925007Y-41810001D02*
X51925007Y-41810001D01*
X29244008Y-127472005D02*
X29244008Y-127472005D01*
X14113007Y-79622002D02*
X28113007Y-79622002D01*
X47163006Y-65622000D02*
X33163006Y-65622000D01*
X5444007Y-132072003D02*
X5444007Y-132072003D01*
X170131001Y-151121998D02*
X170131001Y-155592000D01*
X243963002Y-70321999D02*
X243138005Y-70321999D01*
X287480000Y-98960004D02*
X287480000Y-112960004D01*
X142413014Y-65622000D02*
X142413014Y-65622000D01*
X33163006Y-79622002D02*
X47163006Y-79622002D01*
X254331013Y-122772000D02*
X240331013Y-122772000D01*
X240331013Y-127472005D02*
X240331013Y-127472005D01*
X118600011Y-117722005D02*
X118600011Y-117722005D01*
X175750004Y-103722005D02*
X175750004Y-103722005D01*
X-4936993Y-55810000D02*
X-4936993Y-55810000D01*
X42400006Y-103722005D02*
X42400006Y-103722005D01*
X272131001Y-108422001D02*
X272131001Y-105191998D01*
X272788014Y-79392003D02*
X272788014Y-79392003D01*
X47163006Y-65622000D02*
X47163006Y-65622000D01*
X37925007Y-136772000D02*
X37925007Y-136772000D01*
X104600011Y-117722005D02*
X118600011Y-117722005D01*
X137938008Y-98672001D02*
X137938008Y-98672001D01*
X194800007Y-41810001D02*
X194800007Y-41810001D01*
X75738003Y-84672001D02*
X61738003Y-84672001D01*
X267106007Y-117492001D02*
X267106007Y-117492001D01*
X170131001Y-146522000D02*
X130506001Y-146522000D01*
X161463002Y-79622002D02*
X161463002Y-79622002D01*
X245687001Y-80372002D02*
X248987996Y-80372002D01*
X70975011Y-55810000D02*
X70975011Y-41810001D01*
X142700001Y-103722005D02*
X142700001Y-117722005D01*
X237663014Y-65622000D02*
X223663014Y-65622000D01*
X252237996Y-74922001D02*
X252237996Y-74922001D01*
X-1305993Y-136542004D02*
X419007Y-136542004D01*
X56975011Y-136772000D02*
X70975011Y-136772000D01*
X51925007Y-122772000D02*
X51925007Y-122772000D01*
X304338002Y-155822003D02*
X304338002Y-141822003D01*
X61738003Y-98672001D02*
X61738003Y-98672001D01*
X252237996Y-79622002D02*
X266237996Y-79622002D01*
X5444007Y-132072003D02*
X6969006Y-132072003D01*
X272956013Y-108422001D02*
X272956013Y-108422001D01*
X249856007Y-103722005D02*
X249856007Y-108422001D01*
X75738003Y-98672001D02*
X75738003Y-84672001D01*
X267763020Y-70321999D02*
X266237996Y-70321999D01*
X252237996Y-70321999D02*
X252237996Y-70321999D01*
X35256009Y-155822003D02*
X35256009Y-155822003D01*
X266237996Y-70321999D02*
X266237996Y-70321999D01*
X263856007Y-108422001D02*
X263856007Y-108422001D01*
X232900014Y-55810000D02*
X232900014Y-55810000D01*
X61738003Y-84672001D02*
X61738003Y-98672001D01*
X177706013Y-149322003D02*
X177706013Y-146522000D01*
X185275014Y-122772000D02*
X185275014Y-122772000D01*
X-2130993Y-127472005D02*
X-2130993Y-130272000D01*
X23638009Y-98672001D02*
X37638009Y-98672001D01*
X123363011Y-65622000D02*
X123363011Y-65622000D01*
X233188008Y-98672001D02*
X233188008Y-98672001D01*
X113838010Y-84672001D02*
X113838010Y-84672001D01*
X166225011Y-136772000D02*
X166225011Y-122772000D01*
X248987996Y-80372002D02*
X248987996Y-79392003D01*
X266237996Y-79622002D02*
X266237996Y-79622002D01*
X175156010Y-143292004D02*
X175156010Y-143292004D01*
X237081013Y-137522000D02*
X237081013Y-137522000D01*
X267763020Y-79392003D02*
X267763020Y-79392003D01*
X190038014Y-98672001D02*
X190038014Y-98672001D01*
X232056004Y-136542004D02*
X232056004Y-136542004D01*
X237081013Y-136542004D02*
X238806004Y-136542004D01*
X71856007Y-142371998D02*
X71856007Y-142371998D01*
X109075009Y-136772000D02*
X109075009Y-136772000D01*
X71856007Y-155592000D02*
X71856007Y-156572003D01*
X104312009Y-65622000D02*
X90312009Y-65622000D01*
X28400006Y-103722005D02*
X28400006Y-117722005D01*
X80500004Y-117722005D02*
X80500004Y-117722005D01*
X199563008Y-65622000D02*
X199563008Y-65622000D01*
X266237996Y-70321999D02*
X266237996Y-65622000D01*
X137938008Y-98672001D02*
X151938008Y-98672001D01*
X209088002Y-84672001D02*
X195088002Y-84672001D01*
X271288014Y-136772000D02*
X285288014Y-136772000D01*
X263431019Y-130272000D02*
X263431019Y-127472005D01*
X95075009Y-122772000D02*
X95075009Y-136772000D01*
X66500004Y-103722005D02*
X66500004Y-117722005D01*
X20969006Y-136772000D02*
X20969006Y-136772000D01*
X265381001Y-108422001D02*
X265381001Y-108422001D01*
X262606007Y-130272000D02*
X263431019Y-130272000D01*
X245687001Y-67092000D02*
X245687001Y-67092000D01*
X180800007Y-103722005D02*
X180800007Y-117722005D01*
X237081013Y-124242001D02*
X237081013Y-124242001D01*
X90025006Y-136772000D02*
X90025006Y-122772000D01*
X301480000Y-74860001D02*
X301480000Y-60860001D01*
X161463002Y-79622002D02*
X161463002Y-65622000D01*
X267763020Y-67092000D02*
X267763020Y-67092000D01*
X147175007Y-122772000D02*
X133175007Y-122772000D01*
X30069008Y-130272000D02*
X30069008Y-130272000D01*
X171856007Y-155592000D02*
X171856007Y-156572003D01*
X66213010Y-79622002D02*
X66213010Y-79622002D01*
X76881009Y-155592000D02*
X76881009Y-155592000D01*
X232056004Y-130272000D02*
X232056004Y-130272000D01*
X128413014Y-65622000D02*
X128413014Y-79622002D01*
X22494008Y-132072003D02*
X22494008Y-132072003D01*
X-2555993Y-155822003D02*
X11444007Y-155822003D01*
X128125004Y-122772000D02*
X128125004Y-122772000D01*
X37638009Y-98672001D02*
X37638009Y-98672001D01*
X252237996Y-65622000D02*
X252237996Y-70321999D01*
X252237996Y-155822003D02*
X266237996Y-155822003D01*
X228138005Y-84672001D02*
X214138005Y-84672001D01*
X237081013Y-123322003D02*
X237081013Y-123322003D01*
X199563008Y-79622002D02*
X199563008Y-65622000D01*
X419007Y-124242001D02*
X419007Y-124242001D01*
X301480000Y-112960004D02*
X301480000Y-112960004D01*
X147463002Y-79622002D02*
X161463002Y-79622002D01*
X151938008Y-98672001D02*
X151938008Y-84672001D01*
X118600011Y-103722005D02*
X104600011Y-103722005D01*
X269487996Y-67092000D02*
X267763020Y-67092000D01*
X304338002Y-155822003D02*
X304338002Y-155822003D01*
X52213010Y-79622002D02*
X66213010Y-79622002D01*
X272788014Y-66172001D02*
X269487996Y-66172001D01*
X109075009Y-122772000D02*
X109075009Y-122772000D01*
X199850011Y-41810001D02*
X199850011Y-55810000D01*
X274513020Y-70321999D02*
X274513020Y-70321999D01*
X260881001Y-136542004D02*
X262606007Y-136542004D01*
X301480000Y-74860001D02*
X301480000Y-74860001D01*
X233781010Y-124242001D02*
X233781010Y-124242001D01*
X232900014Y-41810001D02*
X232900014Y-41810001D01*
X171856007Y-142371998D02*
X171856007Y-143292004D01*
X123650014Y-117722005D02*
X123650014Y-117722005D01*
X151938008Y-41810001D02*
X151938008Y-41810001D01*
X238806004Y-127472005D02*
X238806004Y-124242001D01*
X75156010Y-156572003D02*
X75156010Y-156572003D01*
X109362004Y-65622000D02*
X109362004Y-79622002D01*
X194800007Y-103722005D02*
X180800007Y-103722005D01*
X118888005Y-98672001D02*
X118888005Y-98672001D01*
X75156010Y-156572003D02*
X75156010Y-155592000D01*
X71856007Y-143292004D02*
X71856007Y-143292004D01*
X71856007Y-143292004D02*
X70131009Y-143292004D01*
D11*
X-10380000Y-36600000D02*
X309720000Y-36600000D01*
X309720000Y-36600000D02*
X309720000Y-161430000D01*
X309720000Y-161430000D02*
X-10380000Y-161430000D01*
X-10380000Y-161430000D02*
X-10380000Y-36600000D01*
D10*
X271288014Y-136772000D02*
X271288014Y-136772000D01*
X30069008Y-127472005D02*
X29244008Y-127472005D01*
X123363011Y-65622000D02*
X109362004Y-65622000D01*
X241581013Y-111222005D02*
X241581013Y-117492001D01*
X301480000Y-55810000D02*
X301480000Y-41810001D01*
X6969006Y-132072003D02*
X6969006Y-136772000D01*
X272956013Y-111222005D02*
X272956013Y-108422001D01*
X287480000Y-74860001D02*
X287480000Y-74860001D01*
X27519005Y-123322003D02*
X27519005Y-123322003D01*
X243306004Y-118472005D02*
X243306004Y-118472005D01*
X94788006Y-84672001D02*
X80788006Y-84672001D01*
X243306004Y-104272000D02*
X243306004Y-104272000D01*
X274513020Y-73122002D02*
X274513020Y-73122002D01*
X170131001Y-143292004D02*
X170131001Y-146522000D01*
X257581013Y-124242001D02*
X255856007Y-124242001D01*
X240331013Y-127472005D02*
X238806004Y-127472005D01*
X45069008Y-141822003D02*
X45069008Y-155822003D01*
X51925007Y-122772000D02*
X37925007Y-122772000D01*
X271000020Y-84672001D02*
X257000020Y-84672001D01*
X116505009Y-146522000D02*
X76881009Y-146522000D01*
X175750004Y-103722005D02*
X161750004Y-103722005D01*
X9063006Y-55810000D02*
X9063006Y-41810001D01*
X20969006Y-122772000D02*
X6969006Y-122772000D01*
X185275014Y-122772000D02*
X171275014Y-122772000D01*
X218900014Y-55810000D02*
X232900014Y-55810000D01*
X176881001Y-149322003D02*
X176881001Y-149322003D01*
X240756001Y-111222005D02*
X241581013Y-111222005D01*
X287480000Y-112960004D02*
X287480000Y-112960004D01*
X99838010Y-55810000D02*
X99838010Y-55810000D01*
X232900014Y-55810000D02*
X232900014Y-41810001D01*
X59069005Y-141822003D02*
X59069005Y-141822003D01*
X70131009Y-149322003D02*
X70131009Y-155592000D01*
X274513020Y-73122002D02*
X275338002Y-73122002D01*
X301480000Y-93910000D02*
X301480000Y-93910000D01*
X5444007Y-124242001D02*
X3719006Y-124242001D01*
X301480000Y-112960004D02*
X301480000Y-98960004D01*
X187944005Y-141822003D02*
X187944005Y-155822003D01*
X248987996Y-67092000D02*
X248987996Y-66172001D01*
X66213010Y-65622000D02*
X52213010Y-65622000D01*
X419007Y-123322003D02*
X419007Y-123322003D01*
X152225011Y-136772000D02*
X152225011Y-136772000D01*
X118888005Y-55810000D02*
X132888005Y-55810000D01*
X20969006Y-127472005D02*
X20969006Y-127472005D01*
X27519005Y-136542004D02*
X27519005Y-136542004D01*
X180513005Y-65622000D02*
X166513005Y-65622000D01*
X248987996Y-67092000D02*
X248987996Y-67092000D01*
X176038014Y-98672001D02*
X176038014Y-98672001D01*
X257000020Y-98672001D02*
X271000020Y-98672001D01*
X161463002Y-65622000D02*
X161463002Y-65622000D01*
X231231007Y-130272000D02*
X232056004Y-130272000D01*
X287480000Y-74860001D02*
X301480000Y-74860001D01*
X232056004Y-127472005D02*
X232056004Y-127472005D01*
X176881001Y-146522000D02*
X176881001Y-146522000D01*
X6969006Y-136772000D02*
X20969006Y-136772000D01*
X75156010Y-155592000D02*
X76881009Y-155592000D01*
X170988011Y-98672001D02*
X170988011Y-98672001D01*
X243306004Y-117492001D02*
X243306004Y-118472005D01*
X14113007Y-79622002D02*
X14113007Y-79622002D01*
X275338002Y-70321999D02*
X275338002Y-70321999D01*
X272788014Y-80372002D02*
X272788014Y-80372002D01*
X59069005Y-155822003D02*
X59069005Y-141822003D01*
X272788014Y-79392003D02*
X274513020Y-79392003D01*
X66500004Y-117722005D02*
X80500004Y-117722005D01*
X260881001Y-124242001D02*
X260881001Y-124242001D01*
X260881001Y-123322003D02*
X260881001Y-123322003D01*
X187944005Y-155822003D02*
X201944005Y-155822003D01*
X23638009Y-84672001D02*
X23638009Y-98672001D01*
X194800007Y-55810000D02*
X194800007Y-55810000D01*
X156700001Y-103722005D02*
X142700001Y-103722005D01*
X233781010Y-123322003D02*
X233781010Y-123322003D01*
X147175007Y-122772000D02*
X147175007Y-122772000D01*
X199563008Y-65622000D02*
X185563008Y-65622000D01*
X-2555993Y-155822003D02*
X-2555993Y-155822003D01*
X301480000Y-41810001D02*
X287480000Y-41810001D01*
X151938008Y-55810000D02*
X151938008Y-41810001D01*
X42688008Y-98672001D02*
X42688008Y-98672001D01*
X137938008Y-55810000D02*
X137938008Y-55810000D01*
X37638009Y-84672001D02*
X23638009Y-84672001D01*
X290338002Y-155822003D02*
X290338002Y-155822003D01*
X21256009Y-155822003D02*
X21256009Y-155822003D01*
X254331013Y-132072003D02*
X254331013Y-132072003D01*
X156988011Y-98672001D02*
X170988011Y-98672001D01*
X56975011Y-41810001D02*
X56975011Y-55810000D01*
X130506001Y-155822003D02*
X130506001Y-155822003D01*
X237950001Y-55810000D02*
X251950001Y-55810000D01*
X243138005Y-73122002D02*
X243138005Y-73122002D01*
X80788006Y-84672001D02*
X80788006Y-98672001D01*
X204613011Y-65622000D02*
X204613011Y-79622002D01*
X245687001Y-79392003D02*
X245687001Y-79392003D01*
X109075009Y-122772000D02*
X95075009Y-122772000D01*
X35256009Y-155822003D02*
X35256009Y-141822003D01*
X3719006Y-123322003D02*
X3719006Y-123322003D01*
X243963002Y-70321999D02*
X243963002Y-70321999D01*
X118600011Y-103722005D02*
X118600011Y-103722005D01*
X241581013Y-111222005D02*
X241581013Y-111222005D01*
X243306004Y-117492001D02*
X243306004Y-117492001D01*
X241581013Y-117492001D02*
X243306004Y-117492001D01*
X255856007Y-124242001D02*
X255856007Y-124242001D01*
X175156010Y-155592000D02*
X176881001Y-155592000D01*
X304338002Y-141822003D02*
X290338002Y-141822003D01*
X237081013Y-124242001D02*
X237081013Y-123322003D01*
X170131001Y-151121998D02*
X170131001Y-151121998D01*
X272788014Y-67092000D02*
X272788014Y-66172001D01*
X260881001Y-124242001D02*
X260881001Y-123322003D01*
X214138005Y-84672001D02*
X214138005Y-98672001D01*
X177706013Y-146522000D02*
X176881001Y-146522000D01*
X245687001Y-67092000D02*
X243963002Y-67092000D01*
X274513020Y-79392003D02*
X274513020Y-79392003D01*
X194800007Y-117722005D02*
X194800007Y-117722005D01*
X175156010Y-142371998D02*
X171856007Y-142371998D01*
X194800007Y-41810001D02*
X180800007Y-41810001D01*
X194800007Y-55810000D02*
X194800007Y-41810001D01*
X3719006Y-124242001D02*
X3719006Y-124242001D01*
X5444007Y-127472005D02*
X5444007Y-124242001D01*
X269487996Y-79392003D02*
X269487996Y-79392003D01*
X70975011Y-136772000D02*
X70975011Y-122772000D01*
X29244008Y-130272000D02*
X30069008Y-130272000D01*
X37638009Y-98672001D02*
X37638009Y-84672001D01*
X85263005Y-65622000D02*
X85263005Y-65622000D01*
X257581013Y-136542004D02*
X257581013Y-137522000D01*
X274513020Y-67092000D02*
X274513020Y-67092000D01*
X90025006Y-41810001D02*
X76025006Y-41810001D01*
X266237996Y-65622000D02*
X252237996Y-65622000D01*
X-174993Y-98672001D02*
X13825007Y-98672001D01*
X137650014Y-103722005D02*
X123650014Y-103722005D01*
X3719006Y-136542004D02*
X3719006Y-136542004D01*
X211756001Y-141822003D02*
X211756001Y-155822003D01*
X133175007Y-136772000D02*
X133175007Y-136772000D01*
X287480000Y-93910000D02*
X301480000Y-93910000D01*
X266237996Y-141822003D02*
X266237996Y-141822003D01*
X22494008Y-124242001D02*
X22494008Y-127472005D01*
X248987996Y-79392003D02*
X250713002Y-79392003D01*
X142413014Y-79622002D02*
X142413014Y-65622000D01*
X204613011Y-79622002D02*
X218613011Y-79622002D01*
X209375004Y-136772000D02*
X223375004Y-136772000D01*
X130506001Y-141822003D02*
X116505009Y-141822003D01*
X272131001Y-108422001D02*
X272131001Y-108422001D01*
X218900014Y-103722005D02*
X218900014Y-117722005D01*
X51925007Y-136772000D02*
X51925007Y-136772000D01*
X419007Y-136542004D02*
X419007Y-137522000D01*
X271288014Y-141822003D02*
X271288014Y-155822003D01*
X24219006Y-136542004D02*
X24219006Y-137522000D01*
X109362004Y-79622002D02*
X123363011Y-79622002D01*
X237950001Y-55810000D02*
X237950001Y-55810000D01*
X285288014Y-136772000D02*
X285288014Y-136772000D01*
X70975011Y-55810000D02*
X70975011Y-55810000D01*
X42688008Y-84672001D02*
X42688008Y-98672001D01*
X27519005Y-136542004D02*
X29244008Y-136542004D01*
X56975011Y-122772000D02*
X56975011Y-136772000D01*
X27519005Y-124242001D02*
X27519005Y-124242001D01*
X185563008Y-65622000D02*
X185563008Y-79622002D01*
X13825007Y-84672001D02*
X-174993Y-84672001D01*
X11444007Y-155822003D02*
X11444007Y-141822003D01*
X130506001Y-151121998D02*
X130506001Y-151121998D01*
X195088002Y-98672001D02*
X195088002Y-98672001D01*
X176881001Y-143292004D02*
X175156010Y-143292004D01*
X-2130993Y-127472005D02*
X-2130993Y-127472005D01*
X13825007Y-98672001D02*
X13825007Y-98672001D01*
X47450005Y-117722005D02*
X47450005Y-117722005D01*
X59069005Y-155822003D02*
X59069005Y-155822003D01*
X237081013Y-137522000D02*
X237081013Y-136542004D01*
X70975011Y-41810001D02*
X70975011Y-41810001D01*
X132888005Y-55810000D02*
X132888005Y-41810001D01*
X152225011Y-136772000D02*
X166225011Y-136772000D01*
X142700001Y-117722005D02*
X156700001Y-117722005D01*
X80500004Y-103722005D02*
X80500004Y-103722005D01*
X213850011Y-41810001D02*
X213850011Y-41810001D01*
X90025006Y-55810000D02*
X90025006Y-55810000D01*
X75156010Y-155592000D02*
X75156010Y-155592000D01*
X262606007Y-127472005D02*
X262606007Y-124242001D01*
X301480000Y-79910000D02*
X287480000Y-79910000D01*
X16206008Y-103722005D02*
X16206008Y-103722005D01*
X56688008Y-98672001D02*
X56688008Y-98672001D01*
X270405995Y-105191998D02*
X270405995Y-105191998D01*
X20969006Y-136772000D02*
X20969006Y-132072003D01*
X142413014Y-65622000D02*
X128413014Y-65622000D01*
X-1305993Y-124242001D02*
X-1305993Y-124242001D01*
X285288014Y-136772000D02*
X285288014Y-122772000D01*
X262606007Y-124242001D02*
X260881001Y-124242001D01*
X243963002Y-67092000D02*
X243963002Y-70321999D01*
X238806004Y-132072003D02*
X238806004Y-132072003D01*
X243306004Y-105191998D02*
X241581013Y-105191998D01*
X66213010Y-65622000D02*
X66213010Y-65622000D01*
X250713002Y-67092000D02*
X248987996Y-67092000D01*
X90312009Y-65622000D02*
X90312009Y-79622002D01*
X180800007Y-117722005D02*
X194800007Y-117722005D01*
X118888005Y-98672001D02*
X132888005Y-98672001D01*
X246605000Y-105191998D02*
X246605000Y-104272000D01*
X69306004Y-149322003D02*
X69306004Y-149322003D01*
X21256009Y-141822003D02*
X21256009Y-155822003D01*
X130506001Y-146522000D02*
X130506001Y-141822003D01*
X5444007Y-136542004D02*
X5444007Y-132072003D01*
X241581013Y-117492001D02*
X241581013Y-117492001D01*
X269487996Y-80372002D02*
X269487996Y-80372002D01*
X71856007Y-142371998D02*
X71856007Y-143292004D01*
X132888005Y-41810001D02*
X118888005Y-41810001D01*
X233188008Y-84672001D02*
X233188008Y-98672001D01*
X171275014Y-136772000D02*
X171275014Y-136772000D01*
X156700001Y-117722005D02*
X156700001Y-117722005D01*
X37925007Y-41810001D02*
X37925007Y-55810000D01*
X42400006Y-103722005D02*
X28400006Y-103722005D01*
X233781010Y-124242001D02*
X232056004Y-124242001D01*
X20969006Y-127472005D02*
X20969006Y-122772000D01*
X248987996Y-79392003D02*
X248987996Y-79392003D01*
X209088002Y-84672001D02*
X209088002Y-84672001D01*
X260881001Y-137522000D02*
X260881001Y-136542004D01*
X199850011Y-55810000D02*
X213850011Y-55810000D01*
X301480000Y-60860001D02*
X287480000Y-60860001D01*
X246605000Y-118472005D02*
X246605000Y-117492001D01*
X116505009Y-151121998D02*
X116505009Y-155822003D01*
X301480000Y-60860001D02*
X301480000Y-60860001D01*
X71856007Y-155592000D02*
X71856007Y-155592000D01*
X243138005Y-73122002D02*
X243963002Y-73122002D01*
X240331013Y-136772000D02*
X254331013Y-136772000D01*
X254331013Y-122772000D02*
X254331013Y-122772000D01*
X260881001Y-123322003D02*
X257581013Y-123322003D01*
X5444007Y-136542004D02*
X5444007Y-136542004D01*
X246605000Y-117492001D02*
X246605000Y-117492001D01*
X211756001Y-155822003D02*
X211756001Y-155822003D01*
X70131009Y-143292004D02*
X70131009Y-146522000D01*
X232900014Y-117722005D02*
X232900014Y-103722005D01*
X287480000Y-112960004D02*
X301480000Y-112960004D01*
X76881009Y-155592000D02*
X76881009Y-151121998D01*
X270405995Y-104272000D02*
X270405995Y-104272000D01*
X166513005Y-79622002D02*
X180513005Y-79622002D01*
X132888005Y-98672001D02*
X132888005Y-84672001D01*
X6969006Y-122772000D02*
X6969006Y-127472005D01*
X238806004Y-136542004D02*
X238806004Y-136542004D01*
X156700001Y-117722005D02*
X156700001Y-103722005D01*
X233781010Y-123322003D02*
X233781010Y-124242001D01*
X51925007Y-41810001D02*
X37925007Y-41810001D01*
X243138005Y-70321999D02*
X243138005Y-73122002D01*
X287480000Y-79910000D02*
X287480000Y-93910000D01*
X85550007Y-117722005D02*
X99550007Y-117722005D01*
X33163006Y-65622000D02*
X33163006Y-79622002D01*
X171856007Y-143292004D02*
X171856007Y-143292004D01*
X128125004Y-122772000D02*
X114125004Y-122772000D01*
X76881009Y-146522000D02*
X76881009Y-146522000D01*
X255856007Y-127472005D02*
X254331013Y-127472005D01*
X287480000Y-60860001D02*
X287480000Y-74860001D01*
X247187001Y-84672001D02*
X233188008Y-84672001D01*
X76881009Y-143292004D02*
X76881009Y-143292004D01*
X61450009Y-103722005D02*
X47450005Y-103722005D01*
X267763020Y-74922001D02*
X267763020Y-74922001D01*
X285288014Y-122772000D02*
X285288014Y-122772000D01*
X99550007Y-117722005D02*
X99550007Y-117722005D01*
X275338002Y-73122002D02*
X275338002Y-73122002D01*
X33163006Y-79622002D02*
X33163006Y-79622002D01*
X245687001Y-79392003D02*
X245687001Y-80372002D01*
X250713002Y-74922001D02*
X250713002Y-74922001D01*
X76025006Y-136772000D02*
X76025006Y-136772000D01*
X170988011Y-55810000D02*
X170988011Y-55810000D01*
X201944005Y-155822003D02*
X201944005Y-141822003D01*
X90025006Y-122772000D02*
X90025006Y-122772000D01*
X123650014Y-117722005D02*
X137650014Y-117722005D01*
X151938008Y-41810001D02*
X137938008Y-41810001D01*
X22494008Y-136542004D02*
X22494008Y-136542004D01*
X241581013Y-108422001D02*
X241581013Y-108422001D01*
X265381001Y-105191998D02*
X265381001Y-108422001D01*
X76025006Y-41810001D02*
X76025006Y-55810000D01*
X213850011Y-103722005D02*
X199850011Y-103722005D01*
X28113007Y-65622000D02*
X28113007Y-65622000D01*
X272131001Y-111222005D02*
X272956013Y-111222005D01*
X-4936993Y-79622002D02*
X-4936993Y-79622002D01*
X99838010Y-55810000D02*
X113838010Y-55810000D01*
X69306004Y-146522000D02*
X69306004Y-146522000D01*
X246605000Y-118472005D02*
X246605000Y-118472005D01*
X190325001Y-136772000D02*
X190325001Y-136772000D01*
X70131009Y-149322003D02*
X70131009Y-149322003D01*
X240331013Y-132072003D02*
X240331013Y-136772000D01*
X243963002Y-79392003D02*
X243963002Y-79392003D01*
X232900014Y-117722005D02*
X232900014Y-117722005D01*
X267106007Y-118472005D02*
X270405995Y-118472005D01*
X9063006Y-65622000D02*
X9063006Y-65622000D01*
X175750004Y-117722005D02*
X175750004Y-117722005D01*
X-4936993Y-55810000D02*
X9063006Y-55810000D01*
X263856007Y-108422001D02*
X263856007Y-103722005D01*
X76881009Y-143292004D02*
X75156010Y-143292004D01*
X13825007Y-98672001D02*
X13825007Y-84672001D01*
X71856007Y-156572003D02*
X75156010Y-156572003D01*
X85263005Y-79622002D02*
X85263005Y-65622000D01*
X56975011Y-55810000D02*
X56975011Y-55810000D01*
X137938008Y-41810001D02*
X137938008Y-55810000D01*
X56975011Y-136772000D02*
X56975011Y-136772000D01*
X257581013Y-137522000D02*
X260881001Y-137522000D01*
X231231007Y-127472005D02*
X231231007Y-130272000D01*
X85263005Y-65622000D02*
X71263005Y-65622000D01*
X176881001Y-155592000D02*
X176881001Y-155592000D01*
X262606007Y-136542004D02*
X262606007Y-136542004D01*
X237081013Y-123322003D02*
X233781010Y-123322003D01*
X61450009Y-103722005D02*
X61450009Y-103722005D01*
X18875006Y-55810000D02*
X32875008Y-55810000D01*
X29244008Y-136542004D02*
X29244008Y-136542004D01*
X248987996Y-66172001D02*
X245687001Y-66172001D01*
X29244008Y-124242001D02*
X27519005Y-124242001D01*
X225756001Y-155822003D02*
X225756001Y-155822003D01*
X37925007Y-55810000D02*
X51925007Y-55810000D01*
X267763020Y-79392003D02*
X269487996Y-79392003D01*
X270405995Y-105191998D02*
X270405995Y-104272000D01*
X-4936993Y-41810001D02*
X-4936993Y-55810000D01*
X76881009Y-146522000D02*
X76881009Y-143292004D01*
X-1305993Y-130272000D02*
X-1305993Y-136542004D01*
X248331013Y-105191998D02*
X248331013Y-105191998D01*
X190038014Y-98672001D02*
X190038014Y-84672001D01*
X76025006Y-55810000D02*
X90025006Y-55810000D01*
X271288014Y-155822003D02*
X271288014Y-155822003D01*
X170131001Y-143292004D02*
X170131001Y-143292004D01*
X37638009Y-84672001D02*
X37638009Y-84672001D01*
X170988011Y-84672001D02*
X156988011Y-84672001D01*
X16206008Y-117722005D02*
X16206008Y-103722005D01*
X5444007Y-124242001D02*
X5444007Y-124242001D01*
X263431019Y-127472005D02*
X263431019Y-127472005D01*
X-4936993Y-79622002D02*
X9063006Y-79622002D01*
X28400006Y-117722005D02*
X42400006Y-117722005D01*
X180513005Y-79622002D02*
X180513005Y-79622002D01*
X90025006Y-136772000D02*
X90025006Y-136772000D01*
X225756001Y-141822003D02*
X211756001Y-141822003D01*
X170131001Y-146522000D02*
X170131001Y-146522000D01*
X16206008Y-103722005D02*
X2206007Y-103722005D01*
X267106007Y-117492001D02*
X267106007Y-118472005D01*
X419007Y-123322003D02*
X419007Y-124242001D01*
X75156010Y-142371998D02*
X71856007Y-142371998D01*
X228138005Y-84672001D02*
X228138005Y-84672001D01*
X209088002Y-98672001D02*
X209088002Y-84672001D01*
X240331013Y-136772000D02*
X240331013Y-136772000D01*
X218613011Y-79622002D02*
X218613011Y-65622000D01*
X270405995Y-104272000D02*
X267106007Y-104272000D01*
X232056004Y-130272000D02*
X232056004Y-136542004D01*
X240331013Y-122772000D02*
X240331013Y-127472005D01*
X-1305993Y-127472005D02*
X-2130993Y-127472005D01*
X109075009Y-136772000D02*
X109075009Y-122772000D01*
X118600011Y-117722005D02*
X118600011Y-103722005D01*
X42688008Y-98672001D02*
X56688008Y-98672001D01*
X248987996Y-66172001D02*
X248987996Y-66172001D01*
X76025006Y-55810000D02*
X76025006Y-55810000D01*
X13825007Y-84672001D02*
X13825007Y-84672001D01*
X29244008Y-127472005D02*
X29244008Y-124242001D01*
X166513005Y-79622002D02*
X166513005Y-79622002D01*
X9063006Y-55810000D02*
X9063006Y-55810000D01*
X166225011Y-122772000D02*
X166225011Y-122772000D01*
X116505009Y-141822003D02*
X116505009Y-146522000D01*
X152225011Y-122772000D02*
X152225011Y-136772000D01*
X263856007Y-113022000D02*
X263856007Y-113022000D01*
X240331013Y-132072003D02*
X240331013Y-132072003D01*
X52213010Y-65622000D02*
X52213010Y-79622002D01*
X22494008Y-127472005D02*
X20969006Y-127472005D01*
X419007Y-137522000D02*
X419007Y-137522000D01*
X274513020Y-67092000D02*
X272788014Y-67092000D01*
X2206007Y-117722005D02*
X16206008Y-117722005D01*
X132888005Y-84672001D02*
X132888005Y-84672001D01*
X59069005Y-141822003D02*
X45069008Y-141822003D01*
X76881009Y-151121998D02*
X116505009Y-151121998D01*
X180513005Y-79622002D02*
X180513005Y-65622000D01*
X272131001Y-105191998D02*
X270405995Y-105191998D01*
X233781010Y-136542004D02*
X233781010Y-136542004D01*
X272131001Y-105191998D02*
X272131001Y-105191998D01*
X118888005Y-41810001D02*
X118888005Y-55810000D01*
X99838010Y-41810001D02*
X99838010Y-55810000D01*
X250713002Y-70321999D02*
X250713002Y-67092000D01*
X166225011Y-136772000D02*
X166225011Y-136772000D01*
X61450009Y-117722005D02*
X61450009Y-117722005D01*
X301480000Y-98960004D02*
X287480000Y-98960004D01*
X27519005Y-137522000D02*
X27519005Y-136542004D01*
X232056004Y-136542004D02*
X233781010Y-136542004D01*
X116505009Y-155822003D02*
X130506001Y-155822003D01*
X285288014Y-122772000D02*
X271288014Y-122772000D01*
X301480000Y-98960004D02*
X301480000Y-98960004D01*
X116505009Y-146522000D02*
X116505009Y-146522000D01*
X113838010Y-98672001D02*
X113838010Y-84672001D01*
X249856007Y-113022000D02*
X249856007Y-117722005D01*
X269487996Y-67092000D02*
X269487996Y-67092000D01*
X70975011Y-122772000D02*
X56975011Y-122772000D01*
X175156010Y-156572003D02*
X175156010Y-155592000D01*
X177706013Y-149322003D02*
X177706013Y-149322003D01*
X47450005Y-103722005D02*
X47450005Y-117722005D01*
X70131009Y-155592000D02*
X70131009Y-155592000D01*
X233781010Y-136542004D02*
X233781010Y-137522000D01*
X6969006Y-132072003D02*
X6969006Y-132072003D01*
X274513020Y-70321999D02*
X274513020Y-67092000D01*
X61738003Y-98672001D02*
X75738003Y-98672001D01*
X32875008Y-55810000D02*
X32875008Y-41810001D01*
X265381001Y-113022000D02*
X265381001Y-113022000D01*
X287480000Y-93910000D02*
X287480000Y-93910000D01*
X27519005Y-137522000D02*
X27519005Y-137522000D01*
X266237996Y-155822003D02*
X266237996Y-155822003D01*
X263856007Y-113022000D02*
X265381001Y-113022000D01*
X260881001Y-136542004D02*
X260881001Y-136542004D01*
X20969006Y-132072003D02*
X22494008Y-132072003D01*
X171856007Y-143292004D02*
X170131001Y-143292004D01*
X232056004Y-124242001D02*
X232056004Y-124242001D01*
X24219006Y-137522000D02*
X24219006Y-137522000D01*
X-2555993Y-141822003D02*
X-2555993Y-155822003D01*
X180800007Y-55810000D02*
X194800007Y-55810000D01*
X204325001Y-136772000D02*
X204325001Y-136772000D01*
X35256009Y-141822003D02*
X21256009Y-141822003D01*
X29244008Y-136542004D02*
X29244008Y-130272000D01*
X237663014Y-65622000D02*
X237663014Y-65622000D01*
X24219006Y-136542004D02*
X24219006Y-136542004D01*
X80788006Y-98672001D02*
X94788006Y-98672001D01*
X94788006Y-84672001D02*
X94788006Y-84672001D01*
X28113007Y-79622002D02*
X28113007Y-79622002D01*
X243963002Y-73122002D02*
X243963002Y-73122002D01*
X257581013Y-124242001D02*
X257581013Y-124242001D01*
X271288014Y-122772000D02*
X271288014Y-136772000D01*
X75738003Y-84672001D02*
X75738003Y-84672001D01*
X66213010Y-79622002D02*
X66213010Y-65622000D01*
X262606007Y-136542004D02*
X262606007Y-130272000D01*
X263856007Y-103722005D02*
X263856007Y-103722005D01*
X151938008Y-84672001D02*
X137938008Y-84672001D01*
X240756001Y-108422001D02*
X240756001Y-108422001D01*
X245687001Y-66172001D02*
X245687001Y-67092000D01*
X99550007Y-117722005D02*
X99550007Y-103722005D01*
X175156010Y-155592000D02*
X175156010Y-155592000D01*
X301480000Y-41810001D02*
X301480000Y-41810001D01*
X223663014Y-79622002D02*
X223663014Y-79622002D01*
X204325001Y-122772000D02*
X204325001Y-122772000D01*
X199563008Y-79622002D02*
X199563008Y-79622002D01*
X176881001Y-155592000D02*
X176881001Y-149322003D01*
X269487996Y-66172001D02*
X269487996Y-67092000D01*
X218900014Y-117722005D02*
X232900014Y-117722005D01*
X254331013Y-127472005D02*
X254331013Y-127472005D01*
X237663014Y-79622002D02*
X237663014Y-65622000D01*
X166513005Y-65622000D02*
X166513005Y-79622002D01*
X104600011Y-117722005D02*
X104600011Y-117722005D01*
X114125004Y-122772000D02*
X114125004Y-136772000D01*
X250713002Y-67092000D02*
X250713002Y-67092000D01*
X69306004Y-149322003D02*
X70131009Y-149322003D01*
X128125004Y-136772000D02*
X128125004Y-122772000D01*
X252237996Y-74922001D02*
X252237996Y-79622002D01*
X99838010Y-98672001D02*
X113838010Y-98672001D01*
X6969006Y-127472005D02*
X6969006Y-127472005D01*
X113838010Y-55810000D02*
X113838010Y-55810000D01*
X22494008Y-132072003D02*
X22494008Y-136542004D01*
X70975011Y-41810001D02*
X56975011Y-41810001D01*
X132888005Y-55810000D02*
X132888005Y-55810000D01*
X228138005Y-98672001D02*
X228138005Y-84672001D01*
X45069008Y-155822003D02*
X45069008Y-155822003D01*
X287480000Y-41810001D02*
X287480000Y-55810000D01*
X255856007Y-136542004D02*
X257581013Y-136542004D01*
X-1305993Y-136542004D02*
X-1305993Y-136542004D01*
X180800007Y-55810000D02*
X180800007Y-55810000D01*
X265381001Y-117492001D02*
X267106007Y-117492001D01*
X29244008Y-130272000D02*
X29244008Y-130272000D01*
X243306004Y-118472005D02*
X246605000Y-118472005D01*
X263856007Y-103722005D02*
X249856007Y-103722005D01*
X266237996Y-155822003D02*
X266237996Y-141822003D01*
X257581013Y-136542004D02*
X257581013Y-136542004D01*
X142700001Y-117722005D02*
X142700001Y-117722005D01*
X99550007Y-103722005D02*
X85550007Y-103722005D01*
X175156010Y-142371998D02*
X175156010Y-142371998D01*
X113838010Y-41810001D02*
X113838010Y-41810001D01*
X262606007Y-124242001D02*
X262606007Y-124242001D01*
X233188008Y-98672001D02*
X247187001Y-98672001D01*
X232056004Y-127472005D02*
X231231007Y-127472005D01*
X166225011Y-122772000D02*
X152225011Y-122772000D01*
X-2130993Y-130272000D02*
X-1305993Y-130272000D01*
X263856007Y-117722005D02*
X263856007Y-113022000D01*
X232900014Y-103722005D02*
X232900014Y-103722005D01*
X190038014Y-84672001D02*
X176038014Y-84672001D01*
X185563008Y-79622002D02*
X185563008Y-79622002D01*
X213850011Y-55810000D02*
X213850011Y-41810001D01*
X109362004Y-79622002D02*
X109362004Y-79622002D01*
X231231007Y-127472005D02*
X231231007Y-127472005D01*
X237950001Y-41810001D02*
X237950001Y-55810000D01*
X213850011Y-117722005D02*
X213850011Y-103722005D01*
X243306004Y-105191998D02*
X243306004Y-105191998D01*
X132888005Y-41810001D02*
X132888005Y-41810001D01*
X257000020Y-98672001D02*
X257000020Y-98672001D01*
X132888005Y-98672001D02*
X132888005Y-98672001D01*
X14113007Y-65622000D02*
X14113007Y-79622002D01*
X252237996Y-79622002D02*
X252237996Y-79622002D01*
X85550007Y-103722005D02*
X85550007Y-117722005D01*
X85550007Y-117722005D02*
X85550007Y-117722005D01*
X128413014Y-79622002D02*
X128413014Y-79622002D01*
X3719006Y-137522000D02*
X3719006Y-136542004D01*
X28113007Y-79622002D02*
X28113007Y-65622000D01*
X94788006Y-98672001D02*
X94788006Y-84672001D01*
X209375004Y-136772000D02*
X209375004Y-136772000D01*
X246605000Y-117492001D02*
X248331013Y-117492001D01*
X265381001Y-113022000D02*
X265381001Y-117492001D01*
X232900014Y-41810001D02*
X218900014Y-41810001D01*
X45069008Y-155822003D02*
X59069005Y-155822003D01*
X27519005Y-123322003D02*
X24219006Y-123322003D01*
X238806004Y-136542004D02*
X238806004Y-132072003D01*
X156988011Y-84672001D02*
X156988011Y-98672001D01*
X71856007Y-156572003D02*
X71856007Y-156572003D01*
X118888005Y-55810000D02*
X118888005Y-55810000D01*
X251950001Y-55810000D02*
X251950001Y-41810001D01*
X250713002Y-70321999D02*
X250713002Y-70321999D01*
X218613011Y-79622002D02*
X218613011Y-79622002D01*
X130506001Y-146522000D02*
X130506001Y-146522000D01*
X42400006Y-117722005D02*
X42400006Y-117722005D01*
X37925007Y-122772000D02*
X37925007Y-136772000D01*
X231231007Y-130272000D02*
X231231007Y-130272000D01*
X194800007Y-103722005D02*
X194800007Y-103722005D01*
X218900014Y-117722005D02*
X218900014Y-117722005D01*
X11444007Y-141822003D02*
X11444007Y-141822003D01*
X80500004Y-103722005D02*
X66500004Y-103722005D01*
X-4936993Y-65622000D02*
X-4936993Y-79622002D01*
X223663014Y-65622000D02*
X223663014Y-79622002D01*
X257581013Y-137522000D02*
X257581013Y-137522000D01*
X56975011Y-55810000D02*
X70975011Y-55810000D01*
X266237996Y-74922001D02*
X266237996Y-74922001D01*
X287480000Y-55810000D02*
X301480000Y-55810000D01*
X22494008Y-127472005D02*
X22494008Y-127472005D01*
X171856007Y-155592000D02*
X171856007Y-155592000D01*
X90025006Y-122772000D02*
X76025006Y-122772000D01*
X285288014Y-141822003D02*
X285288014Y-141822003D01*
X254331013Y-127472005D02*
X254331013Y-122772000D01*
X265381001Y-108422001D02*
X263856007Y-108422001D01*
X171856007Y-142371998D02*
X171856007Y-142371998D01*
X195088002Y-98672001D02*
X209088002Y-98672001D01*
X237663014Y-79622002D02*
X237663014Y-79622002D01*
X137650014Y-117722005D02*
X137650014Y-117722005D01*
X204325001Y-122772000D02*
X190325001Y-122772000D01*
X272131001Y-117492001D02*
X272131001Y-117492001D01*
X267106007Y-105191998D02*
X267106007Y-105191998D01*
X130506001Y-155822003D02*
X130506001Y-151121998D01*
X272788014Y-66172001D02*
X272788014Y-66172001D01*
X266237996Y-65622000D02*
X266237996Y-65622000D01*
X75156010Y-142371998D02*
X75156010Y-142371998D01*
X246605000Y-104272000D02*
X243306004Y-104272000D01*
X245687001Y-80372002D02*
X245687001Y-80372002D01*
X170131001Y-155592000D02*
X170131001Y-155592000D01*
X285288014Y-141822003D02*
X271288014Y-141822003D01*
X255856007Y-124242001D02*
X255856007Y-127472005D01*
X104312009Y-79622002D02*
X104312009Y-79622002D01*
X104600011Y-103722005D02*
X104600011Y-117722005D01*
X275338002Y-73122002D02*
X275338002Y-70321999D01*
X171275014Y-136772000D02*
X185275014Y-136772000D01*
X23638009Y-98672001D02*
X23638009Y-98672001D01*
X175750004Y-117722005D02*
X175750004Y-103722005D01*
X177706013Y-146522000D02*
X177706013Y-146522000D01*
X52213010Y-79622002D02*
X52213010Y-79622002D01*
X9063006Y-65622000D02*
X-4936993Y-65622000D01*
X-2130993Y-130272000D02*
X-2130993Y-130272000D01*
X30069008Y-130272000D02*
X30069008Y-127472005D01*
X37925007Y-136772000D02*
X51925007Y-136772000D01*
X249856007Y-108422001D02*
X248331013Y-108422001D01*
X255856007Y-132072003D02*
X255856007Y-132072003D01*
X171856007Y-156572003D02*
X175156010Y-156572003D01*
X6969006Y-136772000D02*
X6969006Y-136772000D01*
X20969006Y-122772000D02*
X20969006Y-122772000D01*
X-1305993Y-127472005D02*
X-1305993Y-127472005D01*
X250713002Y-79392003D02*
X250713002Y-79392003D01*
X42400006Y-117722005D02*
X42400006Y-103722005D01*
X75156010Y-143292004D02*
X75156010Y-142371998D01*
X70131009Y-155592000D02*
X71856007Y-155592000D01*
X265381001Y-105191998D02*
X265381001Y-105191998D01*
X267106007Y-105191998D02*
X265381001Y-105191998D01*
X32875008Y-41810001D02*
X18875006Y-41810001D01*
X21256009Y-155822003D02*
X35256009Y-155822003D01*
X133175007Y-122772000D02*
X133175007Y-136772000D01*
X304338002Y-141822003D02*
X304338002Y-141822003D01*
X269487996Y-80372002D02*
X272788014Y-80372002D01*
X275338002Y-70321999D02*
X274513020Y-70321999D01*
X195088002Y-84672001D02*
X195088002Y-98672001D01*
X161750004Y-117722005D02*
X175750004Y-117722005D01*
X6969006Y-127472005D02*
X5444007Y-127472005D01*
X94788006Y-98672001D02*
X94788006Y-98672001D01*
X255856007Y-127472005D02*
X255856007Y-127472005D01*
X156988011Y-55810000D02*
X170988011Y-55810000D01*
X51925007Y-55810000D02*
X51925007Y-41810001D01*
X301480000Y-55810000D02*
X301480000Y-55810000D01*
X30069008Y-127472005D02*
X30069008Y-127472005D01*
X266237996Y-74922001D02*
X267763020Y-74922001D01*
X151938008Y-84672001D02*
X151938008Y-84672001D01*
X-174993Y-98672001D02*
X-174993Y-98672001D01*
X22494008Y-136542004D02*
X24219006Y-136542004D01*
X240756001Y-111222005D02*
X240756001Y-111222005D01*
X90025006Y-41810001D02*
X90025006Y-41810001D01*
X133175007Y-136772000D02*
X147175007Y-136772000D01*
X147463002Y-65622000D02*
X147463002Y-79622002D01*
X263431019Y-127472005D02*
X262606007Y-127472005D01*
X271000020Y-98672001D02*
X271000020Y-84672001D01*
X301480000Y-93910000D02*
X301480000Y-79910000D01*
X176038014Y-98672001D02*
X190038014Y-98672001D01*
X272131001Y-117492001D02*
X272131001Y-111222005D01*
X232900014Y-103722005D02*
X218900014Y-103722005D01*
X156988011Y-98672001D02*
X156988011Y-98672001D01*
X180800007Y-41810001D02*
X180800007Y-55810000D01*
X32875008Y-41810001D02*
X32875008Y-41810001D01*
X267106007Y-104272000D02*
X267106007Y-104272000D01*
X95075009Y-136772000D02*
X95075009Y-136772000D01*
X248331013Y-113022000D02*
X249856007Y-113022000D01*
X266237996Y-141822003D02*
X252237996Y-141822003D01*
X247187001Y-98672001D02*
X247187001Y-98672001D01*
X201944005Y-155822003D02*
X201944005Y-155822003D01*
M02*
