G04 #@! TF.GenerationSoftware,KiCad,Pcbnew,(6.0.10)*
G04 #@! TF.CreationDate,2023-03-05T22:56:18-08:00*
G04 #@! TF.ProjectId,keyboard,6b657962-6f61-4726-942e-6b696361645f,rev?*
G04 #@! TF.SameCoordinates,Original*
G04 #@! TF.FileFunction,Legend,Bot*
G04 #@! TF.FilePolarity,Positive*
%FSLAX46Y46*%
G04 Gerber Fmt 4.6, Leading zero omitted, Abs format (unit mm)*
G04 Created by KiCad (PCBNEW (6.0.10)) date 2023-03-05 22:56:18*
%MOMM*%
%LPD*%
G01*
G04 APERTURE LIST*
%ADD10C,0.150000*%
%ADD11C,0.381000*%
%ADD12R,1.752600X1.752600*%
%ADD13C,1.752600*%
G04 APERTURE END LIST*
D10*
X386688630Y-170877380D02*
X386688630Y-169877380D01*
X386117202Y-170877380D02*
X386545773Y-170305952D01*
X386117202Y-169877380D02*
X386688630Y-170448809D01*
X385926726Y-170972619D02*
X385164821Y-170972619D01*
X384926726Y-170353571D02*
X384593392Y-170353571D01*
X384450535Y-170877380D02*
X384926726Y-170877380D01*
X384926726Y-169877380D01*
X384450535Y-169877380D01*
X384021964Y-170877380D02*
X384021964Y-169877380D01*
X383450535Y-170877380D01*
X383450535Y-169877380D01*
X383117202Y-169877380D02*
X382545773Y-169877380D01*
X382831488Y-170877380D02*
X382831488Y-169877380D01*
X382212440Y-170353571D02*
X381879107Y-170353571D01*
X381736250Y-170877380D02*
X382212440Y-170877380D01*
X382212440Y-169877380D01*
X381736250Y-169877380D01*
X380736250Y-170877380D02*
X381069583Y-170401190D01*
X381307678Y-170877380D02*
X381307678Y-169877380D01*
X380926726Y-169877380D01*
X380831488Y-169925000D01*
X380783869Y-169972619D01*
X380736250Y-170067857D01*
X380736250Y-170210714D01*
X380783869Y-170305952D01*
X380831488Y-170353571D01*
X380926726Y-170401190D01*
X381307678Y-170401190D01*
X291748452Y-151827380D02*
X291748452Y-150827380D01*
X291177023Y-151827380D02*
X291605595Y-151255952D01*
X291177023Y-150827380D02*
X291748452Y-151398809D01*
X290986547Y-151922619D02*
X290224642Y-151922619D01*
X289986547Y-151827380D02*
X289986547Y-150827380D01*
X341468690Y-132777380D02*
X341468690Y-131777380D01*
X340897261Y-132777380D02*
X341325833Y-132205952D01*
X340897261Y-131777380D02*
X341468690Y-132348809D01*
X340706785Y-132872619D02*
X339944880Y-132872619D01*
X339706785Y-132777380D02*
X339706785Y-131777380D01*
X339373452Y-132491666D01*
X339040119Y-131777380D01*
X339040119Y-132777380D01*
X338563928Y-132777380D02*
X338563928Y-131777380D01*
X338087738Y-132777380D02*
X338087738Y-131777380D01*
X337516309Y-132777380D01*
X337516309Y-131777380D01*
X337040119Y-131777380D02*
X337040119Y-132586904D01*
X336992500Y-132682142D01*
X336944880Y-132729761D01*
X336849642Y-132777380D01*
X336659166Y-132777380D01*
X336563928Y-132729761D01*
X336516309Y-132682142D01*
X336468690Y-132586904D01*
X336468690Y-131777380D01*
X336040119Y-132729761D02*
X335897261Y-132777380D01*
X335659166Y-132777380D01*
X335563928Y-132729761D01*
X335516309Y-132682142D01*
X335468690Y-132586904D01*
X335468690Y-132491666D01*
X335516309Y-132396428D01*
X335563928Y-132348809D01*
X335659166Y-132301190D01*
X335849642Y-132253571D01*
X335944880Y-132205952D01*
X335992500Y-132158333D01*
X336040119Y-132063095D01*
X336040119Y-131967857D01*
X335992500Y-131872619D01*
X335944880Y-131825000D01*
X335849642Y-131777380D01*
X335611547Y-131777380D01*
X335468690Y-131825000D01*
X296772857Y-170877380D02*
X296772857Y-169877380D01*
X296201428Y-170877380D02*
X296630000Y-170305952D01*
X296201428Y-169877380D02*
X296772857Y-170448809D01*
X296010952Y-170972619D02*
X295249047Y-170972619D01*
X295010952Y-170877380D02*
X295010952Y-169877380D01*
X294439523Y-170877380D02*
X294868095Y-170305952D01*
X294439523Y-169877380D02*
X295010952Y-170448809D01*
X244361547Y-132777380D02*
X244361547Y-131777380D01*
X243790119Y-132777380D02*
X244218690Y-132205952D01*
X243790119Y-131777380D02*
X244361547Y-132348809D01*
X243599642Y-132872619D02*
X242837738Y-132872619D01*
X242171071Y-131777380D02*
X242361547Y-131777380D01*
X242456785Y-131825000D01*
X242504404Y-131872619D01*
X242599642Y-132015476D01*
X242647261Y-132205952D01*
X242647261Y-132586904D01*
X242599642Y-132682142D01*
X242552023Y-132729761D01*
X242456785Y-132777380D01*
X242266309Y-132777380D01*
X242171071Y-132729761D01*
X242123452Y-132682142D01*
X242075833Y-132586904D01*
X242075833Y-132348809D01*
X242123452Y-132253571D01*
X242171071Y-132205952D01*
X242266309Y-132158333D01*
X242456785Y-132158333D01*
X242552023Y-132205952D01*
X242599642Y-132253571D01*
X242647261Y-132348809D01*
X346207380Y-189927380D02*
X346207380Y-188927380D01*
X345635952Y-189927380D02*
X346064523Y-189355952D01*
X345635952Y-188927380D02*
X346207380Y-189498809D01*
X345445476Y-190022619D02*
X344683571Y-190022619D01*
X344493095Y-189879761D02*
X344350238Y-189927380D01*
X344112142Y-189927380D01*
X344016904Y-189879761D01*
X343969285Y-189832142D01*
X343921666Y-189736904D01*
X343921666Y-189641666D01*
X343969285Y-189546428D01*
X344016904Y-189498809D01*
X344112142Y-189451190D01*
X344302619Y-189403571D01*
X344397857Y-189355952D01*
X344445476Y-189308333D01*
X344493095Y-189213095D01*
X344493095Y-189117857D01*
X344445476Y-189022619D01*
X344397857Y-188975000D01*
X344302619Y-188927380D01*
X344064523Y-188927380D01*
X343921666Y-188975000D01*
X343016904Y-189927380D02*
X343493095Y-189927380D01*
X343493095Y-188927380D01*
X342731190Y-189641666D02*
X342255000Y-189641666D01*
X342826428Y-189927380D02*
X342493095Y-188927380D01*
X342159761Y-189927380D01*
X341874047Y-189879761D02*
X341731190Y-189927380D01*
X341493095Y-189927380D01*
X341397857Y-189879761D01*
X341350238Y-189832142D01*
X341302619Y-189736904D01*
X341302619Y-189641666D01*
X341350238Y-189546428D01*
X341397857Y-189498809D01*
X341493095Y-189451190D01*
X341683571Y-189403571D01*
X341778809Y-189355952D01*
X341826428Y-189308333D01*
X341874047Y-189213095D01*
X341874047Y-189117857D01*
X341826428Y-189022619D01*
X341778809Y-188975000D01*
X341683571Y-188927380D01*
X341445476Y-188927380D01*
X341302619Y-188975000D01*
X340874047Y-189927380D02*
X340874047Y-188927380D01*
X340874047Y-189403571D02*
X340302619Y-189403571D01*
X340302619Y-189927380D02*
X340302619Y-188927380D01*
X196712738Y-151827380D02*
X196712738Y-150827380D01*
X196141309Y-151827380D02*
X196569880Y-151255952D01*
X196141309Y-150827380D02*
X196712738Y-151398809D01*
X195950833Y-151922619D02*
X195188928Y-151922619D01*
X194950833Y-151303571D02*
X194617500Y-151303571D01*
X194474642Y-151827380D02*
X194950833Y-151827380D01*
X194950833Y-150827380D01*
X194474642Y-150827380D01*
X258696666Y-170877380D02*
X258696666Y-169877380D01*
X258125238Y-170877380D02*
X258553809Y-170305952D01*
X258125238Y-169877380D02*
X258696666Y-170448809D01*
X257934761Y-170972619D02*
X257172857Y-170972619D01*
X256934761Y-170877380D02*
X256934761Y-169877380D01*
X256934761Y-170353571D02*
X256363333Y-170353571D01*
X256363333Y-170877380D02*
X256363333Y-169877380D01*
X275293690Y-108964880D02*
X275293690Y-107964880D01*
X274722261Y-108964880D02*
X275150833Y-108393452D01*
X274722261Y-107964880D02*
X275293690Y-108536309D01*
X274531785Y-109060119D02*
X273769880Y-109060119D01*
X273579404Y-108917261D02*
X273436547Y-108964880D01*
X273198452Y-108964880D01*
X273103214Y-108917261D01*
X273055595Y-108869642D01*
X273007976Y-108774404D01*
X273007976Y-108679166D01*
X273055595Y-108583928D01*
X273103214Y-108536309D01*
X273198452Y-108488690D01*
X273388928Y-108441071D01*
X273484166Y-108393452D01*
X273531785Y-108345833D01*
X273579404Y-108250595D01*
X273579404Y-108155357D01*
X273531785Y-108060119D01*
X273484166Y-108012500D01*
X273388928Y-107964880D01*
X273150833Y-107964880D01*
X273007976Y-108012500D01*
X272579404Y-108964880D02*
X272579404Y-107964880D01*
X272198452Y-107964880D01*
X272103214Y-108012500D01*
X272055595Y-108060119D01*
X272007976Y-108155357D01*
X272007976Y-108298214D01*
X272055595Y-108393452D01*
X272103214Y-108441071D01*
X272198452Y-108488690D01*
X272579404Y-108488690D01*
X271627023Y-108679166D02*
X271150833Y-108679166D01*
X271722261Y-108964880D02*
X271388928Y-107964880D01*
X271055595Y-108964880D01*
X270150833Y-108869642D02*
X270198452Y-108917261D01*
X270341309Y-108964880D01*
X270436547Y-108964880D01*
X270579404Y-108917261D01*
X270674642Y-108822023D01*
X270722261Y-108726785D01*
X270769880Y-108536309D01*
X270769880Y-108393452D01*
X270722261Y-108202976D01*
X270674642Y-108107738D01*
X270579404Y-108012500D01*
X270436547Y-107964880D01*
X270341309Y-107964880D01*
X270198452Y-108012500D01*
X270150833Y-108060119D01*
X269722261Y-108441071D02*
X269388928Y-108441071D01*
X269246071Y-108964880D02*
X269722261Y-108964880D01*
X269722261Y-107964880D01*
X269246071Y-107964880D01*
X268912738Y-107964880D02*
X268246071Y-107964880D01*
X268674642Y-108964880D01*
X149111547Y-132777380D02*
X149111547Y-131777380D01*
X148540119Y-132777380D02*
X148968690Y-132205952D01*
X148540119Y-131777380D02*
X149111547Y-132348809D01*
X148349642Y-132872619D02*
X147587738Y-132872619D01*
X146825833Y-132777380D02*
X147397261Y-132777380D01*
X147111547Y-132777380D02*
X147111547Y-131777380D01*
X147206785Y-131920238D01*
X147302023Y-132015476D01*
X147397261Y-132063095D01*
X272984166Y-151827380D02*
X272984166Y-150827380D01*
X272412738Y-151827380D02*
X272841309Y-151255952D01*
X272412738Y-150827380D02*
X272984166Y-151398809D01*
X272222261Y-151922619D02*
X271460357Y-151922619D01*
X271222261Y-150827380D02*
X271222261Y-151636904D01*
X271174642Y-151732142D01*
X271127023Y-151779761D01*
X271031785Y-151827380D01*
X270841309Y-151827380D01*
X270746071Y-151779761D01*
X270698452Y-151732142D01*
X270650833Y-151636904D01*
X270650833Y-150827380D01*
X393903809Y-151827380D02*
X393903809Y-150827380D01*
X393332380Y-151827380D02*
X393760952Y-151255952D01*
X393332380Y-150827380D02*
X393903809Y-151398809D01*
X393141904Y-151922619D02*
X392380000Y-151922619D01*
X391808571Y-151303571D02*
X391665714Y-151351190D01*
X391618095Y-151398809D01*
X391570476Y-151494047D01*
X391570476Y-151636904D01*
X391618095Y-151732142D01*
X391665714Y-151779761D01*
X391760952Y-151827380D01*
X392141904Y-151827380D01*
X392141904Y-150827380D01*
X391808571Y-150827380D01*
X391713333Y-150875000D01*
X391665714Y-150922619D01*
X391618095Y-151017857D01*
X391618095Y-151113095D01*
X391665714Y-151208333D01*
X391713333Y-151255952D01*
X391808571Y-151303571D01*
X392141904Y-151303571D01*
X391189523Y-151779761D02*
X391046666Y-151827380D01*
X390808571Y-151827380D01*
X390713333Y-151779761D01*
X390665714Y-151732142D01*
X390618095Y-151636904D01*
X390618095Y-151541666D01*
X390665714Y-151446428D01*
X390713333Y-151398809D01*
X390808571Y-151351190D01*
X390999047Y-151303571D01*
X391094285Y-151255952D01*
X391141904Y-151208333D01*
X391189523Y-151113095D01*
X391189523Y-151017857D01*
X391141904Y-150922619D01*
X391094285Y-150875000D01*
X390999047Y-150827380D01*
X390760952Y-150827380D01*
X390618095Y-150875000D01*
X389713333Y-151827380D02*
X390189523Y-151827380D01*
X390189523Y-150827380D01*
X389427619Y-151779761D02*
X389284761Y-151827380D01*
X389046666Y-151827380D01*
X388951428Y-151779761D01*
X388903809Y-151732142D01*
X388856190Y-151636904D01*
X388856190Y-151541666D01*
X388903809Y-151446428D01*
X388951428Y-151398809D01*
X389046666Y-151351190D01*
X389237142Y-151303571D01*
X389332380Y-151255952D01*
X389380000Y-151208333D01*
X389427619Y-151113095D01*
X389427619Y-151017857D01*
X389380000Y-150922619D01*
X389332380Y-150875000D01*
X389237142Y-150827380D01*
X388999047Y-150827380D01*
X388856190Y-150875000D01*
X388427619Y-151827380D02*
X388427619Y-150827380D01*
X388427619Y-151303571D02*
X387856190Y-151303571D01*
X387856190Y-151827380D02*
X387856190Y-150827380D01*
X251492857Y-208957380D02*
X251492857Y-207957380D01*
X250921428Y-208957380D02*
X251350000Y-208385952D01*
X250921428Y-207957380D02*
X251492857Y-208528809D01*
X250730952Y-209052619D02*
X249969047Y-209052619D01*
X249397619Y-208433571D02*
X249254761Y-208481190D01*
X249207142Y-208528809D01*
X249159523Y-208624047D01*
X249159523Y-208766904D01*
X249207142Y-208862142D01*
X249254761Y-208909761D01*
X249350000Y-208957380D01*
X249730952Y-208957380D01*
X249730952Y-207957380D01*
X249397619Y-207957380D01*
X249302380Y-208005000D01*
X249254761Y-208052619D01*
X249207142Y-208147857D01*
X249207142Y-208243095D01*
X249254761Y-208338333D01*
X249302380Y-208385952D01*
X249397619Y-208433571D01*
X249730952Y-208433571D01*
X311084166Y-151827380D02*
X311084166Y-150827380D01*
X310512738Y-151827380D02*
X310941309Y-151255952D01*
X310512738Y-150827380D02*
X311084166Y-151398809D01*
X310322261Y-151922619D02*
X309560357Y-151922619D01*
X309131785Y-150827380D02*
X308941309Y-150827380D01*
X308846071Y-150875000D01*
X308750833Y-150970238D01*
X308703214Y-151160714D01*
X308703214Y-151494047D01*
X308750833Y-151684523D01*
X308846071Y-151779761D01*
X308941309Y-151827380D01*
X309131785Y-151827380D01*
X309227023Y-151779761D01*
X309322261Y-151684523D01*
X309369880Y-151494047D01*
X309369880Y-151160714D01*
X309322261Y-150970238D01*
X309227023Y-150875000D01*
X309131785Y-150827380D01*
X177781785Y-151827380D02*
X177781785Y-150827380D01*
X177210357Y-151827380D02*
X177638928Y-151255952D01*
X177210357Y-150827380D02*
X177781785Y-151398809D01*
X177019880Y-151922619D02*
X176257976Y-151922619D01*
X176115119Y-150827380D02*
X175877023Y-151827380D01*
X175686547Y-151113095D01*
X175496071Y-151827380D01*
X175257976Y-150827380D01*
X320561547Y-132777380D02*
X320561547Y-131777380D01*
X319990119Y-132777380D02*
X320418690Y-132205952D01*
X319990119Y-131777380D02*
X320561547Y-132348809D01*
X319799642Y-132872619D02*
X319037738Y-132872619D01*
X318609166Y-131777380D02*
X318513928Y-131777380D01*
X318418690Y-131825000D01*
X318371071Y-131872619D01*
X318323452Y-131967857D01*
X318275833Y-132158333D01*
X318275833Y-132396428D01*
X318323452Y-132586904D01*
X318371071Y-132682142D01*
X318418690Y-132729761D01*
X318513928Y-132777380D01*
X318609166Y-132777380D01*
X318704404Y-132729761D01*
X318752023Y-132682142D01*
X318799642Y-132586904D01*
X318847261Y-132396428D01*
X318847261Y-132158333D01*
X318799642Y-131967857D01*
X318752023Y-131872619D01*
X318704404Y-131825000D01*
X318609166Y-131777380D01*
X138633869Y-170877380D02*
X138633869Y-169877380D01*
X138062440Y-170877380D02*
X138491011Y-170305952D01*
X138062440Y-169877380D02*
X138633869Y-170448809D01*
X137871964Y-170972619D02*
X137110059Y-170972619D01*
X136300535Y-170782142D02*
X136348154Y-170829761D01*
X136491011Y-170877380D01*
X136586250Y-170877380D01*
X136729107Y-170829761D01*
X136824345Y-170734523D01*
X136871964Y-170639285D01*
X136919583Y-170448809D01*
X136919583Y-170305952D01*
X136871964Y-170115476D01*
X136824345Y-170020238D01*
X136729107Y-169925000D01*
X136586250Y-169877380D01*
X136491011Y-169877380D01*
X136348154Y-169925000D01*
X136300535Y-169972619D01*
X135919583Y-170591666D02*
X135443392Y-170591666D01*
X136014821Y-170877380D02*
X135681488Y-169877380D01*
X135348154Y-170877380D01*
X135014821Y-170877380D02*
X135014821Y-169877380D01*
X134633869Y-169877380D01*
X134538630Y-169925000D01*
X134491011Y-169972619D01*
X134443392Y-170067857D01*
X134443392Y-170210714D01*
X134491011Y-170305952D01*
X134538630Y-170353571D01*
X134633869Y-170401190D01*
X135014821Y-170401190D01*
X134062440Y-170829761D02*
X133919583Y-170877380D01*
X133681488Y-170877380D01*
X133586250Y-170829761D01*
X133538630Y-170782142D01*
X133491011Y-170686904D01*
X133491011Y-170591666D01*
X133538630Y-170496428D01*
X133586250Y-170448809D01*
X133681488Y-170401190D01*
X133871964Y-170353571D01*
X133967202Y-170305952D01*
X134014821Y-170258333D01*
X134062440Y-170163095D01*
X134062440Y-170067857D01*
X134014821Y-169972619D01*
X133967202Y-169925000D01*
X133871964Y-169877380D01*
X133633869Y-169877380D01*
X133491011Y-169925000D01*
X375782380Y-108964880D02*
X375782380Y-107964880D01*
X375210952Y-108964880D02*
X375639523Y-108393452D01*
X375210952Y-107964880D02*
X375782380Y-108536309D01*
X375020476Y-109060119D02*
X374258571Y-109060119D01*
X374068095Y-108917261D02*
X373925238Y-108964880D01*
X373687142Y-108964880D01*
X373591904Y-108917261D01*
X373544285Y-108869642D01*
X373496666Y-108774404D01*
X373496666Y-108679166D01*
X373544285Y-108583928D01*
X373591904Y-108536309D01*
X373687142Y-108488690D01*
X373877619Y-108441071D01*
X373972857Y-108393452D01*
X374020476Y-108345833D01*
X374068095Y-108250595D01*
X374068095Y-108155357D01*
X374020476Y-108060119D01*
X373972857Y-108012500D01*
X373877619Y-107964880D01*
X373639523Y-107964880D01*
X373496666Y-108012500D01*
X373068095Y-108964880D02*
X373068095Y-107964880D01*
X372687142Y-107964880D01*
X372591904Y-108012500D01*
X372544285Y-108060119D01*
X372496666Y-108155357D01*
X372496666Y-108298214D01*
X372544285Y-108393452D01*
X372591904Y-108441071D01*
X372687142Y-108488690D01*
X373068095Y-108488690D01*
X372115714Y-108679166D02*
X371639523Y-108679166D01*
X372210952Y-108964880D02*
X371877619Y-107964880D01*
X371544285Y-108964880D01*
X370639523Y-108869642D02*
X370687142Y-108917261D01*
X370830000Y-108964880D01*
X370925238Y-108964880D01*
X371068095Y-108917261D01*
X371163333Y-108822023D01*
X371210952Y-108726785D01*
X371258571Y-108536309D01*
X371258571Y-108393452D01*
X371210952Y-108202976D01*
X371163333Y-108107738D01*
X371068095Y-108012500D01*
X370925238Y-107964880D01*
X370830000Y-107964880D01*
X370687142Y-108012500D01*
X370639523Y-108060119D01*
X370210952Y-108441071D02*
X369877619Y-108441071D01*
X369734761Y-108964880D02*
X370210952Y-108964880D01*
X370210952Y-107964880D01*
X369734761Y-107964880D01*
X368782380Y-108964880D02*
X369353809Y-108964880D01*
X369068095Y-108964880D02*
X369068095Y-107964880D01*
X369163333Y-108107738D01*
X369258571Y-108202976D01*
X369353809Y-108250595D01*
X368401428Y-108060119D02*
X368353809Y-108012500D01*
X368258571Y-107964880D01*
X368020476Y-107964880D01*
X367925238Y-108012500D01*
X367877619Y-108060119D01*
X367830000Y-108155357D01*
X367830000Y-108250595D01*
X367877619Y-108393452D01*
X368449047Y-108964880D01*
X367830000Y-108964880D01*
X158684166Y-151827380D02*
X158684166Y-150827380D01*
X158112738Y-151827380D02*
X158541309Y-151255952D01*
X158112738Y-150827380D02*
X158684166Y-151398809D01*
X157922261Y-151922619D02*
X157160357Y-151922619D01*
X156255595Y-151922619D02*
X156350833Y-151875000D01*
X156446071Y-151779761D01*
X156588928Y-151636904D01*
X156684166Y-151589285D01*
X156779404Y-151589285D01*
X156731785Y-151827380D02*
X156827023Y-151779761D01*
X156922261Y-151684523D01*
X156969880Y-151494047D01*
X156969880Y-151160714D01*
X156922261Y-150970238D01*
X156827023Y-150875000D01*
X156731785Y-150827380D01*
X156541309Y-150827380D01*
X156446071Y-150875000D01*
X156350833Y-150970238D01*
X156303214Y-151160714D01*
X156303214Y-151494047D01*
X156350833Y-151684523D01*
X156446071Y-151779761D01*
X156541309Y-151827380D01*
X156731785Y-151827380D01*
X215810357Y-151827380D02*
X215810357Y-150827380D01*
X215238928Y-151827380D02*
X215667500Y-151255952D01*
X215238928Y-150827380D02*
X215810357Y-151398809D01*
X215048452Y-151922619D02*
X214286547Y-151922619D01*
X213477023Y-151827380D02*
X213810357Y-151351190D01*
X214048452Y-151827380D02*
X214048452Y-150827380D01*
X213667500Y-150827380D01*
X213572261Y-150875000D01*
X213524642Y-150922619D01*
X213477023Y-151017857D01*
X213477023Y-151160714D01*
X213524642Y-151255952D01*
X213572261Y-151303571D01*
X213667500Y-151351190D01*
X214048452Y-151351190D01*
X277603809Y-170877380D02*
X277603809Y-169877380D01*
X277032380Y-170877380D02*
X277460952Y-170305952D01*
X277032380Y-169877380D02*
X277603809Y-170448809D01*
X276841904Y-170972619D02*
X276080000Y-170972619D01*
X275556190Y-169877380D02*
X275556190Y-170591666D01*
X275603809Y-170734523D01*
X275699047Y-170829761D01*
X275841904Y-170877380D01*
X275937142Y-170877380D01*
X330110357Y-151827380D02*
X330110357Y-150827380D01*
X329538928Y-151827380D02*
X329967500Y-151255952D01*
X329538928Y-150827380D02*
X330110357Y-151398809D01*
X329348452Y-151922619D02*
X328586547Y-151922619D01*
X328348452Y-151827380D02*
X328348452Y-150827380D01*
X327967500Y-150827380D01*
X327872261Y-150875000D01*
X327824642Y-150922619D01*
X327777023Y-151017857D01*
X327777023Y-151160714D01*
X327824642Y-151255952D01*
X327872261Y-151303571D01*
X327967500Y-151351190D01*
X328348452Y-151351190D01*
X201522857Y-170877380D02*
X201522857Y-169877380D01*
X200951428Y-170877380D02*
X201380000Y-170305952D01*
X200951428Y-169877380D02*
X201522857Y-170448809D01*
X200760952Y-170972619D02*
X199999047Y-170972619D01*
X199760952Y-170877380D02*
X199760952Y-169877380D01*
X199522857Y-169877380D01*
X199380000Y-169925000D01*
X199284761Y-170020238D01*
X199237142Y-170115476D01*
X199189523Y-170305952D01*
X199189523Y-170448809D01*
X199237142Y-170639285D01*
X199284761Y-170734523D01*
X199380000Y-170829761D01*
X199522857Y-170877380D01*
X199760952Y-170877380D01*
X213381190Y-108964880D02*
X213381190Y-107964880D01*
X212809761Y-108964880D02*
X213238333Y-108393452D01*
X212809761Y-107964880D02*
X213381190Y-108536309D01*
X212619285Y-109060119D02*
X211857380Y-109060119D01*
X211666904Y-108917261D02*
X211524047Y-108964880D01*
X211285952Y-108964880D01*
X211190714Y-108917261D01*
X211143095Y-108869642D01*
X211095476Y-108774404D01*
X211095476Y-108679166D01*
X211143095Y-108583928D01*
X211190714Y-108536309D01*
X211285952Y-108488690D01*
X211476428Y-108441071D01*
X211571666Y-108393452D01*
X211619285Y-108345833D01*
X211666904Y-108250595D01*
X211666904Y-108155357D01*
X211619285Y-108060119D01*
X211571666Y-108012500D01*
X211476428Y-107964880D01*
X211238333Y-107964880D01*
X211095476Y-108012500D01*
X210666904Y-108964880D02*
X210666904Y-107964880D01*
X210285952Y-107964880D01*
X210190714Y-108012500D01*
X210143095Y-108060119D01*
X210095476Y-108155357D01*
X210095476Y-108298214D01*
X210143095Y-108393452D01*
X210190714Y-108441071D01*
X210285952Y-108488690D01*
X210666904Y-108488690D01*
X209714523Y-108679166D02*
X209238333Y-108679166D01*
X209809761Y-108964880D02*
X209476428Y-107964880D01*
X209143095Y-108964880D01*
X208238333Y-108869642D02*
X208285952Y-108917261D01*
X208428809Y-108964880D01*
X208524047Y-108964880D01*
X208666904Y-108917261D01*
X208762142Y-108822023D01*
X208809761Y-108726785D01*
X208857380Y-108536309D01*
X208857380Y-108393452D01*
X208809761Y-108202976D01*
X208762142Y-108107738D01*
X208666904Y-108012500D01*
X208524047Y-107964880D01*
X208428809Y-107964880D01*
X208285952Y-108012500D01*
X208238333Y-108060119D01*
X207809761Y-108441071D02*
X207476428Y-108441071D01*
X207333571Y-108964880D02*
X207809761Y-108964880D01*
X207809761Y-107964880D01*
X207333571Y-107964880D01*
X206476428Y-108298214D02*
X206476428Y-108964880D01*
X206714523Y-107917261D02*
X206952619Y-108631547D01*
X206333571Y-108631547D01*
X249147857Y-189927380D02*
X249147857Y-188927380D01*
X248576428Y-189927380D02*
X249005000Y-189355952D01*
X248576428Y-188927380D02*
X249147857Y-189498809D01*
X248385952Y-190022619D02*
X247624047Y-190022619D01*
X247052619Y-189403571D02*
X246909761Y-189451190D01*
X246862142Y-189498809D01*
X246814523Y-189594047D01*
X246814523Y-189736904D01*
X246862142Y-189832142D01*
X246909761Y-189879761D01*
X247005000Y-189927380D01*
X247385952Y-189927380D01*
X247385952Y-188927380D01*
X247052619Y-188927380D01*
X246957380Y-188975000D01*
X246909761Y-189022619D01*
X246862142Y-189117857D01*
X246862142Y-189213095D01*
X246909761Y-189308333D01*
X246957380Y-189355952D01*
X247052619Y-189403571D01*
X247385952Y-189403571D01*
X326252619Y-189927380D02*
X326252619Y-188927380D01*
X325681190Y-189927380D02*
X326109761Y-189355952D01*
X325681190Y-188927380D02*
X326252619Y-189498809D01*
X325490714Y-190022619D02*
X324728809Y-190022619D01*
X324490714Y-189927380D02*
X324490714Y-188927380D01*
X324252619Y-188927380D01*
X324109761Y-188975000D01*
X324014523Y-189070238D01*
X323966904Y-189165476D01*
X323919285Y-189355952D01*
X323919285Y-189498809D01*
X323966904Y-189689285D01*
X324014523Y-189784523D01*
X324109761Y-189879761D01*
X324252619Y-189927380D01*
X324490714Y-189927380D01*
X323300238Y-188927380D02*
X323109761Y-188927380D01*
X323014523Y-188975000D01*
X322919285Y-189070238D01*
X322871666Y-189260714D01*
X322871666Y-189594047D01*
X322919285Y-189784523D01*
X323014523Y-189879761D01*
X323109761Y-189927380D01*
X323300238Y-189927380D01*
X323395476Y-189879761D01*
X323490714Y-189784523D01*
X323538333Y-189594047D01*
X323538333Y-189260714D01*
X323490714Y-189070238D01*
X323395476Y-188975000D01*
X323300238Y-188927380D01*
X322585952Y-188927380D02*
X322014523Y-188927380D01*
X322300238Y-189927380D02*
X322300238Y-188927380D01*
X237193690Y-108964880D02*
X237193690Y-107964880D01*
X236622261Y-108964880D02*
X237050833Y-108393452D01*
X236622261Y-107964880D02*
X237193690Y-108536309D01*
X236431785Y-109060119D02*
X235669880Y-109060119D01*
X235479404Y-108917261D02*
X235336547Y-108964880D01*
X235098452Y-108964880D01*
X235003214Y-108917261D01*
X234955595Y-108869642D01*
X234907976Y-108774404D01*
X234907976Y-108679166D01*
X234955595Y-108583928D01*
X235003214Y-108536309D01*
X235098452Y-108488690D01*
X235288928Y-108441071D01*
X235384166Y-108393452D01*
X235431785Y-108345833D01*
X235479404Y-108250595D01*
X235479404Y-108155357D01*
X235431785Y-108060119D01*
X235384166Y-108012500D01*
X235288928Y-107964880D01*
X235050833Y-107964880D01*
X234907976Y-108012500D01*
X234479404Y-108964880D02*
X234479404Y-107964880D01*
X234098452Y-107964880D01*
X234003214Y-108012500D01*
X233955595Y-108060119D01*
X233907976Y-108155357D01*
X233907976Y-108298214D01*
X233955595Y-108393452D01*
X234003214Y-108441071D01*
X234098452Y-108488690D01*
X234479404Y-108488690D01*
X233527023Y-108679166D02*
X233050833Y-108679166D01*
X233622261Y-108964880D02*
X233288928Y-107964880D01*
X232955595Y-108964880D01*
X232050833Y-108869642D02*
X232098452Y-108917261D01*
X232241309Y-108964880D01*
X232336547Y-108964880D01*
X232479404Y-108917261D01*
X232574642Y-108822023D01*
X232622261Y-108726785D01*
X232669880Y-108536309D01*
X232669880Y-108393452D01*
X232622261Y-108202976D01*
X232574642Y-108107738D01*
X232479404Y-108012500D01*
X232336547Y-107964880D01*
X232241309Y-107964880D01*
X232098452Y-108012500D01*
X232050833Y-108060119D01*
X231622261Y-108441071D02*
X231288928Y-108441071D01*
X231146071Y-108964880D02*
X231622261Y-108964880D01*
X231622261Y-107964880D01*
X231146071Y-107964880D01*
X230241309Y-107964880D02*
X230717500Y-107964880D01*
X230765119Y-108441071D01*
X230717500Y-108393452D01*
X230622261Y-108345833D01*
X230384166Y-108345833D01*
X230288928Y-108393452D01*
X230241309Y-108441071D01*
X230193690Y-108536309D01*
X230193690Y-108774404D01*
X230241309Y-108869642D01*
X230288928Y-108917261D01*
X230384166Y-108964880D01*
X230622261Y-108964880D01*
X230717500Y-108917261D01*
X230765119Y-108869642D01*
X182449047Y-170877380D02*
X182449047Y-169877380D01*
X181877619Y-170877380D02*
X182306190Y-170305952D01*
X181877619Y-169877380D02*
X182449047Y-170448809D01*
X181687142Y-170972619D02*
X180925238Y-170972619D01*
X180734761Y-170829761D02*
X180591904Y-170877380D01*
X180353809Y-170877380D01*
X180258571Y-170829761D01*
X180210952Y-170782142D01*
X180163333Y-170686904D01*
X180163333Y-170591666D01*
X180210952Y-170496428D01*
X180258571Y-170448809D01*
X180353809Y-170401190D01*
X180544285Y-170353571D01*
X180639523Y-170305952D01*
X180687142Y-170258333D01*
X180734761Y-170163095D01*
X180734761Y-170067857D01*
X180687142Y-169972619D01*
X180639523Y-169925000D01*
X180544285Y-169877380D01*
X180306190Y-169877380D01*
X180163333Y-169925000D01*
X156231190Y-108964880D02*
X156231190Y-107964880D01*
X155659761Y-108964880D02*
X156088333Y-108393452D01*
X155659761Y-107964880D02*
X156231190Y-108536309D01*
X155469285Y-109060119D02*
X154707380Y-109060119D01*
X154516904Y-108917261D02*
X154374047Y-108964880D01*
X154135952Y-108964880D01*
X154040714Y-108917261D01*
X153993095Y-108869642D01*
X153945476Y-108774404D01*
X153945476Y-108679166D01*
X153993095Y-108583928D01*
X154040714Y-108536309D01*
X154135952Y-108488690D01*
X154326428Y-108441071D01*
X154421666Y-108393452D01*
X154469285Y-108345833D01*
X154516904Y-108250595D01*
X154516904Y-108155357D01*
X154469285Y-108060119D01*
X154421666Y-108012500D01*
X154326428Y-107964880D01*
X154088333Y-107964880D01*
X153945476Y-108012500D01*
X153516904Y-108964880D02*
X153516904Y-107964880D01*
X153135952Y-107964880D01*
X153040714Y-108012500D01*
X152993095Y-108060119D01*
X152945476Y-108155357D01*
X152945476Y-108298214D01*
X152993095Y-108393452D01*
X153040714Y-108441071D01*
X153135952Y-108488690D01*
X153516904Y-108488690D01*
X152564523Y-108679166D02*
X152088333Y-108679166D01*
X152659761Y-108964880D02*
X152326428Y-107964880D01*
X151993095Y-108964880D01*
X151088333Y-108869642D02*
X151135952Y-108917261D01*
X151278809Y-108964880D01*
X151374047Y-108964880D01*
X151516904Y-108917261D01*
X151612142Y-108822023D01*
X151659761Y-108726785D01*
X151707380Y-108536309D01*
X151707380Y-108393452D01*
X151659761Y-108202976D01*
X151612142Y-108107738D01*
X151516904Y-108012500D01*
X151374047Y-107964880D01*
X151278809Y-107964880D01*
X151135952Y-108012500D01*
X151088333Y-108060119D01*
X150659761Y-108441071D02*
X150326428Y-108441071D01*
X150183571Y-108964880D02*
X150659761Y-108964880D01*
X150659761Y-107964880D01*
X150183571Y-107964880D01*
X149231190Y-108964880D02*
X149802619Y-108964880D01*
X149516904Y-108964880D02*
X149516904Y-107964880D01*
X149612142Y-108107738D01*
X149707380Y-108202976D01*
X149802619Y-108250595D01*
X194331190Y-108964880D02*
X194331190Y-107964880D01*
X193759761Y-108964880D02*
X194188333Y-108393452D01*
X193759761Y-107964880D02*
X194331190Y-108536309D01*
X193569285Y-109060119D02*
X192807380Y-109060119D01*
X192616904Y-108917261D02*
X192474047Y-108964880D01*
X192235952Y-108964880D01*
X192140714Y-108917261D01*
X192093095Y-108869642D01*
X192045476Y-108774404D01*
X192045476Y-108679166D01*
X192093095Y-108583928D01*
X192140714Y-108536309D01*
X192235952Y-108488690D01*
X192426428Y-108441071D01*
X192521666Y-108393452D01*
X192569285Y-108345833D01*
X192616904Y-108250595D01*
X192616904Y-108155357D01*
X192569285Y-108060119D01*
X192521666Y-108012500D01*
X192426428Y-107964880D01*
X192188333Y-107964880D01*
X192045476Y-108012500D01*
X191616904Y-108964880D02*
X191616904Y-107964880D01*
X191235952Y-107964880D01*
X191140714Y-108012500D01*
X191093095Y-108060119D01*
X191045476Y-108155357D01*
X191045476Y-108298214D01*
X191093095Y-108393452D01*
X191140714Y-108441071D01*
X191235952Y-108488690D01*
X191616904Y-108488690D01*
X190664523Y-108679166D02*
X190188333Y-108679166D01*
X190759761Y-108964880D02*
X190426428Y-107964880D01*
X190093095Y-108964880D01*
X189188333Y-108869642D02*
X189235952Y-108917261D01*
X189378809Y-108964880D01*
X189474047Y-108964880D01*
X189616904Y-108917261D01*
X189712142Y-108822023D01*
X189759761Y-108726785D01*
X189807380Y-108536309D01*
X189807380Y-108393452D01*
X189759761Y-108202976D01*
X189712142Y-108107738D01*
X189616904Y-108012500D01*
X189474047Y-107964880D01*
X189378809Y-107964880D01*
X189235952Y-108012500D01*
X189188333Y-108060119D01*
X188759761Y-108441071D02*
X188426428Y-108441071D01*
X188283571Y-108964880D02*
X188759761Y-108964880D01*
X188759761Y-107964880D01*
X188283571Y-107964880D01*
X187950238Y-107964880D02*
X187331190Y-107964880D01*
X187664523Y-108345833D01*
X187521666Y-108345833D01*
X187426428Y-108393452D01*
X187378809Y-108441071D01*
X187331190Y-108536309D01*
X187331190Y-108774404D01*
X187378809Y-108869642D01*
X187426428Y-108917261D01*
X187521666Y-108964880D01*
X187807380Y-108964880D01*
X187902619Y-108917261D01*
X187950238Y-108869642D01*
X370162738Y-151827380D02*
X370162738Y-150827380D01*
X369591309Y-151827380D02*
X370019880Y-151255952D01*
X369591309Y-150827380D02*
X370162738Y-151398809D01*
X369400833Y-151922619D02*
X368638928Y-151922619D01*
X368210357Y-150827380D02*
X368019880Y-150827380D01*
X367924642Y-150875000D01*
X367829404Y-150970238D01*
X367781785Y-151160714D01*
X367781785Y-151494047D01*
X367829404Y-151684523D01*
X367924642Y-151779761D01*
X368019880Y-151827380D01*
X368210357Y-151827380D01*
X368305595Y-151779761D01*
X368400833Y-151684523D01*
X368448452Y-151494047D01*
X368448452Y-151160714D01*
X368400833Y-150970238D01*
X368305595Y-150875000D01*
X368210357Y-150827380D01*
X367019880Y-151303571D02*
X366877023Y-151351190D01*
X366829404Y-151398809D01*
X366781785Y-151494047D01*
X366781785Y-151636904D01*
X366829404Y-151732142D01*
X366877023Y-151779761D01*
X366972261Y-151827380D01*
X367353214Y-151827380D01*
X367353214Y-150827380D01*
X367019880Y-150827380D01*
X366924642Y-150875000D01*
X366877023Y-150922619D01*
X366829404Y-151017857D01*
X366829404Y-151113095D01*
X366877023Y-151208333D01*
X366924642Y-151255952D01*
X367019880Y-151303571D01*
X367353214Y-151303571D01*
X365781785Y-151827380D02*
X366115119Y-151351190D01*
X366353214Y-151827380D02*
X366353214Y-150827380D01*
X365972261Y-150827380D01*
X365877023Y-150875000D01*
X365829404Y-150922619D01*
X365781785Y-151017857D01*
X365781785Y-151160714D01*
X365829404Y-151255952D01*
X365877023Y-151303571D01*
X365972261Y-151351190D01*
X366353214Y-151351190D01*
X365400833Y-151541666D02*
X364924642Y-151541666D01*
X365496071Y-151827380D02*
X365162738Y-150827380D01*
X364829404Y-151827380D01*
X363924642Y-151732142D02*
X363972261Y-151779761D01*
X364115119Y-151827380D01*
X364210357Y-151827380D01*
X364353214Y-151779761D01*
X364448452Y-151684523D01*
X364496071Y-151589285D01*
X364543690Y-151398809D01*
X364543690Y-151255952D01*
X364496071Y-151065476D01*
X364448452Y-150970238D01*
X364353214Y-150875000D01*
X364210357Y-150827380D01*
X364115119Y-150827380D01*
X363972261Y-150875000D01*
X363924642Y-150922619D01*
X168161547Y-132777380D02*
X168161547Y-131777380D01*
X167590119Y-132777380D02*
X168018690Y-132205952D01*
X167590119Y-131777380D02*
X168161547Y-132348809D01*
X167399642Y-132872619D02*
X166637738Y-132872619D01*
X166447261Y-131872619D02*
X166399642Y-131825000D01*
X166304404Y-131777380D01*
X166066309Y-131777380D01*
X165971071Y-131825000D01*
X165923452Y-131872619D01*
X165875833Y-131967857D01*
X165875833Y-132063095D01*
X165923452Y-132205952D01*
X166494880Y-132777380D01*
X165875833Y-132777380D01*
X191974047Y-189927380D02*
X191974047Y-188927380D01*
X191402619Y-189927380D02*
X191831190Y-189355952D01*
X191402619Y-188927380D02*
X191974047Y-189498809D01*
X191212142Y-190022619D02*
X190450238Y-190022619D01*
X190307380Y-188927380D02*
X189640714Y-189927380D01*
X189640714Y-188927380D02*
X190307380Y-189927380D01*
X187211547Y-132777380D02*
X187211547Y-131777380D01*
X186640119Y-132777380D02*
X187068690Y-132205952D01*
X186640119Y-131777380D02*
X187211547Y-132348809D01*
X186449642Y-132872619D02*
X185687738Y-132872619D01*
X185544880Y-131777380D02*
X184925833Y-131777380D01*
X185259166Y-132158333D01*
X185116309Y-132158333D01*
X185021071Y-132205952D01*
X184973452Y-132253571D01*
X184925833Y-132348809D01*
X184925833Y-132586904D01*
X184973452Y-132682142D01*
X185021071Y-132729761D01*
X185116309Y-132777380D01*
X185402023Y-132777380D01*
X185497261Y-132729761D01*
X185544880Y-132682142D01*
X157112440Y-208977380D02*
X157112440Y-207977380D01*
X156541011Y-208977380D02*
X156969583Y-208405952D01*
X156541011Y-207977380D02*
X157112440Y-208548809D01*
X156350535Y-209072619D02*
X155588630Y-209072619D01*
X155445773Y-207977380D02*
X155207678Y-208977380D01*
X155017202Y-208263095D01*
X154826726Y-208977380D01*
X154588630Y-207977380D01*
X154207678Y-208977380D02*
X154207678Y-207977380D01*
X153731488Y-208977380D02*
X153731488Y-207977380D01*
X153160059Y-208977380D01*
X153160059Y-207977380D01*
X180805892Y-208977380D02*
X180805892Y-207977380D01*
X180234464Y-208977380D02*
X180663035Y-208405952D01*
X180234464Y-207977380D02*
X180805892Y-208548809D01*
X180043988Y-209072619D02*
X179282083Y-209072619D01*
X179091607Y-208691666D02*
X178615416Y-208691666D01*
X179186845Y-208977380D02*
X178853511Y-207977380D01*
X178520178Y-208977380D01*
X177710654Y-208977380D02*
X178186845Y-208977380D01*
X178186845Y-207977380D01*
X177520178Y-207977380D02*
X176948750Y-207977380D01*
X177234464Y-208977380D02*
X177234464Y-207977380D01*
X409119880Y-189927380D02*
X409119880Y-188927380D01*
X408548452Y-189927380D02*
X408977023Y-189355952D01*
X408548452Y-188927380D02*
X409119880Y-189498809D01*
X408357976Y-190022619D02*
X407596071Y-190022619D01*
X407405595Y-189879761D02*
X407262738Y-189927380D01*
X407024642Y-189927380D01*
X406929404Y-189879761D01*
X406881785Y-189832142D01*
X406834166Y-189736904D01*
X406834166Y-189641666D01*
X406881785Y-189546428D01*
X406929404Y-189498809D01*
X407024642Y-189451190D01*
X407215119Y-189403571D01*
X407310357Y-189355952D01*
X407357976Y-189308333D01*
X407405595Y-189213095D01*
X407405595Y-189117857D01*
X407357976Y-189022619D01*
X407310357Y-188975000D01*
X407215119Y-188927380D01*
X406977023Y-188927380D01*
X406834166Y-188975000D01*
X406405595Y-189927380D02*
X406405595Y-188927380D01*
X406024642Y-188927380D01*
X405929404Y-188975000D01*
X405881785Y-189022619D01*
X405834166Y-189117857D01*
X405834166Y-189260714D01*
X405881785Y-189355952D01*
X405929404Y-189403571D01*
X406024642Y-189451190D01*
X406405595Y-189451190D01*
X405453214Y-189641666D02*
X404977023Y-189641666D01*
X405548452Y-189927380D02*
X405215119Y-188927380D01*
X404881785Y-189927380D01*
X403977023Y-189832142D02*
X404024642Y-189879761D01*
X404167500Y-189927380D01*
X404262738Y-189927380D01*
X404405595Y-189879761D01*
X404500833Y-189784523D01*
X404548452Y-189689285D01*
X404596071Y-189498809D01*
X404596071Y-189355952D01*
X404548452Y-189165476D01*
X404500833Y-189070238D01*
X404405595Y-188975000D01*
X404262738Y-188927380D01*
X404167500Y-188927380D01*
X404024642Y-188975000D01*
X403977023Y-189022619D01*
X403548452Y-189403571D02*
X403215119Y-189403571D01*
X403072261Y-189927380D02*
X403548452Y-189927380D01*
X403548452Y-188927380D01*
X403072261Y-188927380D01*
X402119880Y-189927380D02*
X402691309Y-189927380D01*
X402405595Y-189927380D02*
X402405595Y-188927380D01*
X402500833Y-189070238D01*
X402596071Y-189165476D01*
X402691309Y-189213095D01*
X401786547Y-188927380D02*
X401119880Y-188927380D01*
X401548452Y-189927380D01*
X377377916Y-189927380D02*
X377377916Y-188927380D01*
X376806488Y-189927380D02*
X377235059Y-189355952D01*
X376806488Y-188927380D02*
X377377916Y-189498809D01*
X376616011Y-190022619D02*
X375854107Y-190022619D01*
X375663630Y-189879761D02*
X375520773Y-189927380D01*
X375282678Y-189927380D01*
X375187440Y-189879761D01*
X375139821Y-189832142D01*
X375092202Y-189736904D01*
X375092202Y-189641666D01*
X375139821Y-189546428D01*
X375187440Y-189498809D01*
X375282678Y-189451190D01*
X375473154Y-189403571D01*
X375568392Y-189355952D01*
X375616011Y-189308333D01*
X375663630Y-189213095D01*
X375663630Y-189117857D01*
X375616011Y-189022619D01*
X375568392Y-188975000D01*
X375473154Y-188927380D01*
X375235059Y-188927380D01*
X375092202Y-188975000D01*
X374663630Y-189927380D02*
X374663630Y-188927380D01*
X374663630Y-189403571D02*
X374092202Y-189403571D01*
X374092202Y-189927380D02*
X374092202Y-188927380D01*
X373616011Y-189927380D02*
X373616011Y-188927380D01*
X372806488Y-189403571D02*
X373139821Y-189403571D01*
X373139821Y-189927380D02*
X373139821Y-188927380D01*
X372663630Y-188927380D01*
X372425535Y-188927380D02*
X371854107Y-188927380D01*
X372139821Y-189927380D02*
X372139821Y-188927380D01*
X370996964Y-189927380D02*
X371568392Y-189927380D01*
X371282678Y-189927380D02*
X371282678Y-188927380D01*
X371377916Y-189070238D01*
X371473154Y-189165476D01*
X371568392Y-189213095D01*
X135657380Y-151827380D02*
X135657380Y-150827380D01*
X135085952Y-151827380D02*
X135514523Y-151255952D01*
X135085952Y-150827380D02*
X135657380Y-151398809D01*
X134895476Y-151922619D02*
X134133571Y-151922619D01*
X134038333Y-150827380D02*
X133466904Y-150827380D01*
X133752619Y-151827380D02*
X133752619Y-150827380D01*
X133181190Y-151541666D02*
X132705000Y-151541666D01*
X133276428Y-151827380D02*
X132943095Y-150827380D01*
X132609761Y-151827380D01*
X131943095Y-151303571D02*
X131800238Y-151351190D01*
X131752619Y-151398809D01*
X131705000Y-151494047D01*
X131705000Y-151636904D01*
X131752619Y-151732142D01*
X131800238Y-151779761D01*
X131895476Y-151827380D01*
X132276428Y-151827380D01*
X132276428Y-150827380D01*
X131943095Y-150827380D01*
X131847857Y-150875000D01*
X131800238Y-150922619D01*
X131752619Y-151017857D01*
X131752619Y-151113095D01*
X131800238Y-151208333D01*
X131847857Y-151255952D01*
X131943095Y-151303571D01*
X132276428Y-151303571D01*
X225311547Y-132777380D02*
X225311547Y-131777380D01*
X224740119Y-132777380D02*
X225168690Y-132205952D01*
X224740119Y-131777380D02*
X225311547Y-132348809D01*
X224549642Y-132872619D02*
X223787738Y-132872619D01*
X223073452Y-131777380D02*
X223549642Y-131777380D01*
X223597261Y-132253571D01*
X223549642Y-132205952D01*
X223454404Y-132158333D01*
X223216309Y-132158333D01*
X223121071Y-132205952D01*
X223073452Y-132253571D01*
X223025833Y-132348809D01*
X223025833Y-132586904D01*
X223073452Y-132682142D01*
X223121071Y-132729761D01*
X223216309Y-132777380D01*
X223454404Y-132777380D01*
X223549642Y-132729761D01*
X223597261Y-132682142D01*
X425312380Y-147064880D02*
X425312380Y-146064880D01*
X424740952Y-147064880D02*
X425169523Y-146493452D01*
X424740952Y-146064880D02*
X425312380Y-146636309D01*
X424550476Y-147160119D02*
X423788571Y-147160119D01*
X423598095Y-147017261D02*
X423455238Y-147064880D01*
X423217142Y-147064880D01*
X423121904Y-147017261D01*
X423074285Y-146969642D01*
X423026666Y-146874404D01*
X423026666Y-146779166D01*
X423074285Y-146683928D01*
X423121904Y-146636309D01*
X423217142Y-146588690D01*
X423407619Y-146541071D01*
X423502857Y-146493452D01*
X423550476Y-146445833D01*
X423598095Y-146350595D01*
X423598095Y-146255357D01*
X423550476Y-146160119D01*
X423502857Y-146112500D01*
X423407619Y-146064880D01*
X423169523Y-146064880D01*
X423026666Y-146112500D01*
X422598095Y-147064880D02*
X422598095Y-146064880D01*
X422217142Y-146064880D01*
X422121904Y-146112500D01*
X422074285Y-146160119D01*
X422026666Y-146255357D01*
X422026666Y-146398214D01*
X422074285Y-146493452D01*
X422121904Y-146541071D01*
X422217142Y-146588690D01*
X422598095Y-146588690D01*
X421645714Y-146779166D02*
X421169523Y-146779166D01*
X421740952Y-147064880D02*
X421407619Y-146064880D01*
X421074285Y-147064880D01*
X420169523Y-146969642D02*
X420217142Y-147017261D01*
X420360000Y-147064880D01*
X420455238Y-147064880D01*
X420598095Y-147017261D01*
X420693333Y-146922023D01*
X420740952Y-146826785D01*
X420788571Y-146636309D01*
X420788571Y-146493452D01*
X420740952Y-146302976D01*
X420693333Y-146207738D01*
X420598095Y-146112500D01*
X420455238Y-146064880D01*
X420360000Y-146064880D01*
X420217142Y-146112500D01*
X420169523Y-146160119D01*
X419740952Y-146541071D02*
X419407619Y-146541071D01*
X419264761Y-147064880D02*
X419740952Y-147064880D01*
X419740952Y-146064880D01*
X419264761Y-146064880D01*
X418312380Y-147064880D02*
X418883809Y-147064880D01*
X418598095Y-147064880D02*
X418598095Y-146064880D01*
X418693333Y-146207738D01*
X418788571Y-146302976D01*
X418883809Y-146350595D01*
X417407619Y-146064880D02*
X417883809Y-146064880D01*
X417931428Y-146541071D01*
X417883809Y-146493452D01*
X417788571Y-146445833D01*
X417550476Y-146445833D01*
X417455238Y-146493452D01*
X417407619Y-146541071D01*
X417360000Y-146636309D01*
X417360000Y-146874404D01*
X417407619Y-146969642D01*
X417455238Y-147017261D01*
X417550476Y-147064880D01*
X417788571Y-147064880D01*
X417883809Y-147017261D01*
X417931428Y-146969642D01*
X256243690Y-108964880D02*
X256243690Y-107964880D01*
X255672261Y-108964880D02*
X256100833Y-108393452D01*
X255672261Y-107964880D02*
X256243690Y-108536309D01*
X255481785Y-109060119D02*
X254719880Y-109060119D01*
X254529404Y-108917261D02*
X254386547Y-108964880D01*
X254148452Y-108964880D01*
X254053214Y-108917261D01*
X254005595Y-108869642D01*
X253957976Y-108774404D01*
X253957976Y-108679166D01*
X254005595Y-108583928D01*
X254053214Y-108536309D01*
X254148452Y-108488690D01*
X254338928Y-108441071D01*
X254434166Y-108393452D01*
X254481785Y-108345833D01*
X254529404Y-108250595D01*
X254529404Y-108155357D01*
X254481785Y-108060119D01*
X254434166Y-108012500D01*
X254338928Y-107964880D01*
X254100833Y-107964880D01*
X253957976Y-108012500D01*
X253529404Y-108964880D02*
X253529404Y-107964880D01*
X253148452Y-107964880D01*
X253053214Y-108012500D01*
X253005595Y-108060119D01*
X252957976Y-108155357D01*
X252957976Y-108298214D01*
X253005595Y-108393452D01*
X253053214Y-108441071D01*
X253148452Y-108488690D01*
X253529404Y-108488690D01*
X252577023Y-108679166D02*
X252100833Y-108679166D01*
X252672261Y-108964880D02*
X252338928Y-107964880D01*
X252005595Y-108964880D01*
X251100833Y-108869642D02*
X251148452Y-108917261D01*
X251291309Y-108964880D01*
X251386547Y-108964880D01*
X251529404Y-108917261D01*
X251624642Y-108822023D01*
X251672261Y-108726785D01*
X251719880Y-108536309D01*
X251719880Y-108393452D01*
X251672261Y-108202976D01*
X251624642Y-108107738D01*
X251529404Y-108012500D01*
X251386547Y-107964880D01*
X251291309Y-107964880D01*
X251148452Y-108012500D01*
X251100833Y-108060119D01*
X250672261Y-108441071D02*
X250338928Y-108441071D01*
X250196071Y-108964880D02*
X250672261Y-108964880D01*
X250672261Y-107964880D01*
X250196071Y-107964880D01*
X249338928Y-107964880D02*
X249529404Y-107964880D01*
X249624642Y-108012500D01*
X249672261Y-108060119D01*
X249767500Y-108202976D01*
X249815119Y-108393452D01*
X249815119Y-108774404D01*
X249767500Y-108869642D01*
X249719880Y-108917261D01*
X249624642Y-108964880D01*
X249434166Y-108964880D01*
X249338928Y-108917261D01*
X249291309Y-108869642D01*
X249243690Y-108774404D01*
X249243690Y-108536309D01*
X249291309Y-108441071D01*
X249338928Y-108393452D01*
X249434166Y-108345833D01*
X249624642Y-108345833D01*
X249719880Y-108393452D01*
X249767500Y-108441071D01*
X249815119Y-108536309D01*
X211047857Y-189927380D02*
X211047857Y-188927380D01*
X210476428Y-189927380D02*
X210905000Y-189355952D01*
X210476428Y-188927380D02*
X211047857Y-189498809D01*
X210285952Y-190022619D02*
X209524047Y-190022619D01*
X208714523Y-189832142D02*
X208762142Y-189879761D01*
X208905000Y-189927380D01*
X209000238Y-189927380D01*
X209143095Y-189879761D01*
X209238333Y-189784523D01*
X209285952Y-189689285D01*
X209333571Y-189498809D01*
X209333571Y-189355952D01*
X209285952Y-189165476D01*
X209238333Y-189070238D01*
X209143095Y-188975000D01*
X209000238Y-188927380D01*
X208905000Y-188927380D01*
X208762142Y-188975000D01*
X208714523Y-189022619D01*
X425312380Y-108964880D02*
X425312380Y-107964880D01*
X424740952Y-108964880D02*
X425169523Y-108393452D01*
X424740952Y-107964880D02*
X425312380Y-108536309D01*
X424550476Y-109060119D02*
X423788571Y-109060119D01*
X423598095Y-108917261D02*
X423455238Y-108964880D01*
X423217142Y-108964880D01*
X423121904Y-108917261D01*
X423074285Y-108869642D01*
X423026666Y-108774404D01*
X423026666Y-108679166D01*
X423074285Y-108583928D01*
X423121904Y-108536309D01*
X423217142Y-108488690D01*
X423407619Y-108441071D01*
X423502857Y-108393452D01*
X423550476Y-108345833D01*
X423598095Y-108250595D01*
X423598095Y-108155357D01*
X423550476Y-108060119D01*
X423502857Y-108012500D01*
X423407619Y-107964880D01*
X423169523Y-107964880D01*
X423026666Y-108012500D01*
X422598095Y-108964880D02*
X422598095Y-107964880D01*
X422217142Y-107964880D01*
X422121904Y-108012500D01*
X422074285Y-108060119D01*
X422026666Y-108155357D01*
X422026666Y-108298214D01*
X422074285Y-108393452D01*
X422121904Y-108441071D01*
X422217142Y-108488690D01*
X422598095Y-108488690D01*
X421645714Y-108679166D02*
X421169523Y-108679166D01*
X421740952Y-108964880D02*
X421407619Y-107964880D01*
X421074285Y-108964880D01*
X420169523Y-108869642D02*
X420217142Y-108917261D01*
X420360000Y-108964880D01*
X420455238Y-108964880D01*
X420598095Y-108917261D01*
X420693333Y-108822023D01*
X420740952Y-108726785D01*
X420788571Y-108536309D01*
X420788571Y-108393452D01*
X420740952Y-108202976D01*
X420693333Y-108107738D01*
X420598095Y-108012500D01*
X420455238Y-107964880D01*
X420360000Y-107964880D01*
X420217142Y-108012500D01*
X420169523Y-108060119D01*
X419740952Y-108441071D02*
X419407619Y-108441071D01*
X419264761Y-108964880D02*
X419740952Y-108964880D01*
X419740952Y-107964880D01*
X419264761Y-107964880D01*
X418312380Y-108964880D02*
X418883809Y-108964880D01*
X418598095Y-108964880D02*
X418598095Y-107964880D01*
X418693333Y-108107738D01*
X418788571Y-108202976D01*
X418883809Y-108250595D01*
X417979047Y-107964880D02*
X417360000Y-107964880D01*
X417693333Y-108345833D01*
X417550476Y-108345833D01*
X417455238Y-108393452D01*
X417407619Y-108441071D01*
X417360000Y-108536309D01*
X417360000Y-108774404D01*
X417407619Y-108869642D01*
X417455238Y-108917261D01*
X417550476Y-108964880D01*
X417836190Y-108964880D01*
X417931428Y-108917261D01*
X417979047Y-108869642D01*
X425312380Y-166114880D02*
X425312380Y-165114880D01*
X424740952Y-166114880D02*
X425169523Y-165543452D01*
X424740952Y-165114880D02*
X425312380Y-165686309D01*
X424550476Y-166210119D02*
X423788571Y-166210119D01*
X423598095Y-166067261D02*
X423455238Y-166114880D01*
X423217142Y-166114880D01*
X423121904Y-166067261D01*
X423074285Y-166019642D01*
X423026666Y-165924404D01*
X423026666Y-165829166D01*
X423074285Y-165733928D01*
X423121904Y-165686309D01*
X423217142Y-165638690D01*
X423407619Y-165591071D01*
X423502857Y-165543452D01*
X423550476Y-165495833D01*
X423598095Y-165400595D01*
X423598095Y-165305357D01*
X423550476Y-165210119D01*
X423502857Y-165162500D01*
X423407619Y-165114880D01*
X423169523Y-165114880D01*
X423026666Y-165162500D01*
X422598095Y-166114880D02*
X422598095Y-165114880D01*
X422217142Y-165114880D01*
X422121904Y-165162500D01*
X422074285Y-165210119D01*
X422026666Y-165305357D01*
X422026666Y-165448214D01*
X422074285Y-165543452D01*
X422121904Y-165591071D01*
X422217142Y-165638690D01*
X422598095Y-165638690D01*
X421645714Y-165829166D02*
X421169523Y-165829166D01*
X421740952Y-166114880D02*
X421407619Y-165114880D01*
X421074285Y-166114880D01*
X420169523Y-166019642D02*
X420217142Y-166067261D01*
X420360000Y-166114880D01*
X420455238Y-166114880D01*
X420598095Y-166067261D01*
X420693333Y-165972023D01*
X420740952Y-165876785D01*
X420788571Y-165686309D01*
X420788571Y-165543452D01*
X420740952Y-165352976D01*
X420693333Y-165257738D01*
X420598095Y-165162500D01*
X420455238Y-165114880D01*
X420360000Y-165114880D01*
X420217142Y-165162500D01*
X420169523Y-165210119D01*
X419740952Y-165591071D02*
X419407619Y-165591071D01*
X419264761Y-166114880D02*
X419740952Y-166114880D01*
X419740952Y-165114880D01*
X419264761Y-165114880D01*
X418312380Y-166114880D02*
X418883809Y-166114880D01*
X418598095Y-166114880D02*
X418598095Y-165114880D01*
X418693333Y-165257738D01*
X418788571Y-165352976D01*
X418883809Y-165400595D01*
X417455238Y-165114880D02*
X417645714Y-165114880D01*
X417740952Y-165162500D01*
X417788571Y-165210119D01*
X417883809Y-165352976D01*
X417931428Y-165543452D01*
X417931428Y-165924404D01*
X417883809Y-166019642D01*
X417836190Y-166067261D01*
X417740952Y-166114880D01*
X417550476Y-166114880D01*
X417455238Y-166067261D01*
X417407619Y-166019642D01*
X417360000Y-165924404D01*
X417360000Y-165686309D01*
X417407619Y-165591071D01*
X417455238Y-165543452D01*
X417550476Y-165495833D01*
X417740952Y-165495833D01*
X417836190Y-165543452D01*
X417883809Y-165591071D01*
X417931428Y-165686309D01*
X175281190Y-108964880D02*
X175281190Y-107964880D01*
X174709761Y-108964880D02*
X175138333Y-108393452D01*
X174709761Y-107964880D02*
X175281190Y-108536309D01*
X174519285Y-109060119D02*
X173757380Y-109060119D01*
X173566904Y-108917261D02*
X173424047Y-108964880D01*
X173185952Y-108964880D01*
X173090714Y-108917261D01*
X173043095Y-108869642D01*
X172995476Y-108774404D01*
X172995476Y-108679166D01*
X173043095Y-108583928D01*
X173090714Y-108536309D01*
X173185952Y-108488690D01*
X173376428Y-108441071D01*
X173471666Y-108393452D01*
X173519285Y-108345833D01*
X173566904Y-108250595D01*
X173566904Y-108155357D01*
X173519285Y-108060119D01*
X173471666Y-108012500D01*
X173376428Y-107964880D01*
X173138333Y-107964880D01*
X172995476Y-108012500D01*
X172566904Y-108964880D02*
X172566904Y-107964880D01*
X172185952Y-107964880D01*
X172090714Y-108012500D01*
X172043095Y-108060119D01*
X171995476Y-108155357D01*
X171995476Y-108298214D01*
X172043095Y-108393452D01*
X172090714Y-108441071D01*
X172185952Y-108488690D01*
X172566904Y-108488690D01*
X171614523Y-108679166D02*
X171138333Y-108679166D01*
X171709761Y-108964880D02*
X171376428Y-107964880D01*
X171043095Y-108964880D01*
X170138333Y-108869642D02*
X170185952Y-108917261D01*
X170328809Y-108964880D01*
X170424047Y-108964880D01*
X170566904Y-108917261D01*
X170662142Y-108822023D01*
X170709761Y-108726785D01*
X170757380Y-108536309D01*
X170757380Y-108393452D01*
X170709761Y-108202976D01*
X170662142Y-108107738D01*
X170566904Y-108012500D01*
X170424047Y-107964880D01*
X170328809Y-107964880D01*
X170185952Y-108012500D01*
X170138333Y-108060119D01*
X169709761Y-108441071D02*
X169376428Y-108441071D01*
X169233571Y-108964880D02*
X169709761Y-108964880D01*
X169709761Y-107964880D01*
X169233571Y-107964880D01*
X168852619Y-108060119D02*
X168805000Y-108012500D01*
X168709761Y-107964880D01*
X168471666Y-107964880D01*
X168376428Y-108012500D01*
X168328809Y-108060119D01*
X168281190Y-108155357D01*
X168281190Y-108250595D01*
X168328809Y-108393452D01*
X168900238Y-108964880D01*
X168281190Y-108964880D01*
X318156190Y-108964880D02*
X318156190Y-107964880D01*
X317584761Y-108964880D02*
X318013333Y-108393452D01*
X317584761Y-107964880D02*
X318156190Y-108536309D01*
X317394285Y-109060119D02*
X316632380Y-109060119D01*
X316441904Y-108917261D02*
X316299047Y-108964880D01*
X316060952Y-108964880D01*
X315965714Y-108917261D01*
X315918095Y-108869642D01*
X315870476Y-108774404D01*
X315870476Y-108679166D01*
X315918095Y-108583928D01*
X315965714Y-108536309D01*
X316060952Y-108488690D01*
X316251428Y-108441071D01*
X316346666Y-108393452D01*
X316394285Y-108345833D01*
X316441904Y-108250595D01*
X316441904Y-108155357D01*
X316394285Y-108060119D01*
X316346666Y-108012500D01*
X316251428Y-107964880D01*
X316013333Y-107964880D01*
X315870476Y-108012500D01*
X315441904Y-108964880D02*
X315441904Y-107964880D01*
X315060952Y-107964880D01*
X314965714Y-108012500D01*
X314918095Y-108060119D01*
X314870476Y-108155357D01*
X314870476Y-108298214D01*
X314918095Y-108393452D01*
X314965714Y-108441071D01*
X315060952Y-108488690D01*
X315441904Y-108488690D01*
X314489523Y-108679166D02*
X314013333Y-108679166D01*
X314584761Y-108964880D02*
X314251428Y-107964880D01*
X313918095Y-108964880D01*
X313013333Y-108869642D02*
X313060952Y-108917261D01*
X313203809Y-108964880D01*
X313299047Y-108964880D01*
X313441904Y-108917261D01*
X313537142Y-108822023D01*
X313584761Y-108726785D01*
X313632380Y-108536309D01*
X313632380Y-108393452D01*
X313584761Y-108202976D01*
X313537142Y-108107738D01*
X313441904Y-108012500D01*
X313299047Y-107964880D01*
X313203809Y-107964880D01*
X313060952Y-108012500D01*
X313013333Y-108060119D01*
X312584761Y-108441071D02*
X312251428Y-108441071D01*
X312108571Y-108964880D02*
X312584761Y-108964880D01*
X312584761Y-107964880D01*
X312108571Y-107964880D01*
X311632380Y-108964880D02*
X311441904Y-108964880D01*
X311346666Y-108917261D01*
X311299047Y-108869642D01*
X311203809Y-108726785D01*
X311156190Y-108536309D01*
X311156190Y-108155357D01*
X311203809Y-108060119D01*
X311251428Y-108012500D01*
X311346666Y-107964880D01*
X311537142Y-107964880D01*
X311632380Y-108012500D01*
X311680000Y-108060119D01*
X311727619Y-108155357D01*
X311727619Y-108393452D01*
X311680000Y-108488690D01*
X311632380Y-108536309D01*
X311537142Y-108583928D01*
X311346666Y-108583928D01*
X311251428Y-108536309D01*
X311203809Y-108488690D01*
X311156190Y-108393452D01*
X356732380Y-108964880D02*
X356732380Y-107964880D01*
X356160952Y-108964880D02*
X356589523Y-108393452D01*
X356160952Y-107964880D02*
X356732380Y-108536309D01*
X355970476Y-109060119D02*
X355208571Y-109060119D01*
X355018095Y-108917261D02*
X354875238Y-108964880D01*
X354637142Y-108964880D01*
X354541904Y-108917261D01*
X354494285Y-108869642D01*
X354446666Y-108774404D01*
X354446666Y-108679166D01*
X354494285Y-108583928D01*
X354541904Y-108536309D01*
X354637142Y-108488690D01*
X354827619Y-108441071D01*
X354922857Y-108393452D01*
X354970476Y-108345833D01*
X355018095Y-108250595D01*
X355018095Y-108155357D01*
X354970476Y-108060119D01*
X354922857Y-108012500D01*
X354827619Y-107964880D01*
X354589523Y-107964880D01*
X354446666Y-108012500D01*
X354018095Y-108964880D02*
X354018095Y-107964880D01*
X353637142Y-107964880D01*
X353541904Y-108012500D01*
X353494285Y-108060119D01*
X353446666Y-108155357D01*
X353446666Y-108298214D01*
X353494285Y-108393452D01*
X353541904Y-108441071D01*
X353637142Y-108488690D01*
X354018095Y-108488690D01*
X353065714Y-108679166D02*
X352589523Y-108679166D01*
X353160952Y-108964880D02*
X352827619Y-107964880D01*
X352494285Y-108964880D01*
X351589523Y-108869642D02*
X351637142Y-108917261D01*
X351780000Y-108964880D01*
X351875238Y-108964880D01*
X352018095Y-108917261D01*
X352113333Y-108822023D01*
X352160952Y-108726785D01*
X352208571Y-108536309D01*
X352208571Y-108393452D01*
X352160952Y-108202976D01*
X352113333Y-108107738D01*
X352018095Y-108012500D01*
X351875238Y-107964880D01*
X351780000Y-107964880D01*
X351637142Y-108012500D01*
X351589523Y-108060119D01*
X351160952Y-108441071D02*
X350827619Y-108441071D01*
X350684761Y-108964880D02*
X351160952Y-108964880D01*
X351160952Y-107964880D01*
X350684761Y-107964880D01*
X349732380Y-108964880D02*
X350303809Y-108964880D01*
X350018095Y-108964880D02*
X350018095Y-107964880D01*
X350113333Y-108107738D01*
X350208571Y-108202976D01*
X350303809Y-108250595D01*
X348780000Y-108964880D02*
X349351428Y-108964880D01*
X349065714Y-108964880D02*
X349065714Y-107964880D01*
X349160952Y-108107738D01*
X349256190Y-108202976D01*
X349351428Y-108250595D01*
X425312380Y-128014880D02*
X425312380Y-127014880D01*
X424740952Y-128014880D02*
X425169523Y-127443452D01*
X424740952Y-127014880D02*
X425312380Y-127586309D01*
X424550476Y-128110119D02*
X423788571Y-128110119D01*
X423598095Y-127967261D02*
X423455238Y-128014880D01*
X423217142Y-128014880D01*
X423121904Y-127967261D01*
X423074285Y-127919642D01*
X423026666Y-127824404D01*
X423026666Y-127729166D01*
X423074285Y-127633928D01*
X423121904Y-127586309D01*
X423217142Y-127538690D01*
X423407619Y-127491071D01*
X423502857Y-127443452D01*
X423550476Y-127395833D01*
X423598095Y-127300595D01*
X423598095Y-127205357D01*
X423550476Y-127110119D01*
X423502857Y-127062500D01*
X423407619Y-127014880D01*
X423169523Y-127014880D01*
X423026666Y-127062500D01*
X422598095Y-128014880D02*
X422598095Y-127014880D01*
X422217142Y-127014880D01*
X422121904Y-127062500D01*
X422074285Y-127110119D01*
X422026666Y-127205357D01*
X422026666Y-127348214D01*
X422074285Y-127443452D01*
X422121904Y-127491071D01*
X422217142Y-127538690D01*
X422598095Y-127538690D01*
X421645714Y-127729166D02*
X421169523Y-127729166D01*
X421740952Y-128014880D02*
X421407619Y-127014880D01*
X421074285Y-128014880D01*
X420169523Y-127919642D02*
X420217142Y-127967261D01*
X420360000Y-128014880D01*
X420455238Y-128014880D01*
X420598095Y-127967261D01*
X420693333Y-127872023D01*
X420740952Y-127776785D01*
X420788571Y-127586309D01*
X420788571Y-127443452D01*
X420740952Y-127252976D01*
X420693333Y-127157738D01*
X420598095Y-127062500D01*
X420455238Y-127014880D01*
X420360000Y-127014880D01*
X420217142Y-127062500D01*
X420169523Y-127110119D01*
X419740952Y-127491071D02*
X419407619Y-127491071D01*
X419264761Y-128014880D02*
X419740952Y-128014880D01*
X419740952Y-127014880D01*
X419264761Y-127014880D01*
X418312380Y-128014880D02*
X418883809Y-128014880D01*
X418598095Y-128014880D02*
X418598095Y-127014880D01*
X418693333Y-127157738D01*
X418788571Y-127252976D01*
X418883809Y-127300595D01*
X417455238Y-127348214D02*
X417455238Y-128014880D01*
X417693333Y-126967261D02*
X417931428Y-127681547D01*
X417312380Y-127681547D01*
X428169880Y-208977380D02*
X428169880Y-207977380D01*
X427598452Y-208977380D02*
X428027023Y-208405952D01*
X427598452Y-207977380D02*
X428169880Y-208548809D01*
X427407976Y-209072619D02*
X426646071Y-209072619D01*
X426455595Y-208929761D02*
X426312738Y-208977380D01*
X426074642Y-208977380D01*
X425979404Y-208929761D01*
X425931785Y-208882142D01*
X425884166Y-208786904D01*
X425884166Y-208691666D01*
X425931785Y-208596428D01*
X425979404Y-208548809D01*
X426074642Y-208501190D01*
X426265119Y-208453571D01*
X426360357Y-208405952D01*
X426407976Y-208358333D01*
X426455595Y-208263095D01*
X426455595Y-208167857D01*
X426407976Y-208072619D01*
X426360357Y-208025000D01*
X426265119Y-207977380D01*
X426027023Y-207977380D01*
X425884166Y-208025000D01*
X425455595Y-208977380D02*
X425455595Y-207977380D01*
X425074642Y-207977380D01*
X424979404Y-208025000D01*
X424931785Y-208072619D01*
X424884166Y-208167857D01*
X424884166Y-208310714D01*
X424931785Y-208405952D01*
X424979404Y-208453571D01*
X425074642Y-208501190D01*
X425455595Y-208501190D01*
X424503214Y-208691666D02*
X424027023Y-208691666D01*
X424598452Y-208977380D02*
X424265119Y-207977380D01*
X423931785Y-208977380D01*
X423027023Y-208882142D02*
X423074642Y-208929761D01*
X423217500Y-208977380D01*
X423312738Y-208977380D01*
X423455595Y-208929761D01*
X423550833Y-208834523D01*
X423598452Y-208739285D01*
X423646071Y-208548809D01*
X423646071Y-208405952D01*
X423598452Y-208215476D01*
X423550833Y-208120238D01*
X423455595Y-208025000D01*
X423312738Y-207977380D01*
X423217500Y-207977380D01*
X423074642Y-208025000D01*
X423027023Y-208072619D01*
X422598452Y-208453571D02*
X422265119Y-208453571D01*
X422122261Y-208977380D02*
X422598452Y-208977380D01*
X422598452Y-207977380D01*
X422122261Y-207977380D01*
X421741309Y-208072619D02*
X421693690Y-208025000D01*
X421598452Y-207977380D01*
X421360357Y-207977380D01*
X421265119Y-208025000D01*
X421217500Y-208072619D01*
X421169880Y-208167857D01*
X421169880Y-208263095D01*
X421217500Y-208405952D01*
X421788928Y-208977380D01*
X421169880Y-208977380D01*
X420217500Y-208977380D02*
X420788928Y-208977380D01*
X420503214Y-208977380D02*
X420503214Y-207977380D01*
X420598452Y-208120238D01*
X420693690Y-208215476D01*
X420788928Y-208263095D01*
X263411547Y-132777380D02*
X263411547Y-131777380D01*
X262840119Y-132777380D02*
X263268690Y-132205952D01*
X262840119Y-131777380D02*
X263411547Y-132348809D01*
X262649642Y-132872619D02*
X261887738Y-132872619D01*
X261744880Y-131777380D02*
X261078214Y-131777380D01*
X261506785Y-132777380D01*
X294343690Y-108964880D02*
X294343690Y-107964880D01*
X293772261Y-108964880D02*
X294200833Y-108393452D01*
X293772261Y-107964880D02*
X294343690Y-108536309D01*
X293581785Y-109060119D02*
X292819880Y-109060119D01*
X292629404Y-108917261D02*
X292486547Y-108964880D01*
X292248452Y-108964880D01*
X292153214Y-108917261D01*
X292105595Y-108869642D01*
X292057976Y-108774404D01*
X292057976Y-108679166D01*
X292105595Y-108583928D01*
X292153214Y-108536309D01*
X292248452Y-108488690D01*
X292438928Y-108441071D01*
X292534166Y-108393452D01*
X292581785Y-108345833D01*
X292629404Y-108250595D01*
X292629404Y-108155357D01*
X292581785Y-108060119D01*
X292534166Y-108012500D01*
X292438928Y-107964880D01*
X292200833Y-107964880D01*
X292057976Y-108012500D01*
X291629404Y-108964880D02*
X291629404Y-107964880D01*
X291248452Y-107964880D01*
X291153214Y-108012500D01*
X291105595Y-108060119D01*
X291057976Y-108155357D01*
X291057976Y-108298214D01*
X291105595Y-108393452D01*
X291153214Y-108441071D01*
X291248452Y-108488690D01*
X291629404Y-108488690D01*
X290677023Y-108679166D02*
X290200833Y-108679166D01*
X290772261Y-108964880D02*
X290438928Y-107964880D01*
X290105595Y-108964880D01*
X289200833Y-108869642D02*
X289248452Y-108917261D01*
X289391309Y-108964880D01*
X289486547Y-108964880D01*
X289629404Y-108917261D01*
X289724642Y-108822023D01*
X289772261Y-108726785D01*
X289819880Y-108536309D01*
X289819880Y-108393452D01*
X289772261Y-108202976D01*
X289724642Y-108107738D01*
X289629404Y-108012500D01*
X289486547Y-107964880D01*
X289391309Y-107964880D01*
X289248452Y-108012500D01*
X289200833Y-108060119D01*
X288772261Y-108441071D02*
X288438928Y-108441071D01*
X288296071Y-108964880D02*
X288772261Y-108964880D01*
X288772261Y-107964880D01*
X288296071Y-107964880D01*
X287724642Y-108393452D02*
X287819880Y-108345833D01*
X287867500Y-108298214D01*
X287915119Y-108202976D01*
X287915119Y-108155357D01*
X287867500Y-108060119D01*
X287819880Y-108012500D01*
X287724642Y-107964880D01*
X287534166Y-107964880D01*
X287438928Y-108012500D01*
X287391309Y-108060119D01*
X287343690Y-108155357D01*
X287343690Y-108202976D01*
X287391309Y-108298214D01*
X287438928Y-108345833D01*
X287534166Y-108393452D01*
X287724642Y-108393452D01*
X287819880Y-108441071D01*
X287867500Y-108488690D01*
X287915119Y-108583928D01*
X287915119Y-108774404D01*
X287867500Y-108869642D01*
X287819880Y-108917261D01*
X287724642Y-108964880D01*
X287534166Y-108964880D01*
X287438928Y-108917261D01*
X287391309Y-108869642D01*
X287343690Y-108774404D01*
X287343690Y-108583928D01*
X287391309Y-108488690D01*
X287438928Y-108441071D01*
X287534166Y-108393452D01*
X355827619Y-170877380D02*
X355827619Y-169877380D01*
X355256190Y-170877380D02*
X355684761Y-170305952D01*
X355256190Y-169877380D02*
X355827619Y-170448809D01*
X355065714Y-170972619D02*
X354303809Y-170972619D01*
X353399047Y-170972619D02*
X353494285Y-170925000D01*
X353589523Y-170829761D01*
X353732380Y-170686904D01*
X353827619Y-170639285D01*
X353922857Y-170639285D01*
X353875238Y-170877380D02*
X353970476Y-170829761D01*
X354065714Y-170734523D01*
X354113333Y-170544047D01*
X354113333Y-170210714D01*
X354065714Y-170020238D01*
X353970476Y-169925000D01*
X353875238Y-169877380D01*
X353684761Y-169877380D01*
X353589523Y-169925000D01*
X353494285Y-170020238D01*
X353446666Y-170210714D01*
X353446666Y-170544047D01*
X353494285Y-170734523D01*
X353589523Y-170829761D01*
X353684761Y-170877380D01*
X353875238Y-170877380D01*
X353018095Y-169877380D02*
X353018095Y-170686904D01*
X352970476Y-170782142D01*
X352922857Y-170829761D01*
X352827619Y-170877380D01*
X352637142Y-170877380D01*
X352541904Y-170829761D01*
X352494285Y-170782142D01*
X352446666Y-170686904D01*
X352446666Y-169877380D01*
X351780000Y-169877380D02*
X351589523Y-169877380D01*
X351494285Y-169925000D01*
X351399047Y-170020238D01*
X351351428Y-170210714D01*
X351351428Y-170544047D01*
X351399047Y-170734523D01*
X351494285Y-170829761D01*
X351589523Y-170877380D01*
X351780000Y-170877380D01*
X351875238Y-170829761D01*
X351970476Y-170734523D01*
X352018095Y-170544047D01*
X352018095Y-170210714D01*
X351970476Y-170020238D01*
X351875238Y-169925000D01*
X351780000Y-169877380D01*
X351065714Y-169877380D02*
X350494285Y-169877380D01*
X350780000Y-170877380D02*
X350780000Y-169877380D01*
X350160952Y-170353571D02*
X349827619Y-170353571D01*
X349684761Y-170877380D02*
X350160952Y-170877380D01*
X350160952Y-169877380D01*
X349684761Y-169877380D01*
X360518690Y-132777380D02*
X360518690Y-131777380D01*
X359947261Y-132777380D02*
X360375833Y-132205952D01*
X359947261Y-131777380D02*
X360518690Y-132348809D01*
X359756785Y-132872619D02*
X358994880Y-132872619D01*
X358756785Y-132253571D02*
X358423452Y-132253571D01*
X358280595Y-132777380D02*
X358756785Y-132777380D01*
X358756785Y-131777380D01*
X358280595Y-131777380D01*
X357185357Y-132872619D02*
X357280595Y-132825000D01*
X357375833Y-132729761D01*
X357518690Y-132586904D01*
X357613928Y-132539285D01*
X357709166Y-132539285D01*
X357661547Y-132777380D02*
X357756785Y-132729761D01*
X357852023Y-132634523D01*
X357899642Y-132444047D01*
X357899642Y-132110714D01*
X357852023Y-131920238D01*
X357756785Y-131825000D01*
X357661547Y-131777380D01*
X357471071Y-131777380D01*
X357375833Y-131825000D01*
X357280595Y-131920238D01*
X357232976Y-132110714D01*
X357232976Y-132444047D01*
X357280595Y-132634523D01*
X357375833Y-132729761D01*
X357471071Y-132777380D01*
X357661547Y-132777380D01*
X356804404Y-131777380D02*
X356804404Y-132586904D01*
X356756785Y-132682142D01*
X356709166Y-132729761D01*
X356613928Y-132777380D01*
X356423452Y-132777380D01*
X356328214Y-132729761D01*
X356280595Y-132682142D01*
X356232976Y-132586904D01*
X356232976Y-131777380D01*
X355804404Y-132491666D02*
X355328214Y-132491666D01*
X355899642Y-132777380D02*
X355566309Y-131777380D01*
X355232976Y-132777380D01*
X354423452Y-132777380D02*
X354899642Y-132777380D01*
X354899642Y-131777380D01*
X315727619Y-170877380D02*
X315727619Y-169877380D01*
X315156190Y-170877380D02*
X315584761Y-170305952D01*
X315156190Y-169877380D02*
X315727619Y-170448809D01*
X314965714Y-170972619D02*
X314203809Y-170972619D01*
X313489523Y-170877380D02*
X313965714Y-170877380D01*
X313965714Y-169877380D01*
X230026428Y-189927380D02*
X230026428Y-188927380D01*
X229455000Y-189927380D02*
X229883571Y-189355952D01*
X229455000Y-188927380D02*
X230026428Y-189498809D01*
X229264523Y-190022619D02*
X228502619Y-190022619D01*
X228407380Y-188927380D02*
X228074047Y-189927380D01*
X227740714Y-188927380D01*
X348088630Y-208977380D02*
X348088630Y-207977380D01*
X347517202Y-208977380D02*
X347945773Y-208405952D01*
X347517202Y-207977380D02*
X348088630Y-208548809D01*
X347326726Y-209072619D02*
X346564821Y-209072619D01*
X346421964Y-207977380D02*
X346183869Y-208977380D01*
X345993392Y-208263095D01*
X345802916Y-208977380D01*
X345564821Y-207977380D01*
X345183869Y-208977380D02*
X345183869Y-207977380D01*
X344707678Y-208977380D02*
X344707678Y-207977380D01*
X344136250Y-208977380D01*
X344136250Y-207977380D01*
X343136250Y-208977380D02*
X343707678Y-208977380D01*
X343421964Y-208977380D02*
X343421964Y-207977380D01*
X343517202Y-208120238D01*
X343612440Y-208215476D01*
X343707678Y-208263095D01*
X172924047Y-189927380D02*
X172924047Y-188927380D01*
X172352619Y-189927380D02*
X172781190Y-189355952D01*
X172352619Y-188927380D02*
X172924047Y-189498809D01*
X172162142Y-190022619D02*
X171400238Y-190022619D01*
X171257380Y-188927380D02*
X170590714Y-188927380D01*
X171257380Y-189927380D01*
X170590714Y-189927380D01*
X324157083Y-208977380D02*
X324157083Y-207977380D01*
X323585654Y-208977380D02*
X324014226Y-208405952D01*
X323585654Y-207977380D02*
X324157083Y-208548809D01*
X323395178Y-209072619D02*
X322633273Y-209072619D01*
X322442797Y-208691666D02*
X321966607Y-208691666D01*
X322538035Y-208977380D02*
X322204702Y-207977380D01*
X321871369Y-208977380D01*
X321061845Y-208977380D02*
X321538035Y-208977380D01*
X321538035Y-207977380D01*
X320871369Y-207977380D02*
X320299940Y-207977380D01*
X320585654Y-208977380D02*
X320585654Y-207977380D01*
X319442797Y-208977380D02*
X320014226Y-208977380D01*
X319728511Y-208977380D02*
X319728511Y-207977380D01*
X319823750Y-208120238D01*
X319918988Y-208215476D01*
X320014226Y-208263095D01*
X143539226Y-189927380D02*
X143539226Y-188927380D01*
X142967797Y-189927380D02*
X143396369Y-189355952D01*
X142967797Y-188927380D02*
X143539226Y-189498809D01*
X142777321Y-190022619D02*
X142015416Y-190022619D01*
X141824940Y-189879761D02*
X141682083Y-189927380D01*
X141443988Y-189927380D01*
X141348750Y-189879761D01*
X141301130Y-189832142D01*
X141253511Y-189736904D01*
X141253511Y-189641666D01*
X141301130Y-189546428D01*
X141348750Y-189498809D01*
X141443988Y-189451190D01*
X141634464Y-189403571D01*
X141729702Y-189355952D01*
X141777321Y-189308333D01*
X141824940Y-189213095D01*
X141824940Y-189117857D01*
X141777321Y-189022619D01*
X141729702Y-188975000D01*
X141634464Y-188927380D01*
X141396369Y-188927380D01*
X141253511Y-188975000D01*
X140824940Y-189927380D02*
X140824940Y-188927380D01*
X140824940Y-189403571D02*
X140253511Y-189403571D01*
X140253511Y-189927380D02*
X140253511Y-188927380D01*
X139777321Y-189927380D02*
X139777321Y-188927380D01*
X138967797Y-189403571D02*
X139301130Y-189403571D01*
X139301130Y-189927380D02*
X139301130Y-188927380D01*
X138824940Y-188927380D01*
X138586845Y-188927380D02*
X138015416Y-188927380D01*
X138301130Y-189927380D02*
X138301130Y-188927380D01*
X268221666Y-189927380D02*
X268221666Y-188927380D01*
X267650238Y-189927380D02*
X268078809Y-189355952D01*
X267650238Y-188927380D02*
X268221666Y-189498809D01*
X267459761Y-190022619D02*
X266697857Y-190022619D01*
X266459761Y-189927380D02*
X266459761Y-188927380D01*
X265888333Y-189927380D01*
X265888333Y-188927380D01*
X390069880Y-208977380D02*
X390069880Y-207977380D01*
X389498452Y-208977380D02*
X389927023Y-208405952D01*
X389498452Y-207977380D02*
X390069880Y-208548809D01*
X389307976Y-209072619D02*
X388546071Y-209072619D01*
X388355595Y-208929761D02*
X388212738Y-208977380D01*
X387974642Y-208977380D01*
X387879404Y-208929761D01*
X387831785Y-208882142D01*
X387784166Y-208786904D01*
X387784166Y-208691666D01*
X387831785Y-208596428D01*
X387879404Y-208548809D01*
X387974642Y-208501190D01*
X388165119Y-208453571D01*
X388260357Y-208405952D01*
X388307976Y-208358333D01*
X388355595Y-208263095D01*
X388355595Y-208167857D01*
X388307976Y-208072619D01*
X388260357Y-208025000D01*
X388165119Y-207977380D01*
X387927023Y-207977380D01*
X387784166Y-208025000D01*
X387355595Y-208977380D02*
X387355595Y-207977380D01*
X386974642Y-207977380D01*
X386879404Y-208025000D01*
X386831785Y-208072619D01*
X386784166Y-208167857D01*
X386784166Y-208310714D01*
X386831785Y-208405952D01*
X386879404Y-208453571D01*
X386974642Y-208501190D01*
X387355595Y-208501190D01*
X386403214Y-208691666D02*
X385927023Y-208691666D01*
X386498452Y-208977380D02*
X386165119Y-207977380D01*
X385831785Y-208977380D01*
X384927023Y-208882142D02*
X384974642Y-208929761D01*
X385117500Y-208977380D01*
X385212738Y-208977380D01*
X385355595Y-208929761D01*
X385450833Y-208834523D01*
X385498452Y-208739285D01*
X385546071Y-208548809D01*
X385546071Y-208405952D01*
X385498452Y-208215476D01*
X385450833Y-208120238D01*
X385355595Y-208025000D01*
X385212738Y-207977380D01*
X385117500Y-207977380D01*
X384974642Y-208025000D01*
X384927023Y-208072619D01*
X384498452Y-208453571D02*
X384165119Y-208453571D01*
X384022261Y-208977380D02*
X384498452Y-208977380D01*
X384498452Y-207977380D01*
X384022261Y-207977380D01*
X383069880Y-208977380D02*
X383641309Y-208977380D01*
X383355595Y-208977380D02*
X383355595Y-207977380D01*
X383450833Y-208120238D01*
X383546071Y-208215476D01*
X383641309Y-208263095D01*
X382593690Y-208977380D02*
X382403214Y-208977380D01*
X382307976Y-208929761D01*
X382260357Y-208882142D01*
X382165119Y-208739285D01*
X382117500Y-208548809D01*
X382117500Y-208167857D01*
X382165119Y-208072619D01*
X382212738Y-208025000D01*
X382307976Y-207977380D01*
X382498452Y-207977380D01*
X382593690Y-208025000D01*
X382641309Y-208072619D01*
X382688928Y-208167857D01*
X382688928Y-208405952D01*
X382641309Y-208501190D01*
X382593690Y-208548809D01*
X382498452Y-208596428D01*
X382307976Y-208596428D01*
X382212738Y-208548809D01*
X382165119Y-208501190D01*
X382117500Y-208405952D01*
X133752321Y-208977380D02*
X133752321Y-207977380D01*
X133180892Y-208977380D02*
X133609464Y-208405952D01*
X133180892Y-207977380D02*
X133752321Y-208548809D01*
X132990416Y-209072619D02*
X132228511Y-209072619D01*
X131418988Y-208882142D02*
X131466607Y-208929761D01*
X131609464Y-208977380D01*
X131704702Y-208977380D01*
X131847559Y-208929761D01*
X131942797Y-208834523D01*
X131990416Y-208739285D01*
X132038035Y-208548809D01*
X132038035Y-208405952D01*
X131990416Y-208215476D01*
X131942797Y-208120238D01*
X131847559Y-208025000D01*
X131704702Y-207977380D01*
X131609464Y-207977380D01*
X131466607Y-208025000D01*
X131418988Y-208072619D01*
X131133273Y-207977380D02*
X130561845Y-207977380D01*
X130847559Y-208977380D02*
X130847559Y-207977380D01*
X129657083Y-208977380D02*
X129990416Y-208501190D01*
X130228511Y-208977380D02*
X130228511Y-207977380D01*
X129847559Y-207977380D01*
X129752321Y-208025000D01*
X129704702Y-208072619D01*
X129657083Y-208167857D01*
X129657083Y-208310714D01*
X129704702Y-208405952D01*
X129752321Y-208453571D01*
X129847559Y-208501190D01*
X130228511Y-208501190D01*
X128752321Y-208977380D02*
X129228511Y-208977380D01*
X129228511Y-207977380D01*
X337682380Y-108964880D02*
X337682380Y-107964880D01*
X337110952Y-108964880D02*
X337539523Y-108393452D01*
X337110952Y-107964880D02*
X337682380Y-108536309D01*
X336920476Y-109060119D02*
X336158571Y-109060119D01*
X335968095Y-108917261D02*
X335825238Y-108964880D01*
X335587142Y-108964880D01*
X335491904Y-108917261D01*
X335444285Y-108869642D01*
X335396666Y-108774404D01*
X335396666Y-108679166D01*
X335444285Y-108583928D01*
X335491904Y-108536309D01*
X335587142Y-108488690D01*
X335777619Y-108441071D01*
X335872857Y-108393452D01*
X335920476Y-108345833D01*
X335968095Y-108250595D01*
X335968095Y-108155357D01*
X335920476Y-108060119D01*
X335872857Y-108012500D01*
X335777619Y-107964880D01*
X335539523Y-107964880D01*
X335396666Y-108012500D01*
X334968095Y-108964880D02*
X334968095Y-107964880D01*
X334587142Y-107964880D01*
X334491904Y-108012500D01*
X334444285Y-108060119D01*
X334396666Y-108155357D01*
X334396666Y-108298214D01*
X334444285Y-108393452D01*
X334491904Y-108441071D01*
X334587142Y-108488690D01*
X334968095Y-108488690D01*
X334015714Y-108679166D02*
X333539523Y-108679166D01*
X334110952Y-108964880D02*
X333777619Y-107964880D01*
X333444285Y-108964880D01*
X332539523Y-108869642D02*
X332587142Y-108917261D01*
X332730000Y-108964880D01*
X332825238Y-108964880D01*
X332968095Y-108917261D01*
X333063333Y-108822023D01*
X333110952Y-108726785D01*
X333158571Y-108536309D01*
X333158571Y-108393452D01*
X333110952Y-108202976D01*
X333063333Y-108107738D01*
X332968095Y-108012500D01*
X332825238Y-107964880D01*
X332730000Y-107964880D01*
X332587142Y-108012500D01*
X332539523Y-108060119D01*
X332110952Y-108441071D02*
X331777619Y-108441071D01*
X331634761Y-108964880D02*
X332110952Y-108964880D01*
X332110952Y-107964880D01*
X331634761Y-107964880D01*
X330682380Y-108964880D02*
X331253809Y-108964880D01*
X330968095Y-108964880D02*
X330968095Y-107964880D01*
X331063333Y-108107738D01*
X331158571Y-108202976D01*
X331253809Y-108250595D01*
X330063333Y-107964880D02*
X329968095Y-107964880D01*
X329872857Y-108012500D01*
X329825238Y-108060119D01*
X329777619Y-108155357D01*
X329730000Y-108345833D01*
X329730000Y-108583928D01*
X329777619Y-108774404D01*
X329825238Y-108869642D01*
X329872857Y-108917261D01*
X329968095Y-108964880D01*
X330063333Y-108964880D01*
X330158571Y-108917261D01*
X330206190Y-108869642D01*
X330253809Y-108774404D01*
X330301428Y-108583928D01*
X330301428Y-108345833D01*
X330253809Y-108155357D01*
X330206190Y-108060119D01*
X330158571Y-108012500D01*
X330063333Y-107964880D01*
X336610952Y-170877380D02*
X336610952Y-169877380D01*
X336039523Y-170877380D02*
X336468095Y-170305952D01*
X336039523Y-169877380D02*
X336610952Y-170448809D01*
X335849047Y-170972619D02*
X335087142Y-170972619D01*
X334896666Y-170829761D02*
X334753809Y-170877380D01*
X334515714Y-170877380D01*
X334420476Y-170829761D01*
X334372857Y-170782142D01*
X334325238Y-170686904D01*
X334325238Y-170591666D01*
X334372857Y-170496428D01*
X334420476Y-170448809D01*
X334515714Y-170401190D01*
X334706190Y-170353571D01*
X334801428Y-170305952D01*
X334849047Y-170258333D01*
X334896666Y-170163095D01*
X334896666Y-170067857D01*
X334849047Y-169972619D01*
X334801428Y-169925000D01*
X334706190Y-169877380D01*
X334468095Y-169877380D01*
X334325238Y-169925000D01*
X333896666Y-170353571D02*
X333563333Y-170353571D01*
X333420476Y-170877380D02*
X333896666Y-170877380D01*
X333896666Y-169877380D01*
X333420476Y-169877380D01*
X332991904Y-170877380D02*
X332991904Y-169877380D01*
X332658571Y-170591666D01*
X332325238Y-169877380D01*
X332325238Y-170877380D01*
X331849047Y-170877380D02*
X331849047Y-169877380D01*
X330801428Y-170782142D02*
X330849047Y-170829761D01*
X330991904Y-170877380D01*
X331087142Y-170877380D01*
X331230000Y-170829761D01*
X331325238Y-170734523D01*
X331372857Y-170639285D01*
X331420476Y-170448809D01*
X331420476Y-170305952D01*
X331372857Y-170115476D01*
X331325238Y-170020238D01*
X331230000Y-169925000D01*
X331087142Y-169877380D01*
X330991904Y-169877380D01*
X330849047Y-169925000D01*
X330801428Y-169972619D01*
X308393095Y-189927380D02*
X308393095Y-188927380D01*
X307821666Y-189927380D02*
X308250238Y-189355952D01*
X307821666Y-188927380D02*
X308393095Y-189498809D01*
X307631190Y-190022619D02*
X306869285Y-190022619D01*
X306059761Y-189832142D02*
X306107380Y-189879761D01*
X306250238Y-189927380D01*
X306345476Y-189927380D01*
X306488333Y-189879761D01*
X306583571Y-189784523D01*
X306631190Y-189689285D01*
X306678809Y-189498809D01*
X306678809Y-189355952D01*
X306631190Y-189165476D01*
X306583571Y-189070238D01*
X306488333Y-188975000D01*
X306345476Y-188927380D01*
X306250238Y-188927380D01*
X306107380Y-188975000D01*
X306059761Y-189022619D01*
X305440714Y-188927380D02*
X305250238Y-188927380D01*
X305155000Y-188975000D01*
X305059761Y-189070238D01*
X305012142Y-189260714D01*
X305012142Y-189594047D01*
X305059761Y-189784523D01*
X305155000Y-189879761D01*
X305250238Y-189927380D01*
X305440714Y-189927380D01*
X305535952Y-189879761D01*
X305631190Y-189784523D01*
X305678809Y-189594047D01*
X305678809Y-189260714D01*
X305631190Y-189070238D01*
X305535952Y-188975000D01*
X305440714Y-188927380D01*
X304583571Y-189927380D02*
X304583571Y-188927380D01*
X304250238Y-189641666D01*
X303916904Y-188927380D01*
X303916904Y-189927380D01*
X303440714Y-189927380D02*
X303440714Y-188927380D01*
X303107380Y-189641666D01*
X302774047Y-188927380D01*
X302774047Y-189927380D01*
X302345476Y-189641666D02*
X301869285Y-189641666D01*
X302440714Y-189927380D02*
X302107380Y-188927380D01*
X301774047Y-189927380D01*
X234741309Y-151827380D02*
X234741309Y-150827380D01*
X234169880Y-151827380D02*
X234598452Y-151255952D01*
X234169880Y-150827380D02*
X234741309Y-151398809D01*
X233979404Y-151922619D02*
X233217500Y-151922619D01*
X233122261Y-150827380D02*
X232550833Y-150827380D01*
X232836547Y-151827380D02*
X232836547Y-150827380D01*
X206261547Y-132777380D02*
X206261547Y-131777380D01*
X205690119Y-132777380D02*
X206118690Y-132205952D01*
X205690119Y-131777380D02*
X206261547Y-132348809D01*
X205499642Y-132872619D02*
X204737738Y-132872619D01*
X204071071Y-132110714D02*
X204071071Y-132777380D01*
X204309166Y-131729761D02*
X204547261Y-132444047D01*
X203928214Y-132444047D01*
X409119880Y-208977380D02*
X409119880Y-207977380D01*
X408548452Y-208977380D02*
X408977023Y-208405952D01*
X408548452Y-207977380D02*
X409119880Y-208548809D01*
X408357976Y-209072619D02*
X407596071Y-209072619D01*
X407405595Y-208929761D02*
X407262738Y-208977380D01*
X407024642Y-208977380D01*
X406929404Y-208929761D01*
X406881785Y-208882142D01*
X406834166Y-208786904D01*
X406834166Y-208691666D01*
X406881785Y-208596428D01*
X406929404Y-208548809D01*
X407024642Y-208501190D01*
X407215119Y-208453571D01*
X407310357Y-208405952D01*
X407357976Y-208358333D01*
X407405595Y-208263095D01*
X407405595Y-208167857D01*
X407357976Y-208072619D01*
X407310357Y-208025000D01*
X407215119Y-207977380D01*
X406977023Y-207977380D01*
X406834166Y-208025000D01*
X406405595Y-208977380D02*
X406405595Y-207977380D01*
X406024642Y-207977380D01*
X405929404Y-208025000D01*
X405881785Y-208072619D01*
X405834166Y-208167857D01*
X405834166Y-208310714D01*
X405881785Y-208405952D01*
X405929404Y-208453571D01*
X406024642Y-208501190D01*
X406405595Y-208501190D01*
X405453214Y-208691666D02*
X404977023Y-208691666D01*
X405548452Y-208977380D02*
X405215119Y-207977380D01*
X404881785Y-208977380D01*
X403977023Y-208882142D02*
X404024642Y-208929761D01*
X404167500Y-208977380D01*
X404262738Y-208977380D01*
X404405595Y-208929761D01*
X404500833Y-208834523D01*
X404548452Y-208739285D01*
X404596071Y-208548809D01*
X404596071Y-208405952D01*
X404548452Y-208215476D01*
X404500833Y-208120238D01*
X404405595Y-208025000D01*
X404262738Y-207977380D01*
X404167500Y-207977380D01*
X404024642Y-208025000D01*
X403977023Y-208072619D01*
X403548452Y-208453571D02*
X403215119Y-208453571D01*
X403072261Y-208977380D02*
X403548452Y-208977380D01*
X403548452Y-207977380D01*
X403072261Y-207977380D01*
X402691309Y-208072619D02*
X402643690Y-208025000D01*
X402548452Y-207977380D01*
X402310357Y-207977380D01*
X402215119Y-208025000D01*
X402167500Y-208072619D01*
X402119880Y-208167857D01*
X402119880Y-208263095D01*
X402167500Y-208405952D01*
X402738928Y-208977380D01*
X402119880Y-208977380D01*
X401500833Y-207977380D02*
X401405595Y-207977380D01*
X401310357Y-208025000D01*
X401262738Y-208072619D01*
X401215119Y-208167857D01*
X401167500Y-208358333D01*
X401167500Y-208596428D01*
X401215119Y-208786904D01*
X401262738Y-208882142D01*
X401310357Y-208929761D01*
X401405595Y-208977380D01*
X401500833Y-208977380D01*
X401596071Y-208929761D01*
X401643690Y-208882142D01*
X401691309Y-208786904D01*
X401738928Y-208596428D01*
X401738928Y-208358333D01*
X401691309Y-208167857D01*
X401643690Y-208072619D01*
X401596071Y-208025000D01*
X401500833Y-207977380D01*
X287319285Y-189927380D02*
X287319285Y-188927380D01*
X286747857Y-189927380D02*
X287176428Y-189355952D01*
X286747857Y-188927380D02*
X287319285Y-189498809D01*
X286557380Y-190022619D02*
X285795476Y-190022619D01*
X285557380Y-189927380D02*
X285557380Y-188927380D01*
X285224047Y-189641666D01*
X284890714Y-188927380D01*
X284890714Y-189927380D01*
X131942500Y-108964880D02*
X131942500Y-107964880D01*
X131371071Y-108964880D02*
X131799642Y-108393452D01*
X131371071Y-107964880D02*
X131942500Y-108536309D01*
X131180595Y-109060119D02*
X130418690Y-109060119D01*
X130228214Y-108917261D02*
X130085357Y-108964880D01*
X129847261Y-108964880D01*
X129752023Y-108917261D01*
X129704404Y-108869642D01*
X129656785Y-108774404D01*
X129656785Y-108679166D01*
X129704404Y-108583928D01*
X129752023Y-108536309D01*
X129847261Y-108488690D01*
X130037738Y-108441071D01*
X130132976Y-108393452D01*
X130180595Y-108345833D01*
X130228214Y-108250595D01*
X130228214Y-108155357D01*
X130180595Y-108060119D01*
X130132976Y-108012500D01*
X130037738Y-107964880D01*
X129799642Y-107964880D01*
X129656785Y-108012500D01*
X129228214Y-108964880D02*
X129228214Y-107964880D01*
X128847261Y-107964880D01*
X128752023Y-108012500D01*
X128704404Y-108060119D01*
X128656785Y-108155357D01*
X128656785Y-108298214D01*
X128704404Y-108393452D01*
X128752023Y-108441071D01*
X128847261Y-108488690D01*
X129228214Y-108488690D01*
X128275833Y-108679166D02*
X127799642Y-108679166D01*
X128371071Y-108964880D02*
X128037738Y-107964880D01*
X127704404Y-108964880D01*
X126799642Y-108869642D02*
X126847261Y-108917261D01*
X126990119Y-108964880D01*
X127085357Y-108964880D01*
X127228214Y-108917261D01*
X127323452Y-108822023D01*
X127371071Y-108726785D01*
X127418690Y-108536309D01*
X127418690Y-108393452D01*
X127371071Y-108202976D01*
X127323452Y-108107738D01*
X127228214Y-108012500D01*
X127085357Y-107964880D01*
X126990119Y-107964880D01*
X126847261Y-108012500D01*
X126799642Y-108060119D01*
X126371071Y-108441071D02*
X126037738Y-108441071D01*
X125894880Y-108964880D02*
X126371071Y-108964880D01*
X126371071Y-107964880D01*
X125894880Y-107964880D01*
X351088928Y-151827380D02*
X351088928Y-150827380D01*
X350517500Y-151827380D02*
X350946071Y-151255952D01*
X350517500Y-150827380D02*
X351088928Y-151398809D01*
X350327023Y-151922619D02*
X349565119Y-151922619D01*
X348755595Y-151732142D02*
X348803214Y-151779761D01*
X348946071Y-151827380D01*
X349041309Y-151827380D01*
X349184166Y-151779761D01*
X349279404Y-151684523D01*
X349327023Y-151589285D01*
X349374642Y-151398809D01*
X349374642Y-151255952D01*
X349327023Y-151065476D01*
X349279404Y-150970238D01*
X349184166Y-150875000D01*
X349041309Y-150827380D01*
X348946071Y-150827380D01*
X348803214Y-150875000D01*
X348755595Y-150922619D01*
X347993690Y-151303571D02*
X347850833Y-151351190D01*
X347803214Y-151398809D01*
X347755595Y-151494047D01*
X347755595Y-151636904D01*
X347803214Y-151732142D01*
X347850833Y-151779761D01*
X347946071Y-151827380D01*
X348327023Y-151827380D01*
X348327023Y-150827380D01*
X347993690Y-150827380D01*
X347898452Y-150875000D01*
X347850833Y-150922619D01*
X347803214Y-151017857D01*
X347803214Y-151113095D01*
X347850833Y-151208333D01*
X347898452Y-151255952D01*
X347993690Y-151303571D01*
X348327023Y-151303571D01*
X346755595Y-151827380D02*
X347088928Y-151351190D01*
X347327023Y-151827380D02*
X347327023Y-150827380D01*
X346946071Y-150827380D01*
X346850833Y-150875000D01*
X346803214Y-150922619D01*
X346755595Y-151017857D01*
X346755595Y-151160714D01*
X346803214Y-151255952D01*
X346850833Y-151303571D01*
X346946071Y-151351190D01*
X347327023Y-151351190D01*
X346374642Y-151541666D02*
X345898452Y-151541666D01*
X346469880Y-151827380D02*
X346136547Y-150827380D01*
X345803214Y-151827380D01*
X344898452Y-151732142D02*
X344946071Y-151779761D01*
X345088928Y-151827380D01*
X345184166Y-151827380D01*
X345327023Y-151779761D01*
X345422261Y-151684523D01*
X345469880Y-151589285D01*
X345517500Y-151398809D01*
X345517500Y-151255952D01*
X345469880Y-151065476D01*
X345422261Y-150970238D01*
X345327023Y-150875000D01*
X345184166Y-150827380D01*
X345088928Y-150827380D01*
X344946071Y-150875000D01*
X344898452Y-150922619D01*
X282461547Y-132777380D02*
X282461547Y-131777380D01*
X281890119Y-132777380D02*
X282318690Y-132205952D01*
X281890119Y-131777380D02*
X282461547Y-132348809D01*
X281699642Y-132872619D02*
X280937738Y-132872619D01*
X280556785Y-132205952D02*
X280652023Y-132158333D01*
X280699642Y-132110714D01*
X280747261Y-132015476D01*
X280747261Y-131967857D01*
X280699642Y-131872619D01*
X280652023Y-131825000D01*
X280556785Y-131777380D01*
X280366309Y-131777380D01*
X280271071Y-131825000D01*
X280223452Y-131872619D01*
X280175833Y-131967857D01*
X280175833Y-132015476D01*
X280223452Y-132110714D01*
X280271071Y-132158333D01*
X280366309Y-132205952D01*
X280556785Y-132205952D01*
X280652023Y-132253571D01*
X280699642Y-132301190D01*
X280747261Y-132396428D01*
X280747261Y-132586904D01*
X280699642Y-132682142D01*
X280652023Y-132729761D01*
X280556785Y-132777380D01*
X280366309Y-132777380D01*
X280271071Y-132729761D01*
X280223452Y-132682142D01*
X280175833Y-132586904D01*
X280175833Y-132396428D01*
X280223452Y-132301190D01*
X280271071Y-132253571D01*
X280366309Y-132205952D01*
X220501428Y-170877380D02*
X220501428Y-169877380D01*
X219930000Y-170877380D02*
X220358571Y-170305952D01*
X219930000Y-169877380D02*
X220501428Y-170448809D01*
X219739523Y-170972619D02*
X218977619Y-170972619D01*
X218406190Y-170353571D02*
X218739523Y-170353571D01*
X218739523Y-170877380D02*
X218739523Y-169877380D01*
X218263333Y-169877380D01*
X253838928Y-151827380D02*
X253838928Y-150827380D01*
X253267500Y-151827380D02*
X253696071Y-151255952D01*
X253267500Y-150827380D02*
X253838928Y-151398809D01*
X253077023Y-151922619D02*
X252315119Y-151922619D01*
X251886547Y-151351190D02*
X251886547Y-151827380D01*
X252219880Y-150827380D02*
X251886547Y-151351190D01*
X251553214Y-150827380D01*
X301511547Y-132777380D02*
X301511547Y-131777380D01*
X300940119Y-132777380D02*
X301368690Y-132205952D01*
X300940119Y-131777380D02*
X301511547Y-132348809D01*
X300749642Y-132872619D02*
X299987738Y-132872619D01*
X299702023Y-132777380D02*
X299511547Y-132777380D01*
X299416309Y-132729761D01*
X299368690Y-132682142D01*
X299273452Y-132539285D01*
X299225833Y-132348809D01*
X299225833Y-131967857D01*
X299273452Y-131872619D01*
X299321071Y-131825000D01*
X299416309Y-131777380D01*
X299606785Y-131777380D01*
X299702023Y-131825000D01*
X299749642Y-131872619D01*
X299797261Y-131967857D01*
X299797261Y-132205952D01*
X299749642Y-132301190D01*
X299702023Y-132348809D01*
X299606785Y-132396428D01*
X299416309Y-132396428D01*
X299321071Y-132348809D01*
X299273452Y-132301190D01*
X299225833Y-132205952D01*
X163351428Y-170877380D02*
X163351428Y-169877380D01*
X162780000Y-170877380D02*
X163208571Y-170305952D01*
X162780000Y-169877380D02*
X163351428Y-170448809D01*
X162589523Y-170972619D02*
X161827619Y-170972619D01*
X161637142Y-170591666D02*
X161160952Y-170591666D01*
X161732380Y-170877380D02*
X161399047Y-169877380D01*
X161065714Y-170877380D01*
X129775833Y-132777380D02*
X129775833Y-131777380D01*
X129204404Y-132777380D02*
X129632976Y-132205952D01*
X129204404Y-131777380D02*
X129775833Y-132348809D01*
X129013928Y-132872619D02*
X128252023Y-132872619D01*
X128156785Y-131729761D02*
X128013928Y-131872619D01*
X391046071Y-132777380D02*
X391046071Y-131777380D01*
X390474642Y-132777380D02*
X390903214Y-132205952D01*
X390474642Y-131777380D02*
X391046071Y-132348809D01*
X390284166Y-132872619D02*
X389522261Y-132872619D01*
X388950833Y-132253571D02*
X388807976Y-132301190D01*
X388760357Y-132348809D01*
X388712738Y-132444047D01*
X388712738Y-132586904D01*
X388760357Y-132682142D01*
X388807976Y-132729761D01*
X388903214Y-132777380D01*
X389284166Y-132777380D01*
X389284166Y-131777380D01*
X388950833Y-131777380D01*
X388855595Y-131825000D01*
X388807976Y-131872619D01*
X388760357Y-131967857D01*
X388760357Y-132063095D01*
X388807976Y-132158333D01*
X388855595Y-132205952D01*
X388950833Y-132253571D01*
X389284166Y-132253571D01*
X388331785Y-132491666D02*
X387855595Y-132491666D01*
X388427023Y-132777380D02*
X388093690Y-131777380D01*
X387760357Y-132777380D01*
X386855595Y-132682142D02*
X386903214Y-132729761D01*
X387046071Y-132777380D01*
X387141309Y-132777380D01*
X387284166Y-132729761D01*
X387379404Y-132634523D01*
X387427023Y-132539285D01*
X387474642Y-132348809D01*
X387474642Y-132205952D01*
X387427023Y-132015476D01*
X387379404Y-131920238D01*
X387284166Y-131825000D01*
X387141309Y-131777380D01*
X387046071Y-131777380D01*
X386903214Y-131825000D01*
X386855595Y-131872619D01*
X386427023Y-132777380D02*
X386427023Y-131777380D01*
X385855595Y-132777380D02*
X386284166Y-132205952D01*
X385855595Y-131777380D02*
X386427023Y-132348809D01*
X385474642Y-132729761D02*
X385331785Y-132777380D01*
X385093690Y-132777380D01*
X384998452Y-132729761D01*
X384950833Y-132682142D01*
X384903214Y-132586904D01*
X384903214Y-132491666D01*
X384950833Y-132396428D01*
X384998452Y-132348809D01*
X385093690Y-132301190D01*
X385284166Y-132253571D01*
X385379404Y-132205952D01*
X385427023Y-132158333D01*
X385474642Y-132063095D01*
X385474642Y-131967857D01*
X385427023Y-131872619D01*
X385379404Y-131825000D01*
X385284166Y-131777380D01*
X385046071Y-131777380D01*
X384903214Y-131825000D01*
X384474642Y-132777380D02*
X384474642Y-131777380D01*
X384093690Y-131777380D01*
X383998452Y-131825000D01*
X383950833Y-131872619D01*
X383903214Y-131967857D01*
X383903214Y-132110714D01*
X383950833Y-132205952D01*
X383998452Y-132253571D01*
X384093690Y-132301190D01*
X384474642Y-132301190D01*
X383522261Y-132491666D02*
X383046071Y-132491666D01*
X383617500Y-132777380D02*
X383284166Y-131777380D01*
X382950833Y-132777380D01*
X382046071Y-132682142D02*
X382093690Y-132729761D01*
X382236547Y-132777380D01*
X382331785Y-132777380D01*
X382474642Y-132729761D01*
X382569880Y-132634523D01*
X382617500Y-132539285D01*
X382665119Y-132348809D01*
X382665119Y-132205952D01*
X382617500Y-132015476D01*
X382569880Y-131920238D01*
X382474642Y-131825000D01*
X382331785Y-131777380D01*
X382236547Y-131777380D01*
X382093690Y-131825000D01*
X382046071Y-131872619D01*
X381617500Y-132253571D02*
X381284166Y-132253571D01*
X381141309Y-132777380D02*
X381617500Y-132777380D01*
X381617500Y-131777380D01*
X381141309Y-131777380D01*
X239622857Y-170877380D02*
X239622857Y-169877380D01*
X239051428Y-170877380D02*
X239480000Y-170305952D01*
X239051428Y-169877380D02*
X239622857Y-170448809D01*
X238860952Y-170972619D02*
X238099047Y-170972619D01*
X237337142Y-169925000D02*
X237432380Y-169877380D01*
X237575238Y-169877380D01*
X237718095Y-169925000D01*
X237813333Y-170020238D01*
X237860952Y-170115476D01*
X237908571Y-170305952D01*
X237908571Y-170448809D01*
X237860952Y-170639285D01*
X237813333Y-170734523D01*
X237718095Y-170829761D01*
X237575238Y-170877380D01*
X237480000Y-170877380D01*
X237337142Y-170829761D01*
X237289523Y-170782142D01*
X237289523Y-170448809D01*
X237480000Y-170448809D01*
X393129476Y-104671904D02*
X393129476Y-103871904D01*
X392939000Y-103871904D01*
X392824714Y-103910000D01*
X392748523Y-103986190D01*
X392710428Y-104062380D01*
X392672333Y-104214761D01*
X392672333Y-104329047D01*
X392710428Y-104481428D01*
X392748523Y-104557619D01*
X392824714Y-104633809D01*
X392939000Y-104671904D01*
X393129476Y-104671904D01*
X392367571Y-103948095D02*
X392329476Y-103910000D01*
X392253285Y-103871904D01*
X392062809Y-103871904D01*
X391986619Y-103910000D01*
X391948523Y-103948095D01*
X391910428Y-104024285D01*
X391910428Y-104100476D01*
X391948523Y-104214761D01*
X392405666Y-104671904D01*
X391910428Y-104671904D01*
X393091380Y-124572857D02*
X392824714Y-124572857D01*
X392710428Y-124991904D02*
X393091380Y-124991904D01*
X393091380Y-124191904D01*
X392710428Y-124191904D01*
X392024714Y-124191904D02*
X392177095Y-124191904D01*
X392253285Y-124230000D01*
X392291380Y-124268095D01*
X392367571Y-124382380D01*
X392405666Y-124534761D01*
X392405666Y-124839523D01*
X392367571Y-124915714D01*
X392329476Y-124953809D01*
X392253285Y-124991904D01*
X392100904Y-124991904D01*
X392024714Y-124953809D01*
X391986619Y-124915714D01*
X391948523Y-124839523D01*
X391948523Y-124649047D01*
X391986619Y-124572857D01*
X392024714Y-124534761D01*
X392100904Y-124496666D01*
X392253285Y-124496666D01*
X392329476Y-124534761D01*
X392367571Y-124572857D01*
X392405666Y-124649047D01*
X393129476Y-117371904D02*
X393129476Y-116571904D01*
X392939000Y-116571904D01*
X392824714Y-116610000D01*
X392748523Y-116686190D01*
X392710428Y-116762380D01*
X392672333Y-116914761D01*
X392672333Y-117029047D01*
X392710428Y-117181428D01*
X392748523Y-117257619D01*
X392824714Y-117333809D01*
X392939000Y-117371904D01*
X393129476Y-117371904D01*
X391986619Y-116838571D02*
X391986619Y-117371904D01*
X392177095Y-116533809D02*
X392367571Y-117105238D01*
X391872333Y-117105238D01*
X403727666Y-114412857D02*
X403994333Y-114412857D01*
X403994333Y-114831904D02*
X403994333Y-114031904D01*
X403613380Y-114031904D01*
X402927666Y-114031904D02*
X403308619Y-114031904D01*
X403346714Y-114412857D01*
X403308619Y-114374761D01*
X403232428Y-114336666D01*
X403041952Y-114336666D01*
X402965761Y-114374761D01*
X402927666Y-114412857D01*
X402889571Y-114489047D01*
X402889571Y-114679523D01*
X402927666Y-114755714D01*
X402965761Y-114793809D01*
X403041952Y-114831904D01*
X403232428Y-114831904D01*
X403308619Y-114793809D01*
X403346714Y-114755714D01*
X392862809Y-127112857D02*
X392748523Y-127150952D01*
X392710428Y-127189047D01*
X392672333Y-127265238D01*
X392672333Y-127379523D01*
X392710428Y-127455714D01*
X392748523Y-127493809D01*
X392824714Y-127531904D01*
X393129476Y-127531904D01*
X393129476Y-126731904D01*
X392862809Y-126731904D01*
X392786619Y-126770000D01*
X392748523Y-126808095D01*
X392710428Y-126884285D01*
X392710428Y-126960476D01*
X392748523Y-127036666D01*
X392786619Y-127074761D01*
X392862809Y-127112857D01*
X393129476Y-127112857D01*
X391986619Y-126998571D02*
X391986619Y-127531904D01*
X392177095Y-126693809D02*
X392367571Y-127265238D01*
X391872333Y-127265238D01*
X404564991Y-128204297D02*
X404517851Y-128298578D01*
X404517851Y-128345719D01*
X404541421Y-128416429D01*
X404612132Y-128487140D01*
X404682842Y-128510710D01*
X404729983Y-128510710D01*
X404800693Y-128487140D01*
X404989255Y-128298578D01*
X404494280Y-127803603D01*
X404329289Y-127968595D01*
X404305719Y-128039306D01*
X404305719Y-128086446D01*
X404329289Y-128157157D01*
X404376429Y-128204297D01*
X404447140Y-128227867D01*
X404494280Y-128227867D01*
X404564991Y-128204297D01*
X404729983Y-128039306D01*
X403787174Y-128510710D02*
X403881455Y-128416429D01*
X403952165Y-128392859D01*
X403999306Y-128392859D01*
X404117157Y-128416429D01*
X404235008Y-128487140D01*
X404423570Y-128675702D01*
X404447140Y-128746412D01*
X404447140Y-128793553D01*
X404423570Y-128864264D01*
X404329289Y-128958544D01*
X404258578Y-128982115D01*
X404211438Y-128982115D01*
X404140727Y-128958544D01*
X404022876Y-128840693D01*
X403999306Y-128769983D01*
X403999306Y-128722842D01*
X404022876Y-128652132D01*
X404117157Y-128557851D01*
X404187867Y-128534280D01*
X404235008Y-128534280D01*
X404305719Y-128557851D01*
X393783333Y-128290000D02*
X393683333Y-128323333D01*
X393650000Y-128356666D01*
X393616666Y-128423333D01*
X393616666Y-128523333D01*
X393650000Y-128590000D01*
X393683333Y-128623333D01*
X393750000Y-128656666D01*
X394016666Y-128656666D01*
X394016666Y-127956666D01*
X393783333Y-127956666D01*
X393716666Y-127990000D01*
X393683333Y-128023333D01*
X393650000Y-128090000D01*
X393650000Y-128156666D01*
X393683333Y-128223333D01*
X393716666Y-128256666D01*
X393783333Y-128290000D01*
X394016666Y-128290000D01*
X393383333Y-127956666D02*
X392916666Y-127956666D01*
X393216666Y-128656666D01*
X403727666Y-111872857D02*
X403994333Y-111872857D01*
X403994333Y-112291904D02*
X403994333Y-111491904D01*
X403613380Y-111491904D01*
X402965761Y-111758571D02*
X402965761Y-112291904D01*
X403156238Y-111453809D02*
X403346714Y-112025238D01*
X402851476Y-112025238D01*
X396470476Y-101491904D02*
X396013333Y-101491904D01*
X396241904Y-102291904D02*
X396241904Y-101491904D01*
X395822857Y-101491904D02*
X395289523Y-102291904D01*
X395289523Y-101491904D02*
X395822857Y-102291904D01*
X394832380Y-101491904D02*
X394756190Y-101491904D01*
X394680000Y-101530000D01*
X394641904Y-101568095D01*
X394603809Y-101644285D01*
X394565714Y-101796666D01*
X394565714Y-101987142D01*
X394603809Y-102139523D01*
X394641904Y-102215714D01*
X394680000Y-102253809D01*
X394756190Y-102291904D01*
X394832380Y-102291904D01*
X394908571Y-102253809D01*
X394946666Y-102215714D01*
X394984761Y-102139523D01*
X395022857Y-101987142D01*
X395022857Y-101796666D01*
X394984761Y-101644285D01*
X394946666Y-101568095D01*
X394908571Y-101530000D01*
X394832380Y-101491904D01*
X393651428Y-101453809D02*
X394337142Y-102482380D01*
X393384761Y-102291904D02*
X393384761Y-101491904D01*
X393194285Y-101491904D01*
X393080000Y-101530000D01*
X393003809Y-101606190D01*
X392965714Y-101682380D01*
X392927619Y-101834761D01*
X392927619Y-101949047D01*
X392965714Y-102101428D01*
X393003809Y-102177619D01*
X393080000Y-102253809D01*
X393194285Y-102291904D01*
X393384761Y-102291904D01*
X392660952Y-101491904D02*
X392165714Y-101491904D01*
X392432380Y-101796666D01*
X392318095Y-101796666D01*
X392241904Y-101834761D01*
X392203809Y-101872857D01*
X392165714Y-101949047D01*
X392165714Y-102139523D01*
X392203809Y-102215714D01*
X392241904Y-102253809D01*
X392318095Y-102291904D01*
X392546666Y-102291904D01*
X392622857Y-102253809D01*
X392660952Y-102215714D01*
X393129476Y-114831904D02*
X393129476Y-114031904D01*
X392939000Y-114031904D01*
X392824714Y-114070000D01*
X392748523Y-114146190D01*
X392710428Y-114222380D01*
X392672333Y-114374761D01*
X392672333Y-114489047D01*
X392710428Y-114641428D01*
X392748523Y-114717619D01*
X392824714Y-114793809D01*
X392939000Y-114831904D01*
X393129476Y-114831904D01*
X392177095Y-114031904D02*
X392100904Y-114031904D01*
X392024714Y-114070000D01*
X391986619Y-114108095D01*
X391948523Y-114184285D01*
X391910428Y-114336666D01*
X391910428Y-114527142D01*
X391948523Y-114679523D01*
X391986619Y-114755714D01*
X392024714Y-114793809D01*
X392100904Y-114831904D01*
X392177095Y-114831904D01*
X392253285Y-114793809D01*
X392291380Y-114755714D01*
X392329476Y-114679523D01*
X392367571Y-114527142D01*
X392367571Y-114336666D01*
X392329476Y-114184285D01*
X392291380Y-114108095D01*
X392253285Y-114070000D01*
X392177095Y-114031904D01*
X403727666Y-119492857D02*
X403994333Y-119492857D01*
X403994333Y-119911904D02*
X403994333Y-119111904D01*
X403613380Y-119111904D01*
X403384809Y-119111904D02*
X402851476Y-119111904D01*
X403194333Y-119911904D01*
X403784809Y-122032857D02*
X403670523Y-122070952D01*
X403632428Y-122109047D01*
X403594333Y-122185238D01*
X403594333Y-122299523D01*
X403632428Y-122375714D01*
X403670523Y-122413809D01*
X403746714Y-122451904D01*
X404051476Y-122451904D01*
X404051476Y-121651904D01*
X403784809Y-121651904D01*
X403708619Y-121690000D01*
X403670523Y-121728095D01*
X403632428Y-121804285D01*
X403632428Y-121880476D01*
X403670523Y-121956666D01*
X403708619Y-121994761D01*
X403784809Y-122032857D01*
X404051476Y-122032857D01*
X402832428Y-122451904D02*
X403289571Y-122451904D01*
X403061000Y-122451904D02*
X403061000Y-121651904D01*
X403137190Y-121766190D01*
X403213380Y-121842380D01*
X403289571Y-121880476D01*
X403727666Y-116952857D02*
X403994333Y-116952857D01*
X403994333Y-117371904D02*
X403994333Y-116571904D01*
X403613380Y-116571904D01*
X402965761Y-116571904D02*
X403118142Y-116571904D01*
X403194333Y-116610000D01*
X403232428Y-116648095D01*
X403308619Y-116762380D01*
X403346714Y-116914761D01*
X403346714Y-117219523D01*
X403308619Y-117295714D01*
X403270523Y-117333809D01*
X403194333Y-117371904D01*
X403041952Y-117371904D01*
X402965761Y-117333809D01*
X402927666Y-117295714D01*
X402889571Y-117219523D01*
X402889571Y-117029047D01*
X402927666Y-116952857D01*
X402965761Y-116914761D01*
X403041952Y-116876666D01*
X403194333Y-116876666D01*
X403270523Y-116914761D01*
X403308619Y-116952857D01*
X403346714Y-117029047D01*
X403784809Y-101712857D02*
X403670523Y-101750952D01*
X403632428Y-101789047D01*
X403594333Y-101865238D01*
X403594333Y-101979523D01*
X403632428Y-102055714D01*
X403670523Y-102093809D01*
X403746714Y-102131904D01*
X404051476Y-102131904D01*
X404051476Y-101331904D01*
X403784809Y-101331904D01*
X403708619Y-101370000D01*
X403670523Y-101408095D01*
X403632428Y-101484285D01*
X403632428Y-101560476D01*
X403670523Y-101636666D01*
X403708619Y-101674761D01*
X403784809Y-101712857D01*
X404051476Y-101712857D01*
X403099095Y-101331904D02*
X403022904Y-101331904D01*
X402946714Y-101370000D01*
X402908619Y-101408095D01*
X402870523Y-101484285D01*
X402832428Y-101636666D01*
X402832428Y-101827142D01*
X402870523Y-101979523D01*
X402908619Y-102055714D01*
X402946714Y-102093809D01*
X403022904Y-102131904D01*
X403099095Y-102131904D01*
X403175285Y-102093809D01*
X403213380Y-102055714D01*
X403251476Y-101979523D01*
X403289571Y-101827142D01*
X403289571Y-101636666D01*
X403251476Y-101484285D01*
X403213380Y-101408095D01*
X403175285Y-101370000D01*
X403099095Y-101331904D01*
X393129476Y-122451904D02*
X393129476Y-121651904D01*
X392939000Y-121651904D01*
X392824714Y-121690000D01*
X392748523Y-121766190D01*
X392710428Y-121842380D01*
X392672333Y-121994761D01*
X392672333Y-122109047D01*
X392710428Y-122261428D01*
X392748523Y-122337619D01*
X392824714Y-122413809D01*
X392939000Y-122451904D01*
X393129476Y-122451904D01*
X392405666Y-121651904D02*
X391872333Y-121651904D01*
X392215190Y-122451904D01*
X403573333Y-107153809D02*
X403459047Y-107191904D01*
X403268571Y-107191904D01*
X403192380Y-107153809D01*
X403154285Y-107115714D01*
X403116190Y-107039523D01*
X403116190Y-106963333D01*
X403154285Y-106887142D01*
X403192380Y-106849047D01*
X403268571Y-106810952D01*
X403420952Y-106772857D01*
X403497142Y-106734761D01*
X403535238Y-106696666D01*
X403573333Y-106620476D01*
X403573333Y-106544285D01*
X403535238Y-106468095D01*
X403497142Y-106430000D01*
X403420952Y-106391904D01*
X403230476Y-106391904D01*
X403116190Y-106430000D01*
X402887619Y-106391904D02*
X402430476Y-106391904D01*
X402659047Y-107191904D02*
X402659047Y-106391904D01*
X404527666Y-108951904D02*
X404261000Y-109751904D01*
X403994333Y-108951904D01*
X403270523Y-109675714D02*
X403308619Y-109713809D01*
X403422904Y-109751904D01*
X403499095Y-109751904D01*
X403613380Y-109713809D01*
X403689571Y-109637619D01*
X403727666Y-109561428D01*
X403765761Y-109409047D01*
X403765761Y-109294761D01*
X403727666Y-109142380D01*
X403689571Y-109066190D01*
X403613380Y-108990000D01*
X403499095Y-108951904D01*
X403422904Y-108951904D01*
X403308619Y-108990000D01*
X403270523Y-109028095D01*
X402470523Y-109675714D02*
X402508619Y-109713809D01*
X402622904Y-109751904D01*
X402699095Y-109751904D01*
X402813380Y-109713809D01*
X402889571Y-109637619D01*
X402927666Y-109561428D01*
X402965761Y-109409047D01*
X402965761Y-109294761D01*
X402927666Y-109142380D01*
X402889571Y-109066190D01*
X402813380Y-108990000D01*
X402699095Y-108951904D01*
X402622904Y-108951904D01*
X402508619Y-108990000D01*
X402470523Y-109028095D01*
X392672333Y-119835714D02*
X392710428Y-119873809D01*
X392824714Y-119911904D01*
X392900904Y-119911904D01*
X393015190Y-119873809D01*
X393091380Y-119797619D01*
X393129476Y-119721428D01*
X393167571Y-119569047D01*
X393167571Y-119454761D01*
X393129476Y-119302380D01*
X393091380Y-119226190D01*
X393015190Y-119150000D01*
X392900904Y-119111904D01*
X392824714Y-119111904D01*
X392710428Y-119150000D01*
X392672333Y-119188095D01*
X391986619Y-119111904D02*
X392139000Y-119111904D01*
X392215190Y-119150000D01*
X392253285Y-119188095D01*
X392329476Y-119302380D01*
X392367571Y-119454761D01*
X392367571Y-119759523D01*
X392329476Y-119835714D01*
X392291380Y-119873809D01*
X392215190Y-119911904D01*
X392062809Y-119911904D01*
X391986619Y-119873809D01*
X391948523Y-119835714D01*
X391910428Y-119759523D01*
X391910428Y-119569047D01*
X391948523Y-119492857D01*
X391986619Y-119454761D01*
X392062809Y-119416666D01*
X392215190Y-119416666D01*
X392291380Y-119454761D01*
X392329476Y-119492857D01*
X392367571Y-119569047D01*
X403784809Y-127112857D02*
X403670523Y-127150952D01*
X403632428Y-127189047D01*
X403594333Y-127265238D01*
X403594333Y-127379523D01*
X403632428Y-127455714D01*
X403670523Y-127493809D01*
X403746714Y-127531904D01*
X404051476Y-127531904D01*
X404051476Y-126731904D01*
X403784809Y-126731904D01*
X403708619Y-126770000D01*
X403670523Y-126808095D01*
X403632428Y-126884285D01*
X403632428Y-126960476D01*
X403670523Y-127036666D01*
X403708619Y-127074761D01*
X403784809Y-127112857D01*
X404051476Y-127112857D01*
X403289571Y-126808095D02*
X403251476Y-126770000D01*
X403175285Y-126731904D01*
X402984809Y-126731904D01*
X402908619Y-126770000D01*
X402870523Y-126808095D01*
X402832428Y-126884285D01*
X402832428Y-126960476D01*
X402870523Y-127074761D01*
X403327666Y-127531904D01*
X402832428Y-127531904D01*
X400806666Y-128082857D02*
X401073333Y-128082857D01*
X401073333Y-128501904D02*
X401073333Y-127701904D01*
X400692380Y-127701904D01*
X399968571Y-128501904D02*
X400425714Y-128501904D01*
X400197142Y-128501904D02*
X400197142Y-127701904D01*
X400273333Y-127816190D01*
X400349523Y-127892380D01*
X400425714Y-127930476D01*
X398133333Y-128425714D02*
X398171428Y-128463809D01*
X398285714Y-128501904D01*
X398361904Y-128501904D01*
X398476190Y-128463809D01*
X398552380Y-128387619D01*
X398590476Y-128311428D01*
X398628571Y-128159047D01*
X398628571Y-128044761D01*
X398590476Y-127892380D01*
X398552380Y-127816190D01*
X398476190Y-127740000D01*
X398361904Y-127701904D01*
X398285714Y-127701904D01*
X398171428Y-127740000D01*
X398133333Y-127778095D01*
X397866666Y-127701904D02*
X397333333Y-127701904D01*
X397676190Y-128501904D01*
X396050476Y-128501904D02*
X396050476Y-127701904D01*
X395860000Y-127701904D01*
X395745714Y-127740000D01*
X395669523Y-127816190D01*
X395631428Y-127892380D01*
X395593333Y-128044761D01*
X395593333Y-128159047D01*
X395631428Y-128311428D01*
X395669523Y-128387619D01*
X395745714Y-128463809D01*
X395860000Y-128501904D01*
X396050476Y-128501904D01*
X394869523Y-127701904D02*
X395250476Y-127701904D01*
X395288571Y-128082857D01*
X395250476Y-128044761D01*
X395174285Y-128006666D01*
X394983809Y-128006666D01*
X394907619Y-128044761D01*
X394869523Y-128082857D01*
X394831428Y-128159047D01*
X394831428Y-128349523D01*
X394869523Y-128425714D01*
X394907619Y-128463809D01*
X394983809Y-128501904D01*
X395174285Y-128501904D01*
X395250476Y-128463809D01*
X395288571Y-128425714D01*
X404070523Y-103910000D02*
X404146714Y-103871904D01*
X404261000Y-103871904D01*
X404375285Y-103910000D01*
X404451476Y-103986190D01*
X404489571Y-104062380D01*
X404527666Y-104214761D01*
X404527666Y-104329047D01*
X404489571Y-104481428D01*
X404451476Y-104557619D01*
X404375285Y-104633809D01*
X404261000Y-104671904D01*
X404184809Y-104671904D01*
X404070523Y-104633809D01*
X404032428Y-104595714D01*
X404032428Y-104329047D01*
X404184809Y-104329047D01*
X403689571Y-104671904D02*
X403689571Y-103871904D01*
X403232428Y-104671904D01*
X403232428Y-103871904D01*
X402851476Y-104671904D02*
X402851476Y-103871904D01*
X402661000Y-103871904D01*
X402546714Y-103910000D01*
X402470523Y-103986190D01*
X402432428Y-104062380D01*
X402394333Y-104214761D01*
X402394333Y-104329047D01*
X402432428Y-104481428D01*
X402470523Y-104557619D01*
X402546714Y-104633809D01*
X402661000Y-104671904D01*
X402851476Y-104671904D01*
X393148523Y-106450000D02*
X393224714Y-106411904D01*
X393339000Y-106411904D01*
X393453285Y-106450000D01*
X393529476Y-106526190D01*
X393567571Y-106602380D01*
X393605666Y-106754761D01*
X393605666Y-106869047D01*
X393567571Y-107021428D01*
X393529476Y-107097619D01*
X393453285Y-107173809D01*
X393339000Y-107211904D01*
X393262809Y-107211904D01*
X393148523Y-107173809D01*
X393110428Y-107135714D01*
X393110428Y-106869047D01*
X393262809Y-106869047D01*
X392767571Y-107211904D02*
X392767571Y-106411904D01*
X392310428Y-107211904D01*
X392310428Y-106411904D01*
X391929476Y-107211904D02*
X391929476Y-106411904D01*
X391739000Y-106411904D01*
X391624714Y-106450000D01*
X391548523Y-106526190D01*
X391510428Y-106602380D01*
X391472333Y-106754761D01*
X391472333Y-106869047D01*
X391510428Y-107021428D01*
X391548523Y-107097619D01*
X391624714Y-107173809D01*
X391739000Y-107211904D01*
X391929476Y-107211904D01*
X391364297Y-128275008D02*
X391458578Y-128322148D01*
X391505719Y-128322148D01*
X391576429Y-128298578D01*
X391647140Y-128227867D01*
X391670710Y-128157157D01*
X391670710Y-128110016D01*
X391647140Y-128039306D01*
X391458578Y-127850744D01*
X390963603Y-128345719D01*
X391128595Y-128510710D01*
X391199306Y-128534280D01*
X391246446Y-128534280D01*
X391317157Y-128510710D01*
X391364297Y-128463570D01*
X391387867Y-128392859D01*
X391387867Y-128345719D01*
X391364297Y-128275008D01*
X391199306Y-128110016D01*
X391694280Y-129076396D02*
X391458578Y-128840693D01*
X391670710Y-128581421D01*
X391670710Y-128628561D01*
X391694280Y-128699272D01*
X391812132Y-128817123D01*
X391882842Y-128840693D01*
X391929983Y-128840693D01*
X392000693Y-128817123D01*
X392118544Y-128699272D01*
X392142115Y-128628561D01*
X392142115Y-128581421D01*
X392118544Y-128510710D01*
X392000693Y-128392859D01*
X391929983Y-128369289D01*
X391882842Y-128369289D01*
X402733333Y-128290000D02*
X402966666Y-128290000D01*
X402966666Y-128656666D02*
X402966666Y-127956666D01*
X402633333Y-127956666D01*
X402233333Y-127956666D02*
X402166666Y-127956666D01*
X402100000Y-127990000D01*
X402066666Y-128023333D01*
X402033333Y-128090000D01*
X402000000Y-128223333D01*
X402000000Y-128390000D01*
X402033333Y-128523333D01*
X402066666Y-128590000D01*
X402100000Y-128623333D01*
X402166666Y-128656666D01*
X402233333Y-128656666D01*
X402300000Y-128623333D01*
X402333333Y-128590000D01*
X402366666Y-128523333D01*
X402400000Y-128390000D01*
X402400000Y-128223333D01*
X402366666Y-128090000D01*
X402333333Y-128023333D01*
X402300000Y-127990000D01*
X402233333Y-127956666D01*
X403784809Y-124572857D02*
X403670523Y-124610952D01*
X403632428Y-124649047D01*
X403594333Y-124725238D01*
X403594333Y-124839523D01*
X403632428Y-124915714D01*
X403670523Y-124953809D01*
X403746714Y-124991904D01*
X404051476Y-124991904D01*
X404051476Y-124191904D01*
X403784809Y-124191904D01*
X403708619Y-124230000D01*
X403670523Y-124268095D01*
X403632428Y-124344285D01*
X403632428Y-124420476D01*
X403670523Y-124496666D01*
X403708619Y-124534761D01*
X403784809Y-124572857D01*
X404051476Y-124572857D01*
X403327666Y-124191904D02*
X402832428Y-124191904D01*
X403099095Y-124496666D01*
X402984809Y-124496666D01*
X402908619Y-124534761D01*
X402870523Y-124572857D01*
X402832428Y-124649047D01*
X402832428Y-124839523D01*
X402870523Y-124915714D01*
X402908619Y-124953809D01*
X402984809Y-124991904D01*
X403213380Y-124991904D01*
X403289571Y-124953809D01*
X403327666Y-124915714D01*
X393129476Y-112291904D02*
X393129476Y-111491904D01*
X392939000Y-111491904D01*
X392824714Y-111530000D01*
X392748523Y-111606190D01*
X392710428Y-111682380D01*
X392672333Y-111834761D01*
X392672333Y-111949047D01*
X392710428Y-112101428D01*
X392748523Y-112177619D01*
X392824714Y-112253809D01*
X392939000Y-112291904D01*
X393129476Y-112291904D01*
X391910428Y-112291904D02*
X392367571Y-112291904D01*
X392139000Y-112291904D02*
X392139000Y-111491904D01*
X392215190Y-111606190D01*
X392291380Y-111682380D01*
X392367571Y-111720476D01*
X393148523Y-108990000D02*
X393224714Y-108951904D01*
X393339000Y-108951904D01*
X393453285Y-108990000D01*
X393529476Y-109066190D01*
X393567571Y-109142380D01*
X393605666Y-109294761D01*
X393605666Y-109409047D01*
X393567571Y-109561428D01*
X393529476Y-109637619D01*
X393453285Y-109713809D01*
X393339000Y-109751904D01*
X393262809Y-109751904D01*
X393148523Y-109713809D01*
X393110428Y-109675714D01*
X393110428Y-109409047D01*
X393262809Y-109409047D01*
X392767571Y-109751904D02*
X392767571Y-108951904D01*
X392310428Y-109751904D01*
X392310428Y-108951904D01*
X391929476Y-109751904D02*
X391929476Y-108951904D01*
X391739000Y-108951904D01*
X391624714Y-108990000D01*
X391548523Y-109066190D01*
X391510428Y-109142380D01*
X391472333Y-109294761D01*
X391472333Y-109409047D01*
X391510428Y-109561428D01*
X391548523Y-109637619D01*
X391624714Y-109713809D01*
X391739000Y-109751904D01*
X391929476Y-109751904D01*
X388816250Y-171695000D02*
X388816250Y-172076000D01*
X377767250Y-178045000D02*
X377386250Y-178045000D01*
X377386250Y-174235000D02*
X377386250Y-174616000D01*
X388816250Y-176140000D02*
X383736250Y-176140000D01*
X388816250Y-175124000D02*
X388816250Y-176140000D01*
X379926250Y-171695000D02*
X388816250Y-171695000D01*
X377386250Y-177664000D02*
X377386250Y-178045000D01*
X381272088Y-178045000D02*
X379545250Y-178045000D01*
X383736250Y-176139999D02*
G75*
G03*
X381272088Y-178063960I0J-2540000D01*
G01*
X379926250Y-171695000D02*
G75*
G03*
X377386250Y-174235000I1J-2540001D01*
G01*
X295947500Y-157090000D02*
X290867500Y-157090000D01*
X284517500Y-155185000D02*
X284517500Y-155566000D01*
X287057500Y-152645000D02*
X295947500Y-152645000D01*
X288403338Y-158995000D02*
X286676500Y-158995000D01*
X295947500Y-152645000D02*
X295947500Y-153026000D01*
X284517500Y-158614000D02*
X284517500Y-158995000D01*
X295947500Y-156074000D02*
X295947500Y-157090000D01*
X284898500Y-158995000D02*
X284517500Y-158995000D01*
X290867500Y-157089999D02*
G75*
G03*
X288403338Y-159013960I0J-2540000D01*
G01*
X287057500Y-152645000D02*
G75*
G03*
X284517500Y-155185000I1J-2540001D01*
G01*
X332142500Y-136135000D02*
X332142500Y-136516000D01*
X332142500Y-139564000D02*
X332142500Y-139945000D01*
X332523500Y-139945000D02*
X332142500Y-139945000D01*
X343572500Y-137024000D02*
X343572500Y-138040000D01*
X343572500Y-138040000D02*
X338492500Y-138040000D01*
X343572500Y-133595000D02*
X343572500Y-133976000D01*
X336028338Y-139945000D02*
X334301500Y-139945000D01*
X334682500Y-133595000D02*
X343572500Y-133595000D01*
X338492500Y-138039999D02*
G75*
G03*
X336028338Y-139963960I0J-2540000D01*
G01*
X334682500Y-133595000D02*
G75*
G03*
X332142500Y-136135000I1J-2540001D01*
G01*
X289661000Y-178045000D02*
X289280000Y-178045000D01*
X289280000Y-174235000D02*
X289280000Y-174616000D01*
X300710000Y-171695000D02*
X300710000Y-172076000D01*
X289280000Y-177664000D02*
X289280000Y-178045000D01*
X300710000Y-175124000D02*
X300710000Y-176140000D01*
X291820000Y-171695000D02*
X300710000Y-171695000D01*
X293165838Y-178045000D02*
X291439000Y-178045000D01*
X300710000Y-176140000D02*
X295630000Y-176140000D01*
X295630000Y-176139999D02*
G75*
G03*
X293165838Y-178063960I0J-2540000D01*
G01*
X291820000Y-171695000D02*
G75*
G03*
X289280000Y-174235000I1J-2540001D01*
G01*
X236892500Y-136135000D02*
X236892500Y-136516000D01*
X236892500Y-139564000D02*
X236892500Y-139945000D01*
X239432500Y-133595000D02*
X248322500Y-133595000D01*
X237273500Y-139945000D02*
X236892500Y-139945000D01*
X248322500Y-133595000D02*
X248322500Y-133976000D01*
X240778338Y-139945000D02*
X239051500Y-139945000D01*
X248322500Y-138040000D02*
X243242500Y-138040000D01*
X248322500Y-137024000D02*
X248322500Y-138040000D01*
X243242500Y-138039999D02*
G75*
G03*
X240778338Y-139963960I0J-2540000D01*
G01*
X239432500Y-133595000D02*
G75*
G03*
X236892500Y-136135000I1J-2540001D01*
G01*
X348335000Y-190745000D02*
X348335000Y-191126000D01*
X339445000Y-190745000D02*
X348335000Y-190745000D01*
X336905000Y-193285000D02*
X336905000Y-193666000D01*
X337286000Y-197095000D02*
X336905000Y-197095000D01*
X336905000Y-196714000D02*
X336905000Y-197095000D01*
X348335000Y-194174000D02*
X348335000Y-195190000D01*
X340790838Y-197095000D02*
X339064000Y-197095000D01*
X348335000Y-195190000D02*
X343255000Y-195190000D01*
X343255000Y-195189999D02*
G75*
G03*
X340790838Y-197113960I0J-2540000D01*
G01*
X339445000Y-190745000D02*
G75*
G03*
X336905000Y-193285000I1J-2540001D01*
G01*
X191807500Y-152645000D02*
X200697500Y-152645000D01*
X200697500Y-152645000D02*
X200697500Y-153026000D01*
X189267500Y-155185000D02*
X189267500Y-155566000D01*
X189267500Y-158614000D02*
X189267500Y-158995000D01*
X200697500Y-157090000D02*
X195617500Y-157090000D01*
X200697500Y-156074000D02*
X200697500Y-157090000D01*
X193153338Y-158995000D02*
X191426500Y-158995000D01*
X189648500Y-158995000D02*
X189267500Y-158995000D01*
X191807500Y-152645000D02*
G75*
G03*
X189267500Y-155185000I1J-2540001D01*
G01*
X195617500Y-157089999D02*
G75*
G03*
X193153338Y-159013960I0J-2540000D01*
G01*
X255065838Y-178045000D02*
X253339000Y-178045000D01*
X251180000Y-177664000D02*
X251180000Y-178045000D01*
X262610000Y-171695000D02*
X262610000Y-172076000D01*
X262610000Y-175124000D02*
X262610000Y-176140000D01*
X253720000Y-171695000D02*
X262610000Y-171695000D01*
X251180000Y-174235000D02*
X251180000Y-174616000D01*
X251561000Y-178045000D02*
X251180000Y-178045000D01*
X262610000Y-176140000D02*
X257530000Y-176140000D01*
X257530000Y-176139999D02*
G75*
G03*
X255065838Y-178063960I0J-2540000D01*
G01*
X253720000Y-171695000D02*
G75*
G03*
X251180000Y-174235000I1J-2540001D01*
G01*
X265467500Y-112322500D02*
X265467500Y-112703500D01*
X265467500Y-115751500D02*
X265467500Y-116132500D01*
X269353338Y-116132500D02*
X267626500Y-116132500D01*
X268007500Y-109782500D02*
X276897500Y-109782500D01*
X276897500Y-109782500D02*
X276897500Y-110163500D01*
X276897500Y-113211500D02*
X276897500Y-114227500D01*
X276897500Y-114227500D02*
X271817500Y-114227500D01*
X265848500Y-116132500D02*
X265467500Y-116132500D01*
X271817500Y-114227499D02*
G75*
G03*
X269353338Y-116151460I0J-2540000D01*
G01*
X268007500Y-109782500D02*
G75*
G03*
X265467500Y-112322500I1J-2540001D01*
G01*
X141642500Y-139564000D02*
X141642500Y-139945000D01*
X141642500Y-136135000D02*
X141642500Y-136516000D01*
X142023500Y-139945000D02*
X141642500Y-139945000D01*
X153072500Y-137024000D02*
X153072500Y-138040000D01*
X145528338Y-139945000D02*
X143801500Y-139945000D01*
X153072500Y-138040000D02*
X147992500Y-138040000D01*
X144182500Y-133595000D02*
X153072500Y-133595000D01*
X153072500Y-133595000D02*
X153072500Y-133976000D01*
X144182500Y-133595000D02*
G75*
G03*
X141642500Y-136135000I1J-2540001D01*
G01*
X147992500Y-138039999D02*
G75*
G03*
X145528338Y-139963960I0J-2540000D01*
G01*
X269353338Y-158995000D02*
X267626500Y-158995000D01*
X268007500Y-152645000D02*
X276897500Y-152645000D01*
X276897500Y-152645000D02*
X276897500Y-153026000D01*
X276897500Y-156074000D02*
X276897500Y-157090000D01*
X276897500Y-157090000D02*
X271817500Y-157090000D01*
X265848500Y-158995000D02*
X265467500Y-158995000D01*
X265467500Y-158614000D02*
X265467500Y-158995000D01*
X265467500Y-155185000D02*
X265467500Y-155566000D01*
X268007500Y-152645000D02*
G75*
G03*
X265467500Y-155185000I1J-2540001D01*
G01*
X271817500Y-157089999D02*
G75*
G03*
X269353338Y-159013960I0J-2540000D01*
G01*
X387070000Y-152645000D02*
X395960000Y-152645000D01*
X395960000Y-157090000D02*
X390880000Y-157090000D01*
X395960000Y-156074000D02*
X395960000Y-157090000D01*
X395960000Y-152645000D02*
X395960000Y-153026000D01*
X388415838Y-158995000D02*
X386689000Y-158995000D01*
X384530000Y-158614000D02*
X384530000Y-158995000D01*
X384911000Y-158995000D02*
X384530000Y-158995000D01*
X384530000Y-155185000D02*
X384530000Y-155566000D01*
X387070000Y-152645000D02*
G75*
G03*
X384530000Y-155185000I1J-2540001D01*
G01*
X390880000Y-157089999D02*
G75*
G03*
X388415838Y-159013960I0J-2540000D01*
G01*
X244381000Y-216125000D02*
X244000000Y-216125000D01*
X246540000Y-209775000D02*
X255430000Y-209775000D01*
X244000000Y-212315000D02*
X244000000Y-212696000D01*
X255430000Y-213204000D02*
X255430000Y-214220000D01*
X255430000Y-214220000D02*
X250350000Y-214220000D01*
X244000000Y-215744000D02*
X244000000Y-216125000D01*
X255430000Y-209775000D02*
X255430000Y-210156000D01*
X247885838Y-216125000D02*
X246159000Y-216125000D01*
X246540000Y-209775000D02*
G75*
G03*
X244000000Y-212315000I1J-2540001D01*
G01*
X250350000Y-214219999D02*
G75*
G03*
X247885838Y-216143960I0J-2540000D01*
G01*
X314997500Y-156074000D02*
X314997500Y-157090000D01*
X303567500Y-158614000D02*
X303567500Y-158995000D01*
X303567500Y-155185000D02*
X303567500Y-155566000D01*
X307453338Y-158995000D02*
X305726500Y-158995000D01*
X306107500Y-152645000D02*
X314997500Y-152645000D01*
X303948500Y-158995000D02*
X303567500Y-158995000D01*
X314997500Y-152645000D02*
X314997500Y-153026000D01*
X314997500Y-157090000D02*
X309917500Y-157090000D01*
X306107500Y-152645000D02*
G75*
G03*
X303567500Y-155185000I1J-2540001D01*
G01*
X309917500Y-157089999D02*
G75*
G03*
X307453338Y-159013960I0J-2540000D01*
G01*
X181647500Y-157090000D02*
X176567500Y-157090000D01*
X181647500Y-156074000D02*
X181647500Y-157090000D01*
X170598500Y-158995000D02*
X170217500Y-158995000D01*
X174103338Y-158995000D02*
X172376500Y-158995000D01*
X181647500Y-152645000D02*
X181647500Y-153026000D01*
X170217500Y-155185000D02*
X170217500Y-155566000D01*
X170217500Y-158614000D02*
X170217500Y-158995000D01*
X172757500Y-152645000D02*
X181647500Y-152645000D01*
X172757500Y-152645000D02*
G75*
G03*
X170217500Y-155185000I1J-2540001D01*
G01*
X176567500Y-157089999D02*
G75*
G03*
X174103338Y-159013960I0J-2540000D01*
G01*
X324522500Y-133595000D02*
X324522500Y-133976000D01*
X313092500Y-136135000D02*
X313092500Y-136516000D01*
X313092500Y-139564000D02*
X313092500Y-139945000D01*
X324522500Y-138040000D02*
X319442500Y-138040000D01*
X315632500Y-133595000D02*
X324522500Y-133595000D01*
X316978338Y-139945000D02*
X315251500Y-139945000D01*
X324522500Y-137024000D02*
X324522500Y-138040000D01*
X313473500Y-139945000D02*
X313092500Y-139945000D01*
X315632500Y-133595000D02*
G75*
G03*
X313092500Y-136135000I1J-2540001D01*
G01*
X319442500Y-138039999D02*
G75*
G03*
X316978338Y-139963960I0J-2540000D01*
G01*
X130117250Y-178045000D02*
X129736250Y-178045000D01*
X132276250Y-171695000D02*
X141166250Y-171695000D01*
X141166250Y-176140000D02*
X136086250Y-176140000D01*
X141166250Y-171695000D02*
X141166250Y-172076000D01*
X129736250Y-177664000D02*
X129736250Y-178045000D01*
X141166250Y-175124000D02*
X141166250Y-176140000D01*
X133622088Y-178045000D02*
X131895250Y-178045000D01*
X129736250Y-174235000D02*
X129736250Y-174616000D01*
X136086250Y-176139999D02*
G75*
G03*
X133622088Y-178063960I0J-2540000D01*
G01*
X132276250Y-171695000D02*
G75*
G03*
X129736250Y-174235000I1J-2540001D01*
G01*
X376910000Y-114227500D02*
X371830000Y-114227500D01*
X369365838Y-116132500D02*
X367639000Y-116132500D01*
X365480000Y-115751500D02*
X365480000Y-116132500D01*
X365480000Y-112322500D02*
X365480000Y-112703500D01*
X376910000Y-113211500D02*
X376910000Y-114227500D01*
X365861000Y-116132500D02*
X365480000Y-116132500D01*
X368020000Y-109782500D02*
X376910000Y-109782500D01*
X376910000Y-109782500D02*
X376910000Y-110163500D01*
X371830000Y-114227499D02*
G75*
G03*
X369365838Y-116151460I0J-2540000D01*
G01*
X368020000Y-109782500D02*
G75*
G03*
X365480000Y-112322500I1J-2540001D01*
G01*
X151548500Y-158995000D02*
X151167500Y-158995000D01*
X155053338Y-158995000D02*
X153326500Y-158995000D01*
X151167500Y-158614000D02*
X151167500Y-158995000D01*
X153707500Y-152645000D02*
X162597500Y-152645000D01*
X162597500Y-152645000D02*
X162597500Y-153026000D01*
X151167500Y-155185000D02*
X151167500Y-155566000D01*
X162597500Y-157090000D02*
X157517500Y-157090000D01*
X162597500Y-156074000D02*
X162597500Y-157090000D01*
X153707500Y-152645000D02*
G75*
G03*
X151167500Y-155185000I1J-2540001D01*
G01*
X157517500Y-157089999D02*
G75*
G03*
X155053338Y-159013960I0J-2540000D01*
G01*
X210857500Y-152645000D02*
X219747500Y-152645000D01*
X219747500Y-152645000D02*
X219747500Y-153026000D01*
X208317500Y-158614000D02*
X208317500Y-158995000D01*
X208698500Y-158995000D02*
X208317500Y-158995000D01*
X219747500Y-157090000D02*
X214667500Y-157090000D01*
X219747500Y-156074000D02*
X219747500Y-157090000D01*
X208317500Y-155185000D02*
X208317500Y-155566000D01*
X212203338Y-158995000D02*
X210476500Y-158995000D01*
X210857500Y-152645000D02*
G75*
G03*
X208317500Y-155185000I1J-2540001D01*
G01*
X214667500Y-157089999D02*
G75*
G03*
X212203338Y-159013960I0J-2540000D01*
G01*
X270230000Y-177664000D02*
X270230000Y-178045000D01*
X281660000Y-171695000D02*
X281660000Y-172076000D01*
X270230000Y-174235000D02*
X270230000Y-174616000D01*
X281660000Y-176140000D02*
X276580000Y-176140000D01*
X281660000Y-175124000D02*
X281660000Y-176140000D01*
X274115838Y-178045000D02*
X272389000Y-178045000D01*
X270611000Y-178045000D02*
X270230000Y-178045000D01*
X272770000Y-171695000D02*
X281660000Y-171695000D01*
X272770000Y-171695000D02*
G75*
G03*
X270230000Y-174235000I1J-2540001D01*
G01*
X276580000Y-176139999D02*
G75*
G03*
X274115838Y-178063960I0J-2540000D01*
G01*
X322617500Y-158614000D02*
X322617500Y-158995000D01*
X322617500Y-155185000D02*
X322617500Y-155566000D01*
X334047500Y-152645000D02*
X334047500Y-153026000D01*
X322998500Y-158995000D02*
X322617500Y-158995000D01*
X326503338Y-158995000D02*
X324776500Y-158995000D01*
X334047500Y-156074000D02*
X334047500Y-157090000D01*
X334047500Y-157090000D02*
X328967500Y-157090000D01*
X325157500Y-152645000D02*
X334047500Y-152645000D01*
X328967500Y-157089999D02*
G75*
G03*
X326503338Y-159013960I0J-2540000D01*
G01*
X325157500Y-152645000D02*
G75*
G03*
X322617500Y-155185000I1J-2540001D01*
G01*
X194030000Y-177664000D02*
X194030000Y-178045000D01*
X194411000Y-178045000D02*
X194030000Y-178045000D01*
X194030000Y-174235000D02*
X194030000Y-174616000D01*
X196570000Y-171695000D02*
X205460000Y-171695000D01*
X205460000Y-171695000D02*
X205460000Y-172076000D01*
X205460000Y-176140000D02*
X200380000Y-176140000D01*
X205460000Y-175124000D02*
X205460000Y-176140000D01*
X197915838Y-178045000D02*
X196189000Y-178045000D01*
X196570000Y-171695000D02*
G75*
G03*
X194030000Y-174235000I1J-2540001D01*
G01*
X200380000Y-176139999D02*
G75*
G03*
X197915838Y-178063960I0J-2540000D01*
G01*
X206095000Y-109782500D02*
X214985000Y-109782500D01*
X207440838Y-116132500D02*
X205714000Y-116132500D01*
X203555000Y-115751500D02*
X203555000Y-116132500D01*
X214985000Y-109782500D02*
X214985000Y-110163500D01*
X214985000Y-114227500D02*
X209905000Y-114227500D01*
X203555000Y-112322500D02*
X203555000Y-112703500D01*
X214985000Y-113211500D02*
X214985000Y-114227500D01*
X203936000Y-116132500D02*
X203555000Y-116132500D01*
X209905000Y-114227499D02*
G75*
G03*
X207440838Y-116151460I0J-2540000D01*
G01*
X206095000Y-109782500D02*
G75*
G03*
X203555000Y-112322500I1J-2540001D01*
G01*
X244195000Y-190745000D02*
X253085000Y-190745000D01*
X253085000Y-190745000D02*
X253085000Y-191126000D01*
X253085000Y-194174000D02*
X253085000Y-195190000D01*
X242036000Y-197095000D02*
X241655000Y-197095000D01*
X253085000Y-195190000D02*
X248005000Y-195190000D01*
X245540838Y-197095000D02*
X243814000Y-197095000D01*
X241655000Y-196714000D02*
X241655000Y-197095000D01*
X241655000Y-193285000D02*
X241655000Y-193666000D01*
X248005000Y-195189999D02*
G75*
G03*
X245540838Y-197113960I0J-2540000D01*
G01*
X244195000Y-190745000D02*
G75*
G03*
X241655000Y-193285000I1J-2540001D01*
G01*
X329285000Y-190745000D02*
X329285000Y-191126000D01*
X318236000Y-197095000D02*
X317855000Y-197095000D01*
X329285000Y-195190000D02*
X324205000Y-195190000D01*
X317855000Y-196714000D02*
X317855000Y-197095000D01*
X321740838Y-197095000D02*
X320014000Y-197095000D01*
X329285000Y-194174000D02*
X329285000Y-195190000D01*
X320395000Y-190745000D02*
X329285000Y-190745000D01*
X317855000Y-193285000D02*
X317855000Y-193666000D01*
X324205000Y-195189999D02*
G75*
G03*
X321740838Y-197113960I0J-2540000D01*
G01*
X320395000Y-190745000D02*
G75*
G03*
X317855000Y-193285000I1J-2540001D01*
G01*
X238797500Y-113211500D02*
X238797500Y-114227500D01*
X227748500Y-116132500D02*
X227367500Y-116132500D01*
X238797500Y-109782500D02*
X238797500Y-110163500D01*
X238797500Y-114227500D02*
X233717500Y-114227500D01*
X231253338Y-116132500D02*
X229526500Y-116132500D01*
X227367500Y-112322500D02*
X227367500Y-112703500D01*
X229907500Y-109782500D02*
X238797500Y-109782500D01*
X227367500Y-115751500D02*
X227367500Y-116132500D01*
X229907500Y-109782500D02*
G75*
G03*
X227367500Y-112322500I1J-2540001D01*
G01*
X233717500Y-114227499D02*
G75*
G03*
X231253338Y-116151460I0J-2540000D01*
G01*
X186410000Y-176140000D02*
X181330000Y-176140000D01*
X186410000Y-175124000D02*
X186410000Y-176140000D01*
X177520000Y-171695000D02*
X186410000Y-171695000D01*
X178865838Y-178045000D02*
X177139000Y-178045000D01*
X186410000Y-171695000D02*
X186410000Y-172076000D01*
X174980000Y-177664000D02*
X174980000Y-178045000D01*
X175361000Y-178045000D02*
X174980000Y-178045000D01*
X174980000Y-174235000D02*
X174980000Y-174616000D01*
X181330000Y-176139999D02*
G75*
G03*
X178865838Y-178063960I0J-2540000D01*
G01*
X177520000Y-171695000D02*
G75*
G03*
X174980000Y-174235000I1J-2540001D01*
G01*
X157835000Y-109782500D02*
X157835000Y-110163500D01*
X148945000Y-109782500D02*
X157835000Y-109782500D01*
X146786000Y-116132500D02*
X146405000Y-116132500D01*
X146405000Y-112322500D02*
X146405000Y-112703500D01*
X150290838Y-116132500D02*
X148564000Y-116132500D01*
X146405000Y-115751500D02*
X146405000Y-116132500D01*
X157835000Y-113211500D02*
X157835000Y-114227500D01*
X157835000Y-114227500D02*
X152755000Y-114227500D01*
X148945000Y-109782500D02*
G75*
G03*
X146405000Y-112322500I1J-2540001D01*
G01*
X152755000Y-114227499D02*
G75*
G03*
X150290838Y-116151460I0J-2540000D01*
G01*
X195935000Y-109782500D02*
X195935000Y-110163500D01*
X187045000Y-109782500D02*
X195935000Y-109782500D01*
X188390838Y-116132500D02*
X186664000Y-116132500D01*
X184886000Y-116132500D02*
X184505000Y-116132500D01*
X195935000Y-113211500D02*
X195935000Y-114227500D01*
X195935000Y-114227500D02*
X190855000Y-114227500D01*
X184505000Y-115751500D02*
X184505000Y-116132500D01*
X184505000Y-112322500D02*
X184505000Y-112703500D01*
X190855000Y-114227499D02*
G75*
G03*
X188390838Y-116151460I0J-2540000D01*
G01*
X187045000Y-109782500D02*
G75*
G03*
X184505000Y-112322500I1J-2540001D01*
G01*
X364603338Y-158995000D02*
X362876500Y-158995000D01*
X363257500Y-152645000D02*
X372147500Y-152645000D01*
X360717500Y-158614000D02*
X360717500Y-158995000D01*
X372147500Y-157090000D02*
X367067500Y-157090000D01*
X361098500Y-158995000D02*
X360717500Y-158995000D01*
X372147500Y-156074000D02*
X372147500Y-157090000D01*
X360717500Y-155185000D02*
X360717500Y-155566000D01*
X372147500Y-152645000D02*
X372147500Y-153026000D01*
X367067500Y-157089999D02*
G75*
G03*
X364603338Y-159013960I0J-2540000D01*
G01*
X363257500Y-152645000D02*
G75*
G03*
X360717500Y-155185000I1J-2540001D01*
G01*
X172122500Y-133595000D02*
X172122500Y-133976000D01*
X172122500Y-137024000D02*
X172122500Y-138040000D01*
X163232500Y-133595000D02*
X172122500Y-133595000D01*
X172122500Y-138040000D02*
X167042500Y-138040000D01*
X160692500Y-136135000D02*
X160692500Y-136516000D01*
X160692500Y-139564000D02*
X160692500Y-139945000D01*
X164578338Y-139945000D02*
X162851500Y-139945000D01*
X161073500Y-139945000D02*
X160692500Y-139945000D01*
X163232500Y-133595000D02*
G75*
G03*
X160692500Y-136135000I1J-2540001D01*
G01*
X167042500Y-138039999D02*
G75*
G03*
X164578338Y-139963960I0J-2540000D01*
G01*
X187045000Y-190745000D02*
X195935000Y-190745000D01*
X195935000Y-194174000D02*
X195935000Y-195190000D01*
X195935000Y-195190000D02*
X190855000Y-195190000D01*
X184505000Y-196714000D02*
X184505000Y-197095000D01*
X184886000Y-197095000D02*
X184505000Y-197095000D01*
X188390838Y-197095000D02*
X186664000Y-197095000D01*
X195935000Y-190745000D02*
X195935000Y-191126000D01*
X184505000Y-193285000D02*
X184505000Y-193666000D01*
X187045000Y-190745000D02*
G75*
G03*
X184505000Y-193285000I1J-2540001D01*
G01*
X190855000Y-195189999D02*
G75*
G03*
X188390838Y-197113960I0J-2540000D01*
G01*
X179742500Y-136135000D02*
X179742500Y-136516000D01*
X191172500Y-138040000D02*
X186092500Y-138040000D01*
X183628338Y-139945000D02*
X181901500Y-139945000D01*
X179742500Y-139564000D02*
X179742500Y-139945000D01*
X191172500Y-133595000D02*
X191172500Y-133976000D01*
X180123500Y-139945000D02*
X179742500Y-139945000D01*
X191172500Y-137024000D02*
X191172500Y-138040000D01*
X182282500Y-133595000D02*
X191172500Y-133595000D01*
X186092500Y-138039999D02*
G75*
G03*
X183628338Y-139963960I0J-2540000D01*
G01*
X182282500Y-133595000D02*
G75*
G03*
X179742500Y-136135000I1J-2540001D01*
G01*
X149167250Y-216145000D02*
X148786250Y-216145000D01*
X160216250Y-213224000D02*
X160216250Y-214240000D01*
X148786250Y-212335000D02*
X148786250Y-212716000D01*
X151326250Y-209795000D02*
X160216250Y-209795000D01*
X160216250Y-214240000D02*
X155136250Y-214240000D01*
X152672088Y-216145000D02*
X150945250Y-216145000D01*
X160216250Y-209795000D02*
X160216250Y-210176000D01*
X148786250Y-215764000D02*
X148786250Y-216145000D01*
X155136250Y-214239999D02*
G75*
G03*
X152672088Y-216163960I0J-2540000D01*
G01*
X151326250Y-209795000D02*
G75*
G03*
X148786250Y-212335000I1J-2540001D01*
G01*
X172598750Y-215764000D02*
X172598750Y-216145000D01*
X172598750Y-212335000D02*
X172598750Y-212716000D01*
X184028750Y-209795000D02*
X184028750Y-210176000D01*
X184028750Y-213224000D02*
X184028750Y-214240000D01*
X175138750Y-209795000D02*
X184028750Y-209795000D01*
X176484588Y-216145000D02*
X174757750Y-216145000D01*
X172979750Y-216145000D02*
X172598750Y-216145000D01*
X184028750Y-214240000D02*
X178948750Y-214240000D01*
X178948750Y-214239999D02*
G75*
G03*
X176484588Y-216163960I0J-2540000D01*
G01*
X175138750Y-209795000D02*
G75*
G03*
X172598750Y-212335000I1J-2540001D01*
G01*
X410247500Y-195190000D02*
X405167500Y-195190000D01*
X401357500Y-190745000D02*
X410247500Y-190745000D01*
X398817500Y-193285000D02*
X398817500Y-193666000D01*
X402703338Y-197095000D02*
X400976500Y-197095000D01*
X398817500Y-196714000D02*
X398817500Y-197095000D01*
X410247500Y-190745000D02*
X410247500Y-191126000D01*
X399198500Y-197095000D02*
X398817500Y-197095000D01*
X410247500Y-194174000D02*
X410247500Y-195190000D01*
X405167500Y-195189999D02*
G75*
G03*
X402703338Y-197113960I0J-2540000D01*
G01*
X401357500Y-190745000D02*
G75*
G03*
X398817500Y-193285000I1J-2540001D01*
G01*
X367861250Y-193285000D02*
X367861250Y-193666000D01*
X379291250Y-194174000D02*
X379291250Y-195190000D01*
X368242250Y-197095000D02*
X367861250Y-197095000D01*
X371747088Y-197095000D02*
X370020250Y-197095000D01*
X379291250Y-190745000D02*
X379291250Y-191126000D01*
X367861250Y-196714000D02*
X367861250Y-197095000D01*
X379291250Y-195190000D02*
X374211250Y-195190000D01*
X370401250Y-190745000D02*
X379291250Y-190745000D01*
X370401250Y-190745000D02*
G75*
G03*
X367861250Y-193285000I1J-2540001D01*
G01*
X374211250Y-195189999D02*
G75*
G03*
X371747088Y-197113960I0J-2540000D01*
G01*
X138785000Y-156074000D02*
X138785000Y-157090000D01*
X131240838Y-158995000D02*
X129514000Y-158995000D01*
X138785000Y-152645000D02*
X138785000Y-153026000D01*
X129895000Y-152645000D02*
X138785000Y-152645000D01*
X138785000Y-157090000D02*
X133705000Y-157090000D01*
X127355000Y-155185000D02*
X127355000Y-155566000D01*
X127736000Y-158995000D02*
X127355000Y-158995000D01*
X127355000Y-158614000D02*
X127355000Y-158995000D01*
X129895000Y-152645000D02*
G75*
G03*
X127355000Y-155185000I1J-2540001D01*
G01*
X133705000Y-157089999D02*
G75*
G03*
X131240838Y-159013960I0J-2540000D01*
G01*
X217842500Y-139564000D02*
X217842500Y-139945000D01*
X229272500Y-138040000D02*
X224192500Y-138040000D01*
X229272500Y-133595000D02*
X229272500Y-133976000D01*
X218223500Y-139945000D02*
X217842500Y-139945000D01*
X217842500Y-136135000D02*
X217842500Y-136516000D01*
X220382500Y-133595000D02*
X229272500Y-133595000D01*
X229272500Y-137024000D02*
X229272500Y-138040000D01*
X221728338Y-139945000D02*
X220001500Y-139945000D01*
X220382500Y-133595000D02*
G75*
G03*
X217842500Y-136135000I1J-2540001D01*
G01*
X224192500Y-138039999D02*
G75*
G03*
X221728338Y-139963960I0J-2540000D01*
G01*
X415010000Y-153851500D02*
X415010000Y-154232500D01*
X426440000Y-147882500D02*
X426440000Y-148263500D01*
X426440000Y-151311500D02*
X426440000Y-152327500D01*
X415010000Y-150422500D02*
X415010000Y-150803500D01*
X415391000Y-154232500D02*
X415010000Y-154232500D01*
X426440000Y-152327500D02*
X421360000Y-152327500D01*
X418895838Y-154232500D02*
X417169000Y-154232500D01*
X417550000Y-147882500D02*
X426440000Y-147882500D01*
X421360000Y-152327499D02*
G75*
G03*
X418895838Y-154251460I0J-2540000D01*
G01*
X417550000Y-147882500D02*
G75*
G03*
X415010000Y-150422500I1J-2540001D01*
G01*
X246417500Y-112322500D02*
X246417500Y-112703500D01*
X250303338Y-116132500D02*
X248576500Y-116132500D01*
X257847500Y-114227500D02*
X252767500Y-114227500D01*
X246798500Y-116132500D02*
X246417500Y-116132500D01*
X248957500Y-109782500D02*
X257847500Y-109782500D01*
X257847500Y-113211500D02*
X257847500Y-114227500D01*
X246417500Y-115751500D02*
X246417500Y-116132500D01*
X257847500Y-109782500D02*
X257847500Y-110163500D01*
X248957500Y-109782500D02*
G75*
G03*
X246417500Y-112322500I1J-2540001D01*
G01*
X252767500Y-114227499D02*
G75*
G03*
X250303338Y-116151460I0J-2540000D01*
G01*
X207440838Y-197095000D02*
X205714000Y-197095000D01*
X206095000Y-190745000D02*
X214985000Y-190745000D01*
X214985000Y-194174000D02*
X214985000Y-195190000D01*
X203555000Y-196714000D02*
X203555000Y-197095000D01*
X203936000Y-197095000D02*
X203555000Y-197095000D01*
X214985000Y-190745000D02*
X214985000Y-191126000D01*
X203555000Y-193285000D02*
X203555000Y-193666000D01*
X214985000Y-195190000D02*
X209905000Y-195190000D01*
X206095000Y-190745000D02*
G75*
G03*
X203555000Y-193285000I1J-2540001D01*
G01*
X209905000Y-195189999D02*
G75*
G03*
X207440838Y-197113960I0J-2540000D01*
G01*
X426440000Y-114227500D02*
X421360000Y-114227500D01*
X415010000Y-115751500D02*
X415010000Y-116132500D01*
X426440000Y-113211500D02*
X426440000Y-114227500D01*
X426440000Y-109782500D02*
X426440000Y-110163500D01*
X415391000Y-116132500D02*
X415010000Y-116132500D01*
X415010000Y-112322500D02*
X415010000Y-112703500D01*
X418895838Y-116132500D02*
X417169000Y-116132500D01*
X417550000Y-109782500D02*
X426440000Y-109782500D01*
X417550000Y-109782500D02*
G75*
G03*
X415010000Y-112322500I1J-2540001D01*
G01*
X421360000Y-114227499D02*
G75*
G03*
X418895838Y-116151460I0J-2540000D01*
G01*
X415010000Y-172901500D02*
X415010000Y-173282500D01*
X426440000Y-166932500D02*
X426440000Y-167313500D01*
X417550000Y-166932500D02*
X426440000Y-166932500D01*
X415010000Y-169472500D02*
X415010000Y-169853500D01*
X426440000Y-171377500D02*
X421360000Y-171377500D01*
X418895838Y-173282500D02*
X417169000Y-173282500D01*
X415391000Y-173282500D02*
X415010000Y-173282500D01*
X426440000Y-170361500D02*
X426440000Y-171377500D01*
X417550000Y-166932500D02*
G75*
G03*
X415010000Y-169472500I1J-2540001D01*
G01*
X421360000Y-171377499D02*
G75*
G03*
X418895838Y-173301460I0J-2540000D01*
G01*
X176885000Y-109782500D02*
X176885000Y-110163500D01*
X167995000Y-109782500D02*
X176885000Y-109782500D01*
X165455000Y-112322500D02*
X165455000Y-112703500D01*
X169340838Y-116132500D02*
X167614000Y-116132500D01*
X176885000Y-114227500D02*
X171805000Y-114227500D01*
X165455000Y-115751500D02*
X165455000Y-116132500D01*
X176885000Y-113211500D02*
X176885000Y-114227500D01*
X165836000Y-116132500D02*
X165455000Y-116132500D01*
X167995000Y-109782500D02*
G75*
G03*
X165455000Y-112322500I1J-2540001D01*
G01*
X171805000Y-114227499D02*
G75*
G03*
X169340838Y-116151460I0J-2540000D01*
G01*
X308330000Y-112322500D02*
X308330000Y-112703500D01*
X319760000Y-109782500D02*
X319760000Y-110163500D01*
X308711000Y-116132500D02*
X308330000Y-116132500D01*
X319760000Y-113211500D02*
X319760000Y-114227500D01*
X319760000Y-114227500D02*
X314680000Y-114227500D01*
X310870000Y-109782500D02*
X319760000Y-109782500D01*
X312215838Y-116132500D02*
X310489000Y-116132500D01*
X308330000Y-115751500D02*
X308330000Y-116132500D01*
X310870000Y-109782500D02*
G75*
G03*
X308330000Y-112322500I1J-2540001D01*
G01*
X314680000Y-114227499D02*
G75*
G03*
X312215838Y-116151460I0J-2540000D01*
G01*
X346430000Y-112322500D02*
X346430000Y-112703500D01*
X357860000Y-114227500D02*
X352780000Y-114227500D01*
X357860000Y-109782500D02*
X357860000Y-110163500D01*
X348970000Y-109782500D02*
X357860000Y-109782500D01*
X357860000Y-113211500D02*
X357860000Y-114227500D01*
X350315838Y-116132500D02*
X348589000Y-116132500D01*
X346430000Y-115751500D02*
X346430000Y-116132500D01*
X346811000Y-116132500D02*
X346430000Y-116132500D01*
X348970000Y-109782500D02*
G75*
G03*
X346430000Y-112322500I1J-2540001D01*
G01*
X352780000Y-114227499D02*
G75*
G03*
X350315838Y-116151460I0J-2540000D01*
G01*
X415010000Y-131372500D02*
X415010000Y-131753500D01*
X418895838Y-135182500D02*
X417169000Y-135182500D01*
X426440000Y-132261500D02*
X426440000Y-133277500D01*
X415391000Y-135182500D02*
X415010000Y-135182500D01*
X426440000Y-133277500D02*
X421360000Y-133277500D01*
X417550000Y-128832500D02*
X426440000Y-128832500D01*
X415010000Y-134801500D02*
X415010000Y-135182500D01*
X426440000Y-128832500D02*
X426440000Y-129213500D01*
X417550000Y-128832500D02*
G75*
G03*
X415010000Y-131372500I1J-2540001D01*
G01*
X421360000Y-133277499D02*
G75*
G03*
X418895838Y-135201460I0J-2540000D01*
G01*
X421753338Y-216145000D02*
X420026500Y-216145000D01*
X418248500Y-216145000D02*
X417867500Y-216145000D01*
X417867500Y-212335000D02*
X417867500Y-212716000D01*
X420407500Y-209795000D02*
X429297500Y-209795000D01*
X429297500Y-214240000D02*
X424217500Y-214240000D01*
X417867500Y-215764000D02*
X417867500Y-216145000D01*
X429297500Y-213224000D02*
X429297500Y-214240000D01*
X429297500Y-209795000D02*
X429297500Y-210176000D01*
X424217500Y-214239999D02*
G75*
G03*
X421753338Y-216163960I0J-2540000D01*
G01*
X420407500Y-209795000D02*
G75*
G03*
X417867500Y-212335000I1J-2540001D01*
G01*
X267372500Y-137024000D02*
X267372500Y-138040000D01*
X255942500Y-139564000D02*
X255942500Y-139945000D01*
X259828338Y-139945000D02*
X258101500Y-139945000D01*
X255942500Y-136135000D02*
X255942500Y-136516000D01*
X267372500Y-133595000D02*
X267372500Y-133976000D01*
X267372500Y-138040000D02*
X262292500Y-138040000D01*
X256323500Y-139945000D02*
X255942500Y-139945000D01*
X258482500Y-133595000D02*
X267372500Y-133595000D01*
X258482500Y-133595000D02*
G75*
G03*
X255942500Y-136135000I1J-2540001D01*
G01*
X262292500Y-138039999D02*
G75*
G03*
X259828338Y-139963960I0J-2540000D01*
G01*
X284898500Y-116132500D02*
X284517500Y-116132500D01*
X288403338Y-116132500D02*
X286676500Y-116132500D01*
X295947500Y-109782500D02*
X295947500Y-110163500D01*
X295947500Y-113211500D02*
X295947500Y-114227500D01*
X284517500Y-112322500D02*
X284517500Y-112703500D01*
X287057500Y-109782500D02*
X295947500Y-109782500D01*
X284517500Y-115751500D02*
X284517500Y-116132500D01*
X295947500Y-114227500D02*
X290867500Y-114227500D01*
X290867500Y-114227499D02*
G75*
G03*
X288403338Y-116151460I0J-2540000D01*
G01*
X287057500Y-109782500D02*
G75*
G03*
X284517500Y-112322500I1J-2540001D01*
G01*
X346811000Y-178045000D02*
X346430000Y-178045000D01*
X348970000Y-171695000D02*
X357860000Y-171695000D01*
X357860000Y-175124000D02*
X357860000Y-176140000D01*
X346430000Y-174235000D02*
X346430000Y-174616000D01*
X346430000Y-177664000D02*
X346430000Y-178045000D01*
X357860000Y-176140000D02*
X352780000Y-176140000D01*
X350315838Y-178045000D02*
X348589000Y-178045000D01*
X357860000Y-171695000D02*
X357860000Y-172076000D01*
X352780000Y-176139999D02*
G75*
G03*
X350315838Y-178063960I0J-2540000D01*
G01*
X348970000Y-171695000D02*
G75*
G03*
X346430000Y-174235000I1J-2540001D01*
G01*
X362622500Y-138040000D02*
X357542500Y-138040000D01*
X362622500Y-133595000D02*
X362622500Y-133976000D01*
X351573500Y-139945000D02*
X351192500Y-139945000D01*
X353732500Y-133595000D02*
X362622500Y-133595000D01*
X362622500Y-137024000D02*
X362622500Y-138040000D01*
X351192500Y-136135000D02*
X351192500Y-136516000D01*
X351192500Y-139564000D02*
X351192500Y-139945000D01*
X355078338Y-139945000D02*
X353351500Y-139945000D01*
X357542500Y-138039999D02*
G75*
G03*
X355078338Y-139963960I0J-2540000D01*
G01*
X353732500Y-133595000D02*
G75*
G03*
X351192500Y-136135000I1J-2540001D01*
G01*
X319760000Y-175124000D02*
X319760000Y-176140000D01*
X310870000Y-171695000D02*
X319760000Y-171695000D01*
X319760000Y-171695000D02*
X319760000Y-172076000D01*
X308330000Y-174235000D02*
X308330000Y-174616000D01*
X312215838Y-178045000D02*
X310489000Y-178045000D01*
X319760000Y-176140000D02*
X314680000Y-176140000D01*
X308711000Y-178045000D02*
X308330000Y-178045000D01*
X308330000Y-177664000D02*
X308330000Y-178045000D01*
X314680000Y-176139999D02*
G75*
G03*
X312215838Y-178063960I0J-2540000D01*
G01*
X310870000Y-171695000D02*
G75*
G03*
X308330000Y-174235000I1J-2540001D01*
G01*
X226490838Y-197095000D02*
X224764000Y-197095000D01*
X234035000Y-195190000D02*
X228955000Y-195190000D01*
X234035000Y-194174000D02*
X234035000Y-195190000D01*
X222605000Y-196714000D02*
X222605000Y-197095000D01*
X222605000Y-193285000D02*
X222605000Y-193666000D01*
X225145000Y-190745000D02*
X234035000Y-190745000D01*
X222986000Y-197095000D02*
X222605000Y-197095000D01*
X234035000Y-190745000D02*
X234035000Y-191126000D01*
X225145000Y-190745000D02*
G75*
G03*
X222605000Y-193285000I1J-2540001D01*
G01*
X228955000Y-195189999D02*
G75*
G03*
X226490838Y-197113960I0J-2540000D01*
G01*
X350716250Y-213224000D02*
X350716250Y-214240000D01*
X339286250Y-212335000D02*
X339286250Y-212716000D01*
X339667250Y-216145000D02*
X339286250Y-216145000D01*
X339286250Y-215764000D02*
X339286250Y-216145000D01*
X350716250Y-214240000D02*
X345636250Y-214240000D01*
X350716250Y-209795000D02*
X350716250Y-210176000D01*
X341826250Y-209795000D02*
X350716250Y-209795000D01*
X343172088Y-216145000D02*
X341445250Y-216145000D01*
X345636250Y-214239999D02*
G75*
G03*
X343172088Y-216163960I0J-2540000D01*
G01*
X341826250Y-209795000D02*
G75*
G03*
X339286250Y-212335000I1J-2540001D01*
G01*
X167995000Y-190745000D02*
X176885000Y-190745000D01*
X165836000Y-197095000D02*
X165455000Y-197095000D01*
X176885000Y-190745000D02*
X176885000Y-191126000D01*
X165455000Y-193285000D02*
X165455000Y-193666000D01*
X169340838Y-197095000D02*
X167614000Y-197095000D01*
X165455000Y-196714000D02*
X165455000Y-197095000D01*
X176885000Y-195190000D02*
X171805000Y-195190000D01*
X176885000Y-194174000D02*
X176885000Y-195190000D01*
X171805000Y-195189999D02*
G75*
G03*
X169340838Y-197113960I0J-2540000D01*
G01*
X167995000Y-190745000D02*
G75*
G03*
X165455000Y-193285000I1J-2540001D01*
G01*
X326903750Y-213224000D02*
X326903750Y-214240000D01*
X315854750Y-216145000D02*
X315473750Y-216145000D01*
X318013750Y-209795000D02*
X326903750Y-209795000D01*
X315473750Y-215764000D02*
X315473750Y-216145000D01*
X326903750Y-209795000D02*
X326903750Y-210176000D01*
X319359588Y-216145000D02*
X317632750Y-216145000D01*
X326903750Y-214240000D02*
X321823750Y-214240000D01*
X315473750Y-212335000D02*
X315473750Y-212716000D01*
X318013750Y-209795000D02*
G75*
G03*
X315473750Y-212335000I1J-2540001D01*
G01*
X321823750Y-214239999D02*
G75*
G03*
X319359588Y-216163960I0J-2540000D01*
G01*
X134879750Y-197095000D02*
X134498750Y-197095000D01*
X138384588Y-197095000D02*
X136657750Y-197095000D01*
X137038750Y-190745000D02*
X145928750Y-190745000D01*
X145928750Y-195190000D02*
X140848750Y-195190000D01*
X145928750Y-190745000D02*
X145928750Y-191126000D01*
X134498750Y-193285000D02*
X134498750Y-193666000D01*
X145928750Y-194174000D02*
X145928750Y-195190000D01*
X134498750Y-196714000D02*
X134498750Y-197095000D01*
X140848750Y-195189999D02*
G75*
G03*
X138384588Y-197113960I0J-2540000D01*
G01*
X137038750Y-190745000D02*
G75*
G03*
X134498750Y-193285000I1J-2540001D01*
G01*
X261086000Y-197095000D02*
X260705000Y-197095000D01*
X272135000Y-190745000D02*
X272135000Y-191126000D01*
X263245000Y-190745000D02*
X272135000Y-190745000D01*
X260705000Y-193285000D02*
X260705000Y-193666000D01*
X272135000Y-194174000D02*
X272135000Y-195190000D01*
X264590838Y-197095000D02*
X262864000Y-197095000D01*
X272135000Y-195190000D02*
X267055000Y-195190000D01*
X260705000Y-196714000D02*
X260705000Y-197095000D01*
X263245000Y-190745000D02*
G75*
G03*
X260705000Y-193285000I1J-2540001D01*
G01*
X267055000Y-195189999D02*
G75*
G03*
X264590838Y-197113960I0J-2540000D01*
G01*
X391197500Y-214240000D02*
X386117500Y-214240000D01*
X391197500Y-213224000D02*
X391197500Y-214240000D01*
X379767500Y-215764000D02*
X379767500Y-216145000D01*
X391197500Y-209795000D02*
X391197500Y-210176000D01*
X379767500Y-212335000D02*
X379767500Y-212716000D01*
X380148500Y-216145000D02*
X379767500Y-216145000D01*
X383653338Y-216145000D02*
X381926500Y-216145000D01*
X382307500Y-209795000D02*
X391197500Y-209795000D01*
X386117500Y-214239999D02*
G75*
G03*
X383653338Y-216163960I0J-2540000D01*
G01*
X382307500Y-209795000D02*
G75*
G03*
X379767500Y-212335000I1J-2540001D01*
G01*
X136403750Y-209795000D02*
X136403750Y-210176000D01*
X124973750Y-215764000D02*
X124973750Y-216145000D01*
X136403750Y-213224000D02*
X136403750Y-214240000D01*
X128859588Y-216145000D02*
X127132750Y-216145000D01*
X127513750Y-209795000D02*
X136403750Y-209795000D01*
X125354750Y-216145000D02*
X124973750Y-216145000D01*
X136403750Y-214240000D02*
X131323750Y-214240000D01*
X124973750Y-212335000D02*
X124973750Y-212716000D01*
X127513750Y-209795000D02*
G75*
G03*
X124973750Y-212335000I1J-2540001D01*
G01*
X131323750Y-214239999D02*
G75*
G03*
X128859588Y-216163960I0J-2540000D01*
G01*
X327761000Y-116132500D02*
X327380000Y-116132500D01*
X338810000Y-114227500D02*
X333730000Y-114227500D01*
X327380000Y-112322500D02*
X327380000Y-112703500D01*
X338810000Y-113211500D02*
X338810000Y-114227500D01*
X338810000Y-109782500D02*
X338810000Y-110163500D01*
X329920000Y-109782500D02*
X338810000Y-109782500D01*
X331265838Y-116132500D02*
X329539000Y-116132500D01*
X327380000Y-115751500D02*
X327380000Y-116132500D01*
X333730000Y-114227499D02*
G75*
G03*
X331265838Y-116151460I0J-2540000D01*
G01*
X329920000Y-109782500D02*
G75*
G03*
X327380000Y-112322500I1J-2540001D01*
G01*
X338810000Y-176140000D02*
X333730000Y-176140000D01*
X327761000Y-178045000D02*
X327380000Y-178045000D01*
X331265838Y-178045000D02*
X329539000Y-178045000D01*
X327380000Y-177664000D02*
X327380000Y-178045000D01*
X338810000Y-175124000D02*
X338810000Y-176140000D01*
X329920000Y-171695000D02*
X338810000Y-171695000D01*
X338810000Y-171695000D02*
X338810000Y-172076000D01*
X327380000Y-174235000D02*
X327380000Y-174616000D01*
X329920000Y-171695000D02*
G75*
G03*
X327380000Y-174235000I1J-2540001D01*
G01*
X333730000Y-176139999D02*
G75*
G03*
X331265838Y-178063960I0J-2540000D01*
G01*
X299186000Y-197095000D02*
X298805000Y-197095000D01*
X298805000Y-196714000D02*
X298805000Y-197095000D01*
X310235000Y-195190000D02*
X305155000Y-195190000D01*
X310235000Y-190745000D02*
X310235000Y-191126000D01*
X302690838Y-197095000D02*
X300964000Y-197095000D01*
X298805000Y-193285000D02*
X298805000Y-193666000D01*
X310235000Y-194174000D02*
X310235000Y-195190000D01*
X301345000Y-190745000D02*
X310235000Y-190745000D01*
X301345000Y-190745000D02*
G75*
G03*
X298805000Y-193285000I1J-2540001D01*
G01*
X305155000Y-195189999D02*
G75*
G03*
X302690838Y-197113960I0J-2540000D01*
G01*
X227367500Y-155185000D02*
X227367500Y-155566000D01*
X231253338Y-158995000D02*
X229526500Y-158995000D01*
X238797500Y-156074000D02*
X238797500Y-157090000D01*
X238797500Y-157090000D02*
X233717500Y-157090000D01*
X229907500Y-152645000D02*
X238797500Y-152645000D01*
X227367500Y-158614000D02*
X227367500Y-158995000D01*
X227748500Y-158995000D02*
X227367500Y-158995000D01*
X238797500Y-152645000D02*
X238797500Y-153026000D01*
X233717500Y-157089999D02*
G75*
G03*
X231253338Y-159013960I0J-2540000D01*
G01*
X229907500Y-152645000D02*
G75*
G03*
X227367500Y-155185000I1J-2540001D01*
G01*
X198792500Y-139564000D02*
X198792500Y-139945000D01*
X198792500Y-136135000D02*
X198792500Y-136516000D01*
X210222500Y-138040000D02*
X205142500Y-138040000D01*
X199173500Y-139945000D02*
X198792500Y-139945000D01*
X210222500Y-133595000D02*
X210222500Y-133976000D01*
X201332500Y-133595000D02*
X210222500Y-133595000D01*
X210222500Y-137024000D02*
X210222500Y-138040000D01*
X202678338Y-139945000D02*
X200951500Y-139945000D01*
X205142500Y-138039999D02*
G75*
G03*
X202678338Y-139963960I0J-2540000D01*
G01*
X201332500Y-133595000D02*
G75*
G03*
X198792500Y-136135000I1J-2540001D01*
G01*
X402703338Y-216145000D02*
X400976500Y-216145000D01*
X410247500Y-209795000D02*
X410247500Y-210176000D01*
X401357500Y-209795000D02*
X410247500Y-209795000D01*
X410247500Y-213224000D02*
X410247500Y-214240000D01*
X399198500Y-216145000D02*
X398817500Y-216145000D01*
X398817500Y-215764000D02*
X398817500Y-216145000D01*
X398817500Y-212335000D02*
X398817500Y-212716000D01*
X410247500Y-214240000D02*
X405167500Y-214240000D01*
X401357500Y-209795000D02*
G75*
G03*
X398817500Y-212335000I1J-2540001D01*
G01*
X405167500Y-214239999D02*
G75*
G03*
X402703338Y-216163960I0J-2540000D01*
G01*
X291185000Y-194174000D02*
X291185000Y-195190000D01*
X283640838Y-197095000D02*
X281914000Y-197095000D01*
X282295000Y-190745000D02*
X291185000Y-190745000D01*
X291185000Y-195190000D02*
X286105000Y-195190000D01*
X279755000Y-196714000D02*
X279755000Y-197095000D01*
X280136000Y-197095000D02*
X279755000Y-197095000D01*
X291185000Y-190745000D02*
X291185000Y-191126000D01*
X279755000Y-193285000D02*
X279755000Y-193666000D01*
X286105000Y-195189999D02*
G75*
G03*
X283640838Y-197113960I0J-2540000D01*
G01*
X282295000Y-190745000D02*
G75*
G03*
X279755000Y-193285000I1J-2540001D01*
G01*
X134022500Y-109782500D02*
X134022500Y-110163500D01*
X134022500Y-113211500D02*
X134022500Y-114227500D01*
X126478338Y-116132500D02*
X124751500Y-116132500D01*
X125132500Y-109782500D02*
X134022500Y-109782500D01*
X122592500Y-112322500D02*
X122592500Y-112703500D01*
X122592500Y-115751500D02*
X122592500Y-116132500D01*
X122973500Y-116132500D02*
X122592500Y-116132500D01*
X134022500Y-114227500D02*
X128942500Y-114227500D01*
X125132500Y-109782500D02*
G75*
G03*
X122592500Y-112322500I1J-2540001D01*
G01*
X128942500Y-114227499D02*
G75*
G03*
X126478338Y-116151460I0J-2540000D01*
G01*
X341667500Y-155185000D02*
X341667500Y-155566000D01*
X353097500Y-157090000D02*
X348017500Y-157090000D01*
X341667500Y-158614000D02*
X341667500Y-158995000D01*
X345553338Y-158995000D02*
X343826500Y-158995000D01*
X344207500Y-152645000D02*
X353097500Y-152645000D01*
X353097500Y-152645000D02*
X353097500Y-153026000D01*
X353097500Y-156074000D02*
X353097500Y-157090000D01*
X342048500Y-158995000D02*
X341667500Y-158995000D01*
X344207500Y-152645000D02*
G75*
G03*
X341667500Y-155185000I1J-2540001D01*
G01*
X348017500Y-157089999D02*
G75*
G03*
X345553338Y-159013960I0J-2540000D01*
G01*
X286422500Y-137024000D02*
X286422500Y-138040000D01*
X277532500Y-133595000D02*
X286422500Y-133595000D01*
X274992500Y-139564000D02*
X274992500Y-139945000D01*
X274992500Y-136135000D02*
X274992500Y-136516000D01*
X278878338Y-139945000D02*
X277151500Y-139945000D01*
X286422500Y-133595000D02*
X286422500Y-133976000D01*
X275373500Y-139945000D02*
X274992500Y-139945000D01*
X286422500Y-138040000D02*
X281342500Y-138040000D01*
X277532500Y-133595000D02*
G75*
G03*
X274992500Y-136135000I1J-2540001D01*
G01*
X281342500Y-138039999D02*
G75*
G03*
X278878338Y-139963960I0J-2540000D01*
G01*
X224510000Y-175124000D02*
X224510000Y-176140000D01*
X224510000Y-171695000D02*
X224510000Y-172076000D01*
X215620000Y-171695000D02*
X224510000Y-171695000D01*
X216965838Y-178045000D02*
X215239000Y-178045000D01*
X213461000Y-178045000D02*
X213080000Y-178045000D01*
X224510000Y-176140000D02*
X219430000Y-176140000D01*
X213080000Y-174235000D02*
X213080000Y-174616000D01*
X213080000Y-177664000D02*
X213080000Y-178045000D01*
X219430000Y-176139999D02*
G75*
G03*
X216965838Y-178063960I0J-2540000D01*
G01*
X215620000Y-171695000D02*
G75*
G03*
X213080000Y-174235000I1J-2540001D01*
G01*
X257847500Y-156074000D02*
X257847500Y-157090000D01*
X246417500Y-155185000D02*
X246417500Y-155566000D01*
X257847500Y-157090000D02*
X252767500Y-157090000D01*
X248957500Y-152645000D02*
X257847500Y-152645000D01*
X246798500Y-158995000D02*
X246417500Y-158995000D01*
X250303338Y-158995000D02*
X248576500Y-158995000D01*
X257847500Y-152645000D02*
X257847500Y-153026000D01*
X246417500Y-158614000D02*
X246417500Y-158995000D01*
X248957500Y-152645000D02*
G75*
G03*
X246417500Y-155185000I1J-2540001D01*
G01*
X252767500Y-157089999D02*
G75*
G03*
X250303338Y-159013960I0J-2540000D01*
G01*
X305472500Y-133595000D02*
X305472500Y-133976000D01*
X294423500Y-139945000D02*
X294042500Y-139945000D01*
X294042500Y-136135000D02*
X294042500Y-136516000D01*
X294042500Y-139564000D02*
X294042500Y-139945000D01*
X305472500Y-137024000D02*
X305472500Y-138040000D01*
X296582500Y-133595000D02*
X305472500Y-133595000D01*
X305472500Y-138040000D02*
X300392500Y-138040000D01*
X297928338Y-139945000D02*
X296201500Y-139945000D01*
X300392500Y-138039999D02*
G75*
G03*
X297928338Y-139963960I0J-2540000D01*
G01*
X296582500Y-133595000D02*
G75*
G03*
X294042500Y-136135000I1J-2540001D01*
G01*
X167360000Y-176140000D02*
X162280000Y-176140000D01*
X158470000Y-171695000D02*
X167360000Y-171695000D01*
X167360000Y-171695000D02*
X167360000Y-172076000D01*
X167360000Y-175124000D02*
X167360000Y-176140000D01*
X155930000Y-174235000D02*
X155930000Y-174616000D01*
X159815838Y-178045000D02*
X158089000Y-178045000D01*
X155930000Y-177664000D02*
X155930000Y-178045000D01*
X156311000Y-178045000D02*
X155930000Y-178045000D01*
X158470000Y-171695000D02*
G75*
G03*
X155930000Y-174235000I1J-2540001D01*
G01*
X162280000Y-176139999D02*
G75*
G03*
X159815838Y-178063960I0J-2540000D01*
G01*
X122592500Y-139564000D02*
X122592500Y-139945000D01*
X125132500Y-133595000D02*
X134022500Y-133595000D01*
X122592500Y-136135000D02*
X122592500Y-136516000D01*
X122973500Y-139945000D02*
X122592500Y-139945000D01*
X134022500Y-138040000D02*
X128942500Y-138040000D01*
X134022500Y-133595000D02*
X134022500Y-133976000D01*
X134022500Y-137024000D02*
X134022500Y-138040000D01*
X126478338Y-139945000D02*
X124751500Y-139945000D01*
X128942500Y-138039999D02*
G75*
G03*
X126478338Y-139963960I0J-2540000D01*
G01*
X125132500Y-133595000D02*
G75*
G03*
X122592500Y-136135000I1J-2540001D01*
G01*
X382307500Y-133595000D02*
X391197500Y-133595000D01*
X391197500Y-138040000D02*
X386117500Y-138040000D01*
X379767500Y-136135000D02*
X379767500Y-136516000D01*
X380148500Y-139945000D02*
X379767500Y-139945000D01*
X391197500Y-133595000D02*
X391197500Y-133976000D01*
X383653338Y-139945000D02*
X381926500Y-139945000D01*
X379767500Y-139564000D02*
X379767500Y-139945000D01*
X391197500Y-137024000D02*
X391197500Y-138040000D01*
X382307500Y-133595000D02*
G75*
G03*
X379767500Y-136135000I1J-2540001D01*
G01*
X386117500Y-138039999D02*
G75*
G03*
X383653338Y-139963960I0J-2540000D01*
G01*
X243560000Y-175124000D02*
X243560000Y-176140000D01*
X243560000Y-176140000D02*
X238480000Y-176140000D01*
X243560000Y-171695000D02*
X243560000Y-172076000D01*
X232130000Y-174235000D02*
X232130000Y-174616000D01*
X236015838Y-178045000D02*
X234289000Y-178045000D01*
X234670000Y-171695000D02*
X243560000Y-171695000D01*
X232130000Y-177664000D02*
X232130000Y-178045000D01*
X232511000Y-178045000D02*
X232130000Y-178045000D01*
X238480000Y-176139999D02*
G75*
G03*
X236015838Y-178063960I0J-2540000D01*
G01*
X234670000Y-171695000D02*
G75*
G03*
X232130000Y-174235000I1J-2540001D01*
G01*
D11*
X391650000Y-100500000D02*
X389110000Y-100500000D01*
X406890000Y-130980000D02*
X406890000Y-97960000D01*
X391650000Y-100500000D02*
X391650000Y-103040000D01*
X406890000Y-97960000D02*
X389110000Y-97960000D01*
X389110000Y-130980000D02*
X406890000Y-130980000D01*
X389110000Y-97960000D02*
X389110000Y-130980000D01*
X391650000Y-103040000D02*
X389110000Y-103040000D01*
G36*
X404344635Y-107189030D02*
G01*
X404244635Y-107189030D01*
X404244635Y-106389030D01*
X404344635Y-106389030D01*
X404344635Y-107189030D01*
G37*
D10*
X404344635Y-107189030D02*
X404244635Y-107189030D01*
X404244635Y-106389030D01*
X404344635Y-106389030D01*
X404344635Y-107189030D01*
G36*
X403944635Y-107189030D02*
G01*
X403844635Y-107189030D01*
X403844635Y-106989030D01*
X403944635Y-106989030D01*
X403944635Y-107189030D01*
G37*
X403944635Y-107189030D02*
X403844635Y-107189030D01*
X403844635Y-106989030D01*
X403944635Y-106989030D01*
X403944635Y-107189030D01*
G36*
X403944635Y-106689030D02*
G01*
X403844635Y-106689030D01*
X403844635Y-106389030D01*
X403944635Y-106389030D01*
X403944635Y-106689030D01*
G37*
X403944635Y-106689030D02*
X403844635Y-106689030D01*
X403844635Y-106389030D01*
X403944635Y-106389030D01*
X403944635Y-106689030D01*
G36*
X404144635Y-106889030D02*
G01*
X404044635Y-106889030D01*
X404044635Y-106789030D01*
X404144635Y-106789030D01*
X404144635Y-106889030D01*
G37*
X404144635Y-106889030D02*
X404044635Y-106889030D01*
X404044635Y-106789030D01*
X404144635Y-106789030D01*
X404144635Y-106889030D01*
G36*
X404344635Y-106489030D02*
G01*
X403844635Y-106489030D01*
X403844635Y-106389030D01*
X404344635Y-106389030D01*
X404344635Y-106489030D01*
G37*
X404344635Y-106489030D02*
X403844635Y-106489030D01*
X403844635Y-106389030D01*
X404344635Y-106389030D01*
X404344635Y-106489030D01*
D12*
X390380000Y-101770000D03*
D13*
X390380000Y-104310000D03*
X390380000Y-106850000D03*
X390380000Y-109390000D03*
X390380000Y-111930000D03*
X390380000Y-114470000D03*
X390380000Y-117010000D03*
X390380000Y-119550000D03*
X390380000Y-122090000D03*
X390380000Y-124630000D03*
X390380000Y-127170000D03*
X390608600Y-129710000D03*
X405620000Y-129710000D03*
X405620000Y-127170000D03*
X405620000Y-124630000D03*
X405620000Y-122090000D03*
X405620000Y-119550000D03*
X405620000Y-117010000D03*
X405620000Y-114470000D03*
X405620000Y-111930000D03*
X405620000Y-109390000D03*
X405620000Y-106850000D03*
X405620000Y-104310000D03*
X405620000Y-101770000D03*
X392920000Y-129710000D03*
X395460000Y-129710000D03*
X398000000Y-129710000D03*
X400540000Y-129710000D03*
X403080000Y-129710000D03*
M02*
