M48
; DRILL file {KiCad (6.0.10)} date Sun Mar  5 14:36:36 2023
; FORMAT={-:-/ absolute / metric / decimal}
; #@! TF.CreationDate,2023-03-05T14:36:36-08:00
; #@! TF.GenerationSoftware,Kicad,Pcbnew,(6.0.10)
; #@! TF.FileFunction,NonPlated,1,2,NPTH
FMAT,2
METRIC
; #@! TA.AperFunction,NonPlated,NPTH,ComponentDrill
T1C1.702
; #@! TA.AperFunction,NonPlated,NPTH,ComponentDrill
T2C3.000
; #@! TA.AperFunction,NonPlated,NPTH,ComponentDrill
T3C3.048
; #@! TA.AperFunction,NonPlated,NPTH,ComponentDrill
T4C3.050
; #@! TA.AperFunction,NonPlated,NPTH,ComponentDrill
T5C3.988
; #@! TA.AperFunction,NonPlated,NPTH,ComponentDrill
T6C4.000
%
G90
G05
T1
X123.862Y-116.767
X123.862Y-140.58
X126.244Y-216.78
X128.625Y-159.63
X131.006Y-178.68
X134.023Y-116.767
X134.023Y-140.58
X135.769Y-197.73
X136.404Y-216.78
X138.785Y-159.63
X141.166Y-178.68
X142.912Y-140.58
X145.929Y-197.73
X147.675Y-116.767
X150.056Y-216.78
X152.438Y-159.63
X153.072Y-140.58
X157.2Y-178.68
X157.835Y-116.767
X160.216Y-216.78
X161.963Y-140.58
X162.597Y-159.63
X166.725Y-116.767
X166.725Y-197.73
X167.36Y-178.68
X171.487Y-159.63
X172.123Y-140.58
X173.869Y-216.78
X176.25Y-178.68
X176.885Y-116.767
X176.885Y-197.73
X181.012Y-140.58
X181.647Y-159.63
X184.029Y-216.78
X185.775Y-116.767
X185.775Y-197.73
X186.41Y-178.68
X190.537Y-159.63
X191.172Y-140.58
X195.3Y-178.68
X195.935Y-116.767
X195.935Y-197.73
X200.062Y-140.58
X200.697Y-159.63
X204.825Y-116.767
X204.825Y-197.73
X205.46Y-178.68
X209.587Y-159.63
X210.222Y-140.58
X214.35Y-178.68
X214.985Y-116.767
X214.985Y-197.73
X219.112Y-140.58
X219.748Y-159.63
X223.875Y-197.73
X224.51Y-178.68
X228.637Y-116.767
X228.637Y-159.63
X229.272Y-140.58
X233.4Y-178.68
X234.035Y-197.73
X238.162Y-140.58
X238.797Y-116.767
X238.797Y-159.63
X242.925Y-197.73
X243.56Y-178.68
X245.27Y-216.76
X247.688Y-116.767
X247.688Y-159.63
X248.322Y-140.58
X252.45Y-178.68
X253.085Y-197.73
X255.43Y-216.76
X257.212Y-140.58
X257.847Y-116.767
X257.847Y-159.63
X261.975Y-197.73
X262.61Y-178.68
X266.738Y-116.767
X266.738Y-159.63
X267.373Y-140.58
X271.5Y-178.68
X272.135Y-197.73
X276.262Y-140.58
X276.897Y-116.767
X276.897Y-159.63
X281.025Y-197.73
X281.66Y-178.68
X285.787Y-116.767
X285.787Y-159.63
X286.423Y-140.58
X290.55Y-178.68
X291.185Y-197.73
X295.312Y-140.58
X295.947Y-116.767
X295.947Y-159.63
X300.075Y-197.73
X300.71Y-178.68
X304.837Y-159.63
X305.472Y-140.58
X309.6Y-116.767
X309.6Y-178.68
X310.235Y-197.73
X314.363Y-140.58
X314.998Y-159.63
X316.744Y-216.78
X319.125Y-197.73
X319.76Y-116.767
X319.76Y-178.68
X323.887Y-159.63
X324.522Y-140.58
X326.904Y-216.78
X328.65Y-116.767
X328.65Y-178.68
X329.285Y-197.73
X333.412Y-140.58
X334.047Y-159.63
X338.175Y-197.73
X338.81Y-116.767
X338.81Y-178.68
X340.556Y-216.78
X342.938Y-159.63
X343.572Y-140.58
X347.7Y-116.767
X347.7Y-178.68
X348.335Y-197.73
X350.716Y-216.78
X352.462Y-140.58
X353.097Y-159.63
X357.86Y-116.767
X357.86Y-178.68
X361.988Y-159.63
X362.623Y-140.58
X366.75Y-116.767
X369.131Y-197.73
X372.147Y-159.63
X376.91Y-116.767
X378.656Y-178.68
X379.291Y-197.73
X381.037Y-140.58
X381.037Y-216.78
X385.8Y-159.63
X388.816Y-178.68
X391.197Y-140.58
X391.197Y-216.78
X395.96Y-159.63
X400.087Y-197.73
X400.087Y-216.78
X410.248Y-197.73
X410.248Y-216.78
X416.28Y-116.767
X416.28Y-135.817
X416.28Y-154.868
X416.28Y-173.917
X419.137Y-216.78
X426.44Y-116.767
X426.44Y-135.817
X426.44Y-154.868
X426.44Y-173.917
X429.297Y-216.78
T2
X125.132Y-114.227
X125.132Y-138.04
X127.514Y-214.24
X129.895Y-157.09
X131.482Y-111.688
X131.482Y-135.5
X132.276Y-176.14
X133.864Y-211.7
X136.245Y-154.55
X137.039Y-195.19
X138.626Y-173.6
X143.389Y-192.65
X144.183Y-138.04
X148.945Y-114.227
X150.532Y-135.5
X151.326Y-214.24
X153.707Y-157.09
X155.295Y-111.688
X157.676Y-211.7
X158.47Y-176.14
X160.058Y-154.55
X163.232Y-138.04
X164.82Y-173.6
X167.995Y-114.227
X167.995Y-195.19
X169.582Y-135.5
X172.757Y-157.09
X174.345Y-111.688
X174.345Y-192.65
X175.139Y-214.24
X177.52Y-176.14
X179.107Y-154.55
X181.489Y-211.7
X182.282Y-138.04
X183.87Y-173.6
X187.045Y-114.227
X187.045Y-195.19
X188.632Y-135.5
X191.808Y-157.09
X193.395Y-111.688
X193.395Y-192.65
X196.57Y-176.14
X198.157Y-154.55
X201.332Y-138.04
X202.92Y-173.6
X206.095Y-114.227
X206.095Y-195.19
X207.683Y-135.5
X210.857Y-157.09
X212.445Y-111.688
X212.445Y-192.65
X215.62Y-176.14
X217.207Y-154.55
X220.382Y-138.04
X221.97Y-173.6
X225.145Y-195.19
X226.732Y-135.5
X229.907Y-114.227
X229.907Y-157.09
X231.495Y-192.65
X234.67Y-176.14
X236.257Y-111.688
X236.257Y-154.55
X239.432Y-138.04
X241.02Y-173.6
X244.195Y-195.19
X245.782Y-135.5
X246.54Y-214.22
X248.957Y-114.227
X248.957Y-157.09
X250.545Y-192.65
X252.89Y-211.68
X253.72Y-176.14
X255.307Y-111.688
X255.307Y-154.55
X258.483Y-138.04
X260.07Y-173.6
X263.245Y-195.19
X264.832Y-135.5
X268.007Y-114.227
X268.007Y-157.09
X269.595Y-192.65
X272.77Y-176.14
X274.358Y-111.688
X274.358Y-154.55
X277.532Y-138.04
X279.12Y-173.6
X282.295Y-195.19
X283.882Y-135.5
X287.058Y-114.227
X287.058Y-157.09
X288.645Y-192.65
X291.82Y-176.14
X293.407Y-111.688
X293.407Y-154.55
X296.582Y-138.04
X298.17Y-173.6
X301.345Y-195.19
X302.933Y-135.5
X306.107Y-157.09
X307.695Y-192.65
X310.87Y-114.227
X310.87Y-176.14
X312.457Y-154.55
X315.632Y-138.04
X317.22Y-111.688
X317.22Y-173.6
X318.014Y-214.24
X320.395Y-195.19
X321.982Y-135.5
X324.364Y-211.7
X325.157Y-157.09
X326.745Y-192.65
X329.92Y-114.227
X329.92Y-176.14
X331.507Y-154.55
X334.683Y-138.04
X336.27Y-111.688
X336.27Y-173.6
X339.445Y-195.19
X341.032Y-135.5
X341.826Y-214.24
X344.207Y-157.09
X345.795Y-192.65
X348.176Y-211.7
X348.97Y-114.227
X348.97Y-176.14
X350.558Y-154.55
X353.732Y-138.04
X355.32Y-111.688
X355.32Y-173.6
X360.082Y-135.5
X363.257Y-157.09
X368.02Y-114.227
X369.607Y-154.55
X370.401Y-195.19
X374.37Y-111.688
X376.751Y-192.65
X379.926Y-176.14
X382.308Y-138.04
X382.308Y-214.24
X386.276Y-173.6
X387.07Y-157.09
X388.657Y-135.5
X388.657Y-211.7
X393.42Y-154.55
X401.357Y-195.19
X401.357Y-214.24
X407.707Y-192.65
X407.707Y-211.7
X417.55Y-114.227
X417.55Y-133.278
X417.55Y-152.327
X417.55Y-171.377
X420.407Y-214.24
X423.9Y-111.688
X423.9Y-130.737
X423.9Y-149.787
X423.9Y-168.838
X426.757Y-211.7
T3
X202.761Y-209.795
X298.011Y-209.795
T4
X128.936Y-190.542
X152.736Y-190.542
X362.298Y-190.542
X371.823Y-171.492
X374.205Y-133.392
X386.098Y-190.542
X395.623Y-171.492
X398.005Y-133.392
T5
X128.942Y-116.767
X128.942Y-140.58
X131.324Y-216.78
X133.705Y-159.63
X136.086Y-178.68
X140.849Y-197.73
X147.993Y-140.58
X152.755Y-116.767
X155.136Y-216.78
X157.517Y-159.63
X162.28Y-178.68
X167.042Y-140.58
X171.805Y-116.767
X171.805Y-197.73
X176.567Y-159.63
X178.949Y-216.78
X181.33Y-178.68
X186.093Y-140.58
X190.855Y-116.767
X190.855Y-197.73
X195.617Y-159.63
X200.38Y-178.68
X202.761Y-225.035
X205.142Y-140.58
X209.905Y-116.767
X209.905Y-197.73
X214.667Y-159.63
X219.43Y-178.68
X224.192Y-140.58
X228.955Y-197.73
X233.718Y-116.767
X233.718Y-159.63
X238.48Y-178.68
X243.242Y-140.58
X248.005Y-197.73
X250.35Y-216.76
X252.767Y-116.767
X252.767Y-159.63
X257.53Y-178.68
X262.292Y-140.58
X267.055Y-197.73
X271.817Y-116.767
X271.817Y-159.63
X276.58Y-178.68
X281.342Y-140.58
X286.105Y-197.73
X290.868Y-116.767
X290.868Y-159.63
X295.63Y-178.68
X298.011Y-225.035
X300.392Y-140.58
X305.155Y-197.73
X309.917Y-159.63
X314.68Y-116.767
X314.68Y-178.68
X319.442Y-140.58
X321.824Y-216.78
X324.205Y-197.73
X328.967Y-159.63
X333.73Y-116.767
X333.73Y-178.68
X338.493Y-140.58
X343.255Y-197.73
X345.636Y-216.78
X348.017Y-159.63
X352.78Y-116.767
X352.78Y-178.68
X357.542Y-140.58
X367.067Y-159.63
X371.83Y-116.767
X374.211Y-197.73
X383.736Y-178.68
X386.118Y-140.58
X386.118Y-216.78
X390.88Y-159.63
X405.167Y-197.73
X405.167Y-216.78
X421.36Y-116.767
X421.36Y-135.817
X421.36Y-154.868
X421.36Y-173.917
X424.217Y-216.78
T6
X128.936Y-205.782
X152.736Y-205.782
X362.298Y-205.782
X371.823Y-186.732
X374.205Y-148.632
X386.098Y-205.782
X395.623Y-186.732
X398.005Y-148.632
T0
M30
