<svg xmlns="http://www.w3.org/2000/svg" viewBox="0 0 1018.59 252.99"><defs><style>.cls-1{fill:none;stroke:#000;stroke-linecap:round;stroke-linejoin:round;stroke-width:0.71px;}</style></defs><g id="Layer_2" data-name="Layer 2"><g id="Top_1" data-name="Top 1"><path class="cls-1" d="M1012.57.35H716.27L482.52,48.55H425.83L192.08.35H6A5.67,5.67,0,0,0,.35,6V247A5.67,5.67,0,0,0,6,252.64H1012.57a5.67,5.67,0,0,0,5.67-5.67V6A5.67,5.67,0,0,0,1012.57.35Z"/><g id="SPLINE"><circle class="cls-1" cx="638.43" cy="238.47" r="3.83"/></g><g id="SPLINE-2" data-name="SPLINE"><circle class="cls-1" cx="269.92" cy="238.47" r="3.83"/></g><g id="SPLINE-3" data-name="SPLINE"><circle class="cls-1" cx="14.53" cy="238.47" r="3.83"/></g><g id="SPLINE-4" data-name="SPLINE"><circle class="cls-1" cx="1004.07" cy="238.47" r="3.83"/></g><g id="SPLINE-5" data-name="SPLINE"><circle class="cls-1" cx="269.92" cy="51.11" r="3.83"/></g><g id="SPLINE-6" data-name="SPLINE"><circle class="cls-1" cx="638.43" cy="51.13" r="3.83"/></g><g id="SPLINE-7" data-name="SPLINE"><circle class="cls-1" cx="1004.07" cy="31.54" r="3.83"/></g><g id="SPLINE-8" data-name="SPLINE"><circle class="cls-1" cx="14.53" cy="31.54" r="3.83"/></g></g></g></svg>