<svg xmlns="http://www.w3.org/2000/svg" viewBox="0 0 1029.93 252.99"><defs><style>.cls-1{fill:none;stroke:#000;stroke-linecap:round;stroke-linejoin:round;stroke-width:0.71px;}</style></defs><g id="Layer_2" data-name="Layer 2"><g id="Top_2" data-name="Top 2"><path class="cls-1" d="M1023.91.35H722.52L488.77,48.55H430.92L197.17.35H6A5.67,5.67,0,0,0,.35,6V241.3a11.34,11.34,0,0,0,11.34,11.34H1018.24a11.34,11.34,0,0,0,11.34-11.34V6A5.67,5.67,0,0,0,1023.91.35Z"/><g id="SPLINE"><path class="cls-1" d="M28.38,232.09a.71.71,0,0,0-.35.1l-3.39-5.88a.69.69,0,0,0,.36-.6.71.71,0,0,0-1.42,0H16.81a.71.71,0,1,0-1.41,0,.69.69,0,0,0,.36.6l-3.4,5.88a.68.68,0,0,0-.35-.1.71.71,0,0,0,0,1.41.68.68,0,0,0,.35-.1l3.4,5.88a.69.69,0,0,0-.36.6.71.71,0,1,0,1.41,0h6.77a.71.71,0,1,0,1.42,0,.69.69,0,0,0-.36-.6L28,233.4a.7.7,0,1,0,.35-1.31Z"/></g><g id="SPLINE-2" data-name="SPLINE"><path class="cls-1" d="M283.77,232.09a.65.65,0,0,0-.34.1l-3.4-5.88a.69.69,0,0,0,.36-.6.71.71,0,0,0-1.42,0h-6.76a.71.71,0,0,0-1.42,0,.69.69,0,0,0,.36.6l-3.39,5.88a.71.71,0,1,0,0,1.21l3.39,5.88a.69.69,0,0,0-.36.6.71.71,0,1,0,1.42,0H279a.71.71,0,0,0,1.42,0,.69.69,0,0,0-.36-.6l3.4-5.88a.65.65,0,0,0,.34.1.71.71,0,1,0,0-1.41Z"/></g><g id="SPLINE-3" data-name="SPLINE"><path class="cls-1" d="M652.28,232.09a.68.68,0,0,0-.35.1l-3.39-5.88a.69.69,0,0,0,.36-.6.71.71,0,0,0-1.42,0h-6.77a.71.71,0,0,0-1.42,0,.69.69,0,0,0,.36.6l-3.39,5.88a.68.68,0,0,0-.35-.1.71.71,0,1,0,0,1.41.68.68,0,0,0,.35-.1l3.39,5.88a.69.69,0,0,0-.36.6.71.71,0,1,0,1.42,0h6.77a.71.71,0,1,0,1.42,0,.69.69,0,0,0-.36-.6l3.39-5.88a.68.68,0,0,0,.35.1.71.71,0,1,0,0-1.41Z"/></g><g id="SPLINE-4" data-name="SPLINE"><path class="cls-1" d="M1017.92,232.09a.68.68,0,0,0-.35.1l-3.39-5.88a.69.69,0,0,0,.36-.6.71.71,0,0,0-1.42,0h-6.77a.71.71,0,1,0-1.41,0,.67.67,0,0,0,.36.6l-3.4,5.88a.68.68,0,0,0-.35-.1.71.71,0,1,0,0,1.41.68.68,0,0,0,.35-.1l3.4,5.88a.67.67,0,0,0-.36.6.71.71,0,1,0,1.41,0h6.77a.71.71,0,1,0,1.42,0,.69.69,0,0,0-.36-.6l3.39-5.88a.68.68,0,0,0,.35.1.71.71,0,1,0,0-1.41Z"/></g><g id="SPLINE-5" data-name="SPLINE"><path class="cls-1" d="M28.38,25.16a.71.71,0,0,0-.35.1l-3.39-5.88a.69.69,0,0,0,.36-.6.71.71,0,0,0-1.42,0H16.81a.71.71,0,1,0-1.41,0,.69.69,0,0,0,.36.6l-3.4,5.88a.68.68,0,0,0-.35-.1.71.71,0,0,0,0,1.41.68.68,0,0,0,.35-.1l3.4,5.88a.69.69,0,0,0-.36.6.71.71,0,1,0,1.41,0h6.77A.71.71,0,1,0,25,33a.69.69,0,0,0-.36-.6L28,26.47a.7.7,0,1,0,.35-1.31Z"/></g><g id="SPLINE-6" data-name="SPLINE"><path class="cls-1" d="M1017.92,25.16a.68.68,0,0,0-.35.1l-3.39-5.88a.69.69,0,0,0,.36-.6.71.71,0,1,0-1.42,0h-6.77a.71.71,0,1,0-1.41,0,.67.67,0,0,0,.36.6l-3.4,5.88a.68.68,0,0,0-.35-.1.71.71,0,1,0,0,1.41.68.68,0,0,0,.35-.1l3.4,5.88a.67.67,0,0,0-.36.6.71.71,0,1,0,1.41,0h6.77a.71.71,0,1,0,1.42,0,.69.69,0,0,0-.36-.6l3.39-5.88a.68.68,0,0,0,.35.1.71.71,0,1,0,0-1.41Z"/></g><g id="SPLINE-7" data-name="SPLINE"><path class="cls-1" d="M283.74,46.44a.87.87,0,0,0-.36,0L281.28,40a.71.71,0,1,0-.91-.81l-6.61-1.41a.71.71,0,0,0-.55-.84.71.71,0,0,0-.84.55.66.66,0,0,0,.23.66l-4.55,5a.72.72,0,0,0-.32-.18.71.71,0,1,0,.07,1.36l2.1,6.45a.7.7,0,0,0,.07,1.36.71.71,0,0,0,.84-.55l6.62,1.41a.71.71,0,0,0,1.38.3.69.69,0,0,0-.22-.67l4.54-5a.71.71,0,1,0,.61-1.22Z"/></g><g id="SPLINE-8" data-name="SPLINE"><path class="cls-1" d="M652,43.06a.78.78,0,0,0-.32.18l-4.54-5.05a.71.71,0,0,0,.23-.66.71.71,0,0,0-.84-.55.71.71,0,0,0-.55.84l-6.62,1.41a.71.71,0,0,0-.84-.55.71.71,0,0,0-.54.84.69.69,0,0,0,.47.52l-2.09,6.46a.66.66,0,0,0-.37,0,.71.71,0,1,0,.3,1.38.67.67,0,0,0,.32-.17l4.54,5a.72.72,0,0,0-.23.67.71.71,0,0,0,1.39-.3l6.62-1.4a.71.71,0,0,0,1.38-.3.68.68,0,0,0-.47-.51l2.09-6.46a.66.66,0,0,0,.37,0,.71.71,0,0,0-.3-1.39Z"/></g></g></g></svg>