G04 #@! TF.GenerationSoftware,KiCad,Pcbnew,(6.0.7)*
G04 #@! TF.CreationDate,2022-11-04T00:11:21-07:00*
G04 #@! TF.ProjectId,gigan rev2,67696761-6e20-4726-9576-322e6b696361,rev?*
G04 #@! TF.SameCoordinates,Original*
G04 #@! TF.FileFunction,Profile,NP*
%FSLAX46Y46*%
G04 Gerber Fmt 4.6, Leading zero omitted, Abs format (unit mm)*
G04 Created by KiCad (PCBNEW (6.0.7)) date 2022-11-04 00:11:21*
%MOMM*%
%LPD*%
G01*
G04 APERTURE LIST*
G04 #@! TA.AperFunction,Profile*
%ADD10C,0.100000*%
G04 #@! TD*
G04 APERTURE END LIST*
D10*
X206518224Y-146498324D02*
X214018224Y-146498324D01*
X206018224Y-145998324D02*
X206018224Y-130248324D01*
X349998800Y-57341200D02*
X363867200Y-138875200D01*
X71259200Y-57341200D02*
X188200800Y-77966000D01*
X246747800Y-192393000D02*
X173951400Y-192342200D01*
X206518224Y-129748324D02*
X214018224Y-129748324D01*
X206018176Y-145998324D02*
G75*
G03*
X206518224Y-146498324I500024J24D01*
G01*
X199580000Y-70396800D02*
X222744800Y-70396800D01*
X57949600Y-136690800D02*
X71259200Y-57341200D01*
X188200800Y-77966000D02*
X199580000Y-70396800D01*
X328510400Y-164529200D02*
X246747800Y-192393000D01*
X92442800Y-163106800D02*
X57949600Y-136690800D01*
X214518224Y-130248324D02*
X214518224Y-145998324D01*
X232650800Y-77762800D02*
X349998800Y-57341200D01*
X173951400Y-192342200D02*
X92442800Y-163106800D01*
X222744800Y-70396800D02*
X232650800Y-77762800D01*
X214518176Y-130248324D02*
G75*
G03*
X214018224Y-129748324I-499976J24D01*
G01*
X363867200Y-138875200D02*
X328510400Y-164529200D01*
X214018224Y-146498324D02*
G75*
G03*
X214518224Y-145998324I-24J500024D01*
G01*
X206518224Y-129748324D02*
G75*
G03*
X206018224Y-130248324I-24J-499976D01*
G01*
M02*
